<?xml version="1.0" encoding="UTF-8" standalone="no"?>
<!DOCTYPE svg PUBLIC "-//W3C//DTD SVG 1.1//EN"
 "http://www.w3.org/Graphics/SVG/1.1/DTD/svg11.dtd">
<!-- Generated by graphviz version 2.43.0 (0)
 -->
<!-- Title: include/tvm/arith/analyzer.h Pages: 1 -->
<svg width="3589pt" height="890pt"
 viewBox="0.00 0.00 3589.00 890.00" xmlns="http://www.w3.org/2000/svg" xmlns:xlink="http://www.w3.org/1999/xlink">
<g id="graph0" class="graph" transform="scale(1 1) rotate(0) translate(4 886)">
<title>include/tvm/arith/analyzer.h</title>
<polygon fill="white" stroke="transparent" points="-4,4 -4,-886 3585,-886 3585,4 -4,4"/>
<!-- Node1 -->
<g id="node1" class="node">
<title>Node1</title>
<g id="a_node1"><a xlink:title="Algebra expression simplifications.">
<polygon fill="#bfbfbf" stroke="black" points="2896.5,-862.5 2896.5,-881.5 3049.5,-881.5 3049.5,-862.5 2896.5,-862.5"/>
<text text-anchor="middle" x="2973" y="-869.5" font-family="Helvetica,sans-Serif" font-size="10.00">include/tvm/arith/analyzer.h</text>
</a>
</g>
</g>
<!-- Node2 -->
<g id="node2" class="node">
<title>Node2</title>
<g id="a_node2"><a xlink:href="int__set_8h.html" target="_top" xlink:title="Integer set.">
<polygon fill="white" stroke="black" points="2919.5,-806.5 2919.5,-825.5 3026.5,-825.5 3026.5,-806.5 2919.5,-806.5"/>
<text text-anchor="middle" x="2973" y="-813.5" font-family="Helvetica,sans-Serif" font-size="10.00">tvm/arith/int_set.h</text>
</a>
</g>
</g>
<!-- Node1&#45;&gt;Node2 -->
<g id="edge1" class="edge">
<title>Node1&#45;&gt;Node2</title>
<path fill="none" stroke="midnightblue" d="M2973,-862.08C2973,-855.01 2973,-844.86 2973,-835.99"/>
<polygon fill="midnightblue" stroke="midnightblue" points="2976.5,-835.75 2973,-825.75 2969.5,-835.75 2976.5,-835.75"/>
</g>
<!-- Node3 -->
<g id="node3" class="node">
<title>Node3</title>
<g id="a_node3"><a xlink:href="ir_2expr_8h.html" target="_top" xlink:title="Base expr nodes in TVM.">
<polygon fill="white" stroke="black" points="2004.5,-241 2004.5,-260 2083.5,-260 2083.5,-241 2004.5,-241"/>
<text text-anchor="middle" x="2044" y="-248" font-family="Helvetica,sans-Serif" font-size="10.00">tvm/ir/expr.h</text>
</a>
</g>
</g>
<!-- Node1&#45;&gt;Node3 -->
<g id="edge174" class="edge">
<title>Node1&#45;&gt;Node3</title>
<path fill="none" stroke="midnightblue" d="M2989.02,-862.48C3002.7,-854.54 3022.15,-841.61 3035,-826 3091.38,-757.52 3139.27,-718.49 3102,-638 3053.51,-533.27 2999.96,-534.12 2904,-470 2858.72,-439.74 2845.17,-435.21 2795,-414 2629.68,-344.11 2583.16,-336.37 2407,-302 2296.07,-280.36 2164.31,-264.44 2094.04,-256.72"/>
<polygon fill="midnightblue" stroke="midnightblue" points="2094.03,-253.19 2083.71,-255.59 2093.28,-260.15 2094.03,-253.19"/>
</g>
<!-- Node5 -->
<g id="node5" class="node">
<title>Node5</title>
<g id="a_node5"><a xlink:title=" ">
<polygon fill="white" stroke="#bfbfbf" points="2871,-56.5 2871,-86.5 2969,-86.5 2969,-56.5 2871,-56.5"/>
<text text-anchor="start" x="2879" y="-74.5" font-family="Helvetica,sans-Serif" font-size="10.00">tvm/ffi/reflection</text>
<text text-anchor="middle" x="2920" y="-63.5" font-family="Helvetica,sans-Serif" font-size="10.00">/registry.h</text>
</a>
</g>
</g>
<!-- Node1&#45;&gt;Node5 -->
<g id="edge172" class="edge">
<title>Node1&#45;&gt;Node5</title>
<path fill="none" stroke="midnightblue" d="M3049.58,-871.98C3205.03,-871.91 3543,-860.34 3543,-761 3543,-761 3543,-761 3543,-311 3543,-230.2 3488.36,-218.72 3418,-179 3274.82,-98.16 3076.85,-78.57 2979.26,-73.9"/>
<polygon fill="midnightblue" stroke="midnightblue" points="2979.15,-70.39 2969,-73.45 2978.84,-77.38 2979.15,-70.39"/>
</g>
<!-- Node6 -->
<g id="node6" class="node">
<title>Node6</title>
<g id="a_node6"><a xlink:title=" ">
<polygon fill="white" stroke="#bfbfbf" points="724.5,-179.5 724.5,-198.5 813.5,-198.5 813.5,-179.5 724.5,-179.5"/>
<text text-anchor="middle" x="769" y="-186.5" font-family="Helvetica,sans-Serif" font-size="10.00">tvm/ffi/string.h</text>
</a>
</g>
</g>
<!-- Node1&#45;&gt;Node6 -->
<g id="edge173" class="edge">
<title>Node1&#45;&gt;Node6</title>
<path fill="none" stroke="midnightblue" d="M2896.4,-869.67C2477.44,-862.13 482,-822.99 482,-761 482,-761 482,-761 482,-591 482,-400.34 687.49,-441.5 762,-266 769.75,-247.75 770.83,-224.86 770.39,-208.99"/>
<polygon fill="midnightblue" stroke="midnightblue" points="773.88,-208.66 769.88,-198.85 766.89,-209.02 773.88,-208.66"/>
</g>
<!-- Node9 -->
<g id="node9" class="node">
<title>Node9</title>
<g id="a_node9"><a xlink:title=" ">
<polygon fill="white" stroke="#bfbfbf" points="2544.5,-123.5 2544.5,-142.5 2625.5,-142.5 2625.5,-123.5 2544.5,-123.5"/>
<text text-anchor="middle" x="2585" y="-130.5" font-family="Helvetica,sans-Serif" font-size="10.00">tvm/ffi/cast.h</text>
</a>
</g>
</g>
<!-- Node1&#45;&gt;Node9 -->
<g id="edge171" class="edge">
<title>Node1&#45;&gt;Node9</title>
<path fill="none" stroke="midnightblue" d="M3045.95,-862.46C3146.39,-848.62 3315,-817.06 3315,-761 3315,-761 3315,-761 3315,-703 3315,-600.23 3384.59,-590.72 3405,-490 3432.46,-354.47 3493.52,-277.03 3396,-179 3369.12,-151.98 2809.17,-138.5 2635.74,-134.97"/>
<polygon fill="midnightblue" stroke="midnightblue" points="2635.68,-131.46 2625.61,-134.76 2635.53,-138.46 2635.68,-131.46"/>
</g>
<!-- Node14 -->
<g id="node14" class="node">
<title>Node14</title>
<g id="a_node14"><a xlink:title=" ">
<polygon fill="white" stroke="#bfbfbf" points="673.5,-62 673.5,-81 718.5,-81 718.5,-62 673.5,-62"/>
<text text-anchor="middle" x="696" y="-69" font-family="Helvetica,sans-Serif" font-size="10.00">utility</text>
</a>
</g>
</g>
<!-- Node1&#45;&gt;Node14 -->
<g id="edge179" class="edge">
<title>Node1&#45;&gt;Node14</title>
<path fill="none" stroke="midnightblue" d="M2896.35,-870.67C2488.15,-868.79 578.39,-858.29 317,-826 190.64,-810.39 38,-888.32 38,-761 38,-761 38,-761 38,-311 38,-154.4 188.95,-176.86 336,-123 450.84,-80.94 598.11,-73.62 662.9,-72.55"/>
<polygon fill="midnightblue" stroke="midnightblue" points="663.34,-76.04 673.29,-72.42 663.25,-69.04 663.34,-76.04"/>
</g>
<!-- Node23 -->
<g id="node23" class="node">
<title>Node23</title>
<g id="a_node23"><a xlink:title=" ">
<polygon fill="white" stroke="#bfbfbf" points="318.5,-62 318.5,-81 365.5,-81 365.5,-62 318.5,-62"/>
<text text-anchor="middle" x="342" y="-69" font-family="Helvetica,sans-Serif" font-size="10.00">vector</text>
</a>
</g>
</g>
<!-- Node1&#45;&gt;Node23 -->
<g id="edge180" class="edge">
<title>Node1&#45;&gt;Node23</title>
<path fill="none" stroke="midnightblue" d="M2896.17,-870.78C2440.43,-869.39 109.73,-860.55 45,-826 14,-809.45 0,-796.14 0,-761 0,-761 0,-761 0,-188 0,-123.33 222.3,-87.86 308.45,-76.55"/>
<polygon fill="midnightblue" stroke="midnightblue" points="309.02,-80 318.49,-75.25 308.13,-73.06 309.02,-80"/>
</g>
<!-- Node31 -->
<g id="node31" class="node">
<title>Node31</title>
<g id="a_node31"><a xlink:title=" ">
<polygon fill="white" stroke="#bfbfbf" points="3343,-179.5 3343,-198.5 3387,-198.5 3387,-179.5 3343,-179.5"/>
<text text-anchor="middle" x="3365" y="-186.5" font-family="Helvetica,sans-Serif" font-size="10.00">limits</text>
</a>
</g>
</g>
<!-- Node1&#45;&gt;Node31 -->
<g id="edge176" class="edge">
<title>Node1&#45;&gt;Node31</title>
<path fill="none" stroke="midnightblue" d="M3049.74,-867.3C3139.42,-861.94 3281.59,-849.93 3329,-826 3364.64,-808.01 3391,-800.92 3391,-761 3391,-761 3391,-761 3391,-367 3391,-308.66 3377,-240.63 3369.55,-208.55"/>
<polygon fill="midnightblue" stroke="midnightblue" points="3372.94,-207.69 3367.22,-198.77 3366.13,-209.31 3372.94,-207.69"/>
</g>
<!-- Node37 -->
<g id="node37" class="node">
<title>Node37</title>
<g id="a_node37"><a xlink:title=" ">
<polygon fill="white" stroke="#bfbfbf" points="3039.5,-179.5 3039.5,-198.5 3132.5,-198.5 3132.5,-179.5 3039.5,-179.5"/>
<text text-anchor="middle" x="3086" y="-186.5" font-family="Helvetica,sans-Serif" font-size="10.00">unordered_map</text>
</a>
</g>
</g>
<!-- Node1&#45;&gt;Node37 -->
<g id="edge178" class="edge">
<title>Node1&#45;&gt;Node37</title>
<path fill="none" stroke="midnightblue" d="M2994.72,-862.45C3012.83,-854.66 3038.69,-841.95 3058,-826 3144.28,-754.73 3156.31,-712.66 3173,-602 3192.97,-469.58 3180.4,-431.15 3145,-302 3136.78,-272.03 3139.96,-262.24 3125,-235 3119.18,-224.4 3110.53,-214.09 3102.86,-206.02"/>
<polygon fill="midnightblue" stroke="midnightblue" points="3105.18,-203.39 3095.65,-198.76 3100.22,-208.32 3105.18,-203.39"/>
</g>
<!-- Node47 -->
<g id="node47" class="node">
<title>Node47</title>
<g id="a_node47"><a xlink:href="with__context_8h.html" target="_top" xlink:title="RAII wrapper function to enter and exit a context object similar to python&#39;s with syntax.">
<polygon fill="white" stroke="black" points="243.5,-302.5 243.5,-321.5 364.5,-321.5 364.5,-302.5 243.5,-302.5"/>
<text text-anchor="middle" x="304" y="-309.5" font-family="Helvetica,sans-Serif" font-size="10.00">tvm/ir/with_context.h</text>
</a>
</g>
</g>
<!-- Node1&#45;&gt;Node47 -->
<g id="edge175" class="edge">
<title>Node1&#45;&gt;Node47</title>
<path fill="none" stroke="midnightblue" d="M2896.34,-870.85C2481.01,-869.92 514.61,-863.51 392,-826 341.31,-810.49 292,-814.01 292,-761 292,-761 292,-761 292,-423 292,-390.76 297.16,-353.51 300.71,-331.68"/>
<polygon fill="midnightblue" stroke="midnightblue" points="304.21,-331.97 302.43,-321.52 297.31,-330.8 304.21,-331.97"/>
</g>
<!-- Node49 -->
<g id="node49" class="node">
<title>Node49</title>
<g id="a_node49"><a xlink:title=" ">
<polygon fill="white" stroke="#bfbfbf" points="416,-241 416,-260 474,-260 474,-241 416,-241"/>
<text text-anchor="middle" x="445" y="-248" font-family="Helvetica,sans-Serif" font-size="10.00">memory</text>
</a>
</g>
</g>
<!-- Node1&#45;&gt;Node49 -->
<g id="edge177" class="edge">
<title>Node1&#45;&gt;Node49</title>
<path fill="none" stroke="midnightblue" d="M2896.43,-871.28C2488.16,-872.58 581.77,-875.92 468,-826 431.44,-809.96 406,-800.92 406,-761 406,-761 406,-761 406,-367 406,-330.66 423.54,-291.11 435.1,-269"/>
<polygon fill="midnightblue" stroke="midnightblue" points="438.21,-270.61 439.9,-260.15 432.06,-267.27 438.21,-270.61"/>
</g>
<!-- Node2&#45;&gt;Node3 -->
<g id="edge2" class="edge">
<title>Node2&#45;&gt;Node3</title>
<path fill="none" stroke="midnightblue" d="M2973,-806.44C2973,-787.94 2973,-742.81 2973,-705 2973,-705 2973,-705 2973,-591 2973,-402.05 2286.44,-287.07 2093.75,-258.52"/>
<polygon fill="midnightblue" stroke="midnightblue" points="2094.02,-255.02 2083.62,-257.03 2093.01,-261.95 2094.02,-255.02"/>
</g>
<!-- Node32 -->
<g id="node32" class="node">
<title>Node32</title>
<g id="a_node32"><a xlink:href="tirx_2expr_8h.html" target="_top" xlink:title="TIR expressions.">
<polygon fill="white" stroke="black" points="1168.5,-750.5 1168.5,-769.5 1257.5,-769.5 1257.5,-750.5 1168.5,-750.5"/>
<text text-anchor="middle" x="1213" y="-757.5" font-family="Helvetica,sans-Serif" font-size="10.00">tvm/tirx/expr.h</text>
</a>
</g>
</g>
<!-- Node2&#45;&gt;Node32 -->
<g id="edge46" class="edge">
<title>Node2&#45;&gt;Node32</title>
<path fill="none" stroke="midnightblue" d="M2919.37,-813.35C2659.13,-805.37 1529.89,-770.72 1267.58,-762.67"/>
<polygon fill="midnightblue" stroke="midnightblue" points="1267.63,-759.17 1257.53,-762.37 1267.42,-766.17 1267.63,-759.17"/>
</g>
<!-- Node2&#45;&gt;Node37 -->
<g id="edge170" class="edge">
<title>Node2&#45;&gt;Node37</title>
<path fill="none" stroke="midnightblue" d="M2994.74,-806.41C3027.12,-792.38 3087.28,-761.28 3116,-714 3220.18,-542.52 3122.95,-278.36 3093.71,-207.82"/>
<polygon fill="midnightblue" stroke="midnightblue" points="3096.9,-206.37 3089.78,-198.53 3090.45,-209.1 3096.9,-206.37"/>
</g>
<!-- Node4 -->
<g id="node4" class="node">
<title>Node4</title>
<g id="a_node4"><a xlink:title=" ">
<polygon fill="white" stroke="#bfbfbf" points="2129,-179.5 2129,-198.5 2265,-198.5 2265,-179.5 2129,-179.5"/>
<text text-anchor="middle" x="2197" y="-186.5" font-family="Helvetica,sans-Serif" font-size="10.00">tvm/ffi/extra/dataclass.h</text>
</a>
</g>
</g>
<!-- Node3&#45;&gt;Node4 -->
<g id="edge3" class="edge">
<title>Node3&#45;&gt;Node4</title>
<path fill="none" stroke="midnightblue" d="M2065.92,-240.98C2092.05,-230.81 2135.91,-213.76 2165.63,-202.2"/>
<polygon fill="midnightblue" stroke="midnightblue" points="2167.07,-205.4 2175.12,-198.51 2164.53,-198.87 2167.07,-205.4"/>
</g>
<!-- Node3&#45;&gt;Node5 -->
<g id="edge4" class="edge">
<title>Node3&#45;&gt;Node5</title>
<path fill="none" stroke="midnightblue" d="M2066.08,-240.96C2073,-238.63 2080.73,-236.37 2088,-235 2232.12,-207.81 2608.88,-248.32 2747,-199 2809.4,-176.72 2868.7,-124.22 2899.02,-94.33"/>
<polygon fill="midnightblue" stroke="midnightblue" points="2901.85,-96.45 2906.44,-86.89 2896.9,-91.5 2901.85,-96.45"/>
</g>
<!-- Node3&#45;&gt;Node6 -->
<g id="edge5" class="edge">
<title>Node3&#45;&gt;Node6</title>
<path fill="none" stroke="midnightblue" d="M2004.28,-245.38C1971.09,-242.09 1922.51,-237.6 1880,-235 1413.71,-206.47 1291.81,-245.92 823.83,-199.05"/>
<polygon fill="midnightblue" stroke="midnightblue" points="824.06,-195.56 813.76,-198.04 823.36,-202.52 824.06,-195.56"/>
</g>
<!-- Node7 -->
<g id="node7" class="node">
<title>Node7</title>
<g id="a_node7"><a xlink:href="cast_8h.html" target="_top" xlink:title="Value casting helpers.">
<polygon fill="white" stroke="black" points="1579,-179.5 1579,-198.5 1657,-198.5 1657,-179.5 1579,-179.5"/>
<text text-anchor="middle" x="1618" y="-186.5" font-family="Helvetica,sans-Serif" font-size="10.00">tvm/ir/cast.h</text>
</a>
</g>
</g>
<!-- Node3&#45;&gt;Node7 -->
<g id="edge6" class="edge">
<title>Node3&#45;&gt;Node7</title>
<path fill="none" stroke="midnightblue" d="M2004.31,-243.96C1926.1,-233.03 1752.32,-208.76 1667.08,-196.85"/>
<polygon fill="midnightblue" stroke="midnightblue" points="1667.52,-193.38 1657.13,-195.47 1666.55,-200.32 1667.52,-193.38"/>
</g>
<!-- Node15 -->
<g id="node15" class="node">
<title>Node15</title>
<g id="a_node15"><a xlink:href="cow_8h.html" target="_top" xlink:title="Copy&#45;on&#45;write helper macro for IR ffi::ObjectRef types.">
<polygon fill="white" stroke="black" points="1217.5,-179.5 1217.5,-198.5 1294.5,-198.5 1294.5,-179.5 1217.5,-179.5"/>
<text text-anchor="middle" x="1256" y="-186.5" font-family="Helvetica,sans-Serif" font-size="10.00">tvm/ir/cow.h</text>
</a>
</g>
</g>
<!-- Node3&#45;&gt;Node15 -->
<g id="edge14" class="edge">
<title>Node3&#45;&gt;Node15</title>
<path fill="none" stroke="midnightblue" d="M2004.25,-245.8C1971.04,-242.76 1922.45,-238.41 1880,-235 1665.73,-217.8 1409.82,-200.3 1304.71,-193.24"/>
<polygon fill="midnightblue" stroke="midnightblue" points="1304.93,-189.75 1294.72,-192.57 1304.46,-196.73 1304.93,-189.75"/>
</g>
<!-- Node16 -->
<g id="node16" class="node">
<title>Node16</title>
<g id="a_node16"><a xlink:href="source__map_8h.html" target="_top" xlink:title="A map from source names to source code.">
<polygon fill="white" stroke="black" points="2409.5,-123.5 2409.5,-142.5 2526.5,-142.5 2526.5,-123.5 2409.5,-123.5"/>
<text text-anchor="middle" x="2468" y="-130.5" font-family="Helvetica,sans-Serif" font-size="10.00">tvm/ir/source_map.h</text>
</a>
</g>
</g>
<!-- Node3&#45;&gt;Node16 -->
<g id="edge17" class="edge">
<title>Node3&#45;&gt;Node16</title>
<path fill="none" stroke="midnightblue" d="M2083.79,-242.11C2129.9,-233.23 2208,-217.25 2274,-199 2331.67,-183.06 2397.44,-159.95 2435.68,-146.01"/>
<polygon fill="midnightblue" stroke="midnightblue" points="2437.07,-149.23 2445.25,-142.51 2434.66,-142.66 2437.07,-149.23"/>
</g>
<!-- Node22 -->
<g id="node22" class="node">
<title>Node22</title>
<g id="a_node22"><a xlink:title=" ">
<polygon fill="white" stroke="#bfbfbf" points="2150,-62 2150,-81 2194,-81 2194,-62 2150,-62"/>
<text text-anchor="middle" x="2172" y="-69" font-family="Helvetica,sans-Serif" font-size="10.00">string</text>
</a>
</g>
</g>
<!-- Node3&#45;&gt;Node22 -->
<g id="edge44" class="edge">
<title>Node3&#45;&gt;Node22</title>
<path fill="none" stroke="midnightblue" d="M2051.44,-240.95C2066.71,-223.23 2102.41,-180.99 2129,-143 2141.16,-125.63 2153.62,-104.8 2161.97,-90.31"/>
<polygon fill="midnightblue" stroke="midnightblue" points="2165.14,-91.83 2167.05,-81.41 2159.06,-88.36 2165.14,-91.83"/>
</g>
<!-- Node24 -->
<g id="node24" class="node">
<title>Node24</title>
<g id="a_node24"><a xlink:href="ir_2type_8h.html" target="_top" xlink:title="IR/AST nodes for the unified type system in TVM.">
<polygon fill="white" stroke="black" points="2625,-179.5 2625,-198.5 2705,-198.5 2705,-179.5 2625,-179.5"/>
<text text-anchor="middle" x="2665" y="-186.5" font-family="Helvetica,sans-Serif" font-size="10.00">tvm/ir/type.h</text>
</a>
</g>
</g>
<!-- Node3&#45;&gt;Node24 -->
<g id="edge27" class="edge">
<title>Node3&#45;&gt;Node24</title>
<path fill="none" stroke="midnightblue" d="M2083.79,-245.69C2192.52,-235.27 2494.5,-206.34 2614.7,-194.82"/>
<polygon fill="midnightblue" stroke="midnightblue" points="2615.12,-198.3 2624.74,-193.86 2614.45,-191.33 2615.12,-198.3"/>
</g>
<!-- Node28 -->
<g id="node28" class="node">
<title>Node28</title>
<g id="a_node28"><a xlink:title=" ">
<polygon fill="white" stroke="#bfbfbf" points="1711.5,-62 1711.5,-81 1780.5,-81 1780.5,-62 1711.5,-62"/>
<text text-anchor="middle" x="1746" y="-69" font-family="Helvetica,sans-Serif" font-size="10.00">type_traits</text>
</a>
</g>
</g>
<!-- Node3&#45;&gt;Node28 -->
<g id="edge45" class="edge">
<title>Node3&#45;&gt;Node28</title>
<path fill="none" stroke="midnightblue" d="M2029.63,-240.96C1981.94,-212.64 1828.63,-121.58 1769.54,-86.48"/>
<polygon fill="midnightblue" stroke="midnightblue" points="1770.96,-83.26 1760.58,-81.16 1767.39,-89.27 1770.96,-83.26"/>
</g>
<!-- Node29 -->
<g id="node29" class="node">
<title>Node29</title>
<g id="a_node29"><a xlink:title=" ">
<polygon fill="white" stroke="#bfbfbf" points="528,-179.5 528,-198.5 592,-198.5 592,-179.5 528,-179.5"/>
<text text-anchor="middle" x="560" y="-186.5" font-family="Helvetica,sans-Serif" font-size="10.00">algorithm</text>
</a>
</g>
</g>
<!-- Node3&#45;&gt;Node29 -->
<g id="edge41" class="edge">
<title>Node3&#45;&gt;Node29</title>
<path fill="none" stroke="midnightblue" d="M2004.28,-245.35C1971.1,-242.03 1922.51,-237.53 1880,-235 1362.89,-204.18 1232.51,-222.02 715,-199 676.77,-197.3 633.28,-194.72 602.12,-192.75"/>
<polygon fill="midnightblue" stroke="midnightblue" points="602.25,-189.26 592.05,-192.12 601.81,-196.24 602.25,-189.26"/>
</g>
<!-- Node30 -->
<g id="node30" class="node">
<title>Node30</title>
<g id="a_node30"><a xlink:title=" ">
<polygon fill="white" stroke="#bfbfbf" points="831.5,-179.5 831.5,-198.5 896.5,-198.5 896.5,-179.5 831.5,-179.5"/>
<text text-anchor="middle" x="864" y="-186.5" font-family="Helvetica,sans-Serif" font-size="10.00">functional</text>
</a>
</g>
</g>
<!-- Node3&#45;&gt;Node30 -->
<g id="edge42" class="edge">
<title>Node3&#45;&gt;Node30</title>
<path fill="none" stroke="midnightblue" d="M2004.27,-245.47C1971.08,-242.22 1922.5,-237.77 1880,-235 1498.25,-210.15 1402.08,-218.02 1020,-199 981.66,-197.09 938.04,-194.54 906.69,-192.65"/>
<polygon fill="midnightblue" stroke="midnightblue" points="906.75,-189.14 896.56,-192.03 906.33,-196.13 906.75,-189.14"/>
</g>
<!-- Node3&#45;&gt;Node31 -->
<g id="edge43" class="edge">
<title>Node3&#45;&gt;Node31</title>
<path fill="none" stroke="midnightblue" d="M2083.53,-247.72C2280.42,-238.85 3152.82,-199.56 3332.55,-191.46"/>
<polygon fill="midnightblue" stroke="midnightblue" points="3332.85,-194.95 3342.69,-191.01 3332.54,-187.96 3332.85,-194.95"/>
</g>
<!-- Node8 -->
<g id="node8" class="node">
<title>Node8</title>
<g id="a_node8"><a xlink:title=" ">
<polygon fill="white" stroke="#bfbfbf" points="1557.5,-123.5 1557.5,-142.5 1634.5,-142.5 1634.5,-123.5 1557.5,-123.5"/>
<text text-anchor="middle" x="1596" y="-130.5" font-family="Helvetica,sans-Serif" font-size="10.00">tvm/ffi/any.h</text>
</a>
</g>
</g>
<!-- Node7&#45;&gt;Node8 -->
<g id="edge7" class="edge">
<title>Node7&#45;&gt;Node8</title>
<path fill="none" stroke="midnightblue" d="M1614.37,-179.08C1611.39,-171.77 1607.07,-161.18 1603.38,-152.1"/>
<polygon fill="midnightblue" stroke="midnightblue" points="1606.58,-150.69 1599.57,-142.75 1600.1,-153.33 1606.58,-150.69"/>
</g>
<!-- Node7&#45;&gt;Node9 -->
<g id="edge8" class="edge">
<title>Node7&#45;&gt;Node9</title>
<path fill="none" stroke="midnightblue" d="M1657.28,-185.73C1690.08,-183.86 1738.08,-181.16 1780,-179 2112.21,-161.85 2199.5,-180.47 2534.42,-142.89"/>
<polygon fill="midnightblue" stroke="midnightblue" points="2534.86,-146.36 2544.41,-141.76 2534.08,-139.41 2534.86,-146.36"/>
</g>
<!-- Node10 -->
<g id="node10" class="node">
<title>Node10</title>
<g id="a_node10"><a xlink:title=" ">
<polygon fill="white" stroke="#bfbfbf" points="1536.5,-62 1536.5,-81 1625.5,-81 1625.5,-62 1536.5,-62"/>
<text text-anchor="middle" x="1581" y="-69" font-family="Helvetica,sans-Serif" font-size="10.00">tvm/ffi/dtype.h</text>
</a>
</g>
</g>
<!-- Node7&#45;&gt;Node10 -->
<g id="edge9" class="edge">
<title>Node7&#45;&gt;Node10</title>
<path fill="none" stroke="midnightblue" d="M1625.77,-179.41C1636.19,-166.81 1652.34,-142.66 1643,-123 1635.59,-107.41 1620.76,-95.06 1607.46,-86.47"/>
<polygon fill="midnightblue" stroke="midnightblue" points="1608.98,-83.3 1598.61,-81.13 1605.36,-89.29 1608.98,-83.3"/>
</g>
<!-- Node11 -->
<g id="node11" class="node">
<title>Node11</title>
<g id="a_node11"><a xlink:title=" ">
<polygon fill="white" stroke="#bfbfbf" points="992.5,-62 992.5,-81 1075.5,-81 1075.5,-62 992.5,-62"/>
<text text-anchor="middle" x="1034" y="-69" font-family="Helvetica,sans-Serif" font-size="10.00">tvm/ffi/error.h</text>
</a>
</g>
</g>
<!-- Node7&#45;&gt;Node11 -->
<g id="edge10" class="edge">
<title>Node7&#45;&gt;Node11</title>
<path fill="none" stroke="midnightblue" d="M1578.58,-184.09C1562.58,-182.51 1543.91,-180.66 1527,-179 1363.45,-162.91 1315.73,-192.43 1159,-143 1118.76,-130.31 1077.05,-103.55 1053.43,-86.9"/>
<polygon fill="midnightblue" stroke="midnightblue" points="1055.47,-84.05 1045.31,-81.06 1051.38,-89.74 1055.47,-84.05"/>
</g>
<!-- Node12 -->
<g id="node12" class="node">
<title>Node12</title>
<g id="a_node12"><a xlink:title=" ">
<polygon fill="white" stroke="#bfbfbf" points="1691.5,-123.5 1691.5,-142.5 1782.5,-142.5 1782.5,-123.5 1691.5,-123.5"/>
<text text-anchor="middle" x="1737" y="-130.5" font-family="Helvetica,sans-Serif" font-size="10.00">tvm/ffi/object.h</text>
</a>
</g>
</g>
<!-- Node7&#45;&gt;Node12 -->
<g id="edge11" class="edge">
<title>Node7&#45;&gt;Node12</title>
<path fill="none" stroke="midnightblue" d="M1636.86,-179.44C1656.27,-170.64 1686.73,-156.81 1708.96,-146.72"/>
<polygon fill="midnightblue" stroke="midnightblue" points="1710.57,-149.84 1718.23,-142.52 1707.68,-143.46 1710.57,-149.84"/>
</g>
<!-- Node13 -->
<g id="node13" class="node">
<title>Node13</title>
<g id="a_node13"><a xlink:title=" ">
<polygon fill="white" stroke="#bfbfbf" points="1438.5,-123.5 1438.5,-142.5 1539.5,-142.5 1539.5,-123.5 1438.5,-123.5"/>
<text text-anchor="middle" x="1489" y="-130.5" font-family="Helvetica,sans-Serif" font-size="10.00">tvm/ffi/optional.h</text>
</a>
</g>
</g>
<!-- Node7&#45;&gt;Node13 -->
<g id="edge12" class="edge">
<title>Node7&#45;&gt;Node13</title>
<path fill="none" stroke="midnightblue" d="M1597.56,-179.44C1576.33,-170.56 1542.9,-156.56 1518.75,-146.45"/>
<polygon fill="midnightblue" stroke="midnightblue" points="1519.92,-143.15 1509.34,-142.52 1517.22,-149.61 1519.92,-143.15"/>
</g>
<!-- Node7&#45;&gt;Node14 -->
<g id="edge13" class="edge">
<title>Node7&#45;&gt;Node14</title>
<path fill="none" stroke="midnightblue" d="M1578.61,-183.75C1562.61,-182.12 1543.94,-180.33 1527,-179 1250.94,-157.37 1173.53,-210.59 905,-143 884.56,-137.86 881.69,-130.53 862,-123 816.49,-105.59 762.21,-90.02 728.42,-80.91"/>
<polygon fill="midnightblue" stroke="midnightblue" points="729.19,-77.5 718.62,-78.3 727.38,-84.26 729.19,-77.5"/>
</g>
<!-- Node15&#45;&gt;Node12 -->
<g id="edge15" class="edge">
<title>Node15&#45;&gt;Node12</title>
<path fill="none" stroke="midnightblue" d="M1294.55,-183.67C1379.38,-174.15 1582.52,-151.34 1681.25,-140.26"/>
<polygon fill="midnightblue" stroke="midnightblue" points="1681.78,-143.72 1691.33,-139.13 1681,-136.77 1681.78,-143.72"/>
</g>
<!-- Node15&#45;&gt;Node14 -->
<g id="edge16" class="edge">
<title>Node15&#45;&gt;Node14</title>
<path fill="none" stroke="midnightblue" d="M1217.26,-181.1C1212.47,-180.34 1207.63,-179.62 1203,-179 1039.67,-157.19 992.14,-189.29 834,-143 790.08,-130.14 743.59,-103.24 717.35,-86.64"/>
<polygon fill="midnightblue" stroke="midnightblue" points="718.94,-83.5 708.63,-81.03 715.15,-89.39 718.94,-83.5"/>
</g>
<!-- Node16&#45;&gt;Node5 -->
<g id="edge20" class="edge">
<title>Node16&#45;&gt;Node5</title>
<path fill="none" stroke="midnightblue" d="M2526.82,-124.09C2529.59,-123.72 2532.32,-123.36 2535,-123 2650.2,-107.71 2784.84,-90.11 2860.49,-80.25"/>
<polygon fill="midnightblue" stroke="midnightblue" points="2861.3,-83.67 2870.77,-78.91 2860.4,-76.73 2861.3,-83.67"/>
</g>
<!-- Node16&#45;&gt;Node14 -->
<g id="edge25" class="edge">
<title>Node16&#45;&gt;Node14</title>
<path fill="none" stroke="midnightblue" d="M2409.27,-130.65C2209.47,-125.95 1537.74,-109.42 983,-87 890.89,-83.28 782.24,-77.38 728.9,-74.38"/>
<polygon fill="midnightblue" stroke="midnightblue" points="728.87,-70.87 718.69,-73.8 728.47,-77.86 728.87,-70.87"/>
</g>
<!-- Node17 -->
<g id="node17" class="node">
<title>Node17</title>
<g id="a_node17"><a xlink:title=" ">
<polygon fill="white" stroke="#bfbfbf" points="3248,-62 3248,-81 3382,-81 3382,-62 3248,-62"/>
<text text-anchor="middle" x="3315" y="-69" font-family="Helvetica,sans-Serif" font-size="10.00">tvm/ffi/container/array.h</text>
</a>
</g>
</g>
<!-- Node16&#45;&gt;Node17 -->
<g id="edge18" class="edge">
<title>Node16&#45;&gt;Node17</title>
<path fill="none" stroke="midnightblue" d="M2526.8,-123.87C2529.57,-123.56 2532.31,-123.27 2535,-123 2791.72,-97.48 3097.33,-82.01 3237.62,-75.74"/>
<polygon fill="midnightblue" stroke="midnightblue" points="3238,-79.23 3247.84,-75.29 3237.69,-72.23 3238,-79.23"/>
</g>
<!-- Node18 -->
<g id="node18" class="node">
<title>Node18</title>
<g id="a_node18"><a xlink:title=" ">
<polygon fill="white" stroke="#bfbfbf" points="2369.5,-62 2369.5,-81 2470.5,-81 2470.5,-62 2369.5,-62"/>
<text text-anchor="middle" x="2420" y="-69" font-family="Helvetica,sans-Serif" font-size="10.00">tvm/ffi/function.h</text>
</a>
</g>
</g>
<!-- Node16&#45;&gt;Node18 -->
<g id="edge19" class="edge">
<title>Node16&#45;&gt;Node18</title>
<path fill="none" stroke="midnightblue" d="M2461.12,-123.48C2453.85,-114.46 2442.2,-100.02 2433.16,-88.81"/>
<polygon fill="midnightblue" stroke="midnightblue" points="2435.87,-86.59 2426.86,-81.01 2430.42,-90.99 2435.87,-86.59"/>
</g>
<!-- Node19 -->
<g id="node19" class="node">
<title>Node19</title>
<g id="a_node19"><a xlink:href="runtime_2base_8h.html" target="_top" xlink:title=" ">
<polygon fill="white" stroke="black" points="1319.5,-62 1319.5,-81 1432.5,-81 1432.5,-62 1319.5,-62"/>
<text text-anchor="middle" x="1376" y="-69" font-family="Helvetica,sans-Serif" font-size="10.00">tvm/runtime/base.h</text>
</a>
</g>
</g>
<!-- Node16&#45;&gt;Node19 -->
<g id="edge21" class="edge">
<title>Node16&#45;&gt;Node19</title>
<path fill="none" stroke="midnightblue" d="M2409.31,-130.17C2261.21,-125.35 1860.4,-110.97 1527,-87 1499.4,-85.02 1469.03,-82.22 1442.8,-79.61"/>
<polygon fill="midnightblue" stroke="midnightblue" points="1442.89,-76.1 1432.59,-78.58 1442.19,-83.07 1442.89,-76.1"/>
</g>
<!-- Node21 -->
<g id="node21" class="node">
<title>Node21</title>
<g id="a_node21"><a xlink:title=" ">
<polygon fill="white" stroke="#bfbfbf" points="2488.5,-62 2488.5,-81 2543.5,-81 2543.5,-62 2488.5,-62"/>
<text text-anchor="middle" x="2516" y="-69" font-family="Helvetica,sans-Serif" font-size="10.00">fstream</text>
</a>
</g>
</g>
<!-- Node16&#45;&gt;Node21 -->
<g id="edge23" class="edge">
<title>Node16&#45;&gt;Node21</title>
<path fill="none" stroke="midnightblue" d="M2474.88,-123.48C2482.15,-114.46 2493.8,-100.02 2502.84,-88.81"/>
<polygon fill="midnightblue" stroke="midnightblue" points="2505.58,-90.99 2509.14,-81.01 2500.13,-86.59 2505.58,-90.99"/>
</g>
<!-- Node16&#45;&gt;Node22 -->
<g id="edge24" class="edge">
<title>Node16&#45;&gt;Node22</title>
<path fill="none" stroke="midnightblue" d="M2425.59,-123.48C2365.79,-111.46 2258.01,-89.79 2204.28,-78.99"/>
<polygon fill="midnightblue" stroke="midnightblue" points="2204.78,-75.52 2194.28,-76.98 2203.4,-82.38 2204.78,-75.52"/>
</g>
<!-- Node16&#45;&gt;Node23 -->
<g id="edge26" class="edge">
<title>Node16&#45;&gt;Node23</title>
<path fill="none" stroke="midnightblue" d="M2409.2,-130.96C2183.37,-126.88 1350.08,-111 664,-87 558.97,-83.33 434.74,-77.24 376.01,-74.26"/>
<polygon fill="midnightblue" stroke="midnightblue" points="375.99,-70.75 365.83,-73.74 375.64,-77.74 375.99,-70.75"/>
</g>
<!-- Node20 -->
<g id="node20" class="node">
<title>Node20</title>
<g id="a_node20"><a xlink:title=" ">
<polygon fill="white" stroke="#bfbfbf" points="1333,-0.5 1333,-19.5 1419,-19.5 1419,-0.5 1333,-0.5"/>
<text text-anchor="middle" x="1376" y="-7.5" font-family="Helvetica,sans-Serif" font-size="10.00">tvm/ffi/c_api.h</text>
</a>
</g>
</g>
<!-- Node19&#45;&gt;Node20 -->
<g id="edge22" class="edge">
<title>Node19&#45;&gt;Node20</title>
<path fill="none" stroke="midnightblue" d="M1376,-61.98C1376,-53.58 1376,-40.48 1376,-29.66"/>
<polygon fill="midnightblue" stroke="midnightblue" points="1379.5,-29.51 1376,-19.51 1372.5,-29.51 1379.5,-29.51"/>
</g>
<!-- Node24&#45;&gt;Node5 -->
<g id="edge30" class="edge">
<title>Node24&#45;&gt;Node5</title>
<path fill="none" stroke="midnightblue" d="M2680.4,-179.5C2704.06,-166.58 2750.92,-141.56 2792,-123 2818.02,-111.24 2847.65,-99.45 2871.84,-90.23"/>
<polygon fill="midnightblue" stroke="midnightblue" points="2873.4,-93.38 2881.51,-86.57 2870.92,-86.84 2873.4,-93.38"/>
</g>
<!-- Node24&#45;&gt;Node9 -->
<g id="edge28" class="edge">
<title>Node24&#45;&gt;Node9</title>
<path fill="none" stroke="midnightblue" d="M2652.15,-179.32C2639.78,-170.98 2620.87,-158.21 2606.26,-148.35"/>
<polygon fill="midnightblue" stroke="midnightblue" points="2608.07,-145.35 2597.82,-142.65 2604.15,-151.15 2608.07,-145.35"/>
</g>
<!-- Node24&#45;&gt;Node16 -->
<g id="edge31" class="edge">
<title>Node24&#45;&gt;Node16</title>
<path fill="none" stroke="midnightblue" d="M2633.78,-179.44C2600.07,-170.2 2546.2,-155.44 2509.07,-145.26"/>
<polygon fill="midnightblue" stroke="midnightblue" points="2509.64,-141.78 2499.07,-142.52 2507.79,-148.54 2509.64,-141.78"/>
</g>
<!-- Node24&#45;&gt;Node17 -->
<g id="edge29" class="edge">
<title>Node24&#45;&gt;Node17</title>
<path fill="none" stroke="midnightblue" d="M2705.17,-180.86C2816.06,-161.16 3126.83,-105.94 3256.75,-82.85"/>
<polygon fill="midnightblue" stroke="midnightblue" points="3257.67,-86.24 3266.9,-81.05 3256.44,-79.35 3257.67,-86.24"/>
</g>
<!-- Node24&#45;&gt;Node22 -->
<g id="edge40" class="edge">
<title>Node24&#45;&gt;Node22</title>
<path fill="none" stroke="midnightblue" d="M2663.57,-179.1C2660.73,-164.67 2652.96,-136.46 2634,-123 2616.43,-110.52 2306.29,-83.69 2204.25,-75.16"/>
<polygon fill="midnightblue" stroke="midnightblue" points="2204.48,-71.67 2194.22,-74.32 2203.9,-78.64 2204.48,-71.67"/>
</g>
<!-- Node25 -->
<g id="node25" class="node">
<title>Node25</title>
<g id="a_node25"><a xlink:href="data__type_8h.html" target="_top" xlink:title=" ">
<polygon fill="white" stroke="black" points="1168,-123.5 1168,-142.5 1306,-142.5 1306,-123.5 1168,-123.5"/>
<text text-anchor="middle" x="1237" y="-130.5" font-family="Helvetica,sans-Serif" font-size="10.00">tvm/runtime/data_type.h</text>
</a>
</g>
</g>
<!-- Node24&#45;&gt;Node25 -->
<g id="edge32" class="edge">
<title>Node24&#45;&gt;Node25</title>
<path fill="none" stroke="midnightblue" d="M2624.98,-186.7C2470.65,-181.63 1899.38,-162.59 1429,-143 1391.98,-141.46 1350.95,-139.56 1316.36,-137.91"/>
<polygon fill="midnightblue" stroke="midnightblue" points="1316.47,-134.41 1306.31,-137.42 1316.13,-141.4 1316.47,-134.41"/>
</g>
<!-- Node25&#45;&gt;Node10 -->
<g id="edge34" class="edge">
<title>Node25&#45;&gt;Node10</title>
<path fill="none" stroke="midnightblue" d="M1286.29,-123.48C1349.86,-112.48 1460.1,-93.41 1526.23,-81.97"/>
<polygon fill="midnightblue" stroke="midnightblue" points="1527.19,-85.36 1536.45,-80.21 1526,-78.46 1527.19,-85.36"/>
</g>
<!-- Node25&#45;&gt;Node11 -->
<g id="edge35" class="edge">
<title>Node25&#45;&gt;Node11</title>
<path fill="none" stroke="midnightblue" d="M1207.92,-123.48C1172.42,-113.07 1112.25,-95.44 1072.83,-83.88"/>
<polygon fill="midnightblue" stroke="midnightblue" points="1073.61,-80.46 1063.03,-81.01 1071.64,-87.18 1073.61,-80.46"/>
</g>
<!-- Node25&#45;&gt;Node19 -->
<g id="edge36" class="edge">
<title>Node25&#45;&gt;Node19</title>
<path fill="none" stroke="midnightblue" d="M1256.92,-123.48C1280.45,-113.4 1319.81,-96.55 1346.79,-85"/>
<polygon fill="midnightblue" stroke="midnightblue" points="1348.31,-88.16 1356.12,-81.01 1345.55,-81.73 1348.31,-88.16"/>
</g>
<!-- Node25&#45;&gt;Node22 -->
<g id="edge38" class="edge">
<title>Node25&#45;&gt;Node22</title>
<path fill="none" stroke="midnightblue" d="M1306.13,-127.6C1493.5,-115.68 2005.92,-83.07 2139.7,-74.56"/>
<polygon fill="midnightblue" stroke="midnightblue" points="2139.97,-78.05 2149.73,-73.92 2139.52,-71.06 2139.97,-78.05"/>
</g>
<!-- Node26 -->
<g id="node26" class="node">
<title>Node26</title>
<g id="a_node26"><a xlink:title=" ">
<polygon fill="white" stroke="#bfbfbf" points="1162.5,-62 1162.5,-81 1301.5,-81 1301.5,-62 1162.5,-62"/>
<text text-anchor="middle" x="1232" y="-69" font-family="Helvetica,sans-Serif" font-size="10.00">tvm/ffi/container/shape.h</text>
</a>
</g>
</g>
<!-- Node25&#45;&gt;Node26 -->
<g id="edge33" class="edge">
<title>Node25&#45;&gt;Node26</title>
<path fill="none" stroke="midnightblue" d="M1236.28,-123.48C1235.58,-115.08 1234.48,-101.98 1233.57,-91.16"/>
<polygon fill="midnightblue" stroke="midnightblue" points="1237.04,-90.68 1232.72,-81.01 1230.06,-91.27 1237.04,-90.68"/>
</g>
<!-- Node27 -->
<g id="node27" class="node">
<title>Node27</title>
<g id="a_node27"><a xlink:title=" ">
<polygon fill="white" stroke="#bfbfbf" points="1094,-62 1094,-81 1144,-81 1144,-62 1094,-62"/>
<text text-anchor="middle" x="1119" y="-69" font-family="Helvetica,sans-Serif" font-size="10.00">cstring</text>
</a>
</g>
</g>
<!-- Node25&#45;&gt;Node27 -->
<g id="edge37" class="edge">
<title>Node25&#45;&gt;Node27</title>
<path fill="none" stroke="midnightblue" d="M1220.09,-123.48C1200.47,-113.58 1167.87,-97.14 1145.01,-85.62"/>
<polygon fill="midnightblue" stroke="midnightblue" points="1146.38,-82.39 1135.88,-81.01 1143.23,-88.64 1146.38,-82.39"/>
</g>
<!-- Node25&#45;&gt;Node28 -->
<g id="edge39" class="edge">
<title>Node25&#45;&gt;Node28</title>
<path fill="none" stroke="midnightblue" d="M1306.25,-124.49C1385.5,-115.81 1519.18,-100.94 1634,-87 1656.15,-84.31 1680.73,-81.15 1701.21,-78.46"/>
<polygon fill="midnightblue" stroke="midnightblue" points="1701.75,-81.92 1711.21,-77.15 1700.84,-74.98 1701.75,-81.92"/>
</g>
<!-- Node32&#45;&gt;Node3 -->
<g id="edge63" class="edge">
<title>Node32&#45;&gt;Node3</title>
<path fill="none" stroke="midnightblue" d="M1257.66,-759.54C1460.98,-760.84 2294.17,-753.36 2408,-546 2489.46,-397.61 2197.52,-295.76 2085.77,-262.93"/>
<polygon fill="midnightblue" stroke="midnightblue" points="2086.43,-259.47 2075.85,-260.06 2084.48,-266.2 2086.43,-259.47"/>
</g>
<!-- Node32&#45;&gt;Node6 -->
<g id="edge49" class="edge">
<title>Node32&#45;&gt;Node6</title>
<path fill="none" stroke="midnightblue" d="M1168.45,-757.53C1055.48,-753.43 764.35,-740.39 730,-714 705.58,-695.24 706,-679.8 706,-649 706,-649 706,-649 706,-423 706,-342.57 775.3,-343.72 796,-266 799.55,-252.69 799.68,-248.28 796,-235 793.21,-224.92 787.49,-214.83 782.03,-206.77"/>
<polygon fill="midnightblue" stroke="midnightblue" points="784.85,-204.69 776.15,-198.64 779.18,-208.79 784.85,-204.69"/>
</g>
<!-- Node32&#45;&gt;Node14 -->
<g id="edge169" class="edge">
<title>Node32&#45;&gt;Node14</title>
<path fill="none" stroke="midnightblue" d="M1168.39,-757.75C1032.82,-753.68 631.66,-739.59 579,-714 543.91,-696.95 520,-688.02 520,-649 520,-649 520,-649 520,-591 520,-407.46 190.06,-482.19 225,-302 244.98,-198.97 283.64,-166.82 379,-123 475.29,-78.75 603.45,-72.37 662.99,-72.02"/>
<polygon fill="midnightblue" stroke="midnightblue" points="663.29,-75.52 673.29,-72.02 663.29,-68.52 663.29,-75.52"/>
</g>
<!-- Node32&#45;&gt;Node15 -->
<g id="edge62" class="edge">
<title>Node32&#45;&gt;Node15</title>
<path fill="none" stroke="midnightblue" d="M1168.45,-753.05C1112.3,-742.77 1023,-715.89 1023,-649 1023,-649 1023,-649 1023,-535 1023,-456.63 1190.21,-263.45 1241.33,-206.23"/>
<polygon fill="midnightblue" stroke="midnightblue" points="1244.17,-208.3 1248.25,-198.52 1238.96,-203.62 1244.17,-208.3"/>
</g>
<!-- Node32&#45;&gt;Node17 -->
<g id="edge47" class="edge">
<title>Node32&#45;&gt;Node17</title>
<path fill="none" stroke="midnightblue" d="M1257.71,-759.06C1527.24,-759.3 2930.17,-758.39 3116,-714 3381.43,-650.6 3581,-585.9 3581,-313 3581,-313 3581,-313 3581,-188 3581,-105.13 3471.02,-81.07 3392.5,-74.46"/>
<polygon fill="midnightblue" stroke="midnightblue" points="3392.36,-70.94 3382.12,-73.68 3391.83,-77.92 3392.36,-70.94"/>
</g>
<!-- Node32&#45;&gt;Node19 -->
<g id="edge70" class="edge">
<title>Node32&#45;&gt;Node19</title>
<path fill="none" stroke="midnightblue" d="M1168.45,-757.98C1051.38,-754.1 744,-735.66 744,-649 744,-649 744,-649 744,-535 744,-347.83 391.26,-315.8 519,-179 558.91,-136.26 986.09,-151.04 1044,-143 1098.67,-135.41 1251.12,-101.17 1328.96,-83.36"/>
<polygon fill="midnightblue" stroke="midnightblue" points="1330.01,-86.71 1338.98,-81.06 1328.45,-79.88 1330.01,-86.71"/>
</g>
<!-- Node32&#45;&gt;Node22 -->
<g id="edge167" class="edge">
<title>Node32&#45;&gt;Node22</title>
<path fill="none" stroke="midnightblue" d="M1257.62,-758.56C1521.67,-755.87 2870.98,-740.86 2954,-714 3002.67,-698.25 3049,-700.16 3049,-649 3049,-649 3049,-649 3049,-423 3049,-298.16 2662.6,-214.78 2543,-179 2480.21,-160.22 2461.67,-165.2 2400,-143 2380.55,-136 2377.39,-130.18 2358,-123 2305.23,-103.45 2241.51,-87.79 2204.01,-79.35"/>
<polygon fill="midnightblue" stroke="midnightblue" points="2204.68,-75.91 2194.16,-77.16 2203.17,-82.75 2204.68,-75.91"/>
</g>
<!-- Node32&#45;&gt;Node25 -->
<g id="edge71" class="edge">
<title>Node32&#45;&gt;Node25</title>
<path fill="none" stroke="midnightblue" d="M1168.47,-755.65C1093.48,-749.51 945.51,-735.12 898,-714 856.77,-695.67 820,-694.13 820,-649 820,-649 820,-649 820,-311 820,-268.51 792.02,-265.07 762,-235 743.41,-216.38 726.65,-222.59 715,-199 711.07,-191.03 708.98,-185.54 715,-179 748.16,-143.01 1105.28,-147.64 1154,-143 1155.12,-142.89 1156.24,-142.79 1157.38,-142.68"/>
<polygon fill="midnightblue" stroke="midnightblue" points="1158.12,-146.12 1167.72,-141.65 1157.43,-139.15 1158.12,-146.12"/>
</g>
<!-- Node32&#45;&gt;Node29 -->
<g id="edge164" class="edge">
<title>Node32&#45;&gt;Node29</title>
<path fill="none" stroke="midnightblue" d="M1168.39,-759.71C1079.52,-760.11 874.65,-755.9 709,-714 638.17,-696.08 558,-722.06 558,-649 558,-649 558,-649 558,-591 558,-501.72 532.2,-470.42 463,-414 375.19,-342.41 189.87,-406.35 234,-302 250.65,-262.63 264.93,-254.44 303,-235 339.78,-216.22 454.56,-201.36 517.56,-194.37"/>
<polygon fill="midnightblue" stroke="midnightblue" points="518.01,-197.84 527.57,-193.27 517.25,-190.88 518.01,-197.84"/>
</g>
<!-- Node32&#45;&gt;Node31 -->
<g id="edge166" class="edge">
<title>Node32&#45;&gt;Node31</title>
<path fill="none" stroke="midnightblue" d="M1257.64,-759.18C1534.34,-760.11 3006.25,-762.76 3087,-714 3283.2,-595.53 3348.37,-287.02 3362.05,-208.43"/>
<polygon fill="midnightblue" stroke="midnightblue" points="3365.51,-208.99 3363.71,-198.55 3358.6,-207.84 3365.51,-208.99"/>
</g>
<!-- Node33 -->
<g id="node33" class="node">
<title>Node33</title>
<g id="a_node33"><a xlink:title=" ">
<polygon fill="white" stroke="#bfbfbf" points="1029.5,-179.5 1029.5,-198.5 1160.5,-198.5 1160.5,-179.5 1029.5,-179.5"/>
<text text-anchor="middle" x="1095" y="-186.5" font-family="Helvetica,sans-Serif" font-size="10.00">tvm/ffi/container/map.h</text>
</a>
</g>
</g>
<!-- Node32&#45;&gt;Node33 -->
<g id="edge48" class="edge">
<title>Node32&#45;&gt;Node33</title>
<path fill="none" stroke="midnightblue" d="M1168.4,-754.66C1073.05,-744.14 858,-713.28 858,-649 858,-649 858,-649 858,-479 858,-345.96 1010.02,-240.65 1070.56,-203.98"/>
<polygon fill="midnightblue" stroke="midnightblue" points="1072.64,-206.82 1079.45,-198.7 1069.07,-200.8 1072.64,-206.82"/>
</g>
<!-- Node34 -->
<g id="node34" class="node">
<title>Node34</title>
<g id="a_node34"><a xlink:href="attrs_8h.html" target="_top" xlink:title="Helpers for attribute objects.">
<polygon fill="white" stroke="black" points="2523,-302.5 2523,-321.5 2603,-321.5 2603,-302.5 2523,-302.5"/>
<text text-anchor="middle" x="2563" y="-309.5" font-family="Helvetica,sans-Serif" font-size="10.00">tvm/ir/attrs.h</text>
</a>
</g>
</g>
<!-- Node32&#45;&gt;Node34 -->
<g id="edge50" class="edge">
<title>Node32&#45;&gt;Node34</title>
<path fill="none" stroke="midnightblue" d="M1257.53,-758.88C1510.85,-758.04 2761.6,-752.01 2833,-714 2951.54,-650.9 2881.47,-518.39 2797,-414 2751.11,-357.29 2667.27,-331.73 2613.4,-320.72"/>
<polygon fill="midnightblue" stroke="midnightblue" points="2613.86,-317.25 2603.37,-318.77 2612.52,-324.12 2613.86,-317.25"/>
</g>
<!-- Node32&#45;&gt;Node37 -->
<g id="edge168" class="edge">
<title>Node32&#45;&gt;Node37</title>
<path fill="none" stroke="midnightblue" d="M1257.73,-758.6C1536.51,-756.04 3025.1,-741.09 3063,-714 3088.05,-696.09 3087,-679.8 3087,-649 3087,-649 3087,-649 3087,-311 3087,-274.71 3086.54,-232.31 3086.25,-208.56"/>
<polygon fill="midnightblue" stroke="midnightblue" points="3089.75,-208.46 3086.12,-198.51 3082.75,-208.55 3089.75,-208.46"/>
</g>
<!-- Node38 -->
<g id="node38" class="node">
<title>Node38</title>
<g id="a_node38"><a xlink:href="node__functor_8h.html" target="_top" xlink:title="Defines the Functor data structures.">
<polygon fill="white" stroke="black" points="914.5,-123.5 914.5,-142.5 1035.5,-142.5 1035.5,-123.5 914.5,-123.5"/>
<text text-anchor="middle" x="975" y="-130.5" font-family="Helvetica,sans-Serif" font-size="10.00">tvm/ir/node_functor.h</text>
</a>
</g>
</g>
<!-- Node32&#45;&gt;Node38 -->
<g id="edge64" class="edge">
<title>Node32&#45;&gt;Node38</title>
<path fill="none" stroke="midnightblue" d="M1168.25,-758.04C1022.27,-754.64 565.81,-741.89 506,-714 469.82,-697.13 444,-688.92 444,-649 444,-649 444,-649 444,-591 444,-441.27 247.2,-513.26 183,-378 156.69,-322.57 162.82,-302.41 252,-235 353.78,-158.07 742.64,-139.67 904.09,-135.33"/>
<polygon fill="midnightblue" stroke="midnightblue" points="904.48,-138.82 914.39,-135.06 904.3,-131.82 904.48,-138.82"/>
</g>
<!-- Node39 -->
<g id="node39" class="node">
<title>Node39</title>
<g id="a_node39"><a xlink:href="buffer_8h.html" target="_top" xlink:title="Symbolic n&#45;dimensional array, to represent a memory buffer.">
<polygon fill="white" stroke="black" points="1222.5,-694.5 1222.5,-713.5 1317.5,-713.5 1317.5,-694.5 1222.5,-694.5"/>
<text text-anchor="middle" x="1270" y="-701.5" font-family="Helvetica,sans-Serif" font-size="10.00">tvm/tirx/buffer.h</text>
</a>
</g>
</g>
<!-- Node32&#45;&gt;Node39 -->
<g id="edge72" class="edge">
<title>Node32&#45;&gt;Node39</title>
<path fill="none" stroke="midnightblue" d="M1222.16,-750.32C1230.5,-742.42 1243.03,-730.55 1253.18,-720.94"/>
<polygon fill="midnightblue" stroke="midnightblue" points="1255.82,-723.25 1260.68,-713.83 1251.01,-718.17 1255.82,-723.25"/>
</g>
<!-- Node57 -->
<g id="node57" class="node">
<title>Node57</title>
<g id="a_node57"><a xlink:href="var_8h.html" target="_top" xlink:title="Variables in the TIR.">
<polygon fill="white" stroke="black" points="1209.5,-302.5 1209.5,-321.5 1292.5,-321.5 1292.5,-302.5 1209.5,-302.5"/>
<text text-anchor="middle" x="1251" y="-309.5" font-family="Helvetica,sans-Serif" font-size="10.00">tvm/tirx/var.h</text>
</a>
</g>
</g>
<!-- Node32&#45;&gt;Node57 -->
<g id="edge163" class="edge">
<title>Node32&#45;&gt;Node57</title>
<path fill="none" stroke="midnightblue" d="M1207.72,-750.23C1197.27,-732.04 1175,-688.6 1175,-649 1175,-649 1175,-649 1175,-423 1175,-383.28 1208.96,-347.5 1231.48,-328.15"/>
<polygon fill="midnightblue" stroke="midnightblue" points="1233.98,-330.63 1239.46,-321.57 1229.52,-325.24 1233.98,-330.63"/>
</g>
<!-- Node58 -->
<g id="node58" class="node">
<title>Node58</title>
<g id="a_node58"><a xlink:title=" ">
<polygon fill="white" stroke="#bfbfbf" points="2885,-694.5 2885,-713.5 2945,-713.5 2945,-694.5 2885,-694.5"/>
<text text-anchor="middle" x="2915" y="-701.5" font-family="Helvetica,sans-Serif" font-size="10.00">iostream</text>
</a>
</g>
</g>
<!-- Node32&#45;&gt;Node58 -->
<g id="edge165" class="edge">
<title>Node32&#45;&gt;Node58</title>
<path fill="none" stroke="midnightblue" d="M1257.59,-758.84C1488,-757.87 2545.42,-751.43 2871,-714 2872.26,-713.85 2873.54,-713.69 2874.84,-713.51"/>
<polygon fill="midnightblue" stroke="midnightblue" points="2875.5,-716.95 2884.81,-711.9 2874.38,-710.04 2875.5,-716.95"/>
</g>
<!-- Node34&#45;&gt;Node3 -->
<g id="edge57" class="edge">
<title>Node34&#45;&gt;Node3</title>
<path fill="none" stroke="midnightblue" d="M2522.93,-304.06C2518.24,-303.33 2513.52,-302.62 2509,-302 2358.22,-281.26 2178.96,-263.82 2093.76,-255.97"/>
<polygon fill="midnightblue" stroke="midnightblue" points="2093.87,-252.46 2083.59,-255.03 2093.23,-259.43 2093.87,-252.46"/>
</g>
<!-- Node34&#45;&gt;Node5 -->
<g id="edge55" class="edge">
<title>Node34&#45;&gt;Node5</title>
<path fill="none" stroke="midnightblue" d="M2601.67,-302.49C2671.36,-285.09 2818,-238.77 2896,-143 2906.84,-129.69 2912.89,-111.22 2916.21,-96.53"/>
<polygon fill="midnightblue" stroke="midnightblue" points="2919.66,-97.11 2918.17,-86.62 2912.79,-95.75 2919.66,-97.11"/>
</g>
<!-- Node34&#45;&gt;Node14 -->
<g id="edge61" class="edge">
<title>Node34&#45;&gt;Node14</title>
<path fill="none" stroke="midnightblue" d="M2522.85,-310.99C2348.38,-310.69 1655.41,-306.91 1442,-266 1401.27,-258.19 1393.73,-246.87 1354,-235 1289.96,-215.87 1270.6,-222.41 1208,-199 1189.75,-192.18 1187.7,-184.45 1169,-179 1003.57,-130.82 942.56,-208.03 783,-143 753.6,-131.02 726.31,-105.64 710.4,-88.83"/>
<polygon fill="midnightblue" stroke="midnightblue" points="712.89,-86.36 703.55,-81.36 707.73,-91.1 712.89,-86.36"/>
</g>
<!-- Node34&#45;&gt;Node15 -->
<g id="edge56" class="edge">
<title>Node34&#45;&gt;Node15</title>
<path fill="none" stroke="midnightblue" d="M2522.87,-310.69C2339.32,-309.08 1584.4,-300.4 1485,-266 1462.74,-258.29 1463.41,-244.84 1442,-235 1417.82,-223.88 1351.03,-209.05 1304.45,-199.51"/>
<polygon fill="midnightblue" stroke="midnightblue" points="1305.05,-196.06 1294.55,-197.5 1303.65,-202.92 1305.05,-196.06"/>
</g>
<!-- Node34&#45;&gt;Node18 -->
<g id="edge54" class="edge">
<title>Node34&#45;&gt;Node18</title>
<path fill="none" stroke="midnightblue" d="M2522.82,-302.76C2476.22,-292.81 2404.76,-276.14 2397,-266 2388.63,-255.06 2387.82,-245.28 2397,-235 2492.29,-128.28 2769.33,-310.94 2714,-179 2670.62,-75.57 2588.45,-111.51 2479,-87 2473.98,-85.88 2468.74,-84.66 2463.53,-83.41"/>
<polygon fill="midnightblue" stroke="midnightblue" points="2464.18,-79.97 2453.64,-81.02 2462.54,-86.77 2464.18,-79.97"/>
</g>
<!-- Node34&#45;&gt;Node22 -->
<g id="edge58" class="edge">
<title>Node34&#45;&gt;Node22</title>
<path fill="none" stroke="midnightblue" d="M2522.99,-303.44C2473.7,-293.73 2395.41,-276.84 2387,-266 2378.55,-255.12 2381.91,-247.8 2387,-235 2397.76,-207.94 2437.41,-203.05 2421,-179 2396.25,-142.73 2369.48,-160 2329,-143 2283.26,-123.79 2230.81,-99.85 2199.6,-85.39"/>
<polygon fill="midnightblue" stroke="midnightblue" points="2200.79,-82.08 2190.24,-81.04 2197.84,-88.43 2200.79,-82.08"/>
</g>
<!-- Node34&#45;&gt;Node28 -->
<g id="edge59" class="edge">
<title>Node34&#45;&gt;Node28</title>
<path fill="none" stroke="midnightblue" d="M2522.85,-304.32C2475.98,-296 2401.84,-281.03 2378,-266 2335.78,-239.39 2349.88,-204.53 2307,-179 2219.04,-126.64 1907.91,-89.45 1790.92,-77.03"/>
<polygon fill="midnightblue" stroke="midnightblue" points="1791.18,-73.54 1780.87,-75.97 1790.45,-80.5 1791.18,-73.54"/>
</g>
<!-- Node34&#45;&gt;Node33 -->
<g id="edge51" class="edge">
<title>Node34&#45;&gt;Node33</title>
<path fill="none" stroke="midnightblue" d="M2522.83,-310.48C2345.9,-308.01 1635.01,-296.36 1414,-266 1310.56,-251.79 1191.62,-218.94 1132.47,-201.44"/>
<polygon fill="midnightblue" stroke="midnightblue" points="1133.4,-198.07 1122.82,-198.57 1131.4,-204.78 1133.4,-198.07"/>
</g>
<!-- Node35 -->
<g id="node35" class="node">
<title>Node35</title>
<g id="a_node35"><a xlink:title=" ">
<polygon fill="white" stroke="#bfbfbf" points="2551.5,-235.5 2551.5,-265.5 2678.5,-265.5 2678.5,-235.5 2551.5,-235.5"/>
<text text-anchor="start" x="2559.5" y="-253.5" font-family="Helvetica,sans-Serif" font-size="10.00">tvm/ffi/extra/structural</text>
<text text-anchor="middle" x="2615" y="-242.5" font-family="Helvetica,sans-Serif" font-size="10.00">_equal.h</text>
</a>
</g>
</g>
<!-- Node34&#45;&gt;Node35 -->
<g id="edge52" class="edge">
<title>Node34&#45;&gt;Node35</title>
<path fill="none" stroke="midnightblue" d="M2570.45,-302.48C2577.1,-294.87 2587.12,-283.4 2595.98,-273.26"/>
<polygon fill="midnightblue" stroke="midnightblue" points="2598.8,-275.36 2602.74,-265.52 2593.53,-270.75 2598.8,-275.36"/>
</g>
<!-- Node36 -->
<g id="node36" class="node">
<title>Node36</title>
<g id="a_node36"><a xlink:title=" ">
<polygon fill="white" stroke="#bfbfbf" points="2406.5,-235.5 2406.5,-265.5 2533.5,-265.5 2533.5,-235.5 2406.5,-235.5"/>
<text text-anchor="start" x="2414.5" y="-253.5" font-family="Helvetica,sans-Serif" font-size="10.00">tvm/ffi/extra/structural</text>
<text text-anchor="middle" x="2470" y="-242.5" font-family="Helvetica,sans-Serif" font-size="10.00">_hash.h</text>
</a>
</g>
</g>
<!-- Node34&#45;&gt;Node36 -->
<g id="edge53" class="edge">
<title>Node34&#45;&gt;Node36</title>
<path fill="none" stroke="midnightblue" d="M2549.68,-302.48C2536.96,-294.34 2517.35,-281.79 2500.76,-271.18"/>
<polygon fill="midnightblue" stroke="midnightblue" points="2502.23,-267.96 2491.92,-265.52 2498.46,-273.86 2502.23,-267.96"/>
</g>
<!-- Node34&#45;&gt;Node37 -->
<g id="edge60" class="edge">
<title>Node34&#45;&gt;Node37</title>
<path fill="none" stroke="midnightblue" d="M2603.13,-307.74C2662.69,-302.33 2777.73,-289.66 2873,-266 2940.41,-249.26 3016.38,-219.36 3056.88,-202.48"/>
<polygon fill="midnightblue" stroke="midnightblue" points="3058.28,-205.69 3066.15,-198.59 3055.57,-199.24 3058.28,-205.69"/>
</g>
<!-- Node38&#45;&gt;Node11 -->
<g id="edge65" class="edge">
<title>Node38&#45;&gt;Node11</title>
<path fill="none" stroke="midnightblue" d="M983.45,-123.48C992.57,-114.28 1007.27,-99.46 1018.48,-88.16"/>
<polygon fill="midnightblue" stroke="midnightblue" points="1021.01,-90.57 1025.56,-81.01 1016.04,-85.65 1021.01,-90.57"/>
</g>
<!-- Node38&#45;&gt;Node14 -->
<g id="edge68" class="edge">
<title>Node38&#45;&gt;Node14</title>
<path fill="none" stroke="midnightblue" d="M935.03,-123.48C879.49,-111.63 780.03,-90.42 728.67,-79.47"/>
<polygon fill="midnightblue" stroke="midnightblue" points="729.29,-76.02 718.78,-77.36 727.83,-82.87 729.29,-76.02"/>
</g>
<!-- Node38&#45;&gt;Node23 -->
<g id="edge69" class="edge">
<title>Node38&#45;&gt;Node23</title>
<path fill="none" stroke="midnightblue" d="M914.31,-126.29C783.25,-113.98 477.43,-85.23 375.63,-75.66"/>
<polygon fill="midnightblue" stroke="midnightblue" points="375.89,-72.17 365.61,-74.72 375.24,-79.14 375.89,-72.17"/>
</g>
<!-- Node38&#45;&gt;Node27 -->
<g id="edge66" class="edge">
<title>Node38&#45;&gt;Node27</title>
<path fill="none" stroke="midnightblue" d="M995.9,-123.38C1017.84,-114.33 1053.35,-99.68 1084,-87 1085.59,-86.34 1087.22,-85.67 1088.86,-84.99"/>
<polygon fill="midnightblue" stroke="midnightblue" points="1090.37,-88.15 1098.27,-81.09 1087.7,-81.68 1090.37,-88.15"/>
</g>
<!-- Node38&#45;&gt;Node28 -->
<g id="edge67" class="edge">
<title>Node38&#45;&gt;Node28</title>
<path fill="none" stroke="midnightblue" d="M1035.52,-129.1C1151.72,-123.25 1414.03,-108.73 1634,-87 1656.2,-84.81 1680.79,-81.7 1701.26,-78.92"/>
<polygon fill="midnightblue" stroke="midnightblue" points="1701.82,-82.38 1711.25,-77.55 1700.87,-75.44 1701.82,-82.38"/>
</g>
<!-- Node39&#45;&gt;Node3 -->
<g id="edge76" class="edge">
<title>Node39&#45;&gt;Node3</title>
<path fill="none" stroke="midnightblue" d="M1317.51,-695.53C1437.34,-674.52 1756.41,-604.93 1954,-434 2006.06,-388.97 2031.01,-306.76 2039.96,-270.06"/>
<polygon fill="midnightblue" stroke="midnightblue" points="2043.39,-270.75 2042.23,-260.22 2036.57,-269.17 2043.39,-270.75"/>
</g>
<!-- Node39&#45;&gt;Node5 -->
<g id="edge74" class="edge">
<title>Node39&#45;&gt;Node5</title>
<path fill="none" stroke="midnightblue" d="M1317.7,-702.17C1452.57,-699.49 1848.11,-689.35 2175,-658 2350.63,-641.16 2395.82,-640.51 2568,-602 2650.59,-583.53 2670.88,-576.04 2750,-546 2938.68,-474.36 3037.84,-493.02 3145,-322 3191.99,-247.01 3204.08,-181.87 3138,-123 3114.86,-102.38 3035.87,-87.85 2979.64,-79.82"/>
<polygon fill="midnightblue" stroke="midnightblue" points="2979.81,-76.31 2969.43,-78.4 2978.85,-83.25 2979.81,-76.31"/>
</g>
<!-- Node39&#45;&gt;Node6 -->
<g id="edge75" class="edge">
<title>Node39&#45;&gt;Node6</title>
<path fill="none" stroke="midnightblue" d="M1259.63,-694.46C1249.22,-685.71 1232.92,-671.5 1220,-658 1135.86,-570.04 969.11,-308.39 872,-235 852.73,-220.44 828.03,-209.44 807.64,-201.96"/>
<polygon fill="midnightblue" stroke="midnightblue" points="808.62,-198.6 798.02,-198.57 806.29,-205.2 808.62,-198.6"/>
</g>
<!-- Node39&#45;&gt;Node17 -->
<g id="edge73" class="edge">
<title>Node39&#45;&gt;Node17</title>
<path fill="none" stroke="midnightblue" d="M1317.52,-702.16C1462.97,-699.3 1914.86,-688.43 2288,-658 2497.67,-640.9 2551.25,-640.81 2758,-602 2855.89,-583.62 2880.23,-576.66 2975,-546 3205.62,-471.39 3342,-486.34 3443,-266 3466.18,-215.44 3408.19,-143.02 3391,-123 3377.54,-107.33 3358.07,-94.52 3342.21,-85.72"/>
<polygon fill="midnightblue" stroke="midnightblue" points="3343.83,-82.62 3333.36,-81.01 3340.55,-88.8 3343.83,-82.62"/>
</g>
<!-- Node39&#45;&gt;Node22 -->
<g id="edge162" class="edge">
<title>Node39&#45;&gt;Node22</title>
<path fill="none" stroke="midnightblue" d="M1267.44,-694.25C1262.25,-675.74 1251,-631.18 1251,-593 1251,-593 1251,-593 1251,-535 1251,-230.95 1613.64,-412.62 1880,-266 1978.28,-211.9 1993.66,-183.71 2088,-123 2108.04,-110.1 2131.3,-96.2 2148.25,-86.26"/>
<polygon fill="midnightblue" stroke="midnightblue" points="2150.09,-89.23 2156.96,-81.17 2146.56,-83.19 2150.09,-89.23"/>
</g>
<!-- Node40 -->
<g id="node40" class="node">
<title>Node40</title>
<g id="a_node40"><a xlink:href="layout_8h.html" target="_top" xlink:title="Definition of layout.">
<polygon fill="white" stroke="black" points="2068,-638.5 2068,-657.5 2166,-657.5 2166,-638.5 2068,-638.5"/>
<text text-anchor="middle" x="2117" y="-645.5" font-family="Helvetica,sans-Serif" font-size="10.00">tvm/tirx/layout.h</text>
</a>
</g>
</g>
<!-- Node39&#45;&gt;Node40 -->
<g id="edge77" class="edge">
<title>Node39&#45;&gt;Node40</title>
<path fill="none" stroke="midnightblue" d="M1317.66,-699.96C1462.7,-690.71 1898.52,-662.93 2057.84,-652.77"/>
<polygon fill="midnightblue" stroke="midnightblue" points="2058.17,-656.26 2067.93,-652.13 2057.73,-649.27 2058.17,-656.26"/>
</g>
<!-- Node39&#45;&gt;Node57 -->
<g id="edge161" class="edge">
<title>Node39&#45;&gt;Node57</title>
<path fill="none" stroke="midnightblue" d="M1261.83,-694.38C1246.07,-676.81 1213,-634.94 1213,-593 1213,-593 1213,-593 1213,-535 1213,-458.48 1235.2,-369.23 1245.67,-331.42"/>
<polygon fill="midnightblue" stroke="midnightblue" points="1249.04,-332.36 1248.39,-321.79 1242.3,-330.46 1249.04,-332.36"/>
</g>
<!-- Node40&#45;&gt;Node12 -->
<g id="edge81" class="edge">
<title>Node40&#45;&gt;Node12</title>
<path fill="none" stroke="midnightblue" d="M2166.36,-640.93C2201.98,-634.95 2250.24,-623.47 2288,-602 2379.03,-550.25 2460.25,-514.25 2430,-414 2420.95,-384 2300.97,-194.96 2274,-179 2233.28,-154.91 1921.66,-140.8 1792.65,-135.93"/>
<polygon fill="midnightblue" stroke="midnightblue" points="1792.7,-132.43 1782.58,-135.56 1792.44,-139.43 1792.7,-132.43"/>
</g>
<!-- Node40&#45;&gt;Node17 -->
<g id="edge78" class="edge">
<title>Node40&#45;&gt;Node17</title>
<path fill="none" stroke="midnightblue" d="M2166.09,-647.95C2325.62,-648.92 2839.52,-635.3 3194,-434 3313.76,-365.99 3368.07,-333.86 3396,-199 3405.45,-153.38 3362.26,-109.82 3335.3,-87.67"/>
<polygon fill="midnightblue" stroke="midnightblue" points="3337.21,-84.72 3327.2,-81.25 3332.87,-90.21 3337.21,-84.72"/>
</g>
<!-- Node40&#45;&gt;Node18 -->
<g id="edge80" class="edge">
<title>Node40&#45;&gt;Node18</title>
<path fill="none" stroke="midnightblue" d="M2166.24,-645.85C2346.36,-638.53 2967.87,-585.24 3141,-199 3202.03,-62.85 2625.53,-115.11 2479,-87 2473.5,-85.94 2467.74,-84.7 2462.06,-83.4"/>
<polygon fill="midnightblue" stroke="midnightblue" points="2462.56,-79.92 2452.02,-81 2460.94,-86.73 2462.56,-79.92"/>
</g>
<!-- Node41 -->
<g id="node41" class="node">
<title>Node41</title>
<g id="a_node41"><a xlink:title=" ">
<polygon fill="white" stroke="#bfbfbf" points="2145,-582.5 2145,-601.5 2279,-601.5 2279,-582.5 2145,-582.5"/>
<text text-anchor="middle" x="2212" y="-589.5" font-family="Helvetica,sans-Serif" font-size="10.00">tvm/ffi/container/tuple.h</text>
</a>
</g>
</g>
<!-- Node40&#45;&gt;Node41 -->
<g id="edge79" class="edge">
<title>Node40&#45;&gt;Node41</title>
<path fill="none" stroke="midnightblue" d="M2132.26,-638.32C2147.22,-629.82 2170.25,-616.73 2187.73,-606.8"/>
<polygon fill="midnightblue" stroke="midnightblue" points="2189.81,-609.64 2196.77,-601.65 2186.35,-603.55 2189.81,-609.64"/>
</g>
<!-- Node42 -->
<g id="node42" class="node">
<title>Node42</title>
<g id="a_node42"><a xlink:href="attr__registry__map_8h.html" target="_top" xlink:title="Attribute map used in registry.">
<polygon fill="white" stroke="black" points="644.5,-235.5 644.5,-265.5 753.5,-265.5 753.5,-235.5 644.5,-235.5"/>
<text text-anchor="start" x="652.5" y="-253.5" font-family="Helvetica,sans-Serif" font-size="10.00">tvm/ir/attr_registry</text>
<text text-anchor="middle" x="699" y="-242.5" font-family="Helvetica,sans-Serif" font-size="10.00">_map.h</text>
</a>
</g>
</g>
<!-- Node40&#45;&gt;Node42 -->
<g id="edge82" class="edge">
<title>Node40&#45;&gt;Node42</title>
<path fill="none" stroke="midnightblue" d="M2067.81,-646.48C1902.88,-643.02 1357.47,-617.51 958,-434 862.67,-390.21 765.64,-310.38 722.35,-272.51"/>
<polygon fill="midnightblue" stroke="midnightblue" points="724.47,-269.72 714.66,-265.73 719.85,-274.97 724.47,-269.72"/>
</g>
<!-- Node43 -->
<g id="node43" class="node">
<title>Node43</title>
<g id="a_node43"><a xlink:href="module_8h.html" target="_top" xlink:title="IRModule that holds the functions and type definitions.">
<polygon fill="white" stroke="black" points="2081.5,-526.5 2081.5,-545.5 2176.5,-545.5 2176.5,-526.5 2081.5,-526.5"/>
<text text-anchor="middle" x="2129" y="-533.5" font-family="Helvetica,sans-Serif" font-size="10.00">tvm/ir/module.h</text>
</a>
</g>
</g>
<!-- Node40&#45;&gt;Node43 -->
<g id="edge86" class="edge">
<title>Node40&#45;&gt;Node43</title>
<path fill="none" stroke="midnightblue" d="M2117.94,-638.37C2119.88,-620.62 2124.35,-579.67 2126.97,-555.6"/>
<polygon fill="midnightblue" stroke="midnightblue" points="2130.46,-555.91 2128.06,-545.59 2123.5,-555.15 2130.46,-555.91"/>
</g>
<!-- Node55 -->
<g id="node55" class="node">
<title>Node55</title>
<g id="a_node55"><a xlink:href="exec__scope_8h.html" target="_top" xlink:title=" ">
<polygon fill="white" stroke="black" points="1941,-582.5 1941,-601.5 2065,-601.5 2065,-582.5 1941,-582.5"/>
<text text-anchor="middle" x="2003" y="-589.5" font-family="Helvetica,sans-Serif" font-size="10.00">tvm/tirx/exec_scope.h</text>
</a>
</g>
</g>
<!-- Node40&#45;&gt;Node55 -->
<g id="edge149" class="edge">
<title>Node40&#45;&gt;Node55</title>
<path fill="none" stroke="midnightblue" d="M2098.94,-638.44C2080.43,-629.68 2051.42,-615.94 2030.14,-605.86"/>
<polygon fill="midnightblue" stroke="midnightblue" points="2031.51,-602.63 2020.98,-601.52 2028.52,-608.96 2031.51,-602.63"/>
</g>
<!-- Node40&#45;&gt;Node57 -->
<g id="edge160" class="edge">
<title>Node40&#45;&gt;Node57</title>
<path fill="none" stroke="midnightblue" d="M2067.6,-644.65C1961.09,-638.37 1703.02,-616.51 1500,-546 1451.51,-529.16 1438.58,-522.68 1399,-490 1339.13,-440.55 1285.06,-364.49 1262.34,-330.48"/>
<polygon fill="midnightblue" stroke="midnightblue" points="1264.98,-328.13 1256.56,-321.71 1259.14,-331.98 1264.98,-328.13"/>
</g>
<!-- Node42&#45;&gt;Node6 -->
<g id="edge83" class="edge">
<title>Node42&#45;&gt;Node6</title>
<path fill="none" stroke="midnightblue" d="M715.59,-235.4C726.29,-226.31 740.19,-214.49 751.13,-205.19"/>
<polygon fill="midnightblue" stroke="midnightblue" points="753.46,-207.8 758.81,-198.66 748.93,-202.47 753.46,-207.8"/>
</g>
<!-- Node42&#45;&gt;Node14 -->
<g id="edge84" class="edge">
<title>Node42&#45;&gt;Node14</title>
<path fill="none" stroke="midnightblue" d="M692.81,-235.23C688.84,-225.29 684.06,-211.6 682,-199 676.54,-165.67 677.45,-156.47 682,-123 683.48,-112.13 686.67,-100.29 689.64,-90.81"/>
<polygon fill="midnightblue" stroke="midnightblue" points="692.97,-91.88 692.78,-81.29 686.32,-89.69 692.97,-91.88"/>
</g>
<!-- Node42&#45;&gt;Node23 -->
<g id="edge85" class="edge">
<title>Node42&#45;&gt;Node23</title>
<path fill="none" stroke="midnightblue" d="M644.47,-239.37C607.83,-231.33 559.1,-218.22 519,-199 454.87,-168.26 389.32,-114.3 359.13,-87.91"/>
<polygon fill="midnightblue" stroke="midnightblue" points="361.4,-85.24 351.59,-81.24 356.76,-90.49 361.4,-85.24"/>
</g>
<!-- Node43&#45;&gt;Node3 -->
<g id="edge92" class="edge">
<title>Node43&#45;&gt;Node3</title>
<path fill="none" stroke="midnightblue" d="M2123.83,-526.3C2118.73,-517.42 2110.99,-503.12 2106,-490 2075.84,-410.68 2055.19,-311.1 2047.43,-270.27"/>
<polygon fill="midnightblue" stroke="midnightblue" points="2050.86,-269.57 2045.58,-260.38 2043.98,-270.85 2050.86,-269.57"/>
</g>
<!-- Node43&#45;&gt;Node5 -->
<g id="edge89" class="edge">
<title>Node43&#45;&gt;Node5</title>
<path fill="none" stroke="midnightblue" d="M2176.68,-533.85C2290.88,-530.64 2577.34,-519.78 2668,-490 2726.62,-470.74 3110.9,-252.86 3141,-199 3179.44,-130.21 3057.21,-95.89 2979.42,-81.38"/>
<polygon fill="midnightblue" stroke="midnightblue" points="2979.69,-77.88 2969.22,-79.55 2978.45,-84.76 2979.69,-77.88"/>
</g>
<!-- Node43&#45;&gt;Node6 -->
<g id="edge90" class="edge">
<title>Node43&#45;&gt;Node6</title>
<path fill="none" stroke="midnightblue" d="M2081.43,-527.37C2078.24,-526.9 2075.08,-526.44 2072,-526 1944.72,-507.97 1912.43,-506.96 1785,-490 1607.93,-466.44 1560.39,-476.93 1387,-434 1244.39,-398.69 1212.48,-376.36 1076,-322 1018.31,-299.02 1000.99,-298.37 948,-266 929.4,-254.64 929.16,-245.38 910,-235 881.53,-219.57 846.92,-208.43 819.12,-201.09"/>
<polygon fill="midnightblue" stroke="midnightblue" points="819.76,-197.64 809.2,-198.56 818.03,-204.42 819.76,-197.64"/>
</g>
<!-- Node43&#45;&gt;Node14 -->
<g id="edge147" class="edge">
<title>Node43&#45;&gt;Node14</title>
<path fill="none" stroke="midnightblue" d="M2081.45,-527.19C2078.26,-526.76 2075.09,-526.36 2072,-526 1858.17,-501.19 1802.28,-519.16 1589,-490 1481.12,-475.25 702.04,-351.8 635,-266 592.02,-210.99 652.16,-125.17 681.5,-89.22"/>
<polygon fill="midnightblue" stroke="midnightblue" points="684.48,-91.12 688.22,-81.21 679.11,-86.63 684.48,-91.12"/>
</g>
<!-- Node43&#45;&gt;Node15 -->
<g id="edge91" class="edge">
<title>Node43&#45;&gt;Node15</title>
<path fill="none" stroke="midnightblue" d="M2095.36,-526.43C2013.99,-505.27 1800.63,-447.21 1630,-378 1493.16,-322.5 1337.93,-236.67 1279.71,-203.62"/>
<polygon fill="midnightblue" stroke="midnightblue" points="1281.33,-200.51 1270.91,-198.6 1277.87,-206.59 1281.33,-200.51"/>
</g>
<!-- Node43&#45;&gt;Node16 -->
<g id="edge142" class="edge">
<title>Node43&#45;&gt;Node16</title>
<path fill="none" stroke="midnightblue" d="M2176.82,-533.83C2305.16,-527.66 2652.12,-490.19 2721,-266 2725.05,-252.83 2729.01,-246.21 2721,-235 2692.33,-194.86 2661.96,-216.93 2616,-199 2573.49,-182.41 2525.26,-160.67 2495.74,-147.01"/>
<polygon fill="midnightblue" stroke="midnightblue" points="2497.03,-143.75 2486.48,-142.71 2494.08,-150.1 2497.03,-143.75"/>
</g>
<!-- Node43&#45;&gt;Node17 -->
<g id="edge87" class="edge">
<title>Node43&#45;&gt;Node17</title>
<path fill="none" stroke="midnightblue" d="M2176.59,-533.6C2295.86,-529.73 2605.06,-517.29 2704,-490 2984.7,-412.56 3115,-430.98 3291,-199 3315.13,-167.2 3317.27,-118.21 3316.36,-91.49"/>
<polygon fill="midnightblue" stroke="midnightblue" points="3319.84,-91.02 3315.82,-81.21 3312.85,-91.39 3319.84,-91.02"/>
</g>
<!-- Node43&#45;&gt;Node22 -->
<g id="edge144" class="edge">
<title>Node43&#45;&gt;Node22</title>
<path fill="none" stroke="midnightblue" d="M2176.55,-530.49C2292.72,-516.49 2588.68,-462.12 2687,-266 2693.17,-253.68 2695.29,-246.01 2687,-235 2685.61,-233.15 2369.18,-143.78 2367,-143 2346.02,-135.46 2341.8,-131.03 2321,-123 2281.05,-107.58 2234.15,-92.1 2203.8,-82.43"/>
<polygon fill="midnightblue" stroke="midnightblue" points="2204.76,-79.06 2194.17,-79.38 2202.64,-85.73 2204.76,-79.06"/>
</g>
<!-- Node43&#45;&gt;Node23 -->
<g id="edge148" class="edge">
<title>Node43&#45;&gt;Node23</title>
<path fill="none" stroke="midnightblue" d="M2081.46,-527.14C2078.26,-526.72 2075.09,-526.33 2072,-526 1799.78,-496.61 1729.5,-516.65 1457,-490 1388.74,-483.32 279.07,-373.69 234,-322 174.65,-253.94 221.51,-195.75 275,-123 286.11,-107.89 303,-95.2 317.04,-86.32"/>
<polygon fill="midnightblue" stroke="midnightblue" points="319.02,-89.22 325.77,-81.05 315.4,-83.22 319.02,-89.22"/>
</g>
<!-- Node43&#45;&gt;Node24 -->
<g id="edge143" class="edge">
<title>Node43&#45;&gt;Node24</title>
<path fill="none" stroke="midnightblue" d="M2176.63,-534.24C2281.79,-531.96 2530.52,-523.13 2607,-490 2653.81,-469.72 2651.24,-443.29 2693,-414 2720.36,-394.82 2741.94,-406.73 2759,-378 2791.44,-323.35 2792.88,-288.77 2759,-235 2748.99,-219.11 2731.65,-208.71 2714.56,-201.96"/>
<polygon fill="midnightblue" stroke="midnightblue" points="2715.74,-198.66 2705.15,-198.57 2713.37,-205.25 2715.74,-198.66"/>
</g>
<!-- Node43&#45;&gt;Node33 -->
<g id="edge88" class="edge">
<title>Node43&#45;&gt;Node33</title>
<path fill="none" stroke="midnightblue" d="M2081.36,-526.52C2033.98,-517.92 1959.28,-503.94 1895,-490 1584.44,-422.64 1467.89,-492.95 1200,-322 1154.07,-292.69 1119.44,-236.26 1103.94,-207.61"/>
<polygon fill="midnightblue" stroke="midnightblue" points="1107.03,-205.95 1099.27,-198.73 1100.83,-209.21 1107.03,-205.95"/>
</g>
<!-- Node43&#45;&gt;Node37 -->
<g id="edge145" class="edge">
<title>Node43&#45;&gt;Node37</title>
<path fill="none" stroke="midnightblue" d="M2176.61,-534.3C2286.4,-532.13 2554.19,-523.47 2637,-490 2686.81,-469.87 2685.95,-443.27 2731,-414 2806.34,-365.05 2834.85,-369.68 2911,-322 2971.44,-284.16 3037.16,-230.99 3068.05,-205.21"/>
<polygon fill="midnightblue" stroke="midnightblue" points="3070.4,-207.81 3075.8,-198.7 3065.89,-202.45 3070.4,-207.81"/>
</g>
<!-- Node44 -->
<g id="node44" class="node">
<title>Node44</title>
<g id="a_node44"><a xlink:href="ir_2function_8h.html" target="_top" xlink:title="Function nodes.">
<polygon fill="white" stroke="black" points="1841,-358.5 1841,-377.5 1939,-377.5 1939,-358.5 1841,-358.5"/>
<text text-anchor="middle" x="1890" y="-365.5" font-family="Helvetica,sans-Serif" font-size="10.00">tvm/ir/function.h</text>
</a>
</g>
</g>
<!-- Node43&#45;&gt;Node44 -->
<g id="edge93" class="edge">
<title>Node43&#45;&gt;Node44</title>
<path fill="none" stroke="midnightblue" d="M2116.49,-526.31C2077.69,-499.36 1959.12,-417.01 1910.81,-383.46"/>
<polygon fill="midnightblue" stroke="midnightblue" points="1912.6,-380.44 1902.39,-377.61 1908.61,-386.18 1912.6,-380.44"/>
</g>
<!-- Node45 -->
<g id="node45" class="node">
<title>Node45</title>
<g id="a_node45"><a xlink:href="ir_2global__info_8h.html" target="_top" xlink:title="GlobalInfo are globally static object that are referred by the IR itself.">
<polygon fill="white" stroke="black" points="2115,-470.5 2115,-489.5 2227,-489.5 2227,-470.5 2115,-470.5"/>
<text text-anchor="middle" x="2171" y="-477.5" font-family="Helvetica,sans-Serif" font-size="10.00">tvm/ir/global_info.h</text>
</a>
</g>
</g>
<!-- Node43&#45;&gt;Node45 -->
<g id="edge101" class="edge">
<title>Node43&#45;&gt;Node45</title>
<path fill="none" stroke="midnightblue" d="M2135.94,-526.08C2141.93,-518.38 2150.75,-507.03 2158.05,-497.65"/>
<polygon fill="midnightblue" stroke="midnightblue" points="2160.82,-499.79 2164.19,-489.75 2155.29,-495.5 2160.82,-499.79"/>
</g>
<!-- Node54 -->
<g id="node54" class="node">
<title>Node54</title>
<g id="a_node54"><a xlink:title=" ">
<polygon fill="white" stroke="#bfbfbf" points="2245,-470.5 2245,-489.5 2331,-489.5 2331,-470.5 2245,-470.5"/>
<text text-anchor="middle" x="2288" y="-477.5" font-family="Helvetica,sans-Serif" font-size="10.00">unordered_set</text>
</a>
</g>
</g>
<!-- Node43&#45;&gt;Node54 -->
<g id="edge146" class="edge">
<title>Node43&#45;&gt;Node54</title>
<path fill="none" stroke="midnightblue" d="M2154.19,-526.44C2180.94,-517.36 2223.4,-502.94 2253.31,-492.78"/>
<polygon fill="midnightblue" stroke="midnightblue" points="2254.58,-496.05 2262.92,-489.52 2252.33,-489.42 2254.58,-496.05"/>
</g>
<!-- Node44&#45;&gt;Node3 -->
<g id="edge98" class="edge">
<title>Node44&#45;&gt;Node3</title>
<path fill="none" stroke="midnightblue" d="M1899.82,-358.23C1914.33,-345.39 1942.56,-320.96 1968,-302 1985.46,-288.98 2006.08,-275.38 2021.44,-265.58"/>
<polygon fill="midnightblue" stroke="midnightblue" points="2023.67,-268.31 2030.24,-260.01 2019.92,-262.4 2023.67,-268.31"/>
</g>
<!-- Node44&#45;&gt;Node6 -->
<g id="edge96" class="edge">
<title>Node44&#45;&gt;Node6</title>
<path fill="none" stroke="midnightblue" d="M1840.7,-367C1726.99,-366.3 1437.89,-360.52 1200,-322 1102.95,-306.28 1073.65,-310.54 986,-266 966.57,-256.13 967.48,-244.78 948,-235 926.04,-223.97 866.12,-210 821.63,-200.58"/>
<polygon fill="midnightblue" stroke="midnightblue" points="822.32,-197.15 811.82,-198.52 820.89,-204 822.32,-197.15"/>
</g>
<!-- Node44&#45;&gt;Node17 -->
<g id="edge94" class="edge">
<title>Node44&#45;&gt;Node17</title>
<path fill="none" stroke="midnightblue" d="M1939.04,-365.72C2079.73,-361.77 2482.8,-348.41 2612,-322 2681.95,-307.7 3153.06,-132.89 3282.28,-84.72"/>
<polygon fill="midnightblue" stroke="midnightblue" points="3283.86,-87.86 3292.01,-81.09 3281.42,-81.31 3283.86,-87.86"/>
</g>
<!-- Node44&#45;&gt;Node22 -->
<g id="edge99" class="edge">
<title>Node44&#45;&gt;Node22</title>
<path fill="none" stroke="midnightblue" d="M1896.71,-358.1C1906.22,-345.51 1924.23,-321.84 1940,-302 1963.97,-271.84 1968.52,-262.99 1995,-235 2049.48,-177.42 2120.6,-115.79 2153.64,-87.84"/>
<polygon fill="midnightblue" stroke="midnightblue" points="2156.16,-90.31 2161.55,-81.19 2151.65,-84.95 2156.16,-90.31"/>
</g>
<!-- Node44&#45;&gt;Node28 -->
<g id="edge100" class="edge">
<title>Node44&#45;&gt;Node28</title>
<path fill="none" stroke="midnightblue" d="M1872.28,-358.47C1787.88,-317.82 1430.67,-145.66 1429,-143 1424.28,-135.47 1423.23,-129.76 1429,-123 1433.41,-117.83 1615.16,-91.22 1701.43,-78.84"/>
<polygon fill="midnightblue" stroke="midnightblue" points="1702.05,-82.29 1711.45,-77.41 1701.06,-75.36 1702.05,-82.29"/>
</g>
<!-- Node44&#45;&gt;Node33 -->
<g id="edge95" class="edge">
<title>Node44&#45;&gt;Node33</title>
<path fill="none" stroke="midnightblue" d="M1840.79,-359.68C1697.37,-338.26 1288.17,-276.57 1261,-266 1237.68,-256.92 1236.28,-246.38 1214,-235 1187.67,-221.55 1156.33,-209.86 1132.43,-201.77"/>
<polygon fill="midnightblue" stroke="midnightblue" points="1133.27,-198.36 1122.67,-198.53 1131.06,-205 1133.27,-198.36"/>
</g>
<!-- Node44&#45;&gt;Node34 -->
<g id="edge97" class="edge">
<title>Node44&#45;&gt;Node34</title>
<path fill="none" stroke="midnightblue" d="M1939.21,-363.05C2063.3,-353.1 2387.91,-327.05 2512.92,-317.02"/>
<polygon fill="midnightblue" stroke="midnightblue" points="2513.29,-320.5 2522.98,-316.21 2512.73,-313.52 2513.29,-320.5"/>
</g>
<!-- Node45&#45;&gt;Node3 -->
<g id="edge103" class="edge">
<title>Node45&#45;&gt;Node3</title>
<path fill="none" stroke="midnightblue" d="M2171.22,-470.28C2171.46,-442.74 2168.84,-356.2 2129,-302 2116.39,-284.85 2096.05,-272.46 2078.42,-264.25"/>
<polygon fill="midnightblue" stroke="midnightblue" points="2079.54,-260.92 2068.98,-260.11 2076.74,-267.33 2079.54,-260.92"/>
</g>
<!-- Node45&#45;&gt;Node5 -->
<g id="edge102" class="edge">
<title>Node45&#45;&gt;Node5</title>
<path fill="none" stroke="midnightblue" d="M2217.9,-470.44C2325.45,-449.24 2595.4,-387.07 2788,-266 2854.8,-224.01 2884.75,-215.44 2916,-143 2922.21,-128.61 2923.21,-111.01 2922.66,-97"/>
<polygon fill="midnightblue" stroke="midnightblue" points="2926.13,-96.4 2921.96,-86.66 2919.15,-96.87 2926.13,-96.4"/>
</g>
<!-- Node46 -->
<g id="node46" class="node">
<title>Node46</title>
<g id="a_node46"><a xlink:href="target_8h.html" target="_top" xlink:title="Compilation target object.">
<polygon fill="white" stroke="black" points="1835,-414.5 1835,-433.5 1945,-433.5 1945,-414.5 1835,-414.5"/>
<text text-anchor="middle" x="1890" y="-421.5" font-family="Helvetica,sans-Serif" font-size="10.00">tvm/target/target.h</text>
</a>
</g>
</g>
<!-- Node45&#45;&gt;Node46 -->
<g id="edge104" class="edge">
<title>Node45&#45;&gt;Node46</title>
<path fill="none" stroke="midnightblue" d="M2126.47,-470.44C2077.04,-460.94 1997.25,-445.61 1944.22,-435.42"/>
<polygon fill="midnightblue" stroke="midnightblue" points="1944.8,-431.97 1934.32,-433.52 1943.48,-438.84 1944.8,-431.97"/>
</g>
<!-- Node46&#45;&gt;Node3 -->
<g id="edge107" class="edge">
<title>Node46&#45;&gt;Node3</title>
<path fill="none" stroke="midnightblue" d="M1903.24,-414.23C1915.54,-405.75 1934.02,-392.13 1948,-378 1983.08,-342.55 2016.51,-294.04 2033.12,-268.62"/>
<polygon fill="midnightblue" stroke="midnightblue" points="2036.14,-270.39 2038.62,-260.09 2030.26,-266.59 2036.14,-270.39"/>
</g>
<!-- Node46&#45;&gt;Node5 -->
<g id="edge105" class="edge">
<title>Node46&#45;&gt;Node5</title>
<path fill="none" stroke="midnightblue" d="M1945.38,-423.23C2069.01,-422.05 2375.22,-409.7 2612,-322 2750.16,-270.83 2796.62,-256.13 2891,-143 2902.26,-129.51 2909.64,-111.05 2914.14,-96.4"/>
<polygon fill="midnightblue" stroke="midnightblue" points="2917.57,-97.11 2916.92,-86.54 2910.83,-95.21 2917.57,-97.11"/>
</g>
<!-- Node46&#45;&gt;Node7 -->
<g id="edge106" class="edge">
<title>Node46&#45;&gt;Node7</title>
<path fill="none" stroke="midnightblue" d="M1878.28,-414.24C1866.45,-405.32 1847.72,-390.99 1832,-378 1757.16,-316.19 1671.29,-238.66 1635.29,-205.84"/>
<polygon fill="midnightblue" stroke="midnightblue" points="1637.37,-202.99 1627.63,-198.84 1632.65,-208.16 1637.37,-202.99"/>
</g>
<!-- Node46&#45;&gt;Node22 -->
<g id="edge141" class="edge">
<title>Node46&#45;&gt;Node22</title>
<path fill="none" stroke="midnightblue" d="M1906.74,-414.37C1923.33,-405.66 1949.33,-391.6 1971,-378 2064.48,-319.34 2076.09,-285.93 2174,-235 2215.91,-213.2 2246.84,-237.65 2274,-199 2301.7,-159.59 2224.47,-152.48 2215,-143 2199.68,-127.68 2187.46,-105.88 2180.02,-90.59"/>
<polygon fill="midnightblue" stroke="midnightblue" points="2183.05,-88.79 2175.66,-81.2 2176.7,-91.74 2183.05,-88.79"/>
</g>
<!-- Node46&#45;&gt;Node44 -->
<g id="edge108" class="edge">
<title>Node46&#45;&gt;Node44</title>
<path fill="none" stroke="midnightblue" d="M1890,-414.08C1890,-407.01 1890,-396.86 1890,-387.99"/>
<polygon fill="midnightblue" stroke="midnightblue" points="1893.5,-387.75 1890,-377.75 1886.5,-387.75 1893.5,-387.75"/>
</g>
<!-- Node46&#45;&gt;Node47 -->
<g id="edge109" class="edge">
<title>Node46&#45;&gt;Node47</title>
<path fill="none" stroke="midnightblue" d="M1834.95,-419.18C1595.25,-402.56 642.72,-336.49 374.57,-317.89"/>
<polygon fill="midnightblue" stroke="midnightblue" points="374.79,-314.4 364.57,-317.2 374.31,-321.38 374.79,-314.4"/>
</g>
<!-- Node50 -->
<g id="node50" class="node">
<title>Node50</title>
<g id="a_node50"><a xlink:href="device__api_8h.html" target="_top" xlink:title="Abstract device memory management API.">
<polygon fill="white" stroke="black" points="1494.5,-235.5 1494.5,-265.5 1607.5,-265.5 1607.5,-235.5 1494.5,-235.5"/>
<text text-anchor="start" x="1502.5" y="-253.5" font-family="Helvetica,sans-Serif" font-size="10.00">tvm/runtime/device</text>
<text text-anchor="middle" x="1551" y="-242.5" font-family="Helvetica,sans-Serif" font-size="10.00">_api.h</text>
</a>
</g>
</g>
<!-- Node46&#45;&gt;Node50 -->
<g id="edge115" class="edge">
<title>Node46&#45;&gt;Node50</title>
<path fill="none" stroke="midnightblue" d="M1834.88,-422.23C1785.93,-419.31 1714,-409.38 1660,-378 1616.35,-352.63 1581.64,-303.24 1563.91,-274.25"/>
<polygon fill="midnightblue" stroke="midnightblue" points="1566.89,-272.4 1558.77,-265.61 1560.88,-275.99 1566.89,-272.4"/>
</g>
<!-- Node51 -->
<g id="node51" class="node">
<title>Node51</title>
<g id="a_node51"><a xlink:href="target__kind_8h.html" target="_top" xlink:title="Target kind registry.">
<polygon fill="white" stroke="black" points="1311,-302.5 1311,-321.5 1447,-321.5 1447,-302.5 1311,-302.5"/>
<text text-anchor="middle" x="1379" y="-309.5" font-family="Helvetica,sans-Serif" font-size="10.00">tvm/target/target_kind.h</text>
</a>
</g>
</g>
<!-- Node46&#45;&gt;Node51 -->
<g id="edge122" class="edge">
<title>Node46&#45;&gt;Node51</title>
<path fill="none" stroke="midnightblue" d="M1834.72,-420.46C1764.49,-416.21 1640.03,-405.25 1537,-378 1488.61,-365.2 1435.37,-341.04 1404.69,-326.05"/>
<polygon fill="midnightblue" stroke="midnightblue" points="1406.08,-322.83 1395.56,-321.53 1402.97,-329.1 1406.08,-322.83"/>
</g>
<!-- Node47&#45;&gt;Node14 -->
<g id="edge113" class="edge">
<title>Node47&#45;&gt;Node14</title>
<path fill="none" stroke="midnightblue" d="M303.75,-302.37C303.5,-293.32 303.14,-278.66 303,-266 302.85,-252.22 299.55,-248.34 303,-235 310.12,-207.46 313.61,-198.84 334,-179 427.11,-88.39 593.21,-74.25 663.33,-72.48"/>
<polygon fill="midnightblue" stroke="midnightblue" points="663.41,-75.98 673.35,-72.3 663.28,-68.98 663.41,-75.98"/>
</g>
<!-- Node47&#45;&gt;Node23 -->
<g id="edge114" class="edge">
<title>Node47&#45;&gt;Node23</title>
<path fill="none" stroke="midnightblue" d="M288.22,-302.47C275.8,-294.77 259.39,-282.18 252,-266 246.27,-253.47 249.76,-248.59 252,-235 260.56,-183.14 261.92,-167.44 290,-123 298.57,-109.44 311.5,-96.86 322.33,-87.65"/>
<polygon fill="midnightblue" stroke="midnightblue" points="324.56,-90.34 330.08,-81.3 320.13,-84.92 324.56,-90.34"/>
</g>
<!-- Node47&#45;&gt;Node30 -->
<g id="edge111" class="edge">
<title>Node47&#45;&gt;Node30</title>
<path fill="none" stroke="midnightblue" d="M303.22,-302.28C302.32,-286.15 303.01,-251.8 323,-235 363.73,-200.77 733.13,-206.27 820.99,-198.62"/>
<polygon fill="midnightblue" stroke="midnightblue" points="821.51,-202.09 831.06,-197.51 820.74,-195.13 821.51,-202.09"/>
</g>
<!-- Node48 -->
<g id="node48" class="node">
<title>Node48</title>
<g id="a_node48"><a xlink:title=" ">
<polygon fill="white" stroke="#bfbfbf" points="332.5,-241 332.5,-260 397.5,-260 397.5,-241 332.5,-241"/>
<text text-anchor="middle" x="365" y="-248" font-family="Helvetica,sans-Serif" font-size="10.00">exception</text>
</a>
</g>
</g>
<!-- Node47&#45;&gt;Node48 -->
<g id="edge110" class="edge">
<title>Node47&#45;&gt;Node48</title>
<path fill="none" stroke="midnightblue" d="M312.74,-302.48C322.16,-293.28 337.36,-278.46 348.95,-267.16"/>
<polygon fill="midnightblue" stroke="midnightblue" points="351.56,-269.5 356.28,-260.01 346.67,-264.49 351.56,-269.5"/>
</g>
<!-- Node47&#45;&gt;Node49 -->
<g id="edge112" class="edge">
<title>Node47&#45;&gt;Node49</title>
<path fill="none" stroke="midnightblue" d="M324.2,-302.48C348.07,-292.4 388,-275.55 415.37,-264"/>
<polygon fill="midnightblue" stroke="midnightblue" points="416.98,-267.12 424.84,-260.01 414.26,-260.67 416.98,-267.12"/>
</g>
<!-- Node50&#45;&gt;Node6 -->
<g id="edge119" class="edge">
<title>Node50&#45;&gt;Node6</title>
<path fill="none" stroke="midnightblue" d="M1494.11,-247.48C1372.74,-242.75 1079.3,-229.11 823.99,-199.13"/>
<polygon fill="midnightblue" stroke="midnightblue" points="824.12,-195.62 813.77,-197.92 823.29,-202.58 824.12,-195.62"/>
</g>
<!-- Node50&#45;&gt;Node8 -->
<g id="edge116" class="edge">
<title>Node50&#45;&gt;Node8</title>
<path fill="none" stroke="midnightblue" d="M1553.67,-235.37C1556.68,-220.87 1562.17,-197.85 1570,-179 1573.98,-169.42 1579.63,-159.36 1584.65,-151.19"/>
<polygon fill="midnightblue" stroke="midnightblue" points="1587.69,-152.93 1590.11,-142.61 1581.79,-149.17 1587.69,-152.93"/>
</g>
<!-- Node50&#45;&gt;Node11 -->
<g id="edge117" class="edge">
<title>Node50&#45;&gt;Node11</title>
<path fill="none" stroke="midnightblue" d="M1506.07,-235.4C1456.63,-220.19 1374.67,-195.9 1303,-179 1218.92,-159.17 1189.38,-181.4 1112,-143 1085.54,-129.87 1061.37,-105.18 1047.17,-88.78"/>
<polygon fill="midnightblue" stroke="midnightblue" points="1049.8,-86.47 1040.69,-81.07 1044.44,-90.98 1049.8,-86.47"/>
</g>
<!-- Node50&#45;&gt;Node13 -->
<g id="edge118" class="edge">
<title>Node50&#45;&gt;Node13</title>
<path fill="none" stroke="midnightblue" d="M1543.4,-235.34C1532.07,-214.24 1510.79,-174.6 1498.47,-151.65"/>
<polygon fill="midnightblue" stroke="midnightblue" points="1501.47,-149.82 1493.65,-142.67 1495.3,-153.14 1501.47,-149.82"/>
</g>
<!-- Node50&#45;&gt;Node19 -->
<g id="edge120" class="edge">
<title>Node50&#45;&gt;Node19</title>
<path fill="none" stroke="midnightblue" d="M1518.4,-235.44C1483.06,-218.55 1427.51,-186.9 1396,-143 1385,-127.68 1380.04,-106.47 1377.8,-91.32"/>
<polygon fill="midnightblue" stroke="midnightblue" points="1381.24,-90.63 1376.57,-81.12 1374.29,-91.47 1381.24,-90.63"/>
</g>
<!-- Node50&#45;&gt;Node22 -->
<g id="edge121" class="edge">
<title>Node50&#45;&gt;Node22</title>
<path fill="none" stroke="midnightblue" d="M1583.8,-235.32C1606.85,-225.3 1638.38,-211.49 1666,-199 1685.21,-190.32 1689.22,-186.28 1709,-179 1865.34,-121.42 2063.23,-88.4 2139.76,-77.03"/>
<polygon fill="midnightblue" stroke="midnightblue" points="2140.34,-80.48 2149.73,-75.57 2139.33,-73.56 2140.34,-80.48"/>
</g>
<!-- Node51&#45;&gt;Node5 -->
<g id="edge124" class="edge">
<title>Node51&#45;&gt;Node5</title>
<path fill="none" stroke="midnightblue" d="M1447.39,-307.56C1574.47,-300.96 1855.59,-285.47 2092,-266 2227.79,-254.82 2261.39,-248.23 2397,-235 2568.05,-218.31 2619.71,-255.54 2782,-199 2825.07,-184 2834.82,-174.3 2868,-143 2883.03,-128.83 2896.74,-109.85 2906.31,-95.15"/>
<polygon fill="midnightblue" stroke="midnightblue" points="2909.31,-96.96 2911.71,-86.64 2903.4,-93.21 2909.31,-96.96"/>
</g>
<!-- Node51&#45;&gt;Node14 -->
<g id="edge139" class="edge">
<title>Node51&#45;&gt;Node14</title>
<path fill="none" stroke="midnightblue" d="M1334.76,-302.42C1293.44,-294.12 1230.18,-280.67 1176,-266 1053.9,-232.94 1027.52,-210.47 905,-179 823.87,-158.16 783.12,-198.07 720,-143 705.26,-130.14 699.56,-107.86 697.36,-91.78"/>
<polygon fill="midnightblue" stroke="midnightblue" points="700.8,-90.99 696.3,-81.4 693.84,-91.7 700.8,-90.99"/>
</g>
<!-- Node51&#45;&gt;Node18 -->
<g id="edge123" class="edge">
<title>Node51&#45;&gt;Node18</title>
<path fill="none" stroke="midnightblue" d="M1447.11,-310.42C1544.29,-308.35 1727.83,-299.82 1880,-266 1990.76,-241.39 2013.21,-217.31 2120,-179 2216.48,-144.39 2330.62,-104.03 2386.19,-84.42"/>
<polygon fill="midnightblue" stroke="midnightblue" points="2387.61,-87.63 2395.87,-81 2385.28,-81.03 2387.61,-87.63"/>
</g>
<!-- Node51&#45;&gt;Node19 -->
<g id="edge136" class="edge">
<title>Node51&#45;&gt;Node19</title>
<path fill="none" stroke="midnightblue" d="M1326.4,-302.49C1292.93,-295.68 1249.38,-284.21 1214,-266 1194.62,-256.03 1195.57,-244.59 1176,-235 1109.85,-202.59 971.17,-234.15 1020,-179 1063.78,-129.55 1256.71,-174.05 1315,-143 1337.69,-130.91 1355.7,-106.69 1366.11,-90.04"/>
<polygon fill="midnightblue" stroke="midnightblue" points="1369.23,-91.64 1371.34,-81.26 1363.22,-88.06 1369.23,-91.64"/>
</g>
<!-- Node51&#45;&gt;Node23 -->
<g id="edge140" class="edge">
<title>Node51&#45;&gt;Node23</title>
<path fill="none" stroke="midnightblue" d="M1310.96,-302.9C1307.59,-302.58 1304.26,-302.28 1301,-302 1005.62,-277 923.4,-334.55 635,-266 520.31,-238.74 486.99,-222.56 400,-143 382.18,-126.7 365.02,-104.83 354.06,-89.79"/>
<polygon fill="midnightblue" stroke="midnightblue" points="356.74,-87.52 348.08,-81.42 351.04,-91.59 356.74,-87.52"/>
</g>
<!-- Node51&#45;&gt;Node37 -->
<g id="edge138" class="edge">
<title>Node51&#45;&gt;Node37</title>
<path fill="none" stroke="midnightblue" d="M1447.39,-307.56C1574.47,-300.96 1855.59,-285.47 2092,-266 2227.79,-254.82 2261.22,-246.33 2397,-235 2631.24,-215.45 2910.86,-199.45 3028.93,-193.03"/>
<polygon fill="midnightblue" stroke="midnightblue" points="3029.38,-196.51 3039.17,-192.47 3029,-189.52 3029.38,-196.51"/>
</g>
<!-- Node51&#45;&gt;Node42 -->
<g id="edge125" class="edge">
<title>Node51&#45;&gt;Node42</title>
<path fill="none" stroke="midnightblue" d="M1310.95,-303.02C1307.59,-302.67 1304.26,-302.32 1301,-302 1105.67,-282.54 874.19,-264.54 763.81,-256.27"/>
<polygon fill="midnightblue" stroke="midnightblue" points="764.07,-252.78 753.83,-255.52 763.55,-259.76 764.07,-252.78"/>
</g>
<!-- Node51&#45;&gt;Node49 -->
<g id="edge137" class="edge">
<title>Node51&#45;&gt;Node49</title>
<path fill="none" stroke="midnightblue" d="M1310.96,-302.88C1307.6,-302.56 1304.26,-302.27 1301,-302 974.15,-275.19 890.76,-293.85 564,-266 537.38,-263.73 507.55,-260.09 484.41,-257.03"/>
<polygon fill="midnightblue" stroke="midnightblue" points="484.66,-253.53 474.28,-255.67 483.73,-260.47 484.66,-253.53"/>
</g>
<!-- Node52 -->
<g id="node52" class="node">
<title>Node52</title>
<g id="a_node52"><a xlink:href="config__schema_8h.html" target="_top" xlink:title="Minimal schema for dynamic config canonicalization and validation.">
<polygon fill="white" stroke="black" points="1740.5,-241 1740.5,-260 1871.5,-260 1871.5,-241 1740.5,-241"/>
<text text-anchor="middle" x="1806" y="-248" font-family="Helvetica,sans-Serif" font-size="10.00">tvm/ir/config_schema.h</text>
</a>
</g>
</g>
<!-- Node51&#45;&gt;Node52 -->
<g id="edge126" class="edge">
<title>Node51&#45;&gt;Node52</title>
<path fill="none" stroke="midnightblue" d="M1447.29,-303.17C1517.37,-294.9 1629.51,-280.99 1726,-266 1734.13,-264.74 1742.71,-263.3 1751.1,-261.83"/>
<polygon fill="midnightblue" stroke="midnightblue" points="1751.98,-265.22 1761.22,-260.03 1750.76,-258.33 1751.98,-265.22"/>
</g>
<!-- Node52&#45;&gt;Node5 -->
<g id="edge129" class="edge">
<title>Node52&#45;&gt;Node5</title>
<path fill="none" stroke="midnightblue" d="M1871.57,-244.04C1907.92,-241.12 1953.95,-237.6 1995,-235 2154.66,-224.88 2561.18,-246.33 2714,-199 2715.2,-198.63 2830.74,-127.5 2888.23,-92.08"/>
<polygon fill="midnightblue" stroke="midnightblue" points="2890.26,-94.94 2896.94,-86.71 2886.59,-88.98 2890.26,-94.94"/>
</g>
<!-- Node52&#45;&gt;Node14 -->
<g id="edge134" class="edge">
<title>Node52&#45;&gt;Node14</title>
<path fill="none" stroke="midnightblue" d="M1762.14,-240.95C1684.42,-226.12 1517.34,-195.6 1375,-179 1147.98,-152.52 1081.48,-206.78 862,-143 844.05,-137.78 841.96,-130.87 825,-123 792.69,-108.01 754.6,-93.47 728.22,-83.87"/>
<polygon fill="midnightblue" stroke="midnightblue" points="729.32,-80.54 718.72,-80.44 726.94,-87.13 729.32,-80.54"/>
</g>
<!-- Node52&#45;&gt;Node18 -->
<g id="edge128" class="edge">
<title>Node52&#45;&gt;Node18</title>
<path fill="none" stroke="midnightblue" d="M1835.61,-240.96C1936.42,-211.9 2266.26,-116.82 2380.58,-83.87"/>
<polygon fill="midnightblue" stroke="midnightblue" points="2381.68,-87.19 2390.32,-81.05 2379.75,-80.46 2381.68,-87.19"/>
</g>
<!-- Node52&#45;&gt;Node22 -->
<g id="edge131" class="edge">
<title>Node52&#45;&gt;Node22</title>
<path fill="none" stroke="midnightblue" d="M1816.38,-240.89C1833.01,-227.23 1866.81,-200 1897,-179 1935.67,-152.09 1943.82,-141.85 1987,-123 2038.46,-100.54 2102.4,-85.76 2140.05,-78.28"/>
<polygon fill="midnightblue" stroke="midnightblue" points="2140.79,-81.7 2149.94,-76.37 2139.46,-74.83 2140.79,-81.7"/>
</g>
<!-- Node52&#45;&gt;Node23 -->
<g id="edge135" class="edge">
<title>Node52&#45;&gt;Node23</title>
<path fill="none" stroke="midnightblue" d="M1740.16,-244.96C1655.2,-238.38 1503.08,-224.14 1375,-199 1342.41,-192.6 1335.72,-184.71 1303,-179 1091.38,-142.07 1034.51,-166.66 821,-143 653.44,-124.44 454.42,-91.69 376.08,-78.37"/>
<polygon fill="midnightblue" stroke="midnightblue" points="376.29,-74.86 365.85,-76.63 375.11,-81.76 376.29,-74.86"/>
</g>
<!-- Node52&#45;&gt;Node28 -->
<g id="edge132" class="edge">
<title>Node52&#45;&gt;Node28</title>
<path fill="none" stroke="midnightblue" d="M1799.82,-240.71C1793.41,-231.02 1783.81,-214.72 1780,-199 1771.96,-165.83 1803.15,-154.89 1791,-123 1785.77,-109.28 1774.92,-96.92 1765.19,-87.86"/>
<polygon fill="midnightblue" stroke="midnightblue" points="1767.25,-85.02 1757.42,-81.07 1762.64,-90.29 1767.25,-85.02"/>
</g>
<!-- Node52&#45;&gt;Node33 -->
<g id="edge127" class="edge">
<title>Node52&#45;&gt;Node33</title>
<path fill="none" stroke="midnightblue" d="M1740.39,-244.01C1608.33,-232.96 1311.14,-208.09 1170.94,-196.35"/>
<polygon fill="midnightblue" stroke="midnightblue" points="1170.97,-192.85 1160.71,-195.5 1170.39,-199.82 1170.97,-192.85"/>
</g>
<!-- Node52&#45;&gt;Node37 -->
<g id="edge133" class="edge">
<title>Node52&#45;&gt;Node37</title>
<path fill="none" stroke="midnightblue" d="M1871.56,-243.9C1907.91,-240.94 1953.94,-237.42 1995,-235 2390.58,-211.67 2867.56,-196.44 3029.26,-191.63"/>
<polygon fill="midnightblue" stroke="midnightblue" points="3029.56,-195.13 3039.45,-191.33 3029.35,-188.13 3029.56,-195.13"/>
</g>
<!-- Node53 -->
<g id="node53" class="node">
<title>Node53</title>
<g id="a_node53"><a xlink:title=" ">
<polygon fill="white" stroke="#bfbfbf" points="1789,-179.5 1789,-198.5 1845,-198.5 1845,-179.5 1789,-179.5"/>
<text text-anchor="middle" x="1817" y="-186.5" font-family="Helvetica,sans-Serif" font-size="10.00">sstream</text>
</a>
</g>
</g>
<!-- Node52&#45;&gt;Node53 -->
<g id="edge130" class="edge">
<title>Node52&#45;&gt;Node53</title>
<path fill="none" stroke="midnightblue" d="M1807.58,-240.98C1809.13,-232.58 1811.55,-219.48 1813.55,-208.66"/>
<polygon fill="midnightblue" stroke="midnightblue" points="1817.05,-208.98 1815.43,-198.51 1810.17,-207.71 1817.05,-208.98"/>
</g>
<!-- Node55&#45;&gt;Node14 -->
<g id="edge159" class="edge">
<title>Node55&#45;&gt;Node14</title>
<path fill="none" stroke="midnightblue" d="M1940.74,-590.89C1770.9,-588.75 1287.47,-570.19 916,-434 723.49,-363.42 615.12,-380.11 519,-199 484.69,-134.35 603.75,-95.09 663.64,-79.83"/>
<polygon fill="midnightblue" stroke="midnightblue" points="664.53,-83.21 673.4,-77.42 662.86,-76.42 664.53,-83.21"/>
</g>
<!-- Node55&#45;&gt;Node22 -->
<g id="edge158" class="edge">
<title>Node55&#45;&gt;Node22</title>
<path fill="none" stroke="midnightblue" d="M2059.96,-582.5C2147.31,-568.13 2307.67,-536.05 2340,-490 2361.48,-459.4 2574.56,-693.4 2291,-179 2268.27,-137.77 2223.34,-104.38 2195.66,-86.57"/>
<polygon fill="midnightblue" stroke="midnightblue" points="2197.32,-83.48 2186.99,-81.14 2193.6,-89.41 2197.32,-83.48"/>
</g>
<!-- Node55&#45;&gt;Node43 -->
<g id="edge151" class="edge">
<title>Node55&#45;&gt;Node43</title>
<path fill="none" stroke="midnightblue" d="M2022.97,-582.44C2043.61,-573.6 2076.06,-559.69 2099.63,-549.59"/>
<polygon fill="midnightblue" stroke="midnightblue" points="2101.32,-552.67 2109.13,-545.52 2098.56,-546.24 2101.32,-552.67"/>
</g>
<!-- Node56 -->
<g id="node56" class="node">
<title>Node56</title>
<g id="a_node56"><a xlink:title=" ">
<polygon fill="white" stroke="#bfbfbf" points="1919,-526.5 1919,-545.5 2063,-545.5 2063,-526.5 1919,-526.5"/>
<text text-anchor="middle" x="1991" y="-533.5" font-family="Helvetica,sans-Serif" font-size="10.00">tvm/ffi/container/variant.h</text>
</a>
</g>
</g>
<!-- Node55&#45;&gt;Node56 -->
<g id="edge150" class="edge">
<title>Node55&#45;&gt;Node56</title>
<path fill="none" stroke="midnightblue" d="M2001.02,-582.08C1999.43,-574.93 1997.14,-564.64 1995.15,-555.69"/>
<polygon fill="midnightblue" stroke="midnightblue" points="1998.53,-554.75 1992.94,-545.75 1991.7,-556.27 1998.53,-554.75"/>
</g>
<!-- Node55&#45;&gt;Node57 -->
<g id="edge152" class="edge">
<title>Node55&#45;&gt;Node57</title>
<path fill="none" stroke="midnightblue" d="M1940.77,-586.08C1787.28,-573.12 1403,-535.24 1403,-481 1403,-481 1403,-481 1403,-423 1403,-369.44 1340.29,-339.3 1295.43,-324.59"/>
<polygon fill="midnightblue" stroke="midnightblue" points="1296.46,-321.25 1285.87,-321.6 1294.37,-327.93 1296.46,-321.25"/>
</g>
<!-- Node57&#45;&gt;Node3 -->
<g id="edge154" class="edge">
<title>Node57&#45;&gt;Node3</title>
<path fill="none" stroke="midnightblue" d="M1292.69,-303.25C1295.84,-302.79 1298.96,-302.36 1302,-302 1557.58,-271.59 1623.34,-285.34 1880,-266 1918.32,-263.11 1961.63,-259.26 1994.11,-256.25"/>
<polygon fill="midnightblue" stroke="midnightblue" points="1994.62,-259.72 2004.26,-255.31 1993.97,-252.75 1994.62,-259.72"/>
</g>
<!-- Node57&#45;&gt;Node15 -->
<g id="edge153" class="edge">
<title>Node57&#45;&gt;Node15</title>
<path fill="none" stroke="midnightblue" d="M1261.99,-302.37C1271.45,-294.17 1284.44,-280.92 1290,-266 1294.82,-253.09 1294.38,-248.06 1290,-235 1286.4,-224.25 1279.1,-214.02 1272.18,-206.04"/>
<polygon fill="midnightblue" stroke="midnightblue" points="1274.65,-203.56 1265.29,-198.61 1269.52,-208.32 1274.65,-203.56"/>
</g>
<!-- Node57&#45;&gt;Node22 -->
<g id="edge157" class="edge">
<title>Node57&#45;&gt;Node22</title>
<path fill="none" stroke="midnightblue" d="M1292.72,-303.43C1295.85,-302.92 1298.97,-302.44 1302,-302 1441.01,-281.78 1481.84,-307.64 1616,-266 1694.8,-241.54 1704.25,-211.7 1780,-179 1815.55,-163.66 1907.71,-133.44 1945,-123 2013.74,-103.75 2095.82,-87 2140.02,-78.48"/>
<polygon fill="midnightblue" stroke="midnightblue" points="2140.73,-81.91 2149.89,-76.59 2139.41,-75.03 2140.73,-81.91"/>
</g>
<!-- Node57&#45;&gt;Node25 -->
<g id="edge155" class="edge">
<title>Node57&#45;&gt;Node25</title>
<path fill="none" stroke="midnightblue" d="M1220.85,-302.49C1144.72,-280.29 953.15,-219.49 987,-179 998.05,-165.78 1088.82,-151.93 1157.83,-143.14"/>
<polygon fill="midnightblue" stroke="midnightblue" points="1158.35,-146.6 1167.84,-141.88 1157.48,-139.66 1158.35,-146.6"/>
</g>
<!-- Node57&#45;&gt;Node30 -->
<g id="edge156" class="edge">
<title>Node57&#45;&gt;Node30</title>
<path fill="none" stroke="midnightblue" d="M1209.28,-306.96C1164.58,-301.6 1092.21,-289.86 1034,-266 1010.5,-256.37 1008.72,-246.35 986,-235 959.02,-221.52 926.98,-209.85 902.5,-201.78"/>
<polygon fill="midnightblue" stroke="midnightblue" points="903.44,-198.4 892.85,-198.65 901.28,-205.06 903.44,-198.4"/>
</g>
</g>
</svg>
