<?xml version="1.0" encoding="UTF-8" standalone="no"?>
<!DOCTYPE svg PUBLIC "-//W3C//DTD SVG 1.1//EN"
 "http://www.w3.org/Graphics/SVG/1.1/DTD/svg11.dtd">
<!-- Generated by graphviz version 2.43.0 (0)
 -->
<!-- Title: include/tvm/arith/analyzer.h Pages: 1 -->
<svg width="3884pt" height="834pt"
 viewBox="0.00 0.00 3884.13 834.00" xmlns="http://www.w3.org/2000/svg" xmlns:xlink="http://www.w3.org/1999/xlink">
<g id="graph0" class="graph" transform="scale(1 1) rotate(0) translate(4 830)">
<title>include/tvm/arith/analyzer.h</title>
<polygon fill="white" stroke="transparent" points="-4,4 -4,-830 3880.13,-830 3880.13,4 -4,4"/>
<!-- Node1 -->
<g id="node1" class="node">
<title>Node1</title>
<g id="a_node1"><a xlink:title="Algebra expression simplifications.">
<polygon fill="#bfbfbf" stroke="black" points="387.61,-806.5 387.61,-825.5 540.61,-825.5 540.61,-806.5 387.61,-806.5"/>
<text text-anchor="middle" x="464.11" y="-813.5" font-family="Helvetica,sans-Serif" font-size="10.00">include/tvm/arith/analyzer.h</text>
</a>
</g>
</g>
<!-- Node2 -->
<g id="node2" class="node">
<title>Node2</title>
<g id="a_node2"><a xlink:href="int__set_8h.html" target="_top" xlink:title="Integer set.">
<polygon fill="white" stroke="black" points="1135.61,-750.5 1135.61,-769.5 1242.61,-769.5 1242.61,-750.5 1135.61,-750.5"/>
<text text-anchor="middle" x="1189.11" y="-757.5" font-family="Helvetica,sans-Serif" font-size="10.00">tvm/arith/int_set.h</text>
</a>
</g>
</g>
<!-- Node1&#45;&gt;Node2 -->
<g id="edge1" class="edge">
<title>Node1&#45;&gt;Node2</title>
<path fill="none" stroke="midnightblue" d="M540.67,-809.3C684.34,-798.6 991.88,-775.69 1125.24,-765.76"/>
<polygon fill="midnightblue" stroke="midnightblue" points="1125.59,-769.24 1135.3,-765.01 1125.07,-762.26 1125.59,-769.24"/>
</g>
<!-- Node3 -->
<g id="node3" class="node">
<title>Node3</title>
<g id="a_node3"><a xlink:href="ir_2expr_8h.html" target="_top" xlink:title="Base expr nodes in TVM.">
<polygon fill="white" stroke="black" points="2745.61,-185 2745.61,-204 2824.61,-204 2824.61,-185 2745.61,-185"/>
<text text-anchor="middle" x="2785.11" y="-192" font-family="Helvetica,sans-Serif" font-size="10.00">tvm/ir/expr.h</text>
</a>
</g>
</g>
<!-- Node1&#45;&gt;Node3 -->
<g id="edge166" class="edge">
<title>Node1&#45;&gt;Node3</title>
<path fill="none" stroke="midnightblue" d="M540.82,-814.3C1014.49,-809.74 3521.11,-781.94 3521.11,-705 3521.11,-705 3521.11,-705 3521.11,-423 3521.11,-279.04 3000.66,-216.32 2835.07,-200.01"/>
<polygon fill="midnightblue" stroke="midnightblue" points="2834.97,-196.49 2824.68,-199 2834.3,-203.45 2834.97,-196.49"/>
</g>
<!-- Node5 -->
<g id="node5" class="node">
<title>Node5</title>
<g id="a_node5"><a xlink:title=" ">
<polygon fill="white" stroke="#bfbfbf" points="1415.11,-56.5 1415.11,-86.5 1513.11,-86.5 1513.11,-56.5 1415.11,-56.5"/>
<text text-anchor="start" x="1423.11" y="-74.5" font-family="Helvetica,sans-Serif" font-size="10.00">tvm/ffi/reflection</text>
<text text-anchor="middle" x="1464.11" y="-63.5" font-family="Helvetica,sans-Serif" font-size="10.00">/registry.h</text>
</a>
</g>
</g>
<!-- Node1&#45;&gt;Node5 -->
<g id="edge164" class="edge">
<title>Node1&#45;&gt;Node5</title>
<path fill="none" stroke="midnightblue" d="M471.11,-806.19C492.91,-779.07 562.23,-695.25 631.11,-638 901.11,-413.56 1010.95,-416.22 1295.11,-210 1348.73,-171.09 1408.09,-121.05 1440.24,-93.33"/>
<polygon fill="midnightblue" stroke="midnightblue" points="1442.53,-95.98 1447.8,-86.79 1437.95,-90.68 1442.53,-95.98"/>
</g>
<!-- Node6 -->
<g id="node6" class="node">
<title>Node6</title>
<g id="a_node6"><a xlink:title=" ">
<polygon fill="white" stroke="#bfbfbf" points="3277.61,-123.5 3277.61,-142.5 3366.61,-142.5 3366.61,-123.5 3277.61,-123.5"/>
<text text-anchor="middle" x="3322.11" y="-130.5" font-family="Helvetica,sans-Serif" font-size="10.00">tvm/ffi/string.h</text>
</a>
</g>
</g>
<!-- Node1&#45;&gt;Node6 -->
<g id="edge165" class="edge">
<title>Node1&#45;&gt;Node6</title>
<path fill="none" stroke="midnightblue" d="M540.66,-814.5C963.86,-811.61 3008.25,-796.4 3288.11,-770 3444.32,-755.26 3635.11,-861.9 3635.11,-705 3635.11,-705 3635.11,-705 3635.11,-367 3635.11,-235.53 3455.24,-169.49 3368.21,-145.23"/>
<polygon fill="midnightblue" stroke="midnightblue" points="3368.89,-141.79 3358.32,-142.54 3367.05,-148.54 3368.89,-141.79"/>
</g>
<!-- Node9 -->
<g id="node9" class="node">
<title>Node9</title>
<g id="a_node9"><a xlink:title=" ">
<polygon fill="white" stroke="#bfbfbf" points="704.61,-62 704.61,-81 749.61,-81 749.61,-62 704.61,-62"/>
<text text-anchor="middle" x="727.11" y="-69" font-family="Helvetica,sans-Serif" font-size="10.00">utility</text>
</a>
</g>
</g>
<!-- Node1&#45;&gt;Node9 -->
<g id="edge171" class="edge">
<title>Node1&#45;&gt;Node9</title>
<path fill="none" stroke="midnightblue" d="M387.46,-810.86C264.81,-802.12 38.11,-776.32 38.11,-705 38.11,-705 38.11,-705 38.11,-193.5 38.11,-126.03 557.33,-84.52 694.31,-74.74"/>
<polygon fill="midnightblue" stroke="midnightblue" points="694.85,-78.21 704.58,-74.01 694.36,-71.23 694.85,-78.21"/>
</g>
<!-- Node17 -->
<g id="node17" class="node">
<title>Node17</title>
<g id="a_node17"><a xlink:title=" ">
<polygon fill="white" stroke="#bfbfbf" points="439.61,-62 439.61,-81 486.61,-81 486.61,-62 439.61,-62"/>
<text text-anchor="middle" x="463.11" y="-69" font-family="Helvetica,sans-Serif" font-size="10.00">vector</text>
</a>
</g>
</g>
<!-- Node1&#45;&gt;Node17 -->
<g id="edge172" class="edge">
<title>Node1&#45;&gt;Node17</title>
<path fill="none" stroke="midnightblue" d="M387.35,-811.53C268.87,-805.53 52.14,-791.73 24.11,-770 -0.23,-751.13 0.11,-735.8 0.11,-705 0.11,-705 0.11,-705 0.11,-193.5 0.11,-160.4 -1.66,-143.78 24.11,-123 86.3,-72.86 337.82,-70.88 429.48,-71.88"/>
<polygon fill="midnightblue" stroke="midnightblue" points="429.55,-75.38 439.6,-72.01 429.64,-68.38 429.55,-75.38"/>
</g>
<!-- Node26 -->
<g id="node26" class="node">
<title>Node26</title>
<g id="a_node26"><a xlink:title=" ">
<polygon fill="white" stroke="#bfbfbf" points="3803.11,-123.5 3803.11,-142.5 3847.11,-142.5 3847.11,-123.5 3803.11,-123.5"/>
<text text-anchor="middle" x="3825.11" y="-130.5" font-family="Helvetica,sans-Serif" font-size="10.00">limits</text>
</a>
</g>
</g>
<!-- Node1&#45;&gt;Node26 -->
<g id="edge168" class="edge">
<title>Node1&#45;&gt;Node26</title>
<path fill="none" stroke="midnightblue" d="M540.92,-814.62C981,-812.34 3173.09,-799.56 3472.11,-770 3630.86,-754.31 3825.11,-864.53 3825.11,-705 3825.11,-705 3825.11,-705 3825.11,-255 3825.11,-218.71 3825.11,-176.31 3825.11,-152.56"/>
<polygon fill="midnightblue" stroke="midnightblue" points="3828.61,-152.51 3825.11,-142.51 3821.61,-152.51 3828.61,-152.51"/>
</g>
<!-- Node32 -->
<g id="node32" class="node">
<title>Node32</title>
<g id="a_node32"><a xlink:title=" ">
<polygon fill="white" stroke="#bfbfbf" points="586.61,-123.5 586.61,-142.5 679.61,-142.5 679.61,-123.5 586.61,-123.5"/>
<text text-anchor="middle" x="633.11" y="-130.5" font-family="Helvetica,sans-Serif" font-size="10.00">unordered_map</text>
</a>
</g>
</g>
<!-- Node1&#45;&gt;Node32 -->
<g id="edge170" class="edge">
<title>Node1&#45;&gt;Node32</title>
<path fill="none" stroke="midnightblue" d="M387.3,-806.49C284.27,-792.9 114.11,-761.85 114.11,-705 114.11,-705 114.11,-705 114.11,-255 114.11,-160.88 441.9,-139.94 576.48,-135.31"/>
<polygon fill="midnightblue" stroke="midnightblue" points="576.72,-138.8 586.6,-134.98 576.49,-131.8 576.72,-138.8"/>
</g>
<!-- Node42 -->
<g id="node42" class="node">
<title>Node42</title>
<g id="a_node42"><a xlink:href="with__context_8h.html" target="_top" xlink:title="RAII wrapper function to enter and exit a context object similar to python&#39;s with syntax.">
<polygon fill="white" stroke="black" points="370.61,-246.5 370.61,-265.5 491.61,-265.5 491.61,-246.5 370.61,-246.5"/>
<text text-anchor="middle" x="431.11" y="-253.5" font-family="Helvetica,sans-Serif" font-size="10.00">tvm/ir/with_context.h</text>
</a>
</g>
</g>
<!-- Node1&#45;&gt;Node42 -->
<g id="edge167" class="edge">
<title>Node1&#45;&gt;Node42</title>
<path fill="none" stroke="midnightblue" d="M434.2,-806.43C414.73,-799.46 390.08,-787.83 374.11,-770 353.56,-747.06 350.11,-735.8 350.11,-705 350.11,-705 350.11,-705 350.11,-367 350.11,-326.45 386.25,-290.99 410.25,-271.91"/>
<polygon fill="midnightblue" stroke="midnightblue" points="412.63,-274.5 418.45,-265.65 408.38,-268.94 412.63,-274.5"/>
</g>
<!-- Node44 -->
<g id="node44" class="node">
<title>Node44</title>
<g id="a_node44"><a xlink:title=" ">
<polygon fill="white" stroke="#bfbfbf" points="454.11,-185 454.11,-204 512.11,-204 512.11,-185 454.11,-185"/>
<text text-anchor="middle" x="483.11" y="-192" font-family="Helvetica,sans-Serif" font-size="10.00">memory</text>
</a>
</g>
</g>
<!-- Node1&#45;&gt;Node44 -->
<g id="edge169" class="edge">
<title>Node1&#45;&gt;Node44</title>
<path fill="none" stroke="midnightblue" d="M452.57,-806.43C431.31,-789.57 388.11,-749.8 388.11,-705 388.11,-705 388.11,-705 388.11,-647 388.11,-565.86 464.11,-562.14 464.11,-481 464.11,-481 464.11,-481 464.11,-367 464.11,-319.34 491.99,-312.96 500.11,-266 503.22,-248.01 497.35,-227.77 491.68,-213.61"/>
<polygon fill="midnightblue" stroke="midnightblue" points="494.74,-211.87 487.53,-204.11 488.32,-214.67 494.74,-211.87"/>
</g>
<!-- Node52 -->
<g id="node52" class="node">
<title>Node52</title>
<g id="a_node52"><a xlink:title=" ">
<polygon fill="white" stroke="#bfbfbf" points="3335.61,-185 3335.61,-204 3416.61,-204 3416.61,-185 3335.61,-185"/>
<text text-anchor="middle" x="3376.11" y="-192" font-family="Helvetica,sans-Serif" font-size="10.00">tvm/ffi/cast.h</text>
</a>
</g>
</g>
<!-- Node1&#45;&gt;Node52 -->
<g id="edge163" class="edge">
<title>Node1&#45;&gt;Node52</title>
<path fill="none" stroke="midnightblue" d="M540.79,-814.48C907.59,-811.86 2485.57,-799.06 2977.11,-770 3115.4,-761.82 3597.11,-843.53 3597.11,-705 3597.11,-705 3597.11,-705 3597.11,-367 3597.11,-277.34 3482.17,-227.8 3418.07,-207.15"/>
<polygon fill="midnightblue" stroke="midnightblue" points="3418.83,-203.72 3408.25,-204.08 3416.75,-210.4 3418.83,-203.72"/>
</g>
<!-- Node2&#45;&gt;Node3 -->
<g id="edge2" class="edge">
<title>Node2&#45;&gt;Node3</title>
<path fill="none" stroke="midnightblue" d="M1242.72,-759.31C1587.89,-761 3483.11,-764.97 3483.11,-649 3483.11,-649 3483.11,-649 3483.11,-423 3483.11,-354.72 2994.01,-241.34 2834.65,-206.21"/>
<polygon fill="midnightblue" stroke="midnightblue" points="2835.16,-202.74 2824.64,-204.01 2833.65,-209.57 2835.16,-202.74"/>
</g>
<!-- Node27 -->
<g id="node27" class="node">
<title>Node27</title>
<g id="a_node27"><a xlink:href="tirx_2expr_8h.html" target="_top" xlink:title="TIR expressions.">
<polygon fill="white" stroke="black" points="1729.61,-694.5 1729.61,-713.5 1818.61,-713.5 1818.61,-694.5 1729.61,-694.5"/>
<text text-anchor="middle" x="1774.11" y="-701.5" font-family="Helvetica,sans-Serif" font-size="10.00">tvm/tirx/expr.h</text>
</a>
</g>
</g>
<!-- Node2&#45;&gt;Node27 -->
<g id="edge32" class="edge">
<title>Node2&#45;&gt;Node27</title>
<path fill="none" stroke="midnightblue" d="M1242.84,-754.04C1353.91,-743.79 1607.74,-720.36 1719.53,-710.04"/>
<polygon fill="midnightblue" stroke="midnightblue" points="1719.94,-713.51 1729.58,-709.11 1719.3,-706.54 1719.94,-713.51"/>
</g>
<!-- Node2&#45;&gt;Node32 -->
<g id="edge162" class="edge">
<title>Node2&#45;&gt;Node32</title>
<path fill="none" stroke="midnightblue" d="M1135.59,-756.82C991.06,-750.07 596.47,-725.76 488.11,-658 299.52,-540.07 198.39,-347.91 343.11,-179 372.52,-144.68 500.43,-136.32 576.21,-134.42"/>
<polygon fill="midnightblue" stroke="midnightblue" points="576.62,-137.91 586.54,-134.19 576.46,-130.91 576.62,-137.91"/>
</g>
<!-- Node4 -->
<g id="node4" class="node">
<title>Node4</title>
<g id="a_node4"><a xlink:title=" ">
<polygon fill="white" stroke="#bfbfbf" points="2971.11,-123.5 2971.11,-142.5 3107.11,-142.5 3107.11,-123.5 2971.11,-123.5"/>
<text text-anchor="middle" x="3039.11" y="-130.5" font-family="Helvetica,sans-Serif" font-size="10.00">tvm/ffi/extra/dataclass.h</text>
</a>
</g>
</g>
<!-- Node3&#45;&gt;Node4 -->
<g id="edge3" class="edge">
<title>Node3&#45;&gt;Node4</title>
<path fill="none" stroke="midnightblue" d="M2821.5,-184.98C2866.68,-174.39 2943.76,-156.34 2993.02,-144.8"/>
<polygon fill="midnightblue" stroke="midnightblue" points="2993.85,-148.2 3002.79,-142.51 2992.25,-141.38 2993.85,-148.2"/>
</g>
<!-- Node3&#45;&gt;Node5 -->
<g id="edge4" class="edge">
<title>Node3&#45;&gt;Node5</title>
<path fill="none" stroke="midnightblue" d="M2747.37,-184.92C2704.39,-175.08 2632.08,-158.32 2570.11,-143 2535.79,-134.51 2528.06,-128.34 2493.11,-123 2397.47,-108.39 1728.47,-82.4 1523.6,-74.71"/>
<polygon fill="midnightblue" stroke="midnightblue" points="1523.46,-71.2 1513.34,-74.32 1523.2,-78.19 1523.46,-71.2"/>
</g>
<!-- Node3&#45;&gt;Node6 -->
<g id="edge5" class="edge">
<title>Node3&#45;&gt;Node6</title>
<path fill="none" stroke="midnightblue" d="M2825.03,-189.08C2919.93,-178.56 3159.12,-152.06 3267.38,-140.06"/>
<polygon fill="midnightblue" stroke="midnightblue" points="3267.88,-143.53 3277.44,-138.95 3267.11,-136.57 3267.88,-143.53"/>
</g>
<!-- Node7 -->
<g id="node7" class="node">
<title>Node7</title>
<g id="a_node7"><a xlink:href="cow_8h.html" target="_top" xlink:title="Copy&#45;on&#45;write helper macro for IR ffi::ObjectRef types.">
<polygon fill="white" stroke="black" points="2407.61,-123.5 2407.61,-142.5 2484.61,-142.5 2484.61,-123.5 2407.61,-123.5"/>
<text text-anchor="middle" x="2446.11" y="-130.5" font-family="Helvetica,sans-Serif" font-size="10.00">tvm/ir/cow.h</text>
</a>
</g>
</g>
<!-- Node3&#45;&gt;Node7 -->
<g id="edge6" class="edge">
<title>Node3&#45;&gt;Node7</title>
<path fill="none" stroke="midnightblue" d="M2745.56,-186.56C2683.18,-175.61 2562.11,-154.36 2494.59,-142.51"/>
<polygon fill="midnightblue" stroke="midnightblue" points="2495.08,-139.04 2484.63,-140.76 2493.87,-145.94 2495.08,-139.04"/>
</g>
<!-- Node10 -->
<g id="node10" class="node">
<title>Node10</title>
<g id="a_node10"><a xlink:href="source__map_8h.html" target="_top" xlink:title="A map from source names to source code.">
<polygon fill="white" stroke="black" points="1866.61,-123.5 1866.61,-142.5 1983.61,-142.5 1983.61,-123.5 1866.61,-123.5"/>
<text text-anchor="middle" x="1925.11" y="-130.5" font-family="Helvetica,sans-Serif" font-size="10.00">tvm/ir/source_map.h</text>
</a>
</g>
</g>
<!-- Node3&#45;&gt;Node10 -->
<g id="edge9" class="edge">
<title>Node3&#45;&gt;Node10</title>
<path fill="none" stroke="midnightblue" d="M2745.36,-190.75C2609.96,-181.38 2165.68,-150.64 1993.83,-138.75"/>
<polygon fill="midnightblue" stroke="midnightblue" points="1993.86,-135.25 1983.64,-138.05 1993.38,-142.23 1993.86,-135.25"/>
</g>
<!-- Node16 -->
<g id="node16" class="node">
<title>Node16</title>
<g id="a_node16"><a xlink:title=" ">
<polygon fill="white" stroke="#bfbfbf" points="3170.11,-62 3170.11,-81 3214.11,-81 3214.11,-62 3170.11,-62"/>
<text text-anchor="middle" x="3192.11" y="-69" font-family="Helvetica,sans-Serif" font-size="10.00">string</text>
</a>
</g>
</g>
<!-- Node3&#45;&gt;Node16 -->
<g id="edge30" class="edge">
<title>Node3&#45;&gt;Node16</title>
<path fill="none" stroke="midnightblue" d="M2824.72,-190.39C2901,-183.91 3065.26,-167.54 3116.11,-143 3142.09,-130.46 3165.34,-105.98 3179.08,-89.43"/>
<polygon fill="midnightblue" stroke="midnightblue" points="3182.18,-91.17 3185.7,-81.18 3176.71,-86.79 3182.18,-91.17"/>
</g>
<!-- Node18 -->
<g id="node18" class="node">
<title>Node18</title>
<g id="a_node18"><a xlink:href="data__type_8h.html" target="_top" xlink:title=" ">
<polygon fill="white" stroke="black" points="2579.11,-123.5 2579.11,-142.5 2717.11,-142.5 2717.11,-123.5 2579.11,-123.5"/>
<text text-anchor="middle" x="2648.11" y="-130.5" font-family="Helvetica,sans-Serif" font-size="10.00">tvm/runtime/data_type.h</text>
</a>
</g>
</g>
<!-- Node3&#45;&gt;Node18 -->
<g id="edge19" class="edge">
<title>Node3&#45;&gt;Node18</title>
<path fill="none" stroke="midnightblue" d="M2765.48,-184.98C2742.29,-174.9 2703.49,-158.05 2676.9,-146.5"/>
<polygon fill="midnightblue" stroke="midnightblue" points="2678.27,-143.28 2667.7,-142.51 2675.48,-149.7 2678.27,-143.28"/>
</g>
<!-- Node23 -->
<g id="node23" class="node">
<title>Node23</title>
<g id="a_node23"><a xlink:title=" ">
<polygon fill="white" stroke="#bfbfbf" points="2397.61,-62 2397.61,-81 2466.61,-81 2466.61,-62 2397.61,-62"/>
<text text-anchor="middle" x="2432.11" y="-69" font-family="Helvetica,sans-Serif" font-size="10.00">type_traits</text>
</a>
</g>
</g>
<!-- Node3&#45;&gt;Node23 -->
<g id="edge31" class="edge">
<title>Node3&#45;&gt;Node23</title>
<path fill="none" stroke="midnightblue" d="M2780.61,-184.87C2772.16,-169.63 2752.4,-138.12 2726.11,-123 2715.38,-116.83 2556.73,-91.71 2477.06,-79.39"/>
<polygon fill="midnightblue" stroke="midnightblue" points="2477.25,-75.88 2466.83,-77.81 2476.18,-82.79 2477.25,-75.88"/>
</g>
<!-- Node24 -->
<g id="node24" class="node">
<title>Node24</title>
<g id="a_node24"><a xlink:title=" ">
<polygon fill="white" stroke="#bfbfbf" points="1606.11,-123.5 1606.11,-142.5 1670.11,-142.5 1670.11,-123.5 1606.11,-123.5"/>
<text text-anchor="middle" x="1638.11" y="-130.5" font-family="Helvetica,sans-Serif" font-size="10.00">algorithm</text>
</a>
</g>
</g>
<!-- Node3&#45;&gt;Node24 -->
<g id="edge27" class="edge">
<title>Node3&#45;&gt;Node24</title>
<path fill="none" stroke="midnightblue" d="M2745.6,-192.6C2576.41,-188.61 1911.59,-171.49 1680.27,-142.88"/>
<polygon fill="midnightblue" stroke="midnightblue" points="1680.61,-139.4 1670.25,-141.6 1679.72,-146.34 1680.61,-139.4"/>
</g>
<!-- Node25 -->
<g id="node25" class="node">
<title>Node25</title>
<g id="a_node25"><a xlink:title=" ">
<polygon fill="white" stroke="#bfbfbf" points="2887.61,-123.5 2887.61,-142.5 2952.61,-142.5 2952.61,-123.5 2887.61,-123.5"/>
<text text-anchor="middle" x="2920.11" y="-130.5" font-family="Helvetica,sans-Serif" font-size="10.00">functional</text>
</a>
</g>
</g>
<!-- Node3&#45;&gt;Node25 -->
<g id="edge28" class="edge">
<title>Node3&#45;&gt;Node25</title>
<path fill="none" stroke="midnightblue" d="M2804.45,-184.98C2827.21,-174.95 2865.2,-158.2 2891.4,-146.65"/>
<polygon fill="midnightblue" stroke="midnightblue" points="2893.06,-149.74 2900.8,-142.51 2890.24,-143.34 2893.06,-149.74"/>
</g>
<!-- Node3&#45;&gt;Node26 -->
<g id="edge29" class="edge">
<title>Node3&#45;&gt;Node26</title>
<path fill="none" stroke="midnightblue" d="M2824.93,-191.22C2992.65,-181.63 3640.07,-144.59 3792.73,-135.85"/>
<polygon fill="midnightblue" stroke="midnightblue" points="3793.07,-139.34 3802.85,-135.27 3792.67,-132.35 3793.07,-139.34"/>
</g>
<!-- Node8 -->
<g id="node8" class="node">
<title>Node8</title>
<g id="a_node8"><a xlink:title=" ">
<polygon fill="white" stroke="#bfbfbf" points="2973.61,-62 2973.61,-81 3064.61,-81 3064.61,-62 2973.61,-62"/>
<text text-anchor="middle" x="3019.11" y="-69" font-family="Helvetica,sans-Serif" font-size="10.00">tvm/ffi/object.h</text>
</a>
</g>
</g>
<!-- Node7&#45;&gt;Node8 -->
<g id="edge7" class="edge">
<title>Node7&#45;&gt;Node8</title>
<path fill="none" stroke="midnightblue" d="M2485.04,-127.96C2584.44,-117.64 2847.84,-90.28 2963.42,-78.28"/>
<polygon fill="midnightblue" stroke="midnightblue" points="2963.89,-81.75 2973.47,-77.24 2963.16,-74.79 2963.89,-81.75"/>
</g>
<!-- Node7&#45;&gt;Node9 -->
<g id="edge8" class="edge">
<title>Node7&#45;&gt;Node9</title>
<path fill="none" stroke="midnightblue" d="M2407.56,-128.81C2382.87,-126.87 2350.12,-124.49 2321.11,-123 1795.78,-96.11 1663.85,-104.27 1138.11,-87 997.56,-82.38 829.99,-76.29 760.18,-73.72"/>
<polygon fill="midnightblue" stroke="midnightblue" points="759.95,-70.21 749.83,-73.34 759.7,-77.21 759.95,-70.21"/>
</g>
<!-- Node10&#45;&gt;Node5 -->
<g id="edge12" class="edge">
<title>Node10&#45;&gt;Node5</title>
<path fill="none" stroke="midnightblue" d="M1866.26,-124.4C1777.88,-113 1611.84,-91.57 1523.28,-80.14"/>
<polygon fill="midnightblue" stroke="midnightblue" points="1523.5,-76.64 1513.14,-78.83 1522.61,-83.58 1523.5,-76.64"/>
</g>
<!-- Node10&#45;&gt;Node9 -->
<g id="edge17" class="edge">
<title>Node10&#45;&gt;Node9</title>
<path fill="none" stroke="midnightblue" d="M1866.55,-126.67C1850.83,-125.35 1833.83,-124.02 1818.11,-123 1400.81,-95.8 892.77,-77.99 760.07,-73.57"/>
<polygon fill="midnightblue" stroke="midnightblue" points="759.89,-70.06 749.78,-73.23 759.66,-77.06 759.89,-70.06"/>
</g>
<!-- Node11 -->
<g id="node11" class="node">
<title>Node11</title>
<g id="a_node11"><a xlink:title=" ">
<polygon fill="white" stroke="#bfbfbf" points="3594.11,-62 3594.11,-81 3728.11,-81 3728.11,-62 3594.11,-62"/>
<text text-anchor="middle" x="3661.11" y="-69" font-family="Helvetica,sans-Serif" font-size="10.00">tvm/ffi/container/array.h</text>
</a>
</g>
</g>
<!-- Node10&#45;&gt;Node11 -->
<g id="edge10" class="edge">
<title>Node10&#45;&gt;Node11</title>
<path fill="none" stroke="midnightblue" d="M1983.7,-128.85C2019.37,-126.99 2065.86,-124.69 2107.11,-123 2602.95,-102.74 2727.12,-103.21 3223.11,-87 3349.47,-82.87 3496.33,-77.99 3583.84,-75.08"/>
<polygon fill="midnightblue" stroke="midnightblue" points="3584.08,-78.57 3593.95,-74.74 3583.84,-71.58 3584.08,-78.57"/>
</g>
<!-- Node12 -->
<g id="node12" class="node">
<title>Node12</title>
<g id="a_node12"><a xlink:title=" ">
<polygon fill="white" stroke="#bfbfbf" points="1147.61,-62 1147.61,-81 1248.61,-81 1248.61,-62 1147.61,-62"/>
<text text-anchor="middle" x="1198.11" y="-69" font-family="Helvetica,sans-Serif" font-size="10.00">tvm/ffi/function.h</text>
</a>
</g>
</g>
<!-- Node10&#45;&gt;Node12 -->
<g id="edge11" class="edge">
<title>Node10&#45;&gt;Node12</title>
<path fill="none" stroke="midnightblue" d="M1866.52,-127.04C1850.8,-125.72 1833.81,-124.3 1818.11,-123 1613.03,-106.02 1369.74,-86.34 1258.75,-77.39"/>
<polygon fill="midnightblue" stroke="midnightblue" points="1258.99,-73.89 1248.75,-76.58 1258.43,-80.87 1258.99,-73.89"/>
</g>
<!-- Node13 -->
<g id="node13" class="node">
<title>Node13</title>
<g id="a_node13"><a xlink:href="runtime_2base_8h.html" target="_top" xlink:title=" ">
<polygon fill="white" stroke="black" points="1955.61,-62 1955.61,-81 2068.61,-81 2068.61,-62 1955.61,-62"/>
<text text-anchor="middle" x="2012.11" y="-69" font-family="Helvetica,sans-Serif" font-size="10.00">tvm/runtime/base.h</text>
</a>
</g>
</g>
<!-- Node10&#45;&gt;Node13 -->
<g id="edge13" class="edge">
<title>Node10&#45;&gt;Node13</title>
<path fill="none" stroke="midnightblue" d="M1937.58,-123.48C1951.53,-113.93 1974.38,-98.31 1991.1,-86.87"/>
<polygon fill="midnightblue" stroke="midnightblue" points="1993.39,-89.54 1999.67,-81.01 1989.44,-83.77 1993.39,-89.54"/>
</g>
<!-- Node15 -->
<g id="node15" class="node">
<title>Node15</title>
<g id="a_node15"><a xlink:title=" ">
<polygon fill="white" stroke="#bfbfbf" points="1882.61,-62 1882.61,-81 1937.61,-81 1937.61,-62 1882.61,-62"/>
<text text-anchor="middle" x="1910.11" y="-69" font-family="Helvetica,sans-Serif" font-size="10.00">fstream</text>
</a>
</g>
</g>
<!-- Node10&#45;&gt;Node15 -->
<g id="edge15" class="edge">
<title>Node10&#45;&gt;Node15</title>
<path fill="none" stroke="midnightblue" d="M1922.96,-123.48C1920.82,-114.99 1917.47,-101.7 1914.73,-90.82"/>
<polygon fill="midnightblue" stroke="midnightblue" points="1918.09,-89.85 1912.26,-81.01 1911.31,-91.56 1918.09,-89.85"/>
</g>
<!-- Node10&#45;&gt;Node16 -->
<g id="edge16" class="edge">
<title>Node10&#45;&gt;Node16</title>
<path fill="none" stroke="midnightblue" d="M1983.71,-128.92C2019.38,-127.09 2065.86,-124.79 2107.11,-123 2536.34,-104.39 2644.83,-121.01 3073.11,-87 3102.57,-84.66 3135.96,-80.46 3159.85,-77.17"/>
<polygon fill="midnightblue" stroke="midnightblue" points="3160.38,-80.64 3169.8,-75.79 3159.41,-73.7 3160.38,-80.64"/>
</g>
<!-- Node10&#45;&gt;Node17 -->
<g id="edge18" class="edge">
<title>Node10&#45;&gt;Node17</title>
<path fill="none" stroke="midnightblue" d="M1866.56,-126.52C1850.84,-125.2 1833.84,-123.91 1818.11,-123 1319.58,-94.06 1193.92,-110.58 695.11,-87 624.58,-83.67 542.08,-78.12 496.92,-74.94"/>
<polygon fill="midnightblue" stroke="midnightblue" points="497.03,-71.44 486.81,-74.22 496.54,-78.42 497.03,-71.44"/>
</g>
<!-- Node14 -->
<g id="node14" class="node">
<title>Node14</title>
<g id="a_node14"><a xlink:title=" ">
<polygon fill="white" stroke="#bfbfbf" points="1969.11,-0.5 1969.11,-19.5 2055.11,-19.5 2055.11,-0.5 1969.11,-0.5"/>
<text text-anchor="middle" x="2012.11" y="-7.5" font-family="Helvetica,sans-Serif" font-size="10.00">tvm/ffi/c_api.h</text>
</a>
</g>
</g>
<!-- Node13&#45;&gt;Node14 -->
<g id="edge14" class="edge">
<title>Node13&#45;&gt;Node14</title>
<path fill="none" stroke="midnightblue" d="M2012.11,-61.98C2012.11,-53.58 2012.11,-40.48 2012.11,-29.66"/>
<polygon fill="midnightblue" stroke="midnightblue" points="2015.61,-29.51 2012.11,-19.51 2008.61,-29.51 2015.61,-29.51"/>
</g>
<!-- Node18&#45;&gt;Node13 -->
<g id="edge23" class="edge">
<title>Node18&#45;&gt;Node13</title>
<path fill="none" stroke="midnightblue" d="M2578.88,-126.81C2432.21,-115.76 2101.54,-90.67 2077.11,-87 2070.27,-85.97 2063.08,-84.63 2056.08,-83.19"/>
<polygon fill="midnightblue" stroke="midnightblue" points="2056.53,-79.7 2046.01,-81.01 2055.05,-86.54 2056.53,-79.7"/>
</g>
<!-- Node18&#45;&gt;Node16 -->
<g id="edge25" class="edge">
<title>Node18&#45;&gt;Node16</title>
<path fill="none" stroke="midnightblue" d="M2717.4,-124.47C2722.04,-123.97 2726.64,-123.48 2731.11,-123 2883.09,-106.76 2921.25,-104.24 3073.11,-87 3102.47,-83.67 3135.87,-79.57 3159.8,-76.58"/>
<polygon fill="midnightblue" stroke="midnightblue" points="3160.26,-80.05 3169.75,-75.34 3159.39,-73.11 3160.26,-80.05"/>
</g>
<!-- Node19 -->
<g id="node19" class="node">
<title>Node19</title>
<g id="a_node19"><a xlink:title=" ">
<polygon fill="white" stroke="#bfbfbf" points="2644.61,-62 2644.61,-81 2783.61,-81 2783.61,-62 2644.61,-62"/>
<text text-anchor="middle" x="2714.11" y="-69" font-family="Helvetica,sans-Serif" font-size="10.00">tvm/ffi/container/shape.h</text>
</a>
</g>
</g>
<!-- Node18&#45;&gt;Node19 -->
<g id="edge20" class="edge">
<title>Node18&#45;&gt;Node19</title>
<path fill="none" stroke="midnightblue" d="M2657.57,-123.48C2667.86,-114.2 2684.53,-99.17 2697.1,-87.83"/>
<polygon fill="midnightblue" stroke="midnightblue" points="2699.59,-90.3 2704.67,-81.01 2694.9,-85.11 2699.59,-90.3"/>
</g>
<!-- Node20 -->
<g id="node20" class="node">
<title>Node20</title>
<g id="a_node20"><a xlink:title=" ">
<polygon fill="white" stroke="#bfbfbf" points="2537.61,-62 2537.61,-81 2626.61,-81 2626.61,-62 2537.61,-62"/>
<text text-anchor="middle" x="2582.11" y="-69" font-family="Helvetica,sans-Serif" font-size="10.00">tvm/ffi/dtype.h</text>
</a>
</g>
</g>
<!-- Node18&#45;&gt;Node20 -->
<g id="edge21" class="edge">
<title>Node18&#45;&gt;Node20</title>
<path fill="none" stroke="midnightblue" d="M2638.65,-123.48C2628.36,-114.2 2611.69,-99.17 2599.12,-87.83"/>
<polygon fill="midnightblue" stroke="midnightblue" points="2601.32,-85.11 2591.55,-81.01 2596.63,-90.3 2601.32,-85.11"/>
</g>
<!-- Node21 -->
<g id="node21" class="node">
<title>Node21</title>
<g id="a_node21"><a xlink:title=" ">
<polygon fill="white" stroke="#bfbfbf" points="2086.61,-62 2086.61,-81 2169.61,-81 2169.61,-62 2086.61,-62"/>
<text text-anchor="middle" x="2128.11" y="-69" font-family="Helvetica,sans-Serif" font-size="10.00">tvm/ffi/error.h</text>
</a>
</g>
</g>
<!-- Node18&#45;&gt;Node21 -->
<g id="edge22" class="edge">
<title>Node18&#45;&gt;Node21</title>
<path fill="none" stroke="midnightblue" d="M2579.06,-124.1C2473.48,-112.02 2274.26,-89.22 2180.02,-78.44"/>
<polygon fill="midnightblue" stroke="midnightblue" points="2180.21,-74.94 2169.88,-77.28 2179.42,-81.89 2180.21,-74.94"/>
</g>
<!-- Node22 -->
<g id="node22" class="node">
<title>Node22</title>
<g id="a_node22"><a xlink:title=" ">
<polygon fill="white" stroke="#bfbfbf" points="2285.11,-62 2285.11,-81 2335.11,-81 2335.11,-62 2285.11,-62"/>
<text text-anchor="middle" x="2310.11" y="-69" font-family="Helvetica,sans-Serif" font-size="10.00">cstring</text>
</a>
</g>
</g>
<!-- Node18&#45;&gt;Node22 -->
<g id="edge24" class="edge">
<title>Node18&#45;&gt;Node22</title>
<path fill="none" stroke="midnightblue" d="M2597.75,-123.47C2545.35,-114.56 2460.93,-100.07 2388.11,-87 2374.2,-84.5 2358.92,-81.68 2345.59,-79.19"/>
<polygon fill="midnightblue" stroke="midnightblue" points="2345.86,-75.68 2335.39,-77.28 2344.57,-82.56 2345.86,-75.68"/>
</g>
<!-- Node18&#45;&gt;Node23 -->
<g id="edge26" class="edge">
<title>Node18&#45;&gt;Node23</title>
<path fill="none" stroke="midnightblue" d="M2617.16,-123.48C2579.23,-113.03 2514.83,-95.29 2472.89,-83.73"/>
<polygon fill="midnightblue" stroke="midnightblue" points="2473.57,-80.29 2463,-81.01 2471.71,-87.04 2473.57,-80.29"/>
</g>
<!-- Node27&#45;&gt;Node3 -->
<g id="edge49" class="edge">
<title>Node27&#45;&gt;Node3</title>
<path fill="none" stroke="midnightblue" d="M1815.23,-694.5C2009.18,-653.83 2823.11,-476.75 2823.11,-369 2823.11,-369 2823.11,-369 2823.11,-311 2823.11,-274.75 2806.02,-235.17 2794.76,-213.03"/>
<polygon fill="midnightblue" stroke="midnightblue" points="2797.84,-211.37 2790.08,-204.16 2791.65,-214.64 2797.84,-211.37"/>
</g>
<!-- Node27&#45;&gt;Node6 -->
<g id="edge35" class="edge">
<title>Node27&#45;&gt;Node6</title>
<path fill="none" stroke="midnightblue" d="M1818.76,-702.94C2046.32,-702.48 3071.44,-698.15 3207.11,-658 3306.73,-628.52 3407.11,-640.89 3407.11,-537 3407.11,-537 3407.11,-537 3407.11,-423 3407.11,-314.26 3484.65,-269.99 3425.11,-179 3414.05,-162.11 3395.11,-151.52 3376.46,-144.9"/>
<polygon fill="midnightblue" stroke="midnightblue" points="3377.37,-141.51 3366.78,-141.78 3375.23,-148.18 3377.37,-141.51"/>
</g>
<!-- Node27&#45;&gt;Node7 -->
<g id="edge48" class="edge">
<title>Node27&#45;&gt;Node7</title>
<path fill="none" stroke="midnightblue" d="M1765.94,-694.38C1750.18,-676.81 1717.11,-634.94 1717.11,-593 1717.11,-593 1717.11,-593 1717.11,-535 1717.11,-441.67 1755.05,-413.47 1830.11,-358 1929.14,-284.81 2256.57,-270 2364.11,-210 2391.68,-194.62 2417.32,-168.1 2432.35,-150.81"/>
<polygon fill="midnightblue" stroke="midnightblue" points="2435.41,-152.61 2439.2,-142.72 2430.07,-148.09 2435.41,-152.61"/>
</g>
<!-- Node27&#45;&gt;Node9 -->
<g id="edge161" class="edge">
<title>Node27&#45;&gt;Node9</title>
<path fill="none" stroke="midnightblue" d="M1729.28,-702.71C1530.82,-701.24 736.48,-693.17 631.11,-658 589.6,-644.14 583.65,-630.12 550.11,-602 379.22,-458.69 213.93,-391.99 280.11,-179 288.75,-151.19 289.65,-138.8 314.11,-123 345.89,-102.48 602.14,-81.73 694.27,-74.87"/>
<polygon fill="midnightblue" stroke="midnightblue" points="694.7,-78.34 704.42,-74.12 694.19,-71.36 694.7,-78.34"/>
</g>
<!-- Node27&#45;&gt;Node11 -->
<g id="edge33" class="edge">
<title>Node27&#45;&gt;Node11</title>
<path fill="none" stroke="midnightblue" d="M1818.96,-703.07C2123.45,-703.26 3875.11,-699.72 3875.11,-593 3875.11,-593 3875.11,-593 3875.11,-193.5 3875.11,-161.05 3879.17,-145.83 3856.11,-123 3838.15,-105.22 3778.31,-91.42 3729.6,-82.77"/>
<polygon fill="midnightblue" stroke="midnightblue" points="3730.16,-79.31 3719.71,-81.06 3728.97,-86.21 3730.16,-79.31"/>
</g>
<!-- Node27&#45;&gt;Node13 -->
<g id="edge56" class="edge">
<title>Node27&#45;&gt;Node13</title>
<path fill="none" stroke="midnightblue" d="M1747.2,-694.41C1708.33,-680.13 1641.11,-647.54 1641.11,-593 1641.11,-593 1641.11,-593 1641.11,-535 1641.11,-367.18 1793.81,-390.71 1906.11,-266 1950.75,-216.43 1963.5,-203.26 1992.11,-143 2000.11,-126.15 2005.51,-105.47 2008.66,-90.88"/>
<polygon fill="midnightblue" stroke="midnightblue" points="2012.09,-91.57 2010.64,-81.07 2005.23,-90.19 2012.09,-91.57"/>
</g>
<!-- Node27&#45;&gt;Node16 -->
<g id="edge159" class="edge">
<title>Node27&#45;&gt;Node16</title>
<path fill="none" stroke="midnightblue" d="M1818.91,-702.57C2051.98,-700.23 3120.64,-687.91 3265.11,-658 3331.14,-644.33 3353.02,-643.57 3406.11,-602 3562.59,-479.48 3666.97,-340.48 3551.11,-179 3527.07,-145.49 3514.91,-139.5 3477.11,-123 3390.98,-85.4 3278.58,-75.79 3224.27,-73.33"/>
<polygon fill="midnightblue" stroke="midnightblue" points="3224.34,-69.83 3214.2,-72.93 3224.06,-76.83 3224.34,-69.83"/>
</g>
<!-- Node27&#45;&gt;Node18 -->
<g id="edge57" class="edge">
<title>Node27&#45;&gt;Node18</title>
<path fill="none" stroke="midnightblue" d="M1782.28,-694.38C1798.04,-676.81 1831.11,-634.94 1831.11,-593 1831.11,-593 1831.11,-593 1831.11,-479 1831.11,-393.31 2448.9,-195.77 2610.04,-145.7"/>
<polygon fill="midnightblue" stroke="midnightblue" points="2611.47,-148.92 2619.99,-142.62 2609.4,-142.24 2611.47,-148.92"/>
</g>
<!-- Node27&#45;&gt;Node24 -->
<g id="edge156" class="edge">
<title>Node27&#45;&gt;Node24</title>
<path fill="none" stroke="midnightblue" d="M1729.28,-700.25C1686.02,-696.01 1619.82,-685.26 1569.11,-658 1532.57,-638.36 1502.11,-634.49 1502.11,-593 1502.11,-593 1502.11,-593 1502.11,-367 1502.11,-273.81 1584.25,-184.74 1620.86,-149.67"/>
<polygon fill="midnightblue" stroke="midnightblue" points="1623.43,-152.06 1628.33,-142.66 1618.64,-146.95 1623.43,-152.06"/>
</g>
<!-- Node27&#45;&gt;Node26 -->
<g id="edge158" class="edge">
<title>Node27&#45;&gt;Node26</title>
<path fill="none" stroke="midnightblue" d="M1818.73,-703.11C2066.09,-703.55 3263.47,-703.33 3421.11,-658 3592.18,-608.81 3673.94,-593.42 3753.11,-434 3804.81,-329.9 3780.93,-291.24 3811.11,-179 3813.5,-170.1 3816.5,-160.32 3819.11,-152.16"/>
<polygon fill="midnightblue" stroke="midnightblue" points="3822.46,-153.16 3822.23,-142.57 3815.8,-151 3822.46,-153.16"/>
</g>
<!-- Node28 -->
<g id="node28" class="node">
<title>Node28</title>
<g id="a_node28"><a xlink:title=" ">
<polygon fill="white" stroke="#bfbfbf" points="812.61,-123.5 812.61,-142.5 943.61,-142.5 943.61,-123.5 812.61,-123.5"/>
<text text-anchor="middle" x="878.11" y="-130.5" font-family="Helvetica,sans-Serif" font-size="10.00">tvm/ffi/container/map.h</text>
</a>
</g>
</g>
<!-- Node27&#45;&gt;Node28 -->
<g id="edge34" class="edge">
<title>Node27&#45;&gt;Node28</title>
<path fill="none" stroke="midnightblue" d="M1729.41,-701.28C1512.29,-692.63 578.11,-651.97 578.11,-593 578.11,-593 578.11,-593 578.11,-255 578.11,-220.18 571.45,-202.54 597.11,-179 626.36,-152.17 729.61,-141.29 802.43,-136.91"/>
<polygon fill="midnightblue" stroke="midnightblue" points="802.71,-140.4 812.49,-136.33 802.31,-133.41 802.71,-140.4"/>
</g>
<!-- Node29 -->
<g id="node29" class="node">
<title>Node29</title>
<g id="a_node29"><a xlink:href="attrs_8h.html" target="_top" xlink:title="Helpers for attribute objects.">
<polygon fill="white" stroke="black" points="1668.11,-246.5 1668.11,-265.5 1748.11,-265.5 1748.11,-246.5 1668.11,-246.5"/>
<text text-anchor="middle" x="1708.11" y="-253.5" font-family="Helvetica,sans-Serif" font-size="10.00">tvm/ir/attrs.h</text>
</a>
</g>
</g>
<!-- Node27&#45;&gt;Node29 -->
<g id="edge36" class="edge">
<title>Node27&#45;&gt;Node29</title>
<path fill="none" stroke="midnightblue" d="M1729.5,-703.49C1688.27,-701.57 1627.73,-692.41 1589.11,-658 1566.12,-637.51 1565.11,-623.8 1565.11,-593 1565.11,-593 1565.11,-593 1565.11,-479 1565.11,-388.64 1649.87,-305.83 1688.88,-272.5"/>
<polygon fill="midnightblue" stroke="midnightblue" points="1691.46,-274.91 1696.89,-265.81 1686.97,-269.53 1691.46,-274.91"/>
</g>
<!-- Node27&#45;&gt;Node32 -->
<g id="edge160" class="edge">
<title>Node27&#45;&gt;Node32</title>
<path fill="none" stroke="midnightblue" d="M1729.59,-702.34C1561.15,-699.61 962.95,-688 775.11,-658 683.54,-643.38 645.92,-660.69 574.11,-602 501.47,-542.63 528.78,-492.96 478.11,-414 432.82,-343.43 388.64,-345.2 361.11,-266 348.42,-229.48 336.1,-208.49 361.11,-179 388.15,-147.12 504.9,-137.8 576.37,-135.09"/>
<polygon fill="midnightblue" stroke="midnightblue" points="576.7,-138.58 586.57,-134.73 576.45,-131.58 576.7,-138.58"/>
</g>
<!-- Node33 -->
<g id="node33" class="node">
<title>Node33</title>
<g id="a_node33"><a xlink:href="node__functor_8h.html" target="_top" xlink:title="Defines the Functor data structures.">
<polygon fill="white" stroke="black" points="1688.61,-123.5 1688.61,-142.5 1809.61,-142.5 1809.61,-123.5 1688.61,-123.5"/>
<text text-anchor="middle" x="1749.11" y="-130.5" font-family="Helvetica,sans-Serif" font-size="10.00">tvm/ir/node_functor.h</text>
</a>
</g>
</g>
<!-- Node27&#45;&gt;Node33 -->
<g id="edge50" class="edge">
<title>Node27&#45;&gt;Node33</title>
<path fill="none" stroke="midnightblue" d="M1729.35,-699.71C1697.17,-695.11 1654.75,-684.12 1627.11,-658 1604.73,-636.85 1603.11,-623.8 1603.11,-593 1603.11,-593 1603.11,-593 1603.11,-479 1603.11,-405.42 1660.69,-406.4 1716.11,-358 1801.84,-283.13 1872.82,-311.1 1925.11,-210 1931.44,-197.76 1933.56,-189.88 1925.11,-179 1917.51,-169.21 1852.9,-154.48 1804.15,-144.57"/>
<polygon fill="midnightblue" stroke="midnightblue" points="1804.82,-141.13 1794.32,-142.59 1803.44,-147.99 1804.82,-141.13"/>
</g>
<!-- Node34 -->
<g id="node34" class="node">
<title>Node34</title>
<g id="a_node34"><a xlink:href="buffer_8h.html" target="_top" xlink:title="Symbolic n&#45;dimensional array, to represent a memory buffer.">
<polygon fill="white" stroke="black" points="3103.61,-638.5 3103.61,-657.5 3198.61,-657.5 3198.61,-638.5 3103.61,-638.5"/>
<text text-anchor="middle" x="3151.11" y="-645.5" font-family="Helvetica,sans-Serif" font-size="10.00">tvm/tirx/buffer.h</text>
</a>
</g>
</g>
<!-- Node27&#45;&gt;Node34 -->
<g id="edge58" class="edge">
<title>Node27&#45;&gt;Node34</title>
<path fill="none" stroke="midnightblue" d="M1818.75,-701.25C2022.56,-693.26 2864.54,-660.24 3093.45,-651.26"/>
<polygon fill="midnightblue" stroke="midnightblue" points="3093.71,-654.75 3103.56,-650.86 3093.43,-647.76 3093.71,-654.75"/>
</g>
<!-- Node56 -->
<g id="node56" class="node">
<title>Node56</title>
<g id="a_node56"><a xlink:href="var_8h.html" target="_top" xlink:title="Variables in the TIR.">
<polygon fill="white" stroke="black" points="2895.61,-246.5 2895.61,-265.5 2978.61,-265.5 2978.61,-246.5 2895.61,-246.5"/>
<text text-anchor="middle" x="2937.11" y="-253.5" font-family="Helvetica,sans-Serif" font-size="10.00">tvm/tirx/var.h</text>
</a>
</g>
</g>
<!-- Node27&#45;&gt;Node56 -->
<g id="edge155" class="edge">
<title>Node27&#45;&gt;Node56</title>
<path fill="none" stroke="midnightblue" d="M1818.87,-701.06C1931.07,-695.92 2222.04,-680.76 2316.11,-658 2347.78,-650.34 2834.75,-456.71 2858.11,-434 2904.69,-388.7 2925.95,-311.03 2933.58,-275.6"/>
<polygon fill="midnightblue" stroke="midnightblue" points="2937.04,-276.17 2935.6,-265.68 2930.18,-274.78 2937.04,-276.17"/>
</g>
<!-- Node57 -->
<g id="node57" class="node">
<title>Node57</title>
<g id="a_node57"><a xlink:title=" ">
<polygon fill="white" stroke="#bfbfbf" points="1859.11,-638.5 1859.11,-657.5 1919.11,-657.5 1919.11,-638.5 1859.11,-638.5"/>
<text text-anchor="middle" x="1889.11" y="-645.5" font-family="Helvetica,sans-Serif" font-size="10.00">iostream</text>
</a>
</g>
</g>
<!-- Node27&#45;&gt;Node57 -->
<g id="edge157" class="edge">
<title>Node27&#45;&gt;Node57</title>
<path fill="none" stroke="midnightblue" d="M1792.33,-694.44C1811.01,-685.68 1840.27,-671.94 1861.73,-661.86"/>
<polygon fill="midnightblue" stroke="midnightblue" points="1863.41,-664.93 1870.97,-657.52 1860.43,-658.6 1863.41,-664.93"/>
</g>
<!-- Node29&#45;&gt;Node3 -->
<g id="edge43" class="edge">
<title>Node29&#45;&gt;Node3</title>
<path fill="none" stroke="midnightblue" d="M1748.57,-254.75C1883.14,-253.6 2327.79,-247.02 2693.11,-210 2706.83,-208.61 2721.61,-206.54 2735.23,-204.39"/>
<polygon fill="midnightblue" stroke="midnightblue" points="2736.07,-207.8 2745.38,-202.75 2734.95,-200.89 2736.07,-207.8"/>
</g>
<!-- Node29&#45;&gt;Node5 -->
<g id="edge41" class="edge">
<title>Node29&#45;&gt;Node5</title>
<path fill="none" stroke="midnightblue" d="M1692.94,-246.4C1677.92,-237.71 1654.45,-223.65 1635.11,-210 1580.6,-171.51 1520.63,-121.32 1488.19,-93.46"/>
<polygon fill="midnightblue" stroke="midnightblue" points="1490.42,-90.76 1480.56,-86.88 1485.85,-96.06 1490.42,-90.76"/>
</g>
<!-- Node29&#45;&gt;Node7 -->
<g id="edge42" class="edge">
<title>Node29&#45;&gt;Node7</title>
<path fill="none" stroke="midnightblue" d="M1748.19,-254.45C1866.42,-252.47 2212.12,-243.85 2319.11,-210 2361.25,-196.67 2404.1,-166.94 2427.68,-148.87"/>
<polygon fill="midnightblue" stroke="midnightblue" points="2430.01,-151.49 2435.73,-142.57 2425.7,-145.97 2430.01,-151.49"/>
</g>
<!-- Node29&#45;&gt;Node9 -->
<g id="edge47" class="edge">
<title>Node29&#45;&gt;Node9</title>
<path fill="none" stroke="midnightblue" d="M1667.99,-254.83C1550.52,-253.89 1209.04,-247.89 1105.11,-210 1082.98,-201.93 1082.22,-191.27 1062.11,-179 1015.28,-150.43 1003.72,-141.6 952.11,-123 885.69,-99.07 804,-84.14 759.6,-77.17"/>
<polygon fill="midnightblue" stroke="midnightblue" points="760.09,-73.71 749.67,-75.65 759.02,-80.62 760.09,-73.71"/>
</g>
<!-- Node29&#45;&gt;Node12 -->
<g id="edge40" class="edge">
<title>Node29&#45;&gt;Node12</title>
<path fill="none" stroke="midnightblue" d="M1684.2,-246.44C1601.46,-216.84 1327.21,-118.7 1231.45,-84.43"/>
<polygon fill="midnightblue" stroke="midnightblue" points="1232.57,-81.11 1221.97,-81.04 1230.21,-87.7 1232.57,-81.11"/>
</g>
<!-- Node29&#45;&gt;Node16 -->
<g id="edge44" class="edge">
<title>Node29&#45;&gt;Node16</title>
<path fill="none" stroke="midnightblue" d="M1748.22,-254.65C1893.74,-252.62 2406.86,-238.65 2816.11,-143 2844.3,-136.41 2849.96,-129.76 2878.11,-123 2979.49,-98.65 3102.15,-82.74 3159.54,-76.08"/>
<polygon fill="midnightblue" stroke="midnightblue" points="3160.26,-79.52 3169.8,-74.9 3159.47,-72.56 3160.26,-79.52"/>
</g>
<!-- Node29&#45;&gt;Node23 -->
<g id="edge45" class="edge">
<title>Node29&#45;&gt;Node23</title>
<path fill="none" stroke="midnightblue" d="M1748.36,-255.28C1862.92,-255.56 2188.68,-252.48 2285.11,-210 2287.13,-209.11 2377.26,-124.23 2415.37,-88.29"/>
<polygon fill="midnightblue" stroke="midnightblue" points="2418.19,-90.44 2423.07,-81.03 2413.39,-85.35 2418.19,-90.44"/>
</g>
<!-- Node29&#45;&gt;Node28 -->
<g id="edge37" class="edge">
<title>Node29&#45;&gt;Node28</title>
<path fill="none" stroke="midnightblue" d="M1668.07,-254.76C1546.53,-253.63 1183.41,-247.14 1072.11,-210 1048.02,-201.96 1047.13,-189.73 1024.11,-179 992.5,-164.26 954.84,-152.79 925.69,-145.12"/>
<polygon fill="midnightblue" stroke="midnightblue" points="926.31,-141.67 915.76,-142.57 924.57,-148.45 926.31,-141.67"/>
</g>
<!-- Node30 -->
<g id="node30" class="node">
<title>Node30</title>
<g id="a_node30"><a xlink:title=" ">
<polygon fill="white" stroke="#bfbfbf" points="1644.61,-179.5 1644.61,-209.5 1771.61,-209.5 1771.61,-179.5 1644.61,-179.5"/>
<text text-anchor="start" x="1652.61" y="-197.5" font-family="Helvetica,sans-Serif" font-size="10.00">tvm/ffi/extra/structural</text>
<text text-anchor="middle" x="1708.11" y="-186.5" font-family="Helvetica,sans-Serif" font-size="10.00">_equal.h</text>
</a>
</g>
</g>
<!-- Node29&#45;&gt;Node30 -->
<g id="edge38" class="edge">
<title>Node29&#45;&gt;Node30</title>
<path fill="none" stroke="midnightblue" d="M1708.11,-246.48C1708.11,-239.47 1708.11,-229.19 1708.11,-219.7"/>
<polygon fill="midnightblue" stroke="midnightblue" points="1711.61,-219.52 1708.11,-209.52 1704.61,-219.52 1711.61,-219.52"/>
</g>
<!-- Node31 -->
<g id="node31" class="node">
<title>Node31</title>
<g id="a_node31"><a xlink:title=" ">
<polygon fill="white" stroke="#bfbfbf" points="1789.61,-179.5 1789.61,-209.5 1916.61,-209.5 1916.61,-179.5 1789.61,-179.5"/>
<text text-anchor="start" x="1797.61" y="-197.5" font-family="Helvetica,sans-Serif" font-size="10.00">tvm/ffi/extra/structural</text>
<text text-anchor="middle" x="1853.11" y="-186.5" font-family="Helvetica,sans-Serif" font-size="10.00">_hash.h</text>
</a>
</g>
</g>
<!-- Node29&#45;&gt;Node31 -->
<g id="edge39" class="edge">
<title>Node29&#45;&gt;Node31</title>
<path fill="none" stroke="midnightblue" d="M1728.89,-246.48C1749.81,-237.89 1782.72,-224.38 1809.42,-213.43"/>
<polygon fill="midnightblue" stroke="midnightblue" points="1811.01,-216.56 1818.94,-209.52 1808.36,-210.08 1811.01,-216.56"/>
</g>
<!-- Node29&#45;&gt;Node32 -->
<g id="edge46" class="edge">
<title>Node29&#45;&gt;Node32</title>
<path fill="none" stroke="midnightblue" d="M1667.85,-254.13C1561.98,-251.44 1267.23,-241.5 1024.11,-210 958.65,-201.52 773.41,-163.43 683.42,-144.6"/>
<polygon fill="midnightblue" stroke="midnightblue" points="683.95,-141.14 673.45,-142.51 682.52,-147.99 683.95,-141.14"/>
</g>
<!-- Node33&#45;&gt;Node9 -->
<g id="edge54" class="edge">
<title>Node33&#45;&gt;Node9</title>
<path fill="none" stroke="midnightblue" d="M1688.43,-123.92C1685.28,-123.59 1682.16,-123.28 1679.11,-123 1319.5,-90.39 881.42,-76.69 759.78,-73.35"/>
<polygon fill="midnightblue" stroke="midnightblue" points="759.73,-69.84 749.64,-73.07 759.55,-76.84 759.73,-69.84"/>
</g>
<!-- Node33&#45;&gt;Node17 -->
<g id="edge55" class="edge">
<title>Node33&#45;&gt;Node17</title>
<path fill="none" stroke="midnightblue" d="M1688.44,-123.86C1685.29,-123.54 1682.16,-123.25 1679.11,-123 1242.96,-87.06 1132.2,-108.65 695.11,-87 624.58,-83.51 542.09,-78.01 496.93,-74.89"/>
<polygon fill="midnightblue" stroke="midnightblue" points="497.03,-71.39 486.81,-74.18 496.54,-78.37 497.03,-71.39"/>
</g>
<!-- Node33&#45;&gt;Node21 -->
<g id="edge51" class="edge">
<title>Node33&#45;&gt;Node21</title>
<path fill="none" stroke="midnightblue" d="M1809.7,-126.27C1875.86,-119.41 1984.71,-106.37 2077.11,-87 2081.59,-86.06 2086.25,-84.94 2090.86,-83.74"/>
<polygon fill="midnightblue" stroke="midnightblue" points="2092.03,-87.05 2100.76,-81.04 2090.19,-80.3 2092.03,-87.05"/>
</g>
<!-- Node33&#45;&gt;Node22 -->
<g id="edge52" class="edge">
<title>Node33&#45;&gt;Node22</title>
<path fill="none" stroke="midnightblue" d="M1809.86,-125.72C1893,-117.11 2046.87,-101.09 2178.11,-87 2210.89,-83.48 2248.24,-79.37 2274.83,-76.42"/>
<polygon fill="midnightblue" stroke="midnightblue" points="2275.26,-79.9 2284.81,-75.32 2274.48,-72.94 2275.26,-79.9"/>
</g>
<!-- Node33&#45;&gt;Node23 -->
<g id="edge53" class="edge">
<title>Node33&#45;&gt;Node23</title>
<path fill="none" stroke="midnightblue" d="M1809.65,-126.85C1825.12,-125.57 1841.73,-124.21 1857.11,-123 2073.48,-105.99 2128.6,-112.67 2344.11,-87 2358.2,-85.32 2373.48,-82.99 2387.29,-80.68"/>
<polygon fill="midnightblue" stroke="midnightblue" points="2388.25,-84.07 2397.52,-78.93 2387.08,-77.17 2388.25,-84.07"/>
</g>
<!-- Node34&#45;&gt;Node3 -->
<g id="edge62" class="edge">
<title>Node34&#45;&gt;Node3</title>
<path fill="none" stroke="midnightblue" d="M3103.49,-643.09C3035.54,-635.27 2909.94,-612.3 2828.11,-546 2799.36,-522.71 2778.45,-503.53 2794.11,-470 2804.66,-447.42 2822.76,-454.38 2837.11,-434 2854.85,-408.82 2861.11,-399.8 2861.11,-369 2861.11,-369 2861.11,-369 2861.11,-311 2861.11,-280.2 2853.91,-271.81 2837.11,-246 2828.25,-232.38 2815.1,-219.66 2804.24,-210.39"/>
<polygon fill="midnightblue" stroke="midnightblue" points="2806.44,-207.66 2796.5,-204.01 2802,-213.07 2806.44,-207.66"/>
</g>
<!-- Node34&#45;&gt;Node5 -->
<g id="edge60" class="edge">
<title>Node34&#45;&gt;Node5</title>
<path fill="none" stroke="midnightblue" d="M3103.43,-645.39C2931.29,-638.29 2327.73,-602.1 1866.11,-434 1691.87,-370.55 1628.35,-356.07 1514.11,-210 1487.47,-175.94 1474.15,-126.37 1468.21,-96.98"/>
<polygon fill="midnightblue" stroke="midnightblue" points="1471.58,-95.96 1466.29,-86.78 1464.71,-97.26 1471.58,-95.96"/>
</g>
<!-- Node34&#45;&gt;Node6 -->
<g id="edge61" class="edge">
<title>Node34&#45;&gt;Node6</title>
<path fill="none" stroke="midnightblue" d="M3182.04,-638.46C3202.24,-631.52 3227.95,-619.89 3245.11,-602 3263.86,-582.46 3261.98,-572.12 3269.11,-546 3309.52,-397.94 3319.37,-211.33 3321.54,-152.58"/>
<polygon fill="midnightblue" stroke="midnightblue" points="3325.04,-152.7 3321.88,-142.58 3318.05,-152.46 3325.04,-152.7"/>
</g>
<!-- Node34&#45;&gt;Node11 -->
<g id="edge59" class="edge">
<title>Node34&#45;&gt;Node11</title>
<path fill="none" stroke="midnightblue" d="M3194.81,-638.46C3224,-631.51 3262.52,-619.88 3293.11,-602 3329.63,-580.65 3339.1,-607.65 3592.11,-322 3632.16,-276.78 3647.43,-266.38 3669.11,-210 3679.94,-181.83 3677.66,-173.08 3680.11,-143 3680.83,-134.14 3681.7,-131.75 3680.11,-123 3678.07,-111.76 3673.66,-99.78 3669.61,-90.3"/>
<polygon fill="midnightblue" stroke="midnightblue" points="3672.78,-88.83 3665.47,-81.16 3666.4,-91.72 3672.78,-88.83"/>
</g>
<!-- Node34&#45;&gt;Node16 -->
<g id="edge154" class="edge">
<title>Node34&#45;&gt;Node16</title>
<path fill="none" stroke="midnightblue" d="M3186.77,-638.49C3211.06,-631.48 3243.04,-619.76 3267.11,-602 3343.75,-545.46 3500.22,-355.37 3533.11,-266 3541.71,-242.63 3534.67,-234.9 3535.11,-210 3535.36,-196.22 3542.22,-190.8 3535.11,-179 3507.61,-133.37 3479.2,-141.17 3429.11,-123 3358.3,-97.31 3270.6,-82.85 3224.28,-76.48"/>
<polygon fill="midnightblue" stroke="midnightblue" points="3224.61,-73 3214.24,-75.14 3223.69,-79.93 3224.61,-73"/>
</g>
<!-- Node35 -->
<g id="node35" class="node">
<title>Node35</title>
<g id="a_node35"><a xlink:href="layout_8h.html" target="_top" xlink:title="Definition of layout.">
<polygon fill="white" stroke="black" points="2997.11,-582.5 2997.11,-601.5 3095.11,-601.5 3095.11,-582.5 2997.11,-582.5"/>
<text text-anchor="middle" x="3046.11" y="-589.5" font-family="Helvetica,sans-Serif" font-size="10.00">tvm/tirx/layout.h</text>
</a>
</g>
</g>
<!-- Node34&#45;&gt;Node35 -->
<g id="edge63" class="edge">
<title>Node34&#45;&gt;Node35</title>
<path fill="none" stroke="midnightblue" d="M3134.24,-638.32C3117.4,-629.66 3091.3,-616.24 3071.87,-606.25"/>
<polygon fill="midnightblue" stroke="midnightblue" points="3073.43,-603.12 3062.94,-601.65 3070.23,-609.34 3073.43,-603.12"/>
</g>
<!-- Node34&#45;&gt;Node56 -->
<g id="edge153" class="edge">
<title>Node34&#45;&gt;Node56</title>
<path fill="none" stroke="midnightblue" d="M3169.23,-638.3C3199.02,-622.57 3255.11,-586.41 3255.11,-537 3255.11,-537 3255.11,-537 3255.11,-479 3255.11,-350.5 3078.38,-290.21 2988.42,-267.85"/>
<polygon fill="midnightblue" stroke="midnightblue" points="2989.23,-264.44 2978.68,-265.49 2987.58,-271.25 2989.23,-264.44"/>
</g>
<!-- Node35&#45;&gt;Node8 -->
<g id="edge67" class="edge">
<title>Node35&#45;&gt;Node8</title>
<path fill="none" stroke="midnightblue" d="M3074.8,-582.48C3094.62,-575.39 3120.49,-563.58 3138.11,-546 3184.41,-499.82 3163.92,-466.35 3203.11,-414 3289.21,-298.98 3476.32,-313.24 3425.11,-179 3413.22,-147.83 3404.53,-138.74 3375.11,-123 3349.18,-109.12 3168.54,-88.31 3074.99,-78.3"/>
<polygon fill="midnightblue" stroke="midnightblue" points="3075.17,-74.8 3064.85,-77.22 3074.43,-81.76 3075.17,-74.8"/>
</g>
<!-- Node35&#45;&gt;Node11 -->
<g id="edge64" class="edge">
<title>Node35&#45;&gt;Node11</title>
<path fill="none" stroke="midnightblue" d="M3072.91,-582.48C3096.72,-574.45 3132.14,-561.38 3161.11,-546 3393.7,-422.54 3516.57,-437.54 3649.11,-210 3670.95,-172.51 3667.9,-119.27 3664.24,-91.31"/>
<polygon fill="midnightblue" stroke="midnightblue" points="3667.69,-90.68 3662.76,-81.31 3660.76,-91.71 3667.69,-90.68"/>
</g>
<!-- Node35&#45;&gt;Node12 -->
<g id="edge66" class="edge">
<title>Node35&#45;&gt;Node12</title>
<path fill="none" stroke="midnightblue" d="M2997.1,-584.93C2871.44,-569.34 2527.53,-526.58 2241.11,-490 1915.03,-448.36 957.31,-433.32 803.11,-143 798.94,-135.15 797.24,-129.67 803.11,-123 824.8,-98.36 1031.72,-82.49 1137.09,-75.93"/>
<polygon fill="midnightblue" stroke="midnightblue" points="1137.5,-79.41 1147.26,-75.31 1137.07,-72.43 1137.5,-79.41"/>
</g>
<!-- Node36 -->
<g id="node36" class="node">
<title>Node36</title>
<g id="a_node36"><a xlink:title=" ">
<polygon fill="white" stroke="#bfbfbf" points="2979.11,-526.5 2979.11,-545.5 3113.11,-545.5 3113.11,-526.5 2979.11,-526.5"/>
<text text-anchor="middle" x="3046.11" y="-533.5" font-family="Helvetica,sans-Serif" font-size="10.00">tvm/ffi/container/tuple.h</text>
</a>
</g>
</g>
<!-- Node35&#45;&gt;Node36 -->
<g id="edge65" class="edge">
<title>Node35&#45;&gt;Node36</title>
<path fill="none" stroke="midnightblue" d="M3046.11,-582.08C3046.11,-575.01 3046.11,-564.86 3046.11,-555.99"/>
<polygon fill="midnightblue" stroke="midnightblue" points="3049.61,-555.75 3046.11,-545.75 3042.61,-555.75 3049.61,-555.75"/>
</g>
<!-- Node37 -->
<g id="node37" class="node">
<title>Node37</title>
<g id="a_node37"><a xlink:href="attr__registry__map_8h.html" target="_top" xlink:title="Attribute map used in registry.">
<polygon fill="white" stroke="black" points="606.61,-179.5 606.61,-209.5 715.61,-209.5 715.61,-179.5 606.61,-179.5"/>
<text text-anchor="start" x="614.61" y="-197.5" font-family="Helvetica,sans-Serif" font-size="10.00">tvm/ir/attr_registry</text>
<text text-anchor="middle" x="661.11" y="-186.5" font-family="Helvetica,sans-Serif" font-size="10.00">_map.h</text>
</a>
</g>
</g>
<!-- Node35&#45;&gt;Node37 -->
<g id="edge68" class="edge">
<title>Node35&#45;&gt;Node37</title>
<path fill="none" stroke="midnightblue" d="M2996.97,-589.53C2824.04,-583.87 2227.77,-560.14 1741.11,-490 1503.68,-455.78 1444.85,-440.01 1213.11,-378 1023.12,-327.16 802.55,-247.98 708.02,-213.06"/>
<polygon fill="midnightblue" stroke="midnightblue" points="709.06,-209.71 698.47,-209.52 706.63,-216.28 709.06,-209.71"/>
</g>
<!-- Node38 -->
<g id="node38" class="node">
<title>Node38</title>
<g id="a_node38"><a xlink:href="module_8h.html" target="_top" xlink:title="IRModule that holds the functions and type definitions.">
<polygon fill="white" stroke="black" points="2488.61,-470.5 2488.61,-489.5 2583.61,-489.5 2583.61,-470.5 2488.61,-470.5"/>
<text text-anchor="middle" x="2536.11" y="-477.5" font-family="Helvetica,sans-Serif" font-size="10.00">tvm/ir/module.h</text>
</a>
</g>
</g>
<!-- Node35&#45;&gt;Node38 -->
<g id="edge72" class="edge">
<title>Node35&#45;&gt;Node38</title>
<path fill="none" stroke="midnightblue" d="M2996.77,-584.16C2952.03,-577.18 2884.61,-564.69 2828.11,-546 2808.1,-539.38 2805.2,-532.37 2785.11,-526 2721.25,-505.75 2645.12,-493.66 2593.99,-487.19"/>
<polygon fill="midnightblue" stroke="midnightblue" points="2594.15,-483.68 2583.79,-485.93 2593.29,-490.63 2594.15,-483.68"/>
</g>
<!-- Node54 -->
<g id="node54" class="node">
<title>Node54</title>
<g id="a_node54"><a xlink:href="exec__scope_8h.html" target="_top" xlink:title=" ">
<polygon fill="white" stroke="black" points="2837.11,-526.5 2837.11,-545.5 2961.11,-545.5 2961.11,-526.5 2837.11,-526.5"/>
<text text-anchor="middle" x="2899.11" y="-533.5" font-family="Helvetica,sans-Serif" font-size="10.00">tvm/tirx/exec_scope.h</text>
</a>
</g>
</g>
<!-- Node35&#45;&gt;Node54 -->
<g id="edge141" class="edge">
<title>Node35&#45;&gt;Node54</title>
<path fill="none" stroke="midnightblue" d="M3022.82,-582.44C2998.3,-573.44 2959.51,-559.19 2931.91,-549.05"/>
<polygon fill="midnightblue" stroke="midnightblue" points="2932.89,-545.68 2922.29,-545.52 2930.47,-552.25 2932.89,-545.68"/>
</g>
<!-- Node35&#45;&gt;Node56 -->
<g id="edge152" class="edge">
<title>Node35&#45;&gt;Node56</title>
<path fill="none" stroke="midnightblue" d="M3074.13,-582.4C3091.28,-575.51 3111.86,-563.98 3122.11,-546 3126.51,-538.28 3124.62,-534.53 3122.11,-526 3089.75,-415.83 2992.75,-311.56 2953.68,-272.85"/>
<polygon fill="midnightblue" stroke="midnightblue" points="2955.87,-270.1 2946.27,-265.61 2950.98,-275.1 2955.87,-270.1"/>
</g>
<!-- Node37&#45;&gt;Node6 -->
<g id="edge69" class="edge">
<title>Node37&#45;&gt;Node6</title>
<path fill="none" stroke="midnightblue" d="M715.79,-191.45C799.58,-188.38 964.79,-182.55 1105.11,-179 1998.75,-156.41 2222.61,-170.51 3116.11,-143 3167.4,-141.42 3225.85,-138.79 3267.35,-136.78"/>
<polygon fill="midnightblue" stroke="midnightblue" points="3267.7,-140.26 3277.52,-136.28 3267.36,-133.27 3267.7,-140.26"/>
</g>
<!-- Node37&#45;&gt;Node9 -->
<g id="edge70" class="edge">
<title>Node37&#45;&gt;Node9</title>
<path fill="none" stroke="midnightblue" d="M621.84,-179.43C592.57,-166.68 560.34,-146.35 577.11,-123 603.63,-86.09 658.49,-75.8 694,-73.13"/>
<polygon fill="midnightblue" stroke="midnightblue" points="694.57,-76.6 704.35,-72.53 694.17,-69.61 694.57,-76.6"/>
</g>
<!-- Node37&#45;&gt;Node17 -->
<g id="edge71" class="edge">
<title>Node37&#45;&gt;Node17</title>
<path fill="none" stroke="midnightblue" d="M633.8,-179.29C615.31,-169.48 590.46,-155.93 569.11,-143 538.81,-124.65 504.9,-101.64 483.78,-87"/>
<polygon fill="midnightblue" stroke="midnightblue" points="485.5,-83.94 475.29,-81.09 481.5,-89.68 485.5,-83.94"/>
</g>
<!-- Node38&#45;&gt;Node3 -->
<g id="edge78" class="edge">
<title>Node38&#45;&gt;Node3</title>
<path fill="none" stroke="midnightblue" d="M2560.4,-470.44C2579.94,-462.81 2607.47,-450.32 2628.11,-434 2703.91,-374.07 2721.88,-351.91 2766.11,-266 2774.62,-249.47 2779.61,-228.75 2782.33,-214.06"/>
<polygon fill="midnightblue" stroke="midnightblue" points="2785.78,-214.61 2783.98,-204.17 2778.88,-213.46 2785.78,-214.61"/>
</g>
<!-- Node38&#45;&gt;Node5 -->
<g id="edge75" class="edge">
<title>Node38&#45;&gt;Node5</title>
<path fill="none" stroke="midnightblue" d="M2488.44,-477.22C2407.19,-473.49 2237,-462.7 2096.11,-434 2013.6,-417.19 1995.37,-403.48 1915.11,-378 1838.48,-353.67 1817.9,-351.5 1743.11,-322 1649.06,-284.9 1616.91,-281.18 1545.11,-210 1518.91,-184.03 1514.72,-174.85 1496.11,-143 1487.33,-127.96 1479.24,-110.09 1473.39,-96.1"/>
<polygon fill="midnightblue" stroke="midnightblue" points="1476.57,-94.64 1469.55,-86.7 1470.09,-97.28 1476.57,-94.64"/>
</g>
<!-- Node38&#45;&gt;Node6 -->
<g id="edge76" class="edge">
<title>Node38&#45;&gt;Node6</title>
<path fill="none" stroke="midnightblue" d="M2558.97,-470.48C2582.96,-461.52 2621.75,-446.93 2655.11,-434 2843.72,-360.89 2897.64,-357.37 3078.11,-266 3143.13,-233.08 3152.54,-212.79 3217.11,-179 3240.93,-166.54 3268.96,-154.66 3290.06,-146.24"/>
<polygon fill="midnightblue" stroke="midnightblue" points="3291.5,-149.43 3299.52,-142.51 3288.94,-142.92 3291.5,-149.43"/>
</g>
<!-- Node38&#45;&gt;Node7 -->
<g id="edge77" class="edge">
<title>Node38&#45;&gt;Node7</title>
<path fill="none" stroke="midnightblue" d="M2523.05,-470.36C2511.51,-462.16 2494.88,-448.9 2484.11,-434 2465.79,-408.64 2457.11,-400.28 2457.11,-369 2457.11,-369 2457.11,-369 2457.11,-255 2457.11,-218.75 2452.15,-176.63 2448.89,-152.87"/>
<polygon fill="midnightblue" stroke="midnightblue" points="2452.33,-152.19 2447.46,-142.78 2445.4,-153.17 2452.33,-152.19"/>
</g>
<!-- Node38&#45;&gt;Node9 -->
<g id="edge139" class="edge">
<title>Node38&#45;&gt;Node9</title>
<path fill="none" stroke="midnightblue" d="M2488.22,-476.06C2384.67,-469.57 2132.22,-453.09 1921.11,-434 1747.48,-418.3 522.52,-331.89 361.11,-266 323.9,-250.81 307.65,-246.16 290.11,-210 249.39,-126.01 414.41,-123.21 415.11,-123 514.13,-93.36 636.34,-80 694.01,-75.01"/>
<polygon fill="midnightblue" stroke="midnightblue" points="694.66,-78.46 704.34,-74.14 694.08,-71.49 694.66,-78.46"/>
</g>
<!-- Node38&#45;&gt;Node10 -->
<g id="edge127" class="edge">
<title>Node38&#45;&gt;Node10</title>
<path fill="none" stroke="midnightblue" d="M2488.19,-478.05C2367.23,-474.38 2059.11,-456.43 2059.11,-369 2059.11,-369 2059.11,-369 2059.11,-311 2059.11,-237.5 1984.74,-175.28 1946.81,-148.32"/>
<polygon fill="midnightblue" stroke="midnightblue" points="1948.66,-145.35 1938.45,-142.53 1944.68,-151.1 1948.66,-145.35"/>
</g>
<!-- Node38&#45;&gt;Node11 -->
<g id="edge73" class="edge">
<title>Node38&#45;&gt;Node11</title>
<path fill="none" stroke="midnightblue" d="M2583.85,-473.46C2718.44,-456.56 3110.41,-398.56 3407.11,-266 3496.25,-226.18 3513.48,-204.74 3589.11,-143 3610.15,-125.83 3632.15,-103.55 3646.21,-88.68"/>
<polygon fill="midnightblue" stroke="midnightblue" points="3648.87,-90.96 3653.15,-81.26 3643.76,-86.18 3648.87,-90.96"/>
</g>
<!-- Node38&#45;&gt;Node16 -->
<g id="edge136" class="edge">
<title>Node38&#45;&gt;Node16</title>
<path fill="none" stroke="midnightblue" d="M2568.37,-470.45C2600.42,-461.81 2650.91,-447.79 2694.11,-434 2765.08,-411.34 2782.27,-403.95 2852.11,-378 2916.48,-354.08 2933.13,-349.36 2996.11,-322 3130.48,-263.63 3158.01,-235.66 3293.11,-179 3336.67,-160.73 3365.95,-181.65 3393.11,-143 3435.3,-82.98 3291.39,-73.65 3224.48,-72.48"/>
<polygon fill="midnightblue" stroke="midnightblue" points="3224.48,-68.98 3214.44,-72.36 3224.4,-75.98 3224.48,-68.98"/>
</g>
<!-- Node38&#45;&gt;Node17 -->
<g id="edge140" class="edge">
<title>Node38&#45;&gt;Node17</title>
<path fill="none" stroke="midnightblue" d="M2488.36,-477.08C2357.77,-471.69 1983.68,-455.45 1673.11,-434 1066.4,-392.1 806.45,-624.38 315.11,-266 263.76,-228.55 264.53,-162.76 314.11,-123 347.95,-95.86 397.15,-82.96 429.62,-77.07"/>
<polygon fill="midnightblue" stroke="midnightblue" points="430.26,-80.52 439.54,-75.4 429.1,-73.61 430.26,-80.52"/>
</g>
<!-- Node38&#45;&gt;Node28 -->
<g id="edge74" class="edge">
<title>Node38&#45;&gt;Node28</title>
<path fill="none" stroke="midnightblue" d="M2488.26,-479.84C2394.49,-480.41 2180.58,-476.42 2007.11,-434 1984.66,-428.51 1981.15,-420.97 1959.11,-414 1849.31,-379.27 1818.8,-381.74 1706.11,-358 1626.28,-341.18 1605.85,-339.24 1526.11,-322 1487.75,-313.71 1478.52,-310.05 1440.11,-302 1438.41,-301.64 949.63,-210.84 948.11,-210 922.69,-195.92 901.41,-169.23 889.21,-151.52"/>
<polygon fill="midnightblue" stroke="midnightblue" points="891.84,-149.15 883.4,-142.75 886,-153.02 891.84,-149.15"/>
</g>
<!-- Node38&#45;&gt;Node32 -->
<g id="edge137" class="edge">
<title>Node38&#45;&gt;Node32</title>
<path fill="none" stroke="midnightblue" d="M2488.32,-477.76C2368.54,-474.24 2058.06,-462.58 1959.11,-434 1940.77,-428.7 1939.24,-419.97 1921.11,-414 1895.25,-405.49 978.62,-272.2 952.11,-266 872.18,-247.3 850.97,-243.68 776.11,-210 751.57,-198.96 747.74,-191.86 724.11,-179 703.11,-167.57 678.82,-155.62 660.62,-146.91"/>
<polygon fill="midnightblue" stroke="midnightblue" points="661.99,-143.69 651.45,-142.55 658.98,-150.01 661.99,-143.69"/>
</g>
<!-- Node39 -->
<g id="node39" class="node">
<title>Node39</title>
<g id="a_node39"><a xlink:href="ir_2function_8h.html" target="_top" xlink:title="Function nodes.">
<polygon fill="white" stroke="black" points="2523.11,-302.5 2523.11,-321.5 2621.11,-321.5 2621.11,-302.5 2523.11,-302.5"/>
<text text-anchor="middle" x="2572.11" y="-309.5" font-family="Helvetica,sans-Serif" font-size="10.00">tvm/ir/function.h</text>
</a>
</g>
</g>
<!-- Node38&#45;&gt;Node39 -->
<g id="edge79" class="edge">
<title>Node38&#45;&gt;Node39</title>
<path fill="none" stroke="midnightblue" d="M2551.89,-470.47C2564.31,-462.77 2580.72,-450.18 2588.11,-434 2603.61,-400.09 2590.24,-355.63 2580.37,-331.14"/>
<polygon fill="midnightblue" stroke="midnightblue" points="2583.47,-329.5 2576.32,-321.68 2577.04,-332.25 2583.47,-329.5"/>
</g>
<!-- Node40 -->
<g id="node40" class="node">
<title>Node40</title>
<g id="a_node40"><a xlink:href="ir_2global__info_8h.html" target="_top" xlink:title="GlobalInfo are globally static object that are referred by the IR itself.">
<polygon fill="white" stroke="black" points="2241.11,-414.5 2241.11,-433.5 2353.11,-433.5 2353.11,-414.5 2241.11,-414.5"/>
<text text-anchor="middle" x="2297.11" y="-421.5" font-family="Helvetica,sans-Serif" font-size="10.00">tvm/ir/global_info.h</text>
</a>
</g>
</g>
<!-- Node38&#45;&gt;Node40 -->
<g id="edge87" class="edge">
<title>Node38&#45;&gt;Node40</title>
<path fill="none" stroke="midnightblue" d="M2498.24,-470.44C2456.63,-461.04 2389.74,-445.93 2344.64,-435.74"/>
<polygon fill="midnightblue" stroke="midnightblue" points="2345.33,-432.31 2334.8,-433.52 2343.79,-439.13 2345.33,-432.31"/>
</g>
<!-- Node51 -->
<g id="node51" class="node">
<title>Node51</title>
<g id="a_node51"><a xlink:href="ir_2type_8h.html" target="_top" xlink:title="IR/AST nodes for the unified type system in TVM.">
<polygon fill="white" stroke="black" points="2677.11,-246.5 2677.11,-265.5 2757.11,-265.5 2757.11,-246.5 2677.11,-246.5"/>
<text text-anchor="middle" x="2717.11" y="-253.5" font-family="Helvetica,sans-Serif" font-size="10.00">tvm/ir/type.h</text>
</a>
</g>
</g>
<!-- Node38&#45;&gt;Node51 -->
<g id="edge128" class="edge">
<title>Node38&#45;&gt;Node51</title>
<path fill="none" stroke="midnightblue" d="M2553.46,-470.42C2568.38,-462.44 2589.84,-449.48 2605.11,-434 2654.4,-384.03 2693.04,-308.78 2709.06,-274.79"/>
<polygon fill="midnightblue" stroke="midnightblue" points="2712.27,-276.18 2713.3,-265.64 2705.92,-273.24 2712.27,-276.18"/>
</g>
<!-- Node53 -->
<g id="node53" class="node">
<title>Node53</title>
<g id="a_node53"><a xlink:title=" ">
<polygon fill="white" stroke="#bfbfbf" points="2493.11,-414.5 2493.11,-433.5 2579.11,-433.5 2579.11,-414.5 2493.11,-414.5"/>
<text text-anchor="middle" x="2536.11" y="-421.5" font-family="Helvetica,sans-Serif" font-size="10.00">unordered_set</text>
</a>
</g>
</g>
<!-- Node38&#45;&gt;Node53 -->
<g id="edge138" class="edge">
<title>Node38&#45;&gt;Node53</title>
<path fill="none" stroke="midnightblue" d="M2536.11,-470.08C2536.11,-463.01 2536.11,-452.86 2536.11,-443.99"/>
<polygon fill="midnightblue" stroke="midnightblue" points="2539.61,-443.75 2536.11,-433.75 2532.61,-443.75 2539.61,-443.75"/>
</g>
<!-- Node39&#45;&gt;Node3 -->
<g id="edge84" class="edge">
<title>Node39&#45;&gt;Node3</title>
<path fill="none" stroke="midnightblue" d="M2578.45,-302.13C2588.81,-288.26 2610.66,-261.43 2635.11,-246 2665.91,-226.57 2705.01,-213.72 2735.58,-205.85"/>
<polygon fill="midnightblue" stroke="midnightblue" points="2736.72,-209.17 2745.59,-203.37 2735.04,-202.38 2736.72,-209.17"/>
</g>
<!-- Node39&#45;&gt;Node6 -->
<g id="edge82" class="edge">
<title>Node39&#45;&gt;Node6</title>
<path fill="none" stroke="midnightblue" d="M2621.26,-306.57C2743.73,-295.51 3052.85,-267.48 3055.11,-266 3092.06,-241.81 3067.55,-205.18 3103.11,-179 3116.26,-169.32 3206.74,-152.92 3267.21,-142.82"/>
<polygon fill="midnightblue" stroke="midnightblue" points="3268.09,-146.22 3277.38,-141.13 3266.94,-139.32 3268.09,-146.22"/>
</g>
<!-- Node39&#45;&gt;Node11 -->
<g id="edge80" class="edge">
<title>Node39&#45;&gt;Node11</title>
<path fill="none" stroke="midnightblue" d="M2621.33,-308.08C2779.75,-298.22 3274.88,-263.78 3425.11,-210 3511.49,-179.08 3602.11,-116.35 3641.22,-87.56"/>
<polygon fill="midnightblue" stroke="midnightblue" points="3643.67,-90.1 3649.6,-81.32 3639.49,-84.48 3643.67,-90.1"/>
</g>
<!-- Node39&#45;&gt;Node16 -->
<g id="edge85" class="edge">
<title>Node39&#45;&gt;Node16</title>
<path fill="none" stroke="midnightblue" d="M2621.43,-306.5C2727.84,-296.67 2970.7,-273.58 2987.11,-266 3038.2,-242.4 3030.18,-206.81 3079.11,-179 3130.12,-150.01 3170.73,-189.8 3206.11,-143 3217.59,-127.81 3210.41,-105.68 3202.74,-90.29"/>
<polygon fill="midnightblue" stroke="midnightblue" points="3205.68,-88.37 3197.82,-81.28 3199.54,-91.73 3205.68,-88.37"/>
</g>
<!-- Node39&#45;&gt;Node23 -->
<g id="edge86" class="edge">
<title>Node39&#45;&gt;Node23</title>
<path fill="none" stroke="midnightblue" d="M2570.08,-302.39C2563.13,-274.33 2538.27,-183.84 2493.11,-123 2482.46,-108.65 2466.89,-95.85 2454.15,-86.73"/>
<polygon fill="midnightblue" stroke="midnightblue" points="2456.1,-83.82 2445.88,-81.03 2452.13,-89.58 2456.1,-83.82"/>
</g>
<!-- Node39&#45;&gt;Node28 -->
<g id="edge81" class="edge">
<title>Node39&#45;&gt;Node28</title>
<path fill="none" stroke="midnightblue" d="M2522.94,-309.11C2274.89,-299.37 1167.05,-253.76 1020.11,-210 973.84,-196.22 925.4,-166.46 898.76,-148.54"/>
<polygon fill="midnightblue" stroke="midnightblue" points="900.51,-145.5 890.28,-142.74 896.56,-151.28 900.51,-145.5"/>
</g>
<!-- Node39&#45;&gt;Node29 -->
<g id="edge83" class="edge">
<title>Node39&#45;&gt;Node29</title>
<path fill="none" stroke="midnightblue" d="M2522.87,-307.92C2371.08,-298.44 1911.42,-269.71 1758.33,-260.14"/>
<polygon fill="midnightblue" stroke="midnightblue" points="1758.46,-256.64 1748.27,-259.51 1758.03,-263.63 1758.46,-256.64"/>
</g>
<!-- Node40&#45;&gt;Node3 -->
<g id="edge89" class="edge">
<title>Node40&#45;&gt;Node3</title>
<path fill="none" stroke="midnightblue" d="M2353.3,-419.38C2425.16,-412.02 2549.88,-389.69 2630.11,-322 2658.97,-297.65 2640.67,-271.94 2668.11,-246 2687.88,-227.32 2715.64,-214.93 2739.16,-207.1"/>
<polygon fill="midnightblue" stroke="midnightblue" points="2740.46,-210.36 2748.95,-204.02 2738.36,-203.69 2740.46,-210.36"/>
</g>
<!-- Node40&#45;&gt;Node5 -->
<g id="edge88" class="edge">
<title>Node40&#45;&gt;Node5</title>
<path fill="none" stroke="midnightblue" d="M2240.95,-417.53C2126.25,-404.6 1859.04,-365.43 1659.11,-266 1577.16,-225.24 1508.49,-136.84 1479.24,-95.14"/>
<polygon fill="midnightblue" stroke="midnightblue" points="1482.01,-93 1473.45,-86.75 1476.25,-96.97 1482.01,-93"/>
</g>
<!-- Node41 -->
<g id="node41" class="node">
<title>Node41</title>
<g id="a_node41"><a xlink:href="target_8h.html" target="_top" xlink:title="Compilation target object.">
<polygon fill="white" stroke="black" points="2222.11,-358.5 2222.11,-377.5 2332.11,-377.5 2332.11,-358.5 2222.11,-358.5"/>
<text text-anchor="middle" x="2277.11" y="-365.5" font-family="Helvetica,sans-Serif" font-size="10.00">tvm/target/target.h</text>
</a>
</g>
</g>
<!-- Node40&#45;&gt;Node41 -->
<g id="edge90" class="edge">
<title>Node40&#45;&gt;Node41</title>
<path fill="none" stroke="midnightblue" d="M2293.81,-414.08C2291.13,-406.85 2287.26,-396.41 2283.92,-387.4"/>
<polygon fill="midnightblue" stroke="midnightblue" points="2287.11,-385.91 2280.35,-377.75 2280.54,-388.34 2287.11,-385.91"/>
</g>
<!-- Node41&#45;&gt;Node3 -->
<g id="edge92" class="edge">
<title>Node41&#45;&gt;Node3</title>
<path fill="none" stroke="midnightblue" d="M2299,-358.37C2351.75,-337.71 2490.28,-284.29 2608.11,-246 2653.81,-231.15 2706.89,-216.32 2742.91,-206.61"/>
<polygon fill="midnightblue" stroke="midnightblue" points="2743.85,-209.99 2752.6,-204.02 2742.03,-203.23 2743.85,-209.99"/>
</g>
<!-- Node41&#45;&gt;Node5 -->
<g id="edge91" class="edge">
<title>Node41&#45;&gt;Node5</title>
<path fill="none" stroke="midnightblue" d="M2262.89,-358.46C2206.49,-324.73 1998.08,-201.57 1925.11,-179 1785,-135.67 1737.28,-186.11 1597.11,-143 1576.9,-136.79 1529.12,-110.27 1496.68,-91.59"/>
<polygon fill="midnightblue" stroke="midnightblue" points="1498.38,-88.53 1487.97,-86.56 1494.88,-94.59 1498.38,-88.53"/>
</g>
<!-- Node41&#45;&gt;Node16 -->
<g id="edge126" class="edge">
<title>Node41&#45;&gt;Node16</title>
<path fill="none" stroke="midnightblue" d="M2332.3,-366.27C2464.13,-363.21 2806.56,-347.37 3078.11,-266 3162.08,-240.84 3173.52,-211.04 3255.11,-179 3306.94,-158.65 3341.87,-187.67 3375.11,-143 3414.88,-89.55 3286.93,-76.62 3224.43,-73.5"/>
<polygon fill="midnightblue" stroke="midnightblue" points="3224.43,-69.99 3214.28,-73.05 3224.12,-76.98 3224.43,-69.99"/>
</g>
<!-- Node41&#45;&gt;Node39 -->
<g id="edge93" class="edge">
<title>Node41&#45;&gt;Node39</title>
<path fill="none" stroke="midnightblue" d="M2323.85,-358.44C2375.86,-348.92 2459.86,-333.55 2515.53,-323.36"/>
<polygon fill="midnightblue" stroke="midnightblue" points="2516.38,-326.76 2525.59,-321.52 2515.12,-319.87 2516.38,-326.76"/>
</g>
<!-- Node41&#45;&gt;Node42 -->
<g id="edge94" class="edge">
<title>Node41&#45;&gt;Node42</title>
<path fill="none" stroke="midnightblue" d="M2221.86,-363.71C1955.07,-347.81 800.67,-279.02 501.92,-261.22"/>
<polygon fill="midnightblue" stroke="midnightblue" points="501.84,-257.71 491.65,-260.61 501.43,-264.7 501.84,-257.71"/>
</g>
<!-- Node45 -->
<g id="node45" class="node">
<title>Node45</title>
<g id="a_node45"><a xlink:href="device__api_8h.html" target="_top" xlink:title="Abstract device memory management API.">
<polygon fill="white" stroke="black" points="2163.61,-179.5 2163.61,-209.5 2276.61,-209.5 2276.61,-179.5 2163.61,-179.5"/>
<text text-anchor="start" x="2171.61" y="-197.5" font-family="Helvetica,sans-Serif" font-size="10.00">tvm/runtime/device</text>
<text text-anchor="middle" x="2220.11" y="-186.5" font-family="Helvetica,sans-Serif" font-size="10.00">_api.h</text>
</a>
</g>
</g>
<!-- Node41&#45;&gt;Node45 -->
<g id="edge100" class="edge">
<title>Node41&#45;&gt;Node45</title>
<path fill="none" stroke="midnightblue" d="M2274.21,-358.26C2265.77,-332.87 2241.03,-258.44 2228.14,-219.65"/>
<polygon fill="midnightblue" stroke="midnightblue" points="2231.31,-218.11 2224.84,-209.72 2224.67,-220.32 2231.31,-218.11"/>
</g>
<!-- Node48 -->
<g id="node48" class="node">
<title>Node48</title>
<g id="a_node48"><a xlink:href="target__kind_8h.html" target="_top" xlink:title="Target kind registry.">
<polygon fill="white" stroke="black" points="994.11,-246.5 994.11,-265.5 1130.11,-265.5 1130.11,-246.5 994.11,-246.5"/>
<text text-anchor="middle" x="1062.11" y="-253.5" font-family="Helvetica,sans-Serif" font-size="10.00">tvm/target/target_kind.h</text>
</a>
</g>
</g>
<!-- Node41&#45;&gt;Node48 -->
<g id="edge107" class="edge">
<title>Node41&#45;&gt;Node48</title>
<path fill="none" stroke="midnightblue" d="M2221.75,-361.99C2026.29,-344.29 1368.13,-284.71 1140.42,-264.09"/>
<polygon fill="midnightblue" stroke="midnightblue" points="1140.5,-260.58 1130.23,-263.17 1139.87,-267.55 1140.5,-260.58"/>
</g>
<!-- Node42&#45;&gt;Node9 -->
<g id="edge98" class="edge">
<title>Node42&#45;&gt;Node9</title>
<path fill="none" stroke="midnightblue" d="M406.64,-246.44C390.54,-239.38 370.73,-227.63 361.11,-210 354.51,-197.91 352.84,-190.02 361.11,-179 401.88,-124.68 612.55,-89 694.47,-76.99"/>
<polygon fill="midnightblue" stroke="midnightblue" points="695.08,-80.44 704.48,-75.55 694.08,-73.51 695.08,-80.44"/>
</g>
<!-- Node42&#45;&gt;Node17 -->
<g id="edge99" class="edge">
<title>Node42&#45;&gt;Node17</title>
<path fill="none" stroke="midnightblue" d="M383.78,-246.42C363.01,-240.05 340.56,-229.02 328.11,-210 320.57,-198.47 322.1,-191.4 328.11,-179 350.04,-133.77 401.52,-101.97 434.2,-85.49"/>
<polygon fill="midnightblue" stroke="midnightblue" points="435.82,-88.59 443.28,-81.06 432.76,-82.3 435.82,-88.59"/>
</g>
<!-- Node42&#45;&gt;Node25 -->
<g id="edge96" class="edge">
<title>Node42&#45;&gt;Node25</title>
<path fill="none" stroke="midnightblue" d="M492.05,-253.87C791.87,-248.24 2103.26,-223.06 2285.11,-210 2509.15,-193.91 2775.65,-155.79 2877.59,-140.51"/>
<polygon fill="midnightblue" stroke="midnightblue" points="2878.13,-143.96 2887.5,-139.01 2877.09,-137.04 2878.13,-143.96"/>
</g>
<!-- Node43 -->
<g id="node43" class="node">
<title>Node43</title>
<g id="a_node43"><a xlink:title=" ">
<polygon fill="white" stroke="#bfbfbf" points="370.61,-185 370.61,-204 435.61,-204 435.61,-185 370.61,-185"/>
<text text-anchor="middle" x="403.11" y="-192" font-family="Helvetica,sans-Serif" font-size="10.00">exception</text>
</a>
</g>
</g>
<!-- Node42&#45;&gt;Node43 -->
<g id="edge95" class="edge">
<title>Node42&#45;&gt;Node43</title>
<path fill="none" stroke="midnightblue" d="M427.1,-246.48C423.02,-237.82 416.59,-224.15 411.41,-213.15"/>
<polygon fill="midnightblue" stroke="midnightblue" points="414.54,-211.57 407.11,-204.01 408.21,-214.55 414.54,-211.57"/>
</g>
<!-- Node42&#45;&gt;Node44 -->
<g id="edge97" class="edge">
<title>Node42&#45;&gt;Node44</title>
<path fill="none" stroke="midnightblue" d="M438.56,-246.48C446.44,-237.46 459.06,-223.02 468.85,-211.81"/>
<polygon fill="midnightblue" stroke="midnightblue" points="471.73,-213.84 475.67,-204.01 466.46,-209.24 471.73,-213.84"/>
</g>
<!-- Node45&#45;&gt;Node6 -->
<g id="edge104" class="edge">
<title>Node45&#45;&gt;Node6</title>
<path fill="none" stroke="midnightblue" d="M2276.66,-190.45C2466.52,-180.2 3079.82,-147.08 3267.21,-136.96"/>
<polygon fill="midnightblue" stroke="midnightblue" points="3267.58,-140.45 3277.38,-136.42 3267.21,-133.46 3267.58,-140.45"/>
</g>
<!-- Node45&#45;&gt;Node13 -->
<g id="edge105" class="edge">
<title>Node45&#45;&gt;Node13</title>
<path fill="none" stroke="midnightblue" d="M2269.21,-179.49C2304.3,-167.04 2341.93,-147.12 2321.11,-123 2285.29,-81.51 2131,-96.97 2077.11,-87 2070.92,-85.85 2064.42,-84.54 2058.02,-83.18"/>
<polygon fill="midnightblue" stroke="midnightblue" points="2058.63,-79.73 2048.11,-81.02 2057.14,-86.57 2058.63,-79.73"/>
</g>
<!-- Node45&#45;&gt;Node16 -->
<g id="edge106" class="edge">
<title>Node45&#45;&gt;Node16</title>
<path fill="none" stroke="midnightblue" d="M2276.64,-187.83C2303.97,-185.12 2337.24,-181.84 2367.11,-179 2541.28,-162.41 2586.39,-170.88 2759.11,-143 2797.85,-136.75 2806.55,-130.28 2845.11,-123 2960.23,-101.28 3098.37,-83.68 3159.86,-76.28"/>
<polygon fill="midnightblue" stroke="midnightblue" points="3160.57,-79.72 3170.08,-75.05 3159.74,-72.76 3160.57,-79.72"/>
</g>
<!-- Node45&#45;&gt;Node21 -->
<g id="edge102" class="edge">
<title>Node45&#45;&gt;Node21</title>
<path fill="none" stroke="midnightblue" d="M2163.43,-182.01C2142.03,-174.61 2119.79,-162.56 2107.11,-143 2096.52,-126.67 2105.98,-104.8 2115.37,-89.78"/>
<polygon fill="midnightblue" stroke="midnightblue" points="2118.32,-91.66 2121.03,-81.41 2112.52,-87.74 2118.32,-91.66"/>
</g>
<!-- Node46 -->
<g id="node46" class="node">
<title>Node46</title>
<g id="a_node46"><a xlink:title=" ">
<polygon fill="white" stroke="#bfbfbf" points="2116.61,-123.5 2116.61,-142.5 2193.61,-142.5 2193.61,-123.5 2116.61,-123.5"/>
<text text-anchor="middle" x="2155.11" y="-130.5" font-family="Helvetica,sans-Serif" font-size="10.00">tvm/ffi/any.h</text>
</a>
</g>
</g>
<!-- Node45&#45;&gt;Node46 -->
<g id="edge101" class="edge">
<title>Node45&#45;&gt;Node46</title>
<path fill="none" stroke="midnightblue" d="M2204.71,-179.4C2194.87,-170.4 2182.12,-158.72 2172.01,-149.47"/>
<polygon fill="midnightblue" stroke="midnightblue" points="2174.31,-146.83 2164.57,-142.66 2169.58,-151.99 2174.31,-146.83"/>
</g>
<!-- Node47 -->
<g id="node47" class="node">
<title>Node47</title>
<g id="a_node47"><a xlink:title=" ">
<polygon fill="white" stroke="#bfbfbf" points="2211.61,-123.5 2211.61,-142.5 2312.61,-142.5 2312.61,-123.5 2211.61,-123.5"/>
<text text-anchor="middle" x="2262.11" y="-130.5" font-family="Helvetica,sans-Serif" font-size="10.00">tvm/ffi/optional.h</text>
</a>
</g>
</g>
<!-- Node45&#45;&gt;Node47 -->
<g id="edge103" class="edge">
<title>Node45&#45;&gt;Node47</title>
<path fill="none" stroke="midnightblue" d="M2230.06,-179.4C2236.1,-170.84 2243.85,-159.87 2250.21,-150.86"/>
<polygon fill="midnightblue" stroke="midnightblue" points="2253.09,-152.85 2256,-142.66 2247.37,-148.81 2253.09,-152.85"/>
</g>
<!-- Node48&#45;&gt;Node5 -->
<g id="edge109" class="edge">
<title>Node48&#45;&gt;Node5</title>
<path fill="none" stroke="midnightblue" d="M1116.49,-246.46C1175.42,-236.73 1262.64,-220.8 1274.11,-210 1303.31,-182.5 1270.12,-151.73 1298.11,-123 1325.85,-94.52 1369.11,-81.99 1404.51,-76.52"/>
<polygon fill="midnightblue" stroke="midnightblue" points="1405.31,-79.94 1414.74,-75.1 1404.35,-73.01 1405.31,-79.94"/>
</g>
<!-- Node48&#45;&gt;Node9 -->
<g id="edge124" class="edge">
<title>Node48&#45;&gt;Node9</title>
<path fill="none" stroke="midnightblue" d="M1028.38,-246.5C999.13,-238.61 955.99,-225.74 920.11,-210 865.24,-185.92 851.39,-178.5 803.11,-143 780.6,-126.45 757.44,-104.04 742.7,-88.97"/>
<polygon fill="midnightblue" stroke="midnightblue" points="744.89,-86.21 735.43,-81.44 739.85,-91.07 744.89,-86.21"/>
</g>
<!-- Node48&#45;&gt;Node12 -->
<g id="edge108" class="edge">
<title>Node48&#45;&gt;Node12</title>
<path fill="none" stroke="midnightblue" d="M1130.15,-247.96C1178.94,-241.35 1238.66,-229.48 1254.11,-210 1284.15,-172.11 1240.09,-115.92 1214.4,-88.59"/>
<polygon fill="midnightblue" stroke="midnightblue" points="1216.6,-85.83 1207.12,-81.09 1211.58,-90.7 1216.6,-85.83"/>
</g>
<!-- Node48&#45;&gt;Node13 -->
<g id="edge121" class="edge">
<title>Node48&#45;&gt;Node13</title>
<path fill="none" stroke="midnightblue" d="M1113.3,-246.48C1160.7,-238.26 1233.02,-224.91 1295.11,-210 1430.93,-177.39 1459.99,-149.6 1597.11,-123 1750.19,-93.3 1792.16,-111.77 1946.11,-87 1952.8,-85.92 1959.84,-84.59 1966.72,-83.18"/>
<polygon fill="midnightblue" stroke="midnightblue" points="1967.58,-86.58 1976.63,-81.07 1966.12,-79.73 1967.58,-86.58"/>
</g>
<!-- Node48&#45;&gt;Node17 -->
<g id="edge125" class="edge">
<title>Node48&#45;&gt;Node17</title>
<path fill="none" stroke="midnightblue" d="M993.88,-254.1C882.08,-251.7 665.48,-242.81 597.11,-210 540.16,-182.68 494.1,-120.47 474.01,-89.99"/>
<polygon fill="midnightblue" stroke="midnightblue" points="476.77,-87.81 468.42,-81.29 470.89,-91.59 476.77,-87.81"/>
</g>
<!-- Node48&#45;&gt;Node32 -->
<g id="edge123" class="edge">
<title>Node48&#45;&gt;Node32</title>
<path fill="none" stroke="midnightblue" d="M1025.77,-246.49C989.31,-237.82 931.62,-223.73 882.11,-210 805.87,-188.85 717.47,-161.09 669.19,-145.65"/>
<polygon fill="midnightblue" stroke="midnightblue" points="670.1,-142.27 659.51,-142.55 667.97,-148.93 670.1,-142.27"/>
</g>
<!-- Node48&#45;&gt;Node37 -->
<g id="edge110" class="edge">
<title>Node48&#45;&gt;Node37</title>
<path fill="none" stroke="midnightblue" d="M1004.66,-246.48C930.87,-235.53 803.16,-216.58 725.97,-205.12"/>
<polygon fill="midnightblue" stroke="midnightblue" points="726.29,-201.63 715.88,-203.63 725.26,-208.56 726.29,-201.63"/>
</g>
<!-- Node48&#45;&gt;Node44 -->
<g id="edge122" class="edge">
<title>Node48&#45;&gt;Node44</title>
<path fill="none" stroke="midnightblue" d="M994.09,-254.52C891.58,-252.63 691.84,-244.37 526.11,-210 522.42,-209.24 518.61,-208.25 514.85,-207.15"/>
<polygon fill="midnightblue" stroke="midnightblue" points="515.74,-203.76 505.15,-204.07 513.62,-210.43 515.74,-203.76"/>
</g>
<!-- Node49 -->
<g id="node49" class="node">
<title>Node49</title>
<g id="a_node49"><a xlink:href="config__schema_8h.html" target="_top" xlink:title="Minimal schema for dynamic config canonicalization and validation.">
<polygon fill="white" stroke="black" points="1114.61,-185 1114.61,-204 1245.61,-204 1245.61,-185 1114.61,-185"/>
<text text-anchor="middle" x="1180.11" y="-192" font-family="Helvetica,sans-Serif" font-size="10.00">tvm/ir/config_schema.h</text>
</a>
</g>
</g>
<!-- Node48&#45;&gt;Node49 -->
<g id="edge111" class="edge">
<title>Node48&#45;&gt;Node49</title>
<path fill="none" stroke="midnightblue" d="M1079.02,-246.48C1098.64,-236.58 1131.24,-220.14 1154.1,-208.62"/>
<polygon fill="midnightblue" stroke="midnightblue" points="1155.88,-211.64 1163.24,-204.01 1152.73,-205.39 1155.88,-211.64"/>
</g>
<!-- Node49&#45;&gt;Node5 -->
<g id="edge114" class="edge">
<title>Node49&#45;&gt;Node5</title>
<path fill="none" stroke="midnightblue" d="M1187.52,-184.64C1200.59,-169.6 1229.28,-139.15 1260.11,-123 1305.49,-99.23 1362.47,-86.34 1404.66,-79.55"/>
<polygon fill="midnightblue" stroke="midnightblue" points="1405.43,-82.97 1414.79,-77.99 1404.37,-76.05 1405.43,-82.97"/>
</g>
<!-- Node49&#45;&gt;Node9 -->
<g id="edge119" class="edge">
<title>Node49&#45;&gt;Node9</title>
<path fill="none" stroke="midnightblue" d="M1164.69,-184.91C1137.26,-170.02 1077.83,-139.41 1024.11,-123 930.79,-94.5 815.75,-80.72 760.21,-75.34"/>
<polygon fill="midnightblue" stroke="midnightblue" points="760.2,-71.82 749.92,-74.37 759.55,-78.79 760.2,-71.82"/>
</g>
<!-- Node49&#45;&gt;Node12 -->
<g id="edge113" class="edge">
<title>Node49&#45;&gt;Node12</title>
<path fill="none" stroke="midnightblue" d="M1157.53,-184.86C1130.04,-172.95 1089.12,-149.88 1105.11,-123 1116.12,-104.49 1136.54,-92.35 1155.45,-84.62"/>
<polygon fill="midnightblue" stroke="midnightblue" points="1156.73,-87.88 1164.85,-81.07 1154.26,-81.33 1156.73,-87.88"/>
</g>
<!-- Node49&#45;&gt;Node16 -->
<g id="edge116" class="edge">
<title>Node49&#45;&gt;Node16</title>
<path fill="none" stroke="midnightblue" d="M1245.84,-191.41C1540.01,-182.04 2721.6,-144.34 2726.11,-143 2742.55,-138.12 2742.88,-128.55 2759.11,-123 2892.02,-77.55 2933.61,-103.5 3073.11,-87 3102.46,-83.53 3135.86,-79.45 3159.79,-76.5"/>
<polygon fill="midnightblue" stroke="midnightblue" points="3160.25,-79.97 3169.74,-75.27 3159.39,-73.02 3160.25,-79.97"/>
</g>
<!-- Node49&#45;&gt;Node17 -->
<g id="edge120" class="edge">
<title>Node49&#45;&gt;Node17</title>
<path fill="none" stroke="midnightblue" d="M1153.4,-184.92C1097.61,-167.03 972.2,-127.1 952.11,-123 783.59,-88.59 577.37,-77.06 497.23,-73.71"/>
<polygon fill="midnightblue" stroke="midnightblue" points="496.9,-70.2 486.77,-73.29 496.62,-77.19 496.9,-70.2"/>
</g>
<!-- Node49&#45;&gt;Node23 -->
<g id="edge117" class="edge">
<title>Node49&#45;&gt;Node23</title>
<path fill="none" stroke="midnightblue" d="M1245.85,-191.86C1384.31,-187.88 1715.94,-175.5 1992.11,-143 2043.63,-136.94 2055.91,-131.34 2107.11,-123 2212.27,-105.87 2238.88,-103.66 2344.11,-87 2358.13,-84.78 2373.38,-82.29 2387.2,-80.01"/>
<polygon fill="midnightblue" stroke="midnightblue" points="2388.14,-83.4 2397.44,-78.32 2387,-76.5 2388.14,-83.4"/>
</g>
<!-- Node49&#45;&gt;Node28 -->
<g id="edge112" class="edge">
<title>Node49&#45;&gt;Node28</title>
<path fill="none" stroke="midnightblue" d="M1136.84,-184.98C1082.68,-174.3 989.94,-156.03 931.45,-144.51"/>
<polygon fill="midnightblue" stroke="midnightblue" points="931.79,-141.01 921.3,-142.51 930.43,-147.88 931.79,-141.01"/>
</g>
<!-- Node49&#45;&gt;Node32 -->
<g id="edge118" class="edge">
<title>Node49&#45;&gt;Node32</title>
<path fill="none" stroke="midnightblue" d="M1114.4,-186.35C1006.13,-174.58 792.09,-151.29 689.95,-140.18"/>
<polygon fill="midnightblue" stroke="midnightblue" points="690.15,-136.68 679.83,-139.08 689.39,-143.64 690.15,-136.68"/>
</g>
<!-- Node50 -->
<g id="node50" class="node">
<title>Node50</title>
<g id="a_node50"><a xlink:title=" ">
<polygon fill="white" stroke="#bfbfbf" points="1114.11,-123.5 1114.11,-142.5 1170.11,-142.5 1170.11,-123.5 1114.11,-123.5"/>
<text text-anchor="middle" x="1142.11" y="-130.5" font-family="Helvetica,sans-Serif" font-size="10.00">sstream</text>
</a>
</g>
</g>
<!-- Node49&#45;&gt;Node50 -->
<g id="edge115" class="edge">
<title>Node49&#45;&gt;Node50</title>
<path fill="none" stroke="midnightblue" d="M1174.67,-184.98C1169.02,-176.14 1160.05,-162.09 1152.95,-150.98"/>
<polygon fill="midnightblue" stroke="midnightblue" points="1155.88,-149.05 1147.54,-142.51 1149.98,-152.82 1155.88,-149.05"/>
</g>
<!-- Node51&#45;&gt;Node3 -->
<g id="edge132" class="edge">
<title>Node51&#45;&gt;Node3</title>
<path fill="none" stroke="midnightblue" d="M2726.85,-246.48C2737.46,-237.2 2754.63,-222.17 2767.59,-210.83"/>
<polygon fill="midnightblue" stroke="midnightblue" points="2770.16,-213.23 2775.39,-204.01 2765.56,-207.96 2770.16,-213.23"/>
</g>
<!-- Node51&#45;&gt;Node5 -->
<g id="edge131" class="edge">
<title>Node51&#45;&gt;Node5</title>
<path fill="none" stroke="midnightblue" d="M2676.83,-253.85C2554.54,-250.11 2188.82,-236.91 2073.11,-210 2037.58,-201.74 2031.74,-190.46 1997.11,-179 1936.12,-158.82 1917.18,-165.8 1857.11,-143 1838.9,-136.09 1836.67,-128.9 1818.11,-123 1717.74,-91.09 1594.93,-79.3 1523.5,-74.97"/>
<polygon fill="midnightblue" stroke="midnightblue" points="1523.53,-71.47 1513.35,-74.38 1523.13,-78.45 1523.53,-71.47"/>
</g>
<!-- Node51&#45;&gt;Node10 -->
<g id="edge133" class="edge">
<title>Node51&#45;&gt;Node10</title>
<path fill="none" stroke="midnightblue" d="M2676.93,-255.69C2583.78,-256.44 2346.34,-253.52 2154.11,-210 2116.52,-201.49 2109.57,-191.5 2073.11,-179 2036.82,-166.56 1994.95,-153.99 1965.02,-145.31"/>
<polygon fill="midnightblue" stroke="midnightblue" points="1965.93,-141.93 1955.36,-142.52 1963.99,-148.66 1965.93,-141.93"/>
</g>
<!-- Node51&#45;&gt;Node11 -->
<g id="edge130" class="edge">
<title>Node51&#45;&gt;Node11</title>
<path fill="none" stroke="midnightblue" d="M2757.36,-249.2C2860.5,-234.1 3142.54,-191.39 3375.11,-143 3462.78,-124.76 3564.32,-98.49 3619.74,-83.71"/>
<polygon fill="midnightblue" stroke="midnightblue" points="3620.79,-87.05 3629.54,-81.08 3618.98,-80.29 3620.79,-87.05"/>
</g>
<!-- Node51&#45;&gt;Node16 -->
<g id="edge135" class="edge">
<title>Node51&#45;&gt;Node16</title>
<path fill="none" stroke="midnightblue" d="M2744.59,-246.41C2792.26,-231.64 2893.49,-200.94 2980.11,-179 3052.87,-160.57 3083.11,-185.31 3145.11,-143 3164.05,-130.08 3177.35,-106.76 3184.85,-90.49"/>
<polygon fill="midnightblue" stroke="midnightblue" points="3188.2,-91.57 3188.95,-81 3181.78,-88.79 3188.2,-91.57"/>
</g>
<!-- Node51&#45;&gt;Node18 -->
<g id="edge134" class="edge">
<title>Node51&#45;&gt;Node18</title>
<path fill="none" stroke="midnightblue" d="M2712.15,-246.3C2700.86,-226.5 2673.08,-177.78 2658.09,-151.49"/>
<polygon fill="midnightblue" stroke="midnightblue" points="2661.02,-149.58 2653.03,-142.62 2654.94,-153.04 2661.02,-149.58"/>
</g>
<!-- Node51&#45;&gt;Node52 -->
<g id="edge129" class="edge">
<title>Node51&#45;&gt;Node52</title>
<path fill="none" stroke="midnightblue" d="M2757.34,-251.37C2871.77,-241.04 3198.96,-211.49 3325.39,-200.08"/>
<polygon fill="midnightblue" stroke="midnightblue" points="3325.92,-203.55 3335.57,-199.16 3325.29,-196.57 3325.92,-203.55"/>
</g>
<!-- Node54&#45;&gt;Node9 -->
<g id="edge151" class="edge">
<title>Node54&#45;&gt;Node9</title>
<path fill="none" stroke="midnightblue" d="M2837.09,-529.77C2685.9,-516.71 2286.47,-480.37 1955.11,-434 1738.46,-403.68 1194.97,-327.79 985.11,-266 954.54,-257 880.13,-226.89 853.11,-210 814.64,-185.96 806.4,-176.77 776.11,-143 761.09,-126.25 746.75,-104.74 737.51,-89.91"/>
<polygon fill="midnightblue" stroke="midnightblue" points="740.41,-87.96 732.21,-81.25 734.44,-91.61 740.41,-87.96"/>
</g>
<!-- Node54&#45;&gt;Node16 -->
<g id="edge150" class="edge">
<title>Node54&#45;&gt;Node16</title>
<path fill="none" stroke="midnightblue" d="M2915.92,-526.42C2931.93,-517.97 2956.43,-504.28 2976.11,-490 3144.54,-367.79 3150.2,-290.16 3326.11,-179 3360.79,-157.08 3388.45,-177.2 3411.11,-143 3455.38,-76.17 3295.64,-70.8 3224.55,-71.59"/>
<polygon fill="midnightblue" stroke="midnightblue" points="3224.29,-68.1 3214.35,-71.76 3224.4,-75.1 3224.29,-68.1"/>
</g>
<!-- Node54&#45;&gt;Node38 -->
<g id="edge143" class="edge">
<title>Node54&#45;&gt;Node38</title>
<path fill="none" stroke="midnightblue" d="M2841.59,-526.44C2773.8,-516.36 2661.81,-499.7 2593.9,-489.6"/>
<polygon fill="midnightblue" stroke="midnightblue" points="2594.21,-486.1 2583.81,-488.1 2593.18,-493.03 2594.21,-486.1"/>
</g>
<!-- Node55 -->
<g id="node55" class="node">
<title>Node55</title>
<g id="a_node55"><a xlink:title=" ">
<polygon fill="white" stroke="#bfbfbf" points="2803.11,-470.5 2803.11,-489.5 2947.11,-489.5 2947.11,-470.5 2803.11,-470.5"/>
<text text-anchor="middle" x="2875.11" y="-477.5" font-family="Helvetica,sans-Serif" font-size="10.00">tvm/ffi/container/variant.h</text>
</a>
</g>
</g>
<!-- Node54&#45;&gt;Node55 -->
<g id="edge142" class="edge">
<title>Node54&#45;&gt;Node55</title>
<path fill="none" stroke="midnightblue" d="M2895.15,-526.08C2891.9,-518.77 2887.19,-508.18 2883.16,-499.1"/>
<polygon fill="midnightblue" stroke="midnightblue" points="2886.26,-497.47 2879,-489.75 2879.86,-500.31 2886.26,-497.47"/>
</g>
<!-- Node54&#45;&gt;Node56 -->
<g id="edge144" class="edge">
<title>Node54&#45;&gt;Node56</title>
<path fill="none" stroke="midnightblue" d="M2914.64,-526.46C2927.55,-518.6 2945.46,-505.78 2956.11,-490 2972.94,-465.05 2975.11,-455.1 2975.11,-425 2975.11,-425 2975.11,-425 2975.11,-367 2975.11,-332.81 2958.51,-295.76 2947.25,-274.57"/>
<polygon fill="midnightblue" stroke="midnightblue" points="2950.29,-272.83 2942.39,-265.77 2944.16,-276.22 2950.29,-272.83"/>
</g>
<!-- Node56&#45;&gt;Node3 -->
<g id="edge146" class="edge">
<title>Node56&#45;&gt;Node3</title>
<path fill="none" stroke="midnightblue" d="M2915.33,-246.48C2889.37,-236.31 2845.8,-219.26 2816.28,-207.7"/>
<polygon fill="midnightblue" stroke="midnightblue" points="2817.44,-204.4 2806.85,-204.01 2814.88,-210.91 2817.44,-204.4"/>
</g>
<!-- Node56&#45;&gt;Node7 -->
<g id="edge145" class="edge">
<title>Node56&#45;&gt;Node7</title>
<path fill="none" stroke="midnightblue" d="M2896.97,-246.46C2856.33,-237.71 2791.71,-223.5 2736.11,-210 2647.07,-188.37 2543.35,-160.55 2487.25,-145.28"/>
<polygon fill="midnightblue" stroke="midnightblue" points="2487.91,-141.83 2477.34,-142.58 2486.07,-148.59 2487.91,-141.83"/>
</g>
<!-- Node56&#45;&gt;Node16 -->
<g id="edge149" class="edge">
<title>Node56&#45;&gt;Node16</title>
<path fill="none" stroke="midnightblue" d="M2944.58,-246.4C2958.9,-230.49 2991.95,-196.48 3027.11,-179 3092.38,-146.56 3139.59,-198.27 3187.11,-143 3199.21,-128.92 3198.76,-106.87 3196.36,-91.17"/>
<polygon fill="midnightblue" stroke="midnightblue" points="3199.74,-90.24 3194.42,-81.08 3192.87,-91.56 3199.74,-90.24"/>
</g>
<!-- Node56&#45;&gt;Node18 -->
<g id="edge147" class="edge">
<title>Node56&#45;&gt;Node18</title>
<path fill="none" stroke="midnightblue" d="M2927.89,-246.27C2910.67,-230.44 2871.85,-196.99 2833.11,-179 2797.09,-162.27 2754.14,-151.33 2718.69,-144.43"/>
<polygon fill="midnightblue" stroke="midnightblue" points="2718.9,-140.91 2708.42,-142.51 2717.61,-147.79 2718.9,-140.91"/>
</g>
<!-- Node56&#45;&gt;Node25 -->
<g id="edge148" class="edge">
<title>Node56&#45;&gt;Node25</title>
<path fill="none" stroke="midnightblue" d="M2935.89,-246.3C2933.14,-226.76 2926.44,-179.06 2922.72,-152.55"/>
<polygon fill="midnightblue" stroke="midnightblue" points="2926.18,-152.04 2921.32,-142.62 2919.25,-153.01 2926.18,-152.04"/>
</g>
</g>
</svg>
