<?xml version="1.0" encoding="UTF-8" standalone="no"?>
<!DOCTYPE svg PUBLIC "-//W3C//DTD SVG 1.1//EN"
 "http://www.w3.org/Graphics/SVG/1.1/DTD/svg11.dtd">
<!-- Generated by graphviz version 2.43.0 (0)
 -->
<!-- Title: include/tvm/ir/attrs.h Pages: 1 -->
<svg width="1723pt" height="274pt"
 viewBox="0.00 0.00 1723.00 274.00" xmlns="http://www.w3.org/2000/svg" xmlns:xlink="http://www.w3.org/1999/xlink">
<g id="graph0" class="graph" transform="scale(1 1) rotate(0) translate(4 270)">
<title>include/tvm/ir/attrs.h</title>
<polygon fill="white" stroke="transparent" points="-4,4 -4,-270 1719,-270 1719,4 -4,4"/>
<!-- Node1 -->
<g id="node1" class="node">
<title>Node1</title>
<g id="a_node1"><a xlink:title="Helpers for attribute objects.">
<polygon fill="#bfbfbf" stroke="black" points="533,-246.5 533,-265.5 652,-265.5 652,-246.5 533,-246.5"/>
<text text-anchor="middle" x="592.5" y="-253.5" font-family="Helvetica,sans-Serif" font-size="10.00">include/tvm/ir/attrs.h</text>
</a>
</g>
</g>
<!-- Node2 -->
<g id="node2" class="node">
<title>Node2</title>
<g id="a_node2"><a xlink:title=" ">
<polygon fill="white" stroke="#bfbfbf" points="0,-185 0,-204 131,-204 131,-185 0,-185"/>
<text text-anchor="middle" x="65.5" y="-192" font-family="Helvetica,sans-Serif" font-size="10.00">tvm/ffi/container/map.h</text>
</a>
</g>
</g>
<!-- Node1&#45;&gt;Node2 -->
<g id="edge1" class="edge">
<title>Node1&#45;&gt;Node2</title>
<path fill="none" stroke="midnightblue" d="M532.92,-250.88C446.09,-244.48 279.85,-230.67 139.5,-210 131.67,-208.85 123.41,-207.43 115.36,-205.94"/>
<polygon fill="midnightblue" stroke="midnightblue" points="115.8,-202.46 105.32,-204.02 114.49,-209.33 115.8,-202.46"/>
</g>
<!-- Node3 -->
<g id="node3" class="node">
<title>Node3</title>
<g id="a_node3"><a xlink:title=" ">
<polygon fill="white" stroke="#bfbfbf" points="149,-179.5 149,-209.5 276,-209.5 276,-179.5 149,-179.5"/>
<text text-anchor="start" x="157" y="-197.5" font-family="Helvetica,sans-Serif" font-size="10.00">tvm/ffi/extra/structural</text>
<text text-anchor="middle" x="212.5" y="-186.5" font-family="Helvetica,sans-Serif" font-size="10.00">_equal.h</text>
</a>
</g>
</g>
<!-- Node1&#45;&gt;Node3 -->
<g id="edge2" class="edge">
<title>Node1&#45;&gt;Node3</title>
<path fill="none" stroke="midnightblue" d="M532.73,-247.23C472.75,-239.22 377.48,-225.91 286.05,-210.22"/>
<polygon fill="midnightblue" stroke="midnightblue" points="286.52,-206.75 276.07,-208.49 285.33,-213.65 286.52,-206.75"/>
</g>
<!-- Node4 -->
<g id="node4" class="node">
<title>Node4</title>
<g id="a_node4"><a xlink:title=" ">
<polygon fill="white" stroke="#bfbfbf" points="294,-179.5 294,-209.5 421,-209.5 421,-179.5 294,-179.5"/>
<text text-anchor="start" x="302" y="-197.5" font-family="Helvetica,sans-Serif" font-size="10.00">tvm/ffi/extra/structural</text>
<text text-anchor="middle" x="357.5" y="-186.5" font-family="Helvetica,sans-Serif" font-size="10.00">_hash.h</text>
</a>
</g>
</g>
<!-- Node1&#45;&gt;Node4 -->
<g id="edge3" class="edge">
<title>Node1&#45;&gt;Node4</title>
<path fill="none" stroke="midnightblue" d="M558.83,-246.48C523.43,-237.51 466.86,-223.19 422.68,-212"/>
<polygon fill="midnightblue" stroke="midnightblue" points="423.44,-208.58 412.88,-209.52 421.72,-215.37 423.44,-208.58"/>
</g>
<!-- Node5 -->
<g id="node5" class="node">
<title>Node5</title>
<g id="a_node5"><a xlink:title=" ">
<polygon fill="white" stroke="#bfbfbf" points="268,-62 268,-81 369,-81 369,-62 268,-62"/>
<text text-anchor="middle" x="318.5" y="-69" font-family="Helvetica,sans-Serif" font-size="10.00">tvm/ffi/function.h</text>
</a>
</g>
</g>
<!-- Node1&#45;&gt;Node5 -->
<g id="edge4" class="edge">
<title>Node1&#45;&gt;Node5</title>
<path fill="none" stroke="midnightblue" d="M579.45,-246.39C565.76,-237.34 543.6,-222.69 524.5,-210 457.15,-165.24 377.58,-112.04 340.09,-86.95"/>
<polygon fill="midnightblue" stroke="midnightblue" points="341.76,-83.86 331.5,-81.21 337.87,-89.68 341.76,-83.86"/>
</g>
<!-- Node6 -->
<g id="node6" class="node">
<title>Node6</title>
<g id="a_node6"><a xlink:title=" ">
<polygon fill="white" stroke="#bfbfbf" points="387.5,-56.5 387.5,-86.5 485.5,-86.5 485.5,-56.5 387.5,-56.5"/>
<text text-anchor="start" x="395.5" y="-74.5" font-family="Helvetica,sans-Serif" font-size="10.00">tvm/ffi/reflection</text>
<text text-anchor="middle" x="436.5" y="-63.5" font-family="Helvetica,sans-Serif" font-size="10.00">/registry.h</text>
</a>
</g>
</g>
<!-- Node1&#45;&gt;Node6 -->
<g id="edge5" class="edge">
<title>Node1&#45;&gt;Node6</title>
<path fill="none" stroke="midnightblue" d="M584.98,-246.2C561.57,-218.82 489.58,-134.6 455.18,-94.35"/>
<polygon fill="midnightblue" stroke="midnightblue" points="457.79,-92.02 448.63,-86.69 452.47,-96.57 457.79,-92.02"/>
</g>
<!-- Node7 -->
<g id="node7" class="node">
<title>Node7</title>
<g id="a_node7"><a xlink:href="cow_8h.html" target="_top" xlink:title="Copy&#45;on&#45;write helper macro for IR ffi::ObjectRef types.">
<polygon fill="white" stroke="black" points="554,-123.5 554,-142.5 631,-142.5 631,-123.5 554,-123.5"/>
<text text-anchor="middle" x="592.5" y="-130.5" font-family="Helvetica,sans-Serif" font-size="10.00">tvm/ir/cow.h</text>
</a>
</g>
</g>
<!-- Node1&#45;&gt;Node7 -->
<g id="edge6" class="edge">
<title>Node1&#45;&gt;Node7</title>
<path fill="none" stroke="midnightblue" d="M592.5,-246.3C592.5,-226.85 592.5,-179.49 592.5,-152.9"/>
<polygon fill="midnightblue" stroke="midnightblue" points="596,-152.62 592.5,-142.62 589,-152.62 596,-152.62"/>
</g>
<!-- Node9 -->
<g id="node9" class="node">
<title>Node9</title>
<g id="a_node9"><a xlink:title=" ">
<polygon fill="white" stroke="#bfbfbf" points="613,-62 613,-81 658,-81 658,-62 613,-62"/>
<text text-anchor="middle" x="635.5" y="-69" font-family="Helvetica,sans-Serif" font-size="10.00">utility</text>
</a>
</g>
</g>
<!-- Node1&#45;&gt;Node9 -->
<g id="edge40" class="edge">
<title>Node1&#45;&gt;Node9</title>
<path fill="none" stroke="midnightblue" d="M597.53,-246.38C607.89,-228.1 631.3,-183.72 639.5,-143 642.97,-125.74 641.29,-105.66 639.15,-91.35"/>
<polygon fill="midnightblue" stroke="midnightblue" points="642.56,-90.55 637.41,-81.28 635.66,-91.73 642.56,-90.55"/>
</g>
<!-- Node10 -->
<g id="node10" class="node">
<title>Node10</title>
<g id="a_node10"><a xlink:href="ir_2expr_8h.html" target="_top" xlink:title="Base expr nodes in TVM.">
<polygon fill="white" stroke="black" points="1057,-185 1057,-204 1136,-204 1136,-185 1057,-185"/>
<text text-anchor="middle" x="1096.5" y="-192" font-family="Helvetica,sans-Serif" font-size="10.00">tvm/ir/expr.h</text>
</a>
</g>
</g>
<!-- Node1&#45;&gt;Node10 -->
<g id="edge9" class="edge">
<title>Node1&#45;&gt;Node10</title>
<path fill="none" stroke="midnightblue" d="M652.29,-247.94C752.7,-236.09 953.33,-212.4 1046.64,-201.39"/>
<polygon fill="midnightblue" stroke="midnightblue" points="1047.15,-204.85 1056.67,-200.2 1046.33,-197.9 1047.15,-204.85"/>
</g>
<!-- Node18 -->
<g id="node18" class="node">
<title>Node18</title>
<g id="a_node18"><a xlink:title=" ">
<polygon fill="white" stroke="#bfbfbf" points="967.5,-62 967.5,-81 1011.5,-81 1011.5,-62 967.5,-62"/>
<text text-anchor="middle" x="989.5" y="-69" font-family="Helvetica,sans-Serif" font-size="10.00">string</text>
</a>
</g>
</g>
<!-- Node1&#45;&gt;Node18 -->
<g id="edge37" class="edge">
<title>Node1&#45;&gt;Node18</title>
<path fill="none" stroke="midnightblue" d="M609.43,-246.46C646.46,-227.76 737.43,-181.78 813.5,-143 830.85,-134.15 834.57,-130.62 852.5,-123 897.9,-103.69 911.65,-105.2 957.5,-87 958.92,-86.44 960.36,-85.85 961.82,-85.24"/>
<polygon fill="midnightblue" stroke="midnightblue" points="963.58,-88.29 971.35,-81.08 960.79,-81.87 963.58,-88.29"/>
</g>
<!-- Node25 -->
<g id="node25" class="node">
<title>Node25</title>
<g id="a_node25"><a xlink:title=" ">
<polygon fill="white" stroke="#bfbfbf" points="1595,-62 1595,-81 1664,-81 1664,-62 1595,-62"/>
<text text-anchor="middle" x="1629.5" y="-69" font-family="Helvetica,sans-Serif" font-size="10.00">type_traits</text>
</a>
</g>
</g>
<!-- Node1&#45;&gt;Node25 -->
<g id="edge38" class="edge">
<title>Node1&#45;&gt;Node25</title>
<path fill="none" stroke="midnightblue" d="M652.31,-254.43C840.41,-251.68 1416.77,-235.72 1574.5,-143 1595.56,-130.62 1611.51,-106.83 1620.67,-90.33"/>
<polygon fill="midnightblue" stroke="midnightblue" points="1623.93,-91.64 1625.49,-81.16 1617.74,-88.39 1623.93,-91.64"/>
</g>
<!-- Node29 -->
<g id="node29" class="node">
<title>Node29</title>
<g id="a_node29"><a xlink:title=" ">
<polygon fill="white" stroke="#bfbfbf" points="1622,-185 1622,-204 1715,-204 1715,-185 1622,-185"/>
<text text-anchor="middle" x="1668.5" y="-192" font-family="Helvetica,sans-Serif" font-size="10.00">unordered_map</text>
</a>
</g>
</g>
<!-- Node1&#45;&gt;Node29 -->
<g id="edge39" class="edge">
<title>Node1&#45;&gt;Node29</title>
<path fill="none" stroke="midnightblue" d="M652.05,-253.84C840.3,-249.93 1421.13,-236.04 1607.5,-210 1614.01,-209.09 1620.84,-207.8 1627.48,-206.37"/>
<polygon fill="midnightblue" stroke="midnightblue" points="1628.72,-209.67 1637.68,-204.02 1627.15,-202.85 1628.72,-209.67"/>
</g>
<!-- Node8 -->
<g id="node8" class="node">
<title>Node8</title>
<g id="a_node8"><a xlink:title=" ">
<polygon fill="white" stroke="#bfbfbf" points="504,-62 504,-81 595,-81 595,-62 504,-62"/>
<text text-anchor="middle" x="549.5" y="-69" font-family="Helvetica,sans-Serif" font-size="10.00">tvm/ffi/object.h</text>
</a>
</g>
</g>
<!-- Node7&#45;&gt;Node8 -->
<g id="edge7" class="edge">
<title>Node7&#45;&gt;Node8</title>
<path fill="none" stroke="midnightblue" d="M586.34,-123.48C579.89,-114.55 569.6,-100.31 561.53,-89.14"/>
<polygon fill="midnightblue" stroke="midnightblue" points="564.34,-87.06 555.65,-81.01 558.67,-91.16 564.34,-87.06"/>
</g>
<!-- Node7&#45;&gt;Node9 -->
<g id="edge8" class="edge">
<title>Node7&#45;&gt;Node9</title>
<path fill="none" stroke="midnightblue" d="M598.66,-123.48C605.11,-114.55 615.4,-100.31 623.47,-89.14"/>
<polygon fill="midnightblue" stroke="midnightblue" points="626.33,-91.16 629.35,-81.01 620.66,-87.06 626.33,-91.16"/>
</g>
<!-- Node10&#45;&gt;Node6 -->
<g id="edge11" class="edge">
<title>Node10&#45;&gt;Node6</title>
<path fill="none" stroke="midnightblue" d="M1056.72,-192.35C946.56,-188.76 639.37,-176 544.5,-143 512.9,-132.01 481.4,-109.83 460.64,-93.27"/>
<polygon fill="midnightblue" stroke="midnightblue" points="462.66,-90.4 452.7,-86.79 458.24,-95.82 462.66,-90.4"/>
</g>
<!-- Node10&#45;&gt;Node7 -->
<g id="edge13" class="edge">
<title>Node10&#45;&gt;Node7</title>
<path fill="none" stroke="midnightblue" d="M1056.95,-188.83C965.73,-178.06 740.81,-151.51 641.26,-139.76"/>
<polygon fill="midnightblue" stroke="midnightblue" points="641.51,-136.26 631.17,-138.57 640.69,-143.21 641.51,-136.26"/>
</g>
<!-- Node11 -->
<g id="node11" class="node">
<title>Node11</title>
<g id="a_node11"><a xlink:title=" ">
<polygon fill="white" stroke="#bfbfbf" points="861.5,-123.5 861.5,-142.5 997.5,-142.5 997.5,-123.5 861.5,-123.5"/>
<text text-anchor="middle" x="929.5" y="-130.5" font-family="Helvetica,sans-Serif" font-size="10.00">tvm/ffi/extra/dataclass.h</text>
</a>
</g>
</g>
<!-- Node10&#45;&gt;Node11 -->
<g id="edge10" class="edge">
<title>Node10&#45;&gt;Node11</title>
<path fill="none" stroke="midnightblue" d="M1072.57,-184.98C1043.8,-174.72 995.34,-157.46 962.9,-145.9"/>
<polygon fill="midnightblue" stroke="midnightblue" points="963.98,-142.57 953.38,-142.51 961.63,-149.16 963.98,-142.57"/>
</g>
<!-- Node12 -->
<g id="node12" class="node">
<title>Node12</title>
<g id="a_node12"><a xlink:title=" ">
<polygon fill="white" stroke="#bfbfbf" points="1016,-123.5 1016,-142.5 1105,-142.5 1105,-123.5 1016,-123.5"/>
<text text-anchor="middle" x="1060.5" y="-130.5" font-family="Helvetica,sans-Serif" font-size="10.00">tvm/ffi/string.h</text>
</a>
</g>
</g>
<!-- Node10&#45;&gt;Node12 -->
<g id="edge12" class="edge">
<title>Node10&#45;&gt;Node12</title>
<path fill="none" stroke="midnightblue" d="M1091.34,-184.98C1086.05,-176.23 1077.66,-162.37 1070.97,-151.31"/>
<polygon fill="midnightblue" stroke="midnightblue" points="1073.82,-149.25 1065.65,-142.51 1067.83,-152.88 1073.82,-149.25"/>
</g>
<!-- Node13 -->
<g id="node13" class="node">
<title>Node13</title>
<g id="a_node13"><a xlink:href="source__map_8h.html" target="_top" xlink:title="A map from source names to source code.">
<polygon fill="white" stroke="black" points="688,-123.5 688,-142.5 805,-142.5 805,-123.5 688,-123.5"/>
<text text-anchor="middle" x="746.5" y="-130.5" font-family="Helvetica,sans-Serif" font-size="10.00">tvm/ir/source_map.h</text>
</a>
</g>
</g>
<!-- Node10&#45;&gt;Node13 -->
<g id="edge14" class="edge">
<title>Node10&#45;&gt;Node13</title>
<path fill="none" stroke="midnightblue" d="M1056.69,-186.73C995.64,-176.35 878.46,-156.43 806.91,-144.27"/>
<polygon fill="midnightblue" stroke="midnightblue" points="807.14,-140.76 796.69,-142.53 805.96,-147.66 807.14,-140.76"/>
</g>
<!-- Node10&#45;&gt;Node18 -->
<g id="edge35" class="edge">
<title>Node10&#45;&gt;Node18</title>
<path fill="none" stroke="midnightblue" d="M1102.59,-184.9C1111.76,-170.78 1126.74,-142.32 1113.5,-123 1088.45,-86.44 1061.26,-104.4 1020.5,-87 1019.3,-86.49 1018.08,-85.96 1016.85,-85.42"/>
<polygon fill="midnightblue" stroke="midnightblue" points="1017.99,-82.09 1007.44,-81.14 1015.1,-88.46 1017.99,-82.09"/>
</g>
<!-- Node20 -->
<g id="node20" class="node">
<title>Node20</title>
<g id="a_node20"><a xlink:href="data__type_8h.html" target="_top" xlink:title=" ">
<polygon fill="white" stroke="black" points="1161.5,-123.5 1161.5,-142.5 1299.5,-142.5 1299.5,-123.5 1161.5,-123.5"/>
<text text-anchor="middle" x="1230.5" y="-130.5" font-family="Helvetica,sans-Serif" font-size="10.00">tvm/runtime/data_type.h</text>
</a>
</g>
</g>
<!-- Node10&#45;&gt;Node20 -->
<g id="edge24" class="edge">
<title>Node10&#45;&gt;Node20</title>
<path fill="none" stroke="midnightblue" d="M1115.7,-184.98C1138.29,-174.95 1176,-158.2 1202,-146.65"/>
<polygon fill="midnightblue" stroke="midnightblue" points="1203.62,-149.77 1211.34,-142.51 1200.78,-143.37 1203.62,-149.77"/>
</g>
<!-- Node10&#45;&gt;Node25 -->
<g id="edge36" class="edge">
<title>Node10&#45;&gt;Node25</title>
<path fill="none" stroke="midnightblue" d="M1136.06,-187.14C1179.31,-179.49 1250.23,-164.88 1308.5,-143 1326.37,-136.29 1328.37,-128.95 1346.5,-123 1448.57,-89.52 1481.01,-111.9 1585.5,-87 1588.97,-86.17 1592.56,-85.2 1596.12,-84.15"/>
<polygon fill="midnightblue" stroke="midnightblue" points="1597.46,-87.4 1605.96,-81.07 1595.37,-80.72 1597.46,-87.4"/>
</g>
<!-- Node26 -->
<g id="node26" class="node">
<title>Node26</title>
<g id="a_node26"><a xlink:title=" ">
<polygon fill="white" stroke="#bfbfbf" points="1355.5,-123.5 1355.5,-142.5 1419.5,-142.5 1419.5,-123.5 1355.5,-123.5"/>
<text text-anchor="middle" x="1387.5" y="-130.5" font-family="Helvetica,sans-Serif" font-size="10.00">algorithm</text>
</a>
</g>
</g>
<!-- Node10&#45;&gt;Node26 -->
<g id="edge32" class="edge">
<title>Node10&#45;&gt;Node26</title>
<path fill="none" stroke="midnightblue" d="M1136.05,-185.41C1190.76,-174.23 1289.13,-154.11 1345.25,-142.64"/>
<polygon fill="midnightblue" stroke="midnightblue" points="1346.12,-146.03 1355.21,-140.6 1344.71,-139.18 1346.12,-146.03"/>
</g>
<!-- Node27 -->
<g id="node27" class="node">
<title>Node27</title>
<g id="a_node27"><a xlink:title=" ">
<polygon fill="white" stroke="#bfbfbf" points="1438,-123.5 1438,-142.5 1503,-142.5 1503,-123.5 1438,-123.5"/>
<text text-anchor="middle" x="1470.5" y="-130.5" font-family="Helvetica,sans-Serif" font-size="10.00">functional</text>
</a>
</g>
</g>
<!-- Node10&#45;&gt;Node27 -->
<g id="edge33" class="edge">
<title>Node10&#45;&gt;Node27</title>
<path fill="none" stroke="midnightblue" d="M1136.24,-188.24C1196.82,-180.06 1316.15,-163.26 1427.88,-143.01"/>
<polygon fill="midnightblue" stroke="midnightblue" points="1428.77,-146.41 1437.98,-141.17 1427.51,-139.52 1428.77,-146.41"/>
</g>
<!-- Node28 -->
<g id="node28" class="node">
<title>Node28</title>
<g id="a_node28"><a xlink:title=" ">
<polygon fill="white" stroke="#bfbfbf" points="1521.5,-123.5 1521.5,-142.5 1565.5,-142.5 1565.5,-123.5 1521.5,-123.5"/>
<text text-anchor="middle" x="1543.5" y="-130.5" font-family="Helvetica,sans-Serif" font-size="10.00">limits</text>
</a>
</g>
</g>
<!-- Node10&#45;&gt;Node28 -->
<g id="edge34" class="edge">
<title>Node10&#45;&gt;Node28</title>
<path fill="none" stroke="midnightblue" d="M1136.13,-190.83C1208.83,-185.48 1368.44,-171.59 1511.43,-142.92"/>
<polygon fill="midnightblue" stroke="midnightblue" points="1512.15,-146.35 1521.26,-140.92 1510.76,-139.49 1512.15,-146.35"/>
</g>
<!-- Node13&#45;&gt;Node5 -->
<g id="edge16" class="edge">
<title>Node13&#45;&gt;Node5</title>
<path fill="none" stroke="midnightblue" d="M687.87,-126.94C614.99,-120.16 486.96,-106.67 378.5,-87 372.69,-85.95 366.6,-84.67 360.63,-83.33"/>
<polygon fill="midnightblue" stroke="midnightblue" points="361.27,-79.88 350.74,-81.01 359.68,-86.7 361.27,-79.88"/>
</g>
<!-- Node13&#45;&gt;Node6 -->
<g id="edge17" class="edge">
<title>Node13&#45;&gt;Node6</title>
<path fill="none" stroke="midnightblue" d="M692.71,-123.49C643.74,-115.49 569.25,-102.71 495.71,-87.18"/>
<polygon fill="midnightblue" stroke="midnightblue" points="496.32,-83.73 485.81,-85.07 494.86,-90.58 496.32,-83.73"/>
</g>
<!-- Node13&#45;&gt;Node9 -->
<g id="edge22" class="edge">
<title>Node13&#45;&gt;Node9</title>
<path fill="none" stroke="midnightblue" d="M730.6,-123.48C712.22,-113.62 681.74,-97.29 660.26,-85.77"/>
<polygon fill="midnightblue" stroke="midnightblue" points="661.84,-82.65 651.37,-81.01 658.53,-88.82 661.84,-82.65"/>
</g>
<!-- Node14 -->
<g id="node14" class="node">
<title>Node14</title>
<g id="a_node14"><a xlink:title=" ">
<polygon fill="white" stroke="#bfbfbf" points="676.5,-62 676.5,-81 810.5,-81 810.5,-62 676.5,-62"/>
<text text-anchor="middle" x="743.5" y="-69" font-family="Helvetica,sans-Serif" font-size="10.00">tvm/ffi/container/array.h</text>
</a>
</g>
</g>
<!-- Node13&#45;&gt;Node14 -->
<g id="edge15" class="edge">
<title>Node13&#45;&gt;Node14</title>
<path fill="none" stroke="midnightblue" d="M746.07,-123.48C745.65,-115.08 744.99,-101.98 744.44,-91.16"/>
<polygon fill="midnightblue" stroke="midnightblue" points="747.93,-90.82 743.93,-81.01 740.94,-91.17 747.93,-90.82"/>
</g>
<!-- Node15 -->
<g id="node15" class="node">
<title>Node15</title>
<g id="a_node15"><a xlink:href="runtime_2base_8h.html" target="_top" xlink:title=" ">
<polygon fill="white" stroke="black" points="1030,-62 1030,-81 1143,-81 1143,-62 1030,-62"/>
<text text-anchor="middle" x="1086.5" y="-69" font-family="Helvetica,sans-Serif" font-size="10.00">tvm/runtime/base.h</text>
</a>
</g>
</g>
<!-- Node13&#45;&gt;Node15 -->
<g id="edge18" class="edge">
<title>Node13&#45;&gt;Node15</title>
<path fill="none" stroke="midnightblue" d="M803.86,-123.49C859.41,-115.04 945.93,-101.3 1020.5,-87 1026.62,-85.83 1033.05,-84.51 1039.39,-83.17"/>
<polygon fill="midnightblue" stroke="midnightblue" points="1040.19,-86.58 1049.22,-81.05 1038.71,-79.74 1040.19,-86.58"/>
</g>
<!-- Node17 -->
<g id="node17" class="node">
<title>Node17</title>
<g id="a_node17"><a xlink:title=" ">
<polygon fill="white" stroke="#bfbfbf" points="829,-62 829,-81 884,-81 884,-62 829,-62"/>
<text text-anchor="middle" x="856.5" y="-69" font-family="Helvetica,sans-Serif" font-size="10.00">fstream</text>
</a>
</g>
</g>
<!-- Node13&#45;&gt;Node17 -->
<g id="edge20" class="edge">
<title>Node13&#45;&gt;Node17</title>
<path fill="none" stroke="midnightblue" d="M762.26,-123.48C780.48,-113.62 810.67,-97.29 831.97,-85.77"/>
<polygon fill="midnightblue" stroke="midnightblue" points="833.64,-88.85 840.77,-81.01 830.31,-82.69 833.64,-88.85"/>
</g>
<!-- Node13&#45;&gt;Node18 -->
<g id="edge21" class="edge">
<title>Node13&#45;&gt;Node18</title>
<path fill="none" stroke="midnightblue" d="M802.45,-123.45C845.49,-116.07 906.09,-103.91 957.5,-87 959.37,-86.39 961.27,-85.7 963.18,-84.96"/>
<polygon fill="midnightblue" stroke="midnightblue" points="964.65,-88.14 972.5,-81.02 961.93,-81.69 964.65,-88.14"/>
</g>
<!-- Node19 -->
<g id="node19" class="node">
<title>Node19</title>
<g id="a_node19"><a xlink:title=" ">
<polygon fill="white" stroke="#bfbfbf" points="902,-62 902,-81 949,-81 949,-62 902,-62"/>
<text text-anchor="middle" x="925.5" y="-69" font-family="Helvetica,sans-Serif" font-size="10.00">vector</text>
</a>
</g>
</g>
<!-- Node13&#45;&gt;Node19 -->
<g id="edge23" class="edge">
<title>Node13&#45;&gt;Node19</title>
<path fill="none" stroke="midnightblue" d="M777.89,-123.46C807.7,-115.08 853.6,-101.49 892.5,-87 894.15,-86.38 895.84,-85.73 897.54,-85.05"/>
<polygon fill="midnightblue" stroke="midnightblue" points="899.29,-88.11 907.15,-81.01 896.58,-81.66 899.29,-88.11"/>
</g>
<!-- Node16 -->
<g id="node16" class="node">
<title>Node16</title>
<g id="a_node16"><a xlink:title=" ">
<polygon fill="white" stroke="#bfbfbf" points="1043.5,-0.5 1043.5,-19.5 1129.5,-19.5 1129.5,-0.5 1043.5,-0.5"/>
<text text-anchor="middle" x="1086.5" y="-7.5" font-family="Helvetica,sans-Serif" font-size="10.00">tvm/ffi/c_api.h</text>
</a>
</g>
</g>
<!-- Node15&#45;&gt;Node16 -->
<g id="edge19" class="edge">
<title>Node15&#45;&gt;Node16</title>
<path fill="none" stroke="midnightblue" d="M1086.5,-61.98C1086.5,-53.58 1086.5,-40.48 1086.5,-29.66"/>
<polygon fill="midnightblue" stroke="midnightblue" points="1090,-29.51 1086.5,-19.51 1083,-29.51 1090,-29.51"/>
</g>
<!-- Node20&#45;&gt;Node15 -->
<g id="edge28" class="edge">
<title>Node20&#45;&gt;Node15</title>
<path fill="none" stroke="midnightblue" d="M1209.87,-123.48C1185.38,-113.36 1144.35,-96.4 1116.39,-84.85"/>
<polygon fill="midnightblue" stroke="midnightblue" points="1117.67,-81.59 1107.09,-81.01 1115,-88.06 1117.67,-81.59"/>
</g>
<!-- Node20&#45;&gt;Node18 -->
<g id="edge30" class="edge">
<title>Node20&#45;&gt;Node18</title>
<path fill="none" stroke="midnightblue" d="M1173.86,-123.44C1131.06,-116.12 1071.22,-104.05 1020.5,-87 1018.84,-86.44 1017.14,-85.82 1015.45,-85.15"/>
<polygon fill="midnightblue" stroke="midnightblue" points="1016.51,-81.8 1005.95,-81.04 1013.73,-88.22 1016.51,-81.8"/>
</g>
<!-- Node21 -->
<g id="node21" class="node">
<title>Node21</title>
<g id="a_node21"><a xlink:title=" ">
<polygon fill="white" stroke="#bfbfbf" points="1161,-62 1161,-81 1300,-81 1300,-62 1161,-62"/>
<text text-anchor="middle" x="1230.5" y="-69" font-family="Helvetica,sans-Serif" font-size="10.00">tvm/ffi/container/shape.h</text>
</a>
</g>
</g>
<!-- Node20&#45;&gt;Node21 -->
<g id="edge25" class="edge">
<title>Node20&#45;&gt;Node21</title>
<path fill="none" stroke="midnightblue" d="M1230.5,-123.48C1230.5,-115.08 1230.5,-101.98 1230.5,-91.16"/>
<polygon fill="midnightblue" stroke="midnightblue" points="1234,-91.01 1230.5,-81.01 1227,-91.01 1234,-91.01"/>
</g>
<!-- Node22 -->
<g id="node22" class="node">
<title>Node22</title>
<g id="a_node22"><a xlink:title=" ">
<polygon fill="white" stroke="#bfbfbf" points="1318,-62 1318,-81 1407,-81 1407,-62 1318,-62"/>
<text text-anchor="middle" x="1362.5" y="-69" font-family="Helvetica,sans-Serif" font-size="10.00">tvm/ffi/dtype.h</text>
</a>
</g>
</g>
<!-- Node20&#45;&gt;Node22 -->
<g id="edge26" class="edge">
<title>Node20&#45;&gt;Node22</title>
<path fill="none" stroke="midnightblue" d="M1249.41,-123.48C1271.66,-113.45 1308.81,-96.7 1334.43,-85.15"/>
<polygon fill="midnightblue" stroke="midnightblue" points="1335.94,-88.31 1343.62,-81.01 1333.07,-81.93 1335.94,-88.31"/>
</g>
<!-- Node23 -->
<g id="node23" class="node">
<title>Node23</title>
<g id="a_node23"><a xlink:title=" ">
<polygon fill="white" stroke="#bfbfbf" points="1425,-62 1425,-81 1508,-81 1508,-62 1425,-62"/>
<text text-anchor="middle" x="1466.5" y="-69" font-family="Helvetica,sans-Serif" font-size="10.00">tvm/ffi/error.h</text>
</a>
</g>
</g>
<!-- Node20&#45;&gt;Node23 -->
<g id="edge27" class="edge">
<title>Node20&#45;&gt;Node23</title>
<path fill="none" stroke="midnightblue" d="M1268.03,-123.44C1305.69,-114.73 1365.29,-100.61 1416.5,-87 1420.32,-85.98 1424.3,-84.89 1428.26,-83.78"/>
<polygon fill="midnightblue" stroke="midnightblue" points="1429.35,-87.11 1438.01,-81 1427.43,-80.38 1429.35,-87.11"/>
</g>
<!-- Node24 -->
<g id="node24" class="node">
<title>Node24</title>
<g id="a_node24"><a xlink:title=" ">
<polygon fill="white" stroke="#bfbfbf" points="1526.5,-62 1526.5,-81 1576.5,-81 1576.5,-62 1526.5,-62"/>
<text text-anchor="middle" x="1551.5" y="-69" font-family="Helvetica,sans-Serif" font-size="10.00">cstring</text>
</a>
</g>
</g>
<!-- Node20&#45;&gt;Node24 -->
<g id="edge29" class="edge">
<title>Node20&#45;&gt;Node24</title>
<path fill="none" stroke="midnightblue" d="M1297.38,-123.46C1368.86,-113.99 1477.32,-98.52 1517.5,-87 1519.79,-86.34 1522.13,-85.57 1524.46,-84.73"/>
<polygon fill="midnightblue" stroke="midnightblue" points="1525.8,-87.97 1533.8,-81.03 1523.22,-81.46 1525.8,-87.97"/>
</g>
<!-- Node20&#45;&gt;Node25 -->
<g id="edge31" class="edge">
<title>Node20&#45;&gt;Node25</title>
<path fill="none" stroke="midnightblue" d="M1299.77,-123.95C1395.17,-112.74 1558.34,-93.14 1585.5,-87 1589.17,-86.17 1592.96,-85.16 1596.72,-84.06"/>
<polygon fill="midnightblue" stroke="midnightblue" points="1597.94,-87.35 1606.44,-81.02 1595.85,-80.67 1597.94,-87.35"/>
</g>
</g>
</svg>
