<?xml version="1.0" encoding="UTF-8" standalone="no"?>
<!DOCTYPE svg PUBLIC "-//W3C//DTD SVG 1.1//EN"
 "http://www.w3.org/Graphics/SVG/1.1/DTD/svg11.dtd">
<!-- Generated by graphviz version 2.43.0 (0)
 -->
<!-- Title: include/tvm/ir/attrs.h Pages: 1 -->
<svg width="1768pt" height="274pt"
 viewBox="0.00 0.00 1767.50 274.00" xmlns="http://www.w3.org/2000/svg" xmlns:xlink="http://www.w3.org/1999/xlink">
<g id="graph0" class="graph" transform="scale(1 1) rotate(0) translate(4 270)">
<title>include/tvm/ir/attrs.h</title>
<polygon fill="white" stroke="transparent" points="-4,4 -4,-270 1763.5,-270 1763.5,4 -4,4"/>
<!-- Node1 -->
<g id="node1" class="node">
<title>Node1</title>
<g id="a_node1"><a xlink:title="Helpers for attribute objects.">
<polygon fill="#bfbfbf" stroke="black" points="698,-246.5 698,-265.5 817,-265.5 817,-246.5 698,-246.5"/>
<text text-anchor="middle" x="757.5" y="-253.5" font-family="Helvetica,sans-Serif" font-size="10.00">include/tvm/ir/attrs.h</text>
</a>
</g>
</g>
<!-- Node2 -->
<g id="node2" class="node">
<title>Node2</title>
<g id="a_node2"><a xlink:title=" ">
<polygon fill="white" stroke="#bfbfbf" points="0,-185 0,-204 131,-204 131,-185 0,-185"/>
<text text-anchor="middle" x="65.5" y="-192" font-family="Helvetica,sans-Serif" font-size="10.00">tvm/ffi/container/map.h</text>
</a>
</g>
</g>
<!-- Node1&#45;&gt;Node2 -->
<g id="edge1" class="edge">
<title>Node1&#45;&gt;Node2</title>
<path fill="none" stroke="midnightblue" d="M697.6,-253.04C586.93,-248.9 343.15,-237.27 139.5,-210 131.38,-208.91 122.81,-207.49 114.5,-205.96"/>
<polygon fill="midnightblue" stroke="midnightblue" points="115,-202.5 104.53,-204.06 113.69,-209.37 115,-202.5"/>
</g>
<!-- Node3 -->
<g id="node3" class="node">
<title>Node3</title>
<g id="a_node3"><a xlink:title=" ">
<polygon fill="white" stroke="#bfbfbf" points="149,-179.5 149,-209.5 276,-209.5 276,-179.5 149,-179.5"/>
<text text-anchor="start" x="157" y="-197.5" font-family="Helvetica,sans-Serif" font-size="10.00">tvm/ffi/extra/structural</text>
<text text-anchor="middle" x="212.5" y="-186.5" font-family="Helvetica,sans-Serif" font-size="10.00">_equal.h</text>
</a>
</g>
</g>
<!-- Node1&#45;&gt;Node3 -->
<g id="edge2" class="edge">
<title>Node1&#45;&gt;Node3</title>
<path fill="none" stroke="midnightblue" d="M697.9,-251.32C609.91,-245.46 439.91,-232.44 286.14,-210.15"/>
<polygon fill="midnightblue" stroke="midnightblue" points="286.44,-206.66 276.04,-208.67 285.43,-213.58 286.44,-206.66"/>
</g>
<!-- Node4 -->
<g id="node4" class="node">
<title>Node4</title>
<g id="a_node4"><a xlink:title=" ">
<polygon fill="white" stroke="#bfbfbf" points="294,-179.5 294,-209.5 421,-209.5 421,-179.5 294,-179.5"/>
<text text-anchor="start" x="302" y="-197.5" font-family="Helvetica,sans-Serif" font-size="10.00">tvm/ffi/extra/structural</text>
<text text-anchor="middle" x="357.5" y="-186.5" font-family="Helvetica,sans-Serif" font-size="10.00">_hash.h</text>
</a>
</g>
</g>
<!-- Node1&#45;&gt;Node4 -->
<g id="edge3" class="edge">
<title>Node1&#45;&gt;Node4</title>
<path fill="none" stroke="midnightblue" d="M697.74,-247.46C633,-239.11 526.73,-224.85 435.5,-210 434.2,-209.79 432.89,-209.57 431.57,-209.35"/>
<polygon fill="midnightblue" stroke="midnightblue" points="431.76,-205.83 421.31,-207.6 430.58,-212.73 431.76,-205.83"/>
</g>
<!-- Node5 -->
<g id="node5" class="node">
<title>Node5</title>
<g id="a_node5"><a xlink:title=" ">
<polygon fill="white" stroke="#bfbfbf" points="1542,-62 1542,-81 1643,-81 1643,-62 1542,-62"/>
<text text-anchor="middle" x="1592.5" y="-69" font-family="Helvetica,sans-Serif" font-size="10.00">tvm/ffi/function.h</text>
</a>
</g>
</g>
<!-- Node1&#45;&gt;Node5 -->
<g id="edge4" class="edge">
<title>Node1&#45;&gt;Node5</title>
<path fill="none" stroke="midnightblue" d="M817.05,-252.75C911.03,-248.51 1099.22,-237.17 1256.5,-210 1374.09,-189.69 1411.78,-200.21 1516.5,-143 1541.55,-129.31 1564.74,-105.52 1578.75,-89.4"/>
<polygon fill="midnightblue" stroke="midnightblue" points="1581.77,-91.25 1585.55,-81.35 1576.42,-86.73 1581.77,-91.25"/>
</g>
<!-- Node6 -->
<g id="node6" class="node">
<title>Node6</title>
<g id="a_node6"><a xlink:title=" ">
<polygon fill="white" stroke="#bfbfbf" points="1661.5,-56.5 1661.5,-86.5 1759.5,-86.5 1759.5,-56.5 1661.5,-56.5"/>
<text text-anchor="start" x="1669.5" y="-74.5" font-family="Helvetica,sans-Serif" font-size="10.00">tvm/ffi/reflection</text>
<text text-anchor="middle" x="1710.5" y="-63.5" font-family="Helvetica,sans-Serif" font-size="10.00">/registry.h</text>
</a>
</g>
</g>
<!-- Node1&#45;&gt;Node6 -->
<g id="edge5" class="edge">
<title>Node1&#45;&gt;Node6</title>
<path fill="none" stroke="midnightblue" d="M817,-255.29C925.65,-254.79 1162.99,-248.82 1358.5,-210 1452.1,-191.41 1473.91,-178.48 1562.5,-143 1601.6,-127.34 1644.95,-106.23 1674.57,-91.2"/>
<polygon fill="midnightblue" stroke="midnightblue" points="1676.37,-94.21 1683.68,-86.55 1673.19,-87.98 1676.37,-94.21"/>
</g>
<!-- Node7 -->
<g id="node7" class="node">
<title>Node7</title>
<g id="a_node7"><a xlink:href="cow_8h.html" target="_top" xlink:title="Copy&#45;on&#45;write helper macro for IR ffi::ObjectRef types.">
<polygon fill="white" stroke="black" points="400,-123.5 400,-142.5 477,-142.5 477,-123.5 400,-123.5"/>
<text text-anchor="middle" x="438.5" y="-130.5" font-family="Helvetica,sans-Serif" font-size="10.00">tvm/ir/cow.h</text>
</a>
</g>
</g>
<!-- Node1&#45;&gt;Node7 -->
<g id="edge6" class="edge">
<title>Node1&#45;&gt;Node7</title>
<path fill="none" stroke="midnightblue" d="M735.07,-246.49C679.61,-225.45 535.84,-170.92 471.03,-146.34"/>
<polygon fill="midnightblue" stroke="midnightblue" points="471.92,-142.94 461.33,-142.66 469.44,-149.48 471.92,-142.94"/>
</g>
<!-- Node9 -->
<g id="node9" class="node">
<title>Node9</title>
<g id="a_node9"><a xlink:title=" ">
<polygon fill="white" stroke="#bfbfbf" points="51,-62 51,-81 96,-81 96,-62 51,-62"/>
<text text-anchor="middle" x="73.5" y="-69" font-family="Helvetica,sans-Serif" font-size="10.00">utility</text>
</a>
</g>
</g>
<!-- Node1&#45;&gt;Node9 -->
<g id="edge48" class="edge">
<title>Node1&#45;&gt;Node9</title>
<path fill="none" stroke="midnightblue" d="M716.95,-246.49C676.26,-237.81 611.86,-223.72 556.5,-210 455.46,-184.96 202.23,-122.85 104.5,-87 102.89,-86.41 101.25,-85.77 99.6,-85.09"/>
<polygon fill="midnightblue" stroke="midnightblue" points="100.89,-81.84 90.33,-81.01 98.08,-88.24 100.89,-81.84"/>
</g>
<!-- Node10 -->
<g id="node10" class="node">
<title>Node10</title>
<g id="a_node10"><a xlink:href="ir_2expr_8h.html" target="_top" xlink:title="Base expr nodes in TVM.">
<polygon fill="white" stroke="black" points="983,-185 983,-204 1062,-204 1062,-185 983,-185"/>
<text text-anchor="middle" x="1022.5" y="-192" font-family="Helvetica,sans-Serif" font-size="10.00">tvm/ir/expr.h</text>
</a>
</g>
</g>
<!-- Node1&#45;&gt;Node10 -->
<g id="edge9" class="edge">
<title>Node1&#45;&gt;Node10</title>
<path fill="none" stroke="midnightblue" d="M795.47,-246.48C842.7,-235.87 923.36,-217.76 974.74,-206.22"/>
<polygon fill="midnightblue" stroke="midnightblue" points="975.61,-209.61 984.6,-204.01 974.08,-202.78 975.61,-209.61"/>
</g>
<!-- Node24 -->
<g id="node24" class="node">
<title>Node24</title>
<g id="a_node24"><a xlink:title=" ">
<polygon fill="white" stroke="#bfbfbf" points="970.5,-62 970.5,-81 1014.5,-81 1014.5,-62 970.5,-62"/>
<text text-anchor="middle" x="992.5" y="-69" font-family="Helvetica,sans-Serif" font-size="10.00">string</text>
</a>
</g>
</g>
<!-- Node1&#45;&gt;Node24 -->
<g id="edge45" class="edge">
<title>Node1&#45;&gt;Node24</title>
<path fill="none" stroke="midnightblue" d="M757.11,-246.4C756.56,-222.87 758.47,-156.94 794.5,-123 849.45,-71.24 888.83,-110.71 960.5,-87 962.37,-86.38 964.27,-85.69 966.18,-84.95"/>
<polygon fill="midnightblue" stroke="midnightblue" points="967.65,-88.13 975.5,-81.01 964.92,-81.68 967.65,-88.13"/>
</g>
<!-- Node29 -->
<g id="node29" class="node">
<title>Node29</title>
<g id="a_node29"><a xlink:title=" ">
<polygon fill="white" stroke="#bfbfbf" points="1033,-62 1033,-81 1102,-81 1102,-62 1033,-62"/>
<text text-anchor="middle" x="1067.5" y="-69" font-family="Helvetica,sans-Serif" font-size="10.00">type_traits</text>
</a>
</g>
</g>
<!-- Node1&#45;&gt;Node29 -->
<g id="edge46" class="edge">
<title>Node1&#45;&gt;Node29</title>
<path fill="none" stroke="midnightblue" d="M817.01,-253.08C952.71,-247.31 1278.24,-225.01 1342.5,-143 1347.98,-136 1348.28,-129.75 1342.5,-123 1308.71,-83.54 1162.01,-99.17 1111.5,-87 1108.03,-86.16 1104.45,-85.18 1100.89,-84.13"/>
<polygon fill="midnightblue" stroke="midnightblue" points="1101.63,-80.7 1091.04,-81.05 1099.54,-87.38 1101.63,-80.7"/>
</g>
<!-- Node33 -->
<g id="node33" class="node">
<title>Node33</title>
<g id="a_node33"><a xlink:title=" ">
<polygon fill="white" stroke="#bfbfbf" points="1640,-185 1640,-204 1733,-204 1733,-185 1640,-185"/>
<text text-anchor="middle" x="1686.5" y="-192" font-family="Helvetica,sans-Serif" font-size="10.00">unordered_map</text>
</a>
</g>
</g>
<!-- Node1&#45;&gt;Node33 -->
<g id="edge47" class="edge">
<title>Node1&#45;&gt;Node33</title>
<path fill="none" stroke="midnightblue" d="M817.06,-255.62C958.23,-256.29 1323.97,-253.29 1625.5,-210 1631.93,-209.08 1638.69,-207.79 1645.26,-206.37"/>
<polygon fill="midnightblue" stroke="midnightblue" points="1646.4,-209.7 1655.36,-204.05 1644.83,-202.88 1646.4,-209.7"/>
</g>
<!-- Node8 -->
<g id="node8" class="node">
<title>Node8</title>
<g id="a_node8"><a xlink:title=" ">
<polygon fill="white" stroke="#bfbfbf" points="114,-62 114,-81 205,-81 205,-62 114,-62"/>
<text text-anchor="middle" x="159.5" y="-69" font-family="Helvetica,sans-Serif" font-size="10.00">tvm/ffi/object.h</text>
</a>
</g>
</g>
<!-- Node7&#45;&gt;Node8 -->
<g id="edge7" class="edge">
<title>Node7&#45;&gt;Node8</title>
<path fill="none" stroke="midnightblue" d="M399.72,-125.04C354.74,-116.78 278.47,-102.2 213.5,-87 209.07,-85.96 204.46,-84.82 199.88,-83.65"/>
<polygon fill="midnightblue" stroke="midnightblue" points="200.53,-80.2 189.97,-81.05 198.76,-86.97 200.53,-80.2"/>
</g>
<!-- Node7&#45;&gt;Node9 -->
<g id="edge8" class="edge">
<title>Node7&#45;&gt;Node9</title>
<path fill="none" stroke="midnightblue" d="M399.74,-125.23C394.95,-124.45 390.12,-123.69 385.5,-123 260.96,-104.46 225.42,-122.09 104.5,-87 102.57,-86.44 100.62,-85.78 98.67,-85.05"/>
<polygon fill="midnightblue" stroke="midnightblue" points="99.79,-81.72 89.22,-81 97.04,-88.16 99.79,-81.72"/>
</g>
<!-- Node10&#45;&gt;Node6 -->
<g id="edge11" class="edge">
<title>Node10&#45;&gt;Node6</title>
<path fill="none" stroke="midnightblue" d="M1062.1,-192.75C1146.63,-190.44 1350.53,-181.02 1516.5,-143 1571.08,-130.5 1631.31,-106.99 1669.96,-90.57"/>
<polygon fill="midnightblue" stroke="midnightblue" points="1671.49,-93.72 1679.3,-86.56 1668.73,-87.29 1671.49,-93.72"/>
</g>
<!-- Node10&#45;&gt;Node7 -->
<g id="edge21" class="edge">
<title>Node10&#45;&gt;Node7</title>
<path fill="none" stroke="midnightblue" d="M982.68,-191C895.05,-185.23 678.71,-169.5 487.19,-142.97"/>
<polygon fill="midnightblue" stroke="midnightblue" points="487.61,-139.49 477.22,-141.57 486.64,-146.43 487.61,-139.49"/>
</g>
<!-- Node11 -->
<g id="node11" class="node">
<title>Node11</title>
<g id="a_node11"><a xlink:title=" ">
<polygon fill="white" stroke="#bfbfbf" points="823.5,-123.5 823.5,-142.5 959.5,-142.5 959.5,-123.5 823.5,-123.5"/>
<text text-anchor="middle" x="891.5" y="-130.5" font-family="Helvetica,sans-Serif" font-size="10.00">tvm/ffi/extra/dataclass.h</text>
</a>
</g>
</g>
<!-- Node10&#45;&gt;Node11 -->
<g id="edge10" class="edge">
<title>Node10&#45;&gt;Node11</title>
<path fill="none" stroke="midnightblue" d="M1003.73,-184.98C981.65,-174.95 944.78,-158.2 919.36,-146.65"/>
<polygon fill="midnightblue" stroke="midnightblue" points="920.79,-143.46 910.23,-142.51 917.89,-149.83 920.79,-143.46"/>
</g>
<!-- Node12 -->
<g id="node12" class="node">
<title>Node12</title>
<g id="a_node12"><a xlink:title=" ">
<polygon fill="white" stroke="#bfbfbf" points="978,-123.5 978,-142.5 1067,-142.5 1067,-123.5 978,-123.5"/>
<text text-anchor="middle" x="1022.5" y="-130.5" font-family="Helvetica,sans-Serif" font-size="10.00">tvm/ffi/string.h</text>
</a>
</g>
</g>
<!-- Node10&#45;&gt;Node12 -->
<g id="edge12" class="edge">
<title>Node10&#45;&gt;Node12</title>
<path fill="none" stroke="midnightblue" d="M1022.5,-184.98C1022.5,-176.58 1022.5,-163.48 1022.5,-152.66"/>
<polygon fill="midnightblue" stroke="midnightblue" points="1026,-152.51 1022.5,-142.51 1019,-152.51 1026,-152.51"/>
</g>
<!-- Node13 -->
<g id="node13" class="node">
<title>Node13</title>
<g id="a_node13"><a xlink:href="cast_8h.html" target="_top" xlink:title="Value casting helpers.">
<polygon fill="white" stroke="black" points="495.5,-123.5 495.5,-142.5 573.5,-142.5 573.5,-123.5 495.5,-123.5"/>
<text text-anchor="middle" x="534.5" y="-130.5" font-family="Helvetica,sans-Serif" font-size="10.00">tvm/ir/cast.h</text>
</a>
</g>
</g>
<!-- Node10&#45;&gt;Node13 -->
<g id="edge13" class="edge">
<title>Node10&#45;&gt;Node13</title>
<path fill="none" stroke="midnightblue" d="M982.93,-189.91C907.38,-182.85 737.14,-165.95 583.83,-143.11"/>
<polygon fill="midnightblue" stroke="midnightblue" points="584.16,-139.62 573.75,-141.6 583.12,-146.54 584.16,-139.62"/>
</g>
<!-- Node19 -->
<g id="node19" class="node">
<title>Node19</title>
<g id="a_node19"><a xlink:href="source__map_8h.html" target="_top" xlink:title="A map from source names to source code.">
<polygon fill="white" stroke="black" points="1390,-123.5 1390,-142.5 1507,-142.5 1507,-123.5 1390,-123.5"/>
<text text-anchor="middle" x="1448.5" y="-130.5" font-family="Helvetica,sans-Serif" font-size="10.00">tvm/ir/source_map.h</text>
</a>
</g>
</g>
<!-- Node10&#45;&gt;Node19 -->
<g id="edge22" class="edge">
<title>Node10&#45;&gt;Node19</title>
<path fill="none" stroke="midnightblue" d="M1062.19,-187.96C1134.79,-177.82 1289.74,-156.17 1379.79,-143.6"/>
<polygon fill="midnightblue" stroke="midnightblue" points="1380.48,-147.03 1389.9,-142.19 1379.51,-140.1 1380.48,-147.03"/>
</g>
<!-- Node10&#45;&gt;Node24 -->
<g id="edge43" class="edge">
<title>Node10&#45;&gt;Node24</title>
<path fill="none" stroke="midnightblue" d="M982.95,-189.64C928.56,-183.42 835.06,-169.14 814.5,-143 755.06,-67.4 716.87,-171.43 960.5,-87 962.16,-86.42 963.86,-85.79 965.56,-85.13"/>
<polygon fill="midnightblue" stroke="midnightblue" points="967.29,-88.19 975.13,-81.07 964.56,-81.75 967.29,-88.19"/>
</g>
<!-- Node26 -->
<g id="node26" class="node">
<title>Node26</title>
<g id="a_node26"><a xlink:href="data__type_8h.html" target="_top" xlink:title=" ">
<polygon fill="white" stroke="black" points="591.5,-123.5 591.5,-142.5 729.5,-142.5 729.5,-123.5 591.5,-123.5"/>
<text text-anchor="middle" x="660.5" y="-130.5" font-family="Helvetica,sans-Serif" font-size="10.00">tvm/runtime/data_type.h</text>
</a>
</g>
</g>
<!-- Node10&#45;&gt;Node26 -->
<g id="edge32" class="edge">
<title>Node10&#45;&gt;Node26</title>
<path fill="none" stroke="midnightblue" d="M982.72,-186.96C919.84,-176.63 796.96,-156.43 722.45,-144.18"/>
<polygon fill="midnightblue" stroke="midnightblue" points="722.7,-140.68 712.27,-142.51 721.57,-147.58 722.7,-140.68"/>
</g>
<!-- Node10&#45;&gt;Node29 -->
<g id="edge44" class="edge">
<title>Node10&#45;&gt;Node29</title>
<path fill="none" stroke="midnightblue" d="M1036.87,-184.75C1049.72,-175.99 1067.69,-161.22 1075.5,-143 1082.61,-126.4 1078.95,-105.69 1074.53,-91.02"/>
<polygon fill="midnightblue" stroke="midnightblue" points="1077.7,-89.48 1071.16,-81.15 1071.08,-91.74 1077.7,-89.48"/>
</g>
<!-- Node30 -->
<g id="node30" class="node">
<title>Node30</title>
<g id="a_node30"><a xlink:title=" ">
<polygon fill="white" stroke="#bfbfbf" points="1123.5,-123.5 1123.5,-142.5 1187.5,-142.5 1187.5,-123.5 1123.5,-123.5"/>
<text text-anchor="middle" x="1155.5" y="-130.5" font-family="Helvetica,sans-Serif" font-size="10.00">algorithm</text>
</a>
</g>
</g>
<!-- Node10&#45;&gt;Node30 -->
<g id="edge40" class="edge">
<title>Node10&#45;&gt;Node30</title>
<path fill="none" stroke="midnightblue" d="M1041.56,-184.98C1063.97,-174.95 1101.41,-158.2 1127.21,-146.65"/>
<polygon fill="midnightblue" stroke="midnightblue" points="1128.78,-149.79 1136.48,-142.51 1125.92,-143.4 1128.78,-149.79"/>
</g>
<!-- Node31 -->
<g id="node31" class="node">
<title>Node31</title>
<g id="a_node31"><a xlink:title=" ">
<polygon fill="white" stroke="#bfbfbf" points="1206,-123.5 1206,-142.5 1271,-142.5 1271,-123.5 1206,-123.5"/>
<text text-anchor="middle" x="1238.5" y="-130.5" font-family="Helvetica,sans-Serif" font-size="10.00">functional</text>
</a>
</g>
</g>
<!-- Node10&#45;&gt;Node31 -->
<g id="edge41" class="edge">
<title>Node10&#45;&gt;Node31</title>
<path fill="none" stroke="midnightblue" d="M1053.45,-184.98C1091.38,-174.53 1155.78,-156.79 1197.72,-145.23"/>
<polygon fill="midnightblue" stroke="midnightblue" points="1198.9,-148.54 1207.61,-142.51 1197.04,-141.79 1198.9,-148.54"/>
</g>
<!-- Node32 -->
<g id="node32" class="node">
<title>Node32</title>
<g id="a_node32"><a xlink:title=" ">
<polygon fill="white" stroke="#bfbfbf" points="1289.5,-123.5 1289.5,-142.5 1333.5,-142.5 1333.5,-123.5 1289.5,-123.5"/>
<text text-anchor="middle" x="1311.5" y="-130.5" font-family="Helvetica,sans-Serif" font-size="10.00">limits</text>
</a>
</g>
</g>
<!-- Node10&#45;&gt;Node32 -->
<g id="edge42" class="edge">
<title>Node10&#45;&gt;Node32</title>
<path fill="none" stroke="midnightblue" d="M1062.08,-186.89C1110.98,-178.46 1196.9,-162.86 1279.43,-143.1"/>
<polygon fill="midnightblue" stroke="midnightblue" points="1280.32,-146.48 1289.21,-140.73 1278.67,-139.68 1280.32,-146.48"/>
</g>
<!-- Node13&#45;&gt;Node8 -->
<g id="edge18" class="edge">
<title>Node13&#45;&gt;Node8</title>
<path fill="none" stroke="midnightblue" d="M495.48,-124.65C492.11,-124.07 488.75,-123.51 485.5,-123 365.05,-103.98 333.09,-110.86 213.5,-87 208.51,-86 203.3,-84.81 198.17,-83.54"/>
<polygon fill="midnightblue" stroke="midnightblue" points="199.04,-80.15 188.48,-81.03 197.29,-86.92 199.04,-80.15"/>
</g>
<!-- Node13&#45;&gt;Node9 -->
<g id="edge20" class="edge">
<title>Node13&#45;&gt;Node9</title>
<path fill="none" stroke="midnightblue" d="M495.23,-124.48C491.95,-123.94 488.67,-123.44 485.5,-123 317.03,-99.61 268.61,-131.69 104.5,-87 102.57,-86.47 100.6,-85.83 98.65,-85.12"/>
<polygon fill="midnightblue" stroke="midnightblue" points="99.76,-81.79 89.19,-81.11 97.03,-88.24 99.76,-81.79"/>
</g>
<!-- Node14 -->
<g id="node14" class="node">
<title>Node14</title>
<g id="a_node14"><a xlink:title=" ">
<polygon fill="white" stroke="#bfbfbf" points="441,-62 441,-81 518,-81 518,-62 441,-62"/>
<text text-anchor="middle" x="479.5" y="-69" font-family="Helvetica,sans-Serif" font-size="10.00">tvm/ffi/any.h</text>
</a>
</g>
</g>
<!-- Node13&#45;&gt;Node14 -->
<g id="edge14" class="edge">
<title>Node13&#45;&gt;Node14</title>
<path fill="none" stroke="midnightblue" d="M526.62,-123.48C518.21,-114.37 504.68,-99.74 494.27,-88.48"/>
<polygon fill="midnightblue" stroke="midnightblue" points="496.72,-85.98 487.37,-81.01 491.58,-90.73 496.72,-85.98"/>
</g>
<!-- Node15 -->
<g id="node15" class="node">
<title>Node15</title>
<g id="a_node15"><a xlink:title=" ">
<polygon fill="white" stroke="#bfbfbf" points="223,-62 223,-81 304,-81 304,-62 223,-62"/>
<text text-anchor="middle" x="263.5" y="-69" font-family="Helvetica,sans-Serif" font-size="10.00">tvm/ffi/cast.h</text>
</a>
</g>
</g>
<!-- Node13&#45;&gt;Node15 -->
<g id="edge15" class="edge">
<title>Node13&#45;&gt;Node15</title>
<path fill="none" stroke="midnightblue" d="M495.15,-124.45C441.05,-114.01 346.56,-95.47 312.5,-87 308.64,-86.04 304.63,-84.97 300.64,-83.86"/>
<polygon fill="midnightblue" stroke="midnightblue" points="301.43,-80.45 290.85,-81.06 299.5,-87.18 301.43,-80.45"/>
</g>
<!-- Node16 -->
<g id="node16" class="node">
<title>Node16</title>
<g id="a_node16"><a xlink:title=" ">
<polygon fill="white" stroke="#bfbfbf" points="637,-62 637,-81 726,-81 726,-62 637,-62"/>
<text text-anchor="middle" x="681.5" y="-69" font-family="Helvetica,sans-Serif" font-size="10.00">tvm/ffi/dtype.h</text>
</a>
</g>
</g>
<!-- Node13&#45;&gt;Node16 -->
<g id="edge16" class="edge">
<title>Node13&#45;&gt;Node16</title>
<path fill="none" stroke="midnightblue" d="M555.56,-123.48C580.56,-113.36 622.44,-96.4 650.99,-84.85"/>
<polygon fill="midnightblue" stroke="midnightblue" points="652.52,-88.01 660.48,-81.01 649.89,-81.52 652.52,-88.01"/>
</g>
<!-- Node17 -->
<g id="node17" class="node">
<title>Node17</title>
<g id="a_node17"><a xlink:title=" ">
<polygon fill="white" stroke="#bfbfbf" points="536,-62 536,-81 619,-81 619,-62 536,-62"/>
<text text-anchor="middle" x="577.5" y="-69" font-family="Helvetica,sans-Serif" font-size="10.00">tvm/ffi/error.h</text>
</a>
</g>
</g>
<!-- Node13&#45;&gt;Node17 -->
<g id="edge17" class="edge">
<title>Node13&#45;&gt;Node17</title>
<path fill="none" stroke="midnightblue" d="M540.66,-123.48C547.11,-114.55 557.4,-100.31 565.47,-89.14"/>
<polygon fill="midnightblue" stroke="midnightblue" points="568.33,-91.16 571.35,-81.01 562.66,-87.06 568.33,-91.16"/>
</g>
<!-- Node18 -->
<g id="node18" class="node">
<title>Node18</title>
<g id="a_node18"><a xlink:title=" ">
<polygon fill="white" stroke="#bfbfbf" points="322,-62 322,-81 423,-81 423,-62 322,-62"/>
<text text-anchor="middle" x="372.5" y="-69" font-family="Helvetica,sans-Serif" font-size="10.00">tvm/ffi/optional.h</text>
</a>
</g>
</g>
<!-- Node13&#45;&gt;Node18 -->
<g id="edge19" class="edge">
<title>Node13&#45;&gt;Node18</title>
<path fill="none" stroke="midnightblue" d="M511.29,-123.48C483.5,-113.27 436.78,-96.11 405.31,-84.55"/>
<polygon fill="midnightblue" stroke="midnightblue" points="406.26,-81.17 395.67,-81.01 403.85,-87.74 406.26,-81.17"/>
</g>
<!-- Node19&#45;&gt;Node5 -->
<g id="edge24" class="edge">
<title>Node19&#45;&gt;Node5</title>
<path fill="none" stroke="midnightblue" d="M1469.13,-123.48C1493.62,-113.36 1534.65,-96.4 1562.61,-84.85"/>
<polygon fill="midnightblue" stroke="midnightblue" points="1564,-88.06 1571.91,-81.01 1561.33,-81.59 1564,-88.06"/>
</g>
<!-- Node19&#45;&gt;Node6 -->
<g id="edge25" class="edge">
<title>Node19&#45;&gt;Node6</title>
<path fill="none" stroke="midnightblue" d="M1488.83,-123.45C1527.94,-115.08 1589.22,-101.77 1651.48,-87.21"/>
<polygon fill="midnightblue" stroke="midnightblue" points="1652.54,-90.55 1661.48,-84.86 1650.94,-83.74 1652.54,-90.55"/>
</g>
<!-- Node19&#45;&gt;Node9 -->
<g id="edge30" class="edge">
<title>Node19&#45;&gt;Node9</title>
<path fill="none" stroke="midnightblue" d="M1389.95,-126.44C1374.53,-125.14 1357.9,-123.88 1342.5,-123 1205.11,-115.18 238.39,-118.81 104.5,-87 102.29,-86.48 100.05,-85.78 97.84,-84.99"/>
<polygon fill="midnightblue" stroke="midnightblue" points="99.07,-81.71 88.5,-81.02 96.34,-88.15 99.07,-81.71"/>
</g>
<!-- Node20 -->
<g id="node20" class="node">
<title>Node20</title>
<g id="a_node20"><a xlink:title=" ">
<polygon fill="white" stroke="#bfbfbf" points="1251.5,-62 1251.5,-81 1385.5,-81 1385.5,-62 1251.5,-62"/>
<text text-anchor="middle" x="1318.5" y="-69" font-family="Helvetica,sans-Serif" font-size="10.00">tvm/ffi/container/array.h</text>
</a>
</g>
</g>
<!-- Node19&#45;&gt;Node20 -->
<g id="edge23" class="edge">
<title>Node19&#45;&gt;Node20</title>
<path fill="none" stroke="midnightblue" d="M1429.87,-123.48C1408.06,-113.49 1371.7,-96.85 1346.48,-85.31"/>
<polygon fill="midnightblue" stroke="midnightblue" points="1347.64,-81.99 1337.09,-81.01 1344.73,-88.35 1347.64,-81.99"/>
</g>
<!-- Node21 -->
<g id="node21" class="node">
<title>Node21</title>
<g id="a_node21"><a xlink:href="runtime_2base_8h.html" target="_top" xlink:title=" ">
<polygon fill="white" stroke="black" points="1120,-62 1120,-81 1233,-81 1233,-62 1120,-62"/>
<text text-anchor="middle" x="1176.5" y="-69" font-family="Helvetica,sans-Serif" font-size="10.00">tvm/runtime/base.h</text>
</a>
</g>
</g>
<!-- Node19&#45;&gt;Node21 -->
<g id="edge26" class="edge">
<title>Node19&#45;&gt;Node21</title>
<path fill="none" stroke="midnightblue" d="M1409.39,-123.47C1367.95,-114.43 1300.61,-99.73 1242.5,-87 1236.85,-85.76 1230.92,-84.46 1225.04,-83.17"/>
<polygon fill="midnightblue" stroke="midnightblue" points="1225.75,-79.74 1215.24,-81.02 1224.25,-86.58 1225.75,-79.74"/>
</g>
<!-- Node23 -->
<g id="node23" class="node">
<title>Node23</title>
<g id="a_node23"><a xlink:title=" ">
<polygon fill="white" stroke="#bfbfbf" points="1469,-62 1469,-81 1524,-81 1524,-62 1469,-62"/>
<text text-anchor="middle" x="1496.5" y="-69" font-family="Helvetica,sans-Serif" font-size="10.00">fstream</text>
</a>
</g>
</g>
<!-- Node19&#45;&gt;Node23 -->
<g id="edge28" class="edge">
<title>Node19&#45;&gt;Node23</title>
<path fill="none" stroke="midnightblue" d="M1455.38,-123.48C1462.65,-114.46 1474.3,-100.02 1483.34,-88.81"/>
<polygon fill="midnightblue" stroke="midnightblue" points="1486.08,-90.99 1489.64,-81.01 1480.63,-86.59 1486.08,-90.99"/>
</g>
<!-- Node19&#45;&gt;Node24 -->
<g id="edge29" class="edge">
<title>Node19&#45;&gt;Node24</title>
<path fill="none" stroke="midnightblue" d="M1389.8,-126.87C1281.45,-117.25 1057.94,-96.59 1023.5,-87 1021.57,-86.46 1019.61,-85.81 1017.66,-85.09"/>
<polygon fill="midnightblue" stroke="midnightblue" points="1018.77,-81.77 1008.2,-81.07 1016.04,-88.21 1018.77,-81.77"/>
</g>
<!-- Node25 -->
<g id="node25" class="node">
<title>Node25</title>
<g id="a_node25"><a xlink:title=" ">
<polygon fill="white" stroke="#bfbfbf" points="1404,-62 1404,-81 1451,-81 1451,-62 1404,-62"/>
<text text-anchor="middle" x="1427.5" y="-69" font-family="Helvetica,sans-Serif" font-size="10.00">vector</text>
</a>
</g>
</g>
<!-- Node19&#45;&gt;Node25 -->
<g id="edge31" class="edge">
<title>Node19&#45;&gt;Node25</title>
<path fill="none" stroke="midnightblue" d="M1445.49,-123.48C1442.47,-114.9 1437.71,-101.43 1433.85,-90.48"/>
<polygon fill="midnightblue" stroke="midnightblue" points="1437.13,-89.27 1430.5,-81.01 1430.53,-91.6 1437.13,-89.27"/>
</g>
<!-- Node22 -->
<g id="node22" class="node">
<title>Node22</title>
<g id="a_node22"><a xlink:title=" ">
<polygon fill="white" stroke="#bfbfbf" points="1133.5,-0.5 1133.5,-19.5 1219.5,-19.5 1219.5,-0.5 1133.5,-0.5"/>
<text text-anchor="middle" x="1176.5" y="-7.5" font-family="Helvetica,sans-Serif" font-size="10.00">tvm/ffi/c_api.h</text>
</a>
</g>
</g>
<!-- Node21&#45;&gt;Node22 -->
<g id="edge27" class="edge">
<title>Node21&#45;&gt;Node22</title>
<path fill="none" stroke="midnightblue" d="M1176.5,-61.98C1176.5,-53.58 1176.5,-40.48 1176.5,-29.66"/>
<polygon fill="midnightblue" stroke="midnightblue" points="1180,-29.51 1176.5,-19.51 1173,-29.51 1180,-29.51"/>
</g>
<!-- Node26&#45;&gt;Node16 -->
<g id="edge34" class="edge">
<title>Node26&#45;&gt;Node16</title>
<path fill="none" stroke="midnightblue" d="M663.51,-123.48C666.53,-114.9 671.29,-101.43 675.15,-90.48"/>
<polygon fill="midnightblue" stroke="midnightblue" points="678.47,-91.6 678.5,-81.01 671.87,-89.27 678.47,-91.6"/>
</g>
<!-- Node26&#45;&gt;Node17 -->
<g id="edge35" class="edge">
<title>Node26&#45;&gt;Node17</title>
<path fill="none" stroke="midnightblue" d="M648.61,-123.48C635.3,-113.93 613.5,-98.31 597.54,-86.87"/>
<polygon fill="midnightblue" stroke="midnightblue" points="599.54,-83.99 589.37,-81.01 595.46,-89.68 599.54,-83.99"/>
</g>
<!-- Node26&#45;&gt;Node21 -->
<g id="edge36" class="edge">
<title>Node26&#45;&gt;Node21</title>
<path fill="none" stroke="midnightblue" d="M729.6,-127.69C818.39,-121.57 977.1,-108.62 1111.5,-87 1118.17,-85.93 1125.19,-84.59 1132.04,-83.16"/>
<polygon fill="midnightblue" stroke="midnightblue" points="1132.87,-86.56 1141.9,-81.03 1131.39,-79.72 1132.87,-86.56"/>
</g>
<!-- Node26&#45;&gt;Node24 -->
<g id="edge38" class="edge">
<title>Node26&#45;&gt;Node24</title>
<path fill="none" stroke="midnightblue" d="M729.78,-123.86C804.54,-114.67 918.51,-99.4 960.5,-87 962.43,-86.43 964.39,-85.77 966.35,-85.04"/>
<polygon fill="midnightblue" stroke="midnightblue" points="968.01,-88.14 975.89,-81.07 965.32,-81.68 968.01,-88.14"/>
</g>
<!-- Node27 -->
<g id="node27" class="node">
<title>Node27</title>
<g id="a_node27"><a xlink:title=" ">
<polygon fill="white" stroke="#bfbfbf" points="813,-62 813,-81 952,-81 952,-62 813,-62"/>
<text text-anchor="middle" x="882.5" y="-69" font-family="Helvetica,sans-Serif" font-size="10.00">tvm/ffi/container/shape.h</text>
</a>
</g>
</g>
<!-- Node26&#45;&gt;Node27 -->
<g id="edge33" class="edge">
<title>Node26&#45;&gt;Node27</title>
<path fill="none" stroke="midnightblue" d="M692.31,-123.48C731.38,-113 797.76,-95.21 840.86,-83.66"/>
<polygon fill="midnightblue" stroke="midnightblue" points="842,-86.98 850.75,-81.01 840.19,-80.22 842,-86.98"/>
</g>
<!-- Node28 -->
<g id="node28" class="node">
<title>Node28</title>
<g id="a_node28"><a xlink:title=" ">
<polygon fill="white" stroke="#bfbfbf" points="744.5,-62 744.5,-81 794.5,-81 794.5,-62 744.5,-62"/>
<text text-anchor="middle" x="769.5" y="-69" font-family="Helvetica,sans-Serif" font-size="10.00">cstring</text>
</a>
</g>
</g>
<!-- Node26&#45;&gt;Node28 -->
<g id="edge37" class="edge">
<title>Node26&#45;&gt;Node28</title>
<path fill="none" stroke="midnightblue" d="M676.12,-123.48C694.09,-113.67 723.82,-97.43 744.91,-85.92"/>
<polygon fill="midnightblue" stroke="midnightblue" points="746.81,-88.87 753.91,-81.01 743.46,-82.73 746.81,-88.87"/>
</g>
<!-- Node26&#45;&gt;Node29 -->
<g id="edge39" class="edge">
<title>Node26&#45;&gt;Node29</title>
<path fill="none" stroke="midnightblue" d="M729.76,-127.45C803.32,-121.68 922.66,-109.64 1023.5,-87 1027.17,-86.18 1030.96,-85.17 1034.72,-84.08"/>
<polygon fill="midnightblue" stroke="midnightblue" points="1035.95,-87.36 1044.45,-81.03 1033.86,-80.68 1035.95,-87.36"/>
</g>
</g>
</svg>
