<?xml version="1.0" encoding="UTF-8" standalone="no"?>
<!DOCTYPE svg PUBLIC "-//W3C//DTD SVG 1.1//EN"
 "http://www.w3.org/Graphics/SVG/1.1/DTD/svg11.dtd">
<!-- Generated by graphviz version 2.43.0 (0)
 -->
<!-- Title: include/tvm/relax/block_builder.h Pages: 1 -->
<svg width="435pt" height="240pt"
 viewBox="0.00 0.00 434.50 240.00" xmlns="http://www.w3.org/2000/svg" xmlns:xlink="http://www.w3.org/1999/xlink">
<g id="graph0" class="graph" transform="scale(1 1) rotate(0) translate(4 236)">
<title>include/tvm/relax/block_builder.h</title>
<polygon fill="white" stroke="transparent" points="-4,4 -4,-236 430.5,-236 430.5,4 -4,4"/>
<!-- Node1 -->
<g id="node1" class="node">
<title>Node1</title>
<g id="a_node1"><a xlink:title="The utility for constructing Relax binding blocks.">
<polygon fill="#bfbfbf" stroke="black" points="138,-201.5 138,-231.5 269,-231.5 269,-201.5 138,-201.5"/>
<text text-anchor="start" x="146" y="-219.5" font-family="Helvetica,sans-Serif" font-size="10.00">include/tvm/relax/block</text>
<text text-anchor="middle" x="203.5" y="-208.5" font-family="Helvetica,sans-Serif" font-size="10.00">_builder.h</text>
</a>
</g>
</g>
<!-- Node2 -->
<g id="node2" class="node">
<title>Node2</title>
<g id="a_node2"><a xlink:href="relax_2expr__functor_8h.html" target="_top" xlink:title="A more powerful visitor which enables defining arbitrary function signatures with type based dispatch...">
<polygon fill="white" stroke="black" points="0,-134.5 0,-164.5 127,-164.5 127,-134.5 0,-134.5"/>
<text text-anchor="start" x="8" y="-152.5" font-family="Helvetica,sans-Serif" font-size="10.00">include/tvm/relax/expr</text>
<text text-anchor="middle" x="63.5" y="-141.5" font-family="Helvetica,sans-Serif" font-size="10.00">_functor.h</text>
</a>
</g>
</g>
<!-- Node1&#45;&gt;Node2 -->
<g id="edge1" class="edge">
<title>Node1&#45;&gt;Node2</title>
<path fill="none" stroke="midnightblue" d="M163.93,-197.13C141.69,-186.8 114.35,-174.11 93.82,-164.58"/>
<polygon fill="midnightblue" stroke="midnightblue" points="162.58,-200.36 173.12,-201.4 165.53,-194.01 162.58,-200.36"/>
</g>
<!-- Node3 -->
<g id="node3" class="node">
<title>Node3</title>
<g id="a_node3"><a xlink:href="relax_2op__attr__types_8h.html" target="_top" xlink:title="Data structures that can appear in operator attributes.">
<polygon fill="white" stroke="black" points="145,-134.5 145,-164.5 262,-164.5 262,-134.5 145,-134.5"/>
<text text-anchor="start" x="153" y="-152.5" font-family="Helvetica,sans-Serif" font-size="10.00">include/tvm/relax/op</text>
<text text-anchor="middle" x="203.5" y="-141.5" font-family="Helvetica,sans-Serif" font-size="10.00">_attr_types.h</text>
</a>
</g>
</g>
<!-- Node1&#45;&gt;Node3 -->
<g id="edge2" class="edge">
<title>Node1&#45;&gt;Node3</title>
<path fill="none" stroke="midnightblue" d="M203.5,-191.11C203.5,-182.15 203.5,-172.32 203.5,-164.58"/>
<polygon fill="midnightblue" stroke="midnightblue" points="200,-191.4 203.5,-201.4 207,-191.4 200,-191.4"/>
</g>
<!-- Node6 -->
<g id="node6" class="node">
<title>Node6</title>
<g id="a_node6"><a xlink:href="relax_2script_2builder_2frame_8h.html" target="_top" xlink:title=" ">
<polygon fill="white" stroke="black" points="289.5,-134.5 289.5,-164.5 421.5,-164.5 421.5,-134.5 289.5,-134.5"/>
<text text-anchor="start" x="297.5" y="-152.5" font-family="Helvetica,sans-Serif" font-size="10.00">include/tvm/relax/script</text>
<text text-anchor="middle" x="355.5" y="-141.5" font-family="Helvetica,sans-Serif" font-size="10.00">/builder/frame.h</text>
</a>
</g>
</g>
<!-- Node1&#45;&gt;Node6 -->
<g id="edge5" class="edge">
<title>Node1&#45;&gt;Node6</title>
<path fill="none" stroke="midnightblue" d="M245.81,-197.41C270.08,-187.03 300.09,-174.2 322.58,-164.58"/>
<polygon fill="midnightblue" stroke="midnightblue" points="244.3,-194.25 236.48,-201.4 247.05,-200.68 244.3,-194.25"/>
</g>
<!-- Node4 -->
<g id="node4" class="node">
<title>Node4</title>
<g id="a_node4"><a xlink:href="relax_2analysis_8h.html" target="_top" xlink:title="The set of Relax specific analysis on IR.">
<polygon fill="white" stroke="black" points="121,-73 121,-92 276,-92 276,-73 121,-73"/>
<text text-anchor="middle" x="198.5" y="-80" font-family="Helvetica,sans-Serif" font-size="10.00">include/tvm/relax/analysis.h</text>
</a>
</g>
</g>
<!-- Node3&#45;&gt;Node4 -->
<g id="edge3" class="edge">
<title>Node3&#45;&gt;Node4</title>
<path fill="none" stroke="midnightblue" d="M201.63,-124.25C200.77,-113.02 199.8,-100.38 199.17,-92.19"/>
<polygon fill="midnightblue" stroke="midnightblue" points="198.16,-124.69 202.42,-134.4 205.14,-124.16 198.16,-124.69"/>
</g>
<!-- Node5 -->
<g id="node5" class="node">
<title>Node5</title>
<g id="a_node5"><a xlink:href="binding__rewrite_8h.html" target="_top" xlink:title="An IR rewriter to easily add/remove/replace bindings (statements).">
<polygon fill="white" stroke="black" points="128,-0.5 128,-30.5 269,-30.5 269,-0.5 128,-0.5"/>
<text text-anchor="start" x="136" y="-18.5" font-family="Helvetica,sans-Serif" font-size="10.00">include/tvm/relax/binding</text>
<text text-anchor="middle" x="198.5" y="-7.5" font-family="Helvetica,sans-Serif" font-size="10.00">_rewrite.h</text>
</a>
</g>
</g>
<!-- Node4&#45;&gt;Node5 -->
<g id="edge4" class="edge">
<title>Node4&#45;&gt;Node5</title>
<path fill="none" stroke="midnightblue" d="M198.5,-62.41C198.5,-52.22 198.5,-39.9 198.5,-30.59"/>
<polygon fill="midnightblue" stroke="midnightblue" points="195,-62.73 198.5,-72.73 202,-62.73 195,-62.73"/>
</g>
<!-- Node7 -->
<g id="node7" class="node">
<title>Node7</title>
<g id="a_node7"><a xlink:href="relax_2script_2builder_2ir_8h.html" target="_top" xlink:title=" ">
<polygon fill="white" stroke="black" points="294.5,-67.5 294.5,-97.5 426.5,-97.5 426.5,-67.5 294.5,-67.5"/>
<text text-anchor="start" x="302.5" y="-85.5" font-family="Helvetica,sans-Serif" font-size="10.00">include/tvm/relax/script</text>
<text text-anchor="middle" x="360.5" y="-74.5" font-family="Helvetica,sans-Serif" font-size="10.00">/builder/ir.h</text>
</a>
</g>
</g>
<!-- Node6&#45;&gt;Node7 -->
<g id="edge6" class="edge">
<title>Node6&#45;&gt;Node7</title>
<path fill="none" stroke="midnightblue" d="M357.35,-124.4C358.05,-115.37 358.81,-105.41 359.42,-97.58"/>
<polygon fill="midnightblue" stroke="midnightblue" points="353.86,-124.16 356.58,-134.4 360.84,-124.69 353.86,-124.16"/>
</g>
</g>
</svg>
