<?xml version="1.0" encoding="UTF-8" standalone="no"?>
<!DOCTYPE svg PUBLIC "-//W3C//DTD SVG 1.1//EN"
 "http://www.w3.org/Graphics/SVG/1.1/DTD/svg11.dtd">
<!-- Generated by graphviz version 2.43.0 (0)
 -->
<!-- Title: tvm::relax::IfNode Pages: 1 -->
<svg width="604pt" height="688pt"
 viewBox="0.00 0.00 603.50 688.00" xmlns="http://www.w3.org/2000/svg" xmlns:xlink="http://www.w3.org/1999/xlink">
<g id="graph0" class="graph" transform="scale(1 1) rotate(0) translate(4 684)">
<title>tvm::relax::IfNode</title>
<polygon fill="white" stroke="transparent" points="-4,4 -4,-684 599.5,-684 599.5,4 -4,4"/>
<!-- Node1 -->
<g id="node1" class="node">
<title>Node1</title>
<g id="a_node1"><a xlink:title="Condition expression.">
<polygon fill="#bfbfbf" stroke="black" points="302,-0.5 302,-79.5 464,-79.5 464,-0.5 302,-0.5"/>
<text text-anchor="middle" x="383" y="-67.5" font-family="Helvetica,sans-Serif" font-size="10.00">tvm::relax::IfNode</text>
<polyline fill="none" stroke="black" points="302,-60.5 464,-60.5 "/>
<text text-anchor="start" x="310" y="-48.5" font-family="Helvetica,sans-Serif" font-size="10.00">+ _type_s_eq_hash_kind</text>
<polyline fill="none" stroke="black" points="302,-41.5 464,-41.5 "/>
<text text-anchor="start" x="310" y="-29.5" font-family="Helvetica,sans-Serif" font-size="10.00">+ TVM_FFI_DECLARE_OBJECT</text>
<text text-anchor="start" x="310" y="-18.5" font-family="Helvetica,sans-Serif" font-size="10.00">_INFO_FINAL()</text>
<text text-anchor="start" x="310" y="-7.5" font-family="Helvetica,sans-Serif" font-size="10.00">+ RegisterReflection()</text>
</a>
</g>
</g>
<!-- Node2 -->
<g id="node2" class="node">
<title>Node2</title>
<g id="a_node2"><a xlink:href="classtvm_1_1RelaxExprNode.html" target="_top" xlink:title="Base node of all non&#45;primitive expressions.">
<polygon fill="white" stroke="black" points="172,-155 172,-234 334,-234 334,-155 172,-155"/>
<text text-anchor="middle" x="253" y="-222" font-family="Helvetica,sans-Serif" font-size="10.00">ExprNode</text>
<polyline fill="none" stroke="black" points="172,-215 334,-215 "/>
<text text-anchor="start" x="180" y="-203" font-family="Helvetica,sans-Serif" font-size="10.00">+ _type_child_slots</text>
<polyline fill="none" stroke="black" points="172,-196 334,-196 "/>
<text text-anchor="start" x="180" y="-184" font-family="Helvetica,sans-Serif" font-size="10.00">+ TVM_FFI_DECLARE_OBJECT</text>
<text text-anchor="start" x="180" y="-173" font-family="Helvetica,sans-Serif" font-size="10.00">_INFO()</text>
<text text-anchor="start" x="180" y="-162" font-family="Helvetica,sans-Serif" font-size="10.00">+ RegisterReflection()</text>
</a>
</g>
</g>
<!-- Node2&#45;&gt;Node1 -->
<g id="edge1" class="edge">
<title>Node2&#45;&gt;Node1</title>
<path fill="none" stroke="midnightblue" d="M292.75,-146.86C311.13,-125.3 332.7,-100 350.14,-79.54"/>
<polygon fill="none" stroke="midnightblue" points="289.96,-144.74 286.14,-154.62 295.29,-149.28 289.96,-144.74"/>
</g>
<!-- Node3 -->
<g id="node3" class="node">
<title>Node3</title>
<g id="a_node3"><a xlink:href="classtvm_1_1BaseExprNode.html" target="_top" xlink:title="Base type of all the expressions.">
<polygon fill="white" stroke="black" points="113,-356.5 113,-446.5 275,-446.5 275,-356.5 113,-356.5"/>
<text text-anchor="middle" x="194" y="-434.5" font-family="Helvetica,sans-Serif" font-size="10.00">tvm::BaseExprNode</text>
<polyline fill="none" stroke="black" points="113,-427.5 275,-427.5 "/>
<text text-anchor="start" x="121" y="-415.5" font-family="Helvetica,sans-Serif" font-size="10.00">+ _type_s_eq_hash_kind</text>
<text text-anchor="start" x="121" y="-404.5" font-family="Helvetica,sans-Serif" font-size="10.00">+ _type_child_slots</text>
<polyline fill="none" stroke="black" points="113,-397.5 275,-397.5 "/>
<text text-anchor="start" x="121" y="-385.5" font-family="Helvetica,sans-Serif" font-size="10.00">+ TVM_FFI_DECLARE_OBJECT</text>
<text text-anchor="start" x="121" y="-374.5" font-family="Helvetica,sans-Serif" font-size="10.00">_INFO()</text>
<text text-anchor="start" x="121" y="-363.5" font-family="Helvetica,sans-Serif" font-size="10.00">+ RegisterReflection()</text>
</a>
</g>
</g>
<!-- Node3&#45;&gt;Node2 -->
<g id="edge2" class="edge">
<title>Node3&#45;&gt;Node2</title>
<path fill="none" stroke="midnightblue" d="M209.52,-346.59C219.69,-311.25 232.74,-265.89 241.88,-234.13"/>
<polygon fill="none" stroke="midnightblue" points="206.13,-345.69 206.73,-356.27 212.86,-347.63 206.13,-345.69"/>
</g>
<!-- Node4 -->
<g id="node4" class="node">
<title>Node4</title>
<g id="a_node4"><a xlink:title=" ">
<polygon fill="white" stroke="#bfbfbf" points="0,-511 0,-568 64,-568 64,-511 0,-511"/>
<text text-anchor="middle" x="32" y="-556" font-family="Helvetica,sans-Serif" font-size="10.00">ffi::Object</text>
<polyline fill="none" stroke="#bfbfbf" points="0,-549 64,-549 "/>
<text text-anchor="middle" x="32" y="-537" font-family="Helvetica,sans-Serif" font-size="10.00"> </text>
<polyline fill="none" stroke="#bfbfbf" points="0,-530 64,-530 "/>
<text text-anchor="middle" x="32" y="-518" font-family="Helvetica,sans-Serif" font-size="10.00"> </text>
</a>
</g>
</g>
<!-- Node4&#45;&gt;Node3 -->
<g id="edge3" class="edge">
<title>Node4&#45;&gt;Node3</title>
<path fill="none" stroke="midnightblue" d="M63.02,-503.6C66.31,-500.27 69.67,-497.02 73,-494 91.14,-477.54 112.07,-460.96 131.37,-446.53"/>
<polygon fill="none" stroke="midnightblue" points="60.38,-501.29 55.97,-510.93 65.43,-506.14 60.38,-501.29"/>
</g>
<!-- Node5 -->
<g id="node5" class="node">
<title>Node5</title>
<g id="a_node5"><a xlink:href="classtvm_1_1Span.html" target="_top" xlink:title=" ">
<polygon fill="white" stroke="black" points="82.5,-494.5 82.5,-584.5 241.5,-584.5 241.5,-494.5 82.5,-494.5"/>
<text text-anchor="middle" x="162" y="-572.5" font-family="Helvetica,sans-Serif" font-size="10.00">tvm::Span</text>
<polyline fill="none" stroke="black" points="82.5,-565.5 241.5,-565.5 "/>
<text text-anchor="middle" x="162" y="-553.5" font-family="Helvetica,sans-Serif" font-size="10.00"> </text>
<polyline fill="none" stroke="black" points="82.5,-546.5 241.5,-546.5 "/>
<text text-anchor="start" x="90.5" y="-534.5" font-family="Helvetica,sans-Serif" font-size="10.00">+ Span()</text>
<text text-anchor="start" x="90.5" y="-523.5" font-family="Helvetica,sans-Serif" font-size="10.00">+ Merge()</text>
<text text-anchor="start" x="90.5" y="-512.5" font-family="Helvetica,sans-Serif" font-size="10.00">+ TVM_FFI_DEFINE_OBJECT</text>
<text text-anchor="start" x="90.5" y="-501.5" font-family="Helvetica,sans-Serif" font-size="10.00">_REF_METHODS_NULLABLE()</text>
</a>
</g>
</g>
<!-- Node5&#45;&gt;Node3 -->
<g id="edge4" class="edge">
<title>Node5&#45;&gt;Node3</title>
<path fill="none" stroke="#404040" d="M172.39,-494.34C175.07,-482.94 178,-470.52 180.8,-458.6"/>
<polygon fill="none" stroke="#404040" points="180.8,-458.58 178.29,-451.82 183.55,-446.9 186.07,-453.66 180.8,-458.58"/>
<text text-anchor="middle" x="196.5" y="-468" font-family="Helvetica,sans-Serif" font-size="10.00"> +span</text>
</g>
<!-- Node6 -->
<g id="node6" class="node">
<title>Node6</title>
<g id="a_node6"><a xlink:title=" ">
<polygon fill="white" stroke="#bfbfbf" points="299,-622.5 299,-679.5 379,-679.5 379,-622.5 299,-622.5"/>
<text text-anchor="middle" x="339" y="-667.5" font-family="Helvetica,sans-Serif" font-size="10.00">ffi::ObjectRef</text>
<polyline fill="none" stroke="#bfbfbf" points="299,-660.5 379,-660.5 "/>
<text text-anchor="middle" x="339" y="-648.5" font-family="Helvetica,sans-Serif" font-size="10.00"> </text>
<polyline fill="none" stroke="#bfbfbf" points="299,-641.5 379,-641.5 "/>
<text text-anchor="middle" x="339" y="-629.5" font-family="Helvetica,sans-Serif" font-size="10.00"> </text>
</a>
</g>
</g>
<!-- Node6&#45;&gt;Node5 -->
<g id="edge5" class="edge">
<title>Node6&#45;&gt;Node5</title>
<path fill="none" stroke="midnightblue" d="M289.93,-619.64C272.41,-608.81 252.3,-596.37 233.3,-584.61"/>
<polygon fill="none" stroke="midnightblue" points="288.49,-622.87 298.84,-625.15 292.17,-616.92 288.49,-622.87"/>
</g>
<!-- Node7 -->
<g id="node7" class="node">
<title>Node7</title>
<g id="a_node7"><a xlink:href="classtvm_1_1Type.html" target="_top" xlink:title="Managed reference to TypeNode.">
<polygon fill="white" stroke="black" points="259.5,-505.5 259.5,-573.5 418.5,-573.5 418.5,-505.5 259.5,-505.5"/>
<text text-anchor="middle" x="339" y="-561.5" font-family="Helvetica,sans-Serif" font-size="10.00">tvm::Type</text>
<polyline fill="none" stroke="black" points="259.5,-554.5 418.5,-554.5 "/>
<text text-anchor="middle" x="339" y="-542.5" font-family="Helvetica,sans-Serif" font-size="10.00"> </text>
<polyline fill="none" stroke="black" points="259.5,-535.5 418.5,-535.5 "/>
<text text-anchor="start" x="267.5" y="-523.5" font-family="Helvetica,sans-Serif" font-size="10.00">+ TVM_FFI_DEFINE_OBJECT</text>
<text text-anchor="start" x="267.5" y="-512.5" font-family="Helvetica,sans-Serif" font-size="10.00">_REF_METHODS_NULLABLE()</text>
</a>
</g>
</g>
<!-- Node6&#45;&gt;Node7 -->
<g id="edge7" class="edge">
<title>Node6&#45;&gt;Node7</title>
<path fill="none" stroke="midnightblue" d="M339,-612.2C339,-599.64 339,-585.76 339,-573.59"/>
<polygon fill="none" stroke="midnightblue" points="335.5,-612.37 339,-622.37 342.5,-612.37 335.5,-612.37"/>
</g>
<!-- Node9 -->
<g id="node9" class="node">
<title>Node9</title>
<g id="a_node9"><a xlink:href="classtvm_1_1BaseExpr.html" target="_top" xlink:title="Managed reference to BaseExprNode.">
<polygon fill="white" stroke="black" points="436.5,-505.5 436.5,-573.5 595.5,-573.5 595.5,-505.5 436.5,-505.5"/>
<text text-anchor="middle" x="516" y="-561.5" font-family="Helvetica,sans-Serif" font-size="10.00">tvm::BaseExpr</text>
<polyline fill="none" stroke="black" points="436.5,-554.5 595.5,-554.5 "/>
<text text-anchor="middle" x="516" y="-542.5" font-family="Helvetica,sans-Serif" font-size="10.00"> </text>
<polyline fill="none" stroke="black" points="436.5,-535.5 595.5,-535.5 "/>
<text text-anchor="start" x="444.5" y="-523.5" font-family="Helvetica,sans-Serif" font-size="10.00">+ TVM_FFI_DEFINE_OBJECT</text>
<text text-anchor="start" x="444.5" y="-512.5" font-family="Helvetica,sans-Serif" font-size="10.00">_REF_METHODS_NULLABLE()</text>
</a>
</g>
</g>
<!-- Node6&#45;&gt;Node9 -->
<g id="edge10" class="edge">
<title>Node6&#45;&gt;Node9</title>
<path fill="none" stroke="midnightblue" d="M387.81,-619.8C411.01,-605.45 438.8,-588.26 462.57,-573.56"/>
<polygon fill="none" stroke="midnightblue" points="385.83,-616.92 379.16,-625.15 389.51,-622.87 385.83,-616.92"/>
</g>
<!-- Node7&#45;&gt;Node3 -->
<g id="edge6" class="edge">
<title>Node7&#45;&gt;Node3</title>
<path fill="none" stroke="#404040" d="M303.53,-505.23C287.54,-490.23 268.26,-472.15 250.36,-455.36"/>
<polygon fill="none" stroke="#404040" points="249.91,-454.94 242.79,-453.75 241.15,-446.73 248.27,-447.91 249.91,-454.94"/>
<text text-anchor="middle" x="282" y="-468" font-family="Helvetica,sans-Serif" font-size="10.00"> +ty</text>
</g>
<!-- Node8 -->
<g id="node8" class="node">
<title>Node8</title>
<g id="a_node8"><a xlink:href="classtvm_1_1RelaxExpr.html" target="_top" xlink:title="Managed reference to RelaxExprNode.">
<polygon fill="white" stroke="black" points="309.5,-269.5 309.5,-337.5 468.5,-337.5 468.5,-269.5 309.5,-269.5"/>
<text text-anchor="middle" x="389" y="-325.5" font-family="Helvetica,sans-Serif" font-size="10.00">tvm::RelaxExpr</text>
<polyline fill="none" stroke="black" points="309.5,-318.5 468.5,-318.5 "/>
<text text-anchor="middle" x="389" y="-306.5" font-family="Helvetica,sans-Serif" font-size="10.00"> </text>
<polyline fill="none" stroke="black" points="309.5,-299.5 468.5,-299.5 "/>
<text text-anchor="start" x="317.5" y="-287.5" font-family="Helvetica,sans-Serif" font-size="10.00">+ TVM_FFI_DEFINE_OBJECT</text>
<text text-anchor="start" x="317.5" y="-276.5" font-family="Helvetica,sans-Serif" font-size="10.00">_REF_METHODS_NULLABLE()</text>
</a>
</g>
</g>
<!-- Node8&#45;&gt;Node1 -->
<g id="edge8" class="edge">
<title>Node8&#45;&gt;Node1</title>
<path fill="none" stroke="#404040" d="M388.24,-269.38C387.21,-224.59 385.37,-144.3 384.17,-91.84"/>
<polygon fill="none" stroke="#404040" points="384.17,-91.79 380.03,-85.89 383.89,-79.8 388.03,-85.7 384.17,-91.79"/>
<text text-anchor="middle" x="405.5" y="-192" font-family="Helvetica,sans-Serif" font-size="10.00"> +cond</text>
</g>
<!-- Node9&#45;&gt;Node8 -->
<g id="edge9" class="edge">
<title>Node9&#45;&gt;Node8</title>
<path fill="none" stroke="midnightblue" d="M468.99,-498.41C454.05,-483.58 438.66,-465.78 428,-447 408.43,-412.54 398.28,-367.77 393.3,-337.69"/>
<polygon fill="none" stroke="midnightblue" points="466.64,-501.01 476.26,-505.44 471.51,-495.97 466.64,-501.01"/>
</g>
<!-- Node11 -->
<g id="node11" class="node">
<title>Node11</title>
<g id="a_node11"><a xlink:href="classtvm_1_1RelaxExpr.html" target="_top" xlink:title="Managed reference to RelaxExprNode.">
<polygon fill="white" stroke="black" points="436.5,-367.5 436.5,-435.5 595.5,-435.5 595.5,-367.5 436.5,-367.5"/>
<text text-anchor="middle" x="516" y="-423.5" font-family="Helvetica,sans-Serif" font-size="10.00">Expr</text>
<polyline fill="none" stroke="black" points="436.5,-416.5 595.5,-416.5 "/>
<text text-anchor="middle" x="516" y="-404.5" font-family="Helvetica,sans-Serif" font-size="10.00"> </text>
<polyline fill="none" stroke="black" points="436.5,-397.5 595.5,-397.5 "/>
<text text-anchor="start" x="444.5" y="-385.5" font-family="Helvetica,sans-Serif" font-size="10.00">+ TVM_FFI_DEFINE_OBJECT</text>
<text text-anchor="start" x="444.5" y="-374.5" font-family="Helvetica,sans-Serif" font-size="10.00">_REF_METHODS_NULLABLE()</text>
</a>
</g>
</g>
<!-- Node9&#45;&gt;Node11 -->
<g id="edge13" class="edge">
<title>Node9&#45;&gt;Node11</title>
<path fill="none" stroke="midnightblue" d="M516,-495.22C516,-476.02 516,-453.78 516,-435.9"/>
<polygon fill="none" stroke="midnightblue" points="512.5,-495.23 516,-505.23 519.5,-495.23 512.5,-495.23"/>
</g>
<!-- Node10 -->
<g id="node10" class="node">
<title>Node10</title>
<g id="a_node10"><a xlink:href="classtvm_1_1relax_1_1SeqExpr.html" target="_top" xlink:title=" ">
<polygon fill="white" stroke="black" points="436.5,-138.5 436.5,-250.5 595.5,-250.5 595.5,-138.5 436.5,-138.5"/>
<text text-anchor="middle" x="516" y="-238.5" font-family="Helvetica,sans-Serif" font-size="10.00">tvm::relax::SeqExpr</text>
<polyline fill="none" stroke="black" points="436.5,-231.5 595.5,-231.5 "/>
<text text-anchor="middle" x="516" y="-219.5" font-family="Helvetica,sans-Serif" font-size="10.00"> </text>
<polyline fill="none" stroke="black" points="436.5,-212.5 595.5,-212.5 "/>
<text text-anchor="start" x="444.5" y="-200.5" font-family="Helvetica,sans-Serif" font-size="10.00">+ SeqExpr()</text>
<text text-anchor="start" x="444.5" y="-189.5" font-family="Helvetica,sans-Serif" font-size="10.00">+ SeqExpr()</text>
<text text-anchor="start" x="444.5" y="-178.5" font-family="Helvetica,sans-Serif" font-size="10.00">+ TVM_FFI_DEFINE_OBJECT</text>
<text text-anchor="start" x="444.5" y="-167.5" font-family="Helvetica,sans-Serif" font-size="10.00">_REF_METHODS_NULLABLE()</text>
<text text-anchor="start" x="444.5" y="-156.5" font-family="Helvetica,sans-Serif" font-size="10.00">+ TVM_DEFINE_OBJECT_REF</text>
<text text-anchor="start" x="444.5" y="-145.5" font-family="Helvetica,sans-Serif" font-size="10.00">_COW_METHOD()</text>
</a>
</g>
</g>
<!-- Node10&#45;&gt;Node1 -->
<g id="edge11" class="edge">
<title>Node10&#45;&gt;Node1</title>
<path fill="none" stroke="#404040" d="M467.98,-138.44C453.94,-122.34 438.69,-104.86 425.04,-89.21"/>
<polygon fill="none" stroke="#404040" points="424.66,-88.77 417.71,-86.88 416.78,-79.73 423.73,-81.62 424.66,-88.77"/>
<text text-anchor="middle" x="486" y="-112" font-family="Helvetica,sans-Serif" font-size="10.00"> +false_branch</text>
<text text-anchor="middle" x="486" y="-101" font-family="Helvetica,sans-Serif" font-size="10.00">+true_branch</text>
</g>
<!-- Node11&#45;&gt;Node10 -->
<g id="edge12" class="edge">
<title>Node11&#45;&gt;Node10</title>
<path fill="none" stroke="midnightblue" d="M516,-357.02C516,-325.95 516,-283.91 516,-250.51"/>
<polygon fill="none" stroke="midnightblue" points="512.5,-357.11 516,-367.11 519.5,-357.11 512.5,-357.11"/>
</g>
</g>
</svg>
