<?xml version="1.0" encoding="UTF-8" standalone="no"?>
<!DOCTYPE svg PUBLIC "-//W3C//DTD SVG 1.1//EN"
 "http://www.w3.org/Graphics/SVG/1.1/DTD/svg11.dtd">
<!-- Generated by graphviz version 2.43.0 (0)
 -->
<!-- Title: tvm::tirx::SizeVarNode Pages: 1 -->
<svg width="463pt" height="924pt"
 viewBox="0.00 0.00 462.50 924.00" xmlns="http://www.w3.org/2000/svg" xmlns:xlink="http://www.w3.org/1999/xlink">
<g id="graph0" class="graph" transform="scale(1 1) rotate(0) translate(4 920)">
<title>tvm::tirx::SizeVarNode</title>
<polygon fill="white" stroke="transparent" points="-4,4 -4,-920 458.5,-920 458.5,4 -4,4"/>
<!-- Node1 -->
<g id="node1" class="node">
<title>Node1</title>
<g id="a_node1"><a xlink:title="A variable node represent a tensor index size, whose value must be non&#45;negative.">
<polygon fill="#bfbfbf" stroke="black" points="232.5,-0.5 232.5,-79.5 394.5,-79.5 394.5,-0.5 232.5,-0.5"/>
<text text-anchor="middle" x="313.5" y="-67.5" font-family="Helvetica,sans-Serif" font-size="10.00">tvm::tirx::SizeVarNode</text>
<polyline fill="none" stroke="black" points="232.5,-60.5 394.5,-60.5 "/>
<text text-anchor="middle" x="313.5" y="-48.5" font-family="Helvetica,sans-Serif" font-size="10.00"> </text>
<polyline fill="none" stroke="black" points="232.5,-41.5 394.5,-41.5 "/>
<text text-anchor="start" x="240.5" y="-29.5" font-family="Helvetica,sans-Serif" font-size="10.00">+ TVM_FFI_DECLARE_OBJECT</text>
<text text-anchor="start" x="240.5" y="-18.5" font-family="Helvetica,sans-Serif" font-size="10.00">_INFO_FINAL()</text>
<text text-anchor="start" x="240.5" y="-7.5" font-family="Helvetica,sans-Serif" font-size="10.00">+ RegisterReflection()</text>
</a>
</g>
</g>
<!-- Node2 -->
<g id="node2" class="node">
<title>Node2</title>
<g id="a_node2"><a xlink:href="classtvm_1_1tirx_1_1VarNode.html" target="_top" xlink:title="A variable node in the IR.">
<polygon fill="white" stroke="black" points="232.5,-117.5 232.5,-218.5 394.5,-218.5 394.5,-117.5 232.5,-117.5"/>
<text text-anchor="middle" x="313.5" y="-206.5" font-family="Helvetica,sans-Serif" font-size="10.00">tvm::tirx::VarNode</text>
<polyline fill="none" stroke="black" points="232.5,-199.5 394.5,-199.5 "/>
<text text-anchor="start" x="240.5" y="-187.5" font-family="Helvetica,sans-Serif" font-size="10.00">+ name_hint</text>
<text text-anchor="start" x="240.5" y="-176.5" font-family="Helvetica,sans-Serif" font-size="10.00">+ _type_s_eq_hash_kind</text>
<text text-anchor="start" x="240.5" y="-165.5" font-family="Helvetica,sans-Serif" font-size="10.00">+ _type_child_slots</text>
<polyline fill="none" stroke="black" points="232.5,-158.5 394.5,-158.5 "/>
<text text-anchor="start" x="240.5" y="-146.5" font-family="Helvetica,sans-Serif" font-size="10.00">+ TVM_FFI_DECLARE_OBJECT</text>
<text text-anchor="start" x="240.5" y="-135.5" font-family="Helvetica,sans-Serif" font-size="10.00">_INFO()</text>
<text text-anchor="start" x="240.5" y="-124.5" font-family="Helvetica,sans-Serif" font-size="10.00">+ RegisterReflection()</text>
</a>
</g>
</g>
<!-- Node2&#45;&gt;Node1 -->
<g id="edge1" class="edge">
<title>Node2&#45;&gt;Node1</title>
<path fill="none" stroke="midnightblue" d="M313.5,-107.11C313.5,-97.74 313.5,-88.28 313.5,-79.56"/>
<polygon fill="none" stroke="midnightblue" points="310,-107.2 313.5,-117.2 317,-107.2 310,-107.2"/>
</g>
<!-- Node3 -->
<g id="node3" class="node">
<title>Node3</title>
<g id="a_node3"><a xlink:href="classtvm_1_1PrimExprNode.html" target="_top" xlink:title="Base node of all primitive expressions.">
<polygon fill="white" stroke="black" points="178.5,-256.5 178.5,-335.5 340.5,-335.5 340.5,-256.5 178.5,-256.5"/>
<text text-anchor="middle" x="259.5" y="-323.5" font-family="Helvetica,sans-Serif" font-size="10.00">tvm::PrimExprNode</text>
<polyline fill="none" stroke="black" points="178.5,-316.5 340.5,-316.5 "/>
<text text-anchor="start" x="186.5" y="-304.5" font-family="Helvetica,sans-Serif" font-size="10.00">+ _type_child_slots</text>
<polyline fill="none" stroke="black" points="178.5,-297.5 340.5,-297.5 "/>
<text text-anchor="start" x="186.5" y="-285.5" font-family="Helvetica,sans-Serif" font-size="10.00">+ TVM_FFI_DECLARE_OBJECT</text>
<text text-anchor="start" x="186.5" y="-274.5" font-family="Helvetica,sans-Serif" font-size="10.00">_INFO()</text>
<text text-anchor="start" x="186.5" y="-263.5" font-family="Helvetica,sans-Serif" font-size="10.00">+ RegisterReflection()</text>
</a>
</g>
</g>
<!-- Node3&#45;&gt;Node2 -->
<g id="edge2" class="edge">
<title>Node3&#45;&gt;Node2</title>
<path fill="none" stroke="midnightblue" d="M280.17,-246.76C284.12,-237.55 288.26,-227.89 292.23,-218.63"/>
<polygon fill="none" stroke="midnightblue" points="276.86,-245.6 276.14,-256.17 283.3,-248.36 276.86,-245.6"/>
</g>
<!-- Node4 -->
<g id="node4" class="node">
<title>Node4</title>
<g id="a_node4"><a xlink:href="classtvm_1_1BaseExprNode.html" target="_top" xlink:title="Base type of all the expressions.">
<polygon fill="white" stroke="black" points="20.5,-488 20.5,-578 182.5,-578 182.5,-488 20.5,-488"/>
<text text-anchor="middle" x="101.5" y="-566" font-family="Helvetica,sans-Serif" font-size="10.00">tvm::BaseExprNode</text>
<polyline fill="none" stroke="black" points="20.5,-559 182.5,-559 "/>
<text text-anchor="start" x="28.5" y="-547" font-family="Helvetica,sans-Serif" font-size="10.00">+ _type_s_eq_hash_kind</text>
<text text-anchor="start" x="28.5" y="-536" font-family="Helvetica,sans-Serif" font-size="10.00">+ _type_child_slots</text>
<polyline fill="none" stroke="black" points="20.5,-529 182.5,-529 "/>
<text text-anchor="start" x="28.5" y="-517" font-family="Helvetica,sans-Serif" font-size="10.00">+ TVM_FFI_DECLARE_OBJECT</text>
<text text-anchor="start" x="28.5" y="-506" font-family="Helvetica,sans-Serif" font-size="10.00">_INFO()</text>
<text text-anchor="start" x="28.5" y="-495" font-family="Helvetica,sans-Serif" font-size="10.00">+ RegisterReflection()</text>
</a>
</g>
</g>
<!-- Node4&#45;&gt;Node3 -->
<g id="edge3" class="edge">
<title>Node4&#45;&gt;Node3</title>
<path fill="none" stroke="midnightblue" d="M131.33,-479C148.15,-450.07 170.04,-413.95 191.5,-383 202.56,-367.04 215.6,-350.15 227.29,-335.6"/>
<polygon fill="none" stroke="midnightblue" points="128.26,-477.32 126.28,-487.73 134.32,-480.83 128.26,-477.32"/>
</g>
<!-- Node5 -->
<g id="node5" class="node">
<title>Node5</title>
<g id="a_node5"><a xlink:title=" ">
<polygon fill="white" stroke="#bfbfbf" points="177.5,-747 177.5,-804 241.5,-804 241.5,-747 177.5,-747"/>
<text text-anchor="middle" x="209.5" y="-792" font-family="Helvetica,sans-Serif" font-size="10.00">ffi::Object</text>
<polyline fill="none" stroke="#bfbfbf" points="177.5,-785 241.5,-785 "/>
<text text-anchor="middle" x="209.5" y="-773" font-family="Helvetica,sans-Serif" font-size="10.00"> </text>
<polyline fill="none" stroke="#bfbfbf" points="177.5,-766 241.5,-766 "/>
<text text-anchor="middle" x="209.5" y="-754" font-family="Helvetica,sans-Serif" font-size="10.00"> </text>
</a>
</g>
</g>
<!-- Node5&#45;&gt;Node4 -->
<g id="edge4" class="edge">
<title>Node5&#45;&gt;Node4</title>
<path fill="none" stroke="midnightblue" d="M192.97,-737.7C173.74,-694.87 142,-624.19 121.42,-578.37"/>
<polygon fill="none" stroke="midnightblue" points="189.82,-739.22 197.11,-746.91 196.21,-736.36 189.82,-739.22"/>
</g>
<!-- Node6 -->
<g id="node6" class="node">
<title>Node6</title>
<g id="a_node6"><a xlink:href="classtvm_1_1Span.html" target="_top" xlink:title=" ">
<polygon fill="white" stroke="black" points="0,-730.5 0,-820.5 159,-820.5 159,-730.5 0,-730.5"/>
<text text-anchor="middle" x="79.5" y="-808.5" font-family="Helvetica,sans-Serif" font-size="10.00">tvm::Span</text>
<polyline fill="none" stroke="black" points="0,-801.5 159,-801.5 "/>
<text text-anchor="middle" x="79.5" y="-789.5" font-family="Helvetica,sans-Serif" font-size="10.00"> </text>
<polyline fill="none" stroke="black" points="0,-782.5 159,-782.5 "/>
<text text-anchor="start" x="8" y="-770.5" font-family="Helvetica,sans-Serif" font-size="10.00">+ Span()</text>
<text text-anchor="start" x="8" y="-759.5" font-family="Helvetica,sans-Serif" font-size="10.00">+ Merge()</text>
<text text-anchor="start" x="8" y="-748.5" font-family="Helvetica,sans-Serif" font-size="10.00">+ TVM_FFI_DEFINE_OBJECT</text>
<text text-anchor="start" x="8" y="-737.5" font-family="Helvetica,sans-Serif" font-size="10.00">_REF_METHODS_NULLABLE()</text>
</a>
</g>
</g>
<!-- Node6&#45;&gt;Node4 -->
<g id="edge5" class="edge">
<title>Node6&#45;&gt;Node4</title>
<path fill="none" stroke="#404040" d="M83.54,-730.39C87.14,-691.02 92.43,-633.15 96.34,-590.42"/>
<polygon fill="none" stroke="#404040" points="96.36,-590.19 92.92,-583.85 97.45,-578.24 100.89,-584.58 96.36,-590.19"/>
<text text-anchor="middle" x="104" y="-704" font-family="Helvetica,sans-Serif" font-size="10.00"> +span</text>
</g>
<!-- Node7 -->
<g id="node7" class="node">
<title>Node7</title>
<g id="a_node7"><a xlink:title=" ">
<polygon fill="white" stroke="#bfbfbf" points="168.5,-858.5 168.5,-915.5 248.5,-915.5 248.5,-858.5 168.5,-858.5"/>
<text text-anchor="middle" x="208.5" y="-903.5" font-family="Helvetica,sans-Serif" font-size="10.00">ffi::ObjectRef</text>
<polyline fill="none" stroke="#bfbfbf" points="168.5,-896.5 248.5,-896.5 "/>
<text text-anchor="middle" x="208.5" y="-884.5" font-family="Helvetica,sans-Serif" font-size="10.00"> </text>
<polyline fill="none" stroke="#bfbfbf" points="168.5,-877.5 248.5,-877.5 "/>
<text text-anchor="middle" x="208.5" y="-865.5" font-family="Helvetica,sans-Serif" font-size="10.00"> </text>
</a>
</g>
</g>
<!-- Node7&#45;&gt;Node6 -->
<g id="edge6" class="edge">
<title>Node7&#45;&gt;Node6</title>
<path fill="none" stroke="midnightblue" d="M168.15,-851.75C156.58,-841.93 143.79,-831.08 131.62,-820.74"/>
<polygon fill="none" stroke="midnightblue" points="166.06,-854.57 175.95,-858.37 170.59,-849.23 166.06,-854.57"/>
</g>
<!-- Node8 -->
<g id="node8" class="node">
<title>Node8</title>
<g id="a_node8"><a xlink:href="classtvm_1_1Type.html" target="_top" xlink:title="Managed reference to TypeNode.">
<polygon fill="white" stroke="black" points="260,-741.5 260,-809.5 419,-809.5 419,-741.5 260,-741.5"/>
<text text-anchor="middle" x="339.5" y="-797.5" font-family="Helvetica,sans-Serif" font-size="10.00">tvm::Type</text>
<polyline fill="none" stroke="black" points="260,-790.5 419,-790.5 "/>
<text text-anchor="middle" x="339.5" y="-778.5" font-family="Helvetica,sans-Serif" font-size="10.00"> </text>
<polyline fill="none" stroke="black" points="260,-771.5 419,-771.5 "/>
<text text-anchor="start" x="268" y="-759.5" font-family="Helvetica,sans-Serif" font-size="10.00">+ TVM_FFI_DEFINE_OBJECT</text>
<text text-anchor="start" x="268" y="-748.5" font-family="Helvetica,sans-Serif" font-size="10.00">_REF_METHODS_NULLABLE()</text>
</a>
</g>
</g>
<!-- Node7&#45;&gt;Node8 -->
<g id="edge8" class="edge">
<title>Node7&#45;&gt;Node8</title>
<path fill="none" stroke="midnightblue" d="M249.27,-851.92C265.41,-838.43 283.9,-822.98 299.92,-809.59"/>
<polygon fill="none" stroke="midnightblue" points="246.98,-849.27 241.56,-858.37 251.47,-854.64 246.98,-849.27"/>
</g>
<!-- Node8&#45;&gt;Node2 -->
<g id="edge10" class="edge">
<title>Node8&#45;&gt;Node2</title>
<path fill="none" stroke="#404040" d="M345,-741.31C357.69,-658.44 385.3,-436.15 349.5,-256 347.79,-247.4 345.22,-238.59 342.22,-230.03"/>
<polygon fill="none" stroke="#404040" points="342.13,-229.79 336.27,-225.58 337.91,-218.55 343.76,-222.76 342.13,-229.79"/>
<text text-anchor="middle" x="409" y="-357" font-family="Helvetica,sans-Serif" font-size="10.00"> +type_annotation</text>
</g>
<!-- Node8&#45;&gt;Node4 -->
<g id="edge7" class="edge">
<title>Node8&#45;&gt;Node4</title>
<path fill="none" stroke="#404040" d="M271.31,-741.37C244.38,-726.1 214.45,-706.19 191.5,-683 164.61,-655.83 142.33,-619.15 126.66,-588.97"/>
<polygon fill="none" stroke="#404040" points="126.61,-588.88 120.33,-585.34 121.19,-578.18 127.47,-581.72 126.61,-588.88"/>
<text text-anchor="middle" x="235.5" y="-704" font-family="Helvetica,sans-Serif" font-size="10.00"> +ty</text>
</g>
<!-- Node9 -->
<g id="node9" class="node">
<title>Node9</title>
<g id="a_node9"><a xlink:href="classtvm_1_1runtime_1_1DataType.html" target="_top" xlink:title="Runtime primitive data type.">
<polygon fill="white" stroke="black" points="200.5,-383.5 200.5,-682.5 340.5,-682.5 340.5,-383.5 200.5,-383.5"/>
<text text-anchor="middle" x="270.5" y="-670.5" font-family="Helvetica,sans-Serif" font-size="10.00">tvm::runtime::DataType</text>
<polyline fill="none" stroke="black" points="200.5,-663.5 340.5,-663.5 "/>
<text text-anchor="middle" x="270.5" y="-651.5" font-family="Helvetica,sans-Serif" font-size="10.00"> </text>
<polyline fill="none" stroke="black" points="200.5,-644.5 340.5,-644.5 "/>
<text text-anchor="start" x="208.5" y="-632.5" font-family="Helvetica,sans-Serif" font-size="10.00">+ DataType()</text>
<text text-anchor="start" x="208.5" y="-621.5" font-family="Helvetica,sans-Serif" font-size="10.00">+ DataType()</text>
<text text-anchor="start" x="208.5" y="-610.5" font-family="Helvetica,sans-Serif" font-size="10.00">+ DataType()</text>
<text text-anchor="start" x="208.5" y="-599.5" font-family="Helvetica,sans-Serif" font-size="10.00">+ code()</text>
<text text-anchor="start" x="208.5" y="-588.5" font-family="Helvetica,sans-Serif" font-size="10.00">+ bits()</text>
<text text-anchor="start" x="208.5" y="-577.5" font-family="Helvetica,sans-Serif" font-size="10.00">+ bytes()</text>
<text text-anchor="start" x="208.5" y="-566.5" font-family="Helvetica,sans-Serif" font-size="10.00">+ lanes()</text>
<text text-anchor="start" x="208.5" y="-555.5" font-family="Helvetica,sans-Serif" font-size="10.00">+ vscale_factor()</text>
<text text-anchor="start" x="208.5" y="-544.5" font-family="Helvetica,sans-Serif" font-size="10.00">+ get_lanes_or_vscale</text>
<text text-anchor="start" x="208.5" y="-533.5" font-family="Helvetica,sans-Serif" font-size="10.00">_factor()</text>
<text text-anchor="start" x="208.5" y="-522.5" font-family="Helvetica,sans-Serif" font-size="10.00">+ is_scalar()</text>
<text text-anchor="start" x="208.5" y="-511.5" font-family="Helvetica,sans-Serif" font-size="10.00">and 37 more...</text>
<text text-anchor="start" x="208.5" y="-500.5" font-family="Helvetica,sans-Serif" font-size="10.00">+ Int()</text>
<text text-anchor="start" x="208.5" y="-489.5" font-family="Helvetica,sans-Serif" font-size="10.00">+ UInt()</text>
<text text-anchor="start" x="208.5" y="-478.5" font-family="Helvetica,sans-Serif" font-size="10.00">+ Float()</text>
<text text-anchor="start" x="208.5" y="-467.5" font-family="Helvetica,sans-Serif" font-size="10.00">+ BFloat()</text>
<text text-anchor="start" x="208.5" y="-456.5" font-family="Helvetica,sans-Serif" font-size="10.00">+ Float8E3M4()</text>
<text text-anchor="start" x="208.5" y="-445.5" font-family="Helvetica,sans-Serif" font-size="10.00">+ Float8E4M3()</text>
<text text-anchor="start" x="208.5" y="-434.5" font-family="Helvetica,sans-Serif" font-size="10.00">+ Float8E4M3B11FNUZ()</text>
<text text-anchor="start" x="208.5" y="-423.5" font-family="Helvetica,sans-Serif" font-size="10.00">+ Float8E4M3FN()</text>
<text text-anchor="start" x="208.5" y="-412.5" font-family="Helvetica,sans-Serif" font-size="10.00">+ Float8E4M3FNUZ()</text>
<text text-anchor="start" x="208.5" y="-401.5" font-family="Helvetica,sans-Serif" font-size="10.00">+ Float8E5M2()</text>
<text text-anchor="start" x="208.5" y="-390.5" font-family="Helvetica,sans-Serif" font-size="10.00">and 9 more...</text>
</a>
</g>
</g>
<!-- Node9&#45;&gt;Node3 -->
<g id="edge9" class="edge">
<title>Node9&#45;&gt;Node3</title>
<path fill="none" stroke="#404040" d="M263.53,-383.17C262.95,-370.73 262.39,-358.8 261.89,-347.98"/>
<polygon fill="none" stroke="#404040" points="261.88,-347.83 257.6,-342.02 261.32,-335.84 265.59,-341.65 261.88,-347.83"/>
<text text-anchor="middle" x="281.5" y="-357" font-family="Helvetica,sans-Serif" font-size="10.00"> +dtype</text>
</g>
</g>
</svg>
