<?xml version="1.0" encoding="UTF-8" standalone="no"?>
<!DOCTYPE svg PUBLIC "-//W3C//DTD SVG 1.1//EN"
 "http://www.w3.org/Graphics/SVG/1.1/DTD/svg11.dtd">
<!-- Generated by graphviz version 2.43.0 (0)
 -->
<!-- Title: tvm::relax::TypeVisitor Pages: 1 -->
<svg width="141pt" height="259pt"
 viewBox="0.00 0.00 141.00 259.00" xmlns="http://www.w3.org/2000/svg" xmlns:xlink="http://www.w3.org/1999/xlink">
<g id="graph0" class="graph" transform="scale(1 1) rotate(0) translate(4 255)">
<title>tvm::relax::TypeVisitor</title>
<polygon fill="white" stroke="transparent" points="-4,4 -4,-255 137,-255 137,4 -4,4"/>
<!-- Node1 -->
<g id="node1" class="node">
<title>Node1</title>
<g id="a_node1"><a xlink:title="A type visitor.">
<polygon fill="#bfbfbf" stroke="black" points="3,-0.5 3,-145.5 130,-145.5 130,-0.5 3,-0.5"/>
<text text-anchor="middle" x="66.5" y="-133.5" font-family="Helvetica,sans-Serif" font-size="10.00">tvm::relax::TypeVisitor</text>
<polyline fill="none" stroke="black" points="3,-126.5 130,-126.5 "/>
<text text-anchor="middle" x="66.5" y="-114.5" font-family="Helvetica,sans-Serif" font-size="10.00"> </text>
<polyline fill="none" stroke="black" points="3,-107.5 130,-107.5 "/>
<text text-anchor="start" x="11" y="-95.5" font-family="Helvetica,sans-Serif" font-size="10.00">+ VisitType_()</text>
<text text-anchor="start" x="11" y="-84.5" font-family="Helvetica,sans-Serif" font-size="10.00">+ VisitType_()</text>
<text text-anchor="start" x="11" y="-73.5" font-family="Helvetica,sans-Serif" font-size="10.00">+ VisitType_()</text>
<text text-anchor="start" x="11" y="-62.5" font-family="Helvetica,sans-Serif" font-size="10.00">+ VisitType_()</text>
<text text-anchor="start" x="11" y="-51.5" font-family="Helvetica,sans-Serif" font-size="10.00">+ VisitType_()</text>
<text text-anchor="start" x="11" y="-40.5" font-family="Helvetica,sans-Serif" font-size="10.00">+ VisitType_()</text>
<text text-anchor="start" x="11" y="-29.5" font-family="Helvetica,sans-Serif" font-size="10.00">+ VisitType_()</text>
<text text-anchor="start" x="11" y="-18.5" font-family="Helvetica,sans-Serif" font-size="10.00"># VisitTypeExprField()</text>
<text text-anchor="start" x="11" y="-7.5" font-family="Helvetica,sans-Serif" font-size="10.00"># VisitTypeExprField()</text>
</a>
</g>
</g>
<!-- Node2 -->
<g id="node2" class="node">
<title>Node2</title>
<g id="a_node2"><a xlink:href="classtvm_1_1relax_1_1TypeFunctor.html" target="_top" xlink:title=" ">
<polygon fill="white" stroke="black" points="0,-182.5 0,-250.5 133,-250.5 133,-182.5 0,-182.5"/>
<text text-anchor="start" x="8" y="-238.5" font-family="Helvetica,sans-Serif" font-size="10.00">tvm::relax::TypeFunctor</text>
<text text-anchor="middle" x="66.5" y="-227.5" font-family="Helvetica,sans-Serif" font-size="10.00">&lt; void(const Type &amp;n)&gt;</text>
<polyline fill="none" stroke="black" points="0,-220.5 133,-220.5 "/>
<text text-anchor="middle" x="66.5" y="-208.5" font-family="Helvetica,sans-Serif" font-size="10.00"> </text>
<polyline fill="none" stroke="black" points="0,-201.5 133,-201.5 "/>
<text text-anchor="middle" x="66.5" y="-189.5" font-family="Helvetica,sans-Serif" font-size="10.00"> </text>
</a>
</g>
</g>
<!-- Node2&#45;&gt;Node1 -->
<g id="edge1" class="edge">
<title>Node2&#45;&gt;Node1</title>
<path fill="none" stroke="midnightblue" d="M66.5,-172.09C66.5,-163.73 66.5,-154.76 66.5,-145.77"/>
<polygon fill="none" stroke="midnightblue" points="63,-172.32 66.5,-182.32 70,-172.32 63,-172.32"/>
</g>
</g>
</svg>
