<?xml version="1.0" encoding="UTF-8" standalone="no"?>
<!DOCTYPE svg PUBLIC "-//W3C//DTD SVG 1.1//EN"
 "http://www.w3.org/Graphics/SVG/1.1/DTD/svg11.dtd">
<!-- Generated by graphviz version 2.43.0 (0)
 -->
<!-- Title: tvm::transform::PassContextNode Pages: 1 -->
<svg width="190pt" height="259pt"
 viewBox="0.00 0.00 190.00 259.00" xmlns="http://www.w3.org/2000/svg" xmlns:xlink="http://www.w3.org/1999/xlink">
<g id="graph0" class="graph" transform="scale(1 1) rotate(0) translate(4 255)">
<title>tvm::transform::PassContextNode</title>
<polygon fill="white" stroke="transparent" points="-4,4 -4,-255 186,-255 186,4 -4,4"/>
<!-- Node1 -->
<g id="node1" class="node">
<title>Node1</title>
<g id="a_node1"><a xlink:title="PassContextNode contains the information that a pass can rely on, such as analysis results.">
<polygon fill="#bfbfbf" stroke="black" points="0,-0.5 0,-156.5 182,-156.5 182,-0.5 0,-0.5"/>
<text text-anchor="middle" x="91" y="-144.5" font-family="Helvetica,sans-Serif" font-size="10.00">tvm::transform::PassContextNode</text>
<polyline fill="none" stroke="black" points="0,-137.5 182,-137.5 "/>
<text text-anchor="start" x="8" y="-125.5" font-family="Helvetica,sans-Serif" font-size="10.00">+ opt_level</text>
<text text-anchor="start" x="8" y="-114.5" font-family="Helvetica,sans-Serif" font-size="10.00">+ required_pass</text>
<text text-anchor="start" x="8" y="-103.5" font-family="Helvetica,sans-Serif" font-size="10.00">+ disabled_pass</text>
<text text-anchor="start" x="8" y="-92.5" font-family="Helvetica,sans-Serif" font-size="10.00">+ config</text>
<text text-anchor="start" x="8" y="-81.5" font-family="Helvetica,sans-Serif" font-size="10.00">+ instruments</text>
<polyline fill="none" stroke="black" points="0,-74.5 182,-74.5 "/>
<text text-anchor="start" x="8" y="-62.5" font-family="Helvetica,sans-Serif" font-size="10.00">+ PassContextNode()</text>
<text text-anchor="start" x="8" y="-51.5" font-family="Helvetica,sans-Serif" font-size="10.00">+ GetConfig()</text>
<text text-anchor="start" x="8" y="-40.5" font-family="Helvetica,sans-Serif" font-size="10.00">+ GetConfig()</text>
<text text-anchor="start" x="8" y="-29.5" font-family="Helvetica,sans-Serif" font-size="10.00">+ TVM_FFI_DECLARE_OBJECT</text>
<text text-anchor="start" x="8" y="-18.5" font-family="Helvetica,sans-Serif" font-size="10.00">_INFO_FINAL()</text>
<text text-anchor="start" x="8" y="-7.5" font-family="Helvetica,sans-Serif" font-size="10.00">+ RegisterReflection()</text>
</a>
</g>
</g>
<!-- Node2 -->
<g id="node2" class="node">
<title>Node2</title>
<g id="a_node2"><a xlink:title=" ">
<polygon fill="white" stroke="#bfbfbf" points="59,-193.5 59,-250.5 123,-250.5 123,-193.5 59,-193.5"/>
<text text-anchor="middle" x="91" y="-238.5" font-family="Helvetica,sans-Serif" font-size="10.00">ffi::Object</text>
<polyline fill="none" stroke="#bfbfbf" points="59,-231.5 123,-231.5 "/>
<text text-anchor="middle" x="91" y="-219.5" font-family="Helvetica,sans-Serif" font-size="10.00"> </text>
<polyline fill="none" stroke="#bfbfbf" points="59,-212.5 123,-212.5 "/>
<text text-anchor="middle" x="91" y="-200.5" font-family="Helvetica,sans-Serif" font-size="10.00"> </text>
</a>
</g>
</g>
<!-- Node2&#45;&gt;Node1 -->
<g id="edge1" class="edge">
<title>Node2&#45;&gt;Node1</title>
<path fill="none" stroke="midnightblue" d="M91,-183.34C91,-175.04 91,-165.96 91,-156.74"/>
<polygon fill="none" stroke="midnightblue" points="87.5,-183.38 91,-193.38 94.5,-183.38 87.5,-183.38"/>
</g>
</g>
</svg>
