<?xml version="1.0" encoding="UTF-8" standalone="no"?>
<!DOCTYPE svg PUBLIC "-//W3C//DTD SVG 1.1//EN"
 "http://www.w3.org/Graphics/SVG/1.1/DTD/svg11.dtd">
<!-- Generated by graphviz version 2.43.0 (0)
 -->
<!-- Title: tvm::arith::AnalyzerObj Pages: 1 -->
<svg width="1303pt" height="424pt"
 viewBox="0.00 0.00 1302.50 424.00" xmlns="http://www.w3.org/2000/svg" xmlns:xlink="http://www.w3.org/1999/xlink">
<g id="graph0" class="graph" transform="scale(1 1) rotate(0) translate(4 420)">
<title>tvm::arith::AnalyzerObj</title>
<polygon fill="white" stroke="transparent" points="-4,4 -4,-420 1298.5,-420 1298.5,4 -4,4"/>
<!-- Node1 -->
<g id="node1" class="node">
<title>Node1</title>
<g id="a_node1"><a xlink:title="Analyzer that contains bunch of sub&#45;analyzers.">
<polygon fill="#bfbfbf" stroke="black" points="508,-0.5 508,-200.5 700,-200.5 700,-0.5 508,-0.5"/>
<text text-anchor="middle" x="604" y="-188.5" font-family="Helvetica,sans-Serif" font-size="10.00">tvm::arith::AnalyzerObj</text>
<polyline fill="none" stroke="black" points="508,-181.5 700,-181.5 "/>
<text text-anchor="start" x="516" y="-169.5" font-family="Helvetica,sans-Serif" font-size="10.00">+ _type_mutable</text>
<polyline fill="none" stroke="black" points="508,-162.5 700,-162.5 "/>
<text text-anchor="start" x="516" y="-150.5" font-family="Helvetica,sans-Serif" font-size="10.00">+ AnalyzerObj()</text>
<text text-anchor="start" x="516" y="-139.5" font-family="Helvetica,sans-Serif" font-size="10.00">+ MarkGlobalNonNegValue()</text>
<text text-anchor="start" x="516" y="-128.5" font-family="Helvetica,sans-Serif" font-size="10.00">+ Bind()</text>
<text text-anchor="start" x="516" y="-117.5" font-family="Helvetica,sans-Serif" font-size="10.00">+ Bind()</text>
<text text-anchor="start" x="516" y="-106.5" font-family="Helvetica,sans-Serif" font-size="10.00">+ Bind()</text>
<text text-anchor="start" x="516" y="-95.5" font-family="Helvetica,sans-Serif" font-size="10.00">+ CanProveGreaterEqual()</text>
<text text-anchor="start" x="516" y="-84.5" font-family="Helvetica,sans-Serif" font-size="10.00">+ CanProveLess()</text>
<text text-anchor="start" x="516" y="-73.5" font-family="Helvetica,sans-Serif" font-size="10.00">+ CanProveEqual()</text>
<text text-anchor="start" x="516" y="-62.5" font-family="Helvetica,sans-Serif" font-size="10.00">+ CanProveLessEqualThanSymbolic</text>
<text text-anchor="start" x="516" y="-51.5" font-family="Helvetica,sans-Serif" font-size="10.00">ShapeValue()</text>
<text text-anchor="start" x="516" y="-40.5" font-family="Helvetica,sans-Serif" font-size="10.00">+ CanProve()</text>
<text text-anchor="start" x="516" y="-29.5" font-family="Helvetica,sans-Serif" font-size="10.00">+ Simplify()</text>
<text text-anchor="start" x="516" y="-18.5" font-family="Helvetica,sans-Serif" font-size="10.00">+ TVM_FFI_DECLARE_OBJECT</text>
<text text-anchor="start" x="516" y="-7.5" font-family="Helvetica,sans-Serif" font-size="10.00">_INFO_FINAL()</text>
</a>
</g>
</g>
<!-- Node2 -->
<g id="node2" class="node">
<title>Node2</title>
<g id="a_node2"><a xlink:title=" ">
<polygon fill="white" stroke="#bfbfbf" points="0,-303.5 0,-360.5 64,-360.5 64,-303.5 0,-303.5"/>
<text text-anchor="middle" x="32" y="-348.5" font-family="Helvetica,sans-Serif" font-size="10.00">ffi::Object</text>
<polyline fill="none" stroke="#bfbfbf" points="0,-341.5 64,-341.5 "/>
<text text-anchor="middle" x="32" y="-329.5" font-family="Helvetica,sans-Serif" font-size="10.00"> </text>
<polyline fill="none" stroke="#bfbfbf" points="0,-322.5 64,-322.5 "/>
<text text-anchor="middle" x="32" y="-310.5" font-family="Helvetica,sans-Serif" font-size="10.00"> </text>
</a>
</g>
</g>
<!-- Node2&#45;&gt;Node1 -->
<g id="edge1" class="edge">
<title>Node2&#45;&gt;Node1</title>
<path fill="none" stroke="midnightblue" d="M42.77,-293.61C49.15,-277.49 58.84,-259.7 73,-248 198.69,-144.14 392.5,-113.64 507.93,-104.85"/>
<polygon fill="none" stroke="midnightblue" points="39.35,-292.76 39.2,-303.36 45.92,-295.17 39.35,-292.76"/>
</g>
<!-- Node3 -->
<g id="node3" class="node">
<title>Node3</title>
<g id="a_node3"><a xlink:href="classtvm_1_1arith_1_1Z3Prover.html" target="_top" xlink:title=" ">
<polygon fill="white" stroke="black" points="82,-248.5 82,-415.5 226,-415.5 226,-248.5 82,-248.5"/>
<text text-anchor="middle" x="154" y="-403.5" font-family="Helvetica,sans-Serif" font-size="10.00">tvm::arith::Z3Prover</text>
<polyline fill="none" stroke="black" points="82,-396.5 226,-396.5 "/>
<text text-anchor="middle" x="154" y="-384.5" font-family="Helvetica,sans-Serif" font-size="10.00"> </text>
<polyline fill="none" stroke="black" points="82,-377.5 226,-377.5 "/>
<text text-anchor="start" x="90" y="-365.5" font-family="Helvetica,sans-Serif" font-size="10.00">+ Bind()</text>
<text text-anchor="start" x="90" y="-354.5" font-family="Helvetica,sans-Serif" font-size="10.00">+ Bind()</text>
<text text-anchor="start" x="90" y="-343.5" font-family="Helvetica,sans-Serif" font-size="10.00">+ IsEnabled()</text>
<text text-anchor="start" x="90" y="-332.5" font-family="Helvetica,sans-Serif" font-size="10.00">+ CanProve()</text>
<text text-anchor="start" x="90" y="-321.5" font-family="Helvetica,sans-Serif" font-size="10.00">+ EnterConstraint()</text>
<text text-anchor="start" x="90" y="-310.5" font-family="Helvetica,sans-Serif" font-size="10.00">+ GetSMTLIB2()</text>
<text text-anchor="start" x="90" y="-299.5" font-family="Helvetica,sans-Serif" font-size="10.00">+ GetStats()</text>
<text text-anchor="start" x="90" y="-288.5" font-family="Helvetica,sans-Serif" font-size="10.00">+ SetTimeoutMs()</text>
<text text-anchor="start" x="90" y="-277.5" font-family="Helvetica,sans-Serif" font-size="10.00">+ SetRLimit()</text>
<text text-anchor="start" x="90" y="-266.5" font-family="Helvetica,sans-Serif" font-size="10.00">+ GetModel()</text>
<text text-anchor="start" x="90" y="-255.5" font-family="Helvetica,sans-Serif" font-size="10.00">+ CountSatisfyingValues()</text>
</a>
</g>
</g>
<!-- Node3&#45;&gt;Node1 -->
<g id="edge2" class="edge">
<title>Node3&#45;&gt;Node1</title>
<path fill="none" stroke="#404040" d="M226.03,-254.38C228.99,-252.15 231.98,-250.01 235,-248 315.75,-194.2 419.27,-155.27 496.1,-131.12"/>
<polygon fill="none" stroke="#404040" points="496.26,-131.07 500.8,-125.48 507.72,-127.52 503.17,-133.12 496.26,-131.07"/>
<text text-anchor="middle" x="312" y="-222" font-family="Helvetica,sans-Serif" font-size="10.00"> +z3_prover</text>
</g>
<!-- Node4 -->
<g id="node4" class="node">
<title>Node4</title>
<g id="a_node4"><a xlink:href="classtvm_1_1arith_1_1CanonicalSimplifier.html" target="_top" xlink:title="Canonical&#45;form based simplifier.">
<polygon fill="white" stroke="black" points="244.5,-298 244.5,-366 409.5,-366 409.5,-298 244.5,-298"/>
<text text-anchor="middle" x="327" y="-354" font-family="Helvetica,sans-Serif" font-size="10.00">tvm::arith::CanonicalSimplifier</text>
<polyline fill="none" stroke="black" points="244.5,-347 409.5,-347 "/>
<text text-anchor="middle" x="327" y="-335" font-family="Helvetica,sans-Serif" font-size="10.00"> </text>
<polyline fill="none" stroke="black" points="244.5,-328 409.5,-328 "/>
<text text-anchor="start" x="252.5" y="-316" font-family="Helvetica,sans-Serif" font-size="10.00">+ operator()()</text>
<text text-anchor="start" x="252.5" y="-305" font-family="Helvetica,sans-Serif" font-size="10.00">+ Update()</text>
</a>
</g>
</g>
<!-- Node4&#45;&gt;Node1 -->
<g id="edge3" class="edge">
<title>Node4&#45;&gt;Node1</title>
<path fill="none" stroke="#404040" d="M359.22,-297.95C382.15,-274.99 414.07,-244.13 444,-219 461,-204.72 479.58,-190.19 497.86,-176.43"/>
<polygon fill="none" stroke="#404040" points="498.07,-176.28 500.48,-169.49 507.68,-169.1 505.27,-175.9 498.07,-176.28"/>
<text text-anchor="middle" x="495.5" y="-222" font-family="Helvetica,sans-Serif" font-size="10.00"> +canonical_simplify</text>
</g>
<!-- Node5 -->
<g id="node5" class="node">
<title>Node5</title>
<g id="a_node5"><a xlink:href="classtvm_1_1arith_1_1RewriteSimplifier.html" target="_top" xlink:title="Rewrite&#45;rule based simplifier.">
<polygon fill="white" stroke="black" points="427.5,-265 427.5,-399 592.5,-399 592.5,-265 427.5,-265"/>
<text text-anchor="middle" x="510" y="-387" font-family="Helvetica,sans-Serif" font-size="10.00">tvm::arith::RewriteSimplifier</text>
<polyline fill="none" stroke="black" points="427.5,-380 592.5,-380 "/>
<text text-anchor="middle" x="510" y="-368" font-family="Helvetica,sans-Serif" font-size="10.00"> </text>
<polyline fill="none" stroke="black" points="427.5,-361 592.5,-361 "/>
<text text-anchor="start" x="435.5" y="-349" font-family="Helvetica,sans-Serif" font-size="10.00">+ operator()()</text>
<text text-anchor="start" x="435.5" y="-338" font-family="Helvetica,sans-Serif" font-size="10.00">+ Update()</text>
<text text-anchor="start" x="435.5" y="-327" font-family="Helvetica,sans-Serif" font-size="10.00">+ EnterConstraint()</text>
<text text-anchor="start" x="435.5" y="-316" font-family="Helvetica,sans-Serif" font-size="10.00">+ SetEnabledExtensions()</text>
<text text-anchor="start" x="435.5" y="-305" font-family="Helvetica,sans-Serif" font-size="10.00">+ GetEnabledExtensions()</text>
<text text-anchor="start" x="435.5" y="-294" font-family="Helvetica,sans-Serif" font-size="10.00">+ GetStatsCounters()</text>
<text text-anchor="start" x="435.5" y="-283" font-family="Helvetica,sans-Serif" font-size="10.00">+ ResetStatsCounters()</text>
<text text-anchor="start" x="435.5" y="-272" font-family="Helvetica,sans-Serif" font-size="10.00">+ SetMaximumRewriteSteps()</text>
</a>
</g>
</g>
<!-- Node5&#45;&gt;Node1 -->
<g id="edge4" class="edge">
<title>Node5&#45;&gt;Node1</title>
<path fill="none" stroke="#404040" d="M537.06,-264.93C543.84,-248.37 551.31,-230.15 558.71,-212.07"/>
<polygon fill="none" stroke="#404040" points="558.76,-211.95 557.33,-204.88 563.31,-200.85 564.74,-207.91 558.76,-211.95"/>
<text text-anchor="middle" x="599.5" y="-222" font-family="Helvetica,sans-Serif" font-size="10.00"> +rewrite_simplify</text>
</g>
<!-- Node6 -->
<g id="node6" class="node">
<title>Node6</title>
<g id="a_node6"><a xlink:href="classtvm_1_1arith_1_1TransitiveComparisonAnalyzer.html" target="_top" xlink:title="Using previously specified knowns, compare the expressions provided.">
<polygon fill="white" stroke="black" points="611,-281.5 611,-382.5 787,-382.5 787,-281.5 611,-281.5"/>
<text text-anchor="start" x="619" y="-370.5" font-family="Helvetica,sans-Serif" font-size="10.00">tvm::arith::TransitiveComparison</text>
<text text-anchor="middle" x="699" y="-359.5" font-family="Helvetica,sans-Serif" font-size="10.00">Analyzer</text>
<polyline fill="none" stroke="black" points="611,-352.5 787,-352.5 "/>
<text text-anchor="middle" x="699" y="-340.5" font-family="Helvetica,sans-Serif" font-size="10.00"> </text>
<polyline fill="none" stroke="black" points="611,-333.5 787,-333.5 "/>
<text text-anchor="start" x="619" y="-321.5" font-family="Helvetica,sans-Serif" font-size="10.00">+ TryCompare()</text>
<text text-anchor="start" x="619" y="-310.5" font-family="Helvetica,sans-Serif" font-size="10.00">+ Bind()</text>
<text text-anchor="start" x="619" y="-299.5" font-family="Helvetica,sans-Serif" font-size="10.00">+ Bind()</text>
<text text-anchor="start" x="619" y="-288.5" font-family="Helvetica,sans-Serif" font-size="10.00">+ EnterConstraint()</text>
</a>
</g>
</g>
<!-- Node6&#45;&gt;Node1 -->
<g id="edge5" class="edge">
<title>Node6&#45;&gt;Node1</title>
<path fill="none" stroke="#404040" d="M678.5,-281.48C670.04,-261.03 659.86,-236.43 649.78,-212.09"/>
<polygon fill="none" stroke="#404040" points="649.75,-212.02 643.76,-208.01 645.16,-200.94 651.15,-204.95 649.75,-212.02"/>
<text text-anchor="middle" x="720" y="-222" font-family="Helvetica,sans-Serif" font-size="10.00"> +transitive_comparisons</text>
</g>
<!-- Node7 -->
<g id="node7" class="node">
<title>Node7</title>
<g id="a_node7"><a xlink:href="classtvm_1_1arith_1_1ConstIntBoundAnalyzer.html" target="_top" xlink:title="Analyzer to get constant integer bound over expression.">
<polygon fill="white" stroke="black" points="805,-276 805,-388 947,-388 947,-276 805,-276"/>
<text text-anchor="start" x="813" y="-376" font-family="Helvetica,sans-Serif" font-size="10.00">tvm::arith::ConstIntBound</text>
<text text-anchor="middle" x="876" y="-365" font-family="Helvetica,sans-Serif" font-size="10.00">Analyzer</text>
<polyline fill="none" stroke="black" points="805,-358 947,-358 "/>
<text text-anchor="middle" x="876" y="-346" font-family="Helvetica,sans-Serif" font-size="10.00"> </text>
<polyline fill="none" stroke="black" points="805,-339 947,-339 "/>
<text text-anchor="start" x="813" y="-327" font-family="Helvetica,sans-Serif" font-size="10.00">+ operator()()</text>
<text text-anchor="start" x="813" y="-316" font-family="Helvetica,sans-Serif" font-size="10.00">+ operator()()</text>
<text text-anchor="start" x="813" y="-305" font-family="Helvetica,sans-Serif" font-size="10.00">+ Update()</text>
<text text-anchor="start" x="813" y="-294" font-family="Helvetica,sans-Serif" font-size="10.00">+ Bind()</text>
<text text-anchor="start" x="813" y="-283" font-family="Helvetica,sans-Serif" font-size="10.00">+ IsBound()</text>
</a>
</g>
</g>
<!-- Node7&#45;&gt;Node1 -->
<g id="edge6" class="edge">
<title>Node7&#45;&gt;Node1</title>
<path fill="none" stroke="#404040" d="M837.87,-275.76C823.21,-256.6 805.52,-235.74 787,-219 764.01,-198.21 736.94,-178.67 710.77,-161.72"/>
<polygon fill="none" stroke="#404040" points="710.53,-161.56 703.32,-161.71 700.42,-155.11 707.62,-154.96 710.53,-161.56"/>
<text text-anchor="middle" x="843.5" y="-222" font-family="Helvetica,sans-Serif" font-size="10.00"> +const_int_bound</text>
</g>
<!-- Node8 -->
<g id="node8" class="node">
<title>Node8</title>
<g id="a_node8"><a xlink:href="classtvm_1_1arith_1_1IntSetAnalyzer.html" target="_top" xlink:title="Integer set analyzer.">
<polygon fill="white" stroke="black" points="965,-281.5 965,-382.5 1107,-382.5 1107,-281.5 965,-281.5"/>
<text text-anchor="middle" x="1036" y="-370.5" font-family="Helvetica,sans-Serif" font-size="10.00">tvm::arith::IntSetAnalyzer</text>
<polyline fill="none" stroke="black" points="965,-363.5 1107,-363.5 "/>
<text text-anchor="middle" x="1036" y="-351.5" font-family="Helvetica,sans-Serif" font-size="10.00"> </text>
<polyline fill="none" stroke="black" points="965,-344.5 1107,-344.5 "/>
<text text-anchor="start" x="973" y="-332.5" font-family="Helvetica,sans-Serif" font-size="10.00">+ operator()()</text>
<text text-anchor="start" x="973" y="-321.5" font-family="Helvetica,sans-Serif" font-size="10.00">+ operator()()</text>
<text text-anchor="start" x="973" y="-310.5" font-family="Helvetica,sans-Serif" font-size="10.00">+ Update()</text>
<text text-anchor="start" x="973" y="-299.5" font-family="Helvetica,sans-Serif" font-size="10.00">+ Bind()</text>
<text text-anchor="start" x="973" y="-288.5" font-family="Helvetica,sans-Serif" font-size="10.00">+ EnterConstraint()</text>
</a>
</g>
</g>
<!-- Node8&#45;&gt;Node1 -->
<g id="edge7" class="edge">
<title>Node8&#45;&gt;Node1</title>
<path fill="none" stroke="#404040" d="M993.91,-281.26C982.4,-269.43 969.38,-257.5 956,-248 881.47,-195.06 784.9,-156.6 711.77,-132.41"/>
<polygon fill="none" stroke="#404040" points="711.65,-132.37 704.71,-134.31 700.24,-128.65 707.19,-126.71 711.65,-132.37"/>
<text text-anchor="middle" x="943.5" y="-222" font-family="Helvetica,sans-Serif" font-size="10.00"> +int_set</text>
</g>
<!-- Node9 -->
<g id="node9" class="node">
<title>Node9</title>
<g id="a_node9"><a xlink:href="classtvm_1_1arith_1_1ModularSetAnalyzer.html" target="_top" xlink:title="Analyzer to get modular information over expression.">
<polygon fill="white" stroke="black" points="1125.5,-298 1125.5,-366 1294.5,-366 1294.5,-298 1125.5,-298"/>
<text text-anchor="middle" x="1210" y="-354" font-family="Helvetica,sans-Serif" font-size="10.00">tvm::arith::ModularSetAnalyzer</text>
<polyline fill="none" stroke="black" points="1125.5,-347 1294.5,-347 "/>
<text text-anchor="middle" x="1210" y="-335" font-family="Helvetica,sans-Serif" font-size="10.00"> </text>
<polyline fill="none" stroke="black" points="1125.5,-328 1294.5,-328 "/>
<text text-anchor="start" x="1133.5" y="-316" font-family="Helvetica,sans-Serif" font-size="10.00">+ operator()()</text>
<text text-anchor="start" x="1133.5" y="-305" font-family="Helvetica,sans-Serif" font-size="10.00">+ Update()</text>
</a>
</g>
</g>
<!-- Node9&#45;&gt;Node1 -->
<g id="edge8" class="edge">
<title>Node9&#45;&gt;Node1</title>
<path fill="none" stroke="#404040" d="M1179.68,-297.9C1162.47,-280.84 1139.68,-260.97 1116,-248 986.64,-177.16 819.69,-137.72 712.23,-118.06"/>
<polygon fill="none" stroke="#404040" points="712.21,-118.05 705.6,-120.93 700.4,-115.93 707.01,-113.05 712.21,-118.05"/>
<text text-anchor="middle" x="1113.5" y="-222" font-family="Helvetica,sans-Serif" font-size="10.00"> +modular_set</text>
</g>
</g>
</svg>
