<?xml version="1.0" encoding="UTF-8" standalone="no"?>
<!DOCTYPE svg PUBLIC "-//W3C//DTD SVG 1.1//EN"
 "http://www.w3.org/Graphics/SVG/1.1/DTD/svg11.dtd">
<!-- Generated by graphviz version 2.43.0 (0)
 -->
<!-- Title: tvm::relax::DataflowBlockRewriteNode Pages: 1 -->
<svg width="958pt" height="1319pt"
 viewBox="0.00 0.00 957.50 1319.00" xmlns="http://www.w3.org/2000/svg" xmlns:xlink="http://www.w3.org/1999/xlink">
<g id="graph0" class="graph" transform="scale(1 1) rotate(0) translate(4 1315)">
<title>tvm::relax::DataflowBlockRewriteNode</title>
<polygon fill="white" stroke="transparent" points="-4,4 -4,-1315 953.5,-1315 953.5,4 -4,4"/>
<!-- Node1 -->
<g id="node1" class="node">
<title>Node1</title>
<g id="a_node1"><a xlink:title="Statement rewriter for relax.DataflowBlock.">
<polygon fill="#bfbfbf" stroke="black" points="267,-0.5 267,-211.5 429,-211.5 429,-0.5 267,-0.5"/>
<text text-anchor="start" x="275" y="-199.5" font-family="Helvetica,sans-Serif" font-size="10.00">tvm::relax::DataflowBlock</text>
<text text-anchor="middle" x="348" y="-188.5" font-family="Helvetica,sans-Serif" font-size="10.00">RewriteNode</text>
<polyline fill="none" stroke="black" points="267,-181.5 429,-181.5 "/>
<text text-anchor="start" x="275" y="-169.5" font-family="Helvetica,sans-Serif" font-size="10.00"># root_fn_</text>
<text text-anchor="start" x="275" y="-158.5" font-family="Helvetica,sans-Serif" font-size="10.00"># to_users_</text>
<text text-anchor="start" x="275" y="-147.5" font-family="Helvetica,sans-Serif" font-size="10.00"># fn_outputs_</text>
<polyline fill="none" stroke="black" points="267,-140.5 429,-140.5 "/>
<text text-anchor="start" x="275" y="-128.5" font-family="Helvetica,sans-Serif" font-size="10.00">+ ReplaceAllUses()</text>
<text text-anchor="start" x="275" y="-117.5" font-family="Helvetica,sans-Serif" font-size="10.00">+ Add()</text>
<text text-anchor="start" x="275" y="-106.5" font-family="Helvetica,sans-Serif" font-size="10.00">+ Add()</text>
<text text-anchor="start" x="275" y="-95.5" font-family="Helvetica,sans-Serif" font-size="10.00">+ Add()</text>
<text text-anchor="start" x="275" y="-84.5" font-family="Helvetica,sans-Serif" font-size="10.00">+ RemoveUnused()</text>
<text text-anchor="start" x="275" y="-73.5" font-family="Helvetica,sans-Serif" font-size="10.00">+ RemoveAllUnused()</text>
<text text-anchor="start" x="275" y="-62.5" font-family="Helvetica,sans-Serif" font-size="10.00">+ MutatedDataflowBlock()</text>
<text text-anchor="start" x="275" y="-51.5" font-family="Helvetica,sans-Serif" font-size="10.00">+ MutatedFunc()</text>
<text text-anchor="start" x="275" y="-40.5" font-family="Helvetica,sans-Serif" font-size="10.00">+ MutateIRModule()</text>
<text text-anchor="start" x="275" y="-29.5" font-family="Helvetica,sans-Serif" font-size="10.00">+ TVM_FFI_DECLARE_OBJECT</text>
<text text-anchor="start" x="275" y="-18.5" font-family="Helvetica,sans-Serif" font-size="10.00">_INFO_FINAL()</text>
<text text-anchor="start" x="275" y="-7.5" font-family="Helvetica,sans-Serif" font-size="10.00">+ RegisterReflection()</text>
</a>
</g>
</g>
<!-- Node2 -->
<g id="node2" class="node">
<title>Node2</title>
<g id="a_node2"><a xlink:title=" ">
<polygon fill="white" stroke="#bfbfbf" points="0,-1142 0,-1199 64,-1199 64,-1142 0,-1142"/>
<text text-anchor="middle" x="32" y="-1187" font-family="Helvetica,sans-Serif" font-size="10.00">ffi::Object</text>
<polyline fill="none" stroke="#bfbfbf" points="0,-1180 64,-1180 "/>
<text text-anchor="middle" x="32" y="-1168" font-family="Helvetica,sans-Serif" font-size="10.00"> </text>
<polyline fill="none" stroke="#bfbfbf" points="0,-1161 64,-1161 "/>
<text text-anchor="middle" x="32" y="-1149" font-family="Helvetica,sans-Serif" font-size="10.00"> </text>
</a>
</g>
</g>
<!-- Node2&#45;&gt;Node1 -->
<g id="edge1" class="edge">
<title>Node2&#45;&gt;Node1</title>
<path fill="none" stroke="midnightblue" d="M43.95,-1132.14C51.56,-1105.05 60,-1067.38 60,-1033.5 60,-1033.5 60,-1033.5 60,-309 60,-207.47 181.46,-152.62 266.63,-126.64"/>
<polygon fill="none" stroke="midnightblue" points="40.52,-1131.39 41.09,-1141.97 47.24,-1133.35 40.52,-1131.39"/>
</g>
<!-- Node6 -->
<g id="node6" class="node">
<title>Node6</title>
<g id="a_node6"><a xlink:href="classtvm_1_1BaseExprNode.html" target="_top" xlink:title="Base type of all the expressions.">
<polygon fill="white" stroke="black" points="120,-987.5 120,-1077.5 282,-1077.5 282,-987.5 120,-987.5"/>
<text text-anchor="middle" x="201" y="-1065.5" font-family="Helvetica,sans-Serif" font-size="10.00">tvm::BaseExprNode</text>
<polyline fill="none" stroke="black" points="120,-1058.5 282,-1058.5 "/>
<text text-anchor="start" x="128" y="-1046.5" font-family="Helvetica,sans-Serif" font-size="10.00">+ _type_s_eq_hash_kind</text>
<text text-anchor="start" x="128" y="-1035.5" font-family="Helvetica,sans-Serif" font-size="10.00">+ _type_child_slots</text>
<polyline fill="none" stroke="black" points="120,-1028.5 282,-1028.5 "/>
<text text-anchor="start" x="128" y="-1016.5" font-family="Helvetica,sans-Serif" font-size="10.00">+ TVM_FFI_DECLARE_OBJECT</text>
<text text-anchor="start" x="128" y="-1005.5" font-family="Helvetica,sans-Serif" font-size="10.00">_INFO()</text>
<text text-anchor="start" x="128" y="-994.5" font-family="Helvetica,sans-Serif" font-size="10.00">+ RegisterReflection()</text>
</a>
</g>
</g>
<!-- Node2&#45;&gt;Node6 -->
<g id="edge6" class="edge">
<title>Node2&#45;&gt;Node6</title>
<path fill="none" stroke="midnightblue" d="M62.94,-1134.5C66.24,-1131.2 69.63,-1127.98 73,-1125 91.84,-1108.36 113.66,-1091.87 133.9,-1077.56"/>
<polygon fill="none" stroke="midnightblue" points="60.31,-1132.19 55.87,-1141.81 65.34,-1137.06 60.31,-1132.19"/>
</g>
<!-- Node3 -->
<g id="node3" class="node">
<title>Node3</title>
<g id="a_node3"><a xlink:href="classtvm_1_1relax_1_1FunctionNode.html" target="_top" xlink:title="A Relax function.">
<polygon fill="white" stroke="black" points="267,-259.5 267,-360.5 429,-360.5 429,-259.5 267,-259.5"/>
<text text-anchor="middle" x="348" y="-348.5" font-family="Helvetica,sans-Serif" font-size="10.00">tvm::relax::FunctionNode</text>
<polyline fill="none" stroke="black" points="267,-341.5 429,-341.5 "/>
<text text-anchor="start" x="275" y="-329.5" font-family="Helvetica,sans-Serif" font-size="10.00">+ params</text>
<text text-anchor="start" x="275" y="-318.5" font-family="Helvetica,sans-Serif" font-size="10.00">+ is_pure</text>
<text text-anchor="start" x="275" y="-307.5" font-family="Helvetica,sans-Serif" font-size="10.00">+ _type_s_eq_hash_kind</text>
<polyline fill="none" stroke="black" points="267,-300.5 429,-300.5 "/>
<text text-anchor="start" x="275" y="-288.5" font-family="Helvetica,sans-Serif" font-size="10.00">+ TVM_FFI_DECLARE_OBJECT</text>
<text text-anchor="start" x="275" y="-277.5" font-family="Helvetica,sans-Serif" font-size="10.00">_INFO_FINAL()</text>
<text text-anchor="start" x="275" y="-266.5" font-family="Helvetica,sans-Serif" font-size="10.00">+ RegisterReflection()</text>
</a>
</g>
</g>
<!-- Node3&#45;&gt;Node1 -->
<g id="edge2" class="edge">
<title>Node3&#45;&gt;Node1</title>
<path fill="none" stroke="#404040" d="M348,-259.33C348,-248.46 348,-236.52 348,-224.25"/>
<polygon fill="none" stroke="#404040" points="348,-223.89 344,-217.89 348,-211.89 352,-217.89 348,-223.89"/>
<text text-anchor="middle" x="392" y="-233" font-family="Helvetica,sans-Serif" font-size="10.00"> #original_fn_ptr_</text>
</g>
<!-- Node4 -->
<g id="node4" class="node">
<title>Node4</title>
<g id="a_node4"><a xlink:href="classtvm_1_1BaseFuncNode.html" target="_top" xlink:title="Base node of all functions.">
<polygon fill="white" stroke="black" points="158,-408.5 158,-531.5 320,-531.5 320,-408.5 158,-408.5"/>
<text text-anchor="middle" x="239" y="-519.5" font-family="Helvetica,sans-Serif" font-size="10.00">tvm::BaseFuncNode</text>
<polyline fill="none" stroke="black" points="158,-512.5 320,-512.5 "/>
<text text-anchor="start" x="166" y="-500.5" font-family="Helvetica,sans-Serif" font-size="10.00">+ _type_child_slots</text>
<polyline fill="none" stroke="black" points="158,-493.5 320,-493.5 "/>
<text text-anchor="start" x="166" y="-481.5" font-family="Helvetica,sans-Serif" font-size="10.00">+ GetAttr()</text>
<text text-anchor="start" x="166" y="-470.5" font-family="Helvetica,sans-Serif" font-size="10.00">+ GetAttr()</text>
<text text-anchor="start" x="166" y="-459.5" font-family="Helvetica,sans-Serif" font-size="10.00">+ HasNonzeroAttr()</text>
<text text-anchor="start" x="166" y="-448.5" font-family="Helvetica,sans-Serif" font-size="10.00">+ GetLinkageType()</text>
<text text-anchor="start" x="166" y="-437.5" font-family="Helvetica,sans-Serif" font-size="10.00">+ TVM_FFI_DECLARE_OBJECT</text>
<text text-anchor="start" x="166" y="-426.5" font-family="Helvetica,sans-Serif" font-size="10.00">_INFO()</text>
<text text-anchor="start" x="166" y="-415.5" font-family="Helvetica,sans-Serif" font-size="10.00">+ RegisterReflection()</text>
</a>
</g>
</g>
<!-- Node4&#45;&gt;Node3 -->
<g id="edge3" class="edge">
<title>Node4&#45;&gt;Node3</title>
<path fill="none" stroke="midnightblue" d="M286.75,-399.79C295.82,-386.64 305.15,-373.11 313.7,-360.71"/>
<polygon fill="none" stroke="midnightblue" points="283.63,-398.15 280.83,-408.36 289.39,-402.12 283.63,-398.15"/>
</g>
<!-- Node5 -->
<g id="node5" class="node">
<title>Node5</title>
<g id="a_node5"><a xlink:href="classtvm_1_1RelaxExprNode.html" target="_top" xlink:title="Base node of all non&#45;primitive expressions.">
<polygon fill="white" stroke="black" points="141,-681.5 141,-760.5 303,-760.5 303,-681.5 141,-681.5"/>
<text text-anchor="middle" x="222" y="-748.5" font-family="Helvetica,sans-Serif" font-size="10.00">tvm::RelaxExprNode</text>
<polyline fill="none" stroke="black" points="141,-741.5 303,-741.5 "/>
<text text-anchor="start" x="149" y="-729.5" font-family="Helvetica,sans-Serif" font-size="10.00">+ _type_child_slots</text>
<polyline fill="none" stroke="black" points="141,-722.5 303,-722.5 "/>
<text text-anchor="start" x="149" y="-710.5" font-family="Helvetica,sans-Serif" font-size="10.00">+ TVM_FFI_DECLARE_OBJECT</text>
<text text-anchor="start" x="149" y="-699.5" font-family="Helvetica,sans-Serif" font-size="10.00">_INFO()</text>
<text text-anchor="start" x="149" y="-688.5" font-family="Helvetica,sans-Serif" font-size="10.00">+ RegisterReflection()</text>
</a>
</g>
</g>
<!-- Node5&#45;&gt;Node4 -->
<g id="edge4" class="edge">
<title>Node5&#45;&gt;Node4</title>
<path fill="none" stroke="midnightblue" d="M225.32,-671.33C228.05,-631.34 231.93,-574.5 234.86,-531.57"/>
<polygon fill="none" stroke="midnightblue" points="221.83,-671.15 224.64,-681.37 228.81,-671.63 221.83,-671.15"/>
</g>
<!-- Node6&#45;&gt;Node5 -->
<g id="edge5" class="edge">
<title>Node6&#45;&gt;Node5</title>
<path fill="none" stroke="midnightblue" d="M204.69,-977.14C208.89,-915.23 215.65,-815.62 219.36,-760.97"/>
<polygon fill="none" stroke="midnightblue" points="201.17,-977.27 203.99,-987.48 208.16,-977.74 201.17,-977.27"/>
</g>
<!-- Node7 -->
<g id="node7" class="node">
<title>Node7</title>
<g id="a_node7"><a xlink:href="classtvm_1_1Span.html" target="_top" xlink:title=" ">
<polygon fill="white" stroke="black" points="82.5,-1125.5 82.5,-1215.5 241.5,-1215.5 241.5,-1125.5 82.5,-1125.5"/>
<text text-anchor="middle" x="162" y="-1203.5" font-family="Helvetica,sans-Serif" font-size="10.00">tvm::Span</text>
<polyline fill="none" stroke="black" points="82.5,-1196.5 241.5,-1196.5 "/>
<text text-anchor="middle" x="162" y="-1184.5" font-family="Helvetica,sans-Serif" font-size="10.00"> </text>
<polyline fill="none" stroke="black" points="82.5,-1177.5 241.5,-1177.5 "/>
<text text-anchor="start" x="90.5" y="-1165.5" font-family="Helvetica,sans-Serif" font-size="10.00">+ Span()</text>
<text text-anchor="start" x="90.5" y="-1154.5" font-family="Helvetica,sans-Serif" font-size="10.00">+ Merge()</text>
<text text-anchor="start" x="90.5" y="-1143.5" font-family="Helvetica,sans-Serif" font-size="10.00">+ TVM_FFI_DEFINE_OBJECT</text>
<text text-anchor="start" x="90.5" y="-1132.5" font-family="Helvetica,sans-Serif" font-size="10.00">_REF_METHODS_NULLABLE()</text>
</a>
</g>
</g>
<!-- Node7&#45;&gt;Node6 -->
<g id="edge7" class="edge">
<title>Node7&#45;&gt;Node6</title>
<path fill="none" stroke="#404040" d="M174.66,-1125.34C177.93,-1113.94 181.49,-1101.52 184.91,-1089.6"/>
<polygon fill="none" stroke="#404040" points="184.96,-1089.43 182.77,-1082.56 188.27,-1077.9 190.46,-1084.77 184.96,-1089.43"/>
<text text-anchor="middle" x="200.5" y="-1099" font-family="Helvetica,sans-Serif" font-size="10.00"> +span</text>
</g>
<!-- Node8 -->
<g id="node8" class="node">
<title>Node8</title>
<g id="a_node8"><a xlink:title=" ">
<polygon fill="white" stroke="#bfbfbf" points="476,-1253.5 476,-1310.5 556,-1310.5 556,-1253.5 476,-1253.5"/>
<text text-anchor="middle" x="516" y="-1298.5" font-family="Helvetica,sans-Serif" font-size="10.00">ffi::ObjectRef</text>
<polyline fill="none" stroke="#bfbfbf" points="476,-1291.5 556,-1291.5 "/>
<text text-anchor="middle" x="516" y="-1279.5" font-family="Helvetica,sans-Serif" font-size="10.00"> </text>
<polyline fill="none" stroke="#bfbfbf" points="476,-1272.5 556,-1272.5 "/>
<text text-anchor="middle" x="516" y="-1260.5" font-family="Helvetica,sans-Serif" font-size="10.00"> </text>
</a>
</g>
</g>
<!-- Node8&#45;&gt;Node7 -->
<g id="edge8" class="edge">
<title>Node8&#45;&gt;Node7</title>
<path fill="none" stroke="midnightblue" d="M465.9,-1272.31C411.66,-1262.08 323.1,-1243.01 250,-1216 247.27,-1214.99 244.51,-1213.92 241.75,-1212.8"/>
<polygon fill="none" stroke="midnightblue" points="465.48,-1275.79 475.95,-1274.17 466.75,-1268.91 465.48,-1275.79"/>
</g>
<!-- Node9 -->
<g id="node9" class="node">
<title>Node9</title>
<g id="a_node9"><a xlink:href="classtvm_1_1Type.html" target="_top" xlink:title="Managed reference to TypeNode.">
<polygon fill="white" stroke="black" points="259.5,-1136.5 259.5,-1204.5 418.5,-1204.5 418.5,-1136.5 259.5,-1136.5"/>
<text text-anchor="middle" x="339" y="-1192.5" font-family="Helvetica,sans-Serif" font-size="10.00">tvm::Type</text>
<polyline fill="none" stroke="black" points="259.5,-1185.5 418.5,-1185.5 "/>
<text text-anchor="middle" x="339" y="-1173.5" font-family="Helvetica,sans-Serif" font-size="10.00"> </text>
<polyline fill="none" stroke="black" points="259.5,-1166.5 418.5,-1166.5 "/>
<text text-anchor="start" x="267.5" y="-1154.5" font-family="Helvetica,sans-Serif" font-size="10.00">+ TVM_FFI_DEFINE_OBJECT</text>
<text text-anchor="start" x="267.5" y="-1143.5" font-family="Helvetica,sans-Serif" font-size="10.00">_REF_METHODS_NULLABLE()</text>
</a>
</g>
</g>
<!-- Node8&#45;&gt;Node9 -->
<g id="edge10" class="edge">
<title>Node8&#45;&gt;Node9</title>
<path fill="none" stroke="midnightblue" d="M467.19,-1250.8C443.99,-1236.45 416.2,-1219.26 392.43,-1204.56"/>
<polygon fill="none" stroke="midnightblue" points="465.49,-1253.87 475.84,-1256.15 469.17,-1247.92 465.49,-1253.87"/>
</g>
<!-- Node11 -->
<g id="node11" class="node">
<title>Node11</title>
<g id="a_node11"><a xlink:href="classtvm_1_1Attrs.html" target="_top" xlink:title="Managed reference to AttrsNode.">
<polygon fill="white" stroke="black" points="436.5,-1136.5 436.5,-1204.5 595.5,-1204.5 595.5,-1136.5 436.5,-1136.5"/>
<text text-anchor="middle" x="516" y="-1192.5" font-family="Helvetica,sans-Serif" font-size="10.00">tvm::Attrs</text>
<polyline fill="none" stroke="black" points="436.5,-1185.5 595.5,-1185.5 "/>
<text text-anchor="middle" x="516" y="-1173.5" font-family="Helvetica,sans-Serif" font-size="10.00"> </text>
<polyline fill="none" stroke="black" points="436.5,-1166.5 595.5,-1166.5 "/>
<text text-anchor="start" x="444.5" y="-1154.5" font-family="Helvetica,sans-Serif" font-size="10.00">+ TVM_FFI_DEFINE_OBJECT</text>
<text text-anchor="start" x="444.5" y="-1143.5" font-family="Helvetica,sans-Serif" font-size="10.00">_REF_METHODS_NULLABLE()</text>
</a>
</g>
</g>
<!-- Node8&#45;&gt;Node11 -->
<g id="edge13" class="edge">
<title>Node8&#45;&gt;Node11</title>
<path fill="none" stroke="midnightblue" d="M516,-1243.2C516,-1230.64 516,-1216.76 516,-1204.59"/>
<polygon fill="none" stroke="midnightblue" points="512.5,-1243.37 516,-1253.37 519.5,-1243.37 512.5,-1243.37"/>
</g>
<!-- Node14 -->
<g id="node14" class="node">
<title>Node14</title>
<g id="a_node14"><a xlink:href="classtvm_1_1BaseExpr.html" target="_top" xlink:title="Managed reference to BaseExprNode.">
<polygon fill="white" stroke="black" points="613.5,-1136.5 613.5,-1204.5 772.5,-1204.5 772.5,-1136.5 613.5,-1136.5"/>
<text text-anchor="middle" x="693" y="-1192.5" font-family="Helvetica,sans-Serif" font-size="10.00">tvm::BaseExpr</text>
<polyline fill="none" stroke="black" points="613.5,-1185.5 772.5,-1185.5 "/>
<text text-anchor="middle" x="693" y="-1173.5" font-family="Helvetica,sans-Serif" font-size="10.00"> </text>
<polyline fill="none" stroke="black" points="613.5,-1166.5 772.5,-1166.5 "/>
<text text-anchor="start" x="621.5" y="-1154.5" font-family="Helvetica,sans-Serif" font-size="10.00">+ TVM_FFI_DEFINE_OBJECT</text>
<text text-anchor="start" x="621.5" y="-1143.5" font-family="Helvetica,sans-Serif" font-size="10.00">_REF_METHODS_NULLABLE()</text>
</a>
</g>
</g>
<!-- Node8&#45;&gt;Node14 -->
<g id="edge17" class="edge">
<title>Node8&#45;&gt;Node14</title>
<path fill="none" stroke="midnightblue" d="M564.81,-1250.8C588.01,-1236.45 615.8,-1219.26 639.57,-1204.56"/>
<polygon fill="none" stroke="midnightblue" points="562.83,-1247.92 556.16,-1256.15 566.51,-1253.87 562.83,-1247.92"/>
</g>
<!-- Node16 -->
<g id="node16" class="node">
<title>Node16</title>
<g id="a_node16"><a xlink:href="classtvm_1_1relax_1_1BindingBlock.html" target="_top" xlink:title=" ">
<polygon fill="white" stroke="black" points="790.5,-1125.5 790.5,-1215.5 949.5,-1215.5 949.5,-1125.5 790.5,-1125.5"/>
<text text-anchor="middle" x="870" y="-1203.5" font-family="Helvetica,sans-Serif" font-size="10.00">tvm::relax::BindingBlock</text>
<polyline fill="none" stroke="black" points="790.5,-1196.5 949.5,-1196.5 "/>
<text text-anchor="middle" x="870" y="-1184.5" font-family="Helvetica,sans-Serif" font-size="10.00"> </text>
<polyline fill="none" stroke="black" points="790.5,-1177.5 949.5,-1177.5 "/>
<text text-anchor="start" x="798.5" y="-1165.5" font-family="Helvetica,sans-Serif" font-size="10.00">+ BindingBlock()</text>
<text text-anchor="start" x="798.5" y="-1154.5" font-family="Helvetica,sans-Serif" font-size="10.00">+ TVM_FFI_DEFINE_OBJECT</text>
<text text-anchor="start" x="798.5" y="-1143.5" font-family="Helvetica,sans-Serif" font-size="10.00">_REF_METHODS_NULLABLE()</text>
<text text-anchor="start" x="798.5" y="-1132.5" font-family="Helvetica,sans-Serif" font-size="10.00">+ CopyOnWrite()</text>
</a>
</g>
</g>
<!-- Node8&#45;&gt;Node16 -->
<g id="edge21" class="edge">
<title>Node8&#45;&gt;Node16</title>
<path fill="none" stroke="midnightblue" d="M566.1,-1272.31C620.34,-1262.08 708.9,-1243.01 782,-1216 784.73,-1214.99 787.49,-1213.92 790.25,-1212.8"/>
<polygon fill="none" stroke="midnightblue" points="565.25,-1268.91 556.05,-1274.17 566.52,-1275.79 565.25,-1268.91"/>
</g>
<!-- Node9&#45;&gt;Node3 -->
<g id="edge18" class="edge">
<title>Node9&#45;&gt;Node3</title>
<path fill="none" stroke="#404040" d="M342.43,-1136.29C344.97,-1108.77 348,-1068.64 348,-1033.5 348,-1033.5 348,-1033.5 348,-469 348,-437.32 348,-402.06 348,-372.91"/>
<polygon fill="none" stroke="#404040" points="348,-372.81 344,-366.81 348,-360.81 352,-366.81 348,-372.81"/>
<text text-anchor="middle" x="368" y="-718.5" font-family="Helvetica,sans-Serif" font-size="10.00"> +ret_ty</text>
</g>
<!-- Node9&#45;&gt;Node6 -->
<g id="edge9" class="edge">
<title>Node9&#45;&gt;Node6</title>
<path fill="none" stroke="#404040" d="M305.24,-1136.23C290.02,-1121.23 271.67,-1103.15 254.64,-1086.36"/>
<polygon fill="none" stroke="#404040" points="254.42,-1086.15 247.34,-1084.79 245.88,-1077.73 252.96,-1079.09 254.42,-1086.15"/>
<text text-anchor="middle" x="286" y="-1099" font-family="Helvetica,sans-Serif" font-size="10.00"> +ty</text>
</g>
<!-- Node10 -->
<g id="node10" class="node">
<title>Node10</title>
<g id="a_node10"><a xlink:href="classtvm_1_1DictAttrs.html" target="_top" xlink:title="Managed reference to DictAttrsNode.">
<polygon fill="white" stroke="black" points="366,-779.5 366,-968.5 522,-968.5 522,-779.5 366,-779.5"/>
<text text-anchor="middle" x="444" y="-956.5" font-family="Helvetica,sans-Serif" font-size="10.00">tvm::DictAttrs</text>
<polyline fill="none" stroke="black" points="366,-949.5 522,-949.5 "/>
<text text-anchor="start" x="374" y="-937.5" font-family="Helvetica,sans-Serif" font-size="10.00">+ _type_is_nullable</text>
<polyline fill="none" stroke="black" points="366,-930.5 522,-930.5 "/>
<text text-anchor="start" x="374" y="-918.5" font-family="Helvetica,sans-Serif" font-size="10.00">+ DictAttrs()</text>
<text text-anchor="start" x="374" y="-907.5" font-family="Helvetica,sans-Serif" font-size="10.00">+ DictAttrs()</text>
<text text-anchor="start" x="374" y="-896.5" font-family="Helvetica,sans-Serif" font-size="10.00">+ operator=()</text>
<text text-anchor="start" x="374" y="-885.5" font-family="Helvetica,sans-Serif" font-size="10.00">+ DictAttrs()</text>
<text text-anchor="start" x="374" y="-874.5" font-family="Helvetica,sans-Serif" font-size="10.00">+ operator=()</text>
<text text-anchor="start" x="374" y="-863.5" font-family="Helvetica,sans-Serif" font-size="10.00">+ GetAttr()</text>
<text text-anchor="start" x="374" y="-852.5" font-family="Helvetica,sans-Serif" font-size="10.00">+ GetAttr()</text>
<text text-anchor="start" x="374" y="-841.5" font-family="Helvetica,sans-Serif" font-size="10.00">+ HasNonzeroAttr()</text>
<text text-anchor="start" x="374" y="-830.5" font-family="Helvetica,sans-Serif" font-size="10.00">+ DictAttrs()</text>
<text text-anchor="start" x="374" y="-819.5" font-family="Helvetica,sans-Serif" font-size="10.00">+ operator&#45;&gt;()</text>
<text text-anchor="start" x="374" y="-808.5" font-family="Helvetica,sans-Serif" font-size="10.00">+ get()</text>
<text text-anchor="start" x="374" y="-797.5" font-family="Helvetica,sans-Serif" font-size="10.00">+ TVM_DEFINE_OBJECT_REF</text>
<text text-anchor="start" x="374" y="-786.5" font-family="Helvetica,sans-Serif" font-size="10.00">_COW_METHOD()</text>
</a>
</g>
</g>
<!-- Node10&#45;&gt;Node4 -->
<g id="edge11" class="edge">
<title>Node10&#45;&gt;Node4</title>
<path fill="none" stroke="#404040" d="M425.87,-779.23C417.79,-747.17 406.71,-711.67 392,-681 368,-630.94 331.71,-580.48 300.5,-541.57"/>
<polygon fill="none" stroke="#404040" points="300.25,-541.26 293.36,-539.11 292.69,-531.94 299.57,-534.08 300.25,-541.26"/>
<text text-anchor="middle" x="438" y="-718.5" font-family="Helvetica,sans-Serif" font-size="10.00"> +attrs</text>
</g>
<!-- Node11&#45;&gt;Node10 -->
<g id="edge12" class="edge">
<title>Node11&#45;&gt;Node10</title>
<path fill="none" stroke="midnightblue" d="M505.5,-1126.57C495.42,-1085.33 479.85,-1021.65 466.9,-968.68"/>
<polygon fill="none" stroke="midnightblue" points="502.11,-1127.41 507.88,-1136.29 508.91,-1125.74 502.11,-1127.41"/>
</g>
<!-- Node12 -->
<g id="node12" class="node">
<title>Node12</title>
<g id="a_node12"><a xlink:href="classtvm_1_1relax_1_1SeqExpr.html" target="_top" xlink:title=" ">
<polygon fill="white" stroke="black" points="486.5,-550.5 486.5,-662.5 645.5,-662.5 645.5,-550.5 486.5,-550.5"/>
<text text-anchor="middle" x="566" y="-650.5" font-family="Helvetica,sans-Serif" font-size="10.00">tvm::relax::SeqExpr</text>
<polyline fill="none" stroke="black" points="486.5,-643.5 645.5,-643.5 "/>
<text text-anchor="middle" x="566" y="-631.5" font-family="Helvetica,sans-Serif" font-size="10.00"> </text>
<polyline fill="none" stroke="black" points="486.5,-624.5 645.5,-624.5 "/>
<text text-anchor="start" x="494.5" y="-612.5" font-family="Helvetica,sans-Serif" font-size="10.00">+ SeqExpr()</text>
<text text-anchor="start" x="494.5" y="-601.5" font-family="Helvetica,sans-Serif" font-size="10.00">+ SeqExpr()</text>
<text text-anchor="start" x="494.5" y="-590.5" font-family="Helvetica,sans-Serif" font-size="10.00">+ TVM_FFI_DEFINE_OBJECT</text>
<text text-anchor="start" x="494.5" y="-579.5" font-family="Helvetica,sans-Serif" font-size="10.00">_REF_METHODS_NULLABLE()</text>
<text text-anchor="start" x="494.5" y="-568.5" font-family="Helvetica,sans-Serif" font-size="10.00">+ TVM_DEFINE_OBJECT_REF</text>
<text text-anchor="start" x="494.5" y="-557.5" font-family="Helvetica,sans-Serif" font-size="10.00">_COW_METHOD()</text>
</a>
</g>
</g>
<!-- Node12&#45;&gt;Node3 -->
<g id="edge14" class="edge">
<title>Node12&#45;&gt;Node3</title>
<path fill="none" stroke="#404040" d="M525.25,-550.45C487.39,-499.31 431.15,-423.33 392.22,-370.74"/>
<polygon fill="none" stroke="#404040" points="392.06,-370.52 385.27,-368.08 384.92,-360.87 391.7,-363.32 392.06,-370.52"/>
<text text-anchor="middle" x="528" y="-467.5" font-family="Helvetica,sans-Serif" font-size="10.00"> +body</text>
</g>
<!-- Node13 -->
<g id="node13" class="node">
<title>Node13</title>
<g id="a_node13"><a xlink:href="classtvm_1_1RelaxExpr.html" target="_top" xlink:title="Managed reference to RelaxExprNode.">
<polygon fill="white" stroke="black" points="554.5,-998.5 554.5,-1066.5 713.5,-1066.5 713.5,-998.5 554.5,-998.5"/>
<text text-anchor="middle" x="634" y="-1054.5" font-family="Helvetica,sans-Serif" font-size="10.00">Expr</text>
<polyline fill="none" stroke="black" points="554.5,-1047.5 713.5,-1047.5 "/>
<text text-anchor="middle" x="634" y="-1035.5" font-family="Helvetica,sans-Serif" font-size="10.00"> </text>
<polyline fill="none" stroke="black" points="554.5,-1028.5 713.5,-1028.5 "/>
<text text-anchor="start" x="562.5" y="-1016.5" font-family="Helvetica,sans-Serif" font-size="10.00">+ TVM_FFI_DEFINE_OBJECT</text>
<text text-anchor="start" x="562.5" y="-1005.5" font-family="Helvetica,sans-Serif" font-size="10.00">_REF_METHODS_NULLABLE()</text>
</a>
</g>
</g>
<!-- Node13&#45;&gt;Node12 -->
<g id="edge15" class="edge">
<title>Node13&#45;&gt;Node12</title>
<path fill="none" stroke="midnightblue" d="M627.07,-988.31C614.63,-910.74 588.52,-747.95 574.82,-662.52"/>
<polygon fill="none" stroke="midnightblue" points="623.62,-988.91 628.66,-998.23 630.54,-987.8 623.62,-988.91"/>
</g>
<!-- Node14&#45;&gt;Node13 -->
<g id="edge16" class="edge">
<title>Node14&#45;&gt;Node13</title>
<path fill="none" stroke="midnightblue" d="M674.57,-1127.01C666.16,-1107.64 656.35,-1085.03 648.49,-1066.9"/>
<polygon fill="none" stroke="midnightblue" points="671.38,-1128.45 678.57,-1136.23 677.8,-1125.66 671.38,-1128.45"/>
</g>
<!-- Node15 -->
<g id="node15" class="node">
<title>Node15</title>
<g id="a_node15"><a xlink:href="classtvm_1_1relax_1_1DataflowBlock.html" target="_top" xlink:title=" ">
<polygon fill="white" stroke="black" points="669.5,-556 669.5,-657 828.5,-657 828.5,-556 669.5,-556"/>
<text text-anchor="middle" x="749" y="-645" font-family="Helvetica,sans-Serif" font-size="10.00">tvm::relax::DataflowBlock</text>
<polyline fill="none" stroke="black" points="669.5,-638 828.5,-638 "/>
<text text-anchor="middle" x="749" y="-626" font-family="Helvetica,sans-Serif" font-size="10.00"> </text>
<polyline fill="none" stroke="black" points="669.5,-619 828.5,-619 "/>
<text text-anchor="start" x="677.5" y="-607" font-family="Helvetica,sans-Serif" font-size="10.00">+ DataflowBlock()</text>
<text text-anchor="start" x="677.5" y="-596" font-family="Helvetica,sans-Serif" font-size="10.00">+ TVM_FFI_DEFINE_OBJECT</text>
<text text-anchor="start" x="677.5" y="-585" font-family="Helvetica,sans-Serif" font-size="10.00">_REF_METHODS_NULLABLE()</text>
<text text-anchor="start" x="677.5" y="-574" font-family="Helvetica,sans-Serif" font-size="10.00">+ TVM_DEFINE_OBJECT_REF</text>
<text text-anchor="start" x="677.5" y="-563" font-family="Helvetica,sans-Serif" font-size="10.00">_COW_METHOD()</text>
</a>
</g>
</g>
<!-- Node15&#45;&gt;Node1 -->
<g id="edge19" class="edge">
<title>Node15&#45;&gt;Node1</title>
<path fill="none" stroke="#404040" d="M709.08,-555.88C646.01,-477.47 521.75,-322.99 436.79,-217.38"/>
<polygon fill="none" stroke="#404040" points="436.73,-217.3 429.85,-215.14 429.21,-207.95 436.09,-210.12 436.73,-217.3"/>
<text text-anchor="middle" x="586.5" y="-382" font-family="Helvetica,sans-Serif" font-size="10.00"> #dfb_</text>
</g>
<!-- Node16&#45;&gt;Node15 -->
<g id="edge20" class="edge">
<title>Node16&#45;&gt;Node15</title>
<path fill="none" stroke="midnightblue" d="M858.4,-1115.62C834.99,-1006.9 782.41,-762.66 759.74,-657.37"/>
<polygon fill="none" stroke="midnightblue" points="854.98,-1116.36 860.51,-1125.4 861.82,-1114.89 854.98,-1116.36"/>
</g>
</g>
</svg>
