<?xml version="1.0" encoding="UTF-8" standalone="no"?>
<!DOCTYPE svg PUBLIC "-//W3C//DTD SVG 1.1//EN"
 "http://www.w3.org/Graphics/SVG/1.1/DTD/svg11.dtd">
<!-- Generated by graphviz version 2.43.0 (0)
 -->
<!-- Title: tvm::tirx::TilePrimitiveCallNode Pages: 1 -->
<svg width="464pt" height="754pt"
 viewBox="0.00 0.00 463.50 754.00" xmlns="http://www.w3.org/2000/svg" xmlns:xlink="http://www.w3.org/1999/xlink">
<g id="graph0" class="graph" transform="scale(1 1) rotate(0) translate(4 750)">
<title>tvm::tirx::TilePrimitiveCallNode</title>
<polygon fill="white" stroke="transparent" points="-4,4 -4,-750 459.5,-750 459.5,4 -4,4"/>
<!-- Node1 -->
<g id="node1" class="node">
<title>Node1</title>
<g id="a_node1"><a xlink:title="TIRX TilePrimitiveCall stmt.">
<polygon fill="#bfbfbf" stroke="black" points="188,-0.5 188,-123.5 350,-123.5 350,-0.5 188,-0.5"/>
<text text-anchor="start" x="196" y="-111.5" font-family="Helvetica,sans-Serif" font-size="10.00">tvm::tirx::TilePrimitive</text>
<text text-anchor="middle" x="269" y="-100.5" font-family="Helvetica,sans-Serif" font-size="10.00">CallNode</text>
<polyline fill="none" stroke="black" points="188,-93.5 350,-93.5 "/>
<text text-anchor="start" x="196" y="-81.5" font-family="Helvetica,sans-Serif" font-size="10.00">+ args</text>
<text text-anchor="start" x="196" y="-70.5" font-family="Helvetica,sans-Serif" font-size="10.00">+ workspace</text>
<text text-anchor="start" x="196" y="-59.5" font-family="Helvetica,sans-Serif" font-size="10.00">+ config</text>
<text text-anchor="start" x="196" y="-48.5" font-family="Helvetica,sans-Serif" font-size="10.00">+ dispatch</text>
<polyline fill="none" stroke="black" points="188,-41.5 350,-41.5 "/>
<text text-anchor="start" x="196" y="-29.5" font-family="Helvetica,sans-Serif" font-size="10.00">+ TVM_FFI_DECLARE_OBJECT</text>
<text text-anchor="start" x="196" y="-18.5" font-family="Helvetica,sans-Serif" font-size="10.00">_INFO_FINAL()</text>
<text text-anchor="start" x="196" y="-7.5" font-family="Helvetica,sans-Serif" font-size="10.00">+ RegisterReflection()</text>
</a>
</g>
</g>
<!-- Node2 -->
<g id="node2" class="node">
<title>Node2</title>
<g id="a_node2"><a xlink:href="classtvm_1_1tirx_1_1StmtNode.html" target="_top" xlink:title="Base node of all statements.">
<polygon fill="white" stroke="black" points="69,-320.5 69,-432.5 231,-432.5 231,-320.5 69,-320.5"/>
<text text-anchor="middle" x="150" y="-420.5" font-family="Helvetica,sans-Serif" font-size="10.00">tvm::tirx::StmtNode</text>
<polyline fill="none" stroke="black" points="69,-413.5 231,-413.5 "/>
<text text-anchor="start" x="77" y="-401.5" font-family="Helvetica,sans-Serif" font-size="10.00">+ _type_s_eq_hash_kind</text>
<text text-anchor="start" x="77" y="-390.5" font-family="Helvetica,sans-Serif" font-size="10.00">+ _type_child_slots</text>
<polyline fill="none" stroke="black" points="69,-383.5 231,-383.5 "/>
<text text-anchor="start" x="77" y="-371.5" font-family="Helvetica,sans-Serif" font-size="10.00">+ StmtNode()</text>
<text text-anchor="start" x="77" y="-360.5" font-family="Helvetica,sans-Serif" font-size="10.00">+ StmtNode()</text>
<text text-anchor="start" x="77" y="-349.5" font-family="Helvetica,sans-Serif" font-size="10.00">+ TVM_FFI_DECLARE_OBJECT</text>
<text text-anchor="start" x="77" y="-338.5" font-family="Helvetica,sans-Serif" font-size="10.00">_INFO()</text>
<text text-anchor="start" x="77" y="-327.5" font-family="Helvetica,sans-Serif" font-size="10.00">+ RegisterReflection()</text>
</a>
</g>
</g>
<!-- Node2&#45;&gt;Node1 -->
<g id="edge1" class="edge">
<title>Node2&#45;&gt;Node1</title>
<path fill="none" stroke="midnightblue" d="M174.67,-310.71C195.6,-255.76 225.4,-177.51 245.87,-123.74"/>
<polygon fill="none" stroke="midnightblue" points="171.29,-309.76 171,-320.35 177.83,-312.25 171.29,-309.76"/>
</g>
<!-- Node3 -->
<g id="node3" class="node">
<title>Node3</title>
<g id="a_node3"><a xlink:title=" ">
<polygon fill="white" stroke="#bfbfbf" points="0,-577 0,-634 64,-634 64,-577 0,-577"/>
<text text-anchor="middle" x="32" y="-622" font-family="Helvetica,sans-Serif" font-size="10.00">ffi::Object</text>
<polyline fill="none" stroke="#bfbfbf" points="0,-615 64,-615 "/>
<text text-anchor="middle" x="32" y="-603" font-family="Helvetica,sans-Serif" font-size="10.00"> </text>
<polyline fill="none" stroke="#bfbfbf" points="0,-596 64,-596 "/>
<text text-anchor="middle" x="32" y="-584" font-family="Helvetica,sans-Serif" font-size="10.00"> </text>
</a>
</g>
</g>
<!-- Node3&#45;&gt;Node2 -->
<g id="edge2" class="edge">
<title>Node3&#45;&gt;Node2</title>
<path fill="none" stroke="midnightblue" d="M51.3,-567.38C70.27,-530.88 99.46,-474.73 121.18,-432.94"/>
<polygon fill="none" stroke="midnightblue" points="47.98,-566.18 46.47,-576.67 54.19,-569.41 47.98,-566.18"/>
</g>
<!-- Node4 -->
<g id="node4" class="node">
<title>Node4</title>
<g id="a_node4"><a xlink:href="classtvm_1_1Span.html" target="_top" xlink:title=" ">
<polygon fill="white" stroke="black" points="82.5,-560.5 82.5,-650.5 241.5,-650.5 241.5,-560.5 82.5,-560.5"/>
<text text-anchor="middle" x="162" y="-638.5" font-family="Helvetica,sans-Serif" font-size="10.00">tvm::Span</text>
<polyline fill="none" stroke="black" points="82.5,-631.5 241.5,-631.5 "/>
<text text-anchor="middle" x="162" y="-619.5" font-family="Helvetica,sans-Serif" font-size="10.00"> </text>
<polyline fill="none" stroke="black" points="82.5,-612.5 241.5,-612.5 "/>
<text text-anchor="start" x="90.5" y="-600.5" font-family="Helvetica,sans-Serif" font-size="10.00">+ Span()</text>
<text text-anchor="start" x="90.5" y="-589.5" font-family="Helvetica,sans-Serif" font-size="10.00">+ Merge()</text>
<text text-anchor="start" x="90.5" y="-578.5" font-family="Helvetica,sans-Serif" font-size="10.00">+ TVM_FFI_DEFINE_OBJECT</text>
<text text-anchor="start" x="90.5" y="-567.5" font-family="Helvetica,sans-Serif" font-size="10.00">_REF_METHODS_NULLABLE()</text>
</a>
</g>
</g>
<!-- Node4&#45;&gt;Node2 -->
<g id="edge3" class="edge">
<title>Node4&#45;&gt;Node2</title>
<path fill="none" stroke="#404040" d="M148.45,-560.41C147.03,-554.28 145.8,-548.02 145,-542 140.74,-510.14 141.19,-474.51 143.04,-444.58"/>
<polygon fill="none" stroke="#404040" points="143.04,-444.53 139.46,-438.27 143.87,-432.56 147.44,-438.82 143.04,-444.53"/>
<text text-anchor="middle" x="162.5" y="-494" font-family="Helvetica,sans-Serif" font-size="10.00"> +span</text>
</g>
<!-- Node5 -->
<g id="node5" class="node">
<title>Node5</title>
<g id="a_node5"><a xlink:title=" ">
<polygon fill="white" stroke="#bfbfbf" points="229,-688.5 229,-745.5 309,-745.5 309,-688.5 229,-688.5"/>
<text text-anchor="middle" x="269" y="-733.5" font-family="Helvetica,sans-Serif" font-size="10.00">ffi::ObjectRef</text>
<polyline fill="none" stroke="#bfbfbf" points="229,-726.5 309,-726.5 "/>
<text text-anchor="middle" x="269" y="-714.5" font-family="Helvetica,sans-Serif" font-size="10.00"> </text>
<polyline fill="none" stroke="#bfbfbf" points="229,-707.5 309,-707.5 "/>
<text text-anchor="middle" x="269" y="-695.5" font-family="Helvetica,sans-Serif" font-size="10.00"> </text>
</a>
</g>
</g>
<!-- Node5&#45;&gt;Node4 -->
<g id="edge4" class="edge">
<title>Node5&#45;&gt;Node4</title>
<path fill="none" stroke="midnightblue" d="M234.98,-681.18C225.53,-671.51 215.14,-660.88 205.23,-650.74"/>
<polygon fill="none" stroke="midnightblue" points="232.51,-683.66 242,-688.37 237.51,-678.77 232.51,-683.66"/>
</g>
<!-- Node6 -->
<g id="node6" class="node">
<title>Node6</title>
<g id="a_node6"><a xlink:href="classtvm_1_1tirx_1_1ExecScope.html" target="_top" xlink:title=" ">
<polygon fill="white" stroke="black" points="189.5,-451.5 189.5,-541.5 348.5,-541.5 348.5,-451.5 189.5,-451.5"/>
<text text-anchor="middle" x="269" y="-529.5" font-family="Helvetica,sans-Serif" font-size="10.00">tvm::tirx::ExecScope</text>
<polyline fill="none" stroke="black" points="189.5,-522.5 348.5,-522.5 "/>
<text text-anchor="middle" x="269" y="-510.5" font-family="Helvetica,sans-Serif" font-size="10.00"> </text>
<polyline fill="none" stroke="black" points="189.5,-503.5 348.5,-503.5 "/>
<text text-anchor="start" x="197.5" y="-491.5" font-family="Helvetica,sans-Serif" font-size="10.00">+ ExecScope()</text>
<text text-anchor="start" x="197.5" y="-480.5" font-family="Helvetica,sans-Serif" font-size="10.00">+ ExecScope()</text>
<text text-anchor="start" x="197.5" y="-469.5" font-family="Helvetica,sans-Serif" font-size="10.00">+ TVM_FFI_DEFINE_OBJECT</text>
<text text-anchor="start" x="197.5" y="-458.5" font-family="Helvetica,sans-Serif" font-size="10.00">_REF_METHODS_NULLABLE()</text>
</a>
</g>
</g>
<!-- Node5&#45;&gt;Node6 -->
<g id="edge6" class="edge">
<title>Node5&#45;&gt;Node6</title>
<path fill="none" stroke="midnightblue" d="M269,-678.18C269,-640.18 269,-581.64 269,-541.56"/>
<polygon fill="none" stroke="midnightblue" points="265.5,-678.33 269,-688.33 272.5,-678.33 265.5,-678.33"/>
</g>
<!-- Node9 -->
<g id="node9" class="node">
<title>Node9</title>
<g id="a_node9"><a xlink:href="classtvm_1_1BaseExpr.html" target="_top" xlink:title="Managed reference to BaseExprNode.">
<polygon fill="white" stroke="black" points="296.5,-571.5 296.5,-639.5 455.5,-639.5 455.5,-571.5 296.5,-571.5"/>
<text text-anchor="middle" x="376" y="-627.5" font-family="Helvetica,sans-Serif" font-size="10.00">tvm::BaseExpr</text>
<polyline fill="none" stroke="black" points="296.5,-620.5 455.5,-620.5 "/>
<text text-anchor="middle" x="376" y="-608.5" font-family="Helvetica,sans-Serif" font-size="10.00"> </text>
<polyline fill="none" stroke="black" points="296.5,-601.5 455.5,-601.5 "/>
<text text-anchor="start" x="304.5" y="-589.5" font-family="Helvetica,sans-Serif" font-size="10.00">+ TVM_FFI_DEFINE_OBJECT</text>
<text text-anchor="start" x="304.5" y="-578.5" font-family="Helvetica,sans-Serif" font-size="10.00">_REF_METHODS_NULLABLE()</text>
</a>
</g>
</g>
<!-- Node5&#45;&gt;Node9 -->
<g id="edge10" class="edge">
<title>Node5&#45;&gt;Node9</title>
<path fill="none" stroke="midnightblue" d="M303.02,-681.18C316.03,-667.87 330.82,-652.73 343.67,-639.59"/>
<polygon fill="none" stroke="midnightblue" points="300.49,-678.77 296,-688.37 305.49,-683.66 300.49,-678.77"/>
</g>
<!-- Node6&#45;&gt;Node1 -->
<g id="edge5" class="edge">
<title>Node6&#45;&gt;Node1</title>
<path fill="none" stroke="#404040" d="M269,-451.25C269,-376.84 269,-225.98 269,-135.78"/>
<polygon fill="none" stroke="#404040" points="269,-135.74 265,-129.74 269,-123.74 273,-129.74 269,-135.74"/>
<text text-anchor="middle" x="289" y="-294" font-family="Helvetica,sans-Serif" font-size="10.00"> +scope</text>
</g>
<!-- Node7 -->
<g id="node7" class="node">
<title>Node7</title>
<g id="a_node7"><a xlink:href="classtvm_1_1Op.html" target="_top" xlink:title="Managed reference class to OpNode.">
<polygon fill="white" stroke="black" points="296.5,-171.5 296.5,-272.5 455.5,-272.5 455.5,-171.5 296.5,-171.5"/>
<text text-anchor="middle" x="376" y="-260.5" font-family="Helvetica,sans-Serif" font-size="10.00">tvm::Op</text>
<polyline fill="none" stroke="black" points="296.5,-253.5 455.5,-253.5 "/>
<text text-anchor="middle" x="376" y="-241.5" font-family="Helvetica,sans-Serif" font-size="10.00"> </text>
<polyline fill="none" stroke="black" points="296.5,-234.5 455.5,-234.5 "/>
<text text-anchor="start" x="304.5" y="-222.5" font-family="Helvetica,sans-Serif" font-size="10.00">+ TVM_FFI_DEFINE_OBJECT</text>
<text text-anchor="start" x="304.5" y="-211.5" font-family="Helvetica,sans-Serif" font-size="10.00">_REF_METHODS_NULLABLE()</text>
<text text-anchor="start" x="304.5" y="-200.5" font-family="Helvetica,sans-Serif" font-size="10.00">+ GetAttrMap()</text>
<text text-anchor="start" x="304.5" y="-189.5" font-family="Helvetica,sans-Serif" font-size="10.00">+ HasAttrMap()</text>
<text text-anchor="start" x="304.5" y="-178.5" font-family="Helvetica,sans-Serif" font-size="10.00">+ Get()</text>
</a>
</g>
</g>
<!-- Node7&#45;&gt;Node1 -->
<g id="edge7" class="edge">
<title>Node7&#45;&gt;Node1</title>
<path fill="none" stroke="#404040" d="M342.44,-171.44C334.36,-159.52 325.58,-146.55 316.99,-133.86"/>
<polygon fill="none" stroke="#404040" points="316.88,-133.71 310.21,-130.98 310.15,-123.77 316.83,-126.5 316.88,-133.71"/>
<text text-anchor="middle" x="340" y="-145" font-family="Helvetica,sans-Serif" font-size="10.00"> +op</text>
</g>
<!-- Node8 -->
<g id="node8" class="node">
<title>Node8</title>
<g id="a_node8"><a xlink:href="classtvm_1_1RelaxExpr.html" target="_top" xlink:title="Managed reference to RelaxExprNode.">
<polygon fill="white" stroke="black" points="296.5,-342.5 296.5,-410.5 455.5,-410.5 455.5,-342.5 296.5,-342.5"/>
<text text-anchor="middle" x="376" y="-398.5" font-family="Helvetica,sans-Serif" font-size="10.00">tvm::RelaxExpr</text>
<polyline fill="none" stroke="black" points="296.5,-391.5 455.5,-391.5 "/>
<text text-anchor="middle" x="376" y="-379.5" font-family="Helvetica,sans-Serif" font-size="10.00"> </text>
<polyline fill="none" stroke="black" points="296.5,-372.5 455.5,-372.5 "/>
<text text-anchor="start" x="304.5" y="-360.5" font-family="Helvetica,sans-Serif" font-size="10.00">+ TVM_FFI_DEFINE_OBJECT</text>
<text text-anchor="start" x="304.5" y="-349.5" font-family="Helvetica,sans-Serif" font-size="10.00">_REF_METHODS_NULLABLE()</text>
</a>
</g>
</g>
<!-- Node8&#45;&gt;Node7 -->
<g id="edge8" class="edge">
<title>Node8&#45;&gt;Node7</title>
<path fill="none" stroke="midnightblue" d="M376,-332.17C376,-313.58 376,-291.77 376,-272.55"/>
<polygon fill="none" stroke="midnightblue" points="372.5,-332.41 376,-342.41 379.5,-332.41 372.5,-332.41"/>
</g>
<!-- Node9&#45;&gt;Node8 -->
<g id="edge9" class="edge">
<title>Node9&#45;&gt;Node8</title>
<path fill="none" stroke="midnightblue" d="M376,-561.41C376,-517.52 376,-450.41 376,-410.55"/>
<polygon fill="none" stroke="midnightblue" points="372.5,-561.49 376,-571.49 379.5,-561.49 372.5,-561.49"/>
</g>
</g>
</svg>
