<?xml version="1.0" encoding="UTF-8" standalone="no"?>
<!DOCTYPE svg PUBLIC "-//W3C//DTD SVG 1.1//EN"
 "http://www.w3.org/Graphics/SVG/1.1/DTD/svg11.dtd">
<!-- Generated by graphviz version 2.43.0 (0)
 -->
<!-- Title: tvm::tirx::CallNode Pages: 1 -->
<svg width="689pt" height="901pt"
 viewBox="0.00 0.00 689.00 901.00" xmlns="http://www.w3.org/2000/svg" xmlns:xlink="http://www.w3.org/1999/xlink">
<g id="graph0" class="graph" transform="scale(1 1) rotate(0) translate(4 897)">
<title>tvm::tirx::CallNode</title>
<polygon fill="white" stroke="transparent" points="-4,4 -4,-897 685,-897 685,4 -4,4"/>
<!-- Node1 -->
<g id="node1" class="node">
<title>Node1</title>
<g id="a_node1"><a xlink:title="Call node.">
<polygon fill="#bfbfbf" stroke="black" points="266.5,-0.5 266.5,-79.5 428.5,-79.5 428.5,-0.5 266.5,-0.5"/>
<text text-anchor="middle" x="347.5" y="-67.5" font-family="Helvetica,sans-Serif" font-size="10.00">tvm::tirx::CallNode</text>
<polyline fill="none" stroke="black" points="266.5,-60.5 428.5,-60.5 "/>
<text text-anchor="start" x="274.5" y="-48.5" font-family="Helvetica,sans-Serif" font-size="10.00">+ args</text>
<polyline fill="none" stroke="black" points="266.5,-41.5 428.5,-41.5 "/>
<text text-anchor="start" x="274.5" y="-29.5" font-family="Helvetica,sans-Serif" font-size="10.00">+ TVM_FFI_DECLARE_OBJECT</text>
<text text-anchor="start" x="274.5" y="-18.5" font-family="Helvetica,sans-Serif" font-size="10.00">_INFO_FINAL()</text>
<text text-anchor="start" x="274.5" y="-7.5" font-family="Helvetica,sans-Serif" font-size="10.00">+ RegisterReflection()</text>
</a>
</g>
</g>
<!-- Node2 -->
<g id="node2" class="node">
<title>Node2</title>
<g id="a_node2"><a xlink:href="classtvm_1_1PrimExprNode.html" target="_top" xlink:title="Base node of all primitive expressions.">
<polygon fill="white" stroke="black" points="266.5,-117.5 266.5,-196.5 428.5,-196.5 428.5,-117.5 266.5,-117.5"/>
<text text-anchor="middle" x="347.5" y="-184.5" font-family="Helvetica,sans-Serif" font-size="10.00">tvm::PrimExprNode</text>
<polyline fill="none" stroke="black" points="266.5,-177.5 428.5,-177.5 "/>
<text text-anchor="start" x="274.5" y="-165.5" font-family="Helvetica,sans-Serif" font-size="10.00">+ _type_child_slots</text>
<polyline fill="none" stroke="black" points="266.5,-158.5 428.5,-158.5 "/>
<text text-anchor="start" x="274.5" y="-146.5" font-family="Helvetica,sans-Serif" font-size="10.00">+ TVM_FFI_DECLARE_OBJECT</text>
<text text-anchor="start" x="274.5" y="-135.5" font-family="Helvetica,sans-Serif" font-size="10.00">_INFO()</text>
<text text-anchor="start" x="274.5" y="-124.5" font-family="Helvetica,sans-Serif" font-size="10.00">+ RegisterReflection()</text>
</a>
</g>
</g>
<!-- Node2&#45;&gt;Node1 -->
<g id="edge1" class="edge">
<title>Node2&#45;&gt;Node1</title>
<path fill="none" stroke="midnightblue" d="M347.5,-107.2C347.5,-98.02 347.5,-88.53 347.5,-79.71"/>
<polygon fill="none" stroke="midnightblue" points="344,-107.39 347.5,-117.39 351,-107.39 344,-107.39"/>
</g>
<!-- Node3 -->
<g id="node3" class="node">
<title>Node3</title>
<g id="a_node3"><a xlink:href="classtvm_1_1BaseExprNode.html" target="_top" xlink:title="Base type of all the expressions.">
<polygon fill="white" stroke="black" points="305.5,-407 305.5,-497 467.5,-497 467.5,-407 305.5,-407"/>
<text text-anchor="middle" x="386.5" y="-485" font-family="Helvetica,sans-Serif" font-size="10.00">tvm::BaseExprNode</text>
<polyline fill="none" stroke="black" points="305.5,-478 467.5,-478 "/>
<text text-anchor="start" x="313.5" y="-466" font-family="Helvetica,sans-Serif" font-size="10.00">+ _type_s_eq_hash_kind</text>
<text text-anchor="start" x="313.5" y="-455" font-family="Helvetica,sans-Serif" font-size="10.00">+ _type_child_slots</text>
<polyline fill="none" stroke="black" points="305.5,-448 467.5,-448 "/>
<text text-anchor="start" x="313.5" y="-436" font-family="Helvetica,sans-Serif" font-size="10.00">+ TVM_FFI_DECLARE_OBJECT</text>
<text text-anchor="start" x="313.5" y="-425" font-family="Helvetica,sans-Serif" font-size="10.00">_INFO()</text>
<text text-anchor="start" x="313.5" y="-414" font-family="Helvetica,sans-Serif" font-size="10.00">+ RegisterReflection()</text>
</a>
</g>
</g>
<!-- Node3&#45;&gt;Node2 -->
<g id="edge2" class="edge">
<title>Node3&#45;&gt;Node2</title>
<path fill="none" stroke="midnightblue" d="M379.28,-396.74C371.56,-338.73 359.51,-248.21 352.68,-196.91"/>
<polygon fill="none" stroke="midnightblue" points="375.83,-397.37 380.62,-406.82 382.77,-396.44 375.83,-397.37"/>
</g>
<!-- Node4 -->
<g id="node4" class="node">
<title>Node4</title>
<g id="a_node4"><a xlink:title=" ">
<polygon fill="white" stroke="#bfbfbf" points="354.5,-724 354.5,-781 418.5,-781 418.5,-724 354.5,-724"/>
<text text-anchor="middle" x="386.5" y="-769" font-family="Helvetica,sans-Serif" font-size="10.00">ffi::Object</text>
<polyline fill="none" stroke="#bfbfbf" points="354.5,-762 418.5,-762 "/>
<text text-anchor="middle" x="386.5" y="-750" font-family="Helvetica,sans-Serif" font-size="10.00"> </text>
<polyline fill="none" stroke="#bfbfbf" points="354.5,-743 418.5,-743 "/>
<text text-anchor="middle" x="386.5" y="-731" font-family="Helvetica,sans-Serif" font-size="10.00"> </text>
</a>
</g>
</g>
<!-- Node4&#45;&gt;Node3 -->
<g id="edge3" class="edge">
<title>Node4&#45;&gt;Node3</title>
<path fill="none" stroke="midnightblue" d="M386.5,-713.9C386.5,-658.71 386.5,-555.99 386.5,-497.25"/>
<polygon fill="none" stroke="midnightblue" points="383,-713.95 386.5,-723.95 390,-713.95 383,-713.95"/>
</g>
<!-- Node5 -->
<g id="node5" class="node">
<title>Node5</title>
<g id="a_node5"><a xlink:href="classtvm_1_1Span.html" target="_top" xlink:title=" ">
<polygon fill="white" stroke="black" points="437,-707.5 437,-797.5 596,-797.5 596,-707.5 437,-707.5"/>
<text text-anchor="middle" x="516.5" y="-785.5" font-family="Helvetica,sans-Serif" font-size="10.00">tvm::Span</text>
<polyline fill="none" stroke="black" points="437,-778.5 596,-778.5 "/>
<text text-anchor="middle" x="516.5" y="-766.5" font-family="Helvetica,sans-Serif" font-size="10.00"> </text>
<polyline fill="none" stroke="black" points="437,-759.5 596,-759.5 "/>
<text text-anchor="start" x="445" y="-747.5" font-family="Helvetica,sans-Serif" font-size="10.00">+ Span()</text>
<text text-anchor="start" x="445" y="-736.5" font-family="Helvetica,sans-Serif" font-size="10.00">+ Merge()</text>
<text text-anchor="start" x="445" y="-725.5" font-family="Helvetica,sans-Serif" font-size="10.00">+ TVM_FFI_DEFINE_OBJECT</text>
<text text-anchor="start" x="445" y="-714.5" font-family="Helvetica,sans-Serif" font-size="10.00">_REF_METHODS_NULLABLE()</text>
</a>
</g>
</g>
<!-- Node5&#45;&gt;Node3 -->
<g id="edge4" class="edge">
<title>Node5&#45;&gt;Node3</title>
<path fill="none" stroke="#404040" d="M488.34,-707.31C484.86,-701.25 481.48,-695.03 478.5,-689 448.89,-629.09 422.02,-557.14 405.06,-508.56"/>
<polygon fill="none" stroke="#404040" points="405,-508.38 399.26,-504.02 401.07,-497.04 406.82,-501.4 405,-508.38"/>
<text text-anchor="middle" x="496" y="-652" font-family="Helvetica,sans-Serif" font-size="10.00"> +span</text>
</g>
<!-- Node6 -->
<g id="node6" class="node">
<title>Node6</title>
<g id="a_node6"><a xlink:title=" ">
<polygon fill="white" stroke="#bfbfbf" points="378.5,-835.5 378.5,-892.5 458.5,-892.5 458.5,-835.5 378.5,-835.5"/>
<text text-anchor="middle" x="418.5" y="-880.5" font-family="Helvetica,sans-Serif" font-size="10.00">ffi::ObjectRef</text>
<polyline fill="none" stroke="#bfbfbf" points="378.5,-873.5 458.5,-873.5 "/>
<text text-anchor="middle" x="418.5" y="-861.5" font-family="Helvetica,sans-Serif" font-size="10.00"> </text>
<polyline fill="none" stroke="#bfbfbf" points="378.5,-854.5 458.5,-854.5 "/>
<text text-anchor="middle" x="418.5" y="-842.5" font-family="Helvetica,sans-Serif" font-size="10.00"> </text>
</a>
</g>
</g>
<!-- Node6&#45;&gt;Node5 -->
<g id="edge5" class="edge">
<title>Node6&#45;&gt;Node5</title>
<path fill="none" stroke="midnightblue" d="M449.91,-827.9C458.5,-818.3 467.92,-807.78 476.9,-797.74"/>
<polygon fill="none" stroke="midnightblue" points="447.29,-825.58 443.23,-835.37 452.51,-830.25 447.29,-825.58"/>
</g>
<!-- Node7 -->
<g id="node7" class="node">
<title>Node7</title>
<g id="a_node7"><a xlink:href="classtvm_1_1Type.html" target="_top" xlink:title="Managed reference to TypeNode.">
<polygon fill="white" stroke="black" points="177,-718.5 177,-786.5 336,-786.5 336,-718.5 177,-718.5"/>
<text text-anchor="middle" x="256.5" y="-774.5" font-family="Helvetica,sans-Serif" font-size="10.00">tvm::Type</text>
<polyline fill="none" stroke="black" points="177,-767.5 336,-767.5 "/>
<text text-anchor="middle" x="256.5" y="-755.5" font-family="Helvetica,sans-Serif" font-size="10.00"> </text>
<polyline fill="none" stroke="black" points="177,-748.5 336,-748.5 "/>
<text text-anchor="start" x="185" y="-736.5" font-family="Helvetica,sans-Serif" font-size="10.00">+ TVM_FFI_DEFINE_OBJECT</text>
<text text-anchor="start" x="185" y="-725.5" font-family="Helvetica,sans-Serif" font-size="10.00">_REF_METHODS_NULLABLE()</text>
</a>
</g>
</g>
<!-- Node6&#45;&gt;Node7 -->
<g id="edge7" class="edge">
<title>Node6&#45;&gt;Node7</title>
<path fill="none" stroke="midnightblue" d="M369.92,-830.17C349.5,-816.36 325.78,-800.33 305.33,-786.51"/>
<polygon fill="none" stroke="midnightblue" points="368.21,-833.23 378.46,-835.93 372.13,-827.43 368.21,-833.23"/>
</g>
<!-- Node10 -->
<g id="node10" class="node">
<title>Node10</title>
<g id="a_node10"><a xlink:href="classtvm_1_1BaseExpr.html" target="_top" xlink:title="Managed reference to BaseExprNode.">
<polygon fill="white" stroke="black" points="0,-718.5 0,-786.5 159,-786.5 159,-718.5 0,-718.5"/>
<text text-anchor="middle" x="79.5" y="-774.5" font-family="Helvetica,sans-Serif" font-size="10.00">tvm::BaseExpr</text>
<polyline fill="none" stroke="black" points="0,-767.5 159,-767.5 "/>
<text text-anchor="middle" x="79.5" y="-755.5" font-family="Helvetica,sans-Serif" font-size="10.00"> </text>
<polyline fill="none" stroke="black" points="0,-748.5 159,-748.5 "/>
<text text-anchor="start" x="8" y="-736.5" font-family="Helvetica,sans-Serif" font-size="10.00">+ TVM_FFI_DEFINE_OBJECT</text>
<text text-anchor="start" x="8" y="-725.5" font-family="Helvetica,sans-Serif" font-size="10.00">_REF_METHODS_NULLABLE()</text>
</a>
</g>
</g>
<!-- Node6&#45;&gt;Node10 -->
<g id="edge11" class="edge">
<title>Node6&#45;&gt;Node10</title>
<path fill="none" stroke="midnightblue" d="M368.49,-853.23C317.33,-842.48 236.01,-823.33 168.5,-798 159.6,-794.66 150.42,-790.7 141.49,-786.55"/>
<polygon fill="none" stroke="midnightblue" points="367.8,-856.66 378.3,-855.26 369.22,-849.8 367.8,-856.66"/>
</g>
<!-- Node11 -->
<g id="node11" class="node">
<title>Node11</title>
<g id="a_node11"><a xlink:href="classtvm_1_1Attrs.html" target="_top" xlink:title="Managed reference to AttrsNode.">
<polygon fill="white" stroke="black" points="522,-620.5 522,-688.5 681,-688.5 681,-620.5 522,-620.5"/>
<text text-anchor="middle" x="601.5" y="-676.5" font-family="Helvetica,sans-Serif" font-size="10.00">tvm::Attrs</text>
<polyline fill="none" stroke="black" points="522,-669.5 681,-669.5 "/>
<text text-anchor="middle" x="601.5" y="-657.5" font-family="Helvetica,sans-Serif" font-size="10.00"> </text>
<polyline fill="none" stroke="black" points="522,-650.5 681,-650.5 "/>
<text text-anchor="start" x="530" y="-638.5" font-family="Helvetica,sans-Serif" font-size="10.00">+ TVM_FFI_DEFINE_OBJECT</text>
<text text-anchor="start" x="530" y="-627.5" font-family="Helvetica,sans-Serif" font-size="10.00">_REF_METHODS_NULLABLE()</text>
</a>
</g>
</g>
<!-- Node6&#45;&gt;Node11 -->
<g id="edge13" class="edge">
<title>Node6&#45;&gt;Node11</title>
<path fill="none" stroke="midnightblue" d="M468.5,-860.9C512.64,-856.07 574.64,-841.4 605.5,-798 628.02,-766.33 621.41,-719.91 612.93,-688.74"/>
<polygon fill="none" stroke="midnightblue" points="468.15,-857.42 458.53,-861.86 468.82,-864.38 468.15,-857.42"/>
</g>
<!-- Node7&#45;&gt;Node3 -->
<g id="edge6" class="edge">
<title>Node7&#45;&gt;Node3</title>
<path fill="none" stroke="#404040" d="M270.91,-718.41C293.03,-667.61 335.62,-569.82 362.47,-508.18"/>
<polygon fill="none" stroke="#404040" points="362.5,-508.11 361.23,-501.01 367.29,-497.11 368.56,-504.21 362.5,-508.11"/>
<text text-anchor="middle" x="324.5" y="-652" font-family="Helvetica,sans-Serif" font-size="10.00"> +ty</text>
</g>
<!-- Node8 -->
<g id="node8" class="node">
<title>Node8</title>
<g id="a_node8"><a xlink:href="classtvm_1_1runtime_1_1DataType.html" target="_top" xlink:title="Runtime primitive data type.">
<polygon fill="white" stroke="black" points="147.5,-302.5 147.5,-601.5 287.5,-601.5 287.5,-302.5 147.5,-302.5"/>
<text text-anchor="middle" x="217.5" y="-589.5" font-family="Helvetica,sans-Serif" font-size="10.00">tvm::runtime::DataType</text>
<polyline fill="none" stroke="black" points="147.5,-582.5 287.5,-582.5 "/>
<text text-anchor="middle" x="217.5" y="-570.5" font-family="Helvetica,sans-Serif" font-size="10.00"> </text>
<polyline fill="none" stroke="black" points="147.5,-563.5 287.5,-563.5 "/>
<text text-anchor="start" x="155.5" y="-551.5" font-family="Helvetica,sans-Serif" font-size="10.00">+ DataType()</text>
<text text-anchor="start" x="155.5" y="-540.5" font-family="Helvetica,sans-Serif" font-size="10.00">+ DataType()</text>
<text text-anchor="start" x="155.5" y="-529.5" font-family="Helvetica,sans-Serif" font-size="10.00">+ DataType()</text>
<text text-anchor="start" x="155.5" y="-518.5" font-family="Helvetica,sans-Serif" font-size="10.00">+ code()</text>
<text text-anchor="start" x="155.5" y="-507.5" font-family="Helvetica,sans-Serif" font-size="10.00">+ bits()</text>
<text text-anchor="start" x="155.5" y="-496.5" font-family="Helvetica,sans-Serif" font-size="10.00">+ bytes()</text>
<text text-anchor="start" x="155.5" y="-485.5" font-family="Helvetica,sans-Serif" font-size="10.00">+ lanes()</text>
<text text-anchor="start" x="155.5" y="-474.5" font-family="Helvetica,sans-Serif" font-size="10.00">+ vscale_factor()</text>
<text text-anchor="start" x="155.5" y="-463.5" font-family="Helvetica,sans-Serif" font-size="10.00">+ get_lanes_or_vscale</text>
<text text-anchor="start" x="155.5" y="-452.5" font-family="Helvetica,sans-Serif" font-size="10.00">_factor()</text>
<text text-anchor="start" x="155.5" y="-441.5" font-family="Helvetica,sans-Serif" font-size="10.00">+ is_scalar()</text>
<text text-anchor="start" x="155.5" y="-430.5" font-family="Helvetica,sans-Serif" font-size="10.00">and 37 more...</text>
<text text-anchor="start" x="155.5" y="-419.5" font-family="Helvetica,sans-Serif" font-size="10.00">+ Int()</text>
<text text-anchor="start" x="155.5" y="-408.5" font-family="Helvetica,sans-Serif" font-size="10.00">+ UInt()</text>
<text text-anchor="start" x="155.5" y="-397.5" font-family="Helvetica,sans-Serif" font-size="10.00">+ Float()</text>
<text text-anchor="start" x="155.5" y="-386.5" font-family="Helvetica,sans-Serif" font-size="10.00">+ BFloat()</text>
<text text-anchor="start" x="155.5" y="-375.5" font-family="Helvetica,sans-Serif" font-size="10.00">+ Float8E3M4()</text>
<text text-anchor="start" x="155.5" y="-364.5" font-family="Helvetica,sans-Serif" font-size="10.00">+ Float8E4M3()</text>
<text text-anchor="start" x="155.5" y="-353.5" font-family="Helvetica,sans-Serif" font-size="10.00">+ Float8E4M3B11FNUZ()</text>
<text text-anchor="start" x="155.5" y="-342.5" font-family="Helvetica,sans-Serif" font-size="10.00">+ Float8E4M3FN()</text>
<text text-anchor="start" x="155.5" y="-331.5" font-family="Helvetica,sans-Serif" font-size="10.00">+ Float8E4M3FNUZ()</text>
<text text-anchor="start" x="155.5" y="-320.5" font-family="Helvetica,sans-Serif" font-size="10.00">+ Float8E5M2()</text>
<text text-anchor="start" x="155.5" y="-309.5" font-family="Helvetica,sans-Serif" font-size="10.00">and 9 more...</text>
</a>
</g>
</g>
<!-- Node8&#45;&gt;Node2 -->
<g id="edge8" class="edge">
<title>Node8&#45;&gt;Node2</title>
<path fill="none" stroke="#404040" d="M271.81,-302.48C283.92,-273.05 297.39,-242.7 311.5,-215 312.8,-212.45 314.18,-209.86 315.61,-207.28"/>
<polygon fill="none" stroke="#404040" points="315.73,-207.08 315.27,-199.88 321.74,-196.69 322.19,-203.89 315.73,-207.08"/>
<text text-anchor="middle" x="331.5" y="-247" font-family="Helvetica,sans-Serif" font-size="10.00"> +dtype</text>
</g>
<!-- Node9 -->
<g id="node9" class="node">
<title>Node9</title>
<g id="a_node9"><a xlink:href="classtvm_1_1RelaxExpr.html" target="_top" xlink:title="Managed reference to RelaxExprNode.">
<polygon fill="white" stroke="black" points="27,-215.5 27,-283.5 186,-283.5 186,-215.5 27,-215.5"/>
<text text-anchor="middle" x="106.5" y="-271.5" font-family="Helvetica,sans-Serif" font-size="10.00">tvm::RelaxExpr</text>
<polyline fill="none" stroke="black" points="27,-264.5 186,-264.5 "/>
<text text-anchor="middle" x="106.5" y="-252.5" font-family="Helvetica,sans-Serif" font-size="10.00"> </text>
<polyline fill="none" stroke="black" points="27,-245.5 186,-245.5 "/>
<text text-anchor="start" x="35" y="-233.5" font-family="Helvetica,sans-Serif" font-size="10.00">+ TVM_FFI_DEFINE_OBJECT</text>
<text text-anchor="start" x="35" y="-222.5" font-family="Helvetica,sans-Serif" font-size="10.00">_REF_METHODS_NULLABLE()</text>
</a>
</g>
</g>
<!-- Node9&#45;&gt;Node1 -->
<g id="edge9" class="edge">
<title>Node9&#45;&gt;Node1</title>
<path fill="none" stroke="#404040" d="M134.99,-215.22C159.63,-187.41 196.95,-147.5 233.5,-117 246.14,-106.45 260.27,-96.06 274.18,-86.5"/>
<polygon fill="none" stroke="#404040" points="274.29,-86.42 277.02,-79.74 284.23,-79.69 281.5,-86.37 274.29,-86.42"/>
<text text-anchor="middle" x="245.5" y="-154.5" font-family="Helvetica,sans-Serif" font-size="10.00"> +op</text>
</g>
<!-- Node10&#45;&gt;Node9 -->
<g id="edge10" class="edge">
<title>Node10&#45;&gt;Node9</title>
<path fill="none" stroke="midnightblue" d="M81.84,-708.06C87.14,-609.66 99.98,-371.56 104.71,-283.75"/>
<polygon fill="none" stroke="midnightblue" points="78.34,-708.07 81.29,-718.24 85.33,-708.44 78.34,-708.07"/>
</g>
<!-- Node11&#45;&gt;Node1 -->
<g id="edge12" class="edge">
<title>Node11&#45;&gt;Node1</title>
<path fill="none" stroke="#404040" d="M597.94,-620.23C587.13,-531.61 548.38,-285.09 437.5,-117 430.59,-106.52 421.82,-96.7 412.47,-87.82"/>
<polygon fill="none" stroke="#404040" points="412.29,-87.65 405.15,-86.59 403.38,-79.6 410.52,-80.66 412.29,-87.65"/>
<text text-anchor="middle" x="533.5" y="-247" font-family="Helvetica,sans-Serif" font-size="10.00"> +attrs</text>
</g>
</g>
</svg>
