<?xml version="1.0" encoding="UTF-8" standalone="no"?>
<!DOCTYPE svg PUBLIC "-//W3C//DTD SVG 1.1//EN"
 "http://www.w3.org/Graphics/SVG/1.1/DTD/svg11.dtd">
<!-- Generated by graphviz version 2.43.0 (0)
 -->
<!-- Title: tvm::tirx::ShuffleNode Pages: 1 -->
<svg width="427pt" height="796pt"
 viewBox="0.00 0.00 426.50 796.00" xmlns="http://www.w3.org/2000/svg" xmlns:xlink="http://www.w3.org/1999/xlink">
<g id="graph0" class="graph" transform="scale(1 1) rotate(0) translate(4 792)">
<title>tvm::tirx::ShuffleNode</title>
<polygon fill="white" stroke="transparent" points="-4,4 -4,-792 422.5,-792 422.5,4 -4,4"/>
<!-- Node1 -->
<g id="node1" class="node">
<title>Node1</title>
<g id="a_node1"><a xlink:title="Shuffle instruction. vec = concat(vectors) result = (vec[indices[0]], vec[indices[1]] ....">
<polygon fill="#bfbfbf" stroke="black" points="165,-0.5 165,-90.5 327,-90.5 327,-0.5 165,-0.5"/>
<text text-anchor="middle" x="246" y="-78.5" font-family="Helvetica,sans-Serif" font-size="10.00">tvm::tirx::ShuffleNode</text>
<polyline fill="none" stroke="black" points="165,-71.5 327,-71.5 "/>
<text text-anchor="start" x="173" y="-59.5" font-family="Helvetica,sans-Serif" font-size="10.00">+ vectors</text>
<text text-anchor="start" x="173" y="-48.5" font-family="Helvetica,sans-Serif" font-size="10.00">+ indices</text>
<polyline fill="none" stroke="black" points="165,-41.5 327,-41.5 "/>
<text text-anchor="start" x="173" y="-29.5" font-family="Helvetica,sans-Serif" font-size="10.00">+ TVM_FFI_DECLARE_OBJECT</text>
<text text-anchor="start" x="173" y="-18.5" font-family="Helvetica,sans-Serif" font-size="10.00">_INFO_FINAL()</text>
<text text-anchor="start" x="173" y="-7.5" font-family="Helvetica,sans-Serif" font-size="10.00">+ RegisterReflection()</text>
</a>
</g>
</g>
<!-- Node2 -->
<g id="node2" class="node">
<title>Node2</title>
<g id="a_node2"><a xlink:href="classtvm_1_1PrimExprNode.html" target="_top" xlink:title="Base node of all primitive expressions.">
<polygon fill="white" stroke="black" points="165,-128.5 165,-207.5 327,-207.5 327,-128.5 165,-128.5"/>
<text text-anchor="middle" x="246" y="-195.5" font-family="Helvetica,sans-Serif" font-size="10.00">tvm::PrimExprNode</text>
<polyline fill="none" stroke="black" points="165,-188.5 327,-188.5 "/>
<text text-anchor="start" x="173" y="-176.5" font-family="Helvetica,sans-Serif" font-size="10.00">+ _type_child_slots</text>
<polyline fill="none" stroke="black" points="165,-169.5 327,-169.5 "/>
<text text-anchor="start" x="173" y="-157.5" font-family="Helvetica,sans-Serif" font-size="10.00">+ TVM_FFI_DECLARE_OBJECT</text>
<text text-anchor="start" x="173" y="-146.5" font-family="Helvetica,sans-Serif" font-size="10.00">_INFO()</text>
<text text-anchor="start" x="173" y="-135.5" font-family="Helvetica,sans-Serif" font-size="10.00">+ RegisterReflection()</text>
</a>
</g>
</g>
<!-- Node2&#45;&gt;Node1 -->
<g id="edge1" class="edge">
<title>Node2&#45;&gt;Node1</title>
<path fill="none" stroke="midnightblue" d="M246,-118.14C246,-109.05 246,-99.6 246,-90.66"/>
<polygon fill="none" stroke="midnightblue" points="242.5,-118.21 246,-128.21 249.5,-118.21 242.5,-118.21"/>
</g>
<!-- Node3 -->
<g id="node3" class="node">
<title>Node3</title>
<g id="a_node3"><a xlink:href="classtvm_1_1BaseExprNode.html" target="_top" xlink:title="Base type of all the expressions.">
<polygon fill="white" stroke="black" points="81,-360 81,-450 243,-450 243,-360 81,-360"/>
<text text-anchor="middle" x="162" y="-438" font-family="Helvetica,sans-Serif" font-size="10.00">tvm::BaseExprNode</text>
<polyline fill="none" stroke="black" points="81,-431 243,-431 "/>
<text text-anchor="start" x="89" y="-419" font-family="Helvetica,sans-Serif" font-size="10.00">+ _type_s_eq_hash_kind</text>
<text text-anchor="start" x="89" y="-408" font-family="Helvetica,sans-Serif" font-size="10.00">+ _type_child_slots</text>
<polyline fill="none" stroke="black" points="81,-401 243,-401 "/>
<text text-anchor="start" x="89" y="-389" font-family="Helvetica,sans-Serif" font-size="10.00">+ TVM_FFI_DECLARE_OBJECT</text>
<text text-anchor="start" x="89" y="-378" font-family="Helvetica,sans-Serif" font-size="10.00">_INFO()</text>
<text text-anchor="start" x="89" y="-367" font-family="Helvetica,sans-Serif" font-size="10.00">+ RegisterReflection()</text>
</a>
</g>
</g>
<!-- Node3&#45;&gt;Node2 -->
<g id="edge2" class="edge">
<title>Node3&#45;&gt;Node2</title>
<path fill="none" stroke="midnightblue" d="M181.22,-350.22C196.79,-306.68 218.33,-246.41 232.22,-207.55"/>
<polygon fill="none" stroke="midnightblue" points="177.87,-349.2 177.8,-359.8 184.46,-351.56 177.87,-349.2"/>
</g>
<!-- Node4 -->
<g id="node4" class="node">
<title>Node4</title>
<g id="a_node4"><a xlink:title=" ">
<polygon fill="white" stroke="#bfbfbf" points="0,-619 0,-676 64,-676 64,-619 0,-619"/>
<text text-anchor="middle" x="32" y="-664" font-family="Helvetica,sans-Serif" font-size="10.00">ffi::Object</text>
<polyline fill="none" stroke="#bfbfbf" points="0,-657 64,-657 "/>
<text text-anchor="middle" x="32" y="-645" font-family="Helvetica,sans-Serif" font-size="10.00"> </text>
<polyline fill="none" stroke="#bfbfbf" points="0,-638 64,-638 "/>
<text text-anchor="middle" x="32" y="-626" font-family="Helvetica,sans-Serif" font-size="10.00"> </text>
</a>
</g>
</g>
<!-- Node4&#45;&gt;Node3 -->
<g id="edge3" class="edge">
<title>Node4&#45;&gt;Node3</title>
<path fill="none" stroke="midnightblue" d="M51.75,-609.96C74.88,-567.17 113.2,-496.28 138.02,-450.37"/>
<polygon fill="none" stroke="midnightblue" points="48.59,-608.45 46.91,-618.91 54.75,-611.78 48.59,-608.45"/>
</g>
<!-- Node5 -->
<g id="node5" class="node">
<title>Node5</title>
<g id="a_node5"><a xlink:href="classtvm_1_1Span.html" target="_top" xlink:title=" ">
<polygon fill="white" stroke="black" points="82.5,-602.5 82.5,-692.5 241.5,-692.5 241.5,-602.5 82.5,-602.5"/>
<text text-anchor="middle" x="162" y="-680.5" font-family="Helvetica,sans-Serif" font-size="10.00">tvm::Span</text>
<polyline fill="none" stroke="black" points="82.5,-673.5 241.5,-673.5 "/>
<text text-anchor="middle" x="162" y="-661.5" font-family="Helvetica,sans-Serif" font-size="10.00"> </text>
<polyline fill="none" stroke="black" points="82.5,-654.5 241.5,-654.5 "/>
<text text-anchor="start" x="90.5" y="-642.5" font-family="Helvetica,sans-Serif" font-size="10.00">+ Span()</text>
<text text-anchor="start" x="90.5" y="-631.5" font-family="Helvetica,sans-Serif" font-size="10.00">+ Merge()</text>
<text text-anchor="start" x="90.5" y="-620.5" font-family="Helvetica,sans-Serif" font-size="10.00">+ TVM_FFI_DEFINE_OBJECT</text>
<text text-anchor="start" x="90.5" y="-609.5" font-family="Helvetica,sans-Serif" font-size="10.00">_REF_METHODS_NULLABLE()</text>
</a>
</g>
</g>
<!-- Node5&#45;&gt;Node3 -->
<g id="edge4" class="edge">
<title>Node5&#45;&gt;Node3</title>
<path fill="none" stroke="#404040" d="M162,-602.39C162,-563.02 162,-505.15 162,-462.42"/>
<polygon fill="none" stroke="#404040" points="162,-462.24 158,-456.24 162,-450.24 166,-456.24 162,-462.24"/>
<text text-anchor="middle" x="179.5" y="-576" font-family="Helvetica,sans-Serif" font-size="10.00"> +span</text>
</g>
<!-- Node6 -->
<g id="node6" class="node">
<title>Node6</title>
<g id="a_node6"><a xlink:title=" ">
<polygon fill="white" stroke="#bfbfbf" points="210,-730.5 210,-787.5 290,-787.5 290,-730.5 210,-730.5"/>
<text text-anchor="middle" x="250" y="-775.5" font-family="Helvetica,sans-Serif" font-size="10.00">ffi::ObjectRef</text>
<polyline fill="none" stroke="#bfbfbf" points="210,-768.5 290,-768.5 "/>
<text text-anchor="middle" x="250" y="-756.5" font-family="Helvetica,sans-Serif" font-size="10.00"> </text>
<polyline fill="none" stroke="#bfbfbf" points="210,-749.5 290,-749.5 "/>
<text text-anchor="middle" x="250" y="-737.5" font-family="Helvetica,sans-Serif" font-size="10.00"> </text>
</a>
</g>
</g>
<!-- Node6&#45;&gt;Node5 -->
<g id="edge5" class="edge">
<title>Node6&#45;&gt;Node5</title>
<path fill="none" stroke="midnightblue" d="M221.33,-722.33C213.74,-712.89 205.46,-702.58 197.56,-692.74"/>
<polygon fill="none" stroke="midnightblue" points="218.8,-724.77 227.79,-730.37 224.26,-720.38 218.8,-724.77"/>
</g>
<!-- Node7 -->
<g id="node7" class="node">
<title>Node7</title>
<g id="a_node7"><a xlink:href="classtvm_1_1Type.html" target="_top" xlink:title="Managed reference to TypeNode.">
<polygon fill="white" stroke="black" points="259.5,-613.5 259.5,-681.5 418.5,-681.5 418.5,-613.5 259.5,-613.5"/>
<text text-anchor="middle" x="339" y="-669.5" font-family="Helvetica,sans-Serif" font-size="10.00">tvm::Type</text>
<polyline fill="none" stroke="black" points="259.5,-662.5 418.5,-662.5 "/>
<text text-anchor="middle" x="339" y="-650.5" font-family="Helvetica,sans-Serif" font-size="10.00"> </text>
<polyline fill="none" stroke="black" points="259.5,-643.5 418.5,-643.5 "/>
<text text-anchor="start" x="267.5" y="-631.5" font-family="Helvetica,sans-Serif" font-size="10.00">+ TVM_FFI_DEFINE_OBJECT</text>
<text text-anchor="start" x="267.5" y="-620.5" font-family="Helvetica,sans-Serif" font-size="10.00">_REF_METHODS_NULLABLE()</text>
</a>
</g>
</g>
<!-- Node6&#45;&gt;Node7 -->
<g id="edge7" class="edge">
<title>Node6&#45;&gt;Node7</title>
<path fill="none" stroke="midnightblue" d="M278.9,-722.44C289.58,-709.31 301.62,-694.49 312.11,-681.59"/>
<polygon fill="none" stroke="midnightblue" points="276.05,-720.4 272.46,-730.37 281.48,-724.82 276.05,-720.4"/>
</g>
<!-- Node7&#45;&gt;Node3 -->
<g id="edge6" class="edge">
<title>Node7&#45;&gt;Node3</title>
<path fill="none" stroke="#404040" d="M304.09,-613.33C287.4,-596.61 267.69,-575.56 252,-555 229.49,-525.49 207.86,-490.01 191.45,-461.07"/>
<polygon fill="none" stroke="#404040" points="191.3,-460.79 184.87,-457.51 185.43,-450.32 191.85,-453.6 191.3,-460.79"/>
<text text-anchor="middle" x="286" y="-576" font-family="Helvetica,sans-Serif" font-size="10.00"> +ty</text>
</g>
<!-- Node8 -->
<g id="node8" class="node">
<title>Node8</title>
<g id="a_node8"><a xlink:href="classtvm_1_1runtime_1_1DataType.html" target="_top" xlink:title="Runtime primitive data type.">
<polygon fill="white" stroke="black" points="261,-255.5 261,-554.5 401,-554.5 401,-255.5 261,-255.5"/>
<text text-anchor="middle" x="331" y="-542.5" font-family="Helvetica,sans-Serif" font-size="10.00">tvm::runtime::DataType</text>
<polyline fill="none" stroke="black" points="261,-535.5 401,-535.5 "/>
<text text-anchor="middle" x="331" y="-523.5" font-family="Helvetica,sans-Serif" font-size="10.00"> </text>
<polyline fill="none" stroke="black" points="261,-516.5 401,-516.5 "/>
<text text-anchor="start" x="269" y="-504.5" font-family="Helvetica,sans-Serif" font-size="10.00">+ DataType()</text>
<text text-anchor="start" x="269" y="-493.5" font-family="Helvetica,sans-Serif" font-size="10.00">+ DataType()</text>
<text text-anchor="start" x="269" y="-482.5" font-family="Helvetica,sans-Serif" font-size="10.00">+ DataType()</text>
<text text-anchor="start" x="269" y="-471.5" font-family="Helvetica,sans-Serif" font-size="10.00">+ code()</text>
<text text-anchor="start" x="269" y="-460.5" font-family="Helvetica,sans-Serif" font-size="10.00">+ bits()</text>
<text text-anchor="start" x="269" y="-449.5" font-family="Helvetica,sans-Serif" font-size="10.00">+ bytes()</text>
<text text-anchor="start" x="269" y="-438.5" font-family="Helvetica,sans-Serif" font-size="10.00">+ lanes()</text>
<text text-anchor="start" x="269" y="-427.5" font-family="Helvetica,sans-Serif" font-size="10.00">+ vscale_factor()</text>
<text text-anchor="start" x="269" y="-416.5" font-family="Helvetica,sans-Serif" font-size="10.00">+ get_lanes_or_vscale</text>
<text text-anchor="start" x="269" y="-405.5" font-family="Helvetica,sans-Serif" font-size="10.00">_factor()</text>
<text text-anchor="start" x="269" y="-394.5" font-family="Helvetica,sans-Serif" font-size="10.00">+ is_scalar()</text>
<text text-anchor="start" x="269" y="-383.5" font-family="Helvetica,sans-Serif" font-size="10.00">and 37 more...</text>
<text text-anchor="start" x="269" y="-372.5" font-family="Helvetica,sans-Serif" font-size="10.00">+ Int()</text>
<text text-anchor="start" x="269" y="-361.5" font-family="Helvetica,sans-Serif" font-size="10.00">+ UInt()</text>
<text text-anchor="start" x="269" y="-350.5" font-family="Helvetica,sans-Serif" font-size="10.00">+ Float()</text>
<text text-anchor="start" x="269" y="-339.5" font-family="Helvetica,sans-Serif" font-size="10.00">+ BFloat()</text>
<text text-anchor="start" x="269" y="-328.5" font-family="Helvetica,sans-Serif" font-size="10.00">+ Float8E3M4()</text>
<text text-anchor="start" x="269" y="-317.5" font-family="Helvetica,sans-Serif" font-size="10.00">+ Float8E4M3()</text>
<text text-anchor="start" x="269" y="-306.5" font-family="Helvetica,sans-Serif" font-size="10.00">+ Float8E4M3B11FNUZ()</text>
<text text-anchor="start" x="269" y="-295.5" font-family="Helvetica,sans-Serif" font-size="10.00">+ Float8E4M3FN()</text>
<text text-anchor="start" x="269" y="-284.5" font-family="Helvetica,sans-Serif" font-size="10.00">+ Float8E4M3FNUZ()</text>
<text text-anchor="start" x="269" y="-273.5" font-family="Helvetica,sans-Serif" font-size="10.00">+ Float8E5M2()</text>
<text text-anchor="start" x="269" y="-262.5" font-family="Helvetica,sans-Serif" font-size="10.00">and 9 more...</text>
</a>
</g>
</g>
<!-- Node8&#45;&gt;Node2 -->
<g id="edge8" class="edge">
<title>Node8&#45;&gt;Node2</title>
<path fill="none" stroke="#404040" d="M277.17,-255.17C272.57,-242.46 268.16,-230.28 264.19,-219.28"/>
<polygon fill="none" stroke="#404040" points="264.13,-219.13 258.33,-214.85 260.05,-207.84 265.85,-212.12 264.13,-219.13"/>
<text text-anchor="middle" x="289" y="-229" font-family="Helvetica,sans-Serif" font-size="10.00"> +dtype</text>
</g>
</g>
</svg>
