<?xml version="1.0" encoding="UTF-8" standalone="no"?>
<!DOCTYPE svg PUBLIC "-//W3C//DTD SVG 1.1//EN"
 "http://www.w3.org/Graphics/SVG/1.1/DTD/svg11.dtd">
<!-- Generated by graphviz version 2.43.0 (0)
 -->
<!-- Title: tvm::tirx::CmpOpNode&lt; T &gt; Pages: 1 -->
<svg width="620pt" height="898pt"
 viewBox="0.00 0.00 620.00 898.00" xmlns="http://www.w3.org/2000/svg" xmlns:xlink="http://www.w3.org/1999/xlink">
<g id="graph0" class="graph" transform="scale(1 1) rotate(0) translate(4 894)">
<title>tvm::tirx::CmpOpNode&lt; T &gt;</title>
<polygon fill="white" stroke="transparent" points="-4,4 -4,-894 616,-894 616,4 -4,4"/>
<!-- Node1 -->
<g id="node1" class="node">
<title>Node1</title>
<g id="a_node1"><a xlink:title="Base template to implement comparison ops.">
<polygon fill="#bfbfbf" stroke="black" points="382.5,-0.5 382.5,-90.5 556.5,-90.5 556.5,-0.5 382.5,-0.5"/>
<text text-anchor="middle" x="469.5" y="-78.5" font-family="Helvetica,sans-Serif" font-size="10.00">tvm::tirx::CmpOpNode&lt; T &gt;</text>
<polyline fill="none" stroke="black" points="382.5,-71.5 556.5,-71.5 "/>
<text text-anchor="start" x="390.5" y="-59.5" font-family="Helvetica,sans-Serif" font-size="10.00">+ _type_child_slots</text>
<text text-anchor="start" x="390.5" y="-48.5" font-family="Helvetica,sans-Serif" font-size="10.00">+ _type_final</text>
<polyline fill="none" stroke="black" points="382.5,-41.5 556.5,-41.5 "/>
<text text-anchor="start" x="390.5" y="-29.5" font-family="Helvetica,sans-Serif" font-size="10.00">+ TVM_FFI_DECLARE_OBJECT</text>
<text text-anchor="start" x="390.5" y="-18.5" font-family="Helvetica,sans-Serif" font-size="10.00">_INFO_PREDEFINED_TYPE_KEY()</text>
<text text-anchor="start" x="390.5" y="-7.5" font-family="Helvetica,sans-Serif" font-size="10.00">+ RegisterReflection()</text>
</a>
</g>
</g>
<!-- Node2 -->
<g id="node2" class="node">
<title>Node2</title>
<g id="a_node2"><a xlink:href="classtvm_1_1PrimExprNode.html" target="_top" xlink:title="Base node of all primitive expressions.">
<polygon fill="white" stroke="black" points="327.5,-128.5 327.5,-207.5 489.5,-207.5 489.5,-128.5 327.5,-128.5"/>
<text text-anchor="middle" x="408.5" y="-195.5" font-family="Helvetica,sans-Serif" font-size="10.00">tvm::PrimExprNode</text>
<polyline fill="none" stroke="black" points="327.5,-188.5 489.5,-188.5 "/>
<text text-anchor="start" x="335.5" y="-176.5" font-family="Helvetica,sans-Serif" font-size="10.00">+ _type_child_slots</text>
<polyline fill="none" stroke="black" points="327.5,-169.5 489.5,-169.5 "/>
<text text-anchor="start" x="335.5" y="-157.5" font-family="Helvetica,sans-Serif" font-size="10.00">+ TVM_FFI_DECLARE_OBJECT</text>
<text text-anchor="start" x="335.5" y="-146.5" font-family="Helvetica,sans-Serif" font-size="10.00">_INFO()</text>
<text text-anchor="start" x="335.5" y="-135.5" font-family="Helvetica,sans-Serif" font-size="10.00">+ RegisterReflection()</text>
</a>
</g>
</g>
<!-- Node2&#45;&gt;Node1 -->
<g id="edge1" class="edge">
<title>Node2&#45;&gt;Node1</title>
<path fill="none" stroke="midnightblue" d="M432.79,-119.02C437.53,-109.66 442.47,-99.89 447.14,-90.66"/>
<polygon fill="none" stroke="midnightblue" points="429.53,-117.71 428.14,-128.21 435.78,-120.87 429.53,-117.71"/>
</g>
<!-- Node3 -->
<g id="node3" class="node">
<title>Node3</title>
<g id="a_node3"><a xlink:href="classtvm_1_1BaseExprNode.html" target="_top" xlink:title="Base type of all the expressions.">
<polygon fill="white" stroke="black" points="165.5,-462 165.5,-552 327.5,-552 327.5,-462 165.5,-462"/>
<text text-anchor="middle" x="246.5" y="-540" font-family="Helvetica,sans-Serif" font-size="10.00">tvm::BaseExprNode</text>
<polyline fill="none" stroke="black" points="165.5,-533 327.5,-533 "/>
<text text-anchor="start" x="173.5" y="-521" font-family="Helvetica,sans-Serif" font-size="10.00">+ _type_s_eq_hash_kind</text>
<text text-anchor="start" x="173.5" y="-510" font-family="Helvetica,sans-Serif" font-size="10.00">+ _type_child_slots</text>
<polyline fill="none" stroke="black" points="165.5,-503 327.5,-503 "/>
<text text-anchor="start" x="173.5" y="-491" font-family="Helvetica,sans-Serif" font-size="10.00">+ TVM_FFI_DECLARE_OBJECT</text>
<text text-anchor="start" x="173.5" y="-480" font-family="Helvetica,sans-Serif" font-size="10.00">_INFO()</text>
<text text-anchor="start" x="173.5" y="-469" font-family="Helvetica,sans-Serif" font-size="10.00">+ RegisterReflection()</text>
</a>
</g>
</g>
<!-- Node3&#45;&gt;Node2 -->
<g id="edge2" class="edge">
<title>Node3&#45;&gt;Node2</title>
<path fill="none" stroke="midnightblue" d="M272.15,-452.64C304.96,-384.39 360.99,-267.84 389.95,-207.59"/>
<polygon fill="none" stroke="midnightblue" points="268.86,-451.41 267.68,-461.94 275.17,-454.45 268.86,-451.41"/>
</g>
<!-- Node4 -->
<g id="node4" class="node">
<title>Node4</title>
<g id="a_node4"><a xlink:title=" ">
<polygon fill="white" stroke="#bfbfbf" points="354.5,-721 354.5,-778 418.5,-778 418.5,-721 354.5,-721"/>
<text text-anchor="middle" x="386.5" y="-766" font-family="Helvetica,sans-Serif" font-size="10.00">ffi::Object</text>
<polyline fill="none" stroke="#bfbfbf" points="354.5,-759 418.5,-759 "/>
<text text-anchor="middle" x="386.5" y="-747" font-family="Helvetica,sans-Serif" font-size="10.00"> </text>
<polyline fill="none" stroke="#bfbfbf" points="354.5,-740 418.5,-740 "/>
<text text-anchor="middle" x="386.5" y="-728" font-family="Helvetica,sans-Serif" font-size="10.00"> </text>
</a>
</g>
</g>
<!-- Node4&#45;&gt;Node3 -->
<g id="edge3" class="edge">
<title>Node4&#45;&gt;Node3</title>
<path fill="none" stroke="midnightblue" d="M365.39,-712.23C340.49,-669.46 299.11,-598.38 272.33,-552.37"/>
<polygon fill="none" stroke="midnightblue" points="362.38,-714.03 370.44,-720.91 368.43,-710.51 362.38,-714.03"/>
</g>
<!-- Node5 -->
<g id="node5" class="node">
<title>Node5</title>
<g id="a_node5"><a xlink:href="classtvm_1_1Span.html" target="_top" xlink:title=" ">
<polygon fill="white" stroke="black" points="0,-704.5 0,-794.5 159,-794.5 159,-704.5 0,-704.5"/>
<text text-anchor="middle" x="79.5" y="-782.5" font-family="Helvetica,sans-Serif" font-size="10.00">tvm::Span</text>
<polyline fill="none" stroke="black" points="0,-775.5 159,-775.5 "/>
<text text-anchor="middle" x="79.5" y="-763.5" font-family="Helvetica,sans-Serif" font-size="10.00"> </text>
<polyline fill="none" stroke="black" points="0,-756.5 159,-756.5 "/>
<text text-anchor="start" x="8" y="-744.5" font-family="Helvetica,sans-Serif" font-size="10.00">+ Span()</text>
<text text-anchor="start" x="8" y="-733.5" font-family="Helvetica,sans-Serif" font-size="10.00">+ Merge()</text>
<text text-anchor="start" x="8" y="-722.5" font-family="Helvetica,sans-Serif" font-size="10.00">+ TVM_FFI_DEFINE_OBJECT</text>
<text text-anchor="start" x="8" y="-711.5" font-family="Helvetica,sans-Serif" font-size="10.00">_REF_METHODS_NULLABLE()</text>
</a>
</g>
</g>
<!-- Node5&#45;&gt;Node3 -->
<g id="edge4" class="edge">
<title>Node5&#45;&gt;Node3</title>
<path fill="none" stroke="#404040" d="M110.13,-704.39C137.94,-664.34 179.04,-605.15 208.84,-562.23"/>
<polygon fill="none" stroke="#404040" points="208.94,-562.1 209.07,-554.89 215.78,-552.24 215.64,-559.45 208.94,-562.1"/>
<text text-anchor="middle" x="147" y="-678" font-family="Helvetica,sans-Serif" font-size="10.00"> +span</text>
</g>
<!-- Node6 -->
<g id="node6" class="node">
<title>Node6</title>
<g id="a_node6"><a xlink:title=" ">
<polygon fill="white" stroke="#bfbfbf" points="216.5,-832.5 216.5,-889.5 296.5,-889.5 296.5,-832.5 216.5,-832.5"/>
<text text-anchor="middle" x="256.5" y="-877.5" font-family="Helvetica,sans-Serif" font-size="10.00">ffi::ObjectRef</text>
<polyline fill="none" stroke="#bfbfbf" points="216.5,-870.5 296.5,-870.5 "/>
<text text-anchor="middle" x="256.5" y="-858.5" font-family="Helvetica,sans-Serif" font-size="10.00"> </text>
<polyline fill="none" stroke="#bfbfbf" points="216.5,-851.5 296.5,-851.5 "/>
<text text-anchor="middle" x="256.5" y="-839.5" font-family="Helvetica,sans-Serif" font-size="10.00"> </text>
</a>
</g>
</g>
<!-- Node6&#45;&gt;Node5 -->
<g id="edge5" class="edge">
<title>Node6&#45;&gt;Node5</title>
<path fill="none" stroke="midnightblue" d="M207.43,-829.64C189.91,-818.81 169.8,-806.37 150.8,-794.61"/>
<polygon fill="none" stroke="midnightblue" points="205.99,-832.87 216.34,-835.15 209.67,-826.92 205.99,-832.87"/>
</g>
<!-- Node7 -->
<g id="node7" class="node">
<title>Node7</title>
<g id="a_node7"><a xlink:href="classtvm_1_1Type.html" target="_top" xlink:title="Managed reference to TypeNode.">
<polygon fill="white" stroke="black" points="177,-715.5 177,-783.5 336,-783.5 336,-715.5 177,-715.5"/>
<text text-anchor="middle" x="256.5" y="-771.5" font-family="Helvetica,sans-Serif" font-size="10.00">tvm::Type</text>
<polyline fill="none" stroke="black" points="177,-764.5 336,-764.5 "/>
<text text-anchor="middle" x="256.5" y="-752.5" font-family="Helvetica,sans-Serif" font-size="10.00"> </text>
<polyline fill="none" stroke="black" points="177,-745.5 336,-745.5 "/>
<text text-anchor="start" x="185" y="-733.5" font-family="Helvetica,sans-Serif" font-size="10.00">+ TVM_FFI_DEFINE_OBJECT</text>
<text text-anchor="start" x="185" y="-722.5" font-family="Helvetica,sans-Serif" font-size="10.00">_REF_METHODS_NULLABLE()</text>
</a>
</g>
</g>
<!-- Node6&#45;&gt;Node7 -->
<g id="edge7" class="edge">
<title>Node6&#45;&gt;Node7</title>
<path fill="none" stroke="midnightblue" d="M256.5,-822.2C256.5,-809.64 256.5,-795.76 256.5,-783.59"/>
<polygon fill="none" stroke="midnightblue" points="253,-822.37 256.5,-832.37 260,-822.37 253,-822.37"/>
</g>
<!-- Node10 -->
<g id="node10" class="node">
<title>Node10</title>
<g id="a_node10"><a xlink:href="classtvm_1_1BaseExpr.html" target="_top" xlink:title="Managed reference to BaseExprNode.">
<polygon fill="white" stroke="black" points="440,-715.5 440,-783.5 599,-783.5 599,-715.5 440,-715.5"/>
<text text-anchor="middle" x="519.5" y="-771.5" font-family="Helvetica,sans-Serif" font-size="10.00">tvm::BaseExpr</text>
<polyline fill="none" stroke="black" points="440,-764.5 599,-764.5 "/>
<text text-anchor="middle" x="519.5" y="-752.5" font-family="Helvetica,sans-Serif" font-size="10.00"> </text>
<polyline fill="none" stroke="black" points="440,-745.5 599,-745.5 "/>
<text text-anchor="start" x="448" y="-733.5" font-family="Helvetica,sans-Serif" font-size="10.00">+ TVM_FFI_DEFINE_OBJECT</text>
<text text-anchor="start" x="448" y="-722.5" font-family="Helvetica,sans-Serif" font-size="10.00">_REF_METHODS_NULLABLE()</text>
</a>
</g>
</g>
<!-- Node6&#45;&gt;Node10 -->
<g id="edge11" class="edge">
<title>Node6&#45;&gt;Node10</title>
<path fill="none" stroke="midnightblue" d="M306.43,-842.33C340.78,-829.85 387.28,-812.33 427.5,-795 435.81,-791.42 444.46,-787.5 452.99,-783.52"/>
<polygon fill="none" stroke="midnightblue" points="304.84,-839.18 296.63,-845.87 307.22,-845.76 304.84,-839.18"/>
</g>
<!-- Node7&#45;&gt;Node3 -->
<g id="edge6" class="edge">
<title>Node7&#45;&gt;Node3</title>
<path fill="none" stroke="#404040" d="M255.12,-715.31C253.5,-676.4 250.79,-611.26 248.84,-564.37"/>
<polygon fill="none" stroke="#404040" points="248.84,-564.26 244.59,-558.43 248.34,-552.27 252.59,-558.1 248.84,-564.26"/>
<text text-anchor="middle" x="265.5" y="-678" font-family="Helvetica,sans-Serif" font-size="10.00"> +ty</text>
</g>
<!-- Node8 -->
<g id="node8" class="node">
<title>Node8</title>
<g id="a_node8"><a xlink:href="classtvm_1_1runtime_1_1DataType.html" target="_top" xlink:title="Runtime primitive data type.">
<polygon fill="white" stroke="black" points="345.5,-357.5 345.5,-656.5 485.5,-656.5 485.5,-357.5 345.5,-357.5"/>
<text text-anchor="middle" x="415.5" y="-644.5" font-family="Helvetica,sans-Serif" font-size="10.00">tvm::runtime::DataType</text>
<polyline fill="none" stroke="black" points="345.5,-637.5 485.5,-637.5 "/>
<text text-anchor="middle" x="415.5" y="-625.5" font-family="Helvetica,sans-Serif" font-size="10.00"> </text>
<polyline fill="none" stroke="black" points="345.5,-618.5 485.5,-618.5 "/>
<text text-anchor="start" x="353.5" y="-606.5" font-family="Helvetica,sans-Serif" font-size="10.00">+ DataType()</text>
<text text-anchor="start" x="353.5" y="-595.5" font-family="Helvetica,sans-Serif" font-size="10.00">+ DataType()</text>
<text text-anchor="start" x="353.5" y="-584.5" font-family="Helvetica,sans-Serif" font-size="10.00">+ DataType()</text>
<text text-anchor="start" x="353.5" y="-573.5" font-family="Helvetica,sans-Serif" font-size="10.00">+ code()</text>
<text text-anchor="start" x="353.5" y="-562.5" font-family="Helvetica,sans-Serif" font-size="10.00">+ bits()</text>
<text text-anchor="start" x="353.5" y="-551.5" font-family="Helvetica,sans-Serif" font-size="10.00">+ bytes()</text>
<text text-anchor="start" x="353.5" y="-540.5" font-family="Helvetica,sans-Serif" font-size="10.00">+ lanes()</text>
<text text-anchor="start" x="353.5" y="-529.5" font-family="Helvetica,sans-Serif" font-size="10.00">+ vscale_factor()</text>
<text text-anchor="start" x="353.5" y="-518.5" font-family="Helvetica,sans-Serif" font-size="10.00">+ get_lanes_or_vscale</text>
<text text-anchor="start" x="353.5" y="-507.5" font-family="Helvetica,sans-Serif" font-size="10.00">_factor()</text>
<text text-anchor="start" x="353.5" y="-496.5" font-family="Helvetica,sans-Serif" font-size="10.00">+ is_scalar()</text>
<text text-anchor="start" x="353.5" y="-485.5" font-family="Helvetica,sans-Serif" font-size="10.00">and 37 more...</text>
<text text-anchor="start" x="353.5" y="-474.5" font-family="Helvetica,sans-Serif" font-size="10.00">+ Int()</text>
<text text-anchor="start" x="353.5" y="-463.5" font-family="Helvetica,sans-Serif" font-size="10.00">+ UInt()</text>
<text text-anchor="start" x="353.5" y="-452.5" font-family="Helvetica,sans-Serif" font-size="10.00">+ Float()</text>
<text text-anchor="start" x="353.5" y="-441.5" font-family="Helvetica,sans-Serif" font-size="10.00">+ BFloat()</text>
<text text-anchor="start" x="353.5" y="-430.5" font-family="Helvetica,sans-Serif" font-size="10.00">+ Float8E3M4()</text>
<text text-anchor="start" x="353.5" y="-419.5" font-family="Helvetica,sans-Serif" font-size="10.00">+ Float8E4M3()</text>
<text text-anchor="start" x="353.5" y="-408.5" font-family="Helvetica,sans-Serif" font-size="10.00">+ Float8E4M3B11FNUZ()</text>
<text text-anchor="start" x="353.5" y="-397.5" font-family="Helvetica,sans-Serif" font-size="10.00">+ Float8E4M3FN()</text>
<text text-anchor="start" x="353.5" y="-386.5" font-family="Helvetica,sans-Serif" font-size="10.00">+ Float8E4M3FNUZ()</text>
<text text-anchor="start" x="353.5" y="-375.5" font-family="Helvetica,sans-Serif" font-size="10.00">+ Float8E5M2()</text>
<text text-anchor="start" x="353.5" y="-364.5" font-family="Helvetica,sans-Serif" font-size="10.00">and 9 more...</text>
</a>
</g>
</g>
<!-- Node8&#45;&gt;Node2 -->
<g id="edge8" class="edge">
<title>Node8&#45;&gt;Node2</title>
<path fill="none" stroke="#404040" d="M405.2,-357.16C404.93,-351.02 404.7,-344.95 404.5,-339 402.85,-288.8 402.74,-276.19 404.5,-226 404.57,-223.96 404.66,-221.87 404.76,-219.76"/>
<polygon fill="none" stroke="#404040" points="404.76,-219.6 401.1,-213.39 405.42,-207.61 409.09,-213.82 404.76,-219.6"/>
<text text-anchor="middle" x="424.5" y="-280" font-family="Helvetica,sans-Serif" font-size="10.00"> +dtype</text>
</g>
<!-- Node9 -->
<g id="node9" class="node">
<title>Node9</title>
<g id="a_node9"><a xlink:href="classtvm_1_1PrimExpr.html" target="_top" xlink:title="Reference to PrimExprNode.">
<polygon fill="white" stroke="black" points="453,-226.5 453,-338.5 612,-338.5 612,-226.5 453,-226.5"/>
<text text-anchor="middle" x="532.5" y="-326.5" font-family="Helvetica,sans-Serif" font-size="10.00">tvm::PrimExpr</text>
<polyline fill="none" stroke="black" points="453,-319.5 612,-319.5 "/>
<text text-anchor="middle" x="532.5" y="-307.5" font-family="Helvetica,sans-Serif" font-size="10.00"> </text>
<polyline fill="none" stroke="black" points="453,-300.5 612,-300.5 "/>
<text text-anchor="start" x="461" y="-288.5" font-family="Helvetica,sans-Serif" font-size="10.00">+ PrimExpr()</text>
<text text-anchor="start" x="461" y="-277.5" font-family="Helvetica,sans-Serif" font-size="10.00">+ PrimExpr()</text>
<text text-anchor="start" x="461" y="-266.5" font-family="Helvetica,sans-Serif" font-size="10.00">+ dtype()</text>
<text text-anchor="start" x="461" y="-255.5" font-family="Helvetica,sans-Serif" font-size="10.00">+ TVM_FFI_DEFINE_OBJECT</text>
<text text-anchor="start" x="461" y="-244.5" font-family="Helvetica,sans-Serif" font-size="10.00">_REF_METHODS_NULLABLE()</text>
<text text-anchor="start" x="461" y="-233.5" font-family="Helvetica,sans-Serif" font-size="10.00">+ ConvertFallbackValue()</text>
</a>
</g>
</g>
<!-- Node9&#45;&gt;Node1 -->
<g id="edge9" class="edge">
<title>Node9&#45;&gt;Node1</title>
<path fill="none" stroke="#404040" d="M522.02,-226.38C515.99,-196.96 507.78,-160.27 498.5,-128 496.08,-119.57 493.25,-110.73 490.32,-102.13"/>
<polygon fill="none" stroke="#404040" points="490.25,-101.92 484.5,-97.57 486.31,-90.59 492.06,-94.94 490.25,-101.92"/>
<text text-anchor="middle" x="526.5" y="-171" font-family="Helvetica,sans-Serif" font-size="10.00"> +a</text>
<text text-anchor="middle" x="526.5" y="-160" font-family="Helvetica,sans-Serif" font-size="10.00">+b</text>
</g>
<!-- Node10&#45;&gt;Node9 -->
<g id="edge10" class="edge">
<title>Node10&#45;&gt;Node9</title>
<path fill="none" stroke="midnightblue" d="M520.71,-705.38C523.08,-620.62 528.34,-432.42 530.96,-338.72"/>
<polygon fill="none" stroke="midnightblue" points="517.21,-705.34 520.42,-715.43 524.2,-705.53 517.21,-705.34"/>
</g>
</g>
</svg>
