<?xml version="1.0" encoding="UTF-8" standalone="no"?>
<!DOCTYPE svg PUBLIC "-//W3C//DTD SVG 1.1//EN"
 "http://www.w3.org/Graphics/SVG/1.1/DTD/svg11.dtd">
<!-- Generated by graphviz version 2.43.0 (0)
 -->
<!-- Title: tvm::relax::LeafExprNode Pages: 1 -->
<svg width="427pt" height="555pt"
 viewBox="0.00 0.00 426.50 555.00" xmlns="http://www.w3.org/2000/svg" xmlns:xlink="http://www.w3.org/1999/xlink">
<g id="graph0" class="graph" transform="scale(1 1) rotate(0) translate(4 551)">
<title>tvm::relax::LeafExprNode</title>
<polygon fill="white" stroke="transparent" points="-4,4 -4,-551 422.5,-551 422.5,4 -4,4"/>
<!-- Node1 -->
<g id="node1" class="node">
<title>Node1</title>
<g id="a_node1"><a xlink:title="Base type of all (non&#45;function) leaf Exprs.">
<polygon fill="#bfbfbf" stroke="black" points="81,-0.5 81,-68.5 243,-68.5 243,-0.5 81,-0.5"/>
<text text-anchor="middle" x="162" y="-56.5" font-family="Helvetica,sans-Serif" font-size="10.00">tvm::relax::LeafExprNode</text>
<polyline fill="none" stroke="black" points="81,-49.5 243,-49.5 "/>
<text text-anchor="start" x="89" y="-37.5" font-family="Helvetica,sans-Serif" font-size="10.00">+ _type_child_slots</text>
<polyline fill="none" stroke="black" points="81,-30.5 243,-30.5 "/>
<text text-anchor="start" x="89" y="-18.5" font-family="Helvetica,sans-Serif" font-size="10.00">+ TVM_FFI_DECLARE_OBJECT</text>
<text text-anchor="start" x="89" y="-7.5" font-family="Helvetica,sans-Serif" font-size="10.00">_INFO()</text>
</a>
</g>
</g>
<!-- Node2 -->
<g id="node2" class="node">
<title>Node2</title>
<g id="a_node2"><a xlink:href="classtvm_1_1RelaxExprNode.html" target="_top" xlink:title="Base node of all non&#45;primitive expressions.">
<polygon fill="white" stroke="black" points="81,-106.5 81,-185.5 243,-185.5 243,-106.5 81,-106.5"/>
<text text-anchor="middle" x="162" y="-173.5" font-family="Helvetica,sans-Serif" font-size="10.00">ExprNode</text>
<polyline fill="none" stroke="black" points="81,-166.5 243,-166.5 "/>
<text text-anchor="start" x="89" y="-154.5" font-family="Helvetica,sans-Serif" font-size="10.00">+ _type_child_slots</text>
<polyline fill="none" stroke="black" points="81,-147.5 243,-147.5 "/>
<text text-anchor="start" x="89" y="-135.5" font-family="Helvetica,sans-Serif" font-size="10.00">+ TVM_FFI_DECLARE_OBJECT</text>
<text text-anchor="start" x="89" y="-124.5" font-family="Helvetica,sans-Serif" font-size="10.00">_INFO()</text>
<text text-anchor="start" x="89" y="-113.5" font-family="Helvetica,sans-Serif" font-size="10.00">+ RegisterReflection()</text>
</a>
</g>
</g>
<!-- Node2&#45;&gt;Node1 -->
<g id="edge1" class="edge">
<title>Node2&#45;&gt;Node1</title>
<path fill="none" stroke="midnightblue" d="M162,-96.38C162,-87.02 162,-77.41 162,-68.67"/>
<polygon fill="none" stroke="midnightblue" points="158.5,-96.39 162,-106.39 165.5,-96.39 158.5,-96.39"/>
</g>
<!-- Node3 -->
<g id="node3" class="node">
<title>Node3</title>
<g id="a_node3"><a xlink:href="classtvm_1_1BaseExprNode.html" target="_top" xlink:title="Base type of all the expressions.">
<polygon fill="white" stroke="black" points="81,-223.5 81,-313.5 243,-313.5 243,-223.5 81,-223.5"/>
<text text-anchor="middle" x="162" y="-301.5" font-family="Helvetica,sans-Serif" font-size="10.00">tvm::BaseExprNode</text>
<polyline fill="none" stroke="black" points="81,-294.5 243,-294.5 "/>
<text text-anchor="start" x="89" y="-282.5" font-family="Helvetica,sans-Serif" font-size="10.00">+ _type_s_eq_hash_kind</text>
<text text-anchor="start" x="89" y="-271.5" font-family="Helvetica,sans-Serif" font-size="10.00">+ _type_child_slots</text>
<polyline fill="none" stroke="black" points="81,-264.5 243,-264.5 "/>
<text text-anchor="start" x="89" y="-252.5" font-family="Helvetica,sans-Serif" font-size="10.00">+ TVM_FFI_DECLARE_OBJECT</text>
<text text-anchor="start" x="89" y="-241.5" font-family="Helvetica,sans-Serif" font-size="10.00">_INFO()</text>
<text text-anchor="start" x="89" y="-230.5" font-family="Helvetica,sans-Serif" font-size="10.00">+ RegisterReflection()</text>
</a>
</g>
</g>
<!-- Node3&#45;&gt;Node2 -->
<g id="edge2" class="edge">
<title>Node3&#45;&gt;Node2</title>
<path fill="none" stroke="midnightblue" d="M162,-213.3C162,-203.97 162,-194.43 162,-185.61"/>
<polygon fill="none" stroke="midnightblue" points="158.5,-213.31 162,-223.31 165.5,-213.31 158.5,-213.31"/>
</g>
<!-- Node4 -->
<g id="node4" class="node">
<title>Node4</title>
<g id="a_node4"><a xlink:title=" ">
<polygon fill="white" stroke="#bfbfbf" points="0,-378 0,-435 64,-435 64,-378 0,-378"/>
<text text-anchor="middle" x="32" y="-423" font-family="Helvetica,sans-Serif" font-size="10.00">ffi::Object</text>
<polyline fill="none" stroke="#bfbfbf" points="0,-416 64,-416 "/>
<text text-anchor="middle" x="32" y="-404" font-family="Helvetica,sans-Serif" font-size="10.00"> </text>
<polyline fill="none" stroke="#bfbfbf" points="0,-397 64,-397 "/>
<text text-anchor="middle" x="32" y="-385" font-family="Helvetica,sans-Serif" font-size="10.00"> </text>
</a>
</g>
</g>
<!-- Node4&#45;&gt;Node3 -->
<g id="edge3" class="edge">
<title>Node4&#45;&gt;Node3</title>
<path fill="none" stroke="midnightblue" d="M64.28,-370.29C67.22,-367.14 70.16,-364 73,-361 87.63,-345.55 103.8,-328.82 118.3,-313.94"/>
<polygon fill="none" stroke="midnightblue" points="61.71,-367.91 57.47,-377.62 66.84,-372.67 61.71,-367.91"/>
</g>
<!-- Node5 -->
<g id="node5" class="node">
<title>Node5</title>
<g id="a_node5"><a xlink:href="classtvm_1_1Span.html" target="_top" xlink:title=" ">
<polygon fill="white" stroke="black" points="82.5,-361.5 82.5,-451.5 241.5,-451.5 241.5,-361.5 82.5,-361.5"/>
<text text-anchor="middle" x="162" y="-439.5" font-family="Helvetica,sans-Serif" font-size="10.00">tvm::Span</text>
<polyline fill="none" stroke="black" points="82.5,-432.5 241.5,-432.5 "/>
<text text-anchor="middle" x="162" y="-420.5" font-family="Helvetica,sans-Serif" font-size="10.00"> </text>
<polyline fill="none" stroke="black" points="82.5,-413.5 241.5,-413.5 "/>
<text text-anchor="start" x="90.5" y="-401.5" font-family="Helvetica,sans-Serif" font-size="10.00">+ Span()</text>
<text text-anchor="start" x="90.5" y="-390.5" font-family="Helvetica,sans-Serif" font-size="10.00">+ Merge()</text>
<text text-anchor="start" x="90.5" y="-379.5" font-family="Helvetica,sans-Serif" font-size="10.00">+ TVM_FFI_DEFINE_OBJECT</text>
<text text-anchor="start" x="90.5" y="-368.5" font-family="Helvetica,sans-Serif" font-size="10.00">_REF_METHODS_NULLABLE()</text>
</a>
</g>
</g>
<!-- Node5&#45;&gt;Node3 -->
<g id="edge4" class="edge">
<title>Node5&#45;&gt;Node3</title>
<path fill="none" stroke="#404040" d="M162,-361.34C162,-350.06 162,-337.78 162,-325.97"/>
<polygon fill="none" stroke="#404040" points="162,-325.9 158,-319.9 162,-313.9 166,-319.9 162,-325.9"/>
<text text-anchor="middle" x="179.5" y="-335" font-family="Helvetica,sans-Serif" font-size="10.00"> +span</text>
</g>
<!-- Node6 -->
<g id="node6" class="node">
<title>Node6</title>
<g id="a_node6"><a xlink:title=" ">
<polygon fill="white" stroke="#bfbfbf" points="210,-489.5 210,-546.5 290,-546.5 290,-489.5 210,-489.5"/>
<text text-anchor="middle" x="250" y="-534.5" font-family="Helvetica,sans-Serif" font-size="10.00">ffi::ObjectRef</text>
<polyline fill="none" stroke="#bfbfbf" points="210,-527.5 290,-527.5 "/>
<text text-anchor="middle" x="250" y="-515.5" font-family="Helvetica,sans-Serif" font-size="10.00"> </text>
<polyline fill="none" stroke="#bfbfbf" points="210,-508.5 290,-508.5 "/>
<text text-anchor="middle" x="250" y="-496.5" font-family="Helvetica,sans-Serif" font-size="10.00"> </text>
</a>
</g>
</g>
<!-- Node6&#45;&gt;Node5 -->
<g id="edge5" class="edge">
<title>Node6&#45;&gt;Node5</title>
<path fill="none" stroke="midnightblue" d="M221.33,-481.33C213.74,-471.89 205.46,-461.58 197.56,-451.74"/>
<polygon fill="none" stroke="midnightblue" points="218.8,-483.77 227.79,-489.37 224.26,-479.38 218.8,-483.77"/>
</g>
<!-- Node7 -->
<g id="node7" class="node">
<title>Node7</title>
<g id="a_node7"><a xlink:href="classtvm_1_1Type.html" target="_top" xlink:title="Managed reference to TypeNode.">
<polygon fill="white" stroke="black" points="259.5,-372.5 259.5,-440.5 418.5,-440.5 418.5,-372.5 259.5,-372.5"/>
<text text-anchor="middle" x="339" y="-428.5" font-family="Helvetica,sans-Serif" font-size="10.00">tvm::Type</text>
<polyline fill="none" stroke="black" points="259.5,-421.5 418.5,-421.5 "/>
<text text-anchor="middle" x="339" y="-409.5" font-family="Helvetica,sans-Serif" font-size="10.00"> </text>
<polyline fill="none" stroke="black" points="259.5,-402.5 418.5,-402.5 "/>
<text text-anchor="start" x="267.5" y="-390.5" font-family="Helvetica,sans-Serif" font-size="10.00">+ TVM_FFI_DEFINE_OBJECT</text>
<text text-anchor="start" x="267.5" y="-379.5" font-family="Helvetica,sans-Serif" font-size="10.00">_REF_METHODS_NULLABLE()</text>
</a>
</g>
</g>
<!-- Node6&#45;&gt;Node7 -->
<g id="edge7" class="edge">
<title>Node6&#45;&gt;Node7</title>
<path fill="none" stroke="midnightblue" d="M278.9,-481.44C289.58,-468.31 301.62,-453.49 312.11,-440.59"/>
<polygon fill="none" stroke="midnightblue" points="276.05,-479.4 272.46,-489.37 281.48,-483.82 276.05,-479.4"/>
</g>
<!-- Node7&#45;&gt;Node3 -->
<g id="edge6" class="edge">
<title>Node7&#45;&gt;Node3</title>
<path fill="none" stroke="#404040" d="M295.7,-372.23C275.73,-356.89 251.56,-338.32 229.3,-321.21"/>
<polygon fill="none" stroke="#404040" points="229.07,-321.04 221.88,-320.55 219.56,-313.73 226.75,-314.21 229.07,-321.04"/>
<text text-anchor="middle" x="266" y="-335" font-family="Helvetica,sans-Serif" font-size="10.00"> +ty</text>
</g>
</g>
</svg>
