<?xml version="1.0" encoding="UTF-8" standalone="no"?>
<!DOCTYPE svg PUBLIC "-//W3C//DTD SVG 1.1//EN"
 "http://www.w3.org/Graphics/SVG/1.1/DTD/svg11.dtd">
<!-- Generated by graphviz version 2.43.0 (0)
 -->
<!-- Title: tvm::tirx::VarNode Pages: 1 -->
<svg width="463pt" height="807pt"
 viewBox="0.00 0.00 462.50 807.00" xmlns="http://www.w3.org/2000/svg" xmlns:xlink="http://www.w3.org/1999/xlink">
<g id="graph0" class="graph" transform="scale(1 1) rotate(0) translate(4 803)">
<title>tvm::tirx::VarNode</title>
<polygon fill="white" stroke="transparent" points="-4,4 -4,-803 458.5,-803 458.5,4 -4,4"/>
<!-- Node1 -->
<g id="node1" class="node">
<title>Node1</title>
<g id="a_node1"><a xlink:title="A variable node in the IR.">
<polygon fill="#bfbfbf" stroke="black" points="232.5,-0.5 232.5,-101.5 394.5,-101.5 394.5,-0.5 232.5,-0.5"/>
<text text-anchor="middle" x="313.5" y="-89.5" font-family="Helvetica,sans-Serif" font-size="10.00">tvm::tirx::VarNode</text>
<polyline fill="none" stroke="black" points="232.5,-82.5 394.5,-82.5 "/>
<text text-anchor="start" x="240.5" y="-70.5" font-family="Helvetica,sans-Serif" font-size="10.00">+ name_hint</text>
<text text-anchor="start" x="240.5" y="-59.5" font-family="Helvetica,sans-Serif" font-size="10.00">+ _type_s_eq_hash_kind</text>
<text text-anchor="start" x="240.5" y="-48.5" font-family="Helvetica,sans-Serif" font-size="10.00">+ _type_child_slots</text>
<polyline fill="none" stroke="black" points="232.5,-41.5 394.5,-41.5 "/>
<text text-anchor="start" x="240.5" y="-29.5" font-family="Helvetica,sans-Serif" font-size="10.00">+ TVM_FFI_DECLARE_OBJECT</text>
<text text-anchor="start" x="240.5" y="-18.5" font-family="Helvetica,sans-Serif" font-size="10.00">_INFO()</text>
<text text-anchor="start" x="240.5" y="-7.5" font-family="Helvetica,sans-Serif" font-size="10.00">+ RegisterReflection()</text>
</a>
</g>
</g>
<!-- Node2 -->
<g id="node2" class="node">
<title>Node2</title>
<g id="a_node2"><a xlink:href="classtvm_1_1PrimExprNode.html" target="_top" xlink:title="Base node of all primitive expressions.">
<polygon fill="white" stroke="black" points="178.5,-139.5 178.5,-218.5 340.5,-218.5 340.5,-139.5 178.5,-139.5"/>
<text text-anchor="middle" x="259.5" y="-206.5" font-family="Helvetica,sans-Serif" font-size="10.00">tvm::PrimExprNode</text>
<polyline fill="none" stroke="black" points="178.5,-199.5 340.5,-199.5 "/>
<text text-anchor="start" x="186.5" y="-187.5" font-family="Helvetica,sans-Serif" font-size="10.00">+ _type_child_slots</text>
<polyline fill="none" stroke="black" points="178.5,-180.5 340.5,-180.5 "/>
<text text-anchor="start" x="186.5" y="-168.5" font-family="Helvetica,sans-Serif" font-size="10.00">+ TVM_FFI_DECLARE_OBJECT</text>
<text text-anchor="start" x="186.5" y="-157.5" font-family="Helvetica,sans-Serif" font-size="10.00">_INFO()</text>
<text text-anchor="start" x="186.5" y="-146.5" font-family="Helvetica,sans-Serif" font-size="10.00">+ RegisterReflection()</text>
</a>
</g>
</g>
<!-- Node2&#45;&gt;Node1 -->
<g id="edge1" class="edge">
<title>Node2&#45;&gt;Node1</title>
<path fill="none" stroke="midnightblue" d="M280.17,-129.76C284.12,-120.55 288.26,-110.89 292.23,-101.63"/>
<polygon fill="none" stroke="midnightblue" points="276.86,-128.6 276.14,-139.17 283.3,-131.36 276.86,-128.6"/>
</g>
<!-- Node3 -->
<g id="node3" class="node">
<title>Node3</title>
<g id="a_node3"><a xlink:href="classtvm_1_1BaseExprNode.html" target="_top" xlink:title="Base type of all the expressions.">
<polygon fill="white" stroke="black" points="20.5,-371 20.5,-461 182.5,-461 182.5,-371 20.5,-371"/>
<text text-anchor="middle" x="101.5" y="-449" font-family="Helvetica,sans-Serif" font-size="10.00">tvm::BaseExprNode</text>
<polyline fill="none" stroke="black" points="20.5,-442 182.5,-442 "/>
<text text-anchor="start" x="28.5" y="-430" font-family="Helvetica,sans-Serif" font-size="10.00">+ _type_s_eq_hash_kind</text>
<text text-anchor="start" x="28.5" y="-419" font-family="Helvetica,sans-Serif" font-size="10.00">+ _type_child_slots</text>
<polyline fill="none" stroke="black" points="20.5,-412 182.5,-412 "/>
<text text-anchor="start" x="28.5" y="-400" font-family="Helvetica,sans-Serif" font-size="10.00">+ TVM_FFI_DECLARE_OBJECT</text>
<text text-anchor="start" x="28.5" y="-389" font-family="Helvetica,sans-Serif" font-size="10.00">_INFO()</text>
<text text-anchor="start" x="28.5" y="-378" font-family="Helvetica,sans-Serif" font-size="10.00">+ RegisterReflection()</text>
</a>
</g>
</g>
<!-- Node3&#45;&gt;Node2 -->
<g id="edge2" class="edge">
<title>Node3&#45;&gt;Node2</title>
<path fill="none" stroke="midnightblue" d="M131.33,-362C148.15,-333.07 170.04,-296.95 191.5,-266 202.56,-250.04 215.6,-233.15 227.29,-218.6"/>
<polygon fill="none" stroke="midnightblue" points="128.26,-360.32 126.28,-370.73 134.32,-363.83 128.26,-360.32"/>
</g>
<!-- Node4 -->
<g id="node4" class="node">
<title>Node4</title>
<g id="a_node4"><a xlink:title=" ">
<polygon fill="white" stroke="#bfbfbf" points="177.5,-630 177.5,-687 241.5,-687 241.5,-630 177.5,-630"/>
<text text-anchor="middle" x="209.5" y="-675" font-family="Helvetica,sans-Serif" font-size="10.00">ffi::Object</text>
<polyline fill="none" stroke="#bfbfbf" points="177.5,-668 241.5,-668 "/>
<text text-anchor="middle" x="209.5" y="-656" font-family="Helvetica,sans-Serif" font-size="10.00"> </text>
<polyline fill="none" stroke="#bfbfbf" points="177.5,-649 241.5,-649 "/>
<text text-anchor="middle" x="209.5" y="-637" font-family="Helvetica,sans-Serif" font-size="10.00"> </text>
</a>
</g>
</g>
<!-- Node4&#45;&gt;Node3 -->
<g id="edge3" class="edge">
<title>Node4&#45;&gt;Node3</title>
<path fill="none" stroke="midnightblue" d="M192.97,-620.7C173.74,-577.87 142,-507.19 121.42,-461.37"/>
<polygon fill="none" stroke="midnightblue" points="189.82,-622.22 197.11,-629.91 196.21,-619.36 189.82,-622.22"/>
</g>
<!-- Node5 -->
<g id="node5" class="node">
<title>Node5</title>
<g id="a_node5"><a xlink:href="classtvm_1_1Span.html" target="_top" xlink:title=" ">
<polygon fill="white" stroke="black" points="0,-613.5 0,-703.5 159,-703.5 159,-613.5 0,-613.5"/>
<text text-anchor="middle" x="79.5" y="-691.5" font-family="Helvetica,sans-Serif" font-size="10.00">tvm::Span</text>
<polyline fill="none" stroke="black" points="0,-684.5 159,-684.5 "/>
<text text-anchor="middle" x="79.5" y="-672.5" font-family="Helvetica,sans-Serif" font-size="10.00"> </text>
<polyline fill="none" stroke="black" points="0,-665.5 159,-665.5 "/>
<text text-anchor="start" x="8" y="-653.5" font-family="Helvetica,sans-Serif" font-size="10.00">+ Span()</text>
<text text-anchor="start" x="8" y="-642.5" font-family="Helvetica,sans-Serif" font-size="10.00">+ Merge()</text>
<text text-anchor="start" x="8" y="-631.5" font-family="Helvetica,sans-Serif" font-size="10.00">+ TVM_FFI_DEFINE_OBJECT</text>
<text text-anchor="start" x="8" y="-620.5" font-family="Helvetica,sans-Serif" font-size="10.00">_REF_METHODS_NULLABLE()</text>
</a>
</g>
</g>
<!-- Node5&#45;&gt;Node3 -->
<g id="edge4" class="edge">
<title>Node5&#45;&gt;Node3</title>
<path fill="none" stroke="#404040" d="M83.54,-613.39C87.14,-574.02 92.43,-516.15 96.34,-473.42"/>
<polygon fill="none" stroke="#404040" points="96.36,-473.19 92.92,-466.85 97.45,-461.24 100.89,-467.58 96.36,-473.19"/>
<text text-anchor="middle" x="104" y="-587" font-family="Helvetica,sans-Serif" font-size="10.00"> +span</text>
</g>
<!-- Node6 -->
<g id="node6" class="node">
<title>Node6</title>
<g id="a_node6"><a xlink:title=" ">
<polygon fill="white" stroke="#bfbfbf" points="168.5,-741.5 168.5,-798.5 248.5,-798.5 248.5,-741.5 168.5,-741.5"/>
<text text-anchor="middle" x="208.5" y="-786.5" font-family="Helvetica,sans-Serif" font-size="10.00">ffi::ObjectRef</text>
<polyline fill="none" stroke="#bfbfbf" points="168.5,-779.5 248.5,-779.5 "/>
<text text-anchor="middle" x="208.5" y="-767.5" font-family="Helvetica,sans-Serif" font-size="10.00"> </text>
<polyline fill="none" stroke="#bfbfbf" points="168.5,-760.5 248.5,-760.5 "/>
<text text-anchor="middle" x="208.5" y="-748.5" font-family="Helvetica,sans-Serif" font-size="10.00"> </text>
</a>
</g>
</g>
<!-- Node6&#45;&gt;Node5 -->
<g id="edge5" class="edge">
<title>Node6&#45;&gt;Node5</title>
<path fill="none" stroke="midnightblue" d="M168.15,-734.75C156.58,-724.93 143.79,-714.08 131.62,-703.74"/>
<polygon fill="none" stroke="midnightblue" points="166.06,-737.57 175.95,-741.37 170.59,-732.23 166.06,-737.57"/>
</g>
<!-- Node7 -->
<g id="node7" class="node">
<title>Node7</title>
<g id="a_node7"><a xlink:href="classtvm_1_1Type.html" target="_top" xlink:title="Managed reference to TypeNode.">
<polygon fill="white" stroke="black" points="260,-624.5 260,-692.5 419,-692.5 419,-624.5 260,-624.5"/>
<text text-anchor="middle" x="339.5" y="-680.5" font-family="Helvetica,sans-Serif" font-size="10.00">tvm::Type</text>
<polyline fill="none" stroke="black" points="260,-673.5 419,-673.5 "/>
<text text-anchor="middle" x="339.5" y="-661.5" font-family="Helvetica,sans-Serif" font-size="10.00"> </text>
<polyline fill="none" stroke="black" points="260,-654.5 419,-654.5 "/>
<text text-anchor="start" x="268" y="-642.5" font-family="Helvetica,sans-Serif" font-size="10.00">+ TVM_FFI_DEFINE_OBJECT</text>
<text text-anchor="start" x="268" y="-631.5" font-family="Helvetica,sans-Serif" font-size="10.00">_REF_METHODS_NULLABLE()</text>
</a>
</g>
</g>
<!-- Node6&#45;&gt;Node7 -->
<g id="edge7" class="edge">
<title>Node6&#45;&gt;Node7</title>
<path fill="none" stroke="midnightblue" d="M249.27,-734.92C265.41,-721.43 283.9,-705.98 299.92,-692.59"/>
<polygon fill="none" stroke="midnightblue" points="246.98,-732.27 241.56,-741.37 251.47,-737.64 246.98,-732.27"/>
</g>
<!-- Node7&#45;&gt;Node1 -->
<g id="edge9" class="edge">
<title>Node7&#45;&gt;Node1</title>
<path fill="none" stroke="#404040" d="M345,-624.31C357.69,-541.44 385.3,-319.15 349.5,-139 347.79,-130.4 345.22,-121.59 342.22,-113.03"/>
<polygon fill="none" stroke="#404040" points="342.13,-112.79 336.27,-108.58 337.91,-101.55 343.76,-105.76 342.13,-112.79"/>
<text text-anchor="middle" x="409" y="-240" font-family="Helvetica,sans-Serif" font-size="10.00"> +type_annotation</text>
</g>
<!-- Node7&#45;&gt;Node3 -->
<g id="edge6" class="edge">
<title>Node7&#45;&gt;Node3</title>
<path fill="none" stroke="#404040" d="M271.31,-624.37C244.38,-609.1 214.45,-589.19 191.5,-566 164.61,-538.83 142.33,-502.15 126.66,-471.97"/>
<polygon fill="none" stroke="#404040" points="126.61,-471.88 120.33,-468.34 121.19,-461.18 127.47,-464.72 126.61,-471.88"/>
<text text-anchor="middle" x="235.5" y="-587" font-family="Helvetica,sans-Serif" font-size="10.00"> +ty</text>
</g>
<!-- Node8 -->
<g id="node8" class="node">
<title>Node8</title>
<g id="a_node8"><a xlink:href="classtvm_1_1runtime_1_1DataType.html" target="_top" xlink:title="Runtime primitive data type.">
<polygon fill="white" stroke="black" points="200.5,-266.5 200.5,-565.5 340.5,-565.5 340.5,-266.5 200.5,-266.5"/>
<text text-anchor="middle" x="270.5" y="-553.5" font-family="Helvetica,sans-Serif" font-size="10.00">tvm::runtime::DataType</text>
<polyline fill="none" stroke="black" points="200.5,-546.5 340.5,-546.5 "/>
<text text-anchor="middle" x="270.5" y="-534.5" font-family="Helvetica,sans-Serif" font-size="10.00"> </text>
<polyline fill="none" stroke="black" points="200.5,-527.5 340.5,-527.5 "/>
<text text-anchor="start" x="208.5" y="-515.5" font-family="Helvetica,sans-Serif" font-size="10.00">+ DataType()</text>
<text text-anchor="start" x="208.5" y="-504.5" font-family="Helvetica,sans-Serif" font-size="10.00">+ DataType()</text>
<text text-anchor="start" x="208.5" y="-493.5" font-family="Helvetica,sans-Serif" font-size="10.00">+ DataType()</text>
<text text-anchor="start" x="208.5" y="-482.5" font-family="Helvetica,sans-Serif" font-size="10.00">+ code()</text>
<text text-anchor="start" x="208.5" y="-471.5" font-family="Helvetica,sans-Serif" font-size="10.00">+ bits()</text>
<text text-anchor="start" x="208.5" y="-460.5" font-family="Helvetica,sans-Serif" font-size="10.00">+ bytes()</text>
<text text-anchor="start" x="208.5" y="-449.5" font-family="Helvetica,sans-Serif" font-size="10.00">+ lanes()</text>
<text text-anchor="start" x="208.5" y="-438.5" font-family="Helvetica,sans-Serif" font-size="10.00">+ vscale_factor()</text>
<text text-anchor="start" x="208.5" y="-427.5" font-family="Helvetica,sans-Serif" font-size="10.00">+ get_lanes_or_vscale</text>
<text text-anchor="start" x="208.5" y="-416.5" font-family="Helvetica,sans-Serif" font-size="10.00">_factor()</text>
<text text-anchor="start" x="208.5" y="-405.5" font-family="Helvetica,sans-Serif" font-size="10.00">+ is_scalar()</text>
<text text-anchor="start" x="208.5" y="-394.5" font-family="Helvetica,sans-Serif" font-size="10.00">and 37 more...</text>
<text text-anchor="start" x="208.5" y="-383.5" font-family="Helvetica,sans-Serif" font-size="10.00">+ Int()</text>
<text text-anchor="start" x="208.5" y="-372.5" font-family="Helvetica,sans-Serif" font-size="10.00">+ UInt()</text>
<text text-anchor="start" x="208.5" y="-361.5" font-family="Helvetica,sans-Serif" font-size="10.00">+ Float()</text>
<text text-anchor="start" x="208.5" y="-350.5" font-family="Helvetica,sans-Serif" font-size="10.00">+ BFloat()</text>
<text text-anchor="start" x="208.5" y="-339.5" font-family="Helvetica,sans-Serif" font-size="10.00">+ Float8E3M4()</text>
<text text-anchor="start" x="208.5" y="-328.5" font-family="Helvetica,sans-Serif" font-size="10.00">+ Float8E4M3()</text>
<text text-anchor="start" x="208.5" y="-317.5" font-family="Helvetica,sans-Serif" font-size="10.00">+ Float8E4M3B11FNUZ()</text>
<text text-anchor="start" x="208.5" y="-306.5" font-family="Helvetica,sans-Serif" font-size="10.00">+ Float8E4M3FN()</text>
<text text-anchor="start" x="208.5" y="-295.5" font-family="Helvetica,sans-Serif" font-size="10.00">+ Float8E4M3FNUZ()</text>
<text text-anchor="start" x="208.5" y="-284.5" font-family="Helvetica,sans-Serif" font-size="10.00">+ Float8E5M2()</text>
<text text-anchor="start" x="208.5" y="-273.5" font-family="Helvetica,sans-Serif" font-size="10.00">and 9 more...</text>
</a>
</g>
</g>
<!-- Node8&#45;&gt;Node2 -->
<g id="edge8" class="edge">
<title>Node8&#45;&gt;Node2</title>
<path fill="none" stroke="#404040" d="M263.53,-266.17C262.95,-253.73 262.39,-241.8 261.89,-230.98"/>
<polygon fill="none" stroke="#404040" points="261.88,-230.83 257.6,-225.02 261.32,-218.84 265.59,-224.65 261.88,-230.83"/>
<text text-anchor="middle" x="281.5" y="-240" font-family="Helvetica,sans-Serif" font-size="10.00"> +dtype</text>
</g>
</g>
</svg>
