<?xml version="1.0" encoding="UTF-8" standalone="no"?>
<!DOCTYPE svg PUBLIC "-//W3C//DTD SVG 1.1//EN"
 "http://www.w3.org/Graphics/SVG/1.1/DTD/svg11.dtd">
<!-- Generated by graphviz version 2.43.0 (0)
 -->
<!-- Title: tvm::relax::FuncTypeNode Pages: 1 -->
<svg width="170pt" height="364pt"
 viewBox="0.00 0.00 170.00 364.00" xmlns="http://www.w3.org/2000/svg" xmlns:xlink="http://www.w3.org/1999/xlink">
<g id="graph0" class="graph" transform="scale(1 1) rotate(0) translate(4 360)">
<title>tvm::relax::FuncTypeNode</title>
<polygon fill="white" stroke="transparent" points="-4,4 -4,-360 166,-360 166,4 -4,4"/>
<!-- Node1 -->
<g id="node1" class="node">
<title>Node1</title>
<g id="a_node1"><a xlink:title="Function type information.">
<polygon fill="#bfbfbf" stroke="black" points="0,-0.5 0,-123.5 162,-123.5 162,-0.5 0,-0.5"/>
<text text-anchor="middle" x="81" y="-111.5" font-family="Helvetica,sans-Serif" font-size="10.00">tvm::relax::FuncTypeNode</text>
<polyline fill="none" stroke="black" points="0,-104.5 162,-104.5 "/>
<text text-anchor="start" x="8" y="-92.5" font-family="Helvetica,sans-Serif" font-size="10.00">+ params</text>
<text text-anchor="start" x="8" y="-81.5" font-family="Helvetica,sans-Serif" font-size="10.00">+ ret</text>
<text text-anchor="start" x="8" y="-70.5" font-family="Helvetica,sans-Serif" font-size="10.00">+ derive_func</text>
<text text-anchor="start" x="8" y="-59.5" font-family="Helvetica,sans-Serif" font-size="10.00">+ purity</text>
<polyline fill="none" stroke="black" points="0,-52.5 162,-52.5 "/>
<text text-anchor="start" x="8" y="-40.5" font-family="Helvetica,sans-Serif" font-size="10.00">+ IsOpaque()</text>
<text text-anchor="start" x="8" y="-29.5" font-family="Helvetica,sans-Serif" font-size="10.00">+ TVM_FFI_DECLARE_OBJECT</text>
<text text-anchor="start" x="8" y="-18.5" font-family="Helvetica,sans-Serif" font-size="10.00">_INFO_FINAL()</text>
<text text-anchor="start" x="8" y="-7.5" font-family="Helvetica,sans-Serif" font-size="10.00">+ RegisterReflection()</text>
</a>
</g>
</g>
<!-- Node2 -->
<g id="node2" class="node">
<title>Node2</title>
<g id="a_node2"><a xlink:href="classtvm_1_1TypeNode.html" target="_top" xlink:title="Type is the base type of all types.">
<polygon fill="white" stroke="black" points="0,-160.5 0,-261.5 162,-261.5 162,-160.5 0,-160.5"/>
<text text-anchor="middle" x="81" y="-249.5" font-family="Helvetica,sans-Serif" font-size="10.00">tvm::TypeNode</text>
<polyline fill="none" stroke="black" points="0,-242.5 162,-242.5 "/>
<text text-anchor="start" x="8" y="-230.5" font-family="Helvetica,sans-Serif" font-size="10.00">+ span</text>
<text text-anchor="start" x="8" y="-219.5" font-family="Helvetica,sans-Serif" font-size="10.00">+ _type_s_eq_hash_kind</text>
<text text-anchor="start" x="8" y="-208.5" font-family="Helvetica,sans-Serif" font-size="10.00">+ _type_child_slots</text>
<polyline fill="none" stroke="black" points="0,-201.5 162,-201.5 "/>
<text text-anchor="start" x="8" y="-189.5" font-family="Helvetica,sans-Serif" font-size="10.00">+ TVM_FFI_DECLARE_OBJECT</text>
<text text-anchor="start" x="8" y="-178.5" font-family="Helvetica,sans-Serif" font-size="10.00">_INFO()</text>
<text text-anchor="start" x="8" y="-167.5" font-family="Helvetica,sans-Serif" font-size="10.00">+ RegisterReflection()</text>
</a>
</g>
</g>
<!-- Node2&#45;&gt;Node1 -->
<g id="edge1" class="edge">
<title>Node2&#45;&gt;Node1</title>
<path fill="none" stroke="midnightblue" d="M81,-150.14C81,-141.41 81,-132.42 81,-123.67"/>
<polygon fill="none" stroke="midnightblue" points="77.5,-150.23 81,-160.23 84.5,-150.23 77.5,-150.23"/>
</g>
<!-- Node3 -->
<g id="node3" class="node">
<title>Node3</title>
<g id="a_node3"><a xlink:title=" ">
<polygon fill="white" stroke="#bfbfbf" points="49,-298.5 49,-355.5 113,-355.5 113,-298.5 49,-298.5"/>
<text text-anchor="middle" x="81" y="-343.5" font-family="Helvetica,sans-Serif" font-size="10.00">ffi::Object</text>
<polyline fill="none" stroke="#bfbfbf" points="49,-336.5 113,-336.5 "/>
<text text-anchor="middle" x="81" y="-324.5" font-family="Helvetica,sans-Serif" font-size="10.00"> </text>
<polyline fill="none" stroke="#bfbfbf" points="49,-317.5 113,-317.5 "/>
<text text-anchor="middle" x="81" y="-305.5" font-family="Helvetica,sans-Serif" font-size="10.00"> </text>
</a>
</g>
</g>
<!-- Node3&#45;&gt;Node2 -->
<g id="edge2" class="edge">
<title>Node3&#45;&gt;Node2</title>
<path fill="none" stroke="midnightblue" d="M81,-288.35C81,-279.8 81,-270.58 81,-261.61"/>
<polygon fill="none" stroke="midnightblue" points="77.5,-288.4 81,-298.4 84.5,-288.4 77.5,-288.4"/>
</g>
</g>
</svg>
