<?xml version="1.0" encoding="UTF-8" standalone="no"?>
<!DOCTYPE svg PUBLIC "-//W3C//DTD SVG 1.1//EN"
 "http://www.w3.org/Graphics/SVG/1.1/DTD/svg11.dtd">
<!-- Generated by graphviz version 2.43.0 (0)
 -->
<!-- Title: tvm::RelaxExpr Pages: 1 -->
<svg width="1782pt" height="723pt"
 viewBox="0.00 0.00 1782.00 723.00" xmlns="http://www.w3.org/2000/svg" xmlns:xlink="http://www.w3.org/1999/xlink">
<g id="graph0" class="graph" transform="scale(1 1) rotate(0) translate(4 719)">
<title>tvm::RelaxExpr</title>
<polygon fill="white" stroke="transparent" points="-4,4 -4,-719 1778,-719 1778,4 -4,4"/>
<!-- Node1 -->
<g id="node1" class="node">
<title>Node1</title>
<g id="a_node1"><a xlink:title="Managed reference to RelaxExprNode.">
<polygon fill="#bfbfbf" stroke="black" points="907,-447.5 907,-515.5 1066,-515.5 1066,-447.5 907,-447.5"/>
<text text-anchor="middle" x="986.5" y="-503.5" font-family="Helvetica,sans-Serif" font-size="10.00">tvm::RelaxExpr</text>
<polyline fill="none" stroke="black" points="907,-496.5 1066,-496.5 "/>
<text text-anchor="middle" x="986.5" y="-484.5" font-family="Helvetica,sans-Serif" font-size="10.00"> </text>
<polyline fill="none" stroke="black" points="907,-477.5 1066,-477.5 "/>
<text text-anchor="start" x="915" y="-465.5" font-family="Helvetica,sans-Serif" font-size="10.00">+ TVM_FFI_DEFINE_OBJECT</text>
<text text-anchor="start" x="915" y="-454.5" font-family="Helvetica,sans-Serif" font-size="10.00">_REF_METHODS_NULLABLE()</text>
</a>
</g>
</g>
<!-- Node4 -->
<g id="node4" class="node">
<title>Node4</title>
<g id="a_node4"><a xlink:href="classtvm_1_1BaseFunc.html" target="_top" xlink:title="Managed reference to BaseFuncNode.">
<polygon fill="white" stroke="black" points="177,-320.5 177,-388.5 336,-388.5 336,-320.5 177,-320.5"/>
<text text-anchor="middle" x="256.5" y="-376.5" font-family="Helvetica,sans-Serif" font-size="10.00">tvm::BaseFunc</text>
<polyline fill="none" stroke="black" points="177,-369.5 336,-369.5 "/>
<text text-anchor="middle" x="256.5" y="-357.5" font-family="Helvetica,sans-Serif" font-size="10.00"> </text>
<polyline fill="none" stroke="black" points="177,-350.5 336,-350.5 "/>
<text text-anchor="start" x="185" y="-338.5" font-family="Helvetica,sans-Serif" font-size="10.00">+ TVM_FFI_DEFINE_OBJECT</text>
<text text-anchor="start" x="185" y="-327.5" font-family="Helvetica,sans-Serif" font-size="10.00">_REF_METHODS_NULLABLE()</text>
</a>
</g>
</g>
<!-- Node1&#45;&gt;Node4 -->
<g id="edge3" class="edge">
<title>Node1&#45;&gt;Node4</title>
<path fill="none" stroke="midnightblue" d="M896.76,-475.79C744.94,-467 444.24,-445.75 344.5,-411 329.32,-405.71 314.06,-397.39 300.61,-388.79"/>
<polygon fill="none" stroke="midnightblue" points="896.8,-479.3 906.98,-476.38 897.2,-472.31 896.8,-479.3"/>
</g>
<!-- Node8 -->
<g id="node8" class="node">
<title>Node8</title>
<g id="a_node8"><a xlink:href="classtvm_1_1GlobalVar.html" target="_top" xlink:title="Managed reference to GlobalVarNode.">
<polygon fill="white" stroke="black" points="354,-304 354,-405 513,-405 513,-304 354,-304"/>
<text text-anchor="middle" x="433.5" y="-393" font-family="Helvetica,sans-Serif" font-size="10.00">tvm::GlobalVar</text>
<polyline fill="none" stroke="black" points="354,-386 513,-386 "/>
<text text-anchor="middle" x="433.5" y="-374" font-family="Helvetica,sans-Serif" font-size="10.00"> </text>
<polyline fill="none" stroke="black" points="354,-367 513,-367 "/>
<text text-anchor="start" x="362" y="-355" font-family="Helvetica,sans-Serif" font-size="10.00">+ GlobalVar()</text>
<text text-anchor="start" x="362" y="-344" font-family="Helvetica,sans-Serif" font-size="10.00">+ TVM_FFI_DEFINE_OBJECT</text>
<text text-anchor="start" x="362" y="-333" font-family="Helvetica,sans-Serif" font-size="10.00">_REF_METHODS_NULLABLE()</text>
<text text-anchor="start" x="362" y="-322" font-family="Helvetica,sans-Serif" font-size="10.00">+ TVM_DEFINE_OBJECT_REF</text>
<text text-anchor="start" x="362" y="-311" font-family="Helvetica,sans-Serif" font-size="10.00">_COW_METHOD()</text>
</a>
</g>
</g>
<!-- Node1&#45;&gt;Node8 -->
<g id="edge7" class="edge">
<title>Node1&#45;&gt;Node8</title>
<path fill="none" stroke="midnightblue" d="M896.71,-477.83C801.23,-472.55 647.12,-456.93 522.5,-411 517.8,-409.27 513.09,-407.27 508.41,-405.08"/>
<polygon fill="none" stroke="midnightblue" points="896.74,-481.34 906.91,-478.37 897.11,-474.35 896.74,-481.34"/>
</g>
<!-- Node9 -->
<g id="node9" class="node">
<title>Node9</title>
<g id="a_node9"><a xlink:href="classtvm_1_1Op.html" target="_top" xlink:title="Managed reference class to OpNode.">
<polygon fill="white" stroke="black" points="531.5,-298.5 531.5,-410.5 711.5,-410.5 711.5,-298.5 531.5,-298.5"/>
<text text-anchor="middle" x="621.5" y="-398.5" font-family="Helvetica,sans-Serif" font-size="10.00">tvm::Op</text>
<polyline fill="none" stroke="black" points="531.5,-391.5 711.5,-391.5 "/>
<text text-anchor="middle" x="621.5" y="-379.5" font-family="Helvetica,sans-Serif" font-size="10.00"> </text>
<polyline fill="none" stroke="black" points="531.5,-372.5 711.5,-372.5 "/>
<text text-anchor="start" x="539.5" y="-360.5" font-family="Helvetica,sans-Serif" font-size="10.00">+ Op()</text>
<text text-anchor="start" x="539.5" y="-349.5" font-family="Helvetica,sans-Serif" font-size="10.00">+ TVM_FFI_DEFINE_OBJECT</text>
<text text-anchor="start" x="539.5" y="-338.5" font-family="Helvetica,sans-Serif" font-size="10.00">_REF_METHODS_NOTNULLABLE()</text>
<text text-anchor="start" x="539.5" y="-327.5" font-family="Helvetica,sans-Serif" font-size="10.00">+ GetAttrMap()</text>
<text text-anchor="start" x="539.5" y="-316.5" font-family="Helvetica,sans-Serif" font-size="10.00">+ HasAttrMap()</text>
<text text-anchor="start" x="539.5" y="-305.5" font-family="Helvetica,sans-Serif" font-size="10.00">+ Get()</text>
</a>
</g>
</g>
<!-- Node1&#45;&gt;Node9 -->
<g id="edge8" class="edge">
<title>Node1&#45;&gt;Node9</title>
<path fill="none" stroke="midnightblue" d="M896.86,-463.08C844.4,-451.41 777.48,-433.97 720.5,-411 717.58,-409.82 714.63,-408.57 711.68,-407.27"/>
<polygon fill="none" stroke="midnightblue" points="896.3,-466.54 906.82,-465.26 897.8,-459.7 896.3,-466.54"/>
</g>
<!-- Node10 -->
<g id="node10" class="node">
<title>Node10</title>
<g id="a_node10"><a xlink:href="classtvm_1_1relax_1_1Call.html" target="_top" xlink:title=" ">
<polygon fill="white" stroke="black" points="730,-304 730,-405 889,-405 889,-304 730,-304"/>
<text text-anchor="middle" x="809.5" y="-393" font-family="Helvetica,sans-Serif" font-size="10.00">tvm::relax::Call</text>
<polyline fill="none" stroke="black" points="730,-386 889,-386 "/>
<text text-anchor="middle" x="809.5" y="-374" font-family="Helvetica,sans-Serif" font-size="10.00"> </text>
<polyline fill="none" stroke="black" points="730,-367 889,-367 "/>
<text text-anchor="start" x="738" y="-355" font-family="Helvetica,sans-Serif" font-size="10.00">+ Call()</text>
<text text-anchor="start" x="738" y="-344" font-family="Helvetica,sans-Serif" font-size="10.00">+ TVM_FFI_DEFINE_OBJECT</text>
<text text-anchor="start" x="738" y="-333" font-family="Helvetica,sans-Serif" font-size="10.00">_REF_METHODS_NULLABLE()</text>
<text text-anchor="start" x="738" y="-322" font-family="Helvetica,sans-Serif" font-size="10.00">+ TVM_DEFINE_OBJECT_REF</text>
<text text-anchor="start" x="738" y="-311" font-family="Helvetica,sans-Serif" font-size="10.00">_COW_METHOD()</text>
</a>
</g>
</g>
<!-- Node1&#45;&gt;Node10 -->
<g id="edge9" class="edge">
<title>Node1&#45;&gt;Node10</title>
<path fill="none" stroke="midnightblue" d="M931.18,-441.43C914.87,-429.92 896.81,-417.16 879.7,-405.08"/>
<polygon fill="none" stroke="midnightblue" points="929.34,-444.42 939.53,-447.33 933.38,-438.7 929.34,-444.42"/>
</g>
<!-- Node11 -->
<g id="node11" class="node">
<title>Node11</title>
<g id="a_node11"><a xlink:href="classtvm_1_1relax_1_1If.html" target="_top" xlink:title=" ">
<polygon fill="white" stroke="black" points="907,-304 907,-405 1066,-405 1066,-304 907,-304"/>
<text text-anchor="middle" x="986.5" y="-393" font-family="Helvetica,sans-Serif" font-size="10.00">tvm::relax::If</text>
<polyline fill="none" stroke="black" points="907,-386 1066,-386 "/>
<text text-anchor="middle" x="986.5" y="-374" font-family="Helvetica,sans-Serif" font-size="10.00"> </text>
<polyline fill="none" stroke="black" points="907,-367 1066,-367 "/>
<text text-anchor="start" x="915" y="-355" font-family="Helvetica,sans-Serif" font-size="10.00">+ If()</text>
<text text-anchor="start" x="915" y="-344" font-family="Helvetica,sans-Serif" font-size="10.00">+ TVM_FFI_DEFINE_OBJECT</text>
<text text-anchor="start" x="915" y="-333" font-family="Helvetica,sans-Serif" font-size="10.00">_REF_METHODS_NULLABLE()</text>
<text text-anchor="start" x="915" y="-322" font-family="Helvetica,sans-Serif" font-size="10.00">+ TVM_DEFINE_OBJECT_REF</text>
<text text-anchor="start" x="915" y="-311" font-family="Helvetica,sans-Serif" font-size="10.00">_COW_METHOD()</text>
</a>
</g>
</g>
<!-- Node1&#45;&gt;Node11 -->
<g id="edge10" class="edge">
<title>Node1&#45;&gt;Node11</title>
<path fill="none" stroke="midnightblue" d="M986.5,-437.32C986.5,-427 986.5,-415.9 986.5,-405.31"/>
<polygon fill="none" stroke="midnightblue" points="983,-437.33 986.5,-447.33 990,-437.33 983,-437.33"/>
</g>
<!-- Node12 -->
<g id="node12" class="node">
<title>Node12</title>
<g id="a_node12"><a xlink:href="classtvm_1_1relax_1_1LeafExpr.html" target="_top" xlink:title="Managed reference to BaseExprNode.">
<polygon fill="white" stroke="black" points="1084,-320.5 1084,-388.5 1243,-388.5 1243,-320.5 1084,-320.5"/>
<text text-anchor="middle" x="1163.5" y="-376.5" font-family="Helvetica,sans-Serif" font-size="10.00">tvm::relax::LeafExpr</text>
<polyline fill="none" stroke="black" points="1084,-369.5 1243,-369.5 "/>
<text text-anchor="middle" x="1163.5" y="-357.5" font-family="Helvetica,sans-Serif" font-size="10.00"> </text>
<polyline fill="none" stroke="black" points="1084,-350.5 1243,-350.5 "/>
<text text-anchor="start" x="1092" y="-338.5" font-family="Helvetica,sans-Serif" font-size="10.00">+ TVM_FFI_DEFINE_OBJECT</text>
<text text-anchor="start" x="1092" y="-327.5" font-family="Helvetica,sans-Serif" font-size="10.00">_REF_METHODS_NULLABLE()</text>
</a>
</g>
</g>
<!-- Node1&#45;&gt;Node12 -->
<g id="edge11" class="edge">
<title>Node1&#45;&gt;Node12</title>
<path fill="none" stroke="midnightblue" d="M1041.79,-441.45C1065.8,-424.49 1093.64,-404.84 1116.62,-388.61"/>
<polygon fill="none" stroke="midnightblue" points="1039.62,-438.7 1033.47,-447.33 1043.66,-444.42 1039.62,-438.7"/>
</g>
<!-- Node20 -->
<g id="node20" class="node">
<title>Node20</title>
<g id="a_node20"><a xlink:href="classtvm_1_1relax_1_1SeqExpr.html" target="_top" xlink:title=" ">
<polygon fill="white" stroke="black" points="1261,-298.5 1261,-410.5 1420,-410.5 1420,-298.5 1261,-298.5"/>
<text text-anchor="middle" x="1340.5" y="-398.5" font-family="Helvetica,sans-Serif" font-size="10.00">tvm::relax::SeqExpr</text>
<polyline fill="none" stroke="black" points="1261,-391.5 1420,-391.5 "/>
<text text-anchor="middle" x="1340.5" y="-379.5" font-family="Helvetica,sans-Serif" font-size="10.00"> </text>
<polyline fill="none" stroke="black" points="1261,-372.5 1420,-372.5 "/>
<text text-anchor="start" x="1269" y="-360.5" font-family="Helvetica,sans-Serif" font-size="10.00">+ SeqExpr()</text>
<text text-anchor="start" x="1269" y="-349.5" font-family="Helvetica,sans-Serif" font-size="10.00">+ SeqExpr()</text>
<text text-anchor="start" x="1269" y="-338.5" font-family="Helvetica,sans-Serif" font-size="10.00">+ TVM_FFI_DEFINE_OBJECT</text>
<text text-anchor="start" x="1269" y="-327.5" font-family="Helvetica,sans-Serif" font-size="10.00">_REF_METHODS_NULLABLE()</text>
<text text-anchor="start" x="1269" y="-316.5" font-family="Helvetica,sans-Serif" font-size="10.00">+ TVM_DEFINE_OBJECT_REF</text>
<text text-anchor="start" x="1269" y="-305.5" font-family="Helvetica,sans-Serif" font-size="10.00">_COW_METHOD()</text>
</a>
</g>
</g>
<!-- Node1&#45;&gt;Node20 -->
<g id="edge19" class="edge">
<title>Node1&#45;&gt;Node20</title>
<path fill="none" stroke="midnightblue" d="M1076.21,-464.01C1128.61,-452.67 1195.29,-435.23 1251.5,-411 1254.59,-409.67 1257.7,-408.24 1260.81,-406.73"/>
<polygon fill="none" stroke="midnightblue" points="1075.31,-460.63 1066.26,-466.13 1076.77,-467.47 1075.31,-460.63"/>
</g>
<!-- Node21 -->
<g id="node21" class="node">
<title>Node21</title>
<g id="a_node21"><a xlink:href="classtvm_1_1relax_1_1Tuple.html" target="_top" xlink:title=" ">
<polygon fill="white" stroke="black" points="1438,-298.5 1438,-410.5 1597,-410.5 1597,-298.5 1438,-298.5"/>
<text text-anchor="middle" x="1517.5" y="-398.5" font-family="Helvetica,sans-Serif" font-size="10.00">tvm::relax::Tuple</text>
<polyline fill="none" stroke="black" points="1438,-391.5 1597,-391.5 "/>
<text text-anchor="middle" x="1517.5" y="-379.5" font-family="Helvetica,sans-Serif" font-size="10.00"> </text>
<polyline fill="none" stroke="black" points="1438,-372.5 1597,-372.5 "/>
<text text-anchor="start" x="1446" y="-360.5" font-family="Helvetica,sans-Serif" font-size="10.00">+ Tuple()</text>
<text text-anchor="start" x="1446" y="-349.5" font-family="Helvetica,sans-Serif" font-size="10.00">+ Tuple()</text>
<text text-anchor="start" x="1446" y="-338.5" font-family="Helvetica,sans-Serif" font-size="10.00">+ TVM_FFI_DEFINE_OBJECT</text>
<text text-anchor="start" x="1446" y="-327.5" font-family="Helvetica,sans-Serif" font-size="10.00">_REF_METHODS_NULLABLE()</text>
<text text-anchor="start" x="1446" y="-316.5" font-family="Helvetica,sans-Serif" font-size="10.00">+ TVM_DEFINE_OBJECT_REF</text>
<text text-anchor="start" x="1446" y="-305.5" font-family="Helvetica,sans-Serif" font-size="10.00">_COW_METHOD()</text>
</a>
</g>
</g>
<!-- Node1&#45;&gt;Node21 -->
<g id="edge20" class="edge">
<title>Node1&#45;&gt;Node21</title>
<path fill="none" stroke="midnightblue" d="M1076.39,-476.88C1167.63,-470.8 1311.69,-454.54 1428.5,-411 1431.66,-409.82 1434.82,-408.53 1437.98,-407.13"/>
<polygon fill="none" stroke="midnightblue" points="1076.12,-473.39 1066.36,-477.52 1076.56,-480.37 1076.12,-473.39"/>
</g>
<!-- Node22 -->
<g id="node22" class="node">
<title>Node22</title>
<g id="a_node22"><a xlink:href="classtvm_1_1relax_1_1TupleGetItem.html" target="_top" xlink:title=" ">
<polygon fill="white" stroke="black" points="1615,-304 1615,-405 1774,-405 1774,-304 1615,-304"/>
<text text-anchor="middle" x="1694.5" y="-393" font-family="Helvetica,sans-Serif" font-size="10.00">tvm::relax::TupleGetItem</text>
<polyline fill="none" stroke="black" points="1615,-386 1774,-386 "/>
<text text-anchor="middle" x="1694.5" y="-374" font-family="Helvetica,sans-Serif" font-size="10.00"> </text>
<polyline fill="none" stroke="black" points="1615,-367 1774,-367 "/>
<text text-anchor="start" x="1623" y="-355" font-family="Helvetica,sans-Serif" font-size="10.00">+ TupleGetItem()</text>
<text text-anchor="start" x="1623" y="-344" font-family="Helvetica,sans-Serif" font-size="10.00">+ TVM_FFI_DEFINE_OBJECT</text>
<text text-anchor="start" x="1623" y="-333" font-family="Helvetica,sans-Serif" font-size="10.00">_REF_METHODS_NULLABLE()</text>
<text text-anchor="start" x="1623" y="-322" font-family="Helvetica,sans-Serif" font-size="10.00">+ TVM_DEFINE_OBJECT_REF</text>
<text text-anchor="start" x="1623" y="-311" font-family="Helvetica,sans-Serif" font-size="10.00">_COW_METHOD()</text>
</a>
</g>
</g>
<!-- Node1&#45;&gt;Node22 -->
<g id="edge21" class="edge">
<title>Node1&#45;&gt;Node22</title>
<path fill="none" stroke="midnightblue" d="M1076.61,-475.3C1224.07,-465.96 1510.06,-444.19 1605.5,-411 1610.4,-409.3 1615.32,-407.28 1620.18,-405.05"/>
<polygon fill="none" stroke="midnightblue" points="1076,-471.83 1066.24,-475.95 1076.44,-478.81 1076,-471.83"/>
</g>
<!-- Node2 -->
<g id="node2" class="node">
<title>Node2</title>
<g id="a_node2"><a xlink:href="classtvm_1_1BaseExpr.html" target="_top" xlink:title="Managed reference to BaseExprNode.">
<polygon fill="white" stroke="black" points="907,-552.5 907,-620.5 1066,-620.5 1066,-552.5 907,-552.5"/>
<text text-anchor="middle" x="986.5" y="-608.5" font-family="Helvetica,sans-Serif" font-size="10.00">tvm::BaseExpr</text>
<polyline fill="none" stroke="black" points="907,-601.5 1066,-601.5 "/>
<text text-anchor="middle" x="986.5" y="-589.5" font-family="Helvetica,sans-Serif" font-size="10.00"> </text>
<polyline fill="none" stroke="black" points="907,-582.5 1066,-582.5 "/>
<text text-anchor="start" x="915" y="-570.5" font-family="Helvetica,sans-Serif" font-size="10.00">+ TVM_FFI_DEFINE_OBJECT</text>
<text text-anchor="start" x="915" y="-559.5" font-family="Helvetica,sans-Serif" font-size="10.00">_REF_METHODS_NULLABLE()</text>
</a>
</g>
</g>
<!-- Node2&#45;&gt;Node1 -->
<g id="edge1" class="edge">
<title>Node2&#45;&gt;Node1</title>
<path fill="none" stroke="midnightblue" d="M986.5,-542.14C986.5,-533.26 986.5,-524.04 986.5,-515.59"/>
<polygon fill="none" stroke="midnightblue" points="983,-542.34 986.5,-552.34 990,-542.34 983,-542.34"/>
</g>
<!-- Node3 -->
<g id="node3" class="node">
<title>Node3</title>
<g id="a_node3"><a xlink:title=" ">
<polygon fill="white" stroke="#bfbfbf" points="946.5,-657.5 946.5,-714.5 1026.5,-714.5 1026.5,-657.5 946.5,-657.5"/>
<text text-anchor="middle" x="986.5" y="-702.5" font-family="Helvetica,sans-Serif" font-size="10.00">ffi::ObjectRef</text>
<polyline fill="none" stroke="#bfbfbf" points="946.5,-695.5 1026.5,-695.5 "/>
<text text-anchor="middle" x="986.5" y="-683.5" font-family="Helvetica,sans-Serif" font-size="10.00"> </text>
<polyline fill="none" stroke="#bfbfbf" points="946.5,-676.5 1026.5,-676.5 "/>
<text text-anchor="middle" x="986.5" y="-664.5" font-family="Helvetica,sans-Serif" font-size="10.00"> </text>
</a>
</g>
</g>
<!-- Node3&#45;&gt;Node2 -->
<g id="edge2" class="edge">
<title>Node3&#45;&gt;Node2</title>
<path fill="none" stroke="midnightblue" d="M986.5,-647.06C986.5,-638.39 986.5,-629.24 986.5,-620.79"/>
<polygon fill="none" stroke="midnightblue" points="983,-647.32 986.5,-657.32 990,-647.32 983,-647.32"/>
</g>
<!-- Node5 -->
<g id="node5" class="node">
<title>Node5</title>
<g id="a_node5"><a xlink:href="classtvm_1_1relax_1_1ExternFunc.html" target="_top" xlink:title=" ">
<polygon fill="white" stroke="black" points="0,-149.5 0,-261.5 159,-261.5 159,-149.5 0,-149.5"/>
<text text-anchor="middle" x="79.5" y="-249.5" font-family="Helvetica,sans-Serif" font-size="10.00">tvm::relax::ExternFunc</text>
<polyline fill="none" stroke="black" points="0,-242.5 159,-242.5 "/>
<text text-anchor="middle" x="79.5" y="-230.5" font-family="Helvetica,sans-Serif" font-size="10.00"> </text>
<polyline fill="none" stroke="black" points="0,-223.5 159,-223.5 "/>
<text text-anchor="start" x="8" y="-211.5" font-family="Helvetica,sans-Serif" font-size="10.00">+ ExternFunc()</text>
<text text-anchor="start" x="8" y="-200.5" font-family="Helvetica,sans-Serif" font-size="10.00">+ ExternFunc()</text>
<text text-anchor="start" x="8" y="-189.5" font-family="Helvetica,sans-Serif" font-size="10.00">+ TVM_FFI_DEFINE_OBJECT</text>
<text text-anchor="start" x="8" y="-178.5" font-family="Helvetica,sans-Serif" font-size="10.00">_REF_METHODS_NULLABLE()</text>
<text text-anchor="start" x="8" y="-167.5" font-family="Helvetica,sans-Serif" font-size="10.00">+ TVM_DEFINE_OBJECT_REF</text>
<text text-anchor="start" x="8" y="-156.5" font-family="Helvetica,sans-Serif" font-size="10.00">_COW_METHOD()</text>
</a>
</g>
</g>
<!-- Node4&#45;&gt;Node5 -->
<g id="edge4" class="edge">
<title>Node4&#45;&gt;Node5</title>
<path fill="none" stroke="midnightblue" d="M208.56,-313.69C189.28,-297.67 166.71,-278.93 145.89,-261.64"/>
<polygon fill="none" stroke="midnightblue" points="206.41,-316.45 216.34,-320.14 210.88,-311.06 206.41,-316.45"/>
</g>
<!-- Node6 -->
<g id="node6" class="node">
<title>Node6</title>
<g id="a_node6"><a xlink:href="classtvm_1_1relax_1_1Function.html" target="_top" xlink:title=" ">
<polygon fill="white" stroke="black" points="177,-149.5 177,-261.5 336,-261.5 336,-149.5 177,-149.5"/>
<text text-anchor="middle" x="256.5" y="-249.5" font-family="Helvetica,sans-Serif" font-size="10.00">tvm::relax::Function</text>
<polyline fill="none" stroke="black" points="177,-242.5 336,-242.5 "/>
<text text-anchor="middle" x="256.5" y="-230.5" font-family="Helvetica,sans-Serif" font-size="10.00"> </text>
<polyline fill="none" stroke="black" points="177,-223.5 336,-223.5 "/>
<text text-anchor="start" x="185" y="-211.5" font-family="Helvetica,sans-Serif" font-size="10.00">+ Function()</text>
<text text-anchor="start" x="185" y="-200.5" font-family="Helvetica,sans-Serif" font-size="10.00">+ TVM_FFI_DEFINE_OBJECT</text>
<text text-anchor="start" x="185" y="-189.5" font-family="Helvetica,sans-Serif" font-size="10.00">_REF_METHODS_NULLABLE()</text>
<text text-anchor="start" x="185" y="-178.5" font-family="Helvetica,sans-Serif" font-size="10.00">+ TVM_DEFINE_OBJECT_REF</text>
<text text-anchor="start" x="185" y="-167.5" font-family="Helvetica,sans-Serif" font-size="10.00">_COW_METHOD()</text>
<text text-anchor="start" x="185" y="-156.5" font-family="Helvetica,sans-Serif" font-size="10.00">+ CreateEmpty()</text>
</a>
</g>
</g>
<!-- Node4&#45;&gt;Node6 -->
<g id="edge5" class="edge">
<title>Node4&#45;&gt;Node6</title>
<path fill="none" stroke="midnightblue" d="M256.5,-310.01C256.5,-294.85 256.5,-277.62 256.5,-261.64"/>
<polygon fill="none" stroke="midnightblue" points="253,-310.14 256.5,-320.14 260,-310.14 253,-310.14"/>
</g>
<!-- Node7 -->
<g id="node7" class="node">
<title>Node7</title>
<g id="a_node7"><a xlink:href="classtvm_1_1tirx_1_1PrimFunc.html" target="_top" xlink:title="Managed reference to PrimFuncNode.">
<polygon fill="white" stroke="black" points="354,-155 354,-256 513,-256 513,-155 354,-155"/>
<text text-anchor="middle" x="433.5" y="-244" font-family="Helvetica,sans-Serif" font-size="10.00">tvm::tirx::PrimFunc</text>
<polyline fill="none" stroke="black" points="354,-237 513,-237 "/>
<text text-anchor="middle" x="433.5" y="-225" font-family="Helvetica,sans-Serif" font-size="10.00"> </text>
<polyline fill="none" stroke="black" points="354,-218 513,-218 "/>
<text text-anchor="start" x="362" y="-206" font-family="Helvetica,sans-Serif" font-size="10.00">+ PrimFunc()</text>
<text text-anchor="start" x="362" y="-195" font-family="Helvetica,sans-Serif" font-size="10.00">+ TVM_FFI_DEFINE_OBJECT</text>
<text text-anchor="start" x="362" y="-184" font-family="Helvetica,sans-Serif" font-size="10.00">_REF_METHODS_NULLABLE()</text>
<text text-anchor="start" x="362" y="-173" font-family="Helvetica,sans-Serif" font-size="10.00">+ TVM_DEFINE_OBJECT_REF</text>
<text text-anchor="start" x="362" y="-162" font-family="Helvetica,sans-Serif" font-size="10.00">_COW_METHOD()</text>
</a>
</g>
</g>
<!-- Node4&#45;&gt;Node7 -->
<g id="edge6" class="edge">
<title>Node4&#45;&gt;Node7</title>
<path fill="none" stroke="midnightblue" d="M304.62,-313.54C325.91,-295.85 351.17,-274.87 373.67,-256.19"/>
<polygon fill="none" stroke="midnightblue" points="302.12,-311.06 296.66,-320.14 306.59,-316.45 302.12,-311.06"/>
</g>
<!-- Node13 -->
<g id="node13" class="node">
<title>Node13</title>
<g id="a_node13"><a xlink:href="classtvm_1_1relax_1_1Constant.html" target="_top" xlink:title=" ">
<polygon fill="white" stroke="black" points="641,-155 641,-256 800,-256 800,-155 641,-155"/>
<text text-anchor="middle" x="720.5" y="-244" font-family="Helvetica,sans-Serif" font-size="10.00">tvm::relax::Constant</text>
<polyline fill="none" stroke="black" points="641,-237 800,-237 "/>
<text text-anchor="middle" x="720.5" y="-225" font-family="Helvetica,sans-Serif" font-size="10.00"> </text>
<polyline fill="none" stroke="black" points="641,-218 800,-218 "/>
<text text-anchor="start" x="649" y="-206" font-family="Helvetica,sans-Serif" font-size="10.00">+ Constant()</text>
<text text-anchor="start" x="649" y="-195" font-family="Helvetica,sans-Serif" font-size="10.00">+ TVM_FFI_DEFINE_OBJECT</text>
<text text-anchor="start" x="649" y="-184" font-family="Helvetica,sans-Serif" font-size="10.00">_REF_METHODS_NULLABLE()</text>
<text text-anchor="start" x="649" y="-173" font-family="Helvetica,sans-Serif" font-size="10.00">+ TVM_DEFINE_OBJECT_REF</text>
<text text-anchor="start" x="649" y="-162" font-family="Helvetica,sans-Serif" font-size="10.00">_COW_METHOD()</text>
</a>
</g>
</g>
<!-- Node12&#45;&gt;Node13 -->
<g id="edge12" class="edge">
<title>Node12&#45;&gt;Node13</title>
<path fill="none" stroke="midnightblue" d="M1109.92,-315.09C1098.66,-308.47 1086.53,-302.34 1074.5,-298 962.27,-257.53 920.62,-302.75 808.5,-262 803.75,-260.27 798.98,-258.26 794.26,-256.04"/>
<polygon fill="none" stroke="midnightblue" points="1108.4,-318.26 1118.76,-320.48 1112.04,-312.28 1108.4,-318.26"/>
</g>
<!-- Node14 -->
<g id="node14" class="node">
<title>Node14</title>
<g id="a_node14"><a xlink:href="classtvm_1_1relax_1_1DataTypeImm.html" target="_top" xlink:title="Managed reference to DataTypeImm.">
<polygon fill="white" stroke="black" points="818,-155 818,-256 977,-256 977,-155 818,-155"/>
<text text-anchor="middle" x="897.5" y="-244" font-family="Helvetica,sans-Serif" font-size="10.00">tvm::relax::DataTypeImm</text>
<polyline fill="none" stroke="black" points="818,-237 977,-237 "/>
<text text-anchor="middle" x="897.5" y="-225" font-family="Helvetica,sans-Serif" font-size="10.00"> </text>
<polyline fill="none" stroke="black" points="818,-218 977,-218 "/>
<text text-anchor="start" x="826" y="-206" font-family="Helvetica,sans-Serif" font-size="10.00">+ DataTypeImm()</text>
<text text-anchor="start" x="826" y="-195" font-family="Helvetica,sans-Serif" font-size="10.00">+ TVM_FFI_DEFINE_OBJECT</text>
<text text-anchor="start" x="826" y="-184" font-family="Helvetica,sans-Serif" font-size="10.00">_REF_METHODS_NULLABLE()</text>
<text text-anchor="start" x="826" y="-173" font-family="Helvetica,sans-Serif" font-size="10.00">+ TVM_DEFINE_OBJECT_REF</text>
<text text-anchor="start" x="826" y="-162" font-family="Helvetica,sans-Serif" font-size="10.00">_COW_METHOD()</text>
</a>
</g>
</g>
<!-- Node12&#45;&gt;Node14 -->
<g id="edge13" class="edge">
<title>Node12&#45;&gt;Node14</title>
<path fill="none" stroke="midnightblue" d="M1104.9,-314.98C1094.93,-309 1084.54,-303.11 1074.5,-298 1036.48,-278.64 1023.47,-281.46 985.5,-262 981.8,-260.11 978.06,-258.1 974.31,-256.03"/>
<polygon fill="none" stroke="midnightblue" points="1103.19,-318.03 1113.55,-320.25 1106.83,-312.05 1103.19,-318.03"/>
</g>
<!-- Node15 -->
<g id="node15" class="node">
<title>Node15</title>
<g id="a_node15"><a xlink:href="classtvm_1_1relax_1_1PrimValue.html" target="_top" xlink:title="Managed reference to PrimValueNode.">
<polygon fill="white" stroke="black" points="995,-149.5 995,-261.5 1154,-261.5 1154,-149.5 995,-149.5"/>
<text text-anchor="middle" x="1074.5" y="-249.5" font-family="Helvetica,sans-Serif" font-size="10.00">tvm::relax::PrimValue</text>
<polyline fill="none" stroke="black" points="995,-242.5 1154,-242.5 "/>
<text text-anchor="middle" x="1074.5" y="-230.5" font-family="Helvetica,sans-Serif" font-size="10.00"> </text>
<polyline fill="none" stroke="black" points="995,-223.5 1154,-223.5 "/>
<text text-anchor="start" x="1003" y="-211.5" font-family="Helvetica,sans-Serif" font-size="10.00">+ PrimValue()</text>
<text text-anchor="start" x="1003" y="-200.5" font-family="Helvetica,sans-Serif" font-size="10.00">+ TVM_FFI_DEFINE_OBJECT</text>
<text text-anchor="start" x="1003" y="-189.5" font-family="Helvetica,sans-Serif" font-size="10.00">_REF_METHODS_NULLABLE()</text>
<text text-anchor="start" x="1003" y="-178.5" font-family="Helvetica,sans-Serif" font-size="10.00">+ TVM_DEFINE_OBJECT_REF</text>
<text text-anchor="start" x="1003" y="-167.5" font-family="Helvetica,sans-Serif" font-size="10.00">_COW_METHOD()</text>
<text text-anchor="start" x="1003" y="-156.5" font-family="Helvetica,sans-Serif" font-size="10.00">+ Int64()</text>
</a>
</g>
</g>
<!-- Node12&#45;&gt;Node15 -->
<g id="edge14" class="edge">
<title>Node12&#45;&gt;Node15</title>
<path fill="none" stroke="midnightblue" d="M1137.96,-311.32C1128.59,-295.84 1117.84,-278.08 1107.88,-261.64"/>
<polygon fill="none" stroke="midnightblue" points="1135.13,-313.4 1143.3,-320.14 1141.12,-309.78 1135.13,-313.4"/>
</g>
<!-- Node16 -->
<g id="node16" class="node">
<title>Node16</title>
<g id="a_node16"><a xlink:href="classtvm_1_1relax_1_1ShapeExpr.html" target="_top" xlink:title=" ">
<polygon fill="white" stroke="black" points="1172,-155 1172,-256 1331,-256 1331,-155 1172,-155"/>
<text text-anchor="middle" x="1251.5" y="-244" font-family="Helvetica,sans-Serif" font-size="10.00">tvm::relax::ShapeExpr</text>
<polyline fill="none" stroke="black" points="1172,-237 1331,-237 "/>
<text text-anchor="middle" x="1251.5" y="-225" font-family="Helvetica,sans-Serif" font-size="10.00"> </text>
<polyline fill="none" stroke="black" points="1172,-218 1331,-218 "/>
<text text-anchor="start" x="1180" y="-206" font-family="Helvetica,sans-Serif" font-size="10.00">+ ShapeExpr()</text>
<text text-anchor="start" x="1180" y="-195" font-family="Helvetica,sans-Serif" font-size="10.00">+ TVM_FFI_DEFINE_OBJECT</text>
<text text-anchor="start" x="1180" y="-184" font-family="Helvetica,sans-Serif" font-size="10.00">_REF_METHODS_NULLABLE()</text>
<text text-anchor="start" x="1180" y="-173" font-family="Helvetica,sans-Serif" font-size="10.00">+ TVM_DEFINE_OBJECT_REF</text>
<text text-anchor="start" x="1180" y="-162" font-family="Helvetica,sans-Serif" font-size="10.00">_COW_METHOD()</text>
</a>
</g>
</g>
<!-- Node12&#45;&gt;Node16 -->
<g id="edge15" class="edge">
<title>Node12&#45;&gt;Node16</title>
<path fill="none" stroke="midnightblue" d="M1188.69,-311.42C1199,-294.19 1211.01,-274.13 1221.75,-256.19"/>
<polygon fill="none" stroke="midnightblue" points="1185.6,-309.77 1183.47,-320.14 1191.61,-313.36 1185.6,-309.77"/>
</g>
<!-- Node17 -->
<g id="node17" class="node">
<title>Node17</title>
<g id="a_node17"><a xlink:href="classtvm_1_1relax_1_1StringImm.html" target="_top" xlink:title="Managed reference to StringImm.">
<polygon fill="white" stroke="black" points="1349,-155 1349,-256 1508,-256 1508,-155 1349,-155"/>
<text text-anchor="middle" x="1428.5" y="-244" font-family="Helvetica,sans-Serif" font-size="10.00">tvm::relax::StringImm</text>
<polyline fill="none" stroke="black" points="1349,-237 1508,-237 "/>
<text text-anchor="middle" x="1428.5" y="-225" font-family="Helvetica,sans-Serif" font-size="10.00"> </text>
<polyline fill="none" stroke="black" points="1349,-218 1508,-218 "/>
<text text-anchor="start" x="1357" y="-206" font-family="Helvetica,sans-Serif" font-size="10.00">+ StringImm()</text>
<text text-anchor="start" x="1357" y="-195" font-family="Helvetica,sans-Serif" font-size="10.00">+ TVM_FFI_DEFINE_OBJECT</text>
<text text-anchor="start" x="1357" y="-184" font-family="Helvetica,sans-Serif" font-size="10.00">_REF_METHODS_NULLABLE()</text>
<text text-anchor="start" x="1357" y="-173" font-family="Helvetica,sans-Serif" font-size="10.00">+ TVM_DEFINE_OBJECT_REF</text>
<text text-anchor="start" x="1357" y="-162" font-family="Helvetica,sans-Serif" font-size="10.00">_COW_METHOD()</text>
</a>
</g>
</g>
<!-- Node12&#45;&gt;Node17 -->
<g id="edge16" class="edge">
<title>Node12&#45;&gt;Node17</title>
<path fill="none" stroke="midnightblue" d="M1221.42,-314.99C1231.29,-309 1241.56,-303.12 1251.5,-298 1289.07,-278.66 1301.88,-281.25 1339.5,-262 1343.07,-260.18 1346.68,-258.25 1350.3,-256.27"/>
<polygon fill="none" stroke="midnightblue" points="1219.55,-312.03 1212.87,-320.25 1223.22,-317.99 1219.55,-312.03"/>
</g>
<!-- Node18 -->
<g id="node18" class="node">
<title>Node18</title>
<g id="a_node18"><a xlink:href="classtvm_1_1relax_1_1Var.html" target="_top" xlink:title=" ">
<polygon fill="white" stroke="black" points="1526,-155 1526,-256 1685,-256 1685,-155 1526,-155"/>
<text text-anchor="middle" x="1605.5" y="-244" font-family="Helvetica,sans-Serif" font-size="10.00">tvm::relax::Var</text>
<polyline fill="none" stroke="black" points="1526,-237 1685,-237 "/>
<text text-anchor="middle" x="1605.5" y="-225" font-family="Helvetica,sans-Serif" font-size="10.00"> </text>
<polyline fill="none" stroke="black" points="1526,-218 1685,-218 "/>
<text text-anchor="start" x="1534" y="-206" font-family="Helvetica,sans-Serif" font-size="10.00">+ Var()</text>
<text text-anchor="start" x="1534" y="-195" font-family="Helvetica,sans-Serif" font-size="10.00">+ Var()</text>
<text text-anchor="start" x="1534" y="-184" font-family="Helvetica,sans-Serif" font-size="10.00">+ TVM_FFI_DEFINE_OBJECT</text>
<text text-anchor="start" x="1534" y="-173" font-family="Helvetica,sans-Serif" font-size="10.00">_REF_METHODS_NULLABLE()</text>
<text text-anchor="start" x="1534" y="-162" font-family="Helvetica,sans-Serif" font-size="10.00">+ CopyOnWrite()</text>
</a>
</g>
</g>
<!-- Node12&#45;&gt;Node18 -->
<g id="edge17" class="edge">
<title>Node12&#45;&gt;Node18</title>
<path fill="none" stroke="midnightblue" d="M1216.43,-315.09C1227.58,-308.47 1239.58,-302.34 1251.5,-298 1363.2,-257.37 1404.7,-302.34 1516.5,-262 1521.3,-260.27 1526.11,-258.25 1530.87,-256.04"/>
<polygon fill="none" stroke="midnightblue" points="1214.37,-312.25 1207.7,-320.47 1218.05,-318.2 1214.37,-312.25"/>
</g>
<!-- Node19 -->
<g id="node19" class="node">
<title>Node19</title>
<g id="a_node19"><a xlink:href="classtvm_1_1relax_1_1DataflowVar.html" target="_top" xlink:title=" ">
<polygon fill="white" stroke="black" points="1526,-0.5 1526,-112.5 1685,-112.5 1685,-0.5 1526,-0.5"/>
<text text-anchor="middle" x="1605.5" y="-100.5" font-family="Helvetica,sans-Serif" font-size="10.00">tvm::relax::DataflowVar</text>
<polyline fill="none" stroke="black" points="1526,-93.5 1685,-93.5 "/>
<text text-anchor="middle" x="1605.5" y="-81.5" font-family="Helvetica,sans-Serif" font-size="10.00"> </text>
<polyline fill="none" stroke="black" points="1526,-74.5 1685,-74.5 "/>
<text text-anchor="start" x="1534" y="-62.5" font-family="Helvetica,sans-Serif" font-size="10.00">+ DataflowVar()</text>
<text text-anchor="start" x="1534" y="-51.5" font-family="Helvetica,sans-Serif" font-size="10.00">+ DataflowVar()</text>
<text text-anchor="start" x="1534" y="-40.5" font-family="Helvetica,sans-Serif" font-size="10.00">+ TVM_FFI_DEFINE_OBJECT</text>
<text text-anchor="start" x="1534" y="-29.5" font-family="Helvetica,sans-Serif" font-size="10.00">_REF_METHODS_NULLABLE()</text>
<text text-anchor="start" x="1534" y="-18.5" font-family="Helvetica,sans-Serif" font-size="10.00">+ TVM_DEFINE_OBJECT_REF</text>
<text text-anchor="start" x="1534" y="-7.5" font-family="Helvetica,sans-Serif" font-size="10.00">_COW_METHOD()</text>
</a>
</g>
</g>
<!-- Node18&#45;&gt;Node19 -->
<g id="edge18" class="edge">
<title>Node18&#45;&gt;Node19</title>
<path fill="none" stroke="midnightblue" d="M1605.5,-144.69C1605.5,-134.05 1605.5,-123.01 1605.5,-112.52"/>
<polygon fill="none" stroke="midnightblue" points="1602,-144.73 1605.5,-154.73 1609,-144.73 1602,-144.73"/>
</g>
</g>
</svg>
