<?xml version="1.0" encoding="UTF-8" standalone="no"?>
<!DOCTYPE svg PUBLIC "-//W3C//DTD SVG 1.1//EN"
 "http://www.w3.org/Graphics/SVG/1.1/DTD/svg11.dtd">
<!-- Generated by graphviz version 2.43.0 (0)
 -->
<!-- Title: tvm::Type Pages: 1 -->
<svg width="2168pt" height="320pt"
 viewBox="0.00 0.00 2168.00 320.00" xmlns="http://www.w3.org/2000/svg" xmlns:xlink="http://www.w3.org/1999/xlink">
<g id="graph0" class="graph" transform="scale(1 1) rotate(0) translate(4 316)">
<title>tvm::Type</title>
<polygon fill="white" stroke="transparent" points="-4,4 -4,-316 2164,-316 2164,4 -4,4"/>
<!-- Node1 -->
<g id="node1" class="node">
<title>Node1</title>
<g id="a_node1"><a xlink:title="Managed reference to TypeNode.">
<polygon fill="#bfbfbf" stroke="black" points="1000.5,-149.5 1000.5,-217.5 1159.5,-217.5 1159.5,-149.5 1000.5,-149.5"/>
<text text-anchor="middle" x="1080" y="-205.5" font-family="Helvetica,sans-Serif" font-size="10.00">tvm::Type</text>
<polyline fill="none" stroke="black" points="1000.5,-198.5 1159.5,-198.5 "/>
<text text-anchor="middle" x="1080" y="-186.5" font-family="Helvetica,sans-Serif" font-size="10.00"> </text>
<polyline fill="none" stroke="black" points="1000.5,-179.5 1159.5,-179.5 "/>
<text text-anchor="start" x="1008.5" y="-167.5" font-family="Helvetica,sans-Serif" font-size="10.00">+ TVM_FFI_DEFINE_OBJECT</text>
<text text-anchor="start" x="1008.5" y="-156.5" font-family="Helvetica,sans-Serif" font-size="10.00">_REF_METHODS_NULLABLE()</text>
</a>
</g>
</g>
<!-- Node3 -->
<g id="node3" class="node">
<title>Node3</title>
<g id="a_node3"><a xlink:href="classtvm_1_1FuncType.html" target="_top" xlink:title="Managed reference to FuncTypeNode.">
<polygon fill="white" stroke="black" points="0,-17 0,-96 180,-96 180,-17 0,-17"/>
<text text-anchor="middle" x="90" y="-84" font-family="Helvetica,sans-Serif" font-size="10.00">tvm::FuncType</text>
<polyline fill="none" stroke="black" points="0,-77 180,-77 "/>
<text text-anchor="middle" x="90" y="-65" font-family="Helvetica,sans-Serif" font-size="10.00"> </text>
<polyline fill="none" stroke="black" points="0,-58 180,-58 "/>
<text text-anchor="start" x="8" y="-46" font-family="Helvetica,sans-Serif" font-size="10.00">+ FuncType()</text>
<text text-anchor="start" x="8" y="-35" font-family="Helvetica,sans-Serif" font-size="10.00">+ TVM_FFI_DEFINE_OBJECT</text>
<text text-anchor="start" x="8" y="-24" font-family="Helvetica,sans-Serif" font-size="10.00">_REF_METHODS_NOTNULLABLE()</text>
</a>
</g>
</g>
<!-- Node1&#45;&gt;Node3 -->
<g id="edge2" class="edge">
<title>Node1&#45;&gt;Node3</title>
<path fill="none" stroke="midnightblue" d="M990.04,-180.39C794.61,-175 336.97,-157.87 189,-113 175.52,-108.91 161.84,-102.78 149.14,-96.06"/>
<polygon fill="none" stroke="midnightblue" points="990.18,-183.89 1000.27,-180.66 990.37,-176.89 990.18,-183.89"/>
</g>
<!-- Node4 -->
<g id="node4" class="node">
<title>Node4</title>
<g id="a_node4"><a xlink:href="classtvm_1_1PointerType.html" target="_top" xlink:title=" ">
<polygon fill="white" stroke="black" points="198,-17 198,-96 378,-96 378,-17 198,-17"/>
<text text-anchor="middle" x="288" y="-84" font-family="Helvetica,sans-Serif" font-size="10.00">tvm::PointerType</text>
<polyline fill="none" stroke="black" points="198,-77 378,-77 "/>
<text text-anchor="middle" x="288" y="-65" font-family="Helvetica,sans-Serif" font-size="10.00"> </text>
<polyline fill="none" stroke="black" points="198,-58 378,-58 "/>
<text text-anchor="start" x="206" y="-46" font-family="Helvetica,sans-Serif" font-size="10.00">+ PointerType()</text>
<text text-anchor="start" x="206" y="-35" font-family="Helvetica,sans-Serif" font-size="10.00">+ TVM_FFI_DEFINE_OBJECT</text>
<text text-anchor="start" x="206" y="-24" font-family="Helvetica,sans-Serif" font-size="10.00">_REF_METHODS_NOTNULLABLE()</text>
</a>
</g>
</g>
<!-- Node1&#45;&gt;Node4 -->
<g id="edge3" class="edge">
<title>Node1&#45;&gt;Node4</title>
<path fill="none" stroke="midnightblue" d="M990.1,-178.06C828.88,-169.33 497.16,-147.74 387,-113 373.75,-108.82 360.29,-102.74 347.74,-96.11"/>
<polygon fill="none" stroke="midnightblue" points="990.29,-181.57 1000.47,-178.61 990.67,-174.58 990.29,-181.57"/>
</g>
<!-- Node5 -->
<g id="node5" class="node">
<title>Node5</title>
<g id="a_node5"><a xlink:href="classtvm_1_1PrimType.html" target="_top" xlink:title=" ">
<polygon fill="white" stroke="black" points="396,-17 396,-96 576,-96 576,-17 396,-17"/>
<text text-anchor="middle" x="486" y="-84" font-family="Helvetica,sans-Serif" font-size="10.00">tvm::PrimType</text>
<polyline fill="none" stroke="black" points="396,-77 576,-77 "/>
<text text-anchor="middle" x="486" y="-65" font-family="Helvetica,sans-Serif" font-size="10.00"> </text>
<polyline fill="none" stroke="black" points="396,-58 576,-58 "/>
<text text-anchor="start" x="404" y="-46" font-family="Helvetica,sans-Serif" font-size="10.00">+ PrimType()</text>
<text text-anchor="start" x="404" y="-35" font-family="Helvetica,sans-Serif" font-size="10.00">+ TVM_FFI_DEFINE_OBJECT</text>
<text text-anchor="start" x="404" y="-24" font-family="Helvetica,sans-Serif" font-size="10.00">_REF_METHODS_NOTNULLABLE()</text>
</a>
</g>
</g>
<!-- Node1&#45;&gt;Node5 -->
<g id="edge4" class="edge">
<title>Node1&#45;&gt;Node5</title>
<path fill="none" stroke="midnightblue" d="M990.18,-179.84C889.21,-174.6 721.54,-159.04 585,-113 572.12,-108.66 558.99,-102.62 546.68,-96.12"/>
<polygon fill="none" stroke="midnightblue" points="990.18,-183.35 1000.34,-180.35 990.53,-176.35 990.18,-183.35"/>
</g>
<!-- Node6 -->
<g id="node6" class="node">
<title>Node6</title>
<g id="a_node6"><a xlink:href="classtvm_1_1TensorMapType.html" target="_top" xlink:title="Managed reference to TensorMapTypeNode.">
<polygon fill="white" stroke="black" points="594,-17 594,-96 774,-96 774,-17 594,-17"/>
<text text-anchor="middle" x="684" y="-84" font-family="Helvetica,sans-Serif" font-size="10.00">tvm::TensorMapType</text>
<polyline fill="none" stroke="black" points="594,-77 774,-77 "/>
<text text-anchor="middle" x="684" y="-65" font-family="Helvetica,sans-Serif" font-size="10.00"> </text>
<polyline fill="none" stroke="black" points="594,-58 774,-58 "/>
<text text-anchor="start" x="602" y="-46" font-family="Helvetica,sans-Serif" font-size="10.00">+ TensorMapType()</text>
<text text-anchor="start" x="602" y="-35" font-family="Helvetica,sans-Serif" font-size="10.00">+ TVM_FFI_DEFINE_OBJECT</text>
<text text-anchor="start" x="602" y="-24" font-family="Helvetica,sans-Serif" font-size="10.00">_REF_METHODS_NOTNULLABLE()</text>
</a>
</g>
</g>
<!-- Node1&#45;&gt;Node6 -->
<g id="edge5" class="edge">
<title>Node1&#45;&gt;Node6</title>
<path fill="none" stroke="midnightblue" d="M990.13,-168.28C930.18,-157.15 850.31,-139.14 783,-113 770.88,-108.29 758.43,-102.32 746.62,-96.06"/>
<polygon fill="none" stroke="midnightblue" points="989.87,-171.79 1000.33,-170.14 991.12,-164.9 989.87,-171.79"/>
</g>
<!-- Node7 -->
<g id="node7" class="node">
<title>Node7</title>
<g id="a_node7"><a xlink:href="classtvm_1_1TupleType.html" target="_top" xlink:title="Managed reference to TupleTypeNode.">
<polygon fill="white" stroke="black" points="792,-11.5 792,-101.5 972,-101.5 972,-11.5 792,-11.5"/>
<text text-anchor="middle" x="882" y="-89.5" font-family="Helvetica,sans-Serif" font-size="10.00">tvm::TupleType</text>
<polyline fill="none" stroke="black" points="792,-82.5 972,-82.5 "/>
<text text-anchor="middle" x="882" y="-70.5" font-family="Helvetica,sans-Serif" font-size="10.00"> </text>
<polyline fill="none" stroke="black" points="792,-63.5 972,-63.5 "/>
<text text-anchor="start" x="800" y="-51.5" font-family="Helvetica,sans-Serif" font-size="10.00">+ TupleType()</text>
<text text-anchor="start" x="800" y="-40.5" font-family="Helvetica,sans-Serif" font-size="10.00">+ TVM_FFI_DEFINE_OBJECT</text>
<text text-anchor="start" x="800" y="-29.5" font-family="Helvetica,sans-Serif" font-size="10.00">_REF_METHODS_NOTNULLABLE()</text>
<text text-anchor="start" x="800" y="-18.5" font-family="Helvetica,sans-Serif" font-size="10.00">+ Empty()</text>
</a>
</g>
</g>
<!-- Node1&#45;&gt;Node7 -->
<g id="edge6" class="edge">
<title>Node1&#45;&gt;Node7</title>
<path fill="none" stroke="midnightblue" d="M1019.09,-144.04C997.79,-130.6 973.71,-115.4 951.75,-101.53"/>
<polygon fill="none" stroke="midnightblue" points="1017.39,-147.12 1027.72,-149.49 1021.13,-141.2 1017.39,-147.12"/>
</g>
<!-- Node8 -->
<g id="node8" class="node">
<title>Node8</title>
<g id="a_node8"><a xlink:href="classtvm_1_1relax_1_1FuncType.html" target="_top" xlink:title="Managed reference to FuncTypeNode.">
<polygon fill="white" stroke="black" points="990,-0.5 990,-112.5 1170,-112.5 1170,-0.5 990,-0.5"/>
<text text-anchor="middle" x="1080" y="-100.5" font-family="Helvetica,sans-Serif" font-size="10.00">tvm::relax::FuncType</text>
<polyline fill="none" stroke="black" points="990,-93.5 1170,-93.5 "/>
<text text-anchor="middle" x="1080" y="-81.5" font-family="Helvetica,sans-Serif" font-size="10.00"> </text>
<polyline fill="none" stroke="black" points="990,-74.5 1170,-74.5 "/>
<text text-anchor="start" x="998" y="-62.5" font-family="Helvetica,sans-Serif" font-size="10.00">+ FuncType()</text>
<text text-anchor="start" x="998" y="-51.5" font-family="Helvetica,sans-Serif" font-size="10.00">+ FuncType()</text>
<text text-anchor="start" x="998" y="-40.5" font-family="Helvetica,sans-Serif" font-size="10.00">+ TVM_FFI_DEFINE_OBJECT</text>
<text text-anchor="start" x="998" y="-29.5" font-family="Helvetica,sans-Serif" font-size="10.00">_REF_METHODS_NOTNULLABLE()</text>
<text text-anchor="start" x="998" y="-18.5" font-family="Helvetica,sans-Serif" font-size="10.00">+ OpaqueFunc()</text>
<text text-anchor="start" x="998" y="-7.5" font-family="Helvetica,sans-Serif" font-size="10.00">+ OpaqueFunc()</text>
</a>
</g>
</g>
<!-- Node1&#45;&gt;Node8 -->
<g id="edge7" class="edge">
<title>Node1&#45;&gt;Node8</title>
<path fill="none" stroke="midnightblue" d="M1080,-139.18C1080,-130.6 1080,-121.49 1080,-112.59"/>
<polygon fill="none" stroke="midnightblue" points="1076.5,-139.33 1080,-149.33 1083.5,-139.33 1076.5,-139.33"/>
</g>
<!-- Node9 -->
<g id="node9" class="node">
<title>Node9</title>
<g id="a_node9"><a xlink:href="classtvm_1_1relax_1_1ObjectType.html" target="_top" xlink:title="Managed reference to ObjectTypeNode.">
<polygon fill="white" stroke="black" points="1188,-17 1188,-96 1368,-96 1368,-17 1188,-17"/>
<text text-anchor="middle" x="1278" y="-84" font-family="Helvetica,sans-Serif" font-size="10.00">tvm::relax::ObjectType</text>
<polyline fill="none" stroke="black" points="1188,-77 1368,-77 "/>
<text text-anchor="middle" x="1278" y="-65" font-family="Helvetica,sans-Serif" font-size="10.00"> </text>
<polyline fill="none" stroke="black" points="1188,-58 1368,-58 "/>
<text text-anchor="start" x="1196" y="-46" font-family="Helvetica,sans-Serif" font-size="10.00">+ ObjectType()</text>
<text text-anchor="start" x="1196" y="-35" font-family="Helvetica,sans-Serif" font-size="10.00">+ TVM_FFI_DEFINE_OBJECT</text>
<text text-anchor="start" x="1196" y="-24" font-family="Helvetica,sans-Serif" font-size="10.00">_REF_METHODS_NOTNULLABLE()</text>
</a>
</g>
</g>
<!-- Node1&#45;&gt;Node9 -->
<g id="edge8" class="edge">
<title>Node1&#45;&gt;Node9</title>
<path fill="none" stroke="midnightblue" d="M1141,-143.99C1165.15,-128.75 1192.84,-111.26 1216.99,-96.02"/>
<polygon fill="none" stroke="midnightblue" points="1138.87,-141.2 1132.28,-149.49 1142.61,-147.12 1138.87,-141.2"/>
</g>
<!-- Node10 -->
<g id="node10" class="node">
<title>Node10</title>
<g id="a_node10"><a xlink:href="classtvm_1_1relax_1_1PackedFuncType.html" target="_top" xlink:title=" ">
<polygon fill="white" stroke="black" points="1386,-17 1386,-96 1566,-96 1566,-17 1386,-17"/>
<text text-anchor="middle" x="1476" y="-84" font-family="Helvetica,sans-Serif" font-size="10.00">tvm::relax::PackedFuncType</text>
<polyline fill="none" stroke="black" points="1386,-77 1566,-77 "/>
<text text-anchor="middle" x="1476" y="-65" font-family="Helvetica,sans-Serif" font-size="10.00"> </text>
<polyline fill="none" stroke="black" points="1386,-58 1566,-58 "/>
<text text-anchor="start" x="1394" y="-46" font-family="Helvetica,sans-Serif" font-size="10.00">+ PackedFuncType()</text>
<text text-anchor="start" x="1394" y="-35" font-family="Helvetica,sans-Serif" font-size="10.00">+ TVM_FFI_DEFINE_OBJECT</text>
<text text-anchor="start" x="1394" y="-24" font-family="Helvetica,sans-Serif" font-size="10.00">_REF_METHODS_NOTNULLABLE()</text>
</a>
</g>
</g>
<!-- Node1&#45;&gt;Node10 -->
<g id="edge9" class="edge">
<title>Node1&#45;&gt;Node10</title>
<path fill="none" stroke="midnightblue" d="M1169.87,-168.28C1229.82,-157.15 1309.69,-139.14 1377,-113 1389.12,-108.29 1401.57,-102.32 1413.38,-96.06"/>
<polygon fill="none" stroke="midnightblue" points="1168.88,-164.9 1159.67,-170.14 1170.13,-171.79 1168.88,-164.9"/>
</g>
<!-- Node11 -->
<g id="node11" class="node">
<title>Node11</title>
<g id="a_node11"><a xlink:href="classtvm_1_1relax_1_1ShapeType.html" target="_top" xlink:title="Managed reference to ShapeTypeNode.">
<polygon fill="white" stroke="black" points="1584,-11.5 1584,-101.5 1764,-101.5 1764,-11.5 1584,-11.5"/>
<text text-anchor="middle" x="1674" y="-89.5" font-family="Helvetica,sans-Serif" font-size="10.00">tvm::relax::ShapeType</text>
<polyline fill="none" stroke="black" points="1584,-82.5 1764,-82.5 "/>
<text text-anchor="middle" x="1674" y="-70.5" font-family="Helvetica,sans-Serif" font-size="10.00"> </text>
<polyline fill="none" stroke="black" points="1584,-63.5 1764,-63.5 "/>
<text text-anchor="start" x="1592" y="-51.5" font-family="Helvetica,sans-Serif" font-size="10.00">+ ShapeType()</text>
<text text-anchor="start" x="1592" y="-40.5" font-family="Helvetica,sans-Serif" font-size="10.00">+ ShapeType()</text>
<text text-anchor="start" x="1592" y="-29.5" font-family="Helvetica,sans-Serif" font-size="10.00">+ TVM_FFI_DEFINE_OBJECT</text>
<text text-anchor="start" x="1592" y="-18.5" font-family="Helvetica,sans-Serif" font-size="10.00">_REF_METHODS_NOTNULLABLE()</text>
</a>
</g>
</g>
<!-- Node1&#45;&gt;Node11 -->
<g id="edge10" class="edge">
<title>Node1&#45;&gt;Node11</title>
<path fill="none" stroke="midnightblue" d="M1169.82,-179.84C1270.79,-174.6 1438.46,-159.04 1575,-113 1584.15,-109.92 1593.42,-105.98 1602.44,-101.63"/>
<polygon fill="none" stroke="midnightblue" points="1169.47,-176.35 1159.66,-180.35 1169.82,-183.35 1169.47,-176.35"/>
</g>
<!-- Node12 -->
<g id="node12" class="node">
<title>Node12</title>
<g id="a_node12"><a xlink:href="classtvm_1_1relax_1_1TensorType.html" target="_top" xlink:title="Managed reference to TensorTypeNode.">
<polygon fill="white" stroke="black" points="1782,-6 1782,-107 1962,-107 1962,-6 1782,-6"/>
<text text-anchor="middle" x="1872" y="-95" font-family="Helvetica,sans-Serif" font-size="10.00">tvm::relax::TensorType</text>
<polyline fill="none" stroke="black" points="1782,-88 1962,-88 "/>
<text text-anchor="middle" x="1872" y="-76" font-family="Helvetica,sans-Serif" font-size="10.00"> </text>
<polyline fill="none" stroke="black" points="1782,-69 1962,-69 "/>
<text text-anchor="start" x="1790" y="-57" font-family="Helvetica,sans-Serif" font-size="10.00">+ TensorType()</text>
<text text-anchor="start" x="1790" y="-46" font-family="Helvetica,sans-Serif" font-size="10.00">+ TensorType()</text>
<text text-anchor="start" x="1790" y="-35" font-family="Helvetica,sans-Serif" font-size="10.00">+ TensorType()</text>
<text text-anchor="start" x="1790" y="-24" font-family="Helvetica,sans-Serif" font-size="10.00">+ TVM_FFI_DEFINE_OBJECT</text>
<text text-anchor="start" x="1790" y="-13" font-family="Helvetica,sans-Serif" font-size="10.00">_REF_METHODS_NOTNULLABLE()</text>
</a>
</g>
</g>
<!-- Node1&#45;&gt;Node12 -->
<g id="edge11" class="edge">
<title>Node1&#45;&gt;Node12</title>
<path fill="none" stroke="midnightblue" d="M1169.9,-178.06C1331.12,-169.33 1662.84,-147.74 1773,-113 1778.36,-111.31 1783.75,-109.31 1789.1,-107.09"/>
<polygon fill="none" stroke="midnightblue" points="1169.33,-174.58 1159.53,-178.61 1169.71,-181.57 1169.33,-174.58"/>
</g>
<!-- Node13 -->
<g id="node13" class="node">
<title>Node13</title>
<g id="a_node13"><a xlink:href="classtvm_1_1relax_1_1distributed_1_1DTensorType.html" target="_top" xlink:title="Managed reference to DTensorTypeNode.">
<polygon fill="white" stroke="black" points="1980,-11.5 1980,-101.5 2160,-101.5 2160,-11.5 1980,-11.5"/>
<text text-anchor="start" x="1988" y="-89.5" font-family="Helvetica,sans-Serif" font-size="10.00">tvm::relax::distributed</text>
<text text-anchor="middle" x="2070" y="-78.5" font-family="Helvetica,sans-Serif" font-size="10.00">::DTensorType</text>
<polyline fill="none" stroke="black" points="1980,-71.5 2160,-71.5 "/>
<text text-anchor="middle" x="2070" y="-59.5" font-family="Helvetica,sans-Serif" font-size="10.00"> </text>
<polyline fill="none" stroke="black" points="1980,-52.5 2160,-52.5 "/>
<text text-anchor="start" x="1988" y="-40.5" font-family="Helvetica,sans-Serif" font-size="10.00">+ DTensorType()</text>
<text text-anchor="start" x="1988" y="-29.5" font-family="Helvetica,sans-Serif" font-size="10.00">+ TVM_FFI_DEFINE_OBJECT</text>
<text text-anchor="start" x="1988" y="-18.5" font-family="Helvetica,sans-Serif" font-size="10.00">_REF_METHODS_NOTNULLABLE()</text>
</a>
</g>
</g>
<!-- Node1&#45;&gt;Node13 -->
<g id="edge12" class="edge">
<title>Node1&#45;&gt;Node13</title>
<path fill="none" stroke="midnightblue" d="M1169.96,-180.39C1365.39,-175 1823.03,-157.87 1971,-113 1980.71,-110.06 1990.52,-106.05 2000,-101.53"/>
<polygon fill="none" stroke="midnightblue" points="1169.63,-176.89 1159.73,-180.66 1169.82,-183.89 1169.63,-176.89"/>
</g>
<!-- Node2 -->
<g id="node2" class="node">
<title>Node2</title>
<g id="a_node2"><a xlink:title=" ">
<polygon fill="white" stroke="#bfbfbf" points="1040,-254.5 1040,-311.5 1120,-311.5 1120,-254.5 1040,-254.5"/>
<text text-anchor="middle" x="1080" y="-299.5" font-family="Helvetica,sans-Serif" font-size="10.00">ffi::ObjectRef</text>
<polyline fill="none" stroke="#bfbfbf" points="1040,-292.5 1120,-292.5 "/>
<text text-anchor="middle" x="1080" y="-280.5" font-family="Helvetica,sans-Serif" font-size="10.00"> </text>
<polyline fill="none" stroke="#bfbfbf" points="1040,-273.5 1120,-273.5 "/>
<text text-anchor="middle" x="1080" y="-261.5" font-family="Helvetica,sans-Serif" font-size="10.00"> </text>
</a>
</g>
</g>
<!-- Node2&#45;&gt;Node1 -->
<g id="edge1" class="edge">
<title>Node2&#45;&gt;Node1</title>
<path fill="none" stroke="midnightblue" d="M1080,-244.06C1080,-235.39 1080,-226.24 1080,-217.79"/>
<polygon fill="none" stroke="midnightblue" points="1076.5,-244.32 1080,-254.32 1083.5,-244.32 1076.5,-244.32"/>
</g>
</g>
</svg>
