<?xml version="1.0" encoding="UTF-8" standalone="no"?>
<!DOCTYPE svg PUBLIC "-//W3C//DTD SVG 1.1//EN"
 "http://www.w3.org/Graphics/SVG/1.1/DTD/svg11.dtd">
<!-- Generated by graphviz version 2.43.0 (0)
 -->
<!-- Title: tvm::RelaxExprNode Pages: 1 -->
<svg width="1792pt" height="811pt"
 viewBox="0.00 0.00 1792.00 811.00" xmlns="http://www.w3.org/2000/svg" xmlns:xlink="http://www.w3.org/1999/xlink">
<g id="graph0" class="graph" transform="scale(1 1) rotate(0) translate(4 807)">
<title>tvm::RelaxExprNode</title>
<polygon fill="white" stroke="transparent" points="-4,4 -4,-807 1788,-807 1788,4 -4,4"/>
<!-- Node1 -->
<g id="node1" class="node">
<title>Node1</title>
<g id="a_node1"><a xlink:title="Base node of all non&#45;primitive expressions.">
<polygon fill="#bfbfbf" stroke="black" points="900,-480.5 900,-559.5 1062,-559.5 1062,-480.5 900,-480.5"/>
<text text-anchor="middle" x="981" y="-547.5" font-family="Helvetica,sans-Serif" font-size="10.00">tvm::RelaxExprNode</text>
<polyline fill="none" stroke="black" points="900,-540.5 1062,-540.5 "/>
<text text-anchor="start" x="908" y="-528.5" font-family="Helvetica,sans-Serif" font-size="10.00">+ _type_child_slots</text>
<polyline fill="none" stroke="black" points="900,-521.5 1062,-521.5 "/>
<text text-anchor="start" x="908" y="-509.5" font-family="Helvetica,sans-Serif" font-size="10.00">+ TVM_FFI_DECLARE_OBJECT</text>
<text text-anchor="start" x="908" y="-498.5" font-family="Helvetica,sans-Serif" font-size="10.00">_INFO()</text>
<text text-anchor="start" x="908" y="-487.5" font-family="Helvetica,sans-Serif" font-size="10.00">+ RegisterReflection()</text>
</a>
</g>
</g>
<!-- Node4 -->
<g id="node4" class="node">
<title>Node4</title>
<g id="a_node4"><a xlink:href="classtvm_1_1BaseFuncNode.html" target="_top" xlink:title="Base node of all functions.">
<polygon fill="white" stroke="black" points="180,-298.5 180,-432.5 342,-432.5 342,-298.5 180,-298.5"/>
<text text-anchor="middle" x="261" y="-420.5" font-family="Helvetica,sans-Serif" font-size="10.00">tvm::BaseFuncNode</text>
<polyline fill="none" stroke="black" points="180,-413.5 342,-413.5 "/>
<text text-anchor="start" x="188" y="-401.5" font-family="Helvetica,sans-Serif" font-size="10.00">+ attrs</text>
<text text-anchor="start" x="188" y="-390.5" font-family="Helvetica,sans-Serif" font-size="10.00">+ _type_child_slots</text>
<polyline fill="none" stroke="black" points="180,-383.5 342,-383.5 "/>
<text text-anchor="start" x="188" y="-371.5" font-family="Helvetica,sans-Serif" font-size="10.00">+ GetAttr()</text>
<text text-anchor="start" x="188" y="-360.5" font-family="Helvetica,sans-Serif" font-size="10.00">+ GetAttr()</text>
<text text-anchor="start" x="188" y="-349.5" font-family="Helvetica,sans-Serif" font-size="10.00">+ HasNonzeroAttr()</text>
<text text-anchor="start" x="188" y="-338.5" font-family="Helvetica,sans-Serif" font-size="10.00">+ GetLinkageType()</text>
<text text-anchor="start" x="188" y="-327.5" font-family="Helvetica,sans-Serif" font-size="10.00">+ TVM_FFI_DECLARE_OBJECT</text>
<text text-anchor="start" x="188" y="-316.5" font-family="Helvetica,sans-Serif" font-size="10.00">_INFO()</text>
<text text-anchor="start" x="188" y="-305.5" font-family="Helvetica,sans-Serif" font-size="10.00">+ RegisterReflection()</text>
</a>
</g>
</g>
<!-- Node1&#45;&gt;Node4 -->
<g id="edge3" class="edge">
<title>Node1&#45;&gt;Node4</title>
<path fill="none" stroke="midnightblue" d="M889.69,-514.68C738.97,-506.46 445.42,-485.57 351,-444 343.83,-440.84 336.8,-436.92 330.04,-432.52"/>
<polygon fill="none" stroke="midnightblue" points="889.67,-518.18 899.85,-515.22 890.05,-511.19 889.67,-518.18"/>
</g>
<!-- Node8 -->
<g id="node8" class="node">
<title>Node8</title>
<g id="a_node8"><a xlink:href="classtvm_1_1GlobalVarNode.html" target="_top" xlink:title="Global variable that lives in the top&#45;level module.">
<polygon fill="white" stroke="black" points="360,-309.5 360,-421.5 522,-421.5 522,-309.5 360,-309.5"/>
<text text-anchor="middle" x="441" y="-409.5" font-family="Helvetica,sans-Serif" font-size="10.00">tvm::GlobalVarNode</text>
<polyline fill="none" stroke="black" points="360,-402.5 522,-402.5 "/>
<text text-anchor="start" x="368" y="-390.5" font-family="Helvetica,sans-Serif" font-size="10.00">+ name_hint</text>
<text text-anchor="start" x="368" y="-379.5" font-family="Helvetica,sans-Serif" font-size="10.00">+ _type_s_eq_hash_kind</text>
<polyline fill="none" stroke="black" points="360,-372.5 522,-372.5 "/>
<text text-anchor="start" x="368" y="-360.5" font-family="Helvetica,sans-Serif" font-size="10.00">+ SEqual()</text>
<text text-anchor="start" x="368" y="-349.5" font-family="Helvetica,sans-Serif" font-size="10.00">+ SHash()</text>
<text text-anchor="start" x="368" y="-338.5" font-family="Helvetica,sans-Serif" font-size="10.00">+ TVM_FFI_DECLARE_OBJECT</text>
<text text-anchor="start" x="368" y="-327.5" font-family="Helvetica,sans-Serif" font-size="10.00">_INFO_FINAL()</text>
<text text-anchor="start" x="368" y="-316.5" font-family="Helvetica,sans-Serif" font-size="10.00">+ RegisterReflection()</text>
</a>
</g>
</g>
<!-- Node1&#45;&gt;Node8 -->
<g id="edge7" class="edge">
<title>Node1&#45;&gt;Node8</title>
<path fill="none" stroke="midnightblue" d="M889.86,-518.07C795.82,-513.93 646.92,-498.29 531,-444 518.68,-438.23 506.72,-430.28 495.77,-421.66"/>
<polygon fill="none" stroke="midnightblue" points="889.78,-521.57 899.92,-518.48 890.07,-514.58 889.78,-521.57"/>
</g>
<!-- Node9 -->
<g id="node9" class="node">
<title>Node9</title>
<g id="a_node9"><a xlink:href="classtvm_1_1OpNode.html" target="_top" xlink:title="Primitive Op(builtin intrinsics)">
<polygon fill="white" stroke="black" points="540,-287.5 540,-443.5 702,-443.5 702,-287.5 540,-287.5"/>
<text text-anchor="middle" x="621" y="-431.5" font-family="Helvetica,sans-Serif" font-size="10.00">tvm::OpNode</text>
<polyline fill="none" stroke="black" points="540,-424.5 702,-424.5 "/>
<text text-anchor="start" x="548" y="-412.5" font-family="Helvetica,sans-Serif" font-size="10.00">+ name</text>
<text text-anchor="start" x="548" y="-401.5" font-family="Helvetica,sans-Serif" font-size="10.00">+ description</text>
<text text-anchor="start" x="548" y="-390.5" font-family="Helvetica,sans-Serif" font-size="10.00">+ arguments</text>
<text text-anchor="start" x="548" y="-379.5" font-family="Helvetica,sans-Serif" font-size="10.00">+ attrs_type_key</text>
<text text-anchor="start" x="548" y="-368.5" font-family="Helvetica,sans-Serif" font-size="10.00">+ attrs_type_index</text>
<text text-anchor="start" x="548" y="-357.5" font-family="Helvetica,sans-Serif" font-size="10.00">+ num_inputs</text>
<text text-anchor="start" x="548" y="-346.5" font-family="Helvetica,sans-Serif" font-size="10.00">+ support_level</text>
<text text-anchor="start" x="548" y="-335.5" font-family="Helvetica,sans-Serif" font-size="10.00">+ _type_s_eq_hash_kind</text>
<polyline fill="none" stroke="black" points="540,-328.5 702,-328.5 "/>
<text text-anchor="start" x="548" y="-316.5" font-family="Helvetica,sans-Serif" font-size="10.00">+ TVM_FFI_DECLARE_OBJECT</text>
<text text-anchor="start" x="548" y="-305.5" font-family="Helvetica,sans-Serif" font-size="10.00">_INFO_FINAL()</text>
<text text-anchor="start" x="548" y="-294.5" font-family="Helvetica,sans-Serif" font-size="10.00">+ RegisterReflection()</text>
</a>
</g>
</g>
<!-- Node1&#45;&gt;Node9 -->
<g id="edge8" class="edge">
<title>Node1&#45;&gt;Node9</title>
<path fill="none" stroke="midnightblue" d="M889.88,-504.09C835.69,-492.73 766.84,-473.85 711,-444 708,-442.4 705.01,-440.68 702.05,-438.86"/>
<polygon fill="none" stroke="midnightblue" points="889.33,-507.55 899.83,-506.12 890.73,-500.69 889.33,-507.55"/>
</g>
<!-- Node10 -->
<g id="node10" class="node">
<title>Node10</title>
<g id="a_node10"><a xlink:href="classtvm_1_1relax_1_1CallNode.html" target="_top" xlink:title="Call corresponds to callable invocation. Corresponds to operation in computational graph terminology.">
<polygon fill="white" stroke="black" points="720,-309.5 720,-421.5 882,-421.5 882,-309.5 720,-309.5"/>
<text text-anchor="middle" x="801" y="-409.5" font-family="Helvetica,sans-Serif" font-size="10.00">tvm::relax::CallNode</text>
<polyline fill="none" stroke="black" points="720,-402.5 882,-402.5 "/>
<text text-anchor="start" x="728" y="-390.5" font-family="Helvetica,sans-Serif" font-size="10.00">+ op</text>
<text text-anchor="start" x="728" y="-379.5" font-family="Helvetica,sans-Serif" font-size="10.00">+ args</text>
<text text-anchor="start" x="728" y="-368.5" font-family="Helvetica,sans-Serif" font-size="10.00">+ attrs</text>
<text text-anchor="start" x="728" y="-357.5" font-family="Helvetica,sans-Serif" font-size="10.00">+ ty_args</text>
<polyline fill="none" stroke="black" points="720,-350.5 882,-350.5 "/>
<text text-anchor="start" x="728" y="-338.5" font-family="Helvetica,sans-Serif" font-size="10.00">+ TVM_FFI_DECLARE_OBJECT</text>
<text text-anchor="start" x="728" y="-327.5" font-family="Helvetica,sans-Serif" font-size="10.00">_INFO_FINAL()</text>
<text text-anchor="start" x="728" y="-316.5" font-family="Helvetica,sans-Serif" font-size="10.00">+ RegisterReflection()</text>
</a>
</g>
</g>
<!-- Node1&#45;&gt;Node10 -->
<g id="edge9" class="edge">
<title>Node1&#45;&gt;Node10</title>
<path fill="none" stroke="midnightblue" d="M926.21,-473.58C914.56,-463.85 902.35,-453.61 891,-444 882.5,-436.8 873.59,-429.19 864.81,-421.67"/>
<polygon fill="none" stroke="midnightblue" points="924.25,-476.5 934.17,-480.22 928.73,-471.12 924.25,-476.5"/>
</g>
<!-- Node11 -->
<g id="node11" class="node">
<title>Node11</title>
<g id="a_node11"><a xlink:href="classtvm_1_1relax_1_1IfNode.html" target="_top" xlink:title="Condition expression.">
<polygon fill="white" stroke="black" points="900,-309.5 900,-421.5 1062,-421.5 1062,-309.5 900,-309.5"/>
<text text-anchor="middle" x="981" y="-409.5" font-family="Helvetica,sans-Serif" font-size="10.00">tvm::relax::IfNode</text>
<polyline fill="none" stroke="black" points="900,-402.5 1062,-402.5 "/>
<text text-anchor="start" x="908" y="-390.5" font-family="Helvetica,sans-Serif" font-size="10.00">+ cond</text>
<text text-anchor="start" x="908" y="-379.5" font-family="Helvetica,sans-Serif" font-size="10.00">+ true_branch</text>
<text text-anchor="start" x="908" y="-368.5" font-family="Helvetica,sans-Serif" font-size="10.00">+ false_branch</text>
<text text-anchor="start" x="908" y="-357.5" font-family="Helvetica,sans-Serif" font-size="10.00">+ _type_s_eq_hash_kind</text>
<polyline fill="none" stroke="black" points="900,-350.5 1062,-350.5 "/>
<text text-anchor="start" x="908" y="-338.5" font-family="Helvetica,sans-Serif" font-size="10.00">+ TVM_FFI_DECLARE_OBJECT</text>
<text text-anchor="start" x="908" y="-327.5" font-family="Helvetica,sans-Serif" font-size="10.00">_INFO_FINAL()</text>
<text text-anchor="start" x="908" y="-316.5" font-family="Helvetica,sans-Serif" font-size="10.00">+ RegisterReflection()</text>
</a>
</g>
</g>
<!-- Node1&#45;&gt;Node11 -->
<g id="edge10" class="edge">
<title>Node1&#45;&gt;Node11</title>
<path fill="none" stroke="midnightblue" d="M981,-469.8C981,-454.46 981,-437.43 981,-421.71"/>
<polygon fill="none" stroke="midnightblue" points="977.5,-470.12 981,-480.12 984.5,-470.12 977.5,-470.12"/>
</g>
<!-- Node12 -->
<g id="node12" class="node">
<title>Node12</title>
<g id="a_node12"><a xlink:href="classtvm_1_1relax_1_1LeafExprNode.html" target="_top" xlink:title="Base type of all (non&#45;function) leaf Exprs.">
<polygon fill="white" stroke="black" points="1080,-331.5 1080,-399.5 1242,-399.5 1242,-331.5 1080,-331.5"/>
<text text-anchor="middle" x="1161" y="-387.5" font-family="Helvetica,sans-Serif" font-size="10.00">tvm::relax::LeafExprNode</text>
<polyline fill="none" stroke="black" points="1080,-380.5 1242,-380.5 "/>
<text text-anchor="start" x="1088" y="-368.5" font-family="Helvetica,sans-Serif" font-size="10.00">+ _type_child_slots</text>
<polyline fill="none" stroke="black" points="1080,-361.5 1242,-361.5 "/>
<text text-anchor="start" x="1088" y="-349.5" font-family="Helvetica,sans-Serif" font-size="10.00">+ TVM_FFI_DECLARE_OBJECT</text>
<text text-anchor="start" x="1088" y="-338.5" font-family="Helvetica,sans-Serif" font-size="10.00">_INFO()</text>
</a>
</g>
</g>
<!-- Node1&#45;&gt;Node12 -->
<g id="edge11" class="edge">
<title>Node1&#45;&gt;Node12</title>
<path fill="none" stroke="midnightblue" d="M1035.79,-473.58C1047.44,-463.85 1059.65,-453.61 1071,-444 1087.99,-429.61 1106.66,-413.56 1122.58,-399.83"/>
<polygon fill="none" stroke="midnightblue" points="1033.27,-471.12 1027.83,-480.22 1037.75,-476.5 1033.27,-471.12"/>
</g>
<!-- Node20 -->
<g id="node20" class="node">
<title>Node20</title>
<g id="a_node20"><a xlink:href="classtvm_1_1relax_1_1SeqExprNode.html" target="_top" xlink:title="A sequence of blocks followed by an expression.">
<polygon fill="white" stroke="black" points="1260,-320.5 1260,-410.5 1422,-410.5 1422,-320.5 1260,-320.5"/>
<text text-anchor="middle" x="1341" y="-398.5" font-family="Helvetica,sans-Serif" font-size="10.00">tvm::relax::SeqExprNode</text>
<polyline fill="none" stroke="black" points="1260,-391.5 1422,-391.5 "/>
<text text-anchor="start" x="1268" y="-379.5" font-family="Helvetica,sans-Serif" font-size="10.00">+ blocks</text>
<text text-anchor="start" x="1268" y="-368.5" font-family="Helvetica,sans-Serif" font-size="10.00">+ body</text>
<polyline fill="none" stroke="black" points="1260,-361.5 1422,-361.5 "/>
<text text-anchor="start" x="1268" y="-349.5" font-family="Helvetica,sans-Serif" font-size="10.00">+ TVM_FFI_DECLARE_OBJECT</text>
<text text-anchor="start" x="1268" y="-338.5" font-family="Helvetica,sans-Serif" font-size="10.00">_INFO_FINAL()</text>
<text text-anchor="start" x="1268" y="-327.5" font-family="Helvetica,sans-Serif" font-size="10.00">+ RegisterReflection()</text>
</a>
</g>
</g>
<!-- Node1&#45;&gt;Node20 -->
<g id="edge19" class="edge">
<title>Node1&#45;&gt;Node20</title>
<path fill="none" stroke="midnightblue" d="M1072.12,-504.09C1126.31,-492.73 1195.16,-473.85 1251,-444 1267.55,-435.15 1283.7,-422.8 1297.65,-410.56"/>
<polygon fill="none" stroke="midnightblue" points="1071.27,-500.69 1062.17,-506.12 1072.67,-507.55 1071.27,-500.69"/>
</g>
<!-- Node21 -->
<g id="node21" class="node">
<title>Node21</title>
<g id="a_node21"><a xlink:href="classtvm_1_1relax_1_1TupleGetItemNode.html" target="_top" xlink:title="Get index&#45;th field out of a tuple.">
<polygon fill="white" stroke="black" points="1440,-320.5 1440,-410.5 1604,-410.5 1604,-320.5 1440,-320.5"/>
<text text-anchor="middle" x="1522" y="-398.5" font-family="Helvetica,sans-Serif" font-size="10.00">tvm::relax::TupleGetItemNode</text>
<polyline fill="none" stroke="black" points="1440,-391.5 1604,-391.5 "/>
<text text-anchor="start" x="1448" y="-379.5" font-family="Helvetica,sans-Serif" font-size="10.00">+ tuple</text>
<text text-anchor="start" x="1448" y="-368.5" font-family="Helvetica,sans-Serif" font-size="10.00">+ index</text>
<polyline fill="none" stroke="black" points="1440,-361.5 1604,-361.5 "/>
<text text-anchor="start" x="1448" y="-349.5" font-family="Helvetica,sans-Serif" font-size="10.00">+ TVM_FFI_DECLARE_OBJECT</text>
<text text-anchor="start" x="1448" y="-338.5" font-family="Helvetica,sans-Serif" font-size="10.00">_INFO_FINAL()</text>
<text text-anchor="start" x="1448" y="-327.5" font-family="Helvetica,sans-Serif" font-size="10.00">+ RegisterReflection()</text>
</a>
</g>
</g>
<!-- Node1&#45;&gt;Node21 -->
<g id="edge20" class="edge">
<title>Node1&#45;&gt;Node21</title>
<path fill="none" stroke="midnightblue" d="M1072.08,-517.94C1166.07,-513.69 1314.94,-497.98 1431,-444 1448.5,-435.86 1465.29,-423.41 1479.59,-410.85"/>
<polygon fill="none" stroke="midnightblue" points="1071.87,-514.45 1062.03,-518.36 1072.16,-521.44 1071.87,-514.45"/>
</g>
<!-- Node22 -->
<g id="node22" class="node">
<title>Node22</title>
<g id="a_node22"><a xlink:href="classtvm_1_1relax_1_1TupleNode.html" target="_top" xlink:title="Tuple container.">
<polygon fill="white" stroke="black" points="1622,-326 1622,-405 1784,-405 1784,-326 1622,-326"/>
<text text-anchor="middle" x="1703" y="-393" font-family="Helvetica,sans-Serif" font-size="10.00">tvm::relax::TupleNode</text>
<polyline fill="none" stroke="black" points="1622,-386 1784,-386 "/>
<text text-anchor="start" x="1630" y="-374" font-family="Helvetica,sans-Serif" font-size="10.00">+ fields</text>
<polyline fill="none" stroke="black" points="1622,-367 1784,-367 "/>
<text text-anchor="start" x="1630" y="-355" font-family="Helvetica,sans-Serif" font-size="10.00">+ TVM_FFI_DECLARE_OBJECT</text>
<text text-anchor="start" x="1630" y="-344" font-family="Helvetica,sans-Serif" font-size="10.00">_INFO_FINAL()</text>
<text text-anchor="start" x="1630" y="-333" font-family="Helvetica,sans-Serif" font-size="10.00">+ RegisterReflection()</text>
</a>
</g>
</g>
<!-- Node1&#45;&gt;Node22 -->
<g id="edge21" class="edge">
<title>Node1&#45;&gt;Node22</title>
<path fill="none" stroke="midnightblue" d="M1072.31,-514.72C1223.41,-506.55 1518.21,-485.71 1613,-444 1633.38,-435.03 1652.59,-419.84 1667.98,-405.27"/>
<polygon fill="none" stroke="midnightblue" points="1071.92,-511.23 1062.12,-515.26 1072.29,-518.22 1071.92,-511.23"/>
</g>
<!-- Node2 -->
<g id="node2" class="node">
<title>Node2</title>
<g id="a_node2"><a xlink:href="classtvm_1_1BaseExprNode.html" target="_top" xlink:title="Base type of all the expressions.">
<polygon fill="white" stroke="black" points="900,-596.5 900,-708.5 1062,-708.5 1062,-596.5 900,-596.5"/>
<text text-anchor="middle" x="981" y="-696.5" font-family="Helvetica,sans-Serif" font-size="10.00">tvm::BaseExprNode</text>
<polyline fill="none" stroke="black" points="900,-689.5 1062,-689.5 "/>
<text text-anchor="start" x="908" y="-677.5" font-family="Helvetica,sans-Serif" font-size="10.00">+ span</text>
<text text-anchor="start" x="908" y="-666.5" font-family="Helvetica,sans-Serif" font-size="10.00">+ ty</text>
<text text-anchor="start" x="908" y="-655.5" font-family="Helvetica,sans-Serif" font-size="10.00">+ _type_s_eq_hash_kind</text>
<text text-anchor="start" x="908" y="-644.5" font-family="Helvetica,sans-Serif" font-size="10.00">+ _type_child_slots</text>
<polyline fill="none" stroke="black" points="900,-637.5 1062,-637.5 "/>
<text text-anchor="start" x="908" y="-625.5" font-family="Helvetica,sans-Serif" font-size="10.00">+ TVM_FFI_DECLARE_OBJECT</text>
<text text-anchor="start" x="908" y="-614.5" font-family="Helvetica,sans-Serif" font-size="10.00">_INFO()</text>
<text text-anchor="start" x="908" y="-603.5" font-family="Helvetica,sans-Serif" font-size="10.00">+ RegisterReflection()</text>
</a>
</g>
</g>
<!-- Node2&#45;&gt;Node1 -->
<g id="edge1" class="edge">
<title>Node2&#45;&gt;Node1</title>
<path fill="none" stroke="midnightblue" d="M981,-586.06C981,-577.08 981,-568.11 981,-559.82"/>
<polygon fill="none" stroke="midnightblue" points="977.5,-586.16 981,-596.16 984.5,-586.16 977.5,-586.16"/>
</g>
<!-- Node3 -->
<g id="node3" class="node">
<title>Node3</title>
<g id="a_node3"><a xlink:title=" ">
<polygon fill="white" stroke="#bfbfbf" points="949,-745.5 949,-802.5 1013,-802.5 1013,-745.5 949,-745.5"/>
<text text-anchor="middle" x="981" y="-790.5" font-family="Helvetica,sans-Serif" font-size="10.00">ffi::Object</text>
<polyline fill="none" stroke="#bfbfbf" points="949,-783.5 1013,-783.5 "/>
<text text-anchor="middle" x="981" y="-771.5" font-family="Helvetica,sans-Serif" font-size="10.00"> </text>
<polyline fill="none" stroke="#bfbfbf" points="949,-764.5 1013,-764.5 "/>
<text text-anchor="middle" x="981" y="-752.5" font-family="Helvetica,sans-Serif" font-size="10.00"> </text>
</a>
</g>
</g>
<!-- Node3&#45;&gt;Node2 -->
<g id="edge2" class="edge">
<title>Node3&#45;&gt;Node2</title>
<path fill="none" stroke="midnightblue" d="M981,-735.11C981,-726.75 981,-717.73 981,-708.83"/>
<polygon fill="none" stroke="midnightblue" points="977.5,-735.28 981,-745.28 984.5,-735.28 977.5,-735.28"/>
</g>
<!-- Node5 -->
<g id="node5" class="node">
<title>Node5</title>
<g id="a_node5"><a xlink:href="classtvm_1_1relax_1_1ExternFuncNode.html" target="_top" xlink:title="The extern function, which can represent packed function.">
<polygon fill="white" stroke="black" points="0,-144 0,-223 162,-223 162,-144 0,-144"/>
<text text-anchor="middle" x="81" y="-211" font-family="Helvetica,sans-Serif" font-size="10.00">tvm::relax::ExternFuncNode</text>
<polyline fill="none" stroke="black" points="0,-204 162,-204 "/>
<text text-anchor="start" x="8" y="-192" font-family="Helvetica,sans-Serif" font-size="10.00">+ global_symbol</text>
<polyline fill="none" stroke="black" points="0,-185 162,-185 "/>
<text text-anchor="start" x="8" y="-173" font-family="Helvetica,sans-Serif" font-size="10.00">+ TVM_FFI_DECLARE_OBJECT</text>
<text text-anchor="start" x="8" y="-162" font-family="Helvetica,sans-Serif" font-size="10.00">_INFO_FINAL()</text>
<text text-anchor="start" x="8" y="-151" font-family="Helvetica,sans-Serif" font-size="10.00">+ RegisterReflection()</text>
</a>
</g>
</g>
<!-- Node4&#45;&gt;Node5 -->
<g id="edge4" class="edge">
<title>Node4&#45;&gt;Node5</title>
<path fill="none" stroke="midnightblue" d="M187.79,-291.29C164.39,-267.89 139.42,-242.92 119.51,-223.01"/>
<polygon fill="none" stroke="midnightblue" points="185.45,-293.9 195,-298.5 190.4,-288.95 185.45,-293.9"/>
</g>
<!-- Node6 -->
<g id="node6" class="node">
<title>Node6</title>
<g id="a_node6"><a xlink:href="classtvm_1_1relax_1_1FunctionNode.html" target="_top" xlink:title="A Relax function.">
<polygon fill="white" stroke="black" points="180,-122 180,-245 342,-245 342,-122 180,-122"/>
<text text-anchor="middle" x="261" y="-233" font-family="Helvetica,sans-Serif" font-size="10.00">tvm::relax::FunctionNode</text>
<polyline fill="none" stroke="black" points="180,-226 342,-226 "/>
<text text-anchor="start" x="188" y="-214" font-family="Helvetica,sans-Serif" font-size="10.00">+ params</text>
<text text-anchor="start" x="188" y="-203" font-family="Helvetica,sans-Serif" font-size="10.00">+ body</text>
<text text-anchor="start" x="188" y="-192" font-family="Helvetica,sans-Serif" font-size="10.00">+ ret_ty</text>
<text text-anchor="start" x="188" y="-181" font-family="Helvetica,sans-Serif" font-size="10.00">+ is_pure</text>
<text text-anchor="start" x="188" y="-170" font-family="Helvetica,sans-Serif" font-size="10.00">+ _type_s_eq_hash_kind</text>
<polyline fill="none" stroke="black" points="180,-163 342,-163 "/>
<text text-anchor="start" x="188" y="-151" font-family="Helvetica,sans-Serif" font-size="10.00">+ TVM_FFI_DECLARE_OBJECT</text>
<text text-anchor="start" x="188" y="-140" font-family="Helvetica,sans-Serif" font-size="10.00">_INFO_FINAL()</text>
<text text-anchor="start" x="188" y="-129" font-family="Helvetica,sans-Serif" font-size="10.00">+ RegisterReflection()</text>
</a>
</g>
</g>
<!-- Node4&#45;&gt;Node6 -->
<g id="edge5" class="edge">
<title>Node4&#45;&gt;Node6</title>
<path fill="none" stroke="midnightblue" d="M261,-288.14C261,-273.77 261,-258.93 261,-245.12"/>
<polygon fill="none" stroke="midnightblue" points="257.5,-288.5 261,-298.5 264.5,-288.5 257.5,-288.5"/>
</g>
<!-- Node7 -->
<g id="node7" class="node">
<title>Node7</title>
<g id="a_node7"><a xlink:href="classtvm_1_1tirx_1_1PrimFuncNode.html" target="_top" xlink:title="Primitive functions that contains TIR statements.">
<polygon fill="white" stroke="black" points="360,-122 360,-245 522,-245 522,-122 360,-122"/>
<text text-anchor="middle" x="441" y="-233" font-family="Helvetica,sans-Serif" font-size="10.00">tvm::tirx::PrimFuncNode</text>
<polyline fill="none" stroke="black" points="360,-226 522,-226 "/>
<text text-anchor="start" x="368" y="-214" font-family="Helvetica,sans-Serif" font-size="10.00">+ params</text>
<text text-anchor="start" x="368" y="-203" font-family="Helvetica,sans-Serif" font-size="10.00">+ ret_type</text>
<text text-anchor="start" x="368" y="-192" font-family="Helvetica,sans-Serif" font-size="10.00">+ buffer_map</text>
<text text-anchor="start" x="368" y="-181" font-family="Helvetica,sans-Serif" font-size="10.00">+ body</text>
<polyline fill="none" stroke="black" points="360,-174 522,-174 "/>
<text text-anchor="start" x="368" y="-162" font-family="Helvetica,sans-Serif" font-size="10.00">+ func_type_annotation()</text>
<text text-anchor="start" x="368" y="-151" font-family="Helvetica,sans-Serif" font-size="10.00">+ TVM_FFI_DECLARE_OBJECT</text>
<text text-anchor="start" x="368" y="-140" font-family="Helvetica,sans-Serif" font-size="10.00">_INFO_FINAL()</text>
<text text-anchor="start" x="368" y="-129" font-family="Helvetica,sans-Serif" font-size="10.00">+ RegisterReflection()</text>
</a>
</g>
</g>
<!-- Node4&#45;&gt;Node7 -->
<g id="edge6" class="edge">
<title>Node4&#45;&gt;Node7</title>
<path fill="none" stroke="midnightblue" d="M334.44,-291.06C349.71,-275.79 365.63,-259.87 380.38,-245.12"/>
<polygon fill="none" stroke="midnightblue" points="331.6,-288.95 327,-298.5 336.55,-293.9 331.6,-288.95"/>
</g>
<!-- Node13 -->
<g id="node13" class="node">
<title>Node13</title>
<g id="a_node13"><a xlink:href="classtvm_1_1relax_1_1ConstantNode.html" target="_top" xlink:title="Constant tensor.">
<polygon fill="white" stroke="black" points="627,-133 627,-234 789,-234 789,-133 627,-133"/>
<text text-anchor="middle" x="708" y="-222" font-family="Helvetica,sans-Serif" font-size="10.00">tvm::relax::ConstantNode</text>
<polyline fill="none" stroke="black" points="627,-215 789,-215 "/>
<text text-anchor="start" x="635" y="-203" font-family="Helvetica,sans-Serif" font-size="10.00">+ data</text>
<polyline fill="none" stroke="black" points="627,-196 789,-196 "/>
<text text-anchor="start" x="635" y="-184" font-family="Helvetica,sans-Serif" font-size="10.00">+ tensor_type()</text>
<text text-anchor="start" x="635" y="-173" font-family="Helvetica,sans-Serif" font-size="10.00">+ is_scalar()</text>
<text text-anchor="start" x="635" y="-162" font-family="Helvetica,sans-Serif" font-size="10.00">+ TVM_FFI_DECLARE_OBJECT</text>
<text text-anchor="start" x="635" y="-151" font-family="Helvetica,sans-Serif" font-size="10.00">_INFO_FINAL()</text>
<text text-anchor="start" x="635" y="-140" font-family="Helvetica,sans-Serif" font-size="10.00">+ RegisterReflection()</text>
</a>
</g>
</g>
<!-- Node12&#45;&gt;Node13 -->
<g id="edge12" class="edge">
<title>Node12&#45;&gt;Node13</title>
<path fill="none" stroke="midnightblue" d="M1124.14,-324.2C1109.06,-310.17 1090.55,-295.75 1071,-287 959.3,-236.98 911.48,-296.82 798,-251 787.19,-246.64 776.51,-240.66 766.48,-234.08"/>
<polygon fill="none" stroke="midnightblue" points="1122.08,-327.07 1131.71,-331.48 1126.93,-322.02 1122.08,-327.07"/>
</g>
<!-- Node14 -->
<g id="node14" class="node">
<title>Node14</title>
<g id="a_node14"><a xlink:href="classtvm_1_1relax_1_1DataTypeImmNode.html" target="_top" xlink:title="Represent a data type constant.">
<polygon fill="white" stroke="black" points="807.5,-144 807.5,-223 974.5,-223 974.5,-144 807.5,-144"/>
<text text-anchor="middle" x="891" y="-211" font-family="Helvetica,sans-Serif" font-size="10.00">tvm::relax::DataTypeImmNode</text>
<polyline fill="none" stroke="black" points="807.5,-204 974.5,-204 "/>
<text text-anchor="start" x="815.5" y="-192" font-family="Helvetica,sans-Serif" font-size="10.00">+ value</text>
<polyline fill="none" stroke="black" points="807.5,-185 974.5,-185 "/>
<text text-anchor="start" x="815.5" y="-173" font-family="Helvetica,sans-Serif" font-size="10.00">+ TVM_FFI_DECLARE_OBJECT</text>
<text text-anchor="start" x="815.5" y="-162" font-family="Helvetica,sans-Serif" font-size="10.00">_INFO_FINAL()</text>
<text text-anchor="start" x="815.5" y="-151" font-family="Helvetica,sans-Serif" font-size="10.00">+ RegisterReflection()</text>
</a>
</g>
</g>
<!-- Node12&#45;&gt;Node14 -->
<g id="edge13" class="edge">
<title>Node12&#45;&gt;Node14</title>
<path fill="none" stroke="midnightblue" d="M1120.1,-324.45C1105.41,-311.41 1088.2,-297.58 1071,-287 1035.36,-265.07 1020.59,-271.3 984,-251 969.42,-242.91 954.4,-232.97 940.79,-223.26"/>
<polygon fill="none" stroke="midnightblue" points="1117.78,-327.07 1127.55,-331.18 1122.48,-321.87 1117.78,-327.07"/>
</g>
<!-- Node15 -->
<g id="node15" class="node">
<title>Node15</title>
<g id="a_node15"><a xlink:href="classtvm_1_1relax_1_1PrimValueNode.html" target="_top" xlink:title="PrimValue.">
<polygon fill="white" stroke="black" points="993,-144 993,-223 1155,-223 1155,-144 993,-144"/>
<text text-anchor="middle" x="1074" y="-211" font-family="Helvetica,sans-Serif" font-size="10.00">tvm::relax::PrimValueNode</text>
<polyline fill="none" stroke="black" points="993,-204 1155,-204 "/>
<text text-anchor="start" x="1001" y="-192" font-family="Helvetica,sans-Serif" font-size="10.00">+ value</text>
<polyline fill="none" stroke="black" points="993,-185 1155,-185 "/>
<text text-anchor="start" x="1001" y="-173" font-family="Helvetica,sans-Serif" font-size="10.00">+ TVM_FFI_DECLARE_OBJECT</text>
<text text-anchor="start" x="1001" y="-162" font-family="Helvetica,sans-Serif" font-size="10.00">_INFO_FINAL()</text>
<text text-anchor="start" x="1001" y="-151" font-family="Helvetica,sans-Serif" font-size="10.00">+ RegisterReflection()</text>
</a>
</g>
</g>
<!-- Node12&#45;&gt;Node15 -->
<g id="edge14" class="edge">
<title>Node12&#45;&gt;Node15</title>
<path fill="none" stroke="midnightblue" d="M1140.52,-322.14C1126.05,-292.19 1106.8,-252.36 1092.73,-223.25"/>
<polygon fill="none" stroke="midnightblue" points="1137.54,-324 1145.04,-331.49 1143.84,-320.96 1137.54,-324"/>
</g>
<!-- Node16 -->
<g id="node16" class="node">
<title>Node16</title>
<g id="a_node16"><a xlink:href="classtvm_1_1relax_1_1ShapeExprNode.html" target="_top" xlink:title="A shape expression which allows users to construct a shape containing PrimExpr.">
<polygon fill="white" stroke="black" points="1173,-144 1173,-223 1335,-223 1335,-144 1173,-144"/>
<text text-anchor="middle" x="1254" y="-211" font-family="Helvetica,sans-Serif" font-size="10.00">tvm::relax::ShapeExprNode</text>
<polyline fill="none" stroke="black" points="1173,-204 1335,-204 "/>
<text text-anchor="start" x="1181" y="-192" font-family="Helvetica,sans-Serif" font-size="10.00">+ values</text>
<polyline fill="none" stroke="black" points="1173,-185 1335,-185 "/>
<text text-anchor="start" x="1181" y="-173" font-family="Helvetica,sans-Serif" font-size="10.00">+ TVM_FFI_DECLARE_OBJECT</text>
<text text-anchor="start" x="1181" y="-162" font-family="Helvetica,sans-Serif" font-size="10.00">_INFO_FINAL()</text>
<text text-anchor="start" x="1181" y="-151" font-family="Helvetica,sans-Serif" font-size="10.00">+ RegisterReflection()</text>
</a>
</g>
</g>
<!-- Node12&#45;&gt;Node16 -->
<g id="edge15" class="edge">
<title>Node12&#45;&gt;Node16</title>
<path fill="none" stroke="midnightblue" d="M1182.69,-322.52C1198.18,-292.53 1218.88,-252.48 1233.98,-223.25"/>
<polygon fill="none" stroke="midnightblue" points="1179.54,-320.99 1178.06,-331.49 1185.76,-324.21 1179.54,-320.99"/>
</g>
<!-- Node17 -->
<g id="node17" class="node">
<title>Node17</title>
<g id="a_node17"><a xlink:href="classtvm_1_1relax_1_1StringImmNode.html" target="_top" xlink:title="Represent a string literal constant.">
<polygon fill="white" stroke="black" points="1353,-144 1353,-223 1515,-223 1515,-144 1353,-144"/>
<text text-anchor="middle" x="1434" y="-211" font-family="Helvetica,sans-Serif" font-size="10.00">tvm::relax::StringImmNode</text>
<polyline fill="none" stroke="black" points="1353,-204 1515,-204 "/>
<text text-anchor="start" x="1361" y="-192" font-family="Helvetica,sans-Serif" font-size="10.00">+ value</text>
<polyline fill="none" stroke="black" points="1353,-185 1515,-185 "/>
<text text-anchor="start" x="1361" y="-173" font-family="Helvetica,sans-Serif" font-size="10.00">+ TVM_FFI_DECLARE_OBJECT</text>
<text text-anchor="start" x="1361" y="-162" font-family="Helvetica,sans-Serif" font-size="10.00">_INFO_FINAL()</text>
<text text-anchor="start" x="1361" y="-151" font-family="Helvetica,sans-Serif" font-size="10.00">+ RegisterReflection()</text>
</a>
</g>
</g>
<!-- Node12&#45;&gt;Node17 -->
<g id="edge16" class="edge">
<title>Node12&#45;&gt;Node17</title>
<path fill="none" stroke="midnightblue" d="M1201.37,-324.56C1216.14,-311.4 1233.53,-297.47 1251,-287 1289.01,-264.21 1305.16,-272.36 1344,-251 1358.47,-243.04 1373.25,-233.04 1386.55,-223.22"/>
<polygon fill="none" stroke="midnightblue" points="1198.95,-322.04 1193.9,-331.35 1203.66,-327.22 1198.95,-322.04"/>
</g>
<!-- Node18 -->
<g id="node18" class="node">
<title>Node18</title>
<g id="a_node18"><a xlink:href="classtvm_1_1relax_1_1VarNode.html" target="_top" xlink:title="The variable class for all Relax bindings.">
<polygon fill="white" stroke="black" points="1533,-116.5 1533,-250.5 1695,-250.5 1695,-116.5 1533,-116.5"/>
<text text-anchor="middle" x="1614" y="-238.5" font-family="Helvetica,sans-Serif" font-size="10.00">tvm::relax::VarNode</text>
<polyline fill="none" stroke="black" points="1533,-231.5 1695,-231.5 "/>
<text text-anchor="start" x="1541" y="-219.5" font-family="Helvetica,sans-Serif" font-size="10.00">+ vid</text>
<text text-anchor="start" x="1541" y="-208.5" font-family="Helvetica,sans-Serif" font-size="10.00">+ _type_s_eq_hash_kind</text>
<text text-anchor="start" x="1541" y="-197.5" font-family="Helvetica,sans-Serif" font-size="10.00">+ _type_child_slots</text>
<polyline fill="none" stroke="black" points="1533,-190.5 1695,-190.5 "/>
<text text-anchor="start" x="1541" y="-178.5" font-family="Helvetica,sans-Serif" font-size="10.00">+ name_hint()</text>
<text text-anchor="start" x="1541" y="-167.5" font-family="Helvetica,sans-Serif" font-size="10.00">+ SEqual()</text>
<text text-anchor="start" x="1541" y="-156.5" font-family="Helvetica,sans-Serif" font-size="10.00">+ SHash()</text>
<text text-anchor="start" x="1541" y="-145.5" font-family="Helvetica,sans-Serif" font-size="10.00">+ TVM_FFI_DECLARE_OBJECT</text>
<text text-anchor="start" x="1541" y="-134.5" font-family="Helvetica,sans-Serif" font-size="10.00">_INFO()</text>
<text text-anchor="start" x="1541" y="-123.5" font-family="Helvetica,sans-Serif" font-size="10.00">+ RegisterReflection()</text>
</a>
</g>
</g>
<!-- Node12&#45;&gt;Node18 -->
<g id="edge17" class="edge">
<title>Node12&#45;&gt;Node18</title>
<path fill="none" stroke="midnightblue" d="M1197.86,-324.2C1212.94,-310.17 1231.45,-295.75 1251,-287 1362.7,-236.98 1410.52,-296.82 1524,-251 1526.97,-249.8 1529.94,-248.48 1532.88,-247.06"/>
<polygon fill="none" stroke="midnightblue" points="1195.07,-322.02 1190.29,-331.48 1199.92,-327.07 1195.07,-322.02"/>
</g>
<!-- Node19 -->
<g id="node19" class="node">
<title>Node19</title>
<g id="a_node19"><a xlink:href="classtvm_1_1relax_1_1DataflowVarNode.html" target="_top" xlink:title="A sub&#45;type of the variable node used to mark dataflow variables from normal visible &quot;function local&quot; ...">
<polygon fill="white" stroke="black" points="1533,-0.5 1533,-79.5 1695,-79.5 1695,-0.5 1533,-0.5"/>
<text text-anchor="middle" x="1614" y="-67.5" font-family="Helvetica,sans-Serif" font-size="10.00">tvm::relax::DataflowVarNode</text>
<polyline fill="none" stroke="black" points="1533,-60.5 1695,-60.5 "/>
<text text-anchor="start" x="1541" y="-48.5" font-family="Helvetica,sans-Serif" font-size="10.00">+ _type_s_eq_hash_kind</text>
<polyline fill="none" stroke="black" points="1533,-41.5 1695,-41.5 "/>
<text text-anchor="start" x="1541" y="-29.5" font-family="Helvetica,sans-Serif" font-size="10.00">+ TVM_FFI_DECLARE_OBJECT</text>
<text text-anchor="start" x="1541" y="-18.5" font-family="Helvetica,sans-Serif" font-size="10.00">_INFO_FINAL()</text>
<text text-anchor="start" x="1541" y="-7.5" font-family="Helvetica,sans-Serif" font-size="10.00">+ RegisterReflection()</text>
</a>
</g>
</g>
<!-- Node18&#45;&gt;Node19 -->
<g id="edge18" class="edge">
<title>Node18&#45;&gt;Node19</title>
<path fill="none" stroke="midnightblue" d="M1614,-106.03C1614,-96.95 1614,-87.99 1614,-79.76"/>
<polygon fill="none" stroke="midnightblue" points="1610.5,-106.31 1614,-116.31 1617.5,-106.31 1610.5,-106.31"/>
</g>
</g>
</svg>
