<?xml version="1.0" encoding="UTF-8" standalone="no"?>
<!DOCTYPE svg PUBLIC "-//W3C//DTD SVG 1.1//EN"
 "http://www.w3.org/Graphics/SVG/1.1/DTD/svg11.dtd">
<!-- Generated by graphviz version 2.43.0 (0)
 -->
<!-- Title: tvm::tirx::ProducerLoadNode Pages: 1 -->
<svg width="620pt" height="843pt"
 viewBox="0.00 0.00 620.00 843.00" xmlns="http://www.w3.org/2000/svg" xmlns:xlink="http://www.w3.org/1999/xlink">
<g id="graph0" class="graph" transform="scale(1 1) rotate(0) translate(4 839)">
<title>tvm::tirx::ProducerLoadNode</title>
<polygon fill="white" stroke="transparent" points="-4,4 -4,-839 616,-839 616,4 -4,4"/>
<!-- Node1 -->
<g id="node1" class="node">
<title>Node1</title>
<g id="a_node1"><a xlink:title="Load value from the result produced by the producer.">
<polygon fill="#bfbfbf" stroke="black" points="388.5,-0.5 388.5,-79.5 550.5,-79.5 550.5,-0.5 388.5,-0.5"/>
<text text-anchor="middle" x="469.5" y="-67.5" font-family="Helvetica,sans-Serif" font-size="10.00">tvm::tirx::ProducerLoadNode</text>
<polyline fill="none" stroke="black" points="388.5,-60.5 550.5,-60.5 "/>
<text text-anchor="start" x="396.5" y="-48.5" font-family="Helvetica,sans-Serif" font-size="10.00">+ indices</text>
<polyline fill="none" stroke="black" points="388.5,-41.5 550.5,-41.5 "/>
<text text-anchor="start" x="396.5" y="-29.5" font-family="Helvetica,sans-Serif" font-size="10.00">+ TVM_FFI_DECLARE_OBJECT</text>
<text text-anchor="start" x="396.5" y="-18.5" font-family="Helvetica,sans-Serif" font-size="10.00">_INFO_FINAL()</text>
<text text-anchor="start" x="396.5" y="-7.5" font-family="Helvetica,sans-Serif" font-size="10.00">+ RegisterReflection()</text>
</a>
</g>
</g>
<!-- Node2 -->
<g id="node2" class="node">
<title>Node2</title>
<g id="a_node2"><a xlink:href="classtvm_1_1PrimExprNode.html" target="_top" xlink:title="Base node of all primitive expressions.">
<polygon fill="white" stroke="black" points="327.5,-117.5 327.5,-196.5 489.5,-196.5 489.5,-117.5 327.5,-117.5"/>
<text text-anchor="middle" x="408.5" y="-184.5" font-family="Helvetica,sans-Serif" font-size="10.00">tvm::PrimExprNode</text>
<polyline fill="none" stroke="black" points="327.5,-177.5 489.5,-177.5 "/>
<text text-anchor="start" x="335.5" y="-165.5" font-family="Helvetica,sans-Serif" font-size="10.00">+ _type_child_slots</text>
<polyline fill="none" stroke="black" points="327.5,-158.5 489.5,-158.5 "/>
<text text-anchor="start" x="335.5" y="-146.5" font-family="Helvetica,sans-Serif" font-size="10.00">+ TVM_FFI_DECLARE_OBJECT</text>
<text text-anchor="start" x="335.5" y="-135.5" font-family="Helvetica,sans-Serif" font-size="10.00">_INFO()</text>
<text text-anchor="start" x="335.5" y="-124.5" font-family="Helvetica,sans-Serif" font-size="10.00">+ RegisterReflection()</text>
</a>
</g>
</g>
<!-- Node2&#45;&gt;Node1 -->
<g id="edge1" class="edge">
<title>Node2&#45;&gt;Node1</title>
<path fill="none" stroke="midnightblue" d="M433.76,-108.38C438.82,-98.83 444.09,-88.91 448.97,-79.71"/>
<polygon fill="none" stroke="midnightblue" points="430.58,-106.91 428.98,-117.39 436.76,-110.19 430.58,-106.91"/>
</g>
<!-- Node3 -->
<g id="node3" class="node">
<title>Node3</title>
<g id="a_node3"><a xlink:href="classtvm_1_1BaseExprNode.html" target="_top" xlink:title="Base type of all the expressions.">
<polygon fill="white" stroke="black" points="165.5,-407 165.5,-497 327.5,-497 327.5,-407 165.5,-407"/>
<text text-anchor="middle" x="246.5" y="-485" font-family="Helvetica,sans-Serif" font-size="10.00">tvm::BaseExprNode</text>
<polyline fill="none" stroke="black" points="165.5,-478 327.5,-478 "/>
<text text-anchor="start" x="173.5" y="-466" font-family="Helvetica,sans-Serif" font-size="10.00">+ _type_s_eq_hash_kind</text>
<text text-anchor="start" x="173.5" y="-455" font-family="Helvetica,sans-Serif" font-size="10.00">+ _type_child_slots</text>
<polyline fill="none" stroke="black" points="165.5,-448 327.5,-448 "/>
<text text-anchor="start" x="173.5" y="-436" font-family="Helvetica,sans-Serif" font-size="10.00">+ TVM_FFI_DECLARE_OBJECT</text>
<text text-anchor="start" x="173.5" y="-425" font-family="Helvetica,sans-Serif" font-size="10.00">_INFO()</text>
<text text-anchor="start" x="173.5" y="-414" font-family="Helvetica,sans-Serif" font-size="10.00">+ RegisterReflection()</text>
</a>
</g>
</g>
<!-- Node3&#45;&gt;Node2 -->
<g id="edge2" class="edge">
<title>Node3&#45;&gt;Node2</title>
<path fill="none" stroke="midnightblue" d="M275.91,-397.81C307.95,-339.86 358.45,-248.53 386.99,-196.91"/>
<polygon fill="none" stroke="midnightblue" points="272.7,-396.37 270.93,-406.82 278.83,-399.76 272.7,-396.37"/>
</g>
<!-- Node4 -->
<g id="node4" class="node">
<title>Node4</title>
<g id="a_node4"><a xlink:title=" ">
<polygon fill="white" stroke="#bfbfbf" points="354.5,-666 354.5,-723 418.5,-723 418.5,-666 354.5,-666"/>
<text text-anchor="middle" x="386.5" y="-711" font-family="Helvetica,sans-Serif" font-size="10.00">ffi::Object</text>
<polyline fill="none" stroke="#bfbfbf" points="354.5,-704 418.5,-704 "/>
<text text-anchor="middle" x="386.5" y="-692" font-family="Helvetica,sans-Serif" font-size="10.00"> </text>
<polyline fill="none" stroke="#bfbfbf" points="354.5,-685 418.5,-685 "/>
<text text-anchor="middle" x="386.5" y="-673" font-family="Helvetica,sans-Serif" font-size="10.00"> </text>
</a>
</g>
</g>
<!-- Node4&#45;&gt;Node3 -->
<g id="edge3" class="edge">
<title>Node4&#45;&gt;Node3</title>
<path fill="none" stroke="midnightblue" d="M365.39,-657.23C340.49,-614.46 299.11,-543.38 272.33,-497.37"/>
<polygon fill="none" stroke="midnightblue" points="362.38,-659.03 370.44,-665.91 368.43,-655.51 362.38,-659.03"/>
</g>
<!-- Node5 -->
<g id="node5" class="node">
<title>Node5</title>
<g id="a_node5"><a xlink:href="classtvm_1_1Span.html" target="_top" xlink:title=" ">
<polygon fill="white" stroke="black" points="0,-649.5 0,-739.5 159,-739.5 159,-649.5 0,-649.5"/>
<text text-anchor="middle" x="79.5" y="-727.5" font-family="Helvetica,sans-Serif" font-size="10.00">tvm::Span</text>
<polyline fill="none" stroke="black" points="0,-720.5 159,-720.5 "/>
<text text-anchor="middle" x="79.5" y="-708.5" font-family="Helvetica,sans-Serif" font-size="10.00"> </text>
<polyline fill="none" stroke="black" points="0,-701.5 159,-701.5 "/>
<text text-anchor="start" x="8" y="-689.5" font-family="Helvetica,sans-Serif" font-size="10.00">+ Span()</text>
<text text-anchor="start" x="8" y="-678.5" font-family="Helvetica,sans-Serif" font-size="10.00">+ Merge()</text>
<text text-anchor="start" x="8" y="-667.5" font-family="Helvetica,sans-Serif" font-size="10.00">+ TVM_FFI_DEFINE_OBJECT</text>
<text text-anchor="start" x="8" y="-656.5" font-family="Helvetica,sans-Serif" font-size="10.00">_REF_METHODS_NULLABLE()</text>
</a>
</g>
</g>
<!-- Node5&#45;&gt;Node3 -->
<g id="edge4" class="edge">
<title>Node5&#45;&gt;Node3</title>
<path fill="none" stroke="#404040" d="M110.13,-649.39C137.94,-609.34 179.04,-550.15 208.84,-507.23"/>
<polygon fill="none" stroke="#404040" points="208.94,-507.1 209.07,-499.89 215.78,-497.24 215.64,-504.45 208.94,-507.1"/>
<text text-anchor="middle" x="147" y="-623" font-family="Helvetica,sans-Serif" font-size="10.00"> +span</text>
</g>
<!-- Node6 -->
<g id="node6" class="node">
<title>Node6</title>
<g id="a_node6"><a xlink:title=" ">
<polygon fill="white" stroke="#bfbfbf" points="216.5,-777.5 216.5,-834.5 296.5,-834.5 296.5,-777.5 216.5,-777.5"/>
<text text-anchor="middle" x="256.5" y="-822.5" font-family="Helvetica,sans-Serif" font-size="10.00">ffi::ObjectRef</text>
<polyline fill="none" stroke="#bfbfbf" points="216.5,-815.5 296.5,-815.5 "/>
<text text-anchor="middle" x="256.5" y="-803.5" font-family="Helvetica,sans-Serif" font-size="10.00"> </text>
<polyline fill="none" stroke="#bfbfbf" points="216.5,-796.5 296.5,-796.5 "/>
<text text-anchor="middle" x="256.5" y="-784.5" font-family="Helvetica,sans-Serif" font-size="10.00"> </text>
</a>
</g>
</g>
<!-- Node6&#45;&gt;Node5 -->
<g id="edge5" class="edge">
<title>Node6&#45;&gt;Node5</title>
<path fill="none" stroke="midnightblue" d="M207.43,-774.64C189.91,-763.81 169.8,-751.37 150.8,-739.61"/>
<polygon fill="none" stroke="midnightblue" points="205.99,-777.87 216.34,-780.15 209.67,-771.92 205.99,-777.87"/>
</g>
<!-- Node7 -->
<g id="node7" class="node">
<title>Node7</title>
<g id="a_node7"><a xlink:href="classtvm_1_1Type.html" target="_top" xlink:title="Managed reference to TypeNode.">
<polygon fill="white" stroke="black" points="177,-660.5 177,-728.5 336,-728.5 336,-660.5 177,-660.5"/>
<text text-anchor="middle" x="256.5" y="-716.5" font-family="Helvetica,sans-Serif" font-size="10.00">tvm::Type</text>
<polyline fill="none" stroke="black" points="177,-709.5 336,-709.5 "/>
<text text-anchor="middle" x="256.5" y="-697.5" font-family="Helvetica,sans-Serif" font-size="10.00"> </text>
<polyline fill="none" stroke="black" points="177,-690.5 336,-690.5 "/>
<text text-anchor="start" x="185" y="-678.5" font-family="Helvetica,sans-Serif" font-size="10.00">+ TVM_FFI_DEFINE_OBJECT</text>
<text text-anchor="start" x="185" y="-667.5" font-family="Helvetica,sans-Serif" font-size="10.00">_REF_METHODS_NULLABLE()</text>
</a>
</g>
</g>
<!-- Node6&#45;&gt;Node7 -->
<g id="edge7" class="edge">
<title>Node6&#45;&gt;Node7</title>
<path fill="none" stroke="midnightblue" d="M256.5,-767.2C256.5,-754.64 256.5,-740.76 256.5,-728.59"/>
<polygon fill="none" stroke="midnightblue" points="253,-767.37 256.5,-777.37 260,-767.37 253,-767.37"/>
</g>
<!-- Node10 -->
<g id="node10" class="node">
<title>Node10</title>
<g id="a_node10"><a xlink:href="classtvm_1_1PrimExprConvertible.html" target="_top" xlink:title="Managed reference to PrimExprConvertibleNode.">
<polygon fill="white" stroke="black" points="440,-660.5 440,-728.5 599,-728.5 599,-660.5 440,-660.5"/>
<text text-anchor="middle" x="519.5" y="-716.5" font-family="Helvetica,sans-Serif" font-size="10.00">tvm::PrimExprConvertible</text>
<polyline fill="none" stroke="black" points="440,-709.5 599,-709.5 "/>
<text text-anchor="middle" x="519.5" y="-697.5" font-family="Helvetica,sans-Serif" font-size="10.00"> </text>
<polyline fill="none" stroke="black" points="440,-690.5 599,-690.5 "/>
<text text-anchor="start" x="448" y="-678.5" font-family="Helvetica,sans-Serif" font-size="10.00">+ TVM_FFI_DEFINE_OBJECT</text>
<text text-anchor="start" x="448" y="-667.5" font-family="Helvetica,sans-Serif" font-size="10.00">_REF_METHODS_NULLABLE()</text>
</a>
</g>
</g>
<!-- Node6&#45;&gt;Node10 -->
<g id="edge11" class="edge">
<title>Node6&#45;&gt;Node10</title>
<path fill="none" stroke="midnightblue" d="M306.43,-787.33C340.78,-774.85 387.28,-757.33 427.5,-740 435.81,-736.42 444.46,-732.5 452.99,-728.52"/>
<polygon fill="none" stroke="midnightblue" points="304.84,-784.18 296.63,-790.87 307.22,-790.76 304.84,-784.18"/>
</g>
<!-- Node7&#45;&gt;Node3 -->
<g id="edge6" class="edge">
<title>Node7&#45;&gt;Node3</title>
<path fill="none" stroke="#404040" d="M255.12,-660.31C253.5,-621.4 250.79,-556.26 248.84,-509.37"/>
<polygon fill="none" stroke="#404040" points="248.84,-509.26 244.59,-503.43 248.34,-497.27 252.59,-503.1 248.84,-509.26"/>
<text text-anchor="middle" x="265.5" y="-623" font-family="Helvetica,sans-Serif" font-size="10.00"> +ty</text>
</g>
<!-- Node8 -->
<g id="node8" class="node">
<title>Node8</title>
<g id="a_node8"><a xlink:href="classtvm_1_1runtime_1_1DataType.html" target="_top" xlink:title="Runtime primitive data type.">
<polygon fill="white" stroke="black" points="345.5,-302.5 345.5,-601.5 485.5,-601.5 485.5,-302.5 345.5,-302.5"/>
<text text-anchor="middle" x="415.5" y="-589.5" font-family="Helvetica,sans-Serif" font-size="10.00">tvm::runtime::DataType</text>
<polyline fill="none" stroke="black" points="345.5,-582.5 485.5,-582.5 "/>
<text text-anchor="middle" x="415.5" y="-570.5" font-family="Helvetica,sans-Serif" font-size="10.00"> </text>
<polyline fill="none" stroke="black" points="345.5,-563.5 485.5,-563.5 "/>
<text text-anchor="start" x="353.5" y="-551.5" font-family="Helvetica,sans-Serif" font-size="10.00">+ DataType()</text>
<text text-anchor="start" x="353.5" y="-540.5" font-family="Helvetica,sans-Serif" font-size="10.00">+ DataType()</text>
<text text-anchor="start" x="353.5" y="-529.5" font-family="Helvetica,sans-Serif" font-size="10.00">+ DataType()</text>
<text text-anchor="start" x="353.5" y="-518.5" font-family="Helvetica,sans-Serif" font-size="10.00">+ code()</text>
<text text-anchor="start" x="353.5" y="-507.5" font-family="Helvetica,sans-Serif" font-size="10.00">+ bits()</text>
<text text-anchor="start" x="353.5" y="-496.5" font-family="Helvetica,sans-Serif" font-size="10.00">+ bytes()</text>
<text text-anchor="start" x="353.5" y="-485.5" font-family="Helvetica,sans-Serif" font-size="10.00">+ lanes()</text>
<text text-anchor="start" x="353.5" y="-474.5" font-family="Helvetica,sans-Serif" font-size="10.00">+ vscale_factor()</text>
<text text-anchor="start" x="353.5" y="-463.5" font-family="Helvetica,sans-Serif" font-size="10.00">+ get_lanes_or_vscale</text>
<text text-anchor="start" x="353.5" y="-452.5" font-family="Helvetica,sans-Serif" font-size="10.00">_factor()</text>
<text text-anchor="start" x="353.5" y="-441.5" font-family="Helvetica,sans-Serif" font-size="10.00">+ is_scalar()</text>
<text text-anchor="start" x="353.5" y="-430.5" font-family="Helvetica,sans-Serif" font-size="10.00">and 37 more...</text>
<text text-anchor="start" x="353.5" y="-419.5" font-family="Helvetica,sans-Serif" font-size="10.00">+ Int()</text>
<text text-anchor="start" x="353.5" y="-408.5" font-family="Helvetica,sans-Serif" font-size="10.00">+ UInt()</text>
<text text-anchor="start" x="353.5" y="-397.5" font-family="Helvetica,sans-Serif" font-size="10.00">+ Float()</text>
<text text-anchor="start" x="353.5" y="-386.5" font-family="Helvetica,sans-Serif" font-size="10.00">+ BFloat()</text>
<text text-anchor="start" x="353.5" y="-375.5" font-family="Helvetica,sans-Serif" font-size="10.00">+ Float8E3M4()</text>
<text text-anchor="start" x="353.5" y="-364.5" font-family="Helvetica,sans-Serif" font-size="10.00">+ Float8E4M3()</text>
<text text-anchor="start" x="353.5" y="-353.5" font-family="Helvetica,sans-Serif" font-size="10.00">+ Float8E4M3B11FNUZ()</text>
<text text-anchor="start" x="353.5" y="-342.5" font-family="Helvetica,sans-Serif" font-size="10.00">+ Float8E4M3FN()</text>
<text text-anchor="start" x="353.5" y="-331.5" font-family="Helvetica,sans-Serif" font-size="10.00">+ Float8E4M3FNUZ()</text>
<text text-anchor="start" x="353.5" y="-320.5" font-family="Helvetica,sans-Serif" font-size="10.00">+ Float8E5M2()</text>
<text text-anchor="start" x="353.5" y="-309.5" font-family="Helvetica,sans-Serif" font-size="10.00">and 9 more...</text>
</a>
</g>
</g>
<!-- Node8&#45;&gt;Node2 -->
<g id="edge8" class="edge">
<title>Node8&#45;&gt;Node2</title>
<path fill="none" stroke="#404040" d="M404.88,-302.47C403.85,-273.47 403.51,-243.28 404.5,-215 404.57,-212.96 404.66,-210.87 404.76,-208.76"/>
<polygon fill="none" stroke="#404040" points="404.76,-208.6 401.1,-202.39 405.42,-196.61 409.09,-202.82 404.76,-208.6"/>
<text text-anchor="middle" x="424.5" y="-247" font-family="Helvetica,sans-Serif" font-size="10.00"> +dtype</text>
</g>
<!-- Node9 -->
<g id="node9" class="node">
<title>Node9</title>
<g id="a_node9"><a xlink:href="classtvm_1_1tirx_1_1DataProducer.html" target="_top" xlink:title="Managed reference to DataProducerNode.">
<polygon fill="white" stroke="black" points="453,-215.5 453,-283.5 612,-283.5 612,-215.5 453,-215.5"/>
<text text-anchor="middle" x="532.5" y="-271.5" font-family="Helvetica,sans-Serif" font-size="10.00">tvm::tirx::DataProducer</text>
<polyline fill="none" stroke="black" points="453,-264.5 612,-264.5 "/>
<text text-anchor="middle" x="532.5" y="-252.5" font-family="Helvetica,sans-Serif" font-size="10.00"> </text>
<polyline fill="none" stroke="black" points="453,-245.5 612,-245.5 "/>
<text text-anchor="start" x="461" y="-233.5" font-family="Helvetica,sans-Serif" font-size="10.00">+ TVM_FFI_DEFINE_OBJECT</text>
<text text-anchor="start" x="461" y="-222.5" font-family="Helvetica,sans-Serif" font-size="10.00">_REF_METHODS_NULLABLE()</text>
</a>
</g>
</g>
<!-- Node9&#45;&gt;Node1 -->
<g id="edge9" class="edge">
<title>Node9&#45;&gt;Node1</title>
<path fill="none" stroke="#404040" d="M524.99,-215.24C518.68,-188.48 509.03,-150.02 498.5,-117 495.82,-108.58 492.71,-99.74 489.55,-91.18"/>
<polygon fill="none" stroke="#404040" points="489.48,-90.99 483.62,-86.78 485.24,-79.76 491.1,-83.96 489.48,-90.99"/>
<text text-anchor="middle" x="547" y="-154.5" font-family="Helvetica,sans-Serif" font-size="10.00"> +producer</text>
</g>
<!-- Node10&#45;&gt;Node9 -->
<g id="edge10" class="edge">
<title>Node10&#45;&gt;Node9</title>
<path fill="none" stroke="midnightblue" d="M520.78,-649.98C523.37,-561.52 529.22,-362.44 531.53,-283.58"/>
<polygon fill="none" stroke="midnightblue" points="517.27,-650.1 520.48,-660.2 524.27,-650.31 517.27,-650.1"/>
</g>
</g>
</svg>
