<?xml version="1.0" encoding="UTF-8" standalone="no"?>
<!DOCTYPE svg PUBLIC "-//W3C//DTD SVG 1.1//EN"
 "http://www.w3.org/Graphics/SVG/1.1/DTD/svg11.dtd">
<!-- Generated by graphviz version 2.43.0 (0)
 -->
<!-- Title: tvm::tirx::LetNode Pages: 1 -->
<svg width="604pt" height="861pt"
 viewBox="0.00 0.00 603.50 861.00" xmlns="http://www.w3.org/2000/svg" xmlns:xlink="http://www.w3.org/1999/xlink">
<g id="graph0" class="graph" transform="scale(1 1) rotate(0) translate(4 857)">
<title>tvm::tirx::LetNode</title>
<polygon fill="white" stroke="transparent" points="-4,4 -4,-857 599.5,-857 599.5,4 -4,4"/>
<!-- Node1 -->
<g id="node1" class="node">
<title>Node1</title>
<g id="a_node1"><a xlink:title="Let binding. Bind var to value then evaluate body.">
<polygon fill="#bfbfbf" stroke="black" points="370,-0.5 370,-79.5 532,-79.5 532,-0.5 370,-0.5"/>
<text text-anchor="middle" x="451" y="-67.5" font-family="Helvetica,sans-Serif" font-size="10.00">tvm::tirx::LetNode</text>
<polyline fill="none" stroke="black" points="370,-60.5 532,-60.5 "/>
<text text-anchor="middle" x="451" y="-48.5" font-family="Helvetica,sans-Serif" font-size="10.00"> </text>
<polyline fill="none" stroke="black" points="370,-41.5 532,-41.5 "/>
<text text-anchor="start" x="378" y="-29.5" font-family="Helvetica,sans-Serif" font-size="10.00">+ TVM_FFI_DECLARE_OBJECT</text>
<text text-anchor="start" x="378" y="-18.5" font-family="Helvetica,sans-Serif" font-size="10.00">_INFO_FINAL()</text>
<text text-anchor="start" x="378" y="-7.5" font-family="Helvetica,sans-Serif" font-size="10.00">+ RegisterReflection()</text>
</a>
</g>
</g>
<!-- Node2 -->
<g id="node2" class="node">
<title>Node2</title>
<g id="a_node2"><a xlink:href="classtvm_1_1PrimExprNode.html" target="_top" xlink:title="Base node of all primitive expressions.">
<polygon fill="white" stroke="black" points="212,-160.5 212,-239.5 374,-239.5 374,-160.5 212,-160.5"/>
<text text-anchor="middle" x="293" y="-227.5" font-family="Helvetica,sans-Serif" font-size="10.00">tvm::PrimExprNode</text>
<polyline fill="none" stroke="black" points="212,-220.5 374,-220.5 "/>
<text text-anchor="start" x="220" y="-208.5" font-family="Helvetica,sans-Serif" font-size="10.00">+ _type_child_slots</text>
<polyline fill="none" stroke="black" points="212,-201.5 374,-201.5 "/>
<text text-anchor="start" x="220" y="-189.5" font-family="Helvetica,sans-Serif" font-size="10.00">+ TVM_FFI_DECLARE_OBJECT</text>
<text text-anchor="start" x="220" y="-178.5" font-family="Helvetica,sans-Serif" font-size="10.00">_INFO()</text>
<text text-anchor="start" x="220" y="-167.5" font-family="Helvetica,sans-Serif" font-size="10.00">+ RegisterReflection()</text>
</a>
</g>
</g>
<!-- Node2&#45;&gt;Node1 -->
<g id="edge1" class="edge">
<title>Node2&#45;&gt;Node1</title>
<path fill="none" stroke="midnightblue" d="M338.74,-153.26C362.11,-129.89 390.22,-101.78 412.47,-79.53"/>
<polygon fill="none" stroke="midnightblue" points="336.25,-150.8 331.65,-160.35 341.2,-155.75 336.25,-150.8"/>
</g>
<!-- Node3 -->
<g id="node3" class="node">
<title>Node3</title>
<g id="a_node3"><a xlink:href="classtvm_1_1BaseExprNode.html" target="_top" xlink:title="Base type of all the expressions.">
<polygon fill="white" stroke="black" points="81,-425 81,-515 243,-515 243,-425 81,-425"/>
<text text-anchor="middle" x="162" y="-503" font-family="Helvetica,sans-Serif" font-size="10.00">tvm::BaseExprNode</text>
<polyline fill="none" stroke="black" points="81,-496 243,-496 "/>
<text text-anchor="start" x="89" y="-484" font-family="Helvetica,sans-Serif" font-size="10.00">+ _type_s_eq_hash_kind</text>
<text text-anchor="start" x="89" y="-473" font-family="Helvetica,sans-Serif" font-size="10.00">+ _type_child_slots</text>
<polyline fill="none" stroke="black" points="81,-466 243,-466 "/>
<text text-anchor="start" x="89" y="-454" font-family="Helvetica,sans-Serif" font-size="10.00">+ TVM_FFI_DECLARE_OBJECT</text>
<text text-anchor="start" x="89" y="-443" font-family="Helvetica,sans-Serif" font-size="10.00">_INFO()</text>
<text text-anchor="start" x="89" y="-432" font-family="Helvetica,sans-Serif" font-size="10.00">+ RegisterReflection()</text>
</a>
</g>
</g>
<!-- Node3&#45;&gt;Node2 -->
<g id="edge2" class="edge">
<title>Node3&#45;&gt;Node2</title>
<path fill="none" stroke="midnightblue" d="M188.07,-415.68C213.47,-363.71 251.48,-285.94 274.1,-239.66"/>
<polygon fill="none" stroke="midnightblue" points="184.88,-414.22 183.63,-424.75 191.17,-417.3 184.88,-414.22"/>
</g>
<!-- Node4 -->
<g id="node4" class="node">
<title>Node4</title>
<g id="a_node4"><a xlink:title=" ">
<polygon fill="white" stroke="#bfbfbf" points="0,-684 0,-741 64,-741 64,-684 0,-684"/>
<text text-anchor="middle" x="32" y="-729" font-family="Helvetica,sans-Serif" font-size="10.00">ffi::Object</text>
<polyline fill="none" stroke="#bfbfbf" points="0,-722 64,-722 "/>
<text text-anchor="middle" x="32" y="-710" font-family="Helvetica,sans-Serif" font-size="10.00"> </text>
<polyline fill="none" stroke="#bfbfbf" points="0,-703 64,-703 "/>
<text text-anchor="middle" x="32" y="-691" font-family="Helvetica,sans-Serif" font-size="10.00"> </text>
</a>
</g>
</g>
<!-- Node4&#45;&gt;Node3 -->
<g id="edge3" class="edge">
<title>Node4&#45;&gt;Node3</title>
<path fill="none" stroke="midnightblue" d="M51.75,-674.96C74.88,-632.17 113.2,-561.28 138.02,-515.37"/>
<polygon fill="none" stroke="midnightblue" points="48.59,-673.45 46.91,-683.91 54.75,-676.78 48.59,-673.45"/>
</g>
<!-- Node5 -->
<g id="node5" class="node">
<title>Node5</title>
<g id="a_node5"><a xlink:href="classtvm_1_1Span.html" target="_top" xlink:title=" ">
<polygon fill="white" stroke="black" points="82.5,-667.5 82.5,-757.5 241.5,-757.5 241.5,-667.5 82.5,-667.5"/>
<text text-anchor="middle" x="162" y="-745.5" font-family="Helvetica,sans-Serif" font-size="10.00">tvm::Span</text>
<polyline fill="none" stroke="black" points="82.5,-738.5 241.5,-738.5 "/>
<text text-anchor="middle" x="162" y="-726.5" font-family="Helvetica,sans-Serif" font-size="10.00"> </text>
<polyline fill="none" stroke="black" points="82.5,-719.5 241.5,-719.5 "/>
<text text-anchor="start" x="90.5" y="-707.5" font-family="Helvetica,sans-Serif" font-size="10.00">+ Span()</text>
<text text-anchor="start" x="90.5" y="-696.5" font-family="Helvetica,sans-Serif" font-size="10.00">+ Merge()</text>
<text text-anchor="start" x="90.5" y="-685.5" font-family="Helvetica,sans-Serif" font-size="10.00">+ TVM_FFI_DEFINE_OBJECT</text>
<text text-anchor="start" x="90.5" y="-674.5" font-family="Helvetica,sans-Serif" font-size="10.00">_REF_METHODS_NULLABLE()</text>
</a>
</g>
</g>
<!-- Node5&#45;&gt;Node3 -->
<g id="edge4" class="edge">
<title>Node5&#45;&gt;Node3</title>
<path fill="none" stroke="#404040" d="M162,-667.39C162,-628.02 162,-570.15 162,-527.42"/>
<polygon fill="none" stroke="#404040" points="162,-527.24 158,-521.24 162,-515.24 166,-521.24 162,-527.24"/>
<text text-anchor="middle" x="179.5" y="-641" font-family="Helvetica,sans-Serif" font-size="10.00"> +span</text>
</g>
<!-- Node6 -->
<g id="node6" class="node">
<title>Node6</title>
<g id="a_node6"><a xlink:title=" ">
<polygon fill="white" stroke="#bfbfbf" points="299,-795.5 299,-852.5 379,-852.5 379,-795.5 299,-795.5"/>
<text text-anchor="middle" x="339" y="-840.5" font-family="Helvetica,sans-Serif" font-size="10.00">ffi::ObjectRef</text>
<polyline fill="none" stroke="#bfbfbf" points="299,-833.5 379,-833.5 "/>
<text text-anchor="middle" x="339" y="-821.5" font-family="Helvetica,sans-Serif" font-size="10.00"> </text>
<polyline fill="none" stroke="#bfbfbf" points="299,-814.5 379,-814.5 "/>
<text text-anchor="middle" x="339" y="-802.5" font-family="Helvetica,sans-Serif" font-size="10.00"> </text>
</a>
</g>
</g>
<!-- Node6&#45;&gt;Node5 -->
<g id="edge5" class="edge">
<title>Node6&#45;&gt;Node5</title>
<path fill="none" stroke="midnightblue" d="M289.93,-792.64C272.41,-781.81 252.3,-769.37 233.3,-757.61"/>
<polygon fill="none" stroke="midnightblue" points="288.49,-795.87 298.84,-798.15 292.17,-789.92 288.49,-795.87"/>
</g>
<!-- Node7 -->
<g id="node7" class="node">
<title>Node7</title>
<g id="a_node7"><a xlink:href="classtvm_1_1Type.html" target="_top" xlink:title="Managed reference to TypeNode.">
<polygon fill="white" stroke="black" points="259.5,-678.5 259.5,-746.5 418.5,-746.5 418.5,-678.5 259.5,-678.5"/>
<text text-anchor="middle" x="339" y="-734.5" font-family="Helvetica,sans-Serif" font-size="10.00">tvm::Type</text>
<polyline fill="none" stroke="black" points="259.5,-727.5 418.5,-727.5 "/>
<text text-anchor="middle" x="339" y="-715.5" font-family="Helvetica,sans-Serif" font-size="10.00"> </text>
<polyline fill="none" stroke="black" points="259.5,-708.5 418.5,-708.5 "/>
<text text-anchor="start" x="267.5" y="-696.5" font-family="Helvetica,sans-Serif" font-size="10.00">+ TVM_FFI_DEFINE_OBJECT</text>
<text text-anchor="start" x="267.5" y="-685.5" font-family="Helvetica,sans-Serif" font-size="10.00">_REF_METHODS_NULLABLE()</text>
</a>
</g>
</g>
<!-- Node6&#45;&gt;Node7 -->
<g id="edge7" class="edge">
<title>Node6&#45;&gt;Node7</title>
<path fill="none" stroke="midnightblue" d="M339,-785.2C339,-772.64 339,-758.76 339,-746.59"/>
<polygon fill="none" stroke="midnightblue" points="335.5,-785.37 339,-795.37 342.5,-785.37 335.5,-785.37"/>
</g>
<!-- Node11 -->
<g id="node11" class="node">
<title>Node11</title>
<g id="a_node11"><a xlink:href="classtvm_1_1BaseExpr.html" target="_top" xlink:title="Managed reference to BaseExprNode.">
<polygon fill="white" stroke="black" points="436.5,-678.5 436.5,-746.5 595.5,-746.5 595.5,-678.5 436.5,-678.5"/>
<text text-anchor="middle" x="516" y="-734.5" font-family="Helvetica,sans-Serif" font-size="10.00">tvm::BaseExpr</text>
<polyline fill="none" stroke="black" points="436.5,-727.5 595.5,-727.5 "/>
<text text-anchor="middle" x="516" y="-715.5" font-family="Helvetica,sans-Serif" font-size="10.00"> </text>
<polyline fill="none" stroke="black" points="436.5,-708.5 595.5,-708.5 "/>
<text text-anchor="start" x="444.5" y="-696.5" font-family="Helvetica,sans-Serif" font-size="10.00">+ TVM_FFI_DEFINE_OBJECT</text>
<text text-anchor="start" x="444.5" y="-685.5" font-family="Helvetica,sans-Serif" font-size="10.00">_REF_METHODS_NULLABLE()</text>
</a>
</g>
</g>
<!-- Node6&#45;&gt;Node11 -->
<g id="edge12" class="edge">
<title>Node6&#45;&gt;Node11</title>
<path fill="none" stroke="midnightblue" d="M387.81,-792.8C411.01,-778.45 438.8,-761.26 462.57,-746.56"/>
<polygon fill="none" stroke="midnightblue" points="385.83,-789.92 379.16,-798.15 389.51,-795.87 385.83,-789.92"/>
</g>
<!-- Node7&#45;&gt;Node3 -->
<g id="edge6" class="edge">
<title>Node7&#45;&gt;Node3</title>
<path fill="none" stroke="#404040" d="M304.09,-678.33C287.4,-661.61 267.69,-640.56 252,-620 229.49,-590.49 207.86,-555.01 191.45,-526.07"/>
<polygon fill="none" stroke="#404040" points="191.3,-525.79 184.87,-522.51 185.43,-515.32 191.85,-518.6 191.3,-525.79"/>
<text text-anchor="middle" x="286" y="-641" font-family="Helvetica,sans-Serif" font-size="10.00"> +ty</text>
</g>
<!-- Node8 -->
<g id="node8" class="node">
<title>Node8</title>
<g id="a_node8"><a xlink:href="classtvm_1_1runtime_1_1DataType.html" target="_top" xlink:title="Runtime primitive data type.">
<polygon fill="white" stroke="black" points="261,-320.5 261,-619.5 401,-619.5 401,-320.5 261,-320.5"/>
<text text-anchor="middle" x="331" y="-607.5" font-family="Helvetica,sans-Serif" font-size="10.00">tvm::runtime::DataType</text>
<polyline fill="none" stroke="black" points="261,-600.5 401,-600.5 "/>
<text text-anchor="middle" x="331" y="-588.5" font-family="Helvetica,sans-Serif" font-size="10.00"> </text>
<polyline fill="none" stroke="black" points="261,-581.5 401,-581.5 "/>
<text text-anchor="start" x="269" y="-569.5" font-family="Helvetica,sans-Serif" font-size="10.00">+ DataType()</text>
<text text-anchor="start" x="269" y="-558.5" font-family="Helvetica,sans-Serif" font-size="10.00">+ DataType()</text>
<text text-anchor="start" x="269" y="-547.5" font-family="Helvetica,sans-Serif" font-size="10.00">+ DataType()</text>
<text text-anchor="start" x="269" y="-536.5" font-family="Helvetica,sans-Serif" font-size="10.00">+ code()</text>
<text text-anchor="start" x="269" y="-525.5" font-family="Helvetica,sans-Serif" font-size="10.00">+ bits()</text>
<text text-anchor="start" x="269" y="-514.5" font-family="Helvetica,sans-Serif" font-size="10.00">+ bytes()</text>
<text text-anchor="start" x="269" y="-503.5" font-family="Helvetica,sans-Serif" font-size="10.00">+ lanes()</text>
<text text-anchor="start" x="269" y="-492.5" font-family="Helvetica,sans-Serif" font-size="10.00">+ vscale_factor()</text>
<text text-anchor="start" x="269" y="-481.5" font-family="Helvetica,sans-Serif" font-size="10.00">+ get_lanes_or_vscale</text>
<text text-anchor="start" x="269" y="-470.5" font-family="Helvetica,sans-Serif" font-size="10.00">_factor()</text>
<text text-anchor="start" x="269" y="-459.5" font-family="Helvetica,sans-Serif" font-size="10.00">+ is_scalar()</text>
<text text-anchor="start" x="269" y="-448.5" font-family="Helvetica,sans-Serif" font-size="10.00">and 37 more...</text>
<text text-anchor="start" x="269" y="-437.5" font-family="Helvetica,sans-Serif" font-size="10.00">+ Int()</text>
<text text-anchor="start" x="269" y="-426.5" font-family="Helvetica,sans-Serif" font-size="10.00">+ UInt()</text>
<text text-anchor="start" x="269" y="-415.5" font-family="Helvetica,sans-Serif" font-size="10.00">+ Float()</text>
<text text-anchor="start" x="269" y="-404.5" font-family="Helvetica,sans-Serif" font-size="10.00">+ BFloat()</text>
<text text-anchor="start" x="269" y="-393.5" font-family="Helvetica,sans-Serif" font-size="10.00">+ Float8E3M4()</text>
<text text-anchor="start" x="269" y="-382.5" font-family="Helvetica,sans-Serif" font-size="10.00">+ Float8E4M3()</text>
<text text-anchor="start" x="269" y="-371.5" font-family="Helvetica,sans-Serif" font-size="10.00">+ Float8E4M3B11FNUZ()</text>
<text text-anchor="start" x="269" y="-360.5" font-family="Helvetica,sans-Serif" font-size="10.00">+ Float8E4M3FN()</text>
<text text-anchor="start" x="269" y="-349.5" font-family="Helvetica,sans-Serif" font-size="10.00">+ Float8E4M3FNUZ()</text>
<text text-anchor="start" x="269" y="-338.5" font-family="Helvetica,sans-Serif" font-size="10.00">+ Float8E5M2()</text>
<text text-anchor="start" x="269" y="-327.5" font-family="Helvetica,sans-Serif" font-size="10.00">and 9 more...</text>
</a>
</g>
</g>
<!-- Node8&#45;&gt;Node2 -->
<g id="edge8" class="edge">
<title>Node8&#45;&gt;Node2</title>
<path fill="none" stroke="#404040" d="M309.94,-320.5C306.43,-295.7 303.01,-271.56 300.17,-251.56"/>
<polygon fill="none" stroke="#404040" points="300.17,-251.54 295.36,-246.16 298.48,-239.66 303.28,-245.04 300.17,-251.54"/>
<text text-anchor="middle" x="326" y="-294" font-family="Helvetica,sans-Serif" font-size="10.00"> +dtype</text>
</g>
<!-- Node9 -->
<g id="node9" class="node">
<title>Node9</title>
<g id="a_node9"><a xlink:href="classtvm_1_1tirx_1_1Var.html" target="_top" xlink:title="a named variable in TIR">
<polygon fill="white" stroke="black" points="392,-127.5 392,-272.5 510,-272.5 510,-127.5 392,-127.5"/>
<text text-anchor="middle" x="451" y="-260.5" font-family="Helvetica,sans-Serif" font-size="10.00">tvm::tirx::Var</text>
<polyline fill="none" stroke="black" points="392,-253.5 510,-253.5 "/>
<text text-anchor="middle" x="451" y="-241.5" font-family="Helvetica,sans-Serif" font-size="10.00"> </text>
<polyline fill="none" stroke="black" points="392,-234.5 510,-234.5 "/>
<text text-anchor="start" x="400" y="-222.5" font-family="Helvetica,sans-Serif" font-size="10.00">+ Var()</text>
<text text-anchor="start" x="400" y="-211.5" font-family="Helvetica,sans-Serif" font-size="10.00">+ Var()</text>
<text text-anchor="start" x="400" y="-200.5" font-family="Helvetica,sans-Serif" font-size="10.00">+ Var()</text>
<text text-anchor="start" x="400" y="-189.5" font-family="Helvetica,sans-Serif" font-size="10.00">+ Var()</text>
<text text-anchor="start" x="400" y="-178.5" font-family="Helvetica,sans-Serif" font-size="10.00">+ copy_with_name()</text>
<text text-anchor="start" x="400" y="-167.5" font-family="Helvetica,sans-Serif" font-size="10.00">+ copy_with_suffix()</text>
<text text-anchor="start" x="400" y="-156.5" font-family="Helvetica,sans-Serif" font-size="10.00">+ copy_with_dtype()</text>
<text text-anchor="start" x="400" y="-145.5" font-family="Helvetica,sans-Serif" font-size="10.00">+ operator&#45;&gt;()</text>
<text text-anchor="start" x="400" y="-134.5" font-family="Helvetica,sans-Serif" font-size="10.00">+ get()</text>
</a>
</g>
</g>
<!-- Node9&#45;&gt;Node1 -->
<g id="edge9" class="edge">
<title>Node9&#45;&gt;Node1</title>
<path fill="none" stroke="#404040" d="M451,-127.4C451,-115.41 451,-103.2 451,-91.88"/>
<polygon fill="none" stroke="#404040" points="451,-91.52 447,-85.52 451,-79.52 455,-85.52 451,-91.52"/>
<text text-anchor="middle" x="465" y="-101" font-family="Helvetica,sans-Serif" font-size="10.00"> +var</text>
</g>
<!-- Node10 -->
<g id="node10" class="node">
<title>Node10</title>
<g id="a_node10"><a xlink:href="classtvm_1_1PrimExpr.html" target="_top" xlink:title="Reference to PrimExprNode.">
<polygon fill="white" stroke="black" points="436.5,-414 436.5,-526 595.5,-526 595.5,-414 436.5,-414"/>
<text text-anchor="middle" x="516" y="-514" font-family="Helvetica,sans-Serif" font-size="10.00">tvm::PrimExpr</text>
<polyline fill="none" stroke="black" points="436.5,-507 595.5,-507 "/>
<text text-anchor="middle" x="516" y="-495" font-family="Helvetica,sans-Serif" font-size="10.00"> </text>
<polyline fill="none" stroke="black" points="436.5,-488 595.5,-488 "/>
<text text-anchor="start" x="444.5" y="-476" font-family="Helvetica,sans-Serif" font-size="10.00">+ PrimExpr()</text>
<text text-anchor="start" x="444.5" y="-465" font-family="Helvetica,sans-Serif" font-size="10.00">+ PrimExpr()</text>
<text text-anchor="start" x="444.5" y="-454" font-family="Helvetica,sans-Serif" font-size="10.00">+ dtype()</text>
<text text-anchor="start" x="444.5" y="-443" font-family="Helvetica,sans-Serif" font-size="10.00">+ TVM_FFI_DEFINE_OBJECT</text>
<text text-anchor="start" x="444.5" y="-432" font-family="Helvetica,sans-Serif" font-size="10.00">_REF_METHODS_NULLABLE()</text>
<text text-anchor="start" x="444.5" y="-421" font-family="Helvetica,sans-Serif" font-size="10.00">+ ConvertFallbackValue()</text>
</a>
</g>
</g>
<!-- Node10&#45;&gt;Node1 -->
<g id="edge13" class="edge">
<title>Node10&#45;&gt;Node1</title>
<path fill="none" stroke="#404040" d="M527.59,-413.86C539.65,-344.69 552.53,-223.47 519,-127 514.36,-113.65 506.69,-100.81 498.14,-89.31"/>
<polygon fill="none" stroke="#404040" points="497.89,-88.98 491.03,-86.75 490.45,-79.56 497.31,-81.8 497.89,-88.98"/>
<text text-anchor="middle" x="558" y="-203" font-family="Helvetica,sans-Serif" font-size="10.00"> +body</text>
<text text-anchor="middle" x="558" y="-192" font-family="Helvetica,sans-Serif" font-size="10.00">+value</text>
</g>
<!-- Node10&#45;&gt;Node9 -->
<g id="edge10" class="edge">
<title>Node10&#45;&gt;Node9</title>
<path fill="none" stroke="midnightblue" d="M500.23,-403.98C490.63,-364.38 478.34,-313.73 468.45,-272.94"/>
<polygon fill="none" stroke="midnightblue" points="496.85,-404.9 502.61,-413.8 503.66,-403.25 496.85,-404.9"/>
</g>
<!-- Node11&#45;&gt;Node10 -->
<g id="edge11" class="edge">
<title>Node11&#45;&gt;Node10</title>
<path fill="none" stroke="midnightblue" d="M516,-668.16C516,-628.48 516,-569.55 516,-526.45"/>
<polygon fill="none" stroke="midnightblue" points="512.5,-668.31 516,-678.31 519.5,-668.31 512.5,-668.31"/>
</g>
</g>
</svg>
