<?xml version="1.0" encoding="UTF-8" standalone="no"?>
<!DOCTYPE svg PUBLIC "-//W3C//DTD SVG 1.1//EN"
 "http://www.w3.org/Graphics/SVG/1.1/DTD/svg11.dtd">
<!-- Generated by graphviz version 2.43.0 (0)
 -->
<!-- Title: tvm::tirx::BufferLoadNode Pages: 1 -->
<svg width="542pt" height="953pt"
 viewBox="0.00 0.00 541.50 953.00" xmlns="http://www.w3.org/2000/svg" xmlns:xlink="http://www.w3.org/1999/xlink">
<g id="graph0" class="graph" transform="scale(1 1) rotate(0) translate(4 949)">
<title>tvm::tirx::BufferLoadNode</title>
<polygon fill="white" stroke="transparent" points="-4,4 -4,-949 537.5,-949 537.5,4 -4,4"/>
<!-- Node1 -->
<g id="node1" class="node">
<title>Node1</title>
<g id="a_node1"><a xlink:title="Load value from the high dimension buffer.">
<polygon fill="#bfbfbf" stroke="black" points="337.5,-0.5 337.5,-90.5 499.5,-90.5 499.5,-0.5 337.5,-0.5"/>
<text text-anchor="middle" x="418.5" y="-78.5" font-family="Helvetica,sans-Serif" font-size="10.00">tvm::tirx::BufferLoadNode</text>
<polyline fill="none" stroke="black" points="337.5,-71.5 499.5,-71.5 "/>
<text text-anchor="start" x="345.5" y="-59.5" font-family="Helvetica,sans-Serif" font-size="10.00">+ indices</text>
<text text-anchor="start" x="345.5" y="-48.5" font-family="Helvetica,sans-Serif" font-size="10.00">+ predicate</text>
<polyline fill="none" stroke="black" points="337.5,-41.5 499.5,-41.5 "/>
<text text-anchor="start" x="345.5" y="-29.5" font-family="Helvetica,sans-Serif" font-size="10.00">+ TVM_FFI_DECLARE_OBJECT</text>
<text text-anchor="start" x="345.5" y="-18.5" font-family="Helvetica,sans-Serif" font-size="10.00">_INFO_FINAL()</text>
<text text-anchor="start" x="345.5" y="-7.5" font-family="Helvetica,sans-Serif" font-size="10.00">+ RegisterReflection()</text>
</a>
</g>
</g>
<!-- Node2 -->
<g id="node2" class="node">
<title>Node2</title>
<g id="a_node2"><a xlink:href="classtvm_1_1PrimExprNode.html" target="_top" xlink:title="Base node of all primitive expressions.">
<polygon fill="white" stroke="black" points="283.5,-128.5 283.5,-207.5 445.5,-207.5 445.5,-128.5 283.5,-128.5"/>
<text text-anchor="middle" x="364.5" y="-195.5" font-family="Helvetica,sans-Serif" font-size="10.00">tvm::PrimExprNode</text>
<polyline fill="none" stroke="black" points="283.5,-188.5 445.5,-188.5 "/>
<text text-anchor="start" x="291.5" y="-176.5" font-family="Helvetica,sans-Serif" font-size="10.00">+ _type_child_slots</text>
<polyline fill="none" stroke="black" points="283.5,-169.5 445.5,-169.5 "/>
<text text-anchor="start" x="291.5" y="-157.5" font-family="Helvetica,sans-Serif" font-size="10.00">+ TVM_FFI_DECLARE_OBJECT</text>
<text text-anchor="start" x="291.5" y="-146.5" font-family="Helvetica,sans-Serif" font-size="10.00">_INFO()</text>
<text text-anchor="start" x="291.5" y="-135.5" font-family="Helvetica,sans-Serif" font-size="10.00">+ RegisterReflection()</text>
</a>
</g>
</g>
<!-- Node2&#45;&gt;Node1 -->
<g id="edge1" class="edge">
<title>Node2&#45;&gt;Node1</title>
<path fill="none" stroke="midnightblue" d="M386,-119.02C390.19,-109.66 394.57,-99.89 398.71,-90.66"/>
<polygon fill="none" stroke="midnightblue" points="382.78,-117.65 381.88,-128.21 389.17,-120.52 382.78,-117.65"/>
</g>
<!-- Node3 -->
<g id="node3" class="node">
<title>Node3</title>
<g id="a_node3"><a xlink:href="classtvm_1_1BaseExprNode.html" target="_top" xlink:title="Base type of all the expressions.">
<polygon fill="white" stroke="black" points="125.5,-360 125.5,-450 287.5,-450 287.5,-360 125.5,-360"/>
<text text-anchor="middle" x="206.5" y="-438" font-family="Helvetica,sans-Serif" font-size="10.00">tvm::BaseExprNode</text>
<polyline fill="none" stroke="black" points="125.5,-431 287.5,-431 "/>
<text text-anchor="start" x="133.5" y="-419" font-family="Helvetica,sans-Serif" font-size="10.00">+ _type_s_eq_hash_kind</text>
<text text-anchor="start" x="133.5" y="-408" font-family="Helvetica,sans-Serif" font-size="10.00">+ _type_child_slots</text>
<polyline fill="none" stroke="black" points="125.5,-401 287.5,-401 "/>
<text text-anchor="start" x="133.5" y="-389" font-family="Helvetica,sans-Serif" font-size="10.00">+ TVM_FFI_DECLARE_OBJECT</text>
<text text-anchor="start" x="133.5" y="-378" font-family="Helvetica,sans-Serif" font-size="10.00">_INFO()</text>
<text text-anchor="start" x="133.5" y="-367" font-family="Helvetica,sans-Serif" font-size="10.00">+ RegisterReflection()</text>
</a>
</g>
</g>
<!-- Node3&#45;&gt;Node2 -->
<g id="edge2" class="edge">
<title>Node3&#45;&gt;Node2</title>
<path fill="none" stroke="midnightblue" d="M236.33,-351C253.15,-322.07 275.04,-285.95 296.5,-255 307.56,-239.04 320.6,-222.15 332.29,-207.6"/>
<polygon fill="none" stroke="midnightblue" points="233.26,-349.32 231.28,-359.73 239.32,-352.83 233.26,-349.32"/>
</g>
<!-- Node4 -->
<g id="node4" class="node">
<title>Node4</title>
<g id="a_node4"><a xlink:title=" ">
<polygon fill="white" stroke="#bfbfbf" points="354.5,-776 354.5,-833 418.5,-833 418.5,-776 354.5,-776"/>
<text text-anchor="middle" x="386.5" y="-821" font-family="Helvetica,sans-Serif" font-size="10.00">ffi::Object</text>
<polyline fill="none" stroke="#bfbfbf" points="354.5,-814 418.5,-814 "/>
<text text-anchor="middle" x="386.5" y="-802" font-family="Helvetica,sans-Serif" font-size="10.00"> </text>
<polyline fill="none" stroke="#bfbfbf" points="354.5,-795 418.5,-795 "/>
<text text-anchor="middle" x="386.5" y="-783" font-family="Helvetica,sans-Serif" font-size="10.00"> </text>
</a>
</g>
</g>
<!-- Node4&#45;&gt;Node3 -->
<g id="edge3" class="edge">
<title>Node4&#45;&gt;Node3</title>
<path fill="none" stroke="midnightblue" d="M369.76,-766.54C336.51,-693.09 262.25,-529.1 226.49,-450.15"/>
<polygon fill="none" stroke="midnightblue" points="366.67,-768.2 373.99,-775.86 373.05,-765.31 366.67,-768.2"/>
</g>
<!-- Node5 -->
<g id="node5" class="node">
<title>Node5</title>
<g id="a_node5"><a xlink:href="classtvm_1_1Span.html" target="_top" xlink:title=" ">
<polygon fill="white" stroke="black" points="0,-759.5 0,-849.5 159,-849.5 159,-759.5 0,-759.5"/>
<text text-anchor="middle" x="79.5" y="-837.5" font-family="Helvetica,sans-Serif" font-size="10.00">tvm::Span</text>
<polyline fill="none" stroke="black" points="0,-830.5 159,-830.5 "/>
<text text-anchor="middle" x="79.5" y="-818.5" font-family="Helvetica,sans-Serif" font-size="10.00"> </text>
<polyline fill="none" stroke="black" points="0,-811.5 159,-811.5 "/>
<text text-anchor="start" x="8" y="-799.5" font-family="Helvetica,sans-Serif" font-size="10.00">+ Span()</text>
<text text-anchor="start" x="8" y="-788.5" font-family="Helvetica,sans-Serif" font-size="10.00">+ Merge()</text>
<text text-anchor="start" x="8" y="-777.5" font-family="Helvetica,sans-Serif" font-size="10.00">+ TVM_FFI_DEFINE_OBJECT</text>
<text text-anchor="start" x="8" y="-766.5" font-family="Helvetica,sans-Serif" font-size="10.00">_REF_METHODS_NULLABLE()</text>
</a>
</g>
</g>
<!-- Node5&#45;&gt;Node3 -->
<g id="edge4" class="edge">
<title>Node5&#45;&gt;Node3</title>
<path fill="none" stroke="#404040" d="M93.58,-759.44C116.8,-686.76 163.09,-541.87 188.6,-462.02"/>
<polygon fill="none" stroke="#404040" points="188.71,-461.69 186.72,-454.75 192.36,-450.26 194.34,-457.19 188.71,-461.69"/>
<text text-anchor="middle" x="169" y="-654.5" font-family="Helvetica,sans-Serif" font-size="10.00"> +span</text>
</g>
<!-- Node6 -->
<g id="node6" class="node">
<title>Node6</title>
<g id="a_node6"><a xlink:title=" ">
<polygon fill="white" stroke="#bfbfbf" points="216.5,-887.5 216.5,-944.5 296.5,-944.5 296.5,-887.5 216.5,-887.5"/>
<text text-anchor="middle" x="256.5" y="-932.5" font-family="Helvetica,sans-Serif" font-size="10.00">ffi::ObjectRef</text>
<polyline fill="none" stroke="#bfbfbf" points="216.5,-925.5 296.5,-925.5 "/>
<text text-anchor="middle" x="256.5" y="-913.5" font-family="Helvetica,sans-Serif" font-size="10.00"> </text>
<polyline fill="none" stroke="#bfbfbf" points="216.5,-906.5 296.5,-906.5 "/>
<text text-anchor="middle" x="256.5" y="-894.5" font-family="Helvetica,sans-Serif" font-size="10.00"> </text>
</a>
</g>
</g>
<!-- Node6&#45;&gt;Node5 -->
<g id="edge5" class="edge">
<title>Node6&#45;&gt;Node5</title>
<path fill="none" stroke="midnightblue" d="M207.43,-884.64C189.91,-873.81 169.8,-861.37 150.8,-849.61"/>
<polygon fill="none" stroke="midnightblue" points="205.99,-887.87 216.34,-890.15 209.67,-881.92 205.99,-887.87"/>
</g>
<!-- Node7 -->
<g id="node7" class="node">
<title>Node7</title>
<g id="a_node7"><a xlink:href="classtvm_1_1Type.html" target="_top" xlink:title="Managed reference to TypeNode.">
<polygon fill="white" stroke="black" points="177,-770.5 177,-838.5 336,-838.5 336,-770.5 177,-770.5"/>
<text text-anchor="middle" x="256.5" y="-826.5" font-family="Helvetica,sans-Serif" font-size="10.00">tvm::Type</text>
<polyline fill="none" stroke="black" points="177,-819.5 336,-819.5 "/>
<text text-anchor="middle" x="256.5" y="-807.5" font-family="Helvetica,sans-Serif" font-size="10.00"> </text>
<polyline fill="none" stroke="black" points="177,-800.5 336,-800.5 "/>
<text text-anchor="start" x="185" y="-788.5" font-family="Helvetica,sans-Serif" font-size="10.00">+ TVM_FFI_DEFINE_OBJECT</text>
<text text-anchor="start" x="185" y="-777.5" font-family="Helvetica,sans-Serif" font-size="10.00">_REF_METHODS_NULLABLE()</text>
</a>
</g>
</g>
<!-- Node6&#45;&gt;Node7 -->
<g id="edge7" class="edge">
<title>Node6&#45;&gt;Node7</title>
<path fill="none" stroke="midnightblue" d="M256.5,-877.2C256.5,-864.64 256.5,-850.76 256.5,-838.59"/>
<polygon fill="none" stroke="midnightblue" points="253,-877.37 256.5,-887.37 260,-877.37 253,-877.37"/>
</g>
<!-- Node9 -->
<g id="node9" class="node">
<title>Node9</title>
<g id="a_node9"><a xlink:href="classtvm_1_1tirx_1_1Buffer.html" target="_top" xlink:title="Buffer is a symbolic n&#45;darray structure. It is a composition of primitive symbolic types,...">
<polygon fill="white" stroke="black" points="405.5,-573.5 405.5,-740.5 533.5,-740.5 533.5,-573.5 405.5,-573.5"/>
<text text-anchor="middle" x="469.5" y="-728.5" font-family="Helvetica,sans-Serif" font-size="10.00">tvm::tirx::Buffer</text>
<polyline fill="none" stroke="black" points="405.5,-721.5 533.5,-721.5 "/>
<text text-anchor="middle" x="469.5" y="-709.5" font-family="Helvetica,sans-Serif" font-size="10.00"> </text>
<polyline fill="none" stroke="black" points="405.5,-702.5 533.5,-702.5 "/>
<text text-anchor="start" x="413.5" y="-690.5" font-family="Helvetica,sans-Serif" font-size="10.00">+ Buffer()</text>
<text text-anchor="start" x="413.5" y="-679.5" font-family="Helvetica,sans-Serif" font-size="10.00">+ MakeStrideView()</text>
<text text-anchor="start" x="413.5" y="-668.5" font-family="Helvetica,sans-Serif" font-size="10.00">+ MakeSlice()</text>
<text text-anchor="start" x="413.5" y="-657.5" font-family="Helvetica,sans-Serif" font-size="10.00">+ access_ptr()</text>
<text text-anchor="start" x="413.5" y="-646.5" font-family="Helvetica,sans-Serif" font-size="10.00">+ vload()</text>
<text text-anchor="start" x="413.5" y="-635.5" font-family="Helvetica,sans-Serif" font-size="10.00">+ vstore()</text>
<text text-anchor="start" x="413.5" y="-624.5" font-family="Helvetica,sans-Serif" font-size="10.00">+ GetFlattenedBuffer()</text>
<text text-anchor="start" x="413.5" y="-613.5" font-family="Helvetica,sans-Serif" font-size="10.00">+ OffsetOf()</text>
<text text-anchor="start" x="413.5" y="-602.5" font-family="Helvetica,sans-Serif" font-size="10.00">+ OffsetOf_p()</text>
<text text-anchor="start" x="413.5" y="-591.5" font-family="Helvetica,sans-Serif" font-size="10.00">+ scope()</text>
<text text-anchor="start" x="413.5" y="-580.5" font-family="Helvetica,sans-Serif" font-size="10.00">and 6 more...</text>
</a>
</g>
</g>
<!-- Node6&#45;&gt;Node9 -->
<g id="edge10" class="edge">
<title>Node6&#45;&gt;Node9</title>
<path fill="none" stroke="midnightblue" d="M306.62,-908.9C345.25,-901.52 397.04,-885.33 427.5,-850 453.34,-820.02 464.39,-777.79 468.74,-740.56"/>
<polygon fill="none" stroke="midnightblue" points="305.84,-905.48 296.61,-910.67 307.07,-912.37 305.84,-905.48"/>
</g>
<!-- Node7&#45;&gt;Node3 -->
<g id="edge6" class="edge">
<title>Node7&#45;&gt;Node3</title>
<path fill="none" stroke="#404040" d="M252.32,-770.29C243.76,-702.25 224.15,-546.33 213.57,-462.23"/>
<polygon fill="none" stroke="#404040" points="213.55,-462.02 208.83,-456.57 212.05,-450.11 216.77,-455.57 213.55,-462.02"/>
<text text-anchor="middle" x="259.5" y="-654.5" font-family="Helvetica,sans-Serif" font-size="10.00"> +ty</text>
</g>
<!-- Node8 -->
<g id="node8" class="node">
<title>Node8</title>
<g id="a_node8"><a xlink:href="classtvm_1_1runtime_1_1DataType.html" target="_top" xlink:title="Runtime primitive data type.">
<polygon fill="white" stroke="black" points="305.5,-255.5 305.5,-554.5 445.5,-554.5 445.5,-255.5 305.5,-255.5"/>
<text text-anchor="middle" x="375.5" y="-542.5" font-family="Helvetica,sans-Serif" font-size="10.00">tvm::runtime::DataType</text>
<polyline fill="none" stroke="black" points="305.5,-535.5 445.5,-535.5 "/>
<text text-anchor="middle" x="375.5" y="-523.5" font-family="Helvetica,sans-Serif" font-size="10.00"> </text>
<polyline fill="none" stroke="black" points="305.5,-516.5 445.5,-516.5 "/>
<text text-anchor="start" x="313.5" y="-504.5" font-family="Helvetica,sans-Serif" font-size="10.00">+ DataType()</text>
<text text-anchor="start" x="313.5" y="-493.5" font-family="Helvetica,sans-Serif" font-size="10.00">+ DataType()</text>
<text text-anchor="start" x="313.5" y="-482.5" font-family="Helvetica,sans-Serif" font-size="10.00">+ DataType()</text>
<text text-anchor="start" x="313.5" y="-471.5" font-family="Helvetica,sans-Serif" font-size="10.00">+ code()</text>
<text text-anchor="start" x="313.5" y="-460.5" font-family="Helvetica,sans-Serif" font-size="10.00">+ bits()</text>
<text text-anchor="start" x="313.5" y="-449.5" font-family="Helvetica,sans-Serif" font-size="10.00">+ bytes()</text>
<text text-anchor="start" x="313.5" y="-438.5" font-family="Helvetica,sans-Serif" font-size="10.00">+ lanes()</text>
<text text-anchor="start" x="313.5" y="-427.5" font-family="Helvetica,sans-Serif" font-size="10.00">+ vscale_factor()</text>
<text text-anchor="start" x="313.5" y="-416.5" font-family="Helvetica,sans-Serif" font-size="10.00">+ get_lanes_or_vscale</text>
<text text-anchor="start" x="313.5" y="-405.5" font-family="Helvetica,sans-Serif" font-size="10.00">_factor()</text>
<text text-anchor="start" x="313.5" y="-394.5" font-family="Helvetica,sans-Serif" font-size="10.00">+ is_scalar()</text>
<text text-anchor="start" x="313.5" y="-383.5" font-family="Helvetica,sans-Serif" font-size="10.00">and 37 more...</text>
<text text-anchor="start" x="313.5" y="-372.5" font-family="Helvetica,sans-Serif" font-size="10.00">+ Int()</text>
<text text-anchor="start" x="313.5" y="-361.5" font-family="Helvetica,sans-Serif" font-size="10.00">+ UInt()</text>
<text text-anchor="start" x="313.5" y="-350.5" font-family="Helvetica,sans-Serif" font-size="10.00">+ Float()</text>
<text text-anchor="start" x="313.5" y="-339.5" font-family="Helvetica,sans-Serif" font-size="10.00">+ BFloat()</text>
<text text-anchor="start" x="313.5" y="-328.5" font-family="Helvetica,sans-Serif" font-size="10.00">+ Float8E3M4()</text>
<text text-anchor="start" x="313.5" y="-317.5" font-family="Helvetica,sans-Serif" font-size="10.00">+ Float8E4M3()</text>
<text text-anchor="start" x="313.5" y="-306.5" font-family="Helvetica,sans-Serif" font-size="10.00">+ Float8E4M3B11FNUZ()</text>
<text text-anchor="start" x="313.5" y="-295.5" font-family="Helvetica,sans-Serif" font-size="10.00">+ Float8E4M3FN()</text>
<text text-anchor="start" x="313.5" y="-284.5" font-family="Helvetica,sans-Serif" font-size="10.00">+ Float8E4M3FNUZ()</text>
<text text-anchor="start" x="313.5" y="-273.5" font-family="Helvetica,sans-Serif" font-size="10.00">+ Float8E5M2()</text>
<text text-anchor="start" x="313.5" y="-262.5" font-family="Helvetica,sans-Serif" font-size="10.00">and 9 more...</text>
</a>
</g>
</g>
<!-- Node8&#45;&gt;Node2 -->
<g id="edge8" class="edge">
<title>Node8&#45;&gt;Node2</title>
<path fill="none" stroke="#404040" d="M368.53,-255.17C367.95,-242.73 367.39,-230.8 366.89,-219.98"/>
<polygon fill="none" stroke="#404040" points="366.88,-219.83 362.6,-214.02 366.32,-207.84 370.59,-213.65 366.88,-219.83"/>
<text text-anchor="middle" x="386.5" y="-229" font-family="Helvetica,sans-Serif" font-size="10.00"> +dtype</text>
</g>
<!-- Node9&#45;&gt;Node1 -->
<g id="edge9" class="edge">
<title>Node9&#45;&gt;Node1</title>
<path fill="none" stroke="#404040" d="M476.88,-573.37C484.05,-468.39 489.36,-282.3 454.5,-128 452.56,-119.39 449.69,-110.57 446.41,-102.06"/>
<polygon fill="none" stroke="#404040" points="446.3,-101.79 440.31,-97.77 441.73,-90.7 447.71,-94.72 446.3,-101.79"/>
<text text-anchor="middle" x="491.5" y="-229" font-family="Helvetica,sans-Serif" font-size="10.00"> +buffer</text>
</g>
</g>
</svg>
