<?xml version="1.0" encoding="UTF-8" standalone="no"?>
<!DOCTYPE svg PUBLIC "-//W3C//DTD SVG 1.1//EN"
 "http://www.w3.org/Graphics/SVG/1.1/DTD/svg11.dtd">
<!-- Generated by graphviz version 2.43.0 (0)
 -->
<!-- Title: tvm::tirx::StmtNode Pages: 1 -->
<svg width="3058pt" height="430pt"
 viewBox="0.00 0.00 3058.00 430.00" xmlns="http://www.w3.org/2000/svg" xmlns:xlink="http://www.w3.org/1999/xlink">
<g id="graph0" class="graph" transform="scale(1 1) rotate(0) translate(4 426)">
<title>tvm::tirx::StmtNode</title>
<polygon fill="white" stroke="transparent" points="-4,4 -4,-426 3054,-426 3054,4 -4,4"/>
<!-- Node1 -->
<g id="node1" class="node">
<title>Node1</title>
<g id="a_node1"><a xlink:title="Base node of all statements.">
<polygon fill="#bfbfbf" stroke="black" points="1440,-204.5 1440,-327.5 1602,-327.5 1602,-204.5 1440,-204.5"/>
<text text-anchor="middle" x="1521" y="-315.5" font-family="Helvetica,sans-Serif" font-size="10.00">tvm::tirx::StmtNode</text>
<polyline fill="none" stroke="black" points="1440,-308.5 1602,-308.5 "/>
<text text-anchor="start" x="1448" y="-296.5" font-family="Helvetica,sans-Serif" font-size="10.00">+ span</text>
<text text-anchor="start" x="1448" y="-285.5" font-family="Helvetica,sans-Serif" font-size="10.00">+ _type_s_eq_hash_kind</text>
<text text-anchor="start" x="1448" y="-274.5" font-family="Helvetica,sans-Serif" font-size="10.00">+ _type_child_slots</text>
<polyline fill="none" stroke="black" points="1440,-267.5 1602,-267.5 "/>
<text text-anchor="start" x="1448" y="-255.5" font-family="Helvetica,sans-Serif" font-size="10.00">+ StmtNode()</text>
<text text-anchor="start" x="1448" y="-244.5" font-family="Helvetica,sans-Serif" font-size="10.00">+ StmtNode()</text>
<text text-anchor="start" x="1448" y="-233.5" font-family="Helvetica,sans-Serif" font-size="10.00">+ TVM_FFI_DECLARE_OBJECT</text>
<text text-anchor="start" x="1448" y="-222.5" font-family="Helvetica,sans-Serif" font-size="10.00">_INFO()</text>
<text text-anchor="start" x="1448" y="-211.5" font-family="Helvetica,sans-Serif" font-size="10.00">+ RegisterReflection()</text>
</a>
</g>
</g>
<!-- Node3 -->
<g id="node3" class="node">
<title>Node3</title>
<g id="a_node3"><a xlink:href="classtvm_1_1tirx_1_1AllocBufferNode.html" target="_top" xlink:title="Allocate a buffer and declare it in scope.">
<polygon fill="white" stroke="black" points="0,-39 0,-129 162,-129 162,-39 0,-39"/>
<text text-anchor="middle" x="81" y="-117" font-family="Helvetica,sans-Serif" font-size="10.00">tvm::tirx::AllocBufferNode</text>
<polyline fill="none" stroke="black" points="0,-110 162,-110 "/>
<text text-anchor="start" x="8" y="-98" font-family="Helvetica,sans-Serif" font-size="10.00">+ buffer</text>
<text text-anchor="start" x="8" y="-87" font-family="Helvetica,sans-Serif" font-size="10.00">+ annotations</text>
<polyline fill="none" stroke="black" points="0,-80 162,-80 "/>
<text text-anchor="start" x="8" y="-68" font-family="Helvetica,sans-Serif" font-size="10.00">+ TVM_FFI_DECLARE_OBJECT</text>
<text text-anchor="start" x="8" y="-57" font-family="Helvetica,sans-Serif" font-size="10.00">_INFO_FINAL()</text>
<text text-anchor="start" x="8" y="-46" font-family="Helvetica,sans-Serif" font-size="10.00">+ RegisterReflection()</text>
</a>
</g>
</g>
<!-- Node1&#45;&gt;Node3 -->
<g id="edge2" class="edge">
<title>Node1&#45;&gt;Node3</title>
<path fill="none" stroke="midnightblue" d="M1429.22,-261.91C1144.09,-251.84 285.83,-217.68 171,-168 150.91,-159.31 132.41,-144.17 117.48,-129.19"/>
<polygon fill="none" stroke="midnightblue" points="1429.41,-265.42 1439.53,-262.28 1429.66,-258.43 1429.41,-265.42"/>
</g>
<!-- Node4 -->
<g id="node4" class="node">
<title>Node4</title>
<g id="a_node4"><a xlink:href="classtvm_1_1tirx_1_1AssertStmtNode.html" target="_top" xlink:title="Assert condition, if an error occurs, return the error message.">
<polygon fill="white" stroke="black" points="180,-33.5 180,-134.5 342,-134.5 342,-33.5 180,-33.5"/>
<text text-anchor="middle" x="261" y="-122.5" font-family="Helvetica,sans-Serif" font-size="10.00">tvm::tirx::AssertStmtNode</text>
<polyline fill="none" stroke="black" points="180,-115.5 342,-115.5 "/>
<text text-anchor="start" x="188" y="-103.5" font-family="Helvetica,sans-Serif" font-size="10.00">+ condition</text>
<text text-anchor="start" x="188" y="-92.5" font-family="Helvetica,sans-Serif" font-size="10.00">+ error_kind</text>
<text text-anchor="start" x="188" y="-81.5" font-family="Helvetica,sans-Serif" font-size="10.00">+ message_parts</text>
<polyline fill="none" stroke="black" points="180,-74.5 342,-74.5 "/>
<text text-anchor="start" x="188" y="-62.5" font-family="Helvetica,sans-Serif" font-size="10.00">+ TVM_FFI_DECLARE_OBJECT</text>
<text text-anchor="start" x="188" y="-51.5" font-family="Helvetica,sans-Serif" font-size="10.00">_INFO_FINAL()</text>
<text text-anchor="start" x="188" y="-40.5" font-family="Helvetica,sans-Serif" font-size="10.00">+ RegisterReflection()</text>
</a>
</g>
</g>
<!-- Node1&#45;&gt;Node4 -->
<g id="edge3" class="edge">
<title>Node1&#45;&gt;Node4</title>
<path fill="none" stroke="midnightblue" d="M1429.71,-265.02C1189.31,-263.88 544.06,-252.79 351,-168 333.49,-160.31 317.16,-147.77 303.36,-134.73"/>
<polygon fill="none" stroke="midnightblue" points="1429.8,-268.52 1439.81,-265.06 1429.83,-261.52 1429.8,-268.52"/>
</g>
<!-- Node5 -->
<g id="node5" class="node">
<title>Node5</title>
<g id="a_node5"><a xlink:href="classtvm_1_1tirx_1_1AttrStmtNode.html" target="_top" xlink:title="Define certain auxiliary attribute for the body to be a symbolic value. This provide auxiliary inform...">
<polygon fill="white" stroke="black" points="360,-28 360,-140 522,-140 522,-28 360,-28"/>
<text text-anchor="middle" x="441" y="-128" font-family="Helvetica,sans-Serif" font-size="10.00">tvm::tirx::AttrStmtNode</text>
<polyline fill="none" stroke="black" points="360,-121 522,-121 "/>
<text text-anchor="start" x="368" y="-109" font-family="Helvetica,sans-Serif" font-size="10.00">+ node</text>
<text text-anchor="start" x="368" y="-98" font-family="Helvetica,sans-Serif" font-size="10.00">+ attr_key</text>
<text text-anchor="start" x="368" y="-87" font-family="Helvetica,sans-Serif" font-size="10.00">+ value</text>
<text text-anchor="start" x="368" y="-76" font-family="Helvetica,sans-Serif" font-size="10.00">+ body</text>
<polyline fill="none" stroke="black" points="360,-69 522,-69 "/>
<text text-anchor="start" x="368" y="-57" font-family="Helvetica,sans-Serif" font-size="10.00">+ TVM_FFI_DECLARE_OBJECT</text>
<text text-anchor="start" x="368" y="-46" font-family="Helvetica,sans-Serif" font-size="10.00">_INFO_FINAL()</text>
<text text-anchor="start" x="368" y="-35" font-family="Helvetica,sans-Serif" font-size="10.00">+ RegisterReflection()</text>
</a>
</g>
</g>
<!-- Node1&#45;&gt;Node5 -->
<g id="edge4" class="edge">
<title>Node1&#45;&gt;Node5</title>
<path fill="none" stroke="midnightblue" d="M1429.67,-263.42C1216.16,-258.55 690.42,-239.44 531,-168 516.06,-161.31 501.97,-151.13 489.57,-140.17"/>
<polygon fill="none" stroke="midnightblue" points="1429.83,-266.92 1439.91,-263.65 1429.99,-259.92 1429.83,-266.92"/>
</g>
<!-- Node6 -->
<g id="node6" class="node">
<title>Node6</title>
<g id="a_node6"><a xlink:href="classtvm_1_1tirx_1_1BindNode.html" target="_top" xlink:title="Bind a variable to a value in the enclosing scope.">
<polygon fill="white" stroke="black" points="540,-39 540,-129 702,-129 702,-39 540,-39"/>
<text text-anchor="middle" x="621" y="-117" font-family="Helvetica,sans-Serif" font-size="10.00">tvm::tirx::BindNode</text>
<polyline fill="none" stroke="black" points="540,-110 702,-110 "/>
<text text-anchor="start" x="548" y="-98" font-family="Helvetica,sans-Serif" font-size="10.00">+ var</text>
<text text-anchor="start" x="548" y="-87" font-family="Helvetica,sans-Serif" font-size="10.00">+ value</text>
<polyline fill="none" stroke="black" points="540,-80 702,-80 "/>
<text text-anchor="start" x="548" y="-68" font-family="Helvetica,sans-Serif" font-size="10.00">+ TVM_FFI_DECLARE_OBJECT</text>
<text text-anchor="start" x="548" y="-57" font-family="Helvetica,sans-Serif" font-size="10.00">_INFO_FINAL()</text>
<text text-anchor="start" x="548" y="-46" font-family="Helvetica,sans-Serif" font-size="10.00">+ RegisterReflection()</text>
</a>
</g>
</g>
<!-- Node1&#45;&gt;Node6 -->
<g id="edge5" class="edge">
<title>Node1&#45;&gt;Node6</title>
<path fill="none" stroke="midnightblue" d="M1429.61,-261.11C1245.58,-252.15 837.15,-226.17 711,-168 691.31,-158.92 673.03,-143.9 658.15,-129.11"/>
<polygon fill="none" stroke="midnightblue" points="1429.65,-264.62 1439.81,-261.6 1429.99,-257.63 1429.65,-264.62"/>
</g>
<!-- Node7 -->
<g id="node7" class="node">
<title>Node7</title>
<g id="a_node7"><a xlink:href="classtvm_1_1tirx_1_1BreakNode.html" target="_top" xlink:title="A Break in control flow.">
<polygon fill="white" stroke="black" points="720,-44.5 720,-123.5 882,-123.5 882,-44.5 720,-44.5"/>
<text text-anchor="middle" x="801" y="-111.5" font-family="Helvetica,sans-Serif" font-size="10.00">tvm::tirx::BreakNode</text>
<polyline fill="none" stroke="black" points="720,-104.5 882,-104.5 "/>
<text text-anchor="middle" x="801" y="-92.5" font-family="Helvetica,sans-Serif" font-size="10.00"> </text>
<polyline fill="none" stroke="black" points="720,-85.5 882,-85.5 "/>
<text text-anchor="start" x="728" y="-73.5" font-family="Helvetica,sans-Serif" font-size="10.00">+ TVM_FFI_DECLARE_OBJECT</text>
<text text-anchor="start" x="728" y="-62.5" font-family="Helvetica,sans-Serif" font-size="10.00">_INFO_FINAL()</text>
<text text-anchor="start" x="728" y="-51.5" font-family="Helvetica,sans-Serif" font-size="10.00">+ RegisterReflection()</text>
</a>
</g>
</g>
<!-- Node1&#45;&gt;Node7 -->
<g id="edge6" class="edge">
<title>Node1&#45;&gt;Node7</title>
<path fill="none" stroke="midnightblue" d="M1429.76,-257.54C1278.8,-244.11 984.44,-213.01 891,-168 869.17,-157.49 848.93,-139.88 833.2,-123.58"/>
<polygon fill="none" stroke="midnightblue" points="1429.66,-261.04 1439.93,-258.44 1430.28,-254.07 1429.66,-261.04"/>
</g>
<!-- Node8 -->
<g id="node8" class="node">
<title>Node8</title>
<g id="a_node8"><a xlink:href="classtvm_1_1tirx_1_1BufferStoreNode.html" target="_top" xlink:title="Store value to the high dimension buffer.">
<polygon fill="white" stroke="black" points="900,-28 900,-140 1062,-140 1062,-28 900,-28"/>
<text text-anchor="middle" x="981" y="-128" font-family="Helvetica,sans-Serif" font-size="10.00">tvm::tirx::BufferStoreNode</text>
<polyline fill="none" stroke="black" points="900,-121 1062,-121 "/>
<text text-anchor="start" x="908" y="-109" font-family="Helvetica,sans-Serif" font-size="10.00">+ buffer</text>
<text text-anchor="start" x="908" y="-98" font-family="Helvetica,sans-Serif" font-size="10.00">+ value</text>
<text text-anchor="start" x="908" y="-87" font-family="Helvetica,sans-Serif" font-size="10.00">+ indices</text>
<text text-anchor="start" x="908" y="-76" font-family="Helvetica,sans-Serif" font-size="10.00">+ predicate</text>
<polyline fill="none" stroke="black" points="900,-69 1062,-69 "/>
<text text-anchor="start" x="908" y="-57" font-family="Helvetica,sans-Serif" font-size="10.00">+ TVM_FFI_DECLARE_OBJECT</text>
<text text-anchor="start" x="908" y="-46" font-family="Helvetica,sans-Serif" font-size="10.00">_INFO_FINAL()</text>
<text text-anchor="start" x="908" y="-35" font-family="Helvetica,sans-Serif" font-size="10.00">+ RegisterReflection()</text>
</a>
</g>
</g>
<!-- Node1&#45;&gt;Node8 -->
<g id="edge7" class="edge">
<title>Node1&#45;&gt;Node8</title>
<path fill="none" stroke="midnightblue" d="M1429.77,-259.46C1335.33,-250.59 1185.82,-227.57 1071,-168 1057.04,-160.76 1043.63,-150.76 1031.62,-140.22"/>
<polygon fill="none" stroke="midnightblue" points="1429.59,-262.96 1439.86,-260.38 1430.22,-255.99 1429.59,-262.96"/>
</g>
<!-- Node9 -->
<g id="node9" class="node">
<title>Node9</title>
<g id="a_node9"><a xlink:href="classtvm_1_1tirx_1_1ContinueNode.html" target="_top" xlink:title="A Continue in control flow.">
<polygon fill="white" stroke="black" points="1080,-44.5 1080,-123.5 1242,-123.5 1242,-44.5 1080,-44.5"/>
<text text-anchor="middle" x="1161" y="-111.5" font-family="Helvetica,sans-Serif" font-size="10.00">tvm::tirx::ContinueNode</text>
<polyline fill="none" stroke="black" points="1080,-104.5 1242,-104.5 "/>
<text text-anchor="middle" x="1161" y="-92.5" font-family="Helvetica,sans-Serif" font-size="10.00"> </text>
<polyline fill="none" stroke="black" points="1080,-85.5 1242,-85.5 "/>
<text text-anchor="start" x="1088" y="-73.5" font-family="Helvetica,sans-Serif" font-size="10.00">+ TVM_FFI_DECLARE_OBJECT</text>
<text text-anchor="start" x="1088" y="-62.5" font-family="Helvetica,sans-Serif" font-size="10.00">_INFO_FINAL()</text>
<text text-anchor="start" x="1088" y="-51.5" font-family="Helvetica,sans-Serif" font-size="10.00">+ RegisterReflection()</text>
</a>
</g>
</g>
<!-- Node1&#45;&gt;Node9 -->
<g id="edge8" class="edge">
<title>Node1&#45;&gt;Node9</title>
<path fill="none" stroke="midnightblue" d="M1430.23,-242.27C1375.83,-226.3 1306.65,-201.73 1251,-168 1231.19,-155.99 1211.93,-139.16 1196.35,-123.79"/>
<polygon fill="none" stroke="midnightblue" points="1429.28,-245.64 1439.86,-245.05 1431.22,-238.91 1429.28,-245.64"/>
</g>
<!-- Node10 -->
<g id="node10" class="node">
<title>Node10</title>
<g id="a_node10"><a xlink:href="classtvm_1_1tirx_1_1DeclBufferNode.html" target="_top" xlink:title="Declare a buffer that can be used in the body.">
<polygon fill="white" stroke="black" points="1260,-44.5 1260,-123.5 1422,-123.5 1422,-44.5 1260,-44.5"/>
<text text-anchor="middle" x="1341" y="-111.5" font-family="Helvetica,sans-Serif" font-size="10.00">tvm::tirx::DeclBufferNode</text>
<polyline fill="none" stroke="black" points="1260,-104.5 1422,-104.5 "/>
<text text-anchor="start" x="1268" y="-92.5" font-family="Helvetica,sans-Serif" font-size="10.00">+ buffer</text>
<polyline fill="none" stroke="black" points="1260,-85.5 1422,-85.5 "/>
<text text-anchor="start" x="1268" y="-73.5" font-family="Helvetica,sans-Serif" font-size="10.00">+ TVM_FFI_DECLARE_OBJECT</text>
<text text-anchor="start" x="1268" y="-62.5" font-family="Helvetica,sans-Serif" font-size="10.00">_INFO_FINAL()</text>
<text text-anchor="start" x="1268" y="-51.5" font-family="Helvetica,sans-Serif" font-size="10.00">+ RegisterReflection()</text>
</a>
</g>
</g>
<!-- Node1&#45;&gt;Node10 -->
<g id="edge9" class="edge">
<title>Node1&#45;&gt;Node10</title>
<path fill="none" stroke="midnightblue" d="M1453.05,-197.05C1428.25,-172.25 1401.08,-145.08 1379.7,-123.7"/>
<polygon fill="none" stroke="midnightblue" points="1450.77,-199.71 1460.31,-204.31 1455.71,-194.77 1450.77,-199.71"/>
</g>
<!-- Node11 -->
<g id="node11" class="node">
<title>Node11</title>
<g id="a_node11"><a xlink:href="classtvm_1_1tirx_1_1EvaluateNode.html" target="_top" xlink:title="Evaluates an expression. This is mostly used for putting a Call node into Stmt.">
<polygon fill="white" stroke="black" points="1440,-44.5 1440,-123.5 1602,-123.5 1602,-44.5 1440,-44.5"/>
<text text-anchor="middle" x="1521" y="-111.5" font-family="Helvetica,sans-Serif" font-size="10.00">tvm::tirx::EvaluateNode</text>
<polyline fill="none" stroke="black" points="1440,-104.5 1602,-104.5 "/>
<text text-anchor="start" x="1448" y="-92.5" font-family="Helvetica,sans-Serif" font-size="10.00">+ value</text>
<polyline fill="none" stroke="black" points="1440,-85.5 1602,-85.5 "/>
<text text-anchor="start" x="1448" y="-73.5" font-family="Helvetica,sans-Serif" font-size="10.00">+ TVM_FFI_DECLARE_OBJECT</text>
<text text-anchor="start" x="1448" y="-62.5" font-family="Helvetica,sans-Serif" font-size="10.00">_INFO_FINAL()</text>
<text text-anchor="start" x="1448" y="-51.5" font-family="Helvetica,sans-Serif" font-size="10.00">+ RegisterReflection()</text>
</a>
</g>
</g>
<!-- Node1&#45;&gt;Node11 -->
<g id="edge10" class="edge">
<title>Node1&#45;&gt;Node11</title>
<path fill="none" stroke="midnightblue" d="M1521,-194.16C1521,-170.16 1521,-144.25 1521,-123.7"/>
<polygon fill="none" stroke="midnightblue" points="1517.5,-194.31 1521,-204.31 1524.5,-194.31 1517.5,-194.31"/>
</g>
<!-- Node12 -->
<g id="node12" class="node">
<title>Node12</title>
<g id="a_node12"><a xlink:href="classtvm_1_1tirx_1_1ForNode.html" target="_top" xlink:title="A for loop, with possible type annotations.">
<polygon fill="white" stroke="black" points="1620,-0.5 1620,-167.5 1782,-167.5 1782,-0.5 1620,-0.5"/>
<text text-anchor="middle" x="1701" y="-155.5" font-family="Helvetica,sans-Serif" font-size="10.00">tvm::tirx::ForNode</text>
<polyline fill="none" stroke="black" points="1620,-148.5 1782,-148.5 "/>
<text text-anchor="start" x="1628" y="-136.5" font-family="Helvetica,sans-Serif" font-size="10.00">+ loop_var</text>
<text text-anchor="start" x="1628" y="-125.5" font-family="Helvetica,sans-Serif" font-size="10.00">+ min</text>
<text text-anchor="start" x="1628" y="-114.5" font-family="Helvetica,sans-Serif" font-size="10.00">+ extent</text>
<text text-anchor="start" x="1628" y="-103.5" font-family="Helvetica,sans-Serif" font-size="10.00">+ kind</text>
<text text-anchor="start" x="1628" y="-92.5" font-family="Helvetica,sans-Serif" font-size="10.00">+ body</text>
<text text-anchor="start" x="1628" y="-81.5" font-family="Helvetica,sans-Serif" font-size="10.00">+ thread_binding</text>
<text text-anchor="start" x="1628" y="-70.5" font-family="Helvetica,sans-Serif" font-size="10.00">+ annotations</text>
<text text-anchor="start" x="1628" y="-59.5" font-family="Helvetica,sans-Serif" font-size="10.00">+ step</text>
<polyline fill="none" stroke="black" points="1620,-52.5 1782,-52.5 "/>
<text text-anchor="start" x="1628" y="-40.5" font-family="Helvetica,sans-Serif" font-size="10.00">+ HasTrivialStep()</text>
<text text-anchor="start" x="1628" y="-29.5" font-family="Helvetica,sans-Serif" font-size="10.00">+ TVM_FFI_DECLARE_OBJECT</text>
<text text-anchor="start" x="1628" y="-18.5" font-family="Helvetica,sans-Serif" font-size="10.00">_INFO_FINAL()</text>
<text text-anchor="start" x="1628" y="-7.5" font-family="Helvetica,sans-Serif" font-size="10.00">+ RegisterReflection()</text>
</a>
</g>
</g>
<!-- Node1&#45;&gt;Node12 -->
<g id="edge11" class="edge">
<title>Node1&#45;&gt;Node12</title>
<path fill="none" stroke="midnightblue" d="M1588.95,-197.05C1599.03,-186.97 1609.5,-176.5 1619.82,-166.18"/>
<polygon fill="none" stroke="midnightblue" points="1586.29,-194.77 1581.69,-204.31 1591.23,-199.71 1586.29,-194.77"/>
</g>
<!-- Node13 -->
<g id="node13" class="node">
<title>Node13</title>
<g id="a_node13"><a xlink:href="classtvm_1_1tirx_1_1IfThenElseNode.html" target="_top" xlink:title="IfThenElse statement.">
<polygon fill="white" stroke="black" points="1800,-33.5 1800,-134.5 1962,-134.5 1962,-33.5 1800,-33.5"/>
<text text-anchor="middle" x="1881" y="-122.5" font-family="Helvetica,sans-Serif" font-size="10.00">tvm::tirx::IfThenElseNode</text>
<polyline fill="none" stroke="black" points="1800,-115.5 1962,-115.5 "/>
<text text-anchor="start" x="1808" y="-103.5" font-family="Helvetica,sans-Serif" font-size="10.00">+ condition</text>
<text text-anchor="start" x="1808" y="-92.5" font-family="Helvetica,sans-Serif" font-size="10.00">+ then_case</text>
<text text-anchor="start" x="1808" y="-81.5" font-family="Helvetica,sans-Serif" font-size="10.00">+ else_case</text>
<polyline fill="none" stroke="black" points="1800,-74.5 1962,-74.5 "/>
<text text-anchor="start" x="1808" y="-62.5" font-family="Helvetica,sans-Serif" font-size="10.00">+ TVM_FFI_DECLARE_OBJECT</text>
<text text-anchor="start" x="1808" y="-51.5" font-family="Helvetica,sans-Serif" font-size="10.00">_INFO_FINAL()</text>
<text text-anchor="start" x="1808" y="-40.5" font-family="Helvetica,sans-Serif" font-size="10.00">+ RegisterReflection()</text>
</a>
</g>
</g>
<!-- Node1&#45;&gt;Node13 -->
<g id="edge12" class="edge">
<title>Node1&#45;&gt;Node13</title>
<path fill="none" stroke="midnightblue" d="M1611.77,-242.27C1666.17,-226.3 1735.35,-201.73 1791,-168 1806.27,-158.75 1821.21,-146.63 1834.39,-134.52"/>
<polygon fill="none" stroke="midnightblue" points="1610.78,-238.91 1602.14,-245.05 1612.72,-245.64 1610.78,-238.91"/>
</g>
<!-- Node14 -->
<g id="node14" class="node">
<title>Node14</title>
<g id="a_node14"><a xlink:href="classtvm_1_1tirx_1_1SBlockNode.html" target="_top" xlink:title="A block is a basic schedule unit in TIR.">
<polygon fill="white" stroke="black" points="1980,-0.5 1980,-167.5 2142,-167.5 2142,-0.5 1980,-0.5"/>
<text text-anchor="middle" x="2061" y="-155.5" font-family="Helvetica,sans-Serif" font-size="10.00">tvm::tirx::SBlockNode</text>
<polyline fill="none" stroke="black" points="1980,-148.5 2142,-148.5 "/>
<text text-anchor="start" x="1988" y="-136.5" font-family="Helvetica,sans-Serif" font-size="10.00">+ iter_vars</text>
<text text-anchor="start" x="1988" y="-125.5" font-family="Helvetica,sans-Serif" font-size="10.00">+ reads</text>
<text text-anchor="start" x="1988" y="-114.5" font-family="Helvetica,sans-Serif" font-size="10.00">+ writes</text>
<text text-anchor="start" x="1988" y="-103.5" font-family="Helvetica,sans-Serif" font-size="10.00">+ name_hint</text>
<text text-anchor="start" x="1988" y="-92.5" font-family="Helvetica,sans-Serif" font-size="10.00">+ alloc_buffers</text>
<text text-anchor="start" x="1988" y="-81.5" font-family="Helvetica,sans-Serif" font-size="10.00">+ match_buffers</text>
<text text-anchor="start" x="1988" y="-70.5" font-family="Helvetica,sans-Serif" font-size="10.00">+ annotations</text>
<text text-anchor="start" x="1988" y="-59.5" font-family="Helvetica,sans-Serif" font-size="10.00">+ init</text>
<text text-anchor="start" x="1988" y="-48.5" font-family="Helvetica,sans-Serif" font-size="10.00">+ body</text>
<polyline fill="none" stroke="black" points="1980,-41.5 2142,-41.5 "/>
<text text-anchor="start" x="1988" y="-29.5" font-family="Helvetica,sans-Serif" font-size="10.00">+ TVM_FFI_DECLARE_OBJECT</text>
<text text-anchor="start" x="1988" y="-18.5" font-family="Helvetica,sans-Serif" font-size="10.00">_INFO_FINAL()</text>
<text text-anchor="start" x="1988" y="-7.5" font-family="Helvetica,sans-Serif" font-size="10.00">+ RegisterReflection()</text>
</a>
</g>
</g>
<!-- Node1&#45;&gt;Node14 -->
<g id="edge13" class="edge">
<title>Node1&#45;&gt;Node14</title>
<path fill="none" stroke="midnightblue" d="M1612.23,-259.46C1706.67,-250.59 1856.18,-227.57 1971,-168 1974.02,-166.43 1977.01,-164.74 1979.97,-162.94"/>
<polygon fill="none" stroke="midnightblue" points="1611.78,-255.99 1602.14,-260.38 1612.41,-262.96 1611.78,-255.99"/>
</g>
<!-- Node15 -->
<g id="node15" class="node">
<title>Node15</title>
<g id="a_node15"><a xlink:href="classtvm_1_1tirx_1_1SBlockRealizeNode.html" target="_top" xlink:title="A block realization node represents execution of the block at the binding values.">
<polygon fill="white" stroke="black" points="2160,-33.5 2160,-134.5 2322,-134.5 2322,-33.5 2160,-33.5"/>
<text text-anchor="middle" x="2241" y="-122.5" font-family="Helvetica,sans-Serif" font-size="10.00">tvm::tirx::SBlockRealizeNode</text>
<polyline fill="none" stroke="black" points="2160,-115.5 2322,-115.5 "/>
<text text-anchor="start" x="2168" y="-103.5" font-family="Helvetica,sans-Serif" font-size="10.00">+ iter_values</text>
<text text-anchor="start" x="2168" y="-92.5" font-family="Helvetica,sans-Serif" font-size="10.00">+ predicate</text>
<text text-anchor="start" x="2168" y="-81.5" font-family="Helvetica,sans-Serif" font-size="10.00">+ block</text>
<polyline fill="none" stroke="black" points="2160,-74.5 2322,-74.5 "/>
<text text-anchor="start" x="2168" y="-62.5" font-family="Helvetica,sans-Serif" font-size="10.00">+ TVM_FFI_DECLARE_OBJECT</text>
<text text-anchor="start" x="2168" y="-51.5" font-family="Helvetica,sans-Serif" font-size="10.00">_INFO_FINAL()</text>
<text text-anchor="start" x="2168" y="-40.5" font-family="Helvetica,sans-Serif" font-size="10.00">+ RegisterReflection()</text>
</a>
</g>
</g>
<!-- Node1&#45;&gt;Node15 -->
<g id="edge14" class="edge">
<title>Node1&#45;&gt;Node15</title>
<path fill="none" stroke="midnightblue" d="M1612.24,-257.54C1763.2,-244.11 2057.56,-213.01 2151,-168 2167.85,-159.88 2183.75,-147.54 2197.37,-134.83"/>
<polygon fill="none" stroke="midnightblue" points="1611.72,-254.07 1602.07,-258.44 1612.34,-261.04 1611.72,-254.07"/>
</g>
<!-- Node16 -->
<g id="node16" class="node">
<title>Node16</title>
<g id="a_node16"><a xlink:href="classtvm_1_1tirx_1_1ScopeIdDefStmtNode.html" target="_top" xlink:title="Standalone statement that declares a scope&#45;id binding (e.g. cta_id, warp_id, lane_id)....">
<polygon fill="white" stroke="black" points="2340.5,-44.5 2340.5,-123.5 2509.5,-123.5 2509.5,-44.5 2340.5,-44.5"/>
<text text-anchor="middle" x="2425" y="-111.5" font-family="Helvetica,sans-Serif" font-size="10.00">tvm::tirx::ScopeIdDefStmtNode</text>
<polyline fill="none" stroke="black" points="2340.5,-104.5 2509.5,-104.5 "/>
<text text-anchor="start" x="2348.5" y="-92.5" font-family="Helvetica,sans-Serif" font-size="10.00">+ def</text>
<polyline fill="none" stroke="black" points="2340.5,-85.5 2509.5,-85.5 "/>
<text text-anchor="start" x="2348.5" y="-73.5" font-family="Helvetica,sans-Serif" font-size="10.00">+ TVM_FFI_DECLARE_OBJECT</text>
<text text-anchor="start" x="2348.5" y="-62.5" font-family="Helvetica,sans-Serif" font-size="10.00">_INFO_FINAL()</text>
<text text-anchor="start" x="2348.5" y="-51.5" font-family="Helvetica,sans-Serif" font-size="10.00">+ RegisterReflection()</text>
</a>
</g>
</g>
<!-- Node1&#45;&gt;Node16 -->
<g id="edge15" class="edge">
<title>Node1&#45;&gt;Node16</title>
<path fill="none" stroke="midnightblue" d="M1612.29,-260.89C1796.13,-251.51 2204.23,-224.8 2331,-168 2353.65,-157.85 2374.77,-140.28 2391.23,-123.91"/>
<polygon fill="none" stroke="midnightblue" points="1611.91,-257.4 1602.1,-261.4 1612.27,-264.39 1611.91,-257.4"/>
</g>
<!-- Node17 -->
<g id="node17" class="node">
<title>Node17</title>
<g id="a_node17"><a xlink:href="classtvm_1_1tirx_1_1SeqStmtNode.html" target="_top" xlink:title="The container of seq statement. Represent a sequence of statements.">
<polygon fill="white" stroke="black" points="2528,-33.5 2528,-134.5 2690,-134.5 2690,-33.5 2528,-33.5"/>
<text text-anchor="middle" x="2609" y="-122.5" font-family="Helvetica,sans-Serif" font-size="10.00">tvm::tirx::SeqStmtNode</text>
<polyline fill="none" stroke="black" points="2528,-115.5 2690,-115.5 "/>
<text text-anchor="start" x="2536" y="-103.5" font-family="Helvetica,sans-Serif" font-size="10.00">+ seq</text>
<polyline fill="none" stroke="black" points="2528,-96.5 2690,-96.5 "/>
<text text-anchor="start" x="2536" y="-84.5" font-family="Helvetica,sans-Serif" font-size="10.00">+ size()</text>
<text text-anchor="start" x="2536" y="-73.5" font-family="Helvetica,sans-Serif" font-size="10.00">+ operator[]()</text>
<text text-anchor="start" x="2536" y="-62.5" font-family="Helvetica,sans-Serif" font-size="10.00">+ TVM_FFI_DECLARE_OBJECT</text>
<text text-anchor="start" x="2536" y="-51.5" font-family="Helvetica,sans-Serif" font-size="10.00">_INFO_FINAL()</text>
<text text-anchor="start" x="2536" y="-40.5" font-family="Helvetica,sans-Serif" font-size="10.00">+ RegisterReflection()</text>
</a>
</g>
</g>
<!-- Node1&#45;&gt;Node17 -->
<g id="edge16" class="edge">
<title>Node1&#45;&gt;Node17</title>
<path fill="none" stroke="midnightblue" d="M1612.67,-263.49C1827.65,-258.78 2358.18,-240 2519,-168 2536.46,-160.18 2552.77,-147.6 2566.57,-134.58"/>
<polygon fill="none" stroke="midnightblue" points="1612.29,-260 1602.37,-263.71 1612.44,-267 1612.29,-260"/>
</g>
<!-- Node18 -->
<g id="node18" class="node">
<title>Node18</title>
<g id="a_node18"><a xlink:href="classtvm_1_1tirx_1_1TilePrimitiveCallNode.html" target="_top" xlink:title="TIRX TilePrimitiveCall stmt.">
<polygon fill="white" stroke="black" points="2708,-11.5 2708,-156.5 2870,-156.5 2870,-11.5 2708,-11.5"/>
<text text-anchor="start" x="2716" y="-144.5" font-family="Helvetica,sans-Serif" font-size="10.00">tvm::tirx::TilePrimitive</text>
<text text-anchor="middle" x="2789" y="-133.5" font-family="Helvetica,sans-Serif" font-size="10.00">CallNode</text>
<polyline fill="none" stroke="black" points="2708,-126.5 2870,-126.5 "/>
<text text-anchor="start" x="2716" y="-114.5" font-family="Helvetica,sans-Serif" font-size="10.00">+ op</text>
<text text-anchor="start" x="2716" y="-103.5" font-family="Helvetica,sans-Serif" font-size="10.00">+ args</text>
<text text-anchor="start" x="2716" y="-92.5" font-family="Helvetica,sans-Serif" font-size="10.00">+ workspace</text>
<text text-anchor="start" x="2716" y="-81.5" font-family="Helvetica,sans-Serif" font-size="10.00">+ config</text>
<text text-anchor="start" x="2716" y="-70.5" font-family="Helvetica,sans-Serif" font-size="10.00">+ dispatch</text>
<text text-anchor="start" x="2716" y="-59.5" font-family="Helvetica,sans-Serif" font-size="10.00">+ scope</text>
<polyline fill="none" stroke="black" points="2708,-52.5 2870,-52.5 "/>
<text text-anchor="start" x="2716" y="-40.5" font-family="Helvetica,sans-Serif" font-size="10.00">+ TVM_FFI_DECLARE_OBJECT</text>
<text text-anchor="start" x="2716" y="-29.5" font-family="Helvetica,sans-Serif" font-size="10.00">_INFO_FINAL()</text>
<text text-anchor="start" x="2716" y="-18.5" font-family="Helvetica,sans-Serif" font-size="10.00">+ RegisterReflection()</text>
</a>
</g>
</g>
<!-- Node1&#45;&gt;Node18 -->
<g id="edge17" class="edge">
<title>Node1&#45;&gt;Node18</title>
<path fill="none" stroke="midnightblue" d="M1612.48,-265.08C1854.18,-264.1 2504.49,-253.36 2699,-168 2706.1,-164.88 2713.01,-160.97 2719.64,-156.54"/>
<polygon fill="none" stroke="midnightblue" points="1612.31,-261.58 1602.32,-265.12 1612.34,-268.58 1612.31,-261.58"/>
</g>
<!-- Node19 -->
<g id="node19" class="node">
<title>Node19</title>
<g id="a_node19"><a xlink:href="classtvm_1_1tirx_1_1WhileNode.html" target="_top" xlink:title="A While loop.">
<polygon fill="white" stroke="black" points="2888,-39 2888,-129 3050,-129 3050,-39 2888,-39"/>
<text text-anchor="middle" x="2969" y="-117" font-family="Helvetica,sans-Serif" font-size="10.00">tvm::tirx::WhileNode</text>
<polyline fill="none" stroke="black" points="2888,-110 3050,-110 "/>
<text text-anchor="start" x="2896" y="-98" font-family="Helvetica,sans-Serif" font-size="10.00">+ condition</text>
<text text-anchor="start" x="2896" y="-87" font-family="Helvetica,sans-Serif" font-size="10.00">+ body</text>
<polyline fill="none" stroke="black" points="2888,-80 3050,-80 "/>
<text text-anchor="start" x="2896" y="-68" font-family="Helvetica,sans-Serif" font-size="10.00">+ TVM_FFI_DECLARE_OBJECT</text>
<text text-anchor="start" x="2896" y="-57" font-family="Helvetica,sans-Serif" font-size="10.00">_INFO_FINAL()</text>
<text text-anchor="start" x="2896" y="-46" font-family="Helvetica,sans-Serif" font-size="10.00">+ RegisterReflection()</text>
</a>
</g>
</g>
<!-- Node1&#45;&gt;Node19 -->
<g id="edge18" class="edge">
<title>Node1&#45;&gt;Node19</title>
<path fill="none" stroke="midnightblue" d="M1612.82,-261.95C1899.14,-251.97 2763.41,-217.98 2879,-168 2899.09,-159.31 2917.59,-144.18 2932.52,-129.19"/>
<polygon fill="none" stroke="midnightblue" points="1612.35,-258.47 1602.48,-262.31 1612.59,-265.46 1612.35,-258.47"/>
</g>
<!-- Node2 -->
<g id="node2" class="node">
<title>Node2</title>
<g id="a_node2"><a xlink:title=" ">
<polygon fill="white" stroke="#bfbfbf" points="1489,-364.5 1489,-421.5 1553,-421.5 1553,-364.5 1489,-364.5"/>
<text text-anchor="middle" x="1521" y="-409.5" font-family="Helvetica,sans-Serif" font-size="10.00">ffi::Object</text>
<polyline fill="none" stroke="#bfbfbf" points="1489,-402.5 1553,-402.5 "/>
<text text-anchor="middle" x="1521" y="-390.5" font-family="Helvetica,sans-Serif" font-size="10.00"> </text>
<polyline fill="none" stroke="#bfbfbf" points="1489,-383.5 1553,-383.5 "/>
<text text-anchor="middle" x="1521" y="-371.5" font-family="Helvetica,sans-Serif" font-size="10.00"> </text>
</a>
</g>
</g>
<!-- Node2&#45;&gt;Node1 -->
<g id="edge1" class="edge">
<title>Node2&#45;&gt;Node1</title>
<path fill="none" stroke="midnightblue" d="M1521,-354.1C1521,-345.74 1521,-336.68 1521,-327.67"/>
<polygon fill="none" stroke="midnightblue" points="1517.5,-354.26 1521,-364.26 1524.5,-354.26 1517.5,-354.26"/>
</g>
</g>
</svg>
