<?xml version="1.0" encoding="UTF-8" standalone="no"?>
<!DOCTYPE svg PUBLIC "-//W3C//DTD SVG 1.1//EN"
 "http://www.w3.org/Graphics/SVG/1.1/DTD/svg11.dtd">
<!-- Generated by graphviz version 2.43.0 (0)
 -->
<!-- Title: tvm::relax::DataTypeImmNode Pages: 1 -->
<svg width="427pt" height="913pt"
 viewBox="0.00 0.00 426.50 913.00" xmlns="http://www.w3.org/2000/svg" xmlns:xlink="http://www.w3.org/1999/xlink">
<g id="graph0" class="graph" transform="scale(1 1) rotate(0) translate(4 909)">
<title>tvm::relax::DataTypeImmNode</title>
<polygon fill="white" stroke="transparent" points="-4,4 -4,-909 422.5,-909 422.5,4 -4,4"/>
<!-- Node1 -->
<g id="node1" class="node">
<title>Node1</title>
<g id="a_node1"><a xlink:title="Represent a data type constant.">
<polygon fill="#bfbfbf" stroke="black" points="162.5,-0.5 162.5,-79.5 329.5,-79.5 329.5,-0.5 162.5,-0.5"/>
<text text-anchor="middle" x="246" y="-67.5" font-family="Helvetica,sans-Serif" font-size="10.00">tvm::relax::DataTypeImmNode</text>
<polyline fill="none" stroke="black" points="162.5,-60.5 329.5,-60.5 "/>
<text text-anchor="middle" x="246" y="-48.5" font-family="Helvetica,sans-Serif" font-size="10.00"> </text>
<polyline fill="none" stroke="black" points="162.5,-41.5 329.5,-41.5 "/>
<text text-anchor="start" x="170.5" y="-29.5" font-family="Helvetica,sans-Serif" font-size="10.00">+ TVM_FFI_DECLARE_OBJECT</text>
<text text-anchor="start" x="170.5" y="-18.5" font-family="Helvetica,sans-Serif" font-size="10.00">_INFO_FINAL()</text>
<text text-anchor="start" x="170.5" y="-7.5" font-family="Helvetica,sans-Serif" font-size="10.00">+ RegisterReflection()</text>
</a>
</g>
</g>
<!-- Node2 -->
<g id="node2" class="node">
<title>Node2</title>
<g id="a_node2"><a xlink:href="classtvm_1_1relax_1_1LeafExprNode.html" target="_top" xlink:title="Base type of all (non&#45;function) leaf Exprs.">
<polygon fill="white" stroke="black" points="81,-243 81,-311 243,-311 243,-243 81,-243"/>
<text text-anchor="middle" x="162" y="-299" font-family="Helvetica,sans-Serif" font-size="10.00">tvm::relax::LeafExprNode</text>
<polyline fill="none" stroke="black" points="81,-292 243,-292 "/>
<text text-anchor="start" x="89" y="-280" font-family="Helvetica,sans-Serif" font-size="10.00">+ _type_child_slots</text>
<polyline fill="none" stroke="black" points="81,-273 243,-273 "/>
<text text-anchor="start" x="89" y="-261" font-family="Helvetica,sans-Serif" font-size="10.00">+ TVM_FFI_DECLARE_OBJECT</text>
<text text-anchor="start" x="89" y="-250" font-family="Helvetica,sans-Serif" font-size="10.00">_INFO()</text>
</a>
</g>
</g>
<!-- Node2&#45;&gt;Node1 -->
<g id="edge1" class="edge">
<title>Node2&#45;&gt;Node1</title>
<path fill="none" stroke="midnightblue" d="M177.25,-233.33C192.89,-189.6 216.99,-122.17 232.11,-79.87"/>
<polygon fill="none" stroke="midnightblue" points="173.93,-232.23 173.86,-242.83 180.52,-234.59 173.93,-232.23"/>
</g>
<!-- Node3 -->
<g id="node3" class="node">
<title>Node3</title>
<g id="a_node3"><a xlink:href="classtvm_1_1RelaxExprNode.html" target="_top" xlink:title="Base node of all non&#45;primitive expressions.">
<polygon fill="white" stroke="black" points="81,-464.5 81,-543.5 243,-543.5 243,-464.5 81,-464.5"/>
<text text-anchor="middle" x="162" y="-531.5" font-family="Helvetica,sans-Serif" font-size="10.00">ExprNode</text>
<polyline fill="none" stroke="black" points="81,-524.5 243,-524.5 "/>
<text text-anchor="start" x="89" y="-512.5" font-family="Helvetica,sans-Serif" font-size="10.00">+ _type_child_slots</text>
<polyline fill="none" stroke="black" points="81,-505.5 243,-505.5 "/>
<text text-anchor="start" x="89" y="-493.5" font-family="Helvetica,sans-Serif" font-size="10.00">+ TVM_FFI_DECLARE_OBJECT</text>
<text text-anchor="start" x="89" y="-482.5" font-family="Helvetica,sans-Serif" font-size="10.00">_INFO()</text>
<text text-anchor="start" x="89" y="-471.5" font-family="Helvetica,sans-Serif" font-size="10.00">+ RegisterReflection()</text>
</a>
</g>
</g>
<!-- Node3&#45;&gt;Node2 -->
<g id="edge2" class="edge">
<title>Node3&#45;&gt;Node2</title>
<path fill="none" stroke="midnightblue" d="M162,-454.29C162,-410.98 162,-348.82 162,-311.06"/>
<polygon fill="none" stroke="midnightblue" points="158.5,-454.32 162,-464.32 165.5,-454.32 158.5,-454.32"/>
</g>
<!-- Node4 -->
<g id="node4" class="node">
<title>Node4</title>
<g id="a_node4"><a xlink:href="classtvm_1_1BaseExprNode.html" target="_top" xlink:title="Base type of all the expressions.">
<polygon fill="white" stroke="black" points="81,-581.5 81,-671.5 243,-671.5 243,-581.5 81,-581.5"/>
<text text-anchor="middle" x="162" y="-659.5" font-family="Helvetica,sans-Serif" font-size="10.00">tvm::BaseExprNode</text>
<polyline fill="none" stroke="black" points="81,-652.5 243,-652.5 "/>
<text text-anchor="start" x="89" y="-640.5" font-family="Helvetica,sans-Serif" font-size="10.00">+ _type_s_eq_hash_kind</text>
<text text-anchor="start" x="89" y="-629.5" font-family="Helvetica,sans-Serif" font-size="10.00">+ _type_child_slots</text>
<polyline fill="none" stroke="black" points="81,-622.5 243,-622.5 "/>
<text text-anchor="start" x="89" y="-610.5" font-family="Helvetica,sans-Serif" font-size="10.00">+ TVM_FFI_DECLARE_OBJECT</text>
<text text-anchor="start" x="89" y="-599.5" font-family="Helvetica,sans-Serif" font-size="10.00">_INFO()</text>
<text text-anchor="start" x="89" y="-588.5" font-family="Helvetica,sans-Serif" font-size="10.00">+ RegisterReflection()</text>
</a>
</g>
</g>
<!-- Node4&#45;&gt;Node3 -->
<g id="edge3" class="edge">
<title>Node4&#45;&gt;Node3</title>
<path fill="none" stroke="midnightblue" d="M162,-571.3C162,-561.97 162,-552.43 162,-543.61"/>
<polygon fill="none" stroke="midnightblue" points="158.5,-571.31 162,-581.31 165.5,-571.31 158.5,-571.31"/>
</g>
<!-- Node5 -->
<g id="node5" class="node">
<title>Node5</title>
<g id="a_node5"><a xlink:title=" ">
<polygon fill="white" stroke="#bfbfbf" points="0,-736 0,-793 64,-793 64,-736 0,-736"/>
<text text-anchor="middle" x="32" y="-781" font-family="Helvetica,sans-Serif" font-size="10.00">ffi::Object</text>
<polyline fill="none" stroke="#bfbfbf" points="0,-774 64,-774 "/>
<text text-anchor="middle" x="32" y="-762" font-family="Helvetica,sans-Serif" font-size="10.00"> </text>
<polyline fill="none" stroke="#bfbfbf" points="0,-755 64,-755 "/>
<text text-anchor="middle" x="32" y="-743" font-family="Helvetica,sans-Serif" font-size="10.00"> </text>
</a>
</g>
</g>
<!-- Node5&#45;&gt;Node4 -->
<g id="edge4" class="edge">
<title>Node5&#45;&gt;Node4</title>
<path fill="none" stroke="midnightblue" d="M64.28,-728.29C67.22,-725.14 70.16,-722 73,-719 87.63,-703.55 103.8,-686.82 118.3,-671.94"/>
<polygon fill="none" stroke="midnightblue" points="61.71,-725.91 57.47,-735.62 66.84,-730.67 61.71,-725.91"/>
</g>
<!-- Node6 -->
<g id="node6" class="node">
<title>Node6</title>
<g id="a_node6"><a xlink:href="classtvm_1_1Span.html" target="_top" xlink:title=" ">
<polygon fill="white" stroke="black" points="82.5,-719.5 82.5,-809.5 241.5,-809.5 241.5,-719.5 82.5,-719.5"/>
<text text-anchor="middle" x="162" y="-797.5" font-family="Helvetica,sans-Serif" font-size="10.00">tvm::Span</text>
<polyline fill="none" stroke="black" points="82.5,-790.5 241.5,-790.5 "/>
<text text-anchor="middle" x="162" y="-778.5" font-family="Helvetica,sans-Serif" font-size="10.00"> </text>
<polyline fill="none" stroke="black" points="82.5,-771.5 241.5,-771.5 "/>
<text text-anchor="start" x="90.5" y="-759.5" font-family="Helvetica,sans-Serif" font-size="10.00">+ Span()</text>
<text text-anchor="start" x="90.5" y="-748.5" font-family="Helvetica,sans-Serif" font-size="10.00">+ Merge()</text>
<text text-anchor="start" x="90.5" y="-737.5" font-family="Helvetica,sans-Serif" font-size="10.00">+ TVM_FFI_DEFINE_OBJECT</text>
<text text-anchor="start" x="90.5" y="-726.5" font-family="Helvetica,sans-Serif" font-size="10.00">_REF_METHODS_NULLABLE()</text>
</a>
</g>
</g>
<!-- Node6&#45;&gt;Node4 -->
<g id="edge5" class="edge">
<title>Node6&#45;&gt;Node4</title>
<path fill="none" stroke="#404040" d="M162,-719.34C162,-708.06 162,-695.78 162,-683.97"/>
<polygon fill="none" stroke="#404040" points="162,-683.9 158,-677.9 162,-671.9 166,-677.9 162,-683.9"/>
<text text-anchor="middle" x="179.5" y="-693" font-family="Helvetica,sans-Serif" font-size="10.00"> +span</text>
</g>
<!-- Node7 -->
<g id="node7" class="node">
<title>Node7</title>
<g id="a_node7"><a xlink:title=" ">
<polygon fill="white" stroke="#bfbfbf" points="210,-847.5 210,-904.5 290,-904.5 290,-847.5 210,-847.5"/>
<text text-anchor="middle" x="250" y="-892.5" font-family="Helvetica,sans-Serif" font-size="10.00">ffi::ObjectRef</text>
<polyline fill="none" stroke="#bfbfbf" points="210,-885.5 290,-885.5 "/>
<text text-anchor="middle" x="250" y="-873.5" font-family="Helvetica,sans-Serif" font-size="10.00"> </text>
<polyline fill="none" stroke="#bfbfbf" points="210,-866.5 290,-866.5 "/>
<text text-anchor="middle" x="250" y="-854.5" font-family="Helvetica,sans-Serif" font-size="10.00"> </text>
</a>
</g>
</g>
<!-- Node7&#45;&gt;Node6 -->
<g id="edge6" class="edge">
<title>Node7&#45;&gt;Node6</title>
<path fill="none" stroke="midnightblue" d="M221.33,-839.33C213.74,-829.89 205.46,-819.58 197.56,-809.74"/>
<polygon fill="none" stroke="midnightblue" points="218.8,-841.77 227.79,-847.37 224.26,-837.38 218.8,-841.77"/>
</g>
<!-- Node8 -->
<g id="node8" class="node">
<title>Node8</title>
<g id="a_node8"><a xlink:href="classtvm_1_1Type.html" target="_top" xlink:title="Managed reference to TypeNode.">
<polygon fill="white" stroke="black" points="259.5,-730.5 259.5,-798.5 418.5,-798.5 418.5,-730.5 259.5,-730.5"/>
<text text-anchor="middle" x="339" y="-786.5" font-family="Helvetica,sans-Serif" font-size="10.00">tvm::Type</text>
<polyline fill="none" stroke="black" points="259.5,-779.5 418.5,-779.5 "/>
<text text-anchor="middle" x="339" y="-767.5" font-family="Helvetica,sans-Serif" font-size="10.00"> </text>
<polyline fill="none" stroke="black" points="259.5,-760.5 418.5,-760.5 "/>
<text text-anchor="start" x="267.5" y="-748.5" font-family="Helvetica,sans-Serif" font-size="10.00">+ TVM_FFI_DEFINE_OBJECT</text>
<text text-anchor="start" x="267.5" y="-737.5" font-family="Helvetica,sans-Serif" font-size="10.00">_REF_METHODS_NULLABLE()</text>
</a>
</g>
</g>
<!-- Node7&#45;&gt;Node8 -->
<g id="edge8" class="edge">
<title>Node7&#45;&gt;Node8</title>
<path fill="none" stroke="midnightblue" d="M278.9,-839.44C289.58,-826.31 301.62,-811.49 312.11,-798.59"/>
<polygon fill="none" stroke="midnightblue" points="276.05,-837.4 272.46,-847.37 281.48,-841.82 276.05,-837.4"/>
</g>
<!-- Node8&#45;&gt;Node4 -->
<g id="edge7" class="edge">
<title>Node8&#45;&gt;Node4</title>
<path fill="none" stroke="#404040" d="M295.7,-730.23C275.73,-714.89 251.56,-696.32 229.3,-679.21"/>
<polygon fill="none" stroke="#404040" points="229.07,-679.04 221.88,-678.55 219.56,-671.73 226.75,-672.21 229.07,-679.04"/>
<text text-anchor="middle" x="267" y="-693" font-family="Helvetica,sans-Serif" font-size="10.00"> +ty</text>
</g>
<!-- Node9 -->
<g id="node9" class="node">
<title>Node9</title>
<g id="a_node9"><a xlink:href="classtvm_1_1runtime_1_1DataType.html" target="_top" xlink:title="Runtime primitive data type.">
<polygon fill="white" stroke="black" points="261,-127.5 261,-426.5 401,-426.5 401,-127.5 261,-127.5"/>
<text text-anchor="middle" x="331" y="-414.5" font-family="Helvetica,sans-Serif" font-size="10.00">tvm::runtime::DataType</text>
<polyline fill="none" stroke="black" points="261,-407.5 401,-407.5 "/>
<text text-anchor="middle" x="331" y="-395.5" font-family="Helvetica,sans-Serif" font-size="10.00"> </text>
<polyline fill="none" stroke="black" points="261,-388.5 401,-388.5 "/>
<text text-anchor="start" x="269" y="-376.5" font-family="Helvetica,sans-Serif" font-size="10.00">+ DataType()</text>
<text text-anchor="start" x="269" y="-365.5" font-family="Helvetica,sans-Serif" font-size="10.00">+ DataType()</text>
<text text-anchor="start" x="269" y="-354.5" font-family="Helvetica,sans-Serif" font-size="10.00">+ DataType()</text>
<text text-anchor="start" x="269" y="-343.5" font-family="Helvetica,sans-Serif" font-size="10.00">+ code()</text>
<text text-anchor="start" x="269" y="-332.5" font-family="Helvetica,sans-Serif" font-size="10.00">+ bits()</text>
<text text-anchor="start" x="269" y="-321.5" font-family="Helvetica,sans-Serif" font-size="10.00">+ bytes()</text>
<text text-anchor="start" x="269" y="-310.5" font-family="Helvetica,sans-Serif" font-size="10.00">+ lanes()</text>
<text text-anchor="start" x="269" y="-299.5" font-family="Helvetica,sans-Serif" font-size="10.00">+ vscale_factor()</text>
<text text-anchor="start" x="269" y="-288.5" font-family="Helvetica,sans-Serif" font-size="10.00">+ get_lanes_or_vscale</text>
<text text-anchor="start" x="269" y="-277.5" font-family="Helvetica,sans-Serif" font-size="10.00">_factor()</text>
<text text-anchor="start" x="269" y="-266.5" font-family="Helvetica,sans-Serif" font-size="10.00">+ is_scalar()</text>
<text text-anchor="start" x="269" y="-255.5" font-family="Helvetica,sans-Serif" font-size="10.00">and 37 more...</text>
<text text-anchor="start" x="269" y="-244.5" font-family="Helvetica,sans-Serif" font-size="10.00">+ Int()</text>
<text text-anchor="start" x="269" y="-233.5" font-family="Helvetica,sans-Serif" font-size="10.00">+ UInt()</text>
<text text-anchor="start" x="269" y="-222.5" font-family="Helvetica,sans-Serif" font-size="10.00">+ Float()</text>
<text text-anchor="start" x="269" y="-211.5" font-family="Helvetica,sans-Serif" font-size="10.00">+ BFloat()</text>
<text text-anchor="start" x="269" y="-200.5" font-family="Helvetica,sans-Serif" font-size="10.00">+ Float8E3M4()</text>
<text text-anchor="start" x="269" y="-189.5" font-family="Helvetica,sans-Serif" font-size="10.00">+ Float8E4M3()</text>
<text text-anchor="start" x="269" y="-178.5" font-family="Helvetica,sans-Serif" font-size="10.00">+ Float8E4M3B11FNUZ()</text>
<text text-anchor="start" x="269" y="-167.5" font-family="Helvetica,sans-Serif" font-size="10.00">+ Float8E4M3FN()</text>
<text text-anchor="start" x="269" y="-156.5" font-family="Helvetica,sans-Serif" font-size="10.00">+ Float8E4M3FNUZ()</text>
<text text-anchor="start" x="269" y="-145.5" font-family="Helvetica,sans-Serif" font-size="10.00">+ Float8E5M2()</text>
<text text-anchor="start" x="269" y="-134.5" font-family="Helvetica,sans-Serif" font-size="10.00">and 9 more...</text>
</a>
</g>
</g>
<!-- Node9&#45;&gt;Node1 -->
<g id="edge9" class="edge">
<title>Node9&#45;&gt;Node1</title>
<path fill="none" stroke="#404040" d="M277.17,-127.17C272.57,-114.46 268.16,-102.28 264.19,-91.28"/>
<polygon fill="none" stroke="#404040" points="264.13,-91.13 258.33,-86.85 260.05,-79.84 265.85,-84.12 264.13,-91.13"/>
<text text-anchor="middle" x="288.5" y="-101" font-family="Helvetica,sans-Serif" font-size="10.00"> +value</text>
</g>
</g>
</svg>
