<?xml version="1.0" encoding="UTF-8" standalone="no"?>
<!DOCTYPE svg PUBLIC "-//W3C//DTD SVG 1.1//EN"
 "http://www.w3.org/Graphics/SVG/1.1/DTD/svg11.dtd">
<!-- Generated by graphviz version 2.43.0 (0)
 -->
<!-- Title: tvm::tirx::TilePrimitiveCallNode Pages: 1 -->
<svg width="475pt" height="776pt"
 viewBox="0.00 0.00 475.00 776.00" xmlns="http://www.w3.org/2000/svg" xmlns:xlink="http://www.w3.org/1999/xlink">
<g id="graph0" class="graph" transform="scale(1 1) rotate(0) translate(4 772)">
<title>tvm::tirx::TilePrimitiveCallNode</title>
<polygon fill="white" stroke="transparent" points="-4,4 -4,-772 471,-772 471,4 -4,4"/>
<!-- Node1 -->
<g id="node1" class="node">
<title>Node1</title>
<g id="a_node1"><a xlink:title="TIRX TilePrimitiveCall stmt.">
<polygon fill="#bfbfbf" stroke="black" points="178,-0.5 178,-134.5 340,-134.5 340,-0.5 178,-0.5"/>
<text text-anchor="start" x="186" y="-122.5" font-family="Helvetica,sans-Serif" font-size="10.00">tvm::tirx::TilePrimitive</text>
<text text-anchor="middle" x="259" y="-111.5" font-family="Helvetica,sans-Serif" font-size="10.00">CallNode</text>
<polyline fill="none" stroke="black" points="178,-104.5 340,-104.5 "/>
<text text-anchor="start" x="186" y="-92.5" font-family="Helvetica,sans-Serif" font-size="10.00">+ args</text>
<text text-anchor="start" x="186" y="-81.5" font-family="Helvetica,sans-Serif" font-size="10.00">+ workspace</text>
<text text-anchor="start" x="186" y="-70.5" font-family="Helvetica,sans-Serif" font-size="10.00">+ config</text>
<text text-anchor="start" x="186" y="-59.5" font-family="Helvetica,sans-Serif" font-size="10.00">+ dispatch</text>
<polyline fill="none" stroke="black" points="178,-52.5 340,-52.5 "/>
<text text-anchor="start" x="186" y="-40.5" font-family="Helvetica,sans-Serif" font-size="10.00">+ TilePrimitiveCallNode()</text>
<text text-anchor="start" x="186" y="-29.5" font-family="Helvetica,sans-Serif" font-size="10.00">+ TVM_FFI_DECLARE_OBJECT</text>
<text text-anchor="start" x="186" y="-18.5" font-family="Helvetica,sans-Serif" font-size="10.00">_INFO_FINAL()</text>
<text text-anchor="start" x="186" y="-7.5" font-family="Helvetica,sans-Serif" font-size="10.00">+ RegisterReflection()</text>
</a>
</g>
</g>
<!-- Node2 -->
<g id="node2" class="node">
<title>Node2</title>
<g id="a_node2"><a xlink:href="classtvm_1_1tirx_1_1StmtNode.html" target="_top" xlink:title="Base node of all statements.">
<polygon fill="white" stroke="black" points="69,-342.5 69,-454.5 231,-454.5 231,-342.5 69,-342.5"/>
<text text-anchor="middle" x="150" y="-442.5" font-family="Helvetica,sans-Serif" font-size="10.00">tvm::tirx::StmtNode</text>
<polyline fill="none" stroke="black" points="69,-435.5 231,-435.5 "/>
<text text-anchor="start" x="77" y="-423.5" font-family="Helvetica,sans-Serif" font-size="10.00">+ _type_s_eq_hash_kind</text>
<text text-anchor="start" x="77" y="-412.5" font-family="Helvetica,sans-Serif" font-size="10.00">+ _type_child_slots</text>
<polyline fill="none" stroke="black" points="69,-405.5 231,-405.5 "/>
<text text-anchor="start" x="77" y="-393.5" font-family="Helvetica,sans-Serif" font-size="10.00">+ StmtNode()</text>
<text text-anchor="start" x="77" y="-382.5" font-family="Helvetica,sans-Serif" font-size="10.00">+ StmtNode()</text>
<text text-anchor="start" x="77" y="-371.5" font-family="Helvetica,sans-Serif" font-size="10.00">+ TVM_FFI_DECLARE_OBJECT</text>
<text text-anchor="start" x="77" y="-360.5" font-family="Helvetica,sans-Serif" font-size="10.00">_INFO()</text>
<text text-anchor="start" x="77" y="-349.5" font-family="Helvetica,sans-Serif" font-size="10.00">+ RegisterReflection()</text>
</a>
</g>
</g>
<!-- Node2&#45;&gt;Node1 -->
<g id="edge1" class="edge">
<title>Node2&#45;&gt;Node1</title>
<path fill="none" stroke="midnightblue" d="M171.45,-332.76C190.43,-275.46 218.01,-192.21 237.12,-134.53"/>
<polygon fill="none" stroke="midnightblue" points="168.07,-331.84 168.24,-342.43 174.71,-334.04 168.07,-331.84"/>
</g>
<!-- Node3 -->
<g id="node3" class="node">
<title>Node3</title>
<g id="a_node3"><a xlink:title=" ">
<polygon fill="white" stroke="#bfbfbf" points="0,-599 0,-656 64,-656 64,-599 0,-599"/>
<text text-anchor="middle" x="32" y="-644" font-family="Helvetica,sans-Serif" font-size="10.00">ffi::Object</text>
<polyline fill="none" stroke="#bfbfbf" points="0,-637 64,-637 "/>
<text text-anchor="middle" x="32" y="-625" font-family="Helvetica,sans-Serif" font-size="10.00"> </text>
<polyline fill="none" stroke="#bfbfbf" points="0,-618 64,-618 "/>
<text text-anchor="middle" x="32" y="-606" font-family="Helvetica,sans-Serif" font-size="10.00"> </text>
</a>
</g>
</g>
<!-- Node3&#45;&gt;Node2 -->
<g id="edge2" class="edge">
<title>Node3&#45;&gt;Node2</title>
<path fill="none" stroke="midnightblue" d="M51.3,-589.38C70.27,-552.88 99.46,-496.73 121.18,-454.94"/>
<polygon fill="none" stroke="midnightblue" points="47.98,-588.18 46.47,-598.67 54.19,-591.41 47.98,-588.18"/>
</g>
<!-- Node4 -->
<g id="node4" class="node">
<title>Node4</title>
<g id="a_node4"><a xlink:href="classtvm_1_1Span.html" target="_top" xlink:title=" ">
<polygon fill="white" stroke="black" points="82.5,-582.5 82.5,-672.5 241.5,-672.5 241.5,-582.5 82.5,-582.5"/>
<text text-anchor="middle" x="162" y="-660.5" font-family="Helvetica,sans-Serif" font-size="10.00">tvm::Span</text>
<polyline fill="none" stroke="black" points="82.5,-653.5 241.5,-653.5 "/>
<text text-anchor="middle" x="162" y="-641.5" font-family="Helvetica,sans-Serif" font-size="10.00"> </text>
<polyline fill="none" stroke="black" points="82.5,-634.5 241.5,-634.5 "/>
<text text-anchor="start" x="90.5" y="-622.5" font-family="Helvetica,sans-Serif" font-size="10.00">+ Span()</text>
<text text-anchor="start" x="90.5" y="-611.5" font-family="Helvetica,sans-Serif" font-size="10.00">+ Merge()</text>
<text text-anchor="start" x="90.5" y="-600.5" font-family="Helvetica,sans-Serif" font-size="10.00">+ TVM_FFI_DEFINE_OBJECT</text>
<text text-anchor="start" x="90.5" y="-589.5" font-family="Helvetica,sans-Serif" font-size="10.00">_REF_METHODS_NULLABLE()</text>
</a>
</g>
</g>
<!-- Node4&#45;&gt;Node2 -->
<g id="edge3" class="edge">
<title>Node4&#45;&gt;Node2</title>
<path fill="none" stroke="#404040" d="M148.45,-582.41C147.03,-576.28 145.8,-570.02 145,-564 140.74,-532.14 141.19,-496.51 143.04,-466.58"/>
<polygon fill="none" stroke="#404040" points="143.04,-466.53 139.46,-460.27 143.87,-454.56 147.44,-460.82 143.04,-466.53"/>
<text text-anchor="middle" x="162.5" y="-516" font-family="Helvetica,sans-Serif" font-size="10.00"> +span</text>
</g>
<!-- Node5 -->
<g id="node5" class="node">
<title>Node5</title>
<g id="a_node5"><a xlink:title=" ">
<polygon fill="white" stroke="#bfbfbf" points="229,-710.5 229,-767.5 309,-767.5 309,-710.5 229,-710.5"/>
<text text-anchor="middle" x="269" y="-755.5" font-family="Helvetica,sans-Serif" font-size="10.00">ffi::ObjectRef</text>
<polyline fill="none" stroke="#bfbfbf" points="229,-748.5 309,-748.5 "/>
<text text-anchor="middle" x="269" y="-736.5" font-family="Helvetica,sans-Serif" font-size="10.00"> </text>
<polyline fill="none" stroke="#bfbfbf" points="229,-729.5 309,-729.5 "/>
<text text-anchor="middle" x="269" y="-717.5" font-family="Helvetica,sans-Serif" font-size="10.00"> </text>
</a>
</g>
</g>
<!-- Node5&#45;&gt;Node4 -->
<g id="edge4" class="edge">
<title>Node5&#45;&gt;Node4</title>
<path fill="none" stroke="midnightblue" d="M234.98,-703.18C225.53,-693.51 215.14,-682.88 205.23,-672.74"/>
<polygon fill="none" stroke="midnightblue" points="232.51,-705.66 242,-710.37 237.51,-700.77 232.51,-705.66"/>
</g>
<!-- Node6 -->
<g id="node6" class="node">
<title>Node6</title>
<g id="a_node6"><a xlink:href="classtvm_1_1tirx_1_1ExecScope.html" target="_top" xlink:title=" ">
<polygon fill="white" stroke="black" points="189.5,-473.5 189.5,-563.5 348.5,-563.5 348.5,-473.5 189.5,-473.5"/>
<text text-anchor="middle" x="269" y="-551.5" font-family="Helvetica,sans-Serif" font-size="10.00">tvm::tirx::ExecScope</text>
<polyline fill="none" stroke="black" points="189.5,-544.5 348.5,-544.5 "/>
<text text-anchor="middle" x="269" y="-532.5" font-family="Helvetica,sans-Serif" font-size="10.00"> </text>
<polyline fill="none" stroke="black" points="189.5,-525.5 348.5,-525.5 "/>
<text text-anchor="start" x="197.5" y="-513.5" font-family="Helvetica,sans-Serif" font-size="10.00">+ ExecScope()</text>
<text text-anchor="start" x="197.5" y="-502.5" font-family="Helvetica,sans-Serif" font-size="10.00">+ ExecScope()</text>
<text text-anchor="start" x="197.5" y="-491.5" font-family="Helvetica,sans-Serif" font-size="10.00">+ TVM_FFI_DEFINE_OBJECT</text>
<text text-anchor="start" x="197.5" y="-480.5" font-family="Helvetica,sans-Serif" font-size="10.00">_REF_METHODS_NULLABLE()</text>
</a>
</g>
</g>
<!-- Node5&#45;&gt;Node6 -->
<g id="edge6" class="edge">
<title>Node5&#45;&gt;Node6</title>
<path fill="none" stroke="midnightblue" d="M269,-700.18C269,-662.18 269,-603.64 269,-563.56"/>
<polygon fill="none" stroke="midnightblue" points="265.5,-700.33 269,-710.33 272.5,-700.33 265.5,-700.33"/>
</g>
<!-- Node9 -->
<g id="node9" class="node">
<title>Node9</title>
<g id="a_node9"><a xlink:href="classtvm_1_1BaseExpr.html" target="_top" xlink:title="Managed reference to BaseExprNode.">
<polygon fill="white" stroke="black" points="296.5,-593.5 296.5,-661.5 455.5,-661.5 455.5,-593.5 296.5,-593.5"/>
<text text-anchor="middle" x="376" y="-649.5" font-family="Helvetica,sans-Serif" font-size="10.00">tvm::BaseExpr</text>
<polyline fill="none" stroke="black" points="296.5,-642.5 455.5,-642.5 "/>
<text text-anchor="middle" x="376" y="-630.5" font-family="Helvetica,sans-Serif" font-size="10.00"> </text>
<polyline fill="none" stroke="black" points="296.5,-623.5 455.5,-623.5 "/>
<text text-anchor="start" x="304.5" y="-611.5" font-family="Helvetica,sans-Serif" font-size="10.00">+ TVM_FFI_DEFINE_OBJECT</text>
<text text-anchor="start" x="304.5" y="-600.5" font-family="Helvetica,sans-Serif" font-size="10.00">_REF_METHODS_NULLABLE()</text>
</a>
</g>
</g>
<!-- Node5&#45;&gt;Node9 -->
<g id="edge10" class="edge">
<title>Node5&#45;&gt;Node9</title>
<path fill="none" stroke="midnightblue" d="M303.02,-703.18C316.03,-689.87 330.82,-674.73 343.67,-661.59"/>
<polygon fill="none" stroke="midnightblue" points="300.49,-700.77 296,-710.37 305.49,-705.66 300.49,-700.77"/>
</g>
<!-- Node6&#45;&gt;Node1 -->
<g id="edge5" class="edge">
<title>Node6&#45;&gt;Node1</title>
<path fill="none" stroke="#404040" d="M268.01,-473.22C266.32,-397.34 262.85,-241.52 260.75,-146.9"/>
<polygon fill="none" stroke="#404040" points="260.74,-146.82 256.61,-140.91 260.48,-134.82 264.61,-140.73 260.74,-146.82"/>
<text text-anchor="middle" x="285" y="-316" font-family="Helvetica,sans-Serif" font-size="10.00"> +scope</text>
</g>
<!-- Node7 -->
<g id="node7" class="node">
<title>Node7</title>
<g id="a_node7"><a xlink:href="classtvm_1_1Op.html" target="_top" xlink:title="Managed reference class to OpNode.">
<polygon fill="white" stroke="black" points="287,-182.5 287,-294.5 467,-294.5 467,-182.5 287,-182.5"/>
<text text-anchor="middle" x="377" y="-282.5" font-family="Helvetica,sans-Serif" font-size="10.00">tvm::Op</text>
<polyline fill="none" stroke="black" points="287,-275.5 467,-275.5 "/>
<text text-anchor="middle" x="377" y="-263.5" font-family="Helvetica,sans-Serif" font-size="10.00"> </text>
<polyline fill="none" stroke="black" points="287,-256.5 467,-256.5 "/>
<text text-anchor="start" x="295" y="-244.5" font-family="Helvetica,sans-Serif" font-size="10.00">+ Op()</text>
<text text-anchor="start" x="295" y="-233.5" font-family="Helvetica,sans-Serif" font-size="10.00">+ TVM_FFI_DEFINE_OBJECT</text>
<text text-anchor="start" x="295" y="-222.5" font-family="Helvetica,sans-Serif" font-size="10.00">_REF_METHODS_NOTNULLABLE()</text>
<text text-anchor="start" x="295" y="-211.5" font-family="Helvetica,sans-Serif" font-size="10.00">+ GetAttrMap()</text>
<text text-anchor="start" x="295" y="-200.5" font-family="Helvetica,sans-Serif" font-size="10.00">+ HasAttrMap()</text>
<text text-anchor="start" x="295" y="-189.5" font-family="Helvetica,sans-Serif" font-size="10.00">+ Get()</text>
</a>
</g>
</g>
<!-- Node7&#45;&gt;Node1 -->
<g id="edge7" class="edge">
<title>Node7&#45;&gt;Node1</title>
<path fill="none" stroke="#404040" d="M338.36,-182.16C329.98,-170.16 320.98,-157.27 312.15,-144.62"/>
<polygon fill="none" stroke="#404040" points="311.99,-144.4 305.28,-141.77 305.12,-134.56 311.84,-137.19 311.99,-144.4"/>
<text text-anchor="middle" x="337" y="-156" font-family="Helvetica,sans-Serif" font-size="10.00"> +op</text>
</g>
<!-- Node8 -->
<g id="node8" class="node">
<title>Node8</title>
<g id="a_node8"><a xlink:href="classtvm_1_1RelaxExpr.html" target="_top" xlink:title="Managed reference to RelaxExprNode.">
<polygon fill="white" stroke="black" points="296.5,-364.5 296.5,-432.5 455.5,-432.5 455.5,-364.5 296.5,-364.5"/>
<text text-anchor="middle" x="376" y="-420.5" font-family="Helvetica,sans-Serif" font-size="10.00">tvm::RelaxExpr</text>
<polyline fill="none" stroke="black" points="296.5,-413.5 455.5,-413.5 "/>
<text text-anchor="middle" x="376" y="-401.5" font-family="Helvetica,sans-Serif" font-size="10.00"> </text>
<polyline fill="none" stroke="black" points="296.5,-394.5 455.5,-394.5 "/>
<text text-anchor="start" x="304.5" y="-382.5" font-family="Helvetica,sans-Serif" font-size="10.00">+ TVM_FFI_DEFINE_OBJECT</text>
<text text-anchor="start" x="304.5" y="-371.5" font-family="Helvetica,sans-Serif" font-size="10.00">_REF_METHODS_NULLABLE()</text>
</a>
</g>
</g>
<!-- Node8&#45;&gt;Node7 -->
<g id="edge8" class="edge">
<title>Node8&#45;&gt;Node7</title>
<path fill="none" stroke="midnightblue" d="M376.27,-354.25C376.39,-335.86 376.53,-314.18 376.65,-294.66"/>
<polygon fill="none" stroke="midnightblue" points="372.77,-354.36 376.21,-364.38 379.77,-354.4 372.77,-354.36"/>
</g>
<!-- Node9&#45;&gt;Node8 -->
<g id="edge9" class="edge">
<title>Node9&#45;&gt;Node8</title>
<path fill="none" stroke="midnightblue" d="M376,-583.41C376,-539.52 376,-472.41 376,-432.55"/>
<polygon fill="none" stroke="midnightblue" points="372.5,-583.49 376,-593.49 379.5,-583.49 372.5,-583.49"/>
</g>
</g>
</svg>
