<?xml version="1.0" encoding="UTF-8" standalone="no"?>
<!DOCTYPE svg PUBLIC "-//W3C//DTD SVG 1.1//EN"
 "http://www.w3.org/Graphics/SVG/1.1/DTD/svg11.dtd">
<!-- Generated by graphviz version 2.43.0 (0)
 -->
<!-- Title: tvm::tirx::ReduceNode Pages: 1 -->
<svg width="711pt" height="989pt"
 viewBox="0.00 0.00 711.00 989.00" xmlns="http://www.w3.org/2000/svg" xmlns:xlink="http://www.w3.org/1999/xlink">
<g id="graph0" class="graph" transform="scale(1 1) rotate(0) translate(4 985)">
<title>tvm::tirx::ReduceNode</title>
<polygon fill="white" stroke="transparent" points="-4,4 -4,-985 707,-985 707,4 -4,4"/>
<!-- Node1 -->
<g id="node1" class="node">
<title>Node1</title>
<g id="a_node1"><a xlink:title="Reduction operator.">
<polygon fill="#bfbfbf" stroke="black" points="157.5,-0.5 157.5,-112.5 319.5,-112.5 319.5,-0.5 157.5,-0.5"/>
<text text-anchor="middle" x="238.5" y="-100.5" font-family="Helvetica,sans-Serif" font-size="10.00">tvm::tirx::ReduceNode</text>
<polyline fill="none" stroke="black" points="157.5,-93.5 319.5,-93.5 "/>
<text text-anchor="start" x="165.5" y="-81.5" font-family="Helvetica,sans-Serif" font-size="10.00">+ source</text>
<text text-anchor="start" x="165.5" y="-70.5" font-family="Helvetica,sans-Serif" font-size="10.00">+ init</text>
<text text-anchor="start" x="165.5" y="-59.5" font-family="Helvetica,sans-Serif" font-size="10.00">+ axis</text>
<text text-anchor="start" x="165.5" y="-48.5" font-family="Helvetica,sans-Serif" font-size="10.00">+ value_index</text>
<polyline fill="none" stroke="black" points="157.5,-41.5 319.5,-41.5 "/>
<text text-anchor="start" x="165.5" y="-29.5" font-family="Helvetica,sans-Serif" font-size="10.00">+ TVM_FFI_DECLARE_OBJECT</text>
<text text-anchor="start" x="165.5" y="-18.5" font-family="Helvetica,sans-Serif" font-size="10.00">_INFO_FINAL()</text>
<text text-anchor="start" x="165.5" y="-7.5" font-family="Helvetica,sans-Serif" font-size="10.00">+ RegisterReflection()</text>
</a>
</g>
</g>
<!-- Node2 -->
<g id="node2" class="node">
<title>Node2</title>
<g id="a_node2"><a xlink:href="classtvm_1_1PrimExprNode.html" target="_top" xlink:title="Base node of all primitive expressions.">
<polygon fill="white" stroke="black" points="157.5,-150.5 157.5,-229.5 319.5,-229.5 319.5,-150.5 157.5,-150.5"/>
<text text-anchor="middle" x="238.5" y="-217.5" font-family="Helvetica,sans-Serif" font-size="10.00">tvm::PrimExprNode</text>
<polyline fill="none" stroke="black" points="157.5,-210.5 319.5,-210.5 "/>
<text text-anchor="start" x="165.5" y="-198.5" font-family="Helvetica,sans-Serif" font-size="10.00">+ _type_child_slots</text>
<polyline fill="none" stroke="black" points="157.5,-191.5 319.5,-191.5 "/>
<text text-anchor="start" x="165.5" y="-179.5" font-family="Helvetica,sans-Serif" font-size="10.00">+ TVM_FFI_DECLARE_OBJECT</text>
<text text-anchor="start" x="165.5" y="-168.5" font-family="Helvetica,sans-Serif" font-size="10.00">_INFO()</text>
<text text-anchor="start" x="165.5" y="-157.5" font-family="Helvetica,sans-Serif" font-size="10.00">+ RegisterReflection()</text>
</a>
</g>
</g>
<!-- Node2&#45;&gt;Node1 -->
<g id="edge1" class="edge">
<title>Node2&#45;&gt;Node1</title>
<path fill="none" stroke="midnightblue" d="M238.5,-139.99C238.5,-131.04 238.5,-121.64 238.5,-112.53"/>
<polygon fill="none" stroke="midnightblue" points="235,-140.26 238.5,-150.26 242,-140.26 235,-140.26"/>
</g>
<!-- Node3 -->
<g id="node3" class="node">
<title>Node3</title>
<g id="a_node3"><a xlink:href="classtvm_1_1BaseExprNode.html" target="_top" xlink:title="Base type of all the expressions.">
<polygon fill="white" stroke="black" points="265.5,-484 265.5,-574 427.5,-574 427.5,-484 265.5,-484"/>
<text text-anchor="middle" x="346.5" y="-562" font-family="Helvetica,sans-Serif" font-size="10.00">tvm::BaseExprNode</text>
<polyline fill="none" stroke="black" points="265.5,-555 427.5,-555 "/>
<text text-anchor="start" x="273.5" y="-543" font-family="Helvetica,sans-Serif" font-size="10.00">+ _type_s_eq_hash_kind</text>
<text text-anchor="start" x="273.5" y="-532" font-family="Helvetica,sans-Serif" font-size="10.00">+ _type_child_slots</text>
<polyline fill="none" stroke="black" points="265.5,-525 427.5,-525 "/>
<text text-anchor="start" x="273.5" y="-513" font-family="Helvetica,sans-Serif" font-size="10.00">+ TVM_FFI_DECLARE_OBJECT</text>
<text text-anchor="start" x="273.5" y="-502" font-family="Helvetica,sans-Serif" font-size="10.00">_INFO()</text>
<text text-anchor="start" x="273.5" y="-491" font-family="Helvetica,sans-Serif" font-size="10.00">+ RegisterReflection()</text>
</a>
</g>
</g>
<!-- Node3&#45;&gt;Node2 -->
<g id="edge2" class="edge">
<title>Node3&#45;&gt;Node2</title>
<path fill="none" stroke="midnightblue" d="M335.94,-473.79C323.82,-416.42 301.53,-323.86 270.5,-248 268.01,-241.91 265,-235.65 261.84,-229.62"/>
<polygon fill="none" stroke="midnightblue" points="332.55,-474.66 338.02,-483.73 339.4,-473.23 332.55,-474.66"/>
</g>
<!-- Node4 -->
<g id="node4" class="node">
<title>Node4</title>
<g id="a_node4"><a xlink:title=" ">
<polygon fill="white" stroke="#bfbfbf" points="284.5,-812 284.5,-869 348.5,-869 348.5,-812 284.5,-812"/>
<text text-anchor="middle" x="316.5" y="-857" font-family="Helvetica,sans-Serif" font-size="10.00">ffi::Object</text>
<polyline fill="none" stroke="#bfbfbf" points="284.5,-850 348.5,-850 "/>
<text text-anchor="middle" x="316.5" y="-838" font-family="Helvetica,sans-Serif" font-size="10.00"> </text>
<polyline fill="none" stroke="#bfbfbf" points="284.5,-831 348.5,-831 "/>
<text text-anchor="middle" x="316.5" y="-819" font-family="Helvetica,sans-Serif" font-size="10.00"> </text>
</a>
</g>
</g>
<!-- Node4&#45;&gt;Node3 -->
<g id="edge3" class="edge">
<title>Node4&#45;&gt;Node3</title>
<path fill="none" stroke="midnightblue" d="M320.17,-801.65C325.74,-744.13 336.32,-634.99 342.23,-574.01"/>
<polygon fill="none" stroke="midnightblue" points="316.67,-801.47 319.19,-811.76 323.64,-802.15 316.67,-801.47"/>
</g>
<!-- Node5 -->
<g id="node5" class="node">
<title>Node5</title>
<g id="a_node5"><a xlink:href="classtvm_1_1Span.html" target="_top" xlink:title=" ">
<polygon fill="white" stroke="black" points="367,-795.5 367,-885.5 526,-885.5 526,-795.5 367,-795.5"/>
<text text-anchor="middle" x="446.5" y="-873.5" font-family="Helvetica,sans-Serif" font-size="10.00">tvm::Span</text>
<polyline fill="none" stroke="black" points="367,-866.5 526,-866.5 "/>
<text text-anchor="middle" x="446.5" y="-854.5" font-family="Helvetica,sans-Serif" font-size="10.00"> </text>
<polyline fill="none" stroke="black" points="367,-847.5 526,-847.5 "/>
<text text-anchor="start" x="375" y="-835.5" font-family="Helvetica,sans-Serif" font-size="10.00">+ Span()</text>
<text text-anchor="start" x="375" y="-824.5" font-family="Helvetica,sans-Serif" font-size="10.00">+ Merge()</text>
<text text-anchor="start" x="375" y="-813.5" font-family="Helvetica,sans-Serif" font-size="10.00">+ TVM_FFI_DEFINE_OBJECT</text>
<text text-anchor="start" x="375" y="-802.5" font-family="Helvetica,sans-Serif" font-size="10.00">_REF_METHODS_NULLABLE()</text>
</a>
</g>
</g>
<!-- Node5&#45;&gt;Node3 -->
<g id="edge4" class="edge">
<title>Node5&#45;&gt;Node3</title>
<path fill="none" stroke="#404040" d="M432.28,-795.48C414.48,-740.41 383.99,-646.04 364.57,-585.91"/>
<polygon fill="none" stroke="#404040" points="364.52,-585.78 358.87,-581.3 360.83,-574.36 366.49,-578.84 364.52,-585.78"/>
<text text-anchor="middle" x="442" y="-734.5" font-family="Helvetica,sans-Serif" font-size="10.00"> +span</text>
</g>
<!-- Node6 -->
<g id="node6" class="node">
<title>Node6</title>
<g id="a_node6"><a xlink:title=" ">
<polygon fill="white" stroke="#bfbfbf" points="217.5,-923.5 217.5,-980.5 297.5,-980.5 297.5,-923.5 217.5,-923.5"/>
<text text-anchor="middle" x="257.5" y="-968.5" font-family="Helvetica,sans-Serif" font-size="10.00">ffi::ObjectRef</text>
<polyline fill="none" stroke="#bfbfbf" points="217.5,-961.5 297.5,-961.5 "/>
<text text-anchor="middle" x="257.5" y="-949.5" font-family="Helvetica,sans-Serif" font-size="10.00"> </text>
<polyline fill="none" stroke="#bfbfbf" points="217.5,-942.5 297.5,-942.5 "/>
<text text-anchor="middle" x="257.5" y="-930.5" font-family="Helvetica,sans-Serif" font-size="10.00"> </text>
</a>
</g>
</g>
<!-- Node6&#45;&gt;Node5 -->
<g id="edge5" class="edge">
<title>Node6&#45;&gt;Node5</title>
<path fill="none" stroke="midnightblue" d="M306.28,-922.74C325.76,-911.45 348.65,-898.19 370.23,-885.69"/>
<polygon fill="none" stroke="midnightblue" points="304.48,-919.74 297.58,-927.78 307.99,-925.79 304.48,-919.74"/>
</g>
<!-- Node7 -->
<g id="node7" class="node">
<title>Node7</title>
<g id="a_node7"><a xlink:href="classtvm_1_1Type.html" target="_top" xlink:title="Managed reference to TypeNode.">
<polygon fill="white" stroke="black" points="107,-806.5 107,-874.5 266,-874.5 266,-806.5 107,-806.5"/>
<text text-anchor="middle" x="186.5" y="-862.5" font-family="Helvetica,sans-Serif" font-size="10.00">tvm::Type</text>
<polyline fill="none" stroke="black" points="107,-855.5 266,-855.5 "/>
<text text-anchor="middle" x="186.5" y="-843.5" font-family="Helvetica,sans-Serif" font-size="10.00"> </text>
<polyline fill="none" stroke="black" points="107,-836.5 266,-836.5 "/>
<text text-anchor="start" x="115" y="-824.5" font-family="Helvetica,sans-Serif" font-size="10.00">+ TVM_FFI_DEFINE_OBJECT</text>
<text text-anchor="start" x="115" y="-813.5" font-family="Helvetica,sans-Serif" font-size="10.00">_REF_METHODS_NULLABLE()</text>
</a>
</g>
</g>
<!-- Node6&#45;&gt;Node7 -->
<g id="edge7" class="edge">
<title>Node6&#45;&gt;Node7</title>
<path fill="none" stroke="midnightblue" d="M233.96,-914.7C225.57,-901.75 216.16,-887.25 207.95,-874.59"/>
<polygon fill="none" stroke="midnightblue" points="231.21,-916.88 239.58,-923.37 237.08,-913.07 231.21,-916.88"/>
</g>
<!-- Node9 -->
<g id="node9" class="node">
<title>Node9</title>
<g id="a_node9"><a xlink:href="classtvm_1_1tirx_1_1CommReducer.html" target="_top" xlink:title="Managed reference to CommReducerNode.">
<polygon fill="white" stroke="black" points="0,-697.5 0,-776.5 159,-776.5 159,-697.5 0,-697.5"/>
<text text-anchor="middle" x="79.5" y="-764.5" font-family="Helvetica,sans-Serif" font-size="10.00">tvm::tirx::CommReducer</text>
<polyline fill="none" stroke="black" points="0,-757.5 159,-757.5 "/>
<text text-anchor="middle" x="79.5" y="-745.5" font-family="Helvetica,sans-Serif" font-size="10.00"> </text>
<polyline fill="none" stroke="black" points="0,-738.5 159,-738.5 "/>
<text text-anchor="start" x="8" y="-726.5" font-family="Helvetica,sans-Serif" font-size="10.00">+ CommReducer()</text>
<text text-anchor="start" x="8" y="-715.5" font-family="Helvetica,sans-Serif" font-size="10.00">+ TVM_FFI_DEFINE_OBJECT</text>
<text text-anchor="start" x="8" y="-704.5" font-family="Helvetica,sans-Serif" font-size="10.00">_REF_METHODS_NULLABLE()</text>
</a>
</g>
</g>
<!-- Node6&#45;&gt;Node9 -->
<g id="edge10" class="edge">
<title>Node6&#45;&gt;Node9</title>
<path fill="none" stroke="midnightblue" d="M207.48,-944.03C171.38,-936.25 124.58,-919.93 98.5,-886 74.67,-854.98 72.34,-809.06 74.44,-776.62"/>
<polygon fill="none" stroke="midnightblue" points="206.86,-947.48 217.35,-946.01 208.24,-940.62 206.86,-947.48"/>
</g>
<!-- Node11 -->
<g id="node11" class="node">
<title>Node11</title>
<g id="a_node11"><a xlink:href="classtvm_1_1BaseExpr.html" target="_top" xlink:title="Managed reference to BaseExprNode.">
<polygon fill="white" stroke="black" points="544,-806.5 544,-874.5 703,-874.5 703,-806.5 544,-806.5"/>
<text text-anchor="middle" x="623.5" y="-862.5" font-family="Helvetica,sans-Serif" font-size="10.00">tvm::BaseExpr</text>
<polyline fill="none" stroke="black" points="544,-855.5 703,-855.5 "/>
<text text-anchor="middle" x="623.5" y="-843.5" font-family="Helvetica,sans-Serif" font-size="10.00"> </text>
<polyline fill="none" stroke="black" points="544,-836.5 703,-836.5 "/>
<text text-anchor="start" x="552" y="-824.5" font-family="Helvetica,sans-Serif" font-size="10.00">+ TVM_FFI_DEFINE_OBJECT</text>
<text text-anchor="start" x="552" y="-813.5" font-family="Helvetica,sans-Serif" font-size="10.00">_REF_METHODS_NULLABLE()</text>
</a>
</g>
</g>
<!-- Node6&#45;&gt;Node11 -->
<g id="edge13" class="edge">
<title>Node6&#45;&gt;Node11</title>
<path fill="none" stroke="midnightblue" d="M308.07,-942.92C364.6,-933.04 458.33,-914.08 535.5,-886 544.51,-882.72 553.79,-878.75 562.79,-874.54"/>
<polygon fill="none" stroke="midnightblue" points="307.22,-939.52 297.96,-944.66 308.41,-946.42 307.22,-939.52"/>
</g>
<!-- Node7&#45;&gt;Node3 -->
<g id="edge6" class="edge">
<title>Node7&#45;&gt;Node3</title>
<path fill="none" stroke="#404040" d="M203.62,-806.38C231.02,-753.38 284.99,-648.98 318.19,-584.76"/>
<polygon fill="none" stroke="#404040" points="318.23,-584.69 317.43,-577.52 323.74,-574.03 324.54,-581.2 318.23,-584.69"/>
<text text-anchor="middle" x="267.5" y="-734.5" font-family="Helvetica,sans-Serif" font-size="10.00"> +ty</text>
</g>
<!-- Node8 -->
<g id="node8" class="node">
<title>Node8</title>
<g id="a_node8"><a xlink:href="classtvm_1_1runtime_1_1DataType.html" target="_top" xlink:title="Runtime primitive data type.">
<polygon fill="white" stroke="black" points="107.5,-379.5 107.5,-678.5 247.5,-678.5 247.5,-379.5 107.5,-379.5"/>
<text text-anchor="middle" x="177.5" y="-666.5" font-family="Helvetica,sans-Serif" font-size="10.00">tvm::runtime::DataType</text>
<polyline fill="none" stroke="black" points="107.5,-659.5 247.5,-659.5 "/>
<text text-anchor="middle" x="177.5" y="-647.5" font-family="Helvetica,sans-Serif" font-size="10.00"> </text>
<polyline fill="none" stroke="black" points="107.5,-640.5 247.5,-640.5 "/>
<text text-anchor="start" x="115.5" y="-628.5" font-family="Helvetica,sans-Serif" font-size="10.00">+ DataType()</text>
<text text-anchor="start" x="115.5" y="-617.5" font-family="Helvetica,sans-Serif" font-size="10.00">+ DataType()</text>
<text text-anchor="start" x="115.5" y="-606.5" font-family="Helvetica,sans-Serif" font-size="10.00">+ DataType()</text>
<text text-anchor="start" x="115.5" y="-595.5" font-family="Helvetica,sans-Serif" font-size="10.00">+ code()</text>
<text text-anchor="start" x="115.5" y="-584.5" font-family="Helvetica,sans-Serif" font-size="10.00">+ bits()</text>
<text text-anchor="start" x="115.5" y="-573.5" font-family="Helvetica,sans-Serif" font-size="10.00">+ bytes()</text>
<text text-anchor="start" x="115.5" y="-562.5" font-family="Helvetica,sans-Serif" font-size="10.00">+ lanes()</text>
<text text-anchor="start" x="115.5" y="-551.5" font-family="Helvetica,sans-Serif" font-size="10.00">+ vscale_factor()</text>
<text text-anchor="start" x="115.5" y="-540.5" font-family="Helvetica,sans-Serif" font-size="10.00">+ get_lanes_or_vscale</text>
<text text-anchor="start" x="115.5" y="-529.5" font-family="Helvetica,sans-Serif" font-size="10.00">_factor()</text>
<text text-anchor="start" x="115.5" y="-518.5" font-family="Helvetica,sans-Serif" font-size="10.00">+ is_scalar()</text>
<text text-anchor="start" x="115.5" y="-507.5" font-family="Helvetica,sans-Serif" font-size="10.00">and 37 more...</text>
<text text-anchor="start" x="115.5" y="-496.5" font-family="Helvetica,sans-Serif" font-size="10.00">+ Int()</text>
<text text-anchor="start" x="115.5" y="-485.5" font-family="Helvetica,sans-Serif" font-size="10.00">+ UInt()</text>
<text text-anchor="start" x="115.5" y="-474.5" font-family="Helvetica,sans-Serif" font-size="10.00">+ Float()</text>
<text text-anchor="start" x="115.5" y="-463.5" font-family="Helvetica,sans-Serif" font-size="10.00">+ BFloat()</text>
<text text-anchor="start" x="115.5" y="-452.5" font-family="Helvetica,sans-Serif" font-size="10.00">+ Float8E3M4()</text>
<text text-anchor="start" x="115.5" y="-441.5" font-family="Helvetica,sans-Serif" font-size="10.00">+ Float8E4M3()</text>
<text text-anchor="start" x="115.5" y="-430.5" font-family="Helvetica,sans-Serif" font-size="10.00">+ Float8E4M3B11FNUZ()</text>
<text text-anchor="start" x="115.5" y="-419.5" font-family="Helvetica,sans-Serif" font-size="10.00">+ Float8E4M3FN()</text>
<text text-anchor="start" x="115.5" y="-408.5" font-family="Helvetica,sans-Serif" font-size="10.00">+ Float8E4M3FNUZ()</text>
<text text-anchor="start" x="115.5" y="-397.5" font-family="Helvetica,sans-Serif" font-size="10.00">+ Float8E5M2()</text>
<text text-anchor="start" x="115.5" y="-386.5" font-family="Helvetica,sans-Serif" font-size="10.00">and 9 more...</text>
</a>
</g>
</g>
<!-- Node8&#45;&gt;Node2 -->
<g id="edge8" class="edge">
<title>Node8&#45;&gt;Node2</title>
<path fill="none" stroke="#404040" d="M204.43,-379.21C213.38,-329.78 222.74,-278.06 229.38,-241.38"/>
<polygon fill="none" stroke="#404040" points="229.39,-241.34 226.52,-234.73 231.52,-229.54 234.39,-236.15 229.39,-241.34"/>
<text text-anchor="middle" x="246.5" y="-302" font-family="Helvetica,sans-Serif" font-size="10.00"> +dtype</text>
</g>
<!-- Node9&#45;&gt;Node1 -->
<g id="edge9" class="edge">
<title>Node9&#45;&gt;Node1</title>
<path fill="none" stroke="#404040" d="M74.75,-697.16C64.59,-598.82 49.17,-334.73 148.5,-150 153.72,-140.29 160.26,-130.9 167.42,-122.05"/>
<polygon fill="none" stroke="#404040" points="167.61,-121.82 168.46,-114.66 175.39,-112.69 174.55,-119.85 167.61,-121.82"/>
<text text-anchor="middle" x="136.5" y="-302" font-family="Helvetica,sans-Serif" font-size="10.00"> +combiner</text>
</g>
<!-- Node10 -->
<g id="node10" class="node">
<title>Node10</title>
<g id="a_node10"><a xlink:href="classtvm_1_1PrimExpr.html" target="_top" xlink:title="Reference to PrimExprNode.">
<polygon fill="white" stroke="black" points="357,-248.5 357,-360.5 516,-360.5 516,-248.5 357,-248.5"/>
<text text-anchor="middle" x="436.5" y="-348.5" font-family="Helvetica,sans-Serif" font-size="10.00">tvm::PrimExpr</text>
<polyline fill="none" stroke="black" points="357,-341.5 516,-341.5 "/>
<text text-anchor="middle" x="436.5" y="-329.5" font-family="Helvetica,sans-Serif" font-size="10.00"> </text>
<polyline fill="none" stroke="black" points="357,-322.5 516,-322.5 "/>
<text text-anchor="start" x="365" y="-310.5" font-family="Helvetica,sans-Serif" font-size="10.00">+ PrimExpr()</text>
<text text-anchor="start" x="365" y="-299.5" font-family="Helvetica,sans-Serif" font-size="10.00">+ PrimExpr()</text>
<text text-anchor="start" x="365" y="-288.5" font-family="Helvetica,sans-Serif" font-size="10.00">+ dtype()</text>
<text text-anchor="start" x="365" y="-277.5" font-family="Helvetica,sans-Serif" font-size="10.00">+ TVM_FFI_DEFINE_OBJECT</text>
<text text-anchor="start" x="365" y="-266.5" font-family="Helvetica,sans-Serif" font-size="10.00">_REF_METHODS_NULLABLE()</text>
<text text-anchor="start" x="365" y="-255.5" font-family="Helvetica,sans-Serif" font-size="10.00">+ ConvertFallbackValue()</text>
</a>
</g>
</g>
<!-- Node10&#45;&gt;Node1 -->
<g id="edge11" class="edge">
<title>Node10&#45;&gt;Node1</title>
<path fill="none" stroke="#404040" d="M400.79,-248.32C380.65,-218.38 354.4,-181.23 328.5,-150 320.7,-140.59 312.13,-130.99 303.48,-121.71"/>
<polygon fill="none" stroke="#404040" points="303.42,-121.65 296.4,-120.03 295.19,-112.92 302.21,-114.54 303.42,-121.65"/>
<text text-anchor="middle" x="416" y="-187.5" font-family="Helvetica,sans-Serif" font-size="10.00"> +condition</text>
</g>
<!-- Node11&#45;&gt;Node10 -->
<g id="edge12" class="edge">
<title>Node11&#45;&gt;Node10</title>
<path fill="none" stroke="midnightblue" d="M608.56,-796.83C574.94,-700.83 493.36,-467.88 455.9,-360.9"/>
<polygon fill="none" stroke="midnightblue" points="605.33,-798.22 611.94,-806.5 611.94,-795.9 605.33,-798.22"/>
</g>
</g>
</svg>
