<?xml version="1.0" encoding="UTF-8" standalone="no"?>
<!DOCTYPE svg PUBLIC "-//W3C//DTD SVG 1.1//EN"
 "http://www.w3.org/Graphics/SVG/1.1/DTD/svg11.dtd">
<!-- Generated by graphviz version 2.43.0 (0)
 -->
<!-- Title: tvm::relax::DFPatternNode Pages: 1 -->
<svg width="3324pt" height="425pt"
 viewBox="0.00 0.00 3324.00 425.00" xmlns="http://www.w3.org/2000/svg" xmlns:xlink="http://www.w3.org/1999/xlink">
<g id="graph0" class="graph" transform="scale(1 1) rotate(0) translate(4 421)">
<title>tvm::relax::DFPatternNode</title>
<polygon fill="white" stroke="transparent" points="-4,4 -4,-421 3320,-421 3320,4 -4,4"/>
<!-- Node1 -->
<g id="node1" class="node">
<title>Node1</title>
<g id="a_node1"><a xlink:title="Base type of all dataflow patterns.">
<polygon fill="#bfbfbf" stroke="black" points="1600,-254.5 1600,-322.5 1762,-322.5 1762,-254.5 1600,-254.5"/>
<text text-anchor="middle" x="1681" y="-310.5" font-family="Helvetica,sans-Serif" font-size="10.00">tvm::relax::DFPatternNode</text>
<polyline fill="none" stroke="black" points="1600,-303.5 1762,-303.5 "/>
<text text-anchor="start" x="1608" y="-291.5" font-family="Helvetica,sans-Serif" font-size="10.00">+ _type_child_slots</text>
<polyline fill="none" stroke="black" points="1600,-284.5 1762,-284.5 "/>
<text text-anchor="start" x="1608" y="-272.5" font-family="Helvetica,sans-Serif" font-size="10.00">+ TVM_FFI_DECLARE_OBJECT</text>
<text text-anchor="start" x="1608" y="-261.5" font-family="Helvetica,sans-Serif" font-size="10.00">_INFO()</text>
</a>
</g>
</g>
<!-- Node3 -->
<g id="node3" class="node">
<title>Node3</title>
<g id="a_node3"><a xlink:href="classtvm_1_1relax_1_1AndPatternNode.html" target="_top" xlink:title="Match a conjunction of other patterns.">
<polygon fill="white" stroke="black" points="0,-122 0,-212 162,-212 162,-122 0,-122"/>
<text text-anchor="middle" x="81" y="-200" font-family="Helvetica,sans-Serif" font-size="10.00">tvm::relax::AndPatternNode</text>
<polyline fill="none" stroke="black" points="0,-193 162,-193 "/>
<text text-anchor="start" x="8" y="-181" font-family="Helvetica,sans-Serif" font-size="10.00">+ left</text>
<text text-anchor="start" x="8" y="-170" font-family="Helvetica,sans-Serif" font-size="10.00">+ right</text>
<polyline fill="none" stroke="black" points="0,-163 162,-163 "/>
<text text-anchor="start" x="8" y="-151" font-family="Helvetica,sans-Serif" font-size="10.00">+ TVM_FFI_DECLARE_OBJECT</text>
<text text-anchor="start" x="8" y="-140" font-family="Helvetica,sans-Serif" font-size="10.00">_INFO_FINAL()</text>
<text text-anchor="start" x="8" y="-129" font-family="Helvetica,sans-Serif" font-size="10.00">+ RegisterReflection()</text>
</a>
</g>
</g>
<!-- Node1&#45;&gt;Node3 -->
<g id="edge2" class="edge">
<title>Node1&#45;&gt;Node3</title>
<path fill="none" stroke="midnightblue" d="M1589.75,-285.73C1283.96,-279.46 307.01,-256.6 171,-218 165.33,-216.39 159.62,-214.36 153.98,-212.06"/>
<polygon fill="none" stroke="midnightblue" points="1589.84,-289.23 1599.91,-285.94 1589.98,-282.23 1589.84,-289.23"/>
</g>
<!-- Node4 -->
<g id="node4" class="node">
<title>Node4</title>
<g id="a_node4"><a xlink:href="classtvm_1_1relax_1_1AttrPatternNode.html" target="_top" xlink:title="A pattern that asserting a root pattern has certain attributes.">
<polygon fill="white" stroke="black" points="180,-122 180,-212 342,-212 342,-122 180,-122"/>
<text text-anchor="middle" x="261" y="-200" font-family="Helvetica,sans-Serif" font-size="10.00">tvm::relax::AttrPatternNode</text>
<polyline fill="none" stroke="black" points="180,-193 342,-193 "/>
<text text-anchor="start" x="188" y="-181" font-family="Helvetica,sans-Serif" font-size="10.00">+ pattern</text>
<text text-anchor="start" x="188" y="-170" font-family="Helvetica,sans-Serif" font-size="10.00">+ attrs</text>
<polyline fill="none" stroke="black" points="180,-163 342,-163 "/>
<text text-anchor="start" x="188" y="-151" font-family="Helvetica,sans-Serif" font-size="10.00">+ TVM_FFI_DECLARE_OBJECT</text>
<text text-anchor="start" x="188" y="-140" font-family="Helvetica,sans-Serif" font-size="10.00">_INFO_FINAL()</text>
<text text-anchor="start" x="188" y="-129" font-family="Helvetica,sans-Serif" font-size="10.00">+ RegisterReflection()</text>
</a>
</g>
</g>
<!-- Node1&#45;&gt;Node4 -->
<g id="edge3" class="edge">
<title>Node1&#45;&gt;Node4</title>
<path fill="none" stroke="midnightblue" d="M1589.54,-288.07C1328.57,-288.84 584.15,-284.96 351,-218 345.33,-216.37 339.63,-214.33 333.99,-212.02"/>
<polygon fill="none" stroke="midnightblue" points="1589.75,-291.57 1599.74,-288.03 1589.73,-284.57 1589.75,-291.57"/>
</g>
<!-- Node5 -->
<g id="node5" class="node">
<title>Node5</title>
<g id="a_node5"><a xlink:href="classtvm_1_1relax_1_1CallPatternNode.html" target="_top" xlink:title="A pattern to match a callable node in Relax.">
<polygon fill="white" stroke="black" points="360,-116.5 360,-217.5 522,-217.5 522,-116.5 360,-116.5"/>
<text text-anchor="middle" x="441" y="-205.5" font-family="Helvetica,sans-Serif" font-size="10.00">tvm::relax::CallPatternNode</text>
<polyline fill="none" stroke="black" points="360,-198.5 522,-198.5 "/>
<text text-anchor="start" x="368" y="-186.5" font-family="Helvetica,sans-Serif" font-size="10.00">+ op</text>
<text text-anchor="start" x="368" y="-175.5" font-family="Helvetica,sans-Serif" font-size="10.00">+ args</text>
<text text-anchor="start" x="368" y="-164.5" font-family="Helvetica,sans-Serif" font-size="10.00">+ varg_default_wildcard</text>
<polyline fill="none" stroke="black" points="360,-157.5 522,-157.5 "/>
<text text-anchor="start" x="368" y="-145.5" font-family="Helvetica,sans-Serif" font-size="10.00">+ TVM_FFI_DECLARE_OBJECT</text>
<text text-anchor="start" x="368" y="-134.5" font-family="Helvetica,sans-Serif" font-size="10.00">_INFO_FINAL()</text>
<text text-anchor="start" x="368" y="-123.5" font-family="Helvetica,sans-Serif" font-size="10.00">+ RegisterReflection()</text>
</a>
</g>
</g>
<!-- Node1&#45;&gt;Node5 -->
<g id="edge4" class="edge">
<title>Node1&#45;&gt;Node5</title>
<path fill="none" stroke="midnightblue" d="M1589.38,-287.18C1353.28,-285.54 728.84,-275.69 531,-218 528.08,-217.15 525.16,-216.19 522.23,-215.14"/>
<polygon fill="none" stroke="midnightblue" points="1589.62,-290.69 1599.64,-287.25 1589.67,-283.69 1589.62,-290.69"/>
</g>
<!-- Node6 -->
<g id="node6" class="node">
<title>Node6</title>
<g id="a_node6"><a xlink:href="classtvm_1_1relax_1_1ConstantPatternNode.html" target="_top" xlink:title="A Pattern to Match a Relax Constant.">
<polygon fill="white" stroke="black" points="540,-127.5 540,-206.5 716,-206.5 716,-127.5 540,-127.5"/>
<text text-anchor="middle" x="628" y="-194.5" font-family="Helvetica,sans-Serif" font-size="10.00">tvm::relax::ConstantPatternNode</text>
<polyline fill="none" stroke="black" points="540,-187.5 716,-187.5 "/>
<text text-anchor="middle" x="628" y="-175.5" font-family="Helvetica,sans-Serif" font-size="10.00"> </text>
<polyline fill="none" stroke="black" points="540,-168.5 716,-168.5 "/>
<text text-anchor="start" x="548" y="-156.5" font-family="Helvetica,sans-Serif" font-size="10.00">+ TVM_FFI_DECLARE_OBJECT</text>
<text text-anchor="start" x="548" y="-145.5" font-family="Helvetica,sans-Serif" font-size="10.00">_INFO_FINAL()</text>
<text text-anchor="start" x="548" y="-134.5" font-family="Helvetica,sans-Serif" font-size="10.00">+ RegisterReflection()</text>
</a>
</g>
</g>
<!-- Node1&#45;&gt;Node6 -->
<g id="edge5" class="edge">
<title>Node1&#45;&gt;Node6</title>
<path fill="none" stroke="midnightblue" d="M1589.44,-285.52C1382.82,-280.28 885.88,-263.26 725,-218 714.79,-215.13 704.4,-211.12 694.4,-206.61"/>
<polygon fill="none" stroke="midnightblue" points="1589.57,-289.02 1599.65,-285.77 1589.74,-282.02 1589.57,-289.02"/>
</g>
<!-- Node7 -->
<g id="node7" class="node">
<title>Node7</title>
<g id="a_node7"><a xlink:href="classtvm_1_1relax_1_1DataTypePatternNode.html" target="_top" xlink:title="A pattern that asserting a root pattern has a certain data type.">
<polygon fill="white" stroke="black" points="734.5,-122 734.5,-212 913.5,-212 913.5,-122 734.5,-122"/>
<text text-anchor="middle" x="824" y="-200" font-family="Helvetica,sans-Serif" font-size="10.00">tvm::relax::DataTypePatternNode</text>
<polyline fill="none" stroke="black" points="734.5,-193 913.5,-193 "/>
<text text-anchor="start" x="742.5" y="-181" font-family="Helvetica,sans-Serif" font-size="10.00">+ pattern</text>
<text text-anchor="start" x="742.5" y="-170" font-family="Helvetica,sans-Serif" font-size="10.00">+ dtype</text>
<polyline fill="none" stroke="black" points="734.5,-163 913.5,-163 "/>
<text text-anchor="start" x="742.5" y="-151" font-family="Helvetica,sans-Serif" font-size="10.00">+ TVM_FFI_DECLARE_OBJECT</text>
<text text-anchor="start" x="742.5" y="-140" font-family="Helvetica,sans-Serif" font-size="10.00">_INFO_FINAL()</text>
<text text-anchor="start" x="742.5" y="-129" font-family="Helvetica,sans-Serif" font-size="10.00">+ RegisterReflection()</text>
</a>
</g>
</g>
<!-- Node1&#45;&gt;Node7 -->
<g id="edge6" class="edge">
<title>Node1&#45;&gt;Node7</title>
<path fill="none" stroke="midnightblue" d="M1589.88,-283.42C1416.61,-274.96 1045.98,-253.3 923,-218 917.17,-216.33 911.28,-214.31 905.42,-212.05"/>
<polygon fill="none" stroke="midnightblue" points="1589.84,-286.92 1599.99,-283.91 1590.17,-279.93 1589.84,-286.92"/>
</g>
<!-- Node8 -->
<g id="node8" class="node">
<title>Node8</title>
<g id="a_node8"><a xlink:href="classtvm_1_1relax_1_1ExprPatternNode.html" target="_top" xlink:title="Pattern for Relax Expression.">
<polygon fill="white" stroke="black" points="932,-127.5 932,-206.5 1094,-206.5 1094,-127.5 932,-127.5"/>
<text text-anchor="middle" x="1013" y="-194.5" font-family="Helvetica,sans-Serif" font-size="10.00">tvm::relax::ExprPatternNode</text>
<polyline fill="none" stroke="black" points="932,-187.5 1094,-187.5 "/>
<text text-anchor="start" x="940" y="-175.5" font-family="Helvetica,sans-Serif" font-size="10.00">+ expr</text>
<polyline fill="none" stroke="black" points="932,-168.5 1094,-168.5 "/>
<text text-anchor="start" x="940" y="-156.5" font-family="Helvetica,sans-Serif" font-size="10.00">+ TVM_FFI_DECLARE_OBJECT</text>
<text text-anchor="start" x="940" y="-145.5" font-family="Helvetica,sans-Serif" font-size="10.00">_INFO_FINAL()</text>
<text text-anchor="start" x="940" y="-134.5" font-family="Helvetica,sans-Serif" font-size="10.00">+ RegisterReflection()</text>
</a>
</g>
</g>
<!-- Node1&#45;&gt;Node8 -->
<g id="edge7" class="edge">
<title>Node1&#45;&gt;Node8</title>
<path fill="none" stroke="midnightblue" d="M1589.66,-287.3C1473.73,-284.62 1268.9,-271.76 1103,-218 1093.82,-215.02 1084.51,-211.08 1075.53,-206.71"/>
<polygon fill="none" stroke="midnightblue" points="1589.84,-290.8 1599.91,-287.51 1589.98,-283.8 1589.84,-290.8"/>
</g>
<!-- Node9 -->
<g id="node9" class="node">
<title>Node9</title>
<g id="a_node9"><a xlink:href="classtvm_1_1relax_1_1ExternFuncPatternNode.html" target="_top" xlink:title="A pattern of external function.">
<polygon fill="white" stroke="black" points="1112.5,-122 1112.5,-212 1299.5,-212 1299.5,-122 1112.5,-122"/>
<text text-anchor="middle" x="1206" y="-200" font-family="Helvetica,sans-Serif" font-size="10.00">tvm::relax::ExternFuncPatternNode</text>
<polyline fill="none" stroke="black" points="1112.5,-193 1299.5,-193 "/>
<text text-anchor="start" x="1120.5" y="-181" font-family="Helvetica,sans-Serif" font-size="10.00">+ global_symbol_</text>
<polyline fill="none" stroke="black" points="1112.5,-174 1299.5,-174 "/>
<text text-anchor="start" x="1120.5" y="-162" font-family="Helvetica,sans-Serif" font-size="10.00">+ global_symbol()</text>
<text text-anchor="start" x="1120.5" y="-151" font-family="Helvetica,sans-Serif" font-size="10.00">+ TVM_FFI_DECLARE_OBJECT</text>
<text text-anchor="start" x="1120.5" y="-140" font-family="Helvetica,sans-Serif" font-size="10.00">_INFO_FINAL()</text>
<text text-anchor="start" x="1120.5" y="-129" font-family="Helvetica,sans-Serif" font-size="10.00">+ RegisterReflection()</text>
</a>
</g>
</g>
<!-- Node1&#45;&gt;Node9 -->
<g id="edge8" class="edge">
<title>Node1&#45;&gt;Node9</title>
<path fill="none" stroke="midnightblue" d="M1589.91,-277.39C1513.54,-267.29 1402.31,-248.75 1309,-218 1303.62,-216.23 1298.16,-214.23 1292.71,-212.08"/>
<polygon fill="none" stroke="midnightblue" points="1589.62,-280.88 1599.99,-278.7 1590.52,-273.94 1589.62,-280.88"/>
</g>
<!-- Node10 -->
<g id="node10" class="node">
<title>Node10</title>
<g id="a_node10"><a xlink:href="classtvm_1_1relax_1_1FunctionPatternNode.html" target="_top" xlink:title="A pattern to match a Relax Function.">
<polygon fill="white" stroke="black" points="1318,-122 1318,-212 1492,-212 1492,-122 1318,-122"/>
<text text-anchor="middle" x="1405" y="-200" font-family="Helvetica,sans-Serif" font-size="10.00">tvm::relax::FunctionPatternNode</text>
<polyline fill="none" stroke="black" points="1318,-193 1492,-193 "/>
<text text-anchor="start" x="1326" y="-181" font-family="Helvetica,sans-Serif" font-size="10.00">+ params</text>
<text text-anchor="start" x="1326" y="-170" font-family="Helvetica,sans-Serif" font-size="10.00">+ body</text>
<polyline fill="none" stroke="black" points="1318,-163 1492,-163 "/>
<text text-anchor="start" x="1326" y="-151" font-family="Helvetica,sans-Serif" font-size="10.00">+ TVM_FFI_DECLARE_OBJECT</text>
<text text-anchor="start" x="1326" y="-140" font-family="Helvetica,sans-Serif" font-size="10.00">_INFO_FINAL()</text>
<text text-anchor="start" x="1326" y="-129" font-family="Helvetica,sans-Serif" font-size="10.00">+ RegisterReflection()</text>
</a>
</g>
</g>
<!-- Node1&#45;&gt;Node10 -->
<g id="edge9" class="edge">
<title>Node1&#45;&gt;Node10</title>
<path fill="none" stroke="midnightblue" d="M1589.94,-254.61C1561.21,-243.62 1529.52,-230.89 1501,-218 1496.8,-216.1 1492.53,-214.11 1488.24,-212.06"/>
<polygon fill="none" stroke="midnightblue" points="1588.97,-257.98 1599.56,-258.26 1591.46,-251.44 1588.97,-257.98"/>
</g>
<!-- Node11 -->
<g id="node11" class="node">
<title>Node11</title>
<g id="a_node11"><a xlink:href="classtvm_1_1relax_1_1NotPatternNode.html" target="_top" xlink:title="Pattern for rejecting a certain pattern.">
<polygon fill="white" stroke="black" points="1510,-127.5 1510,-206.5 1672,-206.5 1672,-127.5 1510,-127.5"/>
<text text-anchor="middle" x="1591" y="-194.5" font-family="Helvetica,sans-Serif" font-size="10.00">tvm::relax::NotPatternNode</text>
<polyline fill="none" stroke="black" points="1510,-187.5 1672,-187.5 "/>
<text text-anchor="start" x="1518" y="-175.5" font-family="Helvetica,sans-Serif" font-size="10.00">+ reject</text>
<polyline fill="none" stroke="black" points="1510,-168.5 1672,-168.5 "/>
<text text-anchor="start" x="1518" y="-156.5" font-family="Helvetica,sans-Serif" font-size="10.00">+ TVM_FFI_DECLARE_OBJECT</text>
<text text-anchor="start" x="1518" y="-145.5" font-family="Helvetica,sans-Serif" font-size="10.00">_INFO_FINAL()</text>
<text text-anchor="start" x="1518" y="-134.5" font-family="Helvetica,sans-Serif" font-size="10.00">+ RegisterReflection()</text>
</a>
</g>
</g>
<!-- Node1&#45;&gt;Node11 -->
<g id="edge10" class="edge">
<title>Node1&#45;&gt;Node11</title>
<path fill="none" stroke="midnightblue" d="M1649.75,-246.01C1640.12,-233.22 1629.55,-219.19 1620.07,-206.6"/>
<polygon fill="none" stroke="midnightblue" points="1647.12,-248.33 1655.93,-254.21 1652.71,-244.12 1647.12,-248.33"/>
</g>
<!-- Node12 -->
<g id="node12" class="node">
<title>Node12</title>
<g id="a_node12"><a xlink:href="classtvm_1_1relax_1_1OrPatternNode.html" target="_top" xlink:title="Match a disjunction of other patterns.">
<polygon fill="white" stroke="black" points="1690,-122 1690,-212 1852,-212 1852,-122 1690,-122"/>
<text text-anchor="middle" x="1771" y="-200" font-family="Helvetica,sans-Serif" font-size="10.00">tvm::relax::OrPatternNode</text>
<polyline fill="none" stroke="black" points="1690,-193 1852,-193 "/>
<text text-anchor="start" x="1698" y="-181" font-family="Helvetica,sans-Serif" font-size="10.00">+ left</text>
<text text-anchor="start" x="1698" y="-170" font-family="Helvetica,sans-Serif" font-size="10.00">+ right</text>
<polyline fill="none" stroke="black" points="1690,-163 1852,-163 "/>
<text text-anchor="start" x="1698" y="-151" font-family="Helvetica,sans-Serif" font-size="10.00">+ TVM_FFI_DECLARE_OBJECT</text>
<text text-anchor="start" x="1698" y="-140" font-family="Helvetica,sans-Serif" font-size="10.00">_INFO_FINAL()</text>
<text text-anchor="start" x="1698" y="-129" font-family="Helvetica,sans-Serif" font-size="10.00">+ RegisterReflection()</text>
</a>
</g>
</g>
<!-- Node1&#45;&gt;Node12 -->
<g id="edge11" class="edge">
<title>Node1&#45;&gt;Node12</title>
<path fill="none" stroke="midnightblue" d="M1712.2,-246.07C1720.42,-235.16 1729.32,-223.34 1737.65,-212.28"/>
<polygon fill="none" stroke="midnightblue" points="1709.29,-244.12 1706.07,-254.21 1714.88,-248.33 1709.29,-244.12"/>
</g>
<!-- Node13 -->
<g id="node13" class="node">
<title>Node13</title>
<g id="a_node13"><a xlink:href="classtvm_1_1relax_1_1PrimArrPatternNode.html" target="_top" xlink:title="A pattern to match an array of PrimExpr.">
<polygon fill="white" stroke="black" points="1870,-127.5 1870,-206.5 2040,-206.5 2040,-127.5 1870,-127.5"/>
<text text-anchor="middle" x="1955" y="-194.5" font-family="Helvetica,sans-Serif" font-size="10.00">tvm::relax::PrimArrPatternNode</text>
<polyline fill="none" stroke="black" points="1870,-187.5 2040,-187.5 "/>
<text text-anchor="start" x="1878" y="-175.5" font-family="Helvetica,sans-Serif" font-size="10.00">+ fields</text>
<polyline fill="none" stroke="black" points="1870,-168.5 2040,-168.5 "/>
<text text-anchor="start" x="1878" y="-156.5" font-family="Helvetica,sans-Serif" font-size="10.00">+ TVM_FFI_DECLARE_OBJECT</text>
<text text-anchor="start" x="1878" y="-145.5" font-family="Helvetica,sans-Serif" font-size="10.00">_INFO_FINAL()</text>
<text text-anchor="start" x="1878" y="-134.5" font-family="Helvetica,sans-Serif" font-size="10.00">+ RegisterReflection()</text>
</a>
</g>
</g>
<!-- Node1&#45;&gt;Node13 -->
<g id="edge12" class="edge">
<title>Node1&#45;&gt;Node13</title>
<path fill="none" stroke="midnightblue" d="M1771.71,-254.91C1800.56,-243.9 1832.39,-231.07 1861,-218 1868.73,-214.47 1876.72,-210.59 1884.63,-206.6"/>
<polygon fill="none" stroke="midnightblue" points="1770.16,-251.76 1762.05,-258.58 1772.65,-258.3 1770.16,-251.76"/>
</g>
<!-- Node14 -->
<g id="node14" class="node">
<title>Node14</title>
<g id="a_node14"><a xlink:href="classtvm_1_1relax_1_1ShapePatternNode.html" target="_top" xlink:title="A pattern that asserting a root pattern has a certain shape.">
<polygon fill="white" stroke="black" points="2058.5,-122 2058.5,-212 2221.5,-212 2221.5,-122 2058.5,-122"/>
<text text-anchor="middle" x="2140" y="-200" font-family="Helvetica,sans-Serif" font-size="10.00">tvm::relax::ShapePatternNode</text>
<polyline fill="none" stroke="black" points="2058.5,-193 2221.5,-193 "/>
<text text-anchor="start" x="2066.5" y="-181" font-family="Helvetica,sans-Serif" font-size="10.00">+ pattern</text>
<text text-anchor="start" x="2066.5" y="-170" font-family="Helvetica,sans-Serif" font-size="10.00">+ shape</text>
<polyline fill="none" stroke="black" points="2058.5,-163 2221.5,-163 "/>
<text text-anchor="start" x="2066.5" y="-151" font-family="Helvetica,sans-Serif" font-size="10.00">+ TVM_FFI_DECLARE_OBJECT</text>
<text text-anchor="start" x="2066.5" y="-140" font-family="Helvetica,sans-Serif" font-size="10.00">_INFO_FINAL()</text>
<text text-anchor="start" x="2066.5" y="-129" font-family="Helvetica,sans-Serif" font-size="10.00">+ RegisterReflection()</text>
</a>
</g>
</g>
<!-- Node1&#45;&gt;Node14 -->
<g id="edge13" class="edge">
<title>Node1&#45;&gt;Node14</title>
<path fill="none" stroke="midnightblue" d="M1772.25,-278.39C1848.03,-268.91 1957.78,-250.73 2049,-218 2053.92,-216.23 2058.89,-214.23 2063.85,-212.06"/>
<polygon fill="none" stroke="midnightblue" points="1771.75,-274.92 1762.25,-279.61 1772.6,-281.87 1771.75,-274.92"/>
</g>
<!-- Node15 -->
<g id="node15" class="node">
<title>Node15</title>
<g id="a_node15"><a xlink:href="classtvm_1_1relax_1_1TupleGetItemPatternNode.html" target="_top" xlink:title="A pattern to match n&#39;th indexing to a tuple.">
<polygon fill="white" stroke="black" points="2240,-116.5 2240,-217.5 2402,-217.5 2402,-116.5 2240,-116.5"/>
<text text-anchor="start" x="2248" y="-205.5" font-family="Helvetica,sans-Serif" font-size="10.00">tvm::relax::TupleGetItem</text>
<text text-anchor="middle" x="2321" y="-194.5" font-family="Helvetica,sans-Serif" font-size="10.00">PatternNode</text>
<polyline fill="none" stroke="black" points="2240,-187.5 2402,-187.5 "/>
<text text-anchor="start" x="2248" y="-175.5" font-family="Helvetica,sans-Serif" font-size="10.00">+ tuple</text>
<text text-anchor="start" x="2248" y="-164.5" font-family="Helvetica,sans-Serif" font-size="10.00">+ index</text>
<polyline fill="none" stroke="black" points="2240,-157.5 2402,-157.5 "/>
<text text-anchor="start" x="2248" y="-145.5" font-family="Helvetica,sans-Serif" font-size="10.00">+ TVM_FFI_DECLARE_OBJECT</text>
<text text-anchor="start" x="2248" y="-134.5" font-family="Helvetica,sans-Serif" font-size="10.00">_INFO_FINAL()</text>
<text text-anchor="start" x="2248" y="-123.5" font-family="Helvetica,sans-Serif" font-size="10.00">+ RegisterReflection()</text>
</a>
</g>
</g>
<!-- Node1&#45;&gt;Node15 -->
<g id="edge14" class="edge">
<title>Node1&#45;&gt;Node15</title>
<path fill="none" stroke="midnightblue" d="M1772.29,-286.34C1883.12,-282.59 2074.5,-268.53 2230,-218 2233.26,-216.94 2236.53,-215.76 2239.8,-214.49"/>
<polygon fill="none" stroke="midnightblue" points="1772.03,-282.85 1762.15,-286.66 1772.25,-289.84 1772.03,-282.85"/>
</g>
<!-- Node16 -->
<g id="node16" class="node">
<title>Node16</title>
<g id="a_node16"><a xlink:href="classtvm_1_1relax_1_1TuplePatternNode.html" target="_top" xlink:title="Pattern to match a tuple of ordered expressions.">
<polygon fill="white" stroke="black" points="2420,-127.5 2420,-206.5 2582,-206.5 2582,-127.5 2420,-127.5"/>
<text text-anchor="middle" x="2501" y="-194.5" font-family="Helvetica,sans-Serif" font-size="10.00">tvm::relax::TuplePatternNode</text>
<polyline fill="none" stroke="black" points="2420,-187.5 2582,-187.5 "/>
<text text-anchor="start" x="2428" y="-175.5" font-family="Helvetica,sans-Serif" font-size="10.00">+ fields</text>
<polyline fill="none" stroke="black" points="2420,-168.5 2582,-168.5 "/>
<text text-anchor="start" x="2428" y="-156.5" font-family="Helvetica,sans-Serif" font-size="10.00">+ TVM_FFI_DECLARE_OBJECT</text>
<text text-anchor="start" x="2428" y="-145.5" font-family="Helvetica,sans-Serif" font-size="10.00">_INFO_FINAL()</text>
<text text-anchor="start" x="2428" y="-134.5" font-family="Helvetica,sans-Serif" font-size="10.00">+ RegisterReflection()</text>
</a>
</g>
</g>
<!-- Node1&#45;&gt;Node16 -->
<g id="edge15" class="edge">
<title>Node1&#45;&gt;Node16</title>
<path fill="none" stroke="midnightblue" d="M1772.33,-283.48C1940.84,-275.28 2294.08,-254.3 2411,-218 2420.39,-215.09 2429.9,-211.12 2439.04,-206.68"/>
<polygon fill="none" stroke="midnightblue" points="1772.06,-279.98 1762.24,-283.96 1772.4,-286.98 1772.06,-279.98"/>
</g>
<!-- Node17 -->
<g id="node17" class="node">
<title>Node17</title>
<g id="a_node17"><a xlink:href="classtvm_1_1relax_1_1TypePatternNode.html" target="_top" xlink:title="Pattern for matching a certain type.">
<polygon fill="white" stroke="black" points="2600,-122 2600,-212 2762,-212 2762,-122 2600,-122"/>
<text text-anchor="middle" x="2681" y="-200" font-family="Helvetica,sans-Serif" font-size="10.00">tvm::relax::TypePatternNode</text>
<polyline fill="none" stroke="black" points="2600,-193 2762,-193 "/>
<text text-anchor="start" x="2608" y="-181" font-family="Helvetica,sans-Serif" font-size="10.00">+ pattern</text>
<text text-anchor="start" x="2608" y="-170" font-family="Helvetica,sans-Serif" font-size="10.00">+ ty</text>
<polyline fill="none" stroke="black" points="2600,-163 2762,-163 "/>
<text text-anchor="start" x="2608" y="-151" font-family="Helvetica,sans-Serif" font-size="10.00">+ TVM_FFI_DECLARE_OBJECT</text>
<text text-anchor="start" x="2608" y="-140" font-family="Helvetica,sans-Serif" font-size="10.00">_INFO_FINAL()</text>
<text text-anchor="start" x="2608" y="-129" font-family="Helvetica,sans-Serif" font-size="10.00">+ RegisterReflection()</text>
</a>
</g>
</g>
<!-- Node1&#45;&gt;Node17 -->
<g id="edge16" class="edge">
<title>Node1&#45;&gt;Node17</title>
<path fill="none" stroke="midnightblue" d="M1772.2,-285.48C1971.39,-280.27 2439.6,-263.45 2591,-218 2596.48,-216.36 2601.99,-214.34 2607.45,-212.07"/>
<polygon fill="none" stroke="midnightblue" points="1771.96,-281.99 1762.06,-285.74 1772.14,-288.98 1771.96,-281.99"/>
</g>
<!-- Node18 -->
<g id="node18" class="node">
<title>Node18</title>
<g id="a_node18"><a xlink:href="classtvm_1_1relax_1_1UnorderedTuplePatternNode.html" target="_top" xlink:title="A pattern to match multiple expressions unorderedly.">
<polygon fill="white" stroke="black" points="2780,-122 2780,-212 2942,-212 2942,-122 2780,-122"/>
<text text-anchor="start" x="2788" y="-200" font-family="Helvetica,sans-Serif" font-size="10.00">tvm::relax::UnorderedTuple</text>
<text text-anchor="middle" x="2861" y="-189" font-family="Helvetica,sans-Serif" font-size="10.00">PatternNode</text>
<polyline fill="none" stroke="black" points="2780,-182 2942,-182 "/>
<text text-anchor="start" x="2788" y="-170" font-family="Helvetica,sans-Serif" font-size="10.00">+ fields</text>
<polyline fill="none" stroke="black" points="2780,-163 2942,-163 "/>
<text text-anchor="start" x="2788" y="-151" font-family="Helvetica,sans-Serif" font-size="10.00">+ TVM_FFI_DECLARE_OBJECT</text>
<text text-anchor="start" x="2788" y="-140" font-family="Helvetica,sans-Serif" font-size="10.00">_INFO_FINAL()</text>
<text text-anchor="start" x="2788" y="-129" font-family="Helvetica,sans-Serif" font-size="10.00">+ RegisterReflection()</text>
</a>
</g>
</g>
<!-- Node1&#45;&gt;Node18 -->
<g id="edge17" class="edge">
<title>Node1&#45;&gt;Node18</title>
<path fill="none" stroke="midnightblue" d="M1772.24,-286.83C1999.28,-284.34 2584.75,-272.65 2771,-218 2776.57,-216.36 2782.18,-214.34 2787.73,-212.05"/>
<polygon fill="none" stroke="midnightblue" points="1771.99,-283.33 1762.03,-286.94 1772.06,-290.33 1771.99,-283.33"/>
</g>
<!-- Node19 -->
<g id="node19" class="node">
<title>Node19</title>
<g id="a_node19"><a xlink:href="classtvm_1_1relax_1_1VarPatternNode.html" target="_top" xlink:title="A Pattern to Match a Relax Variable.">
<polygon fill="white" stroke="black" points="2960,-116.5 2960,-217.5 3122,-217.5 3122,-116.5 2960,-116.5"/>
<text text-anchor="middle" x="3041" y="-205.5" font-family="Helvetica,sans-Serif" font-size="10.00">tvm::relax::VarPatternNode</text>
<polyline fill="none" stroke="black" points="2960,-198.5 3122,-198.5 "/>
<text text-anchor="start" x="2968" y="-186.5" font-family="Helvetica,sans-Serif" font-size="10.00">+ name</text>
<text text-anchor="start" x="2968" y="-175.5" font-family="Helvetica,sans-Serif" font-size="10.00">+ _type_child_slots</text>
<polyline fill="none" stroke="black" points="2960,-168.5 3122,-168.5 "/>
<text text-anchor="start" x="2968" y="-156.5" font-family="Helvetica,sans-Serif" font-size="10.00">+ name_hint()</text>
<text text-anchor="start" x="2968" y="-145.5" font-family="Helvetica,sans-Serif" font-size="10.00">+ TVM_FFI_DECLARE_OBJECT</text>
<text text-anchor="start" x="2968" y="-134.5" font-family="Helvetica,sans-Serif" font-size="10.00">_INFO()</text>
<text text-anchor="start" x="2968" y="-123.5" font-family="Helvetica,sans-Serif" font-size="10.00">+ RegisterReflection()</text>
</a>
</g>
</g>
<!-- Node1&#45;&gt;Node19 -->
<g id="edge18" class="edge">
<title>Node1&#45;&gt;Node19</title>
<path fill="none" stroke="midnightblue" d="M1772.26,-287.8C2024.92,-287.8 2729.57,-281.88 2951,-218 2953.92,-217.16 2956.85,-216.21 2959.77,-215.17"/>
<polygon fill="none" stroke="midnightblue" points="1772.01,-284.3 1762.01,-287.8 1772.01,-291.3 1772.01,-284.3"/>
</g>
<!-- Node22 -->
<g id="node22" class="node">
<title>Node22</title>
<g id="a_node22"><a xlink:href="classtvm_1_1relax_1_1WildcardPatternNode.html" target="_top" xlink:title="Wildcard Pattern is a pattern that can match anything.">
<polygon fill="white" stroke="black" points="3140,-127.5 3140,-206.5 3316,-206.5 3316,-127.5 3140,-127.5"/>
<text text-anchor="middle" x="3228" y="-194.5" font-family="Helvetica,sans-Serif" font-size="10.00">tvm::relax::WildcardPatternNode</text>
<polyline fill="none" stroke="black" points="3140,-187.5 3316,-187.5 "/>
<text text-anchor="middle" x="3228" y="-175.5" font-family="Helvetica,sans-Serif" font-size="10.00"> </text>
<polyline fill="none" stroke="black" points="3140,-168.5 3316,-168.5 "/>
<text text-anchor="start" x="3148" y="-156.5" font-family="Helvetica,sans-Serif" font-size="10.00">+ TVM_FFI_DECLARE_OBJECT</text>
<text text-anchor="start" x="3148" y="-145.5" font-family="Helvetica,sans-Serif" font-size="10.00">_INFO_FINAL()</text>
<text text-anchor="start" x="3148" y="-134.5" font-family="Helvetica,sans-Serif" font-size="10.00">+ RegisterReflection()</text>
</a>
</g>
</g>
<!-- Node1&#45;&gt;Node22 -->
<g id="edge21" class="edge">
<title>Node1&#45;&gt;Node22</title>
<path fill="none" stroke="midnightblue" d="M1772.78,-288.18C2049.64,-289.44 2873.24,-287.1 3131,-218 3141.43,-215.2 3152.03,-211.17 3162.19,-206.6"/>
<polygon fill="none" stroke="midnightblue" points="1772.39,-284.68 1762.38,-288.13 1772.36,-291.68 1772.39,-284.68"/>
</g>
<!-- Node2 -->
<g id="node2" class="node">
<title>Node2</title>
<g id="a_node2"><a xlink:title=" ">
<polygon fill="white" stroke="#bfbfbf" points="1649,-359.5 1649,-416.5 1713,-416.5 1713,-359.5 1649,-359.5"/>
<text text-anchor="middle" x="1681" y="-404.5" font-family="Helvetica,sans-Serif" font-size="10.00">ffi::Object</text>
<polyline fill="none" stroke="#bfbfbf" points="1649,-397.5 1713,-397.5 "/>
<text text-anchor="middle" x="1681" y="-385.5" font-family="Helvetica,sans-Serif" font-size="10.00"> </text>
<polyline fill="none" stroke="#bfbfbf" points="1649,-378.5 1713,-378.5 "/>
<text text-anchor="middle" x="1681" y="-366.5" font-family="Helvetica,sans-Serif" font-size="10.00"> </text>
</a>
</g>
</g>
<!-- Node2&#45;&gt;Node1 -->
<g id="edge1" class="edge">
<title>Node2&#45;&gt;Node1</title>
<path fill="none" stroke="midnightblue" d="M1681,-349.06C1681,-340.39 1681,-331.24 1681,-322.79"/>
<polygon fill="none" stroke="midnightblue" points="1677.5,-349.32 1681,-359.32 1684.5,-349.32 1677.5,-349.32"/>
</g>
<!-- Node20 -->
<g id="node20" class="node">
<title>Node20</title>
<g id="a_node20"><a xlink:href="classtvm_1_1relax_1_1DataflowVarPatternNode.html" target="_top" xlink:title="A Pattern to Match a Relax Dataflow Variable.">
<polygon fill="white" stroke="black" points="2843,-0.5 2843,-79.5 3035,-79.5 3035,-0.5 2843,-0.5"/>
<text text-anchor="middle" x="2939" y="-67.5" font-family="Helvetica,sans-Serif" font-size="10.00">tvm::relax::DataflowVarPatternNode</text>
<polyline fill="none" stroke="black" points="2843,-60.5 3035,-60.5 "/>
<text text-anchor="middle" x="2939" y="-48.5" font-family="Helvetica,sans-Serif" font-size="10.00"> </text>
<polyline fill="none" stroke="black" points="2843,-41.5 3035,-41.5 "/>
<text text-anchor="start" x="2851" y="-29.5" font-family="Helvetica,sans-Serif" font-size="10.00">+ TVM_FFI_DECLARE_OBJECT</text>
<text text-anchor="start" x="2851" y="-18.5" font-family="Helvetica,sans-Serif" font-size="10.00">_INFO_FINAL()</text>
<text text-anchor="start" x="2851" y="-7.5" font-family="Helvetica,sans-Serif" font-size="10.00">+ RegisterReflection()</text>
</a>
</g>
</g>
<!-- Node19&#45;&gt;Node20 -->
<g id="edge19" class="edge">
<title>Node19&#45;&gt;Node20</title>
<path fill="none" stroke="midnightblue" d="M2993.84,-108.21C2985.99,-98.59 2978.01,-88.81 2970.67,-79.81"/>
<polygon fill="none" stroke="midnightblue" points="2991.36,-110.7 3000.39,-116.24 2996.78,-106.28 2991.36,-110.7"/>
</g>
<!-- Node21 -->
<g id="node21" class="node">
<title>Node21</title>
<g id="a_node21"><a xlink:href="classtvm_1_1relax_1_1GlobalVarPatternNode.html" target="_top" xlink:title="A Pattern to Match a Relax Global Variable.">
<polygon fill="white" stroke="black" points="3053,-6 3053,-74 3233,-74 3233,-6 3053,-6"/>
<text text-anchor="middle" x="3143" y="-62" font-family="Helvetica,sans-Serif" font-size="10.00">tvm::relax::GlobalVarPatternNode</text>
<polyline fill="none" stroke="black" points="3053,-55 3233,-55 "/>
<text text-anchor="middle" x="3143" y="-43" font-family="Helvetica,sans-Serif" font-size="10.00"> </text>
<polyline fill="none" stroke="black" points="3053,-36 3233,-36 "/>
<text text-anchor="start" x="3061" y="-24" font-family="Helvetica,sans-Serif" font-size="10.00">+ TVM_FFI_DECLARE_OBJECT</text>
<text text-anchor="start" x="3061" y="-13" font-family="Helvetica,sans-Serif" font-size="10.00">_INFO_FINAL()</text>
</a>
</g>
</g>
<!-- Node19&#45;&gt;Node21 -->
<g id="edge20" class="edge">
<title>Node19&#45;&gt;Node21</title>
<path fill="none" stroke="midnightblue" d="M3088.17,-108.2C3097.71,-96.5 3107.44,-84.58 3115.99,-74.1"/>
<polygon fill="none" stroke="midnightblue" points="3085.22,-106.28 3081.61,-116.24 3090.64,-110.7 3085.22,-106.28"/>
</g>
</g>
</svg>
