<?xml version="1.0" encoding="UTF-8" standalone="no"?>
<!DOCTYPE svg PUBLIC "-//W3C//DTD SVG 1.1//EN"
 "http://www.w3.org/Graphics/SVG/1.1/DTD/svg11.dtd">
<!-- Generated by graphviz version 2.43.0 (0)
 -->
<!-- Title: tvm::Op Pages: 1 -->
<svg width="188pt" height="425pt"
 viewBox="0.00 0.00 188.00 425.00" xmlns="http://www.w3.org/2000/svg" xmlns:xlink="http://www.w3.org/1999/xlink">
<g id="graph0" class="graph" transform="scale(1 1) rotate(0) translate(4 421)">
<title>tvm::Op</title>
<polygon fill="white" stroke="transparent" points="-4,4 -4,-421 184,-421 184,4 -4,4"/>
<!-- Node1 -->
<g id="node1" class="node">
<title>Node1</title>
<g id="a_node1"><a xlink:title="Managed reference class to OpNode.">
<polygon fill="#bfbfbf" stroke="black" points="0,-0.5 0,-112.5 180,-112.5 180,-0.5 0,-0.5"/>
<text text-anchor="middle" x="90" y="-100.5" font-family="Helvetica,sans-Serif" font-size="10.00">tvm::Op</text>
<polyline fill="none" stroke="black" points="0,-93.5 180,-93.5 "/>
<text text-anchor="middle" x="90" y="-81.5" font-family="Helvetica,sans-Serif" font-size="10.00"> </text>
<polyline fill="none" stroke="black" points="0,-74.5 180,-74.5 "/>
<text text-anchor="start" x="8" y="-62.5" font-family="Helvetica,sans-Serif" font-size="10.00">+ Op()</text>
<text text-anchor="start" x="8" y="-51.5" font-family="Helvetica,sans-Serif" font-size="10.00">+ TVM_FFI_DEFINE_OBJECT</text>
<text text-anchor="start" x="8" y="-40.5" font-family="Helvetica,sans-Serif" font-size="10.00">_REF_METHODS_NOTNULLABLE()</text>
<text text-anchor="start" x="8" y="-29.5" font-family="Helvetica,sans-Serif" font-size="10.00">+ GetAttrMap()</text>
<text text-anchor="start" x="8" y="-18.5" font-family="Helvetica,sans-Serif" font-size="10.00">+ HasAttrMap()</text>
<text text-anchor="start" x="8" y="-7.5" font-family="Helvetica,sans-Serif" font-size="10.00">+ Get()</text>
</a>
</g>
</g>
<!-- Node2 -->
<g id="node2" class="node">
<title>Node2</title>
<g id="a_node2"><a xlink:href="classtvm_1_1RelaxExpr.html" target="_top" xlink:title="Managed reference to RelaxExprNode.">
<polygon fill="white" stroke="black" points="10.5,-149.5 10.5,-217.5 169.5,-217.5 169.5,-149.5 10.5,-149.5"/>
<text text-anchor="middle" x="90" y="-205.5" font-family="Helvetica,sans-Serif" font-size="10.00">tvm::RelaxExpr</text>
<polyline fill="none" stroke="black" points="10.5,-198.5 169.5,-198.5 "/>
<text text-anchor="middle" x="90" y="-186.5" font-family="Helvetica,sans-Serif" font-size="10.00"> </text>
<polyline fill="none" stroke="black" points="10.5,-179.5 169.5,-179.5 "/>
<text text-anchor="start" x="18.5" y="-167.5" font-family="Helvetica,sans-Serif" font-size="10.00">+ TVM_FFI_DEFINE_OBJECT</text>
<text text-anchor="start" x="18.5" y="-156.5" font-family="Helvetica,sans-Serif" font-size="10.00">_REF_METHODS_NULLABLE()</text>
</a>
</g>
</g>
<!-- Node2&#45;&gt;Node1 -->
<g id="edge1" class="edge">
<title>Node2&#45;&gt;Node1</title>
<path fill="none" stroke="midnightblue" d="M90,-139.18C90,-130.6 90,-121.49 90,-112.59"/>
<polygon fill="none" stroke="midnightblue" points="86.5,-139.33 90,-149.33 93.5,-139.33 86.5,-139.33"/>
</g>
<!-- Node3 -->
<g id="node3" class="node">
<title>Node3</title>
<g id="a_node3"><a xlink:href="classtvm_1_1BaseExpr.html" target="_top" xlink:title="Managed reference to BaseExprNode.">
<polygon fill="white" stroke="black" points="10.5,-254.5 10.5,-322.5 169.5,-322.5 169.5,-254.5 10.5,-254.5"/>
<text text-anchor="middle" x="90" y="-310.5" font-family="Helvetica,sans-Serif" font-size="10.00">tvm::BaseExpr</text>
<polyline fill="none" stroke="black" points="10.5,-303.5 169.5,-303.5 "/>
<text text-anchor="middle" x="90" y="-291.5" font-family="Helvetica,sans-Serif" font-size="10.00"> </text>
<polyline fill="none" stroke="black" points="10.5,-284.5 169.5,-284.5 "/>
<text text-anchor="start" x="18.5" y="-272.5" font-family="Helvetica,sans-Serif" font-size="10.00">+ TVM_FFI_DEFINE_OBJECT</text>
<text text-anchor="start" x="18.5" y="-261.5" font-family="Helvetica,sans-Serif" font-size="10.00">_REF_METHODS_NULLABLE()</text>
</a>
</g>
</g>
<!-- Node3&#45;&gt;Node2 -->
<g id="edge2" class="edge">
<title>Node3&#45;&gt;Node2</title>
<path fill="none" stroke="midnightblue" d="M90,-244.14C90,-235.26 90,-226.04 90,-217.59"/>
<polygon fill="none" stroke="midnightblue" points="86.5,-244.34 90,-254.34 93.5,-244.34 86.5,-244.34"/>
</g>
<!-- Node4 -->
<g id="node4" class="node">
<title>Node4</title>
<g id="a_node4"><a xlink:title=" ">
<polygon fill="white" stroke="#bfbfbf" points="50,-359.5 50,-416.5 130,-416.5 130,-359.5 50,-359.5"/>
<text text-anchor="middle" x="90" y="-404.5" font-family="Helvetica,sans-Serif" font-size="10.00">ffi::ObjectRef</text>
<polyline fill="none" stroke="#bfbfbf" points="50,-397.5 130,-397.5 "/>
<text text-anchor="middle" x="90" y="-385.5" font-family="Helvetica,sans-Serif" font-size="10.00"> </text>
<polyline fill="none" stroke="#bfbfbf" points="50,-378.5 130,-378.5 "/>
<text text-anchor="middle" x="90" y="-366.5" font-family="Helvetica,sans-Serif" font-size="10.00"> </text>
</a>
</g>
</g>
<!-- Node4&#45;&gt;Node3 -->
<g id="edge3" class="edge">
<title>Node4&#45;&gt;Node3</title>
<path fill="none" stroke="midnightblue" d="M90,-349.06C90,-340.39 90,-331.24 90,-322.79"/>
<polygon fill="none" stroke="midnightblue" points="86.5,-349.32 90,-359.32 93.5,-349.32 86.5,-349.32"/>
</g>
</g>
</svg>
