<?xml version="1.0" encoding="UTF-8" standalone="no"?>
<!DOCTYPE svg PUBLIC "-//W3C//DTD SVG 1.1//EN"
 "http://www.w3.org/Graphics/SVG/1.1/DTD/svg11.dtd">
<!-- Generated by graphviz version 2.43.0 (0)
 -->
<!-- Title: tvm::relax::ExprMutatorBase Pages: 1 -->
<svg width="214pt" height="292pt"
 viewBox="0.00 0.00 214.00 292.00" xmlns="http://www.w3.org/2000/svg" xmlns:xlink="http://www.w3.org/1999/xlink">
<g id="graph0" class="graph" transform="scale(1 1) rotate(0) translate(4 288)">
<title>tvm::relax::ExprMutatorBase</title>
<polygon fill="white" stroke="transparent" points="-4,4 -4,-288 210,-288 210,4 -4,4"/>
<!-- Node1 -->
<g id="node1" class="node">
<title>Node1</title>
<g id="a_node1"><a xlink:title="A mutator works in unnormalized form.">
<polygon fill="#bfbfbf" stroke="black" points="0,-0.5 0,-178.5 206,-178.5 206,-0.5 0,-0.5"/>
<text text-anchor="middle" x="103" y="-166.5" font-family="Helvetica,sans-Serif" font-size="10.00">tvm::relax::ExprMutatorBase</text>
<polyline fill="none" stroke="black" points="0,-159.5 206,-159.5 "/>
<text text-anchor="middle" x="103" y="-147.5" font-family="Helvetica,sans-Serif" font-size="10.00"> </text>
<polyline fill="none" stroke="black" points="0,-140.5 206,-140.5 "/>
<text text-anchor="start" x="8" y="-128.5" font-family="Helvetica,sans-Serif" font-size="10.00">+ VisitExpr()</text>
<text text-anchor="start" x="8" y="-117.5" font-family="Helvetica,sans-Serif" font-size="10.00">+ VisitExpr_()</text>
<text text-anchor="start" x="8" y="-106.5" font-family="Helvetica,sans-Serif" font-size="10.00">+ VisitExpr_()</text>
<text text-anchor="start" x="8" y="-95.5" font-family="Helvetica,sans-Serif" font-size="10.00">+ VisitExpr_()</text>
<text text-anchor="start" x="8" y="-84.5" font-family="Helvetica,sans-Serif" font-size="10.00">+ VisitExpr_()</text>
<text text-anchor="start" x="8" y="-73.5" font-family="Helvetica,sans-Serif" font-size="10.00">+ VisitExpr_()</text>
<text text-anchor="start" x="8" y="-62.5" font-family="Helvetica,sans-Serif" font-size="10.00">+ VisitExpr_()</text>
<text text-anchor="start" x="8" y="-51.5" font-family="Helvetica,sans-Serif" font-size="10.00">+ VisitExpr_()</text>
<text text-anchor="start" x="8" y="-40.5" font-family="Helvetica,sans-Serif" font-size="10.00">+ VisitExpr_()</text>
<text text-anchor="start" x="8" y="-29.5" font-family="Helvetica,sans-Serif" font-size="10.00">+ VisitExpr_()</text>
<text text-anchor="start" x="8" y="-18.5" font-family="Helvetica,sans-Serif" font-size="10.00">and 10 more...</text>
<text text-anchor="start" x="8" y="-7.5" font-family="Helvetica,sans-Serif" font-size="10.00"># VisitAndCheckTypeFieldUnchanged()</text>
</a>
</g>
</g>
<!-- Node2 -->
<g id="node2" class="node">
<title>Node2</title>
<g id="a_node2"><a xlink:href="classtvm_1_1relax_1_1ExprFunctor.html" target="_top" xlink:title=" ">
<polygon fill="white" stroke="black" points="37.5,-215.5 37.5,-283.5 168.5,-283.5 168.5,-215.5 37.5,-215.5"/>
<text text-anchor="start" x="45.5" y="-271.5" font-family="Helvetica,sans-Serif" font-size="10.00">tvm::relax::ExprFunctor</text>
<text text-anchor="middle" x="103" y="-260.5" font-family="Helvetica,sans-Serif" font-size="10.00">&lt; Expr(const Expr &amp;)&gt;</text>
<polyline fill="none" stroke="black" points="37.5,-253.5 168.5,-253.5 "/>
<text text-anchor="middle" x="103" y="-241.5" font-family="Helvetica,sans-Serif" font-size="10.00"> </text>
<polyline fill="none" stroke="black" points="37.5,-234.5 168.5,-234.5 "/>
<text text-anchor="middle" x="103" y="-222.5" font-family="Helvetica,sans-Serif" font-size="10.00"> </text>
</a>
</g>
</g>
<!-- Node2&#45;&gt;Node1 -->
<g id="edge1" class="edge">
<title>Node2&#45;&gt;Node1</title>
<path fill="none" stroke="midnightblue" d="M103,-205.19C103,-196.83 103,-187.8 103,-178.59"/>
<polygon fill="none" stroke="midnightblue" points="99.5,-205.38 103,-215.38 106.5,-205.38 99.5,-205.38"/>
</g>
</g>
</svg>
