<?xml version="1.0" encoding="UTF-8" standalone="no"?>
<!DOCTYPE svg PUBLIC "-//W3C//DTD SVG 1.1//EN"
 "http://www.w3.org/Graphics/SVG/1.1/DTD/svg11.dtd">
<!-- Generated by graphviz version 2.43.0 (0)
 -->
<!-- Title: tvm::GlobalVarNode Pages: 1 -->
<svg width="427pt" height="599pt"
 viewBox="0.00 0.00 426.50 599.00" xmlns="http://www.w3.org/2000/svg" xmlns:xlink="http://www.w3.org/1999/xlink">
<g id="graph0" class="graph" transform="scale(1 1) rotate(0) translate(4 595)">
<title>tvm::GlobalVarNode</title>
<polygon fill="white" stroke="transparent" points="-4,4 -4,-595 422.5,-595 422.5,4 -4,4"/>
<!-- Node1 -->
<g id="node1" class="node">
<title>Node1</title>
<g id="a_node1"><a xlink:title="Global variable that lives in the top&#45;level module.">
<polygon fill="#bfbfbf" stroke="black" points="81,-0.5 81,-112.5 243,-112.5 243,-0.5 81,-0.5"/>
<text text-anchor="middle" x="162" y="-100.5" font-family="Helvetica,sans-Serif" font-size="10.00">tvm::GlobalVarNode</text>
<polyline fill="none" stroke="black" points="81,-93.5 243,-93.5 "/>
<text text-anchor="start" x="89" y="-81.5" font-family="Helvetica,sans-Serif" font-size="10.00">+ name_hint</text>
<text text-anchor="start" x="89" y="-70.5" font-family="Helvetica,sans-Serif" font-size="10.00">+ _type_s_eq_hash_kind</text>
<polyline fill="none" stroke="black" points="81,-63.5 243,-63.5 "/>
<text text-anchor="start" x="89" y="-51.5" font-family="Helvetica,sans-Serif" font-size="10.00">+ SEqual()</text>
<text text-anchor="start" x="89" y="-40.5" font-family="Helvetica,sans-Serif" font-size="10.00">+ SHash()</text>
<text text-anchor="start" x="89" y="-29.5" font-family="Helvetica,sans-Serif" font-size="10.00">+ TVM_FFI_DECLARE_OBJECT</text>
<text text-anchor="start" x="89" y="-18.5" font-family="Helvetica,sans-Serif" font-size="10.00">_INFO_FINAL()</text>
<text text-anchor="start" x="89" y="-7.5" font-family="Helvetica,sans-Serif" font-size="10.00">+ RegisterReflection()</text>
</a>
</g>
</g>
<!-- Node2 -->
<g id="node2" class="node">
<title>Node2</title>
<g id="a_node2"><a xlink:href="classtvm_1_1RelaxExprNode.html" target="_top" xlink:title="Base node of all non&#45;primitive expressions.">
<polygon fill="white" stroke="black" points="81,-150.5 81,-229.5 243,-229.5 243,-150.5 81,-150.5"/>
<text text-anchor="middle" x="162" y="-217.5" font-family="Helvetica,sans-Serif" font-size="10.00">tvm::RelaxExprNode</text>
<polyline fill="none" stroke="black" points="81,-210.5 243,-210.5 "/>
<text text-anchor="start" x="89" y="-198.5" font-family="Helvetica,sans-Serif" font-size="10.00">+ _type_child_slots</text>
<polyline fill="none" stroke="black" points="81,-191.5 243,-191.5 "/>
<text text-anchor="start" x="89" y="-179.5" font-family="Helvetica,sans-Serif" font-size="10.00">+ TVM_FFI_DECLARE_OBJECT</text>
<text text-anchor="start" x="89" y="-168.5" font-family="Helvetica,sans-Serif" font-size="10.00">_INFO()</text>
<text text-anchor="start" x="89" y="-157.5" font-family="Helvetica,sans-Serif" font-size="10.00">+ RegisterReflection()</text>
</a>
</g>
</g>
<!-- Node2&#45;&gt;Node1 -->
<g id="edge1" class="edge">
<title>Node2&#45;&gt;Node1</title>
<path fill="none" stroke="midnightblue" d="M162,-139.99C162,-131.04 162,-121.64 162,-112.53"/>
<polygon fill="none" stroke="midnightblue" points="158.5,-140.26 162,-150.26 165.5,-140.26 158.5,-140.26"/>
</g>
<!-- Node3 -->
<g id="node3" class="node">
<title>Node3</title>
<g id="a_node3"><a xlink:href="classtvm_1_1BaseExprNode.html" target="_top" xlink:title="Base type of all the expressions.">
<polygon fill="white" stroke="black" points="81,-267.5 81,-357.5 243,-357.5 243,-267.5 81,-267.5"/>
<text text-anchor="middle" x="162" y="-345.5" font-family="Helvetica,sans-Serif" font-size="10.00">tvm::BaseExprNode</text>
<polyline fill="none" stroke="black" points="81,-338.5 243,-338.5 "/>
<text text-anchor="start" x="89" y="-326.5" font-family="Helvetica,sans-Serif" font-size="10.00">+ _type_s_eq_hash_kind</text>
<text text-anchor="start" x="89" y="-315.5" font-family="Helvetica,sans-Serif" font-size="10.00">+ _type_child_slots</text>
<polyline fill="none" stroke="black" points="81,-308.5 243,-308.5 "/>
<text text-anchor="start" x="89" y="-296.5" font-family="Helvetica,sans-Serif" font-size="10.00">+ TVM_FFI_DECLARE_OBJECT</text>
<text text-anchor="start" x="89" y="-285.5" font-family="Helvetica,sans-Serif" font-size="10.00">_INFO()</text>
<text text-anchor="start" x="89" y="-274.5" font-family="Helvetica,sans-Serif" font-size="10.00">+ RegisterReflection()</text>
</a>
</g>
</g>
<!-- Node3&#45;&gt;Node2 -->
<g id="edge2" class="edge">
<title>Node3&#45;&gt;Node2</title>
<path fill="none" stroke="midnightblue" d="M162,-257.3C162,-247.97 162,-238.43 162,-229.61"/>
<polygon fill="none" stroke="midnightblue" points="158.5,-257.31 162,-267.31 165.5,-257.31 158.5,-257.31"/>
</g>
<!-- Node4 -->
<g id="node4" class="node">
<title>Node4</title>
<g id="a_node4"><a xlink:title=" ">
<polygon fill="white" stroke="#bfbfbf" points="0,-422 0,-479 64,-479 64,-422 0,-422"/>
<text text-anchor="middle" x="32" y="-467" font-family="Helvetica,sans-Serif" font-size="10.00">ffi::Object</text>
<polyline fill="none" stroke="#bfbfbf" points="0,-460 64,-460 "/>
<text text-anchor="middle" x="32" y="-448" font-family="Helvetica,sans-Serif" font-size="10.00"> </text>
<polyline fill="none" stroke="#bfbfbf" points="0,-441 64,-441 "/>
<text text-anchor="middle" x="32" y="-429" font-family="Helvetica,sans-Serif" font-size="10.00"> </text>
</a>
</g>
</g>
<!-- Node4&#45;&gt;Node3 -->
<g id="edge3" class="edge">
<title>Node4&#45;&gt;Node3</title>
<path fill="none" stroke="midnightblue" d="M64.28,-414.29C67.22,-411.14 70.16,-408 73,-405 87.63,-389.55 103.8,-372.82 118.3,-357.94"/>
<polygon fill="none" stroke="midnightblue" points="61.71,-411.91 57.47,-421.62 66.84,-416.67 61.71,-411.91"/>
</g>
<!-- Node5 -->
<g id="node5" class="node">
<title>Node5</title>
<g id="a_node5"><a xlink:href="classtvm_1_1Span.html" target="_top" xlink:title=" ">
<polygon fill="white" stroke="black" points="82.5,-405.5 82.5,-495.5 241.5,-495.5 241.5,-405.5 82.5,-405.5"/>
<text text-anchor="middle" x="162" y="-483.5" font-family="Helvetica,sans-Serif" font-size="10.00">tvm::Span</text>
<polyline fill="none" stroke="black" points="82.5,-476.5 241.5,-476.5 "/>
<text text-anchor="middle" x="162" y="-464.5" font-family="Helvetica,sans-Serif" font-size="10.00"> </text>
<polyline fill="none" stroke="black" points="82.5,-457.5 241.5,-457.5 "/>
<text text-anchor="start" x="90.5" y="-445.5" font-family="Helvetica,sans-Serif" font-size="10.00">+ Span()</text>
<text text-anchor="start" x="90.5" y="-434.5" font-family="Helvetica,sans-Serif" font-size="10.00">+ Merge()</text>
<text text-anchor="start" x="90.5" y="-423.5" font-family="Helvetica,sans-Serif" font-size="10.00">+ TVM_FFI_DEFINE_OBJECT</text>
<text text-anchor="start" x="90.5" y="-412.5" font-family="Helvetica,sans-Serif" font-size="10.00">_REF_METHODS_NULLABLE()</text>
</a>
</g>
</g>
<!-- Node5&#45;&gt;Node3 -->
<g id="edge4" class="edge">
<title>Node5&#45;&gt;Node3</title>
<path fill="none" stroke="#404040" d="M162,-405.34C162,-394.06 162,-381.78 162,-369.97"/>
<polygon fill="none" stroke="#404040" points="162,-369.9 158,-363.9 162,-357.9 166,-363.9 162,-369.9"/>
<text text-anchor="middle" x="179.5" y="-379" font-family="Helvetica,sans-Serif" font-size="10.00"> +span</text>
</g>
<!-- Node6 -->
<g id="node6" class="node">
<title>Node6</title>
<g id="a_node6"><a xlink:title=" ">
<polygon fill="white" stroke="#bfbfbf" points="210,-533.5 210,-590.5 290,-590.5 290,-533.5 210,-533.5"/>
<text text-anchor="middle" x="250" y="-578.5" font-family="Helvetica,sans-Serif" font-size="10.00">ffi::ObjectRef</text>
<polyline fill="none" stroke="#bfbfbf" points="210,-571.5 290,-571.5 "/>
<text text-anchor="middle" x="250" y="-559.5" font-family="Helvetica,sans-Serif" font-size="10.00"> </text>
<polyline fill="none" stroke="#bfbfbf" points="210,-552.5 290,-552.5 "/>
<text text-anchor="middle" x="250" y="-540.5" font-family="Helvetica,sans-Serif" font-size="10.00"> </text>
</a>
</g>
</g>
<!-- Node6&#45;&gt;Node5 -->
<g id="edge5" class="edge">
<title>Node6&#45;&gt;Node5</title>
<path fill="none" stroke="midnightblue" d="M221.33,-525.33C213.74,-515.89 205.46,-505.58 197.56,-495.74"/>
<polygon fill="none" stroke="midnightblue" points="218.8,-527.77 227.79,-533.37 224.26,-523.38 218.8,-527.77"/>
</g>
<!-- Node7 -->
<g id="node7" class="node">
<title>Node7</title>
<g id="a_node7"><a xlink:href="classtvm_1_1Type.html" target="_top" xlink:title="Managed reference to TypeNode.">
<polygon fill="white" stroke="black" points="259.5,-416.5 259.5,-484.5 418.5,-484.5 418.5,-416.5 259.5,-416.5"/>
<text text-anchor="middle" x="339" y="-472.5" font-family="Helvetica,sans-Serif" font-size="10.00">tvm::Type</text>
<polyline fill="none" stroke="black" points="259.5,-465.5 418.5,-465.5 "/>
<text text-anchor="middle" x="339" y="-453.5" font-family="Helvetica,sans-Serif" font-size="10.00"> </text>
<polyline fill="none" stroke="black" points="259.5,-446.5 418.5,-446.5 "/>
<text text-anchor="start" x="267.5" y="-434.5" font-family="Helvetica,sans-Serif" font-size="10.00">+ TVM_FFI_DEFINE_OBJECT</text>
<text text-anchor="start" x="267.5" y="-423.5" font-family="Helvetica,sans-Serif" font-size="10.00">_REF_METHODS_NULLABLE()</text>
</a>
</g>
</g>
<!-- Node6&#45;&gt;Node7 -->
<g id="edge7" class="edge">
<title>Node6&#45;&gt;Node7</title>
<path fill="none" stroke="midnightblue" d="M278.9,-525.44C289.58,-512.31 301.62,-497.49 312.11,-484.59"/>
<polygon fill="none" stroke="midnightblue" points="276.05,-523.4 272.46,-533.37 281.48,-527.82 276.05,-523.4"/>
</g>
<!-- Node7&#45;&gt;Node3 -->
<g id="edge6" class="edge">
<title>Node7&#45;&gt;Node3</title>
<path fill="none" stroke="#404040" d="M295.7,-416.23C275.73,-400.89 251.56,-382.32 229.3,-365.21"/>
<polygon fill="none" stroke="#404040" points="229.07,-365.04 221.88,-364.55 219.56,-357.73 226.75,-358.21 229.07,-365.04"/>
<text text-anchor="middle" x="266" y="-379" font-family="Helvetica,sans-Serif" font-size="10.00"> +ty</text>
</g>
</g>
</svg>
