<?xml version="1.0" encoding="UTF-8" standalone="no"?>
<!DOCTYPE svg PUBLIC "-//W3C//DTD SVG 1.1//EN"
 "http://www.w3.org/Graphics/SVG/1.1/DTD/svg11.dtd">
<!-- Generated by graphviz version 2.43.0 (0)
 -->
<!-- Title: tvm::relax::distributed::DTensorTypeNode Pages: 1 -->
<svg width="725pt" height="594pt"
 viewBox="0.00 0.00 724.50 594.00" xmlns="http://www.w3.org/2000/svg" xmlns:xlink="http://www.w3.org/1999/xlink">
<g id="graph0" class="graph" transform="scale(1 1) rotate(0) translate(4 590)">
<title>tvm::relax::distributed::DTensorTypeNode</title>
<polygon fill="white" stroke="transparent" points="-4,4 -4,-590 720.5,-590 720.5,4 -4,4"/>
<!-- Node1 -->
<g id="node1" class="node">
<title>Node1</title>
<g id="a_node1"><a xlink:title="Type of DTensor (Distributed Tensor).">
<polygon fill="#bfbfbf" stroke="black" points="341,-0.5 341,-112.5 503,-112.5 503,-0.5 341,-0.5"/>
<text text-anchor="start" x="349" y="-100.5" font-family="Helvetica,sans-Serif" font-size="10.00">tvm::relax::distributed</text>
<text text-anchor="middle" x="422" y="-89.5" font-family="Helvetica,sans-Serif" font-size="10.00">::DTensorTypeNode</text>
<polyline fill="none" stroke="black" points="341,-82.5 503,-82.5 "/>
<text text-anchor="middle" x="422" y="-70.5" font-family="Helvetica,sans-Serif" font-size="10.00"> </text>
<polyline fill="none" stroke="black" points="341,-63.5 503,-63.5 "/>
<text text-anchor="start" x="349" y="-51.5" font-family="Helvetica,sans-Serif" font-size="10.00">+ DTensorTypeNode()</text>
<text text-anchor="start" x="349" y="-40.5" font-family="Helvetica,sans-Serif" font-size="10.00">+ DTensorTypeNode()</text>
<text text-anchor="start" x="349" y="-29.5" font-family="Helvetica,sans-Serif" font-size="10.00">+ TVM_FFI_DECLARE_OBJECT</text>
<text text-anchor="start" x="349" y="-18.5" font-family="Helvetica,sans-Serif" font-size="10.00">_INFO_FINAL()</text>
<text text-anchor="start" x="349" y="-7.5" font-family="Helvetica,sans-Serif" font-size="10.00">+ RegisterReflection()</text>
</a>
</g>
</g>
<!-- Node2 -->
<g id="node2" class="node">
<title>Node2</title>
<g id="a_node2"><a xlink:href="classtvm_1_1TypeNode.html" target="_top" xlink:title="Type is the base type of all types.">
<polygon fill="white" stroke="black" points="68,-166 68,-256 230,-256 230,-166 68,-166"/>
<text text-anchor="middle" x="149" y="-244" font-family="Helvetica,sans-Serif" font-size="10.00">tvm::TypeNode</text>
<polyline fill="none" stroke="black" points="68,-237 230,-237 "/>
<text text-anchor="start" x="76" y="-225" font-family="Helvetica,sans-Serif" font-size="10.00">+ _type_s_eq_hash_kind</text>
<text text-anchor="start" x="76" y="-214" font-family="Helvetica,sans-Serif" font-size="10.00">+ _type_child_slots</text>
<polyline fill="none" stroke="black" points="68,-207 230,-207 "/>
<text text-anchor="start" x="76" y="-195" font-family="Helvetica,sans-Serif" font-size="10.00">+ TVM_FFI_DECLARE_OBJECT</text>
<text text-anchor="start" x="76" y="-184" font-family="Helvetica,sans-Serif" font-size="10.00">_INFO()</text>
<text text-anchor="start" x="76" y="-173" font-family="Helvetica,sans-Serif" font-size="10.00">+ RegisterReflection()</text>
</a>
</g>
</g>
<!-- Node2&#45;&gt;Node1 -->
<g id="edge1" class="edge">
<title>Node2&#45;&gt;Node1</title>
<path fill="none" stroke="midnightblue" d="M236.8,-160.95C270.21,-142.29 308.09,-121.13 340.84,-102.83"/>
<polygon fill="none" stroke="midnightblue" points="234.99,-157.96 227.96,-165.89 238.4,-164.07 234.99,-157.96"/>
</g>
<!-- Node3 -->
<g id="node3" class="node">
<title>Node3</title>
<g id="a_node3"><a xlink:title=" ">
<polygon fill="white" stroke="#bfbfbf" points="0,-417 0,-474 64,-474 64,-417 0,-417"/>
<text text-anchor="middle" x="32" y="-462" font-family="Helvetica,sans-Serif" font-size="10.00">ffi::Object</text>
<polyline fill="none" stroke="#bfbfbf" points="0,-455 64,-455 "/>
<text text-anchor="middle" x="32" y="-443" font-family="Helvetica,sans-Serif" font-size="10.00"> </text>
<polyline fill="none" stroke="#bfbfbf" points="0,-436 64,-436 "/>
<text text-anchor="middle" x="32" y="-424" font-family="Helvetica,sans-Serif" font-size="10.00"> </text>
</a>
</g>
</g>
<!-- Node3&#45;&gt;Node2 -->
<g id="edge2" class="edge">
<title>Node3&#45;&gt;Node2</title>
<path fill="none" stroke="midnightblue" d="M50.47,-407.8C71.14,-366.71 104.64,-300.15 126.75,-256.22"/>
<polygon fill="none" stroke="midnightblue" points="47.25,-406.41 45.88,-416.92 53.5,-409.56 47.25,-406.41"/>
</g>
<!-- Node4 -->
<g id="node4" class="node">
<title>Node4</title>
<g id="a_node4"><a xlink:href="classtvm_1_1Span.html" target="_top" xlink:title=" ">
<polygon fill="white" stroke="black" points="82.5,-400.5 82.5,-490.5 241.5,-490.5 241.5,-400.5 82.5,-400.5"/>
<text text-anchor="middle" x="162" y="-478.5" font-family="Helvetica,sans-Serif" font-size="10.00">tvm::Span</text>
<polyline fill="none" stroke="black" points="82.5,-471.5 241.5,-471.5 "/>
<text text-anchor="middle" x="162" y="-459.5" font-family="Helvetica,sans-Serif" font-size="10.00"> </text>
<polyline fill="none" stroke="black" points="82.5,-452.5 241.5,-452.5 "/>
<text text-anchor="start" x="90.5" y="-440.5" font-family="Helvetica,sans-Serif" font-size="10.00">+ Span()</text>
<text text-anchor="start" x="90.5" y="-429.5" font-family="Helvetica,sans-Serif" font-size="10.00">+ Merge()</text>
<text text-anchor="start" x="90.5" y="-418.5" font-family="Helvetica,sans-Serif" font-size="10.00">+ TVM_FFI_DEFINE_OBJECT</text>
<text text-anchor="start" x="90.5" y="-407.5" font-family="Helvetica,sans-Serif" font-size="10.00">_REF_METHODS_NULLABLE()</text>
</a>
</g>
</g>
<!-- Node4&#45;&gt;Node2 -->
<g id="edge3" class="edge">
<title>Node4&#45;&gt;Node2</title>
<path fill="none" stroke="#404040" d="M159.54,-400.5C157.44,-363.03 154.42,-308.99 152.15,-268.36"/>
<polygon fill="none" stroke="#404040" points="152.14,-268.2 147.81,-262.43 151.47,-256.22 155.8,-261.99 152.14,-268.2"/>
<text text-anchor="middle" x="176.5" y="-328.5" font-family="Helvetica,sans-Serif" font-size="10.00"> +span</text>
</g>
<!-- Node5 -->
<g id="node5" class="node">
<title>Node5</title>
<g id="a_node5"><a xlink:title=" ">
<polygon fill="white" stroke="#bfbfbf" points="374,-528.5 374,-585.5 454,-585.5 454,-528.5 374,-528.5"/>
<text text-anchor="middle" x="414" y="-573.5" font-family="Helvetica,sans-Serif" font-size="10.00">ffi::ObjectRef</text>
<polyline fill="none" stroke="#bfbfbf" points="374,-566.5 454,-566.5 "/>
<text text-anchor="middle" x="414" y="-554.5" font-family="Helvetica,sans-Serif" font-size="10.00"> </text>
<polyline fill="none" stroke="#bfbfbf" points="374,-547.5 454,-547.5 "/>
<text text-anchor="middle" x="414" y="-535.5" font-family="Helvetica,sans-Serif" font-size="10.00"> </text>
</a>
</g>
</g>
<!-- Node5&#45;&gt;Node4 -->
<g id="edge4" class="edge">
<title>Node5&#45;&gt;Node4</title>
<path fill="none" stroke="midnightblue" d="M364.44,-537.7C331.65,-525.27 287.88,-508.04 250,-491 247.35,-489.81 244.66,-488.57 241.95,-487.32"/>
<polygon fill="none" stroke="midnightblue" points="363.22,-540.98 373.81,-541.24 365.69,-534.43 363.22,-540.98"/>
</g>
<!-- Node7 -->
<g id="node7" class="node">
<title>Node7</title>
<g id="a_node7"><a xlink:href="classtvm_1_1GlobalInfo.html" target="_top" xlink:title="Managed reference to GlobalInfoNode.">
<polygon fill="white" stroke="black" points="259.5,-411.5 259.5,-479.5 418.5,-479.5 418.5,-411.5 259.5,-411.5"/>
<text text-anchor="middle" x="339" y="-467.5" font-family="Helvetica,sans-Serif" font-size="10.00">tvm::GlobalInfo</text>
<polyline fill="none" stroke="black" points="259.5,-460.5 418.5,-460.5 "/>
<text text-anchor="middle" x="339" y="-448.5" font-family="Helvetica,sans-Serif" font-size="10.00"> </text>
<polyline fill="none" stroke="black" points="259.5,-441.5 418.5,-441.5 "/>
<text text-anchor="start" x="267.5" y="-429.5" font-family="Helvetica,sans-Serif" font-size="10.00">+ TVM_FFI_DEFINE_OBJECT</text>
<text text-anchor="start" x="267.5" y="-418.5" font-family="Helvetica,sans-Serif" font-size="10.00">_REF_METHODS_NULLABLE()</text>
</a>
</g>
</g>
<!-- Node5&#45;&gt;Node7 -->
<g id="edge7" class="edge">
<title>Node5&#45;&gt;Node7</title>
<path fill="none" stroke="midnightblue" d="M389.39,-520.07C380.46,-507.03 370.42,-492.37 361.66,-479.59"/>
<polygon fill="none" stroke="midnightblue" points="386.54,-522.1 395.07,-528.37 392.31,-518.14 386.54,-522.1"/>
</g>
<!-- Node9 -->
<g id="node9" class="node">
<title>Node9</title>
<g id="a_node9"><a xlink:href="classtvm_1_1Type.html" target="_top" xlink:title="Managed reference to TypeNode.">
<polygon fill="white" stroke="black" points="436.5,-411.5 436.5,-479.5 595.5,-479.5 595.5,-411.5 436.5,-411.5"/>
<text text-anchor="middle" x="516" y="-467.5" font-family="Helvetica,sans-Serif" font-size="10.00">tvm::Type</text>
<polyline fill="none" stroke="black" points="436.5,-460.5 595.5,-460.5 "/>
<text text-anchor="middle" x="516" y="-448.5" font-family="Helvetica,sans-Serif" font-size="10.00"> </text>
<polyline fill="none" stroke="black" points="436.5,-441.5 595.5,-441.5 "/>
<text text-anchor="start" x="444.5" y="-429.5" font-family="Helvetica,sans-Serif" font-size="10.00">+ TVM_FFI_DEFINE_OBJECT</text>
<text text-anchor="start" x="444.5" y="-418.5" font-family="Helvetica,sans-Serif" font-size="10.00">_REF_METHODS_NULLABLE()</text>
</a>
</g>
</g>
<!-- Node5&#45;&gt;Node9 -->
<g id="edge10" class="edge">
<title>Node5&#45;&gt;Node9</title>
<path fill="none" stroke="midnightblue" d="M446.78,-520.81C459.1,-507.59 473.05,-492.61 485.18,-479.59"/>
<polygon fill="none" stroke="midnightblue" points="443.99,-518.67 439.74,-528.37 449.12,-523.44 443.99,-518.67"/>
</g>
<!-- Node10 -->
<g id="node10" class="node">
<title>Node10</title>
<g id="a_node10"><a xlink:href="classtvm_1_1relax_1_1distributed_1_1Placement.html" target="_top" xlink:title="Managed reference to a Placement.">
<polygon fill="white" stroke="black" points="557.5,-280.5 557.5,-381.5 716.5,-381.5 716.5,-280.5 557.5,-280.5"/>
<text text-anchor="start" x="565.5" y="-369.5" font-family="Helvetica,sans-Serif" font-size="10.00">tvm::relax::distributed</text>
<text text-anchor="middle" x="637" y="-358.5" font-family="Helvetica,sans-Serif" font-size="10.00">::Placement</text>
<polyline fill="none" stroke="black" points="557.5,-351.5 716.5,-351.5 "/>
<text text-anchor="middle" x="637" y="-339.5" font-family="Helvetica,sans-Serif" font-size="10.00"> </text>
<polyline fill="none" stroke="black" points="557.5,-332.5 716.5,-332.5 "/>
<text text-anchor="start" x="565.5" y="-320.5" font-family="Helvetica,sans-Serif" font-size="10.00">+ Placement()</text>
<text text-anchor="start" x="565.5" y="-309.5" font-family="Helvetica,sans-Serif" font-size="10.00">+ TVM_FFI_DEFINE_OBJECT</text>
<text text-anchor="start" x="565.5" y="-298.5" font-family="Helvetica,sans-Serif" font-size="10.00">_REF_METHODS_NULLABLE()</text>
<text text-anchor="start" x="565.5" y="-287.5" font-family="Helvetica,sans-Serif" font-size="10.00">+ FromText()</text>
</a>
</g>
</g>
<!-- Node5&#45;&gt;Node10 -->
<g id="edge12" class="edge">
<title>Node5&#45;&gt;Node10</title>
<path fill="none" stroke="midnightblue" d="M464.2,-552.35C507.56,-546.45 568.66,-531.06 604,-491 630.2,-461.3 637.59,-416.3 638.91,-381.75"/>
<polygon fill="none" stroke="midnightblue" points="463.63,-548.89 454.14,-553.6 464.49,-555.84 463.63,-548.89"/>
</g>
<!-- Node6 -->
<g id="node6" class="node">
<title>Node6</title>
<g id="a_node6"><a xlink:href="classtvm_1_1relax_1_1distributed_1_1DeviceMesh.html" target="_top" xlink:title="Managed reference to a DeviceMesh.">
<polygon fill="white" stroke="black" points="248.5,-160.5 248.5,-261.5 407.5,-261.5 407.5,-160.5 248.5,-160.5"/>
<text text-anchor="start" x="256.5" y="-249.5" font-family="Helvetica,sans-Serif" font-size="10.00">tvm::relax::distributed</text>
<text text-anchor="middle" x="328" y="-238.5" font-family="Helvetica,sans-Serif" font-size="10.00">::DeviceMesh</text>
<polyline fill="none" stroke="black" points="248.5,-231.5 407.5,-231.5 "/>
<text text-anchor="middle" x="328" y="-219.5" font-family="Helvetica,sans-Serif" font-size="10.00"> </text>
<polyline fill="none" stroke="black" points="248.5,-212.5 407.5,-212.5 "/>
<text text-anchor="start" x="256.5" y="-200.5" font-family="Helvetica,sans-Serif" font-size="10.00">+ DeviceMesh()</text>
<text text-anchor="start" x="256.5" y="-189.5" font-family="Helvetica,sans-Serif" font-size="10.00">+ DeviceMesh()</text>
<text text-anchor="start" x="256.5" y="-178.5" font-family="Helvetica,sans-Serif" font-size="10.00">+ TVM_FFI_DEFINE_OBJECT</text>
<text text-anchor="start" x="256.5" y="-167.5" font-family="Helvetica,sans-Serif" font-size="10.00">_REF_METHODS_NULLABLE()</text>
</a>
</g>
</g>
<!-- Node6&#45;&gt;Node1 -->
<g id="edge5" class="edge">
<title>Node6&#45;&gt;Node1</title>
<path fill="none" stroke="#404040" d="M356.32,-160.46C362.08,-150.65 368.17,-140.45 374,-131 375.61,-128.39 377.26,-125.74 378.95,-123.06"/>
<polygon fill="none" stroke="#404040" points="379.1,-122.82 378.93,-115.61 385.52,-112.69 385.69,-119.9 379.1,-122.82"/>
<text text-anchor="middle" x="412" y="-134" font-family="Helvetica,sans-Serif" font-size="10.00"> +device_mesh</text>
</g>
<!-- Node7&#45;&gt;Node6 -->
<g id="edge6" class="edge">
<title>Node7&#45;&gt;Node6</title>
<path fill="none" stroke="midnightblue" d="M336.94,-401.04C335.07,-361.42 332.3,-302.92 330.34,-261.5"/>
<polygon fill="none" stroke="midnightblue" points="333.46,-401.37 337.42,-411.19 340.45,-401.03 333.46,-401.37"/>
</g>
<!-- Node8 -->
<g id="node8" class="node">
<title>Node8</title>
<g id="a_node8"><a xlink:href="classtvm_1_1relax_1_1TensorType.html" target="_top" xlink:title="Managed reference to TensorTypeNode.">
<polygon fill="white" stroke="black" points="426,-160.5 426,-261.5 606,-261.5 606,-160.5 426,-160.5"/>
<text text-anchor="middle" x="516" y="-249.5" font-family="Helvetica,sans-Serif" font-size="10.00">tvm::relax::TensorType</text>
<polyline fill="none" stroke="black" points="426,-242.5 606,-242.5 "/>
<text text-anchor="middle" x="516" y="-230.5" font-family="Helvetica,sans-Serif" font-size="10.00"> </text>
<polyline fill="none" stroke="black" points="426,-223.5 606,-223.5 "/>
<text text-anchor="start" x="434" y="-211.5" font-family="Helvetica,sans-Serif" font-size="10.00">+ TensorType()</text>
<text text-anchor="start" x="434" y="-200.5" font-family="Helvetica,sans-Serif" font-size="10.00">+ TensorType()</text>
<text text-anchor="start" x="434" y="-189.5" font-family="Helvetica,sans-Serif" font-size="10.00">+ TensorType()</text>
<text text-anchor="start" x="434" y="-178.5" font-family="Helvetica,sans-Serif" font-size="10.00">+ TVM_FFI_DEFINE_OBJECT</text>
<text text-anchor="start" x="434" y="-167.5" font-family="Helvetica,sans-Serif" font-size="10.00">_REF_METHODS_NOTNULLABLE()</text>
</a>
</g>
</g>
<!-- Node8&#45;&gt;Node1 -->
<g id="edge8" class="edge">
<title>Node8&#45;&gt;Node1</title>
<path fill="none" stroke="#404040" d="M485.48,-160.49C478.11,-148.53 470.12,-135.57 462.37,-123"/>
<polygon fill="none" stroke="#404040" points="462.24,-122.78 455.69,-119.78 455.94,-112.57 462.5,-115.58 462.24,-122.78"/>
<text text-anchor="middle" x="501" y="-134" font-family="Helvetica,sans-Serif" font-size="10.00"> +tensor_ty</text>
</g>
<!-- Node9&#45;&gt;Node8 -->
<g id="edge9" class="edge">
<title>Node9&#45;&gt;Node8</title>
<path fill="none" stroke="midnightblue" d="M516,-401.04C516,-361.42 516,-302.92 516,-261.5"/>
<polygon fill="none" stroke="midnightblue" points="512.5,-401.19 516,-411.19 519.5,-401.19 512.5,-401.19"/>
</g>
<!-- Node10&#45;&gt;Node1 -->
<g id="edge11" class="edge">
<title>Node10&#45;&gt;Node1</title>
<path fill="none" stroke="#404040" d="M642.09,-280.32C643.25,-243.93 639.23,-194.99 615,-160 591.02,-125.37 551.55,-101.5 514.52,-85.57"/>
<polygon fill="none" stroke="#404040" points="514.23,-85.45 507.15,-86.86 503.13,-80.88 510.2,-79.47 514.23,-85.45"/>
<text text-anchor="middle" x="674" y="-208.5" font-family="Helvetica,sans-Serif" font-size="10.00"> +placement</text>
</g>
</g>
</svg>
