<?xml version="1.0" encoding="UTF-8" standalone="no"?>
<!DOCTYPE svg PUBLIC "-//W3C//DTD SVG 1.1//EN"
 "http://www.w3.org/Graphics/SVG/1.1/DTD/svg11.dtd">
<!-- Generated by graphviz version 2.43.0 (0)
 -->
<!-- Title: tvm::TypeNode Pages: 1 -->
<svg width="2166pt" height="386pt"
 viewBox="0.00 0.00 2166.00 386.00" xmlns="http://www.w3.org/2000/svg" xmlns:xlink="http://www.w3.org/1999/xlink">
<g id="graph0" class="graph" transform="scale(1 1) rotate(0) translate(4 382)">
<title>tvm::TypeNode</title>
<polygon fill="white" stroke="transparent" points="-4,4 -4,-382 2162,-382 2162,4 -4,4"/>
<!-- Node1 -->
<g id="node1" class="node">
<title>Node1</title>
<g id="a_node1"><a xlink:title="Type is the base type of all types.">
<polygon fill="#bfbfbf" stroke="black" points="990,-182.5 990,-283.5 1152,-283.5 1152,-182.5 990,-182.5"/>
<text text-anchor="middle" x="1071" y="-271.5" font-family="Helvetica,sans-Serif" font-size="10.00">tvm::TypeNode</text>
<polyline fill="none" stroke="black" points="990,-264.5 1152,-264.5 "/>
<text text-anchor="start" x="998" y="-252.5" font-family="Helvetica,sans-Serif" font-size="10.00">+ span</text>
<text text-anchor="start" x="998" y="-241.5" font-family="Helvetica,sans-Serif" font-size="10.00">+ _type_s_eq_hash_kind</text>
<text text-anchor="start" x="998" y="-230.5" font-family="Helvetica,sans-Serif" font-size="10.00">+ _type_child_slots</text>
<polyline fill="none" stroke="black" points="990,-223.5 1152,-223.5 "/>
<text text-anchor="start" x="998" y="-211.5" font-family="Helvetica,sans-Serif" font-size="10.00">+ TVM_FFI_DECLARE_OBJECT</text>
<text text-anchor="start" x="998" y="-200.5" font-family="Helvetica,sans-Serif" font-size="10.00">_INFO()</text>
<text text-anchor="start" x="998" y="-189.5" font-family="Helvetica,sans-Serif" font-size="10.00">+ RegisterReflection()</text>
</a>
</g>
</g>
<!-- Node3 -->
<g id="node3" class="node">
<title>Node3</title>
<g id="a_node3"><a xlink:href="classtvm_1_1FuncTypeNode.html" target="_top" xlink:title="Function type.">
<polygon fill="white" stroke="black" points="0,-28 0,-118 162,-118 162,-28 0,-28"/>
<text text-anchor="middle" x="81" y="-106" font-family="Helvetica,sans-Serif" font-size="10.00">tvm::FuncTypeNode</text>
<polyline fill="none" stroke="black" points="0,-99 162,-99 "/>
<text text-anchor="start" x="8" y="-87" font-family="Helvetica,sans-Serif" font-size="10.00">+ arg_types</text>
<text text-anchor="start" x="8" y="-76" font-family="Helvetica,sans-Serif" font-size="10.00">+ ret_type</text>
<polyline fill="none" stroke="black" points="0,-69 162,-69 "/>
<text text-anchor="start" x="8" y="-57" font-family="Helvetica,sans-Serif" font-size="10.00">+ TVM_FFI_DECLARE_OBJECT</text>
<text text-anchor="start" x="8" y="-46" font-family="Helvetica,sans-Serif" font-size="10.00">_INFO_FINAL()</text>
<text text-anchor="start" x="8" y="-35" font-family="Helvetica,sans-Serif" font-size="10.00">+ RegisterReflection()</text>
</a>
</g>
</g>
<!-- Node1&#45;&gt;Node3 -->
<g id="edge2" class="edge">
<title>Node1&#45;&gt;Node3</title>
<path fill="none" stroke="midnightblue" d="M979.76,-229.87C781.2,-224.17 316.04,-204.77 171,-146 154.87,-139.46 139.3,-129.05 125.79,-118.16"/>
<polygon fill="none" stroke="midnightblue" points="979.78,-233.37 989.88,-230.15 979.98,-226.37 979.78,-233.37"/>
</g>
<!-- Node4 -->
<g id="node4" class="node">
<title>Node4</title>
<g id="a_node4"><a xlink:href="classtvm_1_1PointerTypeNode.html" target="_top" xlink:title="Low&#45;level raw pointer type.">
<polygon fill="white" stroke="black" points="180,-28 180,-118 342,-118 342,-28 180,-28"/>
<text text-anchor="middle" x="261" y="-106" font-family="Helvetica,sans-Serif" font-size="10.00">tvm::PointerTypeNode</text>
<polyline fill="none" stroke="black" points="180,-99 342,-99 "/>
<text text-anchor="start" x="188" y="-87" font-family="Helvetica,sans-Serif" font-size="10.00">+ element_type</text>
<text text-anchor="start" x="188" y="-76" font-family="Helvetica,sans-Serif" font-size="10.00">+ storage_scope</text>
<polyline fill="none" stroke="black" points="180,-69 342,-69 "/>
<text text-anchor="start" x="188" y="-57" font-family="Helvetica,sans-Serif" font-size="10.00">+ TVM_FFI_DECLARE_OBJECT</text>
<text text-anchor="start" x="188" y="-46" font-family="Helvetica,sans-Serif" font-size="10.00">_INFO_FINAL()</text>
<text text-anchor="start" x="188" y="-35" font-family="Helvetica,sans-Serif" font-size="10.00">+ RegisterReflection()</text>
</a>
</g>
</g>
<!-- Node1&#45;&gt;Node4 -->
<g id="edge3" class="edge">
<title>Node1&#45;&gt;Node4</title>
<path fill="none" stroke="midnightblue" d="M979.92,-227.35C812.45,-217.78 462.58,-192.76 351,-146 335.13,-139.35 319.76,-129.04 306.36,-118.28"/>
<polygon fill="none" stroke="midnightblue" points="979.77,-230.85 989.95,-227.92 980.16,-223.86 979.77,-230.85"/>
</g>
<!-- Node5 -->
<g id="node5" class="node">
<title>Node5</title>
<g id="a_node5"><a xlink:href="classtvm_1_1PrimTypeNode.html" target="_top" xlink:title="Primitive data types used in the low&#45;level IR.">
<polygon fill="white" stroke="black" points="360,-33.5 360,-112.5 522,-112.5 522,-33.5 360,-33.5"/>
<text text-anchor="middle" x="441" y="-100.5" font-family="Helvetica,sans-Serif" font-size="10.00">tvm::PrimTypeNode</text>
<polyline fill="none" stroke="black" points="360,-93.5 522,-93.5 "/>
<text text-anchor="start" x="368" y="-81.5" font-family="Helvetica,sans-Serif" font-size="10.00">+ dtype</text>
<polyline fill="none" stroke="black" points="360,-74.5 522,-74.5 "/>
<text text-anchor="start" x="368" y="-62.5" font-family="Helvetica,sans-Serif" font-size="10.00">+ TVM_FFI_DECLARE_OBJECT</text>
<text text-anchor="start" x="368" y="-51.5" font-family="Helvetica,sans-Serif" font-size="10.00">_INFO_FINAL()</text>
<text text-anchor="start" x="368" y="-40.5" font-family="Helvetica,sans-Serif" font-size="10.00">+ RegisterReflection()</text>
</a>
</g>
</g>
<!-- Node1&#45;&gt;Node5 -->
<g id="edge4" class="edge">
<title>Node1&#45;&gt;Node5</title>
<path fill="none" stroke="midnightblue" d="M979.46,-231.51C868.71,-227.81 678.76,-211.34 531,-146 512.7,-137.91 494.96,-125.15 480.14,-112.61"/>
<polygon fill="none" stroke="midnightblue" points="979.49,-235.02 989.59,-231.82 979.71,-228.02 979.49,-235.02"/>
</g>
<!-- Node6 -->
<g id="node6" class="node">
<title>Node6</title>
<g id="a_node6"><a xlink:href="classtvm_1_1TensorMapTypeNode.html" target="_top" xlink:title="The type of tensor map.">
<polygon fill="white" stroke="black" points="540,-33.5 540,-112.5 702,-112.5 702,-33.5 540,-33.5"/>
<text text-anchor="middle" x="621" y="-100.5" font-family="Helvetica,sans-Serif" font-size="10.00">tvm::TensorMapTypeNode</text>
<polyline fill="none" stroke="black" points="540,-93.5 702,-93.5 "/>
<text text-anchor="middle" x="621" y="-81.5" font-family="Helvetica,sans-Serif" font-size="10.00"> </text>
<polyline fill="none" stroke="black" points="540,-74.5 702,-74.5 "/>
<text text-anchor="start" x="548" y="-62.5" font-family="Helvetica,sans-Serif" font-size="10.00">+ TVM_FFI_DECLARE_OBJECT</text>
<text text-anchor="start" x="548" y="-51.5" font-family="Helvetica,sans-Serif" font-size="10.00">_INFO_FINAL()</text>
<text text-anchor="start" x="548" y="-40.5" font-family="Helvetica,sans-Serif" font-size="10.00">+ RegisterReflection()</text>
</a>
</g>
</g>
<!-- Node1&#45;&gt;Node6 -->
<g id="edge5" class="edge">
<title>Node1&#45;&gt;Node6</title>
<path fill="none" stroke="midnightblue" d="M980.07,-221.53C904.94,-210.3 797.05,-188.06 711,-146 693.38,-137.39 676.06,-124.82 661.4,-112.58"/>
<polygon fill="none" stroke="midnightblue" points="979.58,-225 989.99,-222.98 980.6,-218.07 979.58,-225"/>
</g>
<!-- Node7 -->
<g id="node7" class="node">
<title>Node7</title>
<g id="a_node7"><a xlink:href="classtvm_1_1TupleTypeNode.html" target="_top" xlink:title="The type of tuple values.">
<polygon fill="white" stroke="black" points="720,-28 720,-118 882,-118 882,-28 720,-28"/>
<text text-anchor="middle" x="801" y="-106" font-family="Helvetica,sans-Serif" font-size="10.00">tvm::TupleTypeNode</text>
<polyline fill="none" stroke="black" points="720,-99 882,-99 "/>
<text text-anchor="start" x="728" y="-87" font-family="Helvetica,sans-Serif" font-size="10.00">+ fields</text>
<polyline fill="none" stroke="black" points="720,-80 882,-80 "/>
<text text-anchor="start" x="728" y="-68" font-family="Helvetica,sans-Serif" font-size="10.00">+ TupleTypeNode()</text>
<text text-anchor="start" x="728" y="-57" font-family="Helvetica,sans-Serif" font-size="10.00">+ TVM_FFI_DECLARE_OBJECT</text>
<text text-anchor="start" x="728" y="-46" font-family="Helvetica,sans-Serif" font-size="10.00">_INFO_FINAL()</text>
<text text-anchor="start" x="728" y="-35" font-family="Helvetica,sans-Serif" font-size="10.00">+ RegisterReflection()</text>
</a>
</g>
</g>
<!-- Node1&#45;&gt;Node7 -->
<g id="edge6" class="edge">
<title>Node1&#45;&gt;Node7</title>
<path fill="none" stroke="midnightblue" d="M980.22,-193.57C950.98,-179.9 918.93,-163.52 891,-146 877.95,-137.81 864.61,-128.04 852.33,-118.37"/>
<polygon fill="none" stroke="midnightblue" points="979.06,-196.89 989.61,-197.91 982,-190.54 979.06,-196.89"/>
</g>
<!-- Node8 -->
<g id="node8" class="node">
<title>Node8</title>
<g id="a_node8"><a xlink:href="classtvm_1_1relax_1_1FuncTypeNode.html" target="_top" xlink:title="Function type information.">
<polygon fill="white" stroke="black" points="900,-11.5 900,-134.5 1062,-134.5 1062,-11.5 900,-11.5"/>
<text text-anchor="middle" x="981" y="-122.5" font-family="Helvetica,sans-Serif" font-size="10.00">tvm::relax::FuncTypeNode</text>
<polyline fill="none" stroke="black" points="900,-115.5 1062,-115.5 "/>
<text text-anchor="start" x="908" y="-103.5" font-family="Helvetica,sans-Serif" font-size="10.00">+ params</text>
<text text-anchor="start" x="908" y="-92.5" font-family="Helvetica,sans-Serif" font-size="10.00">+ ret</text>
<text text-anchor="start" x="908" y="-81.5" font-family="Helvetica,sans-Serif" font-size="10.00">+ derive_func</text>
<text text-anchor="start" x="908" y="-70.5" font-family="Helvetica,sans-Serif" font-size="10.00">+ purity</text>
<polyline fill="none" stroke="black" points="900,-63.5 1062,-63.5 "/>
<text text-anchor="start" x="908" y="-51.5" font-family="Helvetica,sans-Serif" font-size="10.00">+ IsOpaque()</text>
<text text-anchor="start" x="908" y="-40.5" font-family="Helvetica,sans-Serif" font-size="10.00">+ TVM_FFI_DECLARE_OBJECT</text>
<text text-anchor="start" x="908" y="-29.5" font-family="Helvetica,sans-Serif" font-size="10.00">_INFO_FINAL()</text>
<text text-anchor="start" x="908" y="-18.5" font-family="Helvetica,sans-Serif" font-size="10.00">+ RegisterReflection()</text>
</a>
</g>
</g>
<!-- Node1&#45;&gt;Node8 -->
<g id="edge7" class="edge">
<title>Node1&#45;&gt;Node8</title>
<path fill="none" stroke="midnightblue" d="M1037.63,-173.41C1030.45,-160.81 1022.84,-147.46 1015.62,-134.77"/>
<polygon fill="none" stroke="midnightblue" points="1034.78,-175.48 1042.77,-182.44 1040.86,-172.02 1034.78,-175.48"/>
</g>
<!-- Node9 -->
<g id="node9" class="node">
<title>Node9</title>
<g id="a_node9"><a xlink:href="classtvm_1_1relax_1_1ObjectTypeNode.html" target="_top" xlink:title="Base type of all Relax type information.">
<polygon fill="white" stroke="black" points="1080,-33.5 1080,-112.5 1242,-112.5 1242,-33.5 1080,-33.5"/>
<text text-anchor="middle" x="1161" y="-100.5" font-family="Helvetica,sans-Serif" font-size="10.00">tvm::relax::ObjectTypeNode</text>
<polyline fill="none" stroke="black" points="1080,-93.5 1242,-93.5 "/>
<text text-anchor="middle" x="1161" y="-81.5" font-family="Helvetica,sans-Serif" font-size="10.00"> </text>
<polyline fill="none" stroke="black" points="1080,-74.5 1242,-74.5 "/>
<text text-anchor="start" x="1088" y="-62.5" font-family="Helvetica,sans-Serif" font-size="10.00">+ TVM_FFI_DECLARE_OBJECT</text>
<text text-anchor="start" x="1088" y="-51.5" font-family="Helvetica,sans-Serif" font-size="10.00">_INFO_FINAL()</text>
<text text-anchor="start" x="1088" y="-40.5" font-family="Helvetica,sans-Serif" font-size="10.00">+ RegisterReflection()</text>
</a>
</g>
</g>
<!-- Node1&#45;&gt;Node9 -->
<g id="edge8" class="edge">
<title>Node1&#45;&gt;Node9</title>
<path fill="none" stroke="midnightblue" d="M1104.29,-173.56C1115.87,-153.22 1128.57,-130.93 1139.01,-112.61"/>
<polygon fill="none" stroke="midnightblue" points="1101.14,-172.02 1099.23,-182.44 1107.22,-175.48 1101.14,-172.02"/>
</g>
<!-- Node10 -->
<g id="node10" class="node">
<title>Node10</title>
<g id="a_node10"><a xlink:href="classtvm_1_1relax_1_1PackedFuncTypeNode.html" target="_top" xlink:title=" ">
<polygon fill="white" stroke="black" points="1260.5,-33.5 1260.5,-112.5 1437.5,-112.5 1437.5,-33.5 1260.5,-33.5"/>
<text text-anchor="middle" x="1349" y="-100.5" font-family="Helvetica,sans-Serif" font-size="10.00">tvm::relax::PackedFuncTypeNode</text>
<polyline fill="none" stroke="black" points="1260.5,-93.5 1437.5,-93.5 "/>
<text text-anchor="middle" x="1349" y="-81.5" font-family="Helvetica,sans-Serif" font-size="10.00"> </text>
<polyline fill="none" stroke="black" points="1260.5,-74.5 1437.5,-74.5 "/>
<text text-anchor="start" x="1268.5" y="-62.5" font-family="Helvetica,sans-Serif" font-size="10.00">+ TVM_FFI_DECLARE_OBJECT</text>
<text text-anchor="start" x="1268.5" y="-51.5" font-family="Helvetica,sans-Serif" font-size="10.00">_INFO_FINAL()</text>
<text text-anchor="start" x="1268.5" y="-40.5" font-family="Helvetica,sans-Serif" font-size="10.00">+ RegisterReflection()</text>
</a>
</g>
</g>
<!-- Node1&#45;&gt;Node10 -->
<g id="edge9" class="edge">
<title>Node1&#45;&gt;Node10</title>
<path fill="none" stroke="midnightblue" d="M1161.78,-192.69C1190.88,-179.02 1222.85,-162.86 1251,-146 1267.57,-136.07 1284.82,-124.04 1300.14,-112.68"/>
<polygon fill="none" stroke="midnightblue" points="1160.02,-189.65 1152.44,-197.04 1162.98,-195.99 1160.02,-189.65"/>
</g>
<!-- Node11 -->
<g id="node11" class="node">
<title>Node11</title>
<g id="a_node11"><a xlink:href="classtvm_1_1relax_1_1PrimTypeNode.html" target="_top" xlink:title="Primitive value.">
<polygon fill="white" stroke="black" points="1456,-28 1456,-118 1618,-118 1618,-28 1456,-28"/>
<text text-anchor="middle" x="1537" y="-106" font-family="Helvetica,sans-Serif" font-size="10.00">tvm::relax::PrimTypeNode</text>
<polyline fill="none" stroke="black" points="1456,-99 1618,-99 "/>
<text text-anchor="start" x="1464" y="-87" font-family="Helvetica,sans-Serif" font-size="10.00">+ value</text>
<text text-anchor="start" x="1464" y="-76" font-family="Helvetica,sans-Serif" font-size="10.00">+ dtype</text>
<polyline fill="none" stroke="black" points="1456,-69 1618,-69 "/>
<text text-anchor="start" x="1464" y="-57" font-family="Helvetica,sans-Serif" font-size="10.00">+ TVM_FFI_DECLARE_OBJECT</text>
<text text-anchor="start" x="1464" y="-46" font-family="Helvetica,sans-Serif" font-size="10.00">_INFO_FINAL()</text>
<text text-anchor="start" x="1464" y="-35" font-family="Helvetica,sans-Serif" font-size="10.00">+ RegisterReflection()</text>
</a>
</g>
</g>
<!-- Node1&#45;&gt;Node11 -->
<g id="edge10" class="edge">
<title>Node1&#45;&gt;Node11</title>
<path fill="none" stroke="midnightblue" d="M1162.59,-222.7C1241.17,-212.05 1355.82,-190.02 1447,-146 1461.96,-138.78 1476.67,-128.67 1489.74,-118.31"/>
<polygon fill="none" stroke="midnightblue" points="1161.68,-219.29 1152.23,-224.06 1162.6,-226.23 1161.68,-219.29"/>
</g>
<!-- Node12 -->
<g id="node12" class="node">
<title>Node12</title>
<g id="a_node12"><a xlink:href="classtvm_1_1relax_1_1ShapeTypeNode.html" target="_top" xlink:title="Type of shape value.">
<polygon fill="white" stroke="black" points="1636,-22.5 1636,-123.5 1798,-123.5 1798,-22.5 1636,-22.5"/>
<text text-anchor="middle" x="1717" y="-111.5" font-family="Helvetica,sans-Serif" font-size="10.00">tvm::relax::ShapeTypeNode</text>
<polyline fill="none" stroke="black" points="1636,-104.5 1798,-104.5 "/>
<text text-anchor="start" x="1644" y="-92.5" font-family="Helvetica,sans-Serif" font-size="10.00">+ values</text>
<text text-anchor="start" x="1644" y="-81.5" font-family="Helvetica,sans-Serif" font-size="10.00">+ ndim</text>
<polyline fill="none" stroke="black" points="1636,-74.5 1798,-74.5 "/>
<text text-anchor="start" x="1644" y="-62.5" font-family="Helvetica,sans-Serif" font-size="10.00">+ IsUnknownNdim()</text>
<text text-anchor="start" x="1644" y="-51.5" font-family="Helvetica,sans-Serif" font-size="10.00">+ TVM_FFI_DECLARE_OBJECT</text>
<text text-anchor="start" x="1644" y="-40.5" font-family="Helvetica,sans-Serif" font-size="10.00">_INFO_FINAL()</text>
<text text-anchor="start" x="1644" y="-29.5" font-family="Helvetica,sans-Serif" font-size="10.00">+ RegisterReflection()</text>
</a>
</g>
</g>
<!-- Node1&#45;&gt;Node12 -->
<g id="edge11" class="edge">
<title>Node1&#45;&gt;Node12</title>
<path fill="none" stroke="midnightblue" d="M1162.47,-232.11C1276.07,-229.11 1473.58,-213.43 1627,-146 1640.01,-140.28 1652.72,-132.2 1664.3,-123.5"/>
<polygon fill="none" stroke="midnightblue" points="1162.34,-228.61 1152.42,-232.35 1162.5,-235.61 1162.34,-228.61"/>
</g>
<!-- Node13 -->
<g id="node13" class="node">
<title>Node13</title>
<g id="a_node13"><a xlink:href="classtvm_1_1relax_1_1TensorTypeNode.html" target="_top" xlink:title="Type of Tensor.">
<polygon fill="white" stroke="black" points="1816,-0.5 1816,-145.5 1978,-145.5 1978,-0.5 1816,-0.5"/>
<text text-anchor="middle" x="1897" y="-133.5" font-family="Helvetica,sans-Serif" font-size="10.00">tvm::relax::TensorTypeNode</text>
<polyline fill="none" stroke="black" points="1816,-126.5 1978,-126.5 "/>
<text text-anchor="start" x="1824" y="-114.5" font-family="Helvetica,sans-Serif" font-size="10.00">+ shape</text>
<text text-anchor="start" x="1824" y="-103.5" font-family="Helvetica,sans-Serif" font-size="10.00">+ vdevice</text>
<text text-anchor="start" x="1824" y="-92.5" font-family="Helvetica,sans-Serif" font-size="10.00">+ dtype</text>
<text text-anchor="start" x="1824" y="-81.5" font-family="Helvetica,sans-Serif" font-size="10.00">+ ndim</text>
<polyline fill="none" stroke="black" points="1816,-74.5 1978,-74.5 "/>
<text text-anchor="start" x="1824" y="-62.5" font-family="Helvetica,sans-Serif" font-size="10.00">+ IsUnknownNdim()</text>
<text text-anchor="start" x="1824" y="-51.5" font-family="Helvetica,sans-Serif" font-size="10.00">+ IsUnknownDtype()</text>
<text text-anchor="start" x="1824" y="-40.5" font-family="Helvetica,sans-Serif" font-size="10.00">+ GetShape()</text>
<text text-anchor="start" x="1824" y="-29.5" font-family="Helvetica,sans-Serif" font-size="10.00">+ TVM_FFI_DECLARE_OBJECT</text>
<text text-anchor="start" x="1824" y="-18.5" font-family="Helvetica,sans-Serif" font-size="10.00">_INFO_FINAL()</text>
<text text-anchor="start" x="1824" y="-7.5" font-family="Helvetica,sans-Serif" font-size="10.00">+ RegisterReflection()</text>
</a>
</g>
</g>
<!-- Node1&#45;&gt;Node13 -->
<g id="edge12" class="edge">
<title>Node1&#45;&gt;Node13</title>
<path fill="none" stroke="midnightblue" d="M1162.47,-227.6C1333,-218.37 1692.55,-193.79 1807,-146 1809.95,-144.77 1812.89,-143.41 1815.8,-141.94"/>
<polygon fill="none" stroke="midnightblue" points="1162.06,-224.12 1152.26,-228.15 1162.43,-231.11 1162.06,-224.12"/>
</g>
<!-- Node14 -->
<g id="node14" class="node">
<title>Node14</title>
<g id="a_node14"><a xlink:href="classtvm_1_1relax_1_1distributed_1_1DTensorTypeNode.html" target="_top" xlink:title="Type of DTensor (Distributed Tensor).">
<polygon fill="white" stroke="black" points="1996,-6 1996,-140 2158,-140 2158,-6 1996,-6"/>
<text text-anchor="start" x="2004" y="-128" font-family="Helvetica,sans-Serif" font-size="10.00">tvm::relax::distributed</text>
<text text-anchor="middle" x="2077" y="-117" font-family="Helvetica,sans-Serif" font-size="10.00">::DTensorTypeNode</text>
<polyline fill="none" stroke="black" points="1996,-110 2158,-110 "/>
<text text-anchor="start" x="2004" y="-98" font-family="Helvetica,sans-Serif" font-size="10.00">+ tensor_ty</text>
<text text-anchor="start" x="2004" y="-87" font-family="Helvetica,sans-Serif" font-size="10.00">+ device_mesh</text>
<text text-anchor="start" x="2004" y="-76" font-family="Helvetica,sans-Serif" font-size="10.00">+ placement</text>
<polyline fill="none" stroke="black" points="1996,-69 2158,-69 "/>
<text text-anchor="start" x="2004" y="-57" font-family="Helvetica,sans-Serif" font-size="10.00">+ DTensorTypeNode()</text>
<text text-anchor="start" x="2004" y="-46" font-family="Helvetica,sans-Serif" font-size="10.00">+ DTensorTypeNode()</text>
<text text-anchor="start" x="2004" y="-35" font-family="Helvetica,sans-Serif" font-size="10.00">+ TVM_FFI_DECLARE_OBJECT</text>
<text text-anchor="start" x="2004" y="-24" font-family="Helvetica,sans-Serif" font-size="10.00">_INFO_FINAL()</text>
<text text-anchor="start" x="2004" y="-13" font-family="Helvetica,sans-Serif" font-size="10.00">+ RegisterReflection()</text>
</a>
</g>
</g>
<!-- Node1&#45;&gt;Node14 -->
<g id="edge13" class="edge">
<title>Node1&#45;&gt;Node14</title>
<path fill="none" stroke="midnightblue" d="M1162.37,-230.04C1363.61,-224.66 1838.99,-205.83 1987,-146 1991.27,-144.28 1995.49,-142.28 1999.65,-140.07"/>
<polygon fill="none" stroke="midnightblue" points="1162.02,-226.55 1152.12,-230.31 1162.21,-233.55 1162.02,-226.55"/>
</g>
<!-- Node2 -->
<g id="node2" class="node">
<title>Node2</title>
<g id="a_node2"><a xlink:title=" ">
<polygon fill="white" stroke="#bfbfbf" points="1039,-320.5 1039,-377.5 1103,-377.5 1103,-320.5 1039,-320.5"/>
<text text-anchor="middle" x="1071" y="-365.5" font-family="Helvetica,sans-Serif" font-size="10.00">ffi::Object</text>
<polyline fill="none" stroke="#bfbfbf" points="1039,-358.5 1103,-358.5 "/>
<text text-anchor="middle" x="1071" y="-346.5" font-family="Helvetica,sans-Serif" font-size="10.00"> </text>
<polyline fill="none" stroke="#bfbfbf" points="1039,-339.5 1103,-339.5 "/>
<text text-anchor="middle" x="1071" y="-327.5" font-family="Helvetica,sans-Serif" font-size="10.00"> </text>
</a>
</g>
</g>
<!-- Node2&#45;&gt;Node1 -->
<g id="edge1" class="edge">
<title>Node2&#45;&gt;Node1</title>
<path fill="none" stroke="midnightblue" d="M1071,-310.35C1071,-301.8 1071,-292.58 1071,-283.61"/>
<polygon fill="none" stroke="midnightblue" points="1067.5,-310.4 1071,-320.4 1074.5,-310.4 1067.5,-310.4"/>
</g>
</g>
</svg>
