<?xml version="1.0" encoding="UTF-8" standalone="no"?>
<!DOCTYPE svg PUBLIC "-//W3C//DTD SVG 1.1//EN"
 "http://www.w3.org/Graphics/SVG/1.1/DTD/svg11.dtd">
<!-- Generated by graphviz version 2.43.0 (0)
 -->
<!-- Title: tvm::arith::AnalyzerObj Pages: 1 -->
<svg width="1303pt" height="435pt"
 viewBox="0.00 0.00 1302.50 435.00" xmlns="http://www.w3.org/2000/svg" xmlns:xlink="http://www.w3.org/1999/xlink">
<g id="graph0" class="graph" transform="scale(1 1) rotate(0) translate(4 431)">
<title>tvm::arith::AnalyzerObj</title>
<polygon fill="white" stroke="transparent" points="-4,4 -4,-431 1298.5,-431 1298.5,4 -4,4"/>
<!-- Node1 -->
<g id="node1" class="node">
<title>Node1</title>
<g id="a_node1"><a xlink:title="Analyzer that contains bunch of sub&#45;analyzers.">
<polygon fill="#bfbfbf" stroke="black" points="508,-0.5 508,-211.5 700,-211.5 700,-0.5 508,-0.5"/>
<text text-anchor="middle" x="604" y="-199.5" font-family="Helvetica,sans-Serif" font-size="10.00">tvm::arith::AnalyzerObj</text>
<polyline fill="none" stroke="black" points="508,-192.5 700,-192.5 "/>
<text text-anchor="start" x="516" y="-180.5" font-family="Helvetica,sans-Serif" font-size="10.00">+ _type_mutable</text>
<polyline fill="none" stroke="black" points="508,-173.5 700,-173.5 "/>
<text text-anchor="start" x="516" y="-161.5" font-family="Helvetica,sans-Serif" font-size="10.00">+ AnalyzerObj()</text>
<text text-anchor="start" x="516" y="-150.5" font-family="Helvetica,sans-Serif" font-size="10.00">+ MarkGlobalNonNegValue()</text>
<text text-anchor="start" x="516" y="-139.5" font-family="Helvetica,sans-Serif" font-size="10.00">+ Bind()</text>
<text text-anchor="start" x="516" y="-128.5" font-family="Helvetica,sans-Serif" font-size="10.00">+ Bind()</text>
<text text-anchor="start" x="516" y="-117.5" font-family="Helvetica,sans-Serif" font-size="10.00">+ Bind()</text>
<text text-anchor="start" x="516" y="-106.5" font-family="Helvetica,sans-Serif" font-size="10.00">+ CanProveGreaterEqual()</text>
<text text-anchor="start" x="516" y="-95.5" font-family="Helvetica,sans-Serif" font-size="10.00">+ CanProveLess()</text>
<text text-anchor="start" x="516" y="-84.5" font-family="Helvetica,sans-Serif" font-size="10.00">+ CanProveEqual()</text>
<text text-anchor="start" x="516" y="-73.5" font-family="Helvetica,sans-Serif" font-size="10.00">+ CanProveLessEqualThanSymbolic</text>
<text text-anchor="start" x="516" y="-62.5" font-family="Helvetica,sans-Serif" font-size="10.00">ShapeValue()</text>
<text text-anchor="start" x="516" y="-51.5" font-family="Helvetica,sans-Serif" font-size="10.00">+ CanProve()</text>
<text text-anchor="start" x="516" y="-40.5" font-family="Helvetica,sans-Serif" font-size="10.00">+ Simplify()</text>
<text text-anchor="start" x="516" y="-29.5" font-family="Helvetica,sans-Serif" font-size="10.00">+ Clone()</text>
<text text-anchor="start" x="516" y="-18.5" font-family="Helvetica,sans-Serif" font-size="10.00">+ TVM_FFI_DECLARE_OBJECT</text>
<text text-anchor="start" x="516" y="-7.5" font-family="Helvetica,sans-Serif" font-size="10.00">_INFO_FINAL()</text>
</a>
</g>
</g>
<!-- Node2 -->
<g id="node2" class="node">
<title>Node2</title>
<g id="a_node2"><a xlink:title=" ">
<polygon fill="white" stroke="#bfbfbf" points="0,-314.5 0,-371.5 64,-371.5 64,-314.5 0,-314.5"/>
<text text-anchor="middle" x="32" y="-359.5" font-family="Helvetica,sans-Serif" font-size="10.00">ffi::Object</text>
<polyline fill="none" stroke="#bfbfbf" points="0,-352.5 64,-352.5 "/>
<text text-anchor="middle" x="32" y="-340.5" font-family="Helvetica,sans-Serif" font-size="10.00"> </text>
<polyline fill="none" stroke="#bfbfbf" points="0,-333.5 64,-333.5 "/>
<text text-anchor="middle" x="32" y="-321.5" font-family="Helvetica,sans-Serif" font-size="10.00"> </text>
</a>
</g>
</g>
<!-- Node2&#45;&gt;Node1 -->
<g id="edge1" class="edge">
<title>Node2&#45;&gt;Node1</title>
<path fill="none" stroke="midnightblue" d="M42.82,-304.67C49.22,-288.57 58.9,-270.77 73,-259 198.53,-154.25 392.39,-121.61 507.88,-111.49"/>
<polygon fill="none" stroke="midnightblue" points="39.4,-303.82 39.25,-314.41 45.98,-306.23 39.4,-303.82"/>
</g>
<!-- Node3 -->
<g id="node3" class="node">
<title>Node3</title>
<g id="a_node3"><a xlink:href="classtvm_1_1arith_1_1Z3Prover.html" target="_top" xlink:title=" ">
<polygon fill="white" stroke="black" points="82,-259.5 82,-426.5 226,-426.5 226,-259.5 82,-259.5"/>
<text text-anchor="middle" x="154" y="-414.5" font-family="Helvetica,sans-Serif" font-size="10.00">tvm::arith::Z3Prover</text>
<polyline fill="none" stroke="black" points="82,-407.5 226,-407.5 "/>
<text text-anchor="middle" x="154" y="-395.5" font-family="Helvetica,sans-Serif" font-size="10.00"> </text>
<polyline fill="none" stroke="black" points="82,-388.5 226,-388.5 "/>
<text text-anchor="start" x="90" y="-376.5" font-family="Helvetica,sans-Serif" font-size="10.00">+ Bind()</text>
<text text-anchor="start" x="90" y="-365.5" font-family="Helvetica,sans-Serif" font-size="10.00">+ Bind()</text>
<text text-anchor="start" x="90" y="-354.5" font-family="Helvetica,sans-Serif" font-size="10.00">+ IsEnabled()</text>
<text text-anchor="start" x="90" y="-343.5" font-family="Helvetica,sans-Serif" font-size="10.00">+ CanProve()</text>
<text text-anchor="start" x="90" y="-332.5" font-family="Helvetica,sans-Serif" font-size="10.00">+ EnterConstraint()</text>
<text text-anchor="start" x="90" y="-321.5" font-family="Helvetica,sans-Serif" font-size="10.00">+ GetSMTLIB2()</text>
<text text-anchor="start" x="90" y="-310.5" font-family="Helvetica,sans-Serif" font-size="10.00">+ GetStats()</text>
<text text-anchor="start" x="90" y="-299.5" font-family="Helvetica,sans-Serif" font-size="10.00">+ SetTimeoutMs()</text>
<text text-anchor="start" x="90" y="-288.5" font-family="Helvetica,sans-Serif" font-size="10.00">+ SetRLimit()</text>
<text text-anchor="start" x="90" y="-277.5" font-family="Helvetica,sans-Serif" font-size="10.00">+ GetModel()</text>
<text text-anchor="start" x="90" y="-266.5" font-family="Helvetica,sans-Serif" font-size="10.00">+ CountSatisfyingValues()</text>
</a>
</g>
</g>
<!-- Node3&#45;&gt;Node1 -->
<g id="edge2" class="edge">
<title>Node3&#45;&gt;Node1</title>
<path fill="none" stroke="#404040" d="M226.07,-265.43C229.02,-263.18 232,-261.03 235,-259 315.82,-204.4 419.33,-163.88 496.15,-138.48"/>
<polygon fill="none" stroke="#404040" points="496.35,-138.41 500.81,-132.74 507.76,-134.68 503.3,-140.35 496.35,-138.41"/>
<text text-anchor="middle" x="312" y="-233" font-family="Helvetica,sans-Serif" font-size="10.00"> +z3_prover</text>
</g>
<!-- Node4 -->
<g id="node4" class="node">
<title>Node4</title>
<g id="a_node4"><a xlink:href="classtvm_1_1arith_1_1CanonicalSimplifier.html" target="_top" xlink:title="Canonical&#45;form based simplifier.">
<polygon fill="white" stroke="black" points="244.5,-309 244.5,-377 409.5,-377 409.5,-309 244.5,-309"/>
<text text-anchor="middle" x="327" y="-365" font-family="Helvetica,sans-Serif" font-size="10.00">tvm::arith::CanonicalSimplifier</text>
<polyline fill="none" stroke="black" points="244.5,-358 409.5,-358 "/>
<text text-anchor="middle" x="327" y="-346" font-family="Helvetica,sans-Serif" font-size="10.00"> </text>
<polyline fill="none" stroke="black" points="244.5,-339 409.5,-339 "/>
<text text-anchor="start" x="252.5" y="-327" font-family="Helvetica,sans-Serif" font-size="10.00">+ operator()()</text>
<text text-anchor="start" x="252.5" y="-316" font-family="Helvetica,sans-Serif" font-size="10.00">+ Update()</text>
</a>
</g>
</g>
<!-- Node4&#45;&gt;Node1 -->
<g id="edge3" class="edge">
<title>Node4&#45;&gt;Node1</title>
<path fill="none" stroke="#404040" d="M359.89,-308.66C382.86,-285.85 414.56,-255.28 444,-230 461.2,-215.23 479.94,-200.06 498.32,-185.65"/>
<polygon fill="none" stroke="#404040" points="498.43,-185.56 500.7,-178.72 507.9,-178.19 505.62,-185.03 498.43,-185.56"/>
<text text-anchor="middle" x="495.5" y="-233" font-family="Helvetica,sans-Serif" font-size="10.00"> +canonical_simplify</text>
</g>
<!-- Node5 -->
<g id="node5" class="node">
<title>Node5</title>
<g id="a_node5"><a xlink:href="classtvm_1_1arith_1_1RewriteSimplifier.html" target="_top" xlink:title="Rewrite&#45;rule based simplifier.">
<polygon fill="white" stroke="black" points="427.5,-276 427.5,-410 592.5,-410 592.5,-276 427.5,-276"/>
<text text-anchor="middle" x="510" y="-398" font-family="Helvetica,sans-Serif" font-size="10.00">tvm::arith::RewriteSimplifier</text>
<polyline fill="none" stroke="black" points="427.5,-391 592.5,-391 "/>
<text text-anchor="middle" x="510" y="-379" font-family="Helvetica,sans-Serif" font-size="10.00"> </text>
<polyline fill="none" stroke="black" points="427.5,-372 592.5,-372 "/>
<text text-anchor="start" x="435.5" y="-360" font-family="Helvetica,sans-Serif" font-size="10.00">+ operator()()</text>
<text text-anchor="start" x="435.5" y="-349" font-family="Helvetica,sans-Serif" font-size="10.00">+ Update()</text>
<text text-anchor="start" x="435.5" y="-338" font-family="Helvetica,sans-Serif" font-size="10.00">+ EnterConstraint()</text>
<text text-anchor="start" x="435.5" y="-327" font-family="Helvetica,sans-Serif" font-size="10.00">+ SetEnabledExtensions()</text>
<text text-anchor="start" x="435.5" y="-316" font-family="Helvetica,sans-Serif" font-size="10.00">+ GetEnabledExtensions()</text>
<text text-anchor="start" x="435.5" y="-305" font-family="Helvetica,sans-Serif" font-size="10.00">+ GetStatsCounters()</text>
<text text-anchor="start" x="435.5" y="-294" font-family="Helvetica,sans-Serif" font-size="10.00">+ ResetStatsCounters()</text>
<text text-anchor="start" x="435.5" y="-283" font-family="Helvetica,sans-Serif" font-size="10.00">+ SetMaximumRewriteSteps()</text>
</a>
</g>
</g>
<!-- Node5&#45;&gt;Node1 -->
<g id="edge4" class="edge">
<title>Node5&#45;&gt;Node1</title>
<path fill="none" stroke="#404040" d="M536.43,-275.91C543.04,-259.39 550.33,-241.17 557.6,-223"/>
<polygon fill="none" stroke="#404040" points="557.66,-222.85 556.17,-215.8 562.12,-211.71 563.6,-218.77 557.66,-222.85"/>
<text text-anchor="middle" x="599.5" y="-233" font-family="Helvetica,sans-Serif" font-size="10.00"> +rewrite_simplify</text>
</g>
<!-- Node6 -->
<g id="node6" class="node">
<title>Node6</title>
<g id="a_node6"><a xlink:href="classtvm_1_1arith_1_1TransitiveComparisonAnalyzer.html" target="_top" xlink:title="Using previously specified knowns, compare the expressions provided.">
<polygon fill="white" stroke="black" points="611,-292.5 611,-393.5 787,-393.5 787,-292.5 611,-292.5"/>
<text text-anchor="start" x="619" y="-381.5" font-family="Helvetica,sans-Serif" font-size="10.00">tvm::arith::TransitiveComparison</text>
<text text-anchor="middle" x="699" y="-370.5" font-family="Helvetica,sans-Serif" font-size="10.00">Analyzer</text>
<polyline fill="none" stroke="black" points="611,-363.5 787,-363.5 "/>
<text text-anchor="middle" x="699" y="-351.5" font-family="Helvetica,sans-Serif" font-size="10.00"> </text>
<polyline fill="none" stroke="black" points="611,-344.5 787,-344.5 "/>
<text text-anchor="start" x="619" y="-332.5" font-family="Helvetica,sans-Serif" font-size="10.00">+ TryCompare()</text>
<text text-anchor="start" x="619" y="-321.5" font-family="Helvetica,sans-Serif" font-size="10.00">+ Bind()</text>
<text text-anchor="start" x="619" y="-310.5" font-family="Helvetica,sans-Serif" font-size="10.00">+ Bind()</text>
<text text-anchor="start" x="619" y="-299.5" font-family="Helvetica,sans-Serif" font-size="10.00">+ EnterConstraint()</text>
</a>
</g>
</g>
<!-- Node6&#45;&gt;Node1 -->
<g id="edge5" class="edge">
<title>Node6&#45;&gt;Node1</title>
<path fill="none" stroke="#404040" d="M678.97,-292.45C670.71,-272.01 660.76,-247.4 650.85,-222.88"/>
<polygon fill="none" stroke="#404040" points="650.8,-222.76 644.84,-218.7 646.3,-211.64 652.26,-215.7 650.8,-222.76"/>
<text text-anchor="middle" x="720" y="-233" font-family="Helvetica,sans-Serif" font-size="10.00"> +transitive_comparisons</text>
</g>
<!-- Node7 -->
<g id="node7" class="node">
<title>Node7</title>
<g id="a_node7"><a xlink:href="classtvm_1_1arith_1_1ConstIntBoundAnalyzer.html" target="_top" xlink:title="Analyzer to get constant integer bound over expression.">
<polygon fill="white" stroke="black" points="805,-287 805,-399 947,-399 947,-287 805,-287"/>
<text text-anchor="start" x="813" y="-387" font-family="Helvetica,sans-Serif" font-size="10.00">tvm::arith::ConstIntBound</text>
<text text-anchor="middle" x="876" y="-376" font-family="Helvetica,sans-Serif" font-size="10.00">Analyzer</text>
<polyline fill="none" stroke="black" points="805,-369 947,-369 "/>
<text text-anchor="middle" x="876" y="-357" font-family="Helvetica,sans-Serif" font-size="10.00"> </text>
<polyline fill="none" stroke="black" points="805,-350 947,-350 "/>
<text text-anchor="start" x="813" y="-338" font-family="Helvetica,sans-Serif" font-size="10.00">+ operator()()</text>
<text text-anchor="start" x="813" y="-327" font-family="Helvetica,sans-Serif" font-size="10.00">+ operator()()</text>
<text text-anchor="start" x="813" y="-316" font-family="Helvetica,sans-Serif" font-size="10.00">+ Update()</text>
<text text-anchor="start" x="813" y="-305" font-family="Helvetica,sans-Serif" font-size="10.00">+ Bind()</text>
<text text-anchor="start" x="813" y="-294" font-family="Helvetica,sans-Serif" font-size="10.00">+ IsBound()</text>
</a>
</g>
</g>
<!-- Node7&#45;&gt;Node1 -->
<g id="edge6" class="edge">
<title>Node7&#45;&gt;Node1</title>
<path fill="none" stroke="#404040" d="M837.68,-286.97C823,-267.83 805.34,-246.93 787,-230 763.81,-208.59 736.57,-188.2 710.29,-170.41"/>
<polygon fill="none" stroke="#404040" points="710.26,-170.39 703.05,-170.38 700.28,-163.72 707.49,-163.73 710.26,-170.39"/>
<text text-anchor="middle" x="843.5" y="-233" font-family="Helvetica,sans-Serif" font-size="10.00"> +const_int_bound</text>
</g>
<!-- Node8 -->
<g id="node8" class="node">
<title>Node8</title>
<g id="a_node8"><a xlink:href="classtvm_1_1arith_1_1IntSetAnalyzer.html" target="_top" xlink:title="Integer set analyzer.">
<polygon fill="white" stroke="black" points="965,-292.5 965,-393.5 1107,-393.5 1107,-292.5 965,-292.5"/>
<text text-anchor="middle" x="1036" y="-381.5" font-family="Helvetica,sans-Serif" font-size="10.00">tvm::arith::IntSetAnalyzer</text>
<polyline fill="none" stroke="black" points="965,-374.5 1107,-374.5 "/>
<text text-anchor="middle" x="1036" y="-362.5" font-family="Helvetica,sans-Serif" font-size="10.00"> </text>
<polyline fill="none" stroke="black" points="965,-355.5 1107,-355.5 "/>
<text text-anchor="start" x="973" y="-343.5" font-family="Helvetica,sans-Serif" font-size="10.00">+ operator()()</text>
<text text-anchor="start" x="973" y="-332.5" font-family="Helvetica,sans-Serif" font-size="10.00">+ operator()()</text>
<text text-anchor="start" x="973" y="-321.5" font-family="Helvetica,sans-Serif" font-size="10.00">+ Update()</text>
<text text-anchor="start" x="973" y="-310.5" font-family="Helvetica,sans-Serif" font-size="10.00">+ Bind()</text>
<text text-anchor="start" x="973" y="-299.5" font-family="Helvetica,sans-Serif" font-size="10.00">+ EnterConstraint()</text>
</a>
</g>
</g>
<!-- Node8&#45;&gt;Node1 -->
<g id="edge7" class="edge">
<title>Node8&#45;&gt;Node1</title>
<path fill="none" stroke="#404040" d="M993.91,-292.26C982.4,-280.43 969.38,-268.5 956,-259 881.18,-205.85 784.85,-165.86 711.88,-140.28"/>
<polygon fill="none" stroke="#404040" points="711.72,-140.22 704.74,-142.04 700.38,-136.29 707.36,-134.48 711.72,-140.22"/>
<text text-anchor="middle" x="943.5" y="-233" font-family="Helvetica,sans-Serif" font-size="10.00"> +int_set</text>
</g>
<!-- Node9 -->
<g id="node9" class="node">
<title>Node9</title>
<g id="a_node9"><a xlink:href="classtvm_1_1arith_1_1ModularSetAnalyzer.html" target="_top" xlink:title="Analyzer to get modular information over expression.">
<polygon fill="white" stroke="black" points="1125.5,-309 1125.5,-377 1294.5,-377 1294.5,-309 1125.5,-309"/>
<text text-anchor="middle" x="1210" y="-365" font-family="Helvetica,sans-Serif" font-size="10.00">tvm::arith::ModularSetAnalyzer</text>
<polyline fill="none" stroke="black" points="1125.5,-358 1294.5,-358 "/>
<text text-anchor="middle" x="1210" y="-346" font-family="Helvetica,sans-Serif" font-size="10.00"> </text>
<polyline fill="none" stroke="black" points="1125.5,-339 1294.5,-339 "/>
<text text-anchor="start" x="1133.5" y="-327" font-family="Helvetica,sans-Serif" font-size="10.00">+ operator()()</text>
<text text-anchor="start" x="1133.5" y="-316" font-family="Helvetica,sans-Serif" font-size="10.00">+ Update()</text>
</a>
</g>
</g>
<!-- Node9&#45;&gt;Node1 -->
<g id="edge8" class="edge">
<title>Node9&#45;&gt;Node1</title>
<path fill="none" stroke="#404040" d="M1179.63,-308.99C1162.41,-291.97 1139.61,-272.08 1116,-259 986.62,-187.31 819.68,-145.95 712.22,-124.95"/>
<polygon fill="none" stroke="#404040" points="712.18,-124.94 705.53,-127.74 700.39,-122.67 707.04,-119.88 712.18,-124.94"/>
<text text-anchor="middle" x="1113.5" y="-233" font-family="Helvetica,sans-Serif" font-size="10.00"> +modular_set</text>
</g>
</g>
</svg>
