<?xml version="1.0" encoding="UTF-8" standalone="no"?>
<!DOCTYPE svg PUBLIC "-//W3C//DTD SVG 1.1//EN"
 "http://www.w3.org/Graphics/SVG/1.1/DTD/svg11.dtd">
<!-- Generated by graphviz version 2.43.0 (0)
 -->
<!-- Title: tvm::tirx::LTNode Pages: 1 -->
<svg width="427pt" height="924pt"
 viewBox="0.00 0.00 426.50 924.00" xmlns="http://www.w3.org/2000/svg" xmlns:xlink="http://www.w3.org/1999/xlink">
<g id="graph0" class="graph" transform="scale(1 1) rotate(0) translate(4 920)">
<title>tvm::tirx::LTNode</title>
<polygon fill="white" stroke="transparent" points="-4,4 -4,-920 422.5,-920 422.5,4 -4,4"/>
<!-- Node1 -->
<g id="node1" class="node">
<title>Node1</title>
<g id="a_node1"><a xlink:title="a &lt; b">
<polygon fill="#bfbfbf" stroke="black" points="195.5,-0.5 195.5,-57.5 296.5,-57.5 296.5,-0.5 195.5,-0.5"/>
<text text-anchor="middle" x="246" y="-45.5" font-family="Helvetica,sans-Serif" font-size="10.00">tvm::tirx::LTNode</text>
<polyline fill="none" stroke="black" points="195.5,-38.5 296.5,-38.5 "/>
<text text-anchor="start" x="203.5" y="-26.5" font-family="Helvetica,sans-Serif" font-size="10.00">+ _type_key</text>
<polyline fill="none" stroke="black" points="195.5,-19.5 296.5,-19.5 "/>
<text text-anchor="middle" x="246" y="-7.5" font-family="Helvetica,sans-Serif" font-size="10.00"> </text>
</a>
</g>
</g>
<!-- Node2 -->
<g id="node2" class="node">
<title>Node2</title>
<g id="a_node2"><a xlink:href="classtvm_1_1tirx_1_1CmpOpNode.html" target="_top" xlink:title=" ">
<polygon fill="white" stroke="black" points="159,-95.5 159,-218.5 333,-218.5 333,-95.5 159,-95.5"/>
<text text-anchor="start" x="167" y="-206.5" font-family="Helvetica,sans-Serif" font-size="10.00">tvm::tirx::CmpOpNode</text>
<text text-anchor="middle" x="246" y="-195.5" font-family="Helvetica,sans-Serif" font-size="10.00">&lt; LTNode &gt;</text>
<polyline fill="none" stroke="black" points="159,-188.5 333,-188.5 "/>
<text text-anchor="start" x="167" y="-176.5" font-family="Helvetica,sans-Serif" font-size="10.00">+ a</text>
<text text-anchor="start" x="167" y="-165.5" font-family="Helvetica,sans-Serif" font-size="10.00">+ b</text>
<text text-anchor="start" x="167" y="-154.5" font-family="Helvetica,sans-Serif" font-size="10.00">+ _type_child_slots</text>
<text text-anchor="start" x="167" y="-143.5" font-family="Helvetica,sans-Serif" font-size="10.00">+ _type_final</text>
<polyline fill="none" stroke="black" points="159,-136.5 333,-136.5 "/>
<text text-anchor="start" x="167" y="-124.5" font-family="Helvetica,sans-Serif" font-size="10.00">+ TVM_FFI_DECLARE_OBJECT</text>
<text text-anchor="start" x="167" y="-113.5" font-family="Helvetica,sans-Serif" font-size="10.00">_INFO_PREDEFINED_TYPE_KEY()</text>
<text text-anchor="start" x="167" y="-102.5" font-family="Helvetica,sans-Serif" font-size="10.00">+ RegisterReflection()</text>
</a>
</g>
</g>
<!-- Node2&#45;&gt;Node1 -->
<g id="edge1" class="edge">
<title>Node2&#45;&gt;Node1</title>
<path fill="none" stroke="midnightblue" d="M246,-85.01C246,-75.26 246,-65.78 246,-57.51"/>
<polygon fill="none" stroke="midnightblue" points="242.5,-85.21 246,-95.21 249.5,-85.21 242.5,-85.21"/>
</g>
<!-- Node3 -->
<g id="node3" class="node">
<title>Node3</title>
<g id="a_node3"><a xlink:href="classtvm_1_1PrimExprNode.html" target="_top" xlink:title="Base node of all primitive expressions.">
<polygon fill="white" stroke="black" points="165,-256.5 165,-335.5 327,-335.5 327,-256.5 165,-256.5"/>
<text text-anchor="middle" x="246" y="-323.5" font-family="Helvetica,sans-Serif" font-size="10.00">tvm::PrimExprNode</text>
<polyline fill="none" stroke="black" points="165,-316.5 327,-316.5 "/>
<text text-anchor="start" x="173" y="-304.5" font-family="Helvetica,sans-Serif" font-size="10.00">+ _type_child_slots</text>
<polyline fill="none" stroke="black" points="165,-297.5 327,-297.5 "/>
<text text-anchor="start" x="173" y="-285.5" font-family="Helvetica,sans-Serif" font-size="10.00">+ TVM_FFI_DECLARE_OBJECT</text>
<text text-anchor="start" x="173" y="-274.5" font-family="Helvetica,sans-Serif" font-size="10.00">_INFO()</text>
<text text-anchor="start" x="173" y="-263.5" font-family="Helvetica,sans-Serif" font-size="10.00">+ RegisterReflection()</text>
</a>
</g>
</g>
<!-- Node3&#45;&gt;Node2 -->
<g id="edge2" class="edge">
<title>Node3&#45;&gt;Node2</title>
<path fill="none" stroke="midnightblue" d="M246,-246.21C246,-237.25 246,-227.79 246,-218.53"/>
<polygon fill="none" stroke="midnightblue" points="242.5,-246.47 246,-256.47 249.5,-246.47 242.5,-246.47"/>
</g>
<!-- Node4 -->
<g id="node4" class="node">
<title>Node4</title>
<g id="a_node4"><a xlink:href="classtvm_1_1BaseExprNode.html" target="_top" xlink:title="Base type of all the expressions.">
<polygon fill="white" stroke="black" points="81,-488 81,-578 243,-578 243,-488 81,-488"/>
<text text-anchor="middle" x="162" y="-566" font-family="Helvetica,sans-Serif" font-size="10.00">tvm::BaseExprNode</text>
<polyline fill="none" stroke="black" points="81,-559 243,-559 "/>
<text text-anchor="start" x="89" y="-547" font-family="Helvetica,sans-Serif" font-size="10.00">+ _type_s_eq_hash_kind</text>
<text text-anchor="start" x="89" y="-536" font-family="Helvetica,sans-Serif" font-size="10.00">+ _type_child_slots</text>
<polyline fill="none" stroke="black" points="81,-529 243,-529 "/>
<text text-anchor="start" x="89" y="-517" font-family="Helvetica,sans-Serif" font-size="10.00">+ TVM_FFI_DECLARE_OBJECT</text>
<text text-anchor="start" x="89" y="-506" font-family="Helvetica,sans-Serif" font-size="10.00">_INFO()</text>
<text text-anchor="start" x="89" y="-495" font-family="Helvetica,sans-Serif" font-size="10.00">+ RegisterReflection()</text>
</a>
</g>
</g>
<!-- Node4&#45;&gt;Node3 -->
<g id="edge3" class="edge">
<title>Node4&#45;&gt;Node3</title>
<path fill="none" stroke="midnightblue" d="M181.22,-478.22C196.79,-434.68 218.33,-374.41 232.22,-335.55"/>
<polygon fill="none" stroke="midnightblue" points="177.87,-477.2 177.8,-487.8 184.46,-479.56 177.87,-477.2"/>
</g>
<!-- Node5 -->
<g id="node5" class="node">
<title>Node5</title>
<g id="a_node5"><a xlink:title=" ">
<polygon fill="white" stroke="#bfbfbf" points="0,-747 0,-804 64,-804 64,-747 0,-747"/>
<text text-anchor="middle" x="32" y="-792" font-family="Helvetica,sans-Serif" font-size="10.00">ffi::Object</text>
<polyline fill="none" stroke="#bfbfbf" points="0,-785 64,-785 "/>
<text text-anchor="middle" x="32" y="-773" font-family="Helvetica,sans-Serif" font-size="10.00"> </text>
<polyline fill="none" stroke="#bfbfbf" points="0,-766 64,-766 "/>
<text text-anchor="middle" x="32" y="-754" font-family="Helvetica,sans-Serif" font-size="10.00"> </text>
</a>
</g>
</g>
<!-- Node5&#45;&gt;Node4 -->
<g id="edge4" class="edge">
<title>Node5&#45;&gt;Node4</title>
<path fill="none" stroke="midnightblue" d="M51.75,-737.96C74.88,-695.17 113.2,-624.28 138.02,-578.37"/>
<polygon fill="none" stroke="midnightblue" points="48.59,-736.45 46.91,-746.91 54.75,-739.78 48.59,-736.45"/>
</g>
<!-- Node6 -->
<g id="node6" class="node">
<title>Node6</title>
<g id="a_node6"><a xlink:href="classtvm_1_1Span.html" target="_top" xlink:title=" ">
<polygon fill="white" stroke="black" points="82.5,-730.5 82.5,-820.5 241.5,-820.5 241.5,-730.5 82.5,-730.5"/>
<text text-anchor="middle" x="162" y="-808.5" font-family="Helvetica,sans-Serif" font-size="10.00">tvm::Span</text>
<polyline fill="none" stroke="black" points="82.5,-801.5 241.5,-801.5 "/>
<text text-anchor="middle" x="162" y="-789.5" font-family="Helvetica,sans-Serif" font-size="10.00"> </text>
<polyline fill="none" stroke="black" points="82.5,-782.5 241.5,-782.5 "/>
<text text-anchor="start" x="90.5" y="-770.5" font-family="Helvetica,sans-Serif" font-size="10.00">+ Span()</text>
<text text-anchor="start" x="90.5" y="-759.5" font-family="Helvetica,sans-Serif" font-size="10.00">+ Merge()</text>
<text text-anchor="start" x="90.5" y="-748.5" font-family="Helvetica,sans-Serif" font-size="10.00">+ TVM_FFI_DEFINE_OBJECT</text>
<text text-anchor="start" x="90.5" y="-737.5" font-family="Helvetica,sans-Serif" font-size="10.00">_REF_METHODS_NULLABLE()</text>
</a>
</g>
</g>
<!-- Node6&#45;&gt;Node4 -->
<g id="edge5" class="edge">
<title>Node6&#45;&gt;Node4</title>
<path fill="none" stroke="#404040" d="M162,-730.39C162,-691.02 162,-633.15 162,-590.42"/>
<polygon fill="none" stroke="#404040" points="162,-590.24 158,-584.24 162,-578.24 166,-584.24 162,-590.24"/>
<text text-anchor="middle" x="179.5" y="-704" font-family="Helvetica,sans-Serif" font-size="10.00"> +span</text>
</g>
<!-- Node7 -->
<g id="node7" class="node">
<title>Node7</title>
<g id="a_node7"><a xlink:title=" ">
<polygon fill="white" stroke="#bfbfbf" points="210,-858.5 210,-915.5 290,-915.5 290,-858.5 210,-858.5"/>
<text text-anchor="middle" x="250" y="-903.5" font-family="Helvetica,sans-Serif" font-size="10.00">ffi::ObjectRef</text>
<polyline fill="none" stroke="#bfbfbf" points="210,-896.5 290,-896.5 "/>
<text text-anchor="middle" x="250" y="-884.5" font-family="Helvetica,sans-Serif" font-size="10.00"> </text>
<polyline fill="none" stroke="#bfbfbf" points="210,-877.5 290,-877.5 "/>
<text text-anchor="middle" x="250" y="-865.5" font-family="Helvetica,sans-Serif" font-size="10.00"> </text>
</a>
</g>
</g>
<!-- Node7&#45;&gt;Node6 -->
<g id="edge6" class="edge">
<title>Node7&#45;&gt;Node6</title>
<path fill="none" stroke="midnightblue" d="M221.33,-850.33C213.74,-840.89 205.46,-830.58 197.56,-820.74"/>
<polygon fill="none" stroke="midnightblue" points="218.8,-852.77 227.79,-858.37 224.26,-848.38 218.8,-852.77"/>
</g>
<!-- Node8 -->
<g id="node8" class="node">
<title>Node8</title>
<g id="a_node8"><a xlink:href="classtvm_1_1Type.html" target="_top" xlink:title="Managed reference to TypeNode.">
<polygon fill="white" stroke="black" points="259.5,-741.5 259.5,-809.5 418.5,-809.5 418.5,-741.5 259.5,-741.5"/>
<text text-anchor="middle" x="339" y="-797.5" font-family="Helvetica,sans-Serif" font-size="10.00">tvm::Type</text>
<polyline fill="none" stroke="black" points="259.5,-790.5 418.5,-790.5 "/>
<text text-anchor="middle" x="339" y="-778.5" font-family="Helvetica,sans-Serif" font-size="10.00"> </text>
<polyline fill="none" stroke="black" points="259.5,-771.5 418.5,-771.5 "/>
<text text-anchor="start" x="267.5" y="-759.5" font-family="Helvetica,sans-Serif" font-size="10.00">+ TVM_FFI_DEFINE_OBJECT</text>
<text text-anchor="start" x="267.5" y="-748.5" font-family="Helvetica,sans-Serif" font-size="10.00">_REF_METHODS_NULLABLE()</text>
</a>
</g>
</g>
<!-- Node7&#45;&gt;Node8 -->
<g id="edge8" class="edge">
<title>Node7&#45;&gt;Node8</title>
<path fill="none" stroke="midnightblue" d="M278.9,-850.44C289.58,-837.31 301.62,-822.49 312.11,-809.59"/>
<polygon fill="none" stroke="midnightblue" points="276.05,-848.4 272.46,-858.37 281.48,-852.82 276.05,-848.4"/>
</g>
<!-- Node8&#45;&gt;Node4 -->
<g id="edge7" class="edge">
<title>Node8&#45;&gt;Node4</title>
<path fill="none" stroke="#404040" d="M304.09,-741.33C287.4,-724.61 267.69,-703.56 252,-683 229.49,-653.49 207.86,-618.01 191.45,-589.07"/>
<polygon fill="none" stroke="#404040" points="191.3,-588.79 184.87,-585.51 185.43,-578.32 191.85,-581.6 191.3,-588.79"/>
<text text-anchor="middle" x="286" y="-704" font-family="Helvetica,sans-Serif" font-size="10.00"> +ty</text>
</g>
<!-- Node9 -->
<g id="node9" class="node">
<title>Node9</title>
<g id="a_node9"><a xlink:href="classtvm_1_1runtime_1_1DataType.html" target="_top" xlink:title="Runtime primitive data type.">
<polygon fill="white" stroke="black" points="261,-383.5 261,-682.5 401,-682.5 401,-383.5 261,-383.5"/>
<text text-anchor="middle" x="331" y="-670.5" font-family="Helvetica,sans-Serif" font-size="10.00">tvm::runtime::DataType</text>
<polyline fill="none" stroke="black" points="261,-663.5 401,-663.5 "/>
<text text-anchor="middle" x="331" y="-651.5" font-family="Helvetica,sans-Serif" font-size="10.00"> </text>
<polyline fill="none" stroke="black" points="261,-644.5 401,-644.5 "/>
<text text-anchor="start" x="269" y="-632.5" font-family="Helvetica,sans-Serif" font-size="10.00">+ DataType()</text>
<text text-anchor="start" x="269" y="-621.5" font-family="Helvetica,sans-Serif" font-size="10.00">+ DataType()</text>
<text text-anchor="start" x="269" y="-610.5" font-family="Helvetica,sans-Serif" font-size="10.00">+ DataType()</text>
<text text-anchor="start" x="269" y="-599.5" font-family="Helvetica,sans-Serif" font-size="10.00">+ code()</text>
<text text-anchor="start" x="269" y="-588.5" font-family="Helvetica,sans-Serif" font-size="10.00">+ bits()</text>
<text text-anchor="start" x="269" y="-577.5" font-family="Helvetica,sans-Serif" font-size="10.00">+ bytes()</text>
<text text-anchor="start" x="269" y="-566.5" font-family="Helvetica,sans-Serif" font-size="10.00">+ lanes()</text>
<text text-anchor="start" x="269" y="-555.5" font-family="Helvetica,sans-Serif" font-size="10.00">+ vscale_factor()</text>
<text text-anchor="start" x="269" y="-544.5" font-family="Helvetica,sans-Serif" font-size="10.00">+ get_lanes_or_vscale</text>
<text text-anchor="start" x="269" y="-533.5" font-family="Helvetica,sans-Serif" font-size="10.00">_factor()</text>
<text text-anchor="start" x="269" y="-522.5" font-family="Helvetica,sans-Serif" font-size="10.00">+ is_scalar()</text>
<text text-anchor="start" x="269" y="-511.5" font-family="Helvetica,sans-Serif" font-size="10.00">and 37 more...</text>
<text text-anchor="start" x="269" y="-500.5" font-family="Helvetica,sans-Serif" font-size="10.00">+ Int()</text>
<text text-anchor="start" x="269" y="-489.5" font-family="Helvetica,sans-Serif" font-size="10.00">+ UInt()</text>
<text text-anchor="start" x="269" y="-478.5" font-family="Helvetica,sans-Serif" font-size="10.00">+ Float()</text>
<text text-anchor="start" x="269" y="-467.5" font-family="Helvetica,sans-Serif" font-size="10.00">+ BFloat()</text>
<text text-anchor="start" x="269" y="-456.5" font-family="Helvetica,sans-Serif" font-size="10.00">+ Float8E3M4()</text>
<text text-anchor="start" x="269" y="-445.5" font-family="Helvetica,sans-Serif" font-size="10.00">+ Float8E4M3()</text>
<text text-anchor="start" x="269" y="-434.5" font-family="Helvetica,sans-Serif" font-size="10.00">+ Float8E4M3B11FNUZ()</text>
<text text-anchor="start" x="269" y="-423.5" font-family="Helvetica,sans-Serif" font-size="10.00">+ Float8E4M3FN()</text>
<text text-anchor="start" x="269" y="-412.5" font-family="Helvetica,sans-Serif" font-size="10.00">+ Float8E4M3FNUZ()</text>
<text text-anchor="start" x="269" y="-401.5" font-family="Helvetica,sans-Serif" font-size="10.00">+ Float8E5M2()</text>
<text text-anchor="start" x="269" y="-390.5" font-family="Helvetica,sans-Serif" font-size="10.00">and 9 more...</text>
</a>
</g>
</g>
<!-- Node9&#45;&gt;Node3 -->
<g id="edge9" class="edge">
<title>Node9&#45;&gt;Node3</title>
<path fill="none" stroke="#404040" d="M277.17,-383.17C272.57,-370.46 268.16,-358.28 264.19,-347.28"/>
<polygon fill="none" stroke="#404040" points="264.13,-347.13 258.33,-342.85 260.05,-335.84 265.85,-340.12 264.13,-347.13"/>
<text text-anchor="middle" x="289" y="-357" font-family="Helvetica,sans-Serif" font-size="10.00"> +dtype</text>
</g>
</g>
</svg>
