<?xml version="1.0" encoding="UTF-8" standalone="no"?>
<!DOCTYPE svg PUBLIC "-//W3C//DTD SVG 1.1//EN"
 "http://www.w3.org/Graphics/SVG/1.1/DTD/svg11.dtd">
<!-- Generated by graphviz version 2.43.0 (0)
 -->
<!-- Title: tvm::arith::IterSplitExprNode Pages: 1 -->
<svg width="711pt" height="1116pt"
 viewBox="0.00 0.00 711.00 1116.00" xmlns="http://www.w3.org/2000/svg" xmlns:xlink="http://www.w3.org/1999/xlink">
<g id="graph0" class="graph" transform="scale(1 1) rotate(0) translate(4 1112)">
<title>tvm::arith::IterSplitExprNode</title>
<polygon fill="white" stroke="transparent" points="-4,4 -4,-1112 707,-1112 707,4 -4,4"/>
<!-- Node1 -->
<g id="node1" class="node">
<title>Node1</title>
<g id="a_node1"><a xlink:title="Split of an iterator.">
<polygon fill="#bfbfbf" stroke="black" points="196.5,-0.5 196.5,-79.5 358.5,-79.5 358.5,-0.5 196.5,-0.5"/>
<text text-anchor="middle" x="277.5" y="-67.5" font-family="Helvetica,sans-Serif" font-size="10.00">tvm::arith::IterSplitExprNode</text>
<polyline fill="none" stroke="black" points="196.5,-60.5 358.5,-60.5 "/>
<text text-anchor="start" x="204.5" y="-48.5" font-family="Helvetica,sans-Serif" font-size="10.00">+ _type_s_eq_hash_kind</text>
<polyline fill="none" stroke="black" points="196.5,-41.5 358.5,-41.5 "/>
<text text-anchor="start" x="204.5" y="-29.5" font-family="Helvetica,sans-Serif" font-size="10.00">+ TVM_FFI_DECLARE_OBJECT</text>
<text text-anchor="start" x="204.5" y="-18.5" font-family="Helvetica,sans-Serif" font-size="10.00">_INFO_FINAL()</text>
<text text-anchor="start" x="204.5" y="-7.5" font-family="Helvetica,sans-Serif" font-size="10.00">+ RegisterReflection()</text>
</a>
</g>
</g>
<!-- Node2 -->
<g id="node2" class="node">
<title>Node2</title>
<g id="a_node2"><a xlink:href="classtvm_1_1arith_1_1IterMapExprNode.html" target="_top" xlink:title="Base class of all iter map expressions.">
<polygon fill="white" stroke="black" points="196.5,-117.5 196.5,-185.5 358.5,-185.5 358.5,-117.5 196.5,-117.5"/>
<text text-anchor="middle" x="277.5" y="-173.5" font-family="Helvetica,sans-Serif" font-size="10.00">tvm::arith::IterMapExprNode</text>
<polyline fill="none" stroke="black" points="196.5,-166.5 358.5,-166.5 "/>
<text text-anchor="start" x="204.5" y="-154.5" font-family="Helvetica,sans-Serif" font-size="10.00">+ _type_child_slots</text>
<polyline fill="none" stroke="black" points="196.5,-147.5 358.5,-147.5 "/>
<text text-anchor="start" x="204.5" y="-135.5" font-family="Helvetica,sans-Serif" font-size="10.00">+ TVM_FFI_DECLARE_OBJECT</text>
<text text-anchor="start" x="204.5" y="-124.5" font-family="Helvetica,sans-Serif" font-size="10.00">_INFO()</text>
</a>
</g>
</g>
<!-- Node2&#45;&gt;Node1 -->
<g id="edge1" class="edge">
<title>Node2&#45;&gt;Node1</title>
<path fill="none" stroke="midnightblue" d="M277.5,-107.34C277.5,-98.25 277.5,-88.72 277.5,-79.81"/>
<polygon fill="none" stroke="midnightblue" points="274,-107.35 277.5,-117.35 281,-107.35 274,-107.35"/>
</g>
<!-- Node3 -->
<g id="node3" class="node">
<title>Node3</title>
<g id="a_node3"><a xlink:href="classtvm_1_1PrimExprNode.html" target="_top" xlink:title="Base node of all primitive expressions.">
<polygon fill="white" stroke="black" points="196.5,-255.5 196.5,-334.5 358.5,-334.5 358.5,-255.5 196.5,-255.5"/>
<text text-anchor="middle" x="277.5" y="-322.5" font-family="Helvetica,sans-Serif" font-size="10.00">tvm::PrimExprNode</text>
<polyline fill="none" stroke="black" points="196.5,-315.5 358.5,-315.5 "/>
<text text-anchor="start" x="204.5" y="-303.5" font-family="Helvetica,sans-Serif" font-size="10.00">+ _type_child_slots</text>
<polyline fill="none" stroke="black" points="196.5,-296.5 358.5,-296.5 "/>
<text text-anchor="start" x="204.5" y="-284.5" font-family="Helvetica,sans-Serif" font-size="10.00">+ TVM_FFI_DECLARE_OBJECT</text>
<text text-anchor="start" x="204.5" y="-273.5" font-family="Helvetica,sans-Serif" font-size="10.00">_INFO()</text>
<text text-anchor="start" x="204.5" y="-262.5" font-family="Helvetica,sans-Serif" font-size="10.00">+ RegisterReflection()</text>
</a>
</g>
</g>
<!-- Node3&#45;&gt;Node2 -->
<g id="edge2" class="edge">
<title>Node3&#45;&gt;Node2</title>
<path fill="none" stroke="midnightblue" d="M277.5,-245.07C277.5,-225.51 277.5,-203.49 277.5,-185.83"/>
<polygon fill="none" stroke="midnightblue" points="274,-245.33 277.5,-255.33 281,-245.33 274,-245.33"/>
</g>
<!-- Node4 -->
<g id="node4" class="node">
<title>Node4</title>
<g id="a_node4"><a xlink:href="classtvm_1_1BaseExprNode.html" target="_top" xlink:title="Base type of all the expressions.">
<polygon fill="white" stroke="black" points="265.5,-589 265.5,-679 427.5,-679 427.5,-589 265.5,-589"/>
<text text-anchor="middle" x="346.5" y="-667" font-family="Helvetica,sans-Serif" font-size="10.00">tvm::BaseExprNode</text>
<polyline fill="none" stroke="black" points="265.5,-660 427.5,-660 "/>
<text text-anchor="start" x="273.5" y="-648" font-family="Helvetica,sans-Serif" font-size="10.00">+ _type_s_eq_hash_kind</text>
<text text-anchor="start" x="273.5" y="-637" font-family="Helvetica,sans-Serif" font-size="10.00">+ _type_child_slots</text>
<polyline fill="none" stroke="black" points="265.5,-630 427.5,-630 "/>
<text text-anchor="start" x="273.5" y="-618" font-family="Helvetica,sans-Serif" font-size="10.00">+ TVM_FFI_DECLARE_OBJECT</text>
<text text-anchor="start" x="273.5" y="-607" font-family="Helvetica,sans-Serif" font-size="10.00">_INFO()</text>
<text text-anchor="start" x="273.5" y="-596" font-family="Helvetica,sans-Serif" font-size="10.00">+ RegisterReflection()</text>
</a>
</g>
</g>
<!-- Node4&#45;&gt;Node3 -->
<g id="edge3" class="edge">
<title>Node4&#45;&gt;Node3</title>
<path fill="none" stroke="midnightblue" d="M335.4,-578.8C321.41,-510.44 297.69,-394.59 285.4,-334.59"/>
<polygon fill="none" stroke="midnightblue" points="332.04,-579.85 337.48,-588.94 338.9,-578.44 332.04,-579.85"/>
</g>
<!-- Node5 -->
<g id="node5" class="node">
<title>Node5</title>
<g id="a_node5"><a xlink:title=" ">
<polygon fill="white" stroke="#bfbfbf" points="284.5,-939 284.5,-996 348.5,-996 348.5,-939 284.5,-939"/>
<text text-anchor="middle" x="316.5" y="-984" font-family="Helvetica,sans-Serif" font-size="10.00">ffi::Object</text>
<polyline fill="none" stroke="#bfbfbf" points="284.5,-977 348.5,-977 "/>
<text text-anchor="middle" x="316.5" y="-965" font-family="Helvetica,sans-Serif" font-size="10.00"> </text>
<polyline fill="none" stroke="#bfbfbf" points="284.5,-958 348.5,-958 "/>
<text text-anchor="middle" x="316.5" y="-946" font-family="Helvetica,sans-Serif" font-size="10.00"> </text>
</a>
</g>
</g>
<!-- Node5&#45;&gt;Node4 -->
<g id="edge4" class="edge">
<title>Node5&#45;&gt;Node4</title>
<path fill="none" stroke="midnightblue" d="M319.92,-928.72C325.51,-866.98 336.57,-744.77 342.51,-679.14"/>
<polygon fill="none" stroke="midnightblue" points="316.42,-928.53 319.01,-938.81 323.39,-929.16 316.42,-928.53"/>
</g>
<!-- Node6 -->
<g id="node6" class="node">
<title>Node6</title>
<g id="a_node6"><a xlink:href="classtvm_1_1Span.html" target="_top" xlink:title=" ">
<polygon fill="white" stroke="black" points="367,-922.5 367,-1012.5 526,-1012.5 526,-922.5 367,-922.5"/>
<text text-anchor="middle" x="446.5" y="-1000.5" font-family="Helvetica,sans-Serif" font-size="10.00">tvm::Span</text>
<polyline fill="none" stroke="black" points="367,-993.5 526,-993.5 "/>
<text text-anchor="middle" x="446.5" y="-981.5" font-family="Helvetica,sans-Serif" font-size="10.00"> </text>
<polyline fill="none" stroke="black" points="367,-974.5 526,-974.5 "/>
<text text-anchor="start" x="375" y="-962.5" font-family="Helvetica,sans-Serif" font-size="10.00">+ Span()</text>
<text text-anchor="start" x="375" y="-951.5" font-family="Helvetica,sans-Serif" font-size="10.00">+ Merge()</text>
<text text-anchor="start" x="375" y="-940.5" font-family="Helvetica,sans-Serif" font-size="10.00">+ TVM_FFI_DEFINE_OBJECT</text>
<text text-anchor="start" x="375" y="-929.5" font-family="Helvetica,sans-Serif" font-size="10.00">_REF_METHODS_NULLABLE()</text>
</a>
</g>
</g>
<!-- Node6&#45;&gt;Node4 -->
<g id="edge5" class="edge">
<title>Node6&#45;&gt;Node4</title>
<path fill="none" stroke="#404040" d="M433.22,-922.48C415.22,-862.79 383.05,-756.16 363.36,-690.89"/>
<polygon fill="none" stroke="#404040" points="363.3,-690.69 357.74,-686.1 359.83,-679.2 365.4,-683.79 363.3,-690.69"/>
<text text-anchor="middle" x="444" y="-850.5" font-family="Helvetica,sans-Serif" font-size="10.00"> +span</text>
</g>
<!-- Node7 -->
<g id="node7" class="node">
<title>Node7</title>
<g id="a_node7"><a xlink:title=" ">
<polygon fill="white" stroke="#bfbfbf" points="217.5,-1050.5 217.5,-1107.5 297.5,-1107.5 297.5,-1050.5 217.5,-1050.5"/>
<text text-anchor="middle" x="257.5" y="-1095.5" font-family="Helvetica,sans-Serif" font-size="10.00">ffi::ObjectRef</text>
<polyline fill="none" stroke="#bfbfbf" points="217.5,-1088.5 297.5,-1088.5 "/>
<text text-anchor="middle" x="257.5" y="-1076.5" font-family="Helvetica,sans-Serif" font-size="10.00"> </text>
<polyline fill="none" stroke="#bfbfbf" points="217.5,-1069.5 297.5,-1069.5 "/>
<text text-anchor="middle" x="257.5" y="-1057.5" font-family="Helvetica,sans-Serif" font-size="10.00"> </text>
</a>
</g>
</g>
<!-- Node7&#45;&gt;Node6 -->
<g id="edge6" class="edge">
<title>Node7&#45;&gt;Node6</title>
<path fill="none" stroke="midnightblue" d="M306.28,-1049.74C325.76,-1038.45 348.65,-1025.19 370.23,-1012.69"/>
<polygon fill="none" stroke="midnightblue" points="304.48,-1046.74 297.58,-1054.78 307.99,-1052.79 304.48,-1046.74"/>
</g>
<!-- Node8 -->
<g id="node8" class="node">
<title>Node8</title>
<g id="a_node8"><a xlink:href="classtvm_1_1Type.html" target="_top" xlink:title="Managed reference to TypeNode.">
<polygon fill="white" stroke="black" points="107,-933.5 107,-1001.5 266,-1001.5 266,-933.5 107,-933.5"/>
<text text-anchor="middle" x="186.5" y="-989.5" font-family="Helvetica,sans-Serif" font-size="10.00">tvm::Type</text>
<polyline fill="none" stroke="black" points="107,-982.5 266,-982.5 "/>
<text text-anchor="middle" x="186.5" y="-970.5" font-family="Helvetica,sans-Serif" font-size="10.00"> </text>
<polyline fill="none" stroke="black" points="107,-963.5 266,-963.5 "/>
<text text-anchor="start" x="115" y="-951.5" font-family="Helvetica,sans-Serif" font-size="10.00">+ TVM_FFI_DEFINE_OBJECT</text>
<text text-anchor="start" x="115" y="-940.5" font-family="Helvetica,sans-Serif" font-size="10.00">_REF_METHODS_NULLABLE()</text>
</a>
</g>
</g>
<!-- Node7&#45;&gt;Node8 -->
<g id="edge8" class="edge">
<title>Node7&#45;&gt;Node8</title>
<path fill="none" stroke="midnightblue" d="M233.96,-1041.7C225.57,-1028.75 216.16,-1014.25 207.95,-1001.59"/>
<polygon fill="none" stroke="midnightblue" points="231.21,-1043.88 239.58,-1050.37 237.08,-1040.07 231.21,-1043.88"/>
</g>
<!-- Node10 -->
<g id="node10" class="node">
<title>Node10</title>
<g id="a_node10"><a xlink:href="classtvm_1_1arith_1_1IterMark.html" target="_top" xlink:title="Managed reference to IterMarkExprNode.">
<polygon fill="white" stroke="black" points="0,-802.5 0,-903.5 159,-903.5 159,-802.5 0,-802.5"/>
<text text-anchor="middle" x="79.5" y="-891.5" font-family="Helvetica,sans-Serif" font-size="10.00">tvm::arith::IterMark</text>
<polyline fill="none" stroke="black" points="0,-884.5 159,-884.5 "/>
<text text-anchor="middle" x="79.5" y="-872.5" font-family="Helvetica,sans-Serif" font-size="10.00"> </text>
<polyline fill="none" stroke="black" points="0,-865.5 159,-865.5 "/>
<text text-anchor="start" x="8" y="-853.5" font-family="Helvetica,sans-Serif" font-size="10.00">+ IterMark()</text>
<text text-anchor="start" x="8" y="-842.5" font-family="Helvetica,sans-Serif" font-size="10.00">+ TVM_FFI_DEFINE_OBJECT</text>
<text text-anchor="start" x="8" y="-831.5" font-family="Helvetica,sans-Serif" font-size="10.00">_REF_METHODS_NULLABLE()</text>
<text text-anchor="start" x="8" y="-820.5" font-family="Helvetica,sans-Serif" font-size="10.00">+ TVM_DEFINE_OBJECT_REF</text>
<text text-anchor="start" x="8" y="-809.5" font-family="Helvetica,sans-Serif" font-size="10.00">_COW_METHOD()</text>
</a>
</g>
</g>
<!-- Node7&#45;&gt;Node10 -->
<g id="edge11" class="edge">
<title>Node7&#45;&gt;Node10</title>
<path fill="none" stroke="midnightblue" d="M207.4,-1071.1C171.25,-1063.35 124.43,-1047.05 98.5,-1013 75,-982.15 71.47,-937.7 73.13,-903.65"/>
<polygon fill="none" stroke="midnightblue" points="206.79,-1074.55 217.28,-1073.07 208.16,-1067.68 206.79,-1074.55"/>
</g>
<!-- Node12 -->
<g id="node12" class="node">
<title>Node12</title>
<g id="a_node12"><a xlink:href="classtvm_1_1BaseExpr.html" target="_top" xlink:title="Managed reference to BaseExprNode.">
<polygon fill="white" stroke="black" points="544,-933.5 544,-1001.5 703,-1001.5 703,-933.5 544,-933.5"/>
<text text-anchor="middle" x="623.5" y="-989.5" font-family="Helvetica,sans-Serif" font-size="10.00">tvm::BaseExpr</text>
<polyline fill="none" stroke="black" points="544,-982.5 703,-982.5 "/>
<text text-anchor="middle" x="623.5" y="-970.5" font-family="Helvetica,sans-Serif" font-size="10.00"> </text>
<polyline fill="none" stroke="black" points="544,-963.5 703,-963.5 "/>
<text text-anchor="start" x="552" y="-951.5" font-family="Helvetica,sans-Serif" font-size="10.00">+ TVM_FFI_DEFINE_OBJECT</text>
<text text-anchor="start" x="552" y="-940.5" font-family="Helvetica,sans-Serif" font-size="10.00">_REF_METHODS_NULLABLE()</text>
</a>
</g>
</g>
<!-- Node7&#45;&gt;Node12 -->
<g id="edge14" class="edge">
<title>Node7&#45;&gt;Node12</title>
<path fill="none" stroke="midnightblue" d="M308.07,-1069.92C364.6,-1060.04 458.33,-1041.08 535.5,-1013 544.51,-1009.72 553.79,-1005.75 562.79,-1001.54"/>
<polygon fill="none" stroke="midnightblue" points="307.22,-1066.52 297.96,-1071.66 308.41,-1073.42 307.22,-1066.52"/>
</g>
<!-- Node8&#45;&gt;Node4 -->
<g id="edge7" class="edge">
<title>Node8&#45;&gt;Node4</title>
<path fill="none" stroke="#404040" d="M202.57,-933.2C230.05,-876.27 286.31,-759.71 319.77,-690.38"/>
<polygon fill="none" stroke="#404040" points="319.92,-690.06 318.93,-682.92 325.14,-679.25 326.13,-686.4 319.92,-690.06"/>
<text text-anchor="middle" x="272.5" y="-850.5" font-family="Helvetica,sans-Serif" font-size="10.00"> +ty</text>
</g>
<!-- Node9 -->
<g id="node9" class="node">
<title>Node9</title>
<g id="a_node9"><a xlink:href="classtvm_1_1runtime_1_1DataType.html" target="_top" xlink:title="Runtime primitive data type.">
<polygon fill="white" stroke="black" points="107.5,-484.5 107.5,-783.5 247.5,-783.5 247.5,-484.5 107.5,-484.5"/>
<text text-anchor="middle" x="177.5" y="-771.5" font-family="Helvetica,sans-Serif" font-size="10.00">tvm::runtime::DataType</text>
<polyline fill="none" stroke="black" points="107.5,-764.5 247.5,-764.5 "/>
<text text-anchor="middle" x="177.5" y="-752.5" font-family="Helvetica,sans-Serif" font-size="10.00"> </text>
<polyline fill="none" stroke="black" points="107.5,-745.5 247.5,-745.5 "/>
<text text-anchor="start" x="115.5" y="-733.5" font-family="Helvetica,sans-Serif" font-size="10.00">+ DataType()</text>
<text text-anchor="start" x="115.5" y="-722.5" font-family="Helvetica,sans-Serif" font-size="10.00">+ DataType()</text>
<text text-anchor="start" x="115.5" y="-711.5" font-family="Helvetica,sans-Serif" font-size="10.00">+ DataType()</text>
<text text-anchor="start" x="115.5" y="-700.5" font-family="Helvetica,sans-Serif" font-size="10.00">+ code()</text>
<text text-anchor="start" x="115.5" y="-689.5" font-family="Helvetica,sans-Serif" font-size="10.00">+ bits()</text>
<text text-anchor="start" x="115.5" y="-678.5" font-family="Helvetica,sans-Serif" font-size="10.00">+ bytes()</text>
<text text-anchor="start" x="115.5" y="-667.5" font-family="Helvetica,sans-Serif" font-size="10.00">+ lanes()</text>
<text text-anchor="start" x="115.5" y="-656.5" font-family="Helvetica,sans-Serif" font-size="10.00">+ vscale_factor()</text>
<text text-anchor="start" x="115.5" y="-645.5" font-family="Helvetica,sans-Serif" font-size="10.00">+ get_lanes_or_vscale</text>
<text text-anchor="start" x="115.5" y="-634.5" font-family="Helvetica,sans-Serif" font-size="10.00">_factor()</text>
<text text-anchor="start" x="115.5" y="-623.5" font-family="Helvetica,sans-Serif" font-size="10.00">+ is_scalar()</text>
<text text-anchor="start" x="115.5" y="-612.5" font-family="Helvetica,sans-Serif" font-size="10.00">and 37 more...</text>
<text text-anchor="start" x="115.5" y="-601.5" font-family="Helvetica,sans-Serif" font-size="10.00">+ Int()</text>
<text text-anchor="start" x="115.5" y="-590.5" font-family="Helvetica,sans-Serif" font-size="10.00">+ UInt()</text>
<text text-anchor="start" x="115.5" y="-579.5" font-family="Helvetica,sans-Serif" font-size="10.00">+ Float()</text>
<text text-anchor="start" x="115.5" y="-568.5" font-family="Helvetica,sans-Serif" font-size="10.00">+ BFloat()</text>
<text text-anchor="start" x="115.5" y="-557.5" font-family="Helvetica,sans-Serif" font-size="10.00">+ Float8E3M4()</text>
<text text-anchor="start" x="115.5" y="-546.5" font-family="Helvetica,sans-Serif" font-size="10.00">+ Float8E4M3()</text>
<text text-anchor="start" x="115.5" y="-535.5" font-family="Helvetica,sans-Serif" font-size="10.00">+ Float8E4M3B11FNUZ()</text>
<text text-anchor="start" x="115.5" y="-524.5" font-family="Helvetica,sans-Serif" font-size="10.00">+ Float8E4M3FN()</text>
<text text-anchor="start" x="115.5" y="-513.5" font-family="Helvetica,sans-Serif" font-size="10.00">+ Float8E4M3FNUZ()</text>
<text text-anchor="start" x="115.5" y="-502.5" font-family="Helvetica,sans-Serif" font-size="10.00">+ Float8E5M2()</text>
<text text-anchor="start" x="115.5" y="-491.5" font-family="Helvetica,sans-Serif" font-size="10.00">and 9 more...</text>
</a>
</g>
</g>
<!-- Node9&#45;&gt;Node3 -->
<g id="edge9" class="edge">
<title>Node9&#45;&gt;Node3</title>
<path fill="none" stroke="#404040" d="M206.63,-484.4C217.07,-441.31 230.35,-394.66 246.5,-353 247.46,-350.53 248.5,-348.02 249.61,-345.52"/>
<polygon fill="none" stroke="#404040" points="249.64,-345.46 248.6,-338.32 254.79,-334.62 255.83,-341.75 249.64,-345.46"/>
<text text-anchor="middle" x="266.5" y="-407" font-family="Helvetica,sans-Serif" font-size="10.00"> +dtype</text>
</g>
<!-- Node10&#45;&gt;Node1 -->
<g id="edge10" class="edge">
<title>Node10&#45;&gt;Node1</title>
<path fill="none" stroke="#404040" d="M79.5,-802.34C79.5,-720.63 79.5,-552.68 79.5,-410.5 79.5,-410.5 79.5,-410.5 79.5,-150.5 79.5,-98.09 133.27,-70.57 184.77,-56.23"/>
<polygon fill="none" stroke="#404040" points="184.78,-56.23 189.58,-50.84 196.39,-53.2 191.6,-58.58 184.78,-56.23"/>
<text text-anchor="middle" x="101.5" y="-292.5" font-family="Helvetica,sans-Serif" font-size="10.00"> +source</text>
</g>
<!-- Node11 -->
<g id="node11" class="node">
<title>Node11</title>
<g id="a_node11"><a xlink:href="classtvm_1_1PrimExpr.html" target="_top" xlink:title="Reference to PrimExprNode.">
<polygon fill="white" stroke="black" points="349,-353.5 349,-465.5 508,-465.5 508,-353.5 349,-353.5"/>
<text text-anchor="middle" x="428.5" y="-453.5" font-family="Helvetica,sans-Serif" font-size="10.00">tvm::PrimExpr</text>
<polyline fill="none" stroke="black" points="349,-446.5 508,-446.5 "/>
<text text-anchor="middle" x="428.5" y="-434.5" font-family="Helvetica,sans-Serif" font-size="10.00"> </text>
<polyline fill="none" stroke="black" points="349,-427.5 508,-427.5 "/>
<text text-anchor="start" x="357" y="-415.5" font-family="Helvetica,sans-Serif" font-size="10.00">+ PrimExpr()</text>
<text text-anchor="start" x="357" y="-404.5" font-family="Helvetica,sans-Serif" font-size="10.00">+ PrimExpr()</text>
<text text-anchor="start" x="357" y="-393.5" font-family="Helvetica,sans-Serif" font-size="10.00">+ dtype()</text>
<text text-anchor="start" x="357" y="-382.5" font-family="Helvetica,sans-Serif" font-size="10.00">+ TVM_FFI_DEFINE_OBJECT</text>
<text text-anchor="start" x="357" y="-371.5" font-family="Helvetica,sans-Serif" font-size="10.00">_REF_METHODS_NULLABLE()</text>
<text text-anchor="start" x="357" y="-360.5" font-family="Helvetica,sans-Serif" font-size="10.00">+ ConvertFallbackValue()</text>
</a>
</g>
</g>
<!-- Node11&#45;&gt;Node1 -->
<g id="edge12" class="edge">
<title>Node11&#45;&gt;Node1</title>
<path fill="none" stroke="#404040" d="M427.5,-353.36C424.11,-291.7 411.54,-190.82 367.5,-117 361.29,-106.59 353.14,-96.93 344.27,-88.23"/>
<polygon fill="none" stroke="#404040" points="344.02,-88 336.9,-86.87 335.21,-79.86 342.33,-80.99 344.02,-88"/>
<text text-anchor="middle" x="445.5" y="-229" font-family="Helvetica,sans-Serif" font-size="10.00"> +extent</text>
<text text-anchor="middle" x="445.5" y="-218" font-family="Helvetica,sans-Serif" font-size="10.00">+lower_factor</text>
<text text-anchor="middle" x="445.5" y="-207" font-family="Helvetica,sans-Serif" font-size="10.00">+scale</text>
</g>
<!-- Node12&#45;&gt;Node11 -->
<g id="edge13" class="edge">
<title>Node12&#45;&gt;Node11</title>
<path fill="none" stroke="midnightblue" d="M608.47,-923.65C573.53,-824.02 486.83,-576.82 447.93,-465.9"/>
<polygon fill="none" stroke="midnightblue" points="605.27,-925.11 611.89,-933.38 611.88,-922.79 605.27,-925.11"/>
</g>
</g>
</svg>
