<?xml version="1.0" encoding="UTF-8" standalone="no"?>
<!DOCTYPE svg PUBLIC "-//W3C//DTD SVG 1.1//EN"
 "http://www.w3.org/Graphics/SVG/1.1/DTD/svg11.dtd">
<!-- Generated by graphviz version 2.43.0 (0)
 -->
<!-- Title: tvm::relax::ConstantNode Pages: 1 -->
<svg width="427pt" height="891pt"
 viewBox="0.00 0.00 426.50 891.00" xmlns="http://www.w3.org/2000/svg" xmlns:xlink="http://www.w3.org/1999/xlink">
<g id="graph0" class="graph" transform="scale(1 1) rotate(0) translate(4 887)">
<title>tvm::relax::ConstantNode</title>
<polygon fill="white" stroke="transparent" points="-4,4 -4,-887 422.5,-887 422.5,4 -4,4"/>
<!-- Node1 -->
<g id="node1" class="node">
<title>Node1</title>
<g id="a_node1"><a xlink:title="Constant tensor.">
<polygon fill="#bfbfbf" stroke="black" points="166,-0.5 166,-101.5 328,-101.5 328,-0.5 166,-0.5"/>
<text text-anchor="middle" x="247" y="-89.5" font-family="Helvetica,sans-Serif" font-size="10.00">tvm::relax::ConstantNode</text>
<polyline fill="none" stroke="black" points="166,-82.5 328,-82.5 "/>
<text text-anchor="middle" x="247" y="-70.5" font-family="Helvetica,sans-Serif" font-size="10.00"> </text>
<polyline fill="none" stroke="black" points="166,-63.5 328,-63.5 "/>
<text text-anchor="start" x="174" y="-51.5" font-family="Helvetica,sans-Serif" font-size="10.00">+ tensor_type()</text>
<text text-anchor="start" x="174" y="-40.5" font-family="Helvetica,sans-Serif" font-size="10.00">+ is_scalar()</text>
<text text-anchor="start" x="174" y="-29.5" font-family="Helvetica,sans-Serif" font-size="10.00">+ TVM_FFI_DECLARE_OBJECT</text>
<text text-anchor="start" x="174" y="-18.5" font-family="Helvetica,sans-Serif" font-size="10.00">_INFO_FINAL()</text>
<text text-anchor="start" x="174" y="-7.5" font-family="Helvetica,sans-Serif" font-size="10.00">+ RegisterReflection()</text>
</a>
</g>
</g>
<!-- Node2 -->
<g id="node2" class="node">
<title>Node2</title>
<g id="a_node2"><a xlink:href="classtvm_1_1relax_1_1LeafExprNode.html" target="_top" xlink:title="Base type of all (non&#45;function) leaf Exprs.">
<polygon fill="white" stroke="black" points="81,-243 81,-311 243,-311 243,-243 81,-243"/>
<text text-anchor="middle" x="162" y="-299" font-family="Helvetica,sans-Serif" font-size="10.00">tvm::relax::LeafExprNode</text>
<polyline fill="none" stroke="black" points="81,-292 243,-292 "/>
<text text-anchor="start" x="89" y="-280" font-family="Helvetica,sans-Serif" font-size="10.00">+ _type_child_slots</text>
<polyline fill="none" stroke="black" points="81,-273 243,-273 "/>
<text text-anchor="start" x="89" y="-261" font-family="Helvetica,sans-Serif" font-size="10.00">+ TVM_FFI_DECLARE_OBJECT</text>
<text text-anchor="start" x="89" y="-250" font-family="Helvetica,sans-Serif" font-size="10.00">_INFO()</text>
</a>
</g>
</g>
<!-- Node2&#45;&gt;Node1 -->
<g id="edge1" class="edge">
<title>Node2&#45;&gt;Node1</title>
<path fill="none" stroke="midnightblue" d="M178.19,-233.33C192.42,-195.83 213.13,-141.25 228.11,-101.77"/>
<polygon fill="none" stroke="midnightblue" points="174.82,-232.36 174.54,-242.95 181.36,-234.84 174.82,-232.36"/>
</g>
<!-- Node3 -->
<g id="node3" class="node">
<title>Node3</title>
<g id="a_node3"><a xlink:href="classtvm_1_1RelaxExprNode.html" target="_top" xlink:title="Base node of all non&#45;primitive expressions.">
<polygon fill="white" stroke="black" points="81,-442.5 81,-521.5 243,-521.5 243,-442.5 81,-442.5"/>
<text text-anchor="middle" x="162" y="-509.5" font-family="Helvetica,sans-Serif" font-size="10.00">ExprNode</text>
<polyline fill="none" stroke="black" points="81,-502.5 243,-502.5 "/>
<text text-anchor="start" x="89" y="-490.5" font-family="Helvetica,sans-Serif" font-size="10.00">+ _type_child_slots</text>
<polyline fill="none" stroke="black" points="81,-483.5 243,-483.5 "/>
<text text-anchor="start" x="89" y="-471.5" font-family="Helvetica,sans-Serif" font-size="10.00">+ TVM_FFI_DECLARE_OBJECT</text>
<text text-anchor="start" x="89" y="-460.5" font-family="Helvetica,sans-Serif" font-size="10.00">_INFO()</text>
<text text-anchor="start" x="89" y="-449.5" font-family="Helvetica,sans-Serif" font-size="10.00">+ RegisterReflection()</text>
</a>
</g>
</g>
<!-- Node3&#45;&gt;Node2 -->
<g id="edge2" class="edge">
<title>Node3&#45;&gt;Node2</title>
<path fill="none" stroke="midnightblue" d="M162,-432.15C162,-394.69 162,-343.99 162,-311.14"/>
<polygon fill="none" stroke="midnightblue" points="158.5,-432.34 162,-442.34 165.5,-432.34 158.5,-432.34"/>
</g>
<!-- Node4 -->
<g id="node4" class="node">
<title>Node4</title>
<g id="a_node4"><a xlink:href="classtvm_1_1BaseExprNode.html" target="_top" xlink:title="Base type of all the expressions.">
<polygon fill="white" stroke="black" points="81,-559.5 81,-649.5 243,-649.5 243,-559.5 81,-559.5"/>
<text text-anchor="middle" x="162" y="-637.5" font-family="Helvetica,sans-Serif" font-size="10.00">tvm::BaseExprNode</text>
<polyline fill="none" stroke="black" points="81,-630.5 243,-630.5 "/>
<text text-anchor="start" x="89" y="-618.5" font-family="Helvetica,sans-Serif" font-size="10.00">+ _type_s_eq_hash_kind</text>
<text text-anchor="start" x="89" y="-607.5" font-family="Helvetica,sans-Serif" font-size="10.00">+ _type_child_slots</text>
<polyline fill="none" stroke="black" points="81,-600.5 243,-600.5 "/>
<text text-anchor="start" x="89" y="-588.5" font-family="Helvetica,sans-Serif" font-size="10.00">+ TVM_FFI_DECLARE_OBJECT</text>
<text text-anchor="start" x="89" y="-577.5" font-family="Helvetica,sans-Serif" font-size="10.00">_INFO()</text>
<text text-anchor="start" x="89" y="-566.5" font-family="Helvetica,sans-Serif" font-size="10.00">+ RegisterReflection()</text>
</a>
</g>
</g>
<!-- Node4&#45;&gt;Node3 -->
<g id="edge3" class="edge">
<title>Node4&#45;&gt;Node3</title>
<path fill="none" stroke="midnightblue" d="M162,-549.3C162,-539.97 162,-530.43 162,-521.61"/>
<polygon fill="none" stroke="midnightblue" points="158.5,-549.31 162,-559.31 165.5,-549.31 158.5,-549.31"/>
</g>
<!-- Node5 -->
<g id="node5" class="node">
<title>Node5</title>
<g id="a_node5"><a xlink:title=" ">
<polygon fill="white" stroke="#bfbfbf" points="0,-714 0,-771 64,-771 64,-714 0,-714"/>
<text text-anchor="middle" x="32" y="-759" font-family="Helvetica,sans-Serif" font-size="10.00">ffi::Object</text>
<polyline fill="none" stroke="#bfbfbf" points="0,-752 64,-752 "/>
<text text-anchor="middle" x="32" y="-740" font-family="Helvetica,sans-Serif" font-size="10.00"> </text>
<polyline fill="none" stroke="#bfbfbf" points="0,-733 64,-733 "/>
<text text-anchor="middle" x="32" y="-721" font-family="Helvetica,sans-Serif" font-size="10.00"> </text>
</a>
</g>
</g>
<!-- Node5&#45;&gt;Node4 -->
<g id="edge4" class="edge">
<title>Node5&#45;&gt;Node4</title>
<path fill="none" stroke="midnightblue" d="M64.28,-706.29C67.22,-703.14 70.16,-700 73,-697 87.63,-681.55 103.8,-664.82 118.3,-649.94"/>
<polygon fill="none" stroke="midnightblue" points="61.71,-703.91 57.47,-713.62 66.84,-708.67 61.71,-703.91"/>
</g>
<!-- Node6 -->
<g id="node6" class="node">
<title>Node6</title>
<g id="a_node6"><a xlink:href="classtvm_1_1Span.html" target="_top" xlink:title=" ">
<polygon fill="white" stroke="black" points="82.5,-697.5 82.5,-787.5 241.5,-787.5 241.5,-697.5 82.5,-697.5"/>
<text text-anchor="middle" x="162" y="-775.5" font-family="Helvetica,sans-Serif" font-size="10.00">tvm::Span</text>
<polyline fill="none" stroke="black" points="82.5,-768.5 241.5,-768.5 "/>
<text text-anchor="middle" x="162" y="-756.5" font-family="Helvetica,sans-Serif" font-size="10.00"> </text>
<polyline fill="none" stroke="black" points="82.5,-749.5 241.5,-749.5 "/>
<text text-anchor="start" x="90.5" y="-737.5" font-family="Helvetica,sans-Serif" font-size="10.00">+ Span()</text>
<text text-anchor="start" x="90.5" y="-726.5" font-family="Helvetica,sans-Serif" font-size="10.00">+ Merge()</text>
<text text-anchor="start" x="90.5" y="-715.5" font-family="Helvetica,sans-Serif" font-size="10.00">+ TVM_FFI_DEFINE_OBJECT</text>
<text text-anchor="start" x="90.5" y="-704.5" font-family="Helvetica,sans-Serif" font-size="10.00">_REF_METHODS_NULLABLE()</text>
</a>
</g>
</g>
<!-- Node6&#45;&gt;Node4 -->
<g id="edge5" class="edge">
<title>Node6&#45;&gt;Node4</title>
<path fill="none" stroke="#404040" d="M162,-697.34C162,-686.06 162,-673.78 162,-661.97"/>
<polygon fill="none" stroke="#404040" points="162,-661.9 158,-655.9 162,-649.9 166,-655.9 162,-661.9"/>
<text text-anchor="middle" x="179.5" y="-671" font-family="Helvetica,sans-Serif" font-size="10.00"> +span</text>
</g>
<!-- Node7 -->
<g id="node7" class="node">
<title>Node7</title>
<g id="a_node7"><a xlink:title=" ">
<polygon fill="white" stroke="#bfbfbf" points="210,-825.5 210,-882.5 290,-882.5 290,-825.5 210,-825.5"/>
<text text-anchor="middle" x="250" y="-870.5" font-family="Helvetica,sans-Serif" font-size="10.00">ffi::ObjectRef</text>
<polyline fill="none" stroke="#bfbfbf" points="210,-863.5 290,-863.5 "/>
<text text-anchor="middle" x="250" y="-851.5" font-family="Helvetica,sans-Serif" font-size="10.00"> </text>
<polyline fill="none" stroke="#bfbfbf" points="210,-844.5 290,-844.5 "/>
<text text-anchor="middle" x="250" y="-832.5" font-family="Helvetica,sans-Serif" font-size="10.00"> </text>
</a>
</g>
</g>
<!-- Node7&#45;&gt;Node6 -->
<g id="edge6" class="edge">
<title>Node7&#45;&gt;Node6</title>
<path fill="none" stroke="midnightblue" d="M221.33,-817.33C213.74,-807.89 205.46,-797.58 197.56,-787.74"/>
<polygon fill="none" stroke="midnightblue" points="218.8,-819.77 227.79,-825.37 224.26,-815.38 218.8,-819.77"/>
</g>
<!-- Node8 -->
<g id="node8" class="node">
<title>Node8</title>
<g id="a_node8"><a xlink:href="classtvm_1_1Type.html" target="_top" xlink:title="Managed reference to TypeNode.">
<polygon fill="white" stroke="black" points="259.5,-708.5 259.5,-776.5 418.5,-776.5 418.5,-708.5 259.5,-708.5"/>
<text text-anchor="middle" x="339" y="-764.5" font-family="Helvetica,sans-Serif" font-size="10.00">tvm::Type</text>
<polyline fill="none" stroke="black" points="259.5,-757.5 418.5,-757.5 "/>
<text text-anchor="middle" x="339" y="-745.5" font-family="Helvetica,sans-Serif" font-size="10.00"> </text>
<polyline fill="none" stroke="black" points="259.5,-738.5 418.5,-738.5 "/>
<text text-anchor="start" x="267.5" y="-726.5" font-family="Helvetica,sans-Serif" font-size="10.00">+ TVM_FFI_DEFINE_OBJECT</text>
<text text-anchor="start" x="267.5" y="-715.5" font-family="Helvetica,sans-Serif" font-size="10.00">_REF_METHODS_NULLABLE()</text>
</a>
</g>
</g>
<!-- Node7&#45;&gt;Node8 -->
<g id="edge8" class="edge">
<title>Node7&#45;&gt;Node8</title>
<path fill="none" stroke="midnightblue" d="M278.9,-817.44C289.58,-804.31 301.62,-789.49 312.11,-776.59"/>
<polygon fill="none" stroke="midnightblue" points="276.05,-815.4 272.46,-825.37 281.48,-819.82 276.05,-815.4"/>
</g>
<!-- Node8&#45;&gt;Node4 -->
<g id="edge7" class="edge">
<title>Node8&#45;&gt;Node4</title>
<path fill="none" stroke="#404040" d="M295.7,-708.23C275.73,-692.89 251.56,-674.32 229.3,-657.21"/>
<polygon fill="none" stroke="#404040" points="229.07,-657.04 221.88,-656.55 219.56,-649.73 226.75,-650.21 229.07,-657.04"/>
<text text-anchor="middle" x="267" y="-671" font-family="Helvetica,sans-Serif" font-size="10.00"> +ty</text>
</g>
<!-- Node9 -->
<g id="node9" class="node">
<title>Node9</title>
<g id="a_node9"><a xlink:href="classtvm_1_1runtime_1_1Tensor.html" target="_top" xlink:title="Managed Tensor. The array is backed by reference counted blocks.">
<polygon fill="white" stroke="black" points="261.5,-149.5 261.5,-404.5 404.5,-404.5 404.5,-149.5 261.5,-149.5"/>
<text text-anchor="middle" x="333" y="-392.5" font-family="Helvetica,sans-Serif" font-size="10.00">tvm::runtime::Tensor</text>
<polyline fill="none" stroke="black" points="261.5,-385.5 404.5,-385.5 "/>
<text text-anchor="middle" x="333" y="-373.5" font-family="Helvetica,sans-Serif" font-size="10.00"> </text>
<polyline fill="none" stroke="black" points="261.5,-366.5 404.5,-366.5 "/>
<text text-anchor="start" x="269.5" y="-354.5" font-family="Helvetica,sans-Serif" font-size="10.00">+ Tensor()</text>
<text text-anchor="start" x="269.5" y="-343.5" font-family="Helvetica,sans-Serif" font-size="10.00">+ Tensor()</text>
<text text-anchor="start" x="269.5" y="-332.5" font-family="Helvetica,sans-Serif" font-size="10.00">+ Tensor()</text>
<text text-anchor="start" x="269.5" y="-321.5" font-family="Helvetica,sans-Serif" font-size="10.00">+ Tensor()</text>
<text text-anchor="start" x="269.5" y="-310.5" font-family="Helvetica,sans-Serif" font-size="10.00">+ Tensor()</text>
<text text-anchor="start" x="269.5" y="-299.5" font-family="Helvetica,sans-Serif" font-size="10.00">+ Shape()</text>
<text text-anchor="start" x="269.5" y="-288.5" font-family="Helvetica,sans-Serif" font-size="10.00">+ DataType()</text>
<text text-anchor="start" x="269.5" y="-277.5" font-family="Helvetica,sans-Serif" font-size="10.00">+ operator&#45;&gt;()</text>
<text text-anchor="start" x="269.5" y="-266.5" font-family="Helvetica,sans-Serif" font-size="10.00">+ CopyFrom()</text>
<text text-anchor="start" x="269.5" y="-255.5" font-family="Helvetica,sans-Serif" font-size="10.00">+ CopyFrom()</text>
<text text-anchor="start" x="269.5" y="-244.5" font-family="Helvetica,sans-Serif" font-size="10.00">and 8 more...</text>
<text text-anchor="start" x="269.5" y="-233.5" font-family="Helvetica,sans-Serif" font-size="10.00">+ FromDLPack()</text>
<text text-anchor="start" x="269.5" y="-222.5" font-family="Helvetica,sans-Serif" font-size="10.00">+ FromDLPackVersioned()</text>
<text text-anchor="start" x="269.5" y="-211.5" font-family="Helvetica,sans-Serif" font-size="10.00">+ Empty()</text>
<text text-anchor="start" x="269.5" y="-200.5" font-family="Helvetica,sans-Serif" font-size="10.00">+ CopyFromTo()</text>
<text text-anchor="start" x="269.5" y="-189.5" font-family="Helvetica,sans-Serif" font-size="10.00">+ CopyToBytes()</text>
<text text-anchor="start" x="269.5" y="-178.5" font-family="Helvetica,sans-Serif" font-size="10.00">+ CopyFromBytes()</text>
<text text-anchor="start" x="269.5" y="-167.5" font-family="Helvetica,sans-Serif" font-size="10.00">+ IsStorageShared()</text>
<text text-anchor="start" x="269.5" y="-156.5" font-family="Helvetica,sans-Serif" font-size="10.00">+ IsStorageShared()</text>
</a>
</g>
</g>
<!-- Node9&#45;&gt;Node1 -->
<g id="edge9" class="edge">
<title>Node9&#45;&gt;Node1</title>
<path fill="none" stroke="#404040" d="M284.35,-149.27C279.55,-136.78 274.85,-124.54 270.49,-113.18"/>
<polygon fill="none" stroke="#404040" points="270.38,-112.9 264.5,-108.73 266.08,-101.7 271.96,-105.86 270.38,-112.9"/>
<text text-anchor="middle" x="295" y="-123" font-family="Helvetica,sans-Serif" font-size="10.00"> +data</text>
</g>
<!-- Node10 -->
<g id="node10" class="node">
<title>Node10</title>
<g id="a_node10"><a xlink:title=" ">
<polygon fill="white" stroke="#bfbfbf" points="288.5,-453.5 288.5,-510.5 377.5,-510.5 377.5,-453.5 288.5,-453.5"/>
<text text-anchor="middle" x="333" y="-498.5" font-family="Helvetica,sans-Serif" font-size="10.00">tvm::ffi::Tensor</text>
<polyline fill="none" stroke="#bfbfbf" points="288.5,-491.5 377.5,-491.5 "/>
<text text-anchor="middle" x="333" y="-479.5" font-family="Helvetica,sans-Serif" font-size="10.00"> </text>
<polyline fill="none" stroke="#bfbfbf" points="288.5,-472.5 377.5,-472.5 "/>
<text text-anchor="middle" x="333" y="-460.5" font-family="Helvetica,sans-Serif" font-size="10.00"> </text>
</a>
</g>
</g>
<!-- Node10&#45;&gt;Node9 -->
<g id="edge10" class="edge">
<title>Node10&#45;&gt;Node9</title>
<path fill="none" stroke="midnightblue" d="M333,-442.88C333,-431.52 333,-418.39 333,-404.59"/>
<polygon fill="none" stroke="midnightblue" points="329.5,-443.2 333,-453.2 336.5,-443.2 329.5,-443.2"/>
</g>
</g>
</svg>
