<?xml version="1.0" encoding="UTF-8" standalone="no"?>
<!DOCTYPE svg PUBLIC "-//W3C//DTD SVG 1.1//EN"
 "http://www.w3.org/Graphics/SVG/1.1/DTD/svg11.dtd">
<!-- Generated by graphviz version 2.43.0 (0)
 -->
<!-- Title: tvm::BaseFuncNode Pages: 1 -->
<svg width="604pt" height="799pt"
 viewBox="0.00 0.00 603.50 799.00" xmlns="http://www.w3.org/2000/svg" xmlns:xlink="http://www.w3.org/1999/xlink">
<g id="graph0" class="graph" transform="scale(1 1) rotate(0) translate(4 795)">
<title>tvm::BaseFuncNode</title>
<polygon fill="white" stroke="transparent" points="-4,4 -4,-795 599.5,-795 599.5,4 -4,4"/>
<!-- Node1 -->
<g id="node1" class="node">
<title>Node1</title>
<g id="a_node1"><a xlink:title="Base node of all functions.">
<polygon fill="#bfbfbf" stroke="black" points="256,-0.5 256,-123.5 418,-123.5 418,-0.5 256,-0.5"/>
<text text-anchor="middle" x="337" y="-111.5" font-family="Helvetica,sans-Serif" font-size="10.00">tvm::BaseFuncNode</text>
<polyline fill="none" stroke="black" points="256,-104.5 418,-104.5 "/>
<text text-anchor="start" x="264" y="-92.5" font-family="Helvetica,sans-Serif" font-size="10.00">+ _type_child_slots</text>
<polyline fill="none" stroke="black" points="256,-85.5 418,-85.5 "/>
<text text-anchor="start" x="264" y="-73.5" font-family="Helvetica,sans-Serif" font-size="10.00">+ GetAttr()</text>
<text text-anchor="start" x="264" y="-62.5" font-family="Helvetica,sans-Serif" font-size="10.00">+ GetAttr()</text>
<text text-anchor="start" x="264" y="-51.5" font-family="Helvetica,sans-Serif" font-size="10.00">+ HasNonzeroAttr()</text>
<text text-anchor="start" x="264" y="-40.5" font-family="Helvetica,sans-Serif" font-size="10.00">+ GetLinkageType()</text>
<text text-anchor="start" x="264" y="-29.5" font-family="Helvetica,sans-Serif" font-size="10.00">+ TVM_FFI_DECLARE_OBJECT</text>
<text text-anchor="start" x="264" y="-18.5" font-family="Helvetica,sans-Serif" font-size="10.00">_INFO()</text>
<text text-anchor="start" x="264" y="-7.5" font-family="Helvetica,sans-Serif" font-size="10.00">+ RegisterReflection()</text>
</a>
</g>
</g>
<!-- Node2 -->
<g id="node2" class="node">
<title>Node2</title>
<g id="a_node2"><a xlink:href="classtvm_1_1RelaxExprNode.html" target="_top" xlink:title="Base node of all non&#45;primitive expressions.">
<polygon fill="white" stroke="black" points="193,-161.5 193,-240.5 355,-240.5 355,-161.5 193,-161.5"/>
<text text-anchor="middle" x="274" y="-228.5" font-family="Helvetica,sans-Serif" font-size="10.00">tvm::RelaxExprNode</text>
<polyline fill="none" stroke="black" points="193,-221.5 355,-221.5 "/>
<text text-anchor="start" x="201" y="-209.5" font-family="Helvetica,sans-Serif" font-size="10.00">+ _type_child_slots</text>
<polyline fill="none" stroke="black" points="193,-202.5 355,-202.5 "/>
<text text-anchor="start" x="201" y="-190.5" font-family="Helvetica,sans-Serif" font-size="10.00">+ TVM_FFI_DECLARE_OBJECT</text>
<text text-anchor="start" x="201" y="-179.5" font-family="Helvetica,sans-Serif" font-size="10.00">_INFO()</text>
<text text-anchor="start" x="201" y="-168.5" font-family="Helvetica,sans-Serif" font-size="10.00">+ RegisterReflection()</text>
</a>
</g>
</g>
<!-- Node2&#45;&gt;Node1 -->
<g id="edge1" class="edge">
<title>Node2&#45;&gt;Node1</title>
<path fill="none" stroke="midnightblue" d="M295.9,-152.38C300.18,-143.07 304.72,-133.19 309.17,-123.53"/>
<polygon fill="none" stroke="midnightblue" points="292.71,-150.93 291.72,-161.47 299.07,-153.85 292.71,-150.93"/>
</g>
<!-- Node3 -->
<g id="node3" class="node">
<title>Node3</title>
<g id="a_node3"><a xlink:href="classtvm_1_1BaseExprNode.html" target="_top" xlink:title="Base type of all the expressions.">
<polygon fill="white" stroke="black" points="121,-467.5 121,-557.5 283,-557.5 283,-467.5 121,-467.5"/>
<text text-anchor="middle" x="202" y="-545.5" font-family="Helvetica,sans-Serif" font-size="10.00">tvm::BaseExprNode</text>
<polyline fill="none" stroke="black" points="121,-538.5 283,-538.5 "/>
<text text-anchor="start" x="129" y="-526.5" font-family="Helvetica,sans-Serif" font-size="10.00">+ _type_s_eq_hash_kind</text>
<text text-anchor="start" x="129" y="-515.5" font-family="Helvetica,sans-Serif" font-size="10.00">+ _type_child_slots</text>
<polyline fill="none" stroke="black" points="121,-508.5 283,-508.5 "/>
<text text-anchor="start" x="129" y="-496.5" font-family="Helvetica,sans-Serif" font-size="10.00">+ TVM_FFI_DECLARE_OBJECT</text>
<text text-anchor="start" x="129" y="-485.5" font-family="Helvetica,sans-Serif" font-size="10.00">_INFO()</text>
<text text-anchor="start" x="129" y="-474.5" font-family="Helvetica,sans-Serif" font-size="10.00">+ RegisterReflection()</text>
</a>
</g>
</g>
<!-- Node3&#45;&gt;Node2 -->
<g id="edge2" class="edge">
<title>Node3&#45;&gt;Node2</title>
<path fill="none" stroke="midnightblue" d="M214.56,-457.52C228.95,-395.64 252.2,-295.73 264.93,-240.97"/>
<polygon fill="none" stroke="midnightblue" points="211.1,-456.95 212.24,-467.48 217.91,-458.54 211.1,-456.95"/>
</g>
<!-- Node4 -->
<g id="node4" class="node">
<title>Node4</title>
<g id="a_node4"><a xlink:title=" ">
<polygon fill="white" stroke="#bfbfbf" points="0,-622 0,-679 64,-679 64,-622 0,-622"/>
<text text-anchor="middle" x="32" y="-667" font-family="Helvetica,sans-Serif" font-size="10.00">ffi::Object</text>
<polyline fill="none" stroke="#bfbfbf" points="0,-660 64,-660 "/>
<text text-anchor="middle" x="32" y="-648" font-family="Helvetica,sans-Serif" font-size="10.00"> </text>
<polyline fill="none" stroke="#bfbfbf" points="0,-641 64,-641 "/>
<text text-anchor="middle" x="32" y="-629" font-family="Helvetica,sans-Serif" font-size="10.00"> </text>
</a>
</g>
</g>
<!-- Node4&#45;&gt;Node3 -->
<g id="edge3" class="edge">
<title>Node4&#45;&gt;Node3</title>
<path fill="none" stroke="midnightblue" d="M62.93,-614.49C66.23,-611.19 69.63,-607.97 73,-605 91.86,-588.4 113.72,-571.98 134.02,-557.73"/>
<polygon fill="none" stroke="midnightblue" points="60.3,-612.17 55.85,-621.79 65.33,-617.04 60.3,-612.17"/>
</g>
<!-- Node5 -->
<g id="node5" class="node">
<title>Node5</title>
<g id="a_node5"><a xlink:href="classtvm_1_1Span.html" target="_top" xlink:title=" ">
<polygon fill="white" stroke="black" points="82.5,-605.5 82.5,-695.5 241.5,-695.5 241.5,-605.5 82.5,-605.5"/>
<text text-anchor="middle" x="162" y="-683.5" font-family="Helvetica,sans-Serif" font-size="10.00">tvm::Span</text>
<polyline fill="none" stroke="black" points="82.5,-676.5 241.5,-676.5 "/>
<text text-anchor="middle" x="162" y="-664.5" font-family="Helvetica,sans-Serif" font-size="10.00"> </text>
<polyline fill="none" stroke="black" points="82.5,-657.5 241.5,-657.5 "/>
<text text-anchor="start" x="90.5" y="-645.5" font-family="Helvetica,sans-Serif" font-size="10.00">+ Span()</text>
<text text-anchor="start" x="90.5" y="-634.5" font-family="Helvetica,sans-Serif" font-size="10.00">+ Merge()</text>
<text text-anchor="start" x="90.5" y="-623.5" font-family="Helvetica,sans-Serif" font-size="10.00">+ TVM_FFI_DEFINE_OBJECT</text>
<text text-anchor="start" x="90.5" y="-612.5" font-family="Helvetica,sans-Serif" font-size="10.00">_REF_METHODS_NULLABLE()</text>
</a>
</g>
</g>
<!-- Node5&#45;&gt;Node3 -->
<g id="edge4" class="edge">
<title>Node5&#45;&gt;Node3</title>
<path fill="none" stroke="#404040" d="M174.99,-605.34C178.34,-593.94 181.99,-581.52 185.5,-569.6"/>
<polygon fill="none" stroke="#404040" points="185.56,-569.41 183.41,-562.53 188.94,-557.9 191.09,-564.78 185.56,-569.41"/>
<text text-anchor="middle" x="201.5" y="-579" font-family="Helvetica,sans-Serif" font-size="10.00"> +span</text>
</g>
<!-- Node6 -->
<g id="node6" class="node">
<title>Node6</title>
<g id="a_node6"><a xlink:title=" ">
<polygon fill="white" stroke="#bfbfbf" points="299,-733.5 299,-790.5 379,-790.5 379,-733.5 299,-733.5"/>
<text text-anchor="middle" x="339" y="-778.5" font-family="Helvetica,sans-Serif" font-size="10.00">ffi::ObjectRef</text>
<polyline fill="none" stroke="#bfbfbf" points="299,-771.5 379,-771.5 "/>
<text text-anchor="middle" x="339" y="-759.5" font-family="Helvetica,sans-Serif" font-size="10.00"> </text>
<polyline fill="none" stroke="#bfbfbf" points="299,-752.5 379,-752.5 "/>
<text text-anchor="middle" x="339" y="-740.5" font-family="Helvetica,sans-Serif" font-size="10.00"> </text>
</a>
</g>
</g>
<!-- Node6&#45;&gt;Node5 -->
<g id="edge5" class="edge">
<title>Node6&#45;&gt;Node5</title>
<path fill="none" stroke="midnightblue" d="M289.93,-730.64C272.41,-719.81 252.3,-707.37 233.3,-695.61"/>
<polygon fill="none" stroke="midnightblue" points="288.49,-733.87 298.84,-736.15 292.17,-727.92 288.49,-733.87"/>
</g>
<!-- Node7 -->
<g id="node7" class="node">
<title>Node7</title>
<g id="a_node7"><a xlink:href="classtvm_1_1Type.html" target="_top" xlink:title="Managed reference to TypeNode.">
<polygon fill="white" stroke="black" points="259.5,-616.5 259.5,-684.5 418.5,-684.5 418.5,-616.5 259.5,-616.5"/>
<text text-anchor="middle" x="339" y="-672.5" font-family="Helvetica,sans-Serif" font-size="10.00">tvm::Type</text>
<polyline fill="none" stroke="black" points="259.5,-665.5 418.5,-665.5 "/>
<text text-anchor="middle" x="339" y="-653.5" font-family="Helvetica,sans-Serif" font-size="10.00"> </text>
<polyline fill="none" stroke="black" points="259.5,-646.5 418.5,-646.5 "/>
<text text-anchor="start" x="267.5" y="-634.5" font-family="Helvetica,sans-Serif" font-size="10.00">+ TVM_FFI_DEFINE_OBJECT</text>
<text text-anchor="start" x="267.5" y="-623.5" font-family="Helvetica,sans-Serif" font-size="10.00">_REF_METHODS_NULLABLE()</text>
</a>
</g>
</g>
<!-- Node6&#45;&gt;Node7 -->
<g id="edge7" class="edge">
<title>Node6&#45;&gt;Node7</title>
<path fill="none" stroke="midnightblue" d="M339,-723.2C339,-710.64 339,-696.76 339,-684.59"/>
<polygon fill="none" stroke="midnightblue" points="335.5,-723.37 339,-733.37 342.5,-723.37 335.5,-723.37"/>
</g>
<!-- Node9 -->
<g id="node9" class="node">
<title>Node9</title>
<g id="a_node9"><a xlink:href="classtvm_1_1Attrs.html" target="_top" xlink:title="Managed reference to AttrsNode.">
<polygon fill="white" stroke="black" points="436.5,-616.5 436.5,-684.5 595.5,-684.5 595.5,-616.5 436.5,-616.5"/>
<text text-anchor="middle" x="516" y="-672.5" font-family="Helvetica,sans-Serif" font-size="10.00">tvm::Attrs</text>
<polyline fill="none" stroke="black" points="436.5,-665.5 595.5,-665.5 "/>
<text text-anchor="middle" x="516" y="-653.5" font-family="Helvetica,sans-Serif" font-size="10.00"> </text>
<polyline fill="none" stroke="black" points="436.5,-646.5 595.5,-646.5 "/>
<text text-anchor="start" x="444.5" y="-634.5" font-family="Helvetica,sans-Serif" font-size="10.00">+ TVM_FFI_DEFINE_OBJECT</text>
<text text-anchor="start" x="444.5" y="-623.5" font-family="Helvetica,sans-Serif" font-size="10.00">_REF_METHODS_NULLABLE()</text>
</a>
</g>
</g>
<!-- Node6&#45;&gt;Node9 -->
<g id="edge10" class="edge">
<title>Node6&#45;&gt;Node9</title>
<path fill="none" stroke="midnightblue" d="M387.81,-730.8C411.01,-716.45 438.8,-699.26 462.57,-684.56"/>
<polygon fill="none" stroke="midnightblue" points="385.83,-727.92 379.16,-736.15 389.51,-733.87 385.83,-727.92"/>
</g>
<!-- Node7&#45;&gt;Node3 -->
<g id="edge6" class="edge">
<title>Node7&#45;&gt;Node3</title>
<path fill="none" stroke="#404040" d="M305.49,-616.23C290.38,-601.23 272.16,-583.15 255.25,-566.36"/>
<polygon fill="none" stroke="#404040" points="255.07,-566.18 247.99,-564.79 246.55,-557.73 253.63,-559.11 255.07,-566.18"/>
<text text-anchor="middle" x="286" y="-579" font-family="Helvetica,sans-Serif" font-size="10.00"> +ty</text>
</g>
<!-- Node8 -->
<g id="node8" class="node">
<title>Node8</title>
<g id="a_node8"><a xlink:href="classtvm_1_1DictAttrs.html" target="_top" xlink:title="Managed reference to DictAttrsNode.">
<polygon fill="white" stroke="black" points="324,-259.5 324,-448.5 480,-448.5 480,-259.5 324,-259.5"/>
<text text-anchor="middle" x="402" y="-436.5" font-family="Helvetica,sans-Serif" font-size="10.00">tvm::DictAttrs</text>
<polyline fill="none" stroke="black" points="324,-429.5 480,-429.5 "/>
<text text-anchor="start" x="332" y="-417.5" font-family="Helvetica,sans-Serif" font-size="10.00">+ _type_is_nullable</text>
<polyline fill="none" stroke="black" points="324,-410.5 480,-410.5 "/>
<text text-anchor="start" x="332" y="-398.5" font-family="Helvetica,sans-Serif" font-size="10.00">+ DictAttrs()</text>
<text text-anchor="start" x="332" y="-387.5" font-family="Helvetica,sans-Serif" font-size="10.00">+ DictAttrs()</text>
<text text-anchor="start" x="332" y="-376.5" font-family="Helvetica,sans-Serif" font-size="10.00">+ operator=()</text>
<text text-anchor="start" x="332" y="-365.5" font-family="Helvetica,sans-Serif" font-size="10.00">+ DictAttrs()</text>
<text text-anchor="start" x="332" y="-354.5" font-family="Helvetica,sans-Serif" font-size="10.00">+ operator=()</text>
<text text-anchor="start" x="332" y="-343.5" font-family="Helvetica,sans-Serif" font-size="10.00">+ GetAttr()</text>
<text text-anchor="start" x="332" y="-332.5" font-family="Helvetica,sans-Serif" font-size="10.00">+ GetAttr()</text>
<text text-anchor="start" x="332" y="-321.5" font-family="Helvetica,sans-Serif" font-size="10.00">+ HasNonzeroAttr()</text>
<text text-anchor="start" x="332" y="-310.5" font-family="Helvetica,sans-Serif" font-size="10.00">+ DictAttrs()</text>
<text text-anchor="start" x="332" y="-299.5" font-family="Helvetica,sans-Serif" font-size="10.00">+ operator&#45;&gt;()</text>
<text text-anchor="start" x="332" y="-288.5" font-family="Helvetica,sans-Serif" font-size="10.00">+ get()</text>
<text text-anchor="start" x="332" y="-277.5" font-family="Helvetica,sans-Serif" font-size="10.00">+ TVM_DEFINE_OBJECT_REF</text>
<text text-anchor="start" x="332" y="-266.5" font-family="Helvetica,sans-Serif" font-size="10.00">_COW_METHOD()</text>
</a>
</g>
</g>
<!-- Node8&#45;&gt;Node1 -->
<g id="edge8" class="edge">
<title>Node8&#45;&gt;Node1</title>
<path fill="none" stroke="#404040" d="M384.91,-259.44C378.8,-228.05 371.54,-192.91 364,-161 362.03,-152.68 359.84,-143.99 357.58,-135.38"/>
<polygon fill="none" stroke="#404040" points="357.57,-135.32 352.16,-130.55 354.48,-123.72 359.89,-128.49 357.57,-135.32"/>
<text text-anchor="middle" x="398" y="-198.5" font-family="Helvetica,sans-Serif" font-size="10.00"> +attrs</text>
</g>
<!-- Node9&#45;&gt;Node8 -->
<g id="edge9" class="edge">
<title>Node9&#45;&gt;Node8</title>
<path fill="none" stroke="midnightblue" d="M499.48,-606.83C483.52,-565.6 458.81,-501.76 438.26,-448.68"/>
<polygon fill="none" stroke="midnightblue" points="496.27,-608.23 503.14,-616.29 502.8,-605.7 496.27,-608.23"/>
</g>
</g>
</svg>
