<?xml version="1.0" encoding="UTF-8" standalone="no"?>
<!DOCTYPE svg PUBLIC "-//W3C//DTD SVG 1.1//EN"
 "http://www.w3.org/Graphics/SVG/1.1/DTD/svg11.dtd">
<!-- Generated by graphviz version 2.43.0 (0)
 -->
<!-- Title: tvm::tirx::Stmt Pages: 1 -->
<svg width="3176pt" height="342pt"
 viewBox="0.00 0.00 3176.00 342.00" xmlns="http://www.w3.org/2000/svg" xmlns:xlink="http://www.w3.org/1999/xlink">
<g id="graph0" class="graph" transform="scale(1 1) rotate(0) translate(4 338)">
<title>tvm::tirx::Stmt</title>
<polygon fill="white" stroke="transparent" points="-4,4 -4,-338 3172,-338 3172,4 -4,4"/>
<!-- Node1 -->
<g id="node1" class="node">
<title>Node1</title>
<g id="a_node1"><a xlink:title="Container of all statements.">
<polygon fill="#bfbfbf" stroke="black" points="1504,-171.5 1504,-239.5 1663,-239.5 1663,-171.5 1504,-171.5"/>
<text text-anchor="middle" x="1583.5" y="-227.5" font-family="Helvetica,sans-Serif" font-size="10.00">tvm::tirx::Stmt</text>
<polyline fill="none" stroke="black" points="1504,-220.5 1663,-220.5 "/>
<text text-anchor="middle" x="1583.5" y="-208.5" font-family="Helvetica,sans-Serif" font-size="10.00"> </text>
<polyline fill="none" stroke="black" points="1504,-201.5 1663,-201.5 "/>
<text text-anchor="start" x="1512" y="-189.5" font-family="Helvetica,sans-Serif" font-size="10.00">+ TVM_FFI_DEFINE_OBJECT</text>
<text text-anchor="start" x="1512" y="-178.5" font-family="Helvetica,sans-Serif" font-size="10.00">_REF_METHODS_NULLABLE()</text>
</a>
</g>
</g>
<!-- Node3 -->
<g id="node3" class="node">
<title>Node3</title>
<g id="a_node3"><a xlink:href="classtvm_1_1tirx_1_1AllocBuffer.html" target="_top" xlink:title="Managed reference to AllocBufferNode.">
<polygon fill="white" stroke="black" points="0,-11.5 0,-123.5 159,-123.5 159,-11.5 0,-11.5"/>
<text text-anchor="middle" x="79.5" y="-111.5" font-family="Helvetica,sans-Serif" font-size="10.00">tvm::tirx::AllocBuffer</text>
<polyline fill="none" stroke="black" points="0,-104.5 159,-104.5 "/>
<text text-anchor="middle" x="79.5" y="-92.5" font-family="Helvetica,sans-Serif" font-size="10.00"> </text>
<polyline fill="none" stroke="black" points="0,-85.5 159,-85.5 "/>
<text text-anchor="start" x="8" y="-73.5" font-family="Helvetica,sans-Serif" font-size="10.00">+ AllocBuffer()</text>
<text text-anchor="start" x="8" y="-62.5" font-family="Helvetica,sans-Serif" font-size="10.00">+ ConstantAllocationSize()</text>
<text text-anchor="start" x="8" y="-51.5" font-family="Helvetica,sans-Serif" font-size="10.00">+ TVM_FFI_DEFINE_OBJECT</text>
<text text-anchor="start" x="8" y="-40.5" font-family="Helvetica,sans-Serif" font-size="10.00">_REF_METHODS_NULLABLE()</text>
<text text-anchor="start" x="8" y="-29.5" font-family="Helvetica,sans-Serif" font-size="10.00">+ TVM_DEFINE_OBJECT_REF</text>
<text text-anchor="start" x="8" y="-18.5" font-family="Helvetica,sans-Serif" font-size="10.00">_COW_METHOD()</text>
</a>
</g>
</g>
<!-- Node1&#45;&gt;Node3 -->
<g id="edge2" class="edge">
<title>Node1&#45;&gt;Node3</title>
<path fill="none" stroke="midnightblue" d="M1493.54,-203.16C1201.48,-198.38 291.55,-180.01 167.5,-135 159.4,-132.06 151.43,-128.1 143.79,-123.57"/>
<polygon fill="none" stroke="midnightblue" points="1493.61,-206.66 1503.66,-203.32 1493.72,-199.66 1493.61,-206.66"/>
</g>
<!-- Node4 -->
<g id="node4" class="node">
<title>Node4</title>
<g id="a_node4"><a xlink:href="classtvm_1_1tirx_1_1AssertStmt.html" target="_top" xlink:title="Managed reference to AssertStmtNode.">
<polygon fill="white" stroke="black" points="177,-17 177,-118 336,-118 336,-17 177,-17"/>
<text text-anchor="middle" x="256.5" y="-106" font-family="Helvetica,sans-Serif" font-size="10.00">tvm::tirx::AssertStmt</text>
<polyline fill="none" stroke="black" points="177,-99 336,-99 "/>
<text text-anchor="middle" x="256.5" y="-87" font-family="Helvetica,sans-Serif" font-size="10.00"> </text>
<polyline fill="none" stroke="black" points="177,-80 336,-80 "/>
<text text-anchor="start" x="185" y="-68" font-family="Helvetica,sans-Serif" font-size="10.00">+ AssertStmt()</text>
<text text-anchor="start" x="185" y="-57" font-family="Helvetica,sans-Serif" font-size="10.00">+ TVM_FFI_DEFINE_OBJECT</text>
<text text-anchor="start" x="185" y="-46" font-family="Helvetica,sans-Serif" font-size="10.00">_REF_METHODS_NULLABLE()</text>
<text text-anchor="start" x="185" y="-35" font-family="Helvetica,sans-Serif" font-size="10.00">+ TVM_DEFINE_OBJECT_REF</text>
<text text-anchor="start" x="185" y="-24" font-family="Helvetica,sans-Serif" font-size="10.00">_COW_METHOD()</text>
</a>
</g>
</g>
<!-- Node1&#45;&gt;Node4 -->
<g id="edge3" class="edge">
<title>Node1&#45;&gt;Node4</title>
<path fill="none" stroke="midnightblue" d="M1493.54,-202.48C1226.69,-196.06 451.4,-174.21 344.5,-135 333.35,-130.91 322.44,-124.9 312.31,-118.14"/>
<polygon fill="none" stroke="midnightblue" points="1493.5,-205.98 1503.58,-202.72 1493.67,-198.98 1493.5,-205.98"/>
</g>
<!-- Node5 -->
<g id="node5" class="node">
<title>Node5</title>
<g id="a_node5"><a xlink:href="classtvm_1_1tirx_1_1AttrStmt.html" target="_top" xlink:title="Managed reference to AttrStmtNode.">
<polygon fill="white" stroke="black" points="354,-17 354,-118 513,-118 513,-17 354,-17"/>
<text text-anchor="middle" x="433.5" y="-106" font-family="Helvetica,sans-Serif" font-size="10.00">tvm::tirx::AttrStmt</text>
<polyline fill="none" stroke="black" points="354,-99 513,-99 "/>
<text text-anchor="middle" x="433.5" y="-87" font-family="Helvetica,sans-Serif" font-size="10.00"> </text>
<polyline fill="none" stroke="black" points="354,-80 513,-80 "/>
<text text-anchor="start" x="362" y="-68" font-family="Helvetica,sans-Serif" font-size="10.00">+ AttrStmt()</text>
<text text-anchor="start" x="362" y="-57" font-family="Helvetica,sans-Serif" font-size="10.00">+ TVM_FFI_DEFINE_OBJECT</text>
<text text-anchor="start" x="362" y="-46" font-family="Helvetica,sans-Serif" font-size="10.00">_REF_METHODS_NULLABLE()</text>
<text text-anchor="start" x="362" y="-35" font-family="Helvetica,sans-Serif" font-size="10.00">+ TVM_DEFINE_OBJECT_REF</text>
<text text-anchor="start" x="362" y="-24" font-family="Helvetica,sans-Serif" font-size="10.00">_COW_METHOD()</text>
</a>
</g>
</g>
<!-- Node1&#45;&gt;Node5 -->
<g id="edge4" class="edge">
<title>Node1&#45;&gt;Node5</title>
<path fill="none" stroke="midnightblue" d="M1493.7,-205.19C1271.02,-205.86 698.66,-200.92 521.5,-135 510.37,-130.86 499.47,-124.82 489.34,-118.05"/>
<polygon fill="none" stroke="midnightblue" points="1493.73,-208.69 1503.71,-205.16 1493.7,-201.69 1493.73,-208.69"/>
</g>
<!-- Node6 -->
<g id="node6" class="node">
<title>Node6</title>
<g id="a_node6"><a xlink:href="classtvm_1_1tirx_1_1Bind.html" target="_top" xlink:title="Managed reference to BindNode.">
<polygon fill="white" stroke="black" points="531,-17 531,-118 690,-118 690,-17 531,-17"/>
<text text-anchor="middle" x="610.5" y="-106" font-family="Helvetica,sans-Serif" font-size="10.00">tvm::tirx::Bind</text>
<polyline fill="none" stroke="black" points="531,-99 690,-99 "/>
<text text-anchor="middle" x="610.5" y="-87" font-family="Helvetica,sans-Serif" font-size="10.00"> </text>
<polyline fill="none" stroke="black" points="531,-80 690,-80 "/>
<text text-anchor="start" x="539" y="-68" font-family="Helvetica,sans-Serif" font-size="10.00">+ Bind()</text>
<text text-anchor="start" x="539" y="-57" font-family="Helvetica,sans-Serif" font-size="10.00">+ TVM_FFI_DEFINE_OBJECT</text>
<text text-anchor="start" x="539" y="-46" font-family="Helvetica,sans-Serif" font-size="10.00">_REF_METHODS_NULLABLE()</text>
<text text-anchor="start" x="539" y="-35" font-family="Helvetica,sans-Serif" font-size="10.00">+ TVM_DEFINE_OBJECT_REF</text>
<text text-anchor="start" x="539" y="-24" font-family="Helvetica,sans-Serif" font-size="10.00">_COW_METHOD()</text>
</a>
</g>
</g>
<!-- Node1&#45;&gt;Node6 -->
<g id="edge5" class="edge">
<title>Node1&#45;&gt;Node6</title>
<path fill="none" stroke="midnightblue" d="M1493.65,-203.8C1298.53,-201.26 842.09,-189.5 698.5,-135 687.58,-130.85 676.87,-124.91 666.88,-118.26"/>
<polygon fill="none" stroke="midnightblue" points="1493.82,-207.31 1503.87,-203.93 1493.91,-200.31 1493.82,-207.31"/>
</g>
<!-- Node7 -->
<g id="node7" class="node">
<title>Node7</title>
<g id="a_node7"><a xlink:href="classtvm_1_1tirx_1_1Break.html" target="_top" xlink:title="Managed reference to BreakNode.">
<polygon fill="white" stroke="black" points="708,-17 708,-118 867,-118 867,-17 708,-17"/>
<text text-anchor="middle" x="787.5" y="-106" font-family="Helvetica,sans-Serif" font-size="10.00">tvm::tirx::Break</text>
<polyline fill="none" stroke="black" points="708,-99 867,-99 "/>
<text text-anchor="middle" x="787.5" y="-87" font-family="Helvetica,sans-Serif" font-size="10.00"> </text>
<polyline fill="none" stroke="black" points="708,-80 867,-80 "/>
<text text-anchor="start" x="716" y="-68" font-family="Helvetica,sans-Serif" font-size="10.00">+ Break()</text>
<text text-anchor="start" x="716" y="-57" font-family="Helvetica,sans-Serif" font-size="10.00">+ TVM_FFI_DEFINE_OBJECT</text>
<text text-anchor="start" x="716" y="-46" font-family="Helvetica,sans-Serif" font-size="10.00">_REF_METHODS_NULLABLE()</text>
<text text-anchor="start" x="716" y="-35" font-family="Helvetica,sans-Serif" font-size="10.00">+ TVM_DEFINE_OBJECT_REF</text>
<text text-anchor="start" x="716" y="-24" font-family="Helvetica,sans-Serif" font-size="10.00">_COW_METHOD()</text>
</a>
</g>
</g>
<!-- Node1&#45;&gt;Node7 -->
<g id="edge6" class="edge">
<title>Node1&#45;&gt;Node7</title>
<path fill="none" stroke="midnightblue" d="M1493.85,-201.74C1329.34,-195.69 986,-178.17 875.5,-135 864.62,-130.75 853.93,-124.75 843.95,-118.07"/>
<polygon fill="none" stroke="midnightblue" points="1493.82,-205.24 1503.94,-202.11 1494.07,-198.25 1493.82,-205.24"/>
</g>
<!-- Node8 -->
<g id="node8" class="node">
<title>Node8</title>
<g id="a_node8"><a xlink:href="classtvm_1_1tirx_1_1BufferStore.html" target="_top" xlink:title="Managed reference to BufferStoreNode.">
<polygon fill="white" stroke="black" points="885,-17 885,-118 1044,-118 1044,-17 885,-17"/>
<text text-anchor="middle" x="964.5" y="-106" font-family="Helvetica,sans-Serif" font-size="10.00">tvm::tirx::BufferStore</text>
<polyline fill="none" stroke="black" points="885,-99 1044,-99 "/>
<text text-anchor="middle" x="964.5" y="-87" font-family="Helvetica,sans-Serif" font-size="10.00"> </text>
<polyline fill="none" stroke="black" points="885,-80 1044,-80 "/>
<text text-anchor="start" x="893" y="-68" font-family="Helvetica,sans-Serif" font-size="10.00">+ BufferStore()</text>
<text text-anchor="start" x="893" y="-57" font-family="Helvetica,sans-Serif" font-size="10.00">+ TVM_FFI_DEFINE_OBJECT</text>
<text text-anchor="start" x="893" y="-46" font-family="Helvetica,sans-Serif" font-size="10.00">_REF_METHODS_NULLABLE()</text>
<text text-anchor="start" x="893" y="-35" font-family="Helvetica,sans-Serif" font-size="10.00">+ TVM_DEFINE_OBJECT_REF</text>
<text text-anchor="start" x="893" y="-24" font-family="Helvetica,sans-Serif" font-size="10.00">_COW_METHOD()</text>
</a>
</g>
</g>
<!-- Node1&#45;&gt;Node8 -->
<g id="edge7" class="edge">
<title>Node1&#45;&gt;Node8</title>
<path fill="none" stroke="midnightblue" d="M1493.47,-198.31C1363.5,-188.42 1130.36,-166.88 1052.5,-135 1041.87,-130.65 1031.38,-124.68 1021.57,-118.1"/>
<polygon fill="none" stroke="midnightblue" points="1493.56,-201.82 1503.8,-199.08 1494.09,-194.84 1493.56,-201.82"/>
</g>
<!-- Node9 -->
<g id="node9" class="node">
<title>Node9</title>
<g id="a_node9"><a xlink:href="classtvm_1_1tirx_1_1Continue.html" target="_top" xlink:title="Managed reference to ContinueNode.">
<polygon fill="white" stroke="black" points="1062,-17 1062,-118 1221,-118 1221,-17 1062,-17"/>
<text text-anchor="middle" x="1141.5" y="-106" font-family="Helvetica,sans-Serif" font-size="10.00">tvm::tirx::Continue</text>
<polyline fill="none" stroke="black" points="1062,-99 1221,-99 "/>
<text text-anchor="middle" x="1141.5" y="-87" font-family="Helvetica,sans-Serif" font-size="10.00"> </text>
<polyline fill="none" stroke="black" points="1062,-80 1221,-80 "/>
<text text-anchor="start" x="1070" y="-68" font-family="Helvetica,sans-Serif" font-size="10.00">+ Continue()</text>
<text text-anchor="start" x="1070" y="-57" font-family="Helvetica,sans-Serif" font-size="10.00">+ TVM_FFI_DEFINE_OBJECT</text>
<text text-anchor="start" x="1070" y="-46" font-family="Helvetica,sans-Serif" font-size="10.00">_REF_METHODS_NULLABLE()</text>
<text text-anchor="start" x="1070" y="-35" font-family="Helvetica,sans-Serif" font-size="10.00">+ TVM_DEFINE_OBJECT_REF</text>
<text text-anchor="start" x="1070" y="-24" font-family="Helvetica,sans-Serif" font-size="10.00">_COW_METHOD()</text>
</a>
</g>
</g>
<!-- Node1&#45;&gt;Node9 -->
<g id="edge8" class="edge">
<title>Node1&#45;&gt;Node9</title>
<path fill="none" stroke="midnightblue" d="M1493.6,-198.11C1419.95,-190.28 1314.41,-172.97 1229.5,-135 1219.36,-130.47 1209.3,-124.57 1199.8,-118.17"/>
<polygon fill="none" stroke="midnightblue" points="1493.47,-201.62 1503.77,-199.16 1494.18,-194.66 1493.47,-201.62"/>
</g>
<!-- Node10 -->
<g id="node10" class="node">
<title>Node10</title>
<g id="a_node10"><a xlink:href="classtvm_1_1tirx_1_1DeclBuffer.html" target="_top" xlink:title="Managed reference to DeclBufferNode.">
<polygon fill="white" stroke="black" points="1239,-17 1239,-118 1398,-118 1398,-17 1239,-17"/>
<text text-anchor="middle" x="1318.5" y="-106" font-family="Helvetica,sans-Serif" font-size="10.00">tvm::tirx::DeclBuffer</text>
<polyline fill="none" stroke="black" points="1239,-99 1398,-99 "/>
<text text-anchor="middle" x="1318.5" y="-87" font-family="Helvetica,sans-Serif" font-size="10.00"> </text>
<polyline fill="none" stroke="black" points="1239,-80 1398,-80 "/>
<text text-anchor="start" x="1247" y="-68" font-family="Helvetica,sans-Serif" font-size="10.00">+ DeclBuffer()</text>
<text text-anchor="start" x="1247" y="-57" font-family="Helvetica,sans-Serif" font-size="10.00">+ TVM_FFI_DEFINE_OBJECT</text>
<text text-anchor="start" x="1247" y="-46" font-family="Helvetica,sans-Serif" font-size="10.00">_REF_METHODS_NULLABLE()</text>
<text text-anchor="start" x="1247" y="-35" font-family="Helvetica,sans-Serif" font-size="10.00">+ TVM_DEFINE_OBJECT_REF</text>
<text text-anchor="start" x="1247" y="-24" font-family="Helvetica,sans-Serif" font-size="10.00">_COW_METHOD()</text>
</a>
</g>
</g>
<!-- Node1&#45;&gt;Node10 -->
<g id="edge9" class="edge">
<title>Node1&#45;&gt;Node10</title>
<path fill="none" stroke="midnightblue" d="M1494.21,-174.88C1465.45,-163.92 1433.93,-150.37 1406.5,-135 1397.65,-130.04 1388.69,-124.28 1380.04,-118.27"/>
<polygon fill="none" stroke="midnightblue" points="1493.26,-178.26 1503.85,-178.49 1495.72,-171.71 1493.26,-178.26"/>
</g>
<!-- Node11 -->
<g id="node11" class="node">
<title>Node11</title>
<g id="a_node11"><a xlink:href="classtvm_1_1tirx_1_1Evaluate.html" target="_top" xlink:title="Managed reference to EvaluateNode.">
<polygon fill="white" stroke="black" points="1416,-11.5 1416,-123.5 1575,-123.5 1575,-11.5 1416,-11.5"/>
<text text-anchor="middle" x="1495.5" y="-111.5" font-family="Helvetica,sans-Serif" font-size="10.00">tvm::tirx::Evaluate</text>
<polyline fill="none" stroke="black" points="1416,-104.5 1575,-104.5 "/>
<text text-anchor="middle" x="1495.5" y="-92.5" font-family="Helvetica,sans-Serif" font-size="10.00"> </text>
<polyline fill="none" stroke="black" points="1416,-85.5 1575,-85.5 "/>
<text text-anchor="start" x="1424" y="-73.5" font-family="Helvetica,sans-Serif" font-size="10.00">+ Evaluate()</text>
<text text-anchor="start" x="1424" y="-62.5" font-family="Helvetica,sans-Serif" font-size="10.00">+ Evaluate()</text>
<text text-anchor="start" x="1424" y="-51.5" font-family="Helvetica,sans-Serif" font-size="10.00">+ TVM_FFI_DEFINE_OBJECT</text>
<text text-anchor="start" x="1424" y="-40.5" font-family="Helvetica,sans-Serif" font-size="10.00">_REF_METHODS_NULLABLE()</text>
<text text-anchor="start" x="1424" y="-29.5" font-family="Helvetica,sans-Serif" font-size="10.00">+ TVM_DEFINE_OBJECT_REF</text>
<text text-anchor="start" x="1424" y="-18.5" font-family="Helvetica,sans-Serif" font-size="10.00">_COW_METHOD()</text>
</a>
</g>
</g>
<!-- Node1&#45;&gt;Node11 -->
<g id="edge10" class="edge">
<title>Node1&#45;&gt;Node11</title>
<path fill="none" stroke="midnightblue" d="M1556.36,-162.55C1548.41,-150.27 1539.6,-136.65 1531.2,-123.68"/>
<polygon fill="none" stroke="midnightblue" points="1553.6,-164.74 1561.97,-171.23 1559.48,-160.93 1553.6,-164.74"/>
</g>
<!-- Node12 -->
<g id="node12" class="node">
<title>Node12</title>
<g id="a_node12"><a xlink:href="classtvm_1_1tirx_1_1ExecScopeStmt.html" target="_top" xlink:title="Managed reference to ExecScopeStmtNode.">
<polygon fill="white" stroke="black" points="1593,-17 1593,-118 1752,-118 1752,-17 1593,-17"/>
<text text-anchor="middle" x="1672.5" y="-106" font-family="Helvetica,sans-Serif" font-size="10.00">tvm::tirx::ExecScopeStmt</text>
<polyline fill="none" stroke="black" points="1593,-99 1752,-99 "/>
<text text-anchor="middle" x="1672.5" y="-87" font-family="Helvetica,sans-Serif" font-size="10.00"> </text>
<polyline fill="none" stroke="black" points="1593,-80 1752,-80 "/>
<text text-anchor="start" x="1601" y="-68" font-family="Helvetica,sans-Serif" font-size="10.00">+ ExecScopeStmt()</text>
<text text-anchor="start" x="1601" y="-57" font-family="Helvetica,sans-Serif" font-size="10.00">+ TVM_FFI_DEFINE_OBJECT</text>
<text text-anchor="start" x="1601" y="-46" font-family="Helvetica,sans-Serif" font-size="10.00">_REF_METHODS_NULLABLE()</text>
<text text-anchor="start" x="1601" y="-35" font-family="Helvetica,sans-Serif" font-size="10.00">+ TVM_DEFINE_OBJECT_REF</text>
<text text-anchor="start" x="1601" y="-24" font-family="Helvetica,sans-Serif" font-size="10.00">_COW_METHOD()</text>
</a>
</g>
</g>
<!-- Node1&#45;&gt;Node12 -->
<g id="edge11" class="edge">
<title>Node1&#45;&gt;Node12</title>
<path fill="none" stroke="midnightblue" d="M1610.84,-162.72C1620.06,-148.63 1630.44,-132.78 1640.01,-118.15"/>
<polygon fill="none" stroke="midnightblue" points="1607.82,-160.95 1605.27,-171.23 1613.68,-164.78 1607.82,-160.95"/>
</g>
<!-- Node13 -->
<g id="node13" class="node">
<title>Node13</title>
<g id="a_node13"><a xlink:href="classtvm_1_1tirx_1_1For.html" target="_top" xlink:title="Managed reference to ForNode.">
<polygon fill="white" stroke="black" points="1770,-17 1770,-118 1929,-118 1929,-17 1770,-17"/>
<text text-anchor="middle" x="1849.5" y="-106" font-family="Helvetica,sans-Serif" font-size="10.00">tvm::tirx::For</text>
<polyline fill="none" stroke="black" points="1770,-99 1929,-99 "/>
<text text-anchor="middle" x="1849.5" y="-87" font-family="Helvetica,sans-Serif" font-size="10.00"> </text>
<polyline fill="none" stroke="black" points="1770,-80 1929,-80 "/>
<text text-anchor="start" x="1778" y="-68" font-family="Helvetica,sans-Serif" font-size="10.00">+ For()</text>
<text text-anchor="start" x="1778" y="-57" font-family="Helvetica,sans-Serif" font-size="10.00">+ TVM_FFI_DEFINE_OBJECT</text>
<text text-anchor="start" x="1778" y="-46" font-family="Helvetica,sans-Serif" font-size="10.00">_REF_METHODS_NULLABLE()</text>
<text text-anchor="start" x="1778" y="-35" font-family="Helvetica,sans-Serif" font-size="10.00">+ TVM_DEFINE_OBJECT_REF</text>
<text text-anchor="start" x="1778" y="-24" font-family="Helvetica,sans-Serif" font-size="10.00">_COW_METHOD()</text>
</a>
</g>
</g>
<!-- Node1&#45;&gt;Node13 -->
<g id="edge12" class="edge">
<title>Node1&#45;&gt;Node13</title>
<path fill="none" stroke="midnightblue" d="M1672.89,-175.09C1701.93,-164.11 1733.79,-150.49 1761.5,-135 1770.36,-130.05 1779.32,-124.3 1787.97,-118.29"/>
<polygon fill="none" stroke="midnightblue" points="1671.31,-171.94 1663.16,-178.71 1673.75,-178.5 1671.31,-171.94"/>
</g>
<!-- Node14 -->
<g id="node14" class="node">
<title>Node14</title>
<g id="a_node14"><a xlink:href="classtvm_1_1tirx_1_1IfThenElse.html" target="_top" xlink:title="Managed reference to IfThenElseNode.">
<polygon fill="white" stroke="black" points="1947,-17 1947,-118 2106,-118 2106,-17 1947,-17"/>
<text text-anchor="middle" x="2026.5" y="-106" font-family="Helvetica,sans-Serif" font-size="10.00">tvm::tirx::IfThenElse</text>
<polyline fill="none" stroke="black" points="1947,-99 2106,-99 "/>
<text text-anchor="middle" x="2026.5" y="-87" font-family="Helvetica,sans-Serif" font-size="10.00"> </text>
<polyline fill="none" stroke="black" points="1947,-80 2106,-80 "/>
<text text-anchor="start" x="1955" y="-68" font-family="Helvetica,sans-Serif" font-size="10.00">+ IfThenElse()</text>
<text text-anchor="start" x="1955" y="-57" font-family="Helvetica,sans-Serif" font-size="10.00">+ TVM_FFI_DEFINE_OBJECT</text>
<text text-anchor="start" x="1955" y="-46" font-family="Helvetica,sans-Serif" font-size="10.00">_REF_METHODS_NULLABLE()</text>
<text text-anchor="start" x="1955" y="-35" font-family="Helvetica,sans-Serif" font-size="10.00">+ TVM_DEFINE_OBJECT_REF</text>
<text text-anchor="start" x="1955" y="-24" font-family="Helvetica,sans-Serif" font-size="10.00">_COW_METHOD()</text>
</a>
</g>
</g>
<!-- Node1&#45;&gt;Node14 -->
<g id="edge13" class="edge">
<title>Node1&#45;&gt;Node14</title>
<path fill="none" stroke="midnightblue" d="M1673.3,-198.19C1747.17,-190.4 1853.21,-173.11 1938.5,-135 1948.64,-130.47 1958.7,-124.58 1968.2,-118.17"/>
<polygon fill="none" stroke="midnightblue" points="1672.69,-194.74 1663.1,-199.23 1673.4,-201.7 1672.69,-194.74"/>
</g>
<!-- Node15 -->
<g id="node15" class="node">
<title>Node15</title>
<g id="a_node15"><a xlink:href="classtvm_1_1tirx_1_1SBlock.html" target="_top" xlink:title="Managed reference to SBlockNode.">
<polygon fill="white" stroke="black" points="2124,-11.5 2124,-123.5 2283,-123.5 2283,-11.5 2124,-11.5"/>
<text text-anchor="middle" x="2203.5" y="-111.5" font-family="Helvetica,sans-Serif" font-size="10.00">tvm::tirx::SBlock</text>
<polyline fill="none" stroke="black" points="2124,-104.5 2283,-104.5 "/>
<text text-anchor="middle" x="2203.5" y="-92.5" font-family="Helvetica,sans-Serif" font-size="10.00"> </text>
<polyline fill="none" stroke="black" points="2124,-85.5 2283,-85.5 "/>
<text text-anchor="start" x="2132" y="-73.5" font-family="Helvetica,sans-Serif" font-size="10.00">+ SBlock()</text>
<text text-anchor="start" x="2132" y="-62.5" font-family="Helvetica,sans-Serif" font-size="10.00">+ SBlock()</text>
<text text-anchor="start" x="2132" y="-51.5" font-family="Helvetica,sans-Serif" font-size="10.00">+ TVM_FFI_DEFINE_OBJECT</text>
<text text-anchor="start" x="2132" y="-40.5" font-family="Helvetica,sans-Serif" font-size="10.00">_REF_METHODS_NULLABLE()</text>
<text text-anchor="start" x="2132" y="-29.5" font-family="Helvetica,sans-Serif" font-size="10.00">+ TVM_DEFINE_OBJECT_REF</text>
<text text-anchor="start" x="2132" y="-18.5" font-family="Helvetica,sans-Serif" font-size="10.00">_COW_METHOD()</text>
</a>
</g>
</g>
<!-- Node1&#45;&gt;Node15 -->
<g id="edge14" class="edge">
<title>Node1&#45;&gt;Node15</title>
<path fill="none" stroke="midnightblue" d="M1673.44,-198.34C1803.6,-188.48 2037.44,-166.95 2115.5,-135 2123.12,-131.88 2130.66,-127.93 2137.94,-123.52"/>
<polygon fill="none" stroke="midnightblue" points="1672.8,-194.88 1663.09,-199.11 1673.33,-201.86 1672.8,-194.88"/>
</g>
<!-- Node16 -->
<g id="node16" class="node">
<title>Node16</title>
<g id="a_node16"><a xlink:href="classtvm_1_1tirx_1_1SBlockRealize.html" target="_top" xlink:title="Managed reference to BlockRealizeNode.">
<polygon fill="white" stroke="black" points="2301,-17 2301,-118 2460,-118 2460,-17 2301,-17"/>
<text text-anchor="middle" x="2380.5" y="-106" font-family="Helvetica,sans-Serif" font-size="10.00">tvm::tirx::SBlockRealize</text>
<polyline fill="none" stroke="black" points="2301,-99 2460,-99 "/>
<text text-anchor="middle" x="2380.5" y="-87" font-family="Helvetica,sans-Serif" font-size="10.00"> </text>
<polyline fill="none" stroke="black" points="2301,-80 2460,-80 "/>
<text text-anchor="start" x="2309" y="-68" font-family="Helvetica,sans-Serif" font-size="10.00">+ SBlockRealize()</text>
<text text-anchor="start" x="2309" y="-57" font-family="Helvetica,sans-Serif" font-size="10.00">+ TVM_FFI_DEFINE_OBJECT</text>
<text text-anchor="start" x="2309" y="-46" font-family="Helvetica,sans-Serif" font-size="10.00">_REF_METHODS_NULLABLE()</text>
<text text-anchor="start" x="2309" y="-35" font-family="Helvetica,sans-Serif" font-size="10.00">+ TVM_DEFINE_OBJECT_REF</text>
<text text-anchor="start" x="2309" y="-24" font-family="Helvetica,sans-Serif" font-size="10.00">_COW_METHOD()</text>
</a>
</g>
</g>
<!-- Node1&#45;&gt;Node16 -->
<g id="edge15" class="edge">
<title>Node1&#45;&gt;Node16</title>
<path fill="none" stroke="midnightblue" d="M1673.28,-201.75C1838.02,-195.71 2181.85,-178.23 2292.5,-135 2303.38,-130.75 2314.07,-124.75 2324.05,-118.07"/>
<polygon fill="none" stroke="midnightblue" points="1673.04,-198.26 1663.17,-202.12 1673.29,-205.25 1673.04,-198.26"/>
</g>
<!-- Node17 -->
<g id="node17" class="node">
<title>Node17</title>
<g id="a_node17"><a xlink:href="classtvm_1_1tirx_1_1ScopeIdDefStmt.html" target="_top" xlink:title="Managed reference to ScopeIdDefStmtNode.">
<polygon fill="white" stroke="black" points="2478,-17 2478,-118 2637,-118 2637,-17 2478,-17"/>
<text text-anchor="middle" x="2557.5" y="-106" font-family="Helvetica,sans-Serif" font-size="10.00">tvm::tirx::ScopeIdDefStmt</text>
<polyline fill="none" stroke="black" points="2478,-99 2637,-99 "/>
<text text-anchor="middle" x="2557.5" y="-87" font-family="Helvetica,sans-Serif" font-size="10.00"> </text>
<polyline fill="none" stroke="black" points="2478,-80 2637,-80 "/>
<text text-anchor="start" x="2486" y="-68" font-family="Helvetica,sans-Serif" font-size="10.00">+ ScopeIdDefStmt()</text>
<text text-anchor="start" x="2486" y="-57" font-family="Helvetica,sans-Serif" font-size="10.00">+ TVM_FFI_DEFINE_OBJECT</text>
<text text-anchor="start" x="2486" y="-46" font-family="Helvetica,sans-Serif" font-size="10.00">_REF_METHODS_NULLABLE()</text>
<text text-anchor="start" x="2486" y="-35" font-family="Helvetica,sans-Serif" font-size="10.00">+ TVM_DEFINE_OBJECT_REF</text>
<text text-anchor="start" x="2486" y="-24" font-family="Helvetica,sans-Serif" font-size="10.00">_COW_METHOD()</text>
</a>
</g>
</g>
<!-- Node1&#45;&gt;Node17 -->
<g id="edge16" class="edge">
<title>Node1&#45;&gt;Node17</title>
<path fill="none" stroke="midnightblue" d="M1673.46,-203.81C1868.79,-201.29 2325.74,-189.55 2469.5,-135 2480.42,-130.86 2491.13,-124.91 2501.12,-118.26"/>
<polygon fill="none" stroke="midnightblue" points="1673.18,-200.31 1663.22,-203.94 1673.27,-207.31 1673.18,-200.31"/>
</g>
<!-- Node18 -->
<g id="node18" class="node">
<title>Node18</title>
<g id="a_node18"><a xlink:href="classtvm_1_1tirx_1_1SeqStmt.html" target="_top" xlink:title="Sequence statement.">
<polygon fill="white" stroke="black" points="2655,-0.5 2655,-134.5 2814,-134.5 2814,-0.5 2655,-0.5"/>
<text text-anchor="middle" x="2734.5" y="-122.5" font-family="Helvetica,sans-Serif" font-size="10.00">tvm::tirx::SeqStmt</text>
<polyline fill="none" stroke="black" points="2655,-115.5 2814,-115.5 "/>
<text text-anchor="middle" x="2734.5" y="-103.5" font-family="Helvetica,sans-Serif" font-size="10.00"> </text>
<polyline fill="none" stroke="black" points="2655,-96.5 2814,-96.5 "/>
<text text-anchor="start" x="2663" y="-84.5" font-family="Helvetica,sans-Serif" font-size="10.00">+ SeqStmt()</text>
<text text-anchor="start" x="2663" y="-73.5" font-family="Helvetica,sans-Serif" font-size="10.00">+ size()</text>
<text text-anchor="start" x="2663" y="-62.5" font-family="Helvetica,sans-Serif" font-size="10.00">+ operator[]()</text>
<text text-anchor="start" x="2663" y="-51.5" font-family="Helvetica,sans-Serif" font-size="10.00">+ TVM_FFI_DEFINE_OBJECT</text>
<text text-anchor="start" x="2663" y="-40.5" font-family="Helvetica,sans-Serif" font-size="10.00">_REF_METHODS_NULLABLE()</text>
<text text-anchor="start" x="2663" y="-29.5" font-family="Helvetica,sans-Serif" font-size="10.00">+ TVM_DEFINE_OBJECT_REF</text>
<text text-anchor="start" x="2663" y="-18.5" font-family="Helvetica,sans-Serif" font-size="10.00">_COW_METHOD()</text>
<text text-anchor="start" x="2663" y="-7.5" font-family="Helvetica,sans-Serif" font-size="10.00">+ Flatten()</text>
</a>
</g>
</g>
<!-- Node1&#45;&gt;Node18 -->
<g id="edge17" class="edge">
<title>Node1&#45;&gt;Node18</title>
<path fill="none" stroke="midnightblue" d="M1673.39,-205.2C1896.27,-205.89 2469.18,-200.98 2646.5,-135 2649.28,-133.96 2652.05,-132.81 2654.79,-131.56"/>
<polygon fill="none" stroke="midnightblue" points="1673.37,-201.7 1663.36,-205.16 1673.35,-208.7 1673.37,-201.7"/>
</g>
<!-- Node19 -->
<g id="node19" class="node">
<title>Node19</title>
<g id="a_node19"><a xlink:href="classtvm_1_1tirx_1_1TilePrimitiveCall.html" target="_top" xlink:title="Managed reference to TilePrimitiveCallNode.">
<polygon fill="white" stroke="black" points="2832,-11.5 2832,-123.5 2991,-123.5 2991,-11.5 2832,-11.5"/>
<text text-anchor="middle" x="2911.5" y="-111.5" font-family="Helvetica,sans-Serif" font-size="10.00">tvm::tirx::TilePrimitiveCall</text>
<polyline fill="none" stroke="black" points="2832,-104.5 2991,-104.5 "/>
<text text-anchor="middle" x="2911.5" y="-92.5" font-family="Helvetica,sans-Serif" font-size="10.00"> </text>
<polyline fill="none" stroke="black" points="2832,-85.5 2991,-85.5 "/>
<text text-anchor="start" x="2840" y="-73.5" font-family="Helvetica,sans-Serif" font-size="10.00">+ TilePrimitiveCall()</text>
<text text-anchor="start" x="2840" y="-62.5" font-family="Helvetica,sans-Serif" font-size="10.00">+ TVM_FFI_DEFINE_OBJECT</text>
<text text-anchor="start" x="2840" y="-51.5" font-family="Helvetica,sans-Serif" font-size="10.00">_REF_METHODS_NULLABLE()</text>
<text text-anchor="start" x="2840" y="-40.5" font-family="Helvetica,sans-Serif" font-size="10.00">+ TVM_DEFINE_OBJECT_REF</text>
<text text-anchor="start" x="2840" y="-29.5" font-family="Helvetica,sans-Serif" font-size="10.00">_COW_METHOD()</text>
<text text-anchor="start" x="2840" y="-18.5" font-family="Helvetica,sans-Serif" font-size="10.00">+ IsValidOpCallArgType()</text>
</a>
</g>
</g>
<!-- Node1&#45;&gt;Node19 -->
<g id="edge18" class="edge">
<title>Node1&#45;&gt;Node19</title>
<path fill="none" stroke="midnightblue" d="M1673.06,-202.49C1939.69,-196.09 2716.45,-174.27 2823.5,-135 2831.59,-132.03 2839.56,-128.05 2847.19,-123.51"/>
<polygon fill="none" stroke="midnightblue" points="1672.95,-198.99 1663.03,-202.73 1673.11,-205.99 1672.95,-198.99"/>
</g>
<!-- Node20 -->
<g id="node20" class="node">
<title>Node20</title>
<g id="a_node20"><a xlink:href="classtvm_1_1tirx_1_1While.html" target="_top" xlink:title="Managed reference to WhileNode.">
<polygon fill="white" stroke="black" points="3009,-17 3009,-118 3168,-118 3168,-17 3009,-17"/>
<text text-anchor="middle" x="3088.5" y="-106" font-family="Helvetica,sans-Serif" font-size="10.00">tvm::tirx::While</text>
<polyline fill="none" stroke="black" points="3009,-99 3168,-99 "/>
<text text-anchor="middle" x="3088.5" y="-87" font-family="Helvetica,sans-Serif" font-size="10.00"> </text>
<polyline fill="none" stroke="black" points="3009,-80 3168,-80 "/>
<text text-anchor="start" x="3017" y="-68" font-family="Helvetica,sans-Serif" font-size="10.00">+ While()</text>
<text text-anchor="start" x="3017" y="-57" font-family="Helvetica,sans-Serif" font-size="10.00">+ TVM_FFI_DEFINE_OBJECT</text>
<text text-anchor="start" x="3017" y="-46" font-family="Helvetica,sans-Serif" font-size="10.00">_REF_METHODS_NULLABLE()</text>
<text text-anchor="start" x="3017" y="-35" font-family="Helvetica,sans-Serif" font-size="10.00">+ TVM_DEFINE_OBJECT_REF</text>
<text text-anchor="start" x="3017" y="-24" font-family="Helvetica,sans-Serif" font-size="10.00">_COW_METHOD()</text>
</a>
</g>
</g>
<!-- Node1&#45;&gt;Node20 -->
<g id="edge19" class="edge">
<title>Node1&#45;&gt;Node20</title>
<path fill="none" stroke="midnightblue" d="M1673.53,-203.16C1965.79,-198.39 2876.37,-180.04 3000.5,-135 3011.66,-130.95 3022.58,-124.96 3032.71,-118.21"/>
<polygon fill="none" stroke="midnightblue" points="1673.34,-199.66 1663.39,-203.33 1673.45,-206.66 1673.34,-199.66"/>
</g>
<!-- Node2 -->
<g id="node2" class="node">
<title>Node2</title>
<g id="a_node2"><a xlink:title=" ">
<polygon fill="white" stroke="#bfbfbf" points="1543.5,-276.5 1543.5,-333.5 1623.5,-333.5 1623.5,-276.5 1543.5,-276.5"/>
<text text-anchor="middle" x="1583.5" y="-321.5" font-family="Helvetica,sans-Serif" font-size="10.00">ffi::ObjectRef</text>
<polyline fill="none" stroke="#bfbfbf" points="1543.5,-314.5 1623.5,-314.5 "/>
<text text-anchor="middle" x="1583.5" y="-302.5" font-family="Helvetica,sans-Serif" font-size="10.00"> </text>
<polyline fill="none" stroke="#bfbfbf" points="1543.5,-295.5 1623.5,-295.5 "/>
<text text-anchor="middle" x="1583.5" y="-283.5" font-family="Helvetica,sans-Serif" font-size="10.00"> </text>
</a>
</g>
</g>
<!-- Node2&#45;&gt;Node1 -->
<g id="edge1" class="edge">
<title>Node2&#45;&gt;Node1</title>
<path fill="none" stroke="midnightblue" d="M1583.5,-266.06C1583.5,-257.39 1583.5,-248.24 1583.5,-239.79"/>
<polygon fill="none" stroke="midnightblue" points="1580,-266.32 1583.5,-276.32 1587,-266.32 1580,-266.32"/>
</g>
</g>
</svg>
