<?xml version="1.0" encoding="UTF-8" standalone="no"?>
<!DOCTYPE svg PUBLIC "-//W3C//DTD SVG 1.1//EN"
 "http://www.w3.org/Graphics/SVG/1.1/DTD/svg11.dtd">
<!-- Generated by graphviz version 2.43.0 (0)
 -->
<!-- Title: tvm::arith::AnalyzerObj Pages: 1 -->
<svg width="1141pt" height="391pt"
 viewBox="0.00 0.00 1140.50 391.00" xmlns="http://www.w3.org/2000/svg" xmlns:xlink="http://www.w3.org/1999/xlink">
<g id="graph0" class="graph" transform="scale(1 1) rotate(0) translate(4 387)">
<title>tvm::arith::AnalyzerObj</title>
<polygon fill="white" stroke="transparent" points="-4,4 -4,-387 1136.5,-387 1136.5,4 -4,4"/>
<!-- Node1 -->
<g id="node1" class="node">
<title>Node1</title>
<g id="a_node1"><a xlink:title="Analyzer that contains bunch of sub&#45;analyzers.">
<polygon fill="#bfbfbf" stroke="black" points="441,-0.5 441,-200.5 633,-200.5 633,-0.5 441,-0.5"/>
<text text-anchor="middle" x="537" y="-188.5" font-family="Helvetica,sans-Serif" font-size="10.00">tvm::arith::AnalyzerObj</text>
<polyline fill="none" stroke="black" points="441,-181.5 633,-181.5 "/>
<text text-anchor="start" x="449" y="-169.5" font-family="Helvetica,sans-Serif" font-size="10.00">+ _type_mutable</text>
<polyline fill="none" stroke="black" points="441,-162.5 633,-162.5 "/>
<text text-anchor="start" x="449" y="-150.5" font-family="Helvetica,sans-Serif" font-size="10.00">+ AnalyzerObj()</text>
<text text-anchor="start" x="449" y="-139.5" font-family="Helvetica,sans-Serif" font-size="10.00">+ MarkGlobalNonNegValue()</text>
<text text-anchor="start" x="449" y="-128.5" font-family="Helvetica,sans-Serif" font-size="10.00">+ Bind()</text>
<text text-anchor="start" x="449" y="-117.5" font-family="Helvetica,sans-Serif" font-size="10.00">+ Bind()</text>
<text text-anchor="start" x="449" y="-106.5" font-family="Helvetica,sans-Serif" font-size="10.00">+ Bind()</text>
<text text-anchor="start" x="449" y="-95.5" font-family="Helvetica,sans-Serif" font-size="10.00">+ CanProveGreaterEqual()</text>
<text text-anchor="start" x="449" y="-84.5" font-family="Helvetica,sans-Serif" font-size="10.00">+ CanProveLess()</text>
<text text-anchor="start" x="449" y="-73.5" font-family="Helvetica,sans-Serif" font-size="10.00">+ CanProveEqual()</text>
<text text-anchor="start" x="449" y="-62.5" font-family="Helvetica,sans-Serif" font-size="10.00">+ CanProveLessEqualThanSymbolic</text>
<text text-anchor="start" x="449" y="-51.5" font-family="Helvetica,sans-Serif" font-size="10.00">ShapeValue()</text>
<text text-anchor="start" x="449" y="-40.5" font-family="Helvetica,sans-Serif" font-size="10.00">+ CanProve()</text>
<text text-anchor="start" x="449" y="-29.5" font-family="Helvetica,sans-Serif" font-size="10.00">+ Simplify()</text>
<text text-anchor="start" x="449" y="-18.5" font-family="Helvetica,sans-Serif" font-size="10.00">+ TVM_FFI_DECLARE_OBJECT</text>
<text text-anchor="start" x="449" y="-7.5" font-family="Helvetica,sans-Serif" font-size="10.00">_INFO_FINAL()</text>
</a>
</g>
</g>
<!-- Node2 -->
<g id="node2" class="node">
<title>Node2</title>
<g id="a_node2"><a xlink:title=" ">
<polygon fill="white" stroke="#bfbfbf" points="0,-287 0,-344 64,-344 64,-287 0,-287"/>
<text text-anchor="middle" x="32" y="-332" font-family="Helvetica,sans-Serif" font-size="10.00">ffi::Object</text>
<polyline fill="none" stroke="#bfbfbf" points="0,-325 64,-325 "/>
<text text-anchor="middle" x="32" y="-313" font-family="Helvetica,sans-Serif" font-size="10.00"> </text>
<polyline fill="none" stroke="#bfbfbf" points="0,-306 64,-306 "/>
<text text-anchor="middle" x="32" y="-294" font-family="Helvetica,sans-Serif" font-size="10.00"> </text>
</a>
</g>
</g>
<!-- Node2&#45;&gt;Node1 -->
<g id="edge1" class="edge">
<title>Node2&#45;&gt;Node1</title>
<path fill="none" stroke="midnightblue" d="M48.29,-277.91C54.65,-267.01 62.89,-255.88 73,-248 181.6,-163.35 340.02,-127.11 440.78,-111.94"/>
<polygon fill="none" stroke="midnightblue" points="45.08,-276.48 43.38,-286.94 51.23,-279.83 45.08,-276.48"/>
</g>
<!-- Node3 -->
<g id="node3" class="node">
<title>Node3</title>
<g id="a_node3"><a xlink:href="classtvm_1_1arith_1_1CanonicalSimplifier.html" target="_top" xlink:title="Canonical&#45;form based simplifier.">
<polygon fill="white" stroke="black" points="82.5,-281.5 82.5,-349.5 247.5,-349.5 247.5,-281.5 82.5,-281.5"/>
<text text-anchor="middle" x="165" y="-337.5" font-family="Helvetica,sans-Serif" font-size="10.00">tvm::arith::CanonicalSimplifier</text>
<polyline fill="none" stroke="black" points="82.5,-330.5 247.5,-330.5 "/>
<text text-anchor="middle" x="165" y="-318.5" font-family="Helvetica,sans-Serif" font-size="10.00"> </text>
<polyline fill="none" stroke="black" points="82.5,-311.5 247.5,-311.5 "/>
<text text-anchor="start" x="90.5" y="-299.5" font-family="Helvetica,sans-Serif" font-size="10.00">+ operator()()</text>
<text text-anchor="start" x="90.5" y="-288.5" font-family="Helvetica,sans-Serif" font-size="10.00">+ Update()</text>
</a>
</g>
</g>
<!-- Node3&#45;&gt;Node1 -->
<g id="edge2" class="edge">
<title>Node3&#45;&gt;Node1</title>
<path fill="none" stroke="#404040" d="M207.59,-281.34C222.56,-270.24 239.71,-258.12 256,-248 311.75,-213.37 376.55,-179.21 429.87,-152.59"/>
<polygon fill="none" stroke="#404040" points="429.97,-152.54 433.56,-146.29 440.72,-147.2 437.12,-153.45 429.97,-152.54"/>
<text text-anchor="middle" x="352.5" y="-222" font-family="Helvetica,sans-Serif" font-size="10.00"> +canonical_simplify</text>
</g>
<!-- Node4 -->
<g id="node4" class="node">
<title>Node4</title>
<g id="a_node4"><a xlink:href="classtvm_1_1arith_1_1RewriteSimplifier.html" target="_top" xlink:title="Rewrite&#45;rule based simplifier.">
<polygon fill="white" stroke="black" points="265.5,-248.5 265.5,-382.5 430.5,-382.5 430.5,-248.5 265.5,-248.5"/>
<text text-anchor="middle" x="348" y="-370.5" font-family="Helvetica,sans-Serif" font-size="10.00">tvm::arith::RewriteSimplifier</text>
<polyline fill="none" stroke="black" points="265.5,-363.5 430.5,-363.5 "/>
<text text-anchor="middle" x="348" y="-351.5" font-family="Helvetica,sans-Serif" font-size="10.00"> </text>
<polyline fill="none" stroke="black" points="265.5,-344.5 430.5,-344.5 "/>
<text text-anchor="start" x="273.5" y="-332.5" font-family="Helvetica,sans-Serif" font-size="10.00">+ operator()()</text>
<text text-anchor="start" x="273.5" y="-321.5" font-family="Helvetica,sans-Serif" font-size="10.00">+ Update()</text>
<text text-anchor="start" x="273.5" y="-310.5" font-family="Helvetica,sans-Serif" font-size="10.00">+ EnterConstraint()</text>
<text text-anchor="start" x="273.5" y="-299.5" font-family="Helvetica,sans-Serif" font-size="10.00">+ SetEnabledExtensions()</text>
<text text-anchor="start" x="273.5" y="-288.5" font-family="Helvetica,sans-Serif" font-size="10.00">+ GetEnabledExtensions()</text>
<text text-anchor="start" x="273.5" y="-277.5" font-family="Helvetica,sans-Serif" font-size="10.00">+ GetStatsCounters()</text>
<text text-anchor="start" x="273.5" y="-266.5" font-family="Helvetica,sans-Serif" font-size="10.00">+ ResetStatsCounters()</text>
<text text-anchor="start" x="273.5" y="-255.5" font-family="Helvetica,sans-Serif" font-size="10.00">+ SetMaximumRewriteSteps()</text>
</a>
</g>
</g>
<!-- Node4&#45;&gt;Node1 -->
<g id="edge3" class="edge">
<title>Node4&#45;&gt;Node1</title>
<path fill="none" stroke="#404040" d="M406.76,-248.27C417.68,-235.97 429.35,-222.82 441.04,-209.65"/>
<polygon fill="none" stroke="#404040" points="441.17,-209.5 442.16,-202.36 449.13,-200.53 448.14,-207.67 441.17,-209.5"/>
<text text-anchor="middle" x="477.5" y="-222" font-family="Helvetica,sans-Serif" font-size="10.00"> +rewrite_simplify</text>
</g>
<!-- Node5 -->
<g id="node5" class="node">
<title>Node5</title>
<g id="a_node5"><a xlink:href="classtvm_1_1arith_1_1TransitiveComparisonAnalyzer.html" target="_top" xlink:title="Using previously specified knowns, compare the expressions provided.">
<polygon fill="white" stroke="black" points="449,-265 449,-366 625,-366 625,-265 449,-265"/>
<text text-anchor="start" x="457" y="-354" font-family="Helvetica,sans-Serif" font-size="10.00">tvm::arith::TransitiveComparison</text>
<text text-anchor="middle" x="537" y="-343" font-family="Helvetica,sans-Serif" font-size="10.00">Analyzer</text>
<polyline fill="none" stroke="black" points="449,-336 625,-336 "/>
<text text-anchor="middle" x="537" y="-324" font-family="Helvetica,sans-Serif" font-size="10.00"> </text>
<polyline fill="none" stroke="black" points="449,-317 625,-317 "/>
<text text-anchor="start" x="457" y="-305" font-family="Helvetica,sans-Serif" font-size="10.00">+ TryCompare()</text>
<text text-anchor="start" x="457" y="-294" font-family="Helvetica,sans-Serif" font-size="10.00">+ Bind()</text>
<text text-anchor="start" x="457" y="-283" font-family="Helvetica,sans-Serif" font-size="10.00">+ Bind()</text>
<text text-anchor="start" x="457" y="-272" font-family="Helvetica,sans-Serif" font-size="10.00">+ EnterConstraint()</text>
</a>
</g>
</g>
<!-- Node5&#45;&gt;Node1 -->
<g id="edge4" class="edge">
<title>Node5&#45;&gt;Node1</title>
<path fill="none" stroke="#404040" d="M537,-264.83C537,-249.1 537,-231.03 537,-212.77"/>
<polygon fill="none" stroke="#404040" points="537,-212.77 533,-206.77 537,-200.77 541,-206.77 537,-212.77"/>
<text text-anchor="middle" x="600" y="-222" font-family="Helvetica,sans-Serif" font-size="10.00"> +transitive_comparisons</text>
</g>
<!-- Node6 -->
<g id="node6" class="node">
<title>Node6</title>
<g id="a_node6"><a xlink:href="classtvm_1_1arith_1_1ConstIntBoundAnalyzer.html" target="_top" xlink:title="Analyzer to get constant integer bound over expression.">
<polygon fill="white" stroke="black" points="643,-259.5 643,-371.5 785,-371.5 785,-259.5 643,-259.5"/>
<text text-anchor="start" x="651" y="-359.5" font-family="Helvetica,sans-Serif" font-size="10.00">tvm::arith::ConstIntBound</text>
<text text-anchor="middle" x="714" y="-348.5" font-family="Helvetica,sans-Serif" font-size="10.00">Analyzer</text>
<polyline fill="none" stroke="black" points="643,-341.5 785,-341.5 "/>
<text text-anchor="middle" x="714" y="-329.5" font-family="Helvetica,sans-Serif" font-size="10.00"> </text>
<polyline fill="none" stroke="black" points="643,-322.5 785,-322.5 "/>
<text text-anchor="start" x="651" y="-310.5" font-family="Helvetica,sans-Serif" font-size="10.00">+ operator()()</text>
<text text-anchor="start" x="651" y="-299.5" font-family="Helvetica,sans-Serif" font-size="10.00">+ operator()()</text>
<text text-anchor="start" x="651" y="-288.5" font-family="Helvetica,sans-Serif" font-size="10.00">+ Update()</text>
<text text-anchor="start" x="651" y="-277.5" font-family="Helvetica,sans-Serif" font-size="10.00">+ Bind()</text>
<text text-anchor="start" x="651" y="-266.5" font-family="Helvetica,sans-Serif" font-size="10.00">+ IsBound()</text>
</a>
</g>
</g>
<!-- Node6&#45;&gt;Node1 -->
<g id="edge5" class="edge">
<title>Node6&#45;&gt;Node1</title>
<path fill="none" stroke="#404040" d="M691.28,-259.38C684.43,-245.58 676.24,-231.24 667,-219 659.35,-208.87 650.74,-198.92 641.69,-189.36"/>
<polygon fill="none" stroke="#404040" points="641.63,-189.3 634.58,-187.79 633.27,-180.7 640.32,-182.21 641.63,-189.3"/>
<text text-anchor="middle" x="718.5" y="-222" font-family="Helvetica,sans-Serif" font-size="10.00"> +const_int_bound</text>
</g>
<!-- Node7 -->
<g id="node7" class="node">
<title>Node7</title>
<g id="a_node7"><a xlink:href="classtvm_1_1arith_1_1IntSetAnalyzer.html" target="_top" xlink:title="Integer set analyzer.">
<polygon fill="white" stroke="black" points="803,-265 803,-366 945,-366 945,-265 803,-265"/>
<text text-anchor="middle" x="874" y="-354" font-family="Helvetica,sans-Serif" font-size="10.00">tvm::arith::IntSetAnalyzer</text>
<polyline fill="none" stroke="black" points="803,-347 945,-347 "/>
<text text-anchor="middle" x="874" y="-335" font-family="Helvetica,sans-Serif" font-size="10.00"> </text>
<polyline fill="none" stroke="black" points="803,-328 945,-328 "/>
<text text-anchor="start" x="811" y="-316" font-family="Helvetica,sans-Serif" font-size="10.00">+ operator()()</text>
<text text-anchor="start" x="811" y="-305" font-family="Helvetica,sans-Serif" font-size="10.00">+ operator()()</text>
<text text-anchor="start" x="811" y="-294" font-family="Helvetica,sans-Serif" font-size="10.00">+ Update()</text>
<text text-anchor="start" x="811" y="-283" font-family="Helvetica,sans-Serif" font-size="10.00">+ Bind()</text>
<text text-anchor="start" x="811" y="-272" font-family="Helvetica,sans-Serif" font-size="10.00">+ EnterConstraint()</text>
</a>
</g>
</g>
<!-- Node7&#45;&gt;Node1 -->
<g id="edge6" class="edge">
<title>Node7&#45;&gt;Node1</title>
<path fill="none" stroke="#404040" d="M824.51,-265C807.41,-249.26 787.6,-232.46 768,-219 729.53,-192.57 684.3,-168.27 644.12,-148.7"/>
<polygon fill="none" stroke="#404040" points="644.01,-148.65 636.87,-149.65 633.2,-143.45 640.34,-142.45 644.01,-148.65"/>
<text text-anchor="middle" x="802.5" y="-222" font-family="Helvetica,sans-Serif" font-size="10.00"> +int_set</text>
</g>
<!-- Node8 -->
<g id="node8" class="node">
<title>Node8</title>
<g id="a_node8"><a xlink:href="classtvm_1_1arith_1_1ModularSetAnalyzer.html" target="_top" xlink:title="Analyzer to get modular information over expression.">
<polygon fill="white" stroke="black" points="963.5,-281.5 963.5,-349.5 1132.5,-349.5 1132.5,-281.5 963.5,-281.5"/>
<text text-anchor="middle" x="1048" y="-337.5" font-family="Helvetica,sans-Serif" font-size="10.00">tvm::arith::ModularSetAnalyzer</text>
<polyline fill="none" stroke="black" points="963.5,-330.5 1132.5,-330.5 "/>
<text text-anchor="middle" x="1048" y="-318.5" font-family="Helvetica,sans-Serif" font-size="10.00"> </text>
<polyline fill="none" stroke="black" points="963.5,-311.5 1132.5,-311.5 "/>
<text text-anchor="start" x="971.5" y="-299.5" font-family="Helvetica,sans-Serif" font-size="10.00">+ operator()()</text>
<text text-anchor="start" x="971.5" y="-288.5" font-family="Helvetica,sans-Serif" font-size="10.00">+ Update()</text>
</a>
</g>
</g>
<!-- Node8&#45;&gt;Node1 -->
<g id="edge7" class="edge">
<title>Node8&#45;&gt;Node1</title>
<path fill="none" stroke="#404040" d="M1006.54,-281.42C990.72,-269.82 972.12,-257.36 954,-248 853.79,-196.24 731.17,-155.62 644.92,-130.41"/>
<polygon fill="none" stroke="#404040" points="644.79,-130.37 637.92,-132.54 633.27,-127.03 640.14,-124.86 644.79,-130.37"/>
<text text-anchor="middle" x="946.5" y="-222" font-family="Helvetica,sans-Serif" font-size="10.00"> +modular_set</text>
</g>
</g>
</svg>
