<?xml version="1.0" encoding="UTF-8" standalone="no"?>
<!DOCTYPE svg PUBLIC "-//W3C//DTD SVG 1.1//EN"
 "http://www.w3.org/Graphics/SVG/1.1/DTD/svg11.dtd">
<!-- Generated by graphviz version 2.43.0 (0)
 -->
<!-- Title: tvm::relax::TupleGetItemNode Pages: 1 -->
<svg width="604pt" height="634pt"
 viewBox="0.00 0.00 603.50 634.00" xmlns="http://www.w3.org/2000/svg" xmlns:xlink="http://www.w3.org/1999/xlink">
<g id="graph0" class="graph" transform="scale(1 1) rotate(0) translate(4 630)">
<title>tvm::relax::TupleGetItemNode</title>
<polygon fill="white" stroke="transparent" points="-4,4 -4,-630 599.5,-630 599.5,4 -4,4"/>
<!-- Node1 -->
<g id="node1" class="node">
<title>Node1</title>
<g id="a_node1"><a xlink:title="Get index&#45;th field out of a tuple.">
<polygon fill="#bfbfbf" stroke="black" points="255,-0.5 255,-79.5 419,-79.5 419,-0.5 255,-0.5"/>
<text text-anchor="middle" x="337" y="-67.5" font-family="Helvetica,sans-Serif" font-size="10.00">tvm::relax::TupleGetItemNode</text>
<polyline fill="none" stroke="black" points="255,-60.5 419,-60.5 "/>
<text text-anchor="start" x="263" y="-48.5" font-family="Helvetica,sans-Serif" font-size="10.00">+ index</text>
<polyline fill="none" stroke="black" points="255,-41.5 419,-41.5 "/>
<text text-anchor="start" x="263" y="-29.5" font-family="Helvetica,sans-Serif" font-size="10.00">+ TVM_FFI_DECLARE_OBJECT</text>
<text text-anchor="start" x="263" y="-18.5" font-family="Helvetica,sans-Serif" font-size="10.00">_INFO_FINAL()</text>
<text text-anchor="start" x="263" y="-7.5" font-family="Helvetica,sans-Serif" font-size="10.00">+ RegisterReflection()</text>
</a>
</g>
</g>
<!-- Node2 -->
<g id="node2" class="node">
<title>Node2</title>
<g id="a_node2"><a xlink:href="classtvm_1_1RelaxExprNode.html" target="_top" xlink:title="Base node of all non&#45;primitive expressions.">
<polygon fill="white" stroke="black" points="193,-117.5 193,-196.5 355,-196.5 355,-117.5 193,-117.5"/>
<text text-anchor="middle" x="274" y="-184.5" font-family="Helvetica,sans-Serif" font-size="10.00">ExprNode</text>
<polyline fill="none" stroke="black" points="193,-177.5 355,-177.5 "/>
<text text-anchor="start" x="201" y="-165.5" font-family="Helvetica,sans-Serif" font-size="10.00">+ _type_child_slots</text>
<polyline fill="none" stroke="black" points="193,-158.5 355,-158.5 "/>
<text text-anchor="start" x="201" y="-146.5" font-family="Helvetica,sans-Serif" font-size="10.00">+ TVM_FFI_DECLARE_OBJECT</text>
<text text-anchor="start" x="201" y="-135.5" font-family="Helvetica,sans-Serif" font-size="10.00">_INFO()</text>
<text text-anchor="start" x="201" y="-124.5" font-family="Helvetica,sans-Serif" font-size="10.00">+ RegisterReflection()</text>
</a>
</g>
</g>
<!-- Node2&#45;&gt;Node1 -->
<g id="edge1" class="edge">
<title>Node2&#45;&gt;Node1</title>
<path fill="none" stroke="midnightblue" d="M300.09,-108.38C305.32,-98.83 310.75,-88.91 315.8,-79.71"/>
<polygon fill="none" stroke="midnightblue" points="296.89,-106.93 295.15,-117.39 303.03,-110.3 296.89,-106.93"/>
</g>
<!-- Node3 -->
<g id="node3" class="node">
<title>Node3</title>
<g id="a_node3"><a xlink:href="classtvm_1_1BaseExprNode.html" target="_top" xlink:title="Base type of all the expressions.">
<polygon fill="white" stroke="black" points="121,-302.5 121,-392.5 283,-392.5 283,-302.5 121,-302.5"/>
<text text-anchor="middle" x="202" y="-380.5" font-family="Helvetica,sans-Serif" font-size="10.00">tvm::BaseExprNode</text>
<polyline fill="none" stroke="black" points="121,-373.5 283,-373.5 "/>
<text text-anchor="start" x="129" y="-361.5" font-family="Helvetica,sans-Serif" font-size="10.00">+ _type_s_eq_hash_kind</text>
<text text-anchor="start" x="129" y="-350.5" font-family="Helvetica,sans-Serif" font-size="10.00">+ _type_child_slots</text>
<polyline fill="none" stroke="black" points="121,-343.5 283,-343.5 "/>
<text text-anchor="start" x="129" y="-331.5" font-family="Helvetica,sans-Serif" font-size="10.00">+ TVM_FFI_DECLARE_OBJECT</text>
<text text-anchor="start" x="129" y="-320.5" font-family="Helvetica,sans-Serif" font-size="10.00">_INFO()</text>
<text text-anchor="start" x="129" y="-309.5" font-family="Helvetica,sans-Serif" font-size="10.00">+ RegisterReflection()</text>
</a>
</g>
</g>
<!-- Node3&#45;&gt;Node2 -->
<g id="edge2" class="edge">
<title>Node3&#45;&gt;Node2</title>
<path fill="none" stroke="midnightblue" d="M222.57,-292.64C234.25,-262.06 248.61,-224.48 259.18,-196.81"/>
<polygon fill="none" stroke="midnightblue" points="219.18,-291.71 218.88,-302.31 225.72,-294.21 219.18,-291.71"/>
</g>
<!-- Node4 -->
<g id="node4" class="node">
<title>Node4</title>
<g id="a_node4"><a xlink:title=" ">
<polygon fill="white" stroke="#bfbfbf" points="0,-457 0,-514 64,-514 64,-457 0,-457"/>
<text text-anchor="middle" x="32" y="-502" font-family="Helvetica,sans-Serif" font-size="10.00">ffi::Object</text>
<polyline fill="none" stroke="#bfbfbf" points="0,-495 64,-495 "/>
<text text-anchor="middle" x="32" y="-483" font-family="Helvetica,sans-Serif" font-size="10.00"> </text>
<polyline fill="none" stroke="#bfbfbf" points="0,-476 64,-476 "/>
<text text-anchor="middle" x="32" y="-464" font-family="Helvetica,sans-Serif" font-size="10.00"> </text>
</a>
</g>
</g>
<!-- Node4&#45;&gt;Node3 -->
<g id="edge3" class="edge">
<title>Node4&#45;&gt;Node3</title>
<path fill="none" stroke="midnightblue" d="M62.93,-449.49C66.23,-446.19 69.63,-442.97 73,-440 91.86,-423.4 113.72,-406.98 134.02,-392.73"/>
<polygon fill="none" stroke="midnightblue" points="60.3,-447.17 55.85,-456.79 65.33,-452.04 60.3,-447.17"/>
</g>
<!-- Node5 -->
<g id="node5" class="node">
<title>Node5</title>
<g id="a_node5"><a xlink:href="classtvm_1_1Span.html" target="_top" xlink:title=" ">
<polygon fill="white" stroke="black" points="82.5,-440.5 82.5,-530.5 241.5,-530.5 241.5,-440.5 82.5,-440.5"/>
<text text-anchor="middle" x="162" y="-518.5" font-family="Helvetica,sans-Serif" font-size="10.00">tvm::Span</text>
<polyline fill="none" stroke="black" points="82.5,-511.5 241.5,-511.5 "/>
<text text-anchor="middle" x="162" y="-499.5" font-family="Helvetica,sans-Serif" font-size="10.00"> </text>
<polyline fill="none" stroke="black" points="82.5,-492.5 241.5,-492.5 "/>
<text text-anchor="start" x="90.5" y="-480.5" font-family="Helvetica,sans-Serif" font-size="10.00">+ Span()</text>
<text text-anchor="start" x="90.5" y="-469.5" font-family="Helvetica,sans-Serif" font-size="10.00">+ Merge()</text>
<text text-anchor="start" x="90.5" y="-458.5" font-family="Helvetica,sans-Serif" font-size="10.00">+ TVM_FFI_DEFINE_OBJECT</text>
<text text-anchor="start" x="90.5" y="-447.5" font-family="Helvetica,sans-Serif" font-size="10.00">_REF_METHODS_NULLABLE()</text>
</a>
</g>
</g>
<!-- Node5&#45;&gt;Node3 -->
<g id="edge4" class="edge">
<title>Node5&#45;&gt;Node3</title>
<path fill="none" stroke="#404040" d="M174.99,-440.34C178.34,-428.94 181.99,-416.52 185.5,-404.6"/>
<polygon fill="none" stroke="#404040" points="185.56,-404.41 183.41,-397.53 188.94,-392.9 191.09,-399.78 185.56,-404.41"/>
<text text-anchor="middle" x="201.5" y="-414" font-family="Helvetica,sans-Serif" font-size="10.00"> +span</text>
</g>
<!-- Node6 -->
<g id="node6" class="node">
<title>Node6</title>
<g id="a_node6"><a xlink:title=" ">
<polygon fill="white" stroke="#bfbfbf" points="299,-568.5 299,-625.5 379,-625.5 379,-568.5 299,-568.5"/>
<text text-anchor="middle" x="339" y="-613.5" font-family="Helvetica,sans-Serif" font-size="10.00">ffi::ObjectRef</text>
<polyline fill="none" stroke="#bfbfbf" points="299,-606.5 379,-606.5 "/>
<text text-anchor="middle" x="339" y="-594.5" font-family="Helvetica,sans-Serif" font-size="10.00"> </text>
<polyline fill="none" stroke="#bfbfbf" points="299,-587.5 379,-587.5 "/>
<text text-anchor="middle" x="339" y="-575.5" font-family="Helvetica,sans-Serif" font-size="10.00"> </text>
</a>
</g>
</g>
<!-- Node6&#45;&gt;Node5 -->
<g id="edge5" class="edge">
<title>Node6&#45;&gt;Node5</title>
<path fill="none" stroke="midnightblue" d="M289.93,-565.64C272.41,-554.81 252.3,-542.37 233.3,-530.61"/>
<polygon fill="none" stroke="midnightblue" points="288.49,-568.87 298.84,-571.15 292.17,-562.92 288.49,-568.87"/>
</g>
<!-- Node7 -->
<g id="node7" class="node">
<title>Node7</title>
<g id="a_node7"><a xlink:href="classtvm_1_1Type.html" target="_top" xlink:title="Managed reference to TypeNode.">
<polygon fill="white" stroke="black" points="259.5,-451.5 259.5,-519.5 418.5,-519.5 418.5,-451.5 259.5,-451.5"/>
<text text-anchor="middle" x="339" y="-507.5" font-family="Helvetica,sans-Serif" font-size="10.00">tvm::Type</text>
<polyline fill="none" stroke="black" points="259.5,-500.5 418.5,-500.5 "/>
<text text-anchor="middle" x="339" y="-488.5" font-family="Helvetica,sans-Serif" font-size="10.00"> </text>
<polyline fill="none" stroke="black" points="259.5,-481.5 418.5,-481.5 "/>
<text text-anchor="start" x="267.5" y="-469.5" font-family="Helvetica,sans-Serif" font-size="10.00">+ TVM_FFI_DEFINE_OBJECT</text>
<text text-anchor="start" x="267.5" y="-458.5" font-family="Helvetica,sans-Serif" font-size="10.00">_REF_METHODS_NULLABLE()</text>
</a>
</g>
</g>
<!-- Node6&#45;&gt;Node7 -->
<g id="edge7" class="edge">
<title>Node6&#45;&gt;Node7</title>
<path fill="none" stroke="midnightblue" d="M339,-558.2C339,-545.64 339,-531.76 339,-519.59"/>
<polygon fill="none" stroke="midnightblue" points="335.5,-558.37 339,-568.37 342.5,-558.37 335.5,-558.37"/>
</g>
<!-- Node9 -->
<g id="node9" class="node">
<title>Node9</title>
<g id="a_node9"><a xlink:href="classtvm_1_1BaseExpr.html" target="_top" xlink:title="Managed reference to BaseExprNode.">
<polygon fill="white" stroke="black" points="436.5,-451.5 436.5,-519.5 595.5,-519.5 595.5,-451.5 436.5,-451.5"/>
<text text-anchor="middle" x="516" y="-507.5" font-family="Helvetica,sans-Serif" font-size="10.00">tvm::BaseExpr</text>
<polyline fill="none" stroke="black" points="436.5,-500.5 595.5,-500.5 "/>
<text text-anchor="middle" x="516" y="-488.5" font-family="Helvetica,sans-Serif" font-size="10.00"> </text>
<polyline fill="none" stroke="black" points="436.5,-481.5 595.5,-481.5 "/>
<text text-anchor="start" x="444.5" y="-469.5" font-family="Helvetica,sans-Serif" font-size="10.00">+ TVM_FFI_DEFINE_OBJECT</text>
<text text-anchor="start" x="444.5" y="-458.5" font-family="Helvetica,sans-Serif" font-size="10.00">_REF_METHODS_NULLABLE()</text>
</a>
</g>
</g>
<!-- Node6&#45;&gt;Node9 -->
<g id="edge10" class="edge">
<title>Node6&#45;&gt;Node9</title>
<path fill="none" stroke="midnightblue" d="M387.81,-565.8C411.01,-551.45 438.8,-534.26 462.57,-519.56"/>
<polygon fill="none" stroke="midnightblue" points="385.83,-562.92 379.16,-571.15 389.51,-568.87 385.83,-562.92"/>
</g>
<!-- Node7&#45;&gt;Node3 -->
<g id="edge6" class="edge">
<title>Node7&#45;&gt;Node3</title>
<path fill="none" stroke="#404040" d="M305.49,-451.23C290.38,-436.23 272.16,-418.15 255.25,-401.36"/>
<polygon fill="none" stroke="#404040" points="255.07,-401.18 247.99,-399.79 246.55,-392.73 253.63,-394.11 255.07,-401.18"/>
<text text-anchor="middle" x="286" y="-414" font-family="Helvetica,sans-Serif" font-size="10.00"> +ty</text>
</g>
<!-- Node8 -->
<g id="node8" class="node">
<title>Node8</title>
<g id="a_node8"><a xlink:href="classtvm_1_1RelaxExpr.html" target="_top" xlink:title="Managed reference to RelaxExprNode.">
<polygon fill="white" stroke="black" points="322.5,-215.5 322.5,-283.5 481.5,-283.5 481.5,-215.5 322.5,-215.5"/>
<text text-anchor="middle" x="402" y="-271.5" font-family="Helvetica,sans-Serif" font-size="10.00">tvm::RelaxExpr</text>
<polyline fill="none" stroke="black" points="322.5,-264.5 481.5,-264.5 "/>
<text text-anchor="middle" x="402" y="-252.5" font-family="Helvetica,sans-Serif" font-size="10.00"> </text>
<polyline fill="none" stroke="black" points="322.5,-245.5 481.5,-245.5 "/>
<text text-anchor="start" x="330.5" y="-233.5" font-family="Helvetica,sans-Serif" font-size="10.00">+ TVM_FFI_DEFINE_OBJECT</text>
<text text-anchor="start" x="330.5" y="-222.5" font-family="Helvetica,sans-Serif" font-size="10.00">_REF_METHODS_NULLABLE()</text>
</a>
</g>
</g>
<!-- Node8&#45;&gt;Node1 -->
<g id="edge8" class="edge">
<title>Node8&#45;&gt;Node1</title>
<path fill="none" stroke="#404040" d="M393.02,-215.37C385.64,-188.68 374.7,-150.25 364,-117 361.29,-108.57 358.27,-99.67 355.26,-91.04"/>
<polygon fill="none" stroke="#404040" points="355.18,-90.83 349.41,-86.5 351.19,-79.51 356.96,-83.84 355.18,-90.83"/>
<text text-anchor="middle" x="405.5" y="-154.5" font-family="Helvetica,sans-Serif" font-size="10.00"> +tuple</text>
</g>
<!-- Node9&#45;&gt;Node8 -->
<g id="edge9" class="edge">
<title>Node9&#45;&gt;Node8</title>
<path fill="none" stroke="midnightblue" d="M495.52,-442.46C473.37,-397 438.51,-325.45 418.19,-283.74"/>
<polygon fill="none" stroke="midnightblue" points="492.38,-444.01 499.91,-451.47 498.68,-440.95 492.38,-444.01"/>
</g>
</g>
</svg>
