<?xml version="1.0" encoding="UTF-8" standalone="no"?>
<!DOCTYPE svg PUBLIC "-//W3C//DTD SVG 1.1//EN"
 "http://www.w3.org/Graphics/SVG/1.1/DTD/svg11.dtd">
<!-- Generated by graphviz version 2.43.0 (0)
 -->
<!-- Title: tvm::relax::FunctionNode Pages: 1 -->
<svg width="781pt" height="1050pt"
 viewBox="0.00 0.00 781.00 1050.00" xmlns="http://www.w3.org/2000/svg" xmlns:xlink="http://www.w3.org/1999/xlink">
<g id="graph0" class="graph" transform="scale(1 1) rotate(0) translate(4 1046)">
<title>tvm::relax::FunctionNode</title>
<polygon fill="white" stroke="transparent" points="-4,4 -4,-1046 777,-1046 777,4 -4,4"/>
<!-- Node1 -->
<g id="node1" class="node">
<title>Node1</title>
<g id="a_node1"><a xlink:title="A Relax function.">
<polygon fill="#bfbfbf" stroke="black" points="236.5,-0.5 236.5,-101.5 398.5,-101.5 398.5,-0.5 236.5,-0.5"/>
<text text-anchor="middle" x="317.5" y="-89.5" font-family="Helvetica,sans-Serif" font-size="10.00">tvm::relax::FunctionNode</text>
<polyline fill="none" stroke="black" points="236.5,-82.5 398.5,-82.5 "/>
<text text-anchor="start" x="244.5" y="-70.5" font-family="Helvetica,sans-Serif" font-size="10.00">+ params</text>
<text text-anchor="start" x="244.5" y="-59.5" font-family="Helvetica,sans-Serif" font-size="10.00">+ is_pure</text>
<text text-anchor="start" x="244.5" y="-48.5" font-family="Helvetica,sans-Serif" font-size="10.00">+ _type_s_eq_hash_kind</text>
<polyline fill="none" stroke="black" points="236.5,-41.5 398.5,-41.5 "/>
<text text-anchor="start" x="244.5" y="-29.5" font-family="Helvetica,sans-Serif" font-size="10.00">+ TVM_FFI_DECLARE_OBJECT</text>
<text text-anchor="start" x="244.5" y="-18.5" font-family="Helvetica,sans-Serif" font-size="10.00">_INFO_FINAL()</text>
<text text-anchor="start" x="244.5" y="-7.5" font-family="Helvetica,sans-Serif" font-size="10.00">+ RegisterReflection()</text>
</a>
</g>
</g>
<!-- Node2 -->
<g id="node2" class="node">
<title>Node2</title>
<g id="a_node2"><a xlink:href="classtvm_1_1BaseFuncNode.html" target="_top" xlink:title="Base node of all functions.">
<polygon fill="white" stroke="black" points="236.5,-139.5 236.5,-262.5 398.5,-262.5 398.5,-139.5 236.5,-139.5"/>
<text text-anchor="middle" x="317.5" y="-250.5" font-family="Helvetica,sans-Serif" font-size="10.00">tvm::BaseFuncNode</text>
<polyline fill="none" stroke="black" points="236.5,-243.5 398.5,-243.5 "/>
<text text-anchor="start" x="244.5" y="-231.5" font-family="Helvetica,sans-Serif" font-size="10.00">+ _type_child_slots</text>
<polyline fill="none" stroke="black" points="236.5,-224.5 398.5,-224.5 "/>
<text text-anchor="start" x="244.5" y="-212.5" font-family="Helvetica,sans-Serif" font-size="10.00">+ GetAttr()</text>
<text text-anchor="start" x="244.5" y="-201.5" font-family="Helvetica,sans-Serif" font-size="10.00">+ GetAttr()</text>
<text text-anchor="start" x="244.5" y="-190.5" font-family="Helvetica,sans-Serif" font-size="10.00">+ HasNonzeroAttr()</text>
<text text-anchor="start" x="244.5" y="-179.5" font-family="Helvetica,sans-Serif" font-size="10.00">+ GetLinkageType()</text>
<text text-anchor="start" x="244.5" y="-168.5" font-family="Helvetica,sans-Serif" font-size="10.00">+ TVM_FFI_DECLARE_OBJECT</text>
<text text-anchor="start" x="244.5" y="-157.5" font-family="Helvetica,sans-Serif" font-size="10.00">_INFO()</text>
<text text-anchor="start" x="244.5" y="-146.5" font-family="Helvetica,sans-Serif" font-size="10.00">+ RegisterReflection()</text>
</a>
</g>
</g>
<!-- Node2&#45;&gt;Node1 -->
<g id="edge1" class="edge">
<title>Node2&#45;&gt;Node1</title>
<path fill="none" stroke="midnightblue" d="M317.5,-129.37C317.5,-120.1 317.5,-110.75 317.5,-101.92"/>
<polygon fill="none" stroke="midnightblue" points="314,-129.38 317.5,-139.38 321,-129.38 314,-129.38"/>
</g>
<!-- Node3 -->
<g id="node3" class="node">
<title>Node3</title>
<g id="a_node3"><a xlink:href="classtvm_1_1RelaxExprNode.html" target="_top" xlink:title="Base node of all non&#45;primitive expressions.">
<polygon fill="white" stroke="black" points="182.5,-412.5 182.5,-491.5 344.5,-491.5 344.5,-412.5 182.5,-412.5"/>
<text text-anchor="middle" x="263.5" y="-479.5" font-family="Helvetica,sans-Serif" font-size="10.00">tvm::RelaxExprNode</text>
<polyline fill="none" stroke="black" points="182.5,-472.5 344.5,-472.5 "/>
<text text-anchor="start" x="190.5" y="-460.5" font-family="Helvetica,sans-Serif" font-size="10.00">+ _type_child_slots</text>
<polyline fill="none" stroke="black" points="182.5,-453.5 344.5,-453.5 "/>
<text text-anchor="start" x="190.5" y="-441.5" font-family="Helvetica,sans-Serif" font-size="10.00">+ TVM_FFI_DECLARE_OBJECT</text>
<text text-anchor="start" x="190.5" y="-430.5" font-family="Helvetica,sans-Serif" font-size="10.00">_INFO()</text>
<text text-anchor="start" x="190.5" y="-419.5" font-family="Helvetica,sans-Serif" font-size="10.00">+ RegisterReflection()</text>
</a>
</g>
</g>
<!-- Node3&#45;&gt;Node2 -->
<g id="edge2" class="edge">
<title>Node3&#45;&gt;Node2</title>
<path fill="none" stroke="midnightblue" d="M274,-402.58C282.67,-362.58 295.03,-305.59 304.36,-262.57"/>
<polygon fill="none" stroke="midnightblue" points="270.58,-401.85 271.88,-412.37 277.42,-403.34 270.58,-401.85"/>
</g>
<!-- Node4 -->
<g id="node4" class="node">
<title>Node4</title>
<g id="a_node4"><a xlink:href="classtvm_1_1BaseExprNode.html" target="_top" xlink:title="Base type of all the expressions.">
<polygon fill="white" stroke="black" points="141.5,-718.5 141.5,-808.5 303.5,-808.5 303.5,-718.5 141.5,-718.5"/>
<text text-anchor="middle" x="222.5" y="-796.5" font-family="Helvetica,sans-Serif" font-size="10.00">tvm::BaseExprNode</text>
<polyline fill="none" stroke="black" points="141.5,-789.5 303.5,-789.5 "/>
<text text-anchor="start" x="149.5" y="-777.5" font-family="Helvetica,sans-Serif" font-size="10.00">+ _type_s_eq_hash_kind</text>
<text text-anchor="start" x="149.5" y="-766.5" font-family="Helvetica,sans-Serif" font-size="10.00">+ _type_child_slots</text>
<polyline fill="none" stroke="black" points="141.5,-759.5 303.5,-759.5 "/>
<text text-anchor="start" x="149.5" y="-747.5" font-family="Helvetica,sans-Serif" font-size="10.00">+ TVM_FFI_DECLARE_OBJECT</text>
<text text-anchor="start" x="149.5" y="-736.5" font-family="Helvetica,sans-Serif" font-size="10.00">_INFO()</text>
<text text-anchor="start" x="149.5" y="-725.5" font-family="Helvetica,sans-Serif" font-size="10.00">+ RegisterReflection()</text>
</a>
</g>
</g>
<!-- Node4&#45;&gt;Node3 -->
<g id="edge3" class="edge">
<title>Node4&#45;&gt;Node3</title>
<path fill="none" stroke="midnightblue" d="M229.65,-708.52C237.85,-646.64 251.08,-546.73 258.34,-491.97"/>
<polygon fill="none" stroke="midnightblue" points="226.17,-708.11 228.33,-718.48 233.11,-709.03 226.17,-708.11"/>
</g>
<!-- Node5 -->
<g id="node5" class="node">
<title>Node5</title>
<g id="a_node5"><a xlink:title=" ">
<polygon fill="white" stroke="#bfbfbf" points="177.5,-873 177.5,-930 241.5,-930 241.5,-873 177.5,-873"/>
<text text-anchor="middle" x="209.5" y="-918" font-family="Helvetica,sans-Serif" font-size="10.00">ffi::Object</text>
<polyline fill="none" stroke="#bfbfbf" points="177.5,-911 241.5,-911 "/>
<text text-anchor="middle" x="209.5" y="-899" font-family="Helvetica,sans-Serif" font-size="10.00"> </text>
<polyline fill="none" stroke="#bfbfbf" points="177.5,-892 241.5,-892 "/>
<text text-anchor="middle" x="209.5" y="-880" font-family="Helvetica,sans-Serif" font-size="10.00"> </text>
</a>
</g>
</g>
<!-- Node5&#45;&gt;Node4 -->
<g id="edge4" class="edge">
<title>Node5&#45;&gt;Node4</title>
<path fill="none" stroke="midnightblue" d="M213.09,-862.95C214.7,-846.11 216.61,-826.13 218.29,-808.58"/>
<polygon fill="none" stroke="midnightblue" points="209.6,-862.69 212.13,-872.98 216.57,-863.36 209.6,-862.69"/>
</g>
<!-- Node6 -->
<g id="node6" class="node">
<title>Node6</title>
<g id="a_node6"><a xlink:href="classtvm_1_1Span.html" target="_top" xlink:title=" ">
<polygon fill="white" stroke="black" points="260,-856.5 260,-946.5 419,-946.5 419,-856.5 260,-856.5"/>
<text text-anchor="middle" x="339.5" y="-934.5" font-family="Helvetica,sans-Serif" font-size="10.00">tvm::Span</text>
<polyline fill="none" stroke="black" points="260,-927.5 419,-927.5 "/>
<text text-anchor="middle" x="339.5" y="-915.5" font-family="Helvetica,sans-Serif" font-size="10.00"> </text>
<polyline fill="none" stroke="black" points="260,-908.5 419,-908.5 "/>
<text text-anchor="start" x="268" y="-896.5" font-family="Helvetica,sans-Serif" font-size="10.00">+ Span()</text>
<text text-anchor="start" x="268" y="-885.5" font-family="Helvetica,sans-Serif" font-size="10.00">+ Merge()</text>
<text text-anchor="start" x="268" y="-874.5" font-family="Helvetica,sans-Serif" font-size="10.00">+ TVM_FFI_DEFINE_OBJECT</text>
<text text-anchor="start" x="268" y="-863.5" font-family="Helvetica,sans-Serif" font-size="10.00">_REF_METHODS_NULLABLE()</text>
</a>
</g>
</g>
<!-- Node6&#45;&gt;Node4 -->
<g id="edge5" class="edge">
<title>Node6&#45;&gt;Node4</title>
<path fill="none" stroke="#404040" d="M301.51,-856.34C290.99,-844.11 279.45,-830.7 268.52,-818"/>
<polygon fill="none" stroke="#404040" points="268.52,-818 261.58,-816.06 260.7,-808.9 267.64,-810.84 268.52,-818"/>
<text text-anchor="middle" x="303" y="-830" font-family="Helvetica,sans-Serif" font-size="10.00"> +span</text>
</g>
<!-- Node7 -->
<g id="node7" class="node">
<title>Node7</title>
<g id="a_node7"><a xlink:title=" ">
<polygon fill="white" stroke="#bfbfbf" points="349.5,-984.5 349.5,-1041.5 429.5,-1041.5 429.5,-984.5 349.5,-984.5"/>
<text text-anchor="middle" x="389.5" y="-1029.5" font-family="Helvetica,sans-Serif" font-size="10.00">ffi::ObjectRef</text>
<polyline fill="none" stroke="#bfbfbf" points="349.5,-1022.5 429.5,-1022.5 "/>
<text text-anchor="middle" x="389.5" y="-1010.5" font-family="Helvetica,sans-Serif" font-size="10.00"> </text>
<polyline fill="none" stroke="#bfbfbf" points="349.5,-1003.5 429.5,-1003.5 "/>
<text text-anchor="middle" x="389.5" y="-991.5" font-family="Helvetica,sans-Serif" font-size="10.00"> </text>
</a>
</g>
</g>
<!-- Node7&#45;&gt;Node6 -->
<g id="edge6" class="edge">
<title>Node7&#45;&gt;Node6</title>
<path fill="none" stroke="midnightblue" d="M372.69,-975.18C368.52,-966.05 364.01,-956.18 359.7,-946.74"/>
<polygon fill="none" stroke="midnightblue" points="369.55,-976.73 376.88,-984.37 375.91,-973.82 369.55,-976.73"/>
</g>
<!-- Node8 -->
<g id="node8" class="node">
<title>Node8</title>
<g id="a_node8"><a xlink:href="classtvm_1_1Type.html" target="_top" xlink:title="Managed reference to TypeNode.">
<polygon fill="white" stroke="black" points="0,-867.5 0,-935.5 159,-935.5 159,-867.5 0,-867.5"/>
<text text-anchor="middle" x="79.5" y="-923.5" font-family="Helvetica,sans-Serif" font-size="10.00">tvm::Type</text>
<polyline fill="none" stroke="black" points="0,-916.5 159,-916.5 "/>
<text text-anchor="middle" x="79.5" y="-904.5" font-family="Helvetica,sans-Serif" font-size="10.00"> </text>
<polyline fill="none" stroke="black" points="0,-897.5 159,-897.5 "/>
<text text-anchor="start" x="8" y="-885.5" font-family="Helvetica,sans-Serif" font-size="10.00">+ TVM_FFI_DEFINE_OBJECT</text>
<text text-anchor="start" x="8" y="-874.5" font-family="Helvetica,sans-Serif" font-size="10.00">_REF_METHODS_NULLABLE()</text>
</a>
</g>
</g>
<!-- Node7&#45;&gt;Node8 -->
<g id="edge8" class="edge">
<title>Node7&#45;&gt;Node8</title>
<path fill="none" stroke="midnightblue" d="M339.38,-999.98C294.02,-988.46 225.76,-969.53 168.5,-947 159.82,-943.58 150.84,-939.63 142.08,-935.52"/>
<polygon fill="none" stroke="midnightblue" points="338.71,-1003.42 349.26,-1002.46 340.42,-996.63 338.71,-1003.42"/>
</g>
<!-- Node10 -->
<g id="node10" class="node">
<title>Node10</title>
<g id="a_node10"><a xlink:href="classtvm_1_1Attrs.html" target="_top" xlink:title="Managed reference to AttrsNode.">
<polygon fill="white" stroke="black" points="437,-867.5 437,-935.5 596,-935.5 596,-867.5 437,-867.5"/>
<text text-anchor="middle" x="516.5" y="-923.5" font-family="Helvetica,sans-Serif" font-size="10.00">tvm::Attrs</text>
<polyline fill="none" stroke="black" points="437,-916.5 596,-916.5 "/>
<text text-anchor="middle" x="516.5" y="-904.5" font-family="Helvetica,sans-Serif" font-size="10.00"> </text>
<polyline fill="none" stroke="black" points="437,-897.5 596,-897.5 "/>
<text text-anchor="start" x="445" y="-885.5" font-family="Helvetica,sans-Serif" font-size="10.00">+ TVM_FFI_DEFINE_OBJECT</text>
<text text-anchor="start" x="445" y="-874.5" font-family="Helvetica,sans-Serif" font-size="10.00">_REF_METHODS_NULLABLE()</text>
</a>
</g>
</g>
<!-- Node7&#45;&gt;Node10 -->
<g id="edge11" class="edge">
<title>Node7&#45;&gt;Node10</title>
<path fill="none" stroke="midnightblue" d="M429.45,-977.55C445,-964.15 462.74,-948.86 478.13,-935.59"/>
<polygon fill="none" stroke="midnightblue" points="426.84,-975.19 421.55,-984.37 431.41,-980.49 426.84,-975.19"/>
</g>
<!-- Node13 -->
<g id="node13" class="node">
<title>Node13</title>
<g id="a_node13"><a xlink:href="classtvm_1_1BaseExpr.html" target="_top" xlink:title="Managed reference to BaseExprNode.">
<polygon fill="white" stroke="black" points="614,-867.5 614,-935.5 773,-935.5 773,-867.5 614,-867.5"/>
<text text-anchor="middle" x="693.5" y="-923.5" font-family="Helvetica,sans-Serif" font-size="10.00">tvm::BaseExpr</text>
<polyline fill="none" stroke="black" points="614,-916.5 773,-916.5 "/>
<text text-anchor="middle" x="693.5" y="-904.5" font-family="Helvetica,sans-Serif" font-size="10.00"> </text>
<polyline fill="none" stroke="black" points="614,-897.5 773,-897.5 "/>
<text text-anchor="start" x="622" y="-885.5" font-family="Helvetica,sans-Serif" font-size="10.00">+ TVM_FFI_DEFINE_OBJECT</text>
<text text-anchor="start" x="622" y="-874.5" font-family="Helvetica,sans-Serif" font-size="10.00">_REF_METHODS_NULLABLE()</text>
</a>
</g>
</g>
<!-- Node7&#45;&gt;Node13 -->
<g id="edge15" class="edge">
<title>Node7&#45;&gt;Node13</title>
<path fill="none" stroke="midnightblue" d="M439.58,-999.61C483.91,-988.02 550,-969.18 605.5,-947 613.93,-943.63 622.63,-939.75 631.15,-935.71"/>
<polygon fill="none" stroke="midnightblue" points="438.43,-996.29 429.63,-1002.19 440.19,-1003.07 438.43,-996.29"/>
</g>
<!-- Node8&#45;&gt;Node1 -->
<g id="edge16" class="edge">
<title>Node8&#45;&gt;Node1</title>
<path fill="none" stroke="#404040" d="M83.31,-867.29C86.14,-839.79 89.5,-799.66 89.5,-764.5 89.5,-764.5 89.5,-764.5 89.5,-200 89.5,-132.03 161.68,-93.69 224.81,-73.16"/>
<polygon fill="none" stroke="#404040" points="225.02,-73.1 229.56,-67.49 236.47,-69.53 231.93,-75.13 225.02,-73.1"/>
<text text-anchor="middle" x="109.5" y="-449.5" font-family="Helvetica,sans-Serif" font-size="10.00"> +ret_ty</text>
</g>
<!-- Node8&#45;&gt;Node4 -->
<g id="edge7" class="edge">
<title>Node8&#45;&gt;Node4</title>
<path fill="none" stroke="#404040" d="M114.48,-867.23C130.25,-852.23 149.27,-834.15 166.92,-817.36"/>
<polygon fill="none" stroke="#404040" points="167.3,-817 168.89,-809.96 176,-808.73 174.41,-815.76 167.3,-817"/>
<text text-anchor="middle" x="166.5" y="-830" font-family="Helvetica,sans-Serif" font-size="10.00"> +ty</text>
</g>
<!-- Node9 -->
<g id="node9" class="node">
<title>Node9</title>
<g id="a_node9"><a xlink:href="classtvm_1_1DictAttrs.html" target="_top" xlink:title="Managed reference to DictAttrsNode.">
<polygon fill="white" stroke="black" points="323.5,-510.5 323.5,-699.5 479.5,-699.5 479.5,-510.5 323.5,-510.5"/>
<text text-anchor="middle" x="401.5" y="-687.5" font-family="Helvetica,sans-Serif" font-size="10.00">tvm::DictAttrs</text>
<polyline fill="none" stroke="black" points="323.5,-680.5 479.5,-680.5 "/>
<text text-anchor="start" x="331.5" y="-668.5" font-family="Helvetica,sans-Serif" font-size="10.00">+ _type_is_nullable</text>
<polyline fill="none" stroke="black" points="323.5,-661.5 479.5,-661.5 "/>
<text text-anchor="start" x="331.5" y="-649.5" font-family="Helvetica,sans-Serif" font-size="10.00">+ DictAttrs()</text>
<text text-anchor="start" x="331.5" y="-638.5" font-family="Helvetica,sans-Serif" font-size="10.00">+ DictAttrs()</text>
<text text-anchor="start" x="331.5" y="-627.5" font-family="Helvetica,sans-Serif" font-size="10.00">+ operator=()</text>
<text text-anchor="start" x="331.5" y="-616.5" font-family="Helvetica,sans-Serif" font-size="10.00">+ DictAttrs()</text>
<text text-anchor="start" x="331.5" y="-605.5" font-family="Helvetica,sans-Serif" font-size="10.00">+ operator=()</text>
<text text-anchor="start" x="331.5" y="-594.5" font-family="Helvetica,sans-Serif" font-size="10.00">+ GetAttr()</text>
<text text-anchor="start" x="331.5" y="-583.5" font-family="Helvetica,sans-Serif" font-size="10.00">+ GetAttr()</text>
<text text-anchor="start" x="331.5" y="-572.5" font-family="Helvetica,sans-Serif" font-size="10.00">+ HasNonzeroAttr()</text>
<text text-anchor="start" x="331.5" y="-561.5" font-family="Helvetica,sans-Serif" font-size="10.00">+ DictAttrs()</text>
<text text-anchor="start" x="331.5" y="-550.5" font-family="Helvetica,sans-Serif" font-size="10.00">+ operator&#45;&gt;()</text>
<text text-anchor="start" x="331.5" y="-539.5" font-family="Helvetica,sans-Serif" font-size="10.00">+ get()</text>
<text text-anchor="start" x="331.5" y="-528.5" font-family="Helvetica,sans-Serif" font-size="10.00">+ TVM_DEFINE_OBJECT_REF</text>
<text text-anchor="start" x="331.5" y="-517.5" font-family="Helvetica,sans-Serif" font-size="10.00">_COW_METHOD()</text>
</a>
</g>
</g>
<!-- Node9&#45;&gt;Node2 -->
<g id="edge9" class="edge">
<title>Node9&#45;&gt;Node2</title>
<path fill="none" stroke="#404040" d="M381.91,-510.26C366.9,-438.4 346.48,-340.68 332.69,-274.68"/>
<polygon fill="none" stroke="#404040" points="332.65,-274.48 327.5,-269.43 330.19,-262.74 335.33,-267.79 332.65,-274.48"/>
<text text-anchor="middle" x="393.5" y="-449.5" font-family="Helvetica,sans-Serif" font-size="10.00"> +attrs</text>
</g>
<!-- Node10&#45;&gt;Node9 -->
<g id="edge10" class="edge">
<title>Node10&#45;&gt;Node9</title>
<path fill="none" stroke="midnightblue" d="M499.84,-857.83C483.74,-816.6 458.81,-752.76 438.08,-699.68"/>
<polygon fill="none" stroke="midnightblue" points="496.63,-859.25 503.53,-867.29 503.15,-856.7 496.63,-859.25"/>
</g>
<!-- Node11 -->
<g id="node11" class="node">
<title>Node11</title>
<g id="a_node11"><a xlink:href="classtvm_1_1relax_1_1SeqExpr.html" target="_top" xlink:title=" ">
<polygon fill="white" stroke="black" points="447,-281.5 447,-393.5 606,-393.5 606,-281.5 447,-281.5"/>
<text text-anchor="middle" x="526.5" y="-381.5" font-family="Helvetica,sans-Serif" font-size="10.00">tvm::relax::SeqExpr</text>
<polyline fill="none" stroke="black" points="447,-374.5 606,-374.5 "/>
<text text-anchor="middle" x="526.5" y="-362.5" font-family="Helvetica,sans-Serif" font-size="10.00"> </text>
<polyline fill="none" stroke="black" points="447,-355.5 606,-355.5 "/>
<text text-anchor="start" x="455" y="-343.5" font-family="Helvetica,sans-Serif" font-size="10.00">+ SeqExpr()</text>
<text text-anchor="start" x="455" y="-332.5" font-family="Helvetica,sans-Serif" font-size="10.00">+ SeqExpr()</text>
<text text-anchor="start" x="455" y="-321.5" font-family="Helvetica,sans-Serif" font-size="10.00">+ TVM_FFI_DEFINE_OBJECT</text>
<text text-anchor="start" x="455" y="-310.5" font-family="Helvetica,sans-Serif" font-size="10.00">_REF_METHODS_NULLABLE()</text>
<text text-anchor="start" x="455" y="-299.5" font-family="Helvetica,sans-Serif" font-size="10.00">+ TVM_DEFINE_OBJECT_REF</text>
<text text-anchor="start" x="455" y="-288.5" font-family="Helvetica,sans-Serif" font-size="10.00">_COW_METHOD()</text>
</a>
</g>
</g>
<!-- Node11&#45;&gt;Node1 -->
<g id="edge12" class="edge">
<title>Node11&#45;&gt;Node1</title>
<path fill="none" stroke="#404040" d="M498.25,-281.21C476.11,-240.16 443.15,-183.79 407.5,-139 399.81,-129.34 391.09,-119.68 382.19,-110.49"/>
<polygon fill="none" stroke="#404040" points="382.08,-110.37 375.01,-108.93 373.63,-101.85 380.69,-103.3 382.08,-110.37"/>
<text text-anchor="middle" x="504.5" y="-198.5" font-family="Helvetica,sans-Serif" font-size="10.00"> +body</text>
</g>
<!-- Node12 -->
<g id="node12" class="node">
<title>Node12</title>
<g id="a_node12"><a xlink:href="classtvm_1_1RelaxExpr.html" target="_top" xlink:title="Managed reference to RelaxExprNode.">
<polygon fill="white" stroke="black" points="558,-729.5 558,-797.5 717,-797.5 717,-729.5 558,-729.5"/>
<text text-anchor="middle" x="637.5" y="-785.5" font-family="Helvetica,sans-Serif" font-size="10.00">Expr</text>
<polyline fill="none" stroke="black" points="558,-778.5 717,-778.5 "/>
<text text-anchor="middle" x="637.5" y="-766.5" font-family="Helvetica,sans-Serif" font-size="10.00"> </text>
<polyline fill="none" stroke="black" points="558,-759.5 717,-759.5 "/>
<text text-anchor="start" x="566" y="-747.5" font-family="Helvetica,sans-Serif" font-size="10.00">+ TVM_FFI_DEFINE_OBJECT</text>
<text text-anchor="start" x="566" y="-736.5" font-family="Helvetica,sans-Serif" font-size="10.00">_REF_METHODS_NULLABLE()</text>
</a>
</g>
</g>
<!-- Node12&#45;&gt;Node11 -->
<g id="edge13" class="edge">
<title>Node12&#45;&gt;Node11</title>
<path fill="none" stroke="midnightblue" d="M626.19,-719.31C605.88,-641.74 563.27,-478.95 540.9,-393.52"/>
<polygon fill="none" stroke="midnightblue" points="622.87,-720.44 628.79,-729.23 629.64,-718.67 622.87,-720.44"/>
</g>
<!-- Node13&#45;&gt;Node12 -->
<g id="edge14" class="edge">
<title>Node13&#45;&gt;Node12</title>
<path fill="none" stroke="midnightblue" d="M675.9,-857.75C667.94,-838.43 658.68,-815.95 651.25,-797.9"/>
<polygon fill="none" stroke="midnightblue" points="672.76,-859.32 679.8,-867.23 679.23,-856.65 672.76,-859.32"/>
</g>
</g>
</svg>
