<?xml version="1.0" encoding="UTF-8" standalone="no"?>
<!DOCTYPE svg PUBLIC "-//W3C//DTD SVG 1.1//EN"
 "http://www.w3.org/Graphics/SVG/1.1/DTD/svg11.dtd">
<!-- Generated by graphviz version 2.43.0 (0)
 -->
<!-- Title: tvm::tirx::PrimFuncNode Pages: 1 -->
<svg width="697pt" height="996pt"
 viewBox="0.00 0.00 697.00 996.00" xmlns="http://www.w3.org/2000/svg" xmlns:xlink="http://www.w3.org/1999/xlink">
<g id="graph0" class="graph" transform="scale(1 1) rotate(0) translate(4 992)">
<title>tvm::tirx::PrimFuncNode</title>
<polygon fill="white" stroke="transparent" points="-4,4 -4,-992 693,-992 693,4 -4,4"/>
<!-- Node1 -->
<g id="node1" class="node">
<title>Node1</title>
<g id="a_node1"><a xlink:title="Primitive functions that contains TIR statements.">
<polygon fill="#bfbfbf" stroke="black" points="280.5,-0.5 280.5,-101.5 442.5,-101.5 442.5,-0.5 280.5,-0.5"/>
<text text-anchor="middle" x="361.5" y="-89.5" font-family="Helvetica,sans-Serif" font-size="10.00">tvm::tirx::PrimFuncNode</text>
<polyline fill="none" stroke="black" points="280.5,-82.5 442.5,-82.5 "/>
<text text-anchor="start" x="288.5" y="-70.5" font-family="Helvetica,sans-Serif" font-size="10.00">+ params</text>
<text text-anchor="start" x="288.5" y="-59.5" font-family="Helvetica,sans-Serif" font-size="10.00">+ buffer_map</text>
<polyline fill="none" stroke="black" points="280.5,-52.5 442.5,-52.5 "/>
<text text-anchor="start" x="288.5" y="-40.5" font-family="Helvetica,sans-Serif" font-size="10.00">+ func_type_annotation()</text>
<text text-anchor="start" x="288.5" y="-29.5" font-family="Helvetica,sans-Serif" font-size="10.00">+ TVM_FFI_DECLARE_OBJECT</text>
<text text-anchor="start" x="288.5" y="-18.5" font-family="Helvetica,sans-Serif" font-size="10.00">_INFO_FINAL()</text>
<text text-anchor="start" x="288.5" y="-7.5" font-family="Helvetica,sans-Serif" font-size="10.00">+ RegisterReflection()</text>
</a>
</g>
</g>
<!-- Node2 -->
<g id="node2" class="node">
<title>Node2</title>
<g id="a_node2"><a xlink:href="classtvm_1_1BaseFuncNode.html" target="_top" xlink:title="Base node of all functions.">
<polygon fill="white" stroke="black" points="280.5,-139.5 280.5,-262.5 442.5,-262.5 442.5,-139.5 280.5,-139.5"/>
<text text-anchor="middle" x="361.5" y="-250.5" font-family="Helvetica,sans-Serif" font-size="10.00">tvm::BaseFuncNode</text>
<polyline fill="none" stroke="black" points="280.5,-243.5 442.5,-243.5 "/>
<text text-anchor="start" x="288.5" y="-231.5" font-family="Helvetica,sans-Serif" font-size="10.00">+ _type_child_slots</text>
<polyline fill="none" stroke="black" points="280.5,-224.5 442.5,-224.5 "/>
<text text-anchor="start" x="288.5" y="-212.5" font-family="Helvetica,sans-Serif" font-size="10.00">+ GetAttr()</text>
<text text-anchor="start" x="288.5" y="-201.5" font-family="Helvetica,sans-Serif" font-size="10.00">+ GetAttr()</text>
<text text-anchor="start" x="288.5" y="-190.5" font-family="Helvetica,sans-Serif" font-size="10.00">+ HasNonzeroAttr()</text>
<text text-anchor="start" x="288.5" y="-179.5" font-family="Helvetica,sans-Serif" font-size="10.00">+ GetLinkageType()</text>
<text text-anchor="start" x="288.5" y="-168.5" font-family="Helvetica,sans-Serif" font-size="10.00">+ TVM_FFI_DECLARE_OBJECT</text>
<text text-anchor="start" x="288.5" y="-157.5" font-family="Helvetica,sans-Serif" font-size="10.00">_INFO()</text>
<text text-anchor="start" x="288.5" y="-146.5" font-family="Helvetica,sans-Serif" font-size="10.00">+ RegisterReflection()</text>
</a>
</g>
</g>
<!-- Node2&#45;&gt;Node1 -->
<g id="edge1" class="edge">
<title>Node2&#45;&gt;Node1</title>
<path fill="none" stroke="midnightblue" d="M361.5,-129.37C361.5,-120.1 361.5,-110.75 361.5,-101.92"/>
<polygon fill="none" stroke="midnightblue" points="358,-129.38 361.5,-139.38 365,-129.38 358,-129.38"/>
</g>
<!-- Node3 -->
<g id="node3" class="node">
<title>Node3</title>
<g id="a_node3"><a xlink:href="classtvm_1_1RelaxExprNode.html" target="_top" xlink:title="Base node of all non&#45;primitive expressions.">
<polygon fill="white" stroke="black" points="176.5,-300.5 176.5,-379.5 338.5,-379.5 338.5,-300.5 176.5,-300.5"/>
<text text-anchor="middle" x="257.5" y="-367.5" font-family="Helvetica,sans-Serif" font-size="10.00">tvm::RelaxExprNode</text>
<polyline fill="none" stroke="black" points="176.5,-360.5 338.5,-360.5 "/>
<text text-anchor="start" x="184.5" y="-348.5" font-family="Helvetica,sans-Serif" font-size="10.00">+ _type_child_slots</text>
<polyline fill="none" stroke="black" points="176.5,-341.5 338.5,-341.5 "/>
<text text-anchor="start" x="184.5" y="-329.5" font-family="Helvetica,sans-Serif" font-size="10.00">+ TVM_FFI_DECLARE_OBJECT</text>
<text text-anchor="start" x="184.5" y="-318.5" font-family="Helvetica,sans-Serif" font-size="10.00">_INFO()</text>
<text text-anchor="start" x="184.5" y="-307.5" font-family="Helvetica,sans-Serif" font-size="10.00">+ RegisterReflection()</text>
</a>
</g>
</g>
<!-- Node3&#45;&gt;Node2 -->
<g id="edge2" class="edge">
<title>Node3&#45;&gt;Node2</title>
<path fill="none" stroke="midnightblue" d="M292.99,-292.25C300.25,-282.69 307.99,-272.49 315.55,-262.53"/>
<polygon fill="none" stroke="midnightblue" points="290.01,-290.39 286.75,-300.47 295.58,-294.62 290.01,-290.39"/>
</g>
<!-- Node4 -->
<g id="node4" class="node">
<title>Node4</title>
<g id="a_node4"><a xlink:href="classtvm_1_1BaseExprNode.html" target="_top" xlink:title="Base type of all the expressions.">
<polygon fill="white" stroke="black" points="158.5,-606.5 158.5,-696.5 320.5,-696.5 320.5,-606.5 158.5,-606.5"/>
<text text-anchor="middle" x="239.5" y="-684.5" font-family="Helvetica,sans-Serif" font-size="10.00">tvm::BaseExprNode</text>
<polyline fill="none" stroke="black" points="158.5,-677.5 320.5,-677.5 "/>
<text text-anchor="start" x="166.5" y="-665.5" font-family="Helvetica,sans-Serif" font-size="10.00">+ _type_s_eq_hash_kind</text>
<text text-anchor="start" x="166.5" y="-654.5" font-family="Helvetica,sans-Serif" font-size="10.00">+ _type_child_slots</text>
<polyline fill="none" stroke="black" points="158.5,-647.5 320.5,-647.5 "/>
<text text-anchor="start" x="166.5" y="-635.5" font-family="Helvetica,sans-Serif" font-size="10.00">+ TVM_FFI_DECLARE_OBJECT</text>
<text text-anchor="start" x="166.5" y="-624.5" font-family="Helvetica,sans-Serif" font-size="10.00">_INFO()</text>
<text text-anchor="start" x="166.5" y="-613.5" font-family="Helvetica,sans-Serif" font-size="10.00">+ RegisterReflection()</text>
</a>
</g>
</g>
<!-- Node4&#45;&gt;Node3 -->
<g id="edge3" class="edge">
<title>Node4&#45;&gt;Node3</title>
<path fill="none" stroke="midnightblue" d="M242.66,-596.14C246.26,-534.23 252.06,-434.62 255.23,-379.97"/>
<polygon fill="none" stroke="midnightblue" points="239.15,-596.3 242.06,-606.48 246.13,-596.7 239.15,-596.3"/>
</g>
<!-- Node5 -->
<g id="node5" class="node">
<title>Node5</title>
<g id="a_node5"><a xlink:title=" ">
<polygon fill="white" stroke="#bfbfbf" points="177.5,-819 177.5,-876 241.5,-876 241.5,-819 177.5,-819"/>
<text text-anchor="middle" x="209.5" y="-864" font-family="Helvetica,sans-Serif" font-size="10.00">ffi::Object</text>
<polyline fill="none" stroke="#bfbfbf" points="177.5,-857 241.5,-857 "/>
<text text-anchor="middle" x="209.5" y="-845" font-family="Helvetica,sans-Serif" font-size="10.00"> </text>
<polyline fill="none" stroke="#bfbfbf" points="177.5,-838 241.5,-838 "/>
<text text-anchor="middle" x="209.5" y="-826" font-family="Helvetica,sans-Serif" font-size="10.00"> </text>
</a>
</g>
</g>
<!-- Node5&#45;&gt;Node4 -->
<g id="edge4" class="edge">
<title>Node5&#45;&gt;Node4</title>
<path fill="none" stroke="midnightblue" d="M215.33,-808.81C220.29,-776.72 227.43,-730.57 232.66,-696.73"/>
<polygon fill="none" stroke="midnightblue" points="211.87,-808.29 213.8,-818.7 218.79,-809.36 211.87,-808.29"/>
</g>
<!-- Node6 -->
<g id="node6" class="node">
<title>Node6</title>
<g id="a_node6"><a xlink:href="classtvm_1_1Span.html" target="_top" xlink:title=" ">
<polygon fill="white" stroke="black" points="260,-802.5 260,-892.5 419,-892.5 419,-802.5 260,-802.5"/>
<text text-anchor="middle" x="339.5" y="-880.5" font-family="Helvetica,sans-Serif" font-size="10.00">tvm::Span</text>
<polyline fill="none" stroke="black" points="260,-873.5 419,-873.5 "/>
<text text-anchor="middle" x="339.5" y="-861.5" font-family="Helvetica,sans-Serif" font-size="10.00"> </text>
<polyline fill="none" stroke="black" points="260,-854.5 419,-854.5 "/>
<text text-anchor="start" x="268" y="-842.5" font-family="Helvetica,sans-Serif" font-size="10.00">+ Span()</text>
<text text-anchor="start" x="268" y="-831.5" font-family="Helvetica,sans-Serif" font-size="10.00">+ Merge()</text>
<text text-anchor="start" x="268" y="-820.5" font-family="Helvetica,sans-Serif" font-size="10.00">+ TVM_FFI_DEFINE_OBJECT</text>
<text text-anchor="start" x="268" y="-809.5" font-family="Helvetica,sans-Serif" font-size="10.00">_REF_METHODS_NULLABLE()</text>
</a>
</g>
</g>
<!-- Node6&#45;&gt;Node4 -->
<g id="edge5" class="edge">
<title>Node6&#45;&gt;Node4</title>
<path fill="none" stroke="#404040" d="M316.81,-802.48C302.28,-774.3 283.33,-737.52 267.82,-707.44"/>
<polygon fill="none" stroke="#404040" points="267.77,-707.35 261.47,-703.85 262.27,-696.68 268.58,-700.18 267.77,-707.35"/>
<text text-anchor="middle" x="325" y="-747" font-family="Helvetica,sans-Serif" font-size="10.00"> +span</text>
</g>
<!-- Node7 -->
<g id="node7" class="node">
<title>Node7</title>
<g id="a_node7"><a xlink:title=" ">
<polygon fill="white" stroke="#bfbfbf" points="409.5,-930.5 409.5,-987.5 489.5,-987.5 489.5,-930.5 409.5,-930.5"/>
<text text-anchor="middle" x="449.5" y="-975.5" font-family="Helvetica,sans-Serif" font-size="10.00">ffi::ObjectRef</text>
<polyline fill="none" stroke="#bfbfbf" points="409.5,-968.5 489.5,-968.5 "/>
<text text-anchor="middle" x="449.5" y="-956.5" font-family="Helvetica,sans-Serif" font-size="10.00"> </text>
<polyline fill="none" stroke="#bfbfbf" points="409.5,-949.5 489.5,-949.5 "/>
<text text-anchor="middle" x="449.5" y="-937.5" font-family="Helvetica,sans-Serif" font-size="10.00"> </text>
</a>
</g>
</g>
<!-- Node7&#45;&gt;Node6 -->
<g id="edge6" class="edge">
<title>Node7&#45;&gt;Node6</title>
<path fill="none" stroke="midnightblue" d="M414.52,-923.18C404.81,-913.51 394.13,-902.88 383.94,-892.74"/>
<polygon fill="none" stroke="midnightblue" points="412.19,-925.79 421.74,-930.37 417.12,-920.83 412.19,-925.79"/>
</g>
<!-- Node8 -->
<g id="node8" class="node">
<title>Node8</title>
<g id="a_node8"><a xlink:href="classtvm_1_1Type.html" target="_top" xlink:title="Managed reference to TypeNode.">
<polygon fill="white" stroke="black" points="0,-813.5 0,-881.5 159,-881.5 159,-813.5 0,-813.5"/>
<text text-anchor="middle" x="79.5" y="-869.5" font-family="Helvetica,sans-Serif" font-size="10.00">tvm::Type</text>
<polyline fill="none" stroke="black" points="0,-862.5 159,-862.5 "/>
<text text-anchor="middle" x="79.5" y="-850.5" font-family="Helvetica,sans-Serif" font-size="10.00"> </text>
<polyline fill="none" stroke="black" points="0,-843.5 159,-843.5 "/>
<text text-anchor="start" x="8" y="-831.5" font-family="Helvetica,sans-Serif" font-size="10.00">+ TVM_FFI_DEFINE_OBJECT</text>
<text text-anchor="start" x="8" y="-820.5" font-family="Helvetica,sans-Serif" font-size="10.00">_REF_METHODS_NULLABLE()</text>
</a>
</g>
</g>
<!-- Node7&#45;&gt;Node8 -->
<g id="edge8" class="edge">
<title>Node7&#45;&gt;Node8</title>
<path fill="none" stroke="midnightblue" d="M398.89,-950.01C341.82,-940.16 246.78,-921.18 168.5,-893 159.4,-889.72 150.02,-885.75 140.92,-881.54"/>
<polygon fill="none" stroke="midnightblue" points="398.65,-953.52 409.09,-951.75 399.82,-946.62 398.65,-953.52"/>
</g>
<!-- Node10 -->
<g id="node10" class="node">
<title>Node10</title>
<g id="a_node10"><a xlink:href="classtvm_1_1Attrs.html" target="_top" xlink:title="Managed reference to AttrsNode.">
<polygon fill="white" stroke="black" points="437,-813.5 437,-881.5 596,-881.5 596,-813.5 437,-813.5"/>
<text text-anchor="middle" x="516.5" y="-869.5" font-family="Helvetica,sans-Serif" font-size="10.00">tvm::Attrs</text>
<polyline fill="none" stroke="black" points="437,-862.5 596,-862.5 "/>
<text text-anchor="middle" x="516.5" y="-850.5" font-family="Helvetica,sans-Serif" font-size="10.00"> </text>
<polyline fill="none" stroke="black" points="437,-843.5 596,-843.5 "/>
<text text-anchor="start" x="445" y="-831.5" font-family="Helvetica,sans-Serif" font-size="10.00">+ TVM_FFI_DEFINE_OBJECT</text>
<text text-anchor="start" x="445" y="-820.5" font-family="Helvetica,sans-Serif" font-size="10.00">_REF_METHODS_NULLABLE()</text>
</a>
</g>
</g>
<!-- Node7&#45;&gt;Node10 -->
<g id="edge11" class="edge">
<title>Node7&#45;&gt;Node10</title>
<path fill="none" stroke="midnightblue" d="M471.71,-921.7C479.63,-908.75 488.51,-894.25 496.26,-881.59"/>
<polygon fill="none" stroke="midnightblue" points="468.64,-920.01 466.41,-930.37 474.61,-923.67 468.64,-920.01"/>
</g>
<!-- Node11 -->
<g id="node11" class="node">
<title>Node11</title>
<g id="a_node11"><a xlink:href="classtvm_1_1tirx_1_1Stmt.html" target="_top" xlink:title="Container of all statements.">
<polygon fill="white" stroke="black" points="530,-715.5 530,-783.5 689,-783.5 689,-715.5 530,-715.5"/>
<text text-anchor="middle" x="609.5" y="-771.5" font-family="Helvetica,sans-Serif" font-size="10.00">tvm::tirx::Stmt</text>
<polyline fill="none" stroke="black" points="530,-764.5 689,-764.5 "/>
<text text-anchor="middle" x="609.5" y="-752.5" font-family="Helvetica,sans-Serif" font-size="10.00"> </text>
<polyline fill="none" stroke="black" points="530,-745.5 689,-745.5 "/>
<text text-anchor="start" x="538" y="-733.5" font-family="Helvetica,sans-Serif" font-size="10.00">+ TVM_FFI_DEFINE_OBJECT</text>
<text text-anchor="start" x="538" y="-722.5" font-family="Helvetica,sans-Serif" font-size="10.00">_REF_METHODS_NULLABLE()</text>
</a>
</g>
</g>
<!-- Node7&#45;&gt;Node11 -->
<g id="edge13" class="edge">
<title>Node7&#45;&gt;Node11</title>
<path fill="none" stroke="midnightblue" d="M499.58,-951.48C535.52,-943.92 581.65,-927.7 605.5,-893 627.51,-860.98 624.02,-814.63 618.04,-783.58"/>
<polygon fill="none" stroke="midnightblue" points="498.89,-948.05 489.74,-953.39 500.23,-954.92 498.89,-948.05"/>
</g>
<!-- Node8&#45;&gt;Node1 -->
<g id="edge14" class="edge">
<title>Node8&#45;&gt;Node1</title>
<path fill="none" stroke="#404040" d="M83.64,-813.26C88.08,-774.67 94.5,-709.08 94.5,-652.5 94.5,-652.5 94.5,-652.5 94.5,-200 94.5,-118.38 191.13,-81.4 268.13,-64.89"/>
<polygon fill="none" stroke="#404040" points="268.54,-64.8 273.63,-59.69 280.3,-62.41 275.22,-67.53 268.54,-64.8"/>
<text text-anchor="middle" x="120.5" y="-337.5" font-family="Helvetica,sans-Serif" font-size="10.00"> +ret_type</text>
</g>
<!-- Node8&#45;&gt;Node4 -->
<g id="edge7" class="edge">
<title>Node8&#45;&gt;Node4</title>
<path fill="none" stroke="#404040" d="M107,-813.15C131.26,-783.74 167.04,-740.35 195.31,-706.08"/>
<polygon fill="none" stroke="#404040" points="195.43,-705.93 196.17,-698.76 203.07,-696.67 202.34,-703.85 195.43,-705.93"/>
<text text-anchor="middle" x="199.5" y="-747" font-family="Helvetica,sans-Serif" font-size="10.00"> +ty</text>
</g>
<!-- Node9 -->
<g id="node9" class="node">
<title>Node9</title>
<g id="a_node9"><a xlink:href="classtvm_1_1DictAttrs.html" target="_top" xlink:title="Managed reference to DictAttrsNode.">
<polygon fill="white" stroke="black" points="339.5,-398.5 339.5,-587.5 495.5,-587.5 495.5,-398.5 339.5,-398.5"/>
<text text-anchor="middle" x="417.5" y="-575.5" font-family="Helvetica,sans-Serif" font-size="10.00">tvm::DictAttrs</text>
<polyline fill="none" stroke="black" points="339.5,-568.5 495.5,-568.5 "/>
<text text-anchor="start" x="347.5" y="-556.5" font-family="Helvetica,sans-Serif" font-size="10.00">+ _type_is_nullable</text>
<polyline fill="none" stroke="black" points="339.5,-549.5 495.5,-549.5 "/>
<text text-anchor="start" x="347.5" y="-537.5" font-family="Helvetica,sans-Serif" font-size="10.00">+ DictAttrs()</text>
<text text-anchor="start" x="347.5" y="-526.5" font-family="Helvetica,sans-Serif" font-size="10.00">+ DictAttrs()</text>
<text text-anchor="start" x="347.5" y="-515.5" font-family="Helvetica,sans-Serif" font-size="10.00">+ operator=()</text>
<text text-anchor="start" x="347.5" y="-504.5" font-family="Helvetica,sans-Serif" font-size="10.00">+ DictAttrs()</text>
<text text-anchor="start" x="347.5" y="-493.5" font-family="Helvetica,sans-Serif" font-size="10.00">+ operator=()</text>
<text text-anchor="start" x="347.5" y="-482.5" font-family="Helvetica,sans-Serif" font-size="10.00">+ GetAttr()</text>
<text text-anchor="start" x="347.5" y="-471.5" font-family="Helvetica,sans-Serif" font-size="10.00">+ GetAttr()</text>
<text text-anchor="start" x="347.5" y="-460.5" font-family="Helvetica,sans-Serif" font-size="10.00">+ HasNonzeroAttr()</text>
<text text-anchor="start" x="347.5" y="-449.5" font-family="Helvetica,sans-Serif" font-size="10.00">+ DictAttrs()</text>
<text text-anchor="start" x="347.5" y="-438.5" font-family="Helvetica,sans-Serif" font-size="10.00">+ operator&#45;&gt;()</text>
<text text-anchor="start" x="347.5" y="-427.5" font-family="Helvetica,sans-Serif" font-size="10.00">+ get()</text>
<text text-anchor="start" x="347.5" y="-416.5" font-family="Helvetica,sans-Serif" font-size="10.00">+ TVM_DEFINE_OBJECT_REF</text>
<text text-anchor="start" x="347.5" y="-405.5" font-family="Helvetica,sans-Serif" font-size="10.00">_COW_METHOD()</text>
</a>
</g>
</g>
<!-- Node9&#45;&gt;Node2 -->
<g id="edge9" class="edge">
<title>Node9&#45;&gt;Node2</title>
<path fill="none" stroke="#404040" d="M399.4,-398.25C391.64,-358.08 382.72,-311.89 375.48,-274.42"/>
<polygon fill="none" stroke="#404040" points="375.47,-274.36 370.41,-269.22 373.2,-262.57 378.26,-267.71 375.47,-274.36"/>
<text text-anchor="middle" x="413.5" y="-337.5" font-family="Helvetica,sans-Serif" font-size="10.00"> +attrs</text>
</g>
<!-- Node10&#45;&gt;Node9 -->
<g id="edge10" class="edge">
<title>Node10&#45;&gt;Node9</title>
<path fill="none" stroke="midnightblue" d="M504.43,-803.52C489.44,-750.16 463.45,-657.62 443.78,-587.59"/>
<polygon fill="none" stroke="midnightblue" points="501.11,-804.66 507.19,-813.34 507.85,-802.76 501.11,-804.66"/>
</g>
<!-- Node11&#45;&gt;Node1 -->
<g id="edge12" class="edge">
<title>Node11&#45;&gt;Node1</title>
<path fill="none" stroke="#404040" d="M598.65,-715.15C583.95,-666.91 559.5,-574.6 559.5,-494 559.5,-494 559.5,-494 559.5,-200 559.5,-142.62 505.5,-104.81 453.9,-81.78"/>
<polygon fill="none" stroke="#404040" points="453.64,-81.66 446.55,-82.98 442.61,-76.94 449.7,-75.63 453.64,-81.66"/>
<text text-anchor="middle" x="577.5" y="-337.5" font-family="Helvetica,sans-Serif" font-size="10.00"> +body</text>
</g>
</g>
</svg>
