<?xml version="1.0" encoding="UTF-8" standalone="no"?>
<!DOCTYPE svg PUBLIC "-//W3C//DTD SVG 1.1//EN"
 "http://www.w3.org/Graphics/SVG/1.1/DTD/svg11.dtd">
<!-- Generated by graphviz version 2.43.0 (0)
 -->
<!-- Title: tvm::script::ir_builder::tirx::TIRFrameNode Pages: 1 -->
<svg width="2698pt" height="623pt"
 viewBox="0.00 0.00 2698.00 623.00" xmlns="http://www.w3.org/2000/svg" xmlns:xlink="http://www.w3.org/1999/xlink">
<g id="graph0" class="graph" transform="scale(1 1) rotate(0) translate(4 619)">
<title>tvm::script::ir_builder::tirx::TIRFrameNode</title>
<polygon fill="white" stroke="transparent" points="-4,4 -4,-619 2694,-619 2694,4 -4,4"/>
<!-- Node1 -->
<g id="node1" class="node">
<title>Node1</title>
<g id="a_node1"><a xlink:title="A base frame that represents the TIR fame with body of statements.">
<polygon fill="#bfbfbf" stroke="black" points="1260,-248.5 1260,-338.5 1422,-338.5 1422,-248.5 1260,-248.5"/>
<text text-anchor="start" x="1268" y="-326.5" font-family="Helvetica,sans-Serif" font-size="10.00">tvm::script::ir_builder</text>
<text text-anchor="middle" x="1341" y="-315.5" font-family="Helvetica,sans-Serif" font-size="10.00">::tirx::TIRFrameNode</text>
<polyline fill="none" stroke="black" points="1260,-308.5 1422,-308.5 "/>
<text text-anchor="start" x="1268" y="-296.5" font-family="Helvetica,sans-Serif" font-size="10.00">+ stmts</text>
<polyline fill="none" stroke="black" points="1260,-289.5 1422,-289.5 "/>
<text text-anchor="start" x="1268" y="-277.5" font-family="Helvetica,sans-Serif" font-size="10.00">+ TVM_FFI_DECLARE_OBJECT</text>
<text text-anchor="start" x="1268" y="-266.5" font-family="Helvetica,sans-Serif" font-size="10.00">_INFO()</text>
<text text-anchor="start" x="1268" y="-255.5" font-family="Helvetica,sans-Serif" font-size="10.00">+ RegisterReflection()</text>
</a>
</g>
</g>
<!-- Node4 -->
<g id="node4" class="node">
<title>Node4</title>
<g id="a_node4"><a xlink:href="classtvm_1_1script_1_1ir__builder_1_1tirx_1_1AllocBufferFrameNode.html" target="_top" xlink:title=" ">
<polygon fill="white" stroke="black" points="0,-55.5 0,-156.5 162,-156.5 162,-55.5 0,-55.5"/>
<text text-anchor="start" x="8" y="-144.5" font-family="Helvetica,sans-Serif" font-size="10.00">tvm::script::ir_builder</text>
<text text-anchor="middle" x="81" y="-133.5" font-family="Helvetica,sans-Serif" font-size="10.00">::tirx::AllocBufferFrameNode</text>
<polyline fill="none" stroke="black" points="0,-126.5 162,-126.5 "/>
<text text-anchor="start" x="8" y="-114.5" font-family="Helvetica,sans-Serif" font-size="10.00">+ buffer</text>
<polyline fill="none" stroke="black" points="0,-107.5 162,-107.5 "/>
<text text-anchor="start" x="8" y="-95.5" font-family="Helvetica,sans-Serif" font-size="10.00">+ TVM_FFI_DECLARE_OBJECT</text>
<text text-anchor="start" x="8" y="-84.5" font-family="Helvetica,sans-Serif" font-size="10.00">_INFO_FINAL()</text>
<text text-anchor="start" x="8" y="-73.5" font-family="Helvetica,sans-Serif" font-size="10.00">+ ExitWithScope()</text>
<text text-anchor="start" x="8" y="-62.5" font-family="Helvetica,sans-Serif" font-size="10.00">+ RegisterReflection()</text>
</a>
</g>
</g>
<!-- Node1&#45;&gt;Node4 -->
<g id="edge3" class="edge">
<title>Node1&#45;&gt;Node4</title>
<path fill="none" stroke="midnightblue" d="M1249.84,-290.27C991.4,-283.37 266.44,-259.93 171,-212 146.54,-199.72 126.02,-177.55 110.78,-156.74"/>
<polygon fill="none" stroke="midnightblue" points="1249.86,-293.77 1259.95,-290.53 1250.04,-286.77 1249.86,-293.77"/>
</g>
<!-- Node5 -->
<g id="node5" class="node">
<title>Node5</title>
<g id="a_node5"><a xlink:href="classtvm_1_1script_1_1ir__builder_1_1tirx_1_1AssertFrameNode.html" target="_top" xlink:title="A frame that represents the assert statement. Proceeds if the condition is true, otherwise aborts wit...">
<polygon fill="white" stroke="black" points="180,-44.5 180,-167.5 342,-167.5 342,-44.5 180,-44.5"/>
<text text-anchor="start" x="188" y="-155.5" font-family="Helvetica,sans-Serif" font-size="10.00">tvm::script::ir_builder</text>
<text text-anchor="middle" x="261" y="-144.5" font-family="Helvetica,sans-Serif" font-size="10.00">::tirx::AssertFrameNode</text>
<polyline fill="none" stroke="black" points="180,-137.5 342,-137.5 "/>
<text text-anchor="start" x="188" y="-125.5" font-family="Helvetica,sans-Serif" font-size="10.00">+ condition</text>
<text text-anchor="start" x="188" y="-114.5" font-family="Helvetica,sans-Serif" font-size="10.00">+ error_kind</text>
<text text-anchor="start" x="188" y="-103.5" font-family="Helvetica,sans-Serif" font-size="10.00">+ message_parts</text>
<polyline fill="none" stroke="black" points="180,-96.5 342,-96.5 "/>
<text text-anchor="start" x="188" y="-84.5" font-family="Helvetica,sans-Serif" font-size="10.00">+ TVM_FFI_DECLARE_OBJECT</text>
<text text-anchor="start" x="188" y="-73.5" font-family="Helvetica,sans-Serif" font-size="10.00">_INFO_FINAL()</text>
<text text-anchor="start" x="188" y="-62.5" font-family="Helvetica,sans-Serif" font-size="10.00">+ ExitWithScope()</text>
<text text-anchor="start" x="188" y="-51.5" font-family="Helvetica,sans-Serif" font-size="10.00">+ RegisterReflection()</text>
</a>
</g>
</g>
<!-- Node1&#45;&gt;Node5 -->
<g id="edge4" class="edge">
<title>Node1&#45;&gt;Node5</title>
<path fill="none" stroke="midnightblue" d="M1249.66,-289.03C1019.76,-279.74 429.9,-252.24 351,-212 330.9,-201.75 313.42,-184.87 299.36,-167.61"/>
<polygon fill="none" stroke="midnightblue" points="1249.54,-292.53 1259.67,-289.43 1249.82,-285.53 1249.54,-292.53"/>
</g>
<!-- Node6 -->
<g id="node6" class="node">
<title>Node6</title>
<g id="a_node6"><a xlink:href="classtvm_1_1script_1_1ir__builder_1_1tirx_1_1AttrFrameNode.html" target="_top" xlink:title="A frame that represents attribute node.">
<polygon fill="white" stroke="black" points="360,-44.5 360,-167.5 522,-167.5 522,-44.5 360,-44.5"/>
<text text-anchor="start" x="368" y="-155.5" font-family="Helvetica,sans-Serif" font-size="10.00">tvm::script::ir_builder</text>
<text text-anchor="middle" x="441" y="-144.5" font-family="Helvetica,sans-Serif" font-size="10.00">::tirx::AttrFrameNode</text>
<polyline fill="none" stroke="black" points="360,-137.5 522,-137.5 "/>
<text text-anchor="start" x="368" y="-125.5" font-family="Helvetica,sans-Serif" font-size="10.00">+ node</text>
<text text-anchor="start" x="368" y="-114.5" font-family="Helvetica,sans-Serif" font-size="10.00">+ attr_key</text>
<text text-anchor="start" x="368" y="-103.5" font-family="Helvetica,sans-Serif" font-size="10.00">+ value</text>
<polyline fill="none" stroke="black" points="360,-96.5 522,-96.5 "/>
<text text-anchor="start" x="368" y="-84.5" font-family="Helvetica,sans-Serif" font-size="10.00">+ TVM_FFI_DECLARE_OBJECT</text>
<text text-anchor="start" x="368" y="-73.5" font-family="Helvetica,sans-Serif" font-size="10.00">_INFO_FINAL()</text>
<text text-anchor="start" x="368" y="-62.5" font-family="Helvetica,sans-Serif" font-size="10.00">+ ExitWithScope()</text>
<text text-anchor="start" x="368" y="-51.5" font-family="Helvetica,sans-Serif" font-size="10.00">+ RegisterReflection()</text>
</a>
</g>
</g>
<!-- Node1&#45;&gt;Node6 -->
<g id="edge5" class="edge">
<title>Node1&#45;&gt;Node6</title>
<path fill="none" stroke="midnightblue" d="M1249.43,-291.87C1064.58,-289.24 653.98,-276.12 531,-212 511.09,-201.62 493.72,-184.82 479.69,-167.67"/>
<polygon fill="none" stroke="midnightblue" points="1249.62,-295.37 1259.67,-292.01 1249.71,-288.37 1249.62,-295.37"/>
</g>
<!-- Node7 -->
<g id="node7" class="node">
<title>Node7</title>
<g id="a_node7"><a xlink:href="classtvm_1_1script_1_1ir__builder_1_1tirx_1_1BlockInitFrameNode.html" target="_top" xlink:title="A frame that represents the block initialization statment.">
<polygon fill="white" stroke="black" points="540,-50 540,-162 702,-162 702,-50 540,-50"/>
<text text-anchor="start" x="548" y="-150" font-family="Helvetica,sans-Serif" font-size="10.00">tvm::script::ir_builder</text>
<text text-anchor="middle" x="621" y="-139" font-family="Helvetica,sans-Serif" font-size="10.00">::tirx::BlockInitFrameNode</text>
<polyline fill="none" stroke="black" points="540,-132 702,-132 "/>
<text text-anchor="middle" x="621" y="-120" font-family="Helvetica,sans-Serif" font-size="10.00"> </text>
<polyline fill="none" stroke="black" points="540,-113 702,-113 "/>
<text text-anchor="start" x="548" y="-101" font-family="Helvetica,sans-Serif" font-size="10.00">+ TVM_FFI_DECLARE_OBJECT</text>
<text text-anchor="start" x="548" y="-90" font-family="Helvetica,sans-Serif" font-size="10.00">_INFO_FINAL()</text>
<text text-anchor="start" x="548" y="-79" font-family="Helvetica,sans-Serif" font-size="10.00">+ EnterWithScope()</text>
<text text-anchor="start" x="548" y="-68" font-family="Helvetica,sans-Serif" font-size="10.00">+ ExitWithScope()</text>
<text text-anchor="start" x="548" y="-57" font-family="Helvetica,sans-Serif" font-size="10.00">+ RegisterReflection()</text>
</a>
</g>
</g>
<!-- Node1&#45;&gt;Node7 -->
<g id="edge6" class="edge">
<title>Node1&#45;&gt;Node7</title>
<path fill="none" stroke="midnightblue" d="M1249.52,-288.84C1097.85,-281.46 802.01,-261.09 711,-212 689.23,-200.26 670.41,-180.97 655.69,-162.11"/>
<polygon fill="none" stroke="midnightblue" points="1249.59,-292.35 1259.74,-289.33 1249.92,-285.36 1249.59,-292.35"/>
</g>
<!-- Node8 -->
<g id="node8" class="node">
<title>Node8</title>
<g id="a_node8"><a xlink:href="classtvm_1_1script_1_1ir__builder_1_1tirx_1_1ComposeOpFrameNode.html" target="_top" xlink:title=" ">
<polygon fill="white" stroke="black" points="720,-44.5 720,-167.5 882,-167.5 882,-44.5 720,-44.5"/>
<text text-anchor="start" x="728" y="-155.5" font-family="Helvetica,sans-Serif" font-size="10.00">tvm::script::ir_builder</text>
<text text-anchor="middle" x="801" y="-144.5" font-family="Helvetica,sans-Serif" font-size="10.00">::tirx::ComposeOpFrameNode</text>
<polyline fill="none" stroke="black" points="720,-137.5 882,-137.5 "/>
<text text-anchor="start" x="728" y="-125.5" font-family="Helvetica,sans-Serif" font-size="10.00">+ workspace</text>
<text text-anchor="start" x="728" y="-114.5" font-family="Helvetica,sans-Serif" font-size="10.00">+ config</text>
<text text-anchor="start" x="728" y="-103.5" font-family="Helvetica,sans-Serif" font-size="10.00">+ dispatch</text>
<polyline fill="none" stroke="black" points="720,-96.5 882,-96.5 "/>
<text text-anchor="start" x="728" y="-84.5" font-family="Helvetica,sans-Serif" font-size="10.00">+ TVM_FFI_DECLARE_OBJECT</text>
<text text-anchor="start" x="728" y="-73.5" font-family="Helvetica,sans-Serif" font-size="10.00">_INFO_FINAL()</text>
<text text-anchor="start" x="728" y="-62.5" font-family="Helvetica,sans-Serif" font-size="10.00">+ ExitWithScope()</text>
<text text-anchor="start" x="728" y="-51.5" font-family="Helvetica,sans-Serif" font-size="10.00">+ RegisterReflection()</text>
</a>
</g>
</g>
<!-- Node1&#45;&gt;Node8 -->
<g id="edge7" class="edge">
<title>Node1&#45;&gt;Node8</title>
<path fill="none" stroke="midnightblue" d="M1249.56,-283.46C1136.24,-271.01 950.77,-246.19 891,-212 871.83,-201.03 854.81,-184.39 840.88,-167.56"/>
<polygon fill="none" stroke="midnightblue" points="1249.3,-286.95 1259.62,-284.55 1250.06,-279.99 1249.3,-286.95"/>
</g>
<!-- Node9 -->
<g id="node9" class="node">
<title>Node9</title>
<g id="a_node9"><a xlink:href="classtvm_1_1script_1_1ir__builder_1_1tirx_1_1DeclBufferFrameNode.html" target="_top" xlink:title=" ">
<polygon fill="white" stroke="black" points="900,-50 900,-162 1062,-162 1062,-50 900,-50"/>
<text text-anchor="start" x="908" y="-150" font-family="Helvetica,sans-Serif" font-size="10.00">tvm::script::ir_builder</text>
<text text-anchor="middle" x="981" y="-139" font-family="Helvetica,sans-Serif" font-size="10.00">::tirx::DeclBufferFrameNode</text>
<polyline fill="none" stroke="black" points="900,-132 1062,-132 "/>
<text text-anchor="start" x="908" y="-120" font-family="Helvetica,sans-Serif" font-size="10.00">+ buffer</text>
<text text-anchor="start" x="908" y="-109" font-family="Helvetica,sans-Serif" font-size="10.00">+ allocated</text>
<polyline fill="none" stroke="black" points="900,-102 1062,-102 "/>
<text text-anchor="start" x="908" y="-90" font-family="Helvetica,sans-Serif" font-size="10.00">+ TVM_FFI_DECLARE_OBJECT</text>
<text text-anchor="start" x="908" y="-79" font-family="Helvetica,sans-Serif" font-size="10.00">_INFO_FINAL()</text>
<text text-anchor="start" x="908" y="-68" font-family="Helvetica,sans-Serif" font-size="10.00">+ ExitWithScope()</text>
<text text-anchor="start" x="908" y="-57" font-family="Helvetica,sans-Serif" font-size="10.00">+ RegisterReflection()</text>
</a>
</g>
</g>
<!-- Node1&#45;&gt;Node9 -->
<g id="edge8" class="edge">
<title>Node1&#45;&gt;Node9</title>
<path fill="none" stroke="midnightblue" d="M1249.59,-278.71C1194.53,-267.26 1124.87,-246.99 1071,-212 1050.96,-198.99 1032.91,-180.23 1018.32,-162.16"/>
<polygon fill="none" stroke="midnightblue" points="1249.2,-282.2 1259.7,-280.75 1250.59,-275.34 1249.2,-282.2"/>
</g>
<!-- Node10 -->
<g id="node10" class="node">
<title>Node10</title>
<g id="a_node10"><a xlink:href="classtvm_1_1script_1_1ir__builder_1_1tirx_1_1ElseFrameNode.html" target="_top" xlink:title="A frame that represents else.">
<polygon fill="white" stroke="black" points="1080,-50 1080,-162 1242,-162 1242,-50 1080,-50"/>
<text text-anchor="start" x="1088" y="-150" font-family="Helvetica,sans-Serif" font-size="10.00">tvm::script::ir_builder</text>
<text text-anchor="middle" x="1161" y="-139" font-family="Helvetica,sans-Serif" font-size="10.00">::tirx::ElseFrameNode</text>
<polyline fill="none" stroke="black" points="1080,-132 1242,-132 "/>
<text text-anchor="middle" x="1161" y="-120" font-family="Helvetica,sans-Serif" font-size="10.00"> </text>
<polyline fill="none" stroke="black" points="1080,-113 1242,-113 "/>
<text text-anchor="start" x="1088" y="-101" font-family="Helvetica,sans-Serif" font-size="10.00">+ TVM_FFI_DECLARE_OBJECT</text>
<text text-anchor="start" x="1088" y="-90" font-family="Helvetica,sans-Serif" font-size="10.00">_INFO_FINAL()</text>
<text text-anchor="start" x="1088" y="-79" font-family="Helvetica,sans-Serif" font-size="10.00">+ EnterWithScope()</text>
<text text-anchor="start" x="1088" y="-68" font-family="Helvetica,sans-Serif" font-size="10.00">+ ExitWithScope()</text>
<text text-anchor="start" x="1088" y="-57" font-family="Helvetica,sans-Serif" font-size="10.00">+ RegisterReflection()</text>
</a>
</g>
</g>
<!-- Node1&#45;&gt;Node10 -->
<g id="edge9" class="edge">
<title>Node1&#45;&gt;Node10</title>
<path fill="none" stroke="midnightblue" d="M1281.47,-241.27C1271.09,-231.77 1260.56,-221.76 1251,-212 1235.71,-196.39 1219.92,-178.61 1205.92,-162.17"/>
<polygon fill="none" stroke="midnightblue" points="1279.22,-243.96 1288.98,-248.09 1283.92,-238.78 1279.22,-243.96"/>
</g>
<!-- Node11 -->
<g id="node11" class="node">
<title>Node11</title>
<g id="a_node11"><a xlink:href="classtvm_1_1script_1_1ir__builder_1_1tirx_1_1ForFrameNode.html" target="_top" xlink:title="A frame that represents the for loop.">
<polygon fill="white" stroke="black" points="1260,-39 1260,-173 1422,-173 1422,-39 1260,-39"/>
<text text-anchor="start" x="1268" y="-161" font-family="Helvetica,sans-Serif" font-size="10.00">tvm::script::ir_builder</text>
<text text-anchor="middle" x="1341" y="-150" font-family="Helvetica,sans-Serif" font-size="10.00">::tirx::ForFrameNode</text>
<polyline fill="none" stroke="black" points="1260,-143 1422,-143 "/>
<text text-anchor="start" x="1268" y="-131" font-family="Helvetica,sans-Serif" font-size="10.00">+ vars</text>
<text text-anchor="start" x="1268" y="-120" font-family="Helvetica,sans-Serif" font-size="10.00">+ doms</text>
<text text-anchor="start" x="1268" y="-109" font-family="Helvetica,sans-Serif" font-size="10.00">+ steps</text>
<text text-anchor="start" x="1268" y="-98" font-family="Helvetica,sans-Serif" font-size="10.00">+ f_make_for_loop</text>
<polyline fill="none" stroke="black" points="1260,-91 1422,-91 "/>
<text text-anchor="start" x="1268" y="-79" font-family="Helvetica,sans-Serif" font-size="10.00">+ TVM_FFI_DECLARE_OBJECT</text>
<text text-anchor="start" x="1268" y="-68" font-family="Helvetica,sans-Serif" font-size="10.00">_INFO_FINAL()</text>
<text text-anchor="start" x="1268" y="-57" font-family="Helvetica,sans-Serif" font-size="10.00">+ ExitWithScope()</text>
<text text-anchor="start" x="1268" y="-46" font-family="Helvetica,sans-Serif" font-size="10.00">+ RegisterReflection()</text>
</a>
</g>
</g>
<!-- Node1&#45;&gt;Node11 -->
<g id="edge10" class="edge">
<title>Node1&#45;&gt;Node11</title>
<path fill="none" stroke="midnightblue" d="M1341,-238.05C1341,-217.74 1341,-194.46 1341,-173.2"/>
<polygon fill="none" stroke="midnightblue" points="1337.5,-238.07 1341,-248.07 1344.5,-238.07 1337.5,-238.07"/>
</g>
<!-- Node12 -->
<g id="node12" class="node">
<title>Node12</title>
<g id="a_node12"><a xlink:href="classtvm_1_1script_1_1ir__builder_1_1tirx_1_1HintFrameNode.html" target="_top" xlink:title="A frame that represents a hint directive for the sketch language.">
<polygon fill="white" stroke="black" points="1440,-50 1440,-162 1602,-162 1602,-50 1440,-50"/>
<text text-anchor="start" x="1448" y="-150" font-family="Helvetica,sans-Serif" font-size="10.00">tvm::script::ir_builder</text>
<text text-anchor="middle" x="1521" y="-139" font-family="Helvetica,sans-Serif" font-size="10.00">::tirx::HintFrameNode</text>
<polyline fill="none" stroke="black" points="1440,-132 1602,-132 "/>
<text text-anchor="start" x="1448" y="-120" font-family="Helvetica,sans-Serif" font-size="10.00">+ message</text>
<text text-anchor="start" x="1448" y="-109" font-family="Helvetica,sans-Serif" font-size="10.00">+ attrs</text>
<polyline fill="none" stroke="black" points="1440,-102 1602,-102 "/>
<text text-anchor="start" x="1448" y="-90" font-family="Helvetica,sans-Serif" font-size="10.00">+ TVM_FFI_DECLARE_OBJECT</text>
<text text-anchor="start" x="1448" y="-79" font-family="Helvetica,sans-Serif" font-size="10.00">_INFO_FINAL()</text>
<text text-anchor="start" x="1448" y="-68" font-family="Helvetica,sans-Serif" font-size="10.00">+ ExitWithScope()</text>
<text text-anchor="start" x="1448" y="-57" font-family="Helvetica,sans-Serif" font-size="10.00">+ RegisterReflection()</text>
</a>
</g>
</g>
<!-- Node1&#45;&gt;Node12 -->
<g id="edge11" class="edge">
<title>Node1&#45;&gt;Node12</title>
<path fill="none" stroke="midnightblue" d="M1400.53,-241.27C1410.91,-231.77 1421.44,-221.76 1431,-212 1446.29,-196.39 1462.08,-178.61 1476.08,-162.17"/>
<polygon fill="none" stroke="midnightblue" points="1398.08,-238.78 1393.02,-248.09 1402.78,-243.96 1398.08,-238.78"/>
</g>
<!-- Node13 -->
<g id="node13" class="node">
<title>Node13</title>
<g id="a_node13"><a xlink:href="classtvm_1_1script_1_1ir__builder_1_1tirx_1_1IfFrameNode.html" target="_top" xlink:title="A frame that represents if statement.">
<polygon fill="white" stroke="black" points="1620,-44.5 1620,-167.5 1782,-167.5 1782,-44.5 1620,-44.5"/>
<text text-anchor="start" x="1628" y="-155.5" font-family="Helvetica,sans-Serif" font-size="10.00">tvm::script::ir_builder</text>
<text text-anchor="middle" x="1701" y="-144.5" font-family="Helvetica,sans-Serif" font-size="10.00">::tirx::IfFrameNode</text>
<polyline fill="none" stroke="black" points="1620,-137.5 1782,-137.5 "/>
<text text-anchor="start" x="1628" y="-125.5" font-family="Helvetica,sans-Serif" font-size="10.00">+ condition</text>
<text text-anchor="start" x="1628" y="-114.5" font-family="Helvetica,sans-Serif" font-size="10.00">+ then_stmts</text>
<text text-anchor="start" x="1628" y="-103.5" font-family="Helvetica,sans-Serif" font-size="10.00">+ else_stmts</text>
<polyline fill="none" stroke="black" points="1620,-96.5 1782,-96.5 "/>
<text text-anchor="start" x="1628" y="-84.5" font-family="Helvetica,sans-Serif" font-size="10.00">+ TVM_FFI_DECLARE_OBJECT</text>
<text text-anchor="start" x="1628" y="-73.5" font-family="Helvetica,sans-Serif" font-size="10.00">_INFO_FINAL()</text>
<text text-anchor="start" x="1628" y="-62.5" font-family="Helvetica,sans-Serif" font-size="10.00">+ ExitWithScope()</text>
<text text-anchor="start" x="1628" y="-51.5" font-family="Helvetica,sans-Serif" font-size="10.00">+ RegisterReflection()</text>
</a>
</g>
</g>
<!-- Node1&#45;&gt;Node13 -->
<g id="edge12" class="edge">
<title>Node1&#45;&gt;Node13</title>
<path fill="none" stroke="midnightblue" d="M1432.41,-278.71C1487.47,-267.26 1557.13,-246.99 1611,-212 1629.02,-200.3 1645.44,-183.94 1659.18,-167.62"/>
<polygon fill="none" stroke="midnightblue" points="1431.41,-275.34 1422.3,-280.75 1432.8,-282.2 1431.41,-275.34"/>
</g>
<!-- Node14 -->
<g id="node14" class="node">
<title>Node14</title>
<g id="a_node14"><a xlink:href="classtvm_1_1script_1_1ir__builder_1_1tirx_1_1LaunchThreadFrameNode.html" target="_top" xlink:title="The LaunchThreadFrameNode.">
<polygon fill="white" stroke="black" points="1800,-44.5 1800,-167.5 1970,-167.5 1970,-44.5 1800,-44.5"/>
<text text-anchor="start" x="1808" y="-155.5" font-family="Helvetica,sans-Serif" font-size="10.00">tvm::script::ir_builder</text>
<text text-anchor="middle" x="1885" y="-144.5" font-family="Helvetica,sans-Serif" font-size="10.00">::tirx::LaunchThreadFrameNode</text>
<polyline fill="none" stroke="black" points="1800,-137.5 1970,-137.5 "/>
<text text-anchor="start" x="1808" y="-125.5" font-family="Helvetica,sans-Serif" font-size="10.00">+ extent</text>
<text text-anchor="start" x="1808" y="-114.5" font-family="Helvetica,sans-Serif" font-size="10.00">+ attr_key</text>
<text text-anchor="start" x="1808" y="-103.5" font-family="Helvetica,sans-Serif" font-size="10.00">+ iter_var</text>
<polyline fill="none" stroke="black" points="1800,-96.5 1970,-96.5 "/>
<text text-anchor="start" x="1808" y="-84.5" font-family="Helvetica,sans-Serif" font-size="10.00">+ TVM_FFI_DECLARE_OBJECT</text>
<text text-anchor="start" x="1808" y="-73.5" font-family="Helvetica,sans-Serif" font-size="10.00">_INFO_FINAL()</text>
<text text-anchor="start" x="1808" y="-62.5" font-family="Helvetica,sans-Serif" font-size="10.00">+ ExitWithScope()</text>
<text text-anchor="start" x="1808" y="-51.5" font-family="Helvetica,sans-Serif" font-size="10.00">+ RegisterReflection()</text>
</a>
</g>
</g>
<!-- Node1&#45;&gt;Node14 -->
<g id="edge13" class="edge">
<title>Node1&#45;&gt;Node14</title>
<path fill="none" stroke="midnightblue" d="M1432.32,-283.26C1545.52,-270.6 1730.87,-245.54 1791,-212 1810.66,-201.03 1828.33,-184.39 1842.9,-167.56"/>
<polygon fill="none" stroke="midnightblue" points="1431.83,-279.79 1422.28,-284.37 1432.6,-286.75 1431.83,-279.79"/>
</g>
<!-- Node15 -->
<g id="node15" class="node">
<title>Node15</title>
<g id="a_node15"><a xlink:href="classtvm_1_1script_1_1ir__builder_1_1tirx_1_1PrimFuncFrameNode.html" target="_top" xlink:title="A frame that represents the PrimFunc containing TIR statements.">
<polygon fill="white" stroke="black" points="1988,-6 1988,-206 2150,-206 2150,-6 1988,-6"/>
<text text-anchor="start" x="1996" y="-194" font-family="Helvetica,sans-Serif" font-size="10.00">tvm::script::ir_builder</text>
<text text-anchor="middle" x="2069" y="-183" font-family="Helvetica,sans-Serif" font-size="10.00">::tirx::PrimFuncFrameNode</text>
<polyline fill="none" stroke="black" points="1988,-176 2150,-176 "/>
<text text-anchor="start" x="1996" y="-164" font-family="Helvetica,sans-Serif" font-size="10.00">+ name</text>
<text text-anchor="start" x="1996" y="-153" font-family="Helvetica,sans-Serif" font-size="10.00">+ args</text>
<text text-anchor="start" x="1996" y="-142" font-family="Helvetica,sans-Serif" font-size="10.00">+ is_private</text>
<text text-anchor="start" x="1996" y="-131" font-family="Helvetica,sans-Serif" font-size="10.00">+ ret_type</text>
<text text-anchor="start" x="1996" y="-120" font-family="Helvetica,sans-Serif" font-size="10.00">+ buffer_map</text>
<text text-anchor="start" x="1996" y="-109" font-family="Helvetica,sans-Serif" font-size="10.00">+ attrs</text>
<text text-anchor="start" x="1996" y="-98" font-family="Helvetica,sans-Serif" font-size="10.00">+ env_threads</text>
<text text-anchor="start" x="1996" y="-87" font-family="Helvetica,sans-Serif" font-size="10.00">+ root_alloc_buffers</text>
<text text-anchor="start" x="1996" y="-76" font-family="Helvetica,sans-Serif" font-size="10.00">+ s_tir</text>
<text text-anchor="start" x="1996" y="-65" font-family="Helvetica,sans-Serif" font-size="10.00">+ persistent</text>
<polyline fill="none" stroke="black" points="1988,-58 2150,-58 "/>
<text text-anchor="start" x="1996" y="-46" font-family="Helvetica,sans-Serif" font-size="10.00">+ TVM_FFI_DECLARE_OBJECT</text>
<text text-anchor="start" x="1996" y="-35" font-family="Helvetica,sans-Serif" font-size="10.00">_INFO_FINAL()</text>
<text text-anchor="start" x="1996" y="-24" font-family="Helvetica,sans-Serif" font-size="10.00">+ ExitWithScope()</text>
<text text-anchor="start" x="1996" y="-13" font-family="Helvetica,sans-Serif" font-size="10.00">+ RegisterReflection()</text>
</a>
</g>
</g>
<!-- Node1&#45;&gt;Node15 -->
<g id="edge14" class="edge">
<title>Node1&#45;&gt;Node15</title>
<path fill="none" stroke="midnightblue" d="M1432.44,-289.01C1585.66,-281.85 1886.57,-261.76 1979,-212 1982.38,-210.18 1985.69,-208.18 1988.93,-206.02"/>
<polygon fill="none" stroke="midnightblue" points="1431.95,-285.53 1422.12,-289.49 1432.27,-292.53 1431.95,-285.53"/>
</g>
<!-- Node16 -->
<g id="node16" class="node">
<title>Node16</title>
<g id="a_node16"><a xlink:href="classtvm_1_1script_1_1ir__builder_1_1tirx_1_1SBlockFrameNode.html" target="_top" xlink:title="A frame that represents the block.">
<polygon fill="white" stroke="black" points="2168,-0.5 2168,-211.5 2330,-211.5 2330,-0.5 2168,-0.5"/>
<text text-anchor="start" x="2176" y="-199.5" font-family="Helvetica,sans-Serif" font-size="10.00">tvm::script::ir_builder</text>
<text text-anchor="middle" x="2249" y="-188.5" font-family="Helvetica,sans-Serif" font-size="10.00">::tirx::SBlockFrameNode</text>
<polyline fill="none" stroke="black" points="2168,-181.5 2330,-181.5 "/>
<text text-anchor="start" x="2176" y="-169.5" font-family="Helvetica,sans-Serif" font-size="10.00">+ name</text>
<text text-anchor="start" x="2176" y="-158.5" font-family="Helvetica,sans-Serif" font-size="10.00">+ iter_vars</text>
<text text-anchor="start" x="2176" y="-147.5" font-family="Helvetica,sans-Serif" font-size="10.00">+ reads</text>
<text text-anchor="start" x="2176" y="-136.5" font-family="Helvetica,sans-Serif" font-size="10.00">+ writes</text>
<text text-anchor="start" x="2176" y="-125.5" font-family="Helvetica,sans-Serif" font-size="10.00">+ init</text>
<text text-anchor="start" x="2176" y="-114.5" font-family="Helvetica,sans-Serif" font-size="10.00">+ alloc_buffers</text>
<text text-anchor="start" x="2176" y="-103.5" font-family="Helvetica,sans-Serif" font-size="10.00">+ match_buffers</text>
<text text-anchor="start" x="2176" y="-92.5" font-family="Helvetica,sans-Serif" font-size="10.00">+ annotations</text>
<text text-anchor="start" x="2176" y="-81.5" font-family="Helvetica,sans-Serif" font-size="10.00">+ iter_values</text>
<text text-anchor="start" x="2176" y="-70.5" font-family="Helvetica,sans-Serif" font-size="10.00">+ predicate</text>
<text text-anchor="start" x="2176" y="-59.5" font-family="Helvetica,sans-Serif" font-size="10.00">+ no_realize</text>
<polyline fill="none" stroke="black" points="2168,-52.5 2330,-52.5 "/>
<text text-anchor="start" x="2176" y="-40.5" font-family="Helvetica,sans-Serif" font-size="10.00">+ TVM_FFI_DECLARE_OBJECT</text>
<text text-anchor="start" x="2176" y="-29.5" font-family="Helvetica,sans-Serif" font-size="10.00">_INFO_FINAL()</text>
<text text-anchor="start" x="2176" y="-18.5" font-family="Helvetica,sans-Serif" font-size="10.00">+ ExitWithScope()</text>
<text text-anchor="start" x="2176" y="-7.5" font-family="Helvetica,sans-Serif" font-size="10.00">+ RegisterReflection()</text>
</a>
</g>
</g>
<!-- Node1&#45;&gt;Node16 -->
<g id="edge15" class="edge">
<title>Node1&#45;&gt;Node16</title>
<path fill="none" stroke="midnightblue" d="M1432.15,-291.98C1618.17,-289.56 2034.49,-276.84 2159,-212 2161.98,-210.45 2164.91,-208.75 2167.77,-206.93"/>
<polygon fill="none" stroke="midnightblue" points="1432.07,-288.48 1422.12,-292.1 1432.16,-295.48 1432.07,-288.48"/>
</g>
<!-- Node17 -->
<g id="node17" class="node">
<title>Node17</title>
<g id="a_node17"><a xlink:href="classtvm_1_1script_1_1ir__builder_1_1tirx_1_1ThenFrameNode.html" target="_top" xlink:title="A frame that represents then.">
<polygon fill="white" stroke="black" points="2348,-50 2348,-162 2510,-162 2510,-50 2348,-50"/>
<text text-anchor="start" x="2356" y="-150" font-family="Helvetica,sans-Serif" font-size="10.00">tvm::script::ir_builder</text>
<text text-anchor="middle" x="2429" y="-139" font-family="Helvetica,sans-Serif" font-size="10.00">::tirx::ThenFrameNode</text>
<polyline fill="none" stroke="black" points="2348,-132 2510,-132 "/>
<text text-anchor="middle" x="2429" y="-120" font-family="Helvetica,sans-Serif" font-size="10.00"> </text>
<polyline fill="none" stroke="black" points="2348,-113 2510,-113 "/>
<text text-anchor="start" x="2356" y="-101" font-family="Helvetica,sans-Serif" font-size="10.00">+ TVM_FFI_DECLARE_OBJECT</text>
<text text-anchor="start" x="2356" y="-90" font-family="Helvetica,sans-Serif" font-size="10.00">_INFO_FINAL()</text>
<text text-anchor="start" x="2356" y="-79" font-family="Helvetica,sans-Serif" font-size="10.00">+ EnterWithScope()</text>
<text text-anchor="start" x="2356" y="-68" font-family="Helvetica,sans-Serif" font-size="10.00">+ ExitWithScope()</text>
<text text-anchor="start" x="2356" y="-57" font-family="Helvetica,sans-Serif" font-size="10.00">+ RegisterReflection()</text>
</a>
</g>
</g>
<!-- Node1&#45;&gt;Node17 -->
<g id="edge16" class="edge">
<title>Node1&#45;&gt;Node17</title>
<path fill="none" stroke="midnightblue" d="M1432.25,-289.1C1663.4,-279.92 2259.36,-252.59 2339,-212 2361.25,-200.66 2380.27,-181.21 2395.02,-162.1"/>
<polygon fill="none" stroke="midnightblue" points="1432.04,-285.6 1422.18,-289.5 1432.31,-292.6 1432.04,-285.6"/>
</g>
<!-- Node18 -->
<g id="node18" class="node">
<title>Node18</title>
<g id="a_node18"><a xlink:href="classtvm_1_1script_1_1ir__builder_1_1tirx_1_1WhileFrameNode.html" target="_top" xlink:title="A frame that represents while loop.">
<polygon fill="white" stroke="black" points="2528,-55.5 2528,-156.5 2690,-156.5 2690,-55.5 2528,-55.5"/>
<text text-anchor="start" x="2536" y="-144.5" font-family="Helvetica,sans-Serif" font-size="10.00">tvm::script::ir_builder</text>
<text text-anchor="middle" x="2609" y="-133.5" font-family="Helvetica,sans-Serif" font-size="10.00">::tirx::WhileFrameNode</text>
<polyline fill="none" stroke="black" points="2528,-126.5 2690,-126.5 "/>
<text text-anchor="start" x="2536" y="-114.5" font-family="Helvetica,sans-Serif" font-size="10.00">+ condition</text>
<polyline fill="none" stroke="black" points="2528,-107.5 2690,-107.5 "/>
<text text-anchor="start" x="2536" y="-95.5" font-family="Helvetica,sans-Serif" font-size="10.00">+ TVM_FFI_DECLARE_OBJECT</text>
<text text-anchor="start" x="2536" y="-84.5" font-family="Helvetica,sans-Serif" font-size="10.00">_INFO_FINAL()</text>
<text text-anchor="start" x="2536" y="-73.5" font-family="Helvetica,sans-Serif" font-size="10.00">+ ExitWithScope()</text>
<text text-anchor="start" x="2536" y="-62.5" font-family="Helvetica,sans-Serif" font-size="10.00">+ RegisterReflection()</text>
</a>
</g>
</g>
<!-- Node1&#45;&gt;Node18 -->
<g id="edge17" class="edge">
<title>Node1&#45;&gt;Node18</title>
<path fill="none" stroke="midnightblue" d="M1432.32,-290.31C1692.12,-283.51 2422.84,-260.27 2519,-212 2543.46,-199.72 2563.98,-177.56 2579.23,-156.75"/>
<polygon fill="none" stroke="midnightblue" points="1432.07,-286.81 1422.16,-290.57 1432.25,-293.81 1432.07,-286.81"/>
</g>
<!-- Node2 -->
<g id="node2" class="node">
<title>Node2</title>
<g id="a_node2"><a xlink:href="classtvm_1_1script_1_1ir__builder_1_1IRBuilderFrameNode.html" target="_top" xlink:title=" ">
<polygon fill="white" stroke="black" points="1260,-375.5 1260,-520.5 1422,-520.5 1422,-375.5 1260,-375.5"/>
<text text-anchor="start" x="1268" y="-508.5" font-family="Helvetica,sans-Serif" font-size="10.00">tvm::script::ir_builder</text>
<text text-anchor="middle" x="1341" y="-497.5" font-family="Helvetica,sans-Serif" font-size="10.00">::IRBuilderFrameNode</text>
<polyline fill="none" stroke="black" points="1260,-490.5 1422,-490.5 "/>
<text text-anchor="start" x="1268" y="-478.5" font-family="Helvetica,sans-Serif" font-size="10.00">+ callbacks</text>
<text text-anchor="start" x="1268" y="-467.5" font-family="Helvetica,sans-Serif" font-size="10.00">+ _type_mutable</text>
<polyline fill="none" stroke="black" points="1260,-460.5 1422,-460.5 "/>
<text text-anchor="start" x="1268" y="-448.5" font-family="Helvetica,sans-Serif" font-size="10.00">+ TVM_FFI_DECLARE_OBJECT</text>
<text text-anchor="start" x="1268" y="-437.5" font-family="Helvetica,sans-Serif" font-size="10.00">_INFO()</text>
<text text-anchor="start" x="1268" y="-426.5" font-family="Helvetica,sans-Serif" font-size="10.00">+ ~IRBuilderFrameNode()</text>
<text text-anchor="start" x="1268" y="-415.5" font-family="Helvetica,sans-Serif" font-size="10.00">+ EnterWithScope()</text>
<text text-anchor="start" x="1268" y="-404.5" font-family="Helvetica,sans-Serif" font-size="10.00">+ ExitWithScope()</text>
<text text-anchor="start" x="1268" y="-393.5" font-family="Helvetica,sans-Serif" font-size="10.00">+ AddCallback()</text>
<text text-anchor="start" x="1268" y="-382.5" font-family="Helvetica,sans-Serif" font-size="10.00">+ RegisterReflection()</text>
</a>
</g>
</g>
<!-- Node2&#45;&gt;Node1 -->
<g id="edge1" class="edge">
<title>Node2&#45;&gt;Node1</title>
<path fill="none" stroke="midnightblue" d="M1341,-364.94C1341,-355.86 1341,-346.88 1341,-338.54"/>
<polygon fill="none" stroke="midnightblue" points="1337.5,-365.22 1341,-375.22 1344.5,-365.22 1337.5,-365.22"/>
</g>
<!-- Node3 -->
<g id="node3" class="node">
<title>Node3</title>
<g id="a_node3"><a xlink:title=" ">
<polygon fill="white" stroke="#bfbfbf" points="1309,-557.5 1309,-614.5 1373,-614.5 1373,-557.5 1309,-557.5"/>
<text text-anchor="middle" x="1341" y="-602.5" font-family="Helvetica,sans-Serif" font-size="10.00">ffi::Object</text>
<polyline fill="none" stroke="#bfbfbf" points="1309,-595.5 1373,-595.5 "/>
<text text-anchor="middle" x="1341" y="-583.5" font-family="Helvetica,sans-Serif" font-size="10.00"> </text>
<polyline fill="none" stroke="#bfbfbf" points="1309,-576.5 1373,-576.5 "/>
<text text-anchor="middle" x="1341" y="-564.5" font-family="Helvetica,sans-Serif" font-size="10.00"> </text>
</a>
</g>
</g>
<!-- Node3&#45;&gt;Node2 -->
<g id="edge2" class="edge">
<title>Node3&#45;&gt;Node2</title>
<path fill="none" stroke="midnightblue" d="M1341,-547.36C1341,-539 1341,-529.87 1341,-520.66"/>
<polygon fill="none" stroke="midnightblue" points="1337.5,-547.48 1341,-557.48 1344.5,-547.48 1337.5,-547.48"/>
</g>
</g>
</svg>
