<?xml version="1.0" encoding="UTF-8" standalone="no"?>
<!DOCTYPE svg PUBLIC "-//W3C//DTD SVG 1.1//EN"
 "http://www.w3.org/Graphics/SVG/1.1/DTD/svg11.dtd">
<!-- Generated by graphviz version 2.43.0 (0)
 -->
<!-- Title: tvm::relax::TensorTypeNode Pages: 1 -->
<svg width="170pt" height="386pt"
 viewBox="0.00 0.00 170.00 386.00" xmlns="http://www.w3.org/2000/svg" xmlns:xlink="http://www.w3.org/1999/xlink">
<g id="graph0" class="graph" transform="scale(1 1) rotate(0) translate(4 382)">
<title>tvm::relax::TensorTypeNode</title>
<polygon fill="white" stroke="transparent" points="-4,4 -4,-382 166,-382 166,4 -4,4"/>
<!-- Node1 -->
<g id="node1" class="node">
<title>Node1</title>
<g id="a_node1"><a xlink:title="Type of Tensor.">
<polygon fill="#bfbfbf" stroke="black" points="0,-0.5 0,-145.5 162,-145.5 162,-0.5 0,-0.5"/>
<text text-anchor="middle" x="81" y="-133.5" font-family="Helvetica,sans-Serif" font-size="10.00">tvm::relax::TensorTypeNode</text>
<polyline fill="none" stroke="black" points="0,-126.5 162,-126.5 "/>
<text text-anchor="start" x="8" y="-114.5" font-family="Helvetica,sans-Serif" font-size="10.00">+ shape</text>
<text text-anchor="start" x="8" y="-103.5" font-family="Helvetica,sans-Serif" font-size="10.00">+ vdevice</text>
<text text-anchor="start" x="8" y="-92.5" font-family="Helvetica,sans-Serif" font-size="10.00">+ dtype</text>
<text text-anchor="start" x="8" y="-81.5" font-family="Helvetica,sans-Serif" font-size="10.00">+ ndim</text>
<polyline fill="none" stroke="black" points="0,-74.5 162,-74.5 "/>
<text text-anchor="start" x="8" y="-62.5" font-family="Helvetica,sans-Serif" font-size="10.00">+ IsUnknownNdim()</text>
<text text-anchor="start" x="8" y="-51.5" font-family="Helvetica,sans-Serif" font-size="10.00">+ IsUnknownDtype()</text>
<text text-anchor="start" x="8" y="-40.5" font-family="Helvetica,sans-Serif" font-size="10.00">+ GetShape()</text>
<text text-anchor="start" x="8" y="-29.5" font-family="Helvetica,sans-Serif" font-size="10.00">+ TVM_FFI_DECLARE_OBJECT</text>
<text text-anchor="start" x="8" y="-18.5" font-family="Helvetica,sans-Serif" font-size="10.00">_INFO_FINAL()</text>
<text text-anchor="start" x="8" y="-7.5" font-family="Helvetica,sans-Serif" font-size="10.00">+ RegisterReflection()</text>
</a>
</g>
</g>
<!-- Node2 -->
<g id="node2" class="node">
<title>Node2</title>
<g id="a_node2"><a xlink:href="classtvm_1_1TypeNode.html" target="_top" xlink:title="Type is the base type of all types.">
<polygon fill="white" stroke="black" points="0,-182.5 0,-283.5 162,-283.5 162,-182.5 0,-182.5"/>
<text text-anchor="middle" x="81" y="-271.5" font-family="Helvetica,sans-Serif" font-size="10.00">tvm::TypeNode</text>
<polyline fill="none" stroke="black" points="0,-264.5 162,-264.5 "/>
<text text-anchor="start" x="8" y="-252.5" font-family="Helvetica,sans-Serif" font-size="10.00">+ span</text>
<text text-anchor="start" x="8" y="-241.5" font-family="Helvetica,sans-Serif" font-size="10.00">+ _type_s_eq_hash_kind</text>
<text text-anchor="start" x="8" y="-230.5" font-family="Helvetica,sans-Serif" font-size="10.00">+ _type_child_slots</text>
<polyline fill="none" stroke="black" points="0,-223.5 162,-223.5 "/>
<text text-anchor="start" x="8" y="-211.5" font-family="Helvetica,sans-Serif" font-size="10.00">+ TVM_FFI_DECLARE_OBJECT</text>
<text text-anchor="start" x="8" y="-200.5" font-family="Helvetica,sans-Serif" font-size="10.00">_INFO()</text>
<text text-anchor="start" x="8" y="-189.5" font-family="Helvetica,sans-Serif" font-size="10.00">+ RegisterReflection()</text>
</a>
</g>
</g>
<!-- Node2&#45;&gt;Node1 -->
<g id="edge1" class="edge">
<title>Node2&#45;&gt;Node1</title>
<path fill="none" stroke="midnightblue" d="M81,-172.38C81,-163.66 81,-154.59 81,-145.66"/>
<polygon fill="none" stroke="midnightblue" points="77.5,-172.44 81,-182.44 84.5,-172.44 77.5,-172.44"/>
</g>
<!-- Node3 -->
<g id="node3" class="node">
<title>Node3</title>
<g id="a_node3"><a xlink:title=" ">
<polygon fill="white" stroke="#bfbfbf" points="49,-320.5 49,-377.5 113,-377.5 113,-320.5 49,-320.5"/>
<text text-anchor="middle" x="81" y="-365.5" font-family="Helvetica,sans-Serif" font-size="10.00">ffi::Object</text>
<polyline fill="none" stroke="#bfbfbf" points="49,-358.5 113,-358.5 "/>
<text text-anchor="middle" x="81" y="-346.5" font-family="Helvetica,sans-Serif" font-size="10.00"> </text>
<polyline fill="none" stroke="#bfbfbf" points="49,-339.5 113,-339.5 "/>
<text text-anchor="middle" x="81" y="-327.5" font-family="Helvetica,sans-Serif" font-size="10.00"> </text>
</a>
</g>
</g>
<!-- Node3&#45;&gt;Node2 -->
<g id="edge2" class="edge">
<title>Node3&#45;&gt;Node2</title>
<path fill="none" stroke="midnightblue" d="M81,-310.35C81,-301.8 81,-292.58 81,-283.61"/>
<polygon fill="none" stroke="midnightblue" points="77.5,-310.4 81,-320.4 84.5,-310.4 77.5,-310.4"/>
</g>
</g>
</svg>
