<?xml version="1.0" encoding="UTF-8" standalone="no"?>
<!DOCTYPE svg PUBLIC "-//W3C//DTD SVG 1.1//EN"
 "http://www.w3.org/Graphics/SVG/1.1/DTD/svg11.dtd">
<!-- Generated by graphviz version 2.43.0 (0)
 -->
<!-- Title: tvm::relax::DataflowVarNode Pages: 1 -->
<svg width="518pt" height="902pt"
 viewBox="0.00 0.00 517.50 902.00" xmlns="http://www.w3.org/2000/svg" xmlns:xlink="http://www.w3.org/1999/xlink">
<g id="graph0" class="graph" transform="scale(1 1) rotate(0) translate(4 898)">
<title>tvm::relax::DataflowVarNode</title>
<polygon fill="white" stroke="transparent" points="-4,4 -4,-898 513.5,-898 513.5,4 -4,4"/>
<!-- Node1 -->
<g id="node1" class="node">
<title>Node1</title>
<g id="a_node1"><a xlink:title="A sub&#45;type of the variable node used to mark dataflow variables from normal visible &quot;function local&quot; ...">
<polygon fill="#bfbfbf" stroke="black" points="261,-0.5 261,-79.5 423,-79.5 423,-0.5 261,-0.5"/>
<text text-anchor="middle" x="342" y="-67.5" font-family="Helvetica,sans-Serif" font-size="10.00">tvm::relax::DataflowVarNode</text>
<polyline fill="none" stroke="black" points="261,-60.5 423,-60.5 "/>
<text text-anchor="start" x="269" y="-48.5" font-family="Helvetica,sans-Serif" font-size="10.00">+ _type_s_eq_hash_kind</text>
<polyline fill="none" stroke="black" points="261,-41.5 423,-41.5 "/>
<text text-anchor="start" x="269" y="-29.5" font-family="Helvetica,sans-Serif" font-size="10.00">+ TVM_FFI_DECLARE_OBJECT</text>
<text text-anchor="start" x="269" y="-18.5" font-family="Helvetica,sans-Serif" font-size="10.00">_INFO_FINAL()</text>
<text text-anchor="start" x="269" y="-7.5" font-family="Helvetica,sans-Serif" font-size="10.00">+ RegisterReflection()</text>
</a>
</g>
</g>
<!-- Node2 -->
<g id="node2" class="node">
<title>Node2</title>
<g id="a_node2"><a xlink:href="classtvm_1_1relax_1_1VarNode.html" target="_top" xlink:title="The variable class for all Relax bindings.">
<polygon fill="white" stroke="black" points="261,-117.5 261,-240.5 423,-240.5 423,-117.5 261,-117.5"/>
<text text-anchor="middle" x="342" y="-228.5" font-family="Helvetica,sans-Serif" font-size="10.00">tvm::relax::VarNode</text>
<polyline fill="none" stroke="black" points="261,-221.5 423,-221.5 "/>
<text text-anchor="start" x="269" y="-209.5" font-family="Helvetica,sans-Serif" font-size="10.00">+ _type_s_eq_hash_kind</text>
<text text-anchor="start" x="269" y="-198.5" font-family="Helvetica,sans-Serif" font-size="10.00">+ _type_child_slots</text>
<polyline fill="none" stroke="black" points="261,-191.5 423,-191.5 "/>
<text text-anchor="start" x="269" y="-179.5" font-family="Helvetica,sans-Serif" font-size="10.00">+ name_hint()</text>
<text text-anchor="start" x="269" y="-168.5" font-family="Helvetica,sans-Serif" font-size="10.00">+ SEqual()</text>
<text text-anchor="start" x="269" y="-157.5" font-family="Helvetica,sans-Serif" font-size="10.00">+ SHash()</text>
<text text-anchor="start" x="269" y="-146.5" font-family="Helvetica,sans-Serif" font-size="10.00">+ TVM_FFI_DECLARE_OBJECT</text>
<text text-anchor="start" x="269" y="-135.5" font-family="Helvetica,sans-Serif" font-size="10.00">_INFO()</text>
<text text-anchor="start" x="269" y="-124.5" font-family="Helvetica,sans-Serif" font-size="10.00">+ RegisterReflection()</text>
</a>
</g>
</g>
<!-- Node2&#45;&gt;Node1 -->
<g id="edge1" class="edge">
<title>Node2&#45;&gt;Node1</title>
<path fill="none" stroke="midnightblue" d="M342,-106.93C342,-97.55 342,-88.22 342,-79.67"/>
<polygon fill="none" stroke="midnightblue" points="338.5,-107.11 342,-117.11 345.5,-107.11 338.5,-107.11"/>
</g>
<!-- Node3 -->
<g id="node3" class="node">
<title>Node3</title>
<g id="a_node3"><a xlink:href="classtvm_1_1relax_1_1LeafExprNode.html" target="_top" xlink:title="Base type of all (non&#45;function) leaf Exprs.">
<polygon fill="white" stroke="black" points="200,-278.5 200,-346.5 362,-346.5 362,-278.5 200,-278.5"/>
<text text-anchor="middle" x="281" y="-334.5" font-family="Helvetica,sans-Serif" font-size="10.00">tvm::relax::LeafExprNode</text>
<polyline fill="none" stroke="black" points="200,-327.5 362,-327.5 "/>
<text text-anchor="start" x="208" y="-315.5" font-family="Helvetica,sans-Serif" font-size="10.00">+ _type_child_slots</text>
<polyline fill="none" stroke="black" points="200,-308.5 362,-308.5 "/>
<text text-anchor="start" x="208" y="-296.5" font-family="Helvetica,sans-Serif" font-size="10.00">+ TVM_FFI_DECLARE_OBJECT</text>
<text text-anchor="start" x="208" y="-285.5" font-family="Helvetica,sans-Serif" font-size="10.00">_INFO()</text>
</a>
</g>
</g>
<!-- Node3&#45;&gt;Node2 -->
<g id="edge2" class="edge">
<title>Node3&#45;&gt;Node2</title>
<path fill="none" stroke="midnightblue" d="M300.66,-269.11C304.89,-260.01 309.43,-250.21 313.9,-240.57"/>
<polygon fill="none" stroke="midnightblue" points="297.43,-267.77 296.39,-278.32 303.78,-270.72 297.43,-267.77"/>
</g>
<!-- Node4 -->
<g id="node4" class="node">
<title>Node4</title>
<g id="a_node4"><a xlink:href="classtvm_1_1RelaxExprNode.html" target="_top" xlink:title="Base node of all non&#45;primitive expressions.">
<polygon fill="white" stroke="black" points="181,-384.5 181,-463.5 343,-463.5 343,-384.5 181,-384.5"/>
<text text-anchor="middle" x="262" y="-451.5" font-family="Helvetica,sans-Serif" font-size="10.00">ExprNode</text>
<polyline fill="none" stroke="black" points="181,-444.5 343,-444.5 "/>
<text text-anchor="start" x="189" y="-432.5" font-family="Helvetica,sans-Serif" font-size="10.00">+ _type_child_slots</text>
<polyline fill="none" stroke="black" points="181,-425.5 343,-425.5 "/>
<text text-anchor="start" x="189" y="-413.5" font-family="Helvetica,sans-Serif" font-size="10.00">+ TVM_FFI_DECLARE_OBJECT</text>
<text text-anchor="start" x="189" y="-402.5" font-family="Helvetica,sans-Serif" font-size="10.00">_INFO()</text>
<text text-anchor="start" x="189" y="-391.5" font-family="Helvetica,sans-Serif" font-size="10.00">+ RegisterReflection()</text>
</a>
</g>
</g>
<!-- Node4&#45;&gt;Node3 -->
<g id="edge3" class="edge">
<title>Node4&#45;&gt;Node3</title>
<path fill="none" stroke="midnightblue" d="M270.44,-374.38C272.06,-365.02 273.73,-355.41 275.24,-346.67"/>
<polygon fill="none" stroke="midnightblue" points="266.96,-373.94 268.7,-384.39 273.86,-375.14 266.96,-373.94"/>
</g>
<!-- Node5 -->
<g id="node5" class="node">
<title>Node5</title>
<g id="a_node5"><a xlink:href="classtvm_1_1BaseExprNode.html" target="_top" xlink:title="Base type of all the expressions.">
<polygon fill="white" stroke="black" points="146,-501.5 146,-591.5 308,-591.5 308,-501.5 146,-501.5"/>
<text text-anchor="middle" x="227" y="-579.5" font-family="Helvetica,sans-Serif" font-size="10.00">tvm::BaseExprNode</text>
<polyline fill="none" stroke="black" points="146,-572.5 308,-572.5 "/>
<text text-anchor="start" x="154" y="-560.5" font-family="Helvetica,sans-Serif" font-size="10.00">+ _type_s_eq_hash_kind</text>
<text text-anchor="start" x="154" y="-549.5" font-family="Helvetica,sans-Serif" font-size="10.00">+ _type_child_slots</text>
<polyline fill="none" stroke="black" points="146,-542.5 308,-542.5 "/>
<text text-anchor="start" x="154" y="-530.5" font-family="Helvetica,sans-Serif" font-size="10.00">+ TVM_FFI_DECLARE_OBJECT</text>
<text text-anchor="start" x="154" y="-519.5" font-family="Helvetica,sans-Serif" font-size="10.00">_INFO()</text>
<text text-anchor="start" x="154" y="-508.5" font-family="Helvetica,sans-Serif" font-size="10.00">+ RegisterReflection()</text>
</a>
</g>
</g>
<!-- Node5&#45;&gt;Node4 -->
<g id="edge4" class="edge">
<title>Node5&#45;&gt;Node4</title>
<path fill="none" stroke="midnightblue" d="M242.66,-491.6C245.39,-482.17 248.2,-472.53 250.78,-463.61"/>
<polygon fill="none" stroke="midnightblue" points="239.26,-490.74 239.83,-501.31 245.98,-492.69 239.26,-490.74"/>
</g>
<!-- Node6 -->
<g id="node6" class="node">
<title>Node6</title>
<g id="a_node6"><a xlink:title=" ">
<polygon fill="white" stroke="#bfbfbf" points="0,-725 0,-782 64,-782 64,-725 0,-725"/>
<text text-anchor="middle" x="32" y="-770" font-family="Helvetica,sans-Serif" font-size="10.00">ffi::Object</text>
<polyline fill="none" stroke="#bfbfbf" points="0,-763 64,-763 "/>
<text text-anchor="middle" x="32" y="-751" font-family="Helvetica,sans-Serif" font-size="10.00"> </text>
<polyline fill="none" stroke="#bfbfbf" points="0,-744 64,-744 "/>
<text text-anchor="middle" x="32" y="-732" font-family="Helvetica,sans-Serif" font-size="10.00"> </text>
</a>
</g>
</g>
<!-- Node6&#45;&gt;Node5 -->
<g id="edge5" class="edge">
<title>Node6&#45;&gt;Node5</title>
<path fill="none" stroke="midnightblue" d="M64.3,-717.31C67.23,-714.15 70.17,-711.01 73,-708 110.3,-668.33 153.23,-623.67 184.27,-591.55"/>
<polygon fill="none" stroke="midnightblue" points="61.73,-714.93 57.5,-724.65 66.87,-719.69 61.73,-714.93"/>
</g>
<!-- Node7 -->
<g id="node7" class="node">
<title>Node7</title>
<g id="a_node7"><a xlink:href="classtvm_1_1Span.html" target="_top" xlink:title=" ">
<polygon fill="white" stroke="black" points="82.5,-708.5 82.5,-798.5 241.5,-798.5 241.5,-708.5 82.5,-708.5"/>
<text text-anchor="middle" x="162" y="-786.5" font-family="Helvetica,sans-Serif" font-size="10.00">tvm::Span</text>
<polyline fill="none" stroke="black" points="82.5,-779.5 241.5,-779.5 "/>
<text text-anchor="middle" x="162" y="-767.5" font-family="Helvetica,sans-Serif" font-size="10.00"> </text>
<polyline fill="none" stroke="black" points="82.5,-760.5 241.5,-760.5 "/>
<text text-anchor="start" x="90.5" y="-748.5" font-family="Helvetica,sans-Serif" font-size="10.00">+ Span()</text>
<text text-anchor="start" x="90.5" y="-737.5" font-family="Helvetica,sans-Serif" font-size="10.00">+ Merge()</text>
<text text-anchor="start" x="90.5" y="-726.5" font-family="Helvetica,sans-Serif" font-size="10.00">+ TVM_FFI_DEFINE_OBJECT</text>
<text text-anchor="start" x="90.5" y="-715.5" font-family="Helvetica,sans-Serif" font-size="10.00">_REF_METHODS_NULLABLE()</text>
</a>
</g>
</g>
<!-- Node7&#45;&gt;Node5 -->
<g id="edge6" class="edge">
<title>Node7&#45;&gt;Node5</title>
<path fill="none" stroke="#404040" d="M176.02,-708.27C185.76,-677.56 198.82,-636.39 209.28,-603.4"/>
<polygon fill="none" stroke="#404040" points="209.37,-603.09 207.37,-596.16 213,-591.65 215,-598.58 209.37,-603.09"/>
<text text-anchor="middle" x="223.5" y="-647.5" font-family="Helvetica,sans-Serif" font-size="10.00"> +span</text>
</g>
<!-- Node8 -->
<g id="node8" class="node">
<title>Node8</title>
<g id="a_node8"><a xlink:title=" ">
<polygon fill="white" stroke="#bfbfbf" points="299,-836.5 299,-893.5 379,-893.5 379,-836.5 299,-836.5"/>
<text text-anchor="middle" x="339" y="-881.5" font-family="Helvetica,sans-Serif" font-size="10.00">ffi::ObjectRef</text>
<polyline fill="none" stroke="#bfbfbf" points="299,-874.5 379,-874.5 "/>
<text text-anchor="middle" x="339" y="-862.5" font-family="Helvetica,sans-Serif" font-size="10.00"> </text>
<polyline fill="none" stroke="#bfbfbf" points="299,-855.5 379,-855.5 "/>
<text text-anchor="middle" x="339" y="-843.5" font-family="Helvetica,sans-Serif" font-size="10.00"> </text>
</a>
</g>
</g>
<!-- Node8&#45;&gt;Node7 -->
<g id="edge7" class="edge">
<title>Node8&#45;&gt;Node7</title>
<path fill="none" stroke="midnightblue" d="M289.93,-833.64C272.41,-822.81 252.3,-810.37 233.3,-798.61"/>
<polygon fill="none" stroke="midnightblue" points="288.49,-836.87 298.84,-839.15 292.17,-830.92 288.49,-836.87"/>
</g>
<!-- Node9 -->
<g id="node9" class="node">
<title>Node9</title>
<g id="a_node9"><a xlink:href="classtvm_1_1Type.html" target="_top" xlink:title="Managed reference to TypeNode.">
<polygon fill="white" stroke="black" points="259.5,-719.5 259.5,-787.5 418.5,-787.5 418.5,-719.5 259.5,-719.5"/>
<text text-anchor="middle" x="339" y="-775.5" font-family="Helvetica,sans-Serif" font-size="10.00">tvm::Type</text>
<polyline fill="none" stroke="black" points="259.5,-768.5 418.5,-768.5 "/>
<text text-anchor="middle" x="339" y="-756.5" font-family="Helvetica,sans-Serif" font-size="10.00"> </text>
<polyline fill="none" stroke="black" points="259.5,-749.5 418.5,-749.5 "/>
<text text-anchor="start" x="267.5" y="-737.5" font-family="Helvetica,sans-Serif" font-size="10.00">+ TVM_FFI_DEFINE_OBJECT</text>
<text text-anchor="start" x="267.5" y="-726.5" font-family="Helvetica,sans-Serif" font-size="10.00">_REF_METHODS_NULLABLE()</text>
</a>
</g>
</g>
<!-- Node8&#45;&gt;Node9 -->
<g id="edge9" class="edge">
<title>Node8&#45;&gt;Node9</title>
<path fill="none" stroke="midnightblue" d="M339,-826.2C339,-813.64 339,-799.76 339,-787.59"/>
<polygon fill="none" stroke="midnightblue" points="335.5,-826.37 339,-836.37 342.5,-826.37 335.5,-826.37"/>
</g>
<!-- Node10 -->
<g id="node10" class="node">
<title>Node10</title>
<g id="a_node10"><a xlink:href="classtvm_1_1relax_1_1Id.html" target="_top" xlink:title=" ">
<polygon fill="white" stroke="black" points="350.5,-610.5 350.5,-689.5 509.5,-689.5 509.5,-610.5 350.5,-610.5"/>
<text text-anchor="middle" x="430" y="-677.5" font-family="Helvetica,sans-Serif" font-size="10.00">tvm::relax::Id</text>
<polyline fill="none" stroke="black" points="350.5,-670.5 509.5,-670.5 "/>
<text text-anchor="middle" x="430" y="-658.5" font-family="Helvetica,sans-Serif" font-size="10.00"> </text>
<polyline fill="none" stroke="black" points="350.5,-651.5 509.5,-651.5 "/>
<text text-anchor="start" x="358.5" y="-639.5" font-family="Helvetica,sans-Serif" font-size="10.00">+ Id()</text>
<text text-anchor="start" x="358.5" y="-628.5" font-family="Helvetica,sans-Serif" font-size="10.00">+ TVM_FFI_DEFINE_OBJECT</text>
<text text-anchor="start" x="358.5" y="-617.5" font-family="Helvetica,sans-Serif" font-size="10.00">_REF_METHODS_NULLABLE()</text>
</a>
</g>
</g>
<!-- Node8&#45;&gt;Node10 -->
<g id="edge11" class="edge">
<title>Node8&#45;&gt;Node10</title>
<path fill="none" stroke="midnightblue" d="M387.69,-839.66C403.07,-829.36 418.31,-815.8 427,-799 444.48,-765.22 442.75,-721.03 438.18,-689.76"/>
<polygon fill="none" stroke="midnightblue" points="385.75,-836.75 379.17,-845.05 389.49,-842.66 385.75,-836.75"/>
</g>
<!-- Node9&#45;&gt;Node5 -->
<g id="edge8" class="edge">
<title>Node9&#45;&gt;Node5</title>
<path fill="none" stroke="#404040" d="M320.76,-719.11C303.49,-687.51 277.27,-639.51 256.94,-602.3"/>
<polygon fill="none" stroke="#404040" points="256.86,-602.16 250.47,-598.81 251.11,-591.63 257.49,-594.97 256.86,-602.16"/>
<text text-anchor="middle" x="314" y="-647.5" font-family="Helvetica,sans-Serif" font-size="10.00"> +ty</text>
</g>
<!-- Node10&#45;&gt;Node2 -->
<g id="edge10" class="edge">
<title>Node10&#45;&gt;Node2</title>
<path fill="none" stroke="#404040" d="M420.47,-610.36C413.05,-576.89 404,-527.05 404,-483 404,-483 404,-483 404,-311.5 404,-290.93 397.72,-270.13 389.15,-251.33"/>
<polygon fill="none" stroke="#404040" points="389.13,-251.29 382.91,-247.65 383.87,-240.51 390.1,-244.14 389.13,-251.29"/>
<text text-anchor="middle" x="417.5" y="-421.5" font-family="Helvetica,sans-Serif" font-size="10.00"> +vid</text>
</g>
</g>
</svg>
