<?xml version="1.0" encoding="UTF-8" standalone="no"?>
<!DOCTYPE svg PUBLIC "-//W3C//DTD SVG 1.1//EN"
 "http://www.w3.org/Graphics/SVG/1.1/DTD/svg11.dtd">
<!-- Generated by graphviz version 2.43.0 (0)
 -->
<!-- Title: tvm::tirx::ScopeIdDefStmtNode Pages: 1 -->
<svg width="357pt" height="584pt"
 viewBox="0.00 0.00 356.50 584.00" xmlns="http://www.w3.org/2000/svg" xmlns:xlink="http://www.w3.org/1999/xlink">
<g id="graph0" class="graph" transform="scale(1 1) rotate(0) translate(4 580)">
<title>tvm::tirx::ScopeIdDefStmtNode</title>
<polygon fill="white" stroke="transparent" points="-4,4 -4,-580 352.5,-580 352.5,4 -4,4"/>
<!-- Node1 -->
<g id="node1" class="node">
<title>Node1</title>
<g id="a_node1"><a xlink:title="Standalone statement that declares a scope&#45;id binding (e.g. cta_id, warp_id, lane_id)....">
<polygon fill="#bfbfbf" stroke="black" points="124.5,-0.5 124.5,-79.5 293.5,-79.5 293.5,-0.5 124.5,-0.5"/>
<text text-anchor="middle" x="209" y="-67.5" font-family="Helvetica,sans-Serif" font-size="10.00">tvm::tirx::ScopeIdDefStmtNode</text>
<polyline fill="none" stroke="black" points="124.5,-60.5 293.5,-60.5 "/>
<text text-anchor="middle" x="209" y="-48.5" font-family="Helvetica,sans-Serif" font-size="10.00"> </text>
<polyline fill="none" stroke="black" points="124.5,-41.5 293.5,-41.5 "/>
<text text-anchor="start" x="132.5" y="-29.5" font-family="Helvetica,sans-Serif" font-size="10.00">+ TVM_FFI_DECLARE_OBJECT</text>
<text text-anchor="start" x="132.5" y="-18.5" font-family="Helvetica,sans-Serif" font-size="10.00">_INFO_FINAL()</text>
<text text-anchor="start" x="132.5" y="-7.5" font-family="Helvetica,sans-Serif" font-size="10.00">+ RegisterReflection()</text>
</a>
</g>
</g>
<!-- Node2 -->
<g id="node2" class="node">
<title>Node2</title>
<g id="a_node2"><a xlink:href="classtvm_1_1tirx_1_1StmtNode.html" target="_top" xlink:title="Base node of all statements.">
<polygon fill="white" stroke="black" points="69,-117.5 69,-229.5 231,-229.5 231,-117.5 69,-117.5"/>
<text text-anchor="middle" x="150" y="-217.5" font-family="Helvetica,sans-Serif" font-size="10.00">tvm::tirx::StmtNode</text>
<polyline fill="none" stroke="black" points="69,-210.5 231,-210.5 "/>
<text text-anchor="start" x="77" y="-198.5" font-family="Helvetica,sans-Serif" font-size="10.00">+ _type_s_eq_hash_kind</text>
<text text-anchor="start" x="77" y="-187.5" font-family="Helvetica,sans-Serif" font-size="10.00">+ _type_child_slots</text>
<polyline fill="none" stroke="black" points="69,-180.5 231,-180.5 "/>
<text text-anchor="start" x="77" y="-168.5" font-family="Helvetica,sans-Serif" font-size="10.00">+ StmtNode()</text>
<text text-anchor="start" x="77" y="-157.5" font-family="Helvetica,sans-Serif" font-size="10.00">+ StmtNode()</text>
<text text-anchor="start" x="77" y="-146.5" font-family="Helvetica,sans-Serif" font-size="10.00">+ TVM_FFI_DECLARE_OBJECT</text>
<text text-anchor="start" x="77" y="-135.5" font-family="Helvetica,sans-Serif" font-size="10.00">_INFO()</text>
<text text-anchor="start" x="77" y="-124.5" font-family="Helvetica,sans-Serif" font-size="10.00">+ RegisterReflection()</text>
</a>
</g>
</g>
<!-- Node2&#45;&gt;Node1 -->
<g id="edge1" class="edge">
<title>Node2&#45;&gt;Node1</title>
<path fill="none" stroke="midnightblue" d="M178.84,-108.22C183.2,-98.51 187.58,-88.75 191.59,-79.8"/>
<polygon fill="none" stroke="midnightblue" points="175.58,-106.94 174.68,-117.49 181.97,-109.8 175.58,-106.94"/>
</g>
<!-- Node3 -->
<g id="node3" class="node">
<title>Node3</title>
<g id="a_node3"><a xlink:title=" ">
<polygon fill="white" stroke="#bfbfbf" points="0,-407 0,-464 64,-464 64,-407 0,-407"/>
<text text-anchor="middle" x="32" y="-452" font-family="Helvetica,sans-Serif" font-size="10.00">ffi::Object</text>
<polyline fill="none" stroke="#bfbfbf" points="0,-445 64,-445 "/>
<text text-anchor="middle" x="32" y="-433" font-family="Helvetica,sans-Serif" font-size="10.00"> </text>
<polyline fill="none" stroke="#bfbfbf" points="0,-426 64,-426 "/>
<text text-anchor="middle" x="32" y="-414" font-family="Helvetica,sans-Serif" font-size="10.00"> </text>
</a>
</g>
</g>
<!-- Node3&#45;&gt;Node2 -->
<g id="edge2" class="edge">
<title>Node3&#45;&gt;Node2</title>
<path fill="none" stroke="midnightblue" d="M48.78,-397.52C68.7,-353.64 102.08,-280.08 125.03,-229.52"/>
<polygon fill="none" stroke="midnightblue" points="45.57,-396.12 44.63,-406.68 51.95,-399.02 45.57,-396.12"/>
</g>
<!-- Node4 -->
<g id="node4" class="node">
<title>Node4</title>
<g id="a_node4"><a xlink:href="classtvm_1_1Span.html" target="_top" xlink:title=" ">
<polygon fill="white" stroke="black" points="82.5,-390.5 82.5,-480.5 241.5,-480.5 241.5,-390.5 82.5,-390.5"/>
<text text-anchor="middle" x="162" y="-468.5" font-family="Helvetica,sans-Serif" font-size="10.00">tvm::Span</text>
<polyline fill="none" stroke="black" points="82.5,-461.5 241.5,-461.5 "/>
<text text-anchor="middle" x="162" y="-449.5" font-family="Helvetica,sans-Serif" font-size="10.00"> </text>
<polyline fill="none" stroke="black" points="82.5,-442.5 241.5,-442.5 "/>
<text text-anchor="start" x="90.5" y="-430.5" font-family="Helvetica,sans-Serif" font-size="10.00">+ Span()</text>
<text text-anchor="start" x="90.5" y="-419.5" font-family="Helvetica,sans-Serif" font-size="10.00">+ Merge()</text>
<text text-anchor="start" x="90.5" y="-408.5" font-family="Helvetica,sans-Serif" font-size="10.00">+ TVM_FFI_DEFINE_OBJECT</text>
<text text-anchor="start" x="90.5" y="-397.5" font-family="Helvetica,sans-Serif" font-size="10.00">_REF_METHODS_NULLABLE()</text>
</a>
</g>
</g>
<!-- Node4&#45;&gt;Node2 -->
<g id="edge3" class="edge">
<title>Node4&#45;&gt;Node2</title>
<path fill="none" stroke="#404040" d="M149.25,-390.38C147.9,-384.25 146.76,-378 146,-372 140.57,-328.86 141.5,-280.01 143.82,-241.69"/>
<polygon fill="none" stroke="#404040" points="143.82,-241.61 140.23,-235.36 144.61,-229.64 148.21,-235.89 143.82,-241.61"/>
<text text-anchor="middle" x="163.5" y="-307.5" font-family="Helvetica,sans-Serif" font-size="10.00"> +span</text>
</g>
<!-- Node5 -->
<g id="node5" class="node">
<title>Node5</title>
<g id="a_node5"><a xlink:title=" ">
<polygon fill="white" stroke="#bfbfbf" points="175,-518.5 175,-575.5 255,-575.5 255,-518.5 175,-518.5"/>
<text text-anchor="middle" x="215" y="-563.5" font-family="Helvetica,sans-Serif" font-size="10.00">ffi::ObjectRef</text>
<polyline fill="none" stroke="#bfbfbf" points="175,-556.5 255,-556.5 "/>
<text text-anchor="middle" x="215" y="-544.5" font-family="Helvetica,sans-Serif" font-size="10.00"> </text>
<polyline fill="none" stroke="#bfbfbf" points="175,-537.5 255,-537.5 "/>
<text text-anchor="middle" x="215" y="-525.5" font-family="Helvetica,sans-Serif" font-size="10.00"> </text>
</a>
</g>
</g>
<!-- Node5&#45;&gt;Node4 -->
<g id="edge4" class="edge">
<title>Node5&#45;&gt;Node4</title>
<path fill="none" stroke="midnightblue" d="M197.18,-509.18C192.76,-500.05 187.98,-490.18 183.41,-480.74"/>
<polygon fill="none" stroke="midnightblue" points="194.12,-510.89 201.63,-518.37 200.42,-507.84 194.12,-510.89"/>
</g>
<!-- Node6 -->
<g id="node6" class="node">
<title>Node6</title>
<g id="a_node6"><a xlink:href="classtvm_1_1tirx_1_1ScopeIdDef.html" target="_top" xlink:title=" ">
<polygon fill="white" stroke="black" points="189.5,-248.5 189.5,-371.5 348.5,-371.5 348.5,-248.5 189.5,-248.5"/>
<text text-anchor="middle" x="269" y="-359.5" font-family="Helvetica,sans-Serif" font-size="10.00">tvm::tirx::ScopeIdDef</text>
<polyline fill="none" stroke="black" points="189.5,-352.5 348.5,-352.5 "/>
<text text-anchor="middle" x="269" y="-340.5" font-family="Helvetica,sans-Serif" font-size="10.00"> </text>
<polyline fill="none" stroke="black" points="189.5,-333.5 348.5,-333.5 "/>
<text text-anchor="start" x="197.5" y="-321.5" font-family="Helvetica,sans-Serif" font-size="10.00">+ ScopeIdDef()</text>
<text text-anchor="start" x="197.5" y="-310.5" font-family="Helvetica,sans-Serif" font-size="10.00">+ is_deferred()</text>
<text text-anchor="start" x="197.5" y="-299.5" font-family="Helvetica,sans-Serif" font-size="10.00">+ fused_extent()</text>
<text text-anchor="start" x="197.5" y="-288.5" font-family="Helvetica,sans-Serif" font-size="10.00">+ TVM_FFI_DEFINE_OBJECT</text>
<text text-anchor="start" x="197.5" y="-277.5" font-family="Helvetica,sans-Serif" font-size="10.00">_REF_METHODS_NULLABLE()</text>
<text text-anchor="start" x="197.5" y="-266.5" font-family="Helvetica,sans-Serif" font-size="10.00">+ TVM_DEFINE_OBJECT_REF</text>
<text text-anchor="start" x="197.5" y="-255.5" font-family="Helvetica,sans-Serif" font-size="10.00">_COW_METHOD()</text>
</a>
</g>
</g>
<!-- Node5&#45;&gt;Node6 -->
<g id="edge6" class="edge">
<title>Node5&#45;&gt;Node6</title>
<path fill="none" stroke="midnightblue" d="M237.92,-509.24C242.62,-500.29 247.02,-490.53 250,-481 261.02,-445.71 265.81,-404.53 267.83,-371.55"/>
<polygon fill="none" stroke="midnightblue" points="234.73,-507.79 232.98,-518.24 240.86,-511.16 234.73,-507.79"/>
</g>
<!-- Node6&#45;&gt;Node1 -->
<g id="edge5" class="edge">
<title>Node6&#45;&gt;Node1</title>
<path fill="none" stroke="#404040" d="M263.54,-248.13C259.21,-209.99 251.85,-160.07 240,-117 237.66,-108.5 234.64,-99.67 231.41,-91.16"/>
<polygon fill="none" stroke="#404040" points="231.33,-90.98 225.4,-86.88 226.91,-79.83 232.84,-83.93 231.33,-90.98"/>
<text text-anchor="middle" x="275" y="-171" font-family="Helvetica,sans-Serif" font-size="10.00"> +def</text>
</g>
</g>
</svg>
