<?xml version="1.0" encoding="UTF-8" standalone="no"?>
<!DOCTYPE svg PUBLIC "-//W3C//DTD SVG 1.1//EN"
 "http://www.w3.org/Graphics/SVG/1.1/DTD/svg11.dtd">
<!-- Generated by graphviz version 2.43.0 (0)
 -->
<!-- Title: tvm::relax::VarNode Pages: 1 -->
<svg width="518pt" height="785pt"
 viewBox="0.00 0.00 517.50 785.00" xmlns="http://www.w3.org/2000/svg" xmlns:xlink="http://www.w3.org/1999/xlink">
<g id="graph0" class="graph" transform="scale(1 1) rotate(0) translate(4 781)">
<title>tvm::relax::VarNode</title>
<polygon fill="white" stroke="transparent" points="-4,4 -4,-781 513.5,-781 513.5,4 -4,4"/>
<!-- Node1 -->
<g id="node1" class="node">
<title>Node1</title>
<g id="a_node1"><a xlink:title="The variable class for all Relax bindings.">
<polygon fill="#bfbfbf" stroke="black" points="261,-0.5 261,-123.5 423,-123.5 423,-0.5 261,-0.5"/>
<text text-anchor="middle" x="342" y="-111.5" font-family="Helvetica,sans-Serif" font-size="10.00">tvm::relax::VarNode</text>
<polyline fill="none" stroke="black" points="261,-104.5 423,-104.5 "/>
<text text-anchor="start" x="269" y="-92.5" font-family="Helvetica,sans-Serif" font-size="10.00">+ _type_s_eq_hash_kind</text>
<text text-anchor="start" x="269" y="-81.5" font-family="Helvetica,sans-Serif" font-size="10.00">+ _type_child_slots</text>
<polyline fill="none" stroke="black" points="261,-74.5 423,-74.5 "/>
<text text-anchor="start" x="269" y="-62.5" font-family="Helvetica,sans-Serif" font-size="10.00">+ name_hint()</text>
<text text-anchor="start" x="269" y="-51.5" font-family="Helvetica,sans-Serif" font-size="10.00">+ SEqual()</text>
<text text-anchor="start" x="269" y="-40.5" font-family="Helvetica,sans-Serif" font-size="10.00">+ SHash()</text>
<text text-anchor="start" x="269" y="-29.5" font-family="Helvetica,sans-Serif" font-size="10.00">+ TVM_FFI_DECLARE_OBJECT</text>
<text text-anchor="start" x="269" y="-18.5" font-family="Helvetica,sans-Serif" font-size="10.00">_INFO()</text>
<text text-anchor="start" x="269" y="-7.5" font-family="Helvetica,sans-Serif" font-size="10.00">+ RegisterReflection()</text>
</a>
</g>
</g>
<!-- Node2 -->
<g id="node2" class="node">
<title>Node2</title>
<g id="a_node2"><a xlink:href="classtvm_1_1relax_1_1LeafExprNode.html" target="_top" xlink:title="Base type of all (non&#45;function) leaf Exprs.">
<polygon fill="white" stroke="black" points="200,-161.5 200,-229.5 362,-229.5 362,-161.5 200,-161.5"/>
<text text-anchor="middle" x="281" y="-217.5" font-family="Helvetica,sans-Serif" font-size="10.00">tvm::relax::LeafExprNode</text>
<polyline fill="none" stroke="black" points="200,-210.5 362,-210.5 "/>
<text text-anchor="start" x="208" y="-198.5" font-family="Helvetica,sans-Serif" font-size="10.00">+ _type_child_slots</text>
<polyline fill="none" stroke="black" points="200,-191.5 362,-191.5 "/>
<text text-anchor="start" x="208" y="-179.5" font-family="Helvetica,sans-Serif" font-size="10.00">+ TVM_FFI_DECLARE_OBJECT</text>
<text text-anchor="start" x="208" y="-168.5" font-family="Helvetica,sans-Serif" font-size="10.00">_INFO()</text>
</a>
</g>
</g>
<!-- Node2&#45;&gt;Node1 -->
<g id="edge1" class="edge">
<title>Node2&#45;&gt;Node1</title>
<path fill="none" stroke="midnightblue" d="M300.66,-152.11C304.89,-143.01 309.43,-133.21 313.9,-123.57"/>
<polygon fill="none" stroke="midnightblue" points="297.43,-150.77 296.39,-161.32 303.78,-153.72 297.43,-150.77"/>
</g>
<!-- Node3 -->
<g id="node3" class="node">
<title>Node3</title>
<g id="a_node3"><a xlink:href="classtvm_1_1RelaxExprNode.html" target="_top" xlink:title="Base node of all non&#45;primitive expressions.">
<polygon fill="white" stroke="black" points="181,-267.5 181,-346.5 343,-346.5 343,-267.5 181,-267.5"/>
<text text-anchor="middle" x="262" y="-334.5" font-family="Helvetica,sans-Serif" font-size="10.00">ExprNode</text>
<polyline fill="none" stroke="black" points="181,-327.5 343,-327.5 "/>
<text text-anchor="start" x="189" y="-315.5" font-family="Helvetica,sans-Serif" font-size="10.00">+ _type_child_slots</text>
<polyline fill="none" stroke="black" points="181,-308.5 343,-308.5 "/>
<text text-anchor="start" x="189" y="-296.5" font-family="Helvetica,sans-Serif" font-size="10.00">+ TVM_FFI_DECLARE_OBJECT</text>
<text text-anchor="start" x="189" y="-285.5" font-family="Helvetica,sans-Serif" font-size="10.00">_INFO()</text>
<text text-anchor="start" x="189" y="-274.5" font-family="Helvetica,sans-Serif" font-size="10.00">+ RegisterReflection()</text>
</a>
</g>
</g>
<!-- Node3&#45;&gt;Node2 -->
<g id="edge2" class="edge">
<title>Node3&#45;&gt;Node2</title>
<path fill="none" stroke="midnightblue" d="M270.44,-257.38C272.06,-248.02 273.73,-238.41 275.24,-229.67"/>
<polygon fill="none" stroke="midnightblue" points="266.96,-256.94 268.7,-267.39 273.86,-258.14 266.96,-256.94"/>
</g>
<!-- Node4 -->
<g id="node4" class="node">
<title>Node4</title>
<g id="a_node4"><a xlink:href="classtvm_1_1BaseExprNode.html" target="_top" xlink:title="Base type of all the expressions.">
<polygon fill="white" stroke="black" points="146,-384.5 146,-474.5 308,-474.5 308,-384.5 146,-384.5"/>
<text text-anchor="middle" x="227" y="-462.5" font-family="Helvetica,sans-Serif" font-size="10.00">tvm::BaseExprNode</text>
<polyline fill="none" stroke="black" points="146,-455.5 308,-455.5 "/>
<text text-anchor="start" x="154" y="-443.5" font-family="Helvetica,sans-Serif" font-size="10.00">+ _type_s_eq_hash_kind</text>
<text text-anchor="start" x="154" y="-432.5" font-family="Helvetica,sans-Serif" font-size="10.00">+ _type_child_slots</text>
<polyline fill="none" stroke="black" points="146,-425.5 308,-425.5 "/>
<text text-anchor="start" x="154" y="-413.5" font-family="Helvetica,sans-Serif" font-size="10.00">+ TVM_FFI_DECLARE_OBJECT</text>
<text text-anchor="start" x="154" y="-402.5" font-family="Helvetica,sans-Serif" font-size="10.00">_INFO()</text>
<text text-anchor="start" x="154" y="-391.5" font-family="Helvetica,sans-Serif" font-size="10.00">+ RegisterReflection()</text>
</a>
</g>
</g>
<!-- Node4&#45;&gt;Node3 -->
<g id="edge3" class="edge">
<title>Node4&#45;&gt;Node3</title>
<path fill="none" stroke="midnightblue" d="M242.66,-374.6C245.39,-365.17 248.2,-355.53 250.78,-346.61"/>
<polygon fill="none" stroke="midnightblue" points="239.26,-373.74 239.83,-384.31 245.98,-375.69 239.26,-373.74"/>
</g>
<!-- Node5 -->
<g id="node5" class="node">
<title>Node5</title>
<g id="a_node5"><a xlink:title=" ">
<polygon fill="white" stroke="#bfbfbf" points="0,-608 0,-665 64,-665 64,-608 0,-608"/>
<text text-anchor="middle" x="32" y="-653" font-family="Helvetica,sans-Serif" font-size="10.00">ffi::Object</text>
<polyline fill="none" stroke="#bfbfbf" points="0,-646 64,-646 "/>
<text text-anchor="middle" x="32" y="-634" font-family="Helvetica,sans-Serif" font-size="10.00"> </text>
<polyline fill="none" stroke="#bfbfbf" points="0,-627 64,-627 "/>
<text text-anchor="middle" x="32" y="-615" font-family="Helvetica,sans-Serif" font-size="10.00"> </text>
</a>
</g>
</g>
<!-- Node5&#45;&gt;Node4 -->
<g id="edge4" class="edge">
<title>Node5&#45;&gt;Node4</title>
<path fill="none" stroke="midnightblue" d="M64.3,-600.31C67.23,-597.15 70.17,-594.01 73,-591 110.3,-551.33 153.23,-506.67 184.27,-474.55"/>
<polygon fill="none" stroke="midnightblue" points="61.73,-597.93 57.5,-607.65 66.87,-602.69 61.73,-597.93"/>
</g>
<!-- Node6 -->
<g id="node6" class="node">
<title>Node6</title>
<g id="a_node6"><a xlink:href="classtvm_1_1Span.html" target="_top" xlink:title=" ">
<polygon fill="white" stroke="black" points="82.5,-591.5 82.5,-681.5 241.5,-681.5 241.5,-591.5 82.5,-591.5"/>
<text text-anchor="middle" x="162" y="-669.5" font-family="Helvetica,sans-Serif" font-size="10.00">tvm::Span</text>
<polyline fill="none" stroke="black" points="82.5,-662.5 241.5,-662.5 "/>
<text text-anchor="middle" x="162" y="-650.5" font-family="Helvetica,sans-Serif" font-size="10.00"> </text>
<polyline fill="none" stroke="black" points="82.5,-643.5 241.5,-643.5 "/>
<text text-anchor="start" x="90.5" y="-631.5" font-family="Helvetica,sans-Serif" font-size="10.00">+ Span()</text>
<text text-anchor="start" x="90.5" y="-620.5" font-family="Helvetica,sans-Serif" font-size="10.00">+ Merge()</text>
<text text-anchor="start" x="90.5" y="-609.5" font-family="Helvetica,sans-Serif" font-size="10.00">+ TVM_FFI_DEFINE_OBJECT</text>
<text text-anchor="start" x="90.5" y="-598.5" font-family="Helvetica,sans-Serif" font-size="10.00">_REF_METHODS_NULLABLE()</text>
</a>
</g>
</g>
<!-- Node6&#45;&gt;Node4 -->
<g id="edge5" class="edge">
<title>Node6&#45;&gt;Node4</title>
<path fill="none" stroke="#404040" d="M176.02,-591.27C185.76,-560.56 198.82,-519.39 209.28,-486.4"/>
<polygon fill="none" stroke="#404040" points="209.37,-486.09 207.37,-479.16 213,-474.65 215,-481.58 209.37,-486.09"/>
<text text-anchor="middle" x="223.5" y="-530.5" font-family="Helvetica,sans-Serif" font-size="10.00"> +span</text>
</g>
<!-- Node7 -->
<g id="node7" class="node">
<title>Node7</title>
<g id="a_node7"><a xlink:title=" ">
<polygon fill="white" stroke="#bfbfbf" points="299,-719.5 299,-776.5 379,-776.5 379,-719.5 299,-719.5"/>
<text text-anchor="middle" x="339" y="-764.5" font-family="Helvetica,sans-Serif" font-size="10.00">ffi::ObjectRef</text>
<polyline fill="none" stroke="#bfbfbf" points="299,-757.5 379,-757.5 "/>
<text text-anchor="middle" x="339" y="-745.5" font-family="Helvetica,sans-Serif" font-size="10.00"> </text>
<polyline fill="none" stroke="#bfbfbf" points="299,-738.5 379,-738.5 "/>
<text text-anchor="middle" x="339" y="-726.5" font-family="Helvetica,sans-Serif" font-size="10.00"> </text>
</a>
</g>
</g>
<!-- Node7&#45;&gt;Node6 -->
<g id="edge6" class="edge">
<title>Node7&#45;&gt;Node6</title>
<path fill="none" stroke="midnightblue" d="M289.93,-716.64C272.41,-705.81 252.3,-693.37 233.3,-681.61"/>
<polygon fill="none" stroke="midnightblue" points="288.49,-719.87 298.84,-722.15 292.17,-713.92 288.49,-719.87"/>
</g>
<!-- Node8 -->
<g id="node8" class="node">
<title>Node8</title>
<g id="a_node8"><a xlink:href="classtvm_1_1Type.html" target="_top" xlink:title="Managed reference to TypeNode.">
<polygon fill="white" stroke="black" points="259.5,-602.5 259.5,-670.5 418.5,-670.5 418.5,-602.5 259.5,-602.5"/>
<text text-anchor="middle" x="339" y="-658.5" font-family="Helvetica,sans-Serif" font-size="10.00">tvm::Type</text>
<polyline fill="none" stroke="black" points="259.5,-651.5 418.5,-651.5 "/>
<text text-anchor="middle" x="339" y="-639.5" font-family="Helvetica,sans-Serif" font-size="10.00"> </text>
<polyline fill="none" stroke="black" points="259.5,-632.5 418.5,-632.5 "/>
<text text-anchor="start" x="267.5" y="-620.5" font-family="Helvetica,sans-Serif" font-size="10.00">+ TVM_FFI_DEFINE_OBJECT</text>
<text text-anchor="start" x="267.5" y="-609.5" font-family="Helvetica,sans-Serif" font-size="10.00">_REF_METHODS_NULLABLE()</text>
</a>
</g>
</g>
<!-- Node7&#45;&gt;Node8 -->
<g id="edge8" class="edge">
<title>Node7&#45;&gt;Node8</title>
<path fill="none" stroke="midnightblue" d="M339,-709.2C339,-696.64 339,-682.76 339,-670.59"/>
<polygon fill="none" stroke="midnightblue" points="335.5,-709.37 339,-719.37 342.5,-709.37 335.5,-709.37"/>
</g>
<!-- Node9 -->
<g id="node9" class="node">
<title>Node9</title>
<g id="a_node9"><a xlink:href="classtvm_1_1relax_1_1Id.html" target="_top" xlink:title=" ">
<polygon fill="white" stroke="black" points="350.5,-493.5 350.5,-572.5 509.5,-572.5 509.5,-493.5 350.5,-493.5"/>
<text text-anchor="middle" x="430" y="-560.5" font-family="Helvetica,sans-Serif" font-size="10.00">tvm::relax::Id</text>
<polyline fill="none" stroke="black" points="350.5,-553.5 509.5,-553.5 "/>
<text text-anchor="middle" x="430" y="-541.5" font-family="Helvetica,sans-Serif" font-size="10.00"> </text>
<polyline fill="none" stroke="black" points="350.5,-534.5 509.5,-534.5 "/>
<text text-anchor="start" x="358.5" y="-522.5" font-family="Helvetica,sans-Serif" font-size="10.00">+ Id()</text>
<text text-anchor="start" x="358.5" y="-511.5" font-family="Helvetica,sans-Serif" font-size="10.00">+ TVM_FFI_DEFINE_OBJECT</text>
<text text-anchor="start" x="358.5" y="-500.5" font-family="Helvetica,sans-Serif" font-size="10.00">_REF_METHODS_NULLABLE()</text>
</a>
</g>
</g>
<!-- Node7&#45;&gt;Node9 -->
<g id="edge10" class="edge">
<title>Node7&#45;&gt;Node9</title>
<path fill="none" stroke="midnightblue" d="M387.69,-722.66C403.07,-712.36 418.31,-698.8 427,-682 444.48,-648.22 442.75,-604.03 438.18,-572.76"/>
<polygon fill="none" stroke="midnightblue" points="385.75,-719.75 379.17,-728.05 389.49,-725.66 385.75,-719.75"/>
</g>
<!-- Node8&#45;&gt;Node4 -->
<g id="edge7" class="edge">
<title>Node8&#45;&gt;Node4</title>
<path fill="none" stroke="#404040" d="M320.76,-602.11C303.49,-570.51 277.27,-522.51 256.94,-485.3"/>
<polygon fill="none" stroke="#404040" points="256.86,-485.16 250.47,-481.81 251.11,-474.63 257.49,-477.97 256.86,-485.16"/>
<text text-anchor="middle" x="314" y="-530.5" font-family="Helvetica,sans-Serif" font-size="10.00"> +ty</text>
</g>
<!-- Node9&#45;&gt;Node1 -->
<g id="edge9" class="edge">
<title>Node9&#45;&gt;Node1</title>
<path fill="none" stroke="#404040" d="M420.47,-493.36C413.05,-459.89 404,-410.05 404,-366 404,-366 404,-366 404,-194.5 404,-173.93 397.72,-153.13 389.15,-134.33"/>
<polygon fill="none" stroke="#404040" points="389.13,-134.29 382.91,-130.65 383.87,-123.51 390.1,-127.14 389.13,-134.29"/>
<text text-anchor="middle" x="417.5" y="-304.5" font-family="Helvetica,sans-Serif" font-size="10.00"> +vid</text>
</g>
</g>
</svg>
