<?xml version="1.0" encoding="UTF-8" standalone="no"?>
<!DOCTYPE svg PUBLIC "-//W3C//DTD SVG 1.1//EN"
 "http://www.w3.org/Graphics/SVG/1.1/DTD/svg11.dtd">
<!-- Generated by graphviz version 2.43.0 (0)
 -->
<!-- Title: tvm::arith::IterSumExprNode Pages: 1 -->
<svg width="620pt" height="1014pt"
 viewBox="0.00 0.00 620.00 1014.00" xmlns="http://www.w3.org/2000/svg" xmlns:xlink="http://www.w3.org/1999/xlink">
<g id="graph0" class="graph" transform="scale(1 1) rotate(0) translate(4 1010)">
<title>tvm::arith::IterSumExprNode</title>
<polygon fill="white" stroke="transparent" points="-4,4 -4,-1010 616,-1010 616,4 -4,4"/>
<!-- Node1 -->
<g id="node1" class="node">
<title>Node1</title>
<g id="a_node1"><a xlink:title="Fuse multiple iterators by summing them with scaling.">
<polygon fill="#bfbfbf" stroke="black" points="394.5,-0.5 394.5,-90.5 556.5,-90.5 556.5,-0.5 394.5,-0.5"/>
<text text-anchor="middle" x="475.5" y="-78.5" font-family="Helvetica,sans-Serif" font-size="10.00">tvm::arith::IterSumExprNode</text>
<polyline fill="none" stroke="black" points="394.5,-71.5 556.5,-71.5 "/>
<text text-anchor="start" x="402.5" y="-59.5" font-family="Helvetica,sans-Serif" font-size="10.00">+ args</text>
<text text-anchor="start" x="402.5" y="-48.5" font-family="Helvetica,sans-Serif" font-size="10.00">+ _type_s_eq_hash_kind</text>
<polyline fill="none" stroke="black" points="394.5,-41.5 556.5,-41.5 "/>
<text text-anchor="start" x="402.5" y="-29.5" font-family="Helvetica,sans-Serif" font-size="10.00">+ TVM_FFI_DECLARE_OBJECT</text>
<text text-anchor="start" x="402.5" y="-18.5" font-family="Helvetica,sans-Serif" font-size="10.00">_INFO_FINAL()</text>
<text text-anchor="start" x="402.5" y="-7.5" font-family="Helvetica,sans-Serif" font-size="10.00">+ RegisterReflection()</text>
</a>
</g>
</g>
<!-- Node2 -->
<g id="node2" class="node">
<title>Node2</title>
<g id="a_node2"><a xlink:href="classtvm_1_1arith_1_1IterMapExprNode.html" target="_top" xlink:title="Base class of all iter map expressions.">
<polygon fill="white" stroke="black" points="338.5,-128.5 338.5,-196.5 500.5,-196.5 500.5,-128.5 338.5,-128.5"/>
<text text-anchor="middle" x="419.5" y="-184.5" font-family="Helvetica,sans-Serif" font-size="10.00">tvm::arith::IterMapExprNode</text>
<polyline fill="none" stroke="black" points="338.5,-177.5 500.5,-177.5 "/>
<text text-anchor="start" x="346.5" y="-165.5" font-family="Helvetica,sans-Serif" font-size="10.00">+ _type_child_slots</text>
<polyline fill="none" stroke="black" points="338.5,-158.5 500.5,-158.5 "/>
<text text-anchor="start" x="346.5" y="-146.5" font-family="Helvetica,sans-Serif" font-size="10.00">+ TVM_FFI_DECLARE_OBJECT</text>
<text text-anchor="start" x="346.5" y="-135.5" font-family="Helvetica,sans-Serif" font-size="10.00">_INFO()</text>
</a>
</g>
</g>
<!-- Node2&#45;&gt;Node1 -->
<g id="edge1" class="edge">
<title>Node2&#45;&gt;Node1</title>
<path fill="none" stroke="midnightblue" d="M440.09,-119.21C444.6,-109.96 449.38,-100.15 453.92,-90.82"/>
<polygon fill="none" stroke="midnightblue" points="436.93,-117.71 435.7,-128.24 443.22,-120.78 436.93,-117.71"/>
</g>
<!-- Node3 -->
<g id="node3" class="node">
<title>Node3</title>
<g id="a_node3"><a xlink:href="classtvm_1_1PrimExprNode.html" target="_top" xlink:title="Base node of all primitive expressions.">
<polygon fill="white" stroke="black" points="327.5,-244.5 327.5,-323.5 489.5,-323.5 489.5,-244.5 327.5,-244.5"/>
<text text-anchor="middle" x="408.5" y="-311.5" font-family="Helvetica,sans-Serif" font-size="10.00">tvm::PrimExprNode</text>
<polyline fill="none" stroke="black" points="327.5,-304.5 489.5,-304.5 "/>
<text text-anchor="start" x="335.5" y="-292.5" font-family="Helvetica,sans-Serif" font-size="10.00">+ _type_child_slots</text>
<polyline fill="none" stroke="black" points="327.5,-285.5 489.5,-285.5 "/>
<text text-anchor="start" x="335.5" y="-273.5" font-family="Helvetica,sans-Serif" font-size="10.00">+ TVM_FFI_DECLARE_OBJECT</text>
<text text-anchor="start" x="335.5" y="-262.5" font-family="Helvetica,sans-Serif" font-size="10.00">_INFO()</text>
<text text-anchor="start" x="335.5" y="-251.5" font-family="Helvetica,sans-Serif" font-size="10.00">+ RegisterReflection()</text>
</a>
</g>
</g>
<!-- Node3&#45;&gt;Node2 -->
<g id="edge2" class="edge">
<title>Node3&#45;&gt;Node2</title>
<path fill="none" stroke="midnightblue" d="M413.02,-233.93C414.16,-221.47 415.37,-208.37 416.43,-196.89"/>
<polygon fill="none" stroke="midnightblue" points="409.5,-233.92 412.07,-244.2 416.47,-234.56 409.5,-233.92"/>
</g>
<!-- Node4 -->
<g id="node4" class="node">
<title>Node4</title>
<g id="a_node4"><a xlink:href="classtvm_1_1BaseExprNode.html" target="_top" xlink:title="Base type of all the expressions.">
<polygon fill="white" stroke="black" points="165.5,-578 165.5,-668 327.5,-668 327.5,-578 165.5,-578"/>
<text text-anchor="middle" x="246.5" y="-656" font-family="Helvetica,sans-Serif" font-size="10.00">tvm::BaseExprNode</text>
<polyline fill="none" stroke="black" points="165.5,-649 327.5,-649 "/>
<text text-anchor="start" x="173.5" y="-637" font-family="Helvetica,sans-Serif" font-size="10.00">+ _type_s_eq_hash_kind</text>
<text text-anchor="start" x="173.5" y="-626" font-family="Helvetica,sans-Serif" font-size="10.00">+ _type_child_slots</text>
<polyline fill="none" stroke="black" points="165.5,-619 327.5,-619 "/>
<text text-anchor="start" x="173.5" y="-607" font-family="Helvetica,sans-Serif" font-size="10.00">+ TVM_FFI_DECLARE_OBJECT</text>
<text text-anchor="start" x="173.5" y="-596" font-family="Helvetica,sans-Serif" font-size="10.00">_INFO()</text>
<text text-anchor="start" x="173.5" y="-585" font-family="Helvetica,sans-Serif" font-size="10.00">+ RegisterReflection()</text>
</a>
</g>
</g>
<!-- Node4&#45;&gt;Node3 -->
<g id="edge3" class="edge">
<title>Node4&#45;&gt;Node3</title>
<path fill="none" stroke="midnightblue" d="M272.15,-568.64C304.96,-500.39 360.99,-383.84 389.95,-323.59"/>
<polygon fill="none" stroke="midnightblue" points="268.86,-567.41 267.68,-577.94 275.17,-570.45 268.86,-567.41"/>
</g>
<!-- Node5 -->
<g id="node5" class="node">
<title>Node5</title>
<g id="a_node5"><a xlink:title=" ">
<polygon fill="white" stroke="#bfbfbf" points="354.5,-837 354.5,-894 418.5,-894 418.5,-837 354.5,-837"/>
<text text-anchor="middle" x="386.5" y="-882" font-family="Helvetica,sans-Serif" font-size="10.00">ffi::Object</text>
<polyline fill="none" stroke="#bfbfbf" points="354.5,-875 418.5,-875 "/>
<text text-anchor="middle" x="386.5" y="-863" font-family="Helvetica,sans-Serif" font-size="10.00"> </text>
<polyline fill="none" stroke="#bfbfbf" points="354.5,-856 418.5,-856 "/>
<text text-anchor="middle" x="386.5" y="-844" font-family="Helvetica,sans-Serif" font-size="10.00"> </text>
</a>
</g>
</g>
<!-- Node5&#45;&gt;Node4 -->
<g id="edge4" class="edge">
<title>Node5&#45;&gt;Node4</title>
<path fill="none" stroke="midnightblue" d="M365.39,-828.23C340.49,-785.46 299.11,-714.38 272.33,-668.37"/>
<polygon fill="none" stroke="midnightblue" points="362.38,-830.03 370.44,-836.91 368.43,-826.51 362.38,-830.03"/>
</g>
<!-- Node6 -->
<g id="node6" class="node">
<title>Node6</title>
<g id="a_node6"><a xlink:href="classtvm_1_1Span.html" target="_top" xlink:title=" ">
<polygon fill="white" stroke="black" points="0,-820.5 0,-910.5 159,-910.5 159,-820.5 0,-820.5"/>
<text text-anchor="middle" x="79.5" y="-898.5" font-family="Helvetica,sans-Serif" font-size="10.00">tvm::Span</text>
<polyline fill="none" stroke="black" points="0,-891.5 159,-891.5 "/>
<text text-anchor="middle" x="79.5" y="-879.5" font-family="Helvetica,sans-Serif" font-size="10.00"> </text>
<polyline fill="none" stroke="black" points="0,-872.5 159,-872.5 "/>
<text text-anchor="start" x="8" y="-860.5" font-family="Helvetica,sans-Serif" font-size="10.00">+ Span()</text>
<text text-anchor="start" x="8" y="-849.5" font-family="Helvetica,sans-Serif" font-size="10.00">+ Merge()</text>
<text text-anchor="start" x="8" y="-838.5" font-family="Helvetica,sans-Serif" font-size="10.00">+ TVM_FFI_DEFINE_OBJECT</text>
<text text-anchor="start" x="8" y="-827.5" font-family="Helvetica,sans-Serif" font-size="10.00">_REF_METHODS_NULLABLE()</text>
</a>
</g>
</g>
<!-- Node6&#45;&gt;Node4 -->
<g id="edge5" class="edge">
<title>Node6&#45;&gt;Node4</title>
<path fill="none" stroke="#404040" d="M110.13,-820.39C137.94,-780.34 179.04,-721.15 208.84,-678.23"/>
<polygon fill="none" stroke="#404040" points="208.94,-678.1 209.07,-670.89 215.78,-668.24 215.64,-675.45 208.94,-678.1"/>
<text text-anchor="middle" x="147" y="-794" font-family="Helvetica,sans-Serif" font-size="10.00"> +span</text>
</g>
<!-- Node7 -->
<g id="node7" class="node">
<title>Node7</title>
<g id="a_node7"><a xlink:title=" ">
<polygon fill="white" stroke="#bfbfbf" points="216.5,-948.5 216.5,-1005.5 296.5,-1005.5 296.5,-948.5 216.5,-948.5"/>
<text text-anchor="middle" x="256.5" y="-993.5" font-family="Helvetica,sans-Serif" font-size="10.00">ffi::ObjectRef</text>
<polyline fill="none" stroke="#bfbfbf" points="216.5,-986.5 296.5,-986.5 "/>
<text text-anchor="middle" x="256.5" y="-974.5" font-family="Helvetica,sans-Serif" font-size="10.00"> </text>
<polyline fill="none" stroke="#bfbfbf" points="216.5,-967.5 296.5,-967.5 "/>
<text text-anchor="middle" x="256.5" y="-955.5" font-family="Helvetica,sans-Serif" font-size="10.00"> </text>
</a>
</g>
</g>
<!-- Node7&#45;&gt;Node6 -->
<g id="edge6" class="edge">
<title>Node7&#45;&gt;Node6</title>
<path fill="none" stroke="midnightblue" d="M207.43,-945.64C189.91,-934.81 169.8,-922.37 150.8,-910.61"/>
<polygon fill="none" stroke="midnightblue" points="205.99,-948.87 216.34,-951.15 209.67,-942.92 205.99,-948.87"/>
</g>
<!-- Node8 -->
<g id="node8" class="node">
<title>Node8</title>
<g id="a_node8"><a xlink:href="classtvm_1_1Type.html" target="_top" xlink:title="Managed reference to TypeNode.">
<polygon fill="white" stroke="black" points="177,-831.5 177,-899.5 336,-899.5 336,-831.5 177,-831.5"/>
<text text-anchor="middle" x="256.5" y="-887.5" font-family="Helvetica,sans-Serif" font-size="10.00">tvm::Type</text>
<polyline fill="none" stroke="black" points="177,-880.5 336,-880.5 "/>
<text text-anchor="middle" x="256.5" y="-868.5" font-family="Helvetica,sans-Serif" font-size="10.00"> </text>
<polyline fill="none" stroke="black" points="177,-861.5 336,-861.5 "/>
<text text-anchor="start" x="185" y="-849.5" font-family="Helvetica,sans-Serif" font-size="10.00">+ TVM_FFI_DEFINE_OBJECT</text>
<text text-anchor="start" x="185" y="-838.5" font-family="Helvetica,sans-Serif" font-size="10.00">_REF_METHODS_NULLABLE()</text>
</a>
</g>
</g>
<!-- Node7&#45;&gt;Node8 -->
<g id="edge8" class="edge">
<title>Node7&#45;&gt;Node8</title>
<path fill="none" stroke="midnightblue" d="M256.5,-938.2C256.5,-925.64 256.5,-911.76 256.5,-899.59"/>
<polygon fill="none" stroke="midnightblue" points="253,-938.37 256.5,-948.37 260,-938.37 253,-938.37"/>
</g>
<!-- Node11 -->
<g id="node11" class="node">
<title>Node11</title>
<g id="a_node11"><a xlink:href="classtvm_1_1BaseExpr.html" target="_top" xlink:title="Managed reference to BaseExprNode.">
<polygon fill="white" stroke="black" points="440,-831.5 440,-899.5 599,-899.5 599,-831.5 440,-831.5"/>
<text text-anchor="middle" x="519.5" y="-887.5" font-family="Helvetica,sans-Serif" font-size="10.00">tvm::BaseExpr</text>
<polyline fill="none" stroke="black" points="440,-880.5 599,-880.5 "/>
<text text-anchor="middle" x="519.5" y="-868.5" font-family="Helvetica,sans-Serif" font-size="10.00"> </text>
<polyline fill="none" stroke="black" points="440,-861.5 599,-861.5 "/>
<text text-anchor="start" x="448" y="-849.5" font-family="Helvetica,sans-Serif" font-size="10.00">+ TVM_FFI_DEFINE_OBJECT</text>
<text text-anchor="start" x="448" y="-838.5" font-family="Helvetica,sans-Serif" font-size="10.00">_REF_METHODS_NULLABLE()</text>
</a>
</g>
</g>
<!-- Node7&#45;&gt;Node11 -->
<g id="edge12" class="edge">
<title>Node7&#45;&gt;Node11</title>
<path fill="none" stroke="midnightblue" d="M306.43,-958.33C340.78,-945.85 387.28,-928.33 427.5,-911 435.81,-907.42 444.46,-903.5 452.99,-899.52"/>
<polygon fill="none" stroke="midnightblue" points="304.84,-955.18 296.63,-961.87 307.22,-961.76 304.84,-955.18"/>
</g>
<!-- Node8&#45;&gt;Node4 -->
<g id="edge7" class="edge">
<title>Node8&#45;&gt;Node4</title>
<path fill="none" stroke="#404040" d="M255.12,-831.31C253.5,-792.4 250.79,-727.26 248.84,-680.37"/>
<polygon fill="none" stroke="#404040" points="248.84,-680.26 244.59,-674.43 248.34,-668.27 252.59,-674.1 248.84,-680.26"/>
<text text-anchor="middle" x="265.5" y="-794" font-family="Helvetica,sans-Serif" font-size="10.00"> +ty</text>
</g>
<!-- Node9 -->
<g id="node9" class="node">
<title>Node9</title>
<g id="a_node9"><a xlink:href="classtvm_1_1runtime_1_1DataType.html" target="_top" xlink:title="Runtime primitive data type.">
<polygon fill="white" stroke="black" points="345.5,-473.5 345.5,-772.5 485.5,-772.5 485.5,-473.5 345.5,-473.5"/>
<text text-anchor="middle" x="415.5" y="-760.5" font-family="Helvetica,sans-Serif" font-size="10.00">tvm::runtime::DataType</text>
<polyline fill="none" stroke="black" points="345.5,-753.5 485.5,-753.5 "/>
<text text-anchor="middle" x="415.5" y="-741.5" font-family="Helvetica,sans-Serif" font-size="10.00"> </text>
<polyline fill="none" stroke="black" points="345.5,-734.5 485.5,-734.5 "/>
<text text-anchor="start" x="353.5" y="-722.5" font-family="Helvetica,sans-Serif" font-size="10.00">+ DataType()</text>
<text text-anchor="start" x="353.5" y="-711.5" font-family="Helvetica,sans-Serif" font-size="10.00">+ DataType()</text>
<text text-anchor="start" x="353.5" y="-700.5" font-family="Helvetica,sans-Serif" font-size="10.00">+ DataType()</text>
<text text-anchor="start" x="353.5" y="-689.5" font-family="Helvetica,sans-Serif" font-size="10.00">+ code()</text>
<text text-anchor="start" x="353.5" y="-678.5" font-family="Helvetica,sans-Serif" font-size="10.00">+ bits()</text>
<text text-anchor="start" x="353.5" y="-667.5" font-family="Helvetica,sans-Serif" font-size="10.00">+ bytes()</text>
<text text-anchor="start" x="353.5" y="-656.5" font-family="Helvetica,sans-Serif" font-size="10.00">+ lanes()</text>
<text text-anchor="start" x="353.5" y="-645.5" font-family="Helvetica,sans-Serif" font-size="10.00">+ vscale_factor()</text>
<text text-anchor="start" x="353.5" y="-634.5" font-family="Helvetica,sans-Serif" font-size="10.00">+ get_lanes_or_vscale</text>
<text text-anchor="start" x="353.5" y="-623.5" font-family="Helvetica,sans-Serif" font-size="10.00">_factor()</text>
<text text-anchor="start" x="353.5" y="-612.5" font-family="Helvetica,sans-Serif" font-size="10.00">+ is_scalar()</text>
<text text-anchor="start" x="353.5" y="-601.5" font-family="Helvetica,sans-Serif" font-size="10.00">and 37 more...</text>
<text text-anchor="start" x="353.5" y="-590.5" font-family="Helvetica,sans-Serif" font-size="10.00">+ Int()</text>
<text text-anchor="start" x="353.5" y="-579.5" font-family="Helvetica,sans-Serif" font-size="10.00">+ UInt()</text>
<text text-anchor="start" x="353.5" y="-568.5" font-family="Helvetica,sans-Serif" font-size="10.00">+ Float()</text>
<text text-anchor="start" x="353.5" y="-557.5" font-family="Helvetica,sans-Serif" font-size="10.00">+ BFloat()</text>
<text text-anchor="start" x="353.5" y="-546.5" font-family="Helvetica,sans-Serif" font-size="10.00">+ Float8E3M4()</text>
<text text-anchor="start" x="353.5" y="-535.5" font-family="Helvetica,sans-Serif" font-size="10.00">+ Float8E4M3()</text>
<text text-anchor="start" x="353.5" y="-524.5" font-family="Helvetica,sans-Serif" font-size="10.00">+ Float8E4M3B11FNUZ()</text>
<text text-anchor="start" x="353.5" y="-513.5" font-family="Helvetica,sans-Serif" font-size="10.00">+ Float8E4M3FN()</text>
<text text-anchor="start" x="353.5" y="-502.5" font-family="Helvetica,sans-Serif" font-size="10.00">+ Float8E4M3FNUZ()</text>
<text text-anchor="start" x="353.5" y="-491.5" font-family="Helvetica,sans-Serif" font-size="10.00">+ Float8E5M2()</text>
<text text-anchor="start" x="353.5" y="-480.5" font-family="Helvetica,sans-Serif" font-size="10.00">and 9 more...</text>
</a>
</g>
</g>
<!-- Node9&#45;&gt;Node3 -->
<g id="edge9" class="edge">
<title>Node9&#45;&gt;Node3</title>
<path fill="none" stroke="#404040" d="M405.2,-473.16C404.93,-467.02 404.7,-460.95 404.5,-455 402.85,-404.8 402.74,-392.19 404.5,-342 404.57,-339.96 404.66,-337.87 404.76,-335.76"/>
<polygon fill="none" stroke="#404040" points="404.76,-335.6 401.1,-329.39 405.42,-323.61 409.09,-329.82 404.76,-335.6"/>
<text text-anchor="middle" x="424.5" y="-396" font-family="Helvetica,sans-Serif" font-size="10.00"> +dtype</text>
</g>
<!-- Node10 -->
<g id="node10" class="node">
<title>Node10</title>
<g id="a_node10"><a xlink:href="classtvm_1_1PrimExpr.html" target="_top" xlink:title="Reference to PrimExprNode.">
<polygon fill="white" stroke="black" points="453,-342.5 453,-454.5 612,-454.5 612,-342.5 453,-342.5"/>
<text text-anchor="middle" x="532.5" y="-442.5" font-family="Helvetica,sans-Serif" font-size="10.00">tvm::PrimExpr</text>
<polyline fill="none" stroke="black" points="453,-435.5 612,-435.5 "/>
<text text-anchor="middle" x="532.5" y="-423.5" font-family="Helvetica,sans-Serif" font-size="10.00"> </text>
<polyline fill="none" stroke="black" points="453,-416.5 612,-416.5 "/>
<text text-anchor="start" x="461" y="-404.5" font-family="Helvetica,sans-Serif" font-size="10.00">+ PrimExpr()</text>
<text text-anchor="start" x="461" y="-393.5" font-family="Helvetica,sans-Serif" font-size="10.00">+ PrimExpr()</text>
<text text-anchor="start" x="461" y="-382.5" font-family="Helvetica,sans-Serif" font-size="10.00">+ dtype()</text>
<text text-anchor="start" x="461" y="-371.5" font-family="Helvetica,sans-Serif" font-size="10.00">+ TVM_FFI_DEFINE_OBJECT</text>
<text text-anchor="start" x="461" y="-360.5" font-family="Helvetica,sans-Serif" font-size="10.00">_REF_METHODS_NULLABLE()</text>
<text text-anchor="start" x="461" y="-349.5" font-family="Helvetica,sans-Serif" font-size="10.00">+ ConvertFallbackValue()</text>
</a>
</g>
</g>
<!-- Node10&#45;&gt;Node1 -->
<g id="edge10" class="edge">
<title>Node10&#45;&gt;Node1</title>
<path fill="none" stroke="#404040" d="M532.75,-342.5C531.86,-287.46 527.32,-200.75 509.5,-128 507.42,-119.5 504.58,-110.74 501.42,-102.26"/>
<polygon fill="none" stroke="#404040" points="501.35,-102.09 495.43,-97.97 496.95,-90.92 502.87,-95.04 501.35,-102.09"/>
<text text-anchor="middle" x="543" y="-218" font-family="Helvetica,sans-Serif" font-size="10.00"> +base</text>
</g>
<!-- Node11&#45;&gt;Node10 -->
<g id="edge11" class="edge">
<title>Node11&#45;&gt;Node10</title>
<path fill="none" stroke="midnightblue" d="M520.71,-821.38C523.08,-736.62 528.34,-548.42 530.96,-454.72"/>
<polygon fill="none" stroke="midnightblue" points="517.21,-821.34 520.42,-831.43 524.2,-821.53 517.21,-821.34"/>
</g>
</g>
</svg>
