<?xml version="1.0" encoding="UTF-8" standalone="no"?>
<!DOCTYPE svg PUBLIC "-//W3C//DTD SVG 1.1//EN"
 "http://www.w3.org/Graphics/SVG/1.1/DTD/svg11.dtd">
<!-- Generated by graphviz version 2.43.0 (0)
 -->
<!-- Title: tvm::Type Pages: 1 -->
<svg width="2366pt" height="320pt"
 viewBox="0.00 0.00 2366.00 320.00" xmlns="http://www.w3.org/2000/svg" xmlns:xlink="http://www.w3.org/1999/xlink">
<g id="graph0" class="graph" transform="scale(1 1) rotate(0) translate(4 316)">
<title>tvm::Type</title>
<polygon fill="white" stroke="transparent" points="-4,4 -4,-316 2362,-316 2362,4 -4,4"/>
<!-- Node1 -->
<g id="node1" class="node">
<title>Node1</title>
<g id="a_node1"><a xlink:title="Managed reference to TypeNode.">
<polygon fill="#bfbfbf" stroke="black" points="1099.5,-149.5 1099.5,-217.5 1258.5,-217.5 1258.5,-149.5 1099.5,-149.5"/>
<text text-anchor="middle" x="1179" y="-205.5" font-family="Helvetica,sans-Serif" font-size="10.00">tvm::Type</text>
<polyline fill="none" stroke="black" points="1099.5,-198.5 1258.5,-198.5 "/>
<text text-anchor="middle" x="1179" y="-186.5" font-family="Helvetica,sans-Serif" font-size="10.00"> </text>
<polyline fill="none" stroke="black" points="1099.5,-179.5 1258.5,-179.5 "/>
<text text-anchor="start" x="1107.5" y="-167.5" font-family="Helvetica,sans-Serif" font-size="10.00">+ TVM_FFI_DEFINE_OBJECT</text>
<text text-anchor="start" x="1107.5" y="-156.5" font-family="Helvetica,sans-Serif" font-size="10.00">_REF_METHODS_NULLABLE()</text>
</a>
</g>
</g>
<!-- Node3 -->
<g id="node3" class="node">
<title>Node3</title>
<g id="a_node3"><a xlink:href="classtvm_1_1FuncType.html" target="_top" xlink:title="Managed reference to FuncTypeNode.">
<polygon fill="white" stroke="black" points="0,-17 0,-96 180,-96 180,-17 0,-17"/>
<text text-anchor="middle" x="90" y="-84" font-family="Helvetica,sans-Serif" font-size="10.00">tvm::FuncType</text>
<polyline fill="none" stroke="black" points="0,-77 180,-77 "/>
<text text-anchor="middle" x="90" y="-65" font-family="Helvetica,sans-Serif" font-size="10.00"> </text>
<polyline fill="none" stroke="black" points="0,-58 180,-58 "/>
<text text-anchor="start" x="8" y="-46" font-family="Helvetica,sans-Serif" font-size="10.00">+ FuncType()</text>
<text text-anchor="start" x="8" y="-35" font-family="Helvetica,sans-Serif" font-size="10.00">+ TVM_FFI_DEFINE_OBJECT</text>
<text text-anchor="start" x="8" y="-24" font-family="Helvetica,sans-Serif" font-size="10.00">_REF_METHODS_NOTNULLABLE()</text>
</a>
</g>
</g>
<!-- Node1&#45;&gt;Node3 -->
<g id="edge2" class="edge">
<title>Node1&#45;&gt;Node3</title>
<path fill="none" stroke="midnightblue" d="M1089.05,-181.21C877.97,-177.36 356.09,-162.96 189,-113 175.41,-108.94 161.63,-102.77 148.85,-96"/>
<polygon fill="none" stroke="midnightblue" points="1089.11,-184.71 1099.17,-181.39 1089.24,-177.71 1089.11,-184.71"/>
</g>
<!-- Node4 -->
<g id="node4" class="node">
<title>Node4</title>
<g id="a_node4"><a xlink:href="classtvm_1_1PointerType.html" target="_top" xlink:title=" ">
<polygon fill="white" stroke="black" points="198,-17 198,-96 378,-96 378,-17 198,-17"/>
<text text-anchor="middle" x="288" y="-84" font-family="Helvetica,sans-Serif" font-size="10.00">tvm::PointerType</text>
<polyline fill="none" stroke="black" points="198,-77 378,-77 "/>
<text text-anchor="middle" x="288" y="-65" font-family="Helvetica,sans-Serif" font-size="10.00"> </text>
<polyline fill="none" stroke="black" points="198,-58 378,-58 "/>
<text text-anchor="start" x="206" y="-46" font-family="Helvetica,sans-Serif" font-size="10.00">+ PointerType()</text>
<text text-anchor="start" x="206" y="-35" font-family="Helvetica,sans-Serif" font-size="10.00">+ TVM_FFI_DEFINE_OBJECT</text>
<text text-anchor="start" x="206" y="-24" font-family="Helvetica,sans-Serif" font-size="10.00">_REF_METHODS_NOTNULLABLE()</text>
</a>
</g>
</g>
<!-- Node1&#45;&gt;Node4 -->
<g id="edge3" class="edge">
<title>Node1&#45;&gt;Node4</title>
<path fill="none" stroke="midnightblue" d="M1089.02,-179.36C910.14,-172.35 515.98,-152.79 387,-113 373.63,-108.88 360.06,-102.77 347.43,-96.1"/>
<polygon fill="none" stroke="midnightblue" points="1089.07,-182.87 1099.19,-179.76 1089.34,-175.87 1089.07,-182.87"/>
</g>
<!-- Node5 -->
<g id="node5" class="node">
<title>Node5</title>
<g id="a_node5"><a xlink:href="classtvm_1_1PrimType.html" target="_top" xlink:title=" ">
<polygon fill="white" stroke="black" points="396,-17 396,-96 576,-96 576,-17 396,-17"/>
<text text-anchor="middle" x="486" y="-84" font-family="Helvetica,sans-Serif" font-size="10.00">tvm::PrimType</text>
<polyline fill="none" stroke="black" points="396,-77 576,-77 "/>
<text text-anchor="middle" x="486" y="-65" font-family="Helvetica,sans-Serif" font-size="10.00"> </text>
<polyline fill="none" stroke="black" points="396,-58 576,-58 "/>
<text text-anchor="start" x="404" y="-46" font-family="Helvetica,sans-Serif" font-size="10.00">+ PrimType()</text>
<text text-anchor="start" x="404" y="-35" font-family="Helvetica,sans-Serif" font-size="10.00">+ TVM_FFI_DEFINE_OBJECT</text>
<text text-anchor="start" x="404" y="-24" font-family="Helvetica,sans-Serif" font-size="10.00">_REF_METHODS_NOTNULLABLE()</text>
</a>
</g>
</g>
<!-- Node1&#45;&gt;Node5 -->
<g id="edge4" class="edge">
<title>Node1&#45;&gt;Node5</title>
<path fill="none" stroke="midnightblue" d="M1088.95,-182.85C970.52,-180.88 757.26,-168.88 585,-113 571.88,-108.74 558.53,-102.67 546.06,-96.08"/>
<polygon fill="none" stroke="midnightblue" points="1089.01,-186.35 1099.06,-183 1089.12,-179.35 1089.01,-186.35"/>
</g>
<!-- Node6 -->
<g id="node6" class="node">
<title>Node6</title>
<g id="a_node6"><a xlink:href="classtvm_1_1TensorMapType.html" target="_top" xlink:title="Managed reference to TensorMapTypeNode.">
<polygon fill="white" stroke="black" points="594,-17 594,-96 774,-96 774,-17 594,-17"/>
<text text-anchor="middle" x="684" y="-84" font-family="Helvetica,sans-Serif" font-size="10.00">tvm::TensorMapType</text>
<polyline fill="none" stroke="black" points="594,-77 774,-77 "/>
<text text-anchor="middle" x="684" y="-65" font-family="Helvetica,sans-Serif" font-size="10.00"> </text>
<polyline fill="none" stroke="black" points="594,-58 774,-58 "/>
<text text-anchor="start" x="602" y="-46" font-family="Helvetica,sans-Serif" font-size="10.00">+ TensorMapType()</text>
<text text-anchor="start" x="602" y="-35" font-family="Helvetica,sans-Serif" font-size="10.00">+ TVM_FFI_DEFINE_OBJECT</text>
<text text-anchor="start" x="602" y="-24" font-family="Helvetica,sans-Serif" font-size="10.00">_REF_METHODS_NOTNULLABLE()</text>
</a>
</g>
</g>
<!-- Node1&#45;&gt;Node6 -->
<g id="edge5" class="edge">
<title>Node1&#45;&gt;Node6</title>
<path fill="none" stroke="midnightblue" d="M1088.97,-175.4C1007.24,-166.94 884.36,-149.12 783,-113 770.38,-108.5 757.48,-102.48 745.34,-96.06"/>
<polygon fill="none" stroke="midnightblue" points="1088.93,-178.92 1099.23,-176.44 1089.63,-171.95 1088.93,-178.92"/>
</g>
<!-- Node7 -->
<g id="node7" class="node">
<title>Node7</title>
<g id="a_node7"><a xlink:href="classtvm_1_1TupleType.html" target="_top" xlink:title="Managed reference to TupleTypeNode.">
<polygon fill="white" stroke="black" points="792,-11.5 792,-101.5 972,-101.5 972,-11.5 792,-11.5"/>
<text text-anchor="middle" x="882" y="-89.5" font-family="Helvetica,sans-Serif" font-size="10.00">tvm::TupleType</text>
<polyline fill="none" stroke="black" points="792,-82.5 972,-82.5 "/>
<text text-anchor="middle" x="882" y="-70.5" font-family="Helvetica,sans-Serif" font-size="10.00"> </text>
<polyline fill="none" stroke="black" points="792,-63.5 972,-63.5 "/>
<text text-anchor="start" x="800" y="-51.5" font-family="Helvetica,sans-Serif" font-size="10.00">+ TupleType()</text>
<text text-anchor="start" x="800" y="-40.5" font-family="Helvetica,sans-Serif" font-size="10.00">+ TVM_FFI_DEFINE_OBJECT</text>
<text text-anchor="start" x="800" y="-29.5" font-family="Helvetica,sans-Serif" font-size="10.00">_REF_METHODS_NOTNULLABLE()</text>
<text text-anchor="start" x="800" y="-18.5" font-family="Helvetica,sans-Serif" font-size="10.00">+ Empty()</text>
</a>
</g>
</g>
<!-- Node1&#45;&gt;Node7 -->
<g id="edge6" class="edge">
<title>Node1&#45;&gt;Node7</title>
<path fill="none" stroke="midnightblue" d="M1089.65,-154.81C1055.18,-143.17 1015.75,-128.7 981,-113 973.28,-109.51 965.36,-105.63 957.52,-101.58"/>
<polygon fill="none" stroke="midnightblue" points="1088.65,-158.16 1099.24,-158.01 1090.86,-151.52 1088.65,-158.16"/>
</g>
<!-- Node8 -->
<g id="node8" class="node">
<title>Node8</title>
<g id="a_node8"><a xlink:href="classtvm_1_1relax_1_1FuncType.html" target="_top" xlink:title="Managed reference to FuncTypeNode.">
<polygon fill="white" stroke="black" points="990,-0.5 990,-112.5 1170,-112.5 1170,-0.5 990,-0.5"/>
<text text-anchor="middle" x="1080" y="-100.5" font-family="Helvetica,sans-Serif" font-size="10.00">tvm::relax::FuncType</text>
<polyline fill="none" stroke="black" points="990,-93.5 1170,-93.5 "/>
<text text-anchor="middle" x="1080" y="-81.5" font-family="Helvetica,sans-Serif" font-size="10.00"> </text>
<polyline fill="none" stroke="black" points="990,-74.5 1170,-74.5 "/>
<text text-anchor="start" x="998" y="-62.5" font-family="Helvetica,sans-Serif" font-size="10.00">+ FuncType()</text>
<text text-anchor="start" x="998" y="-51.5" font-family="Helvetica,sans-Serif" font-size="10.00">+ FuncType()</text>
<text text-anchor="start" x="998" y="-40.5" font-family="Helvetica,sans-Serif" font-size="10.00">+ TVM_FFI_DEFINE_OBJECT</text>
<text text-anchor="start" x="998" y="-29.5" font-family="Helvetica,sans-Serif" font-size="10.00">_REF_METHODS_NOTNULLABLE()</text>
<text text-anchor="start" x="998" y="-18.5" font-family="Helvetica,sans-Serif" font-size="10.00">+ OpaqueFunc()</text>
<text text-anchor="start" x="998" y="-7.5" font-family="Helvetica,sans-Serif" font-size="10.00">+ OpaqueFunc()</text>
</a>
</g>
</g>
<!-- Node1&#45;&gt;Node8 -->
<g id="edge7" class="edge">
<title>Node1&#45;&gt;Node8</title>
<path fill="none" stroke="midnightblue" d="M1146.47,-141.43C1139.17,-132.21 1131.3,-122.28 1123.63,-112.59"/>
<polygon fill="none" stroke="midnightblue" points="1143.78,-143.66 1152.73,-149.33 1149.26,-139.32 1143.78,-143.66"/>
</g>
<!-- Node9 -->
<g id="node9" class="node">
<title>Node9</title>
<g id="a_node9"><a xlink:href="classtvm_1_1relax_1_1ObjectType.html" target="_top" xlink:title="Managed reference to ObjectTypeNode.">
<polygon fill="white" stroke="black" points="1188,-17 1188,-96 1368,-96 1368,-17 1188,-17"/>
<text text-anchor="middle" x="1278" y="-84" font-family="Helvetica,sans-Serif" font-size="10.00">tvm::relax::ObjectType</text>
<polyline fill="none" stroke="black" points="1188,-77 1368,-77 "/>
<text text-anchor="middle" x="1278" y="-65" font-family="Helvetica,sans-Serif" font-size="10.00"> </text>
<polyline fill="none" stroke="black" points="1188,-58 1368,-58 "/>
<text text-anchor="start" x="1196" y="-46" font-family="Helvetica,sans-Serif" font-size="10.00">+ ObjectType()</text>
<text text-anchor="start" x="1196" y="-35" font-family="Helvetica,sans-Serif" font-size="10.00">+ TVM_FFI_DEFINE_OBJECT</text>
<text text-anchor="start" x="1196" y="-24" font-family="Helvetica,sans-Serif" font-size="10.00">_REF_METHODS_NOTNULLABLE()</text>
</a>
</g>
</g>
<!-- Node1&#45;&gt;Node9 -->
<g id="edge8" class="edge">
<title>Node1&#45;&gt;Node9</title>
<path fill="none" stroke="midnightblue" d="M1211.52,-141.44C1223.07,-126.86 1236.01,-110.52 1247.39,-96.15"/>
<polygon fill="none" stroke="midnightblue" points="1208.74,-139.32 1205.27,-149.33 1214.22,-143.66 1208.74,-139.32"/>
</g>
<!-- Node10 -->
<g id="node10" class="node">
<title>Node10</title>
<g id="a_node10"><a xlink:href="classtvm_1_1relax_1_1PackedFuncType.html" target="_top" xlink:title=" ">
<polygon fill="white" stroke="black" points="1386,-17 1386,-96 1566,-96 1566,-17 1386,-17"/>
<text text-anchor="middle" x="1476" y="-84" font-family="Helvetica,sans-Serif" font-size="10.00">tvm::relax::PackedFuncType</text>
<polyline fill="none" stroke="black" points="1386,-77 1566,-77 "/>
<text text-anchor="middle" x="1476" y="-65" font-family="Helvetica,sans-Serif" font-size="10.00"> </text>
<polyline fill="none" stroke="black" points="1386,-58 1566,-58 "/>
<text text-anchor="start" x="1394" y="-46" font-family="Helvetica,sans-Serif" font-size="10.00">+ PackedFuncType()</text>
<text text-anchor="start" x="1394" y="-35" font-family="Helvetica,sans-Serif" font-size="10.00">+ TVM_FFI_DEFINE_OBJECT</text>
<text text-anchor="start" x="1394" y="-24" font-family="Helvetica,sans-Serif" font-size="10.00">_REF_METHODS_NOTNULLABLE()</text>
</a>
</g>
</g>
<!-- Node1&#45;&gt;Node10 -->
<g id="edge9" class="edge">
<title>Node1&#45;&gt;Node10</title>
<path fill="none" stroke="midnightblue" d="M1268.35,-154.81C1302.82,-143.17 1342.25,-128.7 1377,-113 1388.22,-107.93 1399.87,-102.03 1411.06,-96"/>
<polygon fill="none" stroke="midnightblue" points="1267.14,-151.52 1258.76,-158.01 1269.35,-158.16 1267.14,-151.52"/>
</g>
<!-- Node11 -->
<g id="node11" class="node">
<title>Node11</title>
<g id="a_node11"><a xlink:href="classtvm_1_1relax_1_1PrimType.html" target="_top" xlink:title="Managed reference to PrimTypeNode.">
<polygon fill="white" stroke="black" points="1584,-11.5 1584,-101.5 1764,-101.5 1764,-11.5 1584,-11.5"/>
<text text-anchor="middle" x="1674" y="-89.5" font-family="Helvetica,sans-Serif" font-size="10.00">tvm::relax::PrimType</text>
<polyline fill="none" stroke="black" points="1584,-82.5 1764,-82.5 "/>
<text text-anchor="middle" x="1674" y="-70.5" font-family="Helvetica,sans-Serif" font-size="10.00"> </text>
<polyline fill="none" stroke="black" points="1584,-63.5 1764,-63.5 "/>
<text text-anchor="start" x="1592" y="-51.5" font-family="Helvetica,sans-Serif" font-size="10.00">+ PrimType()</text>
<text text-anchor="start" x="1592" y="-40.5" font-family="Helvetica,sans-Serif" font-size="10.00">+ PrimType()</text>
<text text-anchor="start" x="1592" y="-29.5" font-family="Helvetica,sans-Serif" font-size="10.00">+ TVM_FFI_DEFINE_OBJECT</text>
<text text-anchor="start" x="1592" y="-18.5" font-family="Helvetica,sans-Serif" font-size="10.00">_REF_METHODS_NOTNULLABLE()</text>
</a>
</g>
</g>
<!-- Node1&#45;&gt;Node11 -->
<g id="edge10" class="edge">
<title>Node1&#45;&gt;Node11</title>
<path fill="none" stroke="midnightblue" d="M1269.03,-175.4C1350.76,-166.94 1473.64,-149.12 1575,-113 1583.91,-109.83 1592.96,-105.89 1601.78,-101.59"/>
<polygon fill="none" stroke="midnightblue" points="1268.37,-171.95 1258.77,-176.44 1269.07,-178.92 1268.37,-171.95"/>
</g>
<!-- Node12 -->
<g id="node12" class="node">
<title>Node12</title>
<g id="a_node12"><a xlink:href="classtvm_1_1relax_1_1ShapeType.html" target="_top" xlink:title="Managed reference to ShapeTypeNode.">
<polygon fill="white" stroke="black" points="1782,-11.5 1782,-101.5 1962,-101.5 1962,-11.5 1782,-11.5"/>
<text text-anchor="middle" x="1872" y="-89.5" font-family="Helvetica,sans-Serif" font-size="10.00">tvm::relax::ShapeType</text>
<polyline fill="none" stroke="black" points="1782,-82.5 1962,-82.5 "/>
<text text-anchor="middle" x="1872" y="-70.5" font-family="Helvetica,sans-Serif" font-size="10.00"> </text>
<polyline fill="none" stroke="black" points="1782,-63.5 1962,-63.5 "/>
<text text-anchor="start" x="1790" y="-51.5" font-family="Helvetica,sans-Serif" font-size="10.00">+ ShapeType()</text>
<text text-anchor="start" x="1790" y="-40.5" font-family="Helvetica,sans-Serif" font-size="10.00">+ ShapeType()</text>
<text text-anchor="start" x="1790" y="-29.5" font-family="Helvetica,sans-Serif" font-size="10.00">+ TVM_FFI_DEFINE_OBJECT</text>
<text text-anchor="start" x="1790" y="-18.5" font-family="Helvetica,sans-Serif" font-size="10.00">_REF_METHODS_NOTNULLABLE()</text>
</a>
</g>
</g>
<!-- Node1&#45;&gt;Node12 -->
<g id="edge11" class="edge">
<title>Node1&#45;&gt;Node12</title>
<path fill="none" stroke="midnightblue" d="M1269.05,-182.85C1387.48,-180.88 1600.74,-168.88 1773,-113 1782.37,-109.96 1791.86,-105.99 1801.06,-101.57"/>
<polygon fill="none" stroke="midnightblue" points="1268.88,-179.35 1258.94,-183 1268.99,-186.35 1268.88,-179.35"/>
</g>
<!-- Node13 -->
<g id="node13" class="node">
<title>Node13</title>
<g id="a_node13"><a xlink:href="classtvm_1_1relax_1_1TensorType.html" target="_top" xlink:title="Managed reference to TensorTypeNode.">
<polygon fill="white" stroke="black" points="1980,-6 1980,-107 2160,-107 2160,-6 1980,-6"/>
<text text-anchor="middle" x="2070" y="-95" font-family="Helvetica,sans-Serif" font-size="10.00">tvm::relax::TensorType</text>
<polyline fill="none" stroke="black" points="1980,-88 2160,-88 "/>
<text text-anchor="middle" x="2070" y="-76" font-family="Helvetica,sans-Serif" font-size="10.00"> </text>
<polyline fill="none" stroke="black" points="1980,-69 2160,-69 "/>
<text text-anchor="start" x="1988" y="-57" font-family="Helvetica,sans-Serif" font-size="10.00">+ TensorType()</text>
<text text-anchor="start" x="1988" y="-46" font-family="Helvetica,sans-Serif" font-size="10.00">+ TensorType()</text>
<text text-anchor="start" x="1988" y="-35" font-family="Helvetica,sans-Serif" font-size="10.00">+ TensorType()</text>
<text text-anchor="start" x="1988" y="-24" font-family="Helvetica,sans-Serif" font-size="10.00">+ TVM_FFI_DEFINE_OBJECT</text>
<text text-anchor="start" x="1988" y="-13" font-family="Helvetica,sans-Serif" font-size="10.00">_REF_METHODS_NOTNULLABLE()</text>
</a>
</g>
</g>
<!-- Node1&#45;&gt;Node13 -->
<g id="edge12" class="edge">
<title>Node1&#45;&gt;Node13</title>
<path fill="none" stroke="midnightblue" d="M1268.98,-179.36C1447.86,-172.35 1842.02,-152.79 1971,-113 1976.46,-111.32 1981.95,-109.3 1987.4,-107.05"/>
<polygon fill="none" stroke="midnightblue" points="1268.66,-175.87 1258.81,-179.76 1268.93,-182.87 1268.66,-175.87"/>
</g>
<!-- Node14 -->
<g id="node14" class="node">
<title>Node14</title>
<g id="a_node14"><a xlink:href="classtvm_1_1relax_1_1distributed_1_1DTensorType.html" target="_top" xlink:title="Managed reference to DTensorTypeNode.">
<polygon fill="white" stroke="black" points="2178,-11.5 2178,-101.5 2358,-101.5 2358,-11.5 2178,-11.5"/>
<text text-anchor="start" x="2186" y="-89.5" font-family="Helvetica,sans-Serif" font-size="10.00">tvm::relax::distributed</text>
<text text-anchor="middle" x="2268" y="-78.5" font-family="Helvetica,sans-Serif" font-size="10.00">::DTensorType</text>
<polyline fill="none" stroke="black" points="2178,-71.5 2358,-71.5 "/>
<text text-anchor="middle" x="2268" y="-59.5" font-family="Helvetica,sans-Serif" font-size="10.00"> </text>
<polyline fill="none" stroke="black" points="2178,-52.5 2358,-52.5 "/>
<text text-anchor="start" x="2186" y="-40.5" font-family="Helvetica,sans-Serif" font-size="10.00">+ DTensorType()</text>
<text text-anchor="start" x="2186" y="-29.5" font-family="Helvetica,sans-Serif" font-size="10.00">+ TVM_FFI_DEFINE_OBJECT</text>
<text text-anchor="start" x="2186" y="-18.5" font-family="Helvetica,sans-Serif" font-size="10.00">_REF_METHODS_NOTNULLABLE()</text>
</a>
</g>
</g>
<!-- Node1&#45;&gt;Node14 -->
<g id="edge13" class="edge">
<title>Node1&#45;&gt;Node14</title>
<path fill="none" stroke="midnightblue" d="M1268.95,-181.21C1480.03,-177.36 2001.91,-162.96 2169,-113 2178.72,-110.09 2188.54,-106.11 2198.02,-101.6"/>
<polygon fill="none" stroke="midnightblue" points="1268.76,-177.71 1258.83,-181.39 1268.89,-184.71 1268.76,-177.71"/>
</g>
<!-- Node2 -->
<g id="node2" class="node">
<title>Node2</title>
<g id="a_node2"><a xlink:title=" ">
<polygon fill="white" stroke="#bfbfbf" points="1139,-254.5 1139,-311.5 1219,-311.5 1219,-254.5 1139,-254.5"/>
<text text-anchor="middle" x="1179" y="-299.5" font-family="Helvetica,sans-Serif" font-size="10.00">ffi::ObjectRef</text>
<polyline fill="none" stroke="#bfbfbf" points="1139,-292.5 1219,-292.5 "/>
<text text-anchor="middle" x="1179" y="-280.5" font-family="Helvetica,sans-Serif" font-size="10.00"> </text>
<polyline fill="none" stroke="#bfbfbf" points="1139,-273.5 1219,-273.5 "/>
<text text-anchor="middle" x="1179" y="-261.5" font-family="Helvetica,sans-Serif" font-size="10.00"> </text>
</a>
</g>
</g>
<!-- Node2&#45;&gt;Node1 -->
<g id="edge1" class="edge">
<title>Node2&#45;&gt;Node1</title>
<path fill="none" stroke="midnightblue" d="M1179,-244.06C1179,-235.39 1179,-226.24 1179,-217.79"/>
<polygon fill="none" stroke="midnightblue" points="1175.5,-244.32 1179,-254.32 1182.5,-244.32 1175.5,-244.32"/>
</g>
</g>
</svg>
