<?xml version="1.0" encoding="UTF-8" standalone="no"?>
<!DOCTYPE svg PUBLIC "-//W3C//DTD SVG 1.1//EN"
 "http://www.w3.org/Graphics/SVG/1.1/DTD/svg11.dtd">
<!-- Generated by graphviz version 2.43.0 (0)
 -->
<!-- Title: tvm::arith::AnalyzerObj Pages: 1 -->
<svg width="200pt" height="369pt"
 viewBox="0.00 0.00 200.00 369.00" xmlns="http://www.w3.org/2000/svg" xmlns:xlink="http://www.w3.org/1999/xlink">
<g id="graph0" class="graph" transform="scale(1 1) rotate(0) translate(4 365)">
<title>tvm::arith::AnalyzerObj</title>
<polygon fill="white" stroke="transparent" points="-4,4 -4,-365 196,-365 196,4 -4,4"/>
<!-- Node1 -->
<g id="node1" class="node">
<title>Node1</title>
<g id="a_node1"><a xlink:title="Analyzer that contains bunch of sub&#45;analyzers.">
<polygon fill="#bfbfbf" stroke="black" points="0,-0.5 0,-266.5 192,-266.5 192,-0.5 0,-0.5"/>
<text text-anchor="middle" x="96" y="-254.5" font-family="Helvetica,sans-Serif" font-size="10.00">tvm::arith::AnalyzerObj</text>
<polyline fill="none" stroke="black" points="0,-247.5 192,-247.5 "/>
<text text-anchor="start" x="8" y="-235.5" font-family="Helvetica,sans-Serif" font-size="10.00">+ const_int_bound</text>
<text text-anchor="start" x="8" y="-224.5" font-family="Helvetica,sans-Serif" font-size="10.00">+ modular_set</text>
<text text-anchor="start" x="8" y="-213.5" font-family="Helvetica,sans-Serif" font-size="10.00">+ rewrite_simplify</text>
<text text-anchor="start" x="8" y="-202.5" font-family="Helvetica,sans-Serif" font-size="10.00">+ canonical_simplify</text>
<text text-anchor="start" x="8" y="-191.5" font-family="Helvetica,sans-Serif" font-size="10.00">+ int_set</text>
<text text-anchor="start" x="8" y="-180.5" font-family="Helvetica,sans-Serif" font-size="10.00">+ transitive_comparisons</text>
<text text-anchor="start" x="8" y="-169.5" font-family="Helvetica,sans-Serif" font-size="10.00">+ _type_mutable</text>
<polyline fill="none" stroke="black" points="0,-162.5 192,-162.5 "/>
<text text-anchor="start" x="8" y="-150.5" font-family="Helvetica,sans-Serif" font-size="10.00">+ AnalyzerObj()</text>
<text text-anchor="start" x="8" y="-139.5" font-family="Helvetica,sans-Serif" font-size="10.00">+ MarkGlobalNonNegValue()</text>
<text text-anchor="start" x="8" y="-128.5" font-family="Helvetica,sans-Serif" font-size="10.00">+ Bind()</text>
<text text-anchor="start" x="8" y="-117.5" font-family="Helvetica,sans-Serif" font-size="10.00">+ Bind()</text>
<text text-anchor="start" x="8" y="-106.5" font-family="Helvetica,sans-Serif" font-size="10.00">+ Bind()</text>
<text text-anchor="start" x="8" y="-95.5" font-family="Helvetica,sans-Serif" font-size="10.00">+ CanProveGreaterEqual()</text>
<text text-anchor="start" x="8" y="-84.5" font-family="Helvetica,sans-Serif" font-size="10.00">+ CanProveLess()</text>
<text text-anchor="start" x="8" y="-73.5" font-family="Helvetica,sans-Serif" font-size="10.00">+ CanProveEqual()</text>
<text text-anchor="start" x="8" y="-62.5" font-family="Helvetica,sans-Serif" font-size="10.00">+ CanProveLessEqualThanSymbolic</text>
<text text-anchor="start" x="8" y="-51.5" font-family="Helvetica,sans-Serif" font-size="10.00">ShapeValue()</text>
<text text-anchor="start" x="8" y="-40.5" font-family="Helvetica,sans-Serif" font-size="10.00">+ CanProve()</text>
<text text-anchor="start" x="8" y="-29.5" font-family="Helvetica,sans-Serif" font-size="10.00">+ Simplify()</text>
<text text-anchor="start" x="8" y="-18.5" font-family="Helvetica,sans-Serif" font-size="10.00">+ TVM_FFI_DECLARE_OBJECT</text>
<text text-anchor="start" x="8" y="-7.5" font-family="Helvetica,sans-Serif" font-size="10.00">_INFO_FINAL()</text>
</a>
</g>
</g>
<!-- Node2 -->
<g id="node2" class="node">
<title>Node2</title>
<g id="a_node2"><a xlink:title=" ">
<polygon fill="white" stroke="#bfbfbf" points="64,-303.5 64,-360.5 128,-360.5 128,-303.5 64,-303.5"/>
<text text-anchor="middle" x="96" y="-348.5" font-family="Helvetica,sans-Serif" font-size="10.00">ffi::Object</text>
<polyline fill="none" stroke="#bfbfbf" points="64,-341.5 128,-341.5 "/>
<text text-anchor="middle" x="96" y="-329.5" font-family="Helvetica,sans-Serif" font-size="10.00"> </text>
<polyline fill="none" stroke="#bfbfbf" points="64,-322.5 128,-322.5 "/>
<text text-anchor="middle" x="96" y="-310.5" font-family="Helvetica,sans-Serif" font-size="10.00"> </text>
</a>
</g>
</g>
<!-- Node2&#45;&gt;Node1 -->
<g id="edge1" class="edge">
<title>Node2&#45;&gt;Node1</title>
<path fill="none" stroke="midnightblue" d="M96,-293.2C96,-285.14 96,-276.18 96,-266.75"/>
<polygon fill="none" stroke="midnightblue" points="92.5,-293.26 96,-303.26 99.5,-293.26 92.5,-293.26"/>
</g>
</g>
</svg>
