<?xml version="1.0" encoding="UTF-8" standalone="no"?>
<!DOCTYPE svg PUBLIC "-//W3C//DTD SVG 1.1//EN"
 "http://www.w3.org/Graphics/SVG/1.1/DTD/svg11.dtd">
<!-- Generated by graphviz version 2.43.0 (0)
 -->
<!-- Title: tvm::OpNode Pages: 1 -->
<svg width="427pt" height="643pt"
 viewBox="0.00 0.00 426.50 643.00" xmlns="http://www.w3.org/2000/svg" xmlns:xlink="http://www.w3.org/1999/xlink">
<g id="graph0" class="graph" transform="scale(1 1) rotate(0) translate(4 639)">
<title>tvm::OpNode</title>
<polygon fill="white" stroke="transparent" points="-4,4 -4,-639 422.5,-639 422.5,4 -4,4"/>
<!-- Node1 -->
<g id="node1" class="node">
<title>Node1</title>
<g id="a_node1"><a xlink:title="Primitive Op(builtin intrinsics)">
<polygon fill="#bfbfbf" stroke="black" points="81,-0.5 81,-156.5 243,-156.5 243,-0.5 81,-0.5"/>
<text text-anchor="middle" x="162" y="-144.5" font-family="Helvetica,sans-Serif" font-size="10.00">tvm::OpNode</text>
<polyline fill="none" stroke="black" points="81,-137.5 243,-137.5 "/>
<text text-anchor="start" x="89" y="-125.5" font-family="Helvetica,sans-Serif" font-size="10.00">+ name</text>
<text text-anchor="start" x="89" y="-114.5" font-family="Helvetica,sans-Serif" font-size="10.00">+ description</text>
<text text-anchor="start" x="89" y="-103.5" font-family="Helvetica,sans-Serif" font-size="10.00">+ arguments</text>
<text text-anchor="start" x="89" y="-92.5" font-family="Helvetica,sans-Serif" font-size="10.00">+ attrs_type_key</text>
<text text-anchor="start" x="89" y="-81.5" font-family="Helvetica,sans-Serif" font-size="10.00">+ attrs_type_index</text>
<text text-anchor="start" x="89" y="-70.5" font-family="Helvetica,sans-Serif" font-size="10.00">+ num_inputs</text>
<text text-anchor="start" x="89" y="-59.5" font-family="Helvetica,sans-Serif" font-size="10.00">+ support_level</text>
<text text-anchor="start" x="89" y="-48.5" font-family="Helvetica,sans-Serif" font-size="10.00">+ _type_s_eq_hash_kind</text>
<polyline fill="none" stroke="black" points="81,-41.5 243,-41.5 "/>
<text text-anchor="start" x="89" y="-29.5" font-family="Helvetica,sans-Serif" font-size="10.00">+ TVM_FFI_DECLARE_OBJECT</text>
<text text-anchor="start" x="89" y="-18.5" font-family="Helvetica,sans-Serif" font-size="10.00">_INFO_FINAL()</text>
<text text-anchor="start" x="89" y="-7.5" font-family="Helvetica,sans-Serif" font-size="10.00">+ RegisterReflection()</text>
</a>
</g>
</g>
<!-- Node2 -->
<g id="node2" class="node">
<title>Node2</title>
<g id="a_node2"><a xlink:href="classtvm_1_1RelaxExprNode.html" target="_top" xlink:title="Base node of all non&#45;primitive expressions.">
<polygon fill="white" stroke="black" points="81,-194.5 81,-273.5 243,-273.5 243,-194.5 81,-194.5"/>
<text text-anchor="middle" x="162" y="-261.5" font-family="Helvetica,sans-Serif" font-size="10.00">tvm::RelaxExprNode</text>
<polyline fill="none" stroke="black" points="81,-254.5 243,-254.5 "/>
<text text-anchor="start" x="89" y="-242.5" font-family="Helvetica,sans-Serif" font-size="10.00">+ _type_child_slots</text>
<polyline fill="none" stroke="black" points="81,-235.5 243,-235.5 "/>
<text text-anchor="start" x="89" y="-223.5" font-family="Helvetica,sans-Serif" font-size="10.00">+ TVM_FFI_DECLARE_OBJECT</text>
<text text-anchor="start" x="89" y="-212.5" font-family="Helvetica,sans-Serif" font-size="10.00">_INFO()</text>
<text text-anchor="start" x="89" y="-201.5" font-family="Helvetica,sans-Serif" font-size="10.00">+ RegisterReflection()</text>
</a>
</g>
</g>
<!-- Node2&#45;&gt;Node1 -->
<g id="edge1" class="edge">
<title>Node2&#45;&gt;Node1</title>
<path fill="none" stroke="midnightblue" d="M162,-184.19C162,-175.36 162,-165.96 162,-156.55"/>
<polygon fill="none" stroke="midnightblue" points="158.5,-184.27 162,-194.27 165.5,-184.27 158.5,-184.27"/>
</g>
<!-- Node3 -->
<g id="node3" class="node">
<title>Node3</title>
<g id="a_node3"><a xlink:href="classtvm_1_1BaseExprNode.html" target="_top" xlink:title="Base type of all the expressions.">
<polygon fill="white" stroke="black" points="81,-311.5 81,-401.5 243,-401.5 243,-311.5 81,-311.5"/>
<text text-anchor="middle" x="162" y="-389.5" font-family="Helvetica,sans-Serif" font-size="10.00">tvm::BaseExprNode</text>
<polyline fill="none" stroke="black" points="81,-382.5 243,-382.5 "/>
<text text-anchor="start" x="89" y="-370.5" font-family="Helvetica,sans-Serif" font-size="10.00">+ _type_s_eq_hash_kind</text>
<text text-anchor="start" x="89" y="-359.5" font-family="Helvetica,sans-Serif" font-size="10.00">+ _type_child_slots</text>
<polyline fill="none" stroke="black" points="81,-352.5 243,-352.5 "/>
<text text-anchor="start" x="89" y="-340.5" font-family="Helvetica,sans-Serif" font-size="10.00">+ TVM_FFI_DECLARE_OBJECT</text>
<text text-anchor="start" x="89" y="-329.5" font-family="Helvetica,sans-Serif" font-size="10.00">_INFO()</text>
<text text-anchor="start" x="89" y="-318.5" font-family="Helvetica,sans-Serif" font-size="10.00">+ RegisterReflection()</text>
</a>
</g>
</g>
<!-- Node3&#45;&gt;Node2 -->
<g id="edge2" class="edge">
<title>Node3&#45;&gt;Node2</title>
<path fill="none" stroke="midnightblue" d="M162,-301.3C162,-291.97 162,-282.43 162,-273.61"/>
<polygon fill="none" stroke="midnightblue" points="158.5,-301.31 162,-311.31 165.5,-301.31 158.5,-301.31"/>
</g>
<!-- Node4 -->
<g id="node4" class="node">
<title>Node4</title>
<g id="a_node4"><a xlink:title=" ">
<polygon fill="white" stroke="#bfbfbf" points="0,-466 0,-523 64,-523 64,-466 0,-466"/>
<text text-anchor="middle" x="32" y="-511" font-family="Helvetica,sans-Serif" font-size="10.00">ffi::Object</text>
<polyline fill="none" stroke="#bfbfbf" points="0,-504 64,-504 "/>
<text text-anchor="middle" x="32" y="-492" font-family="Helvetica,sans-Serif" font-size="10.00"> </text>
<polyline fill="none" stroke="#bfbfbf" points="0,-485 64,-485 "/>
<text text-anchor="middle" x="32" y="-473" font-family="Helvetica,sans-Serif" font-size="10.00"> </text>
</a>
</g>
</g>
<!-- Node4&#45;&gt;Node3 -->
<g id="edge3" class="edge">
<title>Node4&#45;&gt;Node3</title>
<path fill="none" stroke="midnightblue" d="M64.28,-458.29C67.22,-455.14 70.16,-452 73,-449 87.63,-433.55 103.8,-416.82 118.3,-401.94"/>
<polygon fill="none" stroke="midnightblue" points="61.71,-455.91 57.47,-465.62 66.84,-460.67 61.71,-455.91"/>
</g>
<!-- Node5 -->
<g id="node5" class="node">
<title>Node5</title>
<g id="a_node5"><a xlink:href="classtvm_1_1Span.html" target="_top" xlink:title=" ">
<polygon fill="white" stroke="black" points="82.5,-449.5 82.5,-539.5 241.5,-539.5 241.5,-449.5 82.5,-449.5"/>
<text text-anchor="middle" x="162" y="-527.5" font-family="Helvetica,sans-Serif" font-size="10.00">tvm::Span</text>
<polyline fill="none" stroke="black" points="82.5,-520.5 241.5,-520.5 "/>
<text text-anchor="middle" x="162" y="-508.5" font-family="Helvetica,sans-Serif" font-size="10.00"> </text>
<polyline fill="none" stroke="black" points="82.5,-501.5 241.5,-501.5 "/>
<text text-anchor="start" x="90.5" y="-489.5" font-family="Helvetica,sans-Serif" font-size="10.00">+ Span()</text>
<text text-anchor="start" x="90.5" y="-478.5" font-family="Helvetica,sans-Serif" font-size="10.00">+ Merge()</text>
<text text-anchor="start" x="90.5" y="-467.5" font-family="Helvetica,sans-Serif" font-size="10.00">+ TVM_FFI_DEFINE_OBJECT</text>
<text text-anchor="start" x="90.5" y="-456.5" font-family="Helvetica,sans-Serif" font-size="10.00">_REF_METHODS_NULLABLE()</text>
</a>
</g>
</g>
<!-- Node5&#45;&gt;Node3 -->
<g id="edge4" class="edge">
<title>Node5&#45;&gt;Node3</title>
<path fill="none" stroke="#404040" d="M162,-449.34C162,-438.06 162,-425.78 162,-413.97"/>
<polygon fill="none" stroke="#404040" points="162,-413.9 158,-407.9 162,-401.9 166,-407.9 162,-413.9"/>
<text text-anchor="middle" x="179.5" y="-423" font-family="Helvetica,sans-Serif" font-size="10.00"> +span</text>
</g>
<!-- Node6 -->
<g id="node6" class="node">
<title>Node6</title>
<g id="a_node6"><a xlink:title=" ">
<polygon fill="white" stroke="#bfbfbf" points="210,-577.5 210,-634.5 290,-634.5 290,-577.5 210,-577.5"/>
<text text-anchor="middle" x="250" y="-622.5" font-family="Helvetica,sans-Serif" font-size="10.00">ffi::ObjectRef</text>
<polyline fill="none" stroke="#bfbfbf" points="210,-615.5 290,-615.5 "/>
<text text-anchor="middle" x="250" y="-603.5" font-family="Helvetica,sans-Serif" font-size="10.00"> </text>
<polyline fill="none" stroke="#bfbfbf" points="210,-596.5 290,-596.5 "/>
<text text-anchor="middle" x="250" y="-584.5" font-family="Helvetica,sans-Serif" font-size="10.00"> </text>
</a>
</g>
</g>
<!-- Node6&#45;&gt;Node5 -->
<g id="edge5" class="edge">
<title>Node6&#45;&gt;Node5</title>
<path fill="none" stroke="midnightblue" d="M221.33,-569.33C213.74,-559.89 205.46,-549.58 197.56,-539.74"/>
<polygon fill="none" stroke="midnightblue" points="218.8,-571.77 227.79,-577.37 224.26,-567.38 218.8,-571.77"/>
</g>
<!-- Node7 -->
<g id="node7" class="node">
<title>Node7</title>
<g id="a_node7"><a xlink:href="classtvm_1_1Type.html" target="_top" xlink:title="Managed reference to TypeNode.">
<polygon fill="white" stroke="black" points="259.5,-460.5 259.5,-528.5 418.5,-528.5 418.5,-460.5 259.5,-460.5"/>
<text text-anchor="middle" x="339" y="-516.5" font-family="Helvetica,sans-Serif" font-size="10.00">tvm::Type</text>
<polyline fill="none" stroke="black" points="259.5,-509.5 418.5,-509.5 "/>
<text text-anchor="middle" x="339" y="-497.5" font-family="Helvetica,sans-Serif" font-size="10.00"> </text>
<polyline fill="none" stroke="black" points="259.5,-490.5 418.5,-490.5 "/>
<text text-anchor="start" x="267.5" y="-478.5" font-family="Helvetica,sans-Serif" font-size="10.00">+ TVM_FFI_DEFINE_OBJECT</text>
<text text-anchor="start" x="267.5" y="-467.5" font-family="Helvetica,sans-Serif" font-size="10.00">_REF_METHODS_NULLABLE()</text>
</a>
</g>
</g>
<!-- Node6&#45;&gt;Node7 -->
<g id="edge7" class="edge">
<title>Node6&#45;&gt;Node7</title>
<path fill="none" stroke="midnightblue" d="M278.9,-569.44C289.58,-556.31 301.62,-541.49 312.11,-528.59"/>
<polygon fill="none" stroke="midnightblue" points="276.05,-567.4 272.46,-577.37 281.48,-571.82 276.05,-567.4"/>
</g>
<!-- Node7&#45;&gt;Node3 -->
<g id="edge6" class="edge">
<title>Node7&#45;&gt;Node3</title>
<path fill="none" stroke="#404040" d="M295.7,-460.23C275.73,-444.89 251.56,-426.32 229.3,-409.21"/>
<polygon fill="none" stroke="#404040" points="229.07,-409.04 221.88,-408.55 219.56,-401.73 226.75,-402.21 229.07,-409.04"/>
<text text-anchor="middle" x="266" y="-423" font-family="Helvetica,sans-Serif" font-size="10.00"> +ty</text>
</g>
</g>
</svg>
