<?xml version="1.0" encoding="UTF-8" standalone="no"?>
<!DOCTYPE svg PUBLIC "-//W3C//DTD SVG 1.1//EN"
 "http://www.w3.org/Graphics/SVG/1.1/DTD/svg11.dtd">
<!-- Generated by graphviz version 2.43.0 (0)
 -->
<!-- Title: tvm::tirx::StmtNode Pages: 1 -->
<svg width="3242pt" height="430pt"
 viewBox="0.00 0.00 3242.00 430.00" xmlns="http://www.w3.org/2000/svg" xmlns:xlink="http://www.w3.org/1999/xlink">
<g id="graph0" class="graph" transform="scale(1 1) rotate(0) translate(4 426)">
<title>tvm::tirx::StmtNode</title>
<polygon fill="white" stroke="transparent" points="-4,4 -4,-426 3238,-426 3238,4 -4,4"/>
<!-- Node1 -->
<g id="node1" class="node">
<title>Node1</title>
<g id="a_node1"><a xlink:title="Base node of all statements.">
<polygon fill="#bfbfbf" stroke="black" points="1531,-204.5 1531,-327.5 1693,-327.5 1693,-204.5 1531,-204.5"/>
<text text-anchor="middle" x="1612" y="-315.5" font-family="Helvetica,sans-Serif" font-size="10.00">tvm::tirx::StmtNode</text>
<polyline fill="none" stroke="black" points="1531,-308.5 1693,-308.5 "/>
<text text-anchor="start" x="1539" y="-296.5" font-family="Helvetica,sans-Serif" font-size="10.00">+ span</text>
<text text-anchor="start" x="1539" y="-285.5" font-family="Helvetica,sans-Serif" font-size="10.00">+ _type_s_eq_hash_kind</text>
<text text-anchor="start" x="1539" y="-274.5" font-family="Helvetica,sans-Serif" font-size="10.00">+ _type_child_slots</text>
<polyline fill="none" stroke="black" points="1531,-267.5 1693,-267.5 "/>
<text text-anchor="start" x="1539" y="-255.5" font-family="Helvetica,sans-Serif" font-size="10.00">+ StmtNode()</text>
<text text-anchor="start" x="1539" y="-244.5" font-family="Helvetica,sans-Serif" font-size="10.00">+ StmtNode()</text>
<text text-anchor="start" x="1539" y="-233.5" font-family="Helvetica,sans-Serif" font-size="10.00">+ TVM_FFI_DECLARE_OBJECT</text>
<text text-anchor="start" x="1539" y="-222.5" font-family="Helvetica,sans-Serif" font-size="10.00">_INFO()</text>
<text text-anchor="start" x="1539" y="-211.5" font-family="Helvetica,sans-Serif" font-size="10.00">+ RegisterReflection()</text>
</a>
</g>
</g>
<!-- Node3 -->
<g id="node3" class="node">
<title>Node3</title>
<g id="a_node3"><a xlink:href="classtvm_1_1tirx_1_1AllocBufferNode.html" target="_top" xlink:title="Allocate a buffer and declare it in scope.">
<polygon fill="white" stroke="black" points="0,-39 0,-129 162,-129 162,-39 0,-39"/>
<text text-anchor="middle" x="81" y="-117" font-family="Helvetica,sans-Serif" font-size="10.00">tvm::tirx::AllocBufferNode</text>
<polyline fill="none" stroke="black" points="0,-110 162,-110 "/>
<text text-anchor="start" x="8" y="-98" font-family="Helvetica,sans-Serif" font-size="10.00">+ buffer</text>
<text text-anchor="start" x="8" y="-87" font-family="Helvetica,sans-Serif" font-size="10.00">+ annotations</text>
<polyline fill="none" stroke="black" points="0,-80 162,-80 "/>
<text text-anchor="start" x="8" y="-68" font-family="Helvetica,sans-Serif" font-size="10.00">+ TVM_FFI_DECLARE_OBJECT</text>
<text text-anchor="start" x="8" y="-57" font-family="Helvetica,sans-Serif" font-size="10.00">_INFO_FINAL()</text>
<text text-anchor="start" x="8" y="-46" font-family="Helvetica,sans-Serif" font-size="10.00">+ RegisterReflection()</text>
</a>
</g>
</g>
<!-- Node1&#45;&gt;Node3 -->
<g id="edge2" class="edge">
<title>Node1&#45;&gt;Node3</title>
<path fill="none" stroke="midnightblue" d="M1520.23,-262.36C1222.35,-253.31 294.5,-221.1 171,-168 150.89,-159.35 132.39,-144.23 117.46,-129.24"/>
<polygon fill="none" stroke="midnightblue" points="1520.46,-265.87 1530.56,-262.67 1520.67,-258.87 1520.46,-265.87"/>
</g>
<!-- Node4 -->
<g id="node4" class="node">
<title>Node4</title>
<g id="a_node4"><a xlink:href="classtvm_1_1tirx_1_1AssertStmtNode.html" target="_top" xlink:title="Assert condition, if an error occurs, return the error message.">
<polygon fill="white" stroke="black" points="180,-33.5 180,-134.5 342,-134.5 342,-33.5 180,-33.5"/>
<text text-anchor="middle" x="261" y="-122.5" font-family="Helvetica,sans-Serif" font-size="10.00">tvm::tirx::AssertStmtNode</text>
<polyline fill="none" stroke="black" points="180,-115.5 342,-115.5 "/>
<text text-anchor="start" x="188" y="-103.5" font-family="Helvetica,sans-Serif" font-size="10.00">+ condition</text>
<text text-anchor="start" x="188" y="-92.5" font-family="Helvetica,sans-Serif" font-size="10.00">+ error_kind</text>
<text text-anchor="start" x="188" y="-81.5" font-family="Helvetica,sans-Serif" font-size="10.00">+ message_parts</text>
<polyline fill="none" stroke="black" points="180,-74.5 342,-74.5 "/>
<text text-anchor="start" x="188" y="-62.5" font-family="Helvetica,sans-Serif" font-size="10.00">+ TVM_FFI_DECLARE_OBJECT</text>
<text text-anchor="start" x="188" y="-51.5" font-family="Helvetica,sans-Serif" font-size="10.00">_INFO_FINAL()</text>
<text text-anchor="start" x="188" y="-40.5" font-family="Helvetica,sans-Serif" font-size="10.00">+ RegisterReflection()</text>
</a>
</g>
</g>
<!-- Node1&#45;&gt;Node4 -->
<g id="edge3" class="edge">
<title>Node1&#45;&gt;Node4</title>
<path fill="none" stroke="midnightblue" d="M1520.39,-265.66C1266.91,-266.29 561.09,-259.53 351,-168 333.46,-160.36 317.13,-147.83 303.33,-134.8"/>
<polygon fill="none" stroke="midnightblue" points="1520.68,-269.16 1530.67,-265.63 1520.66,-262.16 1520.68,-269.16"/>
</g>
<!-- Node5 -->
<g id="node5" class="node">
<title>Node5</title>
<g id="a_node5"><a xlink:href="classtvm_1_1tirx_1_1AttrStmtNode.html" target="_top" xlink:title="Define certain auxiliary attribute for the body to be a symbolic value. This provide auxiliary inform...">
<polygon fill="white" stroke="black" points="360,-28 360,-140 522,-140 522,-28 360,-28"/>
<text text-anchor="middle" x="441" y="-128" font-family="Helvetica,sans-Serif" font-size="10.00">tvm::tirx::AttrStmtNode</text>
<polyline fill="none" stroke="black" points="360,-121 522,-121 "/>
<text text-anchor="start" x="368" y="-109" font-family="Helvetica,sans-Serif" font-size="10.00">+ node</text>
<text text-anchor="start" x="368" y="-98" font-family="Helvetica,sans-Serif" font-size="10.00">+ attr_key</text>
<text text-anchor="start" x="368" y="-87" font-family="Helvetica,sans-Serif" font-size="10.00">+ value</text>
<text text-anchor="start" x="368" y="-76" font-family="Helvetica,sans-Serif" font-size="10.00">+ body</text>
<polyline fill="none" stroke="black" points="360,-69 522,-69 "/>
<text text-anchor="start" x="368" y="-57" font-family="Helvetica,sans-Serif" font-size="10.00">+ TVM_FFI_DECLARE_OBJECT</text>
<text text-anchor="start" x="368" y="-46" font-family="Helvetica,sans-Serif" font-size="10.00">_INFO_FINAL()</text>
<text text-anchor="start" x="368" y="-35" font-family="Helvetica,sans-Serif" font-size="10.00">+ RegisterReflection()</text>
</a>
</g>
</g>
<!-- Node1&#45;&gt;Node5 -->
<g id="edge4" class="edge">
<title>Node1&#45;&gt;Node5</title>
<path fill="none" stroke="midnightblue" d="M1520.51,-264.29C1292.99,-261.34 707.34,-246.16 531,-168 516.04,-161.37 501.93,-151.22 489.53,-140.26"/>
<polygon fill="none" stroke="midnightblue" points="1520.7,-267.79 1530.74,-264.42 1520.78,-260.79 1520.7,-267.79"/>
</g>
<!-- Node6 -->
<g id="node6" class="node">
<title>Node6</title>
<g id="a_node6"><a xlink:href="classtvm_1_1tirx_1_1BindNode.html" target="_top" xlink:title="Bind a variable to a value in the enclosing scope.">
<polygon fill="white" stroke="black" points="540,-39 540,-129 702,-129 702,-39 540,-39"/>
<text text-anchor="middle" x="621" y="-117" font-family="Helvetica,sans-Serif" font-size="10.00">tvm::tirx::BindNode</text>
<polyline fill="none" stroke="black" points="540,-110 702,-110 "/>
<text text-anchor="start" x="548" y="-98" font-family="Helvetica,sans-Serif" font-size="10.00">+ var</text>
<text text-anchor="start" x="548" y="-87" font-family="Helvetica,sans-Serif" font-size="10.00">+ value</text>
<polyline fill="none" stroke="black" points="540,-80 702,-80 "/>
<text text-anchor="start" x="548" y="-68" font-family="Helvetica,sans-Serif" font-size="10.00">+ TVM_FFI_DECLARE_OBJECT</text>
<text text-anchor="start" x="548" y="-57" font-family="Helvetica,sans-Serif" font-size="10.00">_INFO_FINAL()</text>
<text text-anchor="start" x="548" y="-46" font-family="Helvetica,sans-Serif" font-size="10.00">+ RegisterReflection()</text>
</a>
</g>
</g>
<!-- Node1&#45;&gt;Node6 -->
<g id="edge5" class="edge">
<title>Node1&#45;&gt;Node6</title>
<path fill="none" stroke="midnightblue" d="M1520.68,-262.39C1321.4,-255.55 853.92,-232.87 711,-168 691.26,-159.04 672.96,-144.04 658.09,-129.24"/>
<polygon fill="none" stroke="midnightblue" points="1520.72,-265.9 1530.83,-262.74 1520.96,-258.9 1520.72,-265.9"/>
</g>
<!-- Node7 -->
<g id="node7" class="node">
<title>Node7</title>
<g id="a_node7"><a xlink:href="classtvm_1_1tirx_1_1BreakNode.html" target="_top" xlink:title="A Break in control flow.">
<polygon fill="white" stroke="black" points="720,-44.5 720,-123.5 882,-123.5 882,-44.5 720,-44.5"/>
<text text-anchor="middle" x="801" y="-111.5" font-family="Helvetica,sans-Serif" font-size="10.00">tvm::tirx::BreakNode</text>
<polyline fill="none" stroke="black" points="720,-104.5 882,-104.5 "/>
<text text-anchor="middle" x="801" y="-92.5" font-family="Helvetica,sans-Serif" font-size="10.00"> </text>
<polyline fill="none" stroke="black" points="720,-85.5 882,-85.5 "/>
<text text-anchor="start" x="728" y="-73.5" font-family="Helvetica,sans-Serif" font-size="10.00">+ TVM_FFI_DECLARE_OBJECT</text>
<text text-anchor="start" x="728" y="-62.5" font-family="Helvetica,sans-Serif" font-size="10.00">_INFO_FINAL()</text>
<text text-anchor="start" x="728" y="-51.5" font-family="Helvetica,sans-Serif" font-size="10.00">+ RegisterReflection()</text>
</a>
</g>
</g>
<!-- Node1&#45;&gt;Node7 -->
<g id="edge6" class="edge">
<title>Node1&#45;&gt;Node7</title>
<path fill="none" stroke="midnightblue" d="M1520.76,-259.57C1352.6,-248.45 1000.92,-219.66 891,-168 869.07,-157.69 848.82,-140.11 833.11,-123.77"/>
<polygon fill="none" stroke="midnightblue" points="1520.63,-263.07 1530.84,-260.23 1521.09,-256.08 1520.63,-263.07"/>
</g>
<!-- Node8 -->
<g id="node8" class="node">
<title>Node8</title>
<g id="a_node8"><a xlink:href="classtvm_1_1tirx_1_1BufferStoreNode.html" target="_top" xlink:title="Store value to the high dimension buffer.">
<polygon fill="white" stroke="black" points="900,-28 900,-140 1062,-140 1062,-28 900,-28"/>
<text text-anchor="middle" x="981" y="-128" font-family="Helvetica,sans-Serif" font-size="10.00">tvm::tirx::BufferStoreNode</text>
<polyline fill="none" stroke="black" points="900,-121 1062,-121 "/>
<text text-anchor="start" x="908" y="-109" font-family="Helvetica,sans-Serif" font-size="10.00">+ buffer</text>
<text text-anchor="start" x="908" y="-98" font-family="Helvetica,sans-Serif" font-size="10.00">+ value</text>
<text text-anchor="start" x="908" y="-87" font-family="Helvetica,sans-Serif" font-size="10.00">+ indices</text>
<text text-anchor="start" x="908" y="-76" font-family="Helvetica,sans-Serif" font-size="10.00">+ predicate</text>
<polyline fill="none" stroke="black" points="900,-69 1062,-69 "/>
<text text-anchor="start" x="908" y="-57" font-family="Helvetica,sans-Serif" font-size="10.00">+ TVM_FFI_DECLARE_OBJECT</text>
<text text-anchor="start" x="908" y="-46" font-family="Helvetica,sans-Serif" font-size="10.00">_INFO_FINAL()</text>
<text text-anchor="start" x="908" y="-35" font-family="Helvetica,sans-Serif" font-size="10.00">+ RegisterReflection()</text>
</a>
</g>
</g>
<!-- Node1&#45;&gt;Node8 -->
<g id="edge7" class="edge">
<title>Node1&#45;&gt;Node8</title>
<path fill="none" stroke="midnightblue" d="M1520.36,-264.01C1408.68,-259.43 1216.84,-240.47 1071,-168 1056.72,-160.91 1043.09,-150.84 1030.94,-140.16"/>
<polygon fill="none" stroke="midnightblue" points="1520.46,-267.52 1530.59,-264.4 1520.73,-260.52 1520.46,-267.52"/>
</g>
<!-- Node9 -->
<g id="node9" class="node">
<title>Node9</title>
<g id="a_node9"><a xlink:href="classtvm_1_1tirx_1_1ContinueNode.html" target="_top" xlink:title="A Continue in control flow.">
<polygon fill="white" stroke="black" points="1080,-44.5 1080,-123.5 1242,-123.5 1242,-44.5 1080,-44.5"/>
<text text-anchor="middle" x="1161" y="-111.5" font-family="Helvetica,sans-Serif" font-size="10.00">tvm::tirx::ContinueNode</text>
<polyline fill="none" stroke="black" points="1080,-104.5 1242,-104.5 "/>
<text text-anchor="middle" x="1161" y="-92.5" font-family="Helvetica,sans-Serif" font-size="10.00"> </text>
<polyline fill="none" stroke="black" points="1080,-85.5 1242,-85.5 "/>
<text text-anchor="start" x="1088" y="-73.5" font-family="Helvetica,sans-Serif" font-size="10.00">+ TVM_FFI_DECLARE_OBJECT</text>
<text text-anchor="start" x="1088" y="-62.5" font-family="Helvetica,sans-Serif" font-size="10.00">_INFO_FINAL()</text>
<text text-anchor="start" x="1088" y="-51.5" font-family="Helvetica,sans-Serif" font-size="10.00">+ RegisterReflection()</text>
</a>
</g>
</g>
<!-- Node1&#45;&gt;Node9 -->
<g id="edge8" class="edge">
<title>Node1&#45;&gt;Node9</title>
<path fill="none" stroke="midnightblue" d="M1520.72,-252.93C1444.86,-240.06 1335.99,-214.84 1251,-168 1230.34,-156.61 1210.67,-139.49 1195.03,-123.76"/>
<polygon fill="none" stroke="midnightblue" points="1520.3,-256.41 1530.73,-254.59 1521.44,-249.5 1520.3,-256.41"/>
</g>
<!-- Node10 -->
<g id="node10" class="node">
<title>Node10</title>
<g id="a_node10"><a xlink:href="classtvm_1_1tirx_1_1DeclBufferNode.html" target="_top" xlink:title="Declare a buffer that can be used in the body.">
<polygon fill="white" stroke="black" points="1260,-44.5 1260,-123.5 1422,-123.5 1422,-44.5 1260,-44.5"/>
<text text-anchor="middle" x="1341" y="-111.5" font-family="Helvetica,sans-Serif" font-size="10.00">tvm::tirx::DeclBufferNode</text>
<polyline fill="none" stroke="black" points="1260,-104.5 1422,-104.5 "/>
<text text-anchor="start" x="1268" y="-92.5" font-family="Helvetica,sans-Serif" font-size="10.00">+ buffer</text>
<polyline fill="none" stroke="black" points="1260,-85.5 1422,-85.5 "/>
<text text-anchor="start" x="1268" y="-73.5" font-family="Helvetica,sans-Serif" font-size="10.00">+ TVM_FFI_DECLARE_OBJECT</text>
<text text-anchor="start" x="1268" y="-62.5" font-family="Helvetica,sans-Serif" font-size="10.00">_INFO_FINAL()</text>
<text text-anchor="start" x="1268" y="-51.5" font-family="Helvetica,sans-Serif" font-size="10.00">+ RegisterReflection()</text>
</a>
</g>
</g>
<!-- Node1&#45;&gt;Node10 -->
<g id="edge9" class="edge">
<title>Node1&#45;&gt;Node10</title>
<path fill="none" stroke="midnightblue" d="M1521.43,-222.19C1491.66,-206.64 1459.04,-187.95 1431,-168 1412.64,-154.94 1394.06,-138.46 1378.58,-123.64"/>
<polygon fill="none" stroke="midnightblue" points="1520.07,-225.44 1530.56,-226.92 1523.29,-219.22 1520.07,-225.44"/>
</g>
<!-- Node11 -->
<g id="node11" class="node">
<title>Node11</title>
<g id="a_node11"><a xlink:href="classtvm_1_1tirx_1_1EvaluateNode.html" target="_top" xlink:title="Evaluates an expression. This is mostly used for putting a Call node into Stmt.">
<polygon fill="white" stroke="black" points="1440,-44.5 1440,-123.5 1602,-123.5 1602,-44.5 1440,-44.5"/>
<text text-anchor="middle" x="1521" y="-111.5" font-family="Helvetica,sans-Serif" font-size="10.00">tvm::tirx::EvaluateNode</text>
<polyline fill="none" stroke="black" points="1440,-104.5 1602,-104.5 "/>
<text text-anchor="start" x="1448" y="-92.5" font-family="Helvetica,sans-Serif" font-size="10.00">+ value</text>
<polyline fill="none" stroke="black" points="1440,-85.5 1602,-85.5 "/>
<text text-anchor="start" x="1448" y="-73.5" font-family="Helvetica,sans-Serif" font-size="10.00">+ TVM_FFI_DECLARE_OBJECT</text>
<text text-anchor="start" x="1448" y="-62.5" font-family="Helvetica,sans-Serif" font-size="10.00">_INFO_FINAL()</text>
<text text-anchor="start" x="1448" y="-51.5" font-family="Helvetica,sans-Serif" font-size="10.00">+ RegisterReflection()</text>
</a>
</g>
</g>
<!-- Node1&#45;&gt;Node11 -->
<g id="edge10" class="edge">
<title>Node1&#45;&gt;Node11</title>
<path fill="none" stroke="midnightblue" d="M1576.67,-195.13C1564.41,-170.86 1551.09,-144.53 1540.57,-123.7"/>
<polygon fill="none" stroke="midnightblue" points="1573.68,-196.97 1581.32,-204.31 1579.93,-193.81 1573.68,-196.97"/>
</g>
<!-- Node12 -->
<g id="node12" class="node">
<title>Node12</title>
<g id="a_node12"><a xlink:href="classtvm_1_1tirx_1_1ExecScopeStmtNode.html" target="_top" xlink:title="A statement that annotates the execution scope for its body.">
<polygon fill="white" stroke="black" points="1620.5,-39 1620.5,-129 1785.5,-129 1785.5,-39 1620.5,-39"/>
<text text-anchor="middle" x="1703" y="-117" font-family="Helvetica,sans-Serif" font-size="10.00">tvm::tirx::ExecScopeStmtNode</text>
<polyline fill="none" stroke="black" points="1620.5,-110 1785.5,-110 "/>
<text text-anchor="start" x="1628.5" y="-98" font-family="Helvetica,sans-Serif" font-size="10.00">+ exec_scope</text>
<text text-anchor="start" x="1628.5" y="-87" font-family="Helvetica,sans-Serif" font-size="10.00">+ body</text>
<polyline fill="none" stroke="black" points="1620.5,-80 1785.5,-80 "/>
<text text-anchor="start" x="1628.5" y="-68" font-family="Helvetica,sans-Serif" font-size="10.00">+ TVM_FFI_DECLARE_OBJECT</text>
<text text-anchor="start" x="1628.5" y="-57" font-family="Helvetica,sans-Serif" font-size="10.00">_INFO_FINAL()</text>
<text text-anchor="start" x="1628.5" y="-46" font-family="Helvetica,sans-Serif" font-size="10.00">+ RegisterReflection()</text>
</a>
</g>
</g>
<!-- Node1&#45;&gt;Node12 -->
<g id="edge11" class="edge">
<title>Node1&#45;&gt;Node12</title>
<path fill="none" stroke="midnightblue" d="M1647.26,-195.25C1658.49,-173.04 1670.59,-149.1 1680.64,-129.22"/>
<polygon fill="none" stroke="midnightblue" points="1644.07,-193.81 1642.68,-204.31 1650.32,-196.97 1644.07,-193.81"/>
</g>
<!-- Node13 -->
<g id="node13" class="node">
<title>Node13</title>
<g id="a_node13"><a xlink:href="classtvm_1_1tirx_1_1ForNode.html" target="_top" xlink:title="A for loop, with possible type annotations.">
<polygon fill="white" stroke="black" points="1804,-0.5 1804,-167.5 1966,-167.5 1966,-0.5 1804,-0.5"/>
<text text-anchor="middle" x="1885" y="-155.5" font-family="Helvetica,sans-Serif" font-size="10.00">tvm::tirx::ForNode</text>
<polyline fill="none" stroke="black" points="1804,-148.5 1966,-148.5 "/>
<text text-anchor="start" x="1812" y="-136.5" font-family="Helvetica,sans-Serif" font-size="10.00">+ loop_var</text>
<text text-anchor="start" x="1812" y="-125.5" font-family="Helvetica,sans-Serif" font-size="10.00">+ min</text>
<text text-anchor="start" x="1812" y="-114.5" font-family="Helvetica,sans-Serif" font-size="10.00">+ extent</text>
<text text-anchor="start" x="1812" y="-103.5" font-family="Helvetica,sans-Serif" font-size="10.00">+ kind</text>
<text text-anchor="start" x="1812" y="-92.5" font-family="Helvetica,sans-Serif" font-size="10.00">+ body</text>
<text text-anchor="start" x="1812" y="-81.5" font-family="Helvetica,sans-Serif" font-size="10.00">+ thread_binding</text>
<text text-anchor="start" x="1812" y="-70.5" font-family="Helvetica,sans-Serif" font-size="10.00">+ annotations</text>
<text text-anchor="start" x="1812" y="-59.5" font-family="Helvetica,sans-Serif" font-size="10.00">+ step</text>
<polyline fill="none" stroke="black" points="1804,-52.5 1966,-52.5 "/>
<text text-anchor="start" x="1812" y="-40.5" font-family="Helvetica,sans-Serif" font-size="10.00">+ HasTrivialStep()</text>
<text text-anchor="start" x="1812" y="-29.5" font-family="Helvetica,sans-Serif" font-size="10.00">+ TVM_FFI_DECLARE_OBJECT</text>
<text text-anchor="start" x="1812" y="-18.5" font-family="Helvetica,sans-Serif" font-size="10.00">_INFO_FINAL()</text>
<text text-anchor="start" x="1812" y="-7.5" font-family="Helvetica,sans-Serif" font-size="10.00">+ RegisterReflection()</text>
</a>
</g>
</g>
<!-- Node1&#45;&gt;Node13 -->
<g id="edge12" class="edge">
<title>Node1&#45;&gt;Node13</title>
<path fill="none" stroke="midnightblue" d="M1702.36,-222.96C1732.79,-207.29 1766.29,-188.33 1795,-168 1797.95,-165.91 1800.9,-163.73 1803.85,-161.49"/>
<polygon fill="none" stroke="midnightblue" points="1700.77,-219.84 1693.45,-227.5 1703.95,-226.08 1700.77,-219.84"/>
</g>
<!-- Node14 -->
<g id="node14" class="node">
<title>Node14</title>
<g id="a_node14"><a xlink:href="classtvm_1_1tirx_1_1IfThenElseNode.html" target="_top" xlink:title="IfThenElse statement.">
<polygon fill="white" stroke="black" points="1984,-33.5 1984,-134.5 2146,-134.5 2146,-33.5 1984,-33.5"/>
<text text-anchor="middle" x="2065" y="-122.5" font-family="Helvetica,sans-Serif" font-size="10.00">tvm::tirx::IfThenElseNode</text>
<polyline fill="none" stroke="black" points="1984,-115.5 2146,-115.5 "/>
<text text-anchor="start" x="1992" y="-103.5" font-family="Helvetica,sans-Serif" font-size="10.00">+ condition</text>
<text text-anchor="start" x="1992" y="-92.5" font-family="Helvetica,sans-Serif" font-size="10.00">+ then_case</text>
<text text-anchor="start" x="1992" y="-81.5" font-family="Helvetica,sans-Serif" font-size="10.00">+ else_case</text>
<polyline fill="none" stroke="black" points="1984,-74.5 2146,-74.5 "/>
<text text-anchor="start" x="1992" y="-62.5" font-family="Helvetica,sans-Serif" font-size="10.00">+ TVM_FFI_DECLARE_OBJECT</text>
<text text-anchor="start" x="1992" y="-51.5" font-family="Helvetica,sans-Serif" font-size="10.00">_INFO_FINAL()</text>
<text text-anchor="start" x="1992" y="-40.5" font-family="Helvetica,sans-Serif" font-size="10.00">+ RegisterReflection()</text>
</a>
</g>
</g>
<!-- Node1&#45;&gt;Node14 -->
<g id="edge13" class="edge">
<title>Node1&#45;&gt;Node14</title>
<path fill="none" stroke="midnightblue" d="M1703.42,-253.09C1779.71,-240.29 1889.4,-215.1 1975,-168 1991.02,-159.19 2006.43,-146.93 2019.83,-134.53"/>
<polygon fill="none" stroke="midnightblue" points="1702.65,-249.66 1693.35,-254.73 1703.78,-256.57 1702.65,-249.66"/>
</g>
<!-- Node15 -->
<g id="node15" class="node">
<title>Node15</title>
<g id="a_node15"><a xlink:href="classtvm_1_1tirx_1_1SBlockNode.html" target="_top" xlink:title="A block is a basic schedule unit in TIR.">
<polygon fill="white" stroke="black" points="2164,-0.5 2164,-167.5 2326,-167.5 2326,-0.5 2164,-0.5"/>
<text text-anchor="middle" x="2245" y="-155.5" font-family="Helvetica,sans-Serif" font-size="10.00">tvm::tirx::SBlockNode</text>
<polyline fill="none" stroke="black" points="2164,-148.5 2326,-148.5 "/>
<text text-anchor="start" x="2172" y="-136.5" font-family="Helvetica,sans-Serif" font-size="10.00">+ iter_vars</text>
<text text-anchor="start" x="2172" y="-125.5" font-family="Helvetica,sans-Serif" font-size="10.00">+ reads</text>
<text text-anchor="start" x="2172" y="-114.5" font-family="Helvetica,sans-Serif" font-size="10.00">+ writes</text>
<text text-anchor="start" x="2172" y="-103.5" font-family="Helvetica,sans-Serif" font-size="10.00">+ name_hint</text>
<text text-anchor="start" x="2172" y="-92.5" font-family="Helvetica,sans-Serif" font-size="10.00">+ alloc_buffers</text>
<text text-anchor="start" x="2172" y="-81.5" font-family="Helvetica,sans-Serif" font-size="10.00">+ match_buffers</text>
<text text-anchor="start" x="2172" y="-70.5" font-family="Helvetica,sans-Serif" font-size="10.00">+ annotations</text>
<text text-anchor="start" x="2172" y="-59.5" font-family="Helvetica,sans-Serif" font-size="10.00">+ init</text>
<text text-anchor="start" x="2172" y="-48.5" font-family="Helvetica,sans-Serif" font-size="10.00">+ body</text>
<polyline fill="none" stroke="black" points="2164,-41.5 2326,-41.5 "/>
<text text-anchor="start" x="2172" y="-29.5" font-family="Helvetica,sans-Serif" font-size="10.00">+ TVM_FFI_DECLARE_OBJECT</text>
<text text-anchor="start" x="2172" y="-18.5" font-family="Helvetica,sans-Serif" font-size="10.00">_INFO_FINAL()</text>
<text text-anchor="start" x="2172" y="-7.5" font-family="Helvetica,sans-Serif" font-size="10.00">+ RegisterReflection()</text>
</a>
</g>
</g>
<!-- Node1&#45;&gt;Node15 -->
<g id="edge14" class="edge">
<title>Node1&#45;&gt;Node15</title>
<path fill="none" stroke="midnightblue" d="M1703.5,-264.1C1815.52,-259.62 2008.4,-240.79 2155,-168 2157.95,-166.53 2160.87,-164.94 2163.76,-163.24"/>
<polygon fill="none" stroke="midnightblue" points="1703.11,-260.61 1693.24,-264.48 1703.37,-267.61 1703.11,-260.61"/>
</g>
<!-- Node16 -->
<g id="node16" class="node">
<title>Node16</title>
<g id="a_node16"><a xlink:href="classtvm_1_1tirx_1_1SBlockRealizeNode.html" target="_top" xlink:title="A block realization node represents execution of the block at the binding values.">
<polygon fill="white" stroke="black" points="2344,-33.5 2344,-134.5 2506,-134.5 2506,-33.5 2344,-33.5"/>
<text text-anchor="middle" x="2425" y="-122.5" font-family="Helvetica,sans-Serif" font-size="10.00">tvm::tirx::SBlockRealizeNode</text>
<polyline fill="none" stroke="black" points="2344,-115.5 2506,-115.5 "/>
<text text-anchor="start" x="2352" y="-103.5" font-family="Helvetica,sans-Serif" font-size="10.00">+ iter_values</text>
<text text-anchor="start" x="2352" y="-92.5" font-family="Helvetica,sans-Serif" font-size="10.00">+ predicate</text>
<text text-anchor="start" x="2352" y="-81.5" font-family="Helvetica,sans-Serif" font-size="10.00">+ block</text>
<polyline fill="none" stroke="black" points="2344,-74.5 2506,-74.5 "/>
<text text-anchor="start" x="2352" y="-62.5" font-family="Helvetica,sans-Serif" font-size="10.00">+ TVM_FFI_DECLARE_OBJECT</text>
<text text-anchor="start" x="2352" y="-51.5" font-family="Helvetica,sans-Serif" font-size="10.00">_INFO_FINAL()</text>
<text text-anchor="start" x="2352" y="-40.5" font-family="Helvetica,sans-Serif" font-size="10.00">+ RegisterReflection()</text>
</a>
</g>
</g>
<!-- Node1&#45;&gt;Node16 -->
<g id="edge15" class="edge">
<title>Node1&#45;&gt;Node16</title>
<path fill="none" stroke="midnightblue" d="M1703.17,-259.61C1871.66,-248.54 2224.7,-219.81 2335,-168 2352.12,-159.96 2368.22,-147.47 2381.93,-134.61"/>
<polygon fill="none" stroke="midnightblue" points="1702.83,-256.13 1693.08,-260.27 1703.28,-263.11 1702.83,-256.13"/>
</g>
<!-- Node17 -->
<g id="node17" class="node">
<title>Node17</title>
<g id="a_node17"><a xlink:href="classtvm_1_1tirx_1_1ScopeIdDefStmtNode.html" target="_top" xlink:title="Standalone statement that declares a scope&#45;id binding (e.g. cta_id, warp_id, lane_id)....">
<polygon fill="white" stroke="black" points="2524.5,-44.5 2524.5,-123.5 2693.5,-123.5 2693.5,-44.5 2524.5,-44.5"/>
<text text-anchor="middle" x="2609" y="-111.5" font-family="Helvetica,sans-Serif" font-size="10.00">tvm::tirx::ScopeIdDefStmtNode</text>
<polyline fill="none" stroke="black" points="2524.5,-104.5 2693.5,-104.5 "/>
<text text-anchor="start" x="2532.5" y="-92.5" font-family="Helvetica,sans-Serif" font-size="10.00">+ def</text>
<polyline fill="none" stroke="black" points="2524.5,-85.5 2693.5,-85.5 "/>
<text text-anchor="start" x="2532.5" y="-73.5" font-family="Helvetica,sans-Serif" font-size="10.00">+ TVM_FFI_DECLARE_OBJECT</text>
<text text-anchor="start" x="2532.5" y="-62.5" font-family="Helvetica,sans-Serif" font-size="10.00">_INFO_FINAL()</text>
<text text-anchor="start" x="2532.5" y="-51.5" font-family="Helvetica,sans-Serif" font-size="10.00">+ RegisterReflection()</text>
</a>
</g>
</g>
<!-- Node1&#45;&gt;Node17 -->
<g id="edge16" class="edge">
<title>Node1&#45;&gt;Node17</title>
<path fill="none" stroke="midnightblue" d="M1703.42,-262.18C1902.93,-254.92 2371.06,-231.45 2515,-168 2537.91,-157.9 2559.21,-140.13 2575.71,-123.61"/>
<polygon fill="none" stroke="midnightblue" points="1703.12,-258.69 1693.26,-262.55 1703.38,-265.69 1703.12,-258.69"/>
</g>
<!-- Node18 -->
<g id="node18" class="node">
<title>Node18</title>
<g id="a_node18"><a xlink:href="classtvm_1_1tirx_1_1SeqStmtNode.html" target="_top" xlink:title="The container of seq statement. Represent a sequence of statements.">
<polygon fill="white" stroke="black" points="2712,-33.5 2712,-134.5 2874,-134.5 2874,-33.5 2712,-33.5"/>
<text text-anchor="middle" x="2793" y="-122.5" font-family="Helvetica,sans-Serif" font-size="10.00">tvm::tirx::SeqStmtNode</text>
<polyline fill="none" stroke="black" points="2712,-115.5 2874,-115.5 "/>
<text text-anchor="start" x="2720" y="-103.5" font-family="Helvetica,sans-Serif" font-size="10.00">+ seq</text>
<polyline fill="none" stroke="black" points="2712,-96.5 2874,-96.5 "/>
<text text-anchor="start" x="2720" y="-84.5" font-family="Helvetica,sans-Serif" font-size="10.00">+ size()</text>
<text text-anchor="start" x="2720" y="-73.5" font-family="Helvetica,sans-Serif" font-size="10.00">+ operator[]()</text>
<text text-anchor="start" x="2720" y="-62.5" font-family="Helvetica,sans-Serif" font-size="10.00">+ TVM_FFI_DECLARE_OBJECT</text>
<text text-anchor="start" x="2720" y="-51.5" font-family="Helvetica,sans-Serif" font-size="10.00">_INFO_FINAL()</text>
<text text-anchor="start" x="2720" y="-40.5" font-family="Helvetica,sans-Serif" font-size="10.00">+ RegisterReflection()</text>
</a>
</g>
</g>
<!-- Node1&#45;&gt;Node18 -->
<g id="edge17" class="edge">
<title>Node1&#45;&gt;Node18</title>
<path fill="none" stroke="midnightblue" d="M1703.51,-264.38C1932.53,-261.64 2524.8,-246.9 2703,-168 2720.49,-160.26 2736.81,-147.7 2750.61,-134.67"/>
<polygon fill="none" stroke="midnightblue" points="1703.17,-260.88 1693.21,-264.5 1703.25,-267.88 1703.17,-260.88"/>
</g>
<!-- Node19 -->
<g id="node19" class="node">
<title>Node19</title>
<g id="a_node19"><a xlink:href="classtvm_1_1tirx_1_1TilePrimitiveCallNode.html" target="_top" xlink:title="TIRX TilePrimitiveCall stmt.">
<polygon fill="white" stroke="black" points="2892,-17 2892,-151 3054,-151 3054,-17 2892,-17"/>
<text text-anchor="start" x="2900" y="-139" font-family="Helvetica,sans-Serif" font-size="10.00">tvm::tirx::TilePrimitive</text>
<text text-anchor="middle" x="2973" y="-128" font-family="Helvetica,sans-Serif" font-size="10.00">CallNode</text>
<polyline fill="none" stroke="black" points="2892,-121 3054,-121 "/>
<text text-anchor="start" x="2900" y="-109" font-family="Helvetica,sans-Serif" font-size="10.00">+ op</text>
<text text-anchor="start" x="2900" y="-98" font-family="Helvetica,sans-Serif" font-size="10.00">+ args</text>
<text text-anchor="start" x="2900" y="-87" font-family="Helvetica,sans-Serif" font-size="10.00">+ workspace</text>
<text text-anchor="start" x="2900" y="-76" font-family="Helvetica,sans-Serif" font-size="10.00">+ config</text>
<text text-anchor="start" x="2900" y="-65" font-family="Helvetica,sans-Serif" font-size="10.00">+ dispatch</text>
<polyline fill="none" stroke="black" points="2892,-58 3054,-58 "/>
<text text-anchor="start" x="2900" y="-46" font-family="Helvetica,sans-Serif" font-size="10.00">+ TVM_FFI_DECLARE_OBJECT</text>
<text text-anchor="start" x="2900" y="-35" font-family="Helvetica,sans-Serif" font-size="10.00">_INFO_FINAL()</text>
<text text-anchor="start" x="2900" y="-24" font-family="Helvetica,sans-Serif" font-size="10.00">+ RegisterReflection()</text>
</a>
</g>
</g>
<!-- Node1&#45;&gt;Node19 -->
<g id="edge18" class="edge">
<title>Node1&#45;&gt;Node19</title>
<path fill="none" stroke="midnightblue" d="M1703.43,-265.73C1958.14,-266.54 2670.98,-260.29 2883,-168 2892.94,-163.67 2902.49,-157.78 2911.41,-151.11"/>
<polygon fill="none" stroke="midnightblue" points="1703.12,-262.22 1693.11,-265.69 1703.09,-269.22 1703.12,-262.22"/>
</g>
<!-- Node20 -->
<g id="node20" class="node">
<title>Node20</title>
<g id="a_node20"><a xlink:href="classtvm_1_1tirx_1_1WhileNode.html" target="_top" xlink:title="A While loop.">
<polygon fill="white" stroke="black" points="3072,-39 3072,-129 3234,-129 3234,-39 3072,-39"/>
<text text-anchor="middle" x="3153" y="-117" font-family="Helvetica,sans-Serif" font-size="10.00">tvm::tirx::WhileNode</text>
<polyline fill="none" stroke="black" points="3072,-110 3234,-110 "/>
<text text-anchor="start" x="3080" y="-98" font-family="Helvetica,sans-Serif" font-size="10.00">+ condition</text>
<text text-anchor="start" x="3080" y="-87" font-family="Helvetica,sans-Serif" font-size="10.00">+ body</text>
<polyline fill="none" stroke="black" points="3072,-80 3234,-80 "/>
<text text-anchor="start" x="3080" y="-68" font-family="Helvetica,sans-Serif" font-size="10.00">+ TVM_FFI_DECLARE_OBJECT</text>
<text text-anchor="start" x="3080" y="-57" font-family="Helvetica,sans-Serif" font-size="10.00">_INFO_FINAL()</text>
<text text-anchor="start" x="3080" y="-46" font-family="Helvetica,sans-Serif" font-size="10.00">+ RegisterReflection()</text>
</a>
</g>
</g>
<!-- Node1&#45;&gt;Node20 -->
<g id="edge19" class="edge">
<title>Node1&#45;&gt;Node20</title>
<path fill="none" stroke="midnightblue" d="M1703.37,-262.42C2002.2,-253.49 2938.49,-221.5 3063,-168 3083.11,-159.36 3101.61,-144.23 3116.54,-129.24"/>
<polygon fill="none" stroke="midnightblue" points="1702.9,-258.93 1693.01,-262.73 1703.11,-265.93 1702.9,-258.93"/>
</g>
<!-- Node2 -->
<g id="node2" class="node">
<title>Node2</title>
<g id="a_node2"><a xlink:title=" ">
<polygon fill="white" stroke="#bfbfbf" points="1580,-364.5 1580,-421.5 1644,-421.5 1644,-364.5 1580,-364.5"/>
<text text-anchor="middle" x="1612" y="-409.5" font-family="Helvetica,sans-Serif" font-size="10.00">ffi::Object</text>
<polyline fill="none" stroke="#bfbfbf" points="1580,-402.5 1644,-402.5 "/>
<text text-anchor="middle" x="1612" y="-390.5" font-family="Helvetica,sans-Serif" font-size="10.00"> </text>
<polyline fill="none" stroke="#bfbfbf" points="1580,-383.5 1644,-383.5 "/>
<text text-anchor="middle" x="1612" y="-371.5" font-family="Helvetica,sans-Serif" font-size="10.00"> </text>
</a>
</g>
</g>
<!-- Node2&#45;&gt;Node1 -->
<g id="edge1" class="edge">
<title>Node2&#45;&gt;Node1</title>
<path fill="none" stroke="midnightblue" d="M1612,-354.1C1612,-345.74 1612,-336.68 1612,-327.67"/>
<polygon fill="none" stroke="midnightblue" points="1608.5,-354.26 1612,-364.26 1615.5,-354.26 1608.5,-354.26"/>
</g>
</g>
</svg>
