<?xml version="1.0" encoding="UTF-8" standalone="no"?>
<!DOCTYPE svg PUBLIC "-//W3C//DTD SVG 1.1//EN"
 "http://www.w3.org/Graphics/SVG/1.1/DTD/svg11.dtd">
<!-- Generated by graphviz version 2.43.0 (0)
 -->
<!-- Title: tvm::tirx::CastNode Pages: 1 -->
<svg width="620pt" height="887pt"
 viewBox="0.00 0.00 620.00 887.00" xmlns="http://www.w3.org/2000/svg" xmlns:xlink="http://www.w3.org/1999/xlink">
<g id="graph0" class="graph" transform="scale(1 1) rotate(0) translate(4 883)">
<title>tvm::tirx::CastNode</title>
<polygon fill="white" stroke="transparent" points="-4,4 -4,-883 616,-883 616,4 -4,4"/>
<!-- Node1 -->
<g id="node1" class="node">
<title>Node1</title>
<g id="a_node1"><a xlink:title="Cast value from one data type to another.">
<polygon fill="#bfbfbf" stroke="black" points="388.5,-0.5 388.5,-79.5 550.5,-79.5 550.5,-0.5 388.5,-0.5"/>
<text text-anchor="middle" x="469.5" y="-67.5" font-family="Helvetica,sans-Serif" font-size="10.00">tvm::tirx::CastNode</text>
<polyline fill="none" stroke="black" points="388.5,-60.5 550.5,-60.5 "/>
<text text-anchor="middle" x="469.5" y="-48.5" font-family="Helvetica,sans-Serif" font-size="10.00"> </text>
<polyline fill="none" stroke="black" points="388.5,-41.5 550.5,-41.5 "/>
<text text-anchor="start" x="396.5" y="-29.5" font-family="Helvetica,sans-Serif" font-size="10.00">+ TVM_FFI_DECLARE_OBJECT</text>
<text text-anchor="start" x="396.5" y="-18.5" font-family="Helvetica,sans-Serif" font-size="10.00">_INFO_FINAL()</text>
<text text-anchor="start" x="396.5" y="-7.5" font-family="Helvetica,sans-Serif" font-size="10.00">+ RegisterReflection()</text>
</a>
</g>
</g>
<!-- Node2 -->
<g id="node2" class="node">
<title>Node2</title>
<g id="a_node2"><a xlink:href="classtvm_1_1PrimExprNode.html" target="_top" xlink:title="Base node of all primitive expressions.">
<polygon fill="white" stroke="black" points="327.5,-117.5 327.5,-196.5 489.5,-196.5 489.5,-117.5 327.5,-117.5"/>
<text text-anchor="middle" x="408.5" y="-184.5" font-family="Helvetica,sans-Serif" font-size="10.00">tvm::PrimExprNode</text>
<polyline fill="none" stroke="black" points="327.5,-177.5 489.5,-177.5 "/>
<text text-anchor="start" x="335.5" y="-165.5" font-family="Helvetica,sans-Serif" font-size="10.00">+ _type_child_slots</text>
<polyline fill="none" stroke="black" points="327.5,-158.5 489.5,-158.5 "/>
<text text-anchor="start" x="335.5" y="-146.5" font-family="Helvetica,sans-Serif" font-size="10.00">+ TVM_FFI_DECLARE_OBJECT</text>
<text text-anchor="start" x="335.5" y="-135.5" font-family="Helvetica,sans-Serif" font-size="10.00">_INFO()</text>
<text text-anchor="start" x="335.5" y="-124.5" font-family="Helvetica,sans-Serif" font-size="10.00">+ RegisterReflection()</text>
</a>
</g>
</g>
<!-- Node2&#45;&gt;Node1 -->
<g id="edge1" class="edge">
<title>Node2&#45;&gt;Node1</title>
<path fill="none" stroke="midnightblue" d="M433.76,-108.38C438.82,-98.83 444.09,-88.91 448.97,-79.71"/>
<polygon fill="none" stroke="midnightblue" points="430.58,-106.91 428.98,-117.39 436.76,-110.19 430.58,-106.91"/>
</g>
<!-- Node3 -->
<g id="node3" class="node">
<title>Node3</title>
<g id="a_node3"><a xlink:href="classtvm_1_1BaseExprNode.html" target="_top" xlink:title="Base type of all the expressions.">
<polygon fill="white" stroke="black" points="165.5,-451 165.5,-541 327.5,-541 327.5,-451 165.5,-451"/>
<text text-anchor="middle" x="246.5" y="-529" font-family="Helvetica,sans-Serif" font-size="10.00">tvm::BaseExprNode</text>
<polyline fill="none" stroke="black" points="165.5,-522 327.5,-522 "/>
<text text-anchor="start" x="173.5" y="-510" font-family="Helvetica,sans-Serif" font-size="10.00">+ _type_s_eq_hash_kind</text>
<text text-anchor="start" x="173.5" y="-499" font-family="Helvetica,sans-Serif" font-size="10.00">+ _type_child_slots</text>
<polyline fill="none" stroke="black" points="165.5,-492 327.5,-492 "/>
<text text-anchor="start" x="173.5" y="-480" font-family="Helvetica,sans-Serif" font-size="10.00">+ TVM_FFI_DECLARE_OBJECT</text>
<text text-anchor="start" x="173.5" y="-469" font-family="Helvetica,sans-Serif" font-size="10.00">_INFO()</text>
<text text-anchor="start" x="173.5" y="-458" font-family="Helvetica,sans-Serif" font-size="10.00">+ RegisterReflection()</text>
</a>
</g>
</g>
<!-- Node3&#45;&gt;Node2 -->
<g id="edge2" class="edge">
<title>Node3&#45;&gt;Node2</title>
<path fill="none" stroke="midnightblue" d="M272.15,-441.64C304.96,-373.39 360.99,-256.84 389.95,-196.59"/>
<polygon fill="none" stroke="midnightblue" points="268.86,-440.41 267.68,-450.94 275.17,-443.45 268.86,-440.41"/>
</g>
<!-- Node4 -->
<g id="node4" class="node">
<title>Node4</title>
<g id="a_node4"><a xlink:title=" ">
<polygon fill="white" stroke="#bfbfbf" points="354.5,-710 354.5,-767 418.5,-767 418.5,-710 354.5,-710"/>
<text text-anchor="middle" x="386.5" y="-755" font-family="Helvetica,sans-Serif" font-size="10.00">ffi::Object</text>
<polyline fill="none" stroke="#bfbfbf" points="354.5,-748 418.5,-748 "/>
<text text-anchor="middle" x="386.5" y="-736" font-family="Helvetica,sans-Serif" font-size="10.00"> </text>
<polyline fill="none" stroke="#bfbfbf" points="354.5,-729 418.5,-729 "/>
<text text-anchor="middle" x="386.5" y="-717" font-family="Helvetica,sans-Serif" font-size="10.00"> </text>
</a>
</g>
</g>
<!-- Node4&#45;&gt;Node3 -->
<g id="edge3" class="edge">
<title>Node4&#45;&gt;Node3</title>
<path fill="none" stroke="midnightblue" d="M365.39,-701.23C340.49,-658.46 299.11,-587.38 272.33,-541.37"/>
<polygon fill="none" stroke="midnightblue" points="362.38,-703.03 370.44,-709.91 368.43,-699.51 362.38,-703.03"/>
</g>
<!-- Node5 -->
<g id="node5" class="node">
<title>Node5</title>
<g id="a_node5"><a xlink:href="classtvm_1_1Span.html" target="_top" xlink:title=" ">
<polygon fill="white" stroke="black" points="0,-693.5 0,-783.5 159,-783.5 159,-693.5 0,-693.5"/>
<text text-anchor="middle" x="79.5" y="-771.5" font-family="Helvetica,sans-Serif" font-size="10.00">tvm::Span</text>
<polyline fill="none" stroke="black" points="0,-764.5 159,-764.5 "/>
<text text-anchor="middle" x="79.5" y="-752.5" font-family="Helvetica,sans-Serif" font-size="10.00"> </text>
<polyline fill="none" stroke="black" points="0,-745.5 159,-745.5 "/>
<text text-anchor="start" x="8" y="-733.5" font-family="Helvetica,sans-Serif" font-size="10.00">+ Span()</text>
<text text-anchor="start" x="8" y="-722.5" font-family="Helvetica,sans-Serif" font-size="10.00">+ Merge()</text>
<text text-anchor="start" x="8" y="-711.5" font-family="Helvetica,sans-Serif" font-size="10.00">+ TVM_FFI_DEFINE_OBJECT</text>
<text text-anchor="start" x="8" y="-700.5" font-family="Helvetica,sans-Serif" font-size="10.00">_REF_METHODS_NULLABLE()</text>
</a>
</g>
</g>
<!-- Node5&#45;&gt;Node3 -->
<g id="edge4" class="edge">
<title>Node5&#45;&gt;Node3</title>
<path fill="none" stroke="#404040" d="M110.13,-693.39C137.94,-653.34 179.04,-594.15 208.84,-551.23"/>
<polygon fill="none" stroke="#404040" points="208.94,-551.1 209.07,-543.89 215.78,-541.24 215.64,-548.45 208.94,-551.1"/>
<text text-anchor="middle" x="147" y="-667" font-family="Helvetica,sans-Serif" font-size="10.00"> +span</text>
</g>
<!-- Node6 -->
<g id="node6" class="node">
<title>Node6</title>
<g id="a_node6"><a xlink:title=" ">
<polygon fill="white" stroke="#bfbfbf" points="216.5,-821.5 216.5,-878.5 296.5,-878.5 296.5,-821.5 216.5,-821.5"/>
<text text-anchor="middle" x="256.5" y="-866.5" font-family="Helvetica,sans-Serif" font-size="10.00">ffi::ObjectRef</text>
<polyline fill="none" stroke="#bfbfbf" points="216.5,-859.5 296.5,-859.5 "/>
<text text-anchor="middle" x="256.5" y="-847.5" font-family="Helvetica,sans-Serif" font-size="10.00"> </text>
<polyline fill="none" stroke="#bfbfbf" points="216.5,-840.5 296.5,-840.5 "/>
<text text-anchor="middle" x="256.5" y="-828.5" font-family="Helvetica,sans-Serif" font-size="10.00"> </text>
</a>
</g>
</g>
<!-- Node6&#45;&gt;Node5 -->
<g id="edge5" class="edge">
<title>Node6&#45;&gt;Node5</title>
<path fill="none" stroke="midnightblue" d="M207.43,-818.64C189.91,-807.81 169.8,-795.37 150.8,-783.61"/>
<polygon fill="none" stroke="midnightblue" points="205.99,-821.87 216.34,-824.15 209.67,-815.92 205.99,-821.87"/>
</g>
<!-- Node7 -->
<g id="node7" class="node">
<title>Node7</title>
<g id="a_node7"><a xlink:href="classtvm_1_1Type.html" target="_top" xlink:title="Managed reference to TypeNode.">
<polygon fill="white" stroke="black" points="177,-704.5 177,-772.5 336,-772.5 336,-704.5 177,-704.5"/>
<text text-anchor="middle" x="256.5" y="-760.5" font-family="Helvetica,sans-Serif" font-size="10.00">tvm::Type</text>
<polyline fill="none" stroke="black" points="177,-753.5 336,-753.5 "/>
<text text-anchor="middle" x="256.5" y="-741.5" font-family="Helvetica,sans-Serif" font-size="10.00"> </text>
<polyline fill="none" stroke="black" points="177,-734.5 336,-734.5 "/>
<text text-anchor="start" x="185" y="-722.5" font-family="Helvetica,sans-Serif" font-size="10.00">+ TVM_FFI_DEFINE_OBJECT</text>
<text text-anchor="start" x="185" y="-711.5" font-family="Helvetica,sans-Serif" font-size="10.00">_REF_METHODS_NULLABLE()</text>
</a>
</g>
</g>
<!-- Node6&#45;&gt;Node7 -->
<g id="edge7" class="edge">
<title>Node6&#45;&gt;Node7</title>
<path fill="none" stroke="midnightblue" d="M256.5,-811.2C256.5,-798.64 256.5,-784.76 256.5,-772.59"/>
<polygon fill="none" stroke="midnightblue" points="253,-811.37 256.5,-821.37 260,-811.37 253,-811.37"/>
</g>
<!-- Node10 -->
<g id="node10" class="node">
<title>Node10</title>
<g id="a_node10"><a xlink:href="classtvm_1_1BaseExpr.html" target="_top" xlink:title="Managed reference to BaseExprNode.">
<polygon fill="white" stroke="black" points="440,-704.5 440,-772.5 599,-772.5 599,-704.5 440,-704.5"/>
<text text-anchor="middle" x="519.5" y="-760.5" font-family="Helvetica,sans-Serif" font-size="10.00">tvm::BaseExpr</text>
<polyline fill="none" stroke="black" points="440,-753.5 599,-753.5 "/>
<text text-anchor="middle" x="519.5" y="-741.5" font-family="Helvetica,sans-Serif" font-size="10.00"> </text>
<polyline fill="none" stroke="black" points="440,-734.5 599,-734.5 "/>
<text text-anchor="start" x="448" y="-722.5" font-family="Helvetica,sans-Serif" font-size="10.00">+ TVM_FFI_DEFINE_OBJECT</text>
<text text-anchor="start" x="448" y="-711.5" font-family="Helvetica,sans-Serif" font-size="10.00">_REF_METHODS_NULLABLE()</text>
</a>
</g>
</g>
<!-- Node6&#45;&gt;Node10 -->
<g id="edge11" class="edge">
<title>Node6&#45;&gt;Node10</title>
<path fill="none" stroke="midnightblue" d="M306.43,-831.33C340.78,-818.85 387.28,-801.33 427.5,-784 435.81,-780.42 444.46,-776.5 452.99,-772.52"/>
<polygon fill="none" stroke="midnightblue" points="304.84,-828.18 296.63,-834.87 307.22,-834.76 304.84,-828.18"/>
</g>
<!-- Node7&#45;&gt;Node3 -->
<g id="edge6" class="edge">
<title>Node7&#45;&gt;Node3</title>
<path fill="none" stroke="#404040" d="M255.12,-704.31C253.5,-665.4 250.79,-600.26 248.84,-553.37"/>
<polygon fill="none" stroke="#404040" points="248.84,-553.26 244.59,-547.43 248.34,-541.27 252.59,-547.1 248.84,-553.26"/>
<text text-anchor="middle" x="265.5" y="-667" font-family="Helvetica,sans-Serif" font-size="10.00"> +ty</text>
</g>
<!-- Node8 -->
<g id="node8" class="node">
<title>Node8</title>
<g id="a_node8"><a xlink:href="classtvm_1_1runtime_1_1DataType.html" target="_top" xlink:title="Runtime primitive data type.">
<polygon fill="white" stroke="black" points="345.5,-346.5 345.5,-645.5 485.5,-645.5 485.5,-346.5 345.5,-346.5"/>
<text text-anchor="middle" x="415.5" y="-633.5" font-family="Helvetica,sans-Serif" font-size="10.00">tvm::runtime::DataType</text>
<polyline fill="none" stroke="black" points="345.5,-626.5 485.5,-626.5 "/>
<text text-anchor="middle" x="415.5" y="-614.5" font-family="Helvetica,sans-Serif" font-size="10.00"> </text>
<polyline fill="none" stroke="black" points="345.5,-607.5 485.5,-607.5 "/>
<text text-anchor="start" x="353.5" y="-595.5" font-family="Helvetica,sans-Serif" font-size="10.00">+ DataType()</text>
<text text-anchor="start" x="353.5" y="-584.5" font-family="Helvetica,sans-Serif" font-size="10.00">+ DataType()</text>
<text text-anchor="start" x="353.5" y="-573.5" font-family="Helvetica,sans-Serif" font-size="10.00">+ DataType()</text>
<text text-anchor="start" x="353.5" y="-562.5" font-family="Helvetica,sans-Serif" font-size="10.00">+ code()</text>
<text text-anchor="start" x="353.5" y="-551.5" font-family="Helvetica,sans-Serif" font-size="10.00">+ bits()</text>
<text text-anchor="start" x="353.5" y="-540.5" font-family="Helvetica,sans-Serif" font-size="10.00">+ bytes()</text>
<text text-anchor="start" x="353.5" y="-529.5" font-family="Helvetica,sans-Serif" font-size="10.00">+ lanes()</text>
<text text-anchor="start" x="353.5" y="-518.5" font-family="Helvetica,sans-Serif" font-size="10.00">+ vscale_factor()</text>
<text text-anchor="start" x="353.5" y="-507.5" font-family="Helvetica,sans-Serif" font-size="10.00">+ get_lanes_or_vscale</text>
<text text-anchor="start" x="353.5" y="-496.5" font-family="Helvetica,sans-Serif" font-size="10.00">_factor()</text>
<text text-anchor="start" x="353.5" y="-485.5" font-family="Helvetica,sans-Serif" font-size="10.00">+ is_scalar()</text>
<text text-anchor="start" x="353.5" y="-474.5" font-family="Helvetica,sans-Serif" font-size="10.00">and 37 more...</text>
<text text-anchor="start" x="353.5" y="-463.5" font-family="Helvetica,sans-Serif" font-size="10.00">+ Int()</text>
<text text-anchor="start" x="353.5" y="-452.5" font-family="Helvetica,sans-Serif" font-size="10.00">+ UInt()</text>
<text text-anchor="start" x="353.5" y="-441.5" font-family="Helvetica,sans-Serif" font-size="10.00">+ Float()</text>
<text text-anchor="start" x="353.5" y="-430.5" font-family="Helvetica,sans-Serif" font-size="10.00">+ BFloat()</text>
<text text-anchor="start" x="353.5" y="-419.5" font-family="Helvetica,sans-Serif" font-size="10.00">+ Float8E3M4()</text>
<text text-anchor="start" x="353.5" y="-408.5" font-family="Helvetica,sans-Serif" font-size="10.00">+ Float8E4M3()</text>
<text text-anchor="start" x="353.5" y="-397.5" font-family="Helvetica,sans-Serif" font-size="10.00">+ Float8E4M3B11FNUZ()</text>
<text text-anchor="start" x="353.5" y="-386.5" font-family="Helvetica,sans-Serif" font-size="10.00">+ Float8E4M3FN()</text>
<text text-anchor="start" x="353.5" y="-375.5" font-family="Helvetica,sans-Serif" font-size="10.00">+ Float8E4M3FNUZ()</text>
<text text-anchor="start" x="353.5" y="-364.5" font-family="Helvetica,sans-Serif" font-size="10.00">+ Float8E5M2()</text>
<text text-anchor="start" x="353.5" y="-353.5" font-family="Helvetica,sans-Serif" font-size="10.00">and 9 more...</text>
</a>
</g>
</g>
<!-- Node8&#45;&gt;Node2 -->
<g id="edge8" class="edge">
<title>Node8&#45;&gt;Node2</title>
<path fill="none" stroke="#404040" d="M405.2,-346.16C404.93,-340.02 404.7,-333.95 404.5,-328 402.85,-277.8 402.74,-265.19 404.5,-215 404.57,-212.96 404.66,-210.87 404.76,-208.76"/>
<polygon fill="none" stroke="#404040" points="404.76,-208.6 401.1,-202.39 405.42,-196.61 409.09,-202.82 404.76,-208.6"/>
<text text-anchor="middle" x="424.5" y="-269" font-family="Helvetica,sans-Serif" font-size="10.00"> +dtype</text>
</g>
<!-- Node9 -->
<g id="node9" class="node">
<title>Node9</title>
<g id="a_node9"><a xlink:href="classtvm_1_1PrimExpr.html" target="_top" xlink:title="Reference to PrimExprNode.">
<polygon fill="white" stroke="black" points="453,-215.5 453,-327.5 612,-327.5 612,-215.5 453,-215.5"/>
<text text-anchor="middle" x="532.5" y="-315.5" font-family="Helvetica,sans-Serif" font-size="10.00">tvm::PrimExpr</text>
<polyline fill="none" stroke="black" points="453,-308.5 612,-308.5 "/>
<text text-anchor="middle" x="532.5" y="-296.5" font-family="Helvetica,sans-Serif" font-size="10.00"> </text>
<polyline fill="none" stroke="black" points="453,-289.5 612,-289.5 "/>
<text text-anchor="start" x="461" y="-277.5" font-family="Helvetica,sans-Serif" font-size="10.00">+ PrimExpr()</text>
<text text-anchor="start" x="461" y="-266.5" font-family="Helvetica,sans-Serif" font-size="10.00">+ PrimExpr()</text>
<text text-anchor="start" x="461" y="-255.5" font-family="Helvetica,sans-Serif" font-size="10.00">+ dtype()</text>
<text text-anchor="start" x="461" y="-244.5" font-family="Helvetica,sans-Serif" font-size="10.00">+ TVM_FFI_DEFINE_OBJECT</text>
<text text-anchor="start" x="461" y="-233.5" font-family="Helvetica,sans-Serif" font-size="10.00">_REF_METHODS_NULLABLE()</text>
<text text-anchor="start" x="461" y="-222.5" font-family="Helvetica,sans-Serif" font-size="10.00">+ ConvertFallbackValue()</text>
</a>
</g>
</g>
<!-- Node9&#45;&gt;Node1 -->
<g id="edge9" class="edge">
<title>Node9&#45;&gt;Node1</title>
<path fill="none" stroke="#404040" d="M522.31,-215.3C516.37,-185.85 508.14,-149.16 498.5,-117 495.96,-108.54 492.93,-99.67 489.8,-91.11"/>
<polygon fill="none" stroke="#404040" points="489.73,-90.91 483.88,-86.7 485.51,-79.68 491.37,-83.89 489.73,-90.91"/>
<text text-anchor="middle" x="537" y="-154.5" font-family="Helvetica,sans-Serif" font-size="10.00"> +value</text>
</g>
<!-- Node10&#45;&gt;Node9 -->
<g id="edge10" class="edge">
<title>Node10&#45;&gt;Node9</title>
<path fill="none" stroke="midnightblue" d="M520.71,-694.38C523.08,-609.62 528.34,-421.42 530.96,-327.72"/>
<polygon fill="none" stroke="midnightblue" points="517.21,-694.34 520.42,-704.43 524.2,-694.53 517.21,-694.34"/>
</g>
</g>
</svg>
