<?xml version="1.0" encoding="UTF-8" standalone="no"?>
<!DOCTYPE svg PUBLIC "-//W3C//DTD SVG 1.1//EN"
 "http://www.w3.org/Graphics/SVG/1.1/DTD/svg11.dtd">
<!-- Generated by graphviz version 2.43.0 (0)
 -->
<!-- Title: tvm::relax::ExternFuncNode Pages: 1 -->
<svg width="604pt" height="916pt"
 viewBox="0.00 0.00 603.50 916.00" xmlns="http://www.w3.org/2000/svg" xmlns:xlink="http://www.w3.org/1999/xlink">
<g id="graph0" class="graph" transform="scale(1 1) rotate(0) translate(4 912)">
<title>tvm::relax::ExternFuncNode</title>
<polygon fill="white" stroke="transparent" points="-4,4 -4,-912 599.5,-912 599.5,4 -4,4"/>
<!-- Node1 -->
<g id="node1" class="node">
<title>Node1</title>
<g id="a_node1"><a xlink:title="The extern function, which can represent packed function.">
<polygon fill="#bfbfbf" stroke="black" points="256,-0.5 256,-79.5 418,-79.5 418,-0.5 256,-0.5"/>
<text text-anchor="middle" x="337" y="-67.5" font-family="Helvetica,sans-Serif" font-size="10.00">tvm::relax::ExternFuncNode</text>
<polyline fill="none" stroke="black" points="256,-60.5 418,-60.5 "/>
<text text-anchor="start" x="264" y="-48.5" font-family="Helvetica,sans-Serif" font-size="10.00">+ global_symbol</text>
<polyline fill="none" stroke="black" points="256,-41.5 418,-41.5 "/>
<text text-anchor="start" x="264" y="-29.5" font-family="Helvetica,sans-Serif" font-size="10.00">+ TVM_FFI_DECLARE_OBJECT</text>
<text text-anchor="start" x="264" y="-18.5" font-family="Helvetica,sans-Serif" font-size="10.00">_INFO_FINAL()</text>
<text text-anchor="start" x="264" y="-7.5" font-family="Helvetica,sans-Serif" font-size="10.00">+ RegisterReflection()</text>
</a>
</g>
</g>
<!-- Node2 -->
<g id="node2" class="node">
<title>Node2</title>
<g id="a_node2"><a xlink:href="classtvm_1_1BaseFuncNode.html" target="_top" xlink:title="Base node of all functions.">
<polygon fill="white" stroke="black" points="256,-117.5 256,-240.5 418,-240.5 418,-117.5 256,-117.5"/>
<text text-anchor="middle" x="337" y="-228.5" font-family="Helvetica,sans-Serif" font-size="10.00">tvm::BaseFuncNode</text>
<polyline fill="none" stroke="black" points="256,-221.5 418,-221.5 "/>
<text text-anchor="start" x="264" y="-209.5" font-family="Helvetica,sans-Serif" font-size="10.00">+ _type_child_slots</text>
<polyline fill="none" stroke="black" points="256,-202.5 418,-202.5 "/>
<text text-anchor="start" x="264" y="-190.5" font-family="Helvetica,sans-Serif" font-size="10.00">+ GetAttr()</text>
<text text-anchor="start" x="264" y="-179.5" font-family="Helvetica,sans-Serif" font-size="10.00">+ GetAttr()</text>
<text text-anchor="start" x="264" y="-168.5" font-family="Helvetica,sans-Serif" font-size="10.00">+ HasNonzeroAttr()</text>
<text text-anchor="start" x="264" y="-157.5" font-family="Helvetica,sans-Serif" font-size="10.00">+ GetLinkageType()</text>
<text text-anchor="start" x="264" y="-146.5" font-family="Helvetica,sans-Serif" font-size="10.00">+ TVM_FFI_DECLARE_OBJECT</text>
<text text-anchor="start" x="264" y="-135.5" font-family="Helvetica,sans-Serif" font-size="10.00">_INFO()</text>
<text text-anchor="start" x="264" y="-124.5" font-family="Helvetica,sans-Serif" font-size="10.00">+ RegisterReflection()</text>
</a>
</g>
</g>
<!-- Node2&#45;&gt;Node1 -->
<g id="edge1" class="edge">
<title>Node2&#45;&gt;Node1</title>
<path fill="none" stroke="midnightblue" d="M337,-106.93C337,-97.55 337,-88.22 337,-79.67"/>
<polygon fill="none" stroke="midnightblue" points="333.5,-107.11 337,-117.11 340.5,-107.11 333.5,-107.11"/>
</g>
<!-- Node3 -->
<g id="node3" class="node">
<title>Node3</title>
<g id="a_node3"><a xlink:href="classtvm_1_1RelaxExprNode.html" target="_top" xlink:title="Base node of all non&#45;primitive expressions.">
<polygon fill="white" stroke="black" points="193,-278.5 193,-357.5 355,-357.5 355,-278.5 193,-278.5"/>
<text text-anchor="middle" x="274" y="-345.5" font-family="Helvetica,sans-Serif" font-size="10.00">tvm::RelaxExprNode</text>
<polyline fill="none" stroke="black" points="193,-338.5 355,-338.5 "/>
<text text-anchor="start" x="201" y="-326.5" font-family="Helvetica,sans-Serif" font-size="10.00">+ _type_child_slots</text>
<polyline fill="none" stroke="black" points="193,-319.5 355,-319.5 "/>
<text text-anchor="start" x="201" y="-307.5" font-family="Helvetica,sans-Serif" font-size="10.00">+ TVM_FFI_DECLARE_OBJECT</text>
<text text-anchor="start" x="201" y="-296.5" font-family="Helvetica,sans-Serif" font-size="10.00">_INFO()</text>
<text text-anchor="start" x="201" y="-285.5" font-family="Helvetica,sans-Serif" font-size="10.00">+ RegisterReflection()</text>
</a>
</g>
</g>
<!-- Node3&#45;&gt;Node2 -->
<g id="edge2" class="edge">
<title>Node3&#45;&gt;Node2</title>
<path fill="none" stroke="midnightblue" d="M295.9,-269.38C300.18,-260.07 304.72,-250.19 309.17,-240.53"/>
<polygon fill="none" stroke="midnightblue" points="292.71,-267.93 291.72,-278.47 299.07,-270.85 292.71,-267.93"/>
</g>
<!-- Node4 -->
<g id="node4" class="node">
<title>Node4</title>
<g id="a_node4"><a xlink:href="classtvm_1_1BaseExprNode.html" target="_top" xlink:title="Base type of all the expressions.">
<polygon fill="white" stroke="black" points="121,-584.5 121,-674.5 283,-674.5 283,-584.5 121,-584.5"/>
<text text-anchor="middle" x="202" y="-662.5" font-family="Helvetica,sans-Serif" font-size="10.00">tvm::BaseExprNode</text>
<polyline fill="none" stroke="black" points="121,-655.5 283,-655.5 "/>
<text text-anchor="start" x="129" y="-643.5" font-family="Helvetica,sans-Serif" font-size="10.00">+ _type_s_eq_hash_kind</text>
<text text-anchor="start" x="129" y="-632.5" font-family="Helvetica,sans-Serif" font-size="10.00">+ _type_child_slots</text>
<polyline fill="none" stroke="black" points="121,-625.5 283,-625.5 "/>
<text text-anchor="start" x="129" y="-613.5" font-family="Helvetica,sans-Serif" font-size="10.00">+ TVM_FFI_DECLARE_OBJECT</text>
<text text-anchor="start" x="129" y="-602.5" font-family="Helvetica,sans-Serif" font-size="10.00">_INFO()</text>
<text text-anchor="start" x="129" y="-591.5" font-family="Helvetica,sans-Serif" font-size="10.00">+ RegisterReflection()</text>
</a>
</g>
</g>
<!-- Node4&#45;&gt;Node3 -->
<g id="edge3" class="edge">
<title>Node4&#45;&gt;Node3</title>
<path fill="none" stroke="midnightblue" d="M214.56,-574.52C228.95,-512.64 252.2,-412.73 264.93,-357.97"/>
<polygon fill="none" stroke="midnightblue" points="211.1,-573.95 212.24,-584.48 217.91,-575.54 211.1,-573.95"/>
</g>
<!-- Node5 -->
<g id="node5" class="node">
<title>Node5</title>
<g id="a_node5"><a xlink:title=" ">
<polygon fill="white" stroke="#bfbfbf" points="0,-739 0,-796 64,-796 64,-739 0,-739"/>
<text text-anchor="middle" x="32" y="-784" font-family="Helvetica,sans-Serif" font-size="10.00">ffi::Object</text>
<polyline fill="none" stroke="#bfbfbf" points="0,-777 64,-777 "/>
<text text-anchor="middle" x="32" y="-765" font-family="Helvetica,sans-Serif" font-size="10.00"> </text>
<polyline fill="none" stroke="#bfbfbf" points="0,-758 64,-758 "/>
<text text-anchor="middle" x="32" y="-746" font-family="Helvetica,sans-Serif" font-size="10.00"> </text>
</a>
</g>
</g>
<!-- Node5&#45;&gt;Node4 -->
<g id="edge4" class="edge">
<title>Node5&#45;&gt;Node4</title>
<path fill="none" stroke="midnightblue" d="M62.93,-731.49C66.23,-728.19 69.63,-724.97 73,-722 91.86,-705.4 113.72,-688.98 134.02,-674.73"/>
<polygon fill="none" stroke="midnightblue" points="60.3,-729.17 55.85,-738.79 65.33,-734.04 60.3,-729.17"/>
</g>
<!-- Node6 -->
<g id="node6" class="node">
<title>Node6</title>
<g id="a_node6"><a xlink:href="classtvm_1_1Span.html" target="_top" xlink:title=" ">
<polygon fill="white" stroke="black" points="82.5,-722.5 82.5,-812.5 241.5,-812.5 241.5,-722.5 82.5,-722.5"/>
<text text-anchor="middle" x="162" y="-800.5" font-family="Helvetica,sans-Serif" font-size="10.00">tvm::Span</text>
<polyline fill="none" stroke="black" points="82.5,-793.5 241.5,-793.5 "/>
<text text-anchor="middle" x="162" y="-781.5" font-family="Helvetica,sans-Serif" font-size="10.00"> </text>
<polyline fill="none" stroke="black" points="82.5,-774.5 241.5,-774.5 "/>
<text text-anchor="start" x="90.5" y="-762.5" font-family="Helvetica,sans-Serif" font-size="10.00">+ Span()</text>
<text text-anchor="start" x="90.5" y="-751.5" font-family="Helvetica,sans-Serif" font-size="10.00">+ Merge()</text>
<text text-anchor="start" x="90.5" y="-740.5" font-family="Helvetica,sans-Serif" font-size="10.00">+ TVM_FFI_DEFINE_OBJECT</text>
<text text-anchor="start" x="90.5" y="-729.5" font-family="Helvetica,sans-Serif" font-size="10.00">_REF_METHODS_NULLABLE()</text>
</a>
</g>
</g>
<!-- Node6&#45;&gt;Node4 -->
<g id="edge5" class="edge">
<title>Node6&#45;&gt;Node4</title>
<path fill="none" stroke="#404040" d="M174.99,-722.34C178.34,-710.94 181.99,-698.52 185.5,-686.6"/>
<polygon fill="none" stroke="#404040" points="185.56,-686.41 183.41,-679.53 188.94,-674.9 191.09,-681.78 185.56,-686.41"/>
<text text-anchor="middle" x="201.5" y="-696" font-family="Helvetica,sans-Serif" font-size="10.00"> +span</text>
</g>
<!-- Node7 -->
<g id="node7" class="node">
<title>Node7</title>
<g id="a_node7"><a xlink:title=" ">
<polygon fill="white" stroke="#bfbfbf" points="299,-850.5 299,-907.5 379,-907.5 379,-850.5 299,-850.5"/>
<text text-anchor="middle" x="339" y="-895.5" font-family="Helvetica,sans-Serif" font-size="10.00">ffi::ObjectRef</text>
<polyline fill="none" stroke="#bfbfbf" points="299,-888.5 379,-888.5 "/>
<text text-anchor="middle" x="339" y="-876.5" font-family="Helvetica,sans-Serif" font-size="10.00"> </text>
<polyline fill="none" stroke="#bfbfbf" points="299,-869.5 379,-869.5 "/>
<text text-anchor="middle" x="339" y="-857.5" font-family="Helvetica,sans-Serif" font-size="10.00"> </text>
</a>
</g>
</g>
<!-- Node7&#45;&gt;Node6 -->
<g id="edge6" class="edge">
<title>Node7&#45;&gt;Node6</title>
<path fill="none" stroke="midnightblue" d="M289.93,-847.64C272.41,-836.81 252.3,-824.37 233.3,-812.61"/>
<polygon fill="none" stroke="midnightblue" points="288.49,-850.87 298.84,-853.15 292.17,-844.92 288.49,-850.87"/>
</g>
<!-- Node8 -->
<g id="node8" class="node">
<title>Node8</title>
<g id="a_node8"><a xlink:href="classtvm_1_1Type.html" target="_top" xlink:title="Managed reference to TypeNode.">
<polygon fill="white" stroke="black" points="259.5,-733.5 259.5,-801.5 418.5,-801.5 418.5,-733.5 259.5,-733.5"/>
<text text-anchor="middle" x="339" y="-789.5" font-family="Helvetica,sans-Serif" font-size="10.00">tvm::Type</text>
<polyline fill="none" stroke="black" points="259.5,-782.5 418.5,-782.5 "/>
<text text-anchor="middle" x="339" y="-770.5" font-family="Helvetica,sans-Serif" font-size="10.00"> </text>
<polyline fill="none" stroke="black" points="259.5,-763.5 418.5,-763.5 "/>
<text text-anchor="start" x="267.5" y="-751.5" font-family="Helvetica,sans-Serif" font-size="10.00">+ TVM_FFI_DEFINE_OBJECT</text>
<text text-anchor="start" x="267.5" y="-740.5" font-family="Helvetica,sans-Serif" font-size="10.00">_REF_METHODS_NULLABLE()</text>
</a>
</g>
</g>
<!-- Node7&#45;&gt;Node8 -->
<g id="edge8" class="edge">
<title>Node7&#45;&gt;Node8</title>
<path fill="none" stroke="midnightblue" d="M339,-840.2C339,-827.64 339,-813.76 339,-801.59"/>
<polygon fill="none" stroke="midnightblue" points="335.5,-840.37 339,-850.37 342.5,-840.37 335.5,-840.37"/>
</g>
<!-- Node10 -->
<g id="node10" class="node">
<title>Node10</title>
<g id="a_node10"><a xlink:href="classtvm_1_1Attrs.html" target="_top" xlink:title="Managed reference to AttrsNode.">
<polygon fill="white" stroke="black" points="436.5,-733.5 436.5,-801.5 595.5,-801.5 595.5,-733.5 436.5,-733.5"/>
<text text-anchor="middle" x="516" y="-789.5" font-family="Helvetica,sans-Serif" font-size="10.00">tvm::Attrs</text>
<polyline fill="none" stroke="black" points="436.5,-782.5 595.5,-782.5 "/>
<text text-anchor="middle" x="516" y="-770.5" font-family="Helvetica,sans-Serif" font-size="10.00"> </text>
<polyline fill="none" stroke="black" points="436.5,-763.5 595.5,-763.5 "/>
<text text-anchor="start" x="444.5" y="-751.5" font-family="Helvetica,sans-Serif" font-size="10.00">+ TVM_FFI_DEFINE_OBJECT</text>
<text text-anchor="start" x="444.5" y="-740.5" font-family="Helvetica,sans-Serif" font-size="10.00">_REF_METHODS_NULLABLE()</text>
</a>
</g>
</g>
<!-- Node7&#45;&gt;Node10 -->
<g id="edge11" class="edge">
<title>Node7&#45;&gt;Node10</title>
<path fill="none" stroke="midnightblue" d="M387.81,-847.8C411.01,-833.45 438.8,-816.26 462.57,-801.56"/>
<polygon fill="none" stroke="midnightblue" points="385.83,-844.92 379.16,-853.15 389.51,-850.87 385.83,-844.92"/>
</g>
<!-- Node8&#45;&gt;Node4 -->
<g id="edge7" class="edge">
<title>Node8&#45;&gt;Node4</title>
<path fill="none" stroke="#404040" d="M305.49,-733.23C290.38,-718.23 272.16,-700.15 255.25,-683.36"/>
<polygon fill="none" stroke="#404040" points="255.07,-683.18 247.99,-681.79 246.55,-674.73 253.63,-676.11 255.07,-683.18"/>
<text text-anchor="middle" x="286" y="-696" font-family="Helvetica,sans-Serif" font-size="10.00"> +ty</text>
</g>
<!-- Node9 -->
<g id="node9" class="node">
<title>Node9</title>
<g id="a_node9"><a xlink:href="classtvm_1_1DictAttrs.html" target="_top" xlink:title="Managed reference to DictAttrsNode.">
<polygon fill="white" stroke="black" points="324,-376.5 324,-565.5 480,-565.5 480,-376.5 324,-376.5"/>
<text text-anchor="middle" x="402" y="-553.5" font-family="Helvetica,sans-Serif" font-size="10.00">tvm::DictAttrs</text>
<polyline fill="none" stroke="black" points="324,-546.5 480,-546.5 "/>
<text text-anchor="start" x="332" y="-534.5" font-family="Helvetica,sans-Serif" font-size="10.00">+ _type_is_nullable</text>
<polyline fill="none" stroke="black" points="324,-527.5 480,-527.5 "/>
<text text-anchor="start" x="332" y="-515.5" font-family="Helvetica,sans-Serif" font-size="10.00">+ DictAttrs()</text>
<text text-anchor="start" x="332" y="-504.5" font-family="Helvetica,sans-Serif" font-size="10.00">+ DictAttrs()</text>
<text text-anchor="start" x="332" y="-493.5" font-family="Helvetica,sans-Serif" font-size="10.00">+ operator=()</text>
<text text-anchor="start" x="332" y="-482.5" font-family="Helvetica,sans-Serif" font-size="10.00">+ DictAttrs()</text>
<text text-anchor="start" x="332" y="-471.5" font-family="Helvetica,sans-Serif" font-size="10.00">+ operator=()</text>
<text text-anchor="start" x="332" y="-460.5" font-family="Helvetica,sans-Serif" font-size="10.00">+ GetAttr()</text>
<text text-anchor="start" x="332" y="-449.5" font-family="Helvetica,sans-Serif" font-size="10.00">+ GetAttr()</text>
<text text-anchor="start" x="332" y="-438.5" font-family="Helvetica,sans-Serif" font-size="10.00">+ HasNonzeroAttr()</text>
<text text-anchor="start" x="332" y="-427.5" font-family="Helvetica,sans-Serif" font-size="10.00">+ DictAttrs()</text>
<text text-anchor="start" x="332" y="-416.5" font-family="Helvetica,sans-Serif" font-size="10.00">+ operator&#45;&gt;()</text>
<text text-anchor="start" x="332" y="-405.5" font-family="Helvetica,sans-Serif" font-size="10.00">+ get()</text>
<text text-anchor="start" x="332" y="-394.5" font-family="Helvetica,sans-Serif" font-size="10.00">+ TVM_DEFINE_OBJECT_REF</text>
<text text-anchor="start" x="332" y="-383.5" font-family="Helvetica,sans-Serif" font-size="10.00">_COW_METHOD()</text>
</a>
</g>
</g>
<!-- Node9&#45;&gt;Node2 -->
<g id="edge9" class="edge">
<title>Node9&#45;&gt;Node2</title>
<path fill="none" stroke="#404040" d="M384.91,-376.44C378.8,-345.05 371.54,-309.91 364,-278 362.03,-269.68 359.84,-260.99 357.58,-252.38"/>
<polygon fill="none" stroke="#404040" points="357.57,-252.32 352.16,-247.55 354.48,-240.72 359.89,-245.49 357.57,-252.32"/>
<text text-anchor="middle" x="398" y="-315.5" font-family="Helvetica,sans-Serif" font-size="10.00"> +attrs</text>
</g>
<!-- Node10&#45;&gt;Node9 -->
<g id="edge10" class="edge">
<title>Node10&#45;&gt;Node9</title>
<path fill="none" stroke="midnightblue" d="M499.48,-723.83C483.52,-682.6 458.81,-618.76 438.26,-565.68"/>
<polygon fill="none" stroke="midnightblue" points="496.27,-725.23 503.14,-733.29 502.8,-722.7 496.27,-725.23"/>
</g>
</g>
</svg>
