<?xml version="1.0" encoding="UTF-8" standalone="no"?>
<!DOCTYPE svg PUBLIC "-//W3C//DTD SVG 1.1//EN"
 "http://www.w3.org/Graphics/SVG/1.1/DTD/svg11.dtd">
<!-- Generated by graphviz version 2.43.0 (0)
 -->
<!-- Title: include/tvm/script/printer/config.h Pages: 1 -->
<svg width="1040pt" height="218pt"
 viewBox="0.00 0.00 1039.50 218.00" xmlns="http://www.w3.org/2000/svg" xmlns:xlink="http://www.w3.org/1999/xlink">
<g id="graph0" class="graph" transform="scale(1 1) rotate(0) translate(4 214)">
<title>include/tvm/script/printer/config.h</title>
<polygon fill="white" stroke="transparent" points="-4,4 -4,-214 1035.5,-214 1035.5,4 -4,4"/>
<!-- Node1 -->
<g id="node1" class="node">
<title>Node1</title>
<g id="a_node1"><a xlink:title="Configuration object for the TVMScript printer.">
<polygon fill="#bfbfbf" stroke="black" points="452.5,-179.5 452.5,-209.5 556.5,-209.5 556.5,-179.5 452.5,-179.5"/>
<text text-anchor="start" x="460.5" y="-197.5" font-family="Helvetica,sans-Serif" font-size="10.00">include/tvm/script</text>
<text text-anchor="middle" x="504.5" y="-186.5" font-family="Helvetica,sans-Serif" font-size="10.00">/printer/config.h</text>
</a>
</g>
</g>
<!-- Node2 -->
<g id="node2" class="node">
<title>Node2</title>
<g id="a_node2"><a xlink:title=" ">
<polygon fill="white" stroke="#bfbfbf" points="0,-118 0,-137 77,-137 77,-118 0,-118"/>
<text text-anchor="middle" x="38.5" y="-125" font-family="Helvetica,sans-Serif" font-size="10.00">tvm/ffi/any.h</text>
</a>
</g>
</g>
<!-- Node1&#45;&gt;Node2 -->
<g id="edge1" class="edge">
<title>Node1&#45;&gt;Node2</title>
<path fill="none" stroke="midnightblue" d="M452.22,-190.1C372.61,-184.28 216.52,-170.28 86.5,-143 82.28,-142.12 77.9,-141.03 73.58,-139.86"/>
<polygon fill="midnightblue" stroke="midnightblue" points="74.28,-136.41 63.7,-137.01 72.34,-143.14 74.28,-136.41"/>
</g>
<!-- Node3 -->
<g id="node3" class="node">
<title>Node3</title>
<g id="a_node3"><a xlink:title=" ">
<polygon fill="white" stroke="#bfbfbf" points="95.5,-118 95.5,-137 229.5,-137 229.5,-118 95.5,-118"/>
<text text-anchor="middle" x="162.5" y="-125" font-family="Helvetica,sans-Serif" font-size="10.00">tvm/ffi/container/array.h</text>
</a>
</g>
</g>
<!-- Node1&#45;&gt;Node3 -->
<g id="edge2" class="edge">
<title>Node1&#45;&gt;Node3</title>
<path fill="none" stroke="midnightblue" d="M452.26,-183.6C398.62,-173.42 312.73,-157.13 238.5,-143 231.67,-141.7 224.5,-140.33 217.4,-138.98"/>
<polygon fill="midnightblue" stroke="midnightblue" points="217.59,-135.45 207.11,-137.02 216.27,-142.33 217.59,-135.45"/>
</g>
<!-- Node4 -->
<g id="node4" class="node">
<title>Node4</title>
<g id="a_node4"><a xlink:title=" ">
<polygon fill="white" stroke="#bfbfbf" points="248,-118 248,-137 379,-137 379,-118 248,-118"/>
<text text-anchor="middle" x="313.5" y="-125" font-family="Helvetica,sans-Serif" font-size="10.00">tvm/ffi/container/map.h</text>
</a>
</g>
</g>
<!-- Node1&#45;&gt;Node4 -->
<g id="edge3" class="edge">
<title>Node1&#45;&gt;Node4</title>
<path fill="none" stroke="midnightblue" d="M463.06,-179.4C428.65,-167.69 380.3,-151.23 347.98,-140.23"/>
<polygon fill="midnightblue" stroke="midnightblue" points="349.09,-136.92 338.5,-137.01 346.84,-143.54 349.09,-136.92"/>
</g>
<!-- Node5 -->
<g id="node5" class="node">
<title>Node5</title>
<g id="a_node5"><a xlink:title=" ">
<polygon fill="white" stroke="#bfbfbf" points="397.5,-112.5 397.5,-142.5 495.5,-142.5 495.5,-112.5 397.5,-112.5"/>
<text text-anchor="start" x="405.5" y="-130.5" font-family="Helvetica,sans-Serif" font-size="10.00">tvm/ffi/reflection</text>
<text text-anchor="middle" x="446.5" y="-119.5" font-family="Helvetica,sans-Serif" font-size="10.00">/access_path.h</text>
</a>
</g>
</g>
<!-- Node1&#45;&gt;Node5 -->
<g id="edge4" class="edge">
<title>Node1&#45;&gt;Node5</title>
<path fill="none" stroke="midnightblue" d="M491.91,-179.4C484.31,-170.88 474.47,-159.85 465.89,-150.23"/>
<polygon fill="midnightblue" stroke="midnightblue" points="468.33,-147.71 459.06,-142.58 463.11,-152.37 468.33,-147.71"/>
</g>
<!-- Node6 -->
<g id="node6" class="node">
<title>Node6</title>
<g id="a_node6"><a xlink:title=" ">
<polygon fill="white" stroke="#bfbfbf" points="513.5,-112.5 513.5,-142.5 611.5,-142.5 611.5,-112.5 513.5,-112.5"/>
<text text-anchor="start" x="521.5" y="-130.5" font-family="Helvetica,sans-Serif" font-size="10.00">tvm/ffi/reflection</text>
<text text-anchor="middle" x="562.5" y="-119.5" font-family="Helvetica,sans-Serif" font-size="10.00">/registry.h</text>
</a>
</g>
</g>
<!-- Node1&#45;&gt;Node6 -->
<g id="edge5" class="edge">
<title>Node1&#45;&gt;Node6</title>
<path fill="none" stroke="midnightblue" d="M517.09,-179.4C524.69,-170.88 534.53,-159.85 543.11,-150.23"/>
<polygon fill="midnightblue" stroke="midnightblue" points="545.89,-152.37 549.94,-142.58 540.67,-147.71 545.89,-152.37"/>
</g>
<!-- Node7 -->
<g id="node7" class="node">
<title>Node7</title>
<g id="a_node7"><a xlink:title=" ">
<polygon fill="white" stroke="#bfbfbf" points="630,-118 630,-137 719,-137 719,-118 630,-118"/>
<text text-anchor="middle" x="674.5" y="-125" font-family="Helvetica,sans-Serif" font-size="10.00">tvm/ffi/string.h</text>
</a>
</g>
</g>
<!-- Node1&#45;&gt;Node7 -->
<g id="edge6" class="edge">
<title>Node1&#45;&gt;Node7</title>
<path fill="none" stroke="midnightblue" d="M541.39,-179.4C571.61,-167.84 613.94,-151.66 642.69,-140.66"/>
<polygon fill="midnightblue" stroke="midnightblue" points="644.16,-143.85 652.25,-137.01 641.66,-137.31 644.16,-143.85"/>
</g>
<!-- Node8 -->
<g id="node8" class="node">
<title>Node8</title>
<g id="a_node8"><a xlink:href="data__type_8h.html" target="_top" xlink:title=" ">
<polygon fill="white" stroke="black" points="737.5,-118 737.5,-137 875.5,-137 875.5,-118 737.5,-118"/>
<text text-anchor="middle" x="806.5" y="-125" font-family="Helvetica,sans-Serif" font-size="10.00">tvm/runtime/data_type.h</text>
</a>
</g>
</g>
<!-- Node1&#45;&gt;Node8 -->
<g id="edge7" class="edge">
<title>Node1&#45;&gt;Node8</title>
<path fill="none" stroke="midnightblue" d="M556.76,-182.25C613.02,-170.14 701.85,-151.02 757.01,-139.15"/>
<polygon fill="midnightblue" stroke="midnightblue" points="757.86,-142.55 766.9,-137.02 756.39,-135.7 757.86,-142.55"/>
</g>
<!-- Node15 -->
<g id="node15" class="node">
<title>Node15</title>
<g id="a_node15"><a xlink:title=" ">
<polygon fill="white" stroke="#bfbfbf" points="987.5,-56.5 987.5,-75.5 1031.5,-75.5 1031.5,-56.5 987.5,-56.5"/>
<text text-anchor="middle" x="1009.5" y="-63.5" font-family="Helvetica,sans-Serif" font-size="10.00">string</text>
</a>
</g>
</g>
<!-- Node1&#45;&gt;Node15 -->
<g id="edge16" class="edge">
<title>Node1&#45;&gt;Node15</title>
<path fill="none" stroke="midnightblue" d="M556.78,-193.29C631.53,-191.51 772.32,-182.58 884.5,-143 925.49,-128.54 967.54,-99.45 990.91,-81.75"/>
<polygon fill="midnightblue" stroke="midnightblue" points="993.13,-84.46 998.91,-75.58 988.86,-78.91 993.13,-84.46"/>
</g>
<!-- Node9 -->
<g id="node9" class="node">
<title>Node9</title>
<g id="a_node9"><a xlink:title=" ">
<polygon fill="white" stroke="#bfbfbf" points="335,-56.5 335,-75.5 474,-75.5 474,-56.5 335,-56.5"/>
<text text-anchor="middle" x="404.5" y="-63.5" font-family="Helvetica,sans-Serif" font-size="10.00">tvm/ffi/container/shape.h</text>
</a>
</g>
</g>
<!-- Node8&#45;&gt;Node9 -->
<g id="edge8" class="edge">
<title>Node8&#45;&gt;Node9</title>
<path fill="none" stroke="midnightblue" d="M761.85,-117.96C750.65,-115.91 738.65,-113.8 727.5,-112 643.8,-98.5 547.51,-85.39 481.99,-76.84"/>
<polygon fill="midnightblue" stroke="midnightblue" points="482.11,-73.33 471.75,-75.51 481.21,-80.27 482.11,-73.33"/>
</g>
<!-- Node10 -->
<g id="node10" class="node">
<title>Node10</title>
<g id="a_node10"><a xlink:title=" ">
<polygon fill="white" stroke="#bfbfbf" points="492,-56.5 492,-75.5 581,-75.5 581,-56.5 492,-56.5"/>
<text text-anchor="middle" x="536.5" y="-63.5" font-family="Helvetica,sans-Serif" font-size="10.00">tvm/ffi/dtype.h</text>
</a>
</g>
</g>
<!-- Node8&#45;&gt;Node10 -->
<g id="edge9" class="edge">
<title>Node8&#45;&gt;Node10</title>
<path fill="none" stroke="midnightblue" d="M767.82,-117.98C719.7,-107.37 637.51,-89.26 585.17,-77.72"/>
<polygon fill="midnightblue" stroke="midnightblue" points="585.63,-74.24 575.11,-75.51 584.13,-81.08 585.63,-74.24"/>
</g>
<!-- Node11 -->
<g id="node11" class="node">
<title>Node11</title>
<g id="a_node11"><a xlink:title=" ">
<polygon fill="white" stroke="#bfbfbf" points="599,-56.5 599,-75.5 682,-75.5 682,-56.5 599,-56.5"/>
<text text-anchor="middle" x="640.5" y="-63.5" font-family="Helvetica,sans-Serif" font-size="10.00">tvm/ffi/error.h</text>
</a>
</g>
</g>
<!-- Node8&#45;&gt;Node11 -->
<g id="edge10" class="edge">
<title>Node8&#45;&gt;Node11</title>
<path fill="none" stroke="midnightblue" d="M782.72,-117.98C754.12,-107.72 705.95,-90.46 673.7,-78.9"/>
<polygon fill="midnightblue" stroke="midnightblue" points="674.83,-75.59 664.24,-75.51 672.47,-82.18 674.83,-75.59"/>
</g>
<!-- Node12 -->
<g id="node12" class="node">
<title>Node12</title>
<g id="a_node12"><a xlink:href="runtime_2base_8h.html" target="_top" xlink:title=" ">
<polygon fill="white" stroke="black" points="700,-56.5 700,-75.5 813,-75.5 813,-56.5 700,-56.5"/>
<text text-anchor="middle" x="756.5" y="-63.5" font-family="Helvetica,sans-Serif" font-size="10.00">tvm/runtime/base.h</text>
</a>
</g>
</g>
<!-- Node8&#45;&gt;Node12 -->
<g id="edge11" class="edge">
<title>Node8&#45;&gt;Node12</title>
<path fill="none" stroke="midnightblue" d="M799.34,-117.98C791.76,-108.96 779.63,-94.52 770.21,-83.31"/>
<polygon fill="midnightblue" stroke="midnightblue" points="772.76,-80.91 763.65,-75.51 767.4,-85.42 772.76,-80.91"/>
</g>
<!-- Node14 -->
<g id="node14" class="node">
<title>Node14</title>
<g id="a_node14"><a xlink:title=" ">
<polygon fill="white" stroke="#bfbfbf" points="831.5,-56.5 831.5,-75.5 881.5,-75.5 881.5,-56.5 831.5,-56.5"/>
<text text-anchor="middle" x="856.5" y="-63.5" font-family="Helvetica,sans-Serif" font-size="10.00">cstring</text>
</a>
</g>
</g>
<!-- Node8&#45;&gt;Node14 -->
<g id="edge13" class="edge">
<title>Node8&#45;&gt;Node14</title>
<path fill="none" stroke="midnightblue" d="M813.66,-117.98C821.24,-108.96 833.37,-94.52 842.79,-83.31"/>
<polygon fill="midnightblue" stroke="midnightblue" points="845.6,-85.42 849.35,-75.51 840.24,-80.91 845.6,-85.42"/>
</g>
<!-- Node8&#45;&gt;Node15 -->
<g id="edge14" class="edge">
<title>Node8&#45;&gt;Node15</title>
<path fill="none" stroke="midnightblue" d="M835.58,-117.98C873.22,-106.94 938.58,-87.79 977.56,-76.36"/>
<polygon fill="midnightblue" stroke="midnightblue" points="978.73,-79.67 987.34,-73.49 976.76,-72.95 978.73,-79.67"/>
</g>
<!-- Node16 -->
<g id="node16" class="node">
<title>Node16</title>
<g id="a_node16"><a xlink:title=" ">
<polygon fill="white" stroke="#bfbfbf" points="900,-56.5 900,-75.5 969,-75.5 969,-56.5 900,-56.5"/>
<text text-anchor="middle" x="934.5" y="-63.5" font-family="Helvetica,sans-Serif" font-size="10.00">type_traits</text>
</a>
</g>
</g>
<!-- Node8&#45;&gt;Node16 -->
<g id="edge15" class="edge">
<title>Node8&#45;&gt;Node16</title>
<path fill="none" stroke="midnightblue" d="M824.84,-117.98C846.32,-107.99 882.12,-91.35 906.95,-79.81"/>
<polygon fill="midnightblue" stroke="midnightblue" points="908.6,-82.9 916.19,-75.51 905.65,-76.55 908.6,-82.9"/>
</g>
<!-- Node13 -->
<g id="node13" class="node">
<title>Node13</title>
<g id="a_node13"><a xlink:title=" ">
<polygon fill="white" stroke="#bfbfbf" points="713.5,-0.5 713.5,-19.5 799.5,-19.5 799.5,-0.5 713.5,-0.5"/>
<text text-anchor="middle" x="756.5" y="-7.5" font-family="Helvetica,sans-Serif" font-size="10.00">tvm/ffi/c_api.h</text>
</a>
</g>
</g>
<!-- Node12&#45;&gt;Node13 -->
<g id="edge12" class="edge">
<title>Node12&#45;&gt;Node13</title>
<path fill="none" stroke="midnightblue" d="M756.5,-56.08C756.5,-49.01 756.5,-38.86 756.5,-29.99"/>
<polygon fill="midnightblue" stroke="midnightblue" points="760,-29.75 756.5,-19.75 753,-29.75 760,-29.75"/>
</g>
</g>
</svg>
