<?xml version="1.0" encoding="UTF-8" standalone="no"?>
<!DOCTYPE svg PUBLIC "-//W3C//DTD SVG 1.1//EN"
 "http://www.w3.org/Graphics/SVG/1.1/DTD/svg11.dtd">
<!-- Generated by graphviz version 2.43.0 (0)
 -->
<!-- Title: include/tvm/script/printer/doc.h Pages: 1 -->
<svg width="1734pt" height="296pt"
 viewBox="0.00 0.00 1733.60 296.00" xmlns="http://www.w3.org/2000/svg" xmlns:xlink="http://www.w3.org/1999/xlink">
<g id="graph0" class="graph" transform="scale(1 1) rotate(0) translate(4 292)">
<title>include/tvm/script/printer/doc.h</title>
<polygon fill="white" stroke="transparent" points="-4,4 -4,-292 1729.6,-292 1729.6,4 -4,4"/>
<!-- Node1 -->
<g id="node1" class="node">
<title>Node1</title>
<g id="a_node1"><a xlink:title=" ">
<polygon fill="#bfbfbf" stroke="black" points="1138,-257.5 1138,-287.5 1242,-287.5 1242,-257.5 1138,-257.5"/>
<text text-anchor="start" x="1146" y="-275.5" font-family="Helvetica,sans-Serif" font-size="10.00">include/tvm/script</text>
<text text-anchor="middle" x="1190" y="-264.5" font-family="Helvetica,sans-Serif" font-size="10.00">/printer/doc.h</text>
</a>
</g>
</g>
<!-- Node2 -->
<g id="node2" class="node">
<title>Node2</title>
<g id="a_node2"><a xlink:title=" ">
<polygon fill="white" stroke="#bfbfbf" points="1612,-123.5 1612,-153.5 1710,-153.5 1710,-123.5 1612,-123.5"/>
<text text-anchor="start" x="1620" y="-141.5" font-family="Helvetica,sans-Serif" font-size="10.00">tvm/ffi/reflection</text>
<text text-anchor="middle" x="1661" y="-130.5" font-family="Helvetica,sans-Serif" font-size="10.00">/access_path.h</text>
</a>
</g>
</g>
<!-- Node1&#45;&gt;Node2 -->
<g id="edge1" class="edge">
<title>Node1&#45;&gt;Node2</title>
<path fill="none" stroke="midnightblue" d="M1242.27,-257.4C1279.35,-247.35 1330.26,-233.48 1375,-221 1453.98,-198.97 1545.03,-172.91 1602.79,-156.29"/>
<polygon fill="midnightblue" stroke="midnightblue" points="1603.82,-159.64 1612.47,-153.51 1601.89,-152.91 1603.82,-159.64"/>
</g>
<!-- Node3 -->
<g id="node3" class="node">
<title>Node3</title>
<g id="a_node3"><a xlink:title=" ">
<polygon fill="white" stroke="#bfbfbf" points="0,-56.5 0,-86.5 98,-86.5 98,-56.5 0,-56.5"/>
<text text-anchor="start" x="8" y="-74.5" font-family="Helvetica,sans-Serif" font-size="10.00">tvm/ffi/reflection</text>
<text text-anchor="middle" x="49" y="-63.5" font-family="Helvetica,sans-Serif" font-size="10.00">/registry.h</text>
</a>
</g>
</g>
<!-- Node1&#45;&gt;Node3 -->
<g id="edge2" class="edge">
<title>Node1&#45;&gt;Node3</title>
<path fill="none" stroke="midnightblue" d="M1137.68,-270.26C922.42,-264.61 113.07,-237.9 40,-154 26.35,-138.33 31.2,-114.03 37.88,-96.04"/>
<polygon fill="midnightblue" stroke="midnightblue" points="41.12,-97.37 41.67,-86.79 34.64,-94.71 41.12,-97.37"/>
</g>
<!-- Node4 -->
<g id="node4" class="node">
<title>Node4</title>
<g id="a_node4"><a xlink:href="ir_2expr_8h.html" target="_top" xlink:title="Base expr nodes in TVM.">
<polygon fill="white" stroke="black" points="532.5,-196 532.5,-215 611.5,-215 611.5,-196 532.5,-196"/>
<text text-anchor="middle" x="572" y="-203" font-family="Helvetica,sans-Serif" font-size="10.00">tvm/ir/expr.h</text>
</a>
</g>
</g>
<!-- Node1&#45;&gt;Node4 -->
<g id="edge3" class="edge">
<title>Node1&#45;&gt;Node4</title>
<path fill="none" stroke="midnightblue" d="M1137.84,-266.01C1020.47,-253.67 736.89,-223.84 621.79,-211.74"/>
<polygon fill="midnightblue" stroke="midnightblue" points="622.15,-208.26 611.84,-210.69 621.42,-215.22 622.15,-208.26"/>
</g>
<!-- Node16 -->
<g id="node16" class="node">
<title>Node16</title>
<g id="a_node16"><a xlink:title=" ">
<polygon fill="white" stroke="#bfbfbf" points="1362,-62 1362,-81 1406,-81 1406,-62 1362,-62"/>
<text text-anchor="middle" x="1384" y="-69" font-family="Helvetica,sans-Serif" font-size="10.00">string</text>
</a>
</g>
</g>
<!-- Node1&#45;&gt;Node16 -->
<g id="edge50" class="edge">
<title>Node1&#45;&gt;Node16</title>
<path fill="none" stroke="midnightblue" d="M1242.38,-268.02C1364.09,-258.71 1660.1,-228.71 1719,-154 1727.53,-143.18 1727.99,-133.44 1719,-123 1680.15,-77.85 1493.08,-72.53 1416.64,-72.28"/>
<polygon fill="midnightblue" stroke="midnightblue" points="1416.2,-68.78 1406.2,-72.28 1416.2,-75.78 1416.2,-68.78"/>
</g>
<!-- Node18 -->
<g id="node18" class="node">
<title>Node18</title>
<g id="a_node18"><a xlink:href="data__type_8h.html" target="_top" xlink:title=" ">
<polygon fill="white" stroke="black" points="832,-129 832,-148 970,-148 970,-129 832,-129"/>
<text text-anchor="middle" x="901" y="-136" font-family="Helvetica,sans-Serif" font-size="10.00">tvm/runtime/data_type.h</text>
</a>
</g>
</g>
<!-- Node1&#45;&gt;Node18 -->
<g id="edge33" class="edge">
<title>Node1&#45;&gt;Node18</title>
<path fill="none" stroke="midnightblue" d="M1159.35,-257.5C1103,-231.76 983.77,-177.3 929.26,-152.41"/>
<polygon fill="midnightblue" stroke="midnightblue" points="930.42,-149.09 919.87,-148.12 927.51,-155.46 930.42,-149.09"/>
</g>
<!-- Node27 -->
<g id="node27" class="node">
<title>Node27</title>
<g id="a_node27"><a xlink:href="device__api_8h.html" target="_top" xlink:title="Abstract device memory management API.">
<polygon fill="white" stroke="black" points="1133.5,-190.5 1133.5,-220.5 1246.5,-220.5 1246.5,-190.5 1133.5,-190.5"/>
<text text-anchor="start" x="1141.5" y="-208.5" font-family="Helvetica,sans-Serif" font-size="10.00">tvm/runtime/device</text>
<text text-anchor="middle" x="1190" y="-197.5" font-family="Helvetica,sans-Serif" font-size="10.00">_api.h</text>
</a>
</g>
</g>
<!-- Node1&#45;&gt;Node27 -->
<g id="edge34" class="edge">
<title>Node1&#45;&gt;Node27</title>
<path fill="none" stroke="midnightblue" d="M1190,-257.4C1190,-249.64 1190,-239.81 1190,-230.86"/>
<polygon fill="midnightblue" stroke="midnightblue" points="1193.5,-230.58 1190,-220.58 1186.5,-230.58 1193.5,-230.58"/>
</g>
<!-- Node30 -->
<g id="node30" class="node">
<title>Node30</title>
<g id="a_node30"><a xlink:href="config_8h.html" target="_top" xlink:title="Configuration object for the TVMScript printer.">
<polygon fill="white" stroke="black" points="1264.5,-190.5 1264.5,-220.5 1365.5,-220.5 1365.5,-190.5 1264.5,-190.5"/>
<text text-anchor="start" x="1272.5" y="-208.5" font-family="Helvetica,sans-Serif" font-size="10.00">tvm/script/printer</text>
<text text-anchor="middle" x="1315" y="-197.5" font-family="Helvetica,sans-Serif" font-size="10.00">/config.h</text>
</a>
</g>
</g>
<!-- Node1&#45;&gt;Node30 -->
<g id="edge41" class="edge">
<title>Node1&#45;&gt;Node30</title>
<path fill="none" stroke="midnightblue" d="M1217.12,-257.4C1235.22,-247.98 1259.23,-235.5 1278.93,-225.26"/>
<polygon fill="midnightblue" stroke="midnightblue" points="1280.67,-228.3 1287.93,-220.58 1277.44,-222.08 1280.67,-228.3"/>
</g>
<!-- Node4&#45;&gt;Node3 -->
<g id="edge5" class="edge">
<title>Node4&#45;&gt;Node3</title>
<path fill="none" stroke="midnightblue" d="M532.15,-203.45C417.09,-200.03 90.43,-187.43 57,-154 42.29,-139.29 41.78,-114.78 44.04,-96.47"/>
<polygon fill="midnightblue" stroke="midnightblue" points="47.51,-96.95 45.61,-86.53 40.6,-95.86 47.51,-96.95"/>
</g>
<!-- Node5 -->
<g id="node5" class="node">
<title>Node5</title>
<g id="a_node5"><a xlink:title=" ">
<polygon fill="white" stroke="#bfbfbf" points="66,-129 66,-148 202,-148 202,-129 66,-129"/>
<text text-anchor="middle" x="134" y="-136" font-family="Helvetica,sans-Serif" font-size="10.00">tvm/ffi/extra/dataclass.h</text>
</a>
</g>
</g>
<!-- Node4&#45;&gt;Node5 -->
<g id="edge4" class="edge">
<title>Node4&#45;&gt;Node5</title>
<path fill="none" stroke="midnightblue" d="M532.38,-199.58C465.83,-191.17 327.47,-173.1 211,-154 203.35,-152.75 195.3,-151.33 187.4,-149.89"/>
<polygon fill="midnightblue" stroke="midnightblue" points="187.98,-146.44 177.51,-148.06 186.71,-153.32 187.98,-146.44"/>
</g>
<!-- Node6 -->
<g id="node6" class="node">
<title>Node6</title>
<g id="a_node6"><a xlink:title=" ">
<polygon fill="white" stroke="#bfbfbf" points="1145.5,-129 1145.5,-148 1234.5,-148 1234.5,-129 1145.5,-129"/>
<text text-anchor="middle" x="1190" y="-136" font-family="Helvetica,sans-Serif" font-size="10.00">tvm/ffi/string.h</text>
</a>
</g>
</g>
<!-- Node4&#45;&gt;Node6 -->
<g id="edge6" class="edge">
<title>Node4&#45;&gt;Node6</title>
<path fill="none" stroke="midnightblue" d="M611.63,-203.31C704.12,-200.01 941.2,-188.61 1136,-154 1141.18,-153.08 1146.59,-151.9 1151.9,-150.61"/>
<polygon fill="midnightblue" stroke="midnightblue" points="1153.09,-153.92 1161.9,-148.03 1151.34,-147.14 1153.09,-153.92"/>
</g>
<!-- Node7 -->
<g id="node7" class="node">
<title>Node7</title>
<g id="a_node7"><a xlink:href="cow_8h.html" target="_top" xlink:title="Copy&#45;on&#45;write helper macro for IR ffi::ObjectRef types.">
<polygon fill="white" stroke="black" points="220.5,-129 220.5,-148 297.5,-148 297.5,-129 220.5,-129"/>
<text text-anchor="middle" x="259" y="-136" font-family="Helvetica,sans-Serif" font-size="10.00">tvm/ir/cow.h</text>
</a>
</g>
</g>
<!-- Node4&#45;&gt;Node7 -->
<g id="edge7" class="edge">
<title>Node4&#45;&gt;Node7</title>
<path fill="none" stroke="midnightblue" d="M532.21,-198.26C480.12,-189.78 386.14,-173.44 307,-154 303.16,-153.06 299.18,-151.99 295.22,-150.88"/>
<polygon fill="midnightblue" stroke="midnightblue" points="296.1,-147.49 285.52,-148.05 294.14,-154.21 296.1,-147.49"/>
</g>
<!-- Node10 -->
<g id="node10" class="node">
<title>Node10</title>
<g id="a_node10"><a xlink:href="source__map_8h.html" target="_top" xlink:title="A map from source names to source code.">
<polygon fill="white" stroke="black" points="582.5,-129 582.5,-148 699.5,-148 699.5,-129 582.5,-129"/>
<text text-anchor="middle" x="641" y="-136" font-family="Helvetica,sans-Serif" font-size="10.00">tvm/ir/source_map.h</text>
</a>
</g>
</g>
<!-- Node4&#45;&gt;Node10 -->
<g id="edge10" class="edge">
<title>Node4&#45;&gt;Node10</title>
<path fill="none" stroke="midnightblue" d="M581.31,-195.73C592.27,-185.4 610.71,-168.04 624.19,-155.33"/>
<polygon fill="midnightblue" stroke="midnightblue" points="626.96,-157.53 631.84,-148.13 622.16,-152.44 626.96,-157.53"/>
</g>
<!-- Node4&#45;&gt;Node16 -->
<g id="edge31" class="edge">
<title>Node4&#45;&gt;Node16</title>
<path fill="none" stroke="midnightblue" d="M611.51,-202.38C700.35,-197.18 913.28,-182.09 979,-154 999.04,-145.43 996.89,-131.4 1017,-123 1155.18,-65.28 1207.53,-126.4 1352,-87 1354.15,-86.41 1356.34,-85.7 1358.51,-84.9"/>
<polygon fill="midnightblue" stroke="midnightblue" points="1359.87,-88.13 1367.76,-81.06 1357.19,-81.67 1359.87,-88.13"/>
</g>
<!-- Node4&#45;&gt;Node18 -->
<g id="edge20" class="edge">
<title>Node4&#45;&gt;Node18</title>
<path fill="none" stroke="midnightblue" d="M611.69,-196.66C670.65,-185.01 781.54,-163.1 847.58,-150.05"/>
<polygon fill="midnightblue" stroke="midnightblue" points="848.65,-153.41 857.78,-148.04 847.29,-146.54 848.65,-153.41"/>
</g>
<!-- Node23 -->
<g id="node23" class="node">
<title>Node23</title>
<g id="a_node23"><a xlink:title=" ">
<polygon fill="white" stroke="#bfbfbf" points="840.5,-62 840.5,-81 909.5,-81 909.5,-62 840.5,-62"/>
<text text-anchor="middle" x="875" y="-69" font-family="Helvetica,sans-Serif" font-size="10.00">type_traits</text>
</a>
</g>
</g>
<!-- Node4&#45;&gt;Node23 -->
<g id="edge32" class="edge">
<title>Node4&#45;&gt;Node23</title>
<path fill="none" stroke="midnightblue" d="M597.36,-195.92C624.9,-186.42 670.03,-170.27 708,-154 759.06,-132.12 816.98,-102.8 849.44,-85.95"/>
<polygon fill="midnightblue" stroke="midnightblue" points="851.41,-88.87 858.66,-81.14 848.17,-82.67 851.41,-88.87"/>
</g>
<!-- Node24 -->
<g id="node24" class="node">
<title>Node24</title>
<g id="a_node24"><a xlink:title=" ">
<polygon fill="white" stroke="#bfbfbf" points="316,-129 316,-148 380,-148 380,-129 316,-129"/>
<text text-anchor="middle" x="348" y="-136" font-family="Helvetica,sans-Serif" font-size="10.00">algorithm</text>
</a>
</g>
</g>
<!-- Node4&#45;&gt;Node24 -->
<g id="edge28" class="edge">
<title>Node4&#45;&gt;Node24</title>
<path fill="none" stroke="midnightblue" d="M538.4,-195.99C501.53,-186.47 440.72,-170.26 389,-154 386.39,-153.18 383.7,-152.3 380.99,-151.4"/>
<polygon fill="midnightblue" stroke="midnightblue" points="381.92,-148.01 371.32,-148.07 379.64,-154.63 381.92,-148.01"/>
</g>
<!-- Node25 -->
<g id="node25" class="node">
<title>Node25</title>
<g id="a_node25"><a xlink:title=" ">
<polygon fill="white" stroke="#bfbfbf" points="398.5,-129 398.5,-148 463.5,-148 463.5,-129 398.5,-129"/>
<text text-anchor="middle" x="431" y="-136" font-family="Helvetica,sans-Serif" font-size="10.00">functional</text>
</a>
</g>
</g>
<!-- Node4&#45;&gt;Node25 -->
<g id="edge29" class="edge">
<title>Node4&#45;&gt;Node25</title>
<path fill="none" stroke="midnightblue" d="M553.28,-195.87C529.15,-184.75 487,-165.32 459.05,-152.43"/>
<polygon fill="midnightblue" stroke="midnightblue" points="460.35,-149.18 449.8,-148.17 457.42,-155.53 460.35,-149.18"/>
</g>
<!-- Node26 -->
<g id="node26" class="node">
<title>Node26</title>
<g id="a_node26"><a xlink:title=" ">
<polygon fill="white" stroke="#bfbfbf" points="482,-129 482,-148 526,-148 526,-129 482,-129"/>
<text text-anchor="middle" x="504" y="-136" font-family="Helvetica,sans-Serif" font-size="10.00">limits</text>
</a>
</g>
</g>
<!-- Node4&#45;&gt;Node26 -->
<g id="edge30" class="edge">
<title>Node4&#45;&gt;Node26</title>
<path fill="none" stroke="midnightblue" d="M562.83,-195.73C552.02,-185.4 533.85,-168.04 520.56,-155.33"/>
<polygon fill="midnightblue" stroke="midnightblue" points="522.67,-152.51 513.03,-148.13 517.84,-157.57 522.67,-152.51"/>
</g>
<!-- Node8 -->
<g id="node8" class="node">
<title>Node8</title>
<g id="a_node8"><a xlink:title=" ">
<polygon fill="white" stroke="#bfbfbf" points="127.5,-62 127.5,-81 218.5,-81 218.5,-62 127.5,-62"/>
<text text-anchor="middle" x="173" y="-69" font-family="Helvetica,sans-Serif" font-size="10.00">tvm/ffi/object.h</text>
</a>
</g>
</g>
<!-- Node7&#45;&gt;Node8 -->
<g id="edge8" class="edge">
<title>Node7&#45;&gt;Node8</title>
<path fill="none" stroke="midnightblue" d="M247.4,-128.73C233.35,-118.11 209.45,-100.05 192.53,-87.26"/>
<polygon fill="midnightblue" stroke="midnightblue" points="194.5,-84.36 184.41,-81.13 190.28,-89.95 194.5,-84.36"/>
</g>
<!-- Node9 -->
<g id="node9" class="node">
<title>Node9</title>
<g id="a_node9"><a xlink:title=" ">
<polygon fill="white" stroke="#bfbfbf" points="236.5,-62 236.5,-81 281.5,-81 281.5,-62 236.5,-62"/>
<text text-anchor="middle" x="259" y="-69" font-family="Helvetica,sans-Serif" font-size="10.00">utility</text>
</a>
</g>
</g>
<!-- Node7&#45;&gt;Node9 -->
<g id="edge9" class="edge">
<title>Node7&#45;&gt;Node9</title>
<path fill="none" stroke="midnightblue" d="M259,-128.73C259,-119.18 259,-103.62 259,-91.28"/>
<polygon fill="midnightblue" stroke="midnightblue" points="262.5,-91.13 259,-81.13 255.5,-91.13 262.5,-91.13"/>
</g>
<!-- Node10&#45;&gt;Node3 -->
<g id="edge13" class="edge">
<title>Node10&#45;&gt;Node3</title>
<path fill="none" stroke="midnightblue" d="M602.5,-128.98C591.41,-126.77 579.26,-124.56 568,-123 369.27,-95.41 316.58,-115.69 118,-87 114.79,-86.54 111.5,-86.01 108.19,-85.45"/>
<polygon fill="midnightblue" stroke="midnightblue" points="108.7,-81.98 98.24,-83.64 107.45,-88.87 108.7,-81.98"/>
</g>
<!-- Node10&#45;&gt;Node9 -->
<g id="edge18" class="edge">
<title>Node10&#45;&gt;Node9</title>
<path fill="none" stroke="midnightblue" d="M600.54,-128.96C589.98,-126.87 578.58,-124.73 568,-123 445.05,-102.85 409.63,-121.81 290,-87 288.12,-86.45 286.2,-85.8 284.3,-85.09"/>
<polygon fill="midnightblue" stroke="midnightblue" points="285.61,-81.85 275.04,-81.15 282.87,-88.29 285.61,-81.85"/>
</g>
<!-- Node11 -->
<g id="node11" class="node">
<title>Node11</title>
<g id="a_node11"><a xlink:title=" ">
<polygon fill="white" stroke="#bfbfbf" points="557,-62 557,-81 691,-81 691,-62 557,-62"/>
<text text-anchor="middle" x="624" y="-69" font-family="Helvetica,sans-Serif" font-size="10.00">tvm/ffi/container/array.h</text>
</a>
</g>
</g>
<!-- Node10&#45;&gt;Node11 -->
<g id="edge11" class="edge">
<title>Node10&#45;&gt;Node11</title>
<path fill="none" stroke="midnightblue" d="M638.71,-128.73C636.18,-119.09 632.06,-103.3 628.81,-90.91"/>
<polygon fill="midnightblue" stroke="midnightblue" points="632.17,-89.92 626.26,-81.13 625.4,-91.69 632.17,-89.92"/>
</g>
<!-- Node12 -->
<g id="node12" class="node">
<title>Node12</title>
<g id="a_node12"><a xlink:title=" ">
<polygon fill="white" stroke="#bfbfbf" points="364.5,-62 364.5,-81 465.5,-81 465.5,-62 364.5,-62"/>
<text text-anchor="middle" x="415" y="-69" font-family="Helvetica,sans-Serif" font-size="10.00">tvm/ffi/function.h</text>
</a>
</g>
</g>
<!-- Node10&#45;&gt;Node12 -->
<g id="edge12" class="edge">
<title>Node10&#45;&gt;Node12</title>
<path fill="none" stroke="midnightblue" d="M610.99,-128.87C570.69,-117.28 499.01,-96.66 454.41,-83.83"/>
<polygon fill="midnightblue" stroke="midnightblue" points="455.35,-80.46 444.78,-81.06 453.42,-87.19 455.35,-80.46"/>
</g>
<!-- Node13 -->
<g id="node13" class="node">
<title>Node13</title>
<g id="a_node13"><a xlink:href="runtime_2base_8h.html" target="_top" xlink:title=" ">
<polygon fill="white" stroke="black" points="709.5,-62 709.5,-81 822.5,-81 822.5,-62 709.5,-62"/>
<text text-anchor="middle" x="766" y="-69" font-family="Helvetica,sans-Serif" font-size="10.00">tvm/runtime/base.h</text>
</a>
</g>
</g>
<!-- Node10&#45;&gt;Node13 -->
<g id="edge14" class="edge">
<title>Node10&#45;&gt;Node13</title>
<path fill="none" stroke="midnightblue" d="M657.6,-128.87C678.71,-117.89 715.38,-98.82 740.16,-85.94"/>
<polygon fill="midnightblue" stroke="midnightblue" points="742.07,-88.89 749.33,-81.17 738.85,-82.68 742.07,-88.89"/>
</g>
<!-- Node15 -->
<g id="node15" class="node">
<title>Node15</title>
<g id="a_node15"><a xlink:title=" ">
<polygon fill="white" stroke="#bfbfbf" points="483.5,-62 483.5,-81 538.5,-81 538.5,-62 483.5,-62"/>
<text text-anchor="middle" x="511" y="-69" font-family="Helvetica,sans-Serif" font-size="10.00">fstream</text>
</a>
</g>
</g>
<!-- Node10&#45;&gt;Node15 -->
<g id="edge16" class="edge">
<title>Node10&#45;&gt;Node15</title>
<path fill="none" stroke="midnightblue" d="M623.74,-128.87C601.69,-117.84 563.31,-98.66 537.54,-85.77"/>
<polygon fill="midnightblue" stroke="midnightblue" points="538.84,-82.51 528.33,-81.17 535.71,-88.77 538.84,-82.51"/>
</g>
<!-- Node10&#45;&gt;Node16 -->
<g id="edge17" class="edge">
<title>Node10&#45;&gt;Node16</title>
<path fill="none" stroke="midnightblue" d="M699.59,-132.66C735.26,-129.76 781.75,-126.05 823,-123 1058.01,-105.64 1123.48,-144.55 1352,-87 1354.21,-86.44 1356.46,-85.74 1358.68,-84.95"/>
<polygon fill="midnightblue" stroke="midnightblue" points="1360.22,-88.1 1368.13,-81.04 1357.55,-81.63 1360.22,-88.1"/>
</g>
<!-- Node17 -->
<g id="node17" class="node">
<title>Node17</title>
<g id="a_node17"><a xlink:title=" ">
<polygon fill="white" stroke="#bfbfbf" points="299.5,-62 299.5,-81 346.5,-81 346.5,-62 299.5,-62"/>
<text text-anchor="middle" x="323" y="-69" font-family="Helvetica,sans-Serif" font-size="10.00">vector</text>
</a>
</g>
</g>
<!-- Node10&#45;&gt;Node17 -->
<g id="edge19" class="edge">
<title>Node10&#45;&gt;Node17</title>
<path fill="none" stroke="midnightblue" d="M598.96,-128.94C588.83,-126.93 578.04,-124.85 568,-123 473.57,-105.65 446.82,-115.05 355,-87 353.08,-86.41 351.11,-85.73 349.16,-85"/>
<polygon fill="midnightblue" stroke="midnightblue" points="350.2,-81.64 339.62,-81.01 347.5,-88.1 350.2,-81.64"/>
</g>
<!-- Node14 -->
<g id="node14" class="node">
<title>Node14</title>
<g id="a_node14"><a xlink:title=" ">
<polygon fill="white" stroke="#bfbfbf" points="723,-0.5 723,-19.5 809,-19.5 809,-0.5 723,-0.5"/>
<text text-anchor="middle" x="766" y="-7.5" font-family="Helvetica,sans-Serif" font-size="10.00">tvm/ffi/c_api.h</text>
</a>
</g>
</g>
<!-- Node13&#45;&gt;Node14 -->
<g id="edge15" class="edge">
<title>Node13&#45;&gt;Node14</title>
<path fill="none" stroke="midnightblue" d="M766,-61.98C766,-53.58 766,-40.48 766,-29.66"/>
<polygon fill="midnightblue" stroke="midnightblue" points="769.5,-29.51 766,-19.51 762.5,-29.51 769.5,-29.51"/>
</g>
<!-- Node18&#45;&gt;Node13 -->
<g id="edge24" class="edge">
<title>Node18&#45;&gt;Node13</title>
<path fill="none" stroke="midnightblue" d="M883.07,-128.87C860.08,-117.8 819.97,-98.49 793.2,-85.6"/>
<polygon fill="midnightblue" stroke="midnightblue" points="794.53,-82.35 784,-81.17 791.49,-88.66 794.53,-82.35"/>
</g>
<!-- Node18&#45;&gt;Node16 -->
<g id="edge26" class="edge">
<title>Node18&#45;&gt;Node16</title>
<path fill="none" stroke="midnightblue" d="M946.13,-128.98C958.39,-126.84 971.68,-124.68 984,-123 1146.84,-100.84 1193.25,-129.48 1352,-87 1354.15,-86.42 1356.35,-85.72 1358.52,-84.93"/>
<polygon fill="midnightblue" stroke="midnightblue" points="1359.87,-88.15 1367.77,-81.09 1357.2,-81.69 1359.87,-88.15"/>
</g>
<!-- Node19 -->
<g id="node19" class="node">
<title>Node19</title>
<g id="a_node19"><a xlink:title=" ">
<polygon fill="white" stroke="#bfbfbf" points="927.5,-62 927.5,-81 1066.5,-81 1066.5,-62 927.5,-62"/>
<text text-anchor="middle" x="997" y="-69" font-family="Helvetica,sans-Serif" font-size="10.00">tvm/ffi/container/shape.h</text>
</a>
</g>
</g>
<!-- Node18&#45;&gt;Node19 -->
<g id="edge21" class="edge">
<title>Node18&#45;&gt;Node19</title>
<path fill="none" stroke="midnightblue" d="M913.95,-128.73C929.85,-117.96 957.05,-99.55 975.97,-86.74"/>
<polygon fill="midnightblue" stroke="midnightblue" points="977.94,-89.63 984.26,-81.13 974.02,-83.84 977.94,-89.63"/>
</g>
<!-- Node20 -->
<g id="node20" class="node">
<title>Node20</title>
<g id="a_node20"><a xlink:title=" ">
<polygon fill="white" stroke="#bfbfbf" points="1084.5,-62 1084.5,-81 1173.5,-81 1173.5,-62 1084.5,-62"/>
<text text-anchor="middle" x="1129" y="-69" font-family="Helvetica,sans-Serif" font-size="10.00">tvm/ffi/dtype.h</text>
</a>
</g>
</g>
<!-- Node18&#45;&gt;Node20 -->
<g id="edge22" class="edge">
<title>Node18&#45;&gt;Node20</title>
<path fill="none" stroke="midnightblue" d="M931.28,-128.87C971.93,-117.28 1044.25,-96.66 1089.25,-83.83"/>
<polygon fill="midnightblue" stroke="midnightblue" points="1090.3,-87.17 1098.96,-81.06 1088.38,-80.44 1090.3,-87.17"/>
</g>
<!-- Node21 -->
<g id="node21" class="node">
<title>Node21</title>
<g id="a_node21"><a xlink:title=" ">
<polygon fill="white" stroke="#bfbfbf" points="1260.5,-62 1260.5,-81 1343.5,-81 1343.5,-62 1260.5,-62"/>
<text text-anchor="middle" x="1302" y="-69" font-family="Helvetica,sans-Serif" font-size="10.00">tvm/ffi/error.h</text>
</a>
</g>
</g>
<!-- Node18&#45;&gt;Node21 -->
<g id="edge23" class="edge">
<title>Node18&#45;&gt;Node21</title>
<path fill="none" stroke="midnightblue" d="M947.91,-128.98C959.68,-126.93 972.29,-124.81 984,-123 1102.33,-104.69 1133.78,-111.44 1251,-87 1255.48,-86.07 1260.14,-84.95 1264.75,-83.75"/>
<polygon fill="midnightblue" stroke="midnightblue" points="1265.92,-87.06 1274.65,-81.05 1264.08,-80.31 1265.92,-87.06"/>
</g>
<!-- Node22 -->
<g id="node22" class="node">
<title>Node22</title>
<g id="a_node22"><a xlink:title=" ">
<polygon fill="white" stroke="#bfbfbf" points="1192,-62 1192,-81 1242,-81 1242,-62 1192,-62"/>
<text text-anchor="middle" x="1217" y="-69" font-family="Helvetica,sans-Serif" font-size="10.00">cstring</text>
</a>
</g>
</g>
<!-- Node18&#45;&gt;Node22 -->
<g id="edge25" class="edge">
<title>Node18&#45;&gt;Node22</title>
<path fill="none" stroke="midnightblue" d="M949.08,-128.99C1027.88,-115.04 1176.42,-88.64 1182,-87 1184.29,-86.33 1186.63,-85.56 1188.97,-84.72"/>
<polygon fill="midnightblue" stroke="midnightblue" points="1190.31,-87.96 1198.38,-81.08 1187.79,-81.43 1190.31,-87.96"/>
</g>
<!-- Node18&#45;&gt;Node23 -->
<g id="edge27" class="edge">
<title>Node18&#45;&gt;Node23</title>
<path fill="none" stroke="midnightblue" d="M897.49,-128.73C893.6,-118.99 887.19,-102.98 882.21,-90.53"/>
<polygon fill="midnightblue" stroke="midnightblue" points="885.41,-89.11 878.45,-81.13 878.92,-91.71 885.41,-89.11"/>
</g>
<!-- Node27&#45;&gt;Node6 -->
<g id="edge38" class="edge">
<title>Node27&#45;&gt;Node6</title>
<path fill="none" stroke="midnightblue" d="M1190,-190.4C1190,-181.06 1190,-168.71 1190,-158.52"/>
<polygon fill="midnightblue" stroke="midnightblue" points="1193.5,-158.19 1190,-148.19 1186.5,-158.19 1193.5,-158.19"/>
</g>
<!-- Node27&#45;&gt;Node13 -->
<g id="edge39" class="edge">
<title>Node27&#45;&gt;Node13</title>
<path fill="none" stroke="midnightblue" d="M1133.41,-202.2C1043.73,-197.65 873.9,-185.11 823,-154 798.76,-139.18 782.13,-109.75 773.35,-90.6"/>
<polygon fill="midnightblue" stroke="midnightblue" points="776.46,-88.97 769.27,-81.19 770.03,-91.75 776.46,-88.97"/>
</g>
<!-- Node27&#45;&gt;Node16 -->
<g id="edge40" class="edge">
<title>Node27&#45;&gt;Node16</title>
<path fill="none" stroke="midnightblue" d="M1212.98,-190.48C1229.1,-180.53 1251.05,-166.74 1270,-154 1303.69,-131.35 1341.89,-103.61 1364.41,-87.03"/>
<polygon fill="midnightblue" stroke="midnightblue" points="1366.54,-89.81 1372.5,-81.05 1362.38,-84.18 1366.54,-89.81"/>
</g>
<!-- Node27&#45;&gt;Node21 -->
<g id="edge36" class="edge">
<title>Node27&#45;&gt;Node21</title>
<path fill="none" stroke="midnightblue" d="M1206.52,-190.19C1217.38,-180.46 1231.63,-167.02 1243,-154 1261.23,-133.13 1279.52,-106.83 1290.8,-89.85"/>
<polygon fill="midnightblue" stroke="midnightblue" points="1293.74,-91.74 1296.3,-81.46 1287.89,-87.91 1293.74,-91.74"/>
</g>
<!-- Node28 -->
<g id="node28" class="node">
<title>Node28</title>
<g id="a_node28"><a xlink:title=" ">
<polygon fill="white" stroke="#bfbfbf" points="1329.5,-129 1329.5,-148 1406.5,-148 1406.5,-129 1329.5,-129"/>
<text text-anchor="middle" x="1368" y="-136" font-family="Helvetica,sans-Serif" font-size="10.00">tvm/ffi/any.h</text>
</a>
</g>
</g>
<!-- Node27&#45;&gt;Node28 -->
<g id="edge35" class="edge">
<title>Node27&#45;&gt;Node28</title>
<path fill="none" stroke="midnightblue" d="M1228.62,-190.4C1260.41,-178.79 1304.98,-162.51 1335.09,-151.52"/>
<polygon fill="midnightblue" stroke="midnightblue" points="1336.51,-154.72 1344.7,-148.01 1334.11,-148.15 1336.51,-154.72"/>
</g>
<!-- Node29 -->
<g id="node29" class="node">
<title>Node29</title>
<g id="a_node29"><a xlink:title=" ">
<polygon fill="white" stroke="#bfbfbf" points="1026.5,-129 1026.5,-148 1127.5,-148 1127.5,-129 1026.5,-129"/>
<text text-anchor="middle" x="1077" y="-136" font-family="Helvetica,sans-Serif" font-size="10.00">tvm/ffi/optional.h</text>
</a>
</g>
</g>
<!-- Node27&#45;&gt;Node29 -->
<g id="edge37" class="edge">
<title>Node27&#45;&gt;Node29</title>
<path fill="none" stroke="midnightblue" d="M1165.48,-190.4C1146.27,-179.34 1119.7,-164.06 1100.7,-153.13"/>
<polygon fill="midnightblue" stroke="midnightblue" points="1102.2,-149.96 1091.79,-148.01 1098.71,-156.03 1102.2,-149.96"/>
</g>
<!-- Node30&#45;&gt;Node2 -->
<g id="edge45" class="edge">
<title>Node30&#45;&gt;Node2</title>
<path fill="none" stroke="midnightblue" d="M1365.75,-196.22C1422.5,-186.79 1517.07,-170.52 1598,-154 1599.27,-153.74 1600.55,-153.48 1601.84,-153.21"/>
<polygon fill="midnightblue" stroke="midnightblue" points="1602.83,-156.57 1611.87,-151.06 1601.36,-149.73 1602.83,-156.57"/>
</g>
<!-- Node30&#45;&gt;Node3 -->
<g id="edge46" class="edge">
<title>Node30&#45;&gt;Node3</title>
<path fill="none" stroke="midnightblue" d="M1264.39,-191.57C1261.22,-190.98 1258.08,-190.45 1255,-190 1104.82,-168.08 714.58,-208.67 573,-154 552.67,-146.15 555.2,-131.19 535,-123 362.61,-53.1 302.03,-114.18 118,-87 114.79,-86.53 111.51,-85.99 108.2,-85.42"/>
<polygon fill="midnightblue" stroke="midnightblue" points="108.71,-81.96 98.25,-83.6 107.45,-88.85 108.71,-81.96"/>
</g>
<!-- Node30&#45;&gt;Node6 -->
<g id="edge47" class="edge">
<title>Node30&#45;&gt;Node6</title>
<path fill="none" stroke="midnightblue" d="M1287.88,-190.4C1266.33,-179.19 1236.43,-163.64 1215.36,-152.69"/>
<polygon fill="midnightblue" stroke="midnightblue" points="1216.85,-149.52 1206.36,-148.01 1213.62,-155.73 1216.85,-149.52"/>
</g>
<!-- Node30&#45;&gt;Node11 -->
<g id="edge43" class="edge">
<title>Node30&#45;&gt;Node11</title>
<path fill="none" stroke="midnightblue" d="M1264.37,-191.68C1261.21,-191.06 1258.07,-190.5 1255,-190 1064.8,-159.28 1010.33,-199.03 823,-154 757.69,-138.3 685.88,-104.41 648.97,-85.66"/>
<polygon fill="midnightblue" stroke="midnightblue" points="650.44,-82.47 639.95,-81.01 647.24,-88.7 650.44,-82.47"/>
</g>
<!-- Node30&#45;&gt;Node16 -->
<g id="edge49" class="edge">
<title>Node30&#45;&gt;Node16</title>
<path fill="none" stroke="midnightblue" d="M1365.75,-201.62C1431.41,-196.72 1540.33,-184.16 1565,-154 1607.7,-101.81 1479.37,-81.79 1416.52,-75.25"/>
<polygon fill="midnightblue" stroke="midnightblue" points="1416.61,-71.74 1406.32,-74.25 1415.93,-78.71 1416.61,-71.74"/>
</g>
<!-- Node30&#45;&gt;Node18 -->
<g id="edge48" class="edge">
<title>Node30&#45;&gt;Node18</title>
<path fill="none" stroke="midnightblue" d="M1264.34,-191.9C1261.18,-191.22 1258.05,-190.59 1255,-190 1203.1,-180.05 1063.65,-161 976.06,-149.35"/>
<polygon fill="midnightblue" stroke="midnightblue" points="976.29,-145.85 965.91,-148 975.37,-152.79 976.29,-145.85"/>
</g>
<!-- Node30&#45;&gt;Node28 -->
<g id="edge42" class="edge">
<title>Node30&#45;&gt;Node28</title>
<path fill="none" stroke="midnightblue" d="M1326.5,-190.4C1334.68,-180.36 1345.71,-166.84 1354.34,-156.25"/>
<polygon fill="midnightblue" stroke="midnightblue" points="1357.3,-158.16 1360.91,-148.19 1351.88,-153.73 1357.3,-158.16"/>
</g>
<!-- Node31 -->
<g id="node31" class="node">
<title>Node31</title>
<g id="a_node31"><a xlink:title=" ">
<polygon fill="white" stroke="#bfbfbf" points="1424.5,-129 1424.5,-148 1555.5,-148 1555.5,-129 1424.5,-129"/>
<text text-anchor="middle" x="1490" y="-136" font-family="Helvetica,sans-Serif" font-size="10.00">tvm/ffi/container/map.h</text>
</a>
</g>
</g>
<!-- Node30&#45;&gt;Node31 -->
<g id="edge44" class="edge">
<title>Node30&#45;&gt;Node31</title>
<path fill="none" stroke="midnightblue" d="M1352.97,-190.4C1384.22,-178.79 1428.04,-162.51 1457.64,-151.52"/>
<polygon fill="midnightblue" stroke="midnightblue" points="1458.94,-154.77 1467.1,-148.01 1456.5,-148.21 1458.94,-154.77"/>
</g>
</g>
</svg>
