<?xml version="1.0" encoding="UTF-8" standalone="no"?>
<!DOCTYPE svg PUBLIC "-//W3C//DTD SVG 1.1//EN"
 "http://www.w3.org/Graphics/SVG/1.1/DTD/svg11.dtd">
<!-- Generated by graphviz version 2.43.0 (0)
 -->
<!-- Title: include/tvm/script/printer/doc.h Pages: 1 -->
<svg width="1824pt" height="296pt"
 viewBox="0.00 0.00 1823.50 296.00" xmlns="http://www.w3.org/2000/svg" xmlns:xlink="http://www.w3.org/1999/xlink">
<g id="graph0" class="graph" transform="scale(1 1) rotate(0) translate(4 292)">
<title>include/tvm/script/printer/doc.h</title>
<polygon fill="white" stroke="transparent" points="-4,4 -4,-292 1819.5,-292 1819.5,4 -4,4"/>
<!-- Node1 -->
<g id="node1" class="node">
<title>Node1</title>
<g id="a_node1"><a xlink:title=" ">
<polygon fill="#bfbfbf" stroke="black" points="1084,-257.5 1084,-287.5 1188,-287.5 1188,-257.5 1084,-257.5"/>
<text text-anchor="start" x="1092" y="-275.5" font-family="Helvetica,sans-Serif" font-size="10.00">include/tvm/script</text>
<text text-anchor="middle" x="1136" y="-264.5" font-family="Helvetica,sans-Serif" font-size="10.00">/printer/doc.h</text>
</a>
</g>
</g>
<!-- Node2 -->
<g id="node2" class="node">
<title>Node2</title>
<g id="a_node2"><a xlink:title=" ">
<polygon fill="white" stroke="#bfbfbf" points="1693,-123.5 1693,-153.5 1791,-153.5 1791,-123.5 1693,-123.5"/>
<text text-anchor="start" x="1701" y="-141.5" font-family="Helvetica,sans-Serif" font-size="10.00">tvm/ffi/reflection</text>
<text text-anchor="middle" x="1742" y="-130.5" font-family="Helvetica,sans-Serif" font-size="10.00">/access_path.h</text>
</a>
</g>
</g>
<!-- Node1&#45;&gt;Node2 -->
<g id="edge1" class="edge">
<title>Node1&#45;&gt;Node2</title>
<path fill="none" stroke="midnightblue" d="M1188.14,-260.19C1284.5,-239.28 1496.98,-193.14 1676,-154 1678.32,-153.49 1680.69,-152.97 1683.08,-152.45"/>
<polygon fill="midnightblue" stroke="midnightblue" points="1683.97,-155.84 1692.99,-150.28 1682.47,-149 1683.97,-155.84"/>
</g>
<!-- Node3 -->
<g id="node3" class="node">
<title>Node3</title>
<g id="a_node3"><a xlink:title=" ">
<polygon fill="white" stroke="#bfbfbf" points="0,-56.5 0,-86.5 98,-86.5 98,-56.5 0,-56.5"/>
<text text-anchor="start" x="8" y="-74.5" font-family="Helvetica,sans-Serif" font-size="10.00">tvm/ffi/reflection</text>
<text text-anchor="middle" x="49" y="-63.5" font-family="Helvetica,sans-Serif" font-size="10.00">/registry.h</text>
</a>
</g>
</g>
<!-- Node1&#45;&gt;Node3 -->
<g id="edge2" class="edge">
<title>Node1&#45;&gt;Node3</title>
<path fill="none" stroke="midnightblue" d="M1083.77,-268.81C882.23,-258 162.46,-215.39 82,-154 64.06,-140.31 55.84,-115.26 52.09,-96.53"/>
<polygon fill="midnightblue" stroke="midnightblue" points="55.53,-95.9 50.4,-86.63 48.63,-97.07 55.53,-95.9"/>
</g>
<!-- Node4 -->
<g id="node4" class="node">
<title>Node4</title>
<g id="a_node4"><a xlink:href="ir_2expr_8h.html" target="_top" xlink:title="Base expr nodes in TVM.">
<polygon fill="white" stroke="black" points="658.5,-196 658.5,-215 737.5,-215 737.5,-196 658.5,-196"/>
<text text-anchor="middle" x="698" y="-203" font-family="Helvetica,sans-Serif" font-size="10.00">tvm/ir/expr.h</text>
</a>
</g>
</g>
<!-- Node1&#45;&gt;Node4 -->
<g id="edge3" class="edge">
<title>Node1&#45;&gt;Node4</title>
<path fill="none" stroke="midnightblue" d="M1083.6,-263.72C998.37,-251.08 830.87,-226.22 747.53,-213.85"/>
<polygon fill="midnightblue" stroke="midnightblue" points="747.96,-210.38 737.55,-212.37 746.93,-217.3 747.96,-210.38"/>
</g>
<!-- Node22 -->
<g id="node22" class="node">
<title>Node22</title>
<g id="a_node22"><a xlink:title=" ">
<polygon fill="white" stroke="#bfbfbf" points="1143,-62 1143,-81 1187,-81 1187,-62 1143,-62"/>
<text text-anchor="middle" x="1165" y="-69" font-family="Helvetica,sans-Serif" font-size="10.00">string</text>
</a>
</g>
</g>
<!-- Node1&#45;&gt;Node22 -->
<g id="edge59" class="edge">
<title>Node1&#45;&gt;Node22</title>
<path fill="none" stroke="midnightblue" d="M1138.09,-257.19C1143.22,-221.99 1156.45,-131.17 1162.23,-91.51"/>
<polygon fill="midnightblue" stroke="midnightblue" points="1165.73,-91.76 1163.71,-81.36 1158.8,-90.75 1165.73,-91.76"/>
</g>
<!-- Node24 -->
<g id="node24" class="node">
<title>Node24</title>
<g id="a_node24"><a xlink:href="data__type_8h.html" target="_top" xlink:title=" ">
<polygon fill="white" stroke="black" points="970,-129 970,-148 1108,-148 1108,-129 970,-129"/>
<text text-anchor="middle" x="1039" y="-136" font-family="Helvetica,sans-Serif" font-size="10.00">tvm/runtime/data_type.h</text>
</a>
</g>
</g>
<!-- Node1&#45;&gt;Node24 -->
<g id="edge41" class="edge">
<title>Node1&#45;&gt;Node24</title>
<path fill="none" stroke="midnightblue" d="M1125.62,-257.37C1107.61,-232.86 1070.65,-182.56 1051.35,-156.3"/>
<polygon fill="midnightblue" stroke="midnightblue" points="1054.06,-154.08 1045.32,-148.1 1048.42,-158.23 1054.06,-154.08"/>
</g>
<!-- Node31 -->
<g id="node31" class="node">
<title>Node31</title>
<g id="a_node31"><a xlink:href="device__api_8h.html" target="_top" xlink:title="Abstract device memory management API.">
<polygon fill="white" stroke="black" points="1447.5,-123.5 1447.5,-153.5 1560.5,-153.5 1560.5,-123.5 1447.5,-123.5"/>
<text text-anchor="start" x="1455.5" y="-141.5" font-family="Helvetica,sans-Serif" font-size="10.00">tvm/runtime/device</text>
<text text-anchor="middle" x="1504" y="-130.5" font-family="Helvetica,sans-Serif" font-size="10.00">_api.h</text>
</a>
</g>
</g>
<!-- Node1&#45;&gt;Node31 -->
<g id="edge42" class="edge">
<title>Node1&#45;&gt;Node31</title>
<path fill="none" stroke="midnightblue" d="M1179.73,-257.49C1210.19,-247.6 1251.7,-233.87 1288,-221 1347.18,-200.02 1414.81,-174.19 1458.39,-157.31"/>
<polygon fill="midnightblue" stroke="midnightblue" points="1459.8,-160.52 1467.86,-153.64 1457.27,-154 1459.8,-160.52"/>
</g>
<!-- Node32 -->
<g id="node32" class="node">
<title>Node32</title>
<g id="a_node32"><a xlink:href="config_8h.html" target="_top" xlink:title="Configuration object for the TVMScript printer.">
<polygon fill="white" stroke="black" points="1177.5,-190.5 1177.5,-220.5 1278.5,-220.5 1278.5,-190.5 1177.5,-190.5"/>
<text text-anchor="start" x="1185.5" y="-208.5" font-family="Helvetica,sans-Serif" font-size="10.00">tvm/script/printer</text>
<text text-anchor="middle" x="1228" y="-197.5" font-family="Helvetica,sans-Serif" font-size="10.00">/config.h</text>
</a>
</g>
</g>
<!-- Node1&#45;&gt;Node32 -->
<g id="edge49" class="edge">
<title>Node1&#45;&gt;Node32</title>
<path fill="none" stroke="midnightblue" d="M1155.96,-257.4C1168.74,-248.37 1185.52,-236.51 1199.67,-226.52"/>
<polygon fill="midnightblue" stroke="midnightblue" points="1201.93,-229.21 1208.08,-220.58 1197.89,-223.49 1201.93,-229.21"/>
</g>
<!-- Node4&#45;&gt;Node3 -->
<g id="edge5" class="edge">
<title>Node4&#45;&gt;Node3</title>
<path fill="none" stroke="midnightblue" d="M658.11,-204.72C543.8,-204.79 217.26,-200.77 123,-154 96.84,-141.02 75.55,-114.5 62.63,-95.23"/>
<polygon fill="midnightblue" stroke="midnightblue" points="65.49,-93.21 57.13,-86.7 59.61,-97 65.49,-93.21"/>
</g>
<!-- Node5 -->
<g id="node5" class="node">
<title>Node5</title>
<g id="a_node5"><a xlink:title=" ">
<polygon fill="white" stroke="#bfbfbf" points="132,-129 132,-148 268,-148 268,-129 132,-129"/>
<text text-anchor="middle" x="200" y="-136" font-family="Helvetica,sans-Serif" font-size="10.00">tvm/ffi/extra/dataclass.h</text>
</a>
</g>
</g>
<!-- Node4&#45;&gt;Node5 -->
<g id="edge4" class="edge">
<title>Node4&#45;&gt;Node5</title>
<path fill="none" stroke="midnightblue" d="M658.41,-200.64C583.66,-193.16 416.69,-175.51 277,-154 269.07,-152.78 260.7,-151.35 252.52,-149.87"/>
<polygon fill="midnightblue" stroke="midnightblue" points="253.15,-146.43 242.68,-148.06 251.88,-153.32 253.15,-146.43"/>
</g>
<!-- Node6 -->
<g id="node6" class="node">
<title>Node6</title>
<g id="a_node6"><a xlink:title=" ">
<polygon fill="white" stroke="#bfbfbf" points="1726.5,-62 1726.5,-81 1815.5,-81 1815.5,-62 1726.5,-62"/>
<text text-anchor="middle" x="1771" y="-69" font-family="Helvetica,sans-Serif" font-size="10.00">tvm/ffi/string.h</text>
</a>
</g>
</g>
<!-- Node4&#45;&gt;Node6 -->
<g id="edge6" class="edge">
<title>Node4&#45;&gt;Node6</title>
<path fill="none" stroke="midnightblue" d="M737.6,-203.03C897.19,-196.99 1488.47,-173.5 1570,-154 1603.49,-145.99 1609.17,-136.13 1641,-123 1673.95,-109.41 1711.99,-94.76 1738.37,-84.75"/>
<polygon fill="midnightblue" stroke="midnightblue" points="1739.76,-87.97 1747.87,-81.16 1737.28,-81.42 1739.76,-87.97"/>
</g>
<!-- Node7 -->
<g id="node7" class="node">
<title>Node7</title>
<g id="a_node7"><a xlink:href="cast_8h.html" target="_top" xlink:title="Value casting helpers.">
<polygon fill="white" stroke="black" points="1202,-129 1202,-148 1280,-148 1280,-129 1202,-129"/>
<text text-anchor="middle" x="1241" y="-136" font-family="Helvetica,sans-Serif" font-size="10.00">tvm/ir/cast.h</text>
</a>
</g>
</g>
<!-- Node4&#45;&gt;Node7 -->
<g id="edge7" class="edge">
<title>Node4&#45;&gt;Node7</title>
<path fill="none" stroke="midnightblue" d="M737.93,-199.72C835.35,-188.06 1085.02,-158.17 1191.59,-145.42"/>
<polygon fill="midnightblue" stroke="midnightblue" points="1192.23,-148.86 1201.75,-144.2 1191.4,-141.91 1192.23,-148.86"/>
</g>
<!-- Node15 -->
<g id="node15" class="node">
<title>Node15</title>
<g id="a_node15"><a xlink:href="cow_8h.html" target="_top" xlink:title="Copy&#45;on&#45;write helper macro for IR ffi::ObjectRef types.">
<polygon fill="white" stroke="black" points="764.5,-129 764.5,-148 841.5,-148 841.5,-129 764.5,-129"/>
<text text-anchor="middle" x="803" y="-136" font-family="Helvetica,sans-Serif" font-size="10.00">tvm/ir/cow.h</text>
</a>
</g>
</g>
<!-- Node4&#45;&gt;Node15 -->
<g id="edge15" class="edge">
<title>Node4&#45;&gt;Node15</title>
<path fill="none" stroke="midnightblue" d="M712.16,-195.73C729.71,-184.87 759.84,-166.22 780.56,-153.39"/>
<polygon fill="midnightblue" stroke="midnightblue" points="782.4,-156.37 789.06,-148.13 778.72,-150.41 782.4,-156.37"/>
</g>
<!-- Node16 -->
<g id="node16" class="node">
<title>Node16</title>
<g id="a_node16"><a xlink:href="source__map_8h.html" target="_top" xlink:title="A map from source names to source code.">
<polygon fill="white" stroke="black" points="490.5,-129 490.5,-148 607.5,-148 607.5,-129 490.5,-129"/>
<text text-anchor="middle" x="549" y="-136" font-family="Helvetica,sans-Serif" font-size="10.00">tvm/ir/source_map.h</text>
</a>
</g>
</g>
<!-- Node4&#45;&gt;Node16 -->
<g id="edge18" class="edge">
<title>Node4&#45;&gt;Node16</title>
<path fill="none" stroke="midnightblue" d="M678.21,-195.87C652.61,-184.7 607.79,-165.15 578.25,-152.26"/>
<polygon fill="midnightblue" stroke="midnightblue" points="579.43,-148.96 568.87,-148.17 576.63,-155.37 579.43,-148.96"/>
</g>
<!-- Node4&#45;&gt;Node22 -->
<g id="edge39" class="edge">
<title>Node4&#45;&gt;Node22</title>
<path fill="none" stroke="midnightblue" d="M722.79,-195.95C769.17,-180.14 872.37,-145.9 961,-123 1037.04,-103.35 1059.48,-111.8 1134,-87 1135.67,-86.45 1137.36,-85.83 1139.06,-85.16"/>
<polygon fill="midnightblue" stroke="midnightblue" points="1140.77,-88.24 1148.56,-81.06 1137.99,-81.81 1140.77,-88.24"/>
</g>
<!-- Node4&#45;&gt;Node24 -->
<g id="edge28" class="edge">
<title>Node4&#45;&gt;Node24</title>
<path fill="none" stroke="midnightblue" d="M737.78,-196.92C798.7,-185.31 915.23,-163.09 984.13,-149.96"/>
<polygon fill="midnightblue" stroke="midnightblue" points="985.18,-153.32 994.35,-148.01 983.87,-146.45 985.18,-153.32"/>
</g>
<!-- Node27 -->
<g id="node27" class="node">
<title>Node27</title>
<g id="a_node27"><a xlink:title=" ">
<polygon fill="white" stroke="#bfbfbf" points="589.5,-62 589.5,-81 658.5,-81 658.5,-62 589.5,-62"/>
<text text-anchor="middle" x="624" y="-69" font-family="Helvetica,sans-Serif" font-size="10.00">type_traits</text>
</a>
</g>
</g>
<!-- Node4&#45;&gt;Node27 -->
<g id="edge40" class="edge">
<title>Node4&#45;&gt;Node27</title>
<path fill="none" stroke="midnightblue" d="M697.64,-195.8C696.64,-180.19 692.92,-146.84 679,-123 670.77,-108.91 657.33,-96.46 645.8,-87.45"/>
<polygon fill="midnightblue" stroke="midnightblue" points="647.58,-84.42 637.47,-81.26 643.41,-90.03 647.58,-84.42"/>
</g>
<!-- Node28 -->
<g id="node28" class="node">
<title>Node28</title>
<g id="a_node28"><a xlink:title=" ">
<polygon fill="white" stroke="#bfbfbf" points="286,-129 286,-148 350,-148 350,-129 286,-129"/>
<text text-anchor="middle" x="318" y="-136" font-family="Helvetica,sans-Serif" font-size="10.00">algorithm</text>
</a>
</g>
</g>
<!-- Node4&#45;&gt;Node28 -->
<g id="edge36" class="edge">
<title>Node4&#45;&gt;Node28</title>
<path fill="none" stroke="midnightblue" d="M658.37,-201.09C594.59,-195.04 465.53,-180.51 359,-154 355.95,-153.24 352.8,-152.34 349.68,-151.38"/>
<polygon fill="midnightblue" stroke="midnightblue" points="350.49,-147.96 339.89,-148.12 348.27,-154.6 350.49,-147.96"/>
</g>
<!-- Node29 -->
<g id="node29" class="node">
<title>Node29</title>
<g id="a_node29"><a xlink:title=" ">
<polygon fill="white" stroke="#bfbfbf" points="368.5,-129 368.5,-148 433.5,-148 433.5,-129 368.5,-129"/>
<text text-anchor="middle" x="401" y="-136" font-family="Helvetica,sans-Serif" font-size="10.00">functional</text>
</a>
</g>
</g>
<!-- Node4&#45;&gt;Node29 -->
<g id="edge37" class="edge">
<title>Node4&#45;&gt;Node29</title>
<path fill="none" stroke="midnightblue" d="M658.32,-197.75C608.78,-189.03 521.59,-172.73 448,-154 444.4,-153.08 440.66,-152.06 436.93,-150.99"/>
<polygon fill="midnightblue" stroke="midnightblue" points="437.8,-147.59 427.22,-148.1 435.8,-154.3 437.8,-147.59"/>
</g>
<!-- Node30 -->
<g id="node30" class="node">
<title>Node30</title>
<g id="a_node30"><a xlink:title=" ">
<polygon fill="white" stroke="#bfbfbf" points="626,-129 626,-148 670,-148 670,-129 626,-129"/>
<text text-anchor="middle" x="648" y="-136" font-family="Helvetica,sans-Serif" font-size="10.00">limits</text>
</a>
</g>
</g>
<!-- Node4&#45;&gt;Node30 -->
<g id="edge38" class="edge">
<title>Node4&#45;&gt;Node30</title>
<path fill="none" stroke="midnightblue" d="M691.26,-195.73C683.46,-185.6 670.45,-168.69 660.74,-156.06"/>
<polygon fill="midnightblue" stroke="midnightblue" points="663.51,-153.92 654.64,-148.13 657.96,-158.19 663.51,-153.92"/>
</g>
<!-- Node8 -->
<g id="node8" class="node">
<title>Node8</title>
<g id="a_node8"><a xlink:title=" ">
<polygon fill="white" stroke="#bfbfbf" points="1631.5,-62 1631.5,-81 1708.5,-81 1708.5,-62 1631.5,-62"/>
<text text-anchor="middle" x="1670" y="-69" font-family="Helvetica,sans-Serif" font-size="10.00">tvm/ffi/any.h</text>
</a>
</g>
</g>
<!-- Node7&#45;&gt;Node8 -->
<g id="edge8" class="edge">
<title>Node7&#45;&gt;Node8</title>
<path fill="none" stroke="midnightblue" d="M1266.72,-128.94C1274.16,-126.73 1282.35,-124.53 1290,-123 1435.96,-93.76 1477.21,-117.08 1623,-87 1627.14,-86.15 1631.44,-85.08 1635.67,-83.92"/>
<polygon fill="midnightblue" stroke="midnightblue" points="1636.74,-87.25 1645.35,-81.08 1634.77,-80.53 1636.74,-87.25"/>
</g>
<!-- Node9 -->
<g id="node9" class="node">
<title>Node9</title>
<g id="a_node9"><a xlink:title=" ">
<polygon fill="white" stroke="#bfbfbf" points="1312.5,-62 1312.5,-81 1393.5,-81 1393.5,-62 1312.5,-62"/>
<text text-anchor="middle" x="1353" y="-69" font-family="Helvetica,sans-Serif" font-size="10.00">tvm/ffi/cast.h</text>
</a>
</g>
</g>
<!-- Node7&#45;&gt;Node9 -->
<g id="edge9" class="edge">
<title>Node7&#45;&gt;Node9</title>
<path fill="none" stroke="midnightblue" d="M1256.1,-128.73C1274.91,-117.82 1307.25,-99.05 1329.36,-86.22"/>
<polygon fill="midnightblue" stroke="midnightblue" points="1331.24,-89.17 1338.13,-81.13 1327.73,-83.12 1331.24,-89.17"/>
</g>
<!-- Node10 -->
<g id="node10" class="node">
<title>Node10</title>
<g id="a_node10"><a xlink:title=" ">
<polygon fill="white" stroke="#bfbfbf" points="1205.5,-62 1205.5,-81 1294.5,-81 1294.5,-62 1205.5,-62"/>
<text text-anchor="middle" x="1250" y="-69" font-family="Helvetica,sans-Serif" font-size="10.00">tvm/ffi/dtype.h</text>
</a>
</g>
</g>
<!-- Node7&#45;&gt;Node10 -->
<g id="edge10" class="edge">
<title>Node7&#45;&gt;Node10</title>
<path fill="none" stroke="midnightblue" d="M1242.21,-128.73C1243.54,-119.18 1245.69,-103.62 1247.4,-91.28"/>
<polygon fill="midnightblue" stroke="midnightblue" points="1250.9,-91.51 1248.81,-81.13 1243.97,-90.55 1250.9,-91.51"/>
</g>
<!-- Node11 -->
<g id="node11" class="node">
<title>Node11</title>
<g id="a_node11"><a xlink:title=" ">
<polygon fill="white" stroke="#bfbfbf" points="1411.5,-62 1411.5,-81 1494.5,-81 1494.5,-62 1411.5,-62"/>
<text text-anchor="middle" x="1453" y="-69" font-family="Helvetica,sans-Serif" font-size="10.00">tvm/ffi/error.h</text>
</a>
</g>
</g>
<!-- Node7&#45;&gt;Node11 -->
<g id="edge11" class="edge">
<title>Node7&#45;&gt;Node11</title>
<path fill="none" stroke="midnightblue" d="M1269.15,-128.87C1306.79,-117.33 1373.63,-96.84 1415.51,-84"/>
<polygon fill="midnightblue" stroke="midnightblue" points="1416.53,-87.34 1425.07,-81.06 1414.48,-80.65 1416.53,-87.34"/>
</g>
<!-- Node12 -->
<g id="node12" class="node">
<title>Node12</title>
<g id="a_node12"><a xlink:title=" ">
<polygon fill="white" stroke="#bfbfbf" points="807.5,-62 807.5,-81 898.5,-81 898.5,-62 807.5,-62"/>
<text text-anchor="middle" x="853" y="-69" font-family="Helvetica,sans-Serif" font-size="10.00">tvm/ffi/object.h</text>
</a>
</g>
</g>
<!-- Node7&#45;&gt;Node12 -->
<g id="edge12" class="edge">
<title>Node7&#45;&gt;Node12</title>
<path fill="none" stroke="midnightblue" d="M1201.8,-132.94C1139.29,-125.36 1013.36,-108.81 908,-87 903.18,-86 898.15,-84.84 893.17,-83.62"/>
<polygon fill="midnightblue" stroke="midnightblue" points="893.68,-80.14 883.12,-81.06 891.95,-86.92 893.68,-80.14"/>
</g>
<!-- Node13 -->
<g id="node13" class="node">
<title>Node13</title>
<g id="a_node13"><a xlink:title=" ">
<polygon fill="white" stroke="#bfbfbf" points="1512.5,-62 1512.5,-81 1613.5,-81 1613.5,-62 1512.5,-62"/>
<text text-anchor="middle" x="1563" y="-69" font-family="Helvetica,sans-Serif" font-size="10.00">tvm/ffi/optional.h</text>
</a>
</g>
</g>
<!-- Node7&#45;&gt;Node13 -->
<g id="edge13" class="edge">
<title>Node7&#45;&gt;Node13</title>
<path fill="none" stroke="midnightblue" d="M1267.8,-128.93C1274.97,-126.82 1282.74,-124.68 1290,-123 1383.97,-101.28 1409.55,-106.52 1504,-87 1509.16,-85.93 1514.56,-84.73 1519.9,-83.49"/>
<polygon fill="midnightblue" stroke="midnightblue" points="1521.11,-86.79 1530.02,-81.06 1519.48,-79.99 1521.11,-86.79"/>
</g>
<!-- Node14 -->
<g id="node14" class="node">
<title>Node14</title>
<g id="a_node14"><a xlink:title=" ">
<polygon fill="white" stroke="#bfbfbf" points="526.5,-62 526.5,-81 571.5,-81 571.5,-62 526.5,-62"/>
<text text-anchor="middle" x="549" y="-69" font-family="Helvetica,sans-Serif" font-size="10.00">utility</text>
</a>
</g>
</g>
<!-- Node7&#45;&gt;Node14 -->
<g id="edge14" class="edge">
<title>Node7&#45;&gt;Node14</title>
<path fill="none" stroke="midnightblue" d="M1201.96,-132.43C1177.57,-129.39 1145.49,-125.62 1117,-123 879.24,-101.13 812.56,-145.2 581,-87 578.79,-86.44 576.54,-85.74 574.32,-84.95"/>
<polygon fill="midnightblue" stroke="midnightblue" points="575.45,-81.63 564.87,-81.04 572.78,-88.1 575.45,-81.63"/>
</g>
<!-- Node15&#45;&gt;Node12 -->
<g id="edge16" class="edge">
<title>Node15&#45;&gt;Node12</title>
<path fill="none" stroke="midnightblue" d="M809.74,-128.73C817.54,-118.6 830.55,-101.69 840.26,-89.06"/>
<polygon fill="midnightblue" stroke="midnightblue" points="843.04,-91.19 846.36,-81.13 837.49,-86.92 843.04,-91.19"/>
</g>
<!-- Node15&#45;&gt;Node14 -->
<g id="edge17" class="edge">
<title>Node15&#45;&gt;Node14</title>
<path fill="none" stroke="midnightblue" d="M773.09,-129C765.57,-126.95 757.51,-124.83 750,-123 675.38,-104.86 653.95,-110.99 581,-87 579.13,-86.39 577.23,-85.7 575.32,-84.96"/>
<polygon fill="midnightblue" stroke="midnightblue" points="576.57,-81.69 566,-81.02 573.85,-88.14 576.57,-81.69"/>
</g>
<!-- Node16&#45;&gt;Node3 -->
<g id="edge21" class="edge">
<title>Node16&#45;&gt;Node3</title>
<path fill="none" stroke="midnightblue" d="M509.72,-128.96C498.84,-126.79 486.99,-124.62 476,-123 316.17,-99.39 271.12,-114.44 108.14,-87.03"/>
<polygon fill="midnightblue" stroke="midnightblue" points="108.7,-83.58 98.26,-85.34 107.52,-90.48 108.7,-83.58"/>
</g>
<!-- Node16&#45;&gt;Node14 -->
<g id="edge26" class="edge">
<title>Node16&#45;&gt;Node14</title>
<path fill="none" stroke="midnightblue" d="M549,-128.73C549,-119.18 549,-103.62 549,-91.28"/>
<polygon fill="midnightblue" stroke="midnightblue" points="552.5,-91.13 549,-81.13 545.5,-91.13 552.5,-91.13"/>
</g>
<!-- Node17 -->
<g id="node17" class="node">
<title>Node17</title>
<g id="a_node17"><a xlink:title=" ">
<polygon fill="white" stroke="#bfbfbf" points="374,-62 374,-81 508,-81 508,-62 374,-62"/>
<text text-anchor="middle" x="441" y="-69" font-family="Helvetica,sans-Serif" font-size="10.00">tvm/ffi/container/array.h</text>
</a>
</g>
</g>
<!-- Node16&#45;&gt;Node17 -->
<g id="edge19" class="edge">
<title>Node16&#45;&gt;Node17</title>
<path fill="none" stroke="midnightblue" d="M534.43,-128.73C516.38,-117.87 485.39,-99.22 464.08,-86.39"/>
<polygon fill="midnightblue" stroke="midnightblue" points="465.71,-83.29 455.33,-81.13 462.1,-89.28 465.71,-83.29"/>
</g>
<!-- Node18 -->
<g id="node18" class="node">
<title>Node18</title>
<g id="a_node18"><a xlink:title=" ">
<polygon fill="white" stroke="#bfbfbf" points="181.5,-62 181.5,-81 282.5,-81 282.5,-62 181.5,-62"/>
<text text-anchor="middle" x="232" y="-69" font-family="Helvetica,sans-Serif" font-size="10.00">tvm/ffi/function.h</text>
</a>
</g>
</g>
<!-- Node16&#45;&gt;Node18 -->
<g id="edge20" class="edge">
<title>Node16&#45;&gt;Node18</title>
<path fill="none" stroke="midnightblue" d="M506.16,-128.96C496.26,-127 485.76,-124.92 476,-123 393.81,-106.84 372.81,-105 291,-87 285.98,-85.89 280.73,-84.68 275.52,-83.45"/>
<polygon fill="midnightblue" stroke="midnightblue" points="276.17,-80.01 265.63,-81.07 274.53,-86.81 276.17,-80.01"/>
</g>
<!-- Node19 -->
<g id="node19" class="node">
<title>Node19</title>
<g id="a_node19"><a xlink:href="runtime_2base_8h.html" target="_top" xlink:title=" ">
<polygon fill="white" stroke="black" points="676.5,-62 676.5,-81 789.5,-81 789.5,-62 676.5,-62"/>
<text text-anchor="middle" x="733" y="-69" font-family="Helvetica,sans-Serif" font-size="10.00">tvm/runtime/base.h</text>
</a>
</g>
</g>
<!-- Node16&#45;&gt;Node19 -->
<g id="edge22" class="edge">
<title>Node16&#45;&gt;Node19</title>
<path fill="none" stroke="midnightblue" d="M573.43,-128.87C605.69,-117.47 662.65,-97.35 699.07,-84.49"/>
<polygon fill="midnightblue" stroke="midnightblue" points="700.5,-87.69 708.76,-81.06 698.16,-81.09 700.5,-87.69"/>
</g>
<!-- Node21 -->
<g id="node21" class="node">
<title>Node21</title>
<g id="a_node21"><a xlink:title=" ">
<polygon fill="white" stroke="#bfbfbf" points="300.5,-62 300.5,-81 355.5,-81 355.5,-62 300.5,-62"/>
<text text-anchor="middle" x="328" y="-69" font-family="Helvetica,sans-Serif" font-size="10.00">fstream</text>
</a>
</g>
</g>
<!-- Node16&#45;&gt;Node21 -->
<g id="edge24" class="edge">
<title>Node16&#45;&gt;Node21</title>
<path fill="none" stroke="midnightblue" d="M513.39,-128.92C476.08,-119.65 415.93,-103.92 365,-87 362.73,-86.25 360.41,-85.43 358.07,-84.59"/>
<polygon fill="midnightblue" stroke="midnightblue" points="359.19,-81.27 348.6,-81.02 356.72,-87.82 359.19,-81.27"/>
</g>
<!-- Node16&#45;&gt;Node22 -->
<g id="edge25" class="edge">
<title>Node16&#45;&gt;Node22</title>
<path fill="none" stroke="midnightblue" d="M584.48,-128.95C594.9,-126.71 606.36,-124.5 617,-123 845.09,-90.9 911.03,-144.77 1134,-87 1135.98,-86.49 1138,-85.85 1139.99,-85.13"/>
<polygon fill="midnightblue" stroke="midnightblue" points="1141.8,-88.16 1149.65,-81.04 1139.07,-81.71 1141.8,-88.16"/>
</g>
<!-- Node23 -->
<g id="node23" class="node">
<title>Node23</title>
<g id="a_node23"><a xlink:title=" ">
<polygon fill="white" stroke="#bfbfbf" points="116.5,-62 116.5,-81 163.5,-81 163.5,-62 116.5,-62"/>
<text text-anchor="middle" x="140" y="-69" font-family="Helvetica,sans-Serif" font-size="10.00">vector</text>
</a>
</g>
</g>
<!-- Node16&#45;&gt;Node23 -->
<g id="edge27" class="edge">
<title>Node16&#45;&gt;Node23</title>
<path fill="none" stroke="midnightblue" d="M508.94,-128.96C498.27,-126.84 486.72,-124.7 476,-123 341.62,-101.73 303.07,-123.51 172,-87 169.85,-86.4 167.66,-85.68 165.49,-84.88"/>
<polygon fill="midnightblue" stroke="midnightblue" points="166.82,-81.64 156.25,-81.03 164.13,-88.1 166.82,-81.64"/>
</g>
<!-- Node20 -->
<g id="node20" class="node">
<title>Node20</title>
<g id="a_node20"><a xlink:title=" ">
<polygon fill="white" stroke="#bfbfbf" points="690,-0.5 690,-19.5 776,-19.5 776,-0.5 690,-0.5"/>
<text text-anchor="middle" x="733" y="-7.5" font-family="Helvetica,sans-Serif" font-size="10.00">tvm/ffi/c_api.h</text>
</a>
</g>
</g>
<!-- Node19&#45;&gt;Node20 -->
<g id="edge23" class="edge">
<title>Node19&#45;&gt;Node20</title>
<path fill="none" stroke="midnightblue" d="M733,-61.98C733,-53.58 733,-40.48 733,-29.66"/>
<polygon fill="midnightblue" stroke="midnightblue" points="736.5,-29.51 733,-19.51 729.5,-29.51 736.5,-29.51"/>
</g>
<!-- Node24&#45;&gt;Node10 -->
<g id="edge30" class="edge">
<title>Node24&#45;&gt;Node10</title>
<path fill="none" stroke="midnightblue" d="M1067.02,-128.87C1104.41,-117.35 1170.72,-96.92 1212.42,-84.08"/>
<polygon fill="midnightblue" stroke="midnightblue" points="1213.67,-87.35 1222.2,-81.06 1211.61,-80.66 1213.67,-87.35"/>
</g>
<!-- Node24&#45;&gt;Node11 -->
<g id="edge31" class="edge">
<title>Node24&#45;&gt;Node11</title>
<path fill="none" stroke="midnightblue" d="M1108.28,-130.9C1181.9,-123.18 1301.45,-108.65 1403,-87 1407.39,-86.06 1411.97,-84.94 1416.49,-83.75"/>
<polygon fill="midnightblue" stroke="midnightblue" points="1417.5,-87.1 1426.19,-81.05 1415.62,-80.35 1417.5,-87.1"/>
</g>
<!-- Node24&#45;&gt;Node19 -->
<g id="edge32" class="edge">
<title>Node24&#45;&gt;Node19</title>
<path fill="none" stroke="midnightblue" d="M997.78,-128.94C949.95,-118.99 868.73,-101.99 799,-87 793.34,-85.78 787.41,-84.5 781.53,-83.21"/>
<polygon fill="midnightblue" stroke="midnightblue" points="782.24,-79.79 771.73,-81.07 780.75,-86.62 782.24,-79.79"/>
</g>
<!-- Node24&#45;&gt;Node22 -->
<g id="edge34" class="edge">
<title>Node24&#45;&gt;Node22</title>
<path fill="none" stroke="midnightblue" d="M1055.73,-128.87C1077.1,-117.84 1114.3,-98.66 1139.28,-85.77"/>
<polygon fill="midnightblue" stroke="midnightblue" points="1140.92,-88.86 1148.2,-81.17 1137.71,-82.64 1140.92,-88.86"/>
</g>
<!-- Node25 -->
<g id="node25" class="node">
<title>Node25</title>
<g id="a_node25"><a xlink:title=" ">
<polygon fill="white" stroke="#bfbfbf" points="985.5,-62 985.5,-81 1124.5,-81 1124.5,-62 985.5,-62"/>
<text text-anchor="middle" x="1055" y="-69" font-family="Helvetica,sans-Serif" font-size="10.00">tvm/ffi/container/shape.h</text>
</a>
</g>
</g>
<!-- Node24&#45;&gt;Node25 -->
<g id="edge29" class="edge">
<title>Node24&#45;&gt;Node25</title>
<path fill="none" stroke="midnightblue" d="M1041.16,-128.73C1043.53,-119.09 1047.42,-103.3 1050.47,-90.91"/>
<polygon fill="midnightblue" stroke="midnightblue" points="1053.88,-91.67 1052.88,-81.13 1047.09,-90 1053.88,-91.67"/>
</g>
<!-- Node26 -->
<g id="node26" class="node">
<title>Node26</title>
<g id="a_node26"><a xlink:title=" ">
<polygon fill="white" stroke="#bfbfbf" points="917,-62 917,-81 967,-81 967,-62 917,-62"/>
<text text-anchor="middle" x="942" y="-69" font-family="Helvetica,sans-Serif" font-size="10.00">cstring</text>
</a>
</g>
</g>
<!-- Node24&#45;&gt;Node26 -->
<g id="edge33" class="edge">
<title>Node24&#45;&gt;Node26</title>
<path fill="none" stroke="midnightblue" d="M1025.92,-128.73C1009.85,-117.96 982.37,-99.55 963.25,-86.74"/>
<polygon fill="midnightblue" stroke="midnightblue" points="965.13,-83.79 954.87,-81.13 961.23,-89.6 965.13,-83.79"/>
</g>
<!-- Node24&#45;&gt;Node27 -->
<g id="edge35" class="edge">
<title>Node24&#45;&gt;Node27</title>
<path fill="none" stroke="midnightblue" d="M969.94,-131.91C894.92,-124.96 771.88,-110.97 668,-87 664.52,-86.2 660.93,-85.24 657.37,-84.2"/>
<polygon fill="midnightblue" stroke="midnightblue" points="658.11,-80.77 647.52,-81.13 656.03,-87.45 658.11,-80.77"/>
</g>
<!-- Node31&#45;&gt;Node6 -->
<g id="edge46" class="edge">
<title>Node31&#45;&gt;Node6</title>
<path fill="none" stroke="midnightblue" d="M1560.9,-124.65C1604.1,-114.75 1664.92,-100.52 1718,-87 1722.11,-85.95 1726.39,-84.83 1730.65,-83.7"/>
<polygon fill="midnightblue" stroke="midnightblue" points="1731.76,-87.02 1740.5,-81.04 1729.93,-80.27 1731.76,-87.02"/>
</g>
<!-- Node31&#45;&gt;Node8 -->
<g id="edge43" class="edge">
<title>Node31&#45;&gt;Node8</title>
<path fill="none" stroke="midnightblue" d="M1540.02,-123.4C1569.53,-111.84 1610.86,-95.66 1638.94,-84.66"/>
<polygon fill="midnightblue" stroke="midnightblue" points="1640.24,-87.91 1648.27,-81.01 1637.69,-81.39 1640.24,-87.91"/>
</g>
<!-- Node31&#45;&gt;Node11 -->
<g id="edge44" class="edge">
<title>Node31&#45;&gt;Node11</title>
<path fill="none" stroke="midnightblue" d="M1492.93,-123.4C1485.06,-113.36 1474.45,-99.84 1466.15,-89.25"/>
<polygon fill="midnightblue" stroke="midnightblue" points="1468.75,-86.9 1459.82,-81.19 1463.24,-91.22 1468.75,-86.9"/>
</g>
<!-- Node31&#45;&gt;Node13 -->
<g id="edge45" class="edge">
<title>Node31&#45;&gt;Node13</title>
<path fill="none" stroke="midnightblue" d="M1516.8,-123.4C1526.09,-113.16 1538.68,-99.3 1548.37,-88.62"/>
<polygon fill="midnightblue" stroke="midnightblue" points="1550.98,-90.95 1555.11,-81.19 1545.8,-86.25 1550.98,-90.95"/>
</g>
<!-- Node31&#45;&gt;Node19 -->
<g id="edge47" class="edge">
<title>Node31&#45;&gt;Node19</title>
<path fill="none" stroke="midnightblue" d="M1447.38,-124.3C1444.55,-123.82 1441.75,-123.38 1439,-123 1156.81,-83.86 1081.25,-125.69 799,-87 791.81,-86.01 784.24,-84.66 776.89,-83.17"/>
<polygon fill="midnightblue" stroke="midnightblue" points="777.58,-79.74 767.07,-81.07 776.12,-86.58 777.58,-79.74"/>
</g>
<!-- Node31&#45;&gt;Node22 -->
<g id="edge48" class="edge">
<title>Node31&#45;&gt;Node22</title>
<path fill="none" stroke="midnightblue" d="M1447.33,-124.61C1444.52,-124.05 1441.73,-123.51 1439,-123 1332.09,-103.15 1301.3,-117.74 1197,-87 1195.07,-86.43 1193.1,-85.77 1191.15,-85.04"/>
<polygon fill="midnightblue" stroke="midnightblue" points="1192.18,-81.68 1181.6,-81.08 1189.49,-88.15 1192.18,-81.68"/>
</g>
<!-- Node32&#45;&gt;Node2 -->
<g id="edge53" class="edge">
<title>Node32&#45;&gt;Node2</title>
<path fill="none" stroke="midnightblue" d="M1278.65,-200.74C1362.38,-194.09 1534.73,-178.6 1679,-154 1680.28,-153.78 1681.56,-153.56 1682.86,-153.32"/>
<polygon fill="midnightblue" stroke="midnightblue" points="1683.78,-156.71 1692.93,-151.37 1682.45,-149.84 1683.78,-156.71"/>
</g>
<!-- Node32&#45;&gt;Node3 -->
<g id="edge54" class="edge">
<title>Node32&#45;&gt;Node3</title>
<path fill="none" stroke="midnightblue" d="M1177.4,-202.78C1020.14,-197.22 546.61,-178.57 482,-154 460.98,-146 462.86,-131.41 442,-123 306.1,-68.22 256.57,-111.28 108.18,-87"/>
<polygon fill="midnightblue" stroke="midnightblue" points="108.71,-83.54 98.26,-85.31 107.53,-90.44 108.71,-83.54"/>
</g>
<!-- Node32&#45;&gt;Node6 -->
<g id="edge55" class="edge">
<title>Node32&#45;&gt;Node6</title>
<path fill="none" stroke="midnightblue" d="M1278.56,-201.47C1373.79,-195.25 1576.01,-179.44 1641,-154 1662.94,-145.41 1664.23,-135.82 1684,-123 1704.4,-109.77 1728.34,-96 1745.94,-86.18"/>
<polygon fill="midnightblue" stroke="midnightblue" points="1747.95,-89.07 1755,-81.16 1744.56,-82.95 1747.95,-89.07"/>
</g>
<!-- Node32&#45;&gt;Node7 -->
<g id="edge56" class="edge">
<title>Node32&#45;&gt;Node7</title>
<path fill="none" stroke="midnightblue" d="M1230.82,-190.4C1232.71,-180.96 1235.21,-168.45 1237.26,-158.19"/>
<polygon fill="midnightblue" stroke="midnightblue" points="1240.73,-158.69 1239.26,-148.19 1233.87,-157.31 1240.73,-158.69"/>
</g>
<!-- Node32&#45;&gt;Node8 -->
<g id="edge50" class="edge">
<title>Node32&#45;&gt;Node8</title>
<path fill="none" stroke="midnightblue" d="M1278.71,-205.27C1347.58,-204.52 1473.21,-196.67 1570,-154 1604.81,-138.65 1637.45,-107.79 1655.48,-88.76"/>
<polygon fill="midnightblue" stroke="midnightblue" points="1658.27,-90.9 1662.48,-81.18 1653.12,-86.15 1658.27,-90.9"/>
</g>
<!-- Node32&#45;&gt;Node17 -->
<g id="edge51" class="edge">
<title>Node32&#45;&gt;Node17</title>
<path fill="none" stroke="midnightblue" d="M1177.25,-203.64C1089.92,-201.15 906.12,-191.48 756,-154 720.21,-145.06 714.29,-133.76 679,-123 645.39,-112.75 554.94,-94.5 495.73,-82.97"/>
<polygon fill="midnightblue" stroke="midnightblue" points="496.27,-79.51 485.78,-81.04 494.93,-86.38 496.27,-79.51"/>
</g>
<!-- Node32&#45;&gt;Node22 -->
<g id="edge58" class="edge">
<title>Node32&#45;&gt;Node22</title>
<path fill="none" stroke="midnightblue" d="M1216.46,-190.15C1209.02,-180.39 1199.55,-166.94 1193,-154 1182.58,-133.41 1174.55,-108.05 1169.82,-91.14"/>
<polygon fill="midnightblue" stroke="midnightblue" points="1173.17,-90.13 1167.19,-81.38 1166.41,-91.95 1173.17,-90.13"/>
</g>
<!-- Node32&#45;&gt;Node24 -->
<g id="edge57" class="edge">
<title>Node32&#45;&gt;Node24</title>
<path fill="none" stroke="midnightblue" d="M1186.99,-190.4C1153.09,-178.74 1105.51,-162.37 1073.53,-151.38"/>
<polygon fill="midnightblue" stroke="midnightblue" points="1074.33,-147.95 1063.74,-148.01 1072.05,-154.57 1074.33,-147.95"/>
</g>
<!-- Node33 -->
<g id="node33" class="node">
<title>Node33</title>
<g id="a_node33"><a xlink:title=" ">
<polygon fill="white" stroke="#bfbfbf" points="1298.5,-129 1298.5,-148 1429.5,-148 1429.5,-129 1298.5,-129"/>
<text text-anchor="middle" x="1364" y="-136" font-family="Helvetica,sans-Serif" font-size="10.00">tvm/ffi/container/map.h</text>
</a>
</g>
</g>
<!-- Node32&#45;&gt;Node33 -->
<g id="edge52" class="edge">
<title>Node32&#45;&gt;Node33</title>
<path fill="none" stroke="midnightblue" d="M1257.51,-190.4C1281.16,-179.09 1314.08,-163.36 1337.03,-152.39"/>
<polygon fill="midnightblue" stroke="midnightblue" points="1338.69,-155.48 1346.2,-148.01 1335.67,-149.16 1338.69,-155.48"/>
</g>
</g>
</svg>
