<?xml version="1.0" encoding="UTF-8" standalone="no"?>
<!DOCTYPE svg PUBLIC "-//W3C//DTD SVG 1.1//EN"
 "http://www.w3.org/Graphics/SVG/1.1/DTD/svg11.dtd">
<!-- Generated by graphviz version 2.43.0 (0)
 -->
<!-- Title: include/tvm/relax/exec_builder.h Pages: 1 -->
<svg width="2714pt" height="341pt"
 viewBox="0.00 0.00 2713.59 341.00" xmlns="http://www.w3.org/2000/svg" xmlns:xlink="http://www.w3.org/1999/xlink">
<g id="graph0" class="graph" transform="scale(1 1) rotate(0) translate(4 337)">
<title>include/tvm/relax/exec_builder.h</title>
<polygon fill="white" stroke="transparent" points="-4,4 -4,-337 2709.59,-337 2709.59,4 -4,4"/>
<!-- Node1 -->
<g id="node1" class="node">
<title>Node1</title>
<g id="a_node1"><a xlink:title=" ">
<polygon fill="#bfbfbf" stroke="black" points="1369.09,-302.5 1369.09,-332.5 1497.09,-332.5 1497.09,-302.5 1369.09,-302.5"/>
<text text-anchor="start" x="1377.09" y="-320.5" font-family="Helvetica,sans-Serif" font-size="10.00">include/tvm/relax/exec</text>
<text text-anchor="middle" x="1433.09" y="-309.5" font-family="Helvetica,sans-Serif" font-size="10.00">_builder.h</text>
</a>
</g>
</g>
<!-- Node2 -->
<g id="node2" class="node">
<title>Node2</title>
<g id="a_node2"><a xlink:title=" ">
<polygon fill="white" stroke="#bfbfbf" points="131.09,-179.5 131.09,-198.5 267.09,-198.5 267.09,-179.5 131.09,-179.5"/>
<text text-anchor="middle" x="199.09" y="-186.5" font-family="Helvetica,sans-Serif" font-size="10.00">tvm/ffi/extra/dataclass.h</text>
</a>
</g>
</g>
<!-- Node1&#45;&gt;Node2 -->
<g id="edge1" class="edge">
<title>Node1&#45;&gt;Node2</title>
<path fill="none" stroke="midnightblue" d="M1368.99,-315.03C1231.63,-311.31 898.88,-299.37 622.09,-266 485.62,-249.55 326.5,-217.42 248.01,-200.69"/>
<polygon fill="midnightblue" stroke="midnightblue" points="248.45,-197.21 237.94,-198.54 246.98,-204.05 248.45,-197.21"/>
</g>
<!-- Node3 -->
<g id="node3" class="node">
<title>Node3</title>
<g id="a_node3"><a xlink:title=" ">
<polygon fill="white" stroke="#bfbfbf" points="2433.59,-235.5 2433.59,-265.5 2560.59,-265.5 2560.59,-235.5 2433.59,-235.5"/>
<text text-anchor="start" x="2441.59" y="-253.5" font-family="Helvetica,sans-Serif" font-size="10.00">tvm/ffi/extra/structural</text>
<text text-anchor="middle" x="2497.09" y="-242.5" font-family="Helvetica,sans-Serif" font-size="10.00">_equal.h</text>
</a>
</g>
</g>
<!-- Node1&#45;&gt;Node3 -->
<g id="edge2" class="edge">
<title>Node1&#45;&gt;Node3</title>
<path fill="none" stroke="midnightblue" d="M1497.36,-316.15C1654.99,-314.66 2073.11,-306.84 2419.09,-266 2420.4,-265.85 2421.72,-265.68 2423.05,-265.51"/>
<polygon fill="midnightblue" stroke="midnightblue" points="2423.93,-268.92 2433.35,-264.06 2422.95,-261.99 2423.93,-268.92"/>
</g>
<!-- Node4 -->
<g id="node4" class="node">
<title>Node4</title>
<g id="a_node4"><a xlink:title=" ">
<polygon fill="white" stroke="#bfbfbf" points="2578.59,-235.5 2578.59,-265.5 2705.59,-265.5 2705.59,-235.5 2578.59,-235.5"/>
<text text-anchor="start" x="2586.59" y="-253.5" font-family="Helvetica,sans-Serif" font-size="10.00">tvm/ffi/extra/structural</text>
<text text-anchor="middle" x="2642.09" y="-242.5" font-family="Helvetica,sans-Serif" font-size="10.00">_hash.h</text>
</a>
</g>
</g>
<!-- Node1&#45;&gt;Node4 -->
<g id="edge3" class="edge">
<title>Node1&#45;&gt;Node4</title>
<path fill="none" stroke="midnightblue" d="M1497.17,-317.11C1669.28,-318 2155.93,-315.66 2568.54,-266.06"/>
<polygon fill="midnightblue" stroke="midnightblue" points="2569.07,-269.52 2578.57,-264.84 2568.23,-262.57 2569.07,-269.52"/>
</g>
<!-- Node5 -->
<g id="node5" class="node">
<title>Node5</title>
<g id="a_node5"><a xlink:title=" ">
<polygon fill="white" stroke="#bfbfbf" points="1044.59,-118 1044.59,-137 1145.59,-137 1145.59,-118 1044.59,-118"/>
<text text-anchor="middle" x="1095.09" y="-125" font-family="Helvetica,sans-Serif" font-size="10.00">tvm/ffi/function.h</text>
</a>
</g>
</g>
<!-- Node1&#45;&gt;Node5 -->
<g id="edge4" class="edge">
<title>Node1&#45;&gt;Node5</title>
<path fill="none" stroke="midnightblue" d="M1398.27,-302.43C1349.71,-282.24 1259.57,-242.62 1188.09,-199 1160.45,-182.13 1131.07,-158.84 1112.9,-143.73"/>
<polygon fill="midnightblue" stroke="midnightblue" points="1114.84,-140.79 1104.93,-137.03 1110.33,-146.14 1114.84,-140.79"/>
</g>
<!-- Node6 -->
<g id="node6" class="node">
<title>Node6</title>
<g id="a_node6"><a xlink:title=" ">
<polygon fill="white" stroke="#bfbfbf" points="584.09,-112.5 584.09,-142.5 682.09,-142.5 682.09,-112.5 584.09,-112.5"/>
<text text-anchor="start" x="592.09" y="-130.5" font-family="Helvetica,sans-Serif" font-size="10.00">tvm/ffi/reflection</text>
<text text-anchor="middle" x="633.09" y="-119.5" font-family="Helvetica,sans-Serif" font-size="10.00">/registry.h</text>
</a>
</g>
</g>
<!-- Node1&#45;&gt;Node6 -->
<g id="edge5" class="edge">
<title>Node1&#45;&gt;Node6</title>
<path fill="none" stroke="midnightblue" d="M1368.86,-305.76C1261.63,-287.31 1039.69,-246.93 855.09,-199 795.05,-183.41 727.25,-161.19 682.55,-145.88"/>
<polygon fill="midnightblue" stroke="midnightblue" points="683.42,-142.48 672.82,-142.54 681.14,-149.1 683.42,-142.48"/>
</g>
<!-- Node7 -->
<g id="node7" class="node">
<title>Node7</title>
<g id="a_node7"><a xlink:href="ir_2expr_8h.html" target="_top" xlink:title="Base expr nodes in TVM.">
<polygon fill="white" stroke="black" points="630.59,-241 630.59,-260 709.59,-260 709.59,-241 630.59,-241"/>
<text text-anchor="middle" x="670.09" y="-248" font-family="Helvetica,sans-Serif" font-size="10.00">tvm/ir/expr.h</text>
</a>
</g>
</g>
<!-- Node1&#45;&gt;Node7 -->
<g id="edge6" class="edge">
<title>Node1&#45;&gt;Node7</title>
<path fill="none" stroke="midnightblue" d="M1369.08,-311.53C1257.54,-302.79 1020.31,-283.92 820.09,-266 786.64,-263.01 749.02,-259.37 719.82,-256.49"/>
<polygon fill="midnightblue" stroke="midnightblue" points="720.17,-253 709.87,-255.5 719.48,-259.97 720.17,-253"/>
</g>
<!-- Node23 -->
<g id="node23" class="node">
<title>Node23</title>
<g id="a_node23"><a xlink:title=" ">
<polygon fill="white" stroke="#bfbfbf" points="1539.09,-56.5 1539.09,-75.5 1583.09,-75.5 1583.09,-56.5 1539.09,-56.5"/>
<text text-anchor="middle" x="1561.09" y="-63.5" font-family="Helvetica,sans-Serif" font-size="10.00">string</text>
</a>
</g>
</g>
<!-- Node1&#45;&gt;Node23 -->
<g id="edge73" class="edge">
<title>Node1&#45;&gt;Node23</title>
<path fill="none" stroke="midnightblue" d="M1497.22,-315.17C1692.53,-309.62 2273.57,-281.54 2386.09,-143 2394.78,-132.31 2395.56,-122 2386.09,-112 2358.37,-82.72 1742.78,-70.16 1593.49,-67.54"/>
<polygon fill="midnightblue" stroke="midnightblue" points="1593.23,-64.03 1583.17,-67.36 1593.11,-71.03 1593.23,-64.03"/>
</g>
<!-- Node24 -->
<g id="node24" class="node">
<title>Node24</title>
<g id="a_node24"><a xlink:title=" ">
<polygon fill="white" stroke="#bfbfbf" points="1432.59,-118 1432.59,-137 1479.59,-137 1479.59,-118 1432.59,-118"/>
<text text-anchor="middle" x="1456.09" y="-125" font-family="Helvetica,sans-Serif" font-size="10.00">vector</text>
</a>
</g>
</g>
<!-- Node1&#45;&gt;Node24 -->
<g id="edge75" class="edge">
<title>Node1&#45;&gt;Node24</title>
<path fill="none" stroke="midnightblue" d="M1434.82,-302.37C1438.91,-268.94 1449.18,-184.97 1453.79,-147.3"/>
<polygon fill="midnightblue" stroke="midnightblue" points="1457.29,-147.56 1455.03,-137.21 1450.34,-146.71 1457.29,-147.56"/>
</g>
<!-- Node32 -->
<g id="node32" class="node">
<title>Node32</title>
<g id="a_node32"><a xlink:href="bytecode_8h.html" target="_top" xlink:title="The bytecode for the virtual machine.">
<polygon fill="white" stroke="black" points="1251.59,-179.5 1251.59,-198.5 1404.59,-198.5 1404.59,-179.5 1251.59,-179.5"/>
<text text-anchor="middle" x="1328.09" y="-186.5" font-family="Helvetica,sans-Serif" font-size="10.00">tvm/runtime/vm/bytecode.h</text>
</a>
</g>
</g>
<!-- Node1&#45;&gt;Node32 -->
<g id="edge44" class="edge">
<title>Node1&#45;&gt;Node32</title>
<path fill="none" stroke="midnightblue" d="M1421.45,-302.48C1401.97,-279 1362.82,-231.84 1341.95,-206.69"/>
<polygon fill="midnightblue" stroke="midnightblue" points="1344.47,-204.25 1335.39,-198.79 1339.08,-208.72 1344.47,-204.25"/>
</g>
<!-- Node34 -->
<g id="node34" class="node">
<title>Node34</title>
<g id="a_node34"><a xlink:href="executable_8h.html" target="_top" xlink:title=" ">
<polygon fill="white" stroke="black" points="1519.59,-241 1519.59,-260 1680.59,-260 1680.59,-241 1519.59,-241"/>
<text text-anchor="middle" x="1600.09" y="-248" font-family="Helvetica,sans-Serif" font-size="10.00">tvm/runtime/vm/executable.h</text>
</a>
</g>
</g>
<!-- Node1&#45;&gt;Node34 -->
<g id="edge49" class="edge">
<title>Node1&#45;&gt;Node34</title>
<path fill="none" stroke="midnightblue" d="M1469.33,-302.4C1499.02,-290.84 1540.6,-274.66 1568.84,-263.66"/>
<polygon fill="midnightblue" stroke="midnightblue" points="1570.18,-266.9 1578.23,-260.01 1567.65,-260.37 1570.18,-266.9"/>
</g>
<!-- Node43 -->
<g id="node43" class="node">
<title>Node43</title>
<g id="a_node43"><a xlink:title=" ">
<polygon fill="white" stroke="#bfbfbf" points="2283.59,-118 2283.59,-137 2376.59,-137 2376.59,-118 2283.59,-118"/>
<text text-anchor="middle" x="2330.09" y="-125" font-family="Helvetica,sans-Serif" font-size="10.00">unordered_map</text>
</a>
</g>
</g>
<!-- Node1&#45;&gt;Node43 -->
<g id="edge74" class="edge">
<title>Node1&#45;&gt;Node43</title>
<path fill="none" stroke="midnightblue" d="M1497.4,-304.94C1608.26,-284.8 1842.4,-241.39 2039.09,-199 2144.47,-176.29 2170.52,-169.19 2275.09,-143 2279.41,-141.92 2283.91,-140.77 2288.4,-139.61"/>
<polygon fill="midnightblue" stroke="midnightblue" points="2289.34,-142.98 2298.13,-137.07 2287.57,-136.21 2289.34,-142.98"/>
</g>
<!-- Node7&#45;&gt;Node2 -->
<g id="edge7" class="edge">
<title>Node7&#45;&gt;Node2</title>
<path fill="none" stroke="midnightblue" d="M630.34,-244.48C552.4,-234.63 378.28,-212.64 276.73,-199.81"/>
<polygon fill="midnightblue" stroke="midnightblue" points="276.89,-196.3 266.53,-198.52 276.02,-203.25 276.89,-196.3"/>
</g>
<!-- Node7&#45;&gt;Node6 -->
<g id="edge8" class="edge">
<title>Node7&#45;&gt;Node6</title>
<path fill="none" stroke="midnightblue" d="M667.43,-240.8C661.84,-222.52 648.72,-179.6 640.41,-152.43"/>
<polygon fill="midnightblue" stroke="midnightblue" points="643.65,-151.08 637.38,-142.54 636.96,-153.13 643.65,-151.08"/>
</g>
<!-- Node8 -->
<g id="node8" class="node">
<title>Node8</title>
<g id="a_node8"><a xlink:title=" ">
<polygon fill="white" stroke="#bfbfbf" points="1497.59,-118 1497.59,-137 1586.59,-137 1586.59,-118 1497.59,-118"/>
<text text-anchor="middle" x="1542.09" y="-125" font-family="Helvetica,sans-Serif" font-size="10.00">tvm/ffi/string.h</text>
</a>
</g>
</g>
<!-- Node7&#45;&gt;Node8 -->
<g id="edge9" class="edge">
<title>Node7&#45;&gt;Node8</title>
<path fill="none" stroke="midnightblue" d="M710.01,-249.06C844.53,-247.22 1280.24,-238.3 1414.09,-199 1455.32,-186.89 1498.02,-159.95 1522.2,-143.1"/>
<polygon fill="midnightblue" stroke="midnightblue" points="1524.39,-145.83 1530.52,-137.19 1520.34,-140.13 1524.39,-145.83"/>
</g>
<!-- Node9 -->
<g id="node9" class="node">
<title>Node9</title>
<g id="a_node9"><a xlink:href="cast_8h.html" target="_top" xlink:title="Value casting helpers.">
<polygon fill="white" stroke="black" points="285.09,-179.5 285.09,-198.5 363.09,-198.5 363.09,-179.5 285.09,-179.5"/>
<text text-anchor="middle" x="324.09" y="-186.5" font-family="Helvetica,sans-Serif" font-size="10.00">tvm/ir/cast.h</text>
</a>
</g>
</g>
<!-- Node7&#45;&gt;Node9 -->
<g id="edge10" class="edge">
<title>Node7&#45;&gt;Node9</title>
<path fill="none" stroke="midnightblue" d="M630.53,-243.02C575.31,-233.93 471.73,-216.7 373.24,-199.18"/>
<polygon fill="midnightblue" stroke="midnightblue" points="373.57,-195.68 363.11,-197.38 372.34,-202.58 373.57,-195.68"/>
</g>
<!-- Node17 -->
<g id="node17" class="node">
<title>Node17</title>
<g id="a_node17"><a xlink:href="cow_8h.html" target="_top" xlink:title="Copy&#45;on&#45;write helper macro for IR ffi::ObjectRef types.">
<polygon fill="white" stroke="black" points="381.59,-179.5 381.59,-198.5 458.59,-198.5 458.59,-179.5 381.59,-179.5"/>
<text text-anchor="middle" x="420.09" y="-186.5" font-family="Helvetica,sans-Serif" font-size="10.00">tvm/ir/cow.h</text>
</a>
</g>
</g>
<!-- Node7&#45;&gt;Node17 -->
<g id="edge18" class="edge">
<title>Node7&#45;&gt;Node17</title>
<path fill="none" stroke="midnightblue" d="M634.27,-240.98C589.9,-230.42 514.25,-212.41 465.76,-200.87"/>
<polygon fill="midnightblue" stroke="midnightblue" points="466.38,-197.42 455.84,-198.51 464.76,-204.23 466.38,-197.42"/>
</g>
<!-- Node18 -->
<g id="node18" class="node">
<title>Node18</title>
<g id="a_node18"><a xlink:href="source__map_8h.html" target="_top" xlink:title="A map from source names to source code.">
<polygon fill="white" stroke="black" points="863.59,-179.5 863.59,-198.5 980.59,-198.5 980.59,-179.5 863.59,-179.5"/>
<text text-anchor="middle" x="922.09" y="-186.5" font-family="Helvetica,sans-Serif" font-size="10.00">tvm/ir/source_map.h</text>
</a>
</g>
</g>
<!-- Node7&#45;&gt;Node18 -->
<g id="edge21" class="edge">
<title>Node7&#45;&gt;Node18</title>
<path fill="none" stroke="midnightblue" d="M706.2,-240.98C750.92,-230.42 827.17,-212.41 876.06,-200.87"/>
<polygon fill="midnightblue" stroke="midnightblue" points="877.12,-204.21 886.05,-198.51 875.52,-197.4 877.12,-204.21"/>
</g>
<!-- Node7&#45;&gt;Node23 -->
<g id="edge42" class="edge">
<title>Node7&#45;&gt;Node23</title>
<path fill="none" stroke="midnightblue" d="M709.79,-247.61C785.24,-243.33 945.76,-230.68 990.09,-199 1025.68,-173.57 999.62,-136.15 1036.09,-112 1056.71,-98.34 1417.27,-75.64 1528.61,-68.93"/>
<polygon fill="midnightblue" stroke="midnightblue" points="1529.11,-72.4 1538.88,-68.31 1528.69,-65.41 1529.11,-72.4"/>
</g>
<!-- Node25 -->
<g id="node25" class="node">
<title>Node25</title>
<g id="a_node25"><a xlink:href="data__type_8h.html" target="_top" xlink:title=" ">
<polygon fill="white" stroke="black" points="738.09,-118 738.09,-137 876.09,-137 876.09,-118 738.09,-118"/>
<text text-anchor="middle" x="807.09" y="-125" font-family="Helvetica,sans-Serif" font-size="10.00">tvm/runtime/data_type.h</text>
</a>
</g>
</g>
<!-- Node7&#45;&gt;Node25 -->
<g id="edge31" class="edge">
<title>Node7&#45;&gt;Node25</title>
<path fill="none" stroke="midnightblue" d="M698.3,-240.87C720.36,-232.93 750.63,-219.29 771.09,-199 785.84,-184.38 795.72,-162.45 801.34,-146.94"/>
<polygon fill="midnightblue" stroke="midnightblue" points="804.68,-147.99 804.56,-137.39 798.05,-145.75 804.68,-147.99"/>
</g>
<!-- Node28 -->
<g id="node28" class="node">
<title>Node28</title>
<g id="a_node28"><a xlink:title=" ">
<polygon fill="white" stroke="#bfbfbf" points="995.59,-56.5 995.59,-75.5 1064.59,-75.5 1064.59,-56.5 995.59,-56.5"/>
<text text-anchor="middle" x="1030.09" y="-63.5" font-family="Helvetica,sans-Serif" font-size="10.00">type_traits</text>
</a>
</g>
</g>
<!-- Node7&#45;&gt;Node28 -->
<g id="edge43" class="edge">
<title>Node7&#45;&gt;Node28</title>
<path fill="none" stroke="midnightblue" d="M663.77,-240.95C653.6,-227.38 632.75,-200.27 613.09,-179 597.3,-161.92 584.28,-164.37 575.09,-143 569.65,-130.34 565.78,-122.16 575.09,-112 604.56,-79.84 908.34,-82.35 985.12,-75.77"/>
<polygon fill="midnightblue" stroke="midnightblue" points="985.87,-79.21 995.42,-74.63 985.1,-72.25 985.87,-79.21"/>
</g>
<!-- Node29 -->
<g id="node29" class="node">
<title>Node29</title>
<g id="a_node29"><a xlink:title=" ">
<polygon fill="white" stroke="#bfbfbf" points="698.09,-179.5 698.09,-198.5 762.09,-198.5 762.09,-179.5 698.09,-179.5"/>
<text text-anchor="middle" x="730.09" y="-186.5" font-family="Helvetica,sans-Serif" font-size="10.00">algorithm</text>
</a>
</g>
</g>
<!-- Node7&#45;&gt;Node29 -->
<g id="edge39" class="edge">
<title>Node7&#45;&gt;Node29</title>
<path fill="none" stroke="midnightblue" d="M678.69,-240.98C687.95,-231.78 702.91,-216.96 714.3,-205.66"/>
<polygon fill="midnightblue" stroke="midnightblue" points="716.87,-208.04 721.51,-198.51 711.94,-203.07 716.87,-208.04"/>
</g>
<!-- Node30 -->
<g id="node30" class="node">
<title>Node30</title>
<g id="a_node30"><a xlink:title=" ">
<polygon fill="white" stroke="#bfbfbf" points="476.59,-179.5 476.59,-198.5 541.59,-198.5 541.59,-179.5 476.59,-179.5"/>
<text text-anchor="middle" x="509.09" y="-186.5" font-family="Helvetica,sans-Serif" font-size="10.00">functional</text>
</a>
</g>
</g>
<!-- Node7&#45;&gt;Node30 -->
<g id="edge40" class="edge">
<title>Node7&#45;&gt;Node30</title>
<path fill="none" stroke="midnightblue" d="M647.02,-240.98C619.41,-230.77 572.97,-213.61 541.69,-202.05"/>
<polygon fill="midnightblue" stroke="midnightblue" points="542.71,-198.69 532.12,-198.51 540.28,-205.26 542.71,-198.69"/>
</g>
<!-- Node31 -->
<g id="node31" class="node">
<title>Node31</title>
<g id="a_node31"><a xlink:title=" ">
<polygon fill="white" stroke="#bfbfbf" points="560.09,-179.5 560.09,-198.5 604.09,-198.5 604.09,-179.5 560.09,-179.5"/>
<text text-anchor="middle" x="582.09" y="-186.5" font-family="Helvetica,sans-Serif" font-size="10.00">limits</text>
</a>
</g>
</g>
<!-- Node7&#45;&gt;Node31 -->
<g id="edge41" class="edge">
<title>Node7&#45;&gt;Node31</title>
<path fill="none" stroke="midnightblue" d="M657.48,-240.98C643.37,-231.43 620.26,-215.81 603.34,-204.37"/>
<polygon fill="midnightblue" stroke="midnightblue" points="604.92,-201.21 594.68,-198.51 601,-207.01 604.92,-201.21"/>
</g>
<!-- Node10 -->
<g id="node10" class="node">
<title>Node10</title>
<g id="a_node10"><a xlink:title=" ">
<polygon fill="white" stroke="#bfbfbf" points="21.59,-118 21.59,-137 98.59,-137 98.59,-118 21.59,-118"/>
<text text-anchor="middle" x="60.09" y="-125" font-family="Helvetica,sans-Serif" font-size="10.00">tvm/ffi/any.h</text>
</a>
</g>
</g>
<!-- Node9&#45;&gt;Node10 -->
<g id="edge11" class="edge">
<title>Node9&#45;&gt;Node10</title>
<path fill="none" stroke="midnightblue" d="M284.72,-180.3C231.69,-169.85 140.16,-151.51 107.09,-143 103.49,-142.07 99.75,-141.04 96.03,-139.97"/>
<polygon fill="midnightblue" stroke="midnightblue" points="96.9,-136.58 86.31,-137.07 94.9,-143.28 96.9,-136.58"/>
</g>
<!-- Node11 -->
<g id="node11" class="node">
<title>Node11</title>
<g id="a_node11"><a xlink:title=" ">
<polygon fill="white" stroke="#bfbfbf" points="116.59,-118 116.59,-137 197.59,-137 197.59,-118 116.59,-118"/>
<text text-anchor="middle" x="157.09" y="-125" font-family="Helvetica,sans-Serif" font-size="10.00">tvm/ffi/cast.h</text>
</a>
</g>
</g>
<!-- Node9&#45;&gt;Node11 -->
<g id="edge12" class="edge">
<title>Node9&#45;&gt;Node11</title>
<path fill="none" stroke="midnightblue" d="M300.16,-179.48C271.39,-169.22 222.93,-151.96 190.49,-140.4"/>
<polygon fill="midnightblue" stroke="midnightblue" points="191.57,-137.07 180.97,-137.01 189.22,-143.66 191.57,-137.07"/>
</g>
<!-- Node12 -->
<g id="node12" class="node">
<title>Node12</title>
<g id="a_node12"><a xlink:title=" ">
<polygon fill="white" stroke="#bfbfbf" points="224.59,-56.5 224.59,-75.5 313.59,-75.5 313.59,-56.5 224.59,-56.5"/>
<text text-anchor="middle" x="269.09" y="-63.5" font-family="Helvetica,sans-Serif" font-size="10.00">tvm/ffi/dtype.h</text>
</a>
</g>
</g>
<!-- Node9&#45;&gt;Node12 -->
<g id="edge13" class="edge">
<title>Node9&#45;&gt;Node12</title>
<path fill="none" stroke="midnightblue" d="M285.09,-180.52C282.05,-179.99 279.02,-179.47 276.09,-179 217.64,-169.54 51.03,-187.61 12.09,-143 -45.88,-76.59 122.7,-66.85 214.26,-66.27"/>
<polygon fill="midnightblue" stroke="midnightblue" points="214.5,-69.77 224.49,-66.25 214.48,-62.77 214.5,-69.77"/>
</g>
<!-- Node13 -->
<g id="node13" class="node">
<title>Node13</title>
<g id="a_node13"><a xlink:title=" ">
<polygon fill="white" stroke="#bfbfbf" points="894.59,-56.5 894.59,-75.5 977.59,-75.5 977.59,-56.5 894.59,-56.5"/>
<text text-anchor="middle" x="936.09" y="-63.5" font-family="Helvetica,sans-Serif" font-size="10.00">tvm/ffi/error.h</text>
</a>
</g>
</g>
<!-- Node9&#45;&gt;Node13 -->
<g id="edge14" class="edge">
<title>Node9&#45;&gt;Node13</title>
<path fill="none" stroke="midnightblue" d="M325.84,-179.06C329.6,-162.57 340.11,-127.63 364.09,-112 410.75,-81.59 794.14,-82.98 884.29,-75.85"/>
<polygon fill="midnightblue" stroke="midnightblue" points="884.79,-79.31 894.4,-74.86 884.11,-72.35 884.79,-79.31"/>
</g>
<!-- Node14 -->
<g id="node14" class="node">
<title>Node14</title>
<g id="a_node14"><a xlink:title=" ">
<polygon fill="white" stroke="#bfbfbf" points="373.59,-118 373.59,-137 464.59,-137 464.59,-118 373.59,-118"/>
<text text-anchor="middle" x="419.09" y="-125" font-family="Helvetica,sans-Serif" font-size="10.00">tvm/ffi/object.h</text>
</a>
</g>
</g>
<!-- Node9&#45;&gt;Node14 -->
<g id="edge15" class="edge">
<title>Node9&#45;&gt;Node14</title>
<path fill="none" stroke="midnightblue" d="M337.7,-179.48C353.15,-169.8 378.58,-153.87 396.91,-142.39"/>
<polygon fill="midnightblue" stroke="midnightblue" points="398.89,-145.28 405.5,-137.01 395.17,-139.35 398.89,-145.28"/>
</g>
<!-- Node15 -->
<g id="node15" class="node">
<title>Node15</title>
<g id="a_node15"><a xlink:title=" ">
<polygon fill="white" stroke="#bfbfbf" points="215.59,-118 215.59,-137 316.59,-137 316.59,-118 215.59,-118"/>
<text text-anchor="middle" x="266.09" y="-125" font-family="Helvetica,sans-Serif" font-size="10.00">tvm/ffi/optional.h</text>
</a>
</g>
</g>
<!-- Node9&#45;&gt;Node15 -->
<g id="edge16" class="edge">
<title>Node9&#45;&gt;Node15</title>
<path fill="none" stroke="midnightblue" d="M315.78,-179.48C306.91,-170.37 292.64,-155.74 281.67,-144.48"/>
<polygon fill="midnightblue" stroke="midnightblue" points="283.87,-141.73 274.39,-137.01 278.86,-146.61 283.87,-141.73"/>
</g>
<!-- Node16 -->
<g id="node16" class="node">
<title>Node16</title>
<g id="a_node16"><a xlink:title=" ">
<polygon fill="white" stroke="#bfbfbf" points="482.59,-118 482.59,-137 527.59,-137 527.59,-118 482.59,-118"/>
<text text-anchor="middle" x="505.09" y="-125" font-family="Helvetica,sans-Serif" font-size="10.00">utility</text>
</a>
</g>
</g>
<!-- Node9&#45;&gt;Node16 -->
<g id="edge17" class="edge">
<title>Node9&#45;&gt;Node16</title>
<path fill="none" stroke="midnightblue" d="M357.62,-179.45C388.33,-171.26 434.84,-157.97 474.09,-143 475.51,-142.46 476.96,-141.88 478.42,-141.27"/>
<polygon fill="midnightblue" stroke="midnightblue" points="480.17,-144.33 487.9,-137.08 477.34,-137.92 480.17,-144.33"/>
</g>
<!-- Node17&#45;&gt;Node14 -->
<g id="edge19" class="edge">
<title>Node17&#45;&gt;Node14</title>
<path fill="none" stroke="midnightblue" d="M419.95,-179.48C419.81,-171.08 419.59,-157.98 419.4,-147.16"/>
<polygon fill="midnightblue" stroke="midnightblue" points="422.9,-146.95 419.23,-137.01 415.9,-147.07 422.9,-146.95"/>
</g>
<!-- Node17&#45;&gt;Node16 -->
<g id="edge20" class="edge">
<title>Node17&#45;&gt;Node16</title>
<path fill="none" stroke="midnightblue" d="M432.27,-179.48C445.9,-169.93 468.22,-154.31 484.56,-142.87"/>
<polygon fill="midnightblue" stroke="midnightblue" points="486.75,-145.61 492.93,-137.01 482.74,-139.88 486.75,-145.61"/>
</g>
<!-- Node18&#45;&gt;Node5 -->
<g id="edge23" class="edge">
<title>Node18&#45;&gt;Node5</title>
<path fill="none" stroke="midnightblue" d="M946.88,-179.48C976.68,-169.22 1026.88,-151.96 1060.49,-140.4"/>
<polygon fill="midnightblue" stroke="midnightblue" points="1062.03,-143.57 1070.35,-137.01 1059.76,-136.95 1062.03,-143.57"/>
</g>
<!-- Node18&#45;&gt;Node6 -->
<g id="edge24" class="edge">
<title>Node18&#45;&gt;Node6</title>
<path fill="none" stroke="midnightblue" d="M876.99,-179.43C831.31,-170.65 758.68,-156.43 696.09,-143 694.83,-142.73 693.55,-142.45 692.26,-142.17"/>
<polygon fill="midnightblue" stroke="midnightblue" points="692.76,-138.7 682.24,-139.96 691.25,-145.53 692.76,-138.7"/>
</g>
<!-- Node18&#45;&gt;Node16 -->
<g id="edge29" class="edge">
<title>Node18&#45;&gt;Node16</title>
<path fill="none" stroke="midnightblue" d="M863.57,-181.77C794.43,-174.1 676.03,-159.98 575.09,-143 562.78,-140.93 549.35,-138.25 537.57,-135.76"/>
<polygon fill="midnightblue" stroke="midnightblue" points="538.22,-132.32 527.71,-133.64 536.75,-139.16 538.22,-132.32"/>
</g>
<!-- Node19 -->
<g id="node19" class="node">
<title>Node19</title>
<g id="a_node19"><a xlink:title=" ">
<polygon fill="white" stroke="#bfbfbf" points="1202.09,-118 1202.09,-137 1336.09,-137 1336.09,-118 1202.09,-118"/>
<text text-anchor="middle" x="1269.09" y="-125" font-family="Helvetica,sans-Serif" font-size="10.00">tvm/ffi/container/array.h</text>
</a>
</g>
</g>
<!-- Node18&#45;&gt;Node19 -->
<g id="edge22" class="edge">
<title>Node18&#45;&gt;Node19</title>
<path fill="none" stroke="midnightblue" d="M971.81,-179.48C1034.55,-168.72 1142.36,-150.23 1209.47,-138.72"/>
<polygon fill="midnightblue" stroke="midnightblue" points="1210.2,-142.15 1219.47,-137.01 1209.02,-135.25 1210.2,-142.15"/>
</g>
<!-- Node20 -->
<g id="node20" class="node">
<title>Node20</title>
<g id="a_node20"><a xlink:href="runtime_2base_8h.html" target="_top" xlink:title=" ">
<polygon fill="white" stroke="black" points="606.59,-56.5 606.59,-75.5 719.59,-75.5 719.59,-56.5 606.59,-56.5"/>
<text text-anchor="middle" x="663.09" y="-63.5" font-family="Helvetica,sans-Serif" font-size="10.00">tvm/runtime/base.h</text>
</a>
</g>
</g>
<!-- Node18&#45;&gt;Node20 -->
<g id="edge25" class="edge">
<title>Node18&#45;&gt;Node20</title>
<path fill="none" stroke="midnightblue" d="M869.13,-179.43C820.43,-170.88 752.37,-157.03 729.09,-143 704.84,-128.39 684.85,-101.83 673.44,-84.3"/>
<polygon fill="midnightblue" stroke="midnightblue" points="676.29,-82.25 668.01,-75.63 670.35,-85.96 676.29,-82.25"/>
</g>
<!-- Node22 -->
<g id="node22" class="node">
<title>Node22</title>
<g id="a_node22"><a xlink:title=" ">
<polygon fill="white" stroke="#bfbfbf" points="894.59,-118 894.59,-137 949.59,-137 949.59,-118 894.59,-118"/>
<text text-anchor="middle" x="922.09" y="-125" font-family="Helvetica,sans-Serif" font-size="10.00">fstream</text>
</a>
</g>
</g>
<!-- Node18&#45;&gt;Node22 -->
<g id="edge27" class="edge">
<title>Node18&#45;&gt;Node22</title>
<path fill="none" stroke="midnightblue" d="M922.09,-179.48C922.09,-171.08 922.09,-157.98 922.09,-147.16"/>
<polygon fill="midnightblue" stroke="midnightblue" points="925.59,-147.01 922.09,-137.01 918.59,-147.01 925.59,-147.01"/>
</g>
<!-- Node18&#45;&gt;Node23 -->
<g id="edge28" class="edge">
<title>Node18&#45;&gt;Node23</title>
<path fill="none" stroke="midnightblue" d="M929.88,-179.26C946.39,-160.97 984.77,-119.73 1002.09,-112 1026.28,-101.2 1413.59,-76.22 1528.93,-68.99"/>
<polygon fill="midnightblue" stroke="midnightblue" points="1529.15,-72.49 1538.92,-68.37 1528.72,-65.5 1529.15,-72.49"/>
</g>
<!-- Node18&#45;&gt;Node24 -->
<g id="edge30" class="edge">
<title>Node18&#45;&gt;Node24</title>
<path fill="none" stroke="midnightblue" d="M980.6,-188.82C1075.18,-188.81 1266.84,-183.2 1423.09,-143 1425.39,-142.41 1427.74,-141.67 1430.06,-140.85"/>
<polygon fill="midnightblue" stroke="midnightblue" points="1431.37,-144.1 1439.34,-137.11 1428.76,-137.6 1431.37,-144.1"/>
</g>
<!-- Node21 -->
<g id="node21" class="node">
<title>Node21</title>
<g id="a_node21"><a xlink:title=" ">
<polygon fill="white" stroke="#bfbfbf" points="620.09,-0.5 620.09,-19.5 706.09,-19.5 706.09,-0.5 620.09,-0.5"/>
<text text-anchor="middle" x="663.09" y="-7.5" font-family="Helvetica,sans-Serif" font-size="10.00">tvm/ffi/c_api.h</text>
</a>
</g>
</g>
<!-- Node20&#45;&gt;Node21 -->
<g id="edge26" class="edge">
<title>Node20&#45;&gt;Node21</title>
<path fill="none" stroke="midnightblue" d="M663.09,-56.08C663.09,-49.01 663.09,-38.86 663.09,-29.99"/>
<polygon fill="midnightblue" stroke="midnightblue" points="666.59,-29.75 663.09,-19.75 659.59,-29.75 666.59,-29.75"/>
</g>
<!-- Node25&#45;&gt;Node12 -->
<g id="edge33" class="edge">
<title>Node25&#45;&gt;Node12</title>
<path fill="none" stroke="midnightblue" d="M740.56,-117.97C724.38,-115.96 707.12,-113.86 691.09,-112 559.58,-96.77 404.79,-80.75 324.18,-72.55"/>
<polygon fill="midnightblue" stroke="midnightblue" points="324.08,-69.02 313.78,-71.5 323.37,-75.99 324.08,-69.02"/>
</g>
<!-- Node25&#45;&gt;Node13 -->
<g id="edge34" class="edge">
<title>Node25&#45;&gt;Node13</title>
<path fill="none" stroke="midnightblue" d="M825.57,-117.98C847.22,-107.99 883.3,-91.35 908.32,-79.81"/>
<polygon fill="midnightblue" stroke="midnightblue" points="910.03,-82.88 917.64,-75.51 907.1,-76.52 910.03,-82.88"/>
</g>
<!-- Node25&#45;&gt;Node20 -->
<g id="edge35" class="edge">
<title>Node25&#45;&gt;Node20</title>
<path fill="none" stroke="midnightblue" d="M786.46,-117.98C761.97,-107.86 720.94,-90.9 692.98,-79.35"/>
<polygon fill="midnightblue" stroke="midnightblue" points="694.26,-76.09 683.68,-75.51 691.59,-82.56 694.26,-76.09"/>
</g>
<!-- Node25&#45;&gt;Node23 -->
<g id="edge37" class="edge">
<title>Node25&#45;&gt;Node23</title>
<path fill="none" stroke="midnightblue" d="M848.36,-118C860.47,-115.76 873.78,-113.54 886.09,-112 950.22,-104 1402.97,-76.5 1528.75,-68.94"/>
<polygon fill="midnightblue" stroke="midnightblue" points="1529.12,-72.42 1538.9,-68.33 1528.7,-65.43 1529.12,-72.42"/>
</g>
<!-- Node26 -->
<g id="node26" class="node">
<title>Node26</title>
<g id="a_node26"><a xlink:title=" ">
<polygon fill="white" stroke="#bfbfbf" points="737.59,-56.5 737.59,-75.5 876.59,-75.5 876.59,-56.5 737.59,-56.5"/>
<text text-anchor="middle" x="807.09" y="-63.5" font-family="Helvetica,sans-Serif" font-size="10.00">tvm/ffi/container/shape.h</text>
</a>
</g>
</g>
<!-- Node25&#45;&gt;Node26 -->
<g id="edge32" class="edge">
<title>Node25&#45;&gt;Node26</title>
<path fill="none" stroke="midnightblue" d="M807.09,-117.98C807.09,-109.58 807.09,-96.48 807.09,-85.66"/>
<polygon fill="midnightblue" stroke="midnightblue" points="810.59,-85.51 807.09,-75.51 803.59,-85.51 810.59,-85.51"/>
</g>
<!-- Node27 -->
<g id="node27" class="node">
<title>Node27</title>
<g id="a_node27"><a xlink:title=" ">
<polygon fill="white" stroke="#bfbfbf" points="1342.09,-56.5 1342.09,-75.5 1392.09,-75.5 1392.09,-56.5 1342.09,-56.5"/>
<text text-anchor="middle" x="1367.09" y="-63.5" font-family="Helvetica,sans-Serif" font-size="10.00">cstring</text>
</a>
</g>
</g>
<!-- Node25&#45;&gt;Node27 -->
<g id="edge36" class="edge">
<title>Node25&#45;&gt;Node27</title>
<path fill="none" stroke="midnightblue" d="M849.62,-117.98C861.4,-115.82 874.21,-113.64 886.09,-112 1051.93,-89.07 1251.59,-74.54 1331.5,-69.25"/>
<polygon fill="midnightblue" stroke="midnightblue" points="1332.21,-72.71 1341.96,-68.57 1331.76,-65.73 1332.21,-72.71"/>
</g>
<!-- Node25&#45;&gt;Node28 -->
<g id="edge38" class="edge">
<title>Node25&#45;&gt;Node28</title>
<path fill="none" stroke="midnightblue" d="M839.04,-117.98C878.29,-107.5 944.97,-89.71 988.26,-78.16"/>
<polygon fill="midnightblue" stroke="midnightblue" points="989.44,-81.47 998.2,-75.51 987.64,-74.71 989.44,-81.47"/>
</g>
<!-- Node32&#45;&gt;Node13 -->
<g id="edge45" class="edge">
<title>Node32&#45;&gt;Node13</title>
<path fill="none" stroke="midnightblue" d="M1290.79,-179.47C1262.81,-172.16 1224.15,-160.09 1193.09,-143 1173.99,-132.49 1174.78,-121.35 1155.09,-112 1140.13,-104.9 1047.83,-87.27 987.92,-76.31"/>
<polygon fill="midnightblue" stroke="midnightblue" points="988.34,-72.82 977.87,-74.47 987.08,-79.71 988.34,-72.82"/>
</g>
<!-- Node32&#45;&gt;Node24 -->
<g id="edge48" class="edge">
<title>Node32&#45;&gt;Node24</title>
<path fill="none" stroke="midnightblue" d="M1346.43,-179.48C1367.91,-169.49 1403.71,-152.85 1428.54,-141.31"/>
<polygon fill="midnightblue" stroke="midnightblue" points="1430.19,-144.4 1437.79,-137.01 1427.24,-138.05 1430.19,-144.4"/>
</g>
<!-- Node32&#45;&gt;Node25 -->
<g id="edge46" class="edge">
<title>Node32&#45;&gt;Node25</title>
<path fill="none" stroke="midnightblue" d="M1251.21,-182.05C1162.85,-174.78 1013.62,-161.17 886.09,-143 877.66,-141.8 868.75,-140.34 860.07,-138.83"/>
<polygon fill="midnightblue" stroke="midnightblue" points="860.5,-135.35 850.04,-137.03 859.26,-142.24 860.5,-135.35"/>
</g>
<!-- Node33 -->
<g id="node33" class="node">
<title>Node33</title>
<g id="a_node33"><a xlink:title=" ">
<polygon fill="white" stroke="#bfbfbf" points="1354.09,-118 1354.09,-137 1414.09,-137 1414.09,-118 1354.09,-118"/>
<text text-anchor="middle" x="1384.09" y="-125" font-family="Helvetica,sans-Serif" font-size="10.00">iostream</text>
</a>
</g>
</g>
<!-- Node32&#45;&gt;Node33 -->
<g id="edge47" class="edge">
<title>Node32&#45;&gt;Node33</title>
<path fill="none" stroke="midnightblue" d="M1336.11,-179.48C1344.68,-170.37 1358.45,-155.74 1369.05,-144.48"/>
<polygon fill="midnightblue" stroke="midnightblue" points="1371.78,-146.69 1376.08,-137.01 1366.68,-141.89 1371.78,-146.69"/>
</g>
<!-- Node34&#45;&gt;Node5 -->
<g id="edge51" class="edge">
<title>Node34&#45;&gt;Node5</title>
<path fill="none" stroke="midnightblue" d="M1519.55,-245.1C1446.19,-239.47 1335.54,-226.84 1243.09,-199 1196.57,-184.99 1146.29,-158.32 1117.94,-142.1"/>
<polygon fill="midnightblue" stroke="midnightblue" points="1119.61,-139.02 1109.21,-137.03 1116.1,-145.08 1119.61,-139.02"/>
</g>
<!-- Node34&#45;&gt;Node23 -->
<g id="edge69" class="edge">
<title>Node34&#45;&gt;Node23</title>
<path fill="none" stroke="midnightblue" d="M1621.52,-240.9C1646.68,-229.34 1683.61,-206.99 1672.09,-179 1654.21,-135.56 1610.43,-100.03 1583.5,-81.33"/>
<polygon fill="midnightblue" stroke="midnightblue" points="1585.32,-78.34 1575.08,-75.64 1581.41,-84.14 1585.32,-78.34"/>
</g>
<!-- Node34&#45;&gt;Node24 -->
<g id="edge71" class="edge">
<title>Node34&#45;&gt;Node24</title>
<path fill="none" stroke="midnightblue" d="M1586.61,-241C1571.78,-231.42 1547.47,-215.1 1528.09,-199 1507.2,-181.64 1485.17,-159.41 1471.06,-144.6"/>
<polygon fill="midnightblue" stroke="midnightblue" points="1473.5,-142.09 1464.1,-137.21 1468.41,-146.89 1473.5,-142.09"/>
</g>
<!-- Node34&#45;&gt;Node32 -->
<g id="edge72" class="edge">
<title>Node34&#45;&gt;Node32</title>
<path fill="none" stroke="midnightblue" d="M1561.12,-240.98C1512.54,-230.35 1429.51,-212.18 1376.79,-200.65"/>
<polygon fill="midnightblue" stroke="midnightblue" points="1377.51,-197.23 1366.99,-198.51 1376.01,-204.07 1377.51,-197.23"/>
</g>
<!-- Node35 -->
<g id="node35" class="node">
<title>Node35</title>
<g id="a_node35"><a xlink:title=" ">
<polygon fill="white" stroke="#bfbfbf" points="1537.09,-179.5 1537.09,-198.5 1663.09,-198.5 1663.09,-179.5 1537.09,-179.5"/>
<text text-anchor="middle" x="1600.09" y="-186.5" font-family="Helvetica,sans-Serif" font-size="10.00">tvm/ffi/extra/module.h</text>
</a>
</g>
</g>
<!-- Node34&#45;&gt;Node35 -->
<g id="edge50" class="edge">
<title>Node34&#45;&gt;Node35</title>
<path fill="none" stroke="midnightblue" d="M1600.09,-240.98C1600.09,-232.58 1600.09,-219.48 1600.09,-208.66"/>
<polygon fill="midnightblue" stroke="midnightblue" points="1603.59,-208.51 1600.09,-198.51 1596.59,-208.51 1603.59,-208.51"/>
</g>
<!-- Node36 -->
<g id="node36" class="node">
<title>Node36</title>
<g id="a_node36"><a xlink:href="io_8h.html" target="_top" xlink:title="Binary stream I/O interface.">
<polygon fill="white" stroke="black" points="2168.59,-118 2168.59,-137 2265.59,-137 2265.59,-118 2168.59,-118"/>
<text text-anchor="middle" x="2217.09" y="-125" font-family="Helvetica,sans-Serif" font-size="10.00">tvm/support/io.h</text>
</a>
</g>
</g>
<!-- Node34&#45;&gt;Node36 -->
<g id="edge52" class="edge">
<title>Node34&#45;&gt;Node36</title>
<path fill="none" stroke="midnightblue" d="M1644.26,-240.96C1696,-230.96 1784.28,-213.85 1860.09,-199 1968.23,-177.82 2094.74,-152.77 2164.38,-138.96"/>
<polygon fill="midnightblue" stroke="midnightblue" points="2165.11,-142.39 2174.24,-137.01 2163.75,-135.52 2165.11,-142.39"/>
</g>
<!-- Node39 -->
<g id="node39" class="node">
<title>Node39</title>
<g id="a_node39"><a xlink:href="serializer_8h.html" target="_top" xlink:title="Serializer&lt;T&gt; specializations for tvm::support::Stream.">
<polygon fill="white" stroke="black" points="1719.09,-179.5 1719.09,-198.5 1851.09,-198.5 1851.09,-179.5 1719.09,-179.5"/>
<text text-anchor="middle" x="1785.09" y="-186.5" font-family="Helvetica,sans-Serif" font-size="10.00">tvm/support/serializer.h</text>
</a>
</g>
</g>
<!-- Node34&#45;&gt;Node39 -->
<g id="edge55" class="edge">
<title>Node34&#45;&gt;Node39</title>
<path fill="none" stroke="midnightblue" d="M1626.6,-240.98C1658.74,-230.64 1713.08,-213.16 1749.02,-201.6"/>
<polygon fill="midnightblue" stroke="midnightblue" points="1750.19,-204.9 1758.63,-198.51 1748.04,-198.24 1750.19,-204.9"/>
</g>
<!-- Node34&#45;&gt;Node43 -->
<g id="edge70" class="edge">
<title>Node34&#45;&gt;Node43</title>
<path fill="none" stroke="midnightblue" d="M1669.51,-240.94C1792.33,-225.26 2055.69,-189.25 2275.09,-143 2279.91,-141.98 2284.94,-140.81 2289.91,-139.59"/>
<polygon fill="midnightblue" stroke="midnightblue" points="2291.14,-142.89 2299.96,-137.02 2289.41,-136.1 2291.14,-142.89"/>
</g>
<!-- Node37 -->
<g id="node37" class="node">
<title>Node37</title>
<g id="a_node37"><a xlink:title=" ">
<polygon fill="white" stroke="#bfbfbf" points="2190.59,-56.5 2190.59,-75.5 2243.59,-75.5 2243.59,-56.5 2190.59,-56.5"/>
<text text-anchor="middle" x="2217.09" y="-63.5" font-family="Helvetica,sans-Serif" font-size="10.00">cstddef</text>
</a>
</g>
</g>
<!-- Node36&#45;&gt;Node37 -->
<g id="edge53" class="edge">
<title>Node36&#45;&gt;Node37</title>
<path fill="none" stroke="midnightblue" d="M2217.09,-117.98C2217.09,-109.58 2217.09,-96.48 2217.09,-85.66"/>
<polygon fill="midnightblue" stroke="midnightblue" points="2220.59,-85.51 2217.09,-75.51 2213.59,-85.51 2220.59,-85.51"/>
</g>
<!-- Node38 -->
<g id="node38" class="node">
<title>Node38</title>
<g id="a_node38"><a xlink:title=" ">
<polygon fill="white" stroke="#bfbfbf" points="2118.09,-56.5 2118.09,-75.5 2168.09,-75.5 2168.09,-56.5 2118.09,-56.5"/>
<text text-anchor="middle" x="2143.09" y="-63.5" font-family="Helvetica,sans-Serif" font-size="10.00">cstdint</text>
</a>
</g>
</g>
<!-- Node36&#45;&gt;Node38 -->
<g id="edge54" class="edge">
<title>Node36&#45;&gt;Node38</title>
<path fill="none" stroke="midnightblue" d="M2206.49,-117.98C2194.84,-108.61 2175.9,-93.38 2161.76,-82.01"/>
<polygon fill="midnightblue" stroke="midnightblue" points="2163.66,-79.05 2153.67,-75.51 2159.27,-84.5 2163.66,-79.05"/>
</g>
<!-- Node39&#45;&gt;Node8 -->
<g id="edge60" class="edge">
<title>Node39&#45;&gt;Node8</title>
<path fill="none" stroke="midnightblue" d="M1750.16,-179.47C1713.14,-170.43 1652.99,-155.72 1601.09,-143 1596.41,-141.85 1591.51,-140.65 1586.64,-139.45"/>
<polygon fill="midnightblue" stroke="midnightblue" points="1587.26,-136 1576.72,-137.02 1585.6,-142.8 1587.26,-136"/>
</g>
<!-- Node39&#45;&gt;Node16 -->
<g id="edge67" class="edge">
<title>Node39&#45;&gt;Node16</title>
<path fill="none" stroke="midnightblue" d="M1718.8,-182.2C1703.47,-181 1687.22,-179.85 1672.09,-179 1185.04,-151.63 1059.49,-200.69 575.09,-143 562.7,-141.52 549.24,-138.97 537.47,-136.41"/>
<polygon fill="midnightblue" stroke="midnightblue" points="538.15,-132.98 527.63,-134.19 536.61,-139.81 538.15,-132.98"/>
</g>
<!-- Node39&#45;&gt;Node19 -->
<g id="edge57" class="edge">
<title>Node39&#45;&gt;Node19</title>
<path fill="none" stroke="midnightblue" d="M1718.97,-181.95C1614.39,-172.25 1415.47,-153.29 1345.09,-143 1337.06,-141.83 1328.58,-140.4 1320.32,-138.9"/>
<polygon fill="midnightblue" stroke="midnightblue" points="1320.87,-135.44 1310.4,-137.05 1319.59,-142.32 1320.87,-135.44"/>
</g>
<!-- Node39&#45;&gt;Node23 -->
<g id="edge64" class="edge">
<title>Node39&#45;&gt;Node23</title>
<path fill="none" stroke="midnightblue" d="M1778.34,-179.37C1765.64,-163.72 1736.64,-130.54 1705.09,-112 1669.64,-91.17 1623.52,-78.96 1593.14,-72.64"/>
<polygon fill="midnightblue" stroke="midnightblue" points="1593.59,-69.16 1583.1,-70.64 1592.22,-76.02 1593.59,-69.16"/>
</g>
<!-- Node39&#45;&gt;Node24 -->
<g id="edge68" class="edge">
<title>Node39&#45;&gt;Node24</title>
<path fill="none" stroke="midnightblue" d="M1719.06,-182.97C1658.36,-177.18 1566.34,-165.42 1489.09,-143 1486.94,-142.38 1484.75,-141.64 1482.57,-140.85"/>
<polygon fill="midnightblue" stroke="midnightblue" points="1483.82,-137.58 1473.24,-137.05 1481.19,-144.06 1483.82,-137.58"/>
</g>
<!-- Node39&#45;&gt;Node27 -->
<g id="edge63" class="edge">
<title>Node39&#45;&gt;Node27</title>
<path fill="none" stroke="midnightblue" d="M1769.07,-179.47C1735.27,-161.61 1657.48,-121.15 1629.09,-112 1550.35,-86.63 1453.43,-74.72 1402.39,-69.87"/>
<polygon fill="midnightblue" stroke="midnightblue" points="1402.49,-66.36 1392.21,-68.94 1401.85,-73.33 1402.49,-66.36"/>
</g>
<!-- Node39&#45;&gt;Node28 -->
<g id="edge65" class="edge">
<title>Node39&#45;&gt;Node28</title>
<path fill="none" stroke="midnightblue" d="M1733.15,-179.43C1701.58,-172.71 1661.3,-161.34 1629.09,-143 1611.6,-133.04 1614.49,-120.15 1596.09,-112 1548.91,-91.12 1200.34,-74.29 1074.9,-68.86"/>
<polygon fill="midnightblue" stroke="midnightblue" points="1075,-65.36 1064.86,-68.43 1074.7,-72.35 1075,-65.36"/>
</g>
<!-- Node39&#45;&gt;Node36 -->
<g id="edge61" class="edge">
<title>Node39&#45;&gt;Node36</title>
<path fill="none" stroke="midnightblue" d="M1851.39,-182.03C1925.49,-174.87 2048.89,-161.47 2154.09,-143 2160.26,-141.92 2166.73,-140.62 2173.08,-139.25"/>
<polygon fill="midnightblue" stroke="midnightblue" points="2173.89,-142.65 2182.89,-137.06 2172.37,-135.82 2173.89,-142.65"/>
</g>
<!-- Node39&#45;&gt;Node38 -->
<g id="edge62" class="edge">
<title>Node39&#45;&gt;Node38</title>
<path fill="none" stroke="midnightblue" d="M1851.16,-187.47C1937.34,-185.42 2081.79,-176.85 2121.09,-143 2137.48,-128.88 2142.03,-103.37 2143.11,-85.82"/>
<polygon fill="midnightblue" stroke="midnightblue" points="2146.61,-85.74 2143.4,-75.65 2139.61,-85.54 2146.61,-85.74"/>
</g>
<!-- Node40 -->
<g id="node40" class="node">
<title>Node40</title>
<g id="a_node40"><a xlink:title=" ">
<polygon fill="white" stroke="#bfbfbf" points="1757.59,-118 1757.59,-137 1850.59,-137 1850.59,-118 1757.59,-118"/>
<text text-anchor="middle" x="1804.09" y="-125" font-family="Helvetica,sans-Serif" font-size="10.00">dlpack/dlpack.h</text>
</a>
</g>
</g>
<!-- Node39&#45;&gt;Node40 -->
<g id="edge56" class="edge">
<title>Node39&#45;&gt;Node40</title>
<path fill="none" stroke="midnightblue" d="M1787.81,-179.48C1790.52,-170.99 1794.76,-157.7 1798.24,-146.82"/>
<polygon fill="midnightblue" stroke="midnightblue" points="1801.67,-147.6 1801.37,-137.01 1795,-145.47 1801.67,-147.6"/>
</g>
<!-- Node41 -->
<g id="node41" class="node">
<title>Node41</title>
<g id="a_node41"><a xlink:title=" ">
<polygon fill="white" stroke="#bfbfbf" points="1868.59,-118 1868.59,-137 1999.59,-137 1999.59,-118 1868.59,-118"/>
<text text-anchor="middle" x="1934.09" y="-125" font-family="Helvetica,sans-Serif" font-size="10.00">tvm/ffi/container/map.h</text>
</a>
</g>
</g>
<!-- Node39&#45;&gt;Node41 -->
<g id="edge58" class="edge">
<title>Node39&#45;&gt;Node41</title>
<path fill="none" stroke="midnightblue" d="M1806.44,-179.48C1831.78,-169.36 1874.23,-152.4 1903.16,-140.85"/>
<polygon fill="midnightblue" stroke="midnightblue" points="1904.79,-143.97 1912.78,-137.01 1902.2,-137.47 1904.79,-143.97"/>
</g>
<!-- Node42 -->
<g id="node42" class="node">
<title>Node42</title>
<g id="a_node42"><a xlink:title=" ">
<polygon fill="white" stroke="#bfbfbf" points="2018.09,-118 2018.09,-137 2112.09,-137 2112.09,-118 2018.09,-118"/>
<text text-anchor="middle" x="2065.09" y="-125" font-family="Helvetica,sans-Serif" font-size="10.00">tvm/ffi/endian.h</text>
</a>
</g>
</g>
<!-- Node39&#45;&gt;Node42 -->
<g id="edge59" class="edge">
<title>Node39&#45;&gt;Node42</title>
<path fill="none" stroke="midnightblue" d="M1831.58,-179.43C1877,-170.88 1948.01,-157.03 2009.09,-143 2013.8,-141.92 2018.71,-140.73 2023.59,-139.52"/>
<polygon fill="midnightblue" stroke="midnightblue" points="2024.64,-142.86 2033.48,-137.01 2022.92,-136.08 2024.64,-142.86"/>
</g>
<!-- Node39&#45;&gt;Node43 -->
<g id="edge66" class="edge">
<title>Node39&#45;&gt;Node43</title>
<path fill="none" stroke="midnightblue" d="M1851.34,-185.41C1945.94,-180.92 2124.92,-169.5 2275.09,-143 2280.5,-142.05 2286.16,-140.82 2291.69,-139.49"/>
<polygon fill="midnightblue" stroke="midnightblue" points="2292.63,-142.86 2301.46,-137.01 2290.91,-136.08 2292.63,-142.86"/>
</g>
</g>
</svg>
