<?xml version="1.0" encoding="UTF-8" standalone="no"?>
<!DOCTYPE svg PUBLIC "-//W3C//DTD SVG 1.1//EN"
 "http://www.w3.org/Graphics/SVG/1.1/DTD/svg11.dtd">
<!-- Generated by graphviz version 2.43.0 (0)
 -->
<!-- Title: include/tvm/relax/exec_builder.h Pages: 1 -->
<svg width="2144pt" height="341pt"
 viewBox="0.00 0.00 2144.28 341.00" xmlns="http://www.w3.org/2000/svg" xmlns:xlink="http://www.w3.org/1999/xlink">
<g id="graph0" class="graph" transform="scale(1 1) rotate(0) translate(4 337)">
<title>include/tvm/relax/exec_builder.h</title>
<polygon fill="white" stroke="transparent" points="-4,4 -4,-337 2140.28,-337 2140.28,4 -4,4"/>
<!-- Node1 -->
<g id="node1" class="node">
<title>Node1</title>
<g id="a_node1"><a xlink:title=" ">
<polygon fill="#bfbfbf" stroke="black" points="726.78,-302.5 726.78,-332.5 854.78,-332.5 854.78,-302.5 726.78,-302.5"/>
<text text-anchor="start" x="734.78" y="-320.5" font-family="Helvetica,sans-Serif" font-size="10.00">include/tvm/relax/exec</text>
<text text-anchor="middle" x="790.78" y="-309.5" font-family="Helvetica,sans-Serif" font-size="10.00">_builder.h</text>
</a>
</g>
</g>
<!-- Node2 -->
<g id="node2" class="node">
<title>Node2</title>
<g id="a_node2"><a xlink:title=" ">
<polygon fill="white" stroke="#bfbfbf" points="14.78,-179.5 14.78,-198.5 150.78,-198.5 150.78,-179.5 14.78,-179.5"/>
<text text-anchor="middle" x="82.78" y="-186.5" font-family="Helvetica,sans-Serif" font-size="10.00">tvm/ffi/extra/dataclass.h</text>
</a>
</g>
</g>
<!-- Node1&#45;&gt;Node2 -->
<g id="edge1" class="edge">
<title>Node1&#45;&gt;Node2</title>
<path fill="none" stroke="midnightblue" d="M726.49,-314.17C666.72,-309.95 576.38,-298.25 504.78,-266 484.59,-256.91 486.22,-243.51 465.78,-235 451.91,-229.23 269.27,-209.44 161.3,-198.12"/>
<polygon fill="midnightblue" stroke="midnightblue" points="161.4,-194.61 151.09,-197.05 160.67,-201.57 161.4,-194.61"/>
</g>
<!-- Node3 -->
<g id="node3" class="node">
<title>Node3</title>
<g id="a_node3"><a xlink:title=" ">
<polygon fill="white" stroke="#bfbfbf" points="185.28,-235.5 185.28,-265.5 312.28,-265.5 312.28,-235.5 185.28,-235.5"/>
<text text-anchor="start" x="193.28" y="-253.5" font-family="Helvetica,sans-Serif" font-size="10.00">tvm/ffi/extra/structural</text>
<text text-anchor="middle" x="248.78" y="-242.5" font-family="Helvetica,sans-Serif" font-size="10.00">_equal.h</text>
</a>
</g>
</g>
<!-- Node1&#45;&gt;Node3 -->
<g id="edge2" class="edge">
<title>Node1&#45;&gt;Node3</title>
<path fill="none" stroke="midnightblue" d="M726.68,-311.49C638.02,-304.14 472.79,-288.95 322.65,-266.21"/>
<polygon fill="midnightblue" stroke="midnightblue" points="322.74,-262.68 312.33,-264.63 321.68,-269.6 322.74,-262.68"/>
</g>
<!-- Node4 -->
<g id="node4" class="node">
<title>Node4</title>
<g id="a_node4"><a xlink:title=" ">
<polygon fill="white" stroke="#bfbfbf" points="330.28,-235.5 330.28,-265.5 457.28,-265.5 457.28,-235.5 330.28,-235.5"/>
<text text-anchor="start" x="338.28" y="-253.5" font-family="Helvetica,sans-Serif" font-size="10.00">tvm/ffi/extra/structural</text>
<text text-anchor="middle" x="393.78" y="-242.5" font-family="Helvetica,sans-Serif" font-size="10.00">_hash.h</text>
</a>
</g>
</g>
<!-- Node1&#45;&gt;Node4 -->
<g id="edge3" class="edge">
<title>Node1&#45;&gt;Node4</title>
<path fill="none" stroke="midnightblue" d="M726.54,-306.85C662.06,-297.04 559.92,-281.17 471.78,-266 470.48,-265.78 469.17,-265.55 467.85,-265.32"/>
<polygon fill="midnightblue" stroke="midnightblue" points="468.06,-261.8 457.6,-263.51 466.84,-268.7 468.06,-261.8"/>
</g>
<!-- Node5 -->
<g id="node5" class="node">
<title>Node5</title>
<g id="a_node5"><a xlink:title=" ">
<polygon fill="white" stroke="#bfbfbf" points="765.28,-118 765.28,-137 866.28,-137 866.28,-118 765.28,-118"/>
<text text-anchor="middle" x="815.78" y="-125" font-family="Helvetica,sans-Serif" font-size="10.00">tvm/ffi/function.h</text>
</a>
</g>
</g>
<!-- Node1&#45;&gt;Node5 -->
<g id="edge4" class="edge">
<title>Node1&#45;&gt;Node5</title>
<path fill="none" stroke="midnightblue" d="M792.66,-302.37C797.1,-268.94 808.27,-184.97 813.28,-147.3"/>
<polygon fill="midnightblue" stroke="midnightblue" points="816.77,-147.58 814.62,-137.21 809.83,-146.66 816.77,-147.58"/>
</g>
<!-- Node6 -->
<g id="node6" class="node">
<title>Node6</title>
<g id="a_node6"><a xlink:title=" ">
<polygon fill="white" stroke="#bfbfbf" points="90.78,-112.5 90.78,-142.5 188.78,-142.5 188.78,-112.5 90.78,-112.5"/>
<text text-anchor="start" x="98.78" y="-130.5" font-family="Helvetica,sans-Serif" font-size="10.00">tvm/ffi/reflection</text>
<text text-anchor="middle" x="139.78" y="-119.5" font-family="Helvetica,sans-Serif" font-size="10.00">/registry.h</text>
</a>
</g>
</g>
<!-- Node1&#45;&gt;Node6 -->
<g id="edge5" class="edge">
<title>Node1&#45;&gt;Node6</title>
<path fill="none" stroke="midnightblue" d="M726.53,-317.37C613.58,-317.54 372.72,-311.84 175.78,-266 96.68,-247.59 51.48,-266.13 5.78,-199 -16.75,-165.9 34.97,-147.23 80.56,-137.54"/>
<polygon fill="midnightblue" stroke="midnightblue" points="81.35,-140.95 90.46,-135.55 79.97,-134.09 81.35,-140.95"/>
</g>
<!-- Node7 -->
<g id="node7" class="node">
<title>Node7</title>
<g id="a_node7"><a xlink:href="ir_2expr_8h.html" target="_top" xlink:title="Base expr nodes in TVM.">
<polygon fill="white" stroke="black" points="514.28,-241 514.28,-260 593.28,-260 593.28,-241 514.28,-241"/>
<text text-anchor="middle" x="553.78" y="-248" font-family="Helvetica,sans-Serif" font-size="10.00">tvm/ir/expr.h</text>
</a>
</g>
</g>
<!-- Node1&#45;&gt;Node7 -->
<g id="edge6" class="edge">
<title>Node1&#45;&gt;Node7</title>
<path fill="none" stroke="midnightblue" d="M739.65,-302.48C696.24,-290.57 634.78,-273.72 594.61,-262.7"/>
<polygon fill="midnightblue" stroke="midnightblue" points="595.45,-259.3 584.88,-260.03 593.59,-266.05 595.45,-259.3"/>
</g>
<!-- Node17 -->
<g id="node17" class="node">
<title>Node17</title>
<g id="a_node17"><a xlink:title=" ">
<polygon fill="white" stroke="#bfbfbf" points="1004.78,-56.5 1004.78,-75.5 1048.78,-75.5 1048.78,-56.5 1004.78,-56.5"/>
<text text-anchor="middle" x="1026.78" y="-63.5" font-family="Helvetica,sans-Serif" font-size="10.00">string</text>
</a>
</g>
</g>
<!-- Node1&#45;&gt;Node17 -->
<g id="edge65" class="edge">
<title>Node1&#45;&gt;Node17</title>
<path fill="none" stroke="midnightblue" d="M855.02,-309.4C893.83,-302.78 942.92,-290.11 980.78,-266 1035.18,-231.35 1046.27,-206.46 1057.78,-143 1060.24,-129.44 1061.87,-125.16 1057.78,-112 1054.55,-101.62 1048,-91.52 1041.75,-83.53"/>
<polygon fill="midnightblue" stroke="midnightblue" points="1044.36,-81.19 1035.26,-75.77 1038.99,-85.68 1044.36,-81.19"/>
</g>
<!-- Node18 -->
<g id="node18" class="node">
<title>Node18</title>
<g id="a_node18"><a xlink:title=" ">
<polygon fill="white" stroke="#bfbfbf" points="1001.28,-118 1001.28,-137 1048.28,-137 1048.28,-118 1001.28,-118"/>
<text text-anchor="middle" x="1024.78" y="-125" font-family="Helvetica,sans-Serif" font-size="10.00">vector</text>
</a>
</g>
</g>
<!-- Node1&#45;&gt;Node18 -->
<g id="edge67" class="edge">
<title>Node1&#45;&gt;Node18</title>
<path fill="none" stroke="midnightblue" d="M853.86,-302.45C907.66,-286.87 982.1,-256.05 1019.78,-199 1029.8,-183.82 1029.9,-162.59 1028.2,-147.4"/>
<polygon fill="midnightblue" stroke="midnightblue" points="1031.61,-146.54 1026.68,-137.16 1024.68,-147.56 1031.61,-146.54"/>
</g>
<!-- Node28 -->
<g id="node28" class="node">
<title>Node28</title>
<g id="a_node28"><a xlink:href="bytecode_8h.html" target="_top" xlink:title="The bytecode for the virtual machine.">
<polygon fill="white" stroke="black" points="857.28,-179.5 857.28,-198.5 1010.28,-198.5 1010.28,-179.5 857.28,-179.5"/>
<text text-anchor="middle" x="933.78" y="-186.5" font-family="Helvetica,sans-Serif" font-size="10.00">tvm/runtime/vm/bytecode.h</text>
</a>
</g>
</g>
<!-- Node1&#45;&gt;Node28 -->
<g id="edge36" class="edge">
<title>Node1&#45;&gt;Node28</title>
<path fill="none" stroke="midnightblue" d="M806.63,-302.48C833.52,-278.69 887.88,-230.6 916.01,-205.71"/>
<polygon fill="midnightblue" stroke="midnightblue" points="918.67,-208.04 923.84,-198.79 914.04,-202.79 918.67,-208.04"/>
</g>
<!-- Node30 -->
<g id="node30" class="node">
<title>Node30</title>
<g id="a_node30"><a xlink:href="executable_8h.html" target="_top" xlink:title=" ">
<polygon fill="white" stroke="black" points="1163.28,-241 1163.28,-260 1324.28,-260 1324.28,-241 1163.28,-241"/>
<text text-anchor="middle" x="1243.78" y="-248" font-family="Helvetica,sans-Serif" font-size="10.00">tvm/runtime/vm/executable.h</text>
</a>
</g>
</g>
<!-- Node1&#45;&gt;Node30 -->
<g id="edge41" class="edge">
<title>Node1&#45;&gt;Node30</title>
<path fill="none" stroke="midnightblue" d="M855.2,-307.26C939.67,-295.14 1087.3,-273.95 1174.23,-261.48"/>
<polygon fill="midnightblue" stroke="midnightblue" points="1174.87,-264.92 1184.27,-260.04 1173.87,-258 1174.87,-264.92"/>
</g>
<!-- Node39 -->
<g id="node39" class="node">
<title>Node39</title>
<g id="a_node39"><a xlink:title=" ">
<polygon fill="white" stroke="#bfbfbf" points="2043.28,-118 2043.28,-137 2136.28,-137 2136.28,-118 2043.28,-118"/>
<text text-anchor="middle" x="2089.78" y="-125" font-family="Helvetica,sans-Serif" font-size="10.00">unordered_map</text>
</a>
</g>
</g>
<!-- Node1&#45;&gt;Node39 -->
<g id="edge66" class="edge">
<title>Node1&#45;&gt;Node39</title>
<path fill="none" stroke="midnightblue" d="M854.85,-311.72C956.55,-303.88 1161.08,-287.01 1333.78,-266 1532.32,-241.84 1582.09,-235.28 1778.78,-199 1893.32,-177.87 1921.55,-170.3 2034.78,-143 2039.22,-141.93 2043.85,-140.77 2048.46,-139.6"/>
<polygon fill="midnightblue" stroke="midnightblue" points="2049.62,-142.91 2058.43,-137.01 2047.87,-136.13 2049.62,-142.91"/>
</g>
<!-- Node7&#45;&gt;Node2 -->
<g id="edge7" class="edge">
<title>Node7&#45;&gt;Node2</title>
<path fill="none" stroke="midnightblue" d="M525.38,-240.99C517.18,-238.77 508.18,-236.57 499.78,-235 352.58,-207.5 313.65,-215.17 164.78,-199 163.5,-198.86 162.21,-198.72 160.9,-198.58"/>
<polygon fill="midnightblue" stroke="midnightblue" points="161.11,-195.08 150.79,-197.48 160.35,-202.04 161.11,-195.08"/>
</g>
<!-- Node7&#45;&gt;Node6 -->
<g id="edge8" class="edge">
<title>Node7&#45;&gt;Node6</title>
<path fill="none" stroke="midnightblue" d="M525.09,-240.99C516.96,-238.8 508.07,-236.61 499.78,-235 369.24,-209.7 320.65,-260.53 202.78,-199 181.91,-188.11 164.65,-167.29 153.5,-151.08"/>
<polygon fill="midnightblue" stroke="midnightblue" points="156.38,-149.08 147.96,-142.65 150.53,-152.93 156.38,-149.08"/>
</g>
<!-- Node8 -->
<g id="node8" class="node">
<title>Node8</title>
<g id="a_node8"><a xlink:title=" ">
<polygon fill="white" stroke="#bfbfbf" points="1295.28,-118 1295.28,-137 1384.28,-137 1384.28,-118 1295.28,-118"/>
<text text-anchor="middle" x="1339.78" y="-125" font-family="Helvetica,sans-Serif" font-size="10.00">tvm/ffi/string.h</text>
</a>
</g>
</g>
<!-- Node7&#45;&gt;Node8 -->
<g id="edge9" class="edge">
<title>Node7&#45;&gt;Node8</title>
<path fill="none" stroke="midnightblue" d="M593.56,-246.66C674.29,-240.57 862.98,-224.69 1019.78,-199 1119.81,-182.61 1235.63,-154.88 1296.79,-139.54"/>
<polygon fill="midnightblue" stroke="midnightblue" points="1298,-142.84 1306.84,-137 1296.29,-136.05 1298,-142.84"/>
</g>
<!-- Node9 -->
<g id="node9" class="node">
<title>Node9</title>
<g id="a_node9"><a xlink:href="cow_8h.html" target="_top" xlink:title="Copy&#45;on&#45;write helper macro for IR ffi::ObjectRef types.">
<polygon fill="white" stroke="black" points="245.28,-179.5 245.28,-198.5 322.28,-198.5 322.28,-179.5 245.28,-179.5"/>
<text text-anchor="middle" x="283.78" y="-186.5" font-family="Helvetica,sans-Serif" font-size="10.00">tvm/ir/cow.h</text>
</a>
</g>
</g>
<!-- Node7&#45;&gt;Node9 -->
<g id="edge10" class="edge">
<title>Node7&#45;&gt;Node9</title>
<path fill="none" stroke="midnightblue" d="M523.3,-240.99C515.64,-238.94 507.43,-236.82 499.78,-235 442.57,-221.37 376.28,-207.9 332.39,-199.31"/>
<polygon fill="midnightblue" stroke="midnightblue" points="333.04,-195.87 322.55,-197.39 331.7,-202.74 333.04,-195.87"/>
</g>
<!-- Node12 -->
<g id="node12" class="node">
<title>Node12</title>
<g id="a_node12"><a xlink:href="source__map_8h.html" target="_top" xlink:title="A map from source names to source code.">
<polygon fill="white" stroke="black" points="607.28,-179.5 607.28,-198.5 724.28,-198.5 724.28,-179.5 607.28,-179.5"/>
<text text-anchor="middle" x="665.78" y="-186.5" font-family="Helvetica,sans-Serif" font-size="10.00">tvm/ir/source_map.h</text>
</a>
</g>
</g>
<!-- Node7&#45;&gt;Node12 -->
<g id="edge13" class="edge">
<title>Node7&#45;&gt;Node12</title>
<path fill="none" stroke="midnightblue" d="M569.83,-240.98C588.37,-231.12 619.12,-214.79 640.8,-203.27"/>
<polygon fill="midnightblue" stroke="midnightblue" points="642.57,-206.29 649.76,-198.51 639.29,-200.11 642.57,-206.29"/>
</g>
<!-- Node7&#45;&gt;Node17 -->
<g id="edge34" class="edge">
<title>Node7&#45;&gt;Node17</title>
<path fill="none" stroke="midnightblue" d="M593.46,-249.25C634.22,-246.79 696.77,-236.57 733.78,-199 761.85,-170.51 727.21,-138.93 756.78,-112 774.2,-96.13 926.77,-77.83 994.56,-70.4"/>
<polygon fill="midnightblue" stroke="midnightblue" points="995.11,-73.86 1004.67,-69.3 994.36,-66.9 995.11,-73.86"/>
</g>
<!-- Node19 -->
<g id="node19" class="node">
<title>Node19</title>
<g id="a_node19"><a xlink:href="data__type_8h.html" target="_top" xlink:title=" ">
<polygon fill="white" stroke="black" points="532.78,-118 532.78,-137 670.78,-137 670.78,-118 532.78,-118"/>
<text text-anchor="middle" x="601.78" y="-125" font-family="Helvetica,sans-Serif" font-size="10.00">tvm/runtime/data_type.h</text>
</a>
</g>
</g>
<!-- Node7&#45;&gt;Node19 -->
<g id="edge23" class="edge">
<title>Node7&#45;&gt;Node19</title>
<path fill="none" stroke="midnightblue" d="M557.23,-240.8C565.02,-221.18 584.07,-173.14 594.56,-146.69"/>
<polygon fill="midnightblue" stroke="midnightblue" points="597.92,-147.71 598.36,-137.12 591.42,-145.13 597.92,-147.71"/>
</g>
<!-- Node24 -->
<g id="node24" class="node">
<title>Node24</title>
<g id="a_node24"><a xlink:title=" ">
<polygon fill="white" stroke="#bfbfbf" points="609.28,-56.5 609.28,-75.5 678.28,-75.5 678.28,-56.5 609.28,-56.5"/>
<text text-anchor="middle" x="643.78" y="-63.5" font-family="Helvetica,sans-Serif" font-size="10.00">type_traits</text>
</a>
</g>
</g>
<!-- Node7&#45;&gt;Node24 -->
<g id="edge35" class="edge">
<title>Node7&#45;&gt;Node24</title>
<path fill="none" stroke="midnightblue" d="M524.79,-240.99C516.74,-238.83 507.96,-236.65 499.78,-235 441.74,-223.3 274.72,-243.61 235.78,-199 210.35,-169.87 209.82,-140.66 235.78,-112 261.57,-83.53 527.97,-82.15 598.97,-75.61"/>
<polygon fill="midnightblue" stroke="midnightblue" points="599.72,-79.04 609.25,-74.41 598.92,-72.09 599.72,-79.04"/>
</g>
<!-- Node25 -->
<g id="node25" class="node">
<title>Node25</title>
<g id="a_node25"><a xlink:title=" ">
<polygon fill="white" stroke="#bfbfbf" points="340.78,-179.5 340.78,-198.5 404.78,-198.5 404.78,-179.5 340.78,-179.5"/>
<text text-anchor="middle" x="372.78" y="-186.5" font-family="Helvetica,sans-Serif" font-size="10.00">algorithm</text>
</a>
</g>
</g>
<!-- Node7&#45;&gt;Node25 -->
<g id="edge31" class="edge">
<title>Node7&#45;&gt;Node25</title>
<path fill="none" stroke="midnightblue" d="M527.85,-240.98C496.53,-230.68 443.69,-213.31 408.52,-201.75"/>
<polygon fill="midnightblue" stroke="midnightblue" points="409.26,-198.31 398.66,-198.51 407.07,-204.96 409.26,-198.31"/>
</g>
<!-- Node26 -->
<g id="node26" class="node">
<title>Node26</title>
<g id="a_node26"><a xlink:title=" ">
<polygon fill="white" stroke="#bfbfbf" points="423.28,-179.5 423.28,-198.5 488.28,-198.5 488.28,-179.5 423.28,-179.5"/>
<text text-anchor="middle" x="455.78" y="-186.5" font-family="Helvetica,sans-Serif" font-size="10.00">functional</text>
</a>
</g>
</g>
<!-- Node7&#45;&gt;Node26 -->
<g id="edge32" class="edge">
<title>Node7&#45;&gt;Node26</title>
<path fill="none" stroke="midnightblue" d="M539.74,-240.98C523.73,-231.25 497.33,-215.23 478.41,-203.74"/>
<polygon fill="midnightblue" stroke="midnightblue" points="480.16,-200.71 469.79,-198.51 476.53,-206.69 480.16,-200.71"/>
</g>
<!-- Node27 -->
<g id="node27" class="node">
<title>Node27</title>
<g id="a_node27"><a xlink:title=" ">
<polygon fill="white" stroke="#bfbfbf" points="506.78,-179.5 506.78,-198.5 550.78,-198.5 550.78,-179.5 506.78,-179.5"/>
<text text-anchor="middle" x="528.78" y="-186.5" font-family="Helvetica,sans-Serif" font-size="10.00">limits</text>
</a>
</g>
</g>
<!-- Node7&#45;&gt;Node27 -->
<g id="edge33" class="edge">
<title>Node7&#45;&gt;Node27</title>
<path fill="none" stroke="midnightblue" d="M550.2,-240.98C546.6,-232.4 540.93,-218.93 536.33,-207.98"/>
<polygon fill="midnightblue" stroke="midnightblue" points="539.45,-206.37 532.35,-198.51 533,-209.08 539.45,-206.37"/>
</g>
<!-- Node10 -->
<g id="node10" class="node">
<title>Node10</title>
<g id="a_node10"><a xlink:title=" ">
<polygon fill="white" stroke="#bfbfbf" points="245.28,-118 245.28,-137 336.28,-137 336.28,-118 245.28,-118"/>
<text text-anchor="middle" x="290.78" y="-125" font-family="Helvetica,sans-Serif" font-size="10.00">tvm/ffi/object.h</text>
</a>
</g>
</g>
<!-- Node9&#45;&gt;Node10 -->
<g id="edge11" class="edge">
<title>Node9&#45;&gt;Node10</title>
<path fill="none" stroke="midnightblue" d="M284.78,-179.48C285.77,-171.08 287.31,-157.98 288.58,-147.16"/>
<polygon fill="midnightblue" stroke="midnightblue" points="292.09,-147.35 289.78,-137.01 285.13,-146.53 292.09,-147.35"/>
</g>
<!-- Node11 -->
<g id="node11" class="node">
<title>Node11</title>
<g id="a_node11"><a xlink:title=" ">
<polygon fill="white" stroke="#bfbfbf" points="357.28,-118 357.28,-137 402.28,-137 402.28,-118 357.28,-118"/>
<text text-anchor="middle" x="379.78" y="-125" font-family="Helvetica,sans-Serif" font-size="10.00">utility</text>
</a>
</g>
</g>
<!-- Node9&#45;&gt;Node11 -->
<g id="edge12" class="edge">
<title>Node9&#45;&gt;Node11</title>
<path fill="none" stroke="midnightblue" d="M297.53,-179.48C313.15,-169.8 338.84,-153.87 357.36,-142.39"/>
<polygon fill="midnightblue" stroke="midnightblue" points="359.39,-145.25 366.05,-137.01 355.71,-139.3 359.39,-145.25"/>
</g>
<!-- Node12&#45;&gt;Node5 -->
<g id="edge15" class="edge">
<title>Node12&#45;&gt;Node5</title>
<path fill="none" stroke="midnightblue" d="M687.27,-179.48C712.89,-169.31 755.89,-152.26 785.02,-140.7"/>
<polygon fill="midnightblue" stroke="midnightblue" points="786.32,-143.95 794.33,-137.01 783.74,-137.44 786.32,-143.95"/>
</g>
<!-- Node12&#45;&gt;Node6 -->
<g id="edge16" class="edge">
<title>Node12&#45;&gt;Node6</title>
<path fill="none" stroke="midnightblue" d="M607.26,-182.73C524.43,-175.08 368.31,-159.93 235.78,-143 223.89,-141.48 211.2,-139.69 199.08,-137.89"/>
<polygon fill="midnightblue" stroke="midnightblue" points="199.46,-134.41 189.05,-136.38 198.42,-141.33 199.46,-134.41"/>
</g>
<!-- Node12&#45;&gt;Node11 -->
<g id="edge21" class="edge">
<title>Node12&#45;&gt;Node11</title>
<path fill="none" stroke="midnightblue" d="M607.19,-180.7C556.26,-173.57 480.81,-161.15 416.78,-143 414.19,-142.27 411.54,-141.42 408.89,-140.51"/>
<polygon fill="midnightblue" stroke="midnightblue" points="410.1,-137.23 399.51,-137.05 407.68,-143.8 410.1,-137.23"/>
</g>
<!-- Node13 -->
<g id="node13" class="node">
<title>Node13</title>
<g id="a_node13"><a xlink:title=" ">
<polygon fill="white" stroke="#bfbfbf" points="1104.78,-118 1104.78,-137 1238.78,-137 1238.78,-118 1104.78,-118"/>
<text text-anchor="middle" x="1171.78" y="-125" font-family="Helvetica,sans-Serif" font-size="10.00">tvm/ffi/container/array.h</text>
</a>
</g>
</g>
<!-- Node12&#45;&gt;Node13 -->
<g id="edge14" class="edge">
<title>Node12&#45;&gt;Node13</title>
<path fill="none" stroke="midnightblue" d="M724.58,-181.48C801.28,-172.92 939.62,-157.3 1057.78,-143 1070.05,-141.52 1083.05,-139.9 1095.72,-138.31"/>
<polygon fill="midnightblue" stroke="midnightblue" points="1096.31,-141.76 1105.79,-137.03 1095.43,-134.81 1096.31,-141.76"/>
</g>
<!-- Node14 -->
<g id="node14" class="node">
<title>Node14</title>
<g id="a_node14"><a xlink:href="runtime_2base_8h.html" target="_top" xlink:title=" ">
<polygon fill="white" stroke="black" points="371.28,-56.5 371.28,-75.5 484.28,-75.5 484.28,-56.5 371.28,-56.5"/>
<text text-anchor="middle" x="427.78" y="-63.5" font-family="Helvetica,sans-Serif" font-size="10.00">tvm/runtime/base.h</text>
</a>
</g>
</g>
<!-- Node12&#45;&gt;Node14 -->
<g id="edge17" class="edge">
<title>Node12&#45;&gt;Node14</title>
<path fill="none" stroke="midnightblue" d="M607.18,-182.58C551.26,-176.24 472.29,-163.86 449.78,-143 433.91,-128.3 429.24,-102.92 427.99,-85.57"/>
<polygon fill="midnightblue" stroke="midnightblue" points="431.49,-85.36 427.59,-75.51 424.5,-85.65 431.49,-85.36"/>
</g>
<!-- Node16 -->
<g id="node16" class="node">
<title>Node16</title>
<g id="a_node16"><a xlink:title=" ">
<polygon fill="white" stroke="#bfbfbf" points="459.28,-118 459.28,-137 514.28,-137 514.28,-118 459.28,-118"/>
<text text-anchor="middle" x="486.78" y="-125" font-family="Helvetica,sans-Serif" font-size="10.00">fstream</text>
</a>
</g>
</g>
<!-- Node12&#45;&gt;Node16 -->
<g id="edge19" class="edge">
<title>Node12&#45;&gt;Node16</title>
<path fill="none" stroke="midnightblue" d="M636.76,-179.42C607.93,-170.76 562.54,-156.72 523.78,-143 521.67,-142.25 519.49,-141.46 517.31,-140.65"/>
<polygon fill="midnightblue" stroke="midnightblue" points="518.41,-137.32 507.82,-137.03 515.91,-143.86 518.41,-137.32"/>
</g>
<!-- Node12&#45;&gt;Node17 -->
<g id="edge20" class="edge">
<title>Node12&#45;&gt;Node17</title>
<path fill="none" stroke="midnightblue" d="M669.58,-179.16C677.11,-162.85 695.57,-128.2 722.78,-112 734.41,-105.07 918.67,-80.85 994.53,-71.1"/>
<polygon fill="midnightblue" stroke="midnightblue" points="995.01,-74.57 1004.48,-69.83 994.12,-67.63 995.01,-74.57"/>
</g>
<!-- Node12&#45;&gt;Node18 -->
<g id="edge22" class="edge">
<title>Node12&#45;&gt;Node18</title>
<path fill="none" stroke="midnightblue" d="M724.49,-184.79C790.54,-180.07 900.52,-168.81 991.78,-143 993.93,-142.39 996.13,-141.67 998.31,-140.88"/>
<polygon fill="midnightblue" stroke="midnightblue" points="999.69,-144.1 1007.64,-137.1 997.06,-137.61 999.69,-144.1"/>
</g>
<!-- Node15 -->
<g id="node15" class="node">
<title>Node15</title>
<g id="a_node15"><a xlink:title=" ">
<polygon fill="white" stroke="#bfbfbf" points="384.78,-0.5 384.78,-19.5 470.78,-19.5 470.78,-0.5 384.78,-0.5"/>
<text text-anchor="middle" x="427.78" y="-7.5" font-family="Helvetica,sans-Serif" font-size="10.00">tvm/ffi/c_api.h</text>
</a>
</g>
</g>
<!-- Node14&#45;&gt;Node15 -->
<g id="edge18" class="edge">
<title>Node14&#45;&gt;Node15</title>
<path fill="none" stroke="midnightblue" d="M427.78,-56.08C427.78,-49.01 427.78,-38.86 427.78,-29.99"/>
<polygon fill="midnightblue" stroke="midnightblue" points="431.28,-29.75 427.78,-19.75 424.28,-29.75 431.28,-29.75"/>
</g>
<!-- Node19&#45;&gt;Node14 -->
<g id="edge27" class="edge">
<title>Node19&#45;&gt;Node14</title>
<path fill="none" stroke="midnightblue" d="M576.85,-117.98C546.74,-107.68 495.95,-90.31 462.14,-78.75"/>
<polygon fill="midnightblue" stroke="midnightblue" points="463.26,-75.43 452.66,-75.51 460.99,-82.06 463.26,-75.43"/>
</g>
<!-- Node19&#45;&gt;Node17 -->
<g id="edge29" class="edge">
<title>Node19&#45;&gt;Node17</title>
<path fill="none" stroke="midnightblue" d="M648.69,-117.95C660.46,-115.9 673.07,-113.79 684.78,-112 798.42,-94.6 933.95,-77.99 994.63,-70.77"/>
<polygon fill="midnightblue" stroke="midnightblue" points="995.21,-74.23 1004.73,-69.57 994.38,-67.28 995.21,-74.23"/>
</g>
<!-- Node20 -->
<g id="node20" class="node">
<title>Node20</title>
<g id="a_node20"><a xlink:title=" ">
<polygon fill="white" stroke="#bfbfbf" points="696.28,-56.5 696.28,-75.5 835.28,-75.5 835.28,-56.5 696.28,-56.5"/>
<text text-anchor="middle" x="765.78" y="-63.5" font-family="Helvetica,sans-Serif" font-size="10.00">tvm/ffi/container/shape.h</text>
</a>
</g>
</g>
<!-- Node19&#45;&gt;Node20 -->
<g id="edge24" class="edge">
<title>Node19&#45;&gt;Node20</title>
<path fill="none" stroke="midnightblue" d="M625.28,-117.98C653.41,-107.77 700.71,-90.61 732.57,-79.05"/>
<polygon fill="midnightblue" stroke="midnightblue" points="734.12,-82.21 742.33,-75.51 731.73,-75.63 734.12,-82.21"/>
</g>
<!-- Node21 -->
<g id="node21" class="node">
<title>Node21</title>
<g id="a_node21"><a xlink:title=" ">
<polygon fill="white" stroke="#bfbfbf" points="502.28,-56.5 502.28,-75.5 591.28,-75.5 591.28,-56.5 502.28,-56.5"/>
<text text-anchor="middle" x="546.78" y="-63.5" font-family="Helvetica,sans-Serif" font-size="10.00">tvm/ffi/dtype.h</text>
</a>
</g>
</g>
<!-- Node19&#45;&gt;Node21 -->
<g id="edge25" class="edge">
<title>Node19&#45;&gt;Node21</title>
<path fill="none" stroke="midnightblue" d="M593.9,-117.98C585.49,-108.87 571.96,-94.24 561.55,-82.98"/>
<polygon fill="midnightblue" stroke="midnightblue" points="564,-80.48 554.64,-75.51 558.86,-85.23 564,-80.48"/>
</g>
<!-- Node22 -->
<g id="node22" class="node">
<title>Node22</title>
<g id="a_node22"><a xlink:title=" ">
<polygon fill="white" stroke="#bfbfbf" points="853.28,-56.5 853.28,-75.5 936.28,-75.5 936.28,-56.5 853.28,-56.5"/>
<text text-anchor="middle" x="894.78" y="-63.5" font-family="Helvetica,sans-Serif" font-size="10.00">tvm/ffi/error.h</text>
</a>
</g>
</g>
<!-- Node19&#45;&gt;Node22 -->
<g id="edge26" class="edge">
<title>Node19&#45;&gt;Node22</title>
<path fill="none" stroke="midnightblue" d="M643.76,-117.98C696.3,-107.3 786.28,-89.03 843.03,-77.51"/>
<polygon fill="midnightblue" stroke="midnightblue" points="843.77,-80.93 852.88,-75.51 842.38,-74.07 843.77,-80.93"/>
</g>
<!-- Node23 -->
<g id="node23" class="node">
<title>Node23</title>
<g id="a_node23"><a xlink:title=" ">
<polygon fill="white" stroke="#bfbfbf" points="1439.78,-56.5 1439.78,-75.5 1489.78,-75.5 1489.78,-56.5 1439.78,-56.5"/>
<text text-anchor="middle" x="1464.78" y="-63.5" font-family="Helvetica,sans-Serif" font-size="10.00">cstring</text>
</a>
</g>
</g>
<!-- Node19&#45;&gt;Node23 -->
<g id="edge28" class="edge">
<title>Node19&#45;&gt;Node23</title>
<path fill="none" stroke="midnightblue" d="M670.8,-119.6C697.63,-117.03 728.62,-114.21 756.78,-112 1014.71,-91.74 1326.06,-74.43 1429.49,-68.87"/>
<polygon fill="midnightblue" stroke="midnightblue" points="1429.88,-72.35 1439.68,-68.32 1429.5,-65.36 1429.88,-72.35"/>
</g>
<!-- Node19&#45;&gt;Node24 -->
<g id="edge30" class="edge">
<title>Node19&#45;&gt;Node24</title>
<path fill="none" stroke="midnightblue" d="M607.8,-117.98C614.03,-109.14 623.95,-95.09 631.8,-83.98"/>
<polygon fill="midnightblue" stroke="midnightblue" points="634.87,-85.7 637.77,-75.51 629.15,-81.66 634.87,-85.7"/>
</g>
<!-- Node28&#45;&gt;Node18 -->
<g id="edge40" class="edge">
<title>Node28&#45;&gt;Node18</title>
<path fill="none" stroke="midnightblue" d="M946.82,-179.48C961.55,-169.84 985.75,-154.02 1003.29,-142.55"/>
<polygon fill="midnightblue" stroke="midnightblue" points="1005.31,-145.41 1011.77,-137.01 1001.48,-139.55 1005.31,-145.41"/>
</g>
<!-- Node28&#45;&gt;Node19 -->
<g id="edge38" class="edge">
<title>Node28&#45;&gt;Node19</title>
<path fill="none" stroke="midnightblue" d="M886.21,-179.48C826.3,-168.74 723.45,-150.31 659.22,-138.79"/>
<polygon fill="midnightblue" stroke="midnightblue" points="659.72,-135.33 649.26,-137.01 658.48,-142.22 659.72,-135.33"/>
</g>
<!-- Node28&#45;&gt;Node22 -->
<g id="edge37" class="edge">
<title>Node28&#45;&gt;Node22</title>
<path fill="none" stroke="midnightblue" d="M929.33,-179.22C924.93,-170.28 918.23,-155.93 913.78,-143 907.15,-123.75 901.78,-101.03 898.46,-85.48"/>
<polygon fill="midnightblue" stroke="midnightblue" points="901.86,-84.66 896.42,-75.57 895.01,-86.08 901.86,-84.66"/>
</g>
<!-- Node29 -->
<g id="node29" class="node">
<title>Node29</title>
<g id="a_node29"><a xlink:title=" ">
<polygon fill="white" stroke="#bfbfbf" points="922.78,-118 922.78,-137 982.78,-137 982.78,-118 922.78,-118"/>
<text text-anchor="middle" x="952.78" y="-125" font-family="Helvetica,sans-Serif" font-size="10.00">iostream</text>
</a>
</g>
</g>
<!-- Node28&#45;&gt;Node29 -->
<g id="edge39" class="edge">
<title>Node28&#45;&gt;Node29</title>
<path fill="none" stroke="midnightblue" d="M936.5,-179.48C939.21,-170.99 943.45,-157.7 946.93,-146.82"/>
<polygon fill="midnightblue" stroke="midnightblue" points="950.35,-147.6 950.06,-137.01 943.69,-145.47 950.35,-147.6"/>
</g>
<!-- Node30&#45;&gt;Node5 -->
<g id="edge43" class="edge">
<title>Node30&#45;&gt;Node5</title>
<path fill="none" stroke="midnightblue" d="M1163.12,-248.18C1062.39,-245.03 897.38,-234.44 848.78,-199 831.92,-186.71 823.4,-163.6 819.28,-147.2"/>
<polygon fill="midnightblue" stroke="midnightblue" points="822.64,-146.15 817.09,-137.12 815.8,-147.64 822.64,-146.15"/>
</g>
<!-- Node30&#45;&gt;Node17 -->
<g id="edge61" class="edge">
<title>Node30&#45;&gt;Node17</title>
<path fill="none" stroke="midnightblue" d="M1265.5,-240.99C1282.61,-232.98 1305.28,-219.18 1315.78,-199 1319.88,-191.11 1319.21,-187.2 1315.78,-179 1311.68,-169.22 1257.14,-116.99 1247.78,-112 1186.35,-79.28 1103.68,-70.3 1058.88,-67.87"/>
<polygon fill="midnightblue" stroke="midnightblue" points="1059.02,-64.37 1048.87,-67.4 1058.7,-71.37 1059.02,-64.37"/>
</g>
<!-- Node30&#45;&gt;Node18 -->
<g id="edge63" class="edge">
<title>Node30&#45;&gt;Node18</title>
<path fill="none" stroke="midnightblue" d="M1228.38,-240.99C1190.93,-220.3 1094.84,-167.21 1049.35,-142.08"/>
<polygon fill="midnightblue" stroke="midnightblue" points="1050.9,-138.93 1040.45,-137.16 1047.52,-145.06 1050.9,-138.93"/>
</g>
<!-- Node30&#45;&gt;Node28 -->
<g id="edge64" class="edge">
<title>Node30&#45;&gt;Node28</title>
<path fill="none" stroke="midnightblue" d="M1199.36,-240.98C1143.66,-230.28 1048.18,-211.96 988.16,-200.44"/>
<polygon fill="midnightblue" stroke="midnightblue" points="988.59,-196.96 978.11,-198.51 987.27,-203.83 988.59,-196.96"/>
</g>
<!-- Node31 -->
<g id="node31" class="node">
<title>Node31</title>
<g id="a_node31"><a xlink:title=" ">
<polygon fill="white" stroke="#bfbfbf" points="1180.78,-179.5 1180.78,-198.5 1306.78,-198.5 1306.78,-179.5 1180.78,-179.5"/>
<text text-anchor="middle" x="1243.78" y="-186.5" font-family="Helvetica,sans-Serif" font-size="10.00">tvm/ffi/extra/module.h</text>
</a>
</g>
</g>
<!-- Node30&#45;&gt;Node31 -->
<g id="edge42" class="edge">
<title>Node30&#45;&gt;Node31</title>
<path fill="none" stroke="midnightblue" d="M1243.78,-240.98C1243.78,-232.58 1243.78,-219.48 1243.78,-208.66"/>
<polygon fill="midnightblue" stroke="midnightblue" points="1247.28,-208.51 1243.78,-198.51 1240.28,-208.51 1247.28,-208.51"/>
</g>
<!-- Node32 -->
<g id="node32" class="node">
<title>Node32</title>
<g id="a_node32"><a xlink:href="io_8h.html" target="_top" xlink:title="Binary stream I/O interface.">
<polygon fill="white" stroke="black" points="1928.28,-118 1928.28,-137 2025.28,-137 2025.28,-118 1928.28,-118"/>
<text text-anchor="middle" x="1976.78" y="-125" font-family="Helvetica,sans-Serif" font-size="10.00">tvm/support/io.h</text>
</a>
</g>
</g>
<!-- Node30&#45;&gt;Node32 -->
<g id="edge44" class="edge">
<title>Node30&#45;&gt;Node32</title>
<path fill="none" stroke="midnightblue" d="M1307.39,-240.99C1377.25,-231.47 1492.68,-215.26 1591.78,-199 1710.42,-179.54 1848.97,-153.3 1923.23,-138.95"/>
<polygon fill="midnightblue" stroke="midnightblue" points="1924.13,-142.34 1933.28,-137.01 1922.8,-135.47 1924.13,-142.34"/>
</g>
<!-- Node35 -->
<g id="node35" class="node">
<title>Node35</title>
<g id="a_node35"><a xlink:href="serializer_8h.html" target="_top" xlink:title="Serializer&lt;T&gt; specializations for tvm::support::Stream.">
<polygon fill="white" stroke="black" points="1450.78,-179.5 1450.78,-198.5 1582.78,-198.5 1582.78,-179.5 1450.78,-179.5"/>
<text text-anchor="middle" x="1516.78" y="-186.5" font-family="Helvetica,sans-Serif" font-size="10.00">tvm/support/serializer.h</text>
</a>
</g>
</g>
<!-- Node30&#45;&gt;Node35 -->
<g id="edge47" class="edge">
<title>Node30&#45;&gt;Node35</title>
<path fill="none" stroke="midnightblue" d="M1282.89,-240.98C1331.65,-230.35 1414.99,-212.18 1467.9,-200.65"/>
<polygon fill="midnightblue" stroke="midnightblue" points="1468.71,-204.06 1477.74,-198.51 1467.22,-197.22 1468.71,-204.06"/>
</g>
<!-- Node30&#45;&gt;Node39 -->
<g id="edge62" class="edge">
<title>Node30&#45;&gt;Node39</title>
<path fill="none" stroke="midnightblue" d="M1324.39,-242.34C1468.13,-228.76 1777.74,-195.81 2034.78,-143 2039.79,-141.97 2045.02,-140.76 2050.19,-139.49"/>
<polygon fill="midnightblue" stroke="midnightblue" points="2051.12,-142.87 2059.95,-137 2049.39,-136.08 2051.12,-142.87"/>
</g>
<!-- Node33 -->
<g id="node33" class="node">
<title>Node33</title>
<g id="a_node33"><a xlink:title=" ">
<polygon fill="white" stroke="#bfbfbf" points="1950.28,-56.5 1950.28,-75.5 2003.28,-75.5 2003.28,-56.5 1950.28,-56.5"/>
<text text-anchor="middle" x="1976.78" y="-63.5" font-family="Helvetica,sans-Serif" font-size="10.00">cstddef</text>
</a>
</g>
</g>
<!-- Node32&#45;&gt;Node33 -->
<g id="edge45" class="edge">
<title>Node32&#45;&gt;Node33</title>
<path fill="none" stroke="midnightblue" d="M1976.78,-117.98C1976.78,-109.58 1976.78,-96.48 1976.78,-85.66"/>
<polygon fill="midnightblue" stroke="midnightblue" points="1980.28,-85.51 1976.78,-75.51 1973.28,-85.51 1980.28,-85.51"/>
</g>
<!-- Node34 -->
<g id="node34" class="node">
<title>Node34</title>
<g id="a_node34"><a xlink:title=" ">
<polygon fill="white" stroke="#bfbfbf" points="1877.78,-56.5 1877.78,-75.5 1927.78,-75.5 1927.78,-56.5 1877.78,-56.5"/>
<text text-anchor="middle" x="1902.78" y="-63.5" font-family="Helvetica,sans-Serif" font-size="10.00">cstdint</text>
</a>
</g>
</g>
<!-- Node32&#45;&gt;Node34 -->
<g id="edge46" class="edge">
<title>Node32&#45;&gt;Node34</title>
<path fill="none" stroke="midnightblue" d="M1966.18,-117.98C1954.53,-108.61 1935.59,-93.38 1921.44,-82.01"/>
<polygon fill="midnightblue" stroke="midnightblue" points="1923.35,-79.05 1913.36,-75.51 1918.96,-84.5 1923.35,-79.05"/>
</g>
<!-- Node35&#45;&gt;Node8 -->
<g id="edge52" class="edge">
<title>Node35&#45;&gt;Node8</title>
<path fill="none" stroke="midnightblue" d="M1491.42,-179.48C1460.79,-169.18 1409.12,-151.81 1374.73,-140.25"/>
<polygon fill="midnightblue" stroke="midnightblue" points="1375.69,-136.88 1365.09,-137.01 1373.46,-143.51 1375.69,-136.88"/>
</g>
<!-- Node35&#45;&gt;Node11 -->
<g id="edge59" class="edge">
<title>Node35&#45;&gt;Node11</title>
<path fill="none" stroke="midnightblue" d="M1450.7,-184.99C1411.48,-183.21 1360.8,-180.94 1315.78,-179 930.92,-162.38 832.09,-190.22 449.78,-143 437.39,-141.47 423.94,-138.91 412.17,-136.35"/>
<polygon fill="midnightblue" stroke="midnightblue" points="412.85,-132.92 402.32,-134.14 411.31,-139.75 412.85,-132.92"/>
</g>
<!-- Node35&#45;&gt;Node13 -->
<g id="edge49" class="edge">
<title>Node35&#45;&gt;Node13</title>
<path fill="none" stroke="midnightblue" d="M1467.35,-179.48C1404.97,-168.72 1297.78,-150.23 1231.06,-138.72"/>
<polygon fill="midnightblue" stroke="midnightblue" points="1231.57,-135.26 1221.12,-137.01 1230.38,-142.16 1231.57,-135.26"/>
</g>
<!-- Node35&#45;&gt;Node17 -->
<g id="edge56" class="edge">
<title>Node35&#45;&gt;Node17</title>
<path fill="none" stroke="midnightblue" d="M1582.98,-187.24C1658.98,-184.8 1776.81,-175.68 1804.78,-143 1813.74,-132.53 1814.24,-122.02 1804.78,-112 1778.79,-84.46 1203.05,-70.67 1059.15,-67.65"/>
<polygon fill="midnightblue" stroke="midnightblue" points="1058.87,-64.14 1048.8,-67.43 1058.73,-71.14 1058.87,-64.14"/>
</g>
<!-- Node35&#45;&gt;Node18 -->
<g id="edge60" class="edge">
<title>Node35&#45;&gt;Node18</title>
<path fill="none" stroke="midnightblue" d="M1450.53,-182.88C1367.39,-176 1220.53,-162.36 1095.78,-143 1083.47,-141.09 1070.06,-138.49 1058.25,-136.02"/>
<polygon fill="midnightblue" stroke="midnightblue" points="1058.86,-132.57 1048.34,-133.9 1057.39,-139.41 1058.86,-132.57"/>
</g>
<!-- Node35&#45;&gt;Node23 -->
<g id="edge55" class="edge">
<title>Node35&#45;&gt;Node23</title>
<path fill="none" stroke="midnightblue" d="M1582.79,-188.5C1666.93,-187.56 1805.42,-180.21 1837.78,-143 1846.82,-132.6 1846.92,-122.31 1837.78,-112 1815.56,-86.94 1588.87,-73.12 1500.13,-68.64"/>
<polygon fill="midnightblue" stroke="midnightblue" points="1500.18,-65.14 1490.02,-68.14 1499.83,-72.13 1500.18,-65.14"/>
</g>
<!-- Node35&#45;&gt;Node24 -->
<g id="edge57" class="edge">
<title>Node35&#45;&gt;Node24</title>
<path fill="none" stroke="midnightblue" d="M1498.55,-179.42C1481.16,-170.96 1454.48,-157.27 1432.78,-143 1414.28,-130.83 1414.49,-119.83 1393.78,-112 1249.7,-57.56 859.27,-94.3 688.24,-75.75"/>
<polygon fill="midnightblue" stroke="midnightblue" points="688.63,-72.27 678.28,-74.57 687.8,-79.22 688.63,-72.27"/>
</g>
<!-- Node35&#45;&gt;Node32 -->
<g id="edge53" class="edge">
<title>Node35&#45;&gt;Node32</title>
<path fill="none" stroke="midnightblue" d="M1582.78,-182.82C1661.83,-176.09 1798.06,-162.81 1913.78,-143 1920.02,-141.93 1926.58,-140.63 1933,-139.25"/>
<polygon fill="midnightblue" stroke="midnightblue" points="1933.92,-142.63 1942.92,-137.04 1932.4,-135.8 1933.92,-142.63"/>
</g>
<!-- Node35&#45;&gt;Node34 -->
<g id="edge54" class="edge">
<title>Node35&#45;&gt;Node34</title>
<path fill="none" stroke="midnightblue" d="M1583.05,-185.76C1668.42,-181.78 1811.04,-171.03 1854.78,-143 1875.77,-129.55 1889.25,-103.29 1896.43,-85.45"/>
<polygon fill="midnightblue" stroke="midnightblue" points="1899.79,-86.44 1900.01,-75.84 1893.23,-83.99 1899.79,-86.44"/>
</g>
<!-- Node36 -->
<g id="node36" class="node">
<title>Node36</title>
<g id="a_node36"><a xlink:title=" ">
<polygon fill="white" stroke="#bfbfbf" points="1441.28,-118 1441.28,-137 1534.28,-137 1534.28,-118 1441.28,-118"/>
<text text-anchor="middle" x="1487.78" y="-125" font-family="Helvetica,sans-Serif" font-size="10.00">dlpack/dlpack.h</text>
</a>
</g>
</g>
<!-- Node35&#45;&gt;Node36 -->
<g id="edge48" class="edge">
<title>Node35&#45;&gt;Node36</title>
<path fill="none" stroke="midnightblue" d="M1512.62,-179.48C1508.4,-170.82 1501.74,-157.15 1496.38,-146.15"/>
<polygon fill="midnightblue" stroke="midnightblue" points="1499.45,-144.46 1491.93,-137.01 1493.16,-147.53 1499.45,-144.46"/>
</g>
<!-- Node37 -->
<g id="node37" class="node">
<title>Node37</title>
<g id="a_node37"><a xlink:title=" ">
<polygon fill="white" stroke="#bfbfbf" points="1552.28,-118 1552.28,-137 1683.28,-137 1683.28,-118 1552.28,-118"/>
<text text-anchor="middle" x="1617.78" y="-125" font-family="Helvetica,sans-Serif" font-size="10.00">tvm/ffi/container/map.h</text>
</a>
</g>
</g>
<!-- Node35&#45;&gt;Node37 -->
<g id="edge50" class="edge">
<title>Node35&#45;&gt;Node37</title>
<path fill="none" stroke="midnightblue" d="M1531.25,-179.48C1547.75,-169.75 1574.96,-153.73 1594.46,-142.24"/>
<polygon fill="midnightblue" stroke="midnightblue" points="1596.5,-145.1 1603.34,-137.01 1592.94,-139.07 1596.5,-145.1"/>
</g>
<!-- Node38 -->
<g id="node38" class="node">
<title>Node38</title>
<g id="a_node38"><a xlink:title=" ">
<polygon fill="white" stroke="#bfbfbf" points="1701.78,-118 1701.78,-137 1795.78,-137 1795.78,-118 1701.78,-118"/>
<text text-anchor="middle" x="1748.78" y="-125" font-family="Helvetica,sans-Serif" font-size="10.00">tvm/ffi/endian.h</text>
</a>
</g>
</g>
<!-- Node35&#45;&gt;Node38 -->
<g id="edge51" class="edge">
<title>Node35&#45;&gt;Node38</title>
<path fill="none" stroke="midnightblue" d="M1550.2,-179.49C1585.61,-170.46 1643.15,-155.77 1692.78,-143 1697.11,-141.89 1701.63,-140.72 1706.13,-139.56"/>
<polygon fill="midnightblue" stroke="midnightblue" points="1707.11,-142.92 1715.91,-137.03 1705.36,-136.14 1707.11,-142.92"/>
</g>
<!-- Node35&#45;&gt;Node39 -->
<g id="edge58" class="edge">
<title>Node35&#45;&gt;Node39</title>
<path fill="none" stroke="midnightblue" d="M1583.07,-185.87C1682.05,-181.87 1874.03,-170.96 2034.78,-143 2040.19,-142.06 2045.85,-140.84 2051.39,-139.51"/>
<polygon fill="midnightblue" stroke="midnightblue" points="2052.32,-142.89 2061.15,-137.04 2050.6,-136.1 2052.32,-142.89"/>
</g>
</g>
</svg>
