<?xml version="1.0" encoding="UTF-8" standalone="no"?>
<!DOCTYPE svg PUBLIC "-//W3C//DTD SVG 1.1//EN"
 "http://www.w3.org/Graphics/SVG/1.1/DTD/svg11.dtd">
<!-- Generated by graphviz version 2.43.0 (0)
 -->
<!-- Title: include/tvm/tirx/index_map.h Pages: 1 -->
<svg width="2462pt" height="341pt"
 viewBox="0.00 0.00 2461.50 341.00" xmlns="http://www.w3.org/2000/svg" xmlns:xlink="http://www.w3.org/1999/xlink">
<g id="graph0" class="graph" transform="scale(1 1) rotate(0) translate(4 337)">
<title>include/tvm/tirx/index_map.h</title>
<polygon fill="white" stroke="transparent" points="-4,4 -4,-337 2457.5,-337 2457.5,4 -4,4"/>
<!-- Node1 -->
<g id="node1" class="node">
<title>Node1</title>
<g id="a_node1"><a xlink:title="Defines a remapping of buffer indices.">
<polygon fill="#bfbfbf" stroke="black" points="789,-302.5 789,-332.5 913,-332.5 913,-302.5 789,-302.5"/>
<text text-anchor="start" x="797" y="-320.5" font-family="Helvetica,sans-Serif" font-size="10.00">include/tvm/tirx/index</text>
<text text-anchor="middle" x="851" y="-309.5" font-family="Helvetica,sans-Serif" font-size="10.00">_map.h</text>
</a>
</g>
</g>
<!-- Node2 -->
<g id="node2" class="node">
<title>Node2</title>
<g id="a_node2"><a xlink:title=" ">
<polygon fill="white" stroke="#bfbfbf" points="309,-62 309,-81 443,-81 443,-62 309,-62"/>
<text text-anchor="middle" x="376" y="-69" font-family="Helvetica,sans-Serif" font-size="10.00">tvm/ffi/container/array.h</text>
</a>
</g>
</g>
<!-- Node1&#45;&gt;Node2 -->
<g id="edge1" class="edge">
<title>Node1&#45;&gt;Node2</title>
<path fill="none" stroke="midnightblue" d="M788.82,-313.16C707.5,-307.82 561.02,-294.87 439,-266 366.91,-248.95 345.44,-248.26 282,-210 241.56,-185.61 193.26,-161.22 221,-123 233.11,-106.32 281.62,-92.27 321.18,-83.26"/>
<polygon fill="midnightblue" stroke="midnightblue" points="322.02,-86.66 331.02,-81.08 320.5,-79.83 322.02,-86.66"/>
</g>
<!-- Node3 -->
<g id="node3" class="node">
<title>Node3</title>
<g id="a_node3"><a xlink:href="ir_2expr_8h.html" target="_top" xlink:title="Base expr nodes in TVM.">
<polygon fill="white" stroke="black" points="811.5,-190.5 811.5,-209.5 890.5,-209.5 890.5,-190.5 811.5,-190.5"/>
<text text-anchor="middle" x="851" y="-197.5" font-family="Helvetica,sans-Serif" font-size="10.00">tvm/ir/expr.h</text>
</a>
</g>
</g>
<!-- Node1&#45;&gt;Node3 -->
<g id="edge2" class="edge">
<title>Node1&#45;&gt;Node3</title>
<path fill="none" stroke="midnightblue" d="M851,-302.34C851,-281.62 851,-243.02 851,-219.9"/>
<polygon fill="midnightblue" stroke="midnightblue" points="854.5,-219.67 851,-209.67 847.5,-219.67 854.5,-219.67"/>
</g>
<!-- Node14 -->
<g id="node14" class="node">
<title>Node14</title>
<g id="a_node14"><a xlink:title=" ">
<polygon fill="white" stroke="#bfbfbf" points="461.5,-62 461.5,-81 506.5,-81 506.5,-62 461.5,-62"/>
<text text-anchor="middle" x="484" y="-69" font-family="Helvetica,sans-Serif" font-size="10.00">utility</text>
</a>
</g>
</g>
<!-- Node1&#45;&gt;Node14 -->
<g id="edge81" class="edge">
<title>Node1&#45;&gt;Node14</title>
<path fill="none" stroke="midnightblue" d="M788.74,-309.56C646.35,-292.27 303.93,-242.21 236,-154 190.91,-95.45 284.3,-138.01 452,-87 453.93,-86.41 455.89,-85.74 457.84,-85.01"/>
<polygon fill="midnightblue" stroke="midnightblue" points="459.5,-88.11 467.38,-81.02 456.8,-81.65 459.5,-88.11"/>
</g>
<!-- Node30 -->
<g id="node30" class="node">
<title>Node30</title>
<g id="a_node30"><a xlink:href="runtime_2tensor_8h.html" target="_top" xlink:title="A device&#45;independent managed Tensor abstraction.">
<polygon fill="white" stroke="black" points="1438.5,-190.5 1438.5,-209.5 1557.5,-209.5 1557.5,-190.5 1438.5,-190.5"/>
<text text-anchor="middle" x="1498" y="-197.5" font-family="Helvetica,sans-Serif" font-size="10.00">tvm/runtime/tensor.h</text>
</a>
</g>
</g>
<!-- Node1&#45;&gt;Node30 -->
<g id="edge40" class="edge">
<title>Node1&#45;&gt;Node30</title>
<path fill="none" stroke="midnightblue" d="M913.04,-305.43C1038.09,-283.1 1318.84,-232.98 1440.25,-211.31"/>
<polygon fill="midnightblue" stroke="midnightblue" points="1440.87,-214.75 1450.1,-209.55 1439.64,-207.86 1440.87,-214.75"/>
</g>
<!-- Node42 -->
<g id="node42" class="node">
<title>Node42</title>
<g id="a_node42"><a xlink:href="var_8h.html" target="_top" xlink:title="Variables in the TIR.">
<polygon fill="white" stroke="black" points="896.5,-246.5 896.5,-265.5 979.5,-265.5 979.5,-246.5 896.5,-246.5"/>
<text text-anchor="middle" x="938" y="-253.5" font-family="Helvetica,sans-Serif" font-size="10.00">tvm/tirx/var.h</text>
</a>
</g>
</g>
<!-- Node1&#45;&gt;Node42 -->
<g id="edge75" class="edge">
<title>Node1&#45;&gt;Node42</title>
<path fill="none" stroke="midnightblue" d="M871.62,-302.4C885.3,-293.04 903.21,-280.79 916.98,-271.38"/>
<polygon fill="midnightblue" stroke="midnightblue" points="919.06,-274.19 925.34,-265.66 915.11,-268.41 919.06,-274.19"/>
</g>
<!-- Node4 -->
<g id="node4" class="node">
<title>Node4</title>
<g id="a_node4"><a xlink:title=" ">
<polygon fill="white" stroke="#bfbfbf" points="620,-129 620,-148 756,-148 756,-129 620,-129"/>
<text text-anchor="middle" x="688" y="-136" font-family="Helvetica,sans-Serif" font-size="10.00">tvm/ffi/extra/dataclass.h</text>
</a>
</g>
</g>
<!-- Node3&#45;&gt;Node4 -->
<g id="edge3" class="edge">
<title>Node3&#45;&gt;Node4</title>
<path fill="none" stroke="midnightblue" d="M827.65,-190.48C799.69,-180.27 752.67,-163.11 721.01,-151.55"/>
<polygon fill="midnightblue" stroke="midnightblue" points="721.9,-148.15 711.31,-148.01 719.5,-154.73 721.9,-148.15"/>
</g>
<!-- Node5 -->
<g id="node5" class="node">
<title>Node5</title>
<g id="a_node5"><a xlink:title=" ">
<polygon fill="white" stroke="#bfbfbf" points="0,-56.5 0,-86.5 98,-86.5 98,-56.5 0,-56.5"/>
<text text-anchor="start" x="8" y="-74.5" font-family="Helvetica,sans-Serif" font-size="10.00">tvm/ffi/reflection</text>
<text text-anchor="middle" x="49" y="-63.5" font-family="Helvetica,sans-Serif" font-size="10.00">/registry.h</text>
</a>
</g>
</g>
<!-- Node3&#45;&gt;Node5 -->
<g id="edge4" class="edge">
<title>Node3&#45;&gt;Node5</title>
<path fill="none" stroke="midnightblue" d="M811.26,-197.84C693.16,-194.12 345.78,-181.1 236,-154 179.98,-140.17 119.51,-110.93 82.96,-91.5"/>
<polygon fill="midnightblue" stroke="midnightblue" points="84.22,-88.2 73.75,-86.54 80.9,-94.36 84.22,-88.2"/>
</g>
<!-- Node6 -->
<g id="node6" class="node">
<title>Node6</title>
<g id="a_node6"><a xlink:title=" ">
<polygon fill="white" stroke="#bfbfbf" points="1661.5,-62 1661.5,-81 1750.5,-81 1750.5,-62 1661.5,-62"/>
<text text-anchor="middle" x="1706" y="-69" font-family="Helvetica,sans-Serif" font-size="10.00">tvm/ffi/string.h</text>
</a>
</g>
</g>
<!-- Node3&#45;&gt;Node6 -->
<g id="edge5" class="edge">
<title>Node3&#45;&gt;Node6</title>
<path fill="none" stroke="midnightblue" d="M890.82,-197.76C979.45,-194.54 1199.46,-183.96 1381,-154 1486.8,-136.54 1608.74,-101.97 1668.73,-83.98"/>
<polygon fill="midnightblue" stroke="midnightblue" points="1669.94,-87.27 1678.5,-81.03 1667.91,-80.57 1669.94,-87.27"/>
</g>
<!-- Node7 -->
<g id="node7" class="node">
<title>Node7</title>
<g id="a_node7"><a xlink:href="cast_8h.html" target="_top" xlink:title="Value casting helpers.">
<polygon fill="white" stroke="black" points="812,-129 812,-148 890,-148 890,-129 812,-129"/>
<text text-anchor="middle" x="851" y="-136" font-family="Helvetica,sans-Serif" font-size="10.00">tvm/ir/cast.h</text>
</a>
</g>
</g>
<!-- Node3&#45;&gt;Node7 -->
<g id="edge6" class="edge">
<title>Node3&#45;&gt;Node7</title>
<path fill="none" stroke="midnightblue" d="M851,-190.48C851,-182.08 851,-168.98 851,-158.16"/>
<polygon fill="midnightblue" stroke="midnightblue" points="854.5,-158.01 851,-148.01 847.5,-158.01 854.5,-158.01"/>
</g>
<!-- Node15 -->
<g id="node15" class="node">
<title>Node15</title>
<g id="a_node15"><a xlink:href="cow_8h.html" target="_top" xlink:title="Copy&#45;on&#45;write helper macro for IR ffi::ObjectRef types.">
<polygon fill="white" stroke="black" points="380.5,-129 380.5,-148 457.5,-148 457.5,-129 380.5,-129"/>
<text text-anchor="middle" x="419" y="-136" font-family="Helvetica,sans-Serif" font-size="10.00">tvm/ir/cow.h</text>
</a>
</g>
</g>
<!-- Node3&#45;&gt;Node15 -->
<g id="edge14" class="edge">
<title>Node3&#45;&gt;Node15</title>
<path fill="none" stroke="midnightblue" d="M811.38,-196.67C741.32,-192.05 591.21,-179.83 467,-154 462.78,-153.12 458.4,-152.04 454.07,-150.87"/>
<polygon fill="midnightblue" stroke="midnightblue" points="454.77,-147.43 444.19,-148.02 452.83,-154.16 454.77,-147.43"/>
</g>
<!-- Node16 -->
<g id="node16" class="node">
<title>Node16</title>
<g id="a_node16"><a xlink:href="source__map_8h.html" target="_top" xlink:title="A map from source names to source code.">
<polygon fill="white" stroke="black" points="245.5,-129 245.5,-148 362.5,-148 362.5,-129 245.5,-129"/>
<text text-anchor="middle" x="304" y="-136" font-family="Helvetica,sans-Serif" font-size="10.00">tvm/ir/source_map.h</text>
</a>
</g>
</g>
<!-- Node3&#45;&gt;Node16 -->
<g id="edge17" class="edge">
<title>Node3&#45;&gt;Node16</title>
<path fill="none" stroke="midnightblue" d="M811.29,-196.89C728.86,-192.15 533.33,-179.08 371,-154 364.12,-152.94 356.9,-151.6 349.83,-150.18"/>
<polygon fill="midnightblue" stroke="midnightblue" points="350.17,-146.67 339.67,-148.05 348.74,-153.53 350.17,-146.67"/>
</g>
<!-- Node21 -->
<g id="node21" class="node">
<title>Node21</title>
<g id="a_node21"><a xlink:title=" ">
<polygon fill="white" stroke="#bfbfbf" points="1036,-62 1036,-81 1080,-81 1080,-62 1036,-62"/>
<text text-anchor="middle" x="1058" y="-69" font-family="Helvetica,sans-Serif" font-size="10.00">string</text>
</a>
</g>
</g>
<!-- Node3&#45;&gt;Node21 -->
<g id="edge38" class="edge">
<title>Node3&#45;&gt;Node21</title>
<path fill="none" stroke="midnightblue" d="M859.86,-190.03C875.38,-174.7 908.97,-143.17 942,-123 977.01,-101.62 989.52,-103.69 1027,-87 1028.19,-86.47 1029.4,-85.92 1030.63,-85.37"/>
<polygon fill="midnightblue" stroke="midnightblue" points="1032.4,-88.41 1040.02,-81.05 1029.47,-82.05 1032.4,-88.41"/>
</g>
<!-- Node23 -->
<g id="node23" class="node">
<title>Node23</title>
<g id="a_node23"><a xlink:href="data__type_8h.html" target="_top" xlink:title=" ">
<polygon fill="white" stroke="black" points="984,-129 984,-148 1122,-148 1122,-129 984,-129"/>
<text text-anchor="middle" x="1053" y="-136" font-family="Helvetica,sans-Serif" font-size="10.00">tvm/runtime/data_type.h</text>
</a>
</g>
</g>
<!-- Node3&#45;&gt;Node23 -->
<g id="edge27" class="edge">
<title>Node3&#45;&gt;Node23</title>
<path fill="none" stroke="midnightblue" d="M879.94,-190.48C915.27,-180.07 975.13,-162.44 1014.36,-150.88"/>
<polygon fill="midnightblue" stroke="midnightblue" points="1015.51,-154.19 1024.11,-148.01 1013.53,-147.48 1015.51,-154.19"/>
</g>
<!-- Node26 -->
<g id="node26" class="node">
<title>Node26</title>
<g id="a_node26"><a xlink:title=" ">
<polygon fill="white" stroke="#bfbfbf" points="1505.5,-62 1505.5,-81 1574.5,-81 1574.5,-62 1505.5,-62"/>
<text text-anchor="middle" x="1540" y="-69" font-family="Helvetica,sans-Serif" font-size="10.00">type_traits</text>
</a>
</g>
</g>
<!-- Node3&#45;&gt;Node26 -->
<g id="edge39" class="edge">
<title>Node3&#45;&gt;Node26</title>
<path fill="none" stroke="midnightblue" d="M890.74,-198.08C992.95,-195.29 1262.74,-185.11 1346,-154 1368.07,-145.75 1368.03,-133.74 1389,-123 1434.04,-99.94 1449.03,-103.08 1497,-87 1499.57,-86.14 1502.23,-85.24 1504.91,-84.35"/>
<polygon fill="midnightblue" stroke="midnightblue" points="1506.18,-87.61 1514.54,-81.1 1503.94,-80.98 1506.18,-87.61"/>
</g>
<!-- Node27 -->
<g id="node27" class="node">
<title>Node27</title>
<g id="a_node27"><a xlink:title=" ">
<polygon fill="white" stroke="#bfbfbf" points="476,-129 476,-148 540,-148 540,-129 476,-129"/>
<text text-anchor="middle" x="508" y="-136" font-family="Helvetica,sans-Serif" font-size="10.00">algorithm</text>
</a>
</g>
</g>
<!-- Node3&#45;&gt;Node27 -->
<g id="edge35" class="edge">
<title>Node3&#45;&gt;Node27</title>
<path fill="none" stroke="midnightblue" d="M811.44,-195.55C753.28,-189.93 641.59,-177.04 549,-154 545.95,-153.24 542.8,-152.34 539.68,-151.38"/>
<polygon fill="midnightblue" stroke="midnightblue" points="540.49,-147.96 529.89,-148.12 538.27,-154.6 540.49,-147.96"/>
</g>
<!-- Node28 -->
<g id="node28" class="node">
<title>Node28</title>
<g id="a_node28"><a xlink:title=" ">
<polygon fill="white" stroke="#bfbfbf" points="1140.5,-129 1140.5,-148 1205.5,-148 1205.5,-129 1140.5,-129"/>
<text text-anchor="middle" x="1173" y="-136" font-family="Helvetica,sans-Serif" font-size="10.00">functional</text>
</a>
</g>
</g>
<!-- Node3&#45;&gt;Node28 -->
<g id="edge36" class="edge">
<title>Node3&#45;&gt;Node28</title>
<path fill="none" stroke="midnightblue" d="M890.85,-194.8C945.55,-188.53 1046.71,-175.15 1131,-154 1134.22,-153.19 1137.54,-152.25 1140.84,-151.23"/>
<polygon fill="midnightblue" stroke="midnightblue" points="1142.13,-154.49 1150.55,-148.05 1139.95,-147.84 1142.13,-154.49"/>
</g>
<!-- Node29 -->
<g id="node29" class="node">
<title>Node29</title>
<g id="a_node29"><a xlink:title=" ">
<polygon fill="white" stroke="#bfbfbf" points="558,-129 558,-148 602,-148 602,-129 558,-129"/>
<text text-anchor="middle" x="580" y="-136" font-family="Helvetica,sans-Serif" font-size="10.00">limits</text>
</a>
</g>
</g>
<!-- Node3&#45;&gt;Node29 -->
<g id="edge37" class="edge">
<title>Node3&#45;&gt;Node29</title>
<path fill="none" stroke="midnightblue" d="M811.17,-194.65C762.93,-188.68 679.6,-176.08 611,-154 609.33,-153.46 607.63,-152.85 605.93,-152.2"/>
<polygon fill="midnightblue" stroke="midnightblue" points="606.99,-148.85 596.42,-148.12 604.23,-155.28 606.99,-148.85"/>
</g>
<!-- Node8 -->
<g id="node8" class="node">
<title>Node8</title>
<g id="a_node8"><a xlink:title=" ">
<polygon fill="white" stroke="#bfbfbf" points="839.5,-62 839.5,-81 916.5,-81 916.5,-62 839.5,-62"/>
<text text-anchor="middle" x="878" y="-69" font-family="Helvetica,sans-Serif" font-size="10.00">tvm/ffi/any.h</text>
</a>
</g>
</g>
<!-- Node7&#45;&gt;Node8 -->
<g id="edge7" class="edge">
<title>Node7&#45;&gt;Node8</title>
<path fill="none" stroke="midnightblue" d="M854.64,-128.73C858.69,-118.99 865.34,-102.98 870.51,-90.53"/>
<polygon fill="midnightblue" stroke="midnightblue" points="873.81,-91.7 874.42,-81.13 867.35,-89.02 873.81,-91.7"/>
</g>
<!-- Node9 -->
<g id="node9" class="node">
<title>Node9</title>
<g id="a_node9"><a xlink:title=" ">
<polygon fill="white" stroke="#bfbfbf" points="633.5,-62 633.5,-81 714.5,-81 714.5,-62 633.5,-62"/>
<text text-anchor="middle" x="674" y="-69" font-family="Helvetica,sans-Serif" font-size="10.00">tvm/ffi/cast.h</text>
</a>
</g>
</g>
<!-- Node7&#45;&gt;Node9 -->
<g id="edge8" class="edge">
<title>Node7&#45;&gt;Node9</title>
<path fill="none" stroke="midnightblue" d="M827.5,-128.87C796.6,-117.52 742.14,-97.52 707.09,-84.65"/>
<polygon fill="midnightblue" stroke="midnightblue" points="707.91,-81.23 697.32,-81.06 705.5,-87.8 707.91,-81.23"/>
</g>
<!-- Node10 -->
<g id="node10" class="node">
<title>Node10</title>
<g id="a_node10"><a xlink:title=" ">
<polygon fill="white" stroke="#bfbfbf" points="732.5,-62 732.5,-81 821.5,-81 821.5,-62 732.5,-62"/>
<text text-anchor="middle" x="777" y="-69" font-family="Helvetica,sans-Serif" font-size="10.00">tvm/ffi/dtype.h</text>
</a>
</g>
</g>
<!-- Node7&#45;&gt;Node10 -->
<g id="edge9" class="edge">
<title>Node7&#45;&gt;Node10</title>
<path fill="none" stroke="midnightblue" d="M841.02,-128.73C829.15,-118.31 809.11,-100.71 794.62,-87.97"/>
<polygon fill="midnightblue" stroke="midnightblue" points="796.64,-85.1 786.82,-81.13 792.03,-90.36 796.64,-85.1"/>
</g>
<!-- Node11 -->
<g id="node11" class="node">
<title>Node11</title>
<g id="a_node11"><a xlink:title=" ">
<polygon fill="white" stroke="#bfbfbf" points="934.5,-62 934.5,-81 1017.5,-81 1017.5,-62 934.5,-62"/>
<text text-anchor="middle" x="976" y="-69" font-family="Helvetica,sans-Serif" font-size="10.00">tvm/ffi/error.h</text>
</a>
</g>
</g>
<!-- Node7&#45;&gt;Node11 -->
<g id="edge10" class="edge">
<title>Node7&#45;&gt;Node11</title>
<path fill="none" stroke="midnightblue" d="M867.6,-128.87C888.71,-117.89 925.38,-98.82 950.16,-85.94"/>
<polygon fill="midnightblue" stroke="midnightblue" points="952.07,-88.89 959.33,-81.17 948.85,-82.68 952.07,-88.89"/>
</g>
<!-- Node12 -->
<g id="node12" class="node">
<title>Node12</title>
<g id="a_node12"><a xlink:title=" ">
<polygon fill="white" stroke="#bfbfbf" points="524.5,-62 524.5,-81 615.5,-81 615.5,-62 524.5,-62"/>
<text text-anchor="middle" x="570" y="-69" font-family="Helvetica,sans-Serif" font-size="10.00">tvm/ffi/object.h</text>
</a>
</g>
</g>
<!-- Node7&#45;&gt;Node12 -->
<g id="edge11" class="edge">
<title>Node7&#45;&gt;Node12</title>
<path fill="none" stroke="midnightblue" d="M821.09,-128.96C813.58,-126.92 805.51,-124.8 798,-123 721.21,-104.57 700.83,-105.25 624,-87 619.58,-85.95 614.97,-84.8 610.38,-83.62"/>
<polygon fill="midnightblue" stroke="midnightblue" points="611.04,-80.17 600.48,-81.02 609.26,-86.94 611.04,-80.17"/>
</g>
<!-- Node13 -->
<g id="node13" class="node">
<title>Node13</title>
<g id="a_node13"><a xlink:title=" ">
<polygon fill="white" stroke="#bfbfbf" points="1229.5,-62 1229.5,-81 1330.5,-81 1330.5,-62 1229.5,-62"/>
<text text-anchor="middle" x="1280" y="-69" font-family="Helvetica,sans-Serif" font-size="10.00">tvm/ffi/optional.h</text>
</a>
</g>
</g>
<!-- Node7&#45;&gt;Node13 -->
<g id="edge12" class="edge">
<title>Node7&#45;&gt;Node13</title>
<path fill="none" stroke="midnightblue" d="M890.28,-132.67C972.04,-122.53 1158.11,-98.99 1221,-87 1226.5,-85.95 1232.27,-84.71 1237.94,-83.41"/>
<polygon fill="midnightblue" stroke="midnightblue" points="1239.06,-86.74 1247.98,-81.02 1237.44,-79.93 1239.06,-86.74"/>
</g>
<!-- Node7&#45;&gt;Node14 -->
<g id="edge13" class="edge">
<title>Node7&#45;&gt;Node14</title>
<path fill="none" stroke="midnightblue" d="M822.57,-128.93C814.67,-126.77 806.05,-124.6 798,-123 673.66,-98.21 636.78,-122.29 515,-87 513.07,-86.44 511.12,-85.78 509.17,-85.05"/>
<polygon fill="midnightblue" stroke="midnightblue" points="510.29,-81.72 499.72,-81.01 507.54,-88.16 510.29,-81.72"/>
</g>
<!-- Node15&#45;&gt;Node12 -->
<g id="edge15" class="edge">
<title>Node15&#45;&gt;Node12</title>
<path fill="none" stroke="midnightblue" d="M439.05,-128.87C465,-117.7 510.42,-98.15 540.36,-85.26"/>
<polygon fill="midnightblue" stroke="midnightblue" points="542.06,-88.34 549.87,-81.17 539.3,-81.91 542.06,-88.34"/>
</g>
<!-- Node15&#45;&gt;Node14 -->
<g id="edge16" class="edge">
<title>Node15&#45;&gt;Node14</title>
<path fill="none" stroke="midnightblue" d="M427.77,-128.73C438.1,-118.4 455.46,-101.04 468.17,-88.33"/>
<polygon fill="midnightblue" stroke="midnightblue" points="470.78,-90.67 475.37,-81.13 465.83,-85.72 470.78,-90.67"/>
</g>
<!-- Node16&#45;&gt;Node2 -->
<g id="edge18" class="edge">
<title>Node16&#45;&gt;Node2</title>
<path fill="none" stroke="midnightblue" d="M313.71,-128.73C325.26,-118.31 344.75,-100.71 358.86,-87.97"/>
<polygon fill="midnightblue" stroke="midnightblue" points="361.37,-90.43 366.44,-81.13 356.68,-85.23 361.37,-90.43"/>
</g>
<!-- Node16&#45;&gt;Node5 -->
<g id="edge20" class="edge">
<title>Node16&#45;&gt;Node5</title>
<path fill="none" stroke="midnightblue" d="M270.4,-128.94C229.19,-118.43 158.63,-100.44 108.23,-87.6"/>
<polygon fill="midnightblue" stroke="midnightblue" points="108.99,-84.18 98.44,-85.1 107.26,-90.96 108.99,-84.18"/>
</g>
<!-- Node16&#45;&gt;Node14 -->
<g id="edge25" class="edge">
<title>Node16&#45;&gt;Node14</title>
<path fill="none" stroke="midnightblue" d="M331.57,-128.97C361.51,-119.51 410.6,-103.4 452,-87 453.42,-86.44 454.86,-85.85 456.32,-85.24"/>
<polygon fill="midnightblue" stroke="midnightblue" points="458.08,-88.29 465.85,-81.09 455.29,-81.87 458.08,-88.29"/>
</g>
<!-- Node17 -->
<g id="node17" class="node">
<title>Node17</title>
<g id="a_node17"><a xlink:title=" ">
<polygon fill="white" stroke="#bfbfbf" points="189.5,-62 189.5,-81 290.5,-81 290.5,-62 189.5,-62"/>
<text text-anchor="middle" x="240" y="-69" font-family="Helvetica,sans-Serif" font-size="10.00">tvm/ffi/function.h</text>
</a>
</g>
</g>
<!-- Node16&#45;&gt;Node17 -->
<g id="edge19" class="edge">
<title>Node16&#45;&gt;Node17</title>
<path fill="none" stroke="midnightblue" d="M295.37,-128.73C285.2,-118.4 268.1,-101.04 255.59,-88.33"/>
<polygon fill="midnightblue" stroke="midnightblue" points="258,-85.8 248.49,-81.13 253.02,-90.71 258,-85.8"/>
</g>
<!-- Node18 -->
<g id="node18" class="node">
<title>Node18</title>
<g id="a_node18"><a xlink:href="runtime_2base_8h.html" target="_top" xlink:title=" ">
<polygon fill="white" stroke="black" points="1098.5,-62 1098.5,-81 1211.5,-81 1211.5,-62 1098.5,-62"/>
<text text-anchor="middle" x="1155" y="-69" font-family="Helvetica,sans-Serif" font-size="10.00">tvm/runtime/base.h</text>
</a>
</g>
</g>
<!-- Node16&#45;&gt;Node18 -->
<g id="edge21" class="edge">
<title>Node16&#45;&gt;Node18</title>
<path fill="none" stroke="midnightblue" d="M338.24,-128.97C348.69,-126.66 360.26,-124.42 371,-123 687.75,-81.07 772.32,-129.43 1089,-87 1096.27,-86.03 1103.94,-84.66 1111.36,-83.16"/>
<polygon fill="midnightblue" stroke="midnightblue" points="1112.23,-86.55 1121.28,-81.04 1110.77,-79.7 1112.23,-86.55"/>
</g>
<!-- Node20 -->
<g id="node20" class="node">
<title>Node20</title>
<g id="a_node20"><a xlink:title=" ">
<polygon fill="white" stroke="#bfbfbf" points="116.5,-62 116.5,-81 171.5,-81 171.5,-62 116.5,-62"/>
<text text-anchor="middle" x="144" y="-69" font-family="Helvetica,sans-Serif" font-size="10.00">fstream</text>
</a>
</g>
</g>
<!-- Node16&#45;&gt;Node20 -->
<g id="edge23" class="edge">
<title>Node16&#45;&gt;Node20</title>
<path fill="none" stroke="midnightblue" d="M282.75,-128.87C255.06,-117.62 206.44,-97.87 174.73,-84.99"/>
<polygon fill="midnightblue" stroke="midnightblue" points="175.66,-81.58 165.08,-81.06 173.03,-88.07 175.66,-81.58"/>
</g>
<!-- Node16&#45;&gt;Node21 -->
<g id="edge24" class="edge">
<title>Node16&#45;&gt;Node21</title>
<path fill="none" stroke="midnightblue" d="M338.24,-129C348.7,-126.7 360.27,-124.45 371,-123 660.38,-84 743.81,-158.16 1027,-87 1028.99,-86.5 1031,-85.87 1033,-85.16"/>
<polygon fill="midnightblue" stroke="midnightblue" points="1034.81,-88.2 1042.66,-81.09 1032.09,-81.75 1034.81,-88.2"/>
</g>
<!-- Node22 -->
<g id="node22" class="node">
<title>Node22</title>
<g id="a_node22"><a xlink:title=" ">
<polygon fill="white" stroke="#bfbfbf" points="1768.5,-62 1768.5,-81 1815.5,-81 1815.5,-62 1768.5,-62"/>
<text text-anchor="middle" x="1792" y="-69" font-family="Helvetica,sans-Serif" font-size="10.00">vector</text>
</a>
</g>
</g>
<!-- Node16&#45;&gt;Node22 -->
<g id="edge26" class="edge">
<title>Node16&#45;&gt;Node22</title>
<path fill="none" stroke="midnightblue" d="M337.53,-128.96C348.16,-126.59 360.01,-124.32 371,-123 677.57,-86.18 1459.06,-156.09 1760,-87 1762.36,-86.46 1764.75,-85.74 1767.12,-84.9"/>
<polygon fill="midnightblue" stroke="midnightblue" points="1768.58,-88.08 1776.49,-81.03 1765.91,-81.62 1768.58,-88.08"/>
</g>
<!-- Node19 -->
<g id="node19" class="node">
<title>Node19</title>
<g id="a_node19"><a xlink:title=" ">
<polygon fill="white" stroke="#bfbfbf" points="1112,-0.5 1112,-19.5 1198,-19.5 1198,-0.5 1112,-0.5"/>
<text text-anchor="middle" x="1155" y="-7.5" font-family="Helvetica,sans-Serif" font-size="10.00">tvm/ffi/c_api.h</text>
</a>
</g>
</g>
<!-- Node18&#45;&gt;Node19 -->
<g id="edge22" class="edge">
<title>Node18&#45;&gt;Node19</title>
<path fill="none" stroke="midnightblue" d="M1155,-61.98C1155,-53.58 1155,-40.48 1155,-29.66"/>
<polygon fill="midnightblue" stroke="midnightblue" points="1158.5,-29.51 1155,-19.51 1151.5,-29.51 1158.5,-29.51"/>
</g>
<!-- Node23&#45;&gt;Node10 -->
<g id="edge29" class="edge">
<title>Node23&#45;&gt;Node10</title>
<path fill="none" stroke="midnightblue" d="M1012.59,-128.91C967.81,-119.27 893.54,-102.88 830,-87 825.84,-85.96 821.5,-84.84 817.18,-83.69"/>
<polygon fill="midnightblue" stroke="midnightblue" points="817.77,-80.23 807.21,-81.01 815.96,-86.99 817.77,-80.23"/>
</g>
<!-- Node23&#45;&gt;Node11 -->
<g id="edge30" class="edge">
<title>Node23&#45;&gt;Node11</title>
<path fill="none" stroke="midnightblue" d="M1042.62,-128.73C1030.15,-118.21 1009.03,-100.38 993.91,-87.62"/>
<polygon fill="midnightblue" stroke="midnightblue" points="996.12,-84.9 986.22,-81.13 991.6,-90.25 996.12,-84.9"/>
</g>
<!-- Node23&#45;&gt;Node18 -->
<g id="edge31" class="edge">
<title>Node23&#45;&gt;Node18</title>
<path fill="none" stroke="midnightblue" d="M1066.76,-128.73C1083.73,-117.92 1112.81,-99.38 1132.93,-86.57"/>
<polygon fill="midnightblue" stroke="midnightblue" points="1134.91,-89.45 1141.46,-81.13 1131.15,-83.55 1134.91,-89.45"/>
</g>
<!-- Node23&#45;&gt;Node21 -->
<g id="edge33" class="edge">
<title>Node23&#45;&gt;Node21</title>
<path fill="none" stroke="midnightblue" d="M1053.67,-128.73C1054.41,-119.18 1055.61,-103.62 1056.56,-91.28"/>
<polygon fill="midnightblue" stroke="midnightblue" points="1060.06,-91.37 1057.34,-81.13 1053.08,-90.83 1060.06,-91.37"/>
</g>
<!-- Node24 -->
<g id="node24" class="node">
<title>Node24</title>
<g id="a_node24"><a xlink:title=" ">
<polygon fill="white" stroke="#bfbfbf" points="1348.5,-62 1348.5,-81 1487.5,-81 1487.5,-62 1348.5,-62"/>
<text text-anchor="middle" x="1418" y="-69" font-family="Helvetica,sans-Serif" font-size="10.00">tvm/ffi/container/shape.h</text>
</a>
</g>
</g>
<!-- Node23&#45;&gt;Node24 -->
<g id="edge28" class="edge">
<title>Node23&#45;&gt;Node24</title>
<path fill="none" stroke="midnightblue" d="M1098.94,-128.99C1109.78,-127 1121.29,-124.91 1132,-123 1224.36,-106.53 1247.66,-103.57 1340,-87 1347.35,-85.68 1355.09,-84.27 1362.72,-82.86"/>
<polygon fill="midnightblue" stroke="midnightblue" points="1363.45,-86.29 1372.65,-81.03 1362.18,-79.41 1363.45,-86.29"/>
</g>
<!-- Node25 -->
<g id="node25" class="node">
<title>Node25</title>
<g id="a_node25"><a xlink:title=" ">
<polygon fill="white" stroke="#bfbfbf" points="1593,-62 1593,-81 1643,-81 1643,-62 1593,-62"/>
<text text-anchor="middle" x="1618" y="-69" font-family="Helvetica,sans-Serif" font-size="10.00">cstring</text>
</a>
</g>
</g>
<!-- Node23&#45;&gt;Node25 -->
<g id="edge32" class="edge">
<title>Node23&#45;&gt;Node25</title>
<path fill="none" stroke="midnightblue" d="M1095.1,-128.95C1106.99,-126.76 1119.97,-124.58 1132,-123 1331.81,-96.78 1388.31,-135.16 1584,-87 1586.37,-86.42 1588.78,-85.69 1591.17,-84.87"/>
<polygon fill="midnightblue" stroke="midnightblue" points="1592.68,-88.04 1600.73,-81.14 1590.14,-81.52 1592.68,-88.04"/>
</g>
<!-- Node23&#45;&gt;Node26 -->
<g id="edge34" class="edge">
<title>Node23&#45;&gt;Node26</title>
<path fill="none" stroke="midnightblue" d="M1095.95,-128.95C1107.61,-126.81 1120.26,-124.65 1132,-123 1293.42,-100.27 1337.63,-121.26 1497,-87 1500.68,-86.21 1504.49,-85.21 1508.25,-84.1"/>
<polygon fill="midnightblue" stroke="midnightblue" points="1509.49,-87.38 1517.95,-81 1507.36,-80.71 1509.49,-87.38"/>
</g>
<!-- Node30&#45;&gt;Node6 -->
<g id="edge44" class="edge">
<title>Node30&#45;&gt;Node6</title>
<path fill="none" stroke="midnightblue" d="M1557.51,-197.46C1627.18,-194.25 1736.36,-184.38 1762,-154 1780.56,-132.01 1750.82,-103.89 1728.06,-87.08"/>
<polygon fill="midnightblue" stroke="midnightblue" points="1729.98,-84.15 1719.8,-81.23 1725.94,-89.86 1729.98,-84.15"/>
</g>
<!-- Node30&#45;&gt;Node13 -->
<g id="edge43" class="edge">
<title>Node30&#45;&gt;Node13</title>
<path fill="none" stroke="midnightblue" d="M1495.49,-190.26C1490.48,-174.42 1477.72,-140.95 1455,-123 1444.63,-114.81 1373.23,-95.79 1324.89,-83.58"/>
<polygon fill="midnightblue" stroke="midnightblue" points="1325.51,-80.12 1314.96,-81.08 1323.8,-86.91 1325.51,-80.12"/>
</g>
<!-- Node30&#45;&gt;Node14 -->
<g id="edge73" class="edge">
<title>Node30&#45;&gt;Node14</title>
<path fill="none" stroke="midnightblue" d="M1438.37,-199.76C1291.88,-200.91 917.92,-199.17 803,-154 782.71,-146.03 784.96,-131.76 765,-123 662.21,-77.88 622.56,-119.13 515,-87 513.12,-86.44 511.21,-85.78 509.31,-85.06"/>
<polygon fill="midnightblue" stroke="midnightblue" points="510.63,-81.82 500.06,-81.1 507.87,-88.25 510.63,-81.82"/>
</g>
<!-- Node30&#45;&gt;Node18 -->
<g id="edge45" class="edge">
<title>Node30&#45;&gt;Node18</title>
<path fill="none" stroke="midnightblue" d="M1483.36,-190.4C1456.77,-175.08 1398.44,-142.8 1346,-123 1319.64,-113.05 1248.43,-95.07 1200.81,-83.46"/>
<polygon fill="midnightblue" stroke="midnightblue" points="1201.57,-80.05 1191.03,-81.09 1199.92,-86.85 1201.57,-80.05"/>
</g>
<!-- Node30&#45;&gt;Node22 -->
<g id="edge74" class="edge">
<title>Node30&#45;&gt;Node22</title>
<path fill="none" stroke="midnightblue" d="M1557.67,-197.32C1630.5,-193.97 1747.72,-183.95 1778,-154 1794.4,-137.78 1795.73,-109.82 1794.44,-91.24"/>
<polygon fill="midnightblue" stroke="midnightblue" points="1797.9,-90.68 1793.42,-81.08 1790.94,-91.38 1797.9,-90.68"/>
</g>
<!-- Node30&#45;&gt;Node23 -->
<g id="edge46" class="edge">
<title>Node30&#45;&gt;Node23</title>
<path fill="none" stroke="midnightblue" d="M1438.26,-192.75C1365.68,-184.91 1239.58,-170.47 1132,-154 1123.87,-152.75 1115.29,-151.31 1106.89,-149.83"/>
<polygon fill="midnightblue" stroke="midnightblue" points="1107.26,-146.34 1096.8,-148.02 1106.02,-153.23 1107.26,-146.34"/>
</g>
<!-- Node30&#45;&gt;Node24 -->
<g id="edge41" class="edge">
<title>Node30&#45;&gt;Node24</title>
<path fill="none" stroke="midnightblue" d="M1499.75,-190.32C1502.28,-175.44 1505.39,-144.55 1493,-123 1483.32,-106.17 1465.48,-93.81 1449.62,-85.53"/>
<polygon fill="midnightblue" stroke="midnightblue" points="1451.12,-82.37 1440.6,-81.13 1448.05,-88.66 1451.12,-82.37"/>
</g>
<!-- Node30&#45;&gt;Node28 -->
<g id="edge72" class="edge">
<title>Node30&#45;&gt;Node28</title>
<path fill="none" stroke="midnightblue" d="M1438.31,-192.58C1380.61,-185.66 1291.01,-173.01 1215,-154 1211.78,-153.2 1208.46,-152.25 1205.16,-151.24"/>
<polygon fill="midnightblue" stroke="midnightblue" points="1206.04,-147.85 1195.45,-148.06 1203.87,-154.5 1206.04,-147.85"/>
</g>
<!-- Node31 -->
<g id="node31" class="node">
<title>Node31</title>
<g id="a_node31"><a xlink:title=" ">
<polygon fill="white" stroke="#bfbfbf" points="1545,-129 1545,-148 1685,-148 1685,-129 1545,-129"/>
<text text-anchor="middle" x="1615" y="-136" font-family="Helvetica,sans-Serif" font-size="10.00">tvm/ffi/container/tensor.h</text>
</a>
</g>
</g>
<!-- Node30&#45;&gt;Node31 -->
<g id="edge42" class="edge">
<title>Node30&#45;&gt;Node31</title>
<path fill="none" stroke="midnightblue" d="M1514.76,-190.48C1534.22,-180.58 1566.55,-164.14 1589.21,-152.62"/>
<polygon fill="midnightblue" stroke="midnightblue" points="1590.94,-155.66 1598.27,-148.01 1587.77,-149.42 1590.94,-155.66"/>
</g>
<!-- Node32 -->
<g id="node32" class="node">
<title>Node32</title>
<g id="a_node32"><a xlink:href="device__api_8h.html" target="_top" xlink:title="Abstract device memory management API.">
<polygon fill="white" stroke="black" points="1223.5,-123.5 1223.5,-153.5 1336.5,-153.5 1336.5,-123.5 1223.5,-123.5"/>
<text text-anchor="start" x="1231.5" y="-141.5" font-family="Helvetica,sans-Serif" font-size="10.00">tvm/runtime/device</text>
<text text-anchor="middle" x="1280" y="-130.5" font-family="Helvetica,sans-Serif" font-size="10.00">_api.h</text>
</a>
</g>
</g>
<!-- Node30&#45;&gt;Node32 -->
<g id="edge47" class="edge">
<title>Node30&#45;&gt;Node32</title>
<path fill="none" stroke="midnightblue" d="M1466.77,-190.48C1434.14,-181.57 1382.11,-167.37 1341.24,-156.22"/>
<polygon fill="midnightblue" stroke="midnightblue" points="1341.95,-152.78 1331.38,-153.52 1340.1,-159.53 1341.95,-152.78"/>
</g>
<!-- Node33 -->
<g id="node33" class="node">
<title>Node33</title>
<g id="a_node33"><a xlink:href="io_8h.html" target="_top" xlink:title="Binary stream I/O interface.">
<polygon fill="white" stroke="black" points="2356.5,-62 2356.5,-81 2453.5,-81 2453.5,-62 2356.5,-62"/>
<text text-anchor="middle" x="2405" y="-69" font-family="Helvetica,sans-Serif" font-size="10.00">tvm/support/io.h</text>
</a>
</g>
</g>
<!-- Node30&#45;&gt;Node33 -->
<g id="edge54" class="edge">
<title>Node30&#45;&gt;Node33</title>
<path fill="none" stroke="midnightblue" d="M1557.79,-195.31C1650.3,-189.19 1833.58,-175.45 1988,-154 2148.77,-131.67 2188.42,-121.59 2347,-87 2352.01,-85.91 2357.24,-84.7 2362.42,-83.46"/>
<polygon fill="midnightblue" stroke="midnightblue" points="2363.38,-86.83 2372.26,-81.05 2361.72,-80.03 2363.38,-86.83"/>
</g>
<!-- Node36 -->
<g id="node36" class="node">
<title>Node36</title>
<g id="a_node36"><a xlink:href="serializer_8h.html" target="_top" xlink:title="Serializer&lt;T&gt; specializations for tvm::support::Stream.">
<polygon fill="white" stroke="black" points="1847,-129 1847,-148 1979,-148 1979,-129 1847,-129"/>
<text text-anchor="middle" x="1913" y="-136" font-family="Helvetica,sans-Serif" font-size="10.00">tvm/support/serializer.h</text>
</a>
</g>
</g>
<!-- Node30&#45;&gt;Node36 -->
<g id="edge57" class="edge">
<title>Node30&#45;&gt;Node36</title>
<path fill="none" stroke="midnightblue" d="M1557.73,-191.81C1624.82,-183.55 1736.92,-169.15 1833,-154 1841.03,-152.73 1849.49,-151.3 1857.79,-149.85"/>
<polygon fill="midnightblue" stroke="midnightblue" points="1858.56,-153.27 1867.79,-148.07 1857.33,-146.37 1858.56,-153.27"/>
</g>
<!-- Node41 -->
<g id="node41" class="node">
<title>Node41</title>
<g id="a_node41"><a xlink:title=" ">
<polygon fill="white" stroke="#bfbfbf" points="1703,-129 1703,-148 1753,-148 1753,-129 1703,-129"/>
<text text-anchor="middle" x="1728" y="-136" font-family="Helvetica,sans-Serif" font-size="10.00">atomic</text>
</a>
</g>
</g>
<!-- Node30&#45;&gt;Node41 -->
<g id="edge71" class="edge">
<title>Node30&#45;&gt;Node41</title>
<path fill="none" stroke="midnightblue" d="M1545.77,-190.5C1585.86,-182.78 1644.36,-170.14 1694,-154 1695.92,-153.37 1697.89,-152.68 1699.85,-151.95"/>
<polygon fill="midnightblue" stroke="midnightblue" points="1701.54,-155.05 1709.52,-148.08 1698.94,-148.55 1701.54,-155.05"/>
</g>
<!-- Node32&#45;&gt;Node6 -->
<g id="edge51" class="edge">
<title>Node32&#45;&gt;Node6</title>
<path fill="none" stroke="midnightblue" d="M1336.69,-129.9C1438.92,-116.18 1644.33,-88.54 1652,-87 1656.99,-86 1662.2,-84.8 1667.33,-83.52"/>
<polygon fill="midnightblue" stroke="midnightblue" points="1668.21,-86.91 1677.01,-81.01 1666.46,-80.13 1668.21,-86.91"/>
</g>
<!-- Node32&#45;&gt;Node8 -->
<g id="edge48" class="edge">
<title>Node32&#45;&gt;Node8</title>
<path fill="none" stroke="midnightblue" d="M1223.34,-124.53C1220.53,-123.99 1217.73,-123.47 1215,-123 1087.03,-100.84 1051.99,-114.25 925,-87 920.87,-86.11 916.58,-85.03 912.34,-83.85"/>
<polygon fill="midnightblue" stroke="midnightblue" points="913.25,-80.47 902.66,-81 911.27,-87.18 913.25,-80.47"/>
</g>
<!-- Node32&#45;&gt;Node11 -->
<g id="edge49" class="edge">
<title>Node32&#45;&gt;Node11</title>
<path fill="none" stroke="midnightblue" d="M1223.3,-124.75C1220.5,-124.15 1217.72,-123.56 1215,-123 1131.7,-105.74 1109.77,-106.65 1027,-87 1022.87,-86.02 1018.57,-84.92 1014.3,-83.78"/>
<polygon fill="midnightblue" stroke="midnightblue" points="1015.05,-80.36 1004.48,-81.07 1013.19,-87.1 1015.05,-80.36"/>
</g>
<!-- Node32&#45;&gt;Node13 -->
<g id="edge50" class="edge">
<title>Node32&#45;&gt;Node13</title>
<path fill="none" stroke="midnightblue" d="M1280,-123.4C1280,-114.06 1280,-101.71 1280,-91.52"/>
<polygon fill="midnightblue" stroke="midnightblue" points="1283.5,-91.19 1280,-81.19 1276.5,-91.19 1283.5,-91.19"/>
</g>
<!-- Node32&#45;&gt;Node18 -->
<g id="edge52" class="edge">
<title>Node32&#45;&gt;Node18</title>
<path fill="none" stroke="midnightblue" d="M1252.88,-123.4C1231.33,-112.19 1201.43,-96.64 1180.36,-85.69"/>
<polygon fill="midnightblue" stroke="midnightblue" points="1181.85,-82.52 1171.36,-81.01 1178.62,-88.73 1181.85,-82.52"/>
</g>
<!-- Node32&#45;&gt;Node21 -->
<g id="edge53" class="edge">
<title>Node32&#45;&gt;Node21</title>
<path fill="none" stroke="midnightblue" d="M1223.04,-123.47C1176.42,-111.78 1114.35,-95.69 1090,-87 1088.34,-86.41 1086.65,-85.77 1084.95,-85.09"/>
<polygon fill="midnightblue" stroke="midnightblue" points="1085.96,-81.72 1075.39,-81.01 1083.21,-88.15 1085.96,-81.72"/>
</g>
<!-- Node34 -->
<g id="node34" class="node">
<title>Node34</title>
<g id="a_node34"><a xlink:title=" ">
<polygon fill="white" stroke="#bfbfbf" points="2378.5,-0.5 2378.5,-19.5 2431.5,-19.5 2431.5,-0.5 2378.5,-0.5"/>
<text text-anchor="middle" x="2405" y="-7.5" font-family="Helvetica,sans-Serif" font-size="10.00">cstddef</text>
</a>
</g>
</g>
<!-- Node33&#45;&gt;Node34 -->
<g id="edge55" class="edge">
<title>Node33&#45;&gt;Node34</title>
<path fill="none" stroke="midnightblue" d="M2405,-61.98C2405,-53.58 2405,-40.48 2405,-29.66"/>
<polygon fill="midnightblue" stroke="midnightblue" points="2408.5,-29.51 2405,-19.51 2401.5,-29.51 2408.5,-29.51"/>
</g>
<!-- Node35 -->
<g id="node35" class="node">
<title>Node35</title>
<g id="a_node35"><a xlink:title=" ">
<polygon fill="white" stroke="#bfbfbf" points="2120,-0.5 2120,-19.5 2170,-19.5 2170,-0.5 2120,-0.5"/>
<text text-anchor="middle" x="2145" y="-7.5" font-family="Helvetica,sans-Serif" font-size="10.00">cstdint</text>
</a>
</g>
</g>
<!-- Node33&#45;&gt;Node35 -->
<g id="edge56" class="edge">
<title>Node33&#45;&gt;Node35</title>
<path fill="none" stroke="midnightblue" d="M2371.61,-62C2363.56,-59.99 2354.98,-57.89 2347,-56 2288.62,-42.2 2220.47,-27.26 2180.12,-18.54"/>
<polygon fill="midnightblue" stroke="midnightblue" points="2180.75,-15.09 2170.24,-16.4 2179.28,-21.94 2180.75,-15.09"/>
</g>
<!-- Node36&#45;&gt;Node2 -->
<g id="edge59" class="edge">
<title>Node36&#45;&gt;Node2</title>
<path fill="none" stroke="midnightblue" d="M1846.92,-130.17C1820.54,-127.5 1789.86,-124.72 1762,-123 1180.66,-87.14 1031.05,-149.78 452,-87 442.88,-86.01 433.22,-84.52 423.95,-82.86"/>
<polygon fill="midnightblue" stroke="midnightblue" points="424.57,-79.41 414.09,-81.01 423.28,-86.29 424.57,-79.41"/>
</g>
<!-- Node36&#45;&gt;Node6 -->
<g id="edge62" class="edge">
<title>Node36&#45;&gt;Node6</title>
<path fill="none" stroke="midnightblue" d="M1885.51,-128.87C1848.83,-117.35 1783.77,-96.92 1742.87,-84.08"/>
<polygon fill="midnightblue" stroke="midnightblue" points="1743.86,-80.72 1733.27,-81.06 1741.76,-87.4 1743.86,-80.72"/>
</g>
<!-- Node36&#45;&gt;Node14 -->
<g id="edge69" class="edge">
<title>Node36&#45;&gt;Node14</title>
<path fill="none" stroke="midnightblue" d="M1846.92,-130.19C1820.54,-127.52 1789.86,-124.74 1762,-123 1485.31,-105.74 784.72,-151.06 515,-87 512.79,-86.48 510.55,-85.79 508.34,-84.99"/>
<polygon fill="midnightblue" stroke="midnightblue" points="509.57,-81.71 499,-81.02 506.84,-88.15 509.57,-81.71"/>
</g>
<!-- Node36&#45;&gt;Node21 -->
<g id="edge66" class="edge">
<title>Node36&#45;&gt;Node21</title>
<path fill="none" stroke="midnightblue" d="M1846.9,-130.54C1820.51,-127.93 1789.84,-125.08 1762,-123 1612.87,-111.85 1235.28,-122.47 1090,-87 1087.79,-86.46 1085.54,-85.77 1083.31,-84.98"/>
<polygon fill="midnightblue" stroke="midnightblue" points="1084.44,-81.66 1073.86,-81.09 1081.77,-88.13 1084.44,-81.66"/>
</g>
<!-- Node36&#45;&gt;Node22 -->
<g id="edge70" class="edge">
<title>Node36&#45;&gt;Node22</title>
<path fill="none" stroke="midnightblue" d="M1896.68,-128.73C1876.18,-117.72 1840.8,-98.71 1816.91,-85.88"/>
<polygon fill="midnightblue" stroke="midnightblue" points="1818.53,-82.78 1808.06,-81.13 1815.21,-88.94 1818.53,-82.78"/>
</g>
<!-- Node36&#45;&gt;Node25 -->
<g id="edge65" class="edge">
<title>Node36&#45;&gt;Node25</title>
<path fill="none" stroke="midnightblue" d="M1850.69,-129C1797.48,-120.89 1719.27,-106.94 1653,-87 1650.71,-86.31 1648.37,-85.53 1646.04,-84.69"/>
<polygon fill="midnightblue" stroke="midnightblue" points="1647.23,-81.4 1636.64,-81.03 1644.69,-87.92 1647.23,-81.4"/>
</g>
<!-- Node36&#45;&gt;Node26 -->
<g id="edge67" class="edge">
<title>Node36&#45;&gt;Node26</title>
<path fill="none" stroke="midnightblue" d="M1846.83,-130.62C1779.95,-122.89 1673.91,-108.56 1584,-87 1580.53,-86.17 1576.94,-85.19 1573.38,-84.14"/>
<polygon fill="midnightblue" stroke="midnightblue" points="1574.13,-80.71 1563.54,-81.06 1572.04,-87.39 1574.13,-80.71"/>
</g>
<!-- Node36&#45;&gt;Node33 -->
<g id="edge63" class="edge">
<title>Node36&#45;&gt;Node33</title>
<path fill="none" stroke="midnightblue" d="M1979.2,-132.47C2064.65,-125.37 2217.71,-110.58 2347,-87 2352.49,-86 2358.23,-84.78 2363.87,-83.48"/>
<polygon fill="midnightblue" stroke="midnightblue" points="2364.95,-86.82 2373.86,-81.07 2363.31,-80.01 2364.95,-86.82"/>
</g>
<!-- Node36&#45;&gt;Node35 -->
<g id="edge64" class="edge">
<title>Node36&#45;&gt;Node35</title>
<path fill="none" stroke="midnightblue" d="M1917.1,-128.85C1925.51,-112.09 1946.33,-75.18 1975,-56 2016.11,-28.5 2073.27,-17.78 2109.7,-13.62"/>
<polygon fill="midnightblue" stroke="midnightblue" points="2110.26,-17.08 2119.85,-12.57 2109.54,-10.12 2110.26,-17.08"/>
</g>
<!-- Node37 -->
<g id="node37" class="node">
<title>Node37</title>
<g id="a_node37"><a xlink:title=" ">
<polygon fill="white" stroke="#bfbfbf" points="1983.5,-62 1983.5,-81 2076.5,-81 2076.5,-62 1983.5,-62"/>
<text text-anchor="middle" x="2030" y="-69" font-family="Helvetica,sans-Serif" font-size="10.00">dlpack/dlpack.h</text>
</a>
</g>
</g>
<!-- Node36&#45;&gt;Node37 -->
<g id="edge58" class="edge">
<title>Node36&#45;&gt;Node37</title>
<path fill="none" stroke="midnightblue" d="M1928.78,-128.73C1948.51,-117.77 1982.51,-98.88 2005.61,-86.05"/>
<polygon fill="midnightblue" stroke="midnightblue" points="2007.43,-89.04 2014.47,-81.13 2004.03,-82.92 2007.43,-89.04"/>
</g>
<!-- Node38 -->
<g id="node38" class="node">
<title>Node38</title>
<g id="a_node38"><a xlink:title=" ">
<polygon fill="white" stroke="#bfbfbf" points="2094.5,-62 2094.5,-81 2225.5,-81 2225.5,-62 2094.5,-62"/>
<text text-anchor="middle" x="2160" y="-69" font-family="Helvetica,sans-Serif" font-size="10.00">tvm/ffi/container/map.h</text>
</a>
</g>
</g>
<!-- Node36&#45;&gt;Node38 -->
<g id="edge60" class="edge">
<title>Node36&#45;&gt;Node38</title>
<path fill="none" stroke="midnightblue" d="M1945.54,-128.94C1989.69,-117.32 2068.64,-96.54 2117.45,-83.7"/>
<polygon fill="midnightblue" stroke="midnightblue" points="2118.6,-87.01 2127.38,-81.08 2116.82,-80.24 2118.6,-87.01"/>
</g>
<!-- Node39 -->
<g id="node39" class="node">
<title>Node39</title>
<g id="a_node39"><a xlink:title=" ">
<polygon fill="white" stroke="#bfbfbf" points="2244,-62 2244,-81 2338,-81 2338,-62 2244,-62"/>
<text text-anchor="middle" x="2291" y="-69" font-family="Helvetica,sans-Serif" font-size="10.00">tvm/ffi/endian.h</text>
</a>
</g>
</g>
<!-- Node36&#45;&gt;Node39 -->
<g id="edge61" class="edge">
<title>Node36&#45;&gt;Node39</title>
<path fill="none" stroke="midnightblue" d="M1979.02,-129.07C2044.35,-120.28 2147.04,-105.24 2235,-87 2240.03,-85.96 2245.29,-84.75 2250.49,-83.49"/>
<polygon fill="midnightblue" stroke="midnightblue" points="2251.47,-86.85 2260.32,-81.02 2249.77,-80.06 2251.47,-86.85"/>
</g>
<!-- Node40 -->
<g id="node40" class="node">
<title>Node40</title>
<g id="a_node40"><a xlink:title=" ">
<polygon fill="white" stroke="#bfbfbf" points="1833.5,-62 1833.5,-81 1926.5,-81 1926.5,-62 1833.5,-62"/>
<text text-anchor="middle" x="1880" y="-69" font-family="Helvetica,sans-Serif" font-size="10.00">unordered_map</text>
</a>
</g>
</g>
<!-- Node36&#45;&gt;Node40 -->
<g id="edge68" class="edge">
<title>Node36&#45;&gt;Node40</title>
<path fill="none" stroke="midnightblue" d="M1908.55,-128.73C1903.55,-118.89 1895.31,-102.66 1888.97,-90.16"/>
<polygon fill="midnightblue" stroke="midnightblue" points="1892.03,-88.46 1884.38,-81.13 1885.79,-91.63 1892.03,-88.46"/>
</g>
<!-- Node42&#45;&gt;Node3 -->
<g id="edge77" class="edge">
<title>Node42&#45;&gt;Node3</title>
<path fill="none" stroke="midnightblue" d="M924.02,-246.32C910.45,-237.9 889.62,-224.97 873.68,-215.07"/>
<polygon fill="midnightblue" stroke="midnightblue" points="875.29,-211.95 864.94,-209.65 871.59,-217.9 875.29,-211.95"/>
</g>
<!-- Node42&#45;&gt;Node15 -->
<g id="edge76" class="edge">
<title>Node42&#45;&gt;Node15</title>
<path fill="none" stroke="midnightblue" d="M896.47,-247.28C814.07,-231.72 624.31,-194.55 467,-154 463.33,-153.05 459.52,-152.01 455.72,-150.93"/>
<polygon fill="midnightblue" stroke="midnightblue" points="456.38,-147.48 445.8,-148.02 454.41,-154.19 456.38,-147.48"/>
</g>
<!-- Node42&#45;&gt;Node21 -->
<g id="edge80" class="edge">
<title>Node42&#45;&gt;Node21</title>
<path fill="none" stroke="midnightblue" d="M938.29,-246.33C939.47,-223.73 945.38,-162.07 975,-123 982.72,-112.81 1010.4,-96.99 1031.69,-85.77"/>
<polygon fill="midnightblue" stroke="midnightblue" points="1033.37,-88.84 1040.64,-81.13 1030.15,-82.63 1033.37,-88.84"/>
</g>
<!-- Node42&#45;&gt;Node23 -->
<g id="edge78" class="edge">
<title>Node42&#45;&gt;Node23</title>
<path fill="none" stroke="midnightblue" d="M946.64,-246.32C965.87,-227 1012.44,-180.24 1037.09,-155.48"/>
<polygon fill="midnightblue" stroke="midnightblue" points="1039.68,-157.84 1044.26,-148.28 1034.72,-152.9 1039.68,-157.84"/>
</g>
<!-- Node42&#45;&gt;Node28 -->
<g id="edge79" class="edge">
<title>Node42&#45;&gt;Node28</title>
<path fill="none" stroke="midnightblue" d="M955.66,-246.32C996.51,-226.24 1097.69,-176.51 1146.21,-152.67"/>
<polygon fill="midnightblue" stroke="midnightblue" points="1148.02,-155.68 1155.45,-148.12 1144.93,-149.39 1148.02,-155.68"/>
</g>
</g>
</svg>
