<?xml version="1.0" encoding="UTF-8" standalone="no"?>
<!DOCTYPE svg PUBLIC "-//W3C//DTD SVG 1.1//EN"
 "http://www.w3.org/Graphics/SVG/1.1/DTD/svg11.dtd">
<!-- Generated by graphviz version 2.43.0 (0)
 -->
<!-- Title: include/tvm/tirx/index_map.h Pages: 1 -->
<svg width="2361pt" height="341pt"
 viewBox="0.00 0.00 2360.50 341.00" xmlns="http://www.w3.org/2000/svg" xmlns:xlink="http://www.w3.org/1999/xlink">
<g id="graph0" class="graph" transform="scale(1 1) rotate(0) translate(4 337)">
<title>include/tvm/tirx/index_map.h</title>
<polygon fill="white" stroke="transparent" points="-4,4 -4,-337 2356.5,-337 2356.5,4 -4,4"/>
<!-- Node1 -->
<g id="node1" class="node">
<title>Node1</title>
<g id="a_node1"><a xlink:title="Defines a remapping of buffer indices.">
<polygon fill="#bfbfbf" stroke="black" points="717,-302.5 717,-332.5 841,-332.5 841,-302.5 717,-302.5"/>
<text text-anchor="start" x="725" y="-320.5" font-family="Helvetica,sans-Serif" font-size="10.00">include/tvm/tirx/index</text>
<text text-anchor="middle" x="779" y="-309.5" font-family="Helvetica,sans-Serif" font-size="10.00">_map.h</text>
</a>
</g>
</g>
<!-- Node2 -->
<g id="node2" class="node">
<title>Node2</title>
<g id="a_node2"><a xlink:title=" ">
<polygon fill="white" stroke="#bfbfbf" points="116,-62 116,-81 250,-81 250,-62 116,-62"/>
<text text-anchor="middle" x="183" y="-69" font-family="Helvetica,sans-Serif" font-size="10.00">tvm/ffi/container/array.h</text>
</a>
</g>
</g>
<!-- Node1&#45;&gt;Node2 -->
<g id="edge1" class="edge">
<title>Node1&#45;&gt;Node2</title>
<path fill="none" stroke="midnightblue" d="M716.76,-309.33C575.72,-291.67 238.84,-241.08 172,-154 157.98,-135.74 165.99,-108.15 173.83,-90.22"/>
<polygon fill="midnightblue" stroke="midnightblue" points="177.01,-91.69 178.15,-81.16 170.69,-88.68 177.01,-91.69"/>
</g>
<!-- Node3 -->
<g id="node3" class="node">
<title>Node3</title>
<g id="a_node3"><a xlink:href="ir_2expr_8h.html" target="_top" xlink:title="Base expr nodes in TVM.">
<polygon fill="white" stroke="black" points="671.5,-190.5 671.5,-209.5 750.5,-209.5 750.5,-190.5 671.5,-190.5"/>
<text text-anchor="middle" x="711" y="-197.5" font-family="Helvetica,sans-Serif" font-size="10.00">tvm/ir/expr.h</text>
</a>
</g>
</g>
<!-- Node1&#45;&gt;Node3 -->
<g id="edge2" class="edge">
<title>Node1&#45;&gt;Node3</title>
<path fill="none" stroke="midnightblue" d="M770.66,-302.34C758.19,-281.15 734.69,-241.24 721.21,-218.34"/>
<polygon fill="midnightblue" stroke="midnightblue" points="724.19,-216.51 716.1,-209.67 718.16,-220.06 724.19,-216.51"/>
</g>
<!-- Node9 -->
<g id="node9" class="node">
<title>Node9</title>
<g id="a_node9"><a xlink:title=" ">
<polygon fill="white" stroke="#bfbfbf" points="569.5,-62 569.5,-81 614.5,-81 614.5,-62 569.5,-62"/>
<text text-anchor="middle" x="592" y="-69" font-family="Helvetica,sans-Serif" font-size="10.00">utility</text>
</a>
</g>
</g>
<!-- Node1&#45;&gt;Node9 -->
<g id="edge73" class="edge">
<title>Node1&#45;&gt;Node9</title>
<path fill="none" stroke="midnightblue" d="M779.28,-302.47C779.23,-278.32 776.78,-227.83 759,-190 726.75,-121.38 691.68,-119.12 623,-87 621.85,-86.46 620.68,-85.91 619.49,-85.36"/>
<polygon fill="midnightblue" stroke="midnightblue" points="620.9,-82.15 610.36,-81.09 617.93,-88.49 620.9,-82.15"/>
</g>
<!-- Node26 -->
<g id="node26" class="node">
<title>Node26</title>
<g id="a_node26"><a xlink:href="runtime_2tensor_8h.html" target="_top" xlink:title="A device&#45;independent managed Tensor abstraction.">
<polygon fill="white" stroke="black" points="1487.5,-190.5 1487.5,-209.5 1606.5,-209.5 1606.5,-190.5 1487.5,-190.5"/>
<text text-anchor="middle" x="1547" y="-197.5" font-family="Helvetica,sans-Serif" font-size="10.00">tvm/runtime/tensor.h</text>
</a>
</g>
</g>
<!-- Node1&#45;&gt;Node26 -->
<g id="edge32" class="edge">
<title>Node1&#45;&gt;Node26</title>
<path fill="none" stroke="midnightblue" d="M841.2,-307.15C983.74,-285.71 1333.02,-233.18 1480.05,-211.07"/>
<polygon fill="midnightblue" stroke="midnightblue" points="1480.91,-214.48 1490.28,-209.53 1479.87,-207.56 1480.91,-214.48"/>
</g>
<!-- Node40 -->
<g id="node40" class="node">
<title>Node40</title>
<g id="a_node40"><a xlink:href="var_8h.html" target="_top" xlink:title="Variables in the TIR.">
<polygon fill="white" stroke="black" points="810.5,-246.5 810.5,-265.5 893.5,-265.5 893.5,-246.5 810.5,-246.5"/>
<text text-anchor="middle" x="852" y="-253.5" font-family="Helvetica,sans-Serif" font-size="10.00">tvm/tirx/var.h</text>
</a>
</g>
</g>
<!-- Node1&#45;&gt;Node40 -->
<g id="edge67" class="edge">
<title>Node1&#45;&gt;Node40</title>
<path fill="none" stroke="midnightblue" d="M796.3,-302.4C807.45,-293.31 821.95,-281.49 833.36,-272.19"/>
<polygon fill="midnightblue" stroke="midnightblue" points="835.84,-274.69 841.38,-265.66 831.42,-269.26 835.84,-274.69"/>
</g>
<!-- Node4 -->
<g id="node4" class="node">
<title>Node4</title>
<g id="a_node4"><a xlink:title=" ">
<polygon fill="white" stroke="#bfbfbf" points="181,-129 181,-148 317,-148 317,-129 181,-129"/>
<text text-anchor="middle" x="249" y="-136" font-family="Helvetica,sans-Serif" font-size="10.00">tvm/ffi/extra/dataclass.h</text>
</a>
</g>
</g>
<!-- Node3&#45;&gt;Node4 -->
<g id="edge3" class="edge">
<title>Node3&#45;&gt;Node4</title>
<path fill="none" stroke="midnightblue" d="M671.25,-195.28C601.27,-188.52 451.57,-173.14 326,-154 317.97,-152.78 309.49,-151.33 301.22,-149.84"/>
<polygon fill="midnightblue" stroke="midnightblue" points="301.74,-146.38 291.27,-148.01 300.47,-153.26 301.74,-146.38"/>
</g>
<!-- Node5 -->
<g id="node5" class="node">
<title>Node5</title>
<g id="a_node5"><a xlink:title=" ">
<polygon fill="white" stroke="#bfbfbf" points="0,-56.5 0,-86.5 98,-86.5 98,-56.5 0,-56.5"/>
<text text-anchor="start" x="8" y="-74.5" font-family="Helvetica,sans-Serif" font-size="10.00">tvm/ffi/reflection</text>
<text text-anchor="middle" x="49" y="-63.5" font-family="Helvetica,sans-Serif" font-size="10.00">/registry.h</text>
</a>
</g>
</g>
<!-- Node3&#45;&gt;Node5 -->
<g id="edge4" class="edge">
<title>Node3&#45;&gt;Node5</title>
<path fill="none" stroke="midnightblue" d="M671.38,-198.24C563.14,-195.74 264.36,-186.08 172,-154 133.69,-140.69 95.71,-112.67 72.32,-93.23"/>
<polygon fill="midnightblue" stroke="midnightblue" points="74.56,-90.54 64.67,-86.74 70.04,-95.88 74.56,-90.54"/>
</g>
<!-- Node6 -->
<g id="node6" class="node">
<title>Node6</title>
<g id="a_node6"><a xlink:title=" ">
<polygon fill="white" stroke="#bfbfbf" points="1948.5,-62 1948.5,-81 2037.5,-81 2037.5,-62 1948.5,-62"/>
<text text-anchor="middle" x="1993" y="-69" font-family="Helvetica,sans-Serif" font-size="10.00">tvm/ffi/string.h</text>
</a>
</g>
</g>
<!-- Node3&#45;&gt;Node6 -->
<g id="edge5" class="edge">
<title>Node3&#45;&gt;Node6</title>
<path fill="none" stroke="midnightblue" d="M750.94,-198.24C883.48,-195.47 1307.92,-184.38 1441,-154 1476.56,-145.88 1481.53,-131.53 1517,-123 1700.45,-78.87 1754.23,-120.03 1940,-87 1945.09,-86.09 1950.41,-84.92 1955.62,-83.64"/>
<polygon fill="midnightblue" stroke="midnightblue" points="1956.65,-86.98 1965.44,-81.06 1954.87,-80.21 1956.65,-86.98"/>
</g>
<!-- Node7 -->
<g id="node7" class="node">
<title>Node7</title>
<g id="a_node7"><a xlink:href="cow_8h.html" target="_top" xlink:title="Copy&#45;on&#45;write helper macro for IR ffi::ObjectRef types.">
<polygon fill="white" stroke="black" points="614.5,-129 614.5,-148 691.5,-148 691.5,-129 614.5,-129"/>
<text text-anchor="middle" x="653" y="-136" font-family="Helvetica,sans-Serif" font-size="10.00">tvm/ir/cow.h</text>
</a>
</g>
</g>
<!-- Node3&#45;&gt;Node7 -->
<g id="edge6" class="edge">
<title>Node3&#45;&gt;Node7</title>
<path fill="none" stroke="midnightblue" d="M702.69,-190.48C693.82,-181.37 679.55,-166.74 668.58,-155.48"/>
<polygon fill="midnightblue" stroke="midnightblue" points="670.78,-152.73 661.29,-148.01 665.77,-157.61 670.78,-152.73"/>
</g>
<!-- Node10 -->
<g id="node10" class="node">
<title>Node10</title>
<g id="a_node10"><a xlink:href="source__map_8h.html" target="_top" xlink:title="A map from source names to source code.">
<polygon fill="white" stroke="black" points="479.5,-129 479.5,-148 596.5,-148 596.5,-129 479.5,-129"/>
<text text-anchor="middle" x="538" y="-136" font-family="Helvetica,sans-Serif" font-size="10.00">tvm/ir/source_map.h</text>
</a>
</g>
</g>
<!-- Node3&#45;&gt;Node10 -->
<g id="edge9" class="edge">
<title>Node3&#45;&gt;Node10</title>
<path fill="none" stroke="midnightblue" d="M686.21,-190.48C656.41,-180.22 606.21,-162.96 572.6,-151.4"/>
<polygon fill="midnightblue" stroke="midnightblue" points="573.34,-147.95 562.74,-148.01 571.06,-154.57 573.34,-147.95"/>
</g>
<!-- Node15 -->
<g id="node15" class="node">
<title>Node15</title>
<g id="a_node15"><a xlink:title=" ">
<polygon fill="white" stroke="#bfbfbf" points="698,-62 698,-81 742,-81 742,-62 698,-62"/>
<text text-anchor="middle" x="720" y="-69" font-family="Helvetica,sans-Serif" font-size="10.00">string</text>
</a>
</g>
</g>
<!-- Node3&#45;&gt;Node15 -->
<g id="edge30" class="edge">
<title>Node3&#45;&gt;Node15</title>
<path fill="none" stroke="midnightblue" d="M711.62,-190.31C713.06,-169.99 716.69,-119.05 718.66,-91.28"/>
<polygon fill="midnightblue" stroke="midnightblue" points="722.16,-91.48 719.38,-81.26 715.18,-90.98 722.16,-91.48"/>
</g>
<!-- Node17 -->
<g id="node17" class="node">
<title>Node17</title>
<g id="a_node17"><a xlink:href="data__type_8h.html" target="_top" xlink:title=" ">
<polygon fill="white" stroke="black" points="1294,-129 1294,-148 1432,-148 1432,-129 1294,-129"/>
<text text-anchor="middle" x="1363" y="-136" font-family="Helvetica,sans-Serif" font-size="10.00">tvm/runtime/data_type.h</text>
</a>
</g>
</g>
<!-- Node3&#45;&gt;Node17 -->
<g id="edge19" class="edge">
<title>Node3&#45;&gt;Node17</title>
<path fill="none" stroke="midnightblue" d="M750.8,-195.37C856.07,-185.76 1143.29,-159.55 1283.66,-146.74"/>
<polygon fill="midnightblue" stroke="midnightblue" points="1284.28,-150.2 1293.92,-145.8 1283.64,-143.23 1284.28,-150.2"/>
</g>
<!-- Node22 -->
<g id="node22" class="node">
<title>Node22</title>
<g id="a_node22"><a xlink:title=" ">
<polygon fill="white" stroke="#bfbfbf" points="871.5,-62 871.5,-81 940.5,-81 940.5,-62 871.5,-62"/>
<text text-anchor="middle" x="906" y="-69" font-family="Helvetica,sans-Serif" font-size="10.00">type_traits</text>
</a>
</g>
</g>
<!-- Node3&#45;&gt;Node22 -->
<g id="edge31" class="edge">
<title>Node3&#45;&gt;Node22</title>
<path fill="none" stroke="midnightblue" d="M724.4,-190.31C757.53,-168.81 843.52,-113.03 884.14,-86.68"/>
<polygon fill="midnightblue" stroke="midnightblue" points="886.28,-89.47 892.76,-81.09 882.47,-83.59 886.28,-89.47"/>
</g>
<!-- Node23 -->
<g id="node23" class="node">
<title>Node23</title>
<g id="a_node23"><a xlink:title=" ">
<polygon fill="white" stroke="#bfbfbf" points="335,-129 335,-148 399,-148 399,-129 335,-129"/>
<text text-anchor="middle" x="367" y="-136" font-family="Helvetica,sans-Serif" font-size="10.00">algorithm</text>
</a>
</g>
</g>
<!-- Node3&#45;&gt;Node23 -->
<g id="edge27" class="edge">
<title>Node3&#45;&gt;Node23</title>
<path fill="none" stroke="midnightblue" d="M671.3,-195.56C612.96,-189.96 500.9,-177.1 408,-154 404.95,-153.24 401.8,-152.35 398.68,-151.38"/>
<polygon fill="midnightblue" stroke="midnightblue" points="399.49,-147.96 388.89,-148.12 397.27,-154.6 399.49,-147.96"/>
</g>
<!-- Node24 -->
<g id="node24" class="node">
<title>Node24</title>
<g id="a_node24"><a xlink:title=" ">
<polygon fill="white" stroke="#bfbfbf" points="877.5,-129 877.5,-148 942.5,-148 942.5,-129 877.5,-129"/>
<text text-anchor="middle" x="910" y="-136" font-family="Helvetica,sans-Serif" font-size="10.00">functional</text>
</a>
</g>
</g>
<!-- Node3&#45;&gt;Node24 -->
<g id="edge28" class="edge">
<title>Node3&#45;&gt;Node24</title>
<path fill="none" stroke="midnightblue" d="M739.51,-190.48C774.24,-180.09 833.04,-162.51 871.69,-150.95"/>
<polygon fill="midnightblue" stroke="midnightblue" points="872.96,-154.23 881.54,-148.01 870.96,-147.52 872.96,-154.23"/>
</g>
<!-- Node25 -->
<g id="node25" class="node">
<title>Node25</title>
<g id="a_node25"><a xlink:title=" ">
<polygon fill="white" stroke="#bfbfbf" points="417,-129 417,-148 461,-148 461,-129 417,-129"/>
<text text-anchor="middle" x="439" y="-136" font-family="Helvetica,sans-Serif" font-size="10.00">limits</text>
</a>
</g>
</g>
<!-- Node3&#45;&gt;Node25 -->
<g id="edge29" class="edge">
<title>Node3&#45;&gt;Node25</title>
<path fill="none" stroke="midnightblue" d="M671.43,-194.73C623.05,-188.8 539.09,-176.21 470,-154 468.33,-153.46 466.63,-152.86 464.93,-152.2"/>
<polygon fill="midnightblue" stroke="midnightblue" points="465.99,-148.85 455.42,-148.12 463.23,-155.28 465.99,-148.85"/>
</g>
<!-- Node8 -->
<g id="node8" class="node">
<title>Node8</title>
<g id="a_node8"><a xlink:title=" ">
<polygon fill="white" stroke="#bfbfbf" points="460.5,-62 460.5,-81 551.5,-81 551.5,-62 460.5,-62"/>
<text text-anchor="middle" x="506" y="-69" font-family="Helvetica,sans-Serif" font-size="10.00">tvm/ffi/object.h</text>
</a>
</g>
</g>
<!-- Node7&#45;&gt;Node8 -->
<g id="edge7" class="edge">
<title>Node7&#45;&gt;Node8</title>
<path fill="none" stroke="midnightblue" d="M633.48,-128.87C608.22,-117.7 564,-98.15 534.86,-85.26"/>
<polygon fill="midnightblue" stroke="midnightblue" points="536.16,-82.01 525.6,-81.17 533.33,-88.41 536.16,-82.01"/>
</g>
<!-- Node7&#45;&gt;Node9 -->
<g id="edge8" class="edge">
<title>Node7&#45;&gt;Node9</title>
<path fill="none" stroke="midnightblue" d="M644.77,-128.73C635.17,-118.5 619.09,-101.36 607.2,-88.69"/>
<polygon fill="midnightblue" stroke="midnightblue" points="609.49,-86.02 600.1,-81.13 604.39,-90.81 609.49,-86.02"/>
</g>
<!-- Node10&#45;&gt;Node2 -->
<g id="edge10" class="edge">
<title>Node10&#45;&gt;Node2</title>
<path fill="none" stroke="midnightblue" d="M499.22,-128.94C489.68,-126.92 479.48,-124.82 470,-123 376.57,-105.08 352.62,-103.92 259,-87 251.82,-85.7 244.27,-84.3 236.82,-82.9"/>
<polygon fill="midnightblue" stroke="midnightblue" points="237.25,-79.42 226.78,-81 235.95,-86.3 237.25,-79.42"/>
</g>
<!-- Node10&#45;&gt;Node5 -->
<g id="edge12" class="edge">
<title>Node10&#45;&gt;Node5</title>
<path fill="none" stroke="midnightblue" d="M501.79,-129C491.55,-126.81 480.38,-124.62 470,-123 313.09,-98.57 268.55,-114.07 108.47,-87.09"/>
<polygon fill="midnightblue" stroke="midnightblue" points="108.7,-83.58 98.26,-85.33 107.52,-90.47 108.7,-83.58"/>
</g>
<!-- Node10&#45;&gt;Node9 -->
<g id="edge17" class="edge">
<title>Node10&#45;&gt;Node9</title>
<path fill="none" stroke="midnightblue" d="M545.28,-128.73C553.7,-118.6 567.75,-101.69 578.25,-89.06"/>
<polygon fill="midnightblue" stroke="midnightblue" points="581.13,-91.06 584.83,-81.13 575.75,-86.58 581.13,-91.06"/>
</g>
<!-- Node11 -->
<g id="node11" class="node">
<title>Node11</title>
<g id="a_node11"><a xlink:title=" ">
<polygon fill="white" stroke="#bfbfbf" points="268.5,-62 268.5,-81 369.5,-81 369.5,-62 268.5,-62"/>
<text text-anchor="middle" x="319" y="-69" font-family="Helvetica,sans-Serif" font-size="10.00">tvm/ffi/function.h</text>
</a>
</g>
</g>
<!-- Node10&#45;&gt;Node11 -->
<g id="edge11" class="edge">
<title>Node10&#45;&gt;Node11</title>
<path fill="none" stroke="midnightblue" d="M508.92,-128.87C469.95,-117.3 400.7,-96.75 357.46,-83.91"/>
<polygon fill="midnightblue" stroke="midnightblue" points="358.44,-80.55 347.85,-81.06 356.44,-87.26 358.44,-80.55"/>
</g>
<!-- Node12 -->
<g id="node12" class="node">
<title>Node12</title>
<g id="a_node12"><a xlink:href="runtime_2base_8h.html" target="_top" xlink:title=" ">
<polygon fill="white" stroke="black" points="1817.5,-62 1817.5,-81 1930.5,-81 1930.5,-62 1817.5,-62"/>
<text text-anchor="middle" x="1874" y="-69" font-family="Helvetica,sans-Serif" font-size="10.00">tvm/runtime/base.h</text>
</a>
</g>
</g>
<!-- Node10&#45;&gt;Node12 -->
<g id="edge13" class="edge">
<title>Node10&#45;&gt;Node12</title>
<path fill="none" stroke="midnightblue" d="M571.54,-128.98C582.17,-126.62 594.01,-124.34 605,-123 1136.4,-58.11 1277.81,-153.58 1809,-87 1816.34,-86.08 1824.06,-84.72 1831.52,-83.19"/>
<polygon fill="midnightblue" stroke="midnightblue" points="1832.45,-86.57 1841.48,-81.02 1830.96,-79.73 1832.45,-86.57"/>
</g>
<!-- Node14 -->
<g id="node14" class="node">
<title>Node14</title>
<g id="a_node14"><a xlink:title=" ">
<polygon fill="white" stroke="#bfbfbf" points="387.5,-62 387.5,-81 442.5,-81 442.5,-62 387.5,-62"/>
<text text-anchor="middle" x="415" y="-69" font-family="Helvetica,sans-Serif" font-size="10.00">fstream</text>
</a>
</g>
</g>
<!-- Node10&#45;&gt;Node14 -->
<g id="edge15" class="edge">
<title>Node10&#45;&gt;Node14</title>
<path fill="none" stroke="midnightblue" d="M521.67,-128.87C500.9,-117.89 464.81,-98.82 440.43,-85.94"/>
<polygon fill="midnightblue" stroke="midnightblue" points="441.88,-82.75 431.4,-81.17 438.61,-88.93 441.88,-82.75"/>
</g>
<!-- Node10&#45;&gt;Node15 -->
<g id="edge16" class="edge">
<title>Node10&#45;&gt;Node15</title>
<path fill="none" stroke="midnightblue" d="M566.23,-128.93C596.61,-119.49 646.2,-103.46 688,-87 689.42,-86.44 690.87,-85.85 692.32,-85.25"/>
<polygon fill="midnightblue" stroke="midnightblue" points="694.08,-88.3 701.86,-81.1 691.29,-81.88 694.08,-88.3"/>
</g>
<!-- Node16 -->
<g id="node16" class="node">
<title>Node16</title>
<g id="a_node16"><a xlink:title=" ">
<polygon fill="white" stroke="#bfbfbf" points="632.5,-62 632.5,-81 679.5,-81 679.5,-62 632.5,-62"/>
<text text-anchor="middle" x="656" y="-69" font-family="Helvetica,sans-Serif" font-size="10.00">vector</text>
</a>
</g>
</g>
<!-- Node10&#45;&gt;Node16 -->
<g id="edge18" class="edge">
<title>Node10&#45;&gt;Node16</title>
<path fill="none" stroke="midnightblue" d="M553.91,-128.73C573.82,-117.77 608.11,-98.88 631.4,-86.05"/>
<polygon fill="midnightblue" stroke="midnightblue" points="633.27,-89.02 640.34,-81.13 629.89,-82.89 633.27,-89.02"/>
</g>
<!-- Node13 -->
<g id="node13" class="node">
<title>Node13</title>
<g id="a_node13"><a xlink:title=" ">
<polygon fill="white" stroke="#bfbfbf" points="1831,-0.5 1831,-19.5 1917,-19.5 1917,-0.5 1831,-0.5"/>
<text text-anchor="middle" x="1874" y="-7.5" font-family="Helvetica,sans-Serif" font-size="10.00">tvm/ffi/c_api.h</text>
</a>
</g>
</g>
<!-- Node12&#45;&gt;Node13 -->
<g id="edge14" class="edge">
<title>Node12&#45;&gt;Node13</title>
<path fill="none" stroke="midnightblue" d="M1874,-61.98C1874,-53.58 1874,-40.48 1874,-29.66"/>
<polygon fill="midnightblue" stroke="midnightblue" points="1877.5,-29.51 1874,-19.51 1870.5,-29.51 1877.5,-29.51"/>
</g>
<!-- Node17&#45;&gt;Node12 -->
<g id="edge23" class="edge">
<title>Node17&#45;&gt;Node12</title>
<path fill="none" stroke="midnightblue" d="M1408.14,-128.99C1420.39,-126.85 1433.68,-124.68 1446,-123 1606.63,-101.03 1648.92,-112.7 1809,-87 1815.67,-85.93 1822.69,-84.59 1829.54,-83.16"/>
<polygon fill="midnightblue" stroke="midnightblue" points="1830.37,-86.57 1839.4,-81.03 1828.89,-79.72 1830.37,-86.57"/>
</g>
<!-- Node17&#45;&gt;Node15 -->
<g id="edge25" class="edge">
<title>Node17&#45;&gt;Node15</title>
<path fill="none" stroke="midnightblue" d="M1293.96,-131.96C1135.25,-119.21 757.51,-88.73 751,-87 749.06,-86.48 747.1,-85.85 745.14,-85.15"/>
<polygon fill="midnightblue" stroke="midnightblue" points="746.25,-81.82 735.68,-81.15 743.53,-88.26 746.25,-81.82"/>
</g>
<!-- Node18 -->
<g id="node18" class="node">
<title>Node18</title>
<g id="a_node18"><a xlink:title=" ">
<polygon fill="white" stroke="#bfbfbf" points="1660.5,-62 1660.5,-81 1799.5,-81 1799.5,-62 1660.5,-62"/>
<text text-anchor="middle" x="1730" y="-69" font-family="Helvetica,sans-Serif" font-size="10.00">tvm/ffi/container/shape.h</text>
</a>
</g>
</g>
<!-- Node17&#45;&gt;Node18 -->
<g id="edge20" class="edge">
<title>Node17&#45;&gt;Node18</title>
<path fill="none" stroke="midnightblue" d="M1411.74,-128.99C1493.34,-114.73 1649.04,-87.53 1652,-87 1659.35,-85.67 1667.09,-84.26 1674.72,-82.85"/>
<polygon fill="midnightblue" stroke="midnightblue" points="1675.45,-86.28 1684.65,-81.02 1674.18,-79.39 1675.45,-86.28"/>
</g>
<!-- Node19 -->
<g id="node19" class="node">
<title>Node19</title>
<g id="a_node19"><a xlink:title=" ">
<polygon fill="white" stroke="#bfbfbf" points="1438.5,-62 1438.5,-81 1527.5,-81 1527.5,-62 1438.5,-62"/>
<text text-anchor="middle" x="1483" y="-69" font-family="Helvetica,sans-Serif" font-size="10.00">tvm/ffi/dtype.h</text>
</a>
</g>
</g>
<!-- Node17&#45;&gt;Node19 -->
<g id="edge21" class="edge">
<title>Node17&#45;&gt;Node19</title>
<path fill="none" stroke="midnightblue" d="M1379.18,-128.73C1399.43,-117.77 1434.3,-98.88 1457.99,-86.05"/>
<polygon fill="midnightblue" stroke="midnightblue" points="1459.95,-88.97 1467.07,-81.13 1456.61,-82.81 1459.95,-88.97"/>
</g>
<!-- Node20 -->
<g id="node20" class="node">
<title>Node20</title>
<g id="a_node20"><a xlink:title=" ">
<polygon fill="white" stroke="#bfbfbf" points="2055.5,-62 2055.5,-81 2138.5,-81 2138.5,-62 2055.5,-62"/>
<text text-anchor="middle" x="2097" y="-69" font-family="Helvetica,sans-Serif" font-size="10.00">tvm/ffi/error.h</text>
</a>
</g>
</g>
<!-- Node17&#45;&gt;Node20 -->
<g id="edge22" class="edge">
<title>Node17&#45;&gt;Node20</title>
<path fill="none" stroke="midnightblue" d="M1432.34,-130.58C1458.82,-128.04 1489.3,-125.24 1517,-123 1752.33,-103.93 1814.51,-128.12 2047,-87 2051.81,-86.15 2056.82,-85.01 2061.72,-83.75"/>
<polygon fill="midnightblue" stroke="midnightblue" points="2062.85,-87.06 2071.56,-81.02 2060.98,-80.32 2062.85,-87.06"/>
</g>
<!-- Node21 -->
<g id="node21" class="node">
<title>Node21</title>
<g id="a_node21"><a xlink:title=" ">
<polygon fill="white" stroke="#bfbfbf" points="1370,-62 1370,-81 1420,-81 1420,-62 1370,-62"/>
<text text-anchor="middle" x="1395" y="-69" font-family="Helvetica,sans-Serif" font-size="10.00">cstring</text>
</a>
</g>
</g>
<!-- Node17&#45;&gt;Node21 -->
<g id="edge24" class="edge">
<title>Node17&#45;&gt;Node21</title>
<path fill="none" stroke="midnightblue" d="M1367.32,-128.73C1372.16,-118.89 1380.15,-102.66 1386.31,-90.16"/>
<polygon fill="midnightblue" stroke="midnightblue" points="1389.48,-91.64 1390.75,-81.13 1383.2,-88.55 1389.48,-91.64"/>
</g>
<!-- Node17&#45;&gt;Node22 -->
<g id="edge26" class="edge">
<title>Node17&#45;&gt;Node22</title>
<path fill="none" stroke="midnightblue" d="M1293.76,-129.04C1218.41,-119.64 1094.45,-103.57 988,-87 975.84,-85.11 962.69,-82.87 950.56,-80.72"/>
<polygon fill="midnightblue" stroke="midnightblue" points="951.12,-77.27 940.66,-78.95 949.89,-84.16 951.12,-77.27"/>
</g>
<!-- Node26&#45;&gt;Node6 -->
<g id="edge36" class="edge">
<title>Node26&#45;&gt;Node6</title>
<path fill="none" stroke="midnightblue" d="M1606.66,-192.22C1658.48,-185.42 1735.19,-173.18 1800,-154 1861.85,-135.69 1930.62,-103.64 1967.04,-85.67"/>
<polygon fill="midnightblue" stroke="midnightblue" points="1969.04,-88.59 1976.43,-81 1965.92,-82.32 1969.04,-88.59"/>
</g>
<!-- Node26&#45;&gt;Node9 -->
<g id="edge65" class="edge">
<title>Node26&#45;&gt;Node9</title>
<path fill="none" stroke="midnightblue" d="M1487.17,-199.16C1361.34,-198.7 1073.6,-193.25 985,-154 966.6,-145.85 970.28,-131.42 952,-123 818.39,-61.47 764.64,-126.7 623,-87 621.07,-86.46 619.11,-85.81 617.16,-85.09"/>
<polygon fill="midnightblue" stroke="midnightblue" points="618.28,-81.76 607.7,-81.06 615.54,-88.2 618.28,-81.76"/>
</g>
<!-- Node26&#45;&gt;Node12 -->
<g id="edge37" class="edge">
<title>Node26&#45;&gt;Node12</title>
<path fill="none" stroke="midnightblue" d="M1606.87,-193.03C1650.71,-187.09 1710.87,-175.61 1760,-154 1798.14,-137.22 1836.27,-106.42 1857.34,-87.86"/>
<polygon fill="midnightblue" stroke="midnightblue" points="1859.67,-90.46 1864.78,-81.18 1855,-85.25 1859.67,-90.46"/>
</g>
<!-- Node26&#45;&gt;Node16 -->
<g id="edge66" class="edge">
<title>Node26&#45;&gt;Node16</title>
<path fill="none" stroke="midnightblue" d="M1487.17,-197.79C1369.19,-194.76 1110.77,-184.74 1028,-154 1005.91,-145.8 1006.94,-131.58 985,-123 861.58,-74.73 816.81,-122.03 689,-87 686.71,-86.37 684.37,-85.61 682.05,-84.77"/>
<polygon fill="midnightblue" stroke="midnightblue" points="683.36,-81.53 672.78,-81.01 680.73,-88.01 683.36,-81.53"/>
</g>
<!-- Node26&#45;&gt;Node17 -->
<g id="edge38" class="edge">
<title>Node26&#45;&gt;Node17</title>
<path fill="none" stroke="midnightblue" d="M1520.64,-190.48C1488.66,-180.14 1434.62,-162.66 1398.88,-151.1"/>
<polygon fill="midnightblue" stroke="midnightblue" points="1399.91,-147.76 1389.31,-148.01 1397.75,-154.42 1399.91,-147.76"/>
</g>
<!-- Node26&#45;&gt;Node18 -->
<g id="edge33" class="edge">
<title>Node26&#45;&gt;Node18</title>
<path fill="none" stroke="midnightblue" d="M1606.58,-193.4C1657.85,-187.2 1726.14,-175.17 1743,-154 1757.39,-135.93 1748.5,-108.29 1739.94,-90.3"/>
<polygon fill="midnightblue" stroke="midnightblue" points="1742.94,-88.48 1735.24,-81.2 1736.72,-91.69 1742.94,-88.48"/>
</g>
<!-- Node26&#45;&gt;Node24 -->
<g id="edge64" class="edge">
<title>Node26&#45;&gt;Node24</title>
<path fill="none" stroke="midnightblue" d="M1487.39,-198.83C1380.26,-197.55 1148.5,-190.37 957,-154 952.75,-153.19 948.35,-152.14 944.01,-150.97"/>
<polygon fill="midnightblue" stroke="midnightblue" points="944.71,-147.52 934.13,-148.07 942.75,-154.24 944.71,-147.52"/>
</g>
<!-- Node27 -->
<g id="node27" class="node">
<title>Node27</title>
<g id="a_node27"><a xlink:title=" ">
<polygon fill="white" stroke="#bfbfbf" points="1526,-129 1526,-148 1666,-148 1666,-129 1526,-129"/>
<text text-anchor="middle" x="1596" y="-136" font-family="Helvetica,sans-Serif" font-size="10.00">tvm/ffi/container/tensor.h</text>
</a>
</g>
</g>
<!-- Node26&#45;&gt;Node27 -->
<g id="edge34" class="edge">
<title>Node26&#45;&gt;Node27</title>
<path fill="none" stroke="midnightblue" d="M1554.02,-190.48C1561.44,-181.46 1573.33,-167.02 1582.57,-155.81"/>
<polygon fill="midnightblue" stroke="midnightblue" points="1585.34,-157.95 1588.99,-148.01 1579.93,-153.5 1585.34,-157.95"/>
</g>
<!-- Node28 -->
<g id="node28" class="node">
<title>Node28</title>
<g id="a_node28"><a xlink:title=" ">
<polygon fill="white" stroke="#bfbfbf" points="2251.5,-62 2251.5,-81 2352.5,-81 2352.5,-62 2251.5,-62"/>
<text text-anchor="middle" x="2302" y="-69" font-family="Helvetica,sans-Serif" font-size="10.00">tvm/ffi/optional.h</text>
</a>
</g>
</g>
<!-- Node26&#45;&gt;Node28 -->
<g id="edge35" class="edge">
<title>Node26&#45;&gt;Node28</title>
<path fill="none" stroke="midnightblue" d="M1606.79,-198.3C1703.04,-196.15 1897.84,-187.62 2059,-154 2138.17,-137.49 2227.41,-103.34 2272.52,-84.92"/>
<polygon fill="midnightblue" stroke="midnightblue" points="2274.06,-88.07 2281.97,-81.03 2271.39,-81.6 2274.06,-88.07"/>
</g>
<!-- Node29 -->
<g id="node29" class="node">
<title>Node29</title>
<g id="a_node29"><a xlink:href="device__api_8h.html" target="_top" xlink:title="Abstract device memory management API.">
<polygon fill="white" stroke="black" points="1936.5,-123.5 1936.5,-153.5 2049.5,-153.5 2049.5,-123.5 1936.5,-123.5"/>
<text text-anchor="start" x="1944.5" y="-141.5" font-family="Helvetica,sans-Serif" font-size="10.00">tvm/runtime/device</text>
<text text-anchor="middle" x="1993" y="-130.5" font-family="Helvetica,sans-Serif" font-size="10.00">_api.h</text>
</a>
</g>
</g>
<!-- Node26&#45;&gt;Node29 -->
<g id="edge39" class="edge">
<title>Node26&#45;&gt;Node29</title>
<path fill="none" stroke="midnightblue" d="M1606.73,-192.71C1679.31,-184.83 1805.4,-170.35 1913,-154 1917.36,-153.34 1921.84,-152.62 1926.36,-151.87"/>
<polygon fill="midnightblue" stroke="midnightblue" points="1926.98,-155.32 1936.25,-150.2 1925.81,-148.42 1926.98,-155.32"/>
</g>
<!-- Node31 -->
<g id="node31" class="node">
<title>Node31</title>
<g id="a_node31"><a xlink:href="io_8h.html" target="_top" xlink:title="Binary stream I/O interface.">
<polygon fill="white" stroke="black" points="1545.5,-62 1545.5,-81 1642.5,-81 1642.5,-62 1545.5,-62"/>
<text text-anchor="middle" x="1594" y="-69" font-family="Helvetica,sans-Serif" font-size="10.00">tvm/support/io.h</text>
</a>
</g>
</g>
<!-- Node26&#45;&gt;Node31 -->
<g id="edge46" class="edge">
<title>Node26&#45;&gt;Node31</title>
<path fill="none" stroke="midnightblue" d="M1538.69,-190.27C1525.98,-175.82 1504.46,-146.22 1517,-123 1526.27,-105.83 1544.2,-93.56 1560.43,-85.41"/>
<polygon fill="midnightblue" stroke="midnightblue" points="1562.13,-88.48 1569.71,-81.08 1559.17,-82.14 1562.13,-88.48"/>
</g>
<!-- Node34 -->
<g id="node34" class="node">
<title>Node34</title>
<g id="a_node34"><a xlink:href="serializer_8h.html" target="_top" xlink:title="Serializer&lt;T&gt; specializations for tvm::support::Stream.">
<polygon fill="white" stroke="black" points="1037,-129 1037,-148 1169,-148 1169,-129 1037,-129"/>
<text text-anchor="middle" x="1103" y="-136" font-family="Helvetica,sans-Serif" font-size="10.00">tvm/support/serializer.h</text>
</a>
</g>
</g>
<!-- Node26&#45;&gt;Node34 -->
<g id="edge49" class="edge">
<title>Node26&#45;&gt;Node34</title>
<path fill="none" stroke="midnightblue" d="M1487.12,-190.98C1406.63,-180.19 1263.63,-161.03 1176.65,-149.37"/>
<polygon fill="midnightblue" stroke="midnightblue" points="1176.96,-145.88 1166.59,-148.02 1176.03,-152.82 1176.96,-145.88"/>
</g>
<!-- Node39 -->
<g id="node39" class="node">
<title>Node39</title>
<g id="a_node39"><a xlink:title=" ">
<polygon fill="white" stroke="#bfbfbf" points="1684,-129 1684,-148 1734,-148 1734,-129 1684,-129"/>
<text text-anchor="middle" x="1709" y="-136" font-family="Helvetica,sans-Serif" font-size="10.00">atomic</text>
</a>
</g>
</g>
<!-- Node26&#45;&gt;Node39 -->
<g id="edge63" class="edge">
<title>Node26&#45;&gt;Node39</title>
<path fill="none" stroke="midnightblue" d="M1573.17,-190.36C1599.17,-181.64 1640.09,-167.56 1675,-154 1676.64,-153.36 1678.33,-152.69 1680.02,-152.01"/>
<polygon fill="midnightblue" stroke="midnightblue" points="1681.78,-155.07 1689.67,-148 1679.09,-148.6 1681.78,-155.07"/>
</g>
<!-- Node29&#45;&gt;Node6 -->
<g id="edge43" class="edge">
<title>Node29&#45;&gt;Node6</title>
<path fill="none" stroke="midnightblue" d="M1993,-123.4C1993,-114.06 1993,-101.71 1993,-91.52"/>
<polygon fill="midnightblue" stroke="midnightblue" points="1996.5,-91.19 1993,-81.19 1989.5,-91.19 1996.5,-91.19"/>
</g>
<!-- Node29&#45;&gt;Node12 -->
<g id="edge44" class="edge">
<title>Node29&#45;&gt;Node12</title>
<path fill="none" stroke="midnightblue" d="M1967.18,-123.4C1946.76,-112.24 1918.45,-96.78 1898.41,-85.83"/>
<polygon fill="midnightblue" stroke="midnightblue" points="1900.03,-82.73 1889.57,-81.01 1896.67,-88.87 1900.03,-82.73"/>
</g>
<!-- Node29&#45;&gt;Node15 -->
<g id="edge45" class="edge">
<title>Node29&#45;&gt;Node15</title>
<path fill="none" stroke="midnightblue" d="M1936.42,-133.87C1885.76,-130.7 1809.44,-126.13 1743,-123 1522.66,-112.61 965.43,-138.77 751,-87 749.01,-86.52 746.99,-85.9 744.99,-85.2"/>
<polygon fill="midnightblue" stroke="midnightblue" points="745.9,-81.79 735.32,-81.15 743.19,-88.24 745.9,-81.79"/>
</g>
<!-- Node29&#45;&gt;Node20 -->
<g id="edge41" class="edge">
<title>Node29&#45;&gt;Node20</title>
<path fill="none" stroke="midnightblue" d="M2015.57,-123.4C2033.01,-112.5 2057.03,-97.48 2074.47,-86.58"/>
<polygon fill="midnightblue" stroke="midnightblue" points="2076.76,-89.28 2083.39,-81.01 2073.05,-83.34 2076.76,-89.28"/>
</g>
<!-- Node29&#45;&gt;Node28 -->
<g id="edge42" class="edge">
<title>Node29&#45;&gt;Node28</title>
<path fill="none" stroke="midnightblue" d="M2049.74,-126.74C2100.5,-116.94 2176.89,-101.79 2243,-87 2248.02,-85.88 2253.26,-84.66 2258.47,-83.41"/>
<polygon fill="midnightblue" stroke="midnightblue" points="2259.46,-86.78 2268.36,-81.02 2257.82,-79.97 2259.46,-86.78"/>
</g>
<!-- Node30 -->
<g id="node30" class="node">
<title>Node30</title>
<g id="a_node30"><a xlink:title=" ">
<polygon fill="white" stroke="#bfbfbf" points="2156.5,-62 2156.5,-81 2233.5,-81 2233.5,-62 2156.5,-62"/>
<text text-anchor="middle" x="2195" y="-69" font-family="Helvetica,sans-Serif" font-size="10.00">tvm/ffi/any.h</text>
</a>
</g>
</g>
<!-- Node29&#45;&gt;Node30 -->
<g id="edge40" class="edge">
<title>Node29&#45;&gt;Node30</title>
<path fill="none" stroke="midnightblue" d="M2036.83,-123.4C2073.37,-111.64 2124.8,-95.09 2158.98,-84.09"/>
<polygon fill="midnightblue" stroke="midnightblue" points="2160.12,-87.4 2168.56,-81.01 2157.97,-80.74 2160.12,-87.4"/>
</g>
<!-- Node32 -->
<g id="node32" class="node">
<title>Node32</title>
<g id="a_node32"><a xlink:title=" ">
<polygon fill="white" stroke="#bfbfbf" points="1567.5,-0.5 1567.5,-19.5 1620.5,-19.5 1620.5,-0.5 1567.5,-0.5"/>
<text text-anchor="middle" x="1594" y="-7.5" font-family="Helvetica,sans-Serif" font-size="10.00">cstddef</text>
</a>
</g>
</g>
<!-- Node31&#45;&gt;Node32 -->
<g id="edge47" class="edge">
<title>Node31&#45;&gt;Node32</title>
<path fill="none" stroke="midnightblue" d="M1594,-61.98C1594,-53.58 1594,-40.48 1594,-29.66"/>
<polygon fill="midnightblue" stroke="midnightblue" points="1597.5,-29.51 1594,-19.51 1590.5,-29.51 1597.5,-29.51"/>
</g>
<!-- Node33 -->
<g id="node33" class="node">
<title>Node33</title>
<g id="a_node33"><a xlink:title=" ">
<polygon fill="white" stroke="#bfbfbf" points="1222,-0.5 1222,-19.5 1272,-19.5 1272,-0.5 1222,-0.5"/>
<text text-anchor="middle" x="1247" y="-7.5" font-family="Helvetica,sans-Serif" font-size="10.00">cstdint</text>
</a>
</g>
</g>
<!-- Node31&#45;&gt;Node33 -->
<g id="edge48" class="edge">
<title>Node31&#45;&gt;Node33</title>
<path fill="none" stroke="midnightblue" d="M1562.76,-61.98C1554.43,-59.87 1545.4,-57.72 1537,-56 1445.98,-37.4 1337.49,-22.47 1282.6,-15.41"/>
<polygon fill="midnightblue" stroke="midnightblue" points="1282.72,-11.9 1272.36,-14.11 1281.84,-18.84 1282.72,-11.9"/>
</g>
<!-- Node34&#45;&gt;Node2 -->
<g id="edge51" class="edge">
<title>Node34&#45;&gt;Node2</title>
<path fill="none" stroke="midnightblue" d="M1036.9,-130.52C1010.51,-127.9 979.84,-125.06 952,-123 644.42,-100.25 565.19,-123.99 259,-87 250.28,-85.95 241.06,-84.49 232.15,-82.89"/>
<polygon fill="midnightblue" stroke="midnightblue" points="232.76,-79.45 222.29,-81.05 231.48,-86.33 232.76,-79.45"/>
</g>
<!-- Node34&#45;&gt;Node6 -->
<g id="edge54" class="edge">
<title>Node34&#45;&gt;Node6</title>
<path fill="none" stroke="midnightblue" d="M1169.11,-131.84C1203.63,-128.98 1246.57,-125.59 1285,-123 1575.89,-103.42 1652.22,-133.73 1940,-87 1945.22,-86.15 1950.67,-84.99 1956,-83.69"/>
<polygon fill="midnightblue" stroke="midnightblue" points="1957.22,-86.99 1966.01,-81.07 1955.45,-80.22 1957.22,-86.99"/>
</g>
<!-- Node34&#45;&gt;Node9 -->
<g id="edge61" class="edge">
<title>Node34&#45;&gt;Node9</title>
<path fill="none" stroke="midnightblue" d="M1036.88,-129.1C1019.97,-127.03 1001.82,-124.87 985,-123 824.31,-105.14 778.9,-129.86 623,-87 621.07,-86.47 619.1,-85.82 617.15,-85.11"/>
<polygon fill="midnightblue" stroke="midnightblue" points="618.27,-81.78 607.7,-81.1 615.53,-88.22 618.27,-81.78"/>
</g>
<!-- Node34&#45;&gt;Node15 -->
<g id="edge58" class="edge">
<title>Node34&#45;&gt;Node15</title>
<path fill="none" stroke="midnightblue" d="M1058.21,-128.99C1046.75,-126.92 1034.43,-124.79 1023,-123 902.53,-104.12 868.04,-121.23 751,-87 749.12,-86.45 747.21,-85.8 745.3,-85.09"/>
<polygon fill="midnightblue" stroke="midnightblue" points="746.62,-81.84 736.05,-81.14 743.87,-88.28 746.62,-81.84"/>
</g>
<!-- Node34&#45;&gt;Node16 -->
<g id="edge62" class="edge">
<title>Node34&#45;&gt;Node16</title>
<path fill="none" stroke="midnightblue" d="M1059.08,-128.95C1047.38,-126.84 1034.74,-124.69 1023,-123 875.23,-101.67 833.26,-125.48 689,-87 686.7,-86.39 684.36,-85.64 682.04,-84.81"/>
<polygon fill="midnightblue" stroke="midnightblue" points="683.35,-81.56 672.77,-81.05 680.72,-88.05 683.35,-81.56"/>
</g>
<!-- Node34&#45;&gt;Node21 -->
<g id="edge57" class="edge">
<title>Node34&#45;&gt;Node21</title>
<path fill="none" stroke="midnightblue" d="M1165.94,-128.96C1218.74,-120.9 1295.78,-107.05 1361,-87 1363.14,-86.34 1365.33,-85.59 1367.52,-84.79"/>
<polygon fill="midnightblue" stroke="midnightblue" points="1368.92,-88 1376.91,-81.05 1366.33,-81.5 1368.92,-88"/>
</g>
<!-- Node34&#45;&gt;Node22 -->
<g id="edge59" class="edge">
<title>Node34&#45;&gt;Node22</title>
<path fill="none" stroke="midnightblue" d="M1076.84,-128.87C1042.16,-117.42 980.8,-97.18 941.83,-84.32"/>
<polygon fill="midnightblue" stroke="midnightblue" points="942.55,-80.87 931.95,-81.06 940.35,-87.52 942.55,-80.87"/>
</g>
<!-- Node34&#45;&gt;Node31 -->
<g id="edge55" class="edge">
<title>Node34&#45;&gt;Node31</title>
<path fill="none" stroke="midnightblue" d="M1169.21,-132.56C1254.68,-125.55 1407.76,-110.85 1537,-87 1542.46,-85.99 1548.17,-84.76 1553.78,-83.44"/>
<polygon fill="midnightblue" stroke="midnightblue" points="1554.82,-86.79 1563.7,-81.01 1553.15,-79.99 1554.82,-86.79"/>
</g>
<!-- Node34&#45;&gt;Node33 -->
<g id="edge56" class="edge">
<title>Node34&#45;&gt;Node33</title>
<path fill="none" stroke="midnightblue" d="M1070.39,-128.91C1027.26,-116.01 959.8,-89.52 988,-56 1016.18,-22.5 1147.54,-13.94 1211.64,-11.75"/>
<polygon fill="midnightblue" stroke="midnightblue" points="1211.8,-15.25 1221.69,-11.44 1211.59,-8.25 1211.8,-15.25"/>
</g>
<!-- Node35 -->
<g id="node35" class="node">
<title>Node35</title>
<g id="a_node35"><a xlink:title=" ">
<polygon fill="white" stroke="#bfbfbf" points="1109.5,-62 1109.5,-81 1202.5,-81 1202.5,-62 1109.5,-62"/>
<text text-anchor="middle" x="1156" y="-69" font-family="Helvetica,sans-Serif" font-size="10.00">dlpack/dlpack.h</text>
</a>
</g>
</g>
<!-- Node34&#45;&gt;Node35 -->
<g id="edge50" class="edge">
<title>Node34&#45;&gt;Node35</title>
<path fill="none" stroke="midnightblue" d="M1110.15,-128.73C1118.41,-118.6 1132.2,-101.69 1142.5,-89.06"/>
<polygon fill="midnightblue" stroke="midnightblue" points="1145.36,-91.09 1148.97,-81.13 1139.93,-86.67 1145.36,-91.09"/>
</g>
<!-- Node36 -->
<g id="node36" class="node">
<title>Node36</title>
<g id="a_node36"><a xlink:title=" ">
<polygon fill="white" stroke="#bfbfbf" points="1220.5,-62 1220.5,-81 1351.5,-81 1351.5,-62 1220.5,-62"/>
<text text-anchor="middle" x="1286" y="-69" font-family="Helvetica,sans-Serif" font-size="10.00">tvm/ffi/container/map.h</text>
</a>
</g>
</g>
<!-- Node34&#45;&gt;Node36 -->
<g id="edge52" class="edge">
<title>Node34&#45;&gt;Node36</title>
<path fill="none" stroke="midnightblue" d="M1127.3,-128.87C1159.38,-117.47 1216.03,-97.35 1252.25,-84.49"/>
<polygon fill="midnightblue" stroke="midnightblue" points="1253.64,-87.71 1261.89,-81.06 1251.3,-81.11 1253.64,-87.71"/>
</g>
<!-- Node37 -->
<g id="node37" class="node">
<title>Node37</title>
<g id="a_node37"><a xlink:title=" ">
<polygon fill="white" stroke="#bfbfbf" points="997,-62 997,-81 1091,-81 1091,-62 997,-62"/>
<text text-anchor="middle" x="1044" y="-69" font-family="Helvetica,sans-Serif" font-size="10.00">tvm/ffi/endian.h</text>
</a>
</g>
</g>
<!-- Node34&#45;&gt;Node37 -->
<g id="edge53" class="edge">
<title>Node34&#45;&gt;Node37</title>
<path fill="none" stroke="midnightblue" d="M1095.04,-128.73C1085.75,-118.5 1070.2,-101.36 1058.7,-88.69"/>
<polygon fill="midnightblue" stroke="midnightblue" points="1061.14,-86.18 1051.83,-81.13 1055.96,-90.88 1061.14,-86.18"/>
</g>
<!-- Node38 -->
<g id="node38" class="node">
<title>Node38</title>
<g id="a_node38"><a xlink:title=" ">
<polygon fill="white" stroke="#bfbfbf" points="760.5,-62 760.5,-81 853.5,-81 853.5,-62 760.5,-62"/>
<text text-anchor="middle" x="807" y="-69" font-family="Helvetica,sans-Serif" font-size="10.00">unordered_map</text>
</a>
</g>
</g>
<!-- Node34&#45;&gt;Node38 -->
<g id="edge60" class="edge">
<title>Node34&#45;&gt;Node38</title>
<path fill="none" stroke="midnightblue" d="M1058.87,-128.96C1010.43,-119.42 930.44,-103.18 862,-87 857.56,-85.95 852.92,-84.8 848.31,-83.63"/>
<polygon fill="midnightblue" stroke="midnightblue" points="848.9,-80.17 838.34,-81.06 847.15,-86.95 848.9,-80.17"/>
</g>
<!-- Node40&#45;&gt;Node3 -->
<g id="edge69" class="edge">
<title>Node40&#45;&gt;Node3</title>
<path fill="none" stroke="midnightblue" d="M829.66,-246.44C806.25,-237.48 769.26,-223.31 742.81,-213.18"/>
<polygon fill="midnightblue" stroke="midnightblue" points="743.83,-209.82 733.24,-209.52 741.32,-216.36 743.83,-209.82"/>
</g>
<!-- Node40&#45;&gt;Node7 -->
<g id="edge68" class="edge">
<title>Node40&#45;&gt;Node7</title>
<path fill="none" stroke="midnightblue" d="M840.95,-246.37C823.92,-233.28 789.98,-208.04 759,-190 734.1,-175.5 704.38,-161.62 682.76,-152.09"/>
<polygon fill="midnightblue" stroke="midnightblue" points="684,-148.81 673.44,-148.03 681.21,-155.23 684,-148.81"/>
</g>
<!-- Node40&#45;&gt;Node15 -->
<g id="edge72" class="edge">
<title>Node40&#45;&gt;Node15</title>
<path fill="none" stroke="midnightblue" d="M851.4,-246.26C849.42,-223.47 841.3,-161.4 810,-123 805.43,-117.4 770.86,-98.79 745.92,-85.8"/>
<polygon fill="midnightblue" stroke="midnightblue" points="747.41,-82.63 736.92,-81.14 744.19,-88.84 747.41,-82.63"/>
</g>
<!-- Node40&#45;&gt;Node17 -->
<g id="edge70" class="edge">
<title>Node40&#45;&gt;Node17</title>
<path fill="none" stroke="midnightblue" d="M889.99,-246.41C981.56,-225.72 1214.34,-173.1 1315.19,-150.31"/>
<polygon fill="midnightblue" stroke="midnightblue" points="1316.12,-153.68 1325.11,-148.06 1314.58,-146.86 1316.12,-153.68"/>
</g>
<!-- Node40&#45;&gt;Node24 -->
<g id="edge71" class="edge">
<title>Node40&#45;&gt;Node24</title>
<path fill="none" stroke="midnightblue" d="M856.36,-246.32C865.81,-227.51 888.33,-182.65 900.98,-157.46"/>
<polygon fill="midnightblue" stroke="midnightblue" points="904.23,-158.79 905.59,-148.28 897.97,-155.65 904.23,-158.79"/>
</g>
</g>
</svg>
