<?xml version="1.0" encoding="UTF-8" standalone="no"?>
<!DOCTYPE svg PUBLIC "-//W3C//DTD SVG 1.1//EN"
 "http://www.w3.org/Graphics/SVG/1.1/DTD/svg11.dtd">
<!-- Generated by graphviz version 2.43.0 (0)
 -->
<!-- Title: include/tvm/ir/op.h Pages: 1 -->
<svg width="2061pt" height="330pt"
 viewBox="0.00 0.00 2061.00 330.00" xmlns="http://www.w3.org/2000/svg" xmlns:xlink="http://www.w3.org/1999/xlink">
<g id="graph0" class="graph" transform="scale(1 1) rotate(0) translate(4 326)">
<title>include/tvm/ir/op.h</title>
<polygon fill="white" stroke="transparent" points="-4,4 -4,-326 2057,-326 2057,4 -4,4"/>
<!-- Node1 -->
<g id="node1" class="node">
<title>Node1</title>
<g id="a_node1"><a xlink:title="Primitive operators(builtin intrinsics) and registry for them.">
<polygon fill="#bfbfbf" stroke="black" points="607.5,-302.5 607.5,-321.5 715.5,-321.5 715.5,-302.5 607.5,-302.5"/>
<text text-anchor="middle" x="661.5" y="-309.5" font-family="Helvetica,sans-Serif" font-size="10.00">include/tvm/ir/op.h</text>
</a>
</g>
</g>
<!-- Node2 -->
<g id="node2" class="node">
<title>Node2</title>
<g id="a_node2"><a xlink:title=" ">
<polygon fill="white" stroke="#bfbfbf" points="1689,-62 1689,-81 1772,-81 1772,-62 1689,-62"/>
<text text-anchor="middle" x="1730.5" y="-69" font-family="Helvetica,sans-Serif" font-size="10.00">tvm/ffi/error.h</text>
</a>
</g>
</g>
<!-- Node1&#45;&gt;Node2 -->
<g id="edge1" class="edge">
<title>Node1&#45;&gt;Node2</title>
<path fill="none" stroke="midnightblue" d="M715.7,-310.7C939.7,-308.91 1785.05,-296.44 1862.5,-210 1904.72,-162.88 1810.26,-109.46 1759.72,-85.42"/>
<polygon fill="midnightblue" stroke="midnightblue" points="1761.09,-82.2 1750.55,-81.15 1758.14,-88.54 1761.09,-82.2"/>
</g>
<!-- Node3 -->
<g id="node3" class="node">
<title>Node3</title>
<g id="a_node3"><a xlink:title=" ">
<polygon fill="white" stroke="#bfbfbf" points="338,-62 338,-81 439,-81 439,-62 338,-62"/>
<text text-anchor="middle" x="388.5" y="-69" font-family="Helvetica,sans-Serif" font-size="10.00">tvm/ffi/function.h</text>
</a>
</g>
</g>
<!-- Node1&#45;&gt;Node3 -->
<g id="edge2" class="edge">
<title>Node1&#45;&gt;Node3</title>
<path fill="none" stroke="midnightblue" d="M607.43,-307.18C501.54,-298.37 273.56,-272.4 232.5,-210 210.02,-175.83 232.02,-150.28 262.5,-123 283.82,-103.92 313.25,-91.58 338.3,-83.88"/>
<polygon fill="midnightblue" stroke="midnightblue" points="339.4,-87.21 348.02,-81.05 337.44,-80.48 339.4,-87.21"/>
</g>
<!-- Node4 -->
<g id="node4" class="node">
<title>Node4</title>
<g id="a_node4"><a xlink:title=" ">
<polygon fill="white" stroke="#bfbfbf" points="220.5,-56.5 220.5,-86.5 318.5,-86.5 318.5,-56.5 220.5,-56.5"/>
<text text-anchor="start" x="228.5" y="-74.5" font-family="Helvetica,sans-Serif" font-size="10.00">tvm/ffi/reflection</text>
<text text-anchor="middle" x="269.5" y="-63.5" font-family="Helvetica,sans-Serif" font-size="10.00">/registry.h</text>
</a>
</g>
</g>
<!-- Node1&#45;&gt;Node4 -->
<g id="edge3" class="edge">
<title>Node1&#45;&gt;Node4</title>
<path fill="none" stroke="midnightblue" d="M607.47,-308.43C517.47,-303.51 341.13,-290.95 284.5,-266 205.35,-231.13 104.98,-195.27 152.5,-123 160,-111.6 187.43,-99.46 213.85,-89.94"/>
<polygon fill="midnightblue" stroke="midnightblue" points="215.22,-93.17 223.5,-86.56 212.91,-86.56 215.22,-93.17"/>
</g>
<!-- Node5 -->
<g id="node5" class="node">
<title>Node5</title>
<g id="a_node5"><a xlink:href="attr__registry__map_8h.html" target="_top" xlink:title="Attribute map used in registry.">
<polygon fill="white" stroke="black" points="242,-179.5 242,-209.5 351,-209.5 351,-179.5 242,-179.5"/>
<text text-anchor="start" x="250" y="-197.5" font-family="Helvetica,sans-Serif" font-size="10.00">tvm/ir/attr_registry</text>
<text text-anchor="middle" x="296.5" y="-186.5" font-family="Helvetica,sans-Serif" font-size="10.00">_map.h</text>
</a>
</g>
</g>
<!-- Node1&#45;&gt;Node5 -->
<g id="edge4" class="edge">
<title>Node1&#45;&gt;Node5</title>
<path fill="none" stroke="midnightblue" d="M607.39,-308C553.95,-303.56 470.7,-292.66 403.5,-266 372.78,-253.82 341.69,-232.04 321,-215.9"/>
<polygon fill="midnightblue" stroke="midnightblue" points="323.07,-213.08 313.07,-209.59 318.71,-218.55 323.07,-213.08"/>
</g>
<!-- Node7 -->
<g id="node7" class="node">
<title>Node7</title>
<g id="a_node7"><a xlink:title=" ">
<polygon fill="white" stroke="#bfbfbf" points="1065,-62 1065,-81 1110,-81 1110,-62 1065,-62"/>
<text text-anchor="middle" x="1087.5" y="-69" font-family="Helvetica,sans-Serif" font-size="10.00">utility</text>
</a>
</g>
</g>
<!-- Node1&#45;&gt;Node7 -->
<g id="edge73" class="edge">
<title>Node1&#45;&gt;Node7</title>
<path fill="none" stroke="midnightblue" d="M715.57,-303.83C847.75,-285.08 1181.1,-229.9 1244.5,-143 1294.32,-74.71 1268.34,-141.83 1119.5,-87 1117.89,-86.41 1116.24,-85.77 1114.59,-85.1"/>
<polygon fill="midnightblue" stroke="midnightblue" points="1115.82,-81.82 1105.25,-81.09 1113.06,-88.25 1115.82,-81.82"/>
</g>
<!-- Node8 -->
<g id="node8" class="node">
<title>Node8</title>
<g id="a_node8"><a xlink:title=" ">
<polygon fill="white" stroke="#bfbfbf" points="0,-62 0,-81 47,-81 47,-62 0,-62"/>
<text text-anchor="middle" x="23.5" y="-69" font-family="Helvetica,sans-Serif" font-size="10.00">vector</text>
</a>
</g>
</g>
<!-- Node1&#45;&gt;Node8 -->
<g id="edge74" class="edge">
<title>Node1&#45;&gt;Node8</title>
<path fill="none" stroke="midnightblue" d="M607.14,-308.08C508.7,-302.31 304.85,-288.09 237.5,-266 190.56,-250.61 179.44,-241.63 141.5,-210 96.56,-172.54 54.64,-116.94 35.07,-89.33"/>
<polygon fill="midnightblue" stroke="midnightblue" points="37.92,-87.29 29.32,-81.1 32.18,-91.3 37.92,-87.29"/>
</g>
<!-- Node9 -->
<g id="node9" class="node">
<title>Node9</title>
<g id="a_node9"><a xlink:href="attrs_8h.html" target="_top" xlink:title="Helpers for attribute objects.">
<polygon fill="white" stroke="black" points="1264.5,-246.5 1264.5,-265.5 1344.5,-265.5 1344.5,-246.5 1264.5,-246.5"/>
<text text-anchor="middle" x="1304.5" y="-253.5" font-family="Helvetica,sans-Serif" font-size="10.00">tvm/ir/attrs.h</text>
</a>
</g>
</g>
<!-- Node1&#45;&gt;Node9 -->
<g id="edge8" class="edge">
<title>Node1&#45;&gt;Node9</title>
<path fill="none" stroke="midnightblue" d="M715.72,-306.5C812.76,-298.44 1022.52,-280.99 1199.5,-266 1217.16,-264.5 1236.5,-262.85 1253.71,-261.37"/>
<polygon fill="midnightblue" stroke="midnightblue" points="1254.45,-264.82 1264.11,-260.48 1253.85,-257.85 1254.45,-264.82"/>
</g>
<!-- Node15 -->
<g id="node15" class="node">
<title>Node15</title>
<g id="a_node15"><a xlink:href="ir_2expr_8h.html" target="_top" xlink:title="Base expr nodes in TVM.">
<polygon fill="white" stroke="black" points="947,-185 947,-204 1026,-204 1026,-185 947,-185"/>
<text text-anchor="middle" x="986.5" y="-192" font-family="Helvetica,sans-Serif" font-size="10.00">tvm/ir/expr.h</text>
</a>
</g>
</g>
<!-- Node1&#45;&gt;Node15 -->
<g id="edge63" class="edge">
<title>Node1&#45;&gt;Node15</title>
<path fill="none" stroke="midnightblue" d="M685.66,-302.41C742.89,-282.07 886.84,-230.92 952.68,-207.52"/>
<polygon fill="midnightblue" stroke="midnightblue" points="953.93,-210.79 962.18,-204.14 951.58,-204.19 953.93,-210.79"/>
</g>
<!-- Node27 -->
<g id="node27" class="node">
<title>Node27</title>
<g id="a_node27"><a xlink:title=" ">
<polygon fill="white" stroke="#bfbfbf" points="745.5,-62 745.5,-81 789.5,-81 789.5,-62 745.5,-62"/>
<text text-anchor="middle" x="767.5" y="-69" font-family="Helvetica,sans-Serif" font-size="10.00">string</text>
</a>
</g>
</g>
<!-- Node1&#45;&gt;Node27 -->
<g id="edge72" class="edge">
<title>Node1&#45;&gt;Node27</title>
<path fill="none" stroke="midnightblue" d="M674.16,-302.45C685.27,-294.31 701.09,-281.1 710.5,-266 746.26,-208.6 760.5,-127.7 765.34,-91.41"/>
<polygon fill="midnightblue" stroke="midnightblue" points="768.84,-91.63 766.6,-81.28 761.9,-90.77 768.84,-91.63"/>
</g>
<!-- Node36 -->
<g id="node36" class="node">
<title>Node36</title>
<g id="a_node36"><a xlink:href="env__func_8h.html" target="_top" xlink:title="Serializable global function used in IR.">
<polygon fill="white" stroke="black" points="561.5,-123.5 561.5,-142.5 663.5,-142.5 663.5,-123.5 561.5,-123.5"/>
<text text-anchor="middle" x="612.5" y="-130.5" font-family="Helvetica,sans-Serif" font-size="10.00">tvm/ir/env_func.h</text>
</a>
</g>
</g>
<!-- Node1&#45;&gt;Node36 -->
<g id="edge57" class="edge">
<title>Node1&#45;&gt;Node36</title>
<path fill="none" stroke="midnightblue" d="M646.84,-302.4C635.09,-294.58 619.47,-281.86 612.5,-266 595.97,-228.37 602.6,-178.66 608.06,-152.28"/>
<polygon fill="midnightblue" stroke="midnightblue" points="611.47,-153.03 610.25,-142.51 604.64,-151.5 611.47,-153.03"/>
</g>
<!-- Node37 -->
<g id="node37" class="node">
<title>Node37</title>
<g id="a_node37"><a xlink:href="ir_2type_8h.html" target="_top" xlink:title="IR/AST nodes for the unified type system in TVM.">
<polygon fill="white" stroke="black" points="621.5,-246.5 621.5,-265.5 701.5,-265.5 701.5,-246.5 621.5,-246.5"/>
<text text-anchor="middle" x="661.5" y="-253.5" font-family="Helvetica,sans-Serif" font-size="10.00">tvm/ir/type.h</text>
</a>
</g>
</g>
<!-- Node1&#45;&gt;Node37 -->
<g id="edge64" class="edge">
<title>Node1&#45;&gt;Node37</title>
<path fill="none" stroke="midnightblue" d="M661.5,-302.08C661.5,-295.01 661.5,-284.86 661.5,-275.99"/>
<polygon fill="midnightblue" stroke="midnightblue" points="665,-275.75 661.5,-265.75 658,-275.75 665,-275.75"/>
</g>
<!-- Node6 -->
<g id="node6" class="node">
<title>Node6</title>
<g id="a_node6"><a xlink:title=" ">
<polygon fill="white" stroke="#bfbfbf" points="280,-123.5 280,-142.5 369,-142.5 369,-123.5 280,-123.5"/>
<text text-anchor="middle" x="324.5" y="-130.5" font-family="Helvetica,sans-Serif" font-size="10.00">tvm/ffi/string.h</text>
</a>
</g>
</g>
<!-- Node5&#45;&gt;Node6 -->
<g id="edge5" class="edge">
<title>Node5&#45;&gt;Node6</title>
<path fill="none" stroke="midnightblue" d="M303.14,-179.4C307.04,-171.11 312,-160.55 316.17,-151.71"/>
<polygon fill="midnightblue" stroke="midnightblue" points="319.33,-153.2 320.43,-142.66 313,-150.22 319.33,-153.2"/>
</g>
<!-- Node5&#45;&gt;Node7 -->
<g id="edge6" class="edge">
<title>Node5&#45;&gt;Node7</title>
<path fill="none" stroke="midnightblue" d="M351.07,-186.78C424.3,-177.61 558.39,-160.35 672.5,-143 815.1,-121.32 984.49,-91.16 1054.61,-78.49"/>
<polygon fill="midnightblue" stroke="midnightblue" points="1055.38,-81.9 1064.6,-76.68 1054.14,-75.02 1055.38,-81.9"/>
</g>
<!-- Node5&#45;&gt;Node8 -->
<g id="edge7" class="edge">
<title>Node5&#45;&gt;Node8</title>
<path fill="none" stroke="midnightblue" d="M241.81,-182.42C206.9,-174.18 161.27,-161.2 123.5,-143 92.3,-127.97 60.28,-103.49 41.14,-87.69"/>
<polygon fill="midnightblue" stroke="midnightblue" points="43.21,-84.86 33.3,-81.11 38.71,-90.22 43.21,-84.86"/>
</g>
<!-- Node9&#45;&gt;Node3 -->
<g id="edge12" class="edge">
<title>Node9&#45;&gt;Node3</title>
<path fill="none" stroke="midnightblue" d="M1264.38,-251.39C1075.96,-234.34 287.45,-161.96 270.5,-143 264.58,-136.37 265.6,-130.42 270.5,-123 279.72,-109.03 318.76,-94.06 349.44,-84.08"/>
<polygon fill="midnightblue" stroke="midnightblue" points="350.59,-87.39 359.06,-81.02 348.47,-80.72 350.59,-87.39"/>
</g>
<!-- Node9&#45;&gt;Node4 -->
<g id="edge13" class="edge">
<title>Node9&#45;&gt;Node4</title>
<path fill="none" stroke="midnightblue" d="M1264.24,-255.33C1149.68,-255.68 812.35,-252.73 536.5,-210 481.21,-201.44 468.83,-192.34 414.5,-179 347.08,-162.45 305.56,-197.45 262.5,-143 252.21,-129.99 254.71,-111.12 259.37,-96.17"/>
<polygon fill="midnightblue" stroke="midnightblue" points="262.73,-97.17 262.82,-86.58 256.14,-94.8 262.73,-97.17"/>
</g>
<!-- Node9&#45;&gt;Node7 -->
<g id="edge56" class="edge">
<title>Node9&#45;&gt;Node7</title>
<path fill="none" stroke="midnightblue" d="M1298.74,-246.49C1293.18,-237.75 1285.1,-223.57 1281.5,-210 1271.58,-172.59 1302.33,-152.7 1277.5,-123 1231.3,-67.75 1187.76,-109.98 1119.5,-87 1117.83,-86.44 1116.13,-85.82 1114.43,-85.16"/>
<polygon fill="midnightblue" stroke="midnightblue" points="1115.42,-81.78 1104.85,-81.13 1112.71,-88.23 1115.42,-81.78"/>
</g>
<!-- Node10 -->
<g id="node10" class="node">
<title>Node10</title>
<g id="a_node10"><a xlink:title=" ">
<polygon fill="white" stroke="#bfbfbf" points="1290,-185 1290,-204 1421,-204 1421,-185 1290,-185"/>
<text text-anchor="middle" x="1355.5" y="-192" font-family="Helvetica,sans-Serif" font-size="10.00">tvm/ffi/container/map.h</text>
</a>
</g>
</g>
<!-- Node9&#45;&gt;Node10 -->
<g id="edge9" class="edge">
<title>Node9&#45;&gt;Node10</title>
<path fill="none" stroke="midnightblue" d="M1311.81,-246.48C1319.53,-237.46 1331.91,-223.02 1341.52,-211.81"/>
<polygon fill="midnightblue" stroke="midnightblue" points="1344.36,-213.88 1348.21,-204.01 1339.04,-209.32 1344.36,-213.88"/>
</g>
<!-- Node11 -->
<g id="node11" class="node">
<title>Node11</title>
<g id="a_node11"><a xlink:title=" ">
<polygon fill="white" stroke="#bfbfbf" points="1439,-179.5 1439,-209.5 1566,-209.5 1566,-179.5 1439,-179.5"/>
<text text-anchor="start" x="1447" y="-197.5" font-family="Helvetica,sans-Serif" font-size="10.00">tvm/ffi/extra/structural</text>
<text text-anchor="middle" x="1502.5" y="-186.5" font-family="Helvetica,sans-Serif" font-size="10.00">_equal.h</text>
</a>
</g>
</g>
<!-- Node9&#45;&gt;Node11 -->
<g id="edge10" class="edge">
<title>Node9&#45;&gt;Node11</title>
<path fill="none" stroke="midnightblue" d="M1332.87,-246.48C1362.32,-237.63 1409.16,-223.55 1446.17,-212.43"/>
<polygon fill="midnightblue" stroke="midnightblue" points="1447.27,-215.75 1455.84,-209.52 1445.25,-209.05 1447.27,-215.75"/>
</g>
<!-- Node12 -->
<g id="node12" class="node">
<title>Node12</title>
<g id="a_node12"><a xlink:title=" ">
<polygon fill="white" stroke="#bfbfbf" points="1584,-179.5 1584,-209.5 1711,-209.5 1711,-179.5 1584,-179.5"/>
<text text-anchor="start" x="1592" y="-197.5" font-family="Helvetica,sans-Serif" font-size="10.00">tvm/ffi/extra/structural</text>
<text text-anchor="middle" x="1647.5" y="-186.5" font-family="Helvetica,sans-Serif" font-size="10.00">_hash.h</text>
</a>
</g>
</g>
<!-- Node9&#45;&gt;Node12 -->
<g id="edge11" class="edge">
<title>Node9&#45;&gt;Node12</title>
<path fill="none" stroke="midnightblue" d="M1344.52,-248.79C1395.5,-240.79 1486.57,-226.17 1573.85,-210.27"/>
<polygon fill="midnightblue" stroke="midnightblue" points="1574.71,-213.67 1583.92,-208.43 1573.45,-206.78 1574.71,-213.67"/>
</g>
<!-- Node13 -->
<g id="node13" class="node">
<title>Node13</title>
<g id="a_node13"><a xlink:href="cow_8h.html" target="_top" xlink:title="Copy&#45;on&#45;write helper macro for IR ffi::ObjectRef types.">
<polygon fill="white" stroke="black" points="1486,-123.5 1486,-142.5 1563,-142.5 1563,-123.5 1486,-123.5"/>
<text text-anchor="middle" x="1524.5" y="-130.5" font-family="Helvetica,sans-Serif" font-size="10.00">tvm/ir/cow.h</text>
</a>
</g>
</g>
<!-- Node9&#45;&gt;Node13 -->
<g id="edge14" class="edge">
<title>Node9&#45;&gt;Node13</title>
<path fill="none" stroke="midnightblue" d="M1344.59,-254.62C1461.97,-253.11 1798.74,-245.68 1831.5,-210 1894.23,-141.68 1926.53,-199.76 1573.27,-143.05"/>
<polygon fill="midnightblue" stroke="midnightblue" points="1573.68,-139.57 1563.25,-141.43 1572.56,-146.48 1573.68,-139.57"/>
</g>
<!-- Node9&#45;&gt;Node15 -->
<g id="edge17" class="edge">
<title>Node9&#45;&gt;Node15</title>
<path fill="none" stroke="midnightblue" d="M1264.23,-247.46C1206.28,-236.62 1099.47,-216.64 1036.53,-204.86"/>
<polygon fill="midnightblue" stroke="midnightblue" points="1036.92,-201.37 1026.45,-202.97 1035.63,-208.25 1036.92,-201.37"/>
</g>
<!-- Node9&#45;&gt;Node27 -->
<g id="edge53" class="edge">
<title>Node9&#45;&gt;Node27</title>
<path fill="none" stroke="midnightblue" d="M1264.28,-255.48C1195.55,-255.12 1051.96,-249.2 938.5,-210 884.04,-191.18 871.41,-180.31 827.5,-143 808.64,-126.97 790.75,-104.71 779.5,-89.51"/>
<polygon fill="midnightblue" stroke="midnightblue" points="782.09,-87.14 773.4,-81.09 776.42,-91.24 782.09,-87.14"/>
</g>
<!-- Node31 -->
<g id="node31" class="node">
<title>Node31</title>
<g id="a_node31"><a xlink:title=" ">
<polygon fill="white" stroke="#bfbfbf" points="1885,-62 1885,-81 1954,-81 1954,-62 1885,-62"/>
<text text-anchor="middle" x="1919.5" y="-69" font-family="Helvetica,sans-Serif" font-size="10.00">type_traits</text>
</a>
</g>
</g>
<!-- Node9&#45;&gt;Node31 -->
<g id="edge54" class="edge">
<title>Node9&#45;&gt;Node31</title>
<path fill="none" stroke="midnightblue" d="M1344.59,-254.16C1465.51,-251.28 1820.85,-240.31 1862.5,-210 1901.41,-181.68 1913.87,-121.81 1917.78,-91.27"/>
<polygon fill="midnightblue" stroke="midnightblue" points="1921.28,-91.45 1918.89,-81.13 1914.32,-90.69 1921.28,-91.45"/>
</g>
<!-- Node35 -->
<g id="node35" class="node">
<title>Node35</title>
<g id="a_node35"><a xlink:title=" ">
<polygon fill="white" stroke="#bfbfbf" points="1729,-185 1729,-204 1822,-204 1822,-185 1729,-185"/>
<text text-anchor="middle" x="1775.5" y="-192" font-family="Helvetica,sans-Serif" font-size="10.00">unordered_map</text>
</a>
</g>
</g>
<!-- Node9&#45;&gt;Node35 -->
<g id="edge55" class="edge">
<title>Node9&#45;&gt;Node35</title>
<path fill="none" stroke="midnightblue" d="M1344.66,-252.67C1419.22,-247.89 1583.88,-235.25 1720.5,-210 1725.65,-209.05 1731.02,-207.87 1736.31,-206.6"/>
<polygon fill="midnightblue" stroke="midnightblue" points="1737.45,-209.92 1746.28,-204.07 1735.73,-203.13 1737.45,-209.92"/>
</g>
<!-- Node13&#45;&gt;Node7 -->
<g id="edge16" class="edge">
<title>Node13&#45;&gt;Node7</title>
<path fill="none" stroke="midnightblue" d="M1485.77,-124.45C1482.64,-123.93 1479.52,-123.43 1476.5,-123 1318.65,-100.29 1273.49,-128.46 1119.5,-87 1117.35,-86.42 1115.16,-85.71 1112.98,-84.92"/>
<polygon fill="midnightblue" stroke="midnightblue" points="1114.31,-81.68 1103.73,-81.08 1111.63,-88.15 1114.31,-81.68"/>
</g>
<!-- Node14 -->
<g id="node14" class="node">
<title>Node14</title>
<g id="a_node14"><a xlink:title=" ">
<polygon fill="white" stroke="#bfbfbf" points="1461,-62 1461,-81 1552,-81 1552,-62 1461,-62"/>
<text text-anchor="middle" x="1506.5" y="-69" font-family="Helvetica,sans-Serif" font-size="10.00">tvm/ffi/object.h</text>
</a>
</g>
</g>
<!-- Node13&#45;&gt;Node14 -->
<g id="edge15" class="edge">
<title>Node13&#45;&gt;Node14</title>
<path fill="none" stroke="midnightblue" d="M1521.92,-123.48C1519.35,-114.99 1515.33,-101.7 1512.04,-90.82"/>
<polygon fill="midnightblue" stroke="midnightblue" points="1515.32,-89.57 1509.07,-81.01 1508.62,-91.59 1515.32,-89.57"/>
</g>
<!-- Node15&#45;&gt;Node4 -->
<g id="edge19" class="edge">
<title>Node15&#45;&gt;Node4</title>
<path fill="none" stroke="midnightblue" d="M946.81,-191.96C834.56,-187.31 516.48,-171.87 416.5,-143 397.78,-137.6 394.99,-131.57 377.5,-123 355.2,-112.07 330.07,-100.29 309.67,-90.86"/>
<polygon fill="midnightblue" stroke="midnightblue" points="310.91,-87.58 300.37,-86.57 307.98,-93.94 310.91,-87.58"/>
</g>
<!-- Node15&#45;&gt;Node6 -->
<g id="edge20" class="edge">
<title>Node15&#45;&gt;Node6</title>
<path fill="none" stroke="midnightblue" d="M946.95,-190.54C831.03,-181.81 493.44,-155.97 383.5,-143 382.2,-142.85 380.88,-142.69 379.55,-142.52"/>
<polygon fill="midnightblue" stroke="midnightblue" points="379.61,-139 369.23,-141.15 378.69,-145.94 379.61,-139"/>
</g>
<!-- Node15&#45;&gt;Node13 -->
<g id="edge29" class="edge">
<title>Node15&#45;&gt;Node13</title>
<path fill="none" stroke="midnightblue" d="M1026.02,-190.54C1107.89,-184.17 1302.18,-167.82 1475.69,-143"/>
<polygon fill="midnightblue" stroke="midnightblue" points="1476.38,-146.44 1485.77,-141.55 1475.38,-139.51 1476.38,-146.44"/>
</g>
<!-- Node16 -->
<g id="node16" class="node">
<title>Node16</title>
<g id="a_node16"><a xlink:title=" ">
<polygon fill="white" stroke="#bfbfbf" points="1099.5,-123.5 1099.5,-142.5 1235.5,-142.5 1235.5,-123.5 1099.5,-123.5"/>
<text text-anchor="middle" x="1167.5" y="-130.5" font-family="Helvetica,sans-Serif" font-size="10.00">tvm/ffi/extra/dataclass.h</text>
</a>
</g>
</g>
<!-- Node15&#45;&gt;Node16 -->
<g id="edge18" class="edge">
<title>Node15&#45;&gt;Node16</title>
<path fill="none" stroke="midnightblue" d="M1012.43,-184.98C1043.75,-174.68 1096.59,-157.31 1131.76,-145.75"/>
<polygon fill="midnightblue" stroke="midnightblue" points="1133.21,-148.96 1141.62,-142.51 1131.02,-142.31 1133.21,-148.96"/>
</g>
<!-- Node17 -->
<g id="node17" class="node">
<title>Node17</title>
<g id="a_node17"><a xlink:href="cast_8h.html" target="_top" xlink:title="Value casting helpers.">
<polygon fill="white" stroke="black" points="1581.5,-123.5 1581.5,-142.5 1659.5,-142.5 1659.5,-123.5 1581.5,-123.5"/>
<text text-anchor="middle" x="1620.5" y="-130.5" font-family="Helvetica,sans-Serif" font-size="10.00">tvm/ir/cast.h</text>
</a>
</g>
</g>
<!-- Node15&#45;&gt;Node17 -->
<g id="edge21" class="edge">
<title>Node15&#45;&gt;Node17</title>
<path fill="none" stroke="midnightblue" d="M1026.09,-191.45C1119.33,-186.33 1360.19,-171.41 1571.23,-143.05"/>
<polygon fill="midnightblue" stroke="midnightblue" points="1571.82,-146.5 1581.26,-141.69 1570.88,-139.56 1571.82,-146.5"/>
</g>
<!-- Node22 -->
<g id="node22" class="node">
<title>Node22</title>
<g id="a_node22"><a xlink:href="source__map_8h.html" target="_top" xlink:title="A map from source names to source code.">
<polygon fill="white" stroke="black" points="426,-123.5 426,-142.5 543,-142.5 543,-123.5 426,-123.5"/>
<text text-anchor="middle" x="484.5" y="-130.5" font-family="Helvetica,sans-Serif" font-size="10.00">tvm/ir/source_map.h</text>
</a>
</g>
</g>
<!-- Node15&#45;&gt;Node22 -->
<g id="edge30" class="edge">
<title>Node15&#45;&gt;Node22</title>
<path fill="none" stroke="midnightblue" d="M946.98,-189.11C872.32,-180.78 705.17,-161.9 553.09,-143.06"/>
<polygon fill="midnightblue" stroke="midnightblue" points="553.45,-139.57 543.1,-141.82 552.59,-146.52 553.45,-139.57"/>
</g>
<!-- Node15&#45;&gt;Node27 -->
<g id="edge51" class="edge">
<title>Node15&#45;&gt;Node27</title>
<path fill="none" stroke="midnightblue" d="M959.97,-184.88C934.24,-176.03 894.51,-161.01 862.5,-143 833.76,-126.83 803.7,-103.21 785.28,-87.84"/>
<polygon fill="midnightblue" stroke="midnightblue" points="787.35,-85.01 777.46,-81.23 782.83,-90.36 787.35,-85.01"/>
</g>
<!-- Node28 -->
<g id="node28" class="node">
<title>Node28</title>
<g id="a_node28"><a xlink:href="data__type_8h.html" target="_top" xlink:title=" ">
<polygon fill="white" stroke="black" points="1329.5,-123.5 1329.5,-142.5 1467.5,-142.5 1467.5,-123.5 1329.5,-123.5"/>
<text text-anchor="middle" x="1398.5" y="-130.5" font-family="Helvetica,sans-Serif" font-size="10.00">tvm/runtime/data_type.h</text>
</a>
</g>
</g>
<!-- Node15&#45;&gt;Node28 -->
<g id="edge40" class="edge">
<title>Node15&#45;&gt;Node28</title>
<path fill="none" stroke="midnightblue" d="M1026.24,-186.45C1040.5,-183.99 1056.7,-181.28 1071.5,-179 1157.16,-165.8 1255.73,-152.49 1322.07,-143.81"/>
<polygon fill="midnightblue" stroke="midnightblue" points="1322.56,-147.28 1332.02,-142.51 1321.65,-140.33 1322.56,-147.28"/>
</g>
<!-- Node15&#45;&gt;Node31 -->
<g id="edge52" class="edge">
<title>Node15&#45;&gt;Node31</title>
<path fill="none" stroke="midnightblue" d="M1026.15,-191C1162.2,-182.38 1605.22,-153.76 1668.5,-143 1748.07,-129.47 1838.57,-100.58 1886.17,-84.3"/>
<polygon fill="midnightblue" stroke="midnightblue" points="1887.34,-87.59 1895.66,-81.02 1885.06,-80.98 1887.34,-87.59"/>
</g>
<!-- Node32 -->
<g id="node32" class="node">
<title>Node32</title>
<g id="a_node32"><a xlink:title=" ">
<polygon fill="white" stroke="#bfbfbf" points="871.5,-123.5 871.5,-142.5 935.5,-142.5 935.5,-123.5 871.5,-123.5"/>
<text text-anchor="middle" x="903.5" y="-130.5" font-family="Helvetica,sans-Serif" font-size="10.00">algorithm</text>
</a>
</g>
</g>
<!-- Node15&#45;&gt;Node32 -->
<g id="edge48" class="edge">
<title>Node15&#45;&gt;Node32</title>
<path fill="none" stroke="midnightblue" d="M974.61,-184.98C961.3,-175.43 939.5,-159.81 923.54,-148.37"/>
<polygon fill="midnightblue" stroke="midnightblue" points="925.54,-145.49 915.37,-142.51 921.46,-151.18 925.54,-145.49"/>
</g>
<!-- Node33 -->
<g id="node33" class="node">
<title>Node33</title>
<g id="a_node33"><a xlink:title=" ">
<polygon fill="white" stroke="#bfbfbf" points="954,-123.5 954,-142.5 1019,-142.5 1019,-123.5 954,-123.5"/>
<text text-anchor="middle" x="986.5" y="-130.5" font-family="Helvetica,sans-Serif" font-size="10.00">functional</text>
</a>
</g>
</g>
<!-- Node15&#45;&gt;Node33 -->
<g id="edge49" class="edge">
<title>Node15&#45;&gt;Node33</title>
<path fill="none" stroke="midnightblue" d="M986.5,-184.98C986.5,-176.58 986.5,-163.48 986.5,-152.66"/>
<polygon fill="midnightblue" stroke="midnightblue" points="990,-152.51 986.5,-142.51 983,-152.51 990,-152.51"/>
</g>
<!-- Node34 -->
<g id="node34" class="node">
<title>Node34</title>
<g id="a_node34"><a xlink:title=" ">
<polygon fill="white" stroke="#bfbfbf" points="1037.5,-123.5 1037.5,-142.5 1081.5,-142.5 1081.5,-123.5 1037.5,-123.5"/>
<text text-anchor="middle" x="1059.5" y="-130.5" font-family="Helvetica,sans-Serif" font-size="10.00">limits</text>
</a>
</g>
</g>
<!-- Node15&#45;&gt;Node34 -->
<g id="edge50" class="edge">
<title>Node15&#45;&gt;Node34</title>
<path fill="none" stroke="midnightblue" d="M996.96,-184.98C1008.45,-175.61 1027.13,-160.38 1041.09,-149.01"/>
<polygon fill="midnightblue" stroke="midnightblue" points="1043.52,-151.54 1049.06,-142.51 1039.1,-146.11 1043.52,-151.54"/>
</g>
<!-- Node17&#45;&gt;Node2 -->
<g id="edge25" class="edge">
<title>Node17&#45;&gt;Node2</title>
<path fill="none" stroke="midnightblue" d="M1636.26,-123.48C1654.48,-113.62 1684.67,-97.29 1705.97,-85.77"/>
<polygon fill="midnightblue" stroke="midnightblue" points="1707.64,-88.85 1714.77,-81.01 1704.31,-82.69 1707.64,-88.85"/>
</g>
<!-- Node17&#45;&gt;Node7 -->
<g id="edge28" class="edge">
<title>Node17&#45;&gt;Node7</title>
<path fill="none" stroke="midnightblue" d="M1581.26,-124.29C1578.3,-123.82 1575.36,-123.38 1572.5,-123 1372.3,-96.35 1315.07,-137.43 1119.5,-87 1117.29,-86.43 1115.05,-85.72 1112.82,-84.92"/>
<polygon fill="midnightblue" stroke="midnightblue" points="1113.96,-81.6 1103.38,-81 1111.28,-88.07 1113.96,-81.6"/>
</g>
<!-- Node17&#45;&gt;Node14 -->
<g id="edge26" class="edge">
<title>Node17&#45;&gt;Node14</title>
<path fill="none" stroke="midnightblue" d="M1604.17,-123.48C1585.29,-113.62 1553.99,-97.29 1531.92,-85.77"/>
<polygon fill="midnightblue" stroke="midnightblue" points="1533.29,-82.53 1522.8,-81.01 1530.05,-88.74 1533.29,-82.53"/>
</g>
<!-- Node18 -->
<g id="node18" class="node">
<title>Node18</title>
<g id="a_node18"><a xlink:title=" ">
<polygon fill="white" stroke="#bfbfbf" points="1790,-62 1790,-81 1867,-81 1867,-62 1790,-62"/>
<text text-anchor="middle" x="1828.5" y="-69" font-family="Helvetica,sans-Serif" font-size="10.00">tvm/ffi/any.h</text>
</a>
</g>
</g>
<!-- Node17&#45;&gt;Node18 -->
<g id="edge22" class="edge">
<title>Node17&#45;&gt;Node18</title>
<path fill="none" stroke="midnightblue" d="M1652.04,-123.45C1684.55,-114.58 1736.67,-100.18 1781.5,-87 1784.7,-86.06 1788.01,-85.07 1791.33,-84.07"/>
<polygon fill="midnightblue" stroke="midnightblue" points="1792.66,-87.32 1801.2,-81.06 1790.61,-80.63 1792.66,-87.32"/>
</g>
<!-- Node19 -->
<g id="node19" class="node">
<title>Node19</title>
<g id="a_node19"><a xlink:title=" ">
<polygon fill="white" stroke="#bfbfbf" points="1972,-62 1972,-81 2053,-81 2053,-62 1972,-62"/>
<text text-anchor="middle" x="2012.5" y="-69" font-family="Helvetica,sans-Serif" font-size="10.00">tvm/ffi/cast.h</text>
</a>
</g>
</g>
<!-- Node17&#45;&gt;Node19 -->
<g id="edge23" class="edge">
<title>Node17&#45;&gt;Node19</title>
<path fill="none" stroke="midnightblue" d="M1659.67,-128.88C1723.73,-123.33 1854.66,-110.09 1963.5,-87 1967.75,-86.1 1972.16,-85.01 1976.52,-83.84"/>
<polygon fill="midnightblue" stroke="midnightblue" points="1977.83,-87.11 1986.5,-81.02 1975.93,-80.38 1977.83,-87.11"/>
</g>
<!-- Node20 -->
<g id="node20" class="node">
<title>Node20</title>
<g id="a_node20"><a xlink:title=" ">
<polygon fill="white" stroke="#bfbfbf" points="1354,-62 1354,-81 1443,-81 1443,-62 1354,-62"/>
<text text-anchor="middle" x="1398.5" y="-69" font-family="Helvetica,sans-Serif" font-size="10.00">tvm/ffi/dtype.h</text>
</a>
</g>
</g>
<!-- Node17&#45;&gt;Node20 -->
<g id="edge24" class="edge">
<title>Node17&#45;&gt;Node20</title>
<path fill="none" stroke="midnightblue" d="M1588.6,-123.46C1554.81,-114.42 1499.89,-99.71 1452.5,-87 1448.44,-85.91 1444.21,-84.78 1439.98,-83.64"/>
<polygon fill="midnightblue" stroke="midnightblue" points="1440.76,-80.23 1430.19,-81.01 1438.94,-86.99 1440.76,-80.23"/>
</g>
<!-- Node21 -->
<g id="node21" class="node">
<title>Node21</title>
<g id="a_node21"><a xlink:title=" ">
<polygon fill="white" stroke="#bfbfbf" points="1570,-62 1570,-81 1671,-81 1671,-62 1570,-62"/>
<text text-anchor="middle" x="1620.5" y="-69" font-family="Helvetica,sans-Serif" font-size="10.00">tvm/ffi/optional.h</text>
</a>
</g>
</g>
<!-- Node17&#45;&gt;Node21 -->
<g id="edge27" class="edge">
<title>Node17&#45;&gt;Node21</title>
<path fill="none" stroke="midnightblue" d="M1620.5,-123.48C1620.5,-115.08 1620.5,-101.98 1620.5,-91.16"/>
<polygon fill="midnightblue" stroke="midnightblue" points="1624,-91.01 1620.5,-81.01 1617,-91.01 1624,-91.01"/>
</g>
<!-- Node22&#45;&gt;Node3 -->
<g id="edge32" class="edge">
<title>Node22&#45;&gt;Node3</title>
<path fill="none" stroke="midnightblue" d="M470.75,-123.48C455.13,-113.8 429.44,-97.87 410.92,-86.39"/>
<polygon fill="midnightblue" stroke="midnightblue" points="412.57,-83.3 402.23,-81.01 408.88,-89.25 412.57,-83.3"/>
</g>
<!-- Node22&#45;&gt;Node4 -->
<g id="edge33" class="edge">
<title>Node22&#45;&gt;Node4</title>
<path fill="none" stroke="midnightblue" d="M453.7,-123.48C421.09,-114.45 368.83,-99.99 328.29,-88.77"/>
<polygon fill="midnightblue" stroke="midnightblue" points="329.09,-85.36 318.52,-86.07 327.23,-92.11 329.09,-85.36"/>
</g>
<!-- Node22&#45;&gt;Node7 -->
<g id="edge38" class="edge">
<title>Node22&#45;&gt;Node7</title>
<path fill="none" stroke="midnightblue" d="M543.09,-124.1C546.27,-123.72 549.42,-123.35 552.5,-123 742.33,-101.49 970.78,-82.08 1054.61,-75.17"/>
<polygon fill="midnightblue" stroke="midnightblue" points="1055.1,-78.64 1064.78,-74.34 1054.53,-71.67 1055.1,-78.64"/>
</g>
<!-- Node22&#45;&gt;Node8 -->
<g id="edge39" class="edge">
<title>Node22&#45;&gt;Node8</title>
<path fill="none" stroke="midnightblue" d="M425.97,-126.81C317.33,-117.03 92.31,-96.04 57.5,-87 55.14,-86.39 52.74,-85.64 50.35,-84.81"/>
<polygon fill="midnightblue" stroke="midnightblue" points="51.38,-81.45 40.8,-81.05 48.82,-87.97 51.38,-81.45"/>
</g>
<!-- Node23 -->
<g id="node23" class="node">
<title>Node23</title>
<g id="a_node23"><a xlink:title=" ">
<polygon fill="white" stroke="#bfbfbf" points="66.5,-62 66.5,-81 200.5,-81 200.5,-62 66.5,-62"/>
<text text-anchor="middle" x="133.5" y="-69" font-family="Helvetica,sans-Serif" font-size="10.00">tvm/ffi/container/array.h</text>
</a>
</g>
</g>
<!-- Node22&#45;&gt;Node23 -->
<g id="edge31" class="edge">
<title>Node22&#45;&gt;Node23</title>
<path fill="none" stroke="midnightblue" d="M430.83,-123.49C375.74,-114.67 287.56,-100.34 211.5,-87 204.05,-85.69 196.2,-84.28 188.48,-82.87"/>
<polygon fill="midnightblue" stroke="midnightblue" points="188.9,-79.38 178.43,-81.01 187.63,-86.27 188.9,-79.38"/>
</g>
<!-- Node24 -->
<g id="node24" class="node">
<title>Node24</title>
<g id="a_node24"><a xlink:href="runtime_2base_8h.html" target="_top" xlink:title=" ">
<polygon fill="white" stroke="black" points="556,-62 556,-81 669,-81 669,-62 556,-62"/>
<text text-anchor="middle" x="612.5" y="-69" font-family="Helvetica,sans-Serif" font-size="10.00">tvm/runtime/base.h</text>
</a>
</g>
</g>
<!-- Node22&#45;&gt;Node24 -->
<g id="edge34" class="edge">
<title>Node22&#45;&gt;Node24</title>
<path fill="none" stroke="midnightblue" d="M502.84,-123.48C524.32,-113.49 560.12,-96.85 584.95,-85.31"/>
<polygon fill="midnightblue" stroke="midnightblue" points="586.6,-88.4 594.19,-81.01 583.65,-82.05 586.6,-88.4"/>
</g>
<!-- Node26 -->
<g id="node26" class="node">
<title>Node26</title>
<g id="a_node26"><a xlink:title=" ">
<polygon fill="white" stroke="#bfbfbf" points="457,-62 457,-81 512,-81 512,-62 457,-62"/>
<text text-anchor="middle" x="484.5" y="-69" font-family="Helvetica,sans-Serif" font-size="10.00">fstream</text>
</a>
</g>
</g>
<!-- Node22&#45;&gt;Node26 -->
<g id="edge36" class="edge">
<title>Node22&#45;&gt;Node26</title>
<path fill="none" stroke="midnightblue" d="M484.5,-123.48C484.5,-115.08 484.5,-101.98 484.5,-91.16"/>
<polygon fill="midnightblue" stroke="midnightblue" points="488,-91.01 484.5,-81.01 481,-91.01 488,-91.01"/>
</g>
<!-- Node22&#45;&gt;Node27 -->
<g id="edge37" class="edge">
<title>Node22&#45;&gt;Node27</title>
<path fill="none" stroke="midnightblue" d="M525.05,-123.48C581.81,-111.54 683.81,-90.1 735.54,-79.22"/>
<polygon fill="midnightblue" stroke="midnightblue" points="736.42,-82.61 745.48,-77.13 734.98,-75.76 736.42,-82.61"/>
</g>
<!-- Node25 -->
<g id="node25" class="node">
<title>Node25</title>
<g id="a_node25"><a xlink:title=" ">
<polygon fill="white" stroke="#bfbfbf" points="569.5,-0.5 569.5,-19.5 655.5,-19.5 655.5,-0.5 569.5,-0.5"/>
<text text-anchor="middle" x="612.5" y="-7.5" font-family="Helvetica,sans-Serif" font-size="10.00">tvm/ffi/c_api.h</text>
</a>
</g>
</g>
<!-- Node24&#45;&gt;Node25 -->
<g id="edge35" class="edge">
<title>Node24&#45;&gt;Node25</title>
<path fill="none" stroke="midnightblue" d="M612.5,-61.98C612.5,-53.58 612.5,-40.48 612.5,-29.66"/>
<polygon fill="midnightblue" stroke="midnightblue" points="616,-29.51 612.5,-19.51 609,-29.51 616,-29.51"/>
</g>
<!-- Node28&#45;&gt;Node2 -->
<g id="edge43" class="edge">
<title>Node28&#45;&gt;Node2</title>
<path fill="none" stroke="midnightblue" d="M1467.04,-123.48C1524.43,-115.78 1608.29,-103.17 1680.5,-87 1684.72,-86.06 1689.1,-84.96 1693.45,-83.8"/>
<polygon fill="midnightblue" stroke="midnightblue" points="1694.72,-87.08 1703.41,-81.02 1692.84,-80.33 1694.72,-87.08"/>
</g>
<!-- Node28&#45;&gt;Node20 -->
<g id="edge42" class="edge">
<title>Node28&#45;&gt;Node20</title>
<path fill="none" stroke="midnightblue" d="M1398.5,-123.48C1398.5,-115.08 1398.5,-101.98 1398.5,-91.16"/>
<polygon fill="midnightblue" stroke="midnightblue" points="1402,-91.01 1398.5,-81.01 1395,-91.01 1402,-91.01"/>
</g>
<!-- Node28&#45;&gt;Node24 -->
<g id="edge44" class="edge">
<title>Node28&#45;&gt;Node24</title>
<path fill="none" stroke="midnightblue" d="M1329.44,-127.73C1183.97,-118.67 850.06,-97.49 736.5,-87 717.93,-85.28 697.83,-83.08 679.33,-80.92"/>
<polygon fill="midnightblue" stroke="midnightblue" points="679.57,-77.42 669.23,-79.72 678.75,-84.37 679.57,-77.42"/>
</g>
<!-- Node28&#45;&gt;Node27 -->
<g id="edge46" class="edge">
<title>Node28&#45;&gt;Node27</title>
<path fill="none" stroke="midnightblue" d="M1329.47,-125.49C1194,-112.72 898,-84.81 799.84,-75.55"/>
<polygon fill="midnightblue" stroke="midnightblue" points="799.94,-72.04 789.66,-74.59 799.29,-79.01 799.94,-72.04"/>
</g>
<!-- Node29 -->
<g id="node29" class="node">
<title>Node29</title>
<g id="a_node29"><a xlink:title=" ">
<polygon fill="white" stroke="#bfbfbf" points="1128,-62 1128,-81 1267,-81 1267,-62 1128,-62"/>
<text text-anchor="middle" x="1197.5" y="-69" font-family="Helvetica,sans-Serif" font-size="10.00">tvm/ffi/container/shape.h</text>
</a>
</g>
</g>
<!-- Node28&#45;&gt;Node29 -->
<g id="edge41" class="edge">
<title>Node28&#45;&gt;Node29</title>
<path fill="none" stroke="midnightblue" d="M1369.7,-123.48C1334.63,-113.09 1275.24,-95.51 1236.19,-83.95"/>
<polygon fill="midnightblue" stroke="midnightblue" points="1236.83,-80.49 1226.24,-81.01 1234.84,-87.2 1236.83,-80.49"/>
</g>
<!-- Node30 -->
<g id="node30" class="node">
<title>Node30</title>
<g id="a_node30"><a xlink:title=" ">
<polygon fill="white" stroke="#bfbfbf" points="1285.5,-62 1285.5,-81 1335.5,-81 1335.5,-62 1285.5,-62"/>
<text text-anchor="middle" x="1310.5" y="-69" font-family="Helvetica,sans-Serif" font-size="10.00">cstring</text>
</a>
</g>
</g>
<!-- Node28&#45;&gt;Node30 -->
<g id="edge45" class="edge">
<title>Node28&#45;&gt;Node30</title>
<path fill="none" stroke="midnightblue" d="M1385.89,-123.48C1371.78,-113.93 1348.67,-98.31 1331.75,-86.87"/>
<polygon fill="midnightblue" stroke="midnightblue" points="1333.33,-83.71 1323.08,-81.01 1329.41,-89.51 1333.33,-83.71"/>
</g>
<!-- Node28&#45;&gt;Node31 -->
<g id="edge47" class="edge">
<title>Node28&#45;&gt;Node31</title>
<path fill="none" stroke="midnightblue" d="M1467.85,-124.01C1471.11,-123.66 1474.34,-123.32 1477.5,-123 1654.63,-104.92 1702.27,-123.7 1876.5,-87 1880.19,-86.22 1883.99,-85.23 1887.75,-84.13"/>
<polygon fill="midnightblue" stroke="midnightblue" points="1888.99,-87.41 1897.46,-81.04 1886.87,-80.74 1888.99,-87.41"/>
</g>
<!-- Node36&#45;&gt;Node3 -->
<g id="edge58" class="edge">
<title>Node36&#45;&gt;Node3</title>
<path fill="none" stroke="midnightblue" d="M580.41,-123.48C540.9,-112.98 473.72,-95.14 430.24,-83.59"/>
<polygon fill="midnightblue" stroke="midnightblue" points="431.1,-80.19 420.53,-81.01 429.3,-86.96 431.1,-80.19"/>
</g>
<!-- Node36&#45;&gt;Node4 -->
<g id="edge59" class="edge">
<title>Node36&#45;&gt;Node4</title>
<path fill="none" stroke="midnightblue" d="M561.23,-124.12C485.65,-112.46 350.83,-91.5 328.5,-87 328.4,-86.98 328.3,-86.96 328.2,-86.94"/>
<polygon fill="midnightblue" stroke="midnightblue" points="329.2,-83.57 318.69,-84.92 327.74,-90.42 329.2,-83.57"/>
</g>
<!-- Node36&#45;&gt;Node7 -->
<g id="edge62" class="edge">
<title>Node36&#45;&gt;Node7</title>
<path fill="none" stroke="midnightblue" d="M663.78,-125.58C761.82,-113.3 973.28,-86.81 1054.66,-76.61"/>
<polygon fill="midnightblue" stroke="midnightblue" points="1055.33,-80.06 1064.81,-75.34 1054.46,-73.11 1055.33,-80.06"/>
</g>
<!-- Node36&#45;&gt;Node24 -->
<g id="edge60" class="edge">
<title>Node36&#45;&gt;Node24</title>
<path fill="none" stroke="midnightblue" d="M612.5,-123.48C612.5,-115.08 612.5,-101.98 612.5,-91.16"/>
<polygon fill="midnightblue" stroke="midnightblue" points="616,-91.01 612.5,-81.01 609,-91.01 616,-91.01"/>
</g>
<!-- Node36&#45;&gt;Node27 -->
<g id="edge61" class="edge">
<title>Node36&#45;&gt;Node27</title>
<path fill="none" stroke="midnightblue" d="M634.71,-123.48C661.18,-113.31 705.61,-96.26 735.72,-84.7"/>
<polygon fill="midnightblue" stroke="midnightblue" points="737.25,-87.86 745.33,-81.01 734.74,-81.33 737.25,-87.86"/>
</g>
<!-- Node37&#45;&gt;Node4 -->
<g id="edge67" class="edge">
<title>Node37&#45;&gt;Node4</title>
<path fill="none" stroke="midnightblue" d="M621.29,-248.76C576.82,-241.4 503.29,-227.88 441.5,-210 404.07,-199.17 397.04,-189.42 359.5,-179 273.31,-155.09 218.81,-211.67 161.5,-143 141.44,-118.96 175.52,-100.14 210.59,-88.02"/>
<polygon fill="midnightblue" stroke="midnightblue" points="212.05,-91.23 220.46,-84.78 209.87,-84.57 212.05,-91.23"/>
</g>
<!-- Node37&#45;&gt;Node15 -->
<g id="edge68" class="edge">
<title>Node37&#45;&gt;Node15</title>
<path fill="none" stroke="midnightblue" d="M701.68,-247.64C761.16,-236.75 872.56,-216.36 937,-204.56"/>
<polygon fill="midnightblue" stroke="midnightblue" points="937.72,-207.99 946.92,-202.75 936.46,-201.1 937.72,-207.99"/>
</g>
<!-- Node37&#45;&gt;Node19 -->
<g id="edge65" class="edge">
<title>Node37&#45;&gt;Node19</title>
<path fill="none" stroke="midnightblue" d="M701.65,-252.54C782.67,-247.27 971.4,-233.42 1128.5,-210 1197.12,-199.77 1212.8,-188.72 1281.5,-179 1476.65,-151.38 1528.78,-173.48 1723.5,-143 1814.76,-128.72 1919.58,-99.98 1974.46,-83.95"/>
<polygon fill="midnightblue" stroke="midnightblue" points="1975.5,-87.29 1984.11,-81.12 1973.53,-80.58 1975.5,-87.29"/>
</g>
<!-- Node37&#45;&gt;Node22 -->
<g id="edge69" class="edge">
<title>Node37&#45;&gt;Node22</title>
<path fill="none" stroke="midnightblue" d="M649.05,-246.49C619.17,-226.06 543.07,-174.04 505.77,-148.54"/>
<polygon fill="midnightblue" stroke="midnightblue" points="507.4,-145.42 497.17,-142.66 503.45,-151.19 507.4,-145.42"/>
</g>
<!-- Node37&#45;&gt;Node23 -->
<g id="edge66" class="edge">
<title>Node37&#45;&gt;Node23</title>
<path fill="none" stroke="midnightblue" d="M621.24,-253.77C528.42,-250.44 302.05,-239.48 232.5,-210 189.8,-191.9 177.47,-182.08 152.5,-143 142.49,-127.34 137.72,-106.49 135.46,-91.53"/>
<polygon fill="midnightblue" stroke="midnightblue" points="138.91,-90.91 134.18,-81.43 131.97,-91.79 138.91,-90.91"/>
</g>
<!-- Node37&#45;&gt;Node27 -->
<g id="edge71" class="edge">
<title>Node37&#45;&gt;Node27</title>
<path fill="none" stroke="midnightblue" d="M666.61,-246.2C683.09,-217.83 735.01,-128.44 757.24,-90.17"/>
<polygon fill="midnightblue" stroke="midnightblue" points="760.44,-91.62 762.44,-81.21 754.39,-88.1 760.44,-91.62"/>
</g>
<!-- Node37&#45;&gt;Node28 -->
<g id="edge70" class="edge">
<title>Node37&#45;&gt;Node28</title>
<path fill="none" stroke="midnightblue" d="M701.51,-251.33C770.12,-244.79 914.5,-229.91 1035.5,-210 1150.47,-191.08 1284.28,-160.94 1352.85,-144.89"/>
<polygon fill="midnightblue" stroke="midnightblue" points="1353.95,-148.22 1362.88,-142.53 1352.35,-141.41 1353.95,-148.22"/>
</g>
</g>
</svg>
