<?xml version="1.0" encoding="UTF-8" standalone="no"?>
<!DOCTYPE svg PUBLIC "-//W3C//DTD SVG 1.1//EN"
 "http://www.w3.org/Graphics/SVG/1.1/DTD/svg11.dtd">
<!-- Generated by graphviz version 2.43.0 (0)
 -->
<!-- Title: include/tvm/ir/global_info.h Pages: 1 -->
<svg width="2482pt" height="464pt"
 viewBox="0.00 0.00 2481.50 464.00" xmlns="http://www.w3.org/2000/svg" xmlns:xlink="http://www.w3.org/1999/xlink">
<g id="graph0" class="graph" transform="scale(1 1) rotate(0) translate(4 460)">
<title>include/tvm/ir/global_info.h</title>
<polygon fill="white" stroke="transparent" points="-4,4 -4,-460 2477.5,-460 2477.5,4 -4,4"/>
<!-- Node1 -->
<g id="node1" class="node">
<title>Node1</title>
<g id="a_node1"><a xlink:title="GlobalInfo are globally static object that are referred by the IR itself.">
<polygon fill="#bfbfbf" stroke="black" points="1424,-425.5 1424,-455.5 1541,-455.5 1541,-425.5 1424,-425.5"/>
<text text-anchor="start" x="1432" y="-443.5" font-family="Helvetica,sans-Serif" font-size="10.00">include/tvm/ir/global</text>
<text text-anchor="middle" x="1482.5" y="-432.5" font-family="Helvetica,sans-Serif" font-size="10.00">_info.h</text>
</a>
</g>
</g>
<!-- Node2 -->
<g id="node2" class="node">
<title>Node2</title>
<g id="a_node2"><a xlink:title=" ">
<polygon fill="white" stroke="#bfbfbf" points="919.5,-56.5 919.5,-86.5 1017.5,-86.5 1017.5,-56.5 919.5,-56.5"/>
<text text-anchor="start" x="927.5" y="-74.5" font-family="Helvetica,sans-Serif" font-size="10.00">tvm/ffi/reflection</text>
<text text-anchor="middle" x="968.5" y="-63.5" font-family="Helvetica,sans-Serif" font-size="10.00">/registry.h</text>
</a>
</g>
</g>
<!-- Node1&#45;&gt;Node2 -->
<g id="edge1" class="edge">
<title>Node1&#45;&gt;Node2</title>
<path fill="none" stroke="midnightblue" d="M1461.65,-425.39C1448.48,-415.94 1431.56,-402.75 1418.5,-389 1343.86,-310.4 1370.02,-246.48 1277.5,-190 1180.94,-131.05 1121.88,-213.25 1025.5,-154 1003.45,-140.45 987.69,-114.83 978.4,-95.92"/>
<polygon fill="midnightblue" stroke="midnightblue" points="981.52,-94.33 974.14,-86.74 975.17,-97.28 981.52,-94.33"/>
</g>
<!-- Node3 -->
<g id="node3" class="node">
<title>Node3</title>
<g id="a_node3"><a xlink:href="ir_2expr_8h.html" target="_top" xlink:title="Base expr nodes in TVM.">
<polygon fill="white" stroke="black" points="1624,-196 1624,-215 1703,-215 1703,-196 1624,-196"/>
<text text-anchor="middle" x="1663.5" y="-203" font-family="Helvetica,sans-Serif" font-size="10.00">tvm/ir/expr.h</text>
</a>
</g>
</g>
<!-- Node1&#45;&gt;Node3 -->
<g id="edge2" class="edge">
<title>Node1&#45;&gt;Node3</title>
<path fill="none" stroke="midnightblue" d="M1541.18,-437.81C1612.26,-432.24 1729.34,-410.94 1784.5,-333 1817.2,-286.8 1738.27,-240.86 1692.83,-219.26"/>
<polygon fill="midnightblue" stroke="midnightblue" points="1694.24,-216.06 1683.7,-215.03 1691.3,-222.41 1694.24,-216.06"/>
</g>
<!-- Node26 -->
<g id="node26" class="node">
<title>Node26</title>
<g id="a_node26"><a xlink:href="target_8h.html" target="_top" xlink:title="Compilation target object.">
<polygon fill="white" stroke="black" points="1427.5,-369.5 1427.5,-388.5 1537.5,-388.5 1537.5,-369.5 1427.5,-369.5"/>
<text text-anchor="middle" x="1482.5" y="-376.5" font-family="Helvetica,sans-Serif" font-size="10.00">tvm/target/target.h</text>
</a>
</g>
</g>
<!-- Node1&#45;&gt;Node26 -->
<g id="edge32" class="edge">
<title>Node1&#45;&gt;Node26</title>
<path fill="none" stroke="midnightblue" d="M1482.5,-425.4C1482.5,-417.47 1482.5,-407.46 1482.5,-398.86"/>
<polygon fill="midnightblue" stroke="midnightblue" points="1486,-398.66 1482.5,-388.66 1479,-398.66 1486,-398.66"/>
</g>
<!-- Node3&#45;&gt;Node2 -->
<g id="edge4" class="edge">
<title>Node3&#45;&gt;Node2</title>
<path fill="none" stroke="midnightblue" d="M1623.69,-202.49C1532.47,-197.45 1310.94,-182.57 1242.5,-154 1222.07,-145.47 1223.52,-132.46 1203.5,-123 1147.32,-96.44 1076.99,-83.69 1027.97,-77.67"/>
<polygon fill="midnightblue" stroke="midnightblue" points="1028.19,-74.18 1017.85,-76.49 1027.38,-81.13 1028.19,-74.18"/>
</g>
<!-- Node4 -->
<g id="node4" class="node">
<title>Node4</title>
<g id="a_node4"><a xlink:title=" ">
<polygon fill="white" stroke="#bfbfbf" points="1595.5,-129 1595.5,-148 1731.5,-148 1731.5,-129 1595.5,-129"/>
<text text-anchor="middle" x="1663.5" y="-136" font-family="Helvetica,sans-Serif" font-size="10.00">tvm/ffi/extra/dataclass.h</text>
</a>
</g>
</g>
<!-- Node3&#45;&gt;Node4 -->
<g id="edge3" class="edge">
<title>Node3&#45;&gt;Node4</title>
<path fill="none" stroke="midnightblue" d="M1663.5,-195.73C1663.5,-186.18 1663.5,-170.62 1663.5,-158.28"/>
<polygon fill="midnightblue" stroke="midnightblue" points="1667,-158.13 1663.5,-148.13 1660,-158.13 1667,-158.13"/>
</g>
<!-- Node5 -->
<g id="node5" class="node">
<title>Node5</title>
<g id="a_node5"><a xlink:title=" ">
<polygon fill="white" stroke="#bfbfbf" points="1649,-62 1649,-81 1738,-81 1738,-62 1649,-62"/>
<text text-anchor="middle" x="1693.5" y="-69" font-family="Helvetica,sans-Serif" font-size="10.00">tvm/ffi/string.h</text>
</a>
</g>
</g>
<!-- Node3&#45;&gt;Node5 -->
<g id="edge5" class="edge">
<title>Node3&#45;&gt;Node5</title>
<path fill="none" stroke="midnightblue" d="M1639.21,-195.92C1621.08,-188.07 1597.59,-174.54 1586.5,-154 1579.95,-141.88 1579.12,-134.64 1586.5,-123 1594.79,-109.92 1630.41,-94.74 1658.3,-84.46"/>
<polygon fill="midnightblue" stroke="midnightblue" points="1659.57,-87.73 1667.79,-81.04 1657.2,-81.14 1659.57,-87.73"/>
</g>
<!-- Node6 -->
<g id="node6" class="node">
<title>Node6</title>
<g id="a_node6"><a xlink:href="cow_8h.html" target="_top" xlink:title="Copy&#45;on&#45;write helper macro for IR ffi::ObjectRef types.">
<polygon fill="white" stroke="black" points="1118,-129 1118,-148 1195,-148 1195,-129 1118,-129"/>
<text text-anchor="middle" x="1156.5" y="-136" font-family="Helvetica,sans-Serif" font-size="10.00">tvm/ir/cow.h</text>
</a>
</g>
</g>
<!-- Node3&#45;&gt;Node6 -->
<g id="edge6" class="edge">
<title>Node3&#45;&gt;Node6</title>
<path fill="none" stroke="midnightblue" d="M1623.72,-202.17C1544.36,-197.07 1361.01,-182.97 1209.5,-154 1204.48,-153.04 1199.23,-151.84 1194.08,-150.56"/>
<polygon fill="midnightblue" stroke="midnightblue" points="1194.93,-147.16 1184.36,-148 1193.14,-153.93 1194.93,-147.16"/>
</g>
<!-- Node9 -->
<g id="node9" class="node">
<title>Node9</title>
<g id="a_node9"><a xlink:href="source__map_8h.html" target="_top" xlink:title="A map from source names to source code.">
<polygon fill="white" stroke="black" points="1252,-129 1252,-148 1369,-148 1369,-129 1252,-129"/>
<text text-anchor="middle" x="1310.5" y="-136" font-family="Helvetica,sans-Serif" font-size="10.00">tvm/ir/source_map.h</text>
</a>
</g>
</g>
<!-- Node3&#45;&gt;Node9 -->
<g id="edge9" class="edge">
<title>Node3&#45;&gt;Node9</title>
<path fill="none" stroke="midnightblue" d="M1623.69,-197.17C1560.96,-185.62 1438.88,-163.14 1367.07,-149.92"/>
<polygon fill="midnightblue" stroke="midnightblue" points="1367.32,-146.4 1356.85,-148.03 1366.05,-153.29 1367.32,-146.4"/>
</g>
<!-- Node15 -->
<g id="node15" class="node">
<title>Node15</title>
<g id="a_node15"><a xlink:title=" ">
<polygon fill="white" stroke="#bfbfbf" points="1908.5,-62 1908.5,-81 1952.5,-81 1952.5,-62 1908.5,-62"/>
<text text-anchor="middle" x="1930.5" y="-69" font-family="Helvetica,sans-Serif" font-size="10.00">string</text>
</a>
</g>
</g>
<!-- Node3&#45;&gt;Node15 -->
<g id="edge30" class="edge">
<title>Node3&#45;&gt;Node15</title>
<path fill="none" stroke="midnightblue" d="M1703.41,-204.77C1751.01,-203.14 1830.87,-194 1884.5,-154 1905.62,-138.25 1918.44,-109.75 1925,-90.97"/>
<polygon fill="midnightblue" stroke="midnightblue" points="1928.41,-91.8 1928.16,-81.21 1921.75,-89.65 1928.41,-91.8"/>
</g>
<!-- Node17 -->
<g id="node17" class="node">
<title>Node17</title>
<g id="a_node17"><a xlink:href="data__type_8h.html" target="_top" xlink:title=" ">
<polygon fill="white" stroke="black" points="2159.5,-129 2159.5,-148 2297.5,-148 2297.5,-129 2159.5,-129"/>
<text text-anchor="middle" x="2228.5" y="-136" font-family="Helvetica,sans-Serif" font-size="10.00">tvm/runtime/data_type.h</text>
</a>
</g>
</g>
<!-- Node3&#45;&gt;Node17 -->
<g id="edge19" class="edge">
<title>Node3&#45;&gt;Node17</title>
<path fill="none" stroke="midnightblue" d="M1703.23,-199.93C1795.7,-189.29 2026.77,-162.71 2149.31,-148.61"/>
<polygon fill="midnightblue" stroke="midnightblue" points="2149.85,-152.07 2159.38,-147.45 2149.05,-145.12 2149.85,-152.07"/>
</g>
<!-- Node22 -->
<g id="node22" class="node">
<title>Node22</title>
<g id="a_node22"><a xlink:title=" ">
<polygon fill="white" stroke="#bfbfbf" points="2072,-62 2072,-81 2141,-81 2141,-62 2072,-62"/>
<text text-anchor="middle" x="2106.5" y="-69" font-family="Helvetica,sans-Serif" font-size="10.00">type_traits</text>
</a>
</g>
</g>
<!-- Node3&#45;&gt;Node22 -->
<g id="edge31" class="edge">
<title>Node3&#45;&gt;Node22</title>
<path fill="none" stroke="midnightblue" d="M1703.18,-198.87C1752.65,-191.29 1839.47,-176.15 1911.5,-154 1973.63,-134.89 2043.16,-103.2 2080.09,-85.49"/>
<polygon fill="midnightblue" stroke="midnightblue" points="2081.7,-88.6 2089.18,-81.1 2078.65,-82.3 2081.7,-88.6"/>
</g>
<!-- Node23 -->
<g id="node23" class="node">
<title>Node23</title>
<g id="a_node23"><a xlink:title=" ">
<polygon fill="white" stroke="#bfbfbf" points="1749.5,-129 1749.5,-148 1813.5,-148 1813.5,-129 1749.5,-129"/>
<text text-anchor="middle" x="1781.5" y="-136" font-family="Helvetica,sans-Serif" font-size="10.00">algorithm</text>
</a>
</g>
</g>
<!-- Node3&#45;&gt;Node23 -->
<g id="edge27" class="edge">
<title>Node3&#45;&gt;Node23</title>
<path fill="none" stroke="midnightblue" d="M1679.41,-195.73C1699.32,-184.77 1733.61,-165.88 1756.9,-153.05"/>
<polygon fill="midnightblue" stroke="midnightblue" points="1758.77,-156.02 1765.84,-148.13 1755.39,-149.89 1758.77,-156.02"/>
</g>
<!-- Node24 -->
<g id="node24" class="node">
<title>Node24</title>
<g id="a_node24"><a xlink:title=" ">
<polygon fill="white" stroke="#bfbfbf" points="1035,-129 1035,-148 1100,-148 1100,-129 1035,-129"/>
<text text-anchor="middle" x="1067.5" y="-136" font-family="Helvetica,sans-Serif" font-size="10.00">functional</text>
</a>
</g>
</g>
<!-- Node3&#45;&gt;Node24 -->
<g id="edge28" class="edge">
<title>Node3&#45;&gt;Node24</title>
<path fill="none" stroke="midnightblue" d="M1623.96,-204.26C1532.27,-202.99 1298.48,-195.55 1108.5,-154 1105.08,-153.25 1101.55,-152.3 1098.06,-151.24"/>
<polygon fill="midnightblue" stroke="midnightblue" points="1099.08,-147.89 1088.49,-148.05 1096.87,-154.53 1099.08,-147.89"/>
</g>
<!-- Node25 -->
<g id="node25" class="node">
<title>Node25</title>
<g id="a_node25"><a xlink:title=" ">
<polygon fill="white" stroke="#bfbfbf" points="1831.5,-129 1831.5,-148 1875.5,-148 1875.5,-129 1831.5,-129"/>
<text text-anchor="middle" x="1853.5" y="-136" font-family="Helvetica,sans-Serif" font-size="10.00">limits</text>
</a>
</g>
</g>
<!-- Node3&#45;&gt;Node25 -->
<g id="edge29" class="edge">
<title>Node3&#45;&gt;Node25</title>
<path fill="none" stroke="midnightblue" d="M1694.39,-195.98C1726.73,-186.76 1778.8,-171.08 1822.5,-154 1823.92,-153.45 1825.36,-152.86 1826.81,-152.25"/>
<polygon fill="midnightblue" stroke="midnightblue" points="1828.58,-155.29 1836.29,-148.03 1825.73,-148.9 1828.58,-155.29"/>
</g>
<!-- Node7 -->
<g id="node7" class="node">
<title>Node7</title>
<g id="a_node7"><a xlink:title=" ">
<polygon fill="white" stroke="#bfbfbf" points="1111,-62 1111,-81 1202,-81 1202,-62 1111,-62"/>
<text text-anchor="middle" x="1156.5" y="-69" font-family="Helvetica,sans-Serif" font-size="10.00">tvm/ffi/object.h</text>
</a>
</g>
</g>
<!-- Node6&#45;&gt;Node7 -->
<g id="edge7" class="edge">
<title>Node6&#45;&gt;Node7</title>
<path fill="none" stroke="midnightblue" d="M1156.5,-128.73C1156.5,-119.18 1156.5,-103.62 1156.5,-91.28"/>
<polygon fill="midnightblue" stroke="midnightblue" points="1160,-91.13 1156.5,-81.13 1153,-91.13 1160,-91.13"/>
</g>
<!-- Node8 -->
<g id="node8" class="node">
<title>Node8</title>
<g id="a_node8"><a xlink:title=" ">
<polygon fill="white" stroke="#bfbfbf" points="794,-62 794,-81 839,-81 839,-62 794,-62"/>
<text text-anchor="middle" x="816.5" y="-69" font-family="Helvetica,sans-Serif" font-size="10.00">utility</text>
</a>
</g>
</g>
<!-- Node6&#45;&gt;Node8 -->
<g id="edge8" class="edge">
<title>Node6&#45;&gt;Node8</title>
<path fill="none" stroke="midnightblue" d="M1130.25,-128.94C1123.23,-126.82 1115.62,-124.68 1108.5,-123 1059.53,-111.42 914.91,-88.05 849.41,-77.67"/>
<polygon fill="midnightblue" stroke="midnightblue" points="849.66,-74.17 839.23,-76.06 848.56,-81.08 849.66,-74.17"/>
</g>
<!-- Node9&#45;&gt;Node2 -->
<g id="edge12" class="edge">
<title>Node9&#45;&gt;Node2</title>
<path fill="none" stroke="midnightblue" d="M1268.05,-128.99C1258.04,-127 1247.4,-124.91 1237.5,-123 1165.25,-109.04 1081.97,-93.49 1027.45,-83.38"/>
<polygon fill="midnightblue" stroke="midnightblue" points="1028.09,-79.94 1017.62,-81.56 1026.81,-86.82 1028.09,-79.94"/>
</g>
<!-- Node9&#45;&gt;Node8 -->
<g id="edge17" class="edge">
<title>Node9&#45;&gt;Node8</title>
<path fill="none" stroke="midnightblue" d="M1251.93,-129.43C1236.21,-127.3 1219.21,-125.03 1203.5,-123 1073.38,-106.19 1040.46,-105 910.5,-87 890.13,-84.18 867.33,-80.67 849.28,-77.81"/>
<polygon fill="midnightblue" stroke="midnightblue" points="849.69,-74.33 839.26,-76.21 848.59,-81.24 849.69,-74.33"/>
</g>
<!-- Node10 -->
<g id="node10" class="node">
<title>Node10</title>
<g id="a_node10"><a xlink:title=" ">
<polygon fill="white" stroke="#bfbfbf" points="1756.5,-62 1756.5,-81 1890.5,-81 1890.5,-62 1756.5,-62"/>
<text text-anchor="middle" x="1823.5" y="-69" font-family="Helvetica,sans-Serif" font-size="10.00">tvm/ffi/container/array.h</text>
</a>
</g>
</g>
<!-- Node9&#45;&gt;Node10 -->
<g id="edge10" class="edge">
<title>Node9&#45;&gt;Node10</title>
<path fill="none" stroke="midnightblue" d="M1369.06,-129.2C1384.48,-127.09 1401.11,-124.89 1416.5,-123 1562.93,-105 1600.56,-108.67 1746.5,-87 1754.54,-85.81 1763.01,-84.38 1771.29,-82.9"/>
<polygon fill="midnightblue" stroke="midnightblue" points="1772.03,-86.32 1781.24,-81.07 1770.77,-79.43 1772.03,-86.32"/>
</g>
<!-- Node11 -->
<g id="node11" class="node">
<title>Node11</title>
<g id="a_node11"><a xlink:title=" ">
<polygon fill="white" stroke="#bfbfbf" points="260,-62 260,-81 361,-81 361,-62 260,-62"/>
<text text-anchor="middle" x="310.5" y="-69" font-family="Helvetica,sans-Serif" font-size="10.00">tvm/ffi/function.h</text>
</a>
</g>
</g>
<!-- Node9&#45;&gt;Node11 -->
<g id="edge11" class="edge">
<title>Node9&#45;&gt;Node11</title>
<path fill="none" stroke="midnightblue" d="M1254.8,-128.97C1238.32,-126.71 1220.21,-124.49 1203.5,-123 834.4,-90.08 737.43,-138.77 370.5,-87 364.09,-86.1 357.37,-84.81 350.84,-83.38"/>
<polygon fill="midnightblue" stroke="midnightblue" points="351.34,-79.9 340.8,-81.03 349.74,-86.72 351.34,-79.9"/>
</g>
<!-- Node12 -->
<g id="node12" class="node">
<title>Node12</title>
<g id="a_node12"><a xlink:href="runtime_2base_8h.html" target="_top" xlink:title=" ">
<polygon fill="white" stroke="black" points="1304,-62 1304,-81 1417,-81 1417,-62 1304,-62"/>
<text text-anchor="middle" x="1360.5" y="-69" font-family="Helvetica,sans-Serif" font-size="10.00">tvm/runtime/base.h</text>
</a>
</g>
</g>
<!-- Node9&#45;&gt;Node12 -->
<g id="edge13" class="edge">
<title>Node9&#45;&gt;Node12</title>
<path fill="none" stroke="midnightblue" d="M1317.24,-128.73C1325.04,-118.6 1338.05,-101.69 1347.76,-89.06"/>
<polygon fill="midnightblue" stroke="midnightblue" points="1350.54,-91.19 1353.86,-81.13 1344.99,-86.92 1350.54,-91.19"/>
</g>
<!-- Node14 -->
<g id="node14" class="node">
<title>Node14</title>
<g id="a_node14"><a xlink:title=" ">
<polygon fill="white" stroke="#bfbfbf" points="1231,-62 1231,-81 1286,-81 1286,-62 1231,-62"/>
<text text-anchor="middle" x="1258.5" y="-69" font-family="Helvetica,sans-Serif" font-size="10.00">fstream</text>
</a>
</g>
</g>
<!-- Node9&#45;&gt;Node14 -->
<g id="edge15" class="edge">
<title>Node9&#45;&gt;Node14</title>
<path fill="none" stroke="midnightblue" d="M1303.49,-128.73C1295.38,-118.6 1281.85,-101.69 1271.74,-89.06"/>
<polygon fill="midnightblue" stroke="midnightblue" points="1274.38,-86.75 1265.4,-81.13 1268.92,-91.12 1274.38,-86.75"/>
</g>
<!-- Node9&#45;&gt;Node15 -->
<g id="edge16" class="edge">
<title>Node9&#45;&gt;Node15</title>
<path fill="none" stroke="midnightblue" d="M1367.91,-128.99C1383.64,-126.84 1400.71,-124.67 1416.5,-123 1630.57,-100.4 1691.25,-141.5 1899.5,-87 1901.48,-86.48 1903.49,-85.84 1905.49,-85.12"/>
<polygon fill="midnightblue" stroke="midnightblue" points="1907.3,-88.15 1915.14,-81.02 1904.57,-81.7 1907.3,-88.15"/>
</g>
<!-- Node16 -->
<g id="node16" class="node">
<title>Node16</title>
<g id="a_node16"><a xlink:title=" ">
<polygon fill="white" stroke="#bfbfbf" points="454,-62 454,-81 501,-81 501,-62 454,-62"/>
<text text-anchor="middle" x="477.5" y="-69" font-family="Helvetica,sans-Serif" font-size="10.00">vector</text>
</a>
</g>
</g>
<!-- Node9&#45;&gt;Node16 -->
<g id="edge18" class="edge">
<title>Node9&#45;&gt;Node16</title>
<path fill="none" stroke="midnightblue" d="M1252.83,-128.98C1236.88,-126.82 1219.54,-124.64 1203.5,-123 937.35,-95.74 614.76,-79.02 511.21,-74.06"/>
<polygon fill="midnightblue" stroke="midnightblue" points="511.21,-70.56 501.05,-73.58 510.87,-77.55 511.21,-70.56"/>
</g>
<!-- Node13 -->
<g id="node13" class="node">
<title>Node13</title>
<g id="a_node13"><a xlink:title=" ">
<polygon fill="white" stroke="#bfbfbf" points="1317.5,-0.5 1317.5,-19.5 1403.5,-19.5 1403.5,-0.5 1317.5,-0.5"/>
<text text-anchor="middle" x="1360.5" y="-7.5" font-family="Helvetica,sans-Serif" font-size="10.00">tvm/ffi/c_api.h</text>
</a>
</g>
</g>
<!-- Node12&#45;&gt;Node13 -->
<g id="edge14" class="edge">
<title>Node12&#45;&gt;Node13</title>
<path fill="none" stroke="midnightblue" d="M1360.5,-61.98C1360.5,-53.58 1360.5,-40.48 1360.5,-29.66"/>
<polygon fill="midnightblue" stroke="midnightblue" points="1364,-29.51 1360.5,-19.51 1357,-29.51 1364,-29.51"/>
</g>
<!-- Node17&#45;&gt;Node12 -->
<g id="edge23" class="edge">
<title>Node17&#45;&gt;Node12</title>
<path fill="none" stroke="midnightblue" d="M2159.41,-134.55C1991.68,-127.16 1566.39,-107.02 1425.5,-87 1418.58,-86.02 1411.3,-84.69 1404.22,-83.23"/>
<polygon fill="midnightblue" stroke="midnightblue" points="1404.57,-79.73 1394.05,-81.04 1403.09,-86.57 1404.57,-79.73"/>
</g>
<!-- Node17&#45;&gt;Node15 -->
<g id="edge25" class="edge">
<title>Node17&#45;&gt;Node15</title>
<path fill="none" stroke="midnightblue" d="M2179.88,-128.99C2108.61,-116.4 1981.96,-93.6 1961.5,-87 1959.83,-86.46 1958.13,-85.85 1956.43,-85.2"/>
<polygon fill="midnightblue" stroke="midnightblue" points="1957.49,-81.84 1946.92,-81.11 1954.73,-88.28 1957.49,-81.84"/>
</g>
<!-- Node18 -->
<g id="node18" class="node">
<title>Node18</title>
<g id="a_node18"><a xlink:title=" ">
<polygon fill="white" stroke="#bfbfbf" points="2159,-62 2159,-81 2298,-81 2298,-62 2159,-62"/>
<text text-anchor="middle" x="2228.5" y="-69" font-family="Helvetica,sans-Serif" font-size="10.00">tvm/ffi/container/shape.h</text>
</a>
</g>
</g>
<!-- Node17&#45;&gt;Node18 -->
<g id="edge20" class="edge">
<title>Node17&#45;&gt;Node18</title>
<path fill="none" stroke="midnightblue" d="M2228.5,-128.73C2228.5,-119.18 2228.5,-103.62 2228.5,-91.28"/>
<polygon fill="midnightblue" stroke="midnightblue" points="2232,-91.13 2228.5,-81.13 2225,-91.13 2232,-91.13"/>
</g>
<!-- Node19 -->
<g id="node19" class="node">
<title>Node19</title>
<g id="a_node19"><a xlink:title=" ">
<polygon fill="white" stroke="#bfbfbf" points="2316,-62 2316,-81 2405,-81 2405,-62 2316,-62"/>
<text text-anchor="middle" x="2360.5" y="-69" font-family="Helvetica,sans-Serif" font-size="10.00">tvm/ffi/dtype.h</text>
</a>
</g>
</g>
<!-- Node17&#45;&gt;Node19 -->
<g id="edge21" class="edge">
<title>Node17&#45;&gt;Node19</title>
<path fill="none" stroke="midnightblue" d="M2246.03,-128.87C2268.51,-117.8 2307.73,-98.49 2333.9,-85.6"/>
<polygon fill="midnightblue" stroke="midnightblue" points="2335.47,-88.72 2342.9,-81.17 2332.38,-82.44 2335.47,-88.72"/>
</g>
<!-- Node20 -->
<g id="node20" class="node">
<title>Node20</title>
<g id="a_node20"><a xlink:title=" ">
<polygon fill="white" stroke="#bfbfbf" points="1971,-62 1971,-81 2054,-81 2054,-62 1971,-62"/>
<text text-anchor="middle" x="2012.5" y="-69" font-family="Helvetica,sans-Serif" font-size="10.00">tvm/ffi/error.h</text>
</a>
</g>
</g>
<!-- Node17&#45;&gt;Node20 -->
<g id="edge22" class="edge">
<title>Node17&#45;&gt;Node20</title>
<path fill="none" stroke="midnightblue" d="M2199.82,-128.87C2161.46,-117.33 2093.37,-96.84 2050.7,-84"/>
<polygon fill="midnightblue" stroke="midnightblue" points="2051.54,-80.59 2040.96,-81.06 2049.52,-87.3 2051.54,-80.59"/>
</g>
<!-- Node21 -->
<g id="node21" class="node">
<title>Node21</title>
<g id="a_node21"><a xlink:title=" ">
<polygon fill="white" stroke="#bfbfbf" points="2423.5,-62 2423.5,-81 2473.5,-81 2473.5,-62 2423.5,-62"/>
<text text-anchor="middle" x="2448.5" y="-69" font-family="Helvetica,sans-Serif" font-size="10.00">cstring</text>
</a>
</g>
</g>
<!-- Node17&#45;&gt;Node21 -->
<g id="edge24" class="edge">
<title>Node17&#45;&gt;Node21</title>
<path fill="none" stroke="midnightblue" d="M2266.01,-128.93C2303.91,-119.89 2363.92,-104.56 2414.5,-87 2416.36,-86.35 2418.27,-85.65 2420.18,-84.92"/>
<polygon fill="midnightblue" stroke="midnightblue" points="2421.66,-88.1 2429.62,-81.1 2419.04,-81.61 2421.66,-88.1"/>
</g>
<!-- Node17&#45;&gt;Node22 -->
<g id="edge26" class="edge">
<title>Node17&#45;&gt;Node22</title>
<path fill="none" stroke="midnightblue" d="M2212.3,-128.87C2191.7,-117.89 2155.91,-98.82 2131.72,-85.94"/>
<polygon fill="midnightblue" stroke="midnightblue" points="2133.24,-82.78 2122.77,-81.17 2129.95,-88.96 2133.24,-82.78"/>
</g>
<!-- Node26&#45;&gt;Node2 -->
<g id="edge33" class="edge">
<title>Node26&#45;&gt;Node2</title>
<path fill="none" stroke="midnightblue" d="M1427.32,-374.13C1274.08,-362.64 854.5,-325.9 854.5,-268 854.5,-268 854.5,-268 854.5,-204.5 854.5,-154.88 901.2,-114.7 934.83,-92.21"/>
<polygon fill="midnightblue" stroke="midnightblue" points="936.99,-94.98 943.48,-86.61 933.19,-89.1 936.99,-94.98"/>
</g>
<!-- Node26&#45;&gt;Node3 -->
<g id="edge34" class="edge">
<title>Node26&#45;&gt;Node3</title>
<path fill="none" stroke="midnightblue" d="M1491.72,-369.26C1520.66,-341.85 1609.9,-257.29 1647.03,-222.11"/>
<polygon fill="midnightblue" stroke="midnightblue" points="1649.66,-224.44 1654.51,-215.02 1644.84,-219.36 1649.66,-224.44"/>
</g>
<!-- Node26&#45;&gt;Node15 -->
<g id="edge89" class="edge">
<title>Node26&#45;&gt;Node15</title>
<path fill="none" stroke="midnightblue" d="M1537.73,-375.18C1599.23,-370.8 1700.98,-359.87 1784.5,-333 1836.35,-316.32 1851.68,-311.89 1893.5,-277 1939.62,-238.52 1943.75,-213.79 1949.5,-154 1950.82,-140.29 1951.97,-136.56 1949.5,-123 1947.46,-111.76 1943.05,-99.78 1939,-90.3"/>
<polygon fill="midnightblue" stroke="midnightblue" points="1942.17,-88.83 1934.86,-81.16 1935.79,-91.72 1942.17,-88.83"/>
</g>
<!-- Node27 -->
<g id="node27" class="node">
<title>Node27</title>
<g id="a_node27"><a xlink:href="ir_2function_8h.html" target="_top" xlink:title="Function nodes.">
<polygon fill="white" stroke="black" points="1677.5,-313.5 1677.5,-332.5 1775.5,-332.5 1775.5,-313.5 1677.5,-313.5"/>
<text text-anchor="middle" x="1726.5" y="-320.5" font-family="Helvetica,sans-Serif" font-size="10.00">tvm/ir/function.h</text>
</a>
</g>
</g>
<!-- Node26&#45;&gt;Node27 -->
<g id="edge35" class="edge">
<title>Node26&#45;&gt;Node27</title>
<path fill="none" stroke="midnightblue" d="M1521.16,-369.44C1563.64,-360.04 1631.93,-344.93 1677.97,-334.74"/>
<polygon fill="midnightblue" stroke="midnightblue" points="1679.01,-338.09 1688.02,-332.52 1677.5,-331.26 1679.01,-338.09"/>
</g>
<!-- Node33 -->
<g id="node33" class="node">
<title>Node33</title>
<g id="a_node33"><a xlink:href="with__context_8h.html" target="_top" xlink:title="RAII wrapper function to enter and exit a context object similar to python&#39;s with syntax.">
<polygon fill="white" stroke="black" points="700,-196 700,-215 821,-215 821,-196 700,-196"/>
<text text-anchor="middle" x="760.5" y="-203" font-family="Helvetica,sans-Serif" font-size="10.00">tvm/ir/with_context.h</text>
</a>
</g>
</g>
<!-- Node26&#45;&gt;Node33 -->
<g id="edge54" class="edge">
<title>Node26&#45;&gt;Node33</title>
<path fill="none" stroke="midnightblue" d="M1427.46,-376.97C1281.14,-373.83 890.26,-362.72 840.5,-333 799.35,-308.42 775.97,-253.6 766.11,-224.87"/>
<polygon fill="midnightblue" stroke="midnightblue" points="769.41,-223.68 762.99,-215.25 762.75,-225.84 769.41,-223.68"/>
</g>
<!-- Node36 -->
<g id="node36" class="node">
<title>Node36</title>
<g id="a_node36"><a xlink:href="device__api_8h.html" target="_top" xlink:title="Abstract device memory management API.">
<polygon fill="white" stroke="black" points="1426,-123.5 1426,-153.5 1539,-153.5 1539,-123.5 1426,-123.5"/>
<text text-anchor="start" x="1434" y="-141.5" font-family="Helvetica,sans-Serif" font-size="10.00">tvm/runtime/device</text>
<text text-anchor="middle" x="1482.5" y="-130.5" font-family="Helvetica,sans-Serif" font-size="10.00">_api.h</text>
</a>
</g>
</g>
<!-- Node26&#45;&gt;Node36 -->
<g id="edge60" class="edge">
<title>Node26&#45;&gt;Node36</title>
<path fill="none" stroke="midnightblue" d="M1482.5,-369.23C1482.5,-335.88 1482.5,-216.19 1482.5,-164.06"/>
<polygon fill="midnightblue" stroke="midnightblue" points="1486,-163.74 1482.5,-153.74 1479,-163.74 1486,-163.74"/>
</g>
<!-- Node39 -->
<g id="node39" class="node">
<title>Node39</title>
<g id="a_node39"><a xlink:href="target__kind_8h.html" target="_top" xlink:title="Target kind registry.">
<polygon fill="white" stroke="black" points="470.5,-196 470.5,-215 606.5,-215 606.5,-196 470.5,-196"/>
<text text-anchor="middle" x="538.5" y="-203" font-family="Helvetica,sans-Serif" font-size="10.00">tvm/target/target_kind.h</text>
</a>
</g>
</g>
<!-- Node26&#45;&gt;Node39 -->
<g id="edge67" class="edge">
<title>Node26&#45;&gt;Node39</title>
<path fill="none" stroke="midnightblue" d="M1427.36,-376.88C1288.71,-373.64 928.36,-362.56 812.5,-333 713.68,-307.79 606.72,-247.78 561.14,-220.47"/>
<polygon fill="midnightblue" stroke="midnightblue" points="562.73,-217.34 552.37,-215.16 559.11,-223.33 562.73,-217.34"/>
</g>
<!-- Node27&#45;&gt;Node3 -->
<g id="edge51" class="edge">
<title>Node27&#45;&gt;Node3</title>
<path fill="none" stroke="midnightblue" d="M1721.76,-313.32C1711.46,-294.42 1686.82,-249.25 1673.11,-224.12"/>
<polygon fill="midnightblue" stroke="midnightblue" points="1676.15,-222.38 1668.29,-215.28 1670.01,-225.74 1676.15,-222.38"/>
</g>
<!-- Node27&#45;&gt;Node5 -->
<g id="edge38" class="edge">
<title>Node27&#45;&gt;Node5</title>
<path fill="none" stroke="midnightblue" d="M1743.23,-313.34C1794.4,-285.76 1941.88,-197.41 1884.5,-123 1846.05,-73.15 1808.35,-103.16 1747.5,-87 1743.44,-85.92 1739.2,-84.79 1734.97,-83.66"/>
<polygon fill="midnightblue" stroke="midnightblue" points="1735.75,-80.25 1725.19,-81.04 1733.94,-87.01 1735.75,-80.25"/>
</g>
<!-- Node27&#45;&gt;Node10 -->
<g id="edge36" class="edge">
<title>Node27&#45;&gt;Node10</title>
<path fill="none" stroke="midnightblue" d="M1758.12,-313.42C1798.02,-300.68 1864.89,-272.55 1893.5,-221 1914.8,-182.63 1926.9,-161.31 1905.5,-123 1895.66,-105.39 1876.88,-93.16 1859.78,-85.15"/>
<polygon fill="midnightblue" stroke="midnightblue" points="1861.08,-81.9 1850.51,-81.13 1858.29,-88.32 1861.08,-81.9"/>
</g>
<!-- Node27&#45;&gt;Node15 -->
<g id="edge52" class="edge">
<title>Node27&#45;&gt;Node15</title>
<path fill="none" stroke="midnightblue" d="M1772.29,-313.48C1800.74,-306.71 1837.15,-295.28 1865.5,-277 1893.79,-258.76 1900.55,-250.65 1916.5,-221 1939.03,-179.13 1936.44,-120.92 1933.18,-91.36"/>
<polygon fill="midnightblue" stroke="midnightblue" points="1936.62,-90.69 1931.9,-81.2 1929.68,-91.56 1936.62,-90.69"/>
</g>
<!-- Node27&#45;&gt;Node22 -->
<g id="edge53" class="edge">
<title>Node27&#45;&gt;Node22</title>
<path fill="none" stroke="midnightblue" d="M1775.74,-315.99C1907.87,-298.75 2264.84,-244.48 2333.5,-154 2413.9,-48.05 2376.68,-146.27 2150.5,-87 2147.13,-86.12 2143.64,-85.12 2140.17,-84.07"/>
<polygon fill="midnightblue" stroke="midnightblue" points="2141.14,-80.7 2130.55,-81.02 2139.02,-87.38 2141.14,-80.7"/>
</g>
<!-- Node28 -->
<g id="node28" class="node">
<title>Node28</title>
<g id="a_node28"><a xlink:title=" ">
<polygon fill="white" stroke="#bfbfbf" points="111,-62 111,-81 242,-81 242,-62 111,-62"/>
<text text-anchor="middle" x="176.5" y="-69" font-family="Helvetica,sans-Serif" font-size="10.00">tvm/ffi/container/map.h</text>
</a>
</g>
</g>
<!-- Node27&#45;&gt;Node28 -->
<g id="edge37" class="edge">
<title>Node27&#45;&gt;Node28</title>
<path fill="none" stroke="midnightblue" d="M1677.3,-321.23C1435.36,-317.12 378.36,-295.01 253.5,-221 206.12,-192.92 186.68,-124.95 179.79,-91.6"/>
<polygon fill="midnightblue" stroke="midnightblue" points="183.15,-90.54 177.85,-81.37 176.27,-91.85 183.15,-90.54"/>
</g>
<!-- Node29 -->
<g id="node29" class="node">
<title>Node29</title>
<g id="a_node29"><a xlink:href="attrs_8h.html" target="_top" xlink:title="Helpers for attribute objects.">
<polygon fill="white" stroke="black" points="1062.5,-257.5 1062.5,-276.5 1142.5,-276.5 1142.5,-257.5 1062.5,-257.5"/>
<text text-anchor="middle" x="1102.5" y="-264.5" font-family="Helvetica,sans-Serif" font-size="10.00">tvm/ir/attrs.h</text>
</a>
</g>
</g>
<!-- Node27&#45;&gt;Node29 -->
<g id="edge39" class="edge">
<title>Node27&#45;&gt;Node29</title>
<path fill="none" stroke="midnightblue" d="M1677.28,-317.74C1560.92,-307.67 1269.93,-282.49 1152.66,-272.34"/>
<polygon fill="midnightblue" stroke="midnightblue" points="1152.79,-268.84 1142.52,-271.46 1152.18,-275.81 1152.79,-268.84"/>
</g>
<!-- Node29&#45;&gt;Node2 -->
<g id="edge44" class="edge">
<title>Node29&#45;&gt;Node2</title>
<path fill="none" stroke="midnightblue" d="M1062.49,-260.82C1037,-255.33 1005.5,-244.07 987.5,-221 959.47,-185.07 960.92,-128.7 964.62,-96.74"/>
<polygon fill="midnightblue" stroke="midnightblue" points="968.13,-96.9 965.98,-86.53 961.19,-95.98 968.13,-96.9"/>
</g>
<!-- Node29&#45;&gt;Node3 -->
<g id="edge46" class="edge">
<title>Node29&#45;&gt;Node3</title>
<path fill="none" stroke="midnightblue" d="M1142.85,-261.72C1243.24,-251.07 1504.08,-223.41 1613.76,-211.78"/>
<polygon fill="midnightblue" stroke="midnightblue" points="1614.32,-215.24 1623.89,-210.7 1613.58,-208.27 1614.32,-215.24"/>
</g>
<!-- Node29&#45;&gt;Node6 -->
<g id="edge45" class="edge">
<title>Node29&#45;&gt;Node6</title>
<path fill="none" stroke="midnightblue" d="M1142.54,-261.37C1188.93,-255.08 1261.11,-242.13 1277.5,-221 1285.94,-210.11 1285.14,-201.47 1277.5,-190 1268.05,-175.81 1228.23,-160.94 1196.82,-151.04"/>
<polygon fill="midnightblue" stroke="midnightblue" points="1197.55,-147.6 1186.97,-148.01 1195.49,-154.29 1197.55,-147.6"/>
</g>
<!-- Node29&#45;&gt;Node8 -->
<g id="edge50" class="edge">
<title>Node29&#45;&gt;Node8</title>
<path fill="none" stroke="midnightblue" d="M1062.46,-259.91C1033.88,-253.92 995.82,-242.44 968.5,-221 927.95,-189.18 943.89,-158.47 906.5,-123 889.45,-106.83 866.25,-93.97 847.68,-85.28"/>
<polygon fill="midnightblue" stroke="midnightblue" points="849,-82.04 838.44,-81.12 846.12,-88.42 849,-82.04"/>
</g>
<!-- Node29&#45;&gt;Node11 -->
<g id="edge43" class="edge">
<title>Node29&#45;&gt;Node11</title>
<path fill="none" stroke="midnightblue" d="M1062.1,-264.22C940.3,-258.7 577.91,-240.99 461.5,-221 351.51,-202.11 287.07,-242.82 219.5,-154 211.16,-143.03 212.51,-134.87 219.5,-123 230.27,-104.7 250.33,-92.56 268.88,-84.78"/>
<polygon fill="midnightblue" stroke="midnightblue" points="270.32,-87.98 278.38,-81.1 267.79,-81.45 270.32,-87.98"/>
</g>
<!-- Node29&#45;&gt;Node15 -->
<g id="edge47" class="edge">
<title>Node29&#45;&gt;Node15</title>
<path fill="none" stroke="midnightblue" d="M1142.51,-266.47C1240.56,-266.88 1500.25,-263.49 1711.5,-221 1803.4,-202.51 1848.41,-223.33 1911.5,-154 1927.05,-136.91 1930.61,-109.61 1931.08,-91.38"/>
<polygon fill="midnightblue" stroke="midnightblue" points="1934.58,-91.36 1931.05,-81.37 1927.58,-91.38 1934.58,-91.36"/>
</g>
<!-- Node29&#45;&gt;Node22 -->
<g id="edge48" class="edge">
<title>Node29&#45;&gt;Node22</title>
<path fill="none" stroke="midnightblue" d="M1142.66,-265.46C1343.03,-262.35 2228.07,-243.59 2306.5,-154 2387.08,-61.95 2345.25,-141.44 2150.5,-87 2147.32,-86.11 2144.04,-85.14 2140.76,-84.12"/>
<polygon fill="midnightblue" stroke="midnightblue" points="2141.64,-80.73 2131.05,-81.03 2139.51,-87.4 2141.64,-80.73"/>
</g>
<!-- Node29&#45;&gt;Node28 -->
<g id="edge40" class="edge">
<title>Node29&#45;&gt;Node28</title>
<path fill="none" stroke="midnightblue" d="M1062.27,-258.65C1028.69,-251.62 980.09,-239.36 940.5,-221 870.27,-188.43 869.7,-148.21 796.5,-123 681.53,-83.4 371.08,-102.72 250.5,-87 242.29,-85.93 233.61,-84.5 225.21,-82.96"/>
<polygon fill="midnightblue" stroke="midnightblue" points="225.62,-79.47 215.14,-81.04 224.3,-86.35 225.62,-79.47"/>
</g>
<!-- Node30 -->
<g id="node30" class="node">
<title>Node30</title>
<g id="a_node30"><a xlink:title=" ">
<polygon fill="white" stroke="#bfbfbf" points="997,-190.5 997,-220.5 1124,-220.5 1124,-190.5 997,-190.5"/>
<text text-anchor="start" x="1005" y="-208.5" font-family="Helvetica,sans-Serif" font-size="10.00">tvm/ffi/extra/structural</text>
<text text-anchor="middle" x="1060.5" y="-197.5" font-family="Helvetica,sans-Serif" font-size="10.00">_equal.h</text>
</a>
</g>
</g>
<!-- Node29&#45;&gt;Node30 -->
<g id="edge41" class="edge">
<title>Node29&#45;&gt;Node30</title>
<path fill="none" stroke="midnightblue" d="M1096.48,-257.48C1091.22,-250.02 1083.34,-238.85 1076.29,-228.87"/>
<polygon fill="midnightblue" stroke="midnightblue" points="1079.02,-226.67 1070.4,-220.52 1073.31,-230.71 1079.02,-226.67"/>
</g>
<!-- Node31 -->
<g id="node31" class="node">
<title>Node31</title>
<g id="a_node31"><a xlink:title=" ">
<polygon fill="white" stroke="#bfbfbf" points="1142,-190.5 1142,-220.5 1269,-220.5 1269,-190.5 1142,-190.5"/>
<text text-anchor="start" x="1150" y="-208.5" font-family="Helvetica,sans-Serif" font-size="10.00">tvm/ffi/extra/structural</text>
<text text-anchor="middle" x="1205.5" y="-197.5" font-family="Helvetica,sans-Serif" font-size="10.00">_hash.h</text>
</a>
</g>
</g>
<!-- Node29&#45;&gt;Node31 -->
<g id="edge42" class="edge">
<title>Node29&#45;&gt;Node31</title>
<path fill="none" stroke="midnightblue" d="M1117.26,-257.48C1131.6,-249.19 1153.87,-236.32 1172.45,-225.59"/>
<polygon fill="midnightblue" stroke="midnightblue" points="1174.32,-228.56 1181.22,-220.52 1170.82,-222.49 1174.32,-228.56"/>
</g>
<!-- Node32 -->
<g id="node32" class="node">
<title>Node32</title>
<g id="a_node32"><a xlink:title=" ">
<polygon fill="white" stroke="#bfbfbf" points="0,-62 0,-81 93,-81 93,-62 0,-62"/>
<text text-anchor="middle" x="46.5" y="-69" font-family="Helvetica,sans-Serif" font-size="10.00">unordered_map</text>
</a>
</g>
</g>
<!-- Node29&#45;&gt;Node32 -->
<g id="edge49" class="edge">
<title>Node29&#45;&gt;Node32</title>
<path fill="none" stroke="midnightblue" d="M1062.48,-265.2C904.65,-261.86 330.27,-247.95 253.5,-221 171.56,-192.23 93.53,-120.23 61.63,-88.24"/>
<polygon fill="midnightblue" stroke="midnightblue" points="64.04,-85.7 54.54,-81.02 59.05,-90.61 64.04,-85.7"/>
</g>
<!-- Node33&#45;&gt;Node8 -->
<g id="edge58" class="edge">
<title>Node33&#45;&gt;Node8</title>
<path fill="none" stroke="midnightblue" d="M768.25,-195.84C776.44,-186.26 789.14,-170.05 796.5,-154 805.78,-133.77 811.1,-108.67 813.89,-91.71"/>
<polygon fill="midnightblue" stroke="midnightblue" points="817.41,-91.83 815.43,-81.43 810.49,-90.8 817.41,-91.83"/>
</g>
<!-- Node33&#45;&gt;Node16 -->
<g id="edge59" class="edge">
<title>Node33&#45;&gt;Node16</title>
<path fill="none" stroke="midnightblue" d="M699.87,-197.19C607.72,-185.79 442.11,-164.04 433.5,-154 416.01,-133.6 440.11,-105.1 458.95,-87.77"/>
<polygon fill="midnightblue" stroke="midnightblue" points="461.36,-90.31 466.56,-81.09 456.74,-85.05 461.36,-90.31"/>
</g>
<!-- Node33&#45;&gt;Node24 -->
<g id="edge56" class="edge">
<title>Node33&#45;&gt;Node24</title>
<path fill="none" stroke="midnightblue" d="M800.95,-195.94C859.01,-183.64 965.49,-161.1 1024.78,-148.54"/>
<polygon fill="midnightblue" stroke="midnightblue" points="1025.87,-151.89 1034.93,-146.4 1024.42,-145.04 1025.87,-151.89"/>
</g>
<!-- Node34 -->
<g id="node34" class="node">
<title>Node34</title>
<g id="a_node34"><a xlink:title=" ">
<polygon fill="white" stroke="#bfbfbf" points="723,-129 723,-148 788,-148 788,-129 723,-129"/>
<text text-anchor="middle" x="755.5" y="-136" font-family="Helvetica,sans-Serif" font-size="10.00">exception</text>
</a>
</g>
</g>
<!-- Node33&#45;&gt;Node34 -->
<g id="edge55" class="edge">
<title>Node33&#45;&gt;Node34</title>
<path fill="none" stroke="midnightblue" d="M759.83,-195.73C759.09,-186.18 757.89,-170.62 756.94,-158.28"/>
<polygon fill="midnightblue" stroke="midnightblue" points="760.42,-157.83 756.16,-148.13 753.44,-158.37 760.42,-157.83"/>
</g>
<!-- Node35 -->
<g id="node35" class="node">
<title>Node35</title>
<g id="a_node35"><a xlink:title=" ">
<polygon fill="white" stroke="#bfbfbf" points="646.5,-129 646.5,-148 704.5,-148 704.5,-129 646.5,-129"/>
<text text-anchor="middle" x="675.5" y="-136" font-family="Helvetica,sans-Serif" font-size="10.00">memory</text>
</a>
</g>
</g>
<!-- Node33&#45;&gt;Node35 -->
<g id="edge57" class="edge">
<title>Node33&#45;&gt;Node35</title>
<path fill="none" stroke="midnightblue" d="M749.04,-195.73C735.14,-185.11 711.52,-167.05 694.81,-154.26"/>
<polygon fill="midnightblue" stroke="midnightblue" points="696.85,-151.42 686.78,-148.13 692.6,-156.98 696.85,-151.42"/>
</g>
<!-- Node36&#45;&gt;Node5 -->
<g id="edge64" class="edge">
<title>Node36&#45;&gt;Node5</title>
<path fill="none" stroke="midnightblue" d="M1528.02,-123.48C1566.34,-111.67 1620.46,-95 1656.24,-83.98"/>
<polygon fill="midnightblue" stroke="midnightblue" points="1657.29,-87.32 1665.81,-81.03 1655.23,-80.63 1657.29,-87.32"/>
</g>
<!-- Node36&#45;&gt;Node12 -->
<g id="edge65" class="edge">
<title>Node36&#45;&gt;Node12</title>
<path fill="none" stroke="midnightblue" d="M1456.03,-123.4C1435.1,-112.24 1406.07,-96.78 1385.53,-85.83"/>
<polygon fill="midnightblue" stroke="midnightblue" points="1386.94,-82.62 1376.47,-81.01 1383.65,-88.8 1386.94,-82.62"/>
</g>
<!-- Node36&#45;&gt;Node15 -->
<g id="edge66" class="edge">
<title>Node36&#45;&gt;Node15</title>
<path fill="none" stroke="midnightblue" d="M1539.14,-129.35C1554.5,-127.21 1571.13,-124.96 1586.5,-123 1725.41,-105.33 1764.77,-125.16 1899.5,-87 1901.43,-86.45 1903.39,-85.8 1905.34,-85.07"/>
<polygon fill="midnightblue" stroke="midnightblue" points="1906.96,-88.19 1914.79,-81.05 1904.22,-81.75 1906.96,-88.19"/>
</g>
<!-- Node36&#45;&gt;Node20 -->
<g id="edge62" class="edge">
<title>Node36&#45;&gt;Node20</title>
<path fill="none" stroke="midnightblue" d="M1539.12,-129.16C1554.48,-127.02 1571.11,-124.81 1586.5,-123 1752.79,-103.44 1796.97,-118.02 1961.5,-87 1966.28,-86.1 1971.26,-84.95 1976.15,-83.7"/>
<polygon fill="midnightblue" stroke="midnightblue" points="1977.25,-87.03 1985.98,-81.02 1975.42,-80.27 1977.25,-87.03"/>
</g>
<!-- Node37 -->
<g id="node37" class="node">
<title>Node37</title>
<g id="a_node37"><a xlink:title=" ">
<polygon fill="white" stroke="#bfbfbf" points="1435,-62 1435,-81 1512,-81 1512,-62 1435,-62"/>
<text text-anchor="middle" x="1473.5" y="-69" font-family="Helvetica,sans-Serif" font-size="10.00">tvm/ffi/any.h</text>
</a>
</g>
</g>
<!-- Node36&#45;&gt;Node37 -->
<g id="edge61" class="edge">
<title>Node36&#45;&gt;Node37</title>
<path fill="none" stroke="midnightblue" d="M1480.55,-123.4C1479.24,-113.96 1477.51,-101.45 1476.09,-91.19"/>
<polygon fill="midnightblue" stroke="midnightblue" points="1479.54,-90.62 1474.7,-81.19 1472.61,-91.58 1479.54,-90.62"/>
</g>
<!-- Node38 -->
<g id="node38" class="node">
<title>Node38</title>
<g id="a_node38"><a xlink:title=" ">
<polygon fill="white" stroke="#bfbfbf" points="1530,-62 1530,-81 1631,-81 1631,-62 1530,-62"/>
<text text-anchor="middle" x="1580.5" y="-69" font-family="Helvetica,sans-Serif" font-size="10.00">tvm/ffi/optional.h</text>
</a>
</g>
</g>
<!-- Node36&#45;&gt;Node38 -->
<g id="edge63" class="edge">
<title>Node36&#45;&gt;Node38</title>
<path fill="none" stroke="midnightblue" d="M1503.76,-123.4C1520.2,-112.5 1542.84,-97.48 1559.27,-86.58"/>
<polygon fill="midnightblue" stroke="midnightblue" points="1561.28,-89.45 1567.67,-81.01 1557.41,-83.62 1561.28,-89.45"/>
</g>
<!-- Node39&#45;&gt;Node2 -->
<g id="edge69" class="edge">
<title>Node39&#45;&gt;Node2</title>
<path fill="none" stroke="midnightblue" d="M549.99,-195.75C562.92,-185.83 584.48,-169.07 602.5,-154 618.44,-140.67 618.68,-131.82 637.5,-123 661.58,-111.72 820.38,-90.76 908.99,-79.72"/>
<polygon fill="midnightblue" stroke="midnightblue" points="909.67,-83.17 919.17,-78.46 908.81,-76.22 909.67,-83.17"/>
</g>
<!-- Node39&#45;&gt;Node8 -->
<g id="edge87" class="edge">
<title>Node39&#45;&gt;Node8</title>
<path fill="none" stroke="midnightblue" d="M542.98,-195.79C552.12,-178.92 574.61,-141.82 604.5,-123 660.85,-87.52 739.91,-76.96 783.83,-73.82"/>
<polygon fill="midnightblue" stroke="midnightblue" points="784.18,-77.3 793.94,-73.18 783.75,-70.32 784.18,-77.3"/>
</g>
<!-- Node39&#45;&gt;Node11 -->
<g id="edge68" class="edge">
<title>Node39&#45;&gt;Node11</title>
<path fill="none" stroke="midnightblue" d="M470.3,-203.26C388.85,-200.17 259.77,-189.62 229.5,-154 207.72,-128.38 249.74,-101.16 280.99,-85.56"/>
<polygon fill="midnightblue" stroke="midnightblue" points="282.76,-88.59 290.25,-81.11 279.72,-82.28 282.76,-88.59"/>
</g>
<!-- Node39&#45;&gt;Node12 -->
<g id="edge84" class="edge">
<title>Node39&#45;&gt;Node12</title>
<path fill="none" stroke="midnightblue" d="M606.55,-197.38C632.76,-194.8 663.01,-192.03 690.5,-190 728.62,-187.18 1351.19,-181.72 1377.5,-154 1393.78,-136.85 1382.31,-108.33 1371.91,-89.99"/>
<polygon fill="midnightblue" stroke="midnightblue" points="1374.75,-87.93 1366.57,-81.2 1368.77,-91.57 1374.75,-87.93"/>
</g>
<!-- Node39&#45;&gt;Node16 -->
<g id="edge88" class="edge">
<title>Node39&#45;&gt;Node16</title>
<path fill="none" stroke="midnightblue" d="M470.4,-202.56C392.99,-198.75 273.68,-187.46 245.5,-154 199.76,-99.7 285.56,-135.55 444.5,-87 446.43,-86.41 448.4,-85.74 450.36,-85.02"/>
<polygon fill="midnightblue" stroke="midnightblue" points="452.03,-88.12 459.98,-81.11 449.4,-81.63 452.03,-88.12"/>
</g>
<!-- Node39&#45;&gt;Node32 -->
<g id="edge86" class="edge">
<title>Node39&#45;&gt;Node32</title>
<path fill="none" stroke="midnightblue" d="M470.34,-199.33C404.88,-193.07 303.77,-179.94 219.5,-154 163.47,-136.75 102.43,-104.53 69.95,-86.19"/>
<polygon fill="midnightblue" stroke="midnightblue" points="71.61,-83.11 61.19,-81.19 68.14,-89.19 71.61,-83.11"/>
</g>
<!-- Node39&#45;&gt;Node35 -->
<g id="edge85" class="edge">
<title>Node39&#45;&gt;Node35</title>
<path fill="none" stroke="midnightblue" d="M556.69,-195.87C580.03,-184.8 620.73,-165.49 647.89,-152.6"/>
<polygon fill="midnightblue" stroke="midnightblue" points="649.7,-155.62 657.23,-148.17 646.7,-149.29 649.7,-155.62"/>
</g>
<!-- Node40 -->
<g id="node40" class="node">
<title>Node40</title>
<g id="a_node40"><a xlink:href="attr__registry__map_8h.html" target="_top" xlink:title="Attribute map used in registry.">
<polygon fill="white" stroke="black" points="443,-123.5 443,-153.5 552,-153.5 552,-123.5 443,-123.5"/>
<text text-anchor="start" x="451" y="-141.5" font-family="Helvetica,sans-Serif" font-size="10.00">tvm/ir/attr_registry</text>
<text text-anchor="middle" x="497.5" y="-130.5" font-family="Helvetica,sans-Serif" font-size="10.00">_map.h</text>
</a>
</g>
</g>
<!-- Node39&#45;&gt;Node40 -->
<g id="edge70" class="edge">
<title>Node39&#45;&gt;Node40</title>
<path fill="none" stroke="midnightblue" d="M532.97,-195.73C527.59,-187.2 519.18,-173.87 511.9,-162.33"/>
<polygon fill="midnightblue" stroke="midnightblue" points="514.68,-160.18 506.39,-153.59 508.76,-163.91 514.68,-160.18"/>
</g>
<!-- Node41 -->
<g id="node41" class="node">
<title>Node41</title>
<g id="a_node41"><a xlink:href="config__schema_8h.html" target="_top" xlink:title="Minimal schema for dynamic config canonicalization and validation.">
<polygon fill="white" stroke="black" points="255,-129 255,-148 386,-148 386,-129 255,-129"/>
<text text-anchor="middle" x="320.5" y="-136" font-family="Helvetica,sans-Serif" font-size="10.00">tvm/ir/config_schema.h</text>
</a>
</g>
</g>
<!-- Node39&#45;&gt;Node41 -->
<g id="edge74" class="edge">
<title>Node39&#45;&gt;Node41</title>
<path fill="none" stroke="midnightblue" d="M509.55,-195.87C470.84,-184.33 402.12,-163.84 359.05,-151"/>
<polygon fill="midnightblue" stroke="midnightblue" points="359.8,-147.57 349.22,-148.06 357.8,-154.28 359.8,-147.57"/>
</g>
<!-- Node40&#45;&gt;Node5 -->
<g id="edge71" class="edge">
<title>Node40&#45;&gt;Node5</title>
<path fill="none" stroke="midnightblue" d="M552.28,-130.96C578.1,-128.1 609.35,-124.96 637.5,-123 1082.04,-92.03 1198.82,-153.21 1639.5,-87 1645.08,-86.16 1650.91,-84.96 1656.59,-83.59"/>
<polygon fill="midnightblue" stroke="midnightblue" points="1657.75,-86.91 1666.56,-81.02 1656,-80.13 1657.75,-86.91"/>
</g>
<!-- Node40&#45;&gt;Node8 -->
<g id="edge72" class="edge">
<title>Node40&#45;&gt;Node8</title>
<path fill="none" stroke="midnightblue" d="M552.11,-125.98C556.97,-124.97 561.82,-123.96 566.5,-123 644.32,-106.96 735.86,-88.6 783.67,-79.05"/>
<polygon fill="midnightblue" stroke="midnightblue" points="784.62,-82.43 793.74,-77.04 783.25,-75.56 784.62,-82.43"/>
</g>
<!-- Node40&#45;&gt;Node16 -->
<g id="edge73" class="edge">
<title>Node40&#45;&gt;Node16</title>
<path fill="none" stroke="midnightblue" d="M493.16,-123.4C490.23,-113.86 486.33,-101.18 483.15,-90.86"/>
<polygon fill="midnightblue" stroke="midnightblue" points="486.46,-89.72 480.18,-81.19 479.77,-91.78 486.46,-89.72"/>
</g>
<!-- Node41&#45;&gt;Node2 -->
<g id="edge77" class="edge">
<title>Node41&#45;&gt;Node2</title>
<path fill="none" stroke="midnightblue" d="M383.21,-128.99C399.56,-126.9 417.18,-124.76 433.5,-123 617.13,-103.24 663.78,-105.99 847.5,-87 867.66,-84.92 889.68,-82.36 909.34,-79.98"/>
<polygon fill="midnightblue" stroke="midnightblue" points="909.88,-83.44 919.38,-78.75 909.03,-76.49 909.88,-83.44"/>
</g>
<!-- Node41&#45;&gt;Node8 -->
<g id="edge82" class="edge">
<title>Node41&#45;&gt;Node8</title>
<path fill="none" stroke="midnightblue" d="M385.6,-128.97C492.88,-114.91 702.97,-87.38 783.76,-76.79"/>
<polygon fill="midnightblue" stroke="midnightblue" points="784.38,-80.24 793.84,-75.47 783.47,-73.3 784.38,-80.24"/>
</g>
<!-- Node41&#45;&gt;Node11 -->
<g id="edge76" class="edge">
<title>Node41&#45;&gt;Node11</title>
<path fill="none" stroke="midnightblue" d="M319.15,-128.73C317.68,-119.18 315.29,-103.62 313.39,-91.28"/>
<polygon fill="midnightblue" stroke="midnightblue" points="316.81,-90.48 311.83,-81.13 309.89,-91.54 316.81,-90.48"/>
</g>
<!-- Node41&#45;&gt;Node15 -->
<g id="edge79" class="edge">
<title>Node41&#45;&gt;Node15</title>
<path fill="none" stroke="midnightblue" d="M377.87,-128.98C395.66,-126.64 415.36,-124.38 433.5,-123 595.97,-110.61 1740.89,-124.31 1899.5,-87 1901.71,-86.48 1903.95,-85.79 1906.16,-85"/>
<polygon fill="midnightblue" stroke="midnightblue" points="1907.66,-88.16 1915.5,-81.03 1904.93,-81.72 1907.66,-88.16"/>
</g>
<!-- Node41&#45;&gt;Node16 -->
<g id="edge83" class="edge">
<title>Node41&#45;&gt;Node16</title>
<path fill="none" stroke="midnightblue" d="M342.08,-128.92C366.88,-119.01 408.75,-102.13 444.5,-87 445.9,-86.41 447.34,-85.79 448.79,-85.17"/>
<polygon fill="midnightblue" stroke="midnightblue" points="450.56,-88.22 458.34,-81.02 447.78,-81.8 450.56,-88.22"/>
</g>
<!-- Node41&#45;&gt;Node22 -->
<g id="edge80" class="edge">
<title>Node41&#45;&gt;Node22</title>
<path fill="none" stroke="midnightblue" d="M377.58,-128.99C395.44,-126.64 415.26,-124.37 433.5,-123 794.57,-95.92 1705.64,-148.34 2062.5,-87 2066.69,-86.28 2071.03,-85.24 2075.27,-84.04"/>
<polygon fill="midnightblue" stroke="midnightblue" points="2076.39,-87.36 2084.89,-81.03 2074.3,-80.68 2076.39,-87.36"/>
</g>
<!-- Node41&#45;&gt;Node28 -->
<g id="edge75" class="edge">
<title>Node41&#45;&gt;Node28</title>
<path fill="none" stroke="midnightblue" d="M301.38,-128.87C276.74,-117.75 233.69,-98.32 205.14,-85.43"/>
<polygon fill="midnightblue" stroke="midnightblue" points="206.26,-82.09 195.7,-81.17 203.38,-88.47 206.26,-82.09"/>
</g>
<!-- Node41&#45;&gt;Node32 -->
<g id="edge81" class="edge">
<title>Node41&#45;&gt;Node32</title>
<path fill="none" stroke="midnightblue" d="M281.64,-128.92C237.8,-119.16 164.38,-102.53 101.5,-87 97.12,-85.92 92.55,-84.76 88.01,-83.59"/>
<polygon fill="midnightblue" stroke="midnightblue" points="88.72,-80.16 78.16,-81.03 86.95,-86.93 88.72,-80.16"/>
</g>
<!-- Node42 -->
<g id="node42" class="node">
<title>Node42</title>
<g id="a_node42"><a xlink:title=" ">
<polygon fill="white" stroke="#bfbfbf" points="379.5,-62 379.5,-81 435.5,-81 435.5,-62 379.5,-62"/>
<text text-anchor="middle" x="407.5" y="-69" font-family="Helvetica,sans-Serif" font-size="10.00">sstream</text>
</a>
</g>
</g>
<!-- Node41&#45;&gt;Node42 -->
<g id="edge78" class="edge">
<title>Node41&#45;&gt;Node42</title>
<path fill="none" stroke="midnightblue" d="M332.23,-128.73C346.45,-118.11 370.63,-100.05 387.74,-87.26"/>
<polygon fill="midnightblue" stroke="midnightblue" points="390.04,-89.92 395.95,-81.13 385.85,-84.31 390.04,-89.92"/>
</g>
</g>
</svg>
