<?xml version="1.0" encoding="UTF-8" standalone="no"?>
<!DOCTYPE svg PUBLIC "-//W3C//DTD SVG 1.1//EN"
 "http://www.w3.org/Graphics/SVG/1.1/DTD/svg11.dtd">
<!-- Generated by graphviz version 2.43.0 (0)
 -->
<!-- Title: include/tvm/ir/op.h Pages: 1 -->
<svg width="2150pt" height="330pt"
 viewBox="0.00 0.00 2149.50 330.00" xmlns="http://www.w3.org/2000/svg" xmlns:xlink="http://www.w3.org/1999/xlink">
<g id="graph0" class="graph" transform="scale(1 1) rotate(0) translate(4 326)">
<title>include/tvm/ir/op.h</title>
<polygon fill="white" stroke="transparent" points="-4,4 -4,-326 2145.5,-326 2145.5,4 -4,4"/>
<!-- Node1 -->
<g id="node1" class="node">
<title>Node1</title>
<g id="a_node1"><a xlink:title="Primitive operators(builtin intrinsics) and registry for them.">
<polygon fill="#bfbfbf" stroke="black" points="946,-302.5 946,-321.5 1054,-321.5 1054,-302.5 946,-302.5"/>
<text text-anchor="middle" x="1000" y="-309.5" font-family="Helvetica,sans-Serif" font-size="10.00">include/tvm/ir/op.h</text>
</a>
</g>
</g>
<!-- Node2 -->
<g id="node2" class="node">
<title>Node2</title>
<g id="a_node2"><a xlink:title=" ">
<polygon fill="white" stroke="#bfbfbf" points="2058.5,-62 2058.5,-81 2141.5,-81 2141.5,-62 2058.5,-62"/>
<text text-anchor="middle" x="2100" y="-69" font-family="Helvetica,sans-Serif" font-size="10.00">tvm/ffi/error.h</text>
</a>
</g>
</g>
<!-- Node1&#45;&gt;Node2 -->
<g id="edge1" class="edge">
<title>Node1&#45;&gt;Node2</title>
<path fill="none" stroke="midnightblue" d="M1054.18,-310.32C1153.12,-308.24 1369.33,-299.84 1548,-266 1632.83,-249.93 1652.21,-237.64 1734,-210 1859.74,-167.5 2006.93,-109.71 2069.44,-84.78"/>
<polygon fill="midnightblue" stroke="midnightblue" points="2070.74,-88.02 2078.73,-81.06 2068.15,-81.52 2070.74,-88.02"/>
</g>
<!-- Node3 -->
<g id="node3" class="node">
<title>Node3</title>
<g id="a_node3"><a xlink:title=" ">
<polygon fill="white" stroke="#bfbfbf" points="544.5,-62 544.5,-81 645.5,-81 645.5,-62 544.5,-62"/>
<text text-anchor="middle" x="595" y="-69" font-family="Helvetica,sans-Serif" font-size="10.00">tvm/ffi/function.h</text>
</a>
</g>
</g>
<!-- Node1&#45;&gt;Node3 -->
<g id="edge2" class="edge">
<title>Node1&#45;&gt;Node3</title>
<path fill="none" stroke="midnightblue" d="M945.89,-309.21C806.57,-303.61 439.86,-282.19 346,-210 313.46,-184.98 288.68,-154.5 315,-123 328.95,-106.31 456.19,-88.69 534.27,-79.31"/>
<polygon fill="midnightblue" stroke="midnightblue" points="534.96,-82.76 544.47,-78.1 534.13,-75.8 534.96,-82.76"/>
</g>
<!-- Node4 -->
<g id="node4" class="node">
<title>Node4</title>
<g id="a_node4"><a xlink:title=" ">
<polygon fill="white" stroke="#bfbfbf" points="784,-56.5 784,-86.5 882,-86.5 882,-56.5 784,-56.5"/>
<text text-anchor="start" x="792" y="-74.5" font-family="Helvetica,sans-Serif" font-size="10.00">tvm/ffi/reflection</text>
<text text-anchor="middle" x="833" y="-63.5" font-family="Helvetica,sans-Serif" font-size="10.00">/registry.h</text>
</a>
</g>
</g>
<!-- Node1&#45;&gt;Node4 -->
<g id="edge3" class="edge">
<title>Node1&#45;&gt;Node4</title>
<path fill="none" stroke="midnightblue" d="M1005.13,-302.41C1010.06,-293.61 1017.16,-279.38 1020,-266 1028.18,-227.46 1030.93,-206.79 1003,-179 955.93,-132.17 907.19,-187.61 858,-143 844.87,-131.09 838.64,-111.84 835.68,-96.46"/>
<polygon fill="midnightblue" stroke="midnightblue" points="839.13,-95.9 834.11,-86.57 832.22,-96.99 839.13,-95.9"/>
</g>
<!-- Node5 -->
<g id="node5" class="node">
<title>Node5</title>
<g id="a_node5"><a xlink:href="attr__registry__map_8h.html" target="_top" xlink:title="Attribute map used in registry.">
<polygon fill="white" stroke="black" points="19.5,-179.5 19.5,-209.5 128.5,-209.5 128.5,-179.5 19.5,-179.5"/>
<text text-anchor="start" x="27.5" y="-197.5" font-family="Helvetica,sans-Serif" font-size="10.00">tvm/ir/attr_registry</text>
<text text-anchor="middle" x="74" y="-186.5" font-family="Helvetica,sans-Serif" font-size="10.00">_map.h</text>
</a>
</g>
</g>
<!-- Node1&#45;&gt;Node5 -->
<g id="edge4" class="edge">
<title>Node1&#45;&gt;Node5</title>
<path fill="none" stroke="midnightblue" d="M945.79,-310.43C768.92,-308.27 215.86,-298.91 143,-266 120.48,-255.83 101.43,-234.73 89.09,-218.25"/>
<polygon fill="midnightblue" stroke="midnightblue" points="91.61,-215.76 82.94,-209.67 85.92,-219.84 91.61,-215.76"/>
</g>
<!-- Node7 -->
<g id="node7" class="node">
<title>Node7</title>
<g id="a_node7"><a xlink:title=" ">
<polygon fill="white" stroke="#bfbfbf" points="273.5,-62 273.5,-81 318.5,-81 318.5,-62 273.5,-62"/>
<text text-anchor="middle" x="296" y="-69" font-family="Helvetica,sans-Serif" font-size="10.00">utility</text>
</a>
</g>
</g>
<!-- Node1&#45;&gt;Node7 -->
<g id="edge65" class="edge">
<title>Node1&#45;&gt;Node7</title>
<path fill="none" stroke="midnightblue" d="M945.69,-308.97C821.93,-303.98 522.1,-289.77 424,-266 286.74,-232.74 209.19,-260.62 131,-143 98.05,-93.42 206.24,-78.58 263.22,-74.24"/>
<polygon fill="midnightblue" stroke="midnightblue" points="263.48,-77.73 273.21,-73.54 262.99,-70.74 263.48,-77.73"/>
</g>
<!-- Node8 -->
<g id="node8" class="node">
<title>Node8</title>
<g id="a_node8"><a xlink:title=" ">
<polygon fill="white" stroke="#bfbfbf" points="12.5,-62 12.5,-81 59.5,-81 59.5,-62 12.5,-62"/>
<text text-anchor="middle" x="36" y="-69" font-family="Helvetica,sans-Serif" font-size="10.00">vector</text>
</a>
</g>
</g>
<!-- Node1&#45;&gt;Node8 -->
<g id="edge66" class="edge">
<title>Node1&#45;&gt;Node8</title>
<path fill="none" stroke="midnightblue" d="M945.99,-311.45C778.4,-312.35 269.06,-311.18 111,-266 61.65,-251.89 36.05,-254.23 10,-210 -12.62,-171.59 10.54,-117.61 25.48,-90.11"/>
<polygon fill="midnightblue" stroke="midnightblue" points="28.61,-91.68 30.51,-81.25 22.53,-88.22 28.61,-91.68"/>
</g>
<!-- Node9 -->
<g id="node9" class="node">
<title>Node9</title>
<g id="a_node9"><a xlink:href="attrs_8h.html" target="_top" xlink:title="Helpers for attribute objects.">
<polygon fill="white" stroke="black" points="674,-246.5 674,-265.5 754,-265.5 754,-246.5 674,-246.5"/>
<text text-anchor="middle" x="714" y="-253.5" font-family="Helvetica,sans-Serif" font-size="10.00">tvm/ir/attrs.h</text>
</a>
</g>
</g>
<!-- Node1&#45;&gt;Node9 -->
<g id="edge8" class="edge">
<title>Node1&#45;&gt;Node9</title>
<path fill="none" stroke="midnightblue" d="M954.68,-302.44C902.75,-292.64 817.88,-276.61 764.04,-266.45"/>
<polygon fill="midnightblue" stroke="midnightblue" points="764.51,-262.97 754.03,-264.56 763.21,-269.85 764.51,-262.97"/>
</g>
<!-- Node15 -->
<g id="node15" class="node">
<title>Node15</title>
<g id="a_node15"><a xlink:href="ir_2expr_8h.html" target="_top" xlink:title="Base expr nodes in TVM.">
<polygon fill="white" stroke="black" points="1180.5,-185 1180.5,-204 1259.5,-204 1259.5,-185 1180.5,-185"/>
<text text-anchor="middle" x="1220" y="-192" font-family="Helvetica,sans-Serif" font-size="10.00">tvm/ir/expr.h</text>
</a>
</g>
</g>
<!-- Node1&#45;&gt;Node15 -->
<g id="edge55" class="edge">
<title>Node1&#45;&gt;Node15</title>
<path fill="none" stroke="midnightblue" d="M1016.54,-302.32C1054.69,-282.29 1149.1,-232.72 1194.64,-208.82"/>
<polygon fill="midnightblue" stroke="midnightblue" points="1196.35,-211.87 1203.57,-204.12 1193.09,-205.67 1196.35,-211.87"/>
</g>
<!-- Node22 -->
<g id="node22" class="node">
<title>Node22</title>
<g id="a_node22"><a xlink:title=" ">
<polygon fill="white" stroke="#bfbfbf" points="1511,-62 1511,-81 1555,-81 1555,-62 1511,-62"/>
<text text-anchor="middle" x="1533" y="-69" font-family="Helvetica,sans-Serif" font-size="10.00">string</text>
</a>
</g>
</g>
<!-- Node1&#45;&gt;Node22 -->
<g id="edge64" class="edge">
<title>Node1&#45;&gt;Node22</title>
<path fill="none" stroke="midnightblue" d="M1054.22,-309.06C1219.14,-301.81 1708.13,-269.75 1784,-143 1816.76,-88.28 1778.03,-153.17 1564,-87 1562.13,-86.42 1560.22,-85.75 1558.33,-85.02"/>
<polygon fill="midnightblue" stroke="midnightblue" points="1559.65,-81.78 1549.08,-81.04 1556.88,-88.21 1559.65,-81.78"/>
</g>
<!-- Node32 -->
<g id="node32" class="node">
<title>Node32</title>
<g id="a_node32"><a xlink:href="env__func_8h.html" target="_top" xlink:title="Serializable global function used in IR.">
<polygon fill="white" stroke="black" points="695,-123.5 695,-142.5 797,-142.5 797,-123.5 695,-123.5"/>
<text text-anchor="middle" x="746" y="-130.5" font-family="Helvetica,sans-Serif" font-size="10.00">tvm/ir/env_func.h</text>
</a>
</g>
</g>
<!-- Node1&#45;&gt;Node32 -->
<g id="edge49" class="edge">
<title>Node1&#45;&gt;Node32</title>
<path fill="none" stroke="midnightblue" d="M1001.68,-302.48C1005.73,-279.18 1013.41,-213.76 980,-179 973.96,-172.71 874.39,-155.19 807.1,-143.96"/>
<polygon fill="midnightblue" stroke="midnightblue" points="807.44,-140.47 797.01,-142.28 806.3,-147.37 807.44,-140.47"/>
</g>
<!-- Node33 -->
<g id="node33" class="node">
<title>Node33</title>
<g id="a_node33"><a xlink:href="ir_2type_8h.html" target="_top" xlink:title="IR/AST nodes for the unified type system in TVM.">
<polygon fill="white" stroke="black" points="1374,-246.5 1374,-265.5 1454,-265.5 1454,-246.5 1374,-246.5"/>
<text text-anchor="middle" x="1414" y="-253.5" font-family="Helvetica,sans-Serif" font-size="10.00">tvm/ir/type.h</text>
</a>
</g>
</g>
<!-- Node1&#45;&gt;Node33 -->
<g id="edge56" class="edge">
<title>Node1&#45;&gt;Node33</title>
<path fill="none" stroke="midnightblue" d="M1054.13,-303.94C1134.78,-293.42 1285.39,-273.78 1363.74,-263.56"/>
<polygon fill="midnightblue" stroke="midnightblue" points="1364.38,-267 1373.84,-262.24 1363.48,-260.06 1364.38,-267"/>
</g>
<!-- Node6 -->
<g id="node6" class="node">
<title>Node6</title>
<g id="a_node6"><a xlink:title=" ">
<polygon fill="white" stroke="#bfbfbf" points="140.5,-123.5 140.5,-142.5 229.5,-142.5 229.5,-123.5 140.5,-123.5"/>
<text text-anchor="middle" x="185" y="-130.5" font-family="Helvetica,sans-Serif" font-size="10.00">tvm/ffi/string.h</text>
</a>
</g>
</g>
<!-- Node5&#45;&gt;Node6 -->
<g id="edge5" class="edge">
<title>Node5&#45;&gt;Node6</title>
<path fill="none" stroke="midnightblue" d="M100.31,-179.4C118.27,-169.77 141.93,-157.09 159.67,-147.58"/>
<polygon fill="midnightblue" stroke="midnightblue" points="161.69,-150.47 168.85,-142.66 158.38,-144.3 161.69,-150.47"/>
</g>
<!-- Node5&#45;&gt;Node7 -->
<g id="edge6" class="edge">
<title>Node5&#45;&gt;Node7</title>
<path fill="none" stroke="midnightblue" d="M74.91,-179.46C76.7,-163.5 82.05,-137.75 98,-123 143.75,-80.71 219.91,-72.67 263.23,-71.8"/>
<polygon fill="midnightblue" stroke="midnightblue" points="263.52,-75.3 273.5,-71.72 263.47,-68.3 263.52,-75.3"/>
</g>
<!-- Node5&#45;&gt;Node8 -->
<g id="edge7" class="edge">
<title>Node5&#45;&gt;Node8</title>
<path fill="none" stroke="midnightblue" d="M69.49,-179.14C62.57,-157.1 49.33,-114.95 41.74,-90.76"/>
<polygon fill="midnightblue" stroke="midnightblue" points="45.02,-89.54 38.69,-81.05 38.35,-91.64 45.02,-89.54"/>
</g>
<!-- Node9&#45;&gt;Node3 -->
<g id="edge12" class="edge">
<title>Node9&#45;&gt;Node3</title>
<path fill="none" stroke="midnightblue" d="M673.9,-255.65C595.68,-255.95 427.24,-251.64 391,-210 381.96,-199.61 383.86,-190.78 391,-179 423.74,-124.98 493.85,-97.06 542.69,-83.61"/>
<polygon fill="midnightblue" stroke="midnightblue" points="543.68,-86.97 552.46,-81.03 541.9,-80.2 543.68,-86.97"/>
</g>
<!-- Node9&#45;&gt;Node4 -->
<g id="edge13" class="edge">
<title>Node9&#45;&gt;Node4</title>
<path fill="none" stroke="midnightblue" d="M706.59,-246.41C699.73,-237.84 690,-223.98 686,-210 675.38,-172.82 663.54,-154.47 686,-123 705.88,-95.16 742.12,-82.5 773.64,-76.83"/>
<polygon fill="midnightblue" stroke="midnightblue" points="774.37,-80.26 783.69,-75.22 773.26,-73.34 774.37,-80.26"/>
</g>
<!-- Node9&#45;&gt;Node7 -->
<g id="edge48" class="edge">
<title>Node9&#45;&gt;Node7</title>
<path fill="none" stroke="midnightblue" d="M673.82,-254.89C589.48,-253.92 397.51,-247.52 346,-210 307.77,-182.15 298.7,-122.07 296.6,-91.38"/>
<polygon fill="midnightblue" stroke="midnightblue" points="300.09,-90.99 296.09,-81.18 293.09,-91.34 300.09,-90.99"/>
</g>
<!-- Node10 -->
<g id="node10" class="node">
<title>Node10</title>
<g id="a_node10"><a xlink:title=" ">
<polygon fill="white" stroke="#bfbfbf" points="695.5,-185 695.5,-204 826.5,-204 826.5,-185 695.5,-185"/>
<text text-anchor="middle" x="761" y="-192" font-family="Helvetica,sans-Serif" font-size="10.00">tvm/ffi/container/map.h</text>
</a>
</g>
</g>
<!-- Node9&#45;&gt;Node10 -->
<g id="edge9" class="edge">
<title>Node9&#45;&gt;Node10</title>
<path fill="none" stroke="midnightblue" d="M720.74,-246.48C727.79,-237.55 739.04,-223.31 747.86,-212.14"/>
<polygon fill="midnightblue" stroke="midnightblue" points="750.83,-214.03 754.28,-204.01 745.34,-209.69 750.83,-214.03"/>
</g>
<!-- Node11 -->
<g id="node11" class="node">
<title>Node11</title>
<g id="a_node11"><a xlink:title=" ">
<polygon fill="white" stroke="#bfbfbf" points="844.5,-179.5 844.5,-209.5 971.5,-209.5 971.5,-179.5 844.5,-179.5"/>
<text text-anchor="start" x="852.5" y="-197.5" font-family="Helvetica,sans-Serif" font-size="10.00">tvm/ffi/extra/structural</text>
<text text-anchor="middle" x="908" y="-186.5" font-family="Helvetica,sans-Serif" font-size="10.00">_equal.h</text>
</a>
</g>
</g>
<!-- Node9&#45;&gt;Node11 -->
<g id="edge10" class="edge">
<title>Node9&#45;&gt;Node11</title>
<path fill="none" stroke="midnightblue" d="M741.8,-246.48C770.53,-237.66 816.16,-223.67 852.35,-212.57"/>
<polygon fill="midnightblue" stroke="midnightblue" points="853.75,-215.8 862.28,-209.52 851.69,-209.11 853.75,-215.8"/>
</g>
<!-- Node12 -->
<g id="node12" class="node">
<title>Node12</title>
<g id="a_node12"><a xlink:title=" ">
<polygon fill="white" stroke="#bfbfbf" points="400.5,-179.5 400.5,-209.5 527.5,-209.5 527.5,-179.5 400.5,-179.5"/>
<text text-anchor="start" x="408.5" y="-197.5" font-family="Helvetica,sans-Serif" font-size="10.00">tvm/ffi/extra/structural</text>
<text text-anchor="middle" x="464" y="-186.5" font-family="Helvetica,sans-Serif" font-size="10.00">_hash.h</text>
</a>
</g>
</g>
<!-- Node9&#45;&gt;Node12 -->
<g id="edge11" class="edge">
<title>Node9&#45;&gt;Node12</title>
<path fill="none" stroke="midnightblue" d="M678.18,-246.48C640.37,-237.48 579.83,-223.07 532.75,-211.86"/>
<polygon fill="midnightblue" stroke="midnightblue" points="533.46,-208.43 522.92,-209.52 531.84,-215.24 533.46,-208.43"/>
</g>
<!-- Node13 -->
<g id="node13" class="node">
<title>Node13</title>
<g id="a_node13"><a xlink:href="cow_8h.html" target="_top" xlink:title="Copy&#45;on&#45;write helper macro for IR ffi::ObjectRef types.">
<polygon fill="white" stroke="black" points="324.5,-123.5 324.5,-142.5 401.5,-142.5 401.5,-123.5 324.5,-123.5"/>
<text text-anchor="middle" x="363" y="-130.5" font-family="Helvetica,sans-Serif" font-size="10.00">tvm/ir/cow.h</text>
</a>
</g>
</g>
<!-- Node9&#45;&gt;Node13 -->
<g id="edge14" class="edge">
<title>Node9&#45;&gt;Node13</title>
<path fill="none" stroke="midnightblue" d="M673.97,-252.87C585.33,-247.76 378.65,-233.42 358,-210 344.24,-194.39 349.29,-169.26 355.22,-152.21"/>
<polygon fill="midnightblue" stroke="midnightblue" points="358.52,-153.38 358.86,-142.79 351.99,-150.85 358.52,-153.38"/>
</g>
<!-- Node9&#45;&gt;Node15 -->
<g id="edge17" class="edge">
<title>Node9&#45;&gt;Node15</title>
<path fill="none" stroke="midnightblue" d="M754.13,-250.28C845.68,-239.52 1069.76,-213.17 1170.05,-201.37"/>
<polygon fill="midnightblue" stroke="midnightblue" points="1170.7,-204.82 1180.22,-200.18 1169.88,-197.87 1170.7,-204.82"/>
</g>
<!-- Node9&#45;&gt;Node22 -->
<g id="edge45" class="edge">
<title>Node9&#45;&gt;Node22</title>
<path fill="none" stroke="midnightblue" d="M754.29,-254.23C846.1,-251.94 1077.62,-243.06 1268,-210 1380.92,-190.39 1437.59,-225.63 1517,-143 1530.16,-129.31 1533.35,-107.18 1533.77,-91.37"/>
<polygon fill="midnightblue" stroke="midnightblue" points="1537.26,-91.15 1533.68,-81.18 1530.26,-91.21 1537.26,-91.15"/>
</g>
<!-- Node27 -->
<g id="node27" class="node">
<title>Node27</title>
<g id="a_node27"><a xlink:title=" ">
<polygon fill="white" stroke="#bfbfbf" points="1423.5,-62 1423.5,-81 1492.5,-81 1492.5,-62 1423.5,-62"/>
<text text-anchor="middle" x="1458" y="-69" font-family="Helvetica,sans-Serif" font-size="10.00">type_traits</text>
</a>
</g>
</g>
<!-- Node9&#45;&gt;Node27 -->
<g id="edge46" class="edge">
<title>Node9&#45;&gt;Node27</title>
<path fill="none" stroke="midnightblue" d="M754.46,-254.14C808.13,-251.69 904.82,-242.65 980,-210 1038.46,-184.61 1035.17,-147.52 1094,-123 1202.11,-77.95 1342.35,-71.54 1413.04,-71.52"/>
<polygon fill="midnightblue" stroke="midnightblue" points="1413.35,-75.02 1423.37,-71.56 1413.38,-68.02 1413.35,-75.02"/>
</g>
<!-- Node31 -->
<g id="node31" class="node">
<title>Node31</title>
<g id="a_node31"><a xlink:title=" ">
<polygon fill="white" stroke="#bfbfbf" points="545.5,-185 545.5,-204 638.5,-204 638.5,-185 545.5,-185"/>
<text text-anchor="middle" x="592" y="-192" font-family="Helvetica,sans-Serif" font-size="10.00">unordered_map</text>
</a>
</g>
</g>
<!-- Node9&#45;&gt;Node31 -->
<g id="edge47" class="edge">
<title>Node9&#45;&gt;Node31</title>
<path fill="none" stroke="midnightblue" d="M696.52,-246.48C676.14,-236.53 642.23,-219.99 618.58,-208.46"/>
<polygon fill="midnightblue" stroke="midnightblue" points="619.97,-205.25 609.45,-204.01 616.9,-211.54 619.97,-205.25"/>
</g>
<!-- Node13&#45;&gt;Node7 -->
<g id="edge16" class="edge">
<title>Node13&#45;&gt;Node7</title>
<path fill="none" stroke="midnightblue" d="M353.4,-123.48C342.95,-114.2 326.03,-99.17 313.27,-87.83"/>
<polygon fill="midnightblue" stroke="midnightblue" points="315.39,-85.03 305.58,-81.01 310.74,-90.27 315.39,-85.03"/>
</g>
<!-- Node14 -->
<g id="node14" class="node">
<title>Node14</title>
<g id="a_node14"><a xlink:title=" ">
<polygon fill="white" stroke="#bfbfbf" points="336.5,-62 336.5,-81 427.5,-81 427.5,-62 336.5,-62"/>
<text text-anchor="middle" x="382" y="-69" font-family="Helvetica,sans-Serif" font-size="10.00">tvm/ffi/object.h</text>
</a>
</g>
</g>
<!-- Node13&#45;&gt;Node14 -->
<g id="edge15" class="edge">
<title>Node13&#45;&gt;Node14</title>
<path fill="none" stroke="midnightblue" d="M365.72,-123.48C368.43,-114.99 372.68,-101.7 376.15,-90.82"/>
<polygon fill="midnightblue" stroke="midnightblue" points="379.58,-91.6 379.29,-81.01 372.91,-89.47 379.58,-91.6"/>
</g>
<!-- Node15&#45;&gt;Node4 -->
<g id="edge19" class="edge">
<title>Node15&#45;&gt;Node4</title>
<path fill="none" stroke="midnightblue" d="M1197.03,-184.96C1159.58,-171.17 1082.92,-143.47 1017,-123 975.51,-110.12 928.23,-97.18 891.99,-87.62"/>
<polygon fill="midnightblue" stroke="midnightblue" points="892.63,-84.17 882.07,-85.02 890.86,-90.94 892.63,-84.17"/>
</g>
<!-- Node15&#45;&gt;Node6 -->
<g id="edge20" class="edge">
<title>Node15&#45;&gt;Node6</title>
<path fill="none" stroke="midnightblue" d="M1180.09,-191.01C1132.47,-188.06 1050.43,-183.03 980,-179 684.5,-162.07 610.43,-161.22 315,-143 290.22,-141.47 262.79,-139.6 239.54,-137.96"/>
<polygon fill="midnightblue" stroke="midnightblue" points="239.74,-134.46 229.52,-137.25 239.24,-141.45 239.74,-134.46"/>
</g>
<!-- Node15&#45;&gt;Node13 -->
<g id="edge21" class="edge">
<title>Node15&#45;&gt;Node13</title>
<path fill="none" stroke="midnightblue" d="M1180.39,-190.75C1039.92,-181 565.88,-148.09 411.81,-137.39"/>
<polygon fill="midnightblue" stroke="midnightblue" points="411.93,-133.89 401.71,-136.69 411.44,-140.87 411.93,-133.89"/>
</g>
<!-- Node16 -->
<g id="node16" class="node">
<title>Node16</title>
<g id="a_node16"><a xlink:title=" ">
<polygon fill="white" stroke="#bfbfbf" points="1331,-123.5 1331,-142.5 1467,-142.5 1467,-123.5 1331,-123.5"/>
<text text-anchor="middle" x="1399" y="-130.5" font-family="Helvetica,sans-Serif" font-size="10.00">tvm/ffi/extra/dataclass.h</text>
</a>
</g>
</g>
<!-- Node15&#45;&gt;Node16 -->
<g id="edge18" class="edge">
<title>Node15&#45;&gt;Node16</title>
<path fill="none" stroke="midnightblue" d="M1245.65,-184.98C1276.62,-174.68 1328.88,-157.31 1363.65,-145.75"/>
<polygon fill="midnightblue" stroke="midnightblue" points="1365.02,-148.98 1373.4,-142.51 1362.81,-142.34 1365.02,-148.98"/>
</g>
<!-- Node17 -->
<g id="node17" class="node">
<title>Node17</title>
<g id="a_node17"><a xlink:href="source__map_8h.html" target="_top" xlink:title="A map from source names to source code.">
<polygon fill="white" stroke="black" points="891.5,-123.5 891.5,-142.5 1008.5,-142.5 1008.5,-123.5 891.5,-123.5"/>
<text text-anchor="middle" x="950" y="-130.5" font-family="Helvetica,sans-Serif" font-size="10.00">tvm/ir/source_map.h</text>
</a>
</g>
</g>
<!-- Node15&#45;&gt;Node17 -->
<g id="edge22" class="edge">
<title>Node15&#45;&gt;Node17</title>
<path fill="none" stroke="midnightblue" d="M1189.52,-184.99C1181.87,-182.94 1173.65,-180.82 1166,-179 1111.38,-165.99 1048.5,-153.12 1004.72,-144.5"/>
<polygon fill="midnightblue" stroke="midnightblue" points="1005.33,-141.06 994.85,-142.57 1003.99,-147.93 1005.33,-141.06"/>
</g>
<!-- Node15&#45;&gt;Node22 -->
<g id="edge43" class="edge">
<title>Node15&#45;&gt;Node22</title>
<path fill="none" stroke="midnightblue" d="M1259.65,-190.35C1326.28,-184.39 1457.05,-169.6 1494,-143 1511.53,-130.39 1522.1,-107.35 1527.73,-91.05"/>
<polygon fill="midnightblue" stroke="midnightblue" points="1531.21,-91.63 1530.86,-81.05 1524.53,-89.54 1531.21,-91.63"/>
</g>
<!-- Node23 -->
<g id="node23" class="node">
<title>Node23</title>
<g id="a_node23"><a xlink:href="data__type_8h.html" target="_top" xlink:title=" ">
<polygon fill="white" stroke="black" points="1637,-123.5 1637,-142.5 1775,-142.5 1775,-123.5 1637,-123.5"/>
<text text-anchor="middle" x="1706" y="-130.5" font-family="Helvetica,sans-Serif" font-size="10.00">tvm/runtime/data_type.h</text>
</a>
</g>
</g>
<!-- Node15&#45;&gt;Node23 -->
<g id="edge32" class="edge">
<title>Node15&#45;&gt;Node23</title>
<path fill="none" stroke="midnightblue" d="M1259.77,-188.63C1339.82,-178.83 1521.7,-156.56 1626.88,-143.69"/>
<polygon fill="midnightblue" stroke="midnightblue" points="1627.31,-147.16 1636.81,-142.47 1626.46,-140.21 1627.31,-147.16"/>
</g>
<!-- Node15&#45;&gt;Node27 -->
<g id="edge44" class="edge">
<title>Node15&#45;&gt;Node27</title>
<path fill="none" stroke="midnightblue" d="M1259.65,-191.62C1324.57,-187.62 1449.07,-175.76 1476,-143 1488.36,-127.97 1479.33,-105.5 1470.18,-89.99"/>
<polygon fill="midnightblue" stroke="midnightblue" points="1472.99,-87.89 1464.65,-81.36 1467.09,-91.67 1472.99,-87.89"/>
</g>
<!-- Node28 -->
<g id="node28" class="node">
<title>Node28</title>
<g id="a_node28"><a xlink:title=" ">
<polygon fill="white" stroke="#bfbfbf" points="1103,-123.5 1103,-142.5 1167,-142.5 1167,-123.5 1103,-123.5"/>
<text text-anchor="middle" x="1135" y="-130.5" font-family="Helvetica,sans-Serif" font-size="10.00">algorithm</text>
</a>
</g>
</g>
<!-- Node15&#45;&gt;Node28 -->
<g id="edge40" class="edge">
<title>Node15&#45;&gt;Node28</title>
<path fill="none" stroke="midnightblue" d="M1207.82,-184.98C1194.19,-175.43 1171.87,-159.81 1155.53,-148.37"/>
<polygon fill="midnightblue" stroke="midnightblue" points="1157.36,-145.38 1147.16,-142.51 1153.34,-151.11 1157.36,-145.38"/>
</g>
<!-- Node29 -->
<g id="node29" class="node">
<title>Node29</title>
<g id="a_node29"><a xlink:title=" ">
<polygon fill="white" stroke="#bfbfbf" points="1185.5,-123.5 1185.5,-142.5 1250.5,-142.5 1250.5,-123.5 1185.5,-123.5"/>
<text text-anchor="middle" x="1218" y="-130.5" font-family="Helvetica,sans-Serif" font-size="10.00">functional</text>
</a>
</g>
</g>
<!-- Node15&#45;&gt;Node29 -->
<g id="edge41" class="edge">
<title>Node15&#45;&gt;Node29</title>
<path fill="none" stroke="midnightblue" d="M1219.72,-184.98C1219.43,-176.58 1218.99,-163.48 1218.63,-152.66"/>
<polygon fill="midnightblue" stroke="midnightblue" points="1222.12,-152.39 1218.29,-142.51 1215.13,-152.62 1222.12,-152.39"/>
</g>
<!-- Node30 -->
<g id="node30" class="node">
<title>Node30</title>
<g id="a_node30"><a xlink:title=" ">
<polygon fill="white" stroke="#bfbfbf" points="1269,-123.5 1269,-142.5 1313,-142.5 1313,-123.5 1269,-123.5"/>
<text text-anchor="middle" x="1291" y="-130.5" font-family="Helvetica,sans-Serif" font-size="10.00">limits</text>
</a>
</g>
</g>
<!-- Node15&#45;&gt;Node30 -->
<g id="edge42" class="edge">
<title>Node15&#45;&gt;Node30</title>
<path fill="none" stroke="midnightblue" d="M1230.17,-184.98C1241.35,-175.61 1259.52,-160.38 1273.09,-149.01"/>
<polygon fill="midnightblue" stroke="midnightblue" points="1275.43,-151.61 1280.85,-142.51 1270.94,-146.25 1275.43,-151.61"/>
</g>
<!-- Node17&#45;&gt;Node3 -->
<g id="edge24" class="edge">
<title>Node17&#45;&gt;Node3</title>
<path fill="none" stroke="midnightblue" d="M899.14,-123.48C834.95,-112.72 724.65,-94.23 656,-82.72"/>
<polygon fill="midnightblue" stroke="midnightblue" points="656.21,-79.21 645.77,-81.01 655.05,-86.11 656.21,-79.21"/>
</g>
<!-- Node17&#45;&gt;Node4 -->
<g id="edge25" class="edge">
<title>Node17&#45;&gt;Node4</title>
<path fill="none" stroke="midnightblue" d="M933.24,-123.48C916.73,-115.08 890.96,-101.97 869.68,-91.15"/>
<polygon fill="midnightblue" stroke="midnightblue" points="871.08,-87.94 860.58,-86.52 867.9,-94.18 871.08,-87.94"/>
</g>
<!-- Node17&#45;&gt;Node7 -->
<g id="edge30" class="edge">
<title>Node17&#45;&gt;Node7</title>
<path fill="none" stroke="midnightblue" d="M891.35,-128.34C741.43,-118.92 354.04,-94.04 327,-87 325.02,-86.48 323.01,-85.84 321.01,-85.12"/>
<polygon fill="midnightblue" stroke="midnightblue" points="321.93,-81.71 311.36,-81.03 319.2,-88.15 321.93,-81.71"/>
</g>
<!-- Node17&#45;&gt;Node8 -->
<g id="edge31" class="edge">
<title>Node17&#45;&gt;Node8</title>
<path fill="none" stroke="midnightblue" d="M891.44,-128.19C717.28,-116.85 206.23,-83.58 69.81,-74.7"/>
<polygon fill="midnightblue" stroke="midnightblue" points="69.77,-71.19 59.56,-74.03 69.31,-78.18 69.77,-71.19"/>
</g>
<!-- Node18 -->
<g id="node18" class="node">
<title>Node18</title>
<g id="a_node18"><a xlink:title=" ">
<polygon fill="white" stroke="#bfbfbf" points="1681,-62 1681,-81 1815,-81 1815,-62 1681,-62"/>
<text text-anchor="middle" x="1748" y="-69" font-family="Helvetica,sans-Serif" font-size="10.00">tvm/ffi/container/array.h</text>
</a>
</g>
</g>
<!-- Node17&#45;&gt;Node18 -->
<g id="edge23" class="edge">
<title>Node17&#45;&gt;Node18</title>
<path fill="none" stroke="midnightblue" d="M1008.5,-128.34C1034.66,-126.71 1065.88,-124.76 1094,-123 1350.45,-106.99 1416.04,-118.84 1671,-87 1679.73,-85.91 1688.96,-84.45 1697.89,-82.87"/>
<polygon fill="midnightblue" stroke="midnightblue" points="1698.59,-86.3 1707.79,-81.05 1697.32,-79.41 1698.59,-86.3"/>
</g>
<!-- Node19 -->
<g id="node19" class="node">
<title>Node19</title>
<g id="a_node19"><a xlink:href="runtime_2base_8h.html" target="_top" xlink:title=" ">
<polygon fill="white" stroke="black" points="988.5,-62 988.5,-81 1101.5,-81 1101.5,-62 988.5,-62"/>
<text text-anchor="middle" x="1045" y="-69" font-family="Helvetica,sans-Serif" font-size="10.00">tvm/runtime/base.h</text>
</a>
</g>
</g>
<!-- Node17&#45;&gt;Node19 -->
<g id="edge26" class="edge">
<title>Node17&#45;&gt;Node19</title>
<path fill="none" stroke="midnightblue" d="M963.61,-123.48C979.06,-113.8 1004.49,-97.87 1022.82,-86.39"/>
<polygon fill="midnightblue" stroke="midnightblue" points="1024.8,-89.28 1031.42,-81.01 1021.08,-83.35 1024.8,-89.28"/>
</g>
<!-- Node21 -->
<g id="node21" class="node">
<title>Node21</title>
<g id="a_node21"><a xlink:title=" ">
<polygon fill="white" stroke="#bfbfbf" points="915.5,-62 915.5,-81 970.5,-81 970.5,-62 915.5,-62"/>
<text text-anchor="middle" x="943" y="-69" font-family="Helvetica,sans-Serif" font-size="10.00">fstream</text>
</a>
</g>
</g>
<!-- Node17&#45;&gt;Node21 -->
<g id="edge28" class="edge">
<title>Node17&#45;&gt;Node21</title>
<path fill="none" stroke="midnightblue" d="M949,-123.48C948.01,-115.08 946.47,-101.98 945.2,-91.16"/>
<polygon fill="midnightblue" stroke="midnightblue" points="948.65,-90.53 944,-81.01 941.7,-91.35 948.65,-90.53"/>
</g>
<!-- Node17&#45;&gt;Node22 -->
<g id="edge29" class="edge">
<title>Node17&#45;&gt;Node22</title>
<path fill="none" stroke="midnightblue" d="M1008.91,-128.34C1141.27,-119.94 1454.31,-99.09 1501,-87 1503.16,-86.44 1505.36,-85.75 1507.53,-84.96"/>
<polygon fill="midnightblue" stroke="midnightblue" points="1508.88,-88.2 1516.79,-81.15 1506.21,-81.72 1508.88,-88.2"/>
</g>
<!-- Node20 -->
<g id="node20" class="node">
<title>Node20</title>
<g id="a_node20"><a xlink:title=" ">
<polygon fill="white" stroke="#bfbfbf" points="1002,-0.5 1002,-19.5 1088,-19.5 1088,-0.5 1002,-0.5"/>
<text text-anchor="middle" x="1045" y="-7.5" font-family="Helvetica,sans-Serif" font-size="10.00">tvm/ffi/c_api.h</text>
</a>
</g>
</g>
<!-- Node19&#45;&gt;Node20 -->
<g id="edge27" class="edge">
<title>Node19&#45;&gt;Node20</title>
<path fill="none" stroke="midnightblue" d="M1045,-61.98C1045,-53.58 1045,-40.48 1045,-29.66"/>
<polygon fill="midnightblue" stroke="midnightblue" points="1048.5,-29.51 1045,-19.51 1041.5,-29.51 1048.5,-29.51"/>
</g>
<!-- Node23&#45;&gt;Node2 -->
<g id="edge35" class="edge">
<title>Node23&#45;&gt;Node2</title>
<path fill="none" stroke="midnightblue" d="M1775.05,-126.08C1844.88,-119.37 1955.67,-106.73 2050,-87 2054.45,-86.07 2059.08,-84.94 2063.65,-83.74"/>
<polygon fill="midnightblue" stroke="midnightblue" points="2064.77,-87.06 2073.46,-81.01 2062.89,-80.32 2064.77,-87.06"/>
</g>
<!-- Node23&#45;&gt;Node19 -->
<g id="edge36" class="edge">
<title>Node23&#45;&gt;Node19</title>
<path fill="none" stroke="midnightblue" d="M1636.82,-125.77C1509.15,-114.28 1238.03,-89.88 1112,-78.53"/>
<polygon fill="midnightblue" stroke="midnightblue" points="1112,-75.02 1101.73,-77.61 1111.37,-81.99 1112,-75.02"/>
</g>
<!-- Node23&#45;&gt;Node22 -->
<g id="edge38" class="edge">
<title>Node23&#45;&gt;Node22</title>
<path fill="none" stroke="midnightblue" d="M1675.13,-123.48C1646.09,-115.17 1601.58,-101.67 1564,-87 1562.58,-86.45 1561.14,-85.86 1559.69,-85.25"/>
<polygon fill="midnightblue" stroke="midnightblue" points="1560.77,-81.9 1550.21,-81.03 1557.92,-88.29 1560.77,-81.9"/>
</g>
<!-- Node24 -->
<g id="node24" class="node">
<title>Node24</title>
<g id="a_node24"><a xlink:title=" ">
<polygon fill="white" stroke="#bfbfbf" points="1901.5,-62 1901.5,-81 2040.5,-81 2040.5,-62 1901.5,-62"/>
<text text-anchor="middle" x="1971" y="-69" font-family="Helvetica,sans-Serif" font-size="10.00">tvm/ffi/container/shape.h</text>
</a>
</g>
</g>
<!-- Node23&#45;&gt;Node24 -->
<g id="edge33" class="edge">
<title>Node23&#45;&gt;Node24</title>
<path fill="none" stroke="midnightblue" d="M1743.97,-123.48C1791.2,-112.87 1871.86,-94.76 1923.24,-83.22"/>
<polygon fill="midnightblue" stroke="midnightblue" points="1924.11,-86.61 1933.1,-81.01 1922.58,-79.78 1924.11,-86.61"/>
</g>
<!-- Node25 -->
<g id="node25" class="node">
<title>Node25</title>
<g id="a_node25"><a xlink:title=" ">
<polygon fill="white" stroke="#bfbfbf" points="1573.5,-62 1573.5,-81 1662.5,-81 1662.5,-62 1573.5,-62"/>
<text text-anchor="middle" x="1618" y="-69" font-family="Helvetica,sans-Serif" font-size="10.00">tvm/ffi/dtype.h</text>
</a>
</g>
</g>
<!-- Node23&#45;&gt;Node25 -->
<g id="edge34" class="edge">
<title>Node23&#45;&gt;Node25</title>
<path fill="none" stroke="midnightblue" d="M1693.39,-123.48C1679.28,-113.93 1656.17,-98.31 1639.25,-86.87"/>
<polygon fill="midnightblue" stroke="midnightblue" points="1640.83,-83.71 1630.59,-81.01 1636.91,-89.51 1640.83,-83.71"/>
</g>
<!-- Node26 -->
<g id="node26" class="node">
<title>Node26</title>
<g id="a_node26"><a xlink:title=" ">
<polygon fill="white" stroke="#bfbfbf" points="1833,-62 1833,-81 1883,-81 1883,-62 1833,-62"/>
<text text-anchor="middle" x="1858" y="-69" font-family="Helvetica,sans-Serif" font-size="10.00">cstring</text>
</a>
</g>
</g>
<!-- Node23&#45;&gt;Node26 -->
<g id="edge37" class="edge">
<title>Node23&#45;&gt;Node26</title>
<path fill="none" stroke="midnightblue" d="M1729.17,-123.47C1753.04,-114.61 1791.27,-100.22 1824,-87 1825.6,-86.36 1827.23,-85.69 1828.88,-85.01"/>
<polygon fill="midnightblue" stroke="midnightblue" points="1830.41,-88.16 1838.28,-81.06 1827.7,-81.7 1830.41,-88.16"/>
</g>
<!-- Node23&#45;&gt;Node27 -->
<g id="edge39" class="edge">
<title>Node23&#45;&gt;Node27</title>
<path fill="none" stroke="midnightblue" d="M1661.11,-123.46C1619.56,-115.23 1556.22,-101.87 1502,-87 1498.82,-86.13 1495.53,-85.16 1492.25,-84.16"/>
<polygon fill="midnightblue" stroke="midnightblue" points="1493.13,-80.76 1482.54,-81.07 1491.01,-87.44 1493.13,-80.76"/>
</g>
<!-- Node32&#45;&gt;Node3 -->
<g id="edge50" class="edge">
<title>Node32&#45;&gt;Node3</title>
<path fill="none" stroke="midnightblue" d="M724.37,-123.48C698.58,-113.31 655.29,-96.26 625.96,-84.7"/>
<polygon fill="midnightblue" stroke="midnightblue" points="627.18,-81.42 616.6,-81.01 624.62,-87.93 627.18,-81.42"/>
</g>
<!-- Node32&#45;&gt;Node4 -->
<g id="edge51" class="edge">
<title>Node32&#45;&gt;Node4</title>
<path fill="none" stroke="midnightblue" d="M758.47,-123.48C770.36,-115.34 788.71,-102.79 804.23,-92.18"/>
<polygon fill="midnightblue" stroke="midnightblue" points="806.22,-95.06 812.5,-86.52 802.27,-89.28 806.22,-95.06"/>
</g>
<!-- Node32&#45;&gt;Node7 -->
<g id="edge54" class="edge">
<title>Node32&#45;&gt;Node7</title>
<path fill="none" stroke="midnightblue" d="M694.68,-131.89C614.66,-130.53 455.96,-123 327,-87 325.07,-86.46 323.11,-85.81 321.16,-85.09"/>
<polygon fill="midnightblue" stroke="midnightblue" points="322.28,-81.76 311.71,-81.07 319.54,-88.2 322.28,-81.76"/>
</g>
<!-- Node32&#45;&gt;Node19 -->
<g id="edge52" class="edge">
<title>Node32&#45;&gt;Node19</title>
<path fill="none" stroke="midnightblue" d="M792.05,-123.46C839.1,-114.66 914.24,-100.37 979,-87 984.82,-85.8 990.91,-84.51 996.95,-83.21"/>
<polygon fill="midnightblue" stroke="midnightblue" points="997.97,-86.57 1007,-81.02 996.48,-79.73 997.97,-86.57"/>
</g>
<!-- Node32&#45;&gt;Node22 -->
<g id="edge53" class="edge">
<title>Node32&#45;&gt;Node22</title>
<path fill="none" stroke="midnightblue" d="M797.02,-128.53C822.54,-126.81 853.9,-124.75 882,-123 1019.52,-114.45 1367.22,-119.99 1501,-87 1503.22,-86.45 1505.46,-85.76 1507.69,-84.97"/>
<polygon fill="midnightblue" stroke="midnightblue" points="1509.23,-88.12 1517.14,-81.07 1506.56,-81.65 1509.23,-88.12"/>
</g>
<!-- Node33&#45;&gt;Node4 -->
<g id="edge59" class="edge">
<title>Node33&#45;&gt;Node4</title>
<path fill="none" stroke="midnightblue" d="M1373.59,-251.61C1317.62,-246.25 1213.71,-233.87 1128,-210 1092.86,-200.21 1086.87,-189.71 1052,-179 978.17,-156.33 946.35,-185.71 882,-143 864.62,-131.46 851.6,-111.47 843.37,-95.71"/>
<polygon fill="midnightblue" stroke="midnightblue" points="846.42,-93.99 838.86,-86.57 840.14,-97.08 846.42,-93.99"/>
</g>
<!-- Node33&#45;&gt;Node15 -->
<g id="edge60" class="edge">
<title>Node33&#45;&gt;Node15</title>
<path fill="none" stroke="midnightblue" d="M1386.21,-246.48C1352.35,-236.09 1295.03,-218.51 1257.35,-206.95"/>
<polygon fill="midnightblue" stroke="midnightblue" points="1258.33,-203.6 1247.75,-204.01 1256.28,-210.29 1258.33,-203.6"/>
</g>
<!-- Node33&#45;&gt;Node17 -->
<g id="edge61" class="edge">
<title>Node33&#45;&gt;Node17</title>
<path fill="none" stroke="midnightblue" d="M1373.74,-252.95C1324.23,-249.22 1238.47,-238.83 1171,-210 1149.34,-200.74 1149.36,-188.95 1128,-179 1092.63,-162.52 1050.39,-151.51 1015.93,-144.51"/>
<polygon fill="midnightblue" stroke="midnightblue" points="1016.46,-141.04 1005.97,-142.55 1015.11,-147.91 1016.46,-141.04"/>
</g>
<!-- Node33&#45;&gt;Node18 -->
<g id="edge58" class="edge">
<title>Node33&#45;&gt;Node18</title>
<path fill="none" stroke="midnightblue" d="M1454.01,-251.49C1503.34,-246.31 1589.21,-234.44 1659,-210 1718.49,-189.17 1751.63,-197.08 1784,-143 1794.84,-124.89 1779.72,-103.14 1765.89,-88.63"/>
<polygon fill="midnightblue" stroke="midnightblue" points="1768.1,-85.89 1758.51,-81.39 1763.19,-90.89 1768.1,-85.89"/>
</g>
<!-- Node33&#45;&gt;Node22 -->
<g id="edge63" class="edge">
<title>Node33&#45;&gt;Node22</title>
<path fill="none" stroke="midnightblue" d="M1454.04,-250.37C1500.43,-244.08 1572.62,-231.13 1589,-210 1596.26,-200.64 1591.84,-137.68 1585,-123 1578.32,-108.64 1565.63,-96.19 1554.46,-87.24"/>
<polygon fill="midnightblue" stroke="midnightblue" points="1556.43,-84.34 1546.34,-81.11 1552.21,-89.93 1556.43,-84.34"/>
</g>
<!-- Node33&#45;&gt;Node23 -->
<g id="edge62" class="edge">
<title>Node33&#45;&gt;Node23</title>
<path fill="none" stroke="midnightblue" d="M1454.22,-252.6C1497.93,-248.61 1568.75,-238.02 1623,-210 1651.65,-195.21 1677.85,-167.91 1692.85,-150.37"/>
<polygon fill="midnightblue" stroke="midnightblue" points="1695.58,-152.57 1699.28,-142.65 1690.2,-148.1 1695.58,-152.57"/>
</g>
<!-- Node34 -->
<g id="node34" class="node">
<title>Node34</title>
<g id="a_node34"><a xlink:title=" ">
<polygon fill="white" stroke="#bfbfbf" points="1499.5,-185 1499.5,-204 1580.5,-204 1580.5,-185 1499.5,-185"/>
<text text-anchor="middle" x="1540" y="-192" font-family="Helvetica,sans-Serif" font-size="10.00">tvm/ffi/cast.h</text>
</a>
</g>
</g>
<!-- Node33&#45;&gt;Node34 -->
<g id="edge57" class="edge">
<title>Node33&#45;&gt;Node34</title>
<path fill="none" stroke="midnightblue" d="M1432.06,-246.48C1453.2,-236.49 1488.44,-219.85 1512.88,-208.31"/>
<polygon fill="midnightblue" stroke="midnightblue" points="1514.44,-211.44 1521.98,-204.01 1511.45,-205.11 1514.44,-211.44"/>
</g>
</g>
</svg>
