<?xml version="1.0" encoding="UTF-8" standalone="no"?>
<!DOCTYPE svg PUBLIC "-//W3C//DTD SVG 1.1//EN"
 "http://www.w3.org/Graphics/SVG/1.1/DTD/svg11.dtd">
<!-- Generated by graphviz version 2.43.0 (0)
 -->
<!-- Title: include/tvm/ir/expr.h Pages: 1 -->
<svg width="1413pt" height="207pt"
 viewBox="0.00 0.00 1412.50 207.00" xmlns="http://www.w3.org/2000/svg" xmlns:xlink="http://www.w3.org/1999/xlink">
<g id="graph0" class="graph" transform="scale(1 1) rotate(0) translate(4 203)">
<title>include/tvm/ir/expr.h</title>
<polygon fill="white" stroke="transparent" points="-4,4 -4,-203 1408.5,-203 1408.5,4 -4,4"/>
<!-- Node1 -->
<g id="node1" class="node">
<title>Node1</title>
<g id="a_node1"><a xlink:title="Base expr nodes in TVM.">
<polygon fill="#bfbfbf" stroke="black" points="768.5,-179.5 768.5,-198.5 885.5,-198.5 885.5,-179.5 768.5,-179.5"/>
<text text-anchor="middle" x="827" y="-186.5" font-family="Helvetica,sans-Serif" font-size="10.00">include/tvm/ir/expr.h</text>
</a>
</g>
</g>
<!-- Node2 -->
<g id="node2" class="node">
<title>Node2</title>
<g id="a_node2"><a xlink:title=" ">
<polygon fill="white" stroke="#bfbfbf" points="0,-123.5 0,-142.5 136,-142.5 136,-123.5 0,-123.5"/>
<text text-anchor="middle" x="68" y="-130.5" font-family="Helvetica,sans-Serif" font-size="10.00">tvm/ffi/extra/dataclass.h</text>
</a>
</g>
</g>
<!-- Node1&#45;&gt;Node2 -->
<g id="edge1" class="edge">
<title>Node1&#45;&gt;Node2</title>
<path fill="none" stroke="midnightblue" d="M768.08,-185.12C651.49,-179.19 382.88,-164.45 146.18,-143.06"/>
<polygon fill="midnightblue" stroke="midnightblue" points="146.28,-139.56 136,-142.14 145.64,-146.53 146.28,-139.56"/>
</g>
<!-- Node3 -->
<g id="node3" class="node">
<title>Node3</title>
<g id="a_node3"><a xlink:title=" ">
<polygon fill="white" stroke="#bfbfbf" points="181,-56.5 181,-86.5 279,-86.5 279,-56.5 181,-56.5"/>
<text text-anchor="start" x="189" y="-74.5" font-family="Helvetica,sans-Serif" font-size="10.00">tvm/ffi/reflection</text>
<text text-anchor="middle" x="230" y="-63.5" font-family="Helvetica,sans-Serif" font-size="10.00">/registry.h</text>
</a>
</g>
</g>
<!-- Node1&#45;&gt;Node3 -->
<g id="edge2" class="edge">
<title>Node1&#45;&gt;Node3</title>
<path fill="none" stroke="midnightblue" d="M768.22,-185.23C690.97,-180.69 551.42,-169.37 435,-143 377.57,-129.99 313.77,-106.55 272.83,-90.29"/>
<polygon fill="midnightblue" stroke="midnightblue" points="274.03,-87 263.44,-86.52 271.42,-93.49 274.03,-87"/>
</g>
<!-- Node4 -->
<g id="node4" class="node">
<title>Node4</title>
<g id="a_node4"><a xlink:title=" ">
<polygon fill="white" stroke="#bfbfbf" points="952.5,-123.5 952.5,-142.5 1041.5,-142.5 1041.5,-123.5 952.5,-123.5"/>
<text text-anchor="middle" x="997" y="-130.5" font-family="Helvetica,sans-Serif" font-size="10.00">tvm/ffi/string.h</text>
</a>
</g>
</g>
<!-- Node1&#45;&gt;Node4 -->
<g id="edge3" class="edge">
<title>Node1&#45;&gt;Node4</title>
<path fill="none" stroke="midnightblue" d="M853.94,-179.44C882.66,-170.32 928.33,-155.81 960.32,-145.65"/>
<polygon fill="midnightblue" stroke="midnightblue" points="961.72,-148.88 970.19,-142.52 959.6,-142.21 961.72,-148.88"/>
</g>
<!-- Node5 -->
<g id="node5" class="node">
<title>Node5</title>
<g id="a_node5"><a xlink:href="cow_8h.html" target="_top" xlink:title="Copy&#45;on&#45;write helper macro for IR ffi::ObjectRef types.">
<polygon fill="white" stroke="black" points="154.5,-123.5 154.5,-142.5 231.5,-142.5 231.5,-123.5 154.5,-123.5"/>
<text text-anchor="middle" x="193" y="-130.5" font-family="Helvetica,sans-Serif" font-size="10.00">tvm/ir/cow.h</text>
</a>
</g>
</g>
<!-- Node1&#45;&gt;Node5 -->
<g id="edge4" class="edge">
<title>Node1&#45;&gt;Node5</title>
<path fill="none" stroke="midnightblue" d="M768.49,-183.02C644.53,-172.46 357.4,-148 242.16,-138.19"/>
<polygon fill="midnightblue" stroke="midnightblue" points="242.14,-134.67 231.88,-137.31 241.55,-141.65 242.14,-134.67"/>
</g>
<!-- Node8 -->
<g id="node8" class="node">
<title>Node8</title>
<g id="a_node8"><a xlink:href="source__map_8h.html" target="_top" xlink:title="A map from source names to source code.">
<polygon fill="white" stroke="black" points="444.5,-123.5 444.5,-142.5 561.5,-142.5 561.5,-123.5 444.5,-123.5"/>
<text text-anchor="middle" x="503" y="-130.5" font-family="Helvetica,sans-Serif" font-size="10.00">tvm/ir/source_map.h</text>
</a>
</g>
</g>
<!-- Node1&#45;&gt;Node8 -->
<g id="edge7" class="edge">
<title>Node1&#45;&gt;Node8</title>
<path fill="none" stroke="midnightblue" d="M775.66,-179.44C718.19,-169.87 625.13,-154.36 564,-144.17"/>
<polygon fill="midnightblue" stroke="midnightblue" points="564.54,-140.71 554.1,-142.52 563.39,-147.61 564.54,-140.71"/>
</g>
<!-- Node14 -->
<g id="node14" class="node">
<title>Node14</title>
<g id="a_node14"><a xlink:title=" ">
<polygon fill="white" stroke="#bfbfbf" points="708,-62 708,-81 752,-81 752,-62 708,-62"/>
<text text-anchor="middle" x="730" y="-69" font-family="Helvetica,sans-Serif" font-size="10.00">string</text>
</a>
</g>
</g>
<!-- Node1&#45;&gt;Node14 -->
<g id="edge28" class="edge">
<title>Node1&#45;&gt;Node14</title>
<path fill="none" stroke="midnightblue" d="M802.05,-179.5C784.73,-172.35 762.43,-160.48 749,-143 737.55,-128.1 732.99,-106.82 731.18,-91.55"/>
<polygon fill="midnightblue" stroke="midnightblue" points="734.63,-90.89 730.26,-81.24 727.66,-91.51 734.63,-90.89"/>
</g>
<!-- Node16 -->
<g id="node16" class="node">
<title>Node16</title>
<g id="a_node16"><a xlink:href="data__type_8h.html" target="_top" xlink:title=" ">
<polygon fill="white" stroke="black" points="758,-123.5 758,-142.5 896,-142.5 896,-123.5 758,-123.5"/>
<text text-anchor="middle" x="827" y="-130.5" font-family="Helvetica,sans-Serif" font-size="10.00">tvm/runtime/data_type.h</text>
</a>
</g>
</g>
<!-- Node1&#45;&gt;Node16 -->
<g id="edge17" class="edge">
<title>Node1&#45;&gt;Node16</title>
<path fill="none" stroke="midnightblue" d="M827,-179.08C827,-172.01 827,-161.86 827,-152.99"/>
<polygon fill="midnightblue" stroke="midnightblue" points="830.5,-152.75 827,-142.75 823.5,-152.75 830.5,-152.75"/>
</g>
<!-- Node21 -->
<g id="node21" class="node">
<title>Node21</title>
<g id="a_node21"><a xlink:title=" ">
<polygon fill="white" stroke="#bfbfbf" points="1335.5,-62 1335.5,-81 1404.5,-81 1404.5,-62 1335.5,-62"/>
<text text-anchor="middle" x="1370" y="-69" font-family="Helvetica,sans-Serif" font-size="10.00">type_traits</text>
</a>
</g>
</g>
<!-- Node1&#45;&gt;Node21 -->
<g id="edge29" class="edge">
<title>Node1&#45;&gt;Node21</title>
<path fill="none" stroke="midnightblue" d="M841.92,-179.26C870.96,-162.31 933.18,-126.35 944,-123 1107.32,-72.41 1159.76,-122.55 1327,-87 1330.68,-86.22 1334.49,-85.22 1338.25,-84.12"/>
<polygon fill="midnightblue" stroke="midnightblue" points="1339.49,-87.4 1347.96,-81.02 1337.36,-80.73 1339.49,-87.4"/>
</g>
<!-- Node22 -->
<g id="node22" class="node">
<title>Node22</title>
<g id="a_node22"><a xlink:title=" ">
<polygon fill="white" stroke="#bfbfbf" points="1060,-123.5 1060,-142.5 1124,-142.5 1124,-123.5 1060,-123.5"/>
<text text-anchor="middle" x="1092" y="-130.5" font-family="Helvetica,sans-Serif" font-size="10.00">algorithm</text>
</a>
</g>
</g>
<!-- Node1&#45;&gt;Node22 -->
<g id="edge25" class="edge">
<title>Node1&#45;&gt;Node22</title>
<path fill="none" stroke="midnightblue" d="M870.83,-179.44C913.9,-170.96 981.77,-157.47 1049.75,-143.23"/>
<polygon fill="midnightblue" stroke="midnightblue" points="1050.72,-146.61 1059.78,-141.13 1049.28,-139.76 1050.72,-146.61"/>
</g>
<!-- Node23 -->
<g id="node23" class="node">
<title>Node23</title>
<g id="a_node23"><a xlink:title=" ">
<polygon fill="white" stroke="#bfbfbf" points="1142.5,-123.5 1142.5,-142.5 1207.5,-142.5 1207.5,-123.5 1142.5,-123.5"/>
<text text-anchor="middle" x="1175" y="-130.5" font-family="Helvetica,sans-Serif" font-size="10.00">functional</text>
</a>
</g>
</g>
<!-- Node1&#45;&gt;Node23 -->
<g id="edge26" class="edge">
<title>Node1&#45;&gt;Node23</title>
<path fill="none" stroke="midnightblue" d="M885.56,-180.54C945.12,-172.69 1040.28,-159.45 1132.42,-143"/>
<polygon fill="midnightblue" stroke="midnightblue" points="1133.26,-146.4 1142.48,-141.19 1132.02,-139.51 1133.26,-146.4"/>
</g>
<!-- Node24 -->
<g id="node24" class="node">
<title>Node24</title>
<g id="a_node24"><a xlink:title=" ">
<polygon fill="white" stroke="#bfbfbf" points="1226,-123.5 1226,-142.5 1270,-142.5 1270,-123.5 1226,-123.5"/>
<text text-anchor="middle" x="1248" y="-130.5" font-family="Helvetica,sans-Serif" font-size="10.00">limits</text>
</a>
</g>
</g>
<!-- Node1&#45;&gt;Node24 -->
<g id="edge27" class="edge">
<title>Node1&#45;&gt;Node24</title>
<path fill="none" stroke="midnightblue" d="M885.62,-184.31C960.33,-178.93 1093.48,-167.06 1215.84,-142.93"/>
<polygon fill="midnightblue" stroke="midnightblue" points="1216.64,-146.34 1225.76,-140.94 1215.27,-139.47 1216.64,-146.34"/>
</g>
<!-- Node6 -->
<g id="node6" class="node">
<title>Node6</title>
<g id="a_node6"><a xlink:title=" ">
<polygon fill="white" stroke="#bfbfbf" points="8.5,-62 8.5,-81 99.5,-81 99.5,-62 8.5,-62"/>
<text text-anchor="middle" x="54" y="-69" font-family="Helvetica,sans-Serif" font-size="10.00">tvm/ffi/object.h</text>
</a>
</g>
</g>
<!-- Node5&#45;&gt;Node6 -->
<g id="edge5" class="edge">
<title>Node5&#45;&gt;Node6</title>
<path fill="none" stroke="midnightblue" d="M173.08,-123.48C149.55,-113.4 110.19,-96.55 83.21,-85"/>
<polygon fill="midnightblue" stroke="midnightblue" points="84.45,-81.73 73.88,-81.01 81.69,-88.16 84.45,-81.73"/>
</g>
<!-- Node7 -->
<g id="node7" class="node">
<title>Node7</title>
<g id="a_node7"><a xlink:title=" ">
<polygon fill="white" stroke="#bfbfbf" points="117.5,-62 117.5,-81 162.5,-81 162.5,-62 117.5,-62"/>
<text text-anchor="middle" x="140" y="-69" font-family="Helvetica,sans-Serif" font-size="10.00">utility</text>
</a>
</g>
</g>
<!-- Node5&#45;&gt;Node7 -->
<g id="edge6" class="edge">
<title>Node5&#45;&gt;Node7</title>
<path fill="none" stroke="midnightblue" d="M185.41,-123.48C177.3,-114.37 164.27,-99.74 154.24,-88.48"/>
<polygon fill="midnightblue" stroke="midnightblue" points="156.84,-86.15 147.58,-81.01 151.62,-90.8 156.84,-86.15"/>
</g>
<!-- Node8&#45;&gt;Node3 -->
<g id="edge10" class="edge">
<title>Node8&#45;&gt;Node3</title>
<path fill="none" stroke="midnightblue" d="M459.65,-123.44C418.28,-115.15 353.95,-101.98 289.02,-87.19"/>
<polygon fill="midnightblue" stroke="midnightblue" points="289.54,-83.72 279.02,-84.9 287.98,-90.54 289.54,-83.72"/>
</g>
<!-- Node8&#45;&gt;Node7 -->
<g id="edge15" class="edge">
<title>Node8&#45;&gt;Node7</title>
<path fill="none" stroke="midnightblue" d="M444.24,-129.16C377.23,-124.75 264.93,-113.75 172,-87 170.07,-86.44 168.1,-85.79 166.14,-85.07"/>
<polygon fill="midnightblue" stroke="midnightblue" points="167.17,-81.71 156.59,-81.12 164.49,-88.18 167.17,-81.71"/>
</g>
<!-- Node9 -->
<g id="node9" class="node">
<title>Node9</title>
<g id="a_node9"><a xlink:title=" ">
<polygon fill="white" stroke="#bfbfbf" points="436,-62 436,-81 570,-81 570,-62 436,-62"/>
<text text-anchor="middle" x="503" y="-69" font-family="Helvetica,sans-Serif" font-size="10.00">tvm/ffi/container/array.h</text>
</a>
</g>
</g>
<!-- Node8&#45;&gt;Node9 -->
<g id="edge8" class="edge">
<title>Node8&#45;&gt;Node9</title>
<path fill="none" stroke="midnightblue" d="M503,-123.48C503,-115.08 503,-101.98 503,-91.16"/>
<polygon fill="midnightblue" stroke="midnightblue" points="506.5,-91.01 503,-81.01 499.5,-91.01 506.5,-91.01"/>
</g>
<!-- Node10 -->
<g id="node10" class="node">
<title>Node10</title>
<g id="a_node10"><a xlink:title=" ">
<polygon fill="white" stroke="#bfbfbf" points="588.5,-62 588.5,-81 689.5,-81 689.5,-62 588.5,-62"/>
<text text-anchor="middle" x="639" y="-69" font-family="Helvetica,sans-Serif" font-size="10.00">tvm/ffi/function.h</text>
</a>
</g>
</g>
<!-- Node8&#45;&gt;Node10 -->
<g id="edge9" class="edge">
<title>Node8&#45;&gt;Node10</title>
<path fill="none" stroke="midnightblue" d="M522.49,-123.48C545.41,-113.45 583.69,-96.7 610.08,-85.15"/>
<polygon fill="midnightblue" stroke="midnightblue" points="611.79,-88.22 619.55,-81.01 608.99,-81.81 611.79,-88.22"/>
</g>
<!-- Node11 -->
<g id="node11" class="node">
<title>Node11</title>
<g id="a_node11"><a xlink:href="runtime_2base_8h.html" target="_top" xlink:title=" ">
<polygon fill="white" stroke="black" points="770.5,-62 770.5,-81 883.5,-81 883.5,-62 770.5,-62"/>
<text text-anchor="middle" x="827" y="-69" font-family="Helvetica,sans-Serif" font-size="10.00">tvm/runtime/base.h</text>
</a>
</g>
</g>
<!-- Node8&#45;&gt;Node11 -->
<g id="edge11" class="edge">
<title>Node8&#45;&gt;Node11</title>
<path fill="none" stroke="midnightblue" d="M556,-123.45C608.24,-114.86 690.29,-100.93 761,-87 766.9,-85.84 773.08,-84.56 779.2,-83.26"/>
<polygon fill="midnightblue" stroke="midnightblue" points="780.33,-86.6 789.36,-81.07 778.85,-79.75 780.33,-86.6"/>
</g>
<!-- Node13 -->
<g id="node13" class="node">
<title>Node13</title>
<g id="a_node13"><a xlink:title=" ">
<polygon fill="white" stroke="#bfbfbf" points="297.5,-62 297.5,-81 352.5,-81 352.5,-62 297.5,-62"/>
<text text-anchor="middle" x="325" y="-69" font-family="Helvetica,sans-Serif" font-size="10.00">fstream</text>
</a>
</g>
</g>
<!-- Node8&#45;&gt;Node13 -->
<g id="edge13" class="edge">
<title>Node8&#45;&gt;Node13</title>
<path fill="none" stroke="midnightblue" d="M473.68,-123.42C444.82,-114.81 399.58,-100.86 361,-87 359.1,-86.32 357.15,-85.59 355.18,-84.85"/>
<polygon fill="midnightblue" stroke="midnightblue" points="356.05,-81.43 345.46,-81.05 353.5,-87.95 356.05,-81.43"/>
</g>
<!-- Node8&#45;&gt;Node14 -->
<g id="edge14" class="edge">
<title>Node8&#45;&gt;Node14</title>
<path fill="none" stroke="midnightblue" d="M552.23,-123.45C592.11,-115.86 649.45,-103.42 698,-87 699.67,-86.44 701.37,-85.81 703.07,-85.16"/>
<polygon fill="midnightblue" stroke="midnightblue" points="704.79,-88.23 712.65,-81.12 702.07,-81.78 704.79,-88.23"/>
</g>
<!-- Node15 -->
<g id="node15" class="node">
<title>Node15</title>
<g id="a_node15"><a xlink:title=" ">
<polygon fill="white" stroke="#bfbfbf" points="370.5,-62 370.5,-81 417.5,-81 417.5,-62 370.5,-62"/>
<text text-anchor="middle" x="394" y="-69" font-family="Helvetica,sans-Serif" font-size="10.00">vector</text>
</a>
</g>
</g>
<!-- Node8&#45;&gt;Node15 -->
<g id="edge16" class="edge">
<title>Node8&#45;&gt;Node15</title>
<path fill="none" stroke="midnightblue" d="M487.38,-123.48C469.41,-113.67 439.68,-97.43 418.59,-85.92"/>
<polygon fill="midnightblue" stroke="midnightblue" points="420.04,-82.73 409.59,-81.01 416.69,-88.87 420.04,-82.73"/>
</g>
<!-- Node12 -->
<g id="node12" class="node">
<title>Node12</title>
<g id="a_node12"><a xlink:title=" ">
<polygon fill="white" stroke="#bfbfbf" points="784,-0.5 784,-19.5 870,-19.5 870,-0.5 784,-0.5"/>
<text text-anchor="middle" x="827" y="-7.5" font-family="Helvetica,sans-Serif" font-size="10.00">tvm/ffi/c_api.h</text>
</a>
</g>
</g>
<!-- Node11&#45;&gt;Node12 -->
<g id="edge12" class="edge">
<title>Node11&#45;&gt;Node12</title>
<path fill="none" stroke="midnightblue" d="M827,-61.98C827,-53.58 827,-40.48 827,-29.66"/>
<polygon fill="midnightblue" stroke="midnightblue" points="830.5,-29.51 827,-19.51 823.5,-29.51 830.5,-29.51"/>
</g>
<!-- Node16&#45;&gt;Node11 -->
<g id="edge21" class="edge">
<title>Node16&#45;&gt;Node11</title>
<path fill="none" stroke="midnightblue" d="M827,-123.48C827,-115.08 827,-101.98 827,-91.16"/>
<polygon fill="midnightblue" stroke="midnightblue" points="830.5,-91.01 827,-81.01 823.5,-91.01 830.5,-91.01"/>
</g>
<!-- Node16&#45;&gt;Node14 -->
<g id="edge23" class="edge">
<title>Node16&#45;&gt;Node14</title>
<path fill="none" stroke="midnightblue" d="M813.1,-123.48C797.33,-113.8 771.36,-97.87 752.65,-86.39"/>
<polygon fill="midnightblue" stroke="midnightblue" points="754.23,-83.25 743.87,-81.01 750.57,-89.22 754.23,-83.25"/>
</g>
<!-- Node17 -->
<g id="node17" class="node">
<title>Node17</title>
<g id="a_node17"><a xlink:title=" ">
<polygon fill="white" stroke="#bfbfbf" points="1071.5,-62 1071.5,-81 1210.5,-81 1210.5,-62 1071.5,-62"/>
<text text-anchor="middle" x="1141" y="-69" font-family="Helvetica,sans-Serif" font-size="10.00">tvm/ffi/container/shape.h</text>
</a>
</g>
</g>
<!-- Node16&#45;&gt;Node17 -->
<g id="edge18" class="edge">
<title>Node16&#45;&gt;Node17</title>
<path fill="none" stroke="midnightblue" d="M871.99,-123.48C928.42,-112.78 1025.12,-94.46 1085.92,-82.94"/>
<polygon fill="midnightblue" stroke="midnightblue" points="1086.92,-86.31 1096.09,-81.01 1085.62,-79.43 1086.92,-86.31"/>
</g>
<!-- Node18 -->
<g id="node18" class="node">
<title>Node18</title>
<g id="a_node18"><a xlink:title=" ">
<polygon fill="white" stroke="#bfbfbf" points="1228.5,-62 1228.5,-81 1317.5,-81 1317.5,-62 1228.5,-62"/>
<text text-anchor="middle" x="1273" y="-69" font-family="Helvetica,sans-Serif" font-size="10.00">tvm/ffi/dtype.h</text>
</a>
</g>
</g>
<!-- Node16&#45;&gt;Node18 -->
<g id="edge19" class="edge">
<title>Node16&#45;&gt;Node18</title>
<path fill="none" stroke="midnightblue" d="M896,-124.38C1004.5,-112.35 1204.34,-90.02 1220,-87 1224.84,-86.07 1229.88,-84.92 1234.85,-83.68"/>
<polygon fill="midnightblue" stroke="midnightblue" points="1236.07,-86.98 1244.86,-81.06 1234.3,-80.21 1236.07,-86.98"/>
</g>
<!-- Node19 -->
<g id="node19" class="node">
<title>Node19</title>
<g id="a_node19"><a xlink:title=" ">
<polygon fill="white" stroke="#bfbfbf" points="901.5,-62 901.5,-81 984.5,-81 984.5,-62 901.5,-62"/>
<text text-anchor="middle" x="943" y="-69" font-family="Helvetica,sans-Serif" font-size="10.00">tvm/ffi/error.h</text>
</a>
</g>
</g>
<!-- Node16&#45;&gt;Node19 -->
<g id="edge20" class="edge">
<title>Node16&#45;&gt;Node19</title>
<path fill="none" stroke="midnightblue" d="M843.62,-123.48C862.92,-113.58 894.96,-97.14 917.43,-85.62"/>
<polygon fill="midnightblue" stroke="midnightblue" points="919.11,-88.69 926.41,-81.01 915.92,-82.46 919.11,-88.69"/>
</g>
<!-- Node20 -->
<g id="node20" class="node">
<title>Node20</title>
<g id="a_node20"><a xlink:title=" ">
<polygon fill="white" stroke="#bfbfbf" points="1003,-62 1003,-81 1053,-81 1053,-62 1003,-62"/>
<text text-anchor="middle" x="1028" y="-69" font-family="Helvetica,sans-Serif" font-size="10.00">cstring</text>
</a>
</g>
</g>
<!-- Node16&#45;&gt;Node20 -->
<g id="edge22" class="edge">
<title>Node16&#45;&gt;Node20</title>
<path fill="none" stroke="midnightblue" d="M864.6,-123.46C898.74,-115.34 950.3,-102.12 994,-87 995.86,-86.35 997.77,-85.66 999.68,-84.92"/>
<polygon fill="midnightblue" stroke="midnightblue" points="1001.17,-88.1 1009.12,-81.1 998.54,-81.61 1001.17,-88.1"/>
</g>
<!-- Node16&#45;&gt;Node21 -->
<g id="edge24" class="edge">
<title>Node16&#45;&gt;Node21</title>
<path fill="none" stroke="midnightblue" d="M896.28,-124.37C900.92,-123.9 905.53,-123.44 910,-123 1095.15,-104.97 1144.9,-124.99 1327,-87 1330.69,-86.23 1334.5,-85.24 1338.26,-84.15"/>
<polygon fill="midnightblue" stroke="midnightblue" points="1339.49,-87.42 1347.96,-81.06 1337.37,-80.75 1339.49,-87.42"/>
</g>
</g>
</svg>
