<?xml version="1.0" encoding="UTF-8" standalone="no"?>
<!DOCTYPE svg PUBLIC "-//W3C//DTD SVG 1.1//EN"
 "http://www.w3.org/Graphics/SVG/1.1/DTD/svg11.dtd">
<!-- Generated by graphviz version 2.43.0 (0)
 -->
<!-- Title: include/tvm/ir/function.h Pages: 1 -->
<svg width="1789pt" height="330pt"
 viewBox="0.00 0.00 1788.50 330.00" xmlns="http://www.w3.org/2000/svg" xmlns:xlink="http://www.w3.org/1999/xlink">
<g id="graph0" class="graph" transform="scale(1 1) rotate(0) translate(4 326)">
<title>include/tvm/ir/function.h</title>
<polygon fill="white" stroke="transparent" points="-4,4 -4,-326 1784.5,-326 1784.5,4 -4,4"/>
<!-- Node1 -->
<g id="node1" class="node">
<title>Node1</title>
<g id="a_node1"><a xlink:title="Function nodes.">
<polygon fill="#bfbfbf" stroke="black" points="534,-302.5 534,-321.5 670,-321.5 670,-302.5 534,-302.5"/>
<text text-anchor="middle" x="602" y="-309.5" font-family="Helvetica,sans-Serif" font-size="10.00">include/tvm/ir/function.h</text>
</a>
</g>
</g>
<!-- Node2 -->
<g id="node2" class="node">
<title>Node2</title>
<g id="a_node2"><a xlink:title=" ">
<polygon fill="white" stroke="#bfbfbf" points="0,-62 0,-81 134,-81 134,-62 0,-62"/>
<text text-anchor="middle" x="67" y="-69" font-family="Helvetica,sans-Serif" font-size="10.00">tvm/ffi/container/array.h</text>
</a>
</g>
</g>
<!-- Node1&#45;&gt;Node2 -->
<g id="edge1" class="edge">
<title>Node1&#45;&gt;Node2</title>
<path fill="none" stroke="midnightblue" d="M533.55,-310.22C414.43,-307.99 174.38,-299.36 98,-266 63.97,-251.14 51.08,-243.93 36,-210 17.94,-169.35 41.16,-117.1 56.14,-90.22"/>
<polygon fill="midnightblue" stroke="midnightblue" points="59.36,-91.64 61.37,-81.24 53.31,-88.12 59.36,-91.64"/>
</g>
<!-- Node3 -->
<g id="node3" class="node">
<title>Node3</title>
<g id="a_node3"><a xlink:title=" ">
<polygon fill="white" stroke="#bfbfbf" points="55.5,-185 55.5,-204 186.5,-204 186.5,-185 55.5,-185"/>
<text text-anchor="middle" x="121" y="-192" font-family="Helvetica,sans-Serif" font-size="10.00">tvm/ffi/container/map.h</text>
</a>
</g>
</g>
<!-- Node1&#45;&gt;Node3 -->
<g id="edge2" class="edge">
<title>Node1&#45;&gt;Node3</title>
<path fill="none" stroke="midnightblue" d="M566.24,-302.41C480.22,-281.76 261.82,-229.31 166.58,-206.44"/>
<polygon fill="midnightblue" stroke="midnightblue" points="167.21,-203 156.67,-204.06 165.58,-209.8 167.21,-203"/>
</g>
<!-- Node4 -->
<g id="node4" class="node">
<title>Node4</title>
<g id="a_node4"><a xlink:title=" ">
<polygon fill="white" stroke="#bfbfbf" points="262.5,-123.5 262.5,-142.5 351.5,-142.5 351.5,-123.5 262.5,-123.5"/>
<text text-anchor="middle" x="307" y="-130.5" font-family="Helvetica,sans-Serif" font-size="10.00">tvm/ffi/string.h</text>
</a>
</g>
</g>
<!-- Node1&#45;&gt;Node4 -->
<g id="edge3" class="edge">
<title>Node1&#45;&gt;Node4</title>
<path fill="none" stroke="midnightblue" d="M533.98,-309.17C399.4,-303.95 106.91,-284.15 46,-210 37.25,-199.35 37.12,-189.54 46,-179 71.82,-148.35 183.47,-138.58 252.11,-135.46"/>
<polygon fill="midnightblue" stroke="midnightblue" points="252.48,-138.95 262.32,-135.03 252.18,-131.95 252.48,-138.95"/>
</g>
<!-- Node5 -->
<g id="node5" class="node">
<title>Node5</title>
<g id="a_node5"><a xlink:href="attrs_8h.html" target="_top" xlink:title="Helpers for attribute objects.">
<polygon fill="white" stroke="black" points="562,-246.5 562,-265.5 642,-265.5 642,-246.5 562,-246.5"/>
<text text-anchor="middle" x="602" y="-253.5" font-family="Helvetica,sans-Serif" font-size="10.00">tvm/ir/attrs.h</text>
</a>
</g>
</g>
<!-- Node1&#45;&gt;Node5 -->
<g id="edge4" class="edge">
<title>Node1&#45;&gt;Node5</title>
<path fill="none" stroke="midnightblue" d="M602,-302.08C602,-295.01 602,-284.86 602,-275.99"/>
<polygon fill="midnightblue" stroke="midnightblue" points="605.5,-275.75 602,-265.75 598.5,-275.75 605.5,-275.75"/>
</g>
<!-- Node13 -->
<g id="node13" class="node">
<title>Node13</title>
<g id="a_node13"><a xlink:href="ir_2expr_8h.html" target="_top" xlink:title="Base expr nodes in TVM.">
<polygon fill="white" stroke="black" points="900.5,-185 900.5,-204 979.5,-204 979.5,-185 900.5,-185"/>
<text text-anchor="middle" x="940" y="-192" font-family="Helvetica,sans-Serif" font-size="10.00">tvm/ir/expr.h</text>
</a>
</g>
</g>
<!-- Node1&#45;&gt;Node13 -->
<g id="edge53" class="edge">
<title>Node1&#45;&gt;Node13</title>
<path fill="none" stroke="midnightblue" d="M670.1,-303.1C714.44,-296.51 772.93,-285.04 822,-266 858.96,-251.66 897.64,-226.25 920.24,-210.17"/>
<polygon fill="midnightblue" stroke="midnightblue" points="922.57,-212.8 928.62,-204.11 918.47,-207.13 922.57,-212.8"/>
</g>
<!-- Node25 -->
<g id="node25" class="node">
<title>Node25</title>
<g id="a_node25"><a xlink:title=" ">
<polygon fill="white" stroke="#bfbfbf" points="662,-62 662,-81 706,-81 706,-62 662,-62"/>
<text text-anchor="middle" x="684" y="-69" font-family="Helvetica,sans-Serif" font-size="10.00">string</text>
</a>
</g>
</g>
<!-- Node1&#45;&gt;Node25 -->
<g id="edge54" class="edge">
<title>Node1&#45;&gt;Node25</title>
<path fill="none" stroke="midnightblue" d="M617.13,-302.49C642.08,-287.49 691.18,-253.78 712,-210 728.62,-175.04 726.79,-160.17 716,-123 712.41,-110.61 704.76,-98.35 697.84,-89.01"/>
<polygon fill="midnightblue" stroke="midnightblue" points="700.52,-86.75 691.59,-81.04 695.01,-91.07 700.52,-86.75"/>
</g>
<!-- Node30 -->
<g id="node30" class="node">
<title>Node30</title>
<g id="a_node30"><a xlink:title=" ">
<polygon fill="white" stroke="#bfbfbf" points="1711.5,-62 1711.5,-81 1780.5,-81 1780.5,-62 1711.5,-62"/>
<text text-anchor="middle" x="1746" y="-69" font-family="Helvetica,sans-Serif" font-size="10.00">type_traits</text>
</a>
</g>
</g>
<!-- Node1&#45;&gt;Node30 -->
<g id="edge55" class="edge">
<title>Node1&#45;&gt;Node30</title>
<path fill="none" stroke="midnightblue" d="M670.12,-305.23C806.76,-292.98 1123.7,-261.27 1386,-210 1500.58,-187.61 1533.51,-190.86 1640,-143 1673.01,-128.16 1707.17,-103.46 1727.49,-87.58"/>
<polygon fill="midnightblue" stroke="midnightblue" points="1729.9,-90.14 1735.56,-81.17 1725.55,-84.65 1729.9,-90.14"/>
</g>
<!-- Node5&#45;&gt;Node3 -->
<g id="edge5" class="edge">
<title>Node5&#45;&gt;Node3</title>
<path fill="none" stroke="midnightblue" d="M561.76,-251.39C489.38,-244.7 332.52,-229.28 201,-210 192.57,-208.76 183.66,-207.3 174.98,-205.8"/>
<polygon fill="midnightblue" stroke="midnightblue" points="175.38,-202.31 164.93,-204.01 174.16,-209.21 175.38,-202.31"/>
</g>
<!-- Node6 -->
<g id="node6" class="node">
<title>Node6</title>
<g id="a_node6"><a xlink:title=" ">
<polygon fill="white" stroke="#bfbfbf" points="243.5,-179.5 243.5,-209.5 370.5,-209.5 370.5,-179.5 243.5,-179.5"/>
<text text-anchor="start" x="251.5" y="-197.5" font-family="Helvetica,sans-Serif" font-size="10.00">tvm/ffi/extra/structural</text>
<text text-anchor="middle" x="307" y="-186.5" font-family="Helvetica,sans-Serif" font-size="10.00">_equal.h</text>
</a>
</g>
</g>
<!-- Node5&#45;&gt;Node6 -->
<g id="edge6" class="edge">
<title>Node5&#45;&gt;Node6</title>
<path fill="none" stroke="midnightblue" d="M561.91,-246.91C515.47,-237.55 438,-221.92 380.63,-210.35"/>
<polygon fill="midnightblue" stroke="midnightblue" points="381.02,-206.86 370.52,-208.31 379.63,-213.72 381.02,-206.86"/>
</g>
<!-- Node7 -->
<g id="node7" class="node">
<title>Node7</title>
<g id="a_node7"><a xlink:title=" ">
<polygon fill="white" stroke="#bfbfbf" points="538.5,-179.5 538.5,-209.5 665.5,-209.5 665.5,-179.5 538.5,-179.5"/>
<text text-anchor="start" x="546.5" y="-197.5" font-family="Helvetica,sans-Serif" font-size="10.00">tvm/ffi/extra/structural</text>
<text text-anchor="middle" x="602" y="-186.5" font-family="Helvetica,sans-Serif" font-size="10.00">_hash.h</text>
</a>
</g>
</g>
<!-- Node5&#45;&gt;Node7 -->
<g id="edge7" class="edge">
<title>Node5&#45;&gt;Node7</title>
<path fill="none" stroke="midnightblue" d="M602,-246.48C602,-239.47 602,-229.19 602,-219.7"/>
<polygon fill="midnightblue" stroke="midnightblue" points="605.5,-219.52 602,-209.52 598.5,-219.52 605.5,-219.52"/>
</g>
<!-- Node8 -->
<g id="node8" class="node">
<title>Node8</title>
<g id="a_node8"><a xlink:title=" ">
<polygon fill="white" stroke="#bfbfbf" points="197.5,-62 197.5,-81 298.5,-81 298.5,-62 197.5,-62"/>
<text text-anchor="middle" x="248" y="-69" font-family="Helvetica,sans-Serif" font-size="10.00">tvm/ffi/function.h</text>
</a>
</g>
</g>
<!-- Node5&#45;&gt;Node8 -->
<g id="edge8" class="edge">
<title>Node5&#45;&gt;Node8</title>
<path fill="none" stroke="midnightblue" d="M561.99,-253.05C471.14,-248.22 255.49,-234.28 234,-210 204.54,-176.72 225.05,-119.6 238.63,-90.57"/>
<polygon fill="midnightblue" stroke="midnightblue" points="241.95,-91.77 243.22,-81.25 235.67,-88.68 241.95,-91.77"/>
</g>
<!-- Node9 -->
<g id="node9" class="node">
<title>Node9</title>
<g id="a_node9"><a xlink:title=" ">
<polygon fill="white" stroke="#bfbfbf" points="344,-56.5 344,-86.5 442,-86.5 442,-56.5 344,-56.5"/>
<text text-anchor="start" x="352" y="-74.5" font-family="Helvetica,sans-Serif" font-size="10.00">tvm/ffi/reflection</text>
<text text-anchor="middle" x="393" y="-63.5" font-family="Helvetica,sans-Serif" font-size="10.00">/registry.h</text>
</a>
</g>
</g>
<!-- Node5&#45;&gt;Node9 -->
<g id="edge9" class="edge">
<title>Node5&#45;&gt;Node9</title>
<path fill="none" stroke="midnightblue" d="M561.83,-250.29C513.78,-243.83 437.39,-230.59 418,-210 389.26,-179.48 387.93,-127.52 390.1,-96.97"/>
<polygon fill="midnightblue" stroke="midnightblue" points="393.6,-97.03 391.01,-86.76 386.63,-96.41 393.6,-97.03"/>
</g>
<!-- Node10 -->
<g id="node10" class="node">
<title>Node10</title>
<g id="a_node10"><a xlink:href="cow_8h.html" target="_top" xlink:title="Copy&#45;on&#45;write helper macro for IR ffi::ObjectRef types.">
<polygon fill="white" stroke="black" points="798.5,-123.5 798.5,-142.5 875.5,-142.5 875.5,-123.5 798.5,-123.5"/>
<text text-anchor="middle" x="837" y="-130.5" font-family="Helvetica,sans-Serif" font-size="10.00">tvm/ir/cow.h</text>
</a>
</g>
</g>
<!-- Node5&#45;&gt;Node10 -->
<g id="edge10" class="edge">
<title>Node5&#45;&gt;Node10</title>
<path fill="none" stroke="midnightblue" d="M642.18,-246.92C672.04,-239.87 713.12,-227.94 746,-210 775.66,-193.82 804.7,-167.15 821.72,-150.08"/>
<polygon fill="midnightblue" stroke="midnightblue" points="824.57,-152.17 829.05,-142.57 819.56,-147.28 824.57,-152.17"/>
</g>
<!-- Node12 -->
<g id="node12" class="node">
<title>Node12</title>
<g id="a_node12"><a xlink:title=" ">
<polygon fill="white" stroke="#bfbfbf" points="598.5,-62 598.5,-81 643.5,-81 643.5,-62 598.5,-62"/>
<text text-anchor="middle" x="621" y="-69" font-family="Helvetica,sans-Serif" font-size="10.00">utility</text>
</a>
</g>
</g>
<!-- Node5&#45;&gt;Node12 -->
<g id="edge52" class="edge">
<title>Node5&#45;&gt;Node12</title>
<path fill="none" stroke="midnightblue" d="M627.5,-246.47C643.99,-239.48 664.14,-227.79 674,-210 696.94,-168.61 659.06,-115.24 636.27,-88.82"/>
<polygon fill="midnightblue" stroke="midnightblue" points="638.77,-86.36 629.5,-81.24 633.55,-91.03 638.77,-86.36"/>
</g>
<!-- Node5&#45;&gt;Node13 -->
<g id="edge13" class="edge">
<title>Node5&#45;&gt;Node13</title>
<path fill="none" stroke="midnightblue" d="M642.1,-247.94C704.14,-237.02 823.24,-216.05 890.54,-204.21"/>
<polygon fill="midnightblue" stroke="midnightblue" points="891.23,-207.64 900.47,-202.46 890.02,-200.74 891.23,-207.64"/>
</g>
<!-- Node5&#45;&gt;Node25 -->
<g id="edge49" class="edge">
<title>Node5&#45;&gt;Node25</title>
<path fill="none" stroke="midnightblue" d="M639.1,-246.46C658.44,-239.92 680.43,-228.72 692,-210 714.97,-172.83 701.07,-118.66 691.23,-90.7"/>
<polygon fill="midnightblue" stroke="midnightblue" points="694.41,-89.2 687.63,-81.06 687.85,-91.65 694.41,-89.2"/>
</g>
<!-- Node5&#45;&gt;Node30 -->
<g id="edge50" class="edge">
<title>Node5&#45;&gt;Node30</title>
<path fill="none" stroke="midnightblue" d="M642.03,-255.38C779.01,-255.67 1240.55,-248.27 1602,-143 1647.42,-129.77 1696,-103.03 1723.53,-86.55"/>
<polygon fill="midnightblue" stroke="midnightblue" points="1725.62,-89.38 1732.35,-81.19 1721.98,-83.4 1725.62,-89.38"/>
</g>
<!-- Node34 -->
<g id="node34" class="node">
<title>Node34</title>
<g id="a_node34"><a xlink:title=" ">
<polygon fill="white" stroke="#bfbfbf" points="427.5,-185 427.5,-204 520.5,-204 520.5,-185 427.5,-185"/>
<text text-anchor="middle" x="474" y="-192" font-family="Helvetica,sans-Serif" font-size="10.00">unordered_map</text>
</a>
</g>
</g>
<!-- Node5&#45;&gt;Node34 -->
<g id="edge51" class="edge">
<title>Node5&#45;&gt;Node34</title>
<path fill="none" stroke="midnightblue" d="M583.66,-246.48C562.18,-236.49 526.38,-219.85 501.55,-208.31"/>
<polygon fill="midnightblue" stroke="midnightblue" points="502.85,-205.05 492.31,-204.01 499.9,-211.4 502.85,-205.05"/>
</g>
<!-- Node11 -->
<g id="node11" class="node">
<title>Node11</title>
<g id="a_node11"><a xlink:title=" ">
<polygon fill="white" stroke="#bfbfbf" points="724.5,-62 724.5,-81 815.5,-81 815.5,-62 724.5,-62"/>
<text text-anchor="middle" x="770" y="-69" font-family="Helvetica,sans-Serif" font-size="10.00">tvm/ffi/object.h</text>
</a>
</g>
</g>
<!-- Node10&#45;&gt;Node11 -->
<g id="edge11" class="edge">
<title>Node10&#45;&gt;Node11</title>
<path fill="none" stroke="midnightblue" d="M827.4,-123.48C816.95,-114.2 800.03,-99.17 787.26,-87.83"/>
<polygon fill="midnightblue" stroke="midnightblue" points="789.38,-85.03 779.58,-81.01 784.73,-90.27 789.38,-85.03"/>
</g>
<!-- Node10&#45;&gt;Node12 -->
<g id="edge12" class="edge">
<title>Node10&#45;&gt;Node12</title>
<path fill="none" stroke="midnightblue" d="M798.34,-124.72C760.69,-117.13 702.11,-103.97 653,-87 651.34,-86.42 649.64,-85.8 647.94,-85.13"/>
<polygon fill="midnightblue" stroke="midnightblue" points="648.94,-81.75 638.37,-81.08 646.21,-88.2 648.94,-81.75"/>
</g>
<!-- Node13&#45;&gt;Node4 -->
<g id="edge16" class="edge">
<title>Node13&#45;&gt;Node4</title>
<path fill="none" stroke="midnightblue" d="M900.4,-189.78C791.41,-179.53 486.81,-150.9 361.7,-139.14"/>
<polygon fill="midnightblue" stroke="midnightblue" points="361.87,-135.64 351.58,-138.19 361.21,-142.61 361.87,-135.64"/>
</g>
<!-- Node13&#45;&gt;Node9 -->
<g id="edge15" class="edge">
<title>Node13&#45;&gt;Node9</title>
<path fill="none" stroke="midnightblue" d="M900.26,-191.82C803.89,-187.32 560.13,-173.2 485,-143 457.48,-131.94 431.14,-110.24 413.76,-93.82"/>
<polygon fill="midnightblue" stroke="midnightblue" points="416.04,-91.16 406.43,-86.7 411.16,-96.18 416.04,-91.16"/>
</g>
<!-- Node13&#45;&gt;Node10 -->
<g id="edge25" class="edge">
<title>Node13&#45;&gt;Node10</title>
<path fill="none" stroke="midnightblue" d="M925.24,-184.98C908.34,-175.21 880.42,-159.08 860.51,-147.58"/>
<polygon fill="midnightblue" stroke="midnightblue" points="862.14,-144.48 851.73,-142.51 858.64,-150.54 862.14,-144.48"/>
</g>
<!-- Node14 -->
<g id="node14" class="node">
<title>Node14</title>
<g id="a_node14"><a xlink:title=" ">
<polygon fill="white" stroke="#bfbfbf" points="1028,-123.5 1028,-142.5 1164,-142.5 1164,-123.5 1028,-123.5"/>
<text text-anchor="middle" x="1096" y="-130.5" font-family="Helvetica,sans-Serif" font-size="10.00">tvm/ffi/extra/dataclass.h</text>
</a>
</g>
</g>
<!-- Node13&#45;&gt;Node14 -->
<g id="edge14" class="edge">
<title>Node13&#45;&gt;Node14</title>
<path fill="none" stroke="midnightblue" d="M962.35,-184.98C988.99,-174.81 1033.71,-157.76 1064.01,-146.2"/>
<polygon fill="midnightblue" stroke="midnightblue" points="1065.59,-149.34 1073.69,-142.51 1063.1,-142.8 1065.59,-149.34"/>
</g>
<!-- Node15 -->
<g id="node15" class="node">
<title>Node15</title>
<g id="a_node15"><a xlink:href="cast_8h.html" target="_top" xlink:title="Value casting helpers.">
<polygon fill="white" stroke="black" points="932,-123.5 932,-142.5 1010,-142.5 1010,-123.5 932,-123.5"/>
<text text-anchor="middle" x="971" y="-130.5" font-family="Helvetica,sans-Serif" font-size="10.00">tvm/ir/cast.h</text>
</a>
</g>
</g>
<!-- Node13&#45;&gt;Node15 -->
<g id="edge17" class="edge">
<title>Node13&#45;&gt;Node15</title>
<path fill="none" stroke="midnightblue" d="M944.44,-184.98C948.95,-176.32 956.07,-162.65 961.81,-151.65"/>
<polygon fill="midnightblue" stroke="midnightblue" points="965.05,-152.99 966.57,-142.51 958.84,-149.76 965.05,-152.99"/>
</g>
<!-- Node21 -->
<g id="node21" class="node">
<title>Node21</title>
<g id="a_node21"><a xlink:href="source__map_8h.html" target="_top" xlink:title="A map from source names to source code.">
<polygon fill="white" stroke="black" points="494.5,-123.5 494.5,-142.5 611.5,-142.5 611.5,-123.5 494.5,-123.5"/>
<text text-anchor="middle" x="553" y="-130.5" font-family="Helvetica,sans-Serif" font-size="10.00">tvm/ir/source_map.h</text>
</a>
</g>
</g>
<!-- Node13&#45;&gt;Node21 -->
<g id="edge26" class="edge">
<title>Node13&#45;&gt;Node21</title>
<path fill="none" stroke="midnightblue" d="M900.4,-187.41C833.9,-177.19 699.13,-156.47 618.39,-144.05"/>
<polygon fill="midnightblue" stroke="midnightblue" points="618.75,-140.57 608.34,-142.51 617.69,-147.49 618.75,-140.57"/>
</g>
<!-- Node13&#45;&gt;Node25 -->
<g id="edge47" class="edge">
<title>Node13&#45;&gt;Node25</title>
<path fill="none" stroke="midnightblue" d="M935.79,-184.98C927.86,-169.9 909.25,-138.64 884,-123 818.72,-82.55 787.81,-111.43 715,-87 713.33,-86.44 711.64,-85.82 709.95,-85.15"/>
<polygon fill="midnightblue" stroke="midnightblue" points="711.01,-81.8 700.45,-81.04 708.23,-88.23 711.01,-81.8"/>
</g>
<!-- Node27 -->
<g id="node27" class="node">
<title>Node27</title>
<g id="a_node27"><a xlink:href="data__type_8h.html" target="_top" xlink:title=" ">
<polygon fill="white" stroke="black" points="1182,-123.5 1182,-142.5 1320,-142.5 1320,-123.5 1182,-123.5"/>
<text text-anchor="middle" x="1251" y="-130.5" font-family="Helvetica,sans-Serif" font-size="10.00">tvm/runtime/data_type.h</text>
</a>
</g>
</g>
<!-- Node13&#45;&gt;Node27 -->
<g id="edge36" class="edge">
<title>Node13&#45;&gt;Node27</title>
<path fill="none" stroke="midnightblue" d="M979.7,-185.9C1034.77,-175.37 1134.53,-156.28 1196.53,-144.42"/>
<polygon fill="midnightblue" stroke="midnightblue" points="1197.35,-147.83 1206.51,-142.51 1196.03,-140.95 1197.35,-147.83"/>
</g>
<!-- Node13&#45;&gt;Node30 -->
<g id="edge48" class="edge">
<title>Node13&#45;&gt;Node30</title>
<path fill="none" stroke="midnightblue" d="M979.54,-194C1078.26,-194.45 1343,-190.71 1557,-143 1616.68,-129.7 1682.86,-101.75 1718.92,-85.32"/>
<polygon fill="midnightblue" stroke="midnightblue" points="1720.64,-88.38 1728.26,-81.01 1717.71,-82.02 1720.64,-88.38"/>
</g>
<!-- Node31 -->
<g id="node31" class="node">
<title>Node31</title>
<g id="a_node31"><a xlink:title=" ">
<polygon fill="white" stroke="#bfbfbf" points="1338,-123.5 1338,-142.5 1402,-142.5 1402,-123.5 1338,-123.5"/>
<text text-anchor="middle" x="1370" y="-130.5" font-family="Helvetica,sans-Serif" font-size="10.00">algorithm</text>
</a>
</g>
</g>
<!-- Node13&#45;&gt;Node31 -->
<g id="edge44" class="edge">
<title>Node13&#45;&gt;Node31</title>
<path fill="none" stroke="midnightblue" d="M979.65,-189.5C1048.48,-182.32 1194.67,-165.96 1327.85,-143.07"/>
<polygon fill="midnightblue" stroke="midnightblue" points="1328.57,-146.5 1337.82,-141.34 1327.37,-139.6 1328.57,-146.5"/>
</g>
<!-- Node32 -->
<g id="node32" class="node">
<title>Node32</title>
<g id="a_node32"><a xlink:title=" ">
<polygon fill="white" stroke="#bfbfbf" points="1420.5,-123.5 1420.5,-142.5 1485.5,-142.5 1485.5,-123.5 1420.5,-123.5"/>
<text text-anchor="middle" x="1453" y="-130.5" font-family="Helvetica,sans-Serif" font-size="10.00">functional</text>
</a>
</g>
</g>
<!-- Node13&#45;&gt;Node32 -->
<g id="edge45" class="edge">
<title>Node13&#45;&gt;Node32</title>
<path fill="none" stroke="midnightblue" d="M979.57,-190.66C1059.13,-184.65 1244.25,-169.13 1409.68,-143.05"/>
<polygon fill="midnightblue" stroke="midnightblue" points="1410.72,-146.43 1420.05,-141.4 1409.62,-139.52 1410.72,-146.43"/>
</g>
<!-- Node33 -->
<g id="node33" class="node">
<title>Node33</title>
<g id="a_node33"><a xlink:title=" ">
<polygon fill="white" stroke="#bfbfbf" points="1504,-123.5 1504,-142.5 1548,-142.5 1548,-123.5 1504,-123.5"/>
<text text-anchor="middle" x="1526" y="-130.5" font-family="Helvetica,sans-Serif" font-size="10.00">limits</text>
</a>
</g>
</g>
<!-- Node13&#45;&gt;Node33 -->
<g id="edge46" class="edge">
<title>Node13&#45;&gt;Node33</title>
<path fill="none" stroke="midnightblue" d="M979.73,-192.5C1069.81,-189.66 1296.45,-179.39 1493.8,-142.88"/>
<polygon fill="midnightblue" stroke="midnightblue" points="1494.59,-146.29 1503.77,-141.01 1493.3,-139.41 1494.59,-146.29"/>
</g>
<!-- Node15&#45;&gt;Node11 -->
<g id="edge22" class="edge">
<title>Node15&#45;&gt;Node11</title>
<path fill="none" stroke="midnightblue" d="M942.2,-123.48C907.13,-113.09 847.74,-95.51 808.69,-83.95"/>
<polygon fill="midnightblue" stroke="midnightblue" points="809.33,-80.49 798.74,-81.01 807.34,-87.2 809.33,-80.49"/>
</g>
<!-- Node15&#45;&gt;Node12 -->
<g id="edge24" class="edge">
<title>Node15&#45;&gt;Node12</title>
<path fill="none" stroke="midnightblue" d="M931.81,-127.86C858.77,-119.93 704.6,-102.01 653,-87 651.07,-86.44 649.1,-85.78 647.14,-85.06"/>
<polygon fill="midnightblue" stroke="midnightblue" points="648.18,-81.7 637.6,-81.1 645.49,-88.17 648.18,-81.7"/>
</g>
<!-- Node16 -->
<g id="node16" class="node">
<title>Node16</title>
<g id="a_node16"><a xlink:title=" ">
<polygon fill="white" stroke="#bfbfbf" points="1083.5,-62 1083.5,-81 1160.5,-81 1160.5,-62 1083.5,-62"/>
<text text-anchor="middle" x="1122" y="-69" font-family="Helvetica,sans-Serif" font-size="10.00">tvm/ffi/any.h</text>
</a>
</g>
</g>
<!-- Node15&#45;&gt;Node16 -->
<g id="edge18" class="edge">
<title>Node15&#45;&gt;Node16</title>
<path fill="none" stroke="midnightblue" d="M992.63,-123.48C1018.42,-113.31 1061.71,-96.26 1091.04,-84.7"/>
<polygon fill="midnightblue" stroke="midnightblue" points="1092.38,-87.93 1100.41,-81.01 1089.82,-81.42 1092.38,-87.93"/>
</g>
<!-- Node17 -->
<g id="node17" class="node">
<title>Node17</title>
<g id="a_node17"><a xlink:title=" ">
<polygon fill="white" stroke="#bfbfbf" points="1178.5,-62 1178.5,-81 1259.5,-81 1259.5,-62 1178.5,-62"/>
<text text-anchor="middle" x="1219" y="-69" font-family="Helvetica,sans-Serif" font-size="10.00">tvm/ffi/cast.h</text>
</a>
</g>
</g>
<!-- Node15&#45;&gt;Node17 -->
<g id="edge19" class="edge">
<title>Node15&#45;&gt;Node17</title>
<path fill="none" stroke="midnightblue" d="M1010.08,-123.95C1050.33,-115.48 1114.82,-101.39 1170,-87 1173.8,-86.01 1177.76,-84.93 1181.7,-83.81"/>
<polygon fill="midnightblue" stroke="midnightblue" points="1182.72,-87.16 1191.36,-81.02 1180.78,-80.43 1182.72,-87.16"/>
</g>
<!-- Node18 -->
<g id="node18" class="node">
<title>Node18</title>
<g id="a_node18"><a xlink:title=" ">
<polygon fill="white" stroke="#bfbfbf" points="1378.5,-62 1378.5,-81 1467.5,-81 1467.5,-62 1378.5,-62"/>
<text text-anchor="middle" x="1423" y="-69" font-family="Helvetica,sans-Serif" font-size="10.00">tvm/ffi/dtype.h</text>
</a>
</g>
</g>
<!-- Node15&#45;&gt;Node18 -->
<g id="edge20" class="edge">
<title>Node15&#45;&gt;Node18</title>
<path fill="none" stroke="midnightblue" d="M1010.25,-124.37C1013.21,-123.88 1016.15,-123.41 1019,-123 1174.2,-100.53 1215.85,-115.79 1370,-87 1375.03,-86.06 1380.28,-84.88 1385.43,-83.6"/>
<polygon fill="midnightblue" stroke="midnightblue" points="1386.36,-86.97 1395.14,-81.05 1384.58,-80.2 1386.36,-86.97"/>
</g>
<!-- Node19 -->
<g id="node19" class="node">
<title>Node19</title>
<g id="a_node19"><a xlink:title=" ">
<polygon fill="white" stroke="#bfbfbf" points="1277.5,-62 1277.5,-81 1360.5,-81 1360.5,-62 1277.5,-62"/>
<text text-anchor="middle" x="1319" y="-69" font-family="Helvetica,sans-Serif" font-size="10.00">tvm/ffi/error.h</text>
</a>
</g>
</g>
<!-- Node15&#45;&gt;Node19 -->
<g id="edge21" class="edge">
<title>Node15&#45;&gt;Node19</title>
<path fill="none" stroke="midnightblue" d="M1010.01,-124.54C1013.05,-124.01 1016.07,-123.49 1019,-123 1129.75,-104.65 1159.27,-110.69 1269,-87 1273.39,-86.05 1277.96,-84.92 1282.48,-83.72"/>
<polygon fill="midnightblue" stroke="midnightblue" points="1283.49,-87.08 1292.19,-81.02 1281.62,-80.33 1283.49,-87.08"/>
</g>
<!-- Node20 -->
<g id="node20" class="node">
<title>Node20</title>
<g id="a_node20"><a xlink:title=" ">
<polygon fill="white" stroke="#bfbfbf" points="833.5,-62 833.5,-81 934.5,-81 934.5,-62 833.5,-62"/>
<text text-anchor="middle" x="884" y="-69" font-family="Helvetica,sans-Serif" font-size="10.00">tvm/ffi/optional.h</text>
</a>
</g>
</g>
<!-- Node15&#45;&gt;Node20 -->
<g id="edge23" class="edge">
<title>Node15&#45;&gt;Node20</title>
<path fill="none" stroke="midnightblue" d="M958.54,-123.48C944.58,-113.93 921.74,-98.31 905.01,-86.87"/>
<polygon fill="midnightblue" stroke="midnightblue" points="906.67,-83.77 896.44,-81.01 902.72,-89.54 906.67,-83.77"/>
</g>
<!-- Node21&#45;&gt;Node2 -->
<g id="edge27" class="edge">
<title>Node21&#45;&gt;Node2</title>
<path fill="none" stroke="midnightblue" d="M494.38,-124.82C406.72,-114.09 241.41,-93.85 144.07,-81.94"/>
<polygon fill="midnightblue" stroke="midnightblue" points="144.35,-78.44 134,-80.7 143.5,-85.39 144.35,-78.44"/>
</g>
<!-- Node21&#45;&gt;Node8 -->
<g id="edge28" class="edge">
<title>Node21&#45;&gt;Node8</title>
<path fill="none" stroke="midnightblue" d="M509.3,-123.48C454.49,-112.78 360.56,-94.46 301.5,-82.94"/>
<polygon fill="midnightblue" stroke="midnightblue" points="302.1,-79.49 291.62,-81.01 300.76,-86.36 302.1,-79.49"/>
</g>
<!-- Node21&#45;&gt;Node9 -->
<g id="edge29" class="edge">
<title>Node21&#45;&gt;Node9</title>
<path fill="none" stroke="midnightblue" d="M530.08,-123.48C506.79,-114.81 470.03,-101.15 440.44,-90.14"/>
<polygon fill="midnightblue" stroke="midnightblue" points="441.3,-86.73 430.71,-86.52 438.86,-93.29 441.3,-86.73"/>
</g>
<!-- Node21&#45;&gt;Node12 -->
<g id="edge34" class="edge">
<title>Node21&#45;&gt;Node12</title>
<path fill="none" stroke="midnightblue" d="M562.74,-123.48C573.35,-114.2 590.52,-99.17 603.48,-87.83"/>
<polygon fill="midnightblue" stroke="midnightblue" points="606.05,-90.23 611.28,-81.01 601.44,-84.96 606.05,-90.23"/>
</g>
<!-- Node22 -->
<g id="node22" class="node">
<title>Node22</title>
<g id="a_node22"><a xlink:href="runtime_2base_8h.html" target="_top" xlink:title=" ">
<polygon fill="white" stroke="black" points="952.5,-62 952.5,-81 1065.5,-81 1065.5,-62 952.5,-62"/>
<text text-anchor="middle" x="1009" y="-69" font-family="Helvetica,sans-Serif" font-size="10.00">tvm/runtime/base.h</text>
</a>
</g>
</g>
<!-- Node21&#45;&gt;Node22 -->
<g id="edge30" class="edge">
<title>Node21&#45;&gt;Node22</title>
<path fill="none" stroke="midnightblue" d="M611.73,-127.09C688.29,-120.27 826.2,-106.52 943,-87 949.61,-85.9 956.55,-84.56 963.35,-83.16"/>
<polygon fill="midnightblue" stroke="midnightblue" points="964.11,-86.57 973.16,-81.07 962.65,-79.73 964.11,-86.57"/>
</g>
<!-- Node24 -->
<g id="node24" class="node">
<title>Node24</title>
<g id="a_node24"><a xlink:title=" ">
<polygon fill="white" stroke="#bfbfbf" points="525.5,-62 525.5,-81 580.5,-81 580.5,-62 525.5,-62"/>
<text text-anchor="middle" x="553" y="-69" font-family="Helvetica,sans-Serif" font-size="10.00">fstream</text>
</a>
</g>
</g>
<!-- Node21&#45;&gt;Node24 -->
<g id="edge32" class="edge">
<title>Node21&#45;&gt;Node24</title>
<path fill="none" stroke="midnightblue" d="M553,-123.48C553,-115.08 553,-101.98 553,-91.16"/>
<polygon fill="midnightblue" stroke="midnightblue" points="556.5,-91.01 553,-81.01 549.5,-91.01 556.5,-91.01"/>
</g>
<!-- Node21&#45;&gt;Node25 -->
<g id="edge33" class="edge">
<title>Node21&#45;&gt;Node25</title>
<path fill="none" stroke="midnightblue" d="M571.77,-123.48C593.85,-113.45 630.72,-96.7 656.14,-85.15"/>
<polygon fill="midnightblue" stroke="midnightblue" points="657.61,-88.33 665.27,-81.01 654.71,-81.96 657.61,-88.33"/>
</g>
<!-- Node26 -->
<g id="node26" class="node">
<title>Node26</title>
<g id="a_node26"><a xlink:title=" ">
<polygon fill="white" stroke="#bfbfbf" points="460.5,-62 460.5,-81 507.5,-81 507.5,-62 460.5,-62"/>
<text text-anchor="middle" x="484" y="-69" font-family="Helvetica,sans-Serif" font-size="10.00">vector</text>
</a>
</g>
</g>
<!-- Node21&#45;&gt;Node26 -->
<g id="edge35" class="edge">
<title>Node21&#45;&gt;Node26</title>
<path fill="none" stroke="midnightblue" d="M543.11,-123.48C532.35,-114.2 514.93,-99.17 501.78,-87.83"/>
<polygon fill="midnightblue" stroke="midnightblue" points="503.73,-84.89 493.87,-81.01 499.16,-90.19 503.73,-84.89"/>
</g>
<!-- Node23 -->
<g id="node23" class="node">
<title>Node23</title>
<g id="a_node23"><a xlink:title=" ">
<polygon fill="white" stroke="#bfbfbf" points="966,-0.5 966,-19.5 1052,-19.5 1052,-0.5 966,-0.5"/>
<text text-anchor="middle" x="1009" y="-7.5" font-family="Helvetica,sans-Serif" font-size="10.00">tvm/ffi/c_api.h</text>
</a>
</g>
</g>
<!-- Node22&#45;&gt;Node23 -->
<g id="edge31" class="edge">
<title>Node22&#45;&gt;Node23</title>
<path fill="none" stroke="midnightblue" d="M1009,-61.98C1009,-53.58 1009,-40.48 1009,-29.66"/>
<polygon fill="midnightblue" stroke="midnightblue" points="1012.5,-29.51 1009,-19.51 1005.5,-29.51 1012.5,-29.51"/>
</g>
<!-- Node27&#45;&gt;Node18 -->
<g id="edge38" class="edge">
<title>Node27&#45;&gt;Node18</title>
<path fill="none" stroke="midnightblue" d="M1275.64,-123.48C1305.28,-113.22 1355.18,-95.96 1388.6,-84.4"/>
<polygon fill="midnightblue" stroke="midnightblue" points="1390.1,-87.59 1398.4,-81.01 1387.81,-80.97 1390.1,-87.59"/>
</g>
<!-- Node27&#45;&gt;Node19 -->
<g id="edge39" class="edge">
<title>Node27&#45;&gt;Node19</title>
<path fill="none" stroke="midnightblue" d="M1260.74,-123.48C1271.35,-114.2 1288.52,-99.17 1301.48,-87.83"/>
<polygon fill="midnightblue" stroke="midnightblue" points="1304.05,-90.23 1309.28,-81.01 1299.44,-84.96 1304.05,-90.23"/>
</g>
<!-- Node27&#45;&gt;Node22 -->
<g id="edge40" class="edge">
<title>Node27&#45;&gt;Node22</title>
<path fill="none" stroke="midnightblue" d="M1216.33,-123.48C1173.47,-112.94 1100.46,-94.99 1053.5,-83.44"/>
<polygon fill="midnightblue" stroke="midnightblue" points="1054.15,-80 1043.61,-81.01 1052.48,-86.8 1054.15,-80"/>
</g>
<!-- Node27&#45;&gt;Node25 -->
<g id="edge42" class="edge">
<title>Node27&#45;&gt;Node25</title>
<path fill="none" stroke="midnightblue" d="M1181.69,-123.87C1178.76,-123.57 1175.85,-123.28 1173,-123 969.77,-103.29 912.43,-139.09 715,-87 713.02,-86.48 711.01,-85.83 709.01,-85.11"/>
<polygon fill="midnightblue" stroke="midnightblue" points="709.93,-81.7 699.36,-81.01 707.2,-88.14 709.93,-81.7"/>
</g>
<!-- Node28 -->
<g id="node28" class="node">
<title>Node28</title>
<g id="a_node28"><a xlink:title=" ">
<polygon fill="white" stroke="#bfbfbf" points="1554.5,-62 1554.5,-81 1693.5,-81 1693.5,-62 1554.5,-62"/>
<text text-anchor="middle" x="1624" y="-69" font-family="Helvetica,sans-Serif" font-size="10.00">tvm/ffi/container/shape.h</text>
</a>
</g>
</g>
<!-- Node27&#45;&gt;Node28 -->
<g id="edge37" class="edge">
<title>Node27&#45;&gt;Node28</title>
<path fill="none" stroke="midnightblue" d="M1310.21,-123.46C1369.64,-114.77 1463.78,-100.67 1545,-87 1552.73,-85.7 1560.88,-84.27 1568.89,-82.83"/>
<polygon fill="midnightblue" stroke="midnightblue" points="1569.71,-86.24 1578.92,-81.01 1568.46,-79.35 1569.71,-86.24"/>
</g>
<!-- Node29 -->
<g id="node29" class="node">
<title>Node29</title>
<g id="a_node29"><a xlink:title=" ">
<polygon fill="white" stroke="#bfbfbf" points="1486,-62 1486,-81 1536,-81 1536,-62 1486,-62"/>
<text text-anchor="middle" x="1511" y="-69" font-family="Helvetica,sans-Serif" font-size="10.00">cstring</text>
</a>
</g>
</g>
<!-- Node27&#45;&gt;Node29 -->
<g id="edge41" class="edge">
<title>Node27&#45;&gt;Node29</title>
<path fill="none" stroke="midnightblue" d="M1311.32,-123.47C1357.33,-116.13 1421.96,-104.02 1477,-87 1479.14,-86.34 1481.33,-85.59 1483.52,-84.78"/>
<polygon fill="midnightblue" stroke="midnightblue" points="1484.92,-87.99 1492.91,-81.03 1482.32,-81.49 1484.92,-87.99"/>
</g>
<!-- Node27&#45;&gt;Node30 -->
<g id="edge43" class="edge">
<title>Node27&#45;&gt;Node30</title>
<path fill="none" stroke="midnightblue" d="M1320.31,-123.93C1323.25,-123.61 1326.15,-123.3 1329,-123 1495.06,-105.43 1539.7,-121.91 1703,-87 1706.68,-86.21 1710.49,-85.21 1714.25,-84.11"/>
<polygon fill="midnightblue" stroke="midnightblue" points="1715.49,-87.39 1723.95,-81.01 1713.36,-80.72 1715.49,-87.39"/>
</g>
</g>
</svg>
