<?xml version="1.0" encoding="UTF-8" standalone="no"?>
<!DOCTYPE svg PUBLIC "-//W3C//DTD SVG 1.1//EN"
 "http://www.w3.org/Graphics/SVG/1.1/DTD/svg11.dtd">
<!-- Generated by graphviz version 2.43.0 (0)
 -->
<!-- Title: include/tvm/ir/expr.h Pages: 1 -->
<svg width="1717pt" height="207pt"
 viewBox="0.00 0.00 1717.00 207.00" xmlns="http://www.w3.org/2000/svg" xmlns:xlink="http://www.w3.org/1999/xlink">
<g id="graph0" class="graph" transform="scale(1 1) rotate(0) translate(4 203)">
<title>include/tvm/ir/expr.h</title>
<polygon fill="white" stroke="transparent" points="-4,4 -4,-203 1713,-203 1713,4 -4,4"/>
<!-- Node1 -->
<g id="node1" class="node">
<title>Node1</title>
<g id="a_node1"><a xlink:title="Base expr nodes in TVM.">
<polygon fill="#bfbfbf" stroke="black" points="961,-179.5 961,-198.5 1078,-198.5 1078,-179.5 961,-179.5"/>
<text text-anchor="middle" x="1019.5" y="-186.5" font-family="Helvetica,sans-Serif" font-size="10.00">include/tvm/ir/expr.h</text>
</a>
</g>
</g>
<!-- Node2 -->
<g id="node2" class="node">
<title>Node2</title>
<g id="a_node2"><a xlink:title=" ">
<polygon fill="white" stroke="#bfbfbf" points="270.5,-123.5 270.5,-142.5 406.5,-142.5 406.5,-123.5 270.5,-123.5"/>
<text text-anchor="middle" x="338.5" y="-130.5" font-family="Helvetica,sans-Serif" font-size="10.00">tvm/ffi/extra/dataclass.h</text>
</a>
</g>
</g>
<!-- Node1&#45;&gt;Node2 -->
<g id="edge1" class="edge">
<title>Node1&#45;&gt;Node2</title>
<path fill="none" stroke="midnightblue" d="M960.7,-184.44C854.36,-177.83 622.78,-162.6 416.61,-143.07"/>
<polygon fill="midnightblue" stroke="midnightblue" points="416.79,-139.57 406.5,-142.11 416.13,-146.54 416.79,-139.57"/>
</g>
<!-- Node3 -->
<g id="node3" class="node">
<title>Node3</title>
<g id="a_node3"><a xlink:title=" ">
<polygon fill="white" stroke="#bfbfbf" points="1200.5,-56.5 1200.5,-86.5 1298.5,-86.5 1298.5,-56.5 1200.5,-56.5"/>
<text text-anchor="start" x="1208.5" y="-74.5" font-family="Helvetica,sans-Serif" font-size="10.00">tvm/ffi/reflection</text>
<text text-anchor="middle" x="1249.5" y="-63.5" font-family="Helvetica,sans-Serif" font-size="10.00">/registry.h</text>
</a>
</g>
</g>
<!-- Node1&#45;&gt;Node3 -->
<g id="edge2" class="edge">
<title>Node1&#45;&gt;Node3</title>
<path fill="none" stroke="midnightblue" d="M1022.26,-179.38C1027.21,-165.35 1038.93,-137.7 1058.5,-123 1061.25,-120.93 1135.51,-101.64 1190.61,-87.51"/>
<polygon fill="midnightblue" stroke="midnightblue" points="1191.48,-90.9 1200.3,-85.03 1189.75,-84.12 1191.48,-90.9"/>
</g>
<!-- Node4 -->
<g id="node4" class="node">
<title>Node4</title>
<g id="a_node4"><a xlink:title=" ">
<polygon fill="white" stroke="#bfbfbf" points="1202,-123.5 1202,-142.5 1291,-142.5 1291,-123.5 1202,-123.5"/>
<text text-anchor="middle" x="1246.5" y="-130.5" font-family="Helvetica,sans-Serif" font-size="10.00">tvm/ffi/string.h</text>
</a>
</g>
</g>
<!-- Node1&#45;&gt;Node4 -->
<g id="edge3" class="edge">
<title>Node1&#45;&gt;Node4</title>
<path fill="none" stroke="midnightblue" d="M1055.47,-179.44C1094.82,-170.08 1157.99,-155.06 1200.81,-144.87"/>
<polygon fill="midnightblue" stroke="midnightblue" points="1201.78,-148.24 1210.7,-142.52 1200.16,-141.43 1201.78,-148.24"/>
</g>
<!-- Node5 -->
<g id="node5" class="node">
<title>Node5</title>
<g id="a_node5"><a xlink:href="cast_8h.html" target="_top" xlink:title="Value casting helpers.">
<polygon fill="white" stroke="black" points="424.5,-123.5 424.5,-142.5 502.5,-142.5 502.5,-123.5 424.5,-123.5"/>
<text text-anchor="middle" x="463.5" y="-130.5" font-family="Helvetica,sans-Serif" font-size="10.00">tvm/ir/cast.h</text>
</a>
</g>
</g>
<!-- Node1&#45;&gt;Node5 -->
<g id="edge4" class="edge">
<title>Node1&#45;&gt;Node5</title>
<path fill="none" stroke="midnightblue" d="M960.79,-182.3C850.68,-171.6 615.07,-148.72 512.69,-138.78"/>
<polygon fill="midnightblue" stroke="midnightblue" points="512.91,-135.28 502.62,-137.8 512.24,-142.25 512.91,-135.28"/>
</g>
<!-- Node13 -->
<g id="node13" class="node">
<title>Node13</title>
<g id="a_node13"><a xlink:href="cow_8h.html" target="_top" xlink:title="Copy&#45;on&#45;write helper macro for IR ffi::ObjectRef types.">
<polygon fill="white" stroke="black" points="614,-123.5 614,-142.5 691,-142.5 691,-123.5 614,-123.5"/>
<text text-anchor="middle" x="652.5" y="-130.5" font-family="Helvetica,sans-Serif" font-size="10.00">tvm/ir/cow.h</text>
</a>
</g>
</g>
<!-- Node1&#45;&gt;Node13 -->
<g id="edge12" class="edge">
<title>Node1&#45;&gt;Node13</title>
<path fill="none" stroke="midnightblue" d="M961.35,-179.44C889.45,-168.86 768.36,-151.05 701.15,-141.16"/>
<polygon fill="midnightblue" stroke="midnightblue" points="701.64,-137.69 691.24,-139.7 700.63,-144.62 701.64,-137.69"/>
</g>
<!-- Node14 -->
<g id="node14" class="node">
<title>Node14</title>
<g id="a_node14"><a xlink:href="source__map_8h.html" target="_top" xlink:title="A map from source names to source code.">
<polygon fill="white" stroke="black" points="1067,-123.5 1067,-142.5 1184,-142.5 1184,-123.5 1067,-123.5"/>
<text text-anchor="middle" x="1125.5" y="-130.5" font-family="Helvetica,sans-Serif" font-size="10.00">tvm/ir/source_map.h</text>
</a>
</g>
</g>
<!-- Node1&#45;&gt;Node14 -->
<g id="edge15" class="edge">
<title>Node1&#45;&gt;Node14</title>
<path fill="none" stroke="midnightblue" d="M1036.53,-179.32C1053.53,-170.66 1079.88,-157.24 1099.49,-147.25"/>
<polygon fill="midnightblue" stroke="midnightblue" points="1101.19,-150.31 1108.51,-142.65 1098.01,-144.08 1101.19,-150.31"/>
</g>
<!-- Node20 -->
<g id="node20" class="node">
<title>Node20</title>
<g id="a_node20"><a xlink:title=" ">
<polygon fill="white" stroke="#bfbfbf" points="1006.5,-62 1006.5,-81 1050.5,-81 1050.5,-62 1006.5,-62"/>
<text text-anchor="middle" x="1028.5" y="-69" font-family="Helvetica,sans-Serif" font-size="10.00">string</text>
</a>
</g>
</g>
<!-- Node1&#45;&gt;Node20 -->
<g id="edge36" class="edge">
<title>Node1&#45;&gt;Node20</title>
<path fill="none" stroke="midnightblue" d="M1020.17,-179.17C1021.13,-166.66 1022.93,-143.09 1024.5,-123 1025.32,-112.53 1026.24,-100.83 1027,-91.34"/>
<polygon fill="midnightblue" stroke="midnightblue" points="1030.51,-91.32 1027.81,-81.08 1023.53,-90.77 1030.51,-91.32"/>
</g>
<!-- Node22 -->
<g id="node22" class="node">
<title>Node22</title>
<g id="a_node22"><a xlink:href="data__type_8h.html" target="_top" xlink:title=" ">
<polygon fill="white" stroke="black" points="774.5,-123.5 774.5,-142.5 912.5,-142.5 912.5,-123.5 774.5,-123.5"/>
<text text-anchor="middle" x="843.5" y="-130.5" font-family="Helvetica,sans-Serif" font-size="10.00">tvm/runtime/data_type.h</text>
</a>
</g>
</g>
<!-- Node1&#45;&gt;Node22 -->
<g id="edge25" class="edge">
<title>Node1&#45;&gt;Node22</title>
<path fill="none" stroke="midnightblue" d="M991.61,-179.44C961.75,-170.28 914.19,-155.69 881.04,-145.52"/>
<polygon fill="midnightblue" stroke="midnightblue" points="881.84,-142.1 871.26,-142.52 879.79,-148.8 881.84,-142.1"/>
</g>
<!-- Node25 -->
<g id="node25" class="node">
<title>Node25</title>
<g id="a_node25"><a xlink:title=" ">
<polygon fill="white" stroke="#bfbfbf" points="919,-62 919,-81 988,-81 988,-62 919,-62"/>
<text text-anchor="middle" x="953.5" y="-69" font-family="Helvetica,sans-Serif" font-size="10.00">type_traits</text>
</a>
</g>
</g>
<!-- Node1&#45;&gt;Node25 -->
<g id="edge37" class="edge">
<title>Node1&#45;&gt;Node25</title>
<path fill="none" stroke="midnightblue" d="M1014.54,-179.32C1003.74,-160.42 977.93,-115.25 963.57,-90.12"/>
<polygon fill="midnightblue" stroke="midnightblue" points="966.52,-88.23 958.52,-81.28 960.44,-91.7 966.52,-88.23"/>
</g>
<!-- Node26 -->
<g id="node26" class="node">
<title>Node26</title>
<g id="a_node26"><a xlink:title=" ">
<polygon fill="white" stroke="#bfbfbf" points="1309.5,-123.5 1309.5,-142.5 1373.5,-142.5 1373.5,-123.5 1309.5,-123.5"/>
<text text-anchor="middle" x="1341.5" y="-130.5" font-family="Helvetica,sans-Serif" font-size="10.00">algorithm</text>
</a>
</g>
</g>
<!-- Node1&#45;&gt;Node26 -->
<g id="edge33" class="edge">
<title>Node1&#45;&gt;Node26</title>
<path fill="none" stroke="midnightblue" d="M1078.06,-179.62C1132.8,-171.56 1217.03,-158.59 1299.29,-143.14"/>
<polygon fill="midnightblue" stroke="midnightblue" points="1300.13,-146.55 1309.31,-141.25 1298.83,-139.67 1300.13,-146.55"/>
</g>
<!-- Node27 -->
<g id="node27" class="node">
<title>Node27</title>
<g id="a_node27"><a xlink:title=" ">
<polygon fill="white" stroke="#bfbfbf" points="1392,-123.5 1392,-142.5 1457,-142.5 1457,-123.5 1392,-123.5"/>
<text text-anchor="middle" x="1424.5" y="-130.5" font-family="Helvetica,sans-Serif" font-size="10.00">functional</text>
</a>
</g>
</g>
<!-- Node1&#45;&gt;Node27 -->
<g id="edge34" class="edge">
<title>Node1&#45;&gt;Node27</title>
<path fill="none" stroke="midnightblue" d="M1078.2,-182.32C1148.13,-175.21 1268.67,-161.81 1382.1,-142.92"/>
<polygon fill="midnightblue" stroke="midnightblue" points="1382.71,-146.37 1391.99,-141.26 1381.55,-139.47 1382.71,-146.37"/>
</g>
<!-- Node28 -->
<g id="node28" class="node">
<title>Node28</title>
<g id="a_node28"><a xlink:title=" ">
<polygon fill="white" stroke="#bfbfbf" points="1475.5,-123.5 1475.5,-142.5 1519.5,-142.5 1519.5,-123.5 1475.5,-123.5"/>
<text text-anchor="middle" x="1497.5" y="-130.5" font-family="Helvetica,sans-Serif" font-size="10.00">limits</text>
</a>
</g>
</g>
<!-- Node1&#45;&gt;Node28 -->
<g id="edge35" class="edge">
<title>Node1&#45;&gt;Node28</title>
<path fill="none" stroke="midnightblue" d="M1078.21,-185.5C1162.2,-181.18 1321.5,-170.19 1465.38,-142.89"/>
<polygon fill="midnightblue" stroke="midnightblue" points="1466.11,-146.31 1475.27,-140.98 1464.79,-139.44 1466.11,-146.31"/>
</g>
<!-- Node6 -->
<g id="node6" class="node">
<title>Node6</title>
<g id="a_node6"><a xlink:title=" ">
<polygon fill="white" stroke="#bfbfbf" points="119,-62 119,-81 196,-81 196,-62 119,-62"/>
<text text-anchor="middle" x="157.5" y="-69" font-family="Helvetica,sans-Serif" font-size="10.00">tvm/ffi/any.h</text>
</a>
</g>
</g>
<!-- Node5&#45;&gt;Node6 -->
<g id="edge5" class="edge">
<title>Node5&#45;&gt;Node6</title>
<path fill="none" stroke="midnightblue" d="M424.48,-124.63C421.44,-124.07 418.42,-123.52 415.5,-123 321.86,-106.23 297.04,-109.07 204.5,-87 200.68,-86.09 196.72,-85.04 192.8,-83.93"/>
<polygon fill="midnightblue" stroke="midnightblue" points="193.77,-80.57 183.19,-81.09 191.79,-87.28 193.77,-80.57"/>
</g>
<!-- Node7 -->
<g id="node7" class="node">
<title>Node7</title>
<g id="a_node7"><a xlink:title=" ">
<polygon fill="white" stroke="#bfbfbf" points="214,-62 214,-81 295,-81 295,-62 214,-62"/>
<text text-anchor="middle" x="254.5" y="-69" font-family="Helvetica,sans-Serif" font-size="10.00">tvm/ffi/cast.h</text>
</a>
</g>
</g>
<!-- Node5&#45;&gt;Node7 -->
<g id="edge6" class="edge">
<title>Node5&#45;&gt;Node7</title>
<path fill="none" stroke="midnightblue" d="M432.79,-123.5C400.56,-114.54 348.41,-99.96 303.5,-87 300.12,-86.02 296.6,-85 293.08,-83.97"/>
<polygon fill="midnightblue" stroke="midnightblue" points="293.82,-80.54 283.24,-81.08 291.85,-87.26 293.82,-80.54"/>
</g>
<!-- Node8 -->
<g id="node8" class="node">
<title>Node8</title>
<g id="a_node8"><a xlink:title=" ">
<polygon fill="white" stroke="#bfbfbf" points="523,-62 523,-81 612,-81 612,-62 523,-62"/>
<text text-anchor="middle" x="567.5" y="-69" font-family="Helvetica,sans-Serif" font-size="10.00">tvm/ffi/dtype.h</text>
</a>
</g>
</g>
<!-- Node5&#45;&gt;Node8 -->
<g id="edge7" class="edge">
<title>Node5&#45;&gt;Node8</title>
<path fill="none" stroke="midnightblue" d="M478.4,-123.48C495.47,-113.71 523.66,-97.58 543.76,-86.08"/>
<polygon fill="midnightblue" stroke="midnightblue" points="545.69,-89.01 552.63,-81.01 542.21,-82.94 545.69,-89.01"/>
</g>
<!-- Node9 -->
<g id="node9" class="node">
<title>Node9</title>
<g id="a_node9"><a xlink:title=" ">
<polygon fill="white" stroke="#bfbfbf" points="422,-62 422,-81 505,-81 505,-62 422,-62"/>
<text text-anchor="middle" x="463.5" y="-69" font-family="Helvetica,sans-Serif" font-size="10.00">tvm/ffi/error.h</text>
</a>
</g>
</g>
<!-- Node5&#45;&gt;Node9 -->
<g id="edge8" class="edge">
<title>Node5&#45;&gt;Node9</title>
<path fill="none" stroke="midnightblue" d="M463.5,-123.48C463.5,-115.08 463.5,-101.98 463.5,-91.16"/>
<polygon fill="midnightblue" stroke="midnightblue" points="467,-91.01 463.5,-81.01 460,-91.01 467,-91.01"/>
</g>
<!-- Node10 -->
<g id="node10" class="node">
<title>Node10</title>
<g id="a_node10"><a xlink:title=" ">
<polygon fill="white" stroke="#bfbfbf" points="313,-62 313,-81 404,-81 404,-62 313,-62"/>
<text text-anchor="middle" x="358.5" y="-69" font-family="Helvetica,sans-Serif" font-size="10.00">tvm/ffi/object.h</text>
</a>
</g>
</g>
<!-- Node5&#45;&gt;Node10 -->
<g id="edge9" class="edge">
<title>Node5&#45;&gt;Node10</title>
<path fill="none" stroke="midnightblue" d="M448.46,-123.48C431.22,-113.71 402.76,-97.58 382.47,-86.08"/>
<polygon fill="midnightblue" stroke="midnightblue" points="383.94,-82.89 373.52,-81.01 380.49,-88.98 383.94,-82.89"/>
</g>
<!-- Node11 -->
<g id="node11" class="node">
<title>Node11</title>
<g id="a_node11"><a xlink:title=" ">
<polygon fill="white" stroke="#bfbfbf" points="0,-62 0,-81 101,-81 101,-62 0,-62"/>
<text text-anchor="middle" x="50.5" y="-69" font-family="Helvetica,sans-Serif" font-size="10.00">tvm/ffi/optional.h</text>
</a>
</g>
</g>
<!-- Node5&#45;&gt;Node11 -->
<g id="edge10" class="edge">
<title>Node5&#45;&gt;Node11</title>
<path fill="none" stroke="midnightblue" d="M424.24,-124.41C421.29,-123.91 418.35,-123.43 415.5,-123 280.12,-102.37 244.25,-111.39 109.5,-87 103.92,-85.99 98.08,-84.77 92.34,-83.46"/>
<polygon fill="midnightblue" stroke="midnightblue" points="92.73,-79.95 82.19,-81.05 91.11,-86.77 92.73,-79.95"/>
</g>
<!-- Node12 -->
<g id="node12" class="node">
<title>Node12</title>
<g id="a_node12"><a xlink:title=" ">
<polygon fill="white" stroke="#bfbfbf" points="630,-62 630,-81 675,-81 675,-62 630,-62"/>
<text text-anchor="middle" x="652.5" y="-69" font-family="Helvetica,sans-Serif" font-size="10.00">utility</text>
</a>
</g>
</g>
<!-- Node5&#45;&gt;Node12 -->
<g id="edge11" class="edge">
<title>Node5&#45;&gt;Node12</title>
<path fill="none" stroke="midnightblue" d="M498.89,-123.44C531.03,-115.29 579.52,-102.07 620.5,-87 622.11,-86.41 623.76,-85.77 625.41,-85.1"/>
<polygon fill="midnightblue" stroke="midnightblue" points="626.94,-88.26 634.75,-81.1 624.18,-81.82 626.94,-88.26"/>
</g>
<!-- Node13&#45;&gt;Node10 -->
<g id="edge13" class="edge">
<title>Node13&#45;&gt;Node10</title>
<path fill="none" stroke="midnightblue" d="M613.65,-125.66C566.03,-117.68 482.98,-103.04 412.5,-87 408.01,-85.98 403.34,-84.84 398.69,-83.66"/>
<polygon fill="midnightblue" stroke="midnightblue" points="399.23,-80.18 388.67,-81.04 397.46,-86.95 399.23,-80.18"/>
</g>
<!-- Node13&#45;&gt;Node12 -->
<g id="edge14" class="edge">
<title>Node13&#45;&gt;Node12</title>
<path fill="none" stroke="midnightblue" d="M652.5,-123.48C652.5,-115.08 652.5,-101.98 652.5,-91.16"/>
<polygon fill="midnightblue" stroke="midnightblue" points="656,-91.01 652.5,-81.01 649,-91.01 656,-91.01"/>
</g>
<!-- Node14&#45;&gt;Node3 -->
<g id="edge18" class="edge">
<title>Node14&#45;&gt;Node3</title>
<path fill="none" stroke="midnightblue" d="M1143.27,-123.48C1160.92,-115 1188.57,-101.74 1211.23,-90.86"/>
<polygon fill="midnightblue" stroke="midnightblue" points="1212.77,-94 1220.28,-86.52 1209.75,-87.69 1212.77,-94"/>
</g>
<!-- Node14&#45;&gt;Node12 -->
<g id="edge23" class="edge">
<title>Node14&#45;&gt;Node12</title>
<path fill="none" stroke="midnightblue" d="M1066.75,-128.37C963.82,-121.61 755.09,-106.05 684.5,-87 682.35,-86.42 680.16,-85.71 677.98,-84.92"/>
<polygon fill="midnightblue" stroke="midnightblue" points="679.31,-81.68 668.73,-81.08 676.63,-88.14 679.31,-81.68"/>
</g>
<!-- Node15 -->
<g id="node15" class="node">
<title>Node15</title>
<g id="a_node15"><a xlink:title=" ">
<polygon fill="white" stroke="#bfbfbf" points="1382.5,-62 1382.5,-81 1516.5,-81 1516.5,-62 1382.5,-62"/>
<text text-anchor="middle" x="1449.5" y="-69" font-family="Helvetica,sans-Serif" font-size="10.00">tvm/ffi/container/array.h</text>
</a>
</g>
</g>
<!-- Node14&#45;&gt;Node15 -->
<g id="edge16" class="edge">
<title>Node14&#45;&gt;Node15</title>
<path fill="none" stroke="midnightblue" d="M1173.53,-123.42C1223.51,-114.46 1304.02,-99.93 1373.5,-87 1380.58,-85.68 1388.03,-84.28 1395.38,-82.89"/>
<polygon fill="midnightblue" stroke="midnightblue" points="1396.14,-86.31 1405.31,-81 1394.83,-79.43 1396.14,-86.31"/>
</g>
<!-- Node16 -->
<g id="node16" class="node">
<title>Node16</title>
<g id="a_node16"><a xlink:title=" ">
<polygon fill="white" stroke="#bfbfbf" points="1535,-62 1535,-81 1636,-81 1636,-62 1535,-62"/>
<text text-anchor="middle" x="1585.5" y="-69" font-family="Helvetica,sans-Serif" font-size="10.00">tvm/ffi/function.h</text>
</a>
</g>
</g>
<!-- Node14&#45;&gt;Node16 -->
<g id="edge17" class="edge">
<title>Node14&#45;&gt;Node16</title>
<path fill="none" stroke="midnightblue" d="M1184.09,-124.16C1187.27,-123.76 1190.43,-123.37 1193.5,-123 1340.86,-105.26 1379.28,-112.49 1525.5,-87 1531.38,-85.97 1537.55,-84.71 1543.6,-83.35"/>
<polygon fill="midnightblue" stroke="midnightblue" points="1544.65,-86.7 1553.59,-81.02 1543.05,-79.89 1544.65,-86.7"/>
</g>
<!-- Node17 -->
<g id="node17" class="node">
<title>Node17</title>
<g id="a_node17"><a xlink:href="runtime_2base_8h.html" target="_top" xlink:title=" ">
<polygon fill="white" stroke="black" points="1069,-62 1069,-81 1182,-81 1182,-62 1069,-62"/>
<text text-anchor="middle" x="1125.5" y="-69" font-family="Helvetica,sans-Serif" font-size="10.00">tvm/runtime/base.h</text>
</a>
</g>
</g>
<!-- Node14&#45;&gt;Node17 -->
<g id="edge19" class="edge">
<title>Node14&#45;&gt;Node17</title>
<path fill="none" stroke="midnightblue" d="M1125.5,-123.48C1125.5,-115.08 1125.5,-101.98 1125.5,-91.16"/>
<polygon fill="midnightblue" stroke="midnightblue" points="1129,-91.01 1125.5,-81.01 1122,-91.01 1129,-91.01"/>
</g>
<!-- Node19 -->
<g id="node19" class="node">
<title>Node19</title>
<g id="a_node19"><a xlink:title=" ">
<polygon fill="white" stroke="#bfbfbf" points="1654,-62 1654,-81 1709,-81 1709,-62 1654,-62"/>
<text text-anchor="middle" x="1681.5" y="-69" font-family="Helvetica,sans-Serif" font-size="10.00">fstream</text>
</a>
</g>
</g>
<!-- Node14&#45;&gt;Node19 -->
<g id="edge21" class="edge">
<title>Node14&#45;&gt;Node19</title>
<path fill="none" stroke="midnightblue" d="M1184.08,-124.05C1187.27,-123.68 1190.42,-123.33 1193.5,-123 1393.9,-101.77 1449.34,-133.18 1645.5,-87 1648.17,-86.37 1650.91,-85.57 1653.62,-84.68"/>
<polygon fill="midnightblue" stroke="midnightblue" points="1655.01,-87.9 1663.17,-81.13 1652.57,-81.33 1655.01,-87.9"/>
</g>
<!-- Node14&#45;&gt;Node20 -->
<g id="edge22" class="edge">
<title>Node14&#45;&gt;Node20</title>
<path fill="none" stroke="midnightblue" d="M1111.6,-123.48C1095.83,-113.8 1069.86,-97.87 1051.15,-86.39"/>
<polygon fill="midnightblue" stroke="midnightblue" points="1052.73,-83.25 1042.37,-81.01 1049.07,-89.22 1052.73,-83.25"/>
</g>
<!-- Node21 -->
<g id="node21" class="node">
<title>Node21</title>
<g id="a_node21"><a xlink:title=" ">
<polygon fill="white" stroke="#bfbfbf" points="1317,-62 1317,-81 1364,-81 1364,-62 1317,-62"/>
<text text-anchor="middle" x="1340.5" y="-69" font-family="Helvetica,sans-Serif" font-size="10.00">vector</text>
</a>
</g>
</g>
<!-- Node14&#45;&gt;Node21 -->
<g id="edge24" class="edge">
<title>Node14&#45;&gt;Node21</title>
<path fill="none" stroke="midnightblue" d="M1168.76,-123.49C1206.01,-115.65 1260.97,-102.84 1307.5,-87 1309.37,-86.36 1311.27,-85.67 1313.18,-84.93"/>
<polygon fill="midnightblue" stroke="midnightblue" points="1314.66,-88.1 1322.57,-81.05 1311.99,-81.64 1314.66,-88.1"/>
</g>
<!-- Node18 -->
<g id="node18" class="node">
<title>Node18</title>
<g id="a_node18"><a xlink:title=" ">
<polygon fill="white" stroke="#bfbfbf" points="1082.5,-0.5 1082.5,-19.5 1168.5,-19.5 1168.5,-0.5 1082.5,-0.5"/>
<text text-anchor="middle" x="1125.5" y="-7.5" font-family="Helvetica,sans-Serif" font-size="10.00">tvm/ffi/c_api.h</text>
</a>
</g>
</g>
<!-- Node17&#45;&gt;Node18 -->
<g id="edge20" class="edge">
<title>Node17&#45;&gt;Node18</title>
<path fill="none" stroke="midnightblue" d="M1125.5,-61.98C1125.5,-53.58 1125.5,-40.48 1125.5,-29.66"/>
<polygon fill="midnightblue" stroke="midnightblue" points="1129,-29.51 1125.5,-19.51 1122,-29.51 1129,-29.51"/>
</g>
<!-- Node22&#45;&gt;Node8 -->
<g id="edge27" class="edge">
<title>Node22&#45;&gt;Node8</title>
<path fill="none" stroke="midnightblue" d="M796.31,-123.44C751.04,-115 680.83,-101.32 620.5,-87 616.15,-85.97 611.62,-84.83 607.12,-83.66"/>
<polygon fill="midnightblue" stroke="midnightblue" points="607.96,-80.26 597.4,-81.06 606.16,-87.02 607.96,-80.26"/>
</g>
<!-- Node22&#45;&gt;Node9 -->
<g id="edge28" class="edge">
<title>Node22&#45;&gt;Node9</title>
<path fill="none" stroke="midnightblue" d="M774.42,-125.56C707.3,-118.61 602.73,-105.92 513.5,-87 509.1,-86.07 504.53,-84.95 500.01,-83.76"/>
<polygon fill="midnightblue" stroke="midnightblue" points="500.88,-80.36 490.3,-81.06 499,-87.11 500.88,-80.36"/>
</g>
<!-- Node22&#45;&gt;Node17 -->
<g id="edge29" class="edge">
<title>Node22&#45;&gt;Node17</title>
<path fill="none" stroke="midnightblue" d="M885.34,-123.42C928.87,-114.47 999.01,-99.95 1059.5,-87 1065.23,-85.77 1071.24,-84.47 1077.2,-83.17"/>
<polygon fill="midnightblue" stroke="midnightblue" points="1078.1,-86.56 1087.13,-81 1076.61,-79.72 1078.1,-86.56"/>
</g>
<!-- Node22&#45;&gt;Node20 -->
<g id="edge31" class="edge">
<title>Node22&#45;&gt;Node20</title>
<path fill="none" stroke="midnightblue" d="M878.25,-123.48C909.79,-115.35 957.37,-102.15 997.5,-87 998.92,-86.46 1000.37,-85.89 1001.83,-85.29"/>
<polygon fill="midnightblue" stroke="midnightblue" points="1003.58,-88.34 1011.32,-81.11 1000.76,-81.93 1003.58,-88.34"/>
</g>
<!-- Node23 -->
<g id="node23" class="node">
<title>Node23</title>
<g id="a_node23"><a xlink:title=" ">
<polygon fill="white" stroke="#bfbfbf" points="762,-62 762,-81 901,-81 901,-62 762,-62"/>
<text text-anchor="middle" x="831.5" y="-69" font-family="Helvetica,sans-Serif" font-size="10.00">tvm/ffi/container/shape.h</text>
</a>
</g>
</g>
<!-- Node22&#45;&gt;Node23 -->
<g id="edge26" class="edge">
<title>Node22&#45;&gt;Node23</title>
<path fill="none" stroke="midnightblue" d="M841.78,-123.48C840.07,-114.99 837.39,-101.7 835.2,-90.82"/>
<polygon fill="midnightblue" stroke="midnightblue" points="838.62,-90.12 833.22,-81.01 831.76,-91.5 838.62,-90.12"/>
</g>
<!-- Node24 -->
<g id="node24" class="node">
<title>Node24</title>
<g id="a_node24"><a xlink:title=" ">
<polygon fill="white" stroke="#bfbfbf" points="693.5,-62 693.5,-81 743.5,-81 743.5,-62 693.5,-62"/>
<text text-anchor="middle" x="718.5" y="-69" font-family="Helvetica,sans-Serif" font-size="10.00">cstring</text>
</a>
</g>
</g>
<!-- Node22&#45;&gt;Node24 -->
<g id="edge30" class="edge">
<title>Node22&#45;&gt;Node24</title>
<path fill="none" stroke="midnightblue" d="M825.59,-123.48C804.61,-113.49 769.65,-96.85 745.41,-85.31"/>
<polygon fill="midnightblue" stroke="midnightblue" points="746.91,-82.15 736.38,-81.01 743.9,-88.47 746.91,-82.15"/>
</g>
<!-- Node22&#45;&gt;Node25 -->
<g id="edge32" class="edge">
<title>Node22&#45;&gt;Node25</title>
<path fill="none" stroke="midnightblue" d="M859.26,-123.48C877.48,-113.62 907.67,-97.29 928.97,-85.77"/>
<polygon fill="midnightblue" stroke="midnightblue" points="930.64,-88.85 937.77,-81.01 927.31,-82.69 930.64,-88.85"/>
</g>
</g>
</svg>
