<?xml version="1.0" encoding="UTF-8" standalone="no"?>
<!DOCTYPE svg PUBLIC "-//W3C//DTD SVG 1.1//EN"
 "http://www.w3.org/Graphics/SVG/1.1/DTD/svg11.dtd">
<!-- Generated by graphviz version 2.43.0 (0)
 -->
<!-- Title: include/tvm/ir/type.h Pages: 1 -->
<svg width="1715pt" height="263pt"
 viewBox="0.00 0.00 1715.00 263.00" xmlns="http://www.w3.org/2000/svg" xmlns:xlink="http://www.w3.org/1999/xlink">
<g id="graph0" class="graph" transform="scale(1 1) rotate(0) translate(4 259)">
<title>include/tvm/ir/type.h</title>
<polygon fill="white" stroke="transparent" points="-4,4 -4,-259 1711,-259 1711,4 -4,4"/>
<!-- Node1 -->
<g id="node1" class="node">
<title>Node1</title>
<g id="a_node1"><a xlink:title="IR/AST nodes for the unified type system in TVM.">
<polygon fill="#bfbfbf" stroke="black" points="422,-235.5 422,-254.5 540,-254.5 540,-235.5 422,-235.5"/>
<text text-anchor="middle" x="481" y="-242.5" font-family="Helvetica,sans-Serif" font-size="10.00">include/tvm/ir/type.h</text>
</a>
</g>
</g>
<!-- Node2 -->
<g id="node2" class="node">
<title>Node2</title>
<g id="a_node2"><a xlink:title=" ">
<polygon fill="white" stroke="#bfbfbf" points="588.5,-62 588.5,-81 669.5,-81 669.5,-62 588.5,-62"/>
<text text-anchor="middle" x="629" y="-69" font-family="Helvetica,sans-Serif" font-size="10.00">tvm/ffi/cast.h</text>
</a>
</g>
</g>
<!-- Node1&#45;&gt;Node2 -->
<g id="edge1" class="edge">
<title>Node1&#45;&gt;Node2</title>
<path fill="none" stroke="midnightblue" d="M479.67,-235.24C476.9,-213.58 472.83,-156.82 500,-123 506.18,-115.31 557.43,-96.73 593.43,-84.38"/>
<polygon fill="midnightblue" stroke="midnightblue" points="594.8,-87.62 603.14,-81.08 592.54,-80.99 594.8,-87.62"/>
</g>
<!-- Node3 -->
<g id="node3" class="node">
<title>Node3</title>
<g id="a_node3"><a xlink:title=" ">
<polygon fill="white" stroke="#bfbfbf" points="0,-62 0,-81 134,-81 134,-62 0,-62"/>
<text text-anchor="middle" x="67" y="-69" font-family="Helvetica,sans-Serif" font-size="10.00">tvm/ffi/container/array.h</text>
</a>
</g>
</g>
<!-- Node1&#45;&gt;Node3 -->
<g id="edge2" class="edge">
<title>Node1&#45;&gt;Node3</title>
<path fill="none" stroke="midnightblue" d="M448.42,-235.49C418.33,-227.29 372.57,-213.95 334,-199 242.47,-163.52 138.56,-110.39 91.95,-85.83"/>
<polygon fill="midnightblue" stroke="midnightblue" points="93.37,-82.62 82.89,-81.04 90.1,-88.81 93.37,-82.62"/>
</g>
<!-- Node4 -->
<g id="node4" class="node">
<title>Node4</title>
<g id="a_node4"><a xlink:title=" ">
<polygon fill="white" stroke="#bfbfbf" points="152,-56.5 152,-86.5 250,-86.5 250,-56.5 152,-56.5"/>
<text text-anchor="start" x="160" y="-74.5" font-family="Helvetica,sans-Serif" font-size="10.00">tvm/ffi/reflection</text>
<text text-anchor="middle" x="201" y="-63.5" font-family="Helvetica,sans-Serif" font-size="10.00">/registry.h</text>
</a>
</g>
</g>
<!-- Node1&#45;&gt;Node4 -->
<g id="edge3" class="edge">
<title>Node1&#45;&gt;Node4</title>
<path fill="none" stroke="midnightblue" d="M458.27,-235.4C419.12,-220.04 337.3,-185.49 276,-143 255.36,-128.7 234.79,-108.86 220.42,-93.87"/>
<polygon fill="midnightblue" stroke="midnightblue" points="222.91,-91.4 213.51,-86.52 217.81,-96.2 222.91,-91.4"/>
</g>
<!-- Node5 -->
<g id="node5" class="node">
<title>Node5</title>
<g id="a_node5"><a xlink:href="ir_2expr_8h.html" target="_top" xlink:title="Base expr nodes in TVM.">
<polygon fill="white" stroke="black" points="753.5,-179.5 753.5,-198.5 832.5,-198.5 832.5,-179.5 753.5,-179.5"/>
<text text-anchor="middle" x="793" y="-186.5" font-family="Helvetica,sans-Serif" font-size="10.00">tvm/ir/expr.h</text>
</a>
</g>
</g>
<!-- Node1&#45;&gt;Node5 -->
<g id="edge4" class="edge">
<title>Node1&#45;&gt;Node5</title>
<path fill="none" stroke="midnightblue" d="M530.44,-235.44C588.63,-225.37 684.72,-208.74 743.11,-198.64"/>
<polygon fill="midnightblue" stroke="midnightblue" points="743.94,-202.04 753.2,-196.89 742.75,-195.15 743.94,-202.04"/>
</g>
<!-- Node16 -->
<g id="node16" class="node">
<title>Node16</title>
<g id="a_node16"><a xlink:href="source__map_8h.html" target="_top" xlink:title="A map from source names to source code.">
<polygon fill="white" stroke="black" points="335.5,-123.5 335.5,-142.5 452.5,-142.5 452.5,-123.5 335.5,-123.5"/>
<text text-anchor="middle" x="394" y="-130.5" font-family="Helvetica,sans-Serif" font-size="10.00">tvm/ir/source_map.h</text>
</a>
</g>
</g>
<!-- Node1&#45;&gt;Node16 -->
<g id="edge42" class="edge">
<title>Node1&#45;&gt;Node16</title>
<path fill="none" stroke="midnightblue" d="M474.17,-235.37C459.75,-217.14 425.97,-174.43 407.19,-150.68"/>
<polygon fill="midnightblue" stroke="midnightblue" points="409.74,-148.26 400.8,-142.59 404.25,-152.61 409.74,-148.26"/>
</g>
<!-- Node21 -->
<g id="node21" class="node">
<title>Node21</title>
<g id="a_node21"><a xlink:title=" ">
<polygon fill="white" stroke="#bfbfbf" points="1663,-62 1663,-81 1707,-81 1707,-62 1663,-62"/>
<text text-anchor="middle" x="1685" y="-69" font-family="Helvetica,sans-Serif" font-size="10.00">string</text>
</a>
</g>
</g>
<!-- Node1&#45;&gt;Node21 -->
<g id="edge44" class="edge">
<title>Node1&#45;&gt;Node21</title>
<path fill="none" stroke="midnightblue" d="M540.03,-241.6C693.18,-234.59 1115.36,-210.2 1460,-143 1548.08,-125.83 1569.99,-118.55 1654,-87 1655.43,-86.46 1656.88,-85.89 1658.33,-85.29"/>
<polygon fill="midnightblue" stroke="midnightblue" points="1660.08,-88.35 1667.83,-81.12 1657.26,-81.94 1660.08,-88.35"/>
</g>
<!-- Node23 -->
<g id="node23" class="node">
<title>Node23</title>
<g id="a_node23"><a xlink:href="data__type_8h.html" target="_top" xlink:title=" ">
<polygon fill="white" stroke="black" points="1229,-123.5 1229,-142.5 1367,-142.5 1367,-123.5 1229,-123.5"/>
<text text-anchor="middle" x="1298" y="-130.5" font-family="Helvetica,sans-Serif" font-size="10.00">tvm/runtime/data_type.h</text>
</a>
</g>
</g>
<!-- Node1&#45;&gt;Node23 -->
<g id="edge43" class="edge">
<title>Node1&#45;&gt;Node23</title>
<path fill="none" stroke="midnightblue" d="M540.28,-236.9C611.67,-228.28 735.18,-213.14 841,-199 979.44,-180.5 1141.19,-157.07 1230.35,-143.99"/>
<polygon fill="midnightblue" stroke="midnightblue" points="1230.94,-147.44 1240.33,-142.52 1229.93,-140.51 1230.94,-147.44"/>
</g>
<!-- Node5&#45;&gt;Node4 -->
<g id="edge6" class="edge">
<title>Node5&#45;&gt;Node4</title>
<path fill="none" stroke="midnightblue" d="M753.19,-186.29C655.36,-181.74 405.35,-167.96 326,-143 290.02,-131.68 252.87,-109.09 228.53,-92.52"/>
<polygon fill="midnightblue" stroke="midnightblue" points="230.38,-89.54 220.16,-86.72 226.39,-95.29 230.38,-89.54"/>
</g>
<!-- Node6 -->
<g id="node6" class="node">
<title>Node6</title>
<g id="a_node6"><a xlink:title=" ">
<polygon fill="white" stroke="#bfbfbf" points="833,-123.5 833,-142.5 969,-142.5 969,-123.5 833,-123.5"/>
<text text-anchor="middle" x="901" y="-130.5" font-family="Helvetica,sans-Serif" font-size="10.00">tvm/ffi/extra/dataclass.h</text>
</a>
</g>
</g>
<!-- Node5&#45;&gt;Node6 -->
<g id="edge5" class="edge">
<title>Node5&#45;&gt;Node6</title>
<path fill="none" stroke="midnightblue" d="M810.35,-179.32C827.67,-170.66 854.52,-157.24 874.5,-147.25"/>
<polygon fill="midnightblue" stroke="midnightblue" points="876.31,-150.26 883.69,-142.65 873.18,-144 876.31,-150.26"/>
</g>
<!-- Node7 -->
<g id="node7" class="node">
<title>Node7</title>
<g id="a_node7"><a xlink:title=" ">
<polygon fill="white" stroke="#bfbfbf" points="987.5,-123.5 987.5,-142.5 1076.5,-142.5 1076.5,-123.5 987.5,-123.5"/>
<text text-anchor="middle" x="1032" y="-130.5" font-family="Helvetica,sans-Serif" font-size="10.00">tvm/ffi/string.h</text>
</a>
</g>
</g>
<!-- Node5&#45;&gt;Node7 -->
<g id="edge7" class="edge">
<title>Node5&#45;&gt;Node7</title>
<path fill="none" stroke="midnightblue" d="M830.87,-179.44C872.48,-170.04 939.37,-154.93 984.47,-144.74"/>
<polygon fill="midnightblue" stroke="midnightblue" points="985.32,-148.13 994.31,-142.52 983.78,-141.31 985.32,-148.13"/>
</g>
<!-- Node8 -->
<g id="node8" class="node">
<title>Node8</title>
<g id="a_node8"><a xlink:href="cast_8h.html" target="_top" xlink:title="Value casting helpers.">
<polygon fill="white" stroke="black" points="1095,-123.5 1095,-142.5 1173,-142.5 1173,-123.5 1095,-123.5"/>
<text text-anchor="middle" x="1134" y="-130.5" font-family="Helvetica,sans-Serif" font-size="10.00">tvm/ir/cast.h</text>
</a>
</g>
</g>
<!-- Node5&#45;&gt;Node8 -->
<g id="edge8" class="edge">
<title>Node5&#45;&gt;Node8</title>
<path fill="none" stroke="midnightblue" d="M832.88,-182.3C887.44,-174.41 988.69,-159.43 1085.07,-143.11"/>
<polygon fill="midnightblue" stroke="midnightblue" points="1085.72,-146.55 1094.99,-141.43 1084.54,-139.65 1085.72,-146.55"/>
</g>
<!-- Node15 -->
<g id="node15" class="node">
<title>Node15</title>
<g id="a_node15"><a xlink:href="cow_8h.html" target="_top" xlink:title="Copy&#45;on&#45;write helper macro for IR ffi::ObjectRef types.">
<polygon fill="white" stroke="black" points="509.5,-123.5 509.5,-142.5 586.5,-142.5 586.5,-123.5 509.5,-123.5"/>
<text text-anchor="middle" x="548" y="-130.5" font-family="Helvetica,sans-Serif" font-size="10.00">tvm/ir/cow.h</text>
</a>
</g>
</g>
<!-- Node5&#45;&gt;Node15 -->
<g id="edge16" class="edge">
<title>Node5&#45;&gt;Node15</title>
<path fill="none" stroke="midnightblue" d="M754.18,-179.44C711.44,-170.02 642.67,-154.87 596.43,-144.68"/>
<polygon fill="midnightblue" stroke="midnightblue" points="597.16,-141.25 586.64,-142.52 595.65,-148.09 597.16,-141.25"/>
</g>
<!-- Node5&#45;&gt;Node16 -->
<g id="edge19" class="edge">
<title>Node5&#45;&gt;Node16</title>
<path fill="none" stroke="midnightblue" d="M753.28,-182.62C685.47,-173.45 546.59,-154.65 462.75,-143.3"/>
<polygon fill="midnightblue" stroke="midnightblue" points="463.19,-139.83 452.81,-141.96 462.25,-146.77 463.19,-139.83"/>
</g>
<!-- Node5&#45;&gt;Node21 -->
<g id="edge40" class="edge">
<title>Node5&#45;&gt;Node21</title>
<path fill="none" stroke="midnightblue" d="M832.76,-186.6C927.32,-182.91 1172.88,-171.19 1376,-143 1500.84,-125.67 1534.29,-126.43 1654,-87 1655.67,-86.45 1657.36,-85.83 1659.06,-85.17"/>
<polygon fill="midnightblue" stroke="midnightblue" points="1660.77,-88.25 1668.57,-81.08 1658,-81.82 1660.77,-88.25"/>
</g>
<!-- Node5&#45;&gt;Node23 -->
<g id="edge29" class="edge">
<title>Node5&#45;&gt;Node23</title>
<path fill="none" stroke="midnightblue" d="M832.57,-183.8C907.3,-175.88 1074.35,-158.13 1215,-143 1216.12,-142.88 1217.24,-142.76 1218.37,-142.64"/>
<polygon fill="midnightblue" stroke="midnightblue" points="1219.14,-146.07 1228.71,-141.52 1218.39,-139.11 1219.14,-146.07"/>
</g>
<!-- Node26 -->
<g id="node26" class="node">
<title>Node26</title>
<g id="a_node26"><a xlink:title=" ">
<polygon fill="white" stroke="#bfbfbf" points="1349.5,-62 1349.5,-81 1418.5,-81 1418.5,-62 1349.5,-62"/>
<text text-anchor="middle" x="1384" y="-69" font-family="Helvetica,sans-Serif" font-size="10.00">type_traits</text>
</a>
</g>
</g>
<!-- Node5&#45;&gt;Node26 -->
<g id="edge41" class="edge">
<title>Node5&#45;&gt;Node26</title>
<path fill="none" stroke="midnightblue" d="M832.63,-188.18C904.09,-187.46 1058.59,-181.15 1182,-143 1200.23,-137.36 1202.32,-130.2 1220,-123 1271.96,-101.83 1287.52,-103.97 1341,-87 1343.75,-86.13 1346.58,-85.21 1349.43,-84.28"/>
<polygon fill="midnightblue" stroke="midnightblue" points="1350.65,-87.56 1359.04,-81.09 1348.45,-80.92 1350.65,-87.56"/>
</g>
<!-- Node27 -->
<g id="node27" class="node">
<title>Node27</title>
<g id="a_node27"><a xlink:title=" ">
<polygon fill="white" stroke="#bfbfbf" points="605,-123.5 605,-142.5 669,-142.5 669,-123.5 605,-123.5"/>
<text text-anchor="middle" x="637" y="-130.5" font-family="Helvetica,sans-Serif" font-size="10.00">algorithm</text>
</a>
</g>
</g>
<!-- Node5&#45;&gt;Node27 -->
<g id="edge37" class="edge">
<title>Node5&#45;&gt;Node27</title>
<path fill="none" stroke="midnightblue" d="M768.28,-179.44C742.15,-170.4 700.74,-156.06 671.42,-145.92"/>
<polygon fill="midnightblue" stroke="midnightblue" points="672.2,-142.48 661.6,-142.52 669.91,-149.1 672.2,-142.48"/>
</g>
<!-- Node28 -->
<g id="node28" class="node">
<title>Node28</title>
<g id="a_node28"><a xlink:title=" ">
<polygon fill="white" stroke="#bfbfbf" points="687.5,-123.5 687.5,-142.5 752.5,-142.5 752.5,-123.5 687.5,-123.5"/>
<text text-anchor="middle" x="720" y="-130.5" font-family="Helvetica,sans-Serif" font-size="10.00">functional</text>
</a>
</g>
</g>
<!-- Node5&#45;&gt;Node28 -->
<g id="edge38" class="edge">
<title>Node5&#45;&gt;Node28</title>
<path fill="none" stroke="midnightblue" d="M781.27,-179.32C770.16,-171.11 753.26,-158.6 740.02,-148.81"/>
<polygon fill="midnightblue" stroke="midnightblue" points="742.06,-145.97 731.94,-142.83 737.9,-151.59 742.06,-145.97"/>
</g>
<!-- Node29 -->
<g id="node29" class="node">
<title>Node29</title>
<g id="a_node29"><a xlink:title=" ">
<polygon fill="white" stroke="#bfbfbf" points="771,-123.5 771,-142.5 815,-142.5 815,-123.5 771,-123.5"/>
<text text-anchor="middle" x="793" y="-130.5" font-family="Helvetica,sans-Serif" font-size="10.00">limits</text>
</a>
</g>
</g>
<!-- Node5&#45;&gt;Node29 -->
<g id="edge39" class="edge">
<title>Node5&#45;&gt;Node29</title>
<path fill="none" stroke="midnightblue" d="M793,-179.08C793,-172.01 793,-161.86 793,-152.99"/>
<polygon fill="midnightblue" stroke="midnightblue" points="796.5,-152.75 793,-142.75 789.5,-152.75 796.5,-152.75"/>
</g>
<!-- Node8&#45;&gt;Node2 -->
<g id="edge10" class="edge">
<title>Node8&#45;&gt;Node2</title>
<path fill="none" stroke="midnightblue" d="M1094.76,-124.32C1091.8,-123.84 1088.86,-123.39 1086,-123 905.66,-98.2 856.84,-121 678,-87 673.47,-86.14 668.75,-85.03 664.11,-83.8"/>
<polygon fill="midnightblue" stroke="midnightblue" points="664.77,-80.35 654.2,-81 662.87,-87.09 664.77,-80.35"/>
</g>
<!-- Node9 -->
<g id="node9" class="node">
<title>Node9</title>
<g id="a_node9"><a xlink:title=" ">
<polygon fill="white" stroke="#bfbfbf" points="796.5,-62 796.5,-81 873.5,-81 873.5,-62 796.5,-62"/>
<text text-anchor="middle" x="835" y="-69" font-family="Helvetica,sans-Serif" font-size="10.00">tvm/ffi/any.h</text>
</a>
</g>
</g>
<!-- Node8&#45;&gt;Node9 -->
<g id="edge9" class="edge">
<title>Node8&#45;&gt;Node9</title>
<path fill="none" stroke="midnightblue" d="M1094.97,-124.65C1091.94,-124.09 1088.92,-123.53 1086,-123 995.42,-106.52 971.49,-108.61 882,-87 878.19,-86.08 874.23,-85.02 870.3,-83.91"/>
<polygon fill="midnightblue" stroke="midnightblue" points="871.28,-80.55 860.7,-81.06 869.29,-87.26 871.28,-80.55"/>
</g>
<!-- Node10 -->
<g id="node10" class="node">
<title>Node10</title>
<g id="a_node10"><a xlink:title=" ">
<polygon fill="white" stroke="#bfbfbf" points="1141.5,-62 1141.5,-81 1230.5,-81 1230.5,-62 1141.5,-62"/>
<text text-anchor="middle" x="1186" y="-69" font-family="Helvetica,sans-Serif" font-size="10.00">tvm/ffi/dtype.h</text>
</a>
</g>
</g>
<!-- Node8&#45;&gt;Node10 -->
<g id="edge11" class="edge">
<title>Node8&#45;&gt;Node10</title>
<path fill="none" stroke="midnightblue" d="M1141.45,-123.48C1149.33,-114.46 1161.94,-100.02 1171.74,-88.81"/>
<polygon fill="midnightblue" stroke="midnightblue" points="1174.62,-90.84 1178.56,-81.01 1169.35,-86.24 1174.62,-90.84"/>
</g>
<!-- Node11 -->
<g id="node11" class="node">
<title>Node11</title>
<g id="a_node11"><a xlink:title=" ">
<polygon fill="white" stroke="#bfbfbf" points="1248.5,-62 1248.5,-81 1331.5,-81 1331.5,-62 1248.5,-62"/>
<text text-anchor="middle" x="1290" y="-69" font-family="Helvetica,sans-Serif" font-size="10.00">tvm/ffi/error.h</text>
</a>
</g>
</g>
<!-- Node8&#45;&gt;Node11 -->
<g id="edge12" class="edge">
<title>Node8&#45;&gt;Node11</title>
<path fill="none" stroke="midnightblue" d="M1156.35,-123.48C1182.99,-113.31 1227.71,-96.26 1258.01,-84.7"/>
<polygon fill="midnightblue" stroke="midnightblue" points="1259.59,-87.84 1267.69,-81.01 1257.1,-81.3 1259.59,-87.84"/>
</g>
<!-- Node12 -->
<g id="node12" class="node">
<title>Node12</title>
<g id="a_node12"><a xlink:title=" ">
<polygon fill="white" stroke="#bfbfbf" points="687.5,-62 687.5,-81 778.5,-81 778.5,-62 687.5,-62"/>
<text text-anchor="middle" x="733" y="-69" font-family="Helvetica,sans-Serif" font-size="10.00">tvm/ffi/object.h</text>
</a>
</g>
</g>
<!-- Node8&#45;&gt;Node12 -->
<g id="edge13" class="edge">
<title>Node8&#45;&gt;Node12</title>
<path fill="none" stroke="midnightblue" d="M1094.74,-124.42C1091.79,-123.92 1088.85,-123.44 1086,-123 953.71,-102.66 918.41,-112.42 787,-87 781.95,-86.02 776.67,-84.83 771.48,-83.55"/>
<polygon fill="midnightblue" stroke="midnightblue" points="772.25,-80.13 761.69,-81.02 770.49,-86.91 772.25,-80.13"/>
</g>
<!-- Node13 -->
<g id="node13" class="node">
<title>Node13</title>
<g id="a_node13"><a xlink:title=" ">
<polygon fill="white" stroke="#bfbfbf" points="1022.5,-62 1022.5,-81 1123.5,-81 1123.5,-62 1022.5,-62"/>
<text text-anchor="middle" x="1073" y="-69" font-family="Helvetica,sans-Serif" font-size="10.00">tvm/ffi/optional.h</text>
</a>
</g>
</g>
<!-- Node8&#45;&gt;Node13 -->
<g id="edge14" class="edge">
<title>Node8&#45;&gt;Node13</title>
<path fill="none" stroke="midnightblue" d="M1125.26,-123.48C1115.84,-114.28 1100.64,-99.46 1089.05,-88.16"/>
<polygon fill="midnightblue" stroke="midnightblue" points="1091.33,-85.49 1081.72,-81.01 1086.44,-90.5 1091.33,-85.49"/>
</g>
<!-- Node14 -->
<g id="node14" class="node">
<title>Node14</title>
<g id="a_node14"><a xlink:title=" ">
<polygon fill="white" stroke="#bfbfbf" points="525.5,-62 525.5,-81 570.5,-81 570.5,-62 525.5,-62"/>
<text text-anchor="middle" x="548" y="-69" font-family="Helvetica,sans-Serif" font-size="10.00">utility</text>
</a>
</g>
</g>
<!-- Node8&#45;&gt;Node14 -->
<g id="edge15" class="edge">
<title>Node8&#45;&gt;Node14</title>
<path fill="none" stroke="midnightblue" d="M1094.77,-124.27C1091.81,-123.8 1088.86,-123.37 1086,-123 861.95,-94.14 797.64,-143.81 579,-87 577.02,-86.48 575,-85.84 573.01,-85.12"/>
<polygon fill="midnightblue" stroke="midnightblue" points="573.93,-81.71 563.35,-81.04 571.2,-88.16 573.93,-81.71"/>
</g>
<!-- Node15&#45;&gt;Node12 -->
<g id="edge17" class="edge">
<title>Node15&#45;&gt;Node12</title>
<path fill="none" stroke="midnightblue" d="M574.51,-123.48C606.65,-113.14 660.99,-95.66 696.93,-84.1"/>
<polygon fill="midnightblue" stroke="midnightblue" points="698.1,-87.4 706.54,-81.01 695.95,-80.74 698.1,-87.4"/>
</g>
<!-- Node15&#45;&gt;Node14 -->
<g id="edge18" class="edge">
<title>Node15&#45;&gt;Node14</title>
<path fill="none" stroke="midnightblue" d="M548,-123.48C548,-115.08 548,-101.98 548,-91.16"/>
<polygon fill="midnightblue" stroke="midnightblue" points="551.5,-91.01 548,-81.01 544.5,-91.01 551.5,-91.01"/>
</g>
<!-- Node16&#45;&gt;Node3 -->
<g id="edge20" class="edge">
<title>Node16&#45;&gt;Node3</title>
<path fill="none" stroke="midnightblue" d="M345.38,-123.45C294.8,-114.51 213.3,-100.01 143,-87 135.92,-85.69 128.47,-84.29 121.11,-82.9"/>
<polygon fill="midnightblue" stroke="midnightblue" points="121.67,-79.44 111.19,-81.02 120.36,-86.32 121.67,-79.44"/>
</g>
<!-- Node16&#45;&gt;Node4 -->
<g id="edge22" class="edge">
<title>Node16&#45;&gt;Node4</title>
<path fill="none" stroke="midnightblue" d="M366.35,-123.48C337.77,-114.66 292.37,-100.67 256.37,-89.57"/>
<polygon fill="midnightblue" stroke="midnightblue" points="257.07,-86.12 246.49,-86.52 255.01,-92.81 257.07,-86.12"/>
</g>
<!-- Node16&#45;&gt;Node14 -->
<g id="edge27" class="edge">
<title>Node16&#45;&gt;Node14</title>
<path fill="none" stroke="midnightblue" d="M418.97,-123.38C443.77,-114.69 482.79,-100.63 516,-87 517.41,-86.42 518.85,-85.82 520.3,-85.2"/>
<polygon fill="midnightblue" stroke="midnightblue" points="522.08,-88.24 529.82,-81.01 519.26,-81.83 522.08,-88.24"/>
</g>
<!-- Node17 -->
<g id="node17" class="node">
<title>Node17</title>
<g id="a_node17"><a xlink:title=" ">
<polygon fill="white" stroke="#bfbfbf" points="406.5,-62 406.5,-81 507.5,-81 507.5,-62 406.5,-62"/>
<text text-anchor="middle" x="457" y="-69" font-family="Helvetica,sans-Serif" font-size="10.00">tvm/ffi/function.h</text>
</a>
</g>
</g>
<!-- Node16&#45;&gt;Node17 -->
<g id="edge21" class="edge">
<title>Node16&#45;&gt;Node17</title>
<path fill="none" stroke="midnightblue" d="M403.03,-123.48C412.76,-114.28 428.46,-99.46 440.42,-88.16"/>
<polygon fill="midnightblue" stroke="midnightblue" points="443.12,-90.42 447.99,-81.01 438.32,-85.33 443.12,-90.42"/>
</g>
<!-- Node18 -->
<g id="node18" class="node">
<title>Node18</title>
<g id="a_node18"><a xlink:href="runtime_2base_8h.html" target="_top" xlink:title=" ">
<polygon fill="white" stroke="black" points="891.5,-62 891.5,-81 1004.5,-81 1004.5,-62 891.5,-62"/>
<text text-anchor="middle" x="948" y="-69" font-family="Helvetica,sans-Serif" font-size="10.00">tvm/runtime/base.h</text>
</a>
</g>
</g>
<!-- Node16&#45;&gt;Node18 -->
<g id="edge23" class="edge">
<title>Node16&#45;&gt;Node18</title>
<path fill="none" stroke="midnightblue" d="M452.76,-127C573.25,-116.67 840.54,-93.44 882,-87 888.78,-85.95 895.9,-84.62 902.86,-83.2"/>
<polygon fill="midnightblue" stroke="midnightblue" points="903.82,-86.57 912.87,-81.07 902.36,-79.72 903.82,-86.57"/>
</g>
<!-- Node20 -->
<g id="node20" class="node">
<title>Node20</title>
<g id="a_node20"><a xlink:title=" ">
<polygon fill="white" stroke="#bfbfbf" points="268.5,-62 268.5,-81 323.5,-81 323.5,-62 268.5,-62"/>
<text text-anchor="middle" x="296" y="-69" font-family="Helvetica,sans-Serif" font-size="10.00">fstream</text>
</a>
</g>
</g>
<!-- Node16&#45;&gt;Node20 -->
<g id="edge25" class="edge">
<title>Node16&#45;&gt;Node20</title>
<path fill="none" stroke="midnightblue" d="M379.96,-123.48C363.95,-113.75 337.55,-97.73 318.63,-86.24"/>
<polygon fill="midnightblue" stroke="midnightblue" points="320.38,-83.21 310.01,-81.01 316.75,-89.19 320.38,-83.21"/>
</g>
<!-- Node16&#45;&gt;Node21 -->
<g id="edge26" class="edge">
<title>Node16&#45;&gt;Node21</title>
<path fill="none" stroke="midnightblue" d="M452.55,-126.46C467.97,-125.16 484.6,-123.89 500,-123 756.14,-108.14 1404.44,-146.58 1654,-87 1656.21,-86.47 1658.45,-85.78 1660.66,-84.98"/>
<polygon fill="midnightblue" stroke="midnightblue" points="1662.16,-88.15 1670,-81.01 1659.42,-81.71 1662.16,-88.15"/>
</g>
<!-- Node22 -->
<g id="node22" class="node">
<title>Node22</title>
<g id="a_node22"><a xlink:title=" ">
<polygon fill="white" stroke="#bfbfbf" points="341.5,-62 341.5,-81 388.5,-81 388.5,-62 341.5,-62"/>
<text text-anchor="middle" x="365" y="-69" font-family="Helvetica,sans-Serif" font-size="10.00">vector</text>
</a>
</g>
</g>
<!-- Node16&#45;&gt;Node22 -->
<g id="edge28" class="edge">
<title>Node16&#45;&gt;Node22</title>
<path fill="none" stroke="midnightblue" d="M389.85,-123.48C385.62,-114.82 378.96,-101.15 373.6,-90.15"/>
<polygon fill="midnightblue" stroke="midnightblue" points="376.67,-88.46 369.15,-81.01 370.38,-91.53 376.67,-88.46"/>
</g>
<!-- Node19 -->
<g id="node19" class="node">
<title>Node19</title>
<g id="a_node19"><a xlink:title=" ">
<polygon fill="white" stroke="#bfbfbf" points="905,-0.5 905,-19.5 991,-19.5 991,-0.5 905,-0.5"/>
<text text-anchor="middle" x="948" y="-7.5" font-family="Helvetica,sans-Serif" font-size="10.00">tvm/ffi/c_api.h</text>
</a>
</g>
</g>
<!-- Node18&#45;&gt;Node19 -->
<g id="edge24" class="edge">
<title>Node18&#45;&gt;Node19</title>
<path fill="none" stroke="midnightblue" d="M948,-61.98C948,-53.58 948,-40.48 948,-29.66"/>
<polygon fill="midnightblue" stroke="midnightblue" points="951.5,-29.51 948,-19.51 944.5,-29.51 951.5,-29.51"/>
</g>
<!-- Node23&#45;&gt;Node10 -->
<g id="edge31" class="edge">
<title>Node23&#45;&gt;Node10</title>
<path fill="none" stroke="midnightblue" d="M1281.95,-123.48C1263.41,-113.62 1232.66,-97.29 1210.98,-85.77"/>
<polygon fill="midnightblue" stroke="midnightblue" points="1212.49,-82.61 1202.02,-81.01 1209.21,-88.79 1212.49,-82.61"/>
</g>
<!-- Node23&#45;&gt;Node11 -->
<g id="edge32" class="edge">
<title>Node23&#45;&gt;Node11</title>
<path fill="none" stroke="midnightblue" d="M1296.85,-123.48C1295.73,-115.08 1293.96,-101.98 1292.51,-91.16"/>
<polygon fill="midnightblue" stroke="midnightblue" points="1295.95,-90.45 1291.14,-81.01 1289.01,-91.39 1295.95,-90.45"/>
</g>
<!-- Node23&#45;&gt;Node18 -->
<g id="edge33" class="edge">
<title>Node23&#45;&gt;Node18</title>
<path fill="none" stroke="midnightblue" d="M1237.43,-123.46C1179.81,-115.09 1090.77,-101.5 1014,-87 1007.8,-85.83 1001.28,-84.51 994.87,-83.15"/>
<polygon fill="midnightblue" stroke="midnightblue" points="995.43,-79.7 984.92,-81.02 993.96,-86.54 995.43,-79.7"/>
</g>
<!-- Node23&#45;&gt;Node21 -->
<g id="edge35" class="edge">
<title>Node23&#45;&gt;Node21</title>
<path fill="none" stroke="midnightblue" d="M1367.2,-129.62C1439.88,-125.65 1556.9,-115.09 1654,-87 1655.93,-86.44 1657.88,-85.78 1659.83,-85.05"/>
<polygon fill="midnightblue" stroke="midnightblue" points="1661.46,-88.16 1669.28,-81.01 1658.71,-81.72 1661.46,-88.16"/>
</g>
<!-- Node24 -->
<g id="node24" class="node">
<title>Node24</title>
<g id="a_node24"><a xlink:title=" ">
<polygon fill="white" stroke="#bfbfbf" points="1505.5,-62 1505.5,-81 1644.5,-81 1644.5,-62 1505.5,-62"/>
<text text-anchor="middle" x="1575" y="-69" font-family="Helvetica,sans-Serif" font-size="10.00">tvm/ffi/container/shape.h</text>
</a>
</g>
</g>
<!-- Node23&#45;&gt;Node24 -->
<g id="edge30" class="edge">
<title>Node23&#45;&gt;Node24</title>
<path fill="none" stroke="midnightblue" d="M1337.69,-123.48C1387.16,-112.85 1471.72,-94.68 1525.41,-83.15"/>
<polygon fill="midnightblue" stroke="midnightblue" points="1526.34,-86.53 1535.39,-81.01 1524.87,-79.69 1526.34,-86.53"/>
</g>
<!-- Node25 -->
<g id="node25" class="node">
<title>Node25</title>
<g id="a_node25"><a xlink:title=" ">
<polygon fill="white" stroke="#bfbfbf" points="1437,-62 1437,-81 1487,-81 1487,-62 1437,-62"/>
<text text-anchor="middle" x="1462" y="-69" font-family="Helvetica,sans-Serif" font-size="10.00">cstring</text>
</a>
</g>
</g>
<!-- Node23&#45;&gt;Node25 -->
<g id="edge34" class="edge">
<title>Node23&#45;&gt;Node25</title>
<path fill="none" stroke="midnightblue" d="M1324.34,-123.48C1350.74,-114.81 1392.46,-100.71 1428,-87 1429.65,-86.36 1431.33,-85.7 1433.03,-85.02"/>
<polygon fill="midnightblue" stroke="midnightblue" points="1434.78,-88.08 1442.68,-81.02 1432.1,-81.61 1434.78,-88.08"/>
</g>
<!-- Node23&#45;&gt;Node26 -->
<g id="edge36" class="edge">
<title>Node23&#45;&gt;Node26</title>
<path fill="none" stroke="midnightblue" d="M1310.32,-123.48C1324.12,-113.93 1346.7,-98.31 1363.23,-86.87"/>
<polygon fill="midnightblue" stroke="midnightblue" points="1365.47,-89.58 1371.7,-81.01 1361.49,-83.82 1365.47,-89.58"/>
</g>
</g>
</svg>
