<?xml version="1.0" encoding="UTF-8" standalone="no"?>
<!DOCTYPE svg PUBLIC "-//W3C//DTD SVG 1.1//EN"
 "http://www.w3.org/Graphics/SVG/1.1/DTD/svg11.dtd">
<!-- Generated by graphviz version 2.43.0 (0)
 -->
<!-- Title: include/tvm/ir/function.h Pages: 1 -->
<svg width="1493pt" height="330pt"
 viewBox="0.00 0.00 1492.50 330.00" xmlns="http://www.w3.org/2000/svg" xmlns:xlink="http://www.w3.org/1999/xlink">
<g id="graph0" class="graph" transform="scale(1 1) rotate(0) translate(4 326)">
<title>include/tvm/ir/function.h</title>
<polygon fill="white" stroke="transparent" points="-4,4 -4,-326 1488.5,-326 1488.5,4 -4,4"/>
<!-- Node1 -->
<g id="node1" class="node">
<title>Node1</title>
<g id="a_node1"><a xlink:title="Function nodes.">
<polygon fill="#bfbfbf" stroke="black" points="454,-302.5 454,-321.5 590,-321.5 590,-302.5 454,-302.5"/>
<text text-anchor="middle" x="522" y="-309.5" font-family="Helvetica,sans-Serif" font-size="10.00">include/tvm/ir/function.h</text>
</a>
</g>
</g>
<!-- Node2 -->
<g id="node2" class="node">
<title>Node2</title>
<g id="a_node2"><a xlink:title=" ">
<polygon fill="white" stroke="#bfbfbf" points="0,-62 0,-81 134,-81 134,-62 0,-62"/>
<text text-anchor="middle" x="67" y="-69" font-family="Helvetica,sans-Serif" font-size="10.00">tvm/ffi/container/array.h</text>
</a>
</g>
</g>
<!-- Node1&#45;&gt;Node2 -->
<g id="edge1" class="edge">
<title>Node1&#45;&gt;Node2</title>
<path fill="none" stroke="midnightblue" d="M453.65,-307.35C361.77,-301.66 203.85,-288.87 151,-266 115.38,-250.59 102.57,-244.08 84,-210 63.26,-171.93 63.3,-119.3 65.14,-91.49"/>
<polygon fill="midnightblue" stroke="midnightblue" points="68.65,-91.46 65.98,-81.21 61.67,-90.89 68.65,-91.46"/>
</g>
<!-- Node3 -->
<g id="node3" class="node">
<title>Node3</title>
<g id="a_node3"><a xlink:title=" ">
<polygon fill="white" stroke="#bfbfbf" points="102.5,-185 102.5,-204 233.5,-204 233.5,-185 102.5,-185"/>
<text text-anchor="middle" x="168" y="-192" font-family="Helvetica,sans-Serif" font-size="10.00">tvm/ffi/container/map.h</text>
</a>
</g>
</g>
<!-- Node1&#45;&gt;Node3 -->
<g id="edge2" class="edge">
<title>Node1&#45;&gt;Node3</title>
<path fill="none" stroke="midnightblue" d="M495.68,-302.41C433.22,-282.03 275.91,-230.71 204.4,-207.38"/>
<polygon fill="midnightblue" stroke="midnightblue" points="205.08,-203.92 194.49,-204.14 202.91,-210.57 205.08,-203.92"/>
</g>
<!-- Node4 -->
<g id="node4" class="node">
<title>Node4</title>
<g id="a_node4"><a xlink:title=" ">
<polygon fill="white" stroke="#bfbfbf" points="104.5,-123.5 104.5,-142.5 193.5,-142.5 193.5,-123.5 104.5,-123.5"/>
<text text-anchor="middle" x="149" y="-130.5" font-family="Helvetica,sans-Serif" font-size="10.00">tvm/ffi/string.h</text>
</a>
</g>
</g>
<!-- Node1&#45;&gt;Node4 -->
<g id="edge3" class="edge">
<title>Node1&#45;&gt;Node4</title>
<path fill="none" stroke="midnightblue" d="M453.6,-305.09C344.02,-294.03 136.94,-266.1 93,-210 84.5,-199.15 87.05,-191.42 93,-179 99.25,-165.95 111.34,-155.49 122.68,-147.95"/>
<polygon fill="midnightblue" stroke="midnightblue" points="124.81,-150.75 131.5,-142.54 121.15,-144.79 124.81,-150.75"/>
</g>
<!-- Node5 -->
<g id="node5" class="node">
<title>Node5</title>
<g id="a_node5"><a xlink:href="attrs_8h.html" target="_top" xlink:title="Helpers for attribute objects.">
<polygon fill="white" stroke="black" points="482,-246.5 482,-265.5 562,-265.5 562,-246.5 482,-246.5"/>
<text text-anchor="middle" x="522" y="-253.5" font-family="Helvetica,sans-Serif" font-size="10.00">tvm/ir/attrs.h</text>
</a>
</g>
</g>
<!-- Node1&#45;&gt;Node5 -->
<g id="edge4" class="edge">
<title>Node1&#45;&gt;Node5</title>
<path fill="none" stroke="midnightblue" d="M522,-302.08C522,-295.01 522,-284.86 522,-275.99"/>
<polygon fill="midnightblue" stroke="midnightblue" points="525.5,-275.75 522,-265.75 518.5,-275.75 525.5,-275.75"/>
</g>
<!-- Node13 -->
<g id="node13" class="node">
<title>Node13</title>
<g id="a_node13"><a xlink:href="ir_2expr_8h.html" target="_top" xlink:title="Base expr nodes in TVM.">
<polygon fill="white" stroke="black" points="884.5,-185 884.5,-204 963.5,-204 963.5,-185 884.5,-185"/>
<text text-anchor="middle" x="924" y="-192" font-family="Helvetica,sans-Serif" font-size="10.00">tvm/ir/expr.h</text>
</a>
</g>
</g>
<!-- Node1&#45;&gt;Node13 -->
<g id="edge45" class="edge">
<title>Node1&#45;&gt;Node13</title>
<path fill="none" stroke="midnightblue" d="M590.23,-308.35C677.74,-303.91 823.75,-292.66 870,-266 891.02,-253.89 906.6,-230.03 915.49,-213.44"/>
<polygon fill="midnightblue" stroke="midnightblue" points="918.76,-214.73 920.14,-204.22 912.51,-211.57 918.76,-214.73"/>
</g>
<!-- Node19 -->
<g id="node19" class="node">
<title>Node19</title>
<g id="a_node19"><a xlink:title=" ">
<polygon fill="white" stroke="#bfbfbf" points="833,-62 833,-81 877,-81 877,-62 833,-62"/>
<text text-anchor="middle" x="855" y="-69" font-family="Helvetica,sans-Serif" font-size="10.00">string</text>
</a>
</g>
</g>
<!-- Node1&#45;&gt;Node19 -->
<g id="edge46" class="edge">
<title>Node1&#45;&gt;Node19</title>
<path fill="none" stroke="midnightblue" d="M590.12,-309.19C662.7,-303.34 775.33,-282.25 836,-210 864.45,-176.11 861.86,-120.09 858.13,-91.13"/>
<polygon fill="midnightblue" stroke="midnightblue" points="861.57,-90.52 856.65,-81.14 854.65,-91.55 861.57,-90.52"/>
</g>
<!-- Node26 -->
<g id="node26" class="node">
<title>Node26</title>
<g id="a_node26"><a xlink:title=" ">
<polygon fill="white" stroke="#bfbfbf" points="1415.5,-62 1415.5,-81 1484.5,-81 1484.5,-62 1415.5,-62"/>
<text text-anchor="middle" x="1450" y="-69" font-family="Helvetica,sans-Serif" font-size="10.00">type_traits</text>
</a>
</g>
</g>
<!-- Node1&#45;&gt;Node26 -->
<g id="edge47" class="edge">
<title>Node1&#45;&gt;Node26</title>
<path fill="none" stroke="midnightblue" d="M590.03,-303.78C665.08,-295.6 789.36,-281.37 896,-266 1147.78,-229.7 1302.82,-346.85 1455,-143 1466.09,-128.14 1462.35,-106.26 1457.42,-90.82"/>
<polygon fill="midnightblue" stroke="midnightblue" points="1460.67,-89.54 1453.98,-81.33 1454.09,-91.92 1460.67,-89.54"/>
</g>
<!-- Node5&#45;&gt;Node3 -->
<g id="edge5" class="edge">
<title>Node5&#45;&gt;Node3</title>
<path fill="none" stroke="midnightblue" d="M481.57,-248.57C428.09,-240.03 330.89,-224.32 248,-210 240.37,-208.68 232.34,-207.26 224.43,-205.85"/>
<polygon fill="midnightblue" stroke="midnightblue" points="224.97,-202.39 214.51,-204.06 223.73,-209.28 224.97,-202.39"/>
</g>
<!-- Node6 -->
<g id="node6" class="node">
<title>Node6</title>
<g id="a_node6"><a xlink:title=" ">
<polygon fill="white" stroke="#bfbfbf" points="550.5,-179.5 550.5,-209.5 677.5,-209.5 677.5,-179.5 550.5,-179.5"/>
<text text-anchor="start" x="558.5" y="-197.5" font-family="Helvetica,sans-Serif" font-size="10.00">tvm/ffi/extra/structural</text>
<text text-anchor="middle" x="614" y="-186.5" font-family="Helvetica,sans-Serif" font-size="10.00">_equal.h</text>
</a>
</g>
</g>
<!-- Node5&#45;&gt;Node6 -->
<g id="edge6" class="edge">
<title>Node5&#45;&gt;Node6</title>
<path fill="none" stroke="midnightblue" d="M535.18,-246.48C547.76,-238.34 567.16,-225.79 583.57,-215.18"/>
<polygon fill="midnightblue" stroke="midnightblue" points="585.82,-217.89 592.32,-209.52 582.02,-212.01 585.82,-217.89"/>
</g>
<!-- Node7 -->
<g id="node7" class="node">
<title>Node7</title>
<g id="a_node7"><a xlink:title=" ">
<polygon fill="white" stroke="#bfbfbf" points="328.5,-179.5 328.5,-209.5 455.5,-209.5 455.5,-179.5 328.5,-179.5"/>
<text text-anchor="start" x="336.5" y="-197.5" font-family="Helvetica,sans-Serif" font-size="10.00">tvm/ffi/extra/structural</text>
<text text-anchor="middle" x="392" y="-186.5" font-family="Helvetica,sans-Serif" font-size="10.00">_hash.h</text>
</a>
</g>
</g>
<!-- Node5&#45;&gt;Node7 -->
<g id="edge7" class="edge">
<title>Node5&#45;&gt;Node7</title>
<path fill="none" stroke="midnightblue" d="M503.37,-246.48C484.78,-237.96 455.62,-224.62 431.8,-213.72"/>
<polygon fill="midnightblue" stroke="midnightblue" points="433.19,-210.5 422.64,-209.52 430.27,-216.87 433.19,-210.5"/>
</g>
<!-- Node8 -->
<g id="node8" class="node">
<title>Node8</title>
<g id="a_node8"><a xlink:title=" ">
<polygon fill="white" stroke="#bfbfbf" points="327.5,-62 327.5,-81 428.5,-81 428.5,-62 327.5,-62"/>
<text text-anchor="middle" x="378" y="-69" font-family="Helvetica,sans-Serif" font-size="10.00">tvm/ffi/function.h</text>
</a>
</g>
</g>
<!-- Node5&#45;&gt;Node8 -->
<g id="edge8" class="edge">
<title>Node5&#45;&gt;Node8</title>
<path fill="none" stroke="midnightblue" d="M515.29,-246.05C504.57,-231.77 482.86,-203.02 464,-179 438.83,-146.94 408.79,-110.04 391.7,-89.17"/>
<polygon fill="midnightblue" stroke="midnightblue" points="394.27,-86.78 385.22,-81.27 388.85,-91.22 394.27,-86.78"/>
</g>
<!-- Node9 -->
<g id="node9" class="node">
<title>Node9</title>
<g id="a_node9"><a xlink:title=" ">
<polygon fill="white" stroke="#bfbfbf" points="585,-56.5 585,-86.5 683,-86.5 683,-56.5 585,-56.5"/>
<text text-anchor="start" x="593" y="-74.5" font-family="Helvetica,sans-Serif" font-size="10.00">tvm/ffi/reflection</text>
<text text-anchor="middle" x="634" y="-63.5" font-family="Helvetica,sans-Serif" font-size="10.00">/registry.h</text>
</a>
</g>
</g>
<!-- Node5&#45;&gt;Node9 -->
<g id="edge9" class="edge">
<title>Node5&#45;&gt;Node9</title>
<path fill="none" stroke="midnightblue" d="M521.95,-246.5C522.29,-231.33 525,-199.3 541,-179 562.41,-151.83 587.48,-169.25 610,-143 621.18,-129.97 627.22,-111.49 630.44,-96.72"/>
<polygon fill="midnightblue" stroke="midnightblue" points="633.91,-97.23 632.32,-86.75 627.03,-95.93 633.91,-97.23"/>
</g>
<!-- Node10 -->
<g id="node10" class="node">
<title>Node10</title>
<g id="a_node10"><a xlink:href="cow_8h.html" target="_top" xlink:title="Copy&#45;on&#45;write helper macro for IR ffi::ObjectRef types.">
<polygon fill="white" stroke="black" points="290.5,-123.5 290.5,-142.5 367.5,-142.5 367.5,-123.5 290.5,-123.5"/>
<text text-anchor="middle" x="329" y="-130.5" font-family="Helvetica,sans-Serif" font-size="10.00">tvm/ir/cow.h</text>
</a>
</g>
</g>
<!-- Node5&#45;&gt;Node10 -->
<g id="edge10" class="edge">
<title>Node5&#45;&gt;Node10</title>
<path fill="none" stroke="midnightblue" d="M481.65,-251.91C428.38,-246.89 339,-234.91 319,-210 305.89,-193.67 312.68,-168.7 319.85,-151.89"/>
<polygon fill="midnightblue" stroke="midnightblue" points="323.12,-153.16 324.19,-142.62 316.78,-150.19 323.12,-153.16"/>
</g>
<!-- Node12 -->
<g id="node12" class="node">
<title>Node12</title>
<g id="a_node12"><a xlink:title=" ">
<polygon fill="white" stroke="#bfbfbf" points="155.5,-62 155.5,-81 200.5,-81 200.5,-62 155.5,-62"/>
<text text-anchor="middle" x="178" y="-69" font-family="Helvetica,sans-Serif" font-size="10.00">utility</text>
</a>
</g>
</g>
<!-- Node5&#45;&gt;Node12 -->
<g id="edge44" class="edge">
<title>Node5&#45;&gt;Node12</title>
<path fill="none" stroke="midnightblue" d="M481.64,-253.64C436.65,-250.57 362.99,-240.79 308,-210 253.94,-179.74 208.98,-119.44 189.05,-89.79"/>
<polygon fill="midnightblue" stroke="midnightblue" points="191.9,-87.74 183.48,-81.31 186.05,-91.59 191.9,-87.74"/>
</g>
<!-- Node5&#45;&gt;Node13 -->
<g id="edge13" class="edge">
<title>Node5&#45;&gt;Node13</title>
<path fill="none" stroke="midnightblue" d="M562.19,-249.52C621.95,-241.3 737.76,-225.13 836,-210 848.31,-208.1 861.58,-205.97 873.99,-203.93"/>
<polygon fill="midnightblue" stroke="midnightblue" points="874.87,-207.33 884.16,-202.25 873.73,-200.42 874.87,-207.33"/>
</g>
<!-- Node5&#45;&gt;Node19 -->
<g id="edge41" class="edge">
<title>Node5&#45;&gt;Node19</title>
<path fill="none" stroke="midnightblue" d="M562.13,-248.8C596.43,-242.39 646.36,-230.4 686,-210 690.26,-207.81 793.52,-123.05 836.5,-87.72"/>
<polygon fill="midnightblue" stroke="midnightblue" points="838.74,-90.41 844.24,-81.35 834.3,-85 838.74,-90.41"/>
</g>
<!-- Node5&#45;&gt;Node26 -->
<g id="edge42" class="edge">
<title>Node5&#45;&gt;Node26</title>
<path fill="none" stroke="midnightblue" d="M562.04,-252.84C729.78,-243.4 1370.22,-203.64 1435,-143 1448.82,-130.06 1451.54,-107.8 1451.46,-91.74"/>
<polygon fill="midnightblue" stroke="midnightblue" points="1454.94,-91.22 1451.02,-81.38 1447.95,-91.52 1454.94,-91.22"/>
</g>
<!-- Node30 -->
<g id="node30" class="node">
<title>Node30</title>
<g id="a_node30"><a xlink:title=" ">
<polygon fill="white" stroke="#bfbfbf" points="734.5,-185 734.5,-204 827.5,-204 827.5,-185 734.5,-185"/>
<text text-anchor="middle" x="781" y="-192" font-family="Helvetica,sans-Serif" font-size="10.00">unordered_map</text>
</a>
</g>
</g>
<!-- Node5&#45;&gt;Node30 -->
<g id="edge43" class="edge">
<title>Node5&#45;&gt;Node30</title>
<path fill="none" stroke="midnightblue" d="M559.98,-246.48C599.86,-237.52 664.38,-222.93 720,-210 724.97,-208.84 730.18,-207.62 735.35,-206.4"/>
<polygon fill="midnightblue" stroke="midnightblue" points="736.29,-209.78 745.21,-204.07 734.67,-202.97 736.29,-209.78"/>
</g>
<!-- Node11 -->
<g id="node11" class="node">
<title>Node11</title>
<g id="a_node11"><a xlink:title=" ">
<polygon fill="white" stroke="#bfbfbf" points="218.5,-62 218.5,-81 309.5,-81 309.5,-62 218.5,-62"/>
<text text-anchor="middle" x="264" y="-69" font-family="Helvetica,sans-Serif" font-size="10.00">tvm/ffi/object.h</text>
</a>
</g>
</g>
<!-- Node10&#45;&gt;Node11 -->
<g id="edge11" class="edge">
<title>Node10&#45;&gt;Node11</title>
<path fill="none" stroke="midnightblue" d="M319.69,-123.48C309.55,-114.2 293.14,-99.17 280.75,-87.83"/>
<polygon fill="midnightblue" stroke="midnightblue" points="283.04,-85.18 273.3,-81.01 278.31,-90.34 283.04,-85.18"/>
</g>
<!-- Node10&#45;&gt;Node12 -->
<g id="edge12" class="edge">
<title>Node10&#45;&gt;Node12</title>
<path fill="none" stroke="midnightblue" d="M304.42,-123.42C280,-114.75 241.61,-100.72 209,-87 207.63,-86.42 206.23,-85.82 204.83,-85.21"/>
<polygon fill="midnightblue" stroke="midnightblue" points="206.15,-81.96 195.6,-81.02 203.26,-88.34 206.15,-81.96"/>
</g>
<!-- Node13&#45;&gt;Node4 -->
<g id="edge16" class="edge">
<title>Node13&#45;&gt;Node4</title>
<path fill="none" stroke="midnightblue" d="M884.25,-186.1C869.18,-183.52 851.84,-180.81 836,-179 590.42,-150.87 527.64,-159.41 281,-143 255.64,-141.31 227.55,-139.4 203.82,-137.78"/>
<polygon fill="midnightblue" stroke="midnightblue" points="203.82,-134.27 193.6,-137.08 203.34,-141.25 203.82,-134.27"/>
</g>
<!-- Node13&#45;&gt;Node9 -->
<g id="edge15" class="edge">
<title>Node13&#45;&gt;Node9</title>
<path fill="none" stroke="midnightblue" d="M903.61,-184.99C856.76,-165.45 740.63,-116.99 677.14,-90.5"/>
<polygon fill="midnightblue" stroke="midnightblue" points="678.37,-87.22 667.79,-86.6 675.67,-93.68 678.37,-87.22"/>
</g>
<!-- Node13&#45;&gt;Node10 -->
<g id="edge17" class="edge">
<title>Node13&#45;&gt;Node10</title>
<path fill="none" stroke="midnightblue" d="M884.23,-186.3C869.16,-183.74 851.82,-181 836,-179 668.4,-157.78 468.37,-143.16 377.82,-137.11"/>
<polygon fill="midnightblue" stroke="midnightblue" points="377.79,-133.6 367.58,-136.44 377.33,-140.59 377.79,-133.6"/>
</g>
<!-- Node14 -->
<g id="node14" class="node">
<title>Node14</title>
<g id="a_node14"><a xlink:title=" ">
<polygon fill="white" stroke="#bfbfbf" points="1039,-123.5 1039,-142.5 1175,-142.5 1175,-123.5 1039,-123.5"/>
<text text-anchor="middle" x="1107" y="-130.5" font-family="Helvetica,sans-Serif" font-size="10.00">tvm/ffi/extra/dataclass.h</text>
</a>
</g>
</g>
<!-- Node13&#45;&gt;Node14 -->
<g id="edge14" class="edge">
<title>Node13&#45;&gt;Node14</title>
<path fill="none" stroke="midnightblue" d="M950.22,-184.98C982.02,-174.64 1035.77,-157.16 1071.32,-145.6"/>
<polygon fill="midnightblue" stroke="midnightblue" points="1072.4,-148.93 1080.83,-142.51 1070.24,-142.27 1072.4,-148.93"/>
</g>
<!-- Node15 -->
<g id="node15" class="node">
<title>Node15</title>
<g id="a_node15"><a xlink:href="source__map_8h.html" target="_top" xlink:title="A map from source names to source code.">
<polygon fill="white" stroke="black" points="484.5,-123.5 484.5,-142.5 601.5,-142.5 601.5,-123.5 484.5,-123.5"/>
<text text-anchor="middle" x="543" y="-130.5" font-family="Helvetica,sans-Serif" font-size="10.00">tvm/ir/source_map.h</text>
</a>
</g>
</g>
<!-- Node13&#45;&gt;Node15 -->
<g id="edge18" class="edge">
<title>Node13&#45;&gt;Node15</title>
<path fill="none" stroke="midnightblue" d="M884.15,-186.84C869.07,-184.34 851.75,-181.51 836,-179 758.41,-166.65 669.16,-153.03 609.75,-144.04"/>
<polygon fill="midnightblue" stroke="midnightblue" points="610.16,-140.56 599.75,-142.53 609.11,-147.48 610.16,-140.56"/>
</g>
<!-- Node13&#45;&gt;Node19 -->
<g id="edge39" class="edge">
<title>Node13&#45;&gt;Node19</title>
<path fill="none" stroke="midnightblue" d="M912.33,-184.74C900.91,-175.56 883.84,-160.11 874,-143 864.74,-126.89 859.85,-106.1 857.37,-91.29"/>
<polygon fill="midnightblue" stroke="midnightblue" points="860.82,-90.68 855.9,-81.29 853.89,-91.7 860.82,-90.68"/>
</g>
<!-- Node21 -->
<g id="node21" class="node">
<title>Node21</title>
<g id="a_node21"><a xlink:href="data__type_8h.html" target="_top" xlink:title=" ">
<polygon fill="white" stroke="black" points="883,-123.5 883,-142.5 1021,-142.5 1021,-123.5 883,-123.5"/>
<text text-anchor="middle" x="952" y="-130.5" font-family="Helvetica,sans-Serif" font-size="10.00">tvm/runtime/data_type.h</text>
</a>
</g>
</g>
<!-- Node13&#45;&gt;Node21 -->
<g id="edge28" class="edge">
<title>Node13&#45;&gt;Node21</title>
<path fill="none" stroke="midnightblue" d="M928.01,-184.98C932.09,-176.32 938.52,-162.65 943.7,-151.65"/>
<polygon fill="midnightblue" stroke="midnightblue" points="946.9,-153.05 948,-142.51 940.57,-150.07 946.9,-153.05"/>
</g>
<!-- Node13&#45;&gt;Node26 -->
<g id="edge40" class="edge">
<title>Node13&#45;&gt;Node26</title>
<path fill="none" stroke="midnightblue" d="M963.86,-194.05C1066.87,-194.77 1339,-191.85 1412,-143 1430.01,-130.95 1440.18,-107.44 1445.37,-90.89"/>
<polygon fill="midnightblue" stroke="midnightblue" points="1448.76,-91.79 1448.1,-81.21 1442.02,-89.89 1448.76,-91.79"/>
</g>
<!-- Node27 -->
<g id="node27" class="node">
<title>Node27</title>
<g id="a_node27"><a xlink:title=" ">
<polygon fill="white" stroke="#bfbfbf" points="1193,-123.5 1193,-142.5 1257,-142.5 1257,-123.5 1193,-123.5"/>
<text text-anchor="middle" x="1225" y="-130.5" font-family="Helvetica,sans-Serif" font-size="10.00">algorithm</text>
</a>
</g>
</g>
<!-- Node13&#45;&gt;Node27 -->
<g id="edge36" class="edge">
<title>Node13&#45;&gt;Node27</title>
<path fill="none" stroke="midnightblue" d="M963.7,-186.1C1012.81,-176.88 1099.2,-160.43 1182.86,-143.2"/>
<polygon fill="midnightblue" stroke="midnightblue" points="1183.7,-146.6 1192.79,-141.15 1182.29,-139.74 1183.7,-146.6"/>
</g>
<!-- Node28 -->
<g id="node28" class="node">
<title>Node28</title>
<g id="a_node28"><a xlink:title=" ">
<polygon fill="white" stroke="#bfbfbf" points="1275.5,-123.5 1275.5,-142.5 1340.5,-142.5 1340.5,-123.5 1275.5,-123.5"/>
<text text-anchor="middle" x="1308" y="-130.5" font-family="Helvetica,sans-Serif" font-size="10.00">functional</text>
</a>
</g>
</g>
<!-- Node13&#45;&gt;Node28 -->
<g id="edge37" class="edge">
<title>Node13&#45;&gt;Node28</title>
<path fill="none" stroke="midnightblue" d="M963.63,-188.49C1025.68,-180.47 1149.75,-163.68 1265.39,-143"/>
<polygon fill="midnightblue" stroke="midnightblue" points="1266.26,-146.4 1275.48,-141.18 1265.02,-139.51 1266.26,-146.4"/>
</g>
<!-- Node29 -->
<g id="node29" class="node">
<title>Node29</title>
<g id="a_node29"><a xlink:title=" ">
<polygon fill="white" stroke="#bfbfbf" points="1359,-123.5 1359,-142.5 1403,-142.5 1403,-123.5 1359,-123.5"/>
<text text-anchor="middle" x="1381" y="-130.5" font-family="Helvetica,sans-Serif" font-size="10.00">limits</text>
</a>
</g>
</g>
<!-- Node13&#45;&gt;Node29 -->
<g id="edge38" class="edge">
<title>Node13&#45;&gt;Node29</title>
<path fill="none" stroke="midnightblue" d="M963.58,-190.87C1037.4,-185.51 1201.14,-171.53 1348.59,-142.75"/>
<polygon fill="midnightblue" stroke="midnightblue" points="1349.6,-146.12 1358.73,-140.74 1348.24,-139.25 1349.6,-146.12"/>
</g>
<!-- Node15&#45;&gt;Node2 -->
<g id="edge19" class="edge">
<title>Node15&#45;&gt;Node2</title>
<path fill="none" stroke="midnightblue" d="M484.31,-126.62C406.7,-119.21 265.73,-104.75 146,-87 137.67,-85.77 128.88,-84.31 120.3,-82.8"/>
<polygon fill="midnightblue" stroke="midnightblue" points="120.84,-79.34 110.37,-81.01 119.6,-86.23 120.84,-79.34"/>
</g>
<!-- Node15&#45;&gt;Node8 -->
<g id="edge20" class="edge">
<title>Node15&#45;&gt;Node8</title>
<path fill="none" stroke="midnightblue" d="M519.36,-123.48C491.06,-113.27 443.47,-96.11 411.41,-84.55"/>
<polygon fill="midnightblue" stroke="midnightblue" points="412.19,-81.11 401.6,-81.01 409.82,-87.69 412.19,-81.11"/>
</g>
<!-- Node15&#45;&gt;Node9 -->
<g id="edge21" class="edge">
<title>Node15&#45;&gt;Node9</title>
<path fill="none" stroke="midnightblue" d="M556.04,-123.48C568.48,-115.34 587.67,-102.79 603.9,-92.18"/>
<polygon fill="midnightblue" stroke="midnightblue" points="606.1,-94.92 612.55,-86.52 602.27,-89.07 606.1,-94.92"/>
</g>
<!-- Node15&#45;&gt;Node12 -->
<g id="edge26" class="edge">
<title>Node15&#45;&gt;Node12</title>
<path fill="none" stroke="midnightblue" d="M484.26,-129.47C416.66,-125.33 302.89,-114.58 209,-87 207.12,-86.45 205.21,-85.8 203.3,-85.08"/>
<polygon fill="midnightblue" stroke="midnightblue" points="204.62,-81.84 194.05,-81.13 201.87,-88.28 204.62,-81.84"/>
</g>
<!-- Node16 -->
<g id="node16" class="node">
<title>Node16</title>
<g id="a_node16"><a xlink:href="runtime_2base_8h.html" target="_top" xlink:title=" ">
<polygon fill="white" stroke="black" points="701.5,-62 701.5,-81 814.5,-81 814.5,-62 701.5,-62"/>
<text text-anchor="middle" x="758" y="-69" font-family="Helvetica,sans-Serif" font-size="10.00">tvm/runtime/base.h</text>
</a>
</g>
</g>
<!-- Node15&#45;&gt;Node16 -->
<g id="edge22" class="edge">
<title>Node15&#45;&gt;Node16</title>
<path fill="none" stroke="midnightblue" d="M573.8,-123.48C611.56,-113.03 675.66,-95.29 717.41,-83.73"/>
<polygon fill="midnightblue" stroke="midnightblue" points="718.55,-87.05 727.25,-81.01 716.68,-80.3 718.55,-87.05"/>
</g>
<!-- Node18 -->
<g id="node18" class="node">
<title>Node18</title>
<g id="a_node18"><a xlink:title=" ">
<polygon fill="white" stroke="#bfbfbf" points="446.5,-62 446.5,-81 501.5,-81 501.5,-62 446.5,-62"/>
<text text-anchor="middle" x="474" y="-69" font-family="Helvetica,sans-Serif" font-size="10.00">fstream</text>
</a>
</g>
</g>
<!-- Node15&#45;&gt;Node18 -->
<g id="edge24" class="edge">
<title>Node15&#45;&gt;Node18</title>
<path fill="none" stroke="midnightblue" d="M533.11,-123.48C522.35,-114.2 504.93,-99.17 491.78,-87.83"/>
<polygon fill="midnightblue" stroke="midnightblue" points="493.73,-84.89 483.87,-81.01 489.16,-90.19 493.73,-84.89"/>
</g>
<!-- Node15&#45;&gt;Node19 -->
<g id="edge25" class="edge">
<title>Node15&#45;&gt;Node19</title>
<path fill="none" stroke="midnightblue" d="M601.66,-127.15C659.03,-121.35 748.39,-109.46 823,-87 824.93,-86.42 826.89,-85.75 828.85,-85.02"/>
<polygon fill="midnightblue" stroke="midnightblue" points="830.5,-88.12 838.38,-81.04 827.81,-81.66 830.5,-88.12"/>
</g>
<!-- Node20 -->
<g id="node20" class="node">
<title>Node20</title>
<g id="a_node20"><a xlink:title=" ">
<polygon fill="white" stroke="#bfbfbf" points="519.5,-62 519.5,-81 566.5,-81 566.5,-62 519.5,-62"/>
<text text-anchor="middle" x="543" y="-69" font-family="Helvetica,sans-Serif" font-size="10.00">vector</text>
</a>
</g>
</g>
<!-- Node15&#45;&gt;Node20 -->
<g id="edge27" class="edge">
<title>Node15&#45;&gt;Node20</title>
<path fill="none" stroke="midnightblue" d="M543,-123.48C543,-115.08 543,-101.98 543,-91.16"/>
<polygon fill="midnightblue" stroke="midnightblue" points="546.5,-91.01 543,-81.01 539.5,-91.01 546.5,-91.01"/>
</g>
<!-- Node17 -->
<g id="node17" class="node">
<title>Node17</title>
<g id="a_node17"><a xlink:title=" ">
<polygon fill="white" stroke="#bfbfbf" points="715,-0.5 715,-19.5 801,-19.5 801,-0.5 715,-0.5"/>
<text text-anchor="middle" x="758" y="-7.5" font-family="Helvetica,sans-Serif" font-size="10.00">tvm/ffi/c_api.h</text>
</a>
</g>
</g>
<!-- Node16&#45;&gt;Node17 -->
<g id="edge23" class="edge">
<title>Node16&#45;&gt;Node17</title>
<path fill="none" stroke="midnightblue" d="M758,-61.98C758,-53.58 758,-40.48 758,-29.66"/>
<polygon fill="midnightblue" stroke="midnightblue" points="761.5,-29.51 758,-19.51 754.5,-29.51 761.5,-29.51"/>
</g>
<!-- Node21&#45;&gt;Node16 -->
<g id="edge32" class="edge">
<title>Node21&#45;&gt;Node16</title>
<path fill="none" stroke="midnightblue" d="M924.2,-123.48C890.35,-113.09 833.03,-95.51 795.35,-83.95"/>
<polygon fill="midnightblue" stroke="midnightblue" points="796.33,-80.6 785.74,-81.01 794.28,-87.29 796.33,-80.6"/>
</g>
<!-- Node21&#45;&gt;Node19 -->
<g id="edge34" class="edge">
<title>Node21&#45;&gt;Node19</title>
<path fill="none" stroke="midnightblue" d="M938.1,-123.48C922.33,-113.8 896.36,-97.87 877.65,-86.39"/>
<polygon fill="midnightblue" stroke="midnightblue" points="879.23,-83.25 868.87,-81.01 875.57,-89.22 879.23,-83.25"/>
</g>
<!-- Node22 -->
<g id="node22" class="node">
<title>Node22</title>
<g id="a_node22"><a xlink:title=" ">
<polygon fill="white" stroke="#bfbfbf" points="895.5,-62 895.5,-81 1034.5,-81 1034.5,-62 895.5,-62"/>
<text text-anchor="middle" x="965" y="-69" font-family="Helvetica,sans-Serif" font-size="10.00">tvm/ffi/container/shape.h</text>
</a>
</g>
</g>
<!-- Node21&#45;&gt;Node22 -->
<g id="edge29" class="edge">
<title>Node21&#45;&gt;Node22</title>
<path fill="none" stroke="midnightblue" d="M953.86,-123.48C955.72,-114.99 958.62,-101.7 961,-90.82"/>
<polygon fill="midnightblue" stroke="midnightblue" points="964.43,-91.53 963.14,-81.01 957.59,-90.03 964.43,-91.53"/>
</g>
<!-- Node23 -->
<g id="node23" class="node">
<title>Node23</title>
<g id="a_node23"><a xlink:title=" ">
<polygon fill="white" stroke="#bfbfbf" points="1052.5,-62 1052.5,-81 1141.5,-81 1141.5,-62 1052.5,-62"/>
<text text-anchor="middle" x="1097" y="-69" font-family="Helvetica,sans-Serif" font-size="10.00">tvm/ffi/dtype.h</text>
</a>
</g>
</g>
<!-- Node21&#45;&gt;Node23 -->
<g id="edge30" class="edge">
<title>Node21&#45;&gt;Node23</title>
<path fill="none" stroke="midnightblue" d="M972.77,-123.48C997.43,-113.36 1038.75,-96.4 1066.9,-84.85"/>
<polygon fill="midnightblue" stroke="midnightblue" points="1068.34,-88.04 1076.26,-81.01 1065.68,-81.57 1068.34,-88.04"/>
</g>
<!-- Node24 -->
<g id="node24" class="node">
<title>Node24</title>
<g id="a_node24"><a xlink:title=" ">
<polygon fill="white" stroke="#bfbfbf" points="1159.5,-62 1159.5,-81 1242.5,-81 1242.5,-62 1159.5,-62"/>
<text text-anchor="middle" x="1201" y="-69" font-family="Helvetica,sans-Serif" font-size="10.00">tvm/ffi/error.h</text>
</a>
</g>
</g>
<!-- Node21&#45;&gt;Node24 -->
<g id="edge31" class="edge">
<title>Node21&#45;&gt;Node24</title>
<path fill="none" stroke="midnightblue" d="M992.35,-123.49C1032.47,-114.88 1095.7,-100.88 1150,-87 1153.9,-86 1157.96,-84.92 1162.01,-83.82"/>
<polygon fill="midnightblue" stroke="midnightblue" points="1163.25,-87.1 1171.95,-81.05 1161.37,-80.36 1163.25,-87.1"/>
</g>
<!-- Node25 -->
<g id="node25" class="node">
<title>Node25</title>
<g id="a_node25"><a xlink:title=" ">
<polygon fill="white" stroke="#bfbfbf" points="1261,-62 1261,-81 1311,-81 1311,-62 1261,-62"/>
<text text-anchor="middle" x="1286" y="-69" font-family="Helvetica,sans-Serif" font-size="10.00">cstring</text>
</a>
</g>
</g>
<!-- Node21&#45;&gt;Node25 -->
<g id="edge33" class="edge">
<title>Node21&#45;&gt;Node25</title>
<path fill="none" stroke="midnightblue" d="M1021.32,-123.55C1095.76,-114.12 1209.02,-98.67 1251,-87 1253.44,-86.32 1255.94,-85.52 1258.42,-84.65"/>
<polygon fill="midnightblue" stroke="midnightblue" points="1259.7,-87.9 1267.77,-81.04 1257.18,-81.37 1259.7,-87.9"/>
</g>
<!-- Node21&#45;&gt;Node26 -->
<g id="edge35" class="edge">
<title>Node21&#45;&gt;Node26</title>
<path fill="none" stroke="midnightblue" d="M1021.24,-123.73C1125,-111.33 1317.92,-88.28 1405.13,-77.86"/>
<polygon fill="midnightblue" stroke="midnightblue" points="1405.71,-81.32 1415.23,-76.65 1404.88,-74.37 1405.71,-81.32"/>
</g>
</g>
</svg>
