<?xml version="1.0" encoding="UTF-8" standalone="no"?>
<!DOCTYPE svg PUBLIC "-//W3C//DTD SVG 1.1//EN"
 "http://www.w3.org/Graphics/SVG/1.1/DTD/svg11.dtd">
<!-- Generated by graphviz version 2.43.0 (0)
 -->
<!-- Title: include/tvm/ir/type.h Pages: 1 -->
<svg width="1476pt" height="263pt"
 viewBox="0.00 0.00 1476.00 263.00" xmlns="http://www.w3.org/2000/svg" xmlns:xlink="http://www.w3.org/1999/xlink">
<g id="graph0" class="graph" transform="scale(1 1) rotate(0) translate(4 259)">
<title>include/tvm/ir/type.h</title>
<polygon fill="white" stroke="transparent" points="-4,4 -4,-259 1472,-259 1472,4 -4,4"/>
<!-- Node1 -->
<g id="node1" class="node">
<title>Node1</title>
<g id="a_node1"><a xlink:title="IR/AST nodes for the unified type system in TVM.">
<polygon fill="#bfbfbf" stroke="black" points="231,-235.5 231,-254.5 349,-254.5 349,-235.5 231,-235.5"/>
<text text-anchor="middle" x="290" y="-242.5" font-family="Helvetica,sans-Serif" font-size="10.00">include/tvm/ir/type.h</text>
</a>
</g>
</g>
<!-- Node2 -->
<g id="node2" class="node">
<title>Node2</title>
<g id="a_node2"><a xlink:title=" ">
<polygon fill="white" stroke="#bfbfbf" points="17.5,-179.5 17.5,-198.5 98.5,-198.5 98.5,-179.5 17.5,-179.5"/>
<text text-anchor="middle" x="58" y="-186.5" font-family="Helvetica,sans-Serif" font-size="10.00">tvm/ffi/cast.h</text>
</a>
</g>
</g>
<!-- Node1&#45;&gt;Node2 -->
<g id="edge1" class="edge">
<title>Node1&#45;&gt;Node2</title>
<path fill="none" stroke="midnightblue" d="M253.24,-235.44C212.94,-226.06 148.19,-210.99 104.42,-200.8"/>
<polygon fill="midnightblue" stroke="midnightblue" points="105.12,-197.37 94.59,-198.52 103.54,-204.19 105.12,-197.37"/>
</g>
<!-- Node3 -->
<g id="node3" class="node">
<title>Node3</title>
<g id="a_node3"><a xlink:title=" ">
<polygon fill="white" stroke="#bfbfbf" points="0,-62 0,-81 134,-81 134,-62 0,-62"/>
<text text-anchor="middle" x="67" y="-69" font-family="Helvetica,sans-Serif" font-size="10.00">tvm/ffi/container/array.h</text>
</a>
</g>
</g>
<!-- Node1&#45;&gt;Node3 -->
<g id="edge2" class="edge">
<title>Node1&#45;&gt;Node3</title>
<path fill="none" stroke="midnightblue" d="M276.41,-235.38C262.69,-226.57 241.03,-212.32 223,-199 171.41,-160.88 113.41,-112.22 84.85,-87.85"/>
<polygon fill="midnightblue" stroke="midnightblue" points="86.84,-84.96 76.97,-81.11 82.29,-90.27 86.84,-84.96"/>
</g>
<!-- Node4 -->
<g id="node4" class="node">
<title>Node4</title>
<g id="a_node4"><a xlink:title=" ">
<polygon fill="white" stroke="#bfbfbf" points="152,-56.5 152,-86.5 250,-86.5 250,-56.5 152,-56.5"/>
<text text-anchor="start" x="160" y="-74.5" font-family="Helvetica,sans-Serif" font-size="10.00">tvm/ffi/reflection</text>
<text text-anchor="middle" x="201" y="-63.5" font-family="Helvetica,sans-Serif" font-size="10.00">/registry.h</text>
</a>
</g>
</g>
<!-- Node1&#45;&gt;Node4 -->
<g id="edge3" class="edge">
<title>Node1&#45;&gt;Node4</title>
<path fill="none" stroke="midnightblue" d="M279.17,-235.39C260.11,-219.5 221.08,-183.47 205,-143 199.21,-128.44 198.21,-110.84 198.65,-96.87"/>
<polygon fill="midnightblue" stroke="midnightblue" points="202.17,-96.76 199.26,-86.57 195.18,-96.35 202.17,-96.76"/>
</g>
<!-- Node5 -->
<g id="node5" class="node">
<title>Node5</title>
<g id="a_node5"><a xlink:href="ir_2expr_8h.html" target="_top" xlink:title="Base expr nodes in TVM.">
<polygon fill="white" stroke="black" points="638.5,-179.5 638.5,-198.5 717.5,-198.5 717.5,-179.5 638.5,-179.5"/>
<text text-anchor="middle" x="678" y="-186.5" font-family="Helvetica,sans-Serif" font-size="10.00">tvm/ir/expr.h</text>
</a>
</g>
</g>
<!-- Node1&#45;&gt;Node5 -->
<g id="edge4" class="edge">
<title>Node1&#45;&gt;Node5</title>
<path fill="none" stroke="midnightblue" d="M349.35,-235.74C425.73,-225.11 557.06,-206.83 628.39,-196.9"/>
<polygon fill="midnightblue" stroke="midnightblue" points="629.05,-200.35 638.47,-195.5 628.08,-193.41 629.05,-200.35"/>
</g>
<!-- Node11 -->
<g id="node11" class="node">
<title>Node11</title>
<g id="a_node11"><a xlink:href="source__map_8h.html" target="_top" xlink:title="A map from source names to source code.">
<polygon fill="white" stroke="black" points="231.5,-123.5 231.5,-142.5 348.5,-142.5 348.5,-123.5 231.5,-123.5"/>
<text text-anchor="middle" x="290" y="-130.5" font-family="Helvetica,sans-Serif" font-size="10.00">tvm/ir/source_map.h</text>
</a>
</g>
</g>
<!-- Node1&#45;&gt;Node11 -->
<g id="edge34" class="edge">
<title>Node1&#45;&gt;Node11</title>
<path fill="none" stroke="midnightblue" d="M290,-235.37C290,-217.62 290,-176.67 290,-152.6"/>
<polygon fill="midnightblue" stroke="midnightblue" points="293.5,-152.59 290,-142.59 286.5,-152.59 293.5,-152.59"/>
</g>
<!-- Node16 -->
<g id="node16" class="node">
<title>Node16</title>
<g id="a_node16"><a xlink:title=" ">
<polygon fill="white" stroke="#bfbfbf" points="903,-62 903,-81 947,-81 947,-62 903,-62"/>
<text text-anchor="middle" x="925" y="-69" font-family="Helvetica,sans-Serif" font-size="10.00">string</text>
</a>
</g>
</g>
<!-- Node1&#45;&gt;Node16 -->
<g id="edge36" class="edge">
<title>Node1&#45;&gt;Node16</title>
<path fill="none" stroke="midnightblue" d="M349.23,-239.88C509.19,-228.12 940.54,-192.1 980,-143 995.64,-123.54 969.92,-100.7 948.63,-86.41"/>
<polygon fill="midnightblue" stroke="midnightblue" points="950.52,-83.47 940.21,-81.03 946.75,-89.36 950.52,-83.47"/>
</g>
<!-- Node18 -->
<g id="node18" class="node">
<title>Node18</title>
<g id="a_node18"><a xlink:href="data__type_8h.html" target="_top" xlink:title=" ">
<polygon fill="white" stroke="black" points="1066,-123.5 1066,-142.5 1204,-142.5 1204,-123.5 1066,-123.5"/>
<text text-anchor="middle" x="1135" y="-130.5" font-family="Helvetica,sans-Serif" font-size="10.00">tvm/runtime/data_type.h</text>
</a>
</g>
</g>
<!-- Node1&#45;&gt;Node18 -->
<g id="edge35" class="edge">
<title>Node1&#45;&gt;Node18</title>
<path fill="none" stroke="midnightblue" d="M349.26,-242.53C516.98,-238.09 987,-223.59 1052,-199 1079.41,-188.63 1104.99,-165.81 1120.32,-150.17"/>
<polygon fill="midnightblue" stroke="midnightblue" points="1123.02,-152.41 1127.35,-142.74 1117.94,-147.6 1123.02,-152.41"/>
</g>
<!-- Node5&#45;&gt;Node4 -->
<g id="edge6" class="edge">
<title>Node5&#45;&gt;Node4</title>
<path fill="none" stroke="midnightblue" d="M638.15,-186.58C532.97,-182.48 253.79,-169.23 222,-143 208.47,-131.84 203.42,-112.37 201.63,-96.71"/>
<polygon fill="midnightblue" stroke="midnightblue" points="205.12,-96.34 200.86,-86.63 198.14,-96.87 205.12,-96.34"/>
</g>
<!-- Node6 -->
<g id="node6" class="node">
<title>Node6</title>
<g id="a_node6"><a xlink:title=" ">
<polygon fill="white" stroke="#bfbfbf" points="429,-123.5 429,-142.5 565,-142.5 565,-123.5 429,-123.5"/>
<text text-anchor="middle" x="497" y="-130.5" font-family="Helvetica,sans-Serif" font-size="10.00">tvm/ffi/extra/dataclass.h</text>
</a>
</g>
</g>
<!-- Node5&#45;&gt;Node6 -->
<g id="edge5" class="edge">
<title>Node5&#45;&gt;Node6</title>
<path fill="none" stroke="midnightblue" d="M649.32,-179.44C618.47,-170.24 569.27,-155.56 535.17,-145.39"/>
<polygon fill="midnightblue" stroke="midnightblue" points="536.13,-142.02 525.55,-142.52 534.13,-148.73 536.13,-142.02"/>
</g>
<!-- Node7 -->
<g id="node7" class="node">
<title>Node7</title>
<g id="a_node7"><a xlink:title=" ">
<polygon fill="white" stroke="#bfbfbf" points="583.5,-123.5 583.5,-142.5 672.5,-142.5 672.5,-123.5 583.5,-123.5"/>
<text text-anchor="middle" x="628" y="-130.5" font-family="Helvetica,sans-Serif" font-size="10.00">tvm/ffi/string.h</text>
</a>
</g>
</g>
<!-- Node5&#45;&gt;Node7 -->
<g id="edge7" class="edge">
<title>Node5&#45;&gt;Node7</title>
<path fill="none" stroke="midnightblue" d="M669.74,-179.08C662.54,-171.3 651.89,-159.8 643.15,-150.37"/>
<polygon fill="midnightblue" stroke="midnightblue" points="645.47,-147.71 636.1,-142.75 640.33,-152.47 645.47,-147.71"/>
</g>
<!-- Node8 -->
<g id="node8" class="node">
<title>Node8</title>
<g id="a_node8"><a xlink:href="cow_8h.html" target="_top" xlink:title="Copy&#45;on&#45;write helper macro for IR ffi::ObjectRef types.">
<polygon fill="white" stroke="black" points="690.5,-123.5 690.5,-142.5 767.5,-142.5 767.5,-123.5 690.5,-123.5"/>
<text text-anchor="middle" x="729" y="-130.5" font-family="Helvetica,sans-Serif" font-size="10.00">tvm/ir/cow.h</text>
</a>
</g>
</g>
<!-- Node5&#45;&gt;Node8 -->
<g id="edge8" class="edge">
<title>Node5&#45;&gt;Node8</title>
<path fill="none" stroke="midnightblue" d="M686.42,-179.08C693.85,-171.22 704.85,-159.57 713.81,-150.08"/>
<polygon fill="midnightblue" stroke="midnightblue" points="716.41,-152.42 720.74,-142.75 711.32,-147.62 716.41,-152.42"/>
</g>
<!-- Node5&#45;&gt;Node11 -->
<g id="edge11" class="edge">
<title>Node5&#45;&gt;Node11</title>
<path fill="none" stroke="midnightblue" d="M638.3,-182.47C572.55,-173.32 440.25,-154.91 358.96,-143.6"/>
<polygon fill="midnightblue" stroke="midnightblue" points="359.21,-140.1 348.82,-142.19 358.25,-147.03 359.21,-140.1"/>
</g>
<!-- Node5&#45;&gt;Node16 -->
<g id="edge32" class="edge">
<title>Node5&#45;&gt;Node16</title>
<path fill="none" stroke="midnightblue" d="M697.27,-179.45C717.12,-170.57 748.89,-156.17 776,-143 793.52,-134.49 797.48,-131.51 815,-123 830.15,-115.64 869.46,-97.7 896.73,-85.31"/>
<polygon fill="midnightblue" stroke="midnightblue" points="898.51,-88.35 906.17,-81.03 895.62,-81.97 898.51,-88.35"/>
</g>
<!-- Node5&#45;&gt;Node18 -->
<g id="edge21" class="edge">
<title>Node5&#45;&gt;Node18</title>
<path fill="none" stroke="midnightblue" d="M717.76,-183.3C792.95,-174.42 957.26,-155 1055.77,-143.36"/>
<polygon fill="midnightblue" stroke="midnightblue" points="1056.45,-146.81 1065.97,-142.16 1055.63,-139.85 1056.45,-146.81"/>
</g>
<!-- Node23 -->
<g id="node23" class="node">
<title>Node23</title>
<g id="a_node23"><a xlink:title=" ">
<polygon fill="white" stroke="#bfbfbf" points="965.5,-62 965.5,-81 1034.5,-81 1034.5,-62 965.5,-62"/>
<text text-anchor="middle" x="1000" y="-69" font-family="Helvetica,sans-Serif" font-size="10.00">type_traits</text>
</a>
</g>
</g>
<!-- Node5&#45;&gt;Node23 -->
<g id="edge33" class="edge">
<title>Node5&#45;&gt;Node23</title>
<path fill="none" stroke="midnightblue" d="M717.74,-187.28C790.62,-185.13 941.73,-176.64 980,-143 994.46,-130.29 998.81,-107.98 999.95,-91.86"/>
<polygon fill="midnightblue" stroke="midnightblue" points="1003.47,-91.55 1000.32,-81.44 996.47,-91.31 1003.47,-91.55"/>
</g>
<!-- Node24 -->
<g id="node24" class="node">
<title>Node24</title>
<g id="a_node24"><a xlink:title=" ">
<polygon fill="white" stroke="#bfbfbf" points="824,-123.5 824,-142.5 888,-142.5 888,-123.5 824,-123.5"/>
<text text-anchor="middle" x="856" y="-130.5" font-family="Helvetica,sans-Serif" font-size="10.00">algorithm</text>
</a>
</g>
</g>
<!-- Node5&#45;&gt;Node24 -->
<g id="edge29" class="edge">
<title>Node5&#45;&gt;Node24</title>
<path fill="none" stroke="midnightblue" d="M706.2,-179.44C736.41,-170.28 784.51,-155.69 818.03,-145.52"/>
<polygon fill="midnightblue" stroke="midnightblue" points="819.37,-148.77 827.93,-142.52 817.34,-142.07 819.37,-148.77"/>
</g>
<!-- Node25 -->
<g id="node25" class="node">
<title>Node25</title>
<g id="a_node25"><a xlink:title=" ">
<polygon fill="white" stroke="#bfbfbf" points="906.5,-123.5 906.5,-142.5 971.5,-142.5 971.5,-123.5 906.5,-123.5"/>
<text text-anchor="middle" x="939" y="-130.5" font-family="Helvetica,sans-Serif" font-size="10.00">functional</text>
</a>
</g>
</g>
<!-- Node5&#45;&gt;Node25 -->
<g id="edge30" class="edge">
<title>Node5&#45;&gt;Node25</title>
<path fill="none" stroke="midnightblue" d="M717.58,-179.97C759.4,-171.46 827.55,-157.54 896.3,-143.13"/>
<polygon fill="midnightblue" stroke="midnightblue" points="897.38,-146.48 906.45,-141 895.94,-139.63 897.38,-146.48"/>
</g>
<!-- Node26 -->
<g id="node26" class="node">
<title>Node26</title>
<g id="a_node26"><a xlink:title=" ">
<polygon fill="white" stroke="#bfbfbf" points="367,-123.5 367,-142.5 411,-142.5 411,-123.5 367,-123.5"/>
<text text-anchor="middle" x="389" y="-130.5" font-family="Helvetica,sans-Serif" font-size="10.00">limits</text>
</a>
</g>
</g>
<!-- Node5&#45;&gt;Node26 -->
<g id="edge31" class="edge">
<title>Node5&#45;&gt;Node26</title>
<path fill="none" stroke="midnightblue" d="M638.39,-182.47C589.45,-175.34 503.5,-161.83 421.05,-143.04"/>
<polygon fill="midnightblue" stroke="midnightblue" points="421.81,-139.62 411.27,-140.78 420.23,-146.44 421.81,-139.62"/>
</g>
<!-- Node9 -->
<g id="node9" class="node">
<title>Node9</title>
<g id="a_node9"><a xlink:title=" ">
<polygon fill="white" stroke="#bfbfbf" points="662.5,-62 662.5,-81 753.5,-81 753.5,-62 662.5,-62"/>
<text text-anchor="middle" x="708" y="-69" font-family="Helvetica,sans-Serif" font-size="10.00">tvm/ffi/object.h</text>
</a>
</g>
</g>
<!-- Node8&#45;&gt;Node9 -->
<g id="edge9" class="edge">
<title>Node8&#45;&gt;Node9</title>
<path fill="none" stroke="midnightblue" d="M725.99,-123.48C722.97,-114.9 718.21,-101.43 714.35,-90.48"/>
<polygon fill="midnightblue" stroke="midnightblue" points="717.63,-89.27 711,-81.01 711.03,-91.6 717.63,-89.27"/>
</g>
<!-- Node10 -->
<g id="node10" class="node">
<title>Node10</title>
<g id="a_node10"><a xlink:title=" ">
<polygon fill="white" stroke="#bfbfbf" points="563.5,-62 563.5,-81 608.5,-81 608.5,-62 563.5,-62"/>
<text text-anchor="middle" x="586" y="-69" font-family="Helvetica,sans-Serif" font-size="10.00">utility</text>
</a>
</g>
</g>
<!-- Node8&#45;&gt;Node10 -->
<g id="edge10" class="edge">
<title>Node8&#45;&gt;Node10</title>
<path fill="none" stroke="midnightblue" d="M708.51,-123.48C684.19,-113.36 643.45,-96.4 615.68,-84.85"/>
<polygon fill="midnightblue" stroke="midnightblue" points="617.03,-81.62 606.45,-81.01 614.34,-88.08 617.03,-81.62"/>
</g>
<!-- Node11&#45;&gt;Node3 -->
<g id="edge12" class="edge">
<title>Node11&#45;&gt;Node3</title>
<path fill="none" stroke="midnightblue" d="M258.05,-123.48C218.8,-113 152.12,-95.21 108.83,-83.66"/>
<polygon fill="midnightblue" stroke="midnightblue" points="109.46,-80.21 98.89,-81.01 107.65,-86.97 109.46,-80.21"/>
</g>
<!-- Node11&#45;&gt;Node4 -->
<g id="edge14" class="edge">
<title>Node11&#45;&gt;Node4</title>
<path fill="none" stroke="midnightblue" d="M277.25,-123.48C265.08,-115.34 246.31,-102.79 230.44,-92.18"/>
<polygon fill="midnightblue" stroke="midnightblue" points="232.23,-89.17 221.98,-86.52 228.34,-94.99 232.23,-89.17"/>
</g>
<!-- Node11&#45;&gt;Node10 -->
<g id="edge19" class="edge">
<title>Node11&#45;&gt;Node10</title>
<path fill="none" stroke="midnightblue" d="M333.35,-123.47C378.86,-114.49 452.49,-99.9 516,-87 528.23,-84.52 541.65,-81.75 553.44,-79.3"/>
<polygon fill="midnightblue" stroke="midnightblue" points="554.23,-82.71 563.31,-77.25 552.81,-75.86 554.23,-82.71"/>
</g>
<!-- Node12 -->
<g id="node12" class="node">
<title>Node12</title>
<g id="a_node12"><a xlink:title=" ">
<polygon fill="white" stroke="#bfbfbf" points="333.5,-62 333.5,-81 434.5,-81 434.5,-62 333.5,-62"/>
<text text-anchor="middle" x="384" y="-69" font-family="Helvetica,sans-Serif" font-size="10.00">tvm/ffi/function.h</text>
</a>
</g>
</g>
<!-- Node11&#45;&gt;Node12 -->
<g id="edge13" class="edge">
<title>Node11&#45;&gt;Node12</title>
<path fill="none" stroke="midnightblue" d="M303.47,-123.48C318.68,-113.84 343.69,-98.02 361.8,-86.55"/>
<polygon fill="midnightblue" stroke="midnightblue" points="363.98,-89.31 370.56,-81.01 360.24,-83.4 363.98,-89.31"/>
</g>
<!-- Node13 -->
<g id="node13" class="node">
<title>Node13</title>
<g id="a_node13"><a xlink:href="runtime_2base_8h.html" target="_top" xlink:title=" ">
<polygon fill="white" stroke="black" points="771.5,-62 771.5,-81 884.5,-81 884.5,-62 771.5,-62"/>
<text text-anchor="middle" x="828" y="-69" font-family="Helvetica,sans-Serif" font-size="10.00">tvm/runtime/base.h</text>
</a>
</g>
</g>
<!-- Node11&#45;&gt;Node13 -->
<g id="edge15" class="edge">
<title>Node11&#45;&gt;Node13</title>
<path fill="none" stroke="midnightblue" d="M348.59,-124.08C351.77,-123.7 354.92,-123.34 358,-123 537.17,-103.17 583.83,-114.4 762,-87 768.86,-85.95 776.07,-84.61 783.1,-83.17"/>
<polygon fill="midnightblue" stroke="midnightblue" points="784.17,-86.52 793.22,-81.01 782.71,-79.67 784.17,-86.52"/>
</g>
<!-- Node15 -->
<g id="node15" class="node">
<title>Node15</title>
<g id="a_node15"><a xlink:title=" ">
<polygon fill="white" stroke="#bfbfbf" points="452.5,-62 452.5,-81 507.5,-81 507.5,-62 452.5,-62"/>
<text text-anchor="middle" x="480" y="-69" font-family="Helvetica,sans-Serif" font-size="10.00">fstream</text>
</a>
</g>
</g>
<!-- Node11&#45;&gt;Node15 -->
<g id="edge17" class="edge">
<title>Node11&#45;&gt;Node15</title>
<path fill="none" stroke="midnightblue" d="M321.9,-123.49C353.03,-114.99 401.61,-101.17 443,-87 445.12,-86.27 447.3,-85.5 449.49,-84.7"/>
<polygon fill="midnightblue" stroke="midnightblue" points="450.87,-87.92 458.99,-81.1 448.39,-81.37 450.87,-87.92"/>
</g>
<!-- Node11&#45;&gt;Node16 -->
<g id="edge18" class="edge">
<title>Node11&#45;&gt;Node16</title>
<path fill="none" stroke="midnightblue" d="M348.58,-124C351.76,-123.64 354.92,-123.31 358,-123 595.14,-99.35 661.88,-145.11 893,-87 895.21,-86.44 897.46,-85.74 899.68,-84.95"/>
<polygon fill="midnightblue" stroke="midnightblue" points="901.22,-88.1 909.13,-81.04 898.55,-81.63 901.22,-88.1"/>
</g>
<!-- Node17 -->
<g id="node17" class="node">
<title>Node17</title>
<g id="a_node17"><a xlink:title=" ">
<polygon fill="white" stroke="#bfbfbf" points="268.5,-62 268.5,-81 315.5,-81 315.5,-62 268.5,-62"/>
<text text-anchor="middle" x="292" y="-69" font-family="Helvetica,sans-Serif" font-size="10.00">vector</text>
</a>
</g>
</g>
<!-- Node11&#45;&gt;Node17 -->
<g id="edge20" class="edge">
<title>Node11&#45;&gt;Node17</title>
<path fill="none" stroke="midnightblue" d="M290.29,-123.48C290.57,-115.08 291.01,-101.98 291.37,-91.16"/>
<polygon fill="midnightblue" stroke="midnightblue" points="294.88,-91.12 291.71,-81.01 287.88,-90.89 294.88,-91.12"/>
</g>
<!-- Node14 -->
<g id="node14" class="node">
<title>Node14</title>
<g id="a_node14"><a xlink:title=" ">
<polygon fill="white" stroke="#bfbfbf" points="785,-0.5 785,-19.5 871,-19.5 871,-0.5 785,-0.5"/>
<text text-anchor="middle" x="828" y="-7.5" font-family="Helvetica,sans-Serif" font-size="10.00">tvm/ffi/c_api.h</text>
</a>
</g>
</g>
<!-- Node13&#45;&gt;Node14 -->
<g id="edge16" class="edge">
<title>Node13&#45;&gt;Node14</title>
<path fill="none" stroke="midnightblue" d="M828,-61.98C828,-53.58 828,-40.48 828,-29.66"/>
<polygon fill="midnightblue" stroke="midnightblue" points="831.5,-29.51 828,-19.51 824.5,-29.51 831.5,-29.51"/>
</g>
<!-- Node18&#45;&gt;Node13 -->
<g id="edge25" class="edge">
<title>Node18&#45;&gt;Node13</title>
<path fill="none" stroke="midnightblue" d="M1086.9,-123.48C1038.19,-114.75 960.74,-100.56 894,-87 888.18,-85.82 882.08,-84.54 876.05,-83.24"/>
<polygon fill="midnightblue" stroke="midnightblue" points="876.51,-79.76 866,-81.06 875.03,-86.6 876.51,-79.76"/>
</g>
<!-- Node18&#45;&gt;Node16 -->
<g id="edge27" class="edge">
<title>Node18&#45;&gt;Node16</title>
<path fill="none" stroke="midnightblue" d="M1091.27,-123.45C1054.6,-115.71 1001.13,-103.06 956,-87 954.38,-86.42 952.74,-85.79 951.09,-85.13"/>
<polygon fill="midnightblue" stroke="midnightblue" points="952.37,-81.87 941.81,-81.07 949.57,-88.29 952.37,-81.87"/>
</g>
<!-- Node19 -->
<g id="node19" class="node">
<title>Node19</title>
<g id="a_node19"><a xlink:title=" ">
<polygon fill="white" stroke="#bfbfbf" points="1052.5,-62 1052.5,-81 1191.5,-81 1191.5,-62 1052.5,-62"/>
<text text-anchor="middle" x="1122" y="-69" font-family="Helvetica,sans-Serif" font-size="10.00">tvm/ffi/container/shape.h</text>
</a>
</g>
</g>
<!-- Node18&#45;&gt;Node19 -->
<g id="edge22" class="edge">
<title>Node18&#45;&gt;Node19</title>
<path fill="none" stroke="midnightblue" d="M1133.14,-123.48C1131.28,-114.99 1128.38,-101.7 1126,-90.82"/>
<polygon fill="midnightblue" stroke="midnightblue" points="1129.41,-90.03 1123.86,-81.01 1122.57,-91.53 1129.41,-90.03"/>
</g>
<!-- Node20 -->
<g id="node20" class="node">
<title>Node20</title>
<g id="a_node20"><a xlink:title=" ">
<polygon fill="white" stroke="#bfbfbf" points="1209.5,-62 1209.5,-81 1298.5,-81 1298.5,-62 1209.5,-62"/>
<text text-anchor="middle" x="1254" y="-69" font-family="Helvetica,sans-Serif" font-size="10.00">tvm/ffi/dtype.h</text>
</a>
</g>
</g>
<!-- Node18&#45;&gt;Node20 -->
<g id="edge23" class="edge">
<title>Node18&#45;&gt;Node20</title>
<path fill="none" stroke="midnightblue" d="M1152.05,-123.48C1171.84,-113.58 1204.72,-97.14 1227.77,-85.62"/>
<polygon fill="midnightblue" stroke="midnightblue" points="1229.6,-88.61 1236.98,-81.01 1226.47,-82.35 1229.6,-88.61"/>
</g>
<!-- Node21 -->
<g id="node21" class="node">
<title>Node21</title>
<g id="a_node21"><a xlink:title=" ">
<polygon fill="white" stroke="#bfbfbf" points="1316.5,-62 1316.5,-81 1399.5,-81 1399.5,-62 1316.5,-62"/>
<text text-anchor="middle" x="1358" y="-69" font-family="Helvetica,sans-Serif" font-size="10.00">tvm/ffi/error.h</text>
</a>
</g>
</g>
<!-- Node18&#45;&gt;Node21 -->
<g id="edge24" class="edge">
<title>Node18&#45;&gt;Node21</title>
<path fill="none" stroke="midnightblue" d="M1168.89,-123.48C1203.82,-114.63 1259.82,-100.25 1308,-87 1311.61,-86.01 1315.36,-84.96 1319.12,-83.89"/>
<polygon fill="midnightblue" stroke="midnightblue" points="1320.31,-87.19 1328.96,-81.07 1318.38,-80.46 1320.31,-87.19"/>
</g>
<!-- Node22 -->
<g id="node22" class="node">
<title>Node22</title>
<g id="a_node22"><a xlink:title=" ">
<polygon fill="white" stroke="#bfbfbf" points="1418,-62 1418,-81 1468,-81 1468,-62 1418,-62"/>
<text text-anchor="middle" x="1443" y="-69" font-family="Helvetica,sans-Serif" font-size="10.00">cstring</text>
</a>
</g>
</g>
<!-- Node18&#45;&gt;Node22 -->
<g id="edge26" class="edge">
<title>Node18&#45;&gt;Node22</title>
<path fill="none" stroke="midnightblue" d="M1204.14,-125.3C1260.16,-118.77 1340.72,-106.85 1409,-87 1411.29,-86.33 1413.63,-85.56 1415.95,-84.72"/>
<polygon fill="midnightblue" stroke="midnightblue" points="1417.3,-87.95 1425.3,-81 1414.71,-81.44 1417.3,-87.95"/>
</g>
<!-- Node18&#45;&gt;Node23 -->
<g id="edge28" class="edge">
<title>Node18&#45;&gt;Node23</title>
<path fill="none" stroke="midnightblue" d="M1115.66,-123.48C1092.9,-113.45 1054.91,-96.7 1028.71,-85.15"/>
<polygon fill="midnightblue" stroke="midnightblue" points="1029.87,-81.84 1019.31,-81.01 1027.05,-88.24 1029.87,-81.84"/>
</g>
</g>
</svg>
