<?xml version="1.0" encoding="UTF-8" standalone="no"?>
<!DOCTYPE svg PUBLIC "-//W3C//DTD SVG 1.1//EN"
 "http://www.w3.org/Graphics/SVG/1.1/DTD/svg11.dtd">
<!-- Generated by graphviz version 2.43.0 (0)
 -->
<!-- Title: include/tvm/arith/iter_affine_map.h Pages: 1 -->
<svg width="3637pt" height="968pt"
 viewBox="0.00 0.00 3637.01 968.00" xmlns="http://www.w3.org/2000/svg" xmlns:xlink="http://www.w3.org/1999/xlink">
<g id="graph0" class="graph" transform="scale(1 1) rotate(0) translate(4 964)">
<title>include/tvm/arith/iter_affine_map.h</title>
<polygon fill="white" stroke="transparent" points="-4,4 -4,-964 3633.01,-964 3633.01,4 -4,4"/>
<!-- Node1 -->
<g id="node1" class="node">
<title>Node1</title>
<g id="a_node1"><a xlink:title="Iterator quasi&#45;affine mapping patterns.">
<polygon fill="#bfbfbf" stroke="black" points="390.51,-929.5 390.51,-959.5 509.51,-959.5 509.51,-929.5 390.51,-929.5"/>
<text text-anchor="start" x="398.51" y="-947.5" font-family="Helvetica,sans-Serif" font-size="10.00">include/tvm/arith/iter</text>
<text text-anchor="middle" x="450.01" y="-936.5" font-family="Helvetica,sans-Serif" font-size="10.00">_affine_map.h</text>
</a>
</g>
</g>
<!-- Node2 -->
<g id="node2" class="node">
<title>Node2</title>
<g id="a_node2"><a xlink:href="analyzer_8h.html" target="_top" xlink:title="Algebra expression simplifications.">
<polygon fill="white" stroke="black" points="2899.51,-873.5 2899.51,-892.5 3014.51,-892.5 3014.51,-873.5 2899.51,-873.5"/>
<text text-anchor="middle" x="2957.01" y="-880.5" font-family="Helvetica,sans-Serif" font-size="10.00">tvm/arith/analyzer.h</text>
</a>
</g>
</g>
<!-- Node1&#45;&gt;Node2 -->
<g id="edge1" class="edge">
<title>Node1&#45;&gt;Node2</title>
<path fill="none" stroke="midnightblue" d="M509.81,-942.08C849.11,-934.03 2529.65,-894.14 2889.22,-885.61"/>
<polygon fill="midnightblue" stroke="midnightblue" points="2889.56,-889.1 2899.47,-885.37 2889.39,-882.1 2889.56,-889.1"/>
</g>
<!-- Node4 -->
<g id="node4" class="node">
<title>Node4</title>
<g id="a_node4"><a xlink:href="ir_2expr_8h.html" target="_top" xlink:title="Base expr nodes in TVM.">
<polygon fill="white" stroke="black" points="1484.51,-252 1484.51,-271 1563.51,-271 1563.51,-252 1484.51,-252"/>
<text text-anchor="middle" x="1524.01" y="-259" font-family="Helvetica,sans-Serif" font-size="10.00">tvm/ir/expr.h</text>
</a>
</g>
</g>
<!-- Node1&#45;&gt;Node4 -->
<g id="edge183" class="edge">
<title>Node1&#45;&gt;Node4</title>
<path fill="none" stroke="midnightblue" d="M442.13,-929.41C431,-908.13 412.01,-866.21 412.01,-828 412.01,-828 412.01,-828 412.01,-602 412.01,-376.59 1258.39,-286.08 1474.33,-266.66"/>
<polygon fill="midnightblue" stroke="midnightblue" points="1474.78,-270.13 1484.43,-265.76 1474.16,-263.16 1474.78,-270.13"/>
</g>
<!-- Node6 -->
<g id="node6" class="node">
<title>Node6</title>
<g id="a_node6"><a xlink:title=" ">
<polygon fill="white" stroke="#bfbfbf" points="419.01,-56.5 419.01,-86.5 517.01,-86.5 517.01,-56.5 419.01,-56.5"/>
<text text-anchor="start" x="427.01" y="-74.5" font-family="Helvetica,sans-Serif" font-size="10.00">tvm/ffi/reflection</text>
<text text-anchor="middle" x="468.01" y="-63.5" font-family="Helvetica,sans-Serif" font-size="10.00">/registry.h</text>
</a>
</g>
</g>
<!-- Node1&#45;&gt;Node6 -->
<g id="edge181" class="edge">
<title>Node1&#45;&gt;Node6</title>
<path fill="none" stroke="midnightblue" d="M390.42,-939.52C274.74,-930.15 31.01,-901.66 31.01,-828 31.01,-828 31.01,-828 31.01,-193.5 31.01,-116.05 289.17,-86.18 408.64,-76.5"/>
<polygon fill="midnightblue" stroke="midnightblue" points="409.03,-79.98 418.73,-75.7 408.48,-73 409.03,-79.98"/>
</g>
<!-- Node16 -->
<g id="node16" class="node">
<title>Node16</title>
<g id="a_node16"><a xlink:href="cow_8h.html" target="_top" xlink:title="Copy&#45;on&#45;write helper macro for IR ffi::ObjectRef types.">
<polygon fill="white" stroke="black" points="3271.51,-185 3271.51,-204 3348.51,-204 3348.51,-185 3271.51,-185"/>
<text text-anchor="middle" x="3310.01" y="-192" font-family="Helvetica,sans-Serif" font-size="10.00">tvm/ir/cow.h</text>
</a>
</g>
</g>
<!-- Node1&#45;&gt;Node16 -->
<g id="edge182" class="edge">
<title>Node1&#45;&gt;Node16</title>
<path fill="none" stroke="midnightblue" d="M509.53,-943.53C871.5,-943.57 2769.98,-941.45 3024.01,-893 3093.91,-879.67 3122.51,-886.11 3174.01,-837 3359.12,-660.49 3324.07,-299.7 3312.71,-214.04"/>
<polygon fill="midnightblue" stroke="midnightblue" points="3316.16,-213.44 3311.32,-204.01 3309.23,-214.4 3316.16,-213.44"/>
</g>
<!-- Node58 -->
<g id="node58" class="node">
<title>Node58</title>
<g id="a_node58"><a xlink:href="var_8h.html" target="_top" xlink:title="Variables in the TIR.">
<polygon fill="white" stroke="black" points="1957.51,-425.5 1957.51,-444.5 2040.51,-444.5 2040.51,-425.5 1957.51,-425.5"/>
<text text-anchor="middle" x="1999.01" y="-432.5" font-family="Helvetica,sans-Serif" font-size="10.00">tvm/tirx/var.h</text>
</a>
</g>
</g>
<!-- Node1&#45;&gt;Node58 -->
<g id="edge184" class="edge">
<title>Node1&#45;&gt;Node58</title>
<path fill="none" stroke="midnightblue" d="M509.66,-938.4C756.14,-916.47 1693.82,-824.12 1941.01,-669 2009.38,-626.09 2003.58,-581.46 2010.01,-501 2010.71,-492.14 2011.07,-489.83 2010.01,-481 2008.94,-472.11 2006.72,-462.43 2004.55,-454.34"/>
<polygon fill="midnightblue" stroke="midnightblue" points="2007.85,-453.17 2001.74,-444.51 2001.12,-455.09 2007.85,-453.17"/>
</g>
<!-- Node3 -->
<g id="node3" class="node">
<title>Node3</title>
<g id="a_node3"><a xlink:href="int__set_8h.html" target="_top" xlink:title="Integer set.">
<polygon fill="white" stroke="black" points="2497.51,-817.5 2497.51,-836.5 2604.51,-836.5 2604.51,-817.5 2497.51,-817.5"/>
<text text-anchor="middle" x="2551.01" y="-824.5" font-family="Helvetica,sans-Serif" font-size="10.00">tvm/arith/int_set.h</text>
</a>
</g>
</g>
<!-- Node2&#45;&gt;Node3 -->
<g id="edge2" class="edge">
<title>Node2&#45;&gt;Node3</title>
<path fill="none" stroke="midnightblue" d="M2899.27,-874.32C2824.05,-864.32 2692.96,-846.88 2614.85,-836.49"/>
<polygon fill="midnightblue" stroke="midnightblue" points="2615.04,-832.99 2604.66,-835.14 2614.11,-839.92 2615.04,-832.99"/>
</g>
<!-- Node2&#45;&gt;Node4 -->
<g id="edge174" class="edge">
<title>Node2&#45;&gt;Node4</title>
<path fill="none" stroke="midnightblue" d="M2899.4,-881.35C2591.16,-877.33 1145.24,-851.79 997.01,-725 826.45,-579.12 1082.76,-401.52 1289.01,-313 1349.87,-286.88 1425.59,-273.74 1474.35,-267.52"/>
<polygon fill="midnightblue" stroke="midnightblue" points="1474.83,-270.99 1484.33,-266.3 1473.98,-264.04 1474.83,-270.99"/>
</g>
<!-- Node2&#45;&gt;Node6 -->
<g id="edge173" class="edge">
<title>Node2&#45;&gt;Node6</title>
<path fill="none" stroke="midnightblue" d="M2899.43,-881.33C2495.85,-876.46 107.01,-844.53 107.01,-772 107.01,-772 107.01,-772 107.01,-322 107.01,-176.94 306.72,-109.64 409.06,-84.67"/>
<polygon fill="midnightblue" stroke="midnightblue" points="410.03,-88.04 418.95,-82.32 408.41,-81.23 410.03,-88.04"/>
</g>
<!-- Node10 -->
<g id="node10" class="node">
<title>Node10</title>
<g id="a_node10"><a xlink:title=" ">
<polygon fill="white" stroke="#bfbfbf" points="813.51,-123.5 813.51,-142.5 894.51,-142.5 894.51,-123.5 813.51,-123.5"/>
<text text-anchor="middle" x="854.01" y="-130.5" font-family="Helvetica,sans-Serif" font-size="10.00">tvm/ffi/cast.h</text>
</a>
</g>
</g>
<!-- Node2&#45;&gt;Node10 -->
<g id="edge172" class="edge">
<title>Node2&#45;&gt;Node10</title>
<path fill="none" stroke="midnightblue" d="M2899.48,-881.23C2659.36,-877.89 1736.11,-863.53 1446.01,-837 1283.01,-822.09 1242.68,-812.21 1082.01,-781 774.72,-721.31 588.42,-861.46 398.01,-613 243.14,-410.92 698.69,-199.53 823.38,-146.58"/>
<polygon fill="midnightblue" stroke="midnightblue" points="824.9,-149.74 832.76,-142.63 822.19,-143.28 824.9,-149.74"/>
</g>
<!-- Node15 -->
<g id="node15" class="node">
<title>Node15</title>
<g id="a_node15"><a xlink:title=" ">
<polygon fill="white" stroke="#bfbfbf" points="2845.51,-62 2845.51,-81 2890.51,-81 2890.51,-62 2845.51,-62"/>
<text text-anchor="middle" x="2868.01" y="-69" font-family="Helvetica,sans-Serif" font-size="10.00">utility</text>
</a>
</g>
</g>
<!-- Node2&#45;&gt;Node15 -->
<g id="edge179" class="edge">
<title>Node2&#45;&gt;Node15</title>
<path fill="none" stroke="midnightblue" d="M3014.67,-879.21C3170.96,-870.09 3591.01,-834.54 3591.01,-716 3591.01,-716 3591.01,-716 3591.01,-260.5 3591.01,-220.9 3585.65,-204.08 3555.01,-179 3452.9,-95.42 3024.05,-76.92 2901.09,-73.3"/>
<polygon fill="midnightblue" stroke="midnightblue" points="2900.9,-69.8 2890.81,-73.01 2900.71,-76.79 2900.9,-69.8"/>
</g>
<!-- Node24 -->
<g id="node24" class="node">
<title>Node24</title>
<g id="a_node24"><a xlink:title=" ">
<polygon fill="white" stroke="#bfbfbf" points="3302.51,-62 3302.51,-81 3349.51,-81 3349.51,-62 3302.51,-62"/>
<text text-anchor="middle" x="3326.01" y="-69" font-family="Helvetica,sans-Serif" font-size="10.00">vector</text>
</a>
</g>
</g>
<!-- Node2&#45;&gt;Node24 -->
<g id="edge180" class="edge">
<title>Node2&#45;&gt;Node24</title>
<path fill="none" stroke="midnightblue" d="M3014.59,-878.61C3177.35,-868.28 3629.01,-834.03 3629.01,-772 3629.01,-772 3629.01,-772 3629.01,-193.5 3629.01,-136.04 3438.69,-93.66 3359.72,-78.54"/>
<polygon fill="midnightblue" stroke="midnightblue" points="3360.26,-75.08 3349.78,-76.67 3358.96,-81.96 3360.26,-75.08"/>
</g>
<!-- Node32 -->
<g id="node32" class="node">
<title>Node32</title>
<g id="a_node32"><a xlink:title=" ">
<polygon fill="white" stroke="#bfbfbf" points="3481.01,-185 3481.01,-204 3525.01,-204 3525.01,-185 3481.01,-185"/>
<text text-anchor="middle" x="3503.01" y="-192" font-family="Helvetica,sans-Serif" font-size="10.00">limits</text>
</a>
</g>
</g>
<!-- Node2&#45;&gt;Node32 -->
<g id="edge176" class="edge">
<title>Node2&#45;&gt;Node32</title>
<path fill="none" stroke="midnightblue" d="M3012.81,-873.49C3160.97,-849.35 3553.01,-774.63 3553.01,-660 3553.01,-660 3553.01,-660 3553.01,-322 3553.01,-280.49 3529.43,-236.34 3514.66,-212.75"/>
<polygon fill="midnightblue" stroke="midnightblue" points="3517.51,-210.72 3509.14,-204.23 3511.64,-214.53 3517.51,-210.72"/>
</g>
<!-- Node38 -->
<g id="node38" class="node">
<title>Node38</title>
<g id="a_node38"><a xlink:title=" ">
<polygon fill="white" stroke="#bfbfbf" points="2708.51,-123.5 2708.51,-142.5 2801.51,-142.5 2801.51,-123.5 2708.51,-123.5"/>
<text text-anchor="middle" x="2755.01" y="-130.5" font-family="Helvetica,sans-Serif" font-size="10.00">unordered_map</text>
</a>
</g>
</g>
<!-- Node2&#45;&gt;Node38 -->
<g id="edge178" class="edge">
<title>Node2&#45;&gt;Node38</title>
<path fill="none" stroke="midnightblue" d="M2957.01,-873.44C2957.01,-854.94 2957.01,-809.81 2957.01,-772 2957.01,-772 2957.01,-772 2957.01,-322 2957.01,-258.35 2989.98,-227.71 2949.01,-179 2931.57,-158.27 2862.79,-146.06 2812.05,-139.7"/>
<polygon fill="midnightblue" stroke="midnightblue" points="2812.2,-136.19 2801.85,-138.47 2811.36,-143.14 2812.2,-136.19"/>
</g>
<!-- Node48 -->
<g id="node48" class="node">
<title>Node48</title>
<g id="a_node48"><a xlink:href="with__context_8h.html" target="_top" xlink:title="RAII wrapper function to enter and exit a context object similar to python&#39;s with syntax.">
<polygon fill="white" stroke="black" points="3023.51,-252 3023.51,-271 3144.51,-271 3144.51,-252 3023.51,-252"/>
<text text-anchor="middle" x="3084.01" y="-259" font-family="Helvetica,sans-Serif" font-size="10.00">tvm/ir/with_context.h</text>
</a>
</g>
</g>
<!-- Node2&#45;&gt;Node48 -->
<g id="edge175" class="edge">
<title>Node2&#45;&gt;Node48</title>
<path fill="none" stroke="midnightblue" d="M3014.54,-878.66C3082.08,-871.26 3185.01,-847.59 3185.01,-772 3185.01,-772 3185.01,-772 3185.01,-378 3185.01,-331.89 3138.83,-295.33 3108.93,-276.49"/>
<polygon fill="midnightblue" stroke="midnightblue" points="3110.6,-273.41 3100.23,-271.22 3106.97,-279.4 3110.6,-273.41"/>
</g>
<!-- Node50 -->
<g id="node50" class="node">
<title>Node50</title>
<g id="a_node50"><a xlink:title=" ">
<polygon fill="white" stroke="#bfbfbf" points="3035.01,-185 3035.01,-204 3093.01,-204 3093.01,-185 3035.01,-185"/>
<text text-anchor="middle" x="3064.01" y="-192" font-family="Helvetica,sans-Serif" font-size="10.00">memory</text>
</a>
</g>
</g>
<!-- Node2&#45;&gt;Node50 -->
<g id="edge177" class="edge">
<title>Node2&#45;&gt;Node50</title>
<path fill="none" stroke="midnightblue" d="M2977.65,-873.42C3010.5,-858.23 3071.01,-823.29 3071.01,-772 3071.01,-772 3071.01,-772 3071.01,-490 3071.01,-392.12 3027.56,-374.08 3015.01,-277 3013.24,-263.34 3009.83,-258.77 3015.01,-246 3020.73,-231.89 3032.5,-219.54 3043.07,-210.59"/>
<polygon fill="midnightblue" stroke="midnightblue" points="3045.5,-213.13 3051.15,-204.17 3041.14,-207.65 3045.5,-213.13"/>
</g>
<!-- Node3&#45;&gt;Node4 -->
<g id="edge3" class="edge">
<title>Node3&#45;&gt;Node4</title>
<path fill="none" stroke="midnightblue" d="M2497.09,-824.5C2231.02,-816.82 1068.68,-780.19 1017.01,-725 889.88,-589.23 1091.59,-484.97 1237.01,-369 1308.3,-312.15 1412.95,-283.66 1474.21,-271.06"/>
<polygon fill="midnightblue" stroke="midnightblue" points="1475.27,-274.42 1484.4,-269.03 1473.91,-267.55 1475.27,-274.42"/>
</g>
<!-- Node33 -->
<g id="node33" class="node">
<title>Node33</title>
<g id="a_node33"><a xlink:href="tirx_2expr_8h.html" target="_top" xlink:title="TIR expressions.">
<polygon fill="white" stroke="black" points="2299.51,-761.5 2299.51,-780.5 2388.51,-780.5 2388.51,-761.5 2299.51,-761.5"/>
<text text-anchor="middle" x="2344.01" y="-768.5" font-family="Helvetica,sans-Serif" font-size="10.00">tvm/tirx/expr.h</text>
</a>
</g>
</g>
<!-- Node3&#45;&gt;Node33 -->
<g id="edge47" class="edge">
<title>Node3&#45;&gt;Node33</title>
<path fill="none" stroke="midnightblue" d="M2518.21,-817.44C2482.63,-808.16 2425.69,-793.31 2386.66,-783.13"/>
<polygon fill="midnightblue" stroke="midnightblue" points="2387.21,-779.65 2376.65,-780.52 2385.45,-786.43 2387.21,-779.65"/>
</g>
<!-- Node3&#45;&gt;Node38 -->
<g id="edge171" class="edge">
<title>Node3&#45;&gt;Node38</title>
<path fill="none" stroke="midnightblue" d="M2604.52,-821.23C2706.58,-810.65 2919.01,-780.85 2919.01,-716 2919.01,-716 2919.01,-716 2919.01,-322 2919.01,-258.32 2966.96,-229.38 2928.01,-179 2913.71,-160.51 2856.36,-148.2 2811.56,-141.2"/>
<polygon fill="midnightblue" stroke="midnightblue" points="2812.04,-137.73 2801.63,-139.7 2811,-144.66 2812.04,-137.73"/>
</g>
<!-- Node5 -->
<g id="node5" class="node">
<title>Node5</title>
<g id="a_node5"><a xlink:title=" ">
<polygon fill="white" stroke="#bfbfbf" points="1145.01,-185 1145.01,-204 1281.01,-204 1281.01,-185 1145.01,-185"/>
<text text-anchor="middle" x="1213.01" y="-192" font-family="Helvetica,sans-Serif" font-size="10.00">tvm/ffi/extra/dataclass.h</text>
</a>
</g>
</g>
<!-- Node4&#45;&gt;Node5 -->
<g id="edge4" class="edge">
<title>Node4&#45;&gt;Node5</title>
<path fill="none" stroke="midnightblue" d="M1484.3,-252.2C1428.15,-240.47 1325.52,-219.02 1263.86,-206.13"/>
<polygon fill="midnightblue" stroke="midnightblue" points="1264.46,-202.68 1253.96,-204.06 1263.03,-209.53 1264.46,-202.68"/>
</g>
<!-- Node4&#45;&gt;Node6 -->
<g id="edge5" class="edge">
<title>Node4&#45;&gt;Node6</title>
<path fill="none" stroke="midnightblue" d="M1484.49,-259.23C1353.31,-254.78 933.21,-238.6 801.01,-210 686.4,-185.21 561.07,-122.99 502.18,-91.45"/>
<polygon fill="midnightblue" stroke="midnightblue" points="503.77,-88.34 493.31,-86.67 500.45,-94.5 503.77,-88.34"/>
</g>
<!-- Node7 -->
<g id="node7" class="node">
<title>Node7</title>
<g id="a_node7"><a xlink:title=" ">
<polygon fill="white" stroke="#bfbfbf" points="629.51,-123.5 629.51,-142.5 718.51,-142.5 718.51,-123.5 629.51,-123.5"/>
<text text-anchor="middle" x="674.01" y="-130.5" font-family="Helvetica,sans-Serif" font-size="10.00">tvm/ffi/string.h</text>
</a>
</g>
</g>
<!-- Node4&#45;&gt;Node7 -->
<g id="edge6" class="edge">
<title>Node4&#45;&gt;Node7</title>
<path fill="none" stroke="midnightblue" d="M1484.5,-260.35C1358.29,-259.43 966.18,-253.08 848.01,-210 825.87,-201.93 825.93,-189.83 805.01,-179 776.98,-164.49 743.26,-153.03 717.06,-145.31"/>
<polygon fill="midnightblue" stroke="midnightblue" points="717.98,-141.93 707.41,-142.53 716.05,-148.66 717.98,-141.93"/>
</g>
<!-- Node8 -->
<g id="node8" class="node">
<title>Node8</title>
<g id="a_node8"><a xlink:href="cast_8h.html" target="_top" xlink:title="Value casting helpers.">
<polygon fill="white" stroke="black" points="1697.01,-185 1697.01,-204 1775.01,-204 1775.01,-185 1697.01,-185"/>
<text text-anchor="middle" x="1736.01" y="-192" font-family="Helvetica,sans-Serif" font-size="10.00">tvm/ir/cast.h</text>
</a>
</g>
</g>
<!-- Node4&#45;&gt;Node8 -->
<g id="edge7" class="edge">
<title>Node4&#45;&gt;Node8</title>
<path fill="none" stroke="midnightblue" d="M1552.16,-251.87C1589.8,-240.33 1656.64,-219.84 1698.51,-207"/>
<polygon fill="midnightblue" stroke="midnightblue" points="1699.54,-210.34 1708.08,-204.06 1697.49,-203.65 1699.54,-210.34"/>
</g>
<!-- Node4&#45;&gt;Node16 -->
<g id="edge15" class="edge">
<title>Node4&#45;&gt;Node16</title>
<path fill="none" stroke="midnightblue" d="M1563.71,-259.5C1800.29,-253.51 3019.75,-222.22 3186.01,-210 3210.84,-208.17 3238.37,-205.07 3261.16,-202.19"/>
<polygon fill="midnightblue" stroke="midnightblue" points="3261.8,-205.64 3271.27,-200.9 3260.91,-198.7 3261.8,-205.64"/>
</g>
<!-- Node17 -->
<g id="node17" class="node">
<title>Node17</title>
<g id="a_node17"><a xlink:href="source__map_8h.html" target="_top" xlink:title="A map from source names to source code.">
<polygon fill="white" stroke="black" points="1217.51,-123.5 1217.51,-142.5 1334.51,-142.5 1334.51,-123.5 1217.51,-123.5"/>
<text text-anchor="middle" x="1276.01" y="-130.5" font-family="Helvetica,sans-Serif" font-size="10.00">tvm/ir/source_map.h</text>
</a>
</g>
</g>
<!-- Node4&#45;&gt;Node17 -->
<g id="edge18" class="edge">
<title>Node4&#45;&gt;Node17</title>
<path fill="none" stroke="midnightblue" d="M1506.96,-251.81C1464.3,-230.04 1352.69,-173.12 1301.88,-147.2"/>
<polygon fill="midnightblue" stroke="midnightblue" points="1303.34,-144.01 1292.84,-142.59 1300.16,-150.25 1303.34,-144.01"/>
</g>
<!-- Node23 -->
<g id="node23" class="node">
<title>Node23</title>
<g id="a_node23"><a xlink:title=" ">
<polygon fill="white" stroke="#bfbfbf" points="1015.01,-62 1015.01,-81 1059.01,-81 1059.01,-62 1015.01,-62"/>
<text text-anchor="middle" x="1037.01" y="-69" font-family="Helvetica,sans-Serif" font-size="10.00">string</text>
</a>
</g>
</g>
<!-- Node4&#45;&gt;Node23 -->
<g id="edge45" class="edge">
<title>Node4&#45;&gt;Node23</title>
<path fill="none" stroke="midnightblue" d="M1484.48,-259.29C1397.83,-256.03 1194.26,-244.77 1136.01,-210 1088.56,-181.68 1057.44,-120.88 1044.23,-90.52"/>
<polygon fill="midnightblue" stroke="midnightblue" points="1047.4,-89.03 1040.31,-81.16 1040.94,-91.73 1047.4,-89.03"/>
</g>
<!-- Node25 -->
<g id="node25" class="node">
<title>Node25</title>
<g id="a_node25"><a xlink:href="ir_2type_8h.html" target="_top" xlink:title="IR/AST nodes for the unified type system in TVM.">
<polygon fill="white" stroke="black" points="857.01,-185 857.01,-204 937.01,-204 937.01,-185 857.01,-185"/>
<text text-anchor="middle" x="897.01" y="-192" font-family="Helvetica,sans-Serif" font-size="10.00">tvm/ir/type.h</text>
</a>
</g>
</g>
<!-- Node4&#45;&gt;Node25 -->
<g id="edge28" class="edge">
<title>Node4&#45;&gt;Node25</title>
<path fill="none" stroke="midnightblue" d="M1484.31,-256.38C1374.84,-245.04 1068.79,-213.31 947.47,-200.73"/>
<polygon fill="midnightblue" stroke="midnightblue" points="947.65,-197.23 937.34,-199.68 946.93,-204.19 947.65,-197.23"/>
</g>
<!-- Node29 -->
<g id="node29" class="node">
<title>Node29</title>
<g id="a_node29"><a xlink:title=" ">
<polygon fill="white" stroke="#bfbfbf" points="2271.51,-62 2271.51,-81 2340.51,-81 2340.51,-62 2271.51,-62"/>
<text text-anchor="middle" x="2306.01" y="-69" font-family="Helvetica,sans-Serif" font-size="10.00">type_traits</text>
</a>
</g>
</g>
<!-- Node4&#45;&gt;Node29 -->
<g id="edge46" class="edge">
<title>Node4&#45;&gt;Node29</title>
<path fill="none" stroke="midnightblue" d="M1549.35,-251.85C1574.39,-242.87 1613.42,-227.67 1645.01,-210 1665.57,-198.5 1665.88,-187.08 1688.01,-179 1888.14,-105.97 1961.25,-201.84 2166.01,-143 2184.35,-137.73 2187.01,-131.68 2204.01,-123 2229.38,-110.05 2258.52,-95.67 2279.14,-85.57"/>
<polygon fill="midnightblue" stroke="midnightblue" points="2280.8,-88.66 2288.25,-81.13 2277.73,-82.37 2280.8,-88.66"/>
</g>
<!-- Node30 -->
<g id="node30" class="node">
<title>Node30</title>
<g id="a_node30"><a xlink:title=" ">
<polygon fill="white" stroke="#bfbfbf" points="1793.01,-185 1793.01,-204 1857.01,-204 1857.01,-185 1793.01,-185"/>
<text text-anchor="middle" x="1825.01" y="-192" font-family="Helvetica,sans-Serif" font-size="10.00">algorithm</text>
</a>
</g>
</g>
<!-- Node4&#45;&gt;Node30 -->
<g id="edge42" class="edge">
<title>Node4&#45;&gt;Node30</title>
<path fill="none" stroke="midnightblue" d="M1563.63,-254.68C1614.97,-246.71 1707.03,-230.96 1784.01,-210 1786.97,-209.19 1790.03,-208.28 1793.08,-207.3"/>
<polygon fill="midnightblue" stroke="midnightblue" points="1794.28,-210.59 1802.64,-204.08 1792.05,-203.96 1794.28,-210.59"/>
</g>
<!-- Node31 -->
<g id="node31" class="node">
<title>Node31</title>
<g id="a_node31"><a xlink:title=" ">
<polygon fill="white" stroke="#bfbfbf" points="2837.51,-185 2837.51,-204 2902.51,-204 2902.51,-185 2837.51,-185"/>
<text text-anchor="middle" x="2870.01" y="-192" font-family="Helvetica,sans-Serif" font-size="10.00">functional</text>
</a>
</g>
</g>
<!-- Node4&#45;&gt;Node31 -->
<g id="edge43" class="edge">
<title>Node4&#45;&gt;Node31</title>
<path fill="none" stroke="midnightblue" d="M1563.57,-260.04C1716.75,-258.01 2285.48,-248.19 2752.01,-210 2776.96,-207.96 2804.75,-204.6 2827.1,-201.62"/>
<polygon fill="midnightblue" stroke="midnightblue" points="2827.83,-205.06 2837.27,-200.25 2826.89,-198.12 2827.83,-205.06"/>
</g>
<!-- Node4&#45;&gt;Node32 -->
<g id="edge44" class="edge">
<title>Node4&#45;&gt;Node32</title>
<path fill="none" stroke="midnightblue" d="M1563.52,-259.49C1822.11,-252.89 3265.42,-215.9 3358.01,-210 3396.91,-207.52 3441.51,-202.77 3470.86,-199.39"/>
<polygon fill="midnightblue" stroke="midnightblue" points="3471.41,-202.85 3480.94,-198.21 3470.6,-195.89 3471.41,-202.85"/>
</g>
<!-- Node9 -->
<g id="node9" class="node">
<title>Node9</title>
<g id="a_node9"><a xlink:title=" ">
<polygon fill="white" stroke="#bfbfbf" points="1624.51,-123.5 1624.51,-142.5 1701.51,-142.5 1701.51,-123.5 1624.51,-123.5"/>
<text text-anchor="middle" x="1663.01" y="-130.5" font-family="Helvetica,sans-Serif" font-size="10.00">tvm/ffi/any.h</text>
</a>
</g>
</g>
<!-- Node8&#45;&gt;Node9 -->
<g id="edge8" class="edge">
<title>Node8&#45;&gt;Node9</title>
<path fill="none" stroke="midnightblue" d="M1725.55,-184.98C1714.06,-175.61 1695.38,-160.38 1681.42,-149.01"/>
<polygon fill="midnightblue" stroke="midnightblue" points="1683.41,-146.11 1673.45,-142.51 1678.99,-151.54 1683.41,-146.11"/>
</g>
<!-- Node8&#45;&gt;Node10 -->
<g id="edge9" class="edge">
<title>Node8&#45;&gt;Node10</title>
<path fill="none" stroke="midnightblue" d="M1696.97,-188.36C1672.58,-185.29 1640.51,-181.51 1612.01,-179 1346.28,-155.59 1027.04,-141.07 904.91,-136.02"/>
<polygon fill="midnightblue" stroke="midnightblue" points="904.88,-132.51 894.74,-135.6 904.59,-139.51 904.88,-132.51"/>
</g>
<!-- Node11 -->
<g id="node11" class="node">
<title>Node11</title>
<g id="a_node11"><a xlink:title=" ">
<polygon fill="white" stroke="#bfbfbf" points="1837.51,-62 1837.51,-81 1926.51,-81 1926.51,-62 1837.51,-62"/>
<text text-anchor="middle" x="1882.01" y="-69" font-family="Helvetica,sans-Serif" font-size="10.00">tvm/ffi/dtype.h</text>
</a>
</g>
</g>
<!-- Node8&#45;&gt;Node11 -->
<g id="edge10" class="edge">
<title>Node8&#45;&gt;Node11</title>
<path fill="none" stroke="midnightblue" d="M1746.51,-184.8C1771.13,-164.39 1832.84,-113.25 1863.76,-87.63"/>
<polygon fill="midnightblue" stroke="midnightblue" points="1866.14,-90.2 1871.6,-81.12 1861.67,-84.81 1866.14,-90.2"/>
</g>
<!-- Node12 -->
<g id="node12" class="node">
<title>Node12</title>
<g id="a_node12"><a xlink:title=" ">
<polygon fill="white" stroke="#bfbfbf" points="2170.51,-62 2170.51,-81 2253.51,-81 2253.51,-62 2170.51,-62"/>
<text text-anchor="middle" x="2212.01" y="-69" font-family="Helvetica,sans-Serif" font-size="10.00">tvm/ffi/error.h</text>
</a>
</g>
</g>
<!-- Node8&#45;&gt;Node12 -->
<g id="edge11" class="edge">
<title>Node8&#45;&gt;Node12</title>
<path fill="none" stroke="midnightblue" d="M1761.19,-184.92C1768.48,-182.7 1776.5,-180.51 1784.01,-179 1934.7,-148.64 1986.49,-203.04 2128.01,-143 2156.36,-130.97 2182.43,-105.98 2197.77,-89.23"/>
<polygon fill="midnightblue" stroke="midnightblue" points="2200.76,-91.13 2204.78,-81.32 2195.53,-86.49 2200.76,-91.13"/>
</g>
<!-- Node13 -->
<g id="node13" class="node">
<title>Node13</title>
<g id="a_node13"><a xlink:title=" ">
<polygon fill="white" stroke="#bfbfbf" points="3010.51,-123.5 3010.51,-142.5 3101.51,-142.5 3101.51,-123.5 3010.51,-123.5"/>
<text text-anchor="middle" x="3056.01" y="-130.5" font-family="Helvetica,sans-Serif" font-size="10.00">tvm/ffi/object.h</text>
</a>
</g>
</g>
<!-- Node8&#45;&gt;Node13 -->
<g id="edge12" class="edge">
<title>Node8&#45;&gt;Node13</title>
<path fill="none" stroke="midnightblue" d="M1760.14,-184.88C1767.68,-182.55 1776.11,-180.31 1784.01,-179 2009.3,-141.67 2582.79,-151.19 2811.01,-143 2875.94,-140.67 2950.54,-137.92 3000.2,-136.08"/>
<polygon fill="midnightblue" stroke="midnightblue" points="3000.54,-139.57 3010.4,-135.7 3000.28,-132.57 3000.54,-139.57"/>
</g>
<!-- Node14 -->
<g id="node14" class="node">
<title>Node14</title>
<g id="a_node14"><a xlink:title=" ">
<polygon fill="white" stroke="#bfbfbf" points="1505.51,-123.5 1505.51,-142.5 1606.51,-142.5 1606.51,-123.5 1505.51,-123.5"/>
<text text-anchor="middle" x="1556.01" y="-130.5" font-family="Helvetica,sans-Serif" font-size="10.00">tvm/ffi/optional.h</text>
</a>
</g>
</g>
<!-- Node8&#45;&gt;Node14 -->
<g id="edge13" class="edge">
<title>Node8&#45;&gt;Node14</title>
<path fill="none" stroke="midnightblue" d="M1710.22,-184.98C1679.07,-174.68 1626.53,-157.31 1591.55,-145.75"/>
<polygon fill="midnightblue" stroke="midnightblue" points="1592.34,-142.32 1581.75,-142.51 1590.15,-148.97 1592.34,-142.32"/>
</g>
<!-- Node8&#45;&gt;Node15 -->
<g id="edge14" class="edge">
<title>Node8&#45;&gt;Node15</title>
<path fill="none" stroke="midnightblue" d="M1761.18,-184.88C1768.47,-182.66 1776.49,-180.48 1784.01,-179 1947.84,-146.7 1991.96,-160.76 2158.01,-143 2233.65,-134.91 2252.35,-130.99 2328.01,-123 2520.18,-102.71 2751.27,-82.5 2835.38,-75.28"/>
<polygon fill="midnightblue" stroke="midnightblue" points="2835.69,-78.76 2845.35,-74.42 2835.09,-71.79 2835.69,-78.76"/>
</g>
<!-- Node16&#45;&gt;Node13 -->
<g id="edge16" class="edge">
<title>Node16&#45;&gt;Node13</title>
<path fill="none" stroke="midnightblue" d="M3273.62,-184.98C3228.44,-174.39 3151.36,-156.34 3102.1,-144.8"/>
<polygon fill="midnightblue" stroke="midnightblue" points="3102.87,-141.38 3092.33,-142.51 3101.27,-148.2 3102.87,-141.38"/>
</g>
<!-- Node16&#45;&gt;Node15 -->
<g id="edge17" class="edge">
<title>Node16&#45;&gt;Node15</title>
<path fill="none" stroke="midnightblue" d="M3271.34,-187.32C3190.05,-174.32 3008.38,-145.14 3002.01,-143 2979.89,-135.59 2924.03,-104.57 2891.85,-86.24"/>
<polygon fill="midnightblue" stroke="midnightblue" points="2893.49,-83.14 2883.07,-81.21 2890.01,-89.22 2893.49,-83.14"/>
</g>
<!-- Node17&#45;&gt;Node6 -->
<g id="edge21" class="edge">
<title>Node17&#45;&gt;Node6</title>
<path fill="none" stroke="midnightblue" d="M1217.47,-124.5C1212.58,-123.96 1207.71,-123.45 1203.01,-123 952.23,-98.94 652.26,-82.01 527.24,-75.48"/>
<polygon fill="midnightblue" stroke="midnightblue" points="527.28,-71.98 517.11,-74.95 526.92,-78.97 527.28,-71.98"/>
</g>
<!-- Node17&#45;&gt;Node15 -->
<g id="edge26" class="edge">
<title>Node17&#45;&gt;Node15</title>
<path fill="none" stroke="midnightblue" d="M1334.63,-129.55C1379.17,-127.7 1441.94,-125.14 1497.01,-123 2031.59,-102.27 2683.5,-79.04 2835.33,-73.66"/>
<polygon fill="midnightblue" stroke="midnightblue" points="2835.52,-77.15 2845.39,-73.3 2835.28,-70.16 2835.52,-77.15"/>
</g>
<!-- Node18 -->
<g id="node18" class="node">
<title>Node18</title>
<g id="a_node18"><a xlink:title=" ">
<polygon fill="white" stroke="#bfbfbf" points="116.01,-62 116.01,-81 250.01,-81 250.01,-62 116.01,-62"/>
<text text-anchor="middle" x="183.01" y="-69" font-family="Helvetica,sans-Serif" font-size="10.00">tvm/ffi/container/array.h</text>
</a>
</g>
</g>
<!-- Node17&#45;&gt;Node18 -->
<g id="edge19" class="edge">
<title>Node17&#45;&gt;Node18</title>
<path fill="none" stroke="midnightblue" d="M1217.45,-129.2C1077.73,-122.46 713.8,-104.59 410.01,-87 360.08,-84.11 304,-80.53 260.08,-77.65"/>
<polygon fill="midnightblue" stroke="midnightblue" points="260.25,-74.15 250.04,-76.99 259.79,-81.14 260.25,-74.15"/>
</g>
<!-- Node19 -->
<g id="node19" class="node">
<title>Node19</title>
<g id="a_node19"><a xlink:title=" ">
<polygon fill="white" stroke="#bfbfbf" points="1350.51,-62 1350.51,-81 1451.51,-81 1451.51,-62 1350.51,-62"/>
<text text-anchor="middle" x="1401.01" y="-69" font-family="Helvetica,sans-Serif" font-size="10.00">tvm/ffi/function.h</text>
</a>
</g>
</g>
<!-- Node17&#45;&gt;Node19 -->
<g id="edge20" class="edge">
<title>Node17&#45;&gt;Node19</title>
<path fill="none" stroke="midnightblue" d="M1293.92,-123.48C1314.89,-113.49 1349.86,-96.85 1374.1,-85.31"/>
<polygon fill="midnightblue" stroke="midnightblue" points="1375.61,-88.47 1383.13,-81.01 1372.6,-82.15 1375.61,-88.47"/>
</g>
<!-- Node20 -->
<g id="node20" class="node">
<title>Node20</title>
<g id="a_node20"><a xlink:href="runtime_2base_8h.html" target="_top" xlink:title=" ">
<polygon fill="white" stroke="black" points="1706.51,-62 1706.51,-81 1819.51,-81 1819.51,-62 1706.51,-62"/>
<text text-anchor="middle" x="1763.01" y="-69" font-family="Helvetica,sans-Serif" font-size="10.00">tvm/runtime/base.h</text>
</a>
</g>
</g>
<!-- Node17&#45;&gt;Node20 -->
<g id="edge22" class="edge">
<title>Node17&#45;&gt;Node20</title>
<path fill="none" stroke="midnightblue" d="M1334.75,-124.82C1425.8,-113.7 1600.44,-92.36 1696.18,-80.67"/>
<polygon fill="midnightblue" stroke="midnightblue" points="1696.82,-84.11 1706.32,-79.43 1695.97,-77.16 1696.82,-84.11"/>
</g>
<!-- Node22 -->
<g id="node22" class="node">
<title>Node22</title>
<g id="a_node22"><a xlink:title=" ">
<polygon fill="white" stroke="#bfbfbf" points="1248.51,-62 1248.51,-81 1303.51,-81 1303.51,-62 1248.51,-62"/>
<text text-anchor="middle" x="1276.01" y="-69" font-family="Helvetica,sans-Serif" font-size="10.00">fstream</text>
</a>
</g>
</g>
<!-- Node17&#45;&gt;Node22 -->
<g id="edge24" class="edge">
<title>Node17&#45;&gt;Node22</title>
<path fill="none" stroke="midnightblue" d="M1276.01,-123.48C1276.01,-115.08 1276.01,-101.98 1276.01,-91.16"/>
<polygon fill="midnightblue" stroke="midnightblue" points="1279.51,-91.01 1276.01,-81.01 1272.51,-91.01 1279.51,-91.01"/>
</g>
<!-- Node17&#45;&gt;Node23 -->
<g id="edge25" class="edge">
<title>Node17&#45;&gt;Node23</title>
<path fill="none" stroke="midnightblue" d="M1241.76,-123.48C1195.54,-111.97 1113.81,-91.62 1068.86,-80.43"/>
<polygon fill="midnightblue" stroke="midnightblue" points="1069.6,-77.01 1059.05,-77.99 1067.91,-83.8 1069.6,-77.01"/>
</g>
<!-- Node17&#45;&gt;Node24 -->
<g id="edge27" class="edge">
<title>Node17&#45;&gt;Node24</title>
<path fill="none" stroke="midnightblue" d="M1334.63,-129.37C1379.16,-127.43 1441.93,-124.83 1497.01,-123 2120.42,-102.31 2276.52,-105.61 2900.01,-87 3046,-82.64 3220.09,-76.39 3292.18,-73.75"/>
<polygon fill="midnightblue" stroke="midnightblue" points="3292.59,-77.23 3302.46,-73.37 3292.34,-70.24 3292.59,-77.23"/>
</g>
<!-- Node21 -->
<g id="node21" class="node">
<title>Node21</title>
<g id="a_node21"><a xlink:title=" ">
<polygon fill="white" stroke="#bfbfbf" points="1720.01,-0.5 1720.01,-19.5 1806.01,-19.5 1806.01,-0.5 1720.01,-0.5"/>
<text text-anchor="middle" x="1763.01" y="-7.5" font-family="Helvetica,sans-Serif" font-size="10.00">tvm/ffi/c_api.h</text>
</a>
</g>
</g>
<!-- Node20&#45;&gt;Node21 -->
<g id="edge23" class="edge">
<title>Node20&#45;&gt;Node21</title>
<path fill="none" stroke="midnightblue" d="M1763.01,-61.98C1763.01,-53.58 1763.01,-40.48 1763.01,-29.66"/>
<polygon fill="midnightblue" stroke="midnightblue" points="1766.51,-29.51 1763.01,-19.51 1759.51,-29.51 1766.51,-29.51"/>
</g>
<!-- Node25&#45;&gt;Node6 -->
<g id="edge31" class="edge">
<title>Node25&#45;&gt;Node6</title>
<path fill="none" stroke="midnightblue" d="M881.71,-184.81C851.63,-167.84 785.58,-131.27 761.01,-123 682.5,-96.59 587.29,-83.45 527.16,-77.32"/>
<polygon fill="midnightblue" stroke="midnightblue" points="527.39,-73.82 517.09,-76.32 526.7,-80.79 527.39,-73.82"/>
</g>
<!-- Node25&#45;&gt;Node10 -->
<g id="edge29" class="edge">
<title>Node25&#45;&gt;Node10</title>
<path fill="none" stroke="midnightblue" d="M890.85,-184.98C884.4,-176.05 874.1,-161.81 866.03,-150.64"/>
<polygon fill="midnightblue" stroke="midnightblue" points="868.85,-148.56 860.16,-142.51 863.18,-152.66 868.85,-148.56"/>
</g>
<!-- Node25&#45;&gt;Node17 -->
<g id="edge32" class="edge">
<title>Node25&#45;&gt;Node17</title>
<path fill="none" stroke="midnightblue" d="M937.31,-187.14C953.39,-184.61 972.08,-181.66 989.01,-179 1065.38,-166.99 1153.2,-153.23 1211.37,-144.12"/>
<polygon fill="midnightblue" stroke="midnightblue" points="1212.18,-147.54 1221.52,-142.53 1211.1,-140.62 1212.18,-147.54"/>
</g>
<!-- Node25&#45;&gt;Node18 -->
<g id="edge30" class="edge">
<title>Node25&#45;&gt;Node18</title>
<path fill="none" stroke="midnightblue" d="M869.28,-184.92C841.34,-175.88 797.29,-160.54 761.01,-143 745.57,-135.54 744.29,-128.37 728.01,-123 684.73,-108.72 400.31,-87.49 260.43,-77.74"/>
<polygon fill="midnightblue" stroke="midnightblue" points="260.42,-74.23 250.2,-77.03 259.93,-81.21 260.42,-74.23"/>
</g>
<!-- Node25&#45;&gt;Node23 -->
<g id="edge41" class="edge">
<title>Node25&#45;&gt;Node23</title>
<path fill="none" stroke="midnightblue" d="M901.52,-184.76C909.27,-170.42 926.26,-141.67 947.01,-123 964.7,-107.08 988.27,-94.09 1006.85,-85.26"/>
<polygon fill="midnightblue" stroke="midnightblue" points="1008.42,-88.39 1016.05,-81.04 1005.5,-82.03 1008.42,-88.39"/>
</g>
<!-- Node26 -->
<g id="node26" class="node">
<title>Node26</title>
<g id="a_node26"><a xlink:href="data__type_8h.html" target="_top" xlink:title=" ">
<polygon fill="white" stroke="black" points="1948.01,-123.5 1948.01,-142.5 2086.01,-142.5 2086.01,-123.5 1948.01,-123.5"/>
<text text-anchor="middle" x="2017.01" y="-130.5" font-family="Helvetica,sans-Serif" font-size="10.00">tvm/runtime/data_type.h</text>
</a>
</g>
</g>
<!-- Node25&#45;&gt;Node26 -->
<g id="edge33" class="edge">
<title>Node25&#45;&gt;Node26</title>
<path fill="none" stroke="midnightblue" d="M937.17,-190.95C984.66,-187.95 1066.07,-182.91 1136.01,-179 1431.6,-162.48 1783.12,-145.25 1937.56,-137.8"/>
<polygon fill="midnightblue" stroke="midnightblue" points="1938.07,-141.28 1947.89,-137.31 1937.74,-134.29 1938.07,-141.28"/>
</g>
<!-- Node26&#45;&gt;Node11 -->
<g id="edge35" class="edge">
<title>Node26&#45;&gt;Node11</title>
<path fill="none" stroke="midnightblue" d="M1997.67,-123.48C1974.91,-113.45 1936.92,-96.7 1910.72,-85.15"/>
<polygon fill="midnightblue" stroke="midnightblue" points="1911.88,-81.84 1901.31,-81.01 1909.05,-88.24 1911.88,-81.84"/>
</g>
<!-- Node26&#45;&gt;Node12 -->
<g id="edge36" class="edge">
<title>Node26&#45;&gt;Node12</title>
<path fill="none" stroke="midnightblue" d="M2044.95,-123.48C2078.97,-113.09 2136.59,-95.51 2174.47,-83.95"/>
<polygon fill="midnightblue" stroke="midnightblue" points="2175.58,-87.28 2184.12,-81.01 2173.53,-80.58 2175.58,-87.28"/>
</g>
<!-- Node26&#45;&gt;Node20 -->
<g id="edge37" class="edge">
<title>Node26&#45;&gt;Node20</title>
<path fill="none" stroke="midnightblue" d="M1980.62,-123.48C1935.44,-112.89 1858.36,-94.84 1809.1,-83.3"/>
<polygon fill="midnightblue" stroke="midnightblue" points="1809.87,-79.88 1799.33,-81.01 1808.27,-86.7 1809.87,-79.88"/>
</g>
<!-- Node26&#45;&gt;Node23 -->
<g id="edge39" class="edge">
<title>Node26&#45;&gt;Node23</title>
<path fill="none" stroke="midnightblue" d="M1947.86,-128.31C1812.13,-120.99 1501.26,-103.89 1240.01,-87 1179.64,-83.1 1109.23,-77.93 1069.2,-74.93"/>
<polygon fill="midnightblue" stroke="midnightblue" points="1069.46,-71.44 1059.23,-74.19 1068.94,-78.42 1069.46,-71.44"/>
</g>
<!-- Node27 -->
<g id="node27" class="node">
<title>Node27</title>
<g id="a_node27"><a xlink:title=" ">
<polygon fill="white" stroke="#bfbfbf" points="1944.51,-62 1944.51,-81 2083.51,-81 2083.51,-62 1944.51,-62"/>
<text text-anchor="middle" x="2014.01" y="-69" font-family="Helvetica,sans-Serif" font-size="10.00">tvm/ffi/container/shape.h</text>
</a>
</g>
</g>
<!-- Node26&#45;&gt;Node27 -->
<g id="edge34" class="edge">
<title>Node26&#45;&gt;Node27</title>
<path fill="none" stroke="midnightblue" d="M2016.58,-123.48C2016.15,-115.08 2015.49,-101.98 2014.95,-91.16"/>
<polygon fill="midnightblue" stroke="midnightblue" points="2018.44,-90.82 2014.44,-81.01 2011.44,-91.17 2018.44,-90.82"/>
</g>
<!-- Node28 -->
<g id="node28" class="node">
<title>Node28</title>
<g id="a_node28"><a xlink:title=" ">
<polygon fill="white" stroke="#bfbfbf" points="2102.01,-62 2102.01,-81 2152.01,-81 2152.01,-62 2102.01,-62"/>
<text text-anchor="middle" x="2127.01" y="-69" font-family="Helvetica,sans-Serif" font-size="10.00">cstring</text>
</a>
</g>
</g>
<!-- Node26&#45;&gt;Node28 -->
<g id="edge38" class="edge">
<title>Node26&#45;&gt;Node28</title>
<path fill="none" stroke="midnightblue" d="M2032.77,-123.48C2050.98,-113.62 2081.18,-97.29 2102.48,-85.77"/>
<polygon fill="midnightblue" stroke="midnightblue" points="2104.15,-88.85 2111.28,-81.01 2100.82,-82.69 2104.15,-88.85"/>
</g>
<!-- Node26&#45;&gt;Node29 -->
<g id="edge40" class="edge">
<title>Node26&#45;&gt;Node29</title>
<path fill="none" stroke="midnightblue" d="M2077.19,-123.48C2127.32,-115.78 2200.38,-103.2 2263.01,-87 2266.21,-86.17 2269.52,-85.22 2272.82,-84.22"/>
<polygon fill="midnightblue" stroke="midnightblue" points="2274.09,-87.49 2282.53,-81.1 2271.94,-80.82 2274.09,-87.49"/>
</g>
<!-- Node33&#45;&gt;Node4 -->
<g id="edge64" class="edge">
<title>Node33&#45;&gt;Node4</title>
<path fill="none" stroke="midnightblue" d="M2299.3,-766.33C2255.64,-761.4 2188.2,-750.14 2135.01,-725 1868.74,-599.15 1861.3,-475.99 1616.01,-313 1594.94,-299 1569.67,-285.34 1550.95,-275.76"/>
<polygon fill="midnightblue" stroke="midnightblue" points="1552.32,-272.53 1541.82,-271.14 1549.16,-278.78 1552.32,-272.53"/>
</g>
<!-- Node33&#45;&gt;Node7 -->
<g id="edge50" class="edge">
<title>Node33&#45;&gt;Node7</title>
<path fill="none" stroke="midnightblue" d="M2299.35,-769.44C2098.04,-766.79 1273.66,-754.29 1017.01,-725 888.32,-710.31 853.05,-712.4 731.01,-669 681.18,-651.28 653.62,-658.11 626.01,-613 556.39,-499.28 614.69,-446.01 624.01,-313 628.22,-252.79 623.15,-234.86 646.01,-179 650.01,-169.22 656.05,-159.17 661.5,-151.05"/>
<polygon fill="midnightblue" stroke="midnightblue" points="664.39,-153.02 667.26,-142.82 658.66,-149 664.39,-153.02"/>
</g>
<!-- Node33&#45;&gt;Node15 -->
<g id="edge170" class="edge">
<title>Node33&#45;&gt;Node15</title>
<path fill="none" stroke="midnightblue" d="M2388.63,-770.28C2594.09,-771 3439.01,-767.41 3439.01,-660 3439.01,-660 3439.01,-660 3439.01,-322 3439.01,-252.73 3425.84,-228.13 3377.01,-179 3333.52,-135.24 3309.4,-139.65 3250.01,-123 3124.32,-87.76 2968.29,-76.9 2901.2,-73.73"/>
<polygon fill="midnightblue" stroke="midnightblue" points="2900.99,-70.22 2890.85,-73.27 2900.68,-77.21 2900.99,-70.22"/>
</g>
<!-- Node33&#45;&gt;Node16 -->
<g id="edge63" class="edge">
<title>Node33&#45;&gt;Node16</title>
<path fill="none" stroke="midnightblue" d="M2388.73,-768.78C2506.76,-765.2 2820.2,-753.12 2857.01,-725 2881.48,-706.31 2881.01,-690.8 2881.01,-660 2881.01,-660 2881.01,-660 2881.01,-546 2881.01,-339.8 3115.82,-425.38 3259.01,-277 3277.51,-257.82 3292.77,-230.86 3301.64,-213.29"/>
<polygon fill="midnightblue" stroke="midnightblue" points="3304.86,-214.68 3306.09,-204.16 3298.56,-211.61 3304.86,-214.68"/>
</g>
<!-- Node33&#45;&gt;Node18 -->
<g id="edge48" class="edge">
<title>Node33&#45;&gt;Node18</title>
<path fill="none" stroke="midnightblue" d="M2299.29,-769.7C2072.86,-768.03 1051.36,-758.73 736.01,-725 463.37,-695.84 145.01,-822.19 145.01,-548 145.01,-548 145.01,-548 145.01,-378 145.01,-251.19 -58.49,-224.88 17.01,-123 37.57,-95.25 73,-82.23 105.87,-76.31"/>
<polygon fill="midnightblue" stroke="midnightblue" points="106.65,-79.73 115.97,-74.69 105.54,-72.82 106.65,-79.73"/>
</g>
<!-- Node33&#45;&gt;Node20 -->
<g id="edge71" class="edge">
<title>Node33&#45;&gt;Node20</title>
<path fill="none" stroke="midnightblue" d="M2299.2,-761.88C2247.64,-749.66 2170.01,-721.11 2170.01,-660 2170.01,-660 2170.01,-660 2170.01,-546 2170.01,-484.95 1854.8,-164.64 1779.17,-88.67"/>
<polygon fill="midnightblue" stroke="midnightblue" points="1781.43,-85.97 1771.89,-81.36 1776.47,-90.92 1781.43,-85.97"/>
</g>
<!-- Node33&#45;&gt;Node23 -->
<g id="edge168" class="edge">
<title>Node33&#45;&gt;Node23</title>
<path fill="none" stroke="midnightblue" d="M2299.26,-770.18C2082.6,-770.8 1141.24,-770.78 852.01,-725 764.21,-711.1 737.3,-712.9 660.01,-669 466.47,-559.08 297.01,-546.57 297.01,-324 297.01,-324 297.01,-324 297.01,-260.5 297.01,-155.9 390.04,-159.64 488.01,-123 583.79,-87.18 902.19,-75.97 1004.82,-73.25"/>
<polygon fill="midnightblue" stroke="midnightblue" points="1004.98,-76.74 1014.89,-72.99 1004.8,-69.75 1004.98,-76.74"/>
</g>
<!-- Node33&#45;&gt;Node26 -->
<g id="edge72" class="edge">
<title>Node33&#45;&gt;Node26</title>
<path fill="none" stroke="midnightblue" d="M2322.55,-761.46C2288.77,-746.43 2227.01,-711.86 2227.01,-660 2227.01,-660 2227.01,-660 2227.01,-434 2227.01,-394.08 2199.04,-389.88 2165.01,-369 2117.54,-339.88 2081.28,-375.24 2045.01,-333 2000.32,-280.96 2007.76,-191.49 2013.61,-152.77"/>
<polygon fill="midnightblue" stroke="midnightblue" points="2017.07,-153.31 2015.25,-142.87 2010.16,-152.16 2017.07,-153.31"/>
</g>
<!-- Node33&#45;&gt;Node30 -->
<g id="edge165" class="edge">
<title>Node33&#45;&gt;Node30</title>
<path fill="none" stroke="midnightblue" d="M2388.55,-768.19C2455.67,-762.8 2575.01,-741.73 2575.01,-660 2575.01,-660 2575.01,-660 2575.01,-434 2575.01,-405.76 2429.31,-258.53 2404.01,-246 2391.96,-240.03 1998.3,-208.97 1867.09,-198.76"/>
<polygon fill="midnightblue" stroke="midnightblue" points="1867.26,-195.26 1857.02,-197.98 1866.72,-202.24 1867.26,-195.26"/>
</g>
<!-- Node33&#45;&gt;Node32 -->
<g id="edge167" class="edge">
<title>Node33&#45;&gt;Node32</title>
<path fill="none" stroke="midnightblue" d="M2388.6,-769.56C2590.29,-767.42 3409.3,-756.79 3453.01,-725 3477.91,-706.89 3477.01,-690.8 3477.01,-660 3477.01,-660 3477.01,-660 3477.01,-322 3477.01,-282.92 3489.06,-238.41 3496.75,-213.99"/>
<polygon fill="midnightblue" stroke="midnightblue" points="3500.15,-214.86 3499.92,-204.27 3493.5,-212.69 3500.15,-214.86"/>
</g>
<!-- Node34 -->
<g id="node34" class="node">
<title>Node34</title>
<g id="a_node34"><a xlink:title=" ">
<polygon fill="white" stroke="#bfbfbf" points="2520.51,-123.5 2520.51,-142.5 2651.51,-142.5 2651.51,-123.5 2520.51,-123.5"/>
<text text-anchor="middle" x="2586.01" y="-130.5" font-family="Helvetica,sans-Serif" font-size="10.00">tvm/ffi/container/map.h</text>
</a>
</g>
</g>
<!-- Node33&#45;&gt;Node34 -->
<g id="edge49" class="edge">
<title>Node33&#45;&gt;Node34</title>
<path fill="none" stroke="midnightblue" d="M2388.66,-765.34C2482.38,-754.31 2691.01,-722.72 2691.01,-660 2691.01,-660 2691.01,-660 2691.01,-322 2691.01,-264.22 2652.88,-260.61 2625.01,-210 2614.09,-190.18 2602.34,-166.99 2594.62,-151.48"/>
<polygon fill="midnightblue" stroke="midnightblue" points="2597.75,-149.93 2590.18,-142.52 2591.48,-153.03 2597.75,-149.93"/>
</g>
<!-- Node35 -->
<g id="node35" class="node">
<title>Node35</title>
<g id="a_node35"><a xlink:href="attrs_8h.html" target="_top" xlink:title="Helpers for attribute objects.">
<polygon fill="white" stroke="black" points="2054.01,-313.5 2054.01,-332.5 2134.01,-332.5 2134.01,-313.5 2054.01,-313.5"/>
<text text-anchor="middle" x="2094.01" y="-320.5" font-family="Helvetica,sans-Serif" font-size="10.00">tvm/ir/attrs.h</text>
</a>
</g>
</g>
<!-- Node33&#45;&gt;Node35 -->
<g id="edge51" class="edge">
<title>Node33&#45;&gt;Node35</title>
<path fill="none" stroke="midnightblue" d="M2365.47,-761.46C2399.24,-746.43 2461.01,-711.86 2461.01,-660 2461.01,-660 2461.01,-660 2461.01,-434 2461.01,-368.71 2245.21,-338.87 2144.57,-328.5"/>
<polygon fill="midnightblue" stroke="midnightblue" points="2144.63,-324.99 2134.33,-327.48 2143.93,-331.96 2144.63,-324.99"/>
</g>
<!-- Node33&#45;&gt;Node38 -->
<g id="edge169" class="edge">
<title>Node33&#45;&gt;Node38</title>
<path fill="none" stroke="midnightblue" d="M2388.73,-769.6C2511.21,-767.32 2843.01,-752.59 2843.01,-660 2843.01,-660 2843.01,-660 2843.01,-546 2843.01,-526.94 2910.08,-228.96 2912.01,-210 2913.4,-196.29 2920.3,-190 2912.01,-179 2899.7,-162.67 2851.4,-150.45 2811.58,-142.9"/>
<polygon fill="midnightblue" stroke="midnightblue" points="2812.14,-139.44 2801.67,-141.08 2810.87,-146.33 2812.14,-139.44"/>
</g>
<!-- Node39 -->
<g id="node39" class="node">
<title>Node39</title>
<g id="a_node39"><a xlink:href="node__functor_8h.html" target="_top" xlink:title="Defines the Functor data structures.">
<polygon fill="white" stroke="black" points="3119.51,-123.5 3119.51,-142.5 3240.51,-142.5 3240.51,-123.5 3119.51,-123.5"/>
<text text-anchor="middle" x="3180.01" y="-130.5" font-family="Helvetica,sans-Serif" font-size="10.00">tvm/ir/node_functor.h</text>
</a>
</g>
</g>
<!-- Node33&#45;&gt;Node39 -->
<g id="edge65" class="edge">
<title>Node33&#45;&gt;Node39</title>
<path fill="none" stroke="midnightblue" d="M2388.71,-769.41C2592.83,-766.55 3428.5,-753.16 3476.01,-725 3504.99,-707.82 3515.01,-693.69 3515.01,-660 3515.01,-660 3515.01,-660 3515.01,-322 3515.01,-257.89 3576.39,-227.11 3534.01,-179 3515.62,-158.12 3348.72,-144.39 3250.79,-138.05"/>
<polygon fill="midnightblue" stroke="midnightblue" points="3250.87,-134.55 3240.67,-137.4 3250.42,-141.53 3250.87,-134.55"/>
</g>
<!-- Node40 -->
<g id="node40" class="node">
<title>Node40</title>
<g id="a_node40"><a xlink:href="buffer_8h.html" target="_top" xlink:title="Symbolic n&#45;dimensional array, to represent a memory buffer.">
<polygon fill="white" stroke="black" points="1025.51,-705.5 1025.51,-724.5 1120.51,-724.5 1120.51,-705.5 1025.51,-705.5"/>
<text text-anchor="middle" x="1073.01" y="-712.5" font-family="Helvetica,sans-Serif" font-size="10.00">tvm/tirx/buffer.h</text>
</a>
</g>
</g>
<!-- Node33&#45;&gt;Node40 -->
<g id="edge73" class="edge">
<title>Node33&#45;&gt;Node40</title>
<path fill="none" stroke="midnightblue" d="M2299.15,-768.09C2106.26,-759.9 1347.46,-727.66 1130.96,-718.46"/>
<polygon fill="midnightblue" stroke="midnightblue" points="1130.9,-714.96 1120.76,-718.03 1130.61,-721.95 1130.9,-714.96"/>
</g>
<!-- Node33&#45;&gt;Node58 -->
<g id="edge164" class="edge">
<title>Node33&#45;&gt;Node58</title>
<path fill="none" stroke="midnightblue" d="M2299.24,-764.21C2250.58,-757.09 2176.96,-743.6 2156.01,-725 2132.98,-704.56 2132.01,-690.8 2132.01,-660 2132.01,-660 2132.01,-660 2132.01,-546 2132.01,-495.73 2074.88,-464.1 2035.5,-448.27"/>
<polygon fill="midnightblue" stroke="midnightblue" points="2036.51,-444.91 2025.92,-444.59 2034,-451.45 2036.51,-444.91"/>
</g>
<!-- Node59 -->
<g id="node59" class="node">
<title>Node59</title>
<g id="a_node59"><a xlink:title=" ">
<polygon fill="white" stroke="#bfbfbf" points="1930.01,-705.5 1930.01,-724.5 1990.01,-724.5 1990.01,-705.5 1930.01,-705.5"/>
<text text-anchor="middle" x="1960.01" y="-712.5" font-family="Helvetica,sans-Serif" font-size="10.00">iostream</text>
</a>
</g>
</g>
<!-- Node33&#45;&gt;Node59 -->
<g id="edge166" class="edge">
<title>Node33&#45;&gt;Node59</title>
<path fill="none" stroke="midnightblue" d="M2299.3,-765.1C2234.16,-757.72 2109.41,-742.73 2004.01,-725 2002.75,-724.79 2001.48,-724.57 2000.2,-724.34"/>
<polygon fill="midnightblue" stroke="midnightblue" points="2000.73,-720.88 1990.25,-722.48 1999.44,-727.76 2000.73,-720.88"/>
</g>
<!-- Node35&#45;&gt;Node4 -->
<g id="edge58" class="edge">
<title>Node35&#45;&gt;Node4</title>
<path fill="none" stroke="midnightblue" d="M2053.93,-317.82C1952.31,-307.21 1684.83,-279.29 1573.61,-267.68"/>
<polygon fill="midnightblue" stroke="midnightblue" points="1573.97,-264.2 1563.67,-266.64 1573.25,-271.16 1573.97,-264.2"/>
</g>
<!-- Node35&#45;&gt;Node6 -->
<g id="edge56" class="edge">
<title>Node35&#45;&gt;Node6</title>
<path fill="none" stroke="midnightblue" d="M2053.8,-320.88C1853.34,-314.99 960.9,-284.91 695.01,-210 613.03,-186.9 531.08,-125.47 491.87,-93.11"/>
<polygon fill="midnightblue" stroke="midnightblue" points="494.08,-90.39 484.16,-86.67 489.59,-95.77 494.08,-90.39"/>
</g>
<!-- Node35&#45;&gt;Node15 -->
<g id="edge62" class="edge">
<title>Node35&#45;&gt;Node15</title>
<path fill="none" stroke="midnightblue" d="M2134.15,-320.37C2239.51,-315.81 2521.99,-301.58 2612.01,-277 2673.19,-260.3 2831.17,-197.26 2864.01,-143 2873.41,-127.45 2873.27,-106.28 2871.48,-91.2"/>
<polygon fill="midnightblue" stroke="midnightblue" points="2874.9,-90.41 2869.92,-81.05 2867.98,-91.47 2874.9,-90.41"/>
</g>
<!-- Node35&#45;&gt;Node16 -->
<g id="edge57" class="edge">
<title>Node35&#45;&gt;Node16</title>
<path fill="none" stroke="midnightblue" d="M2134.07,-321.66C2315.6,-319.93 3056.38,-310.83 3154.01,-277 3176.27,-269.29 3176.59,-257.76 3197.01,-246 3223.24,-230.89 3254.82,-217.12 3277.92,-207.79"/>
<polygon fill="midnightblue" stroke="midnightblue" points="3279.26,-211.02 3287.26,-204.07 3276.67,-204.52 3279.26,-211.02"/>
</g>
<!-- Node35&#45;&gt;Node19 -->
<g id="edge55" class="edge">
<title>Node35&#45;&gt;Node19</title>
<path fill="none" stroke="midnightblue" d="M2082.18,-313.29C2049.29,-289.37 1953.37,-221.57 1866.01,-179 1730.88,-113.15 1553.61,-87.14 1461.89,-77.58"/>
<polygon fill="midnightblue" stroke="midnightblue" points="1461.97,-74.07 1451.67,-76.54 1461.27,-81.03 1461.97,-74.07"/>
</g>
<!-- Node35&#45;&gt;Node23 -->
<g id="edge59" class="edge">
<title>Node35&#45;&gt;Node23</title>
<path fill="none" stroke="midnightblue" d="M2053.53,-315.1C1911.86,-290.93 1446.6,-211.49 1443.01,-210 1420.9,-200.86 1421.04,-188.33 1399.01,-179 1319.86,-145.49 1291.41,-167.42 1209.01,-143 1156.06,-127.31 1097.05,-101.1 1063.74,-85.44"/>
<polygon fill="midnightblue" stroke="midnightblue" points="1065.19,-82.25 1054.65,-81.13 1062.19,-88.58 1065.19,-82.25"/>
</g>
<!-- Node35&#45;&gt;Node29 -->
<g id="edge60" class="edge">
<title>Node35&#45;&gt;Node29</title>
<path fill="none" stroke="midnightblue" d="M2093.76,-313.37C2093.51,-304.32 2093.15,-289.66 2093.01,-277 2092.85,-263.22 2089.34,-259.28 2093.01,-246 2102.23,-212.57 2108.65,-203.69 2133.01,-179 2175.75,-135.67 2239.49,-102.36 2276.49,-85.25"/>
<polygon fill="midnightblue" stroke="midnightblue" points="2278.07,-88.38 2285.73,-81.06 2275.18,-82 2278.07,-88.38"/>
</g>
<!-- Node35&#45;&gt;Node34 -->
<g id="edge52" class="edge">
<title>Node35&#45;&gt;Node34</title>
<path fill="none" stroke="midnightblue" d="M2093.48,-313.41C2093.01,-297.5 2094.51,-263.5 2114.01,-246 2153.98,-210.12 2300.74,-222.37 2353.01,-210 2426.53,-192.6 2510.16,-162.77 2554.5,-146.13"/>
<polygon fill="midnightblue" stroke="midnightblue" points="2555.75,-149.4 2563.87,-142.59 2553.28,-142.85 2555.75,-149.4"/>
</g>
<!-- Node36 -->
<g id="node36" class="node">
<title>Node36</title>
<g id="a_node36"><a xlink:title=" ">
<polygon fill="white" stroke="#bfbfbf" points="2122.51,-246.5 2122.51,-276.5 2249.51,-276.5 2249.51,-246.5 2122.51,-246.5"/>
<text text-anchor="start" x="2130.51" y="-264.5" font-family="Helvetica,sans-Serif" font-size="10.00">tvm/ffi/extra/structural</text>
<text text-anchor="middle" x="2186.01" y="-253.5" font-family="Helvetica,sans-Serif" font-size="10.00">_equal.h</text>
</a>
</g>
</g>
<!-- Node35&#45;&gt;Node36 -->
<g id="edge53" class="edge">
<title>Node35&#45;&gt;Node36</title>
<path fill="none" stroke="midnightblue" d="M2107.19,-313.48C2119.77,-305.34 2139.17,-292.79 2155.58,-282.18"/>
<polygon fill="midnightblue" stroke="midnightblue" points="2157.83,-284.89 2164.32,-276.52 2154.03,-279.01 2157.83,-284.89"/>
</g>
<!-- Node37 -->
<g id="node37" class="node">
<title>Node37</title>
<g id="a_node37"><a xlink:title=" ">
<polygon fill="white" stroke="#bfbfbf" points="2267.51,-246.5 2267.51,-276.5 2394.51,-276.5 2394.51,-246.5 2267.51,-246.5"/>
<text text-anchor="start" x="2275.51" y="-264.5" font-family="Helvetica,sans-Serif" font-size="10.00">tvm/ffi/extra/structural</text>
<text text-anchor="middle" x="2331.01" y="-253.5" font-family="Helvetica,sans-Serif" font-size="10.00">_hash.h</text>
</a>
</g>
</g>
<!-- Node35&#45;&gt;Node37 -->
<g id="edge54" class="edge">
<title>Node35&#45;&gt;Node37</title>
<path fill="none" stroke="midnightblue" d="M2127.96,-313.48C2163.66,-304.51 2220.72,-290.19 2265.27,-279"/>
<polygon fill="midnightblue" stroke="midnightblue" points="2266.3,-282.35 2275.15,-276.52 2264.6,-275.56 2266.3,-282.35"/>
</g>
<!-- Node35&#45;&gt;Node38 -->
<g id="edge61" class="edge">
<title>Node35&#45;&gt;Node38</title>
<path fill="none" stroke="midnightblue" d="M2134.21,-321.44C2247.82,-319.44 2565.04,-310.86 2596.01,-277 2605.3,-266.83 2601.84,-258.48 2596.01,-246 2585.46,-223.42 2563.55,-232.58 2553.01,-210 2547.18,-197.52 2544.39,-189.75 2553.01,-179 2562.18,-167.56 2641.75,-152.42 2698.24,-142.94"/>
<polygon fill="midnightblue" stroke="midnightblue" points="2698.85,-146.39 2708.14,-141.3 2697.7,-139.48 2698.85,-146.39"/>
</g>
<!-- Node39&#45;&gt;Node12 -->
<g id="edge66" class="edge">
<title>Node39&#45;&gt;Node12</title>
<path fill="none" stroke="midnightblue" d="M3119.46,-123.8C3116.6,-123.51 3113.78,-123.24 3111.01,-123 2735.18,-90.57 2635.43,-146.99 2263.01,-87 2257.91,-86.18 2252.6,-85.02 2247.42,-83.72"/>
<polygon fill="midnightblue" stroke="midnightblue" points="2248.26,-80.32 2237.69,-81.07 2246.42,-87.07 2248.26,-80.32"/>
</g>
<!-- Node39&#45;&gt;Node15 -->
<g id="edge69" class="edge">
<title>Node39&#45;&gt;Node15</title>
<path fill="none" stroke="midnightblue" d="M3135.31,-123.48C3071.83,-111.37 2957.05,-89.48 2900.83,-78.76"/>
<polygon fill="midnightblue" stroke="midnightblue" points="2901.2,-75.27 2890.72,-76.83 2899.89,-82.14 2901.2,-75.27"/>
</g>
<!-- Node39&#45;&gt;Node24 -->
<g id="edge70" class="edge">
<title>Node39&#45;&gt;Node24</title>
<path fill="none" stroke="midnightblue" d="M3200.93,-123.48C3225.75,-113.36 3267.35,-96.4 3295.7,-84.85"/>
<polygon fill="midnightblue" stroke="midnightblue" points="3297.19,-88.02 3305.13,-81.01 3294.55,-81.54 3297.19,-88.02"/>
</g>
<!-- Node39&#45;&gt;Node28 -->
<g id="edge67" class="edge">
<title>Node39&#45;&gt;Node28</title>
<path fill="none" stroke="midnightblue" d="M3119.46,-123.78C3116.6,-123.5 3113.78,-123.23 3111.01,-123 2900.71,-105.33 2368.17,-132.09 2162.01,-87 2159.33,-86.41 2156.59,-85.63 2153.89,-84.74"/>
<polygon fill="midnightblue" stroke="midnightblue" points="2155.01,-81.42 2144.42,-81.14 2152.52,-87.96 2155.01,-81.42"/>
</g>
<!-- Node39&#45;&gt;Node29 -->
<g id="edge68" class="edge">
<title>Node39&#45;&gt;Node29</title>
<path fill="none" stroke="midnightblue" d="M3119.45,-123.87C3116.6,-123.56 3113.77,-123.27 3111.01,-123 2821.85,-95.1 2472.7,-79.26 2350.68,-74.25"/>
<polygon fill="midnightblue" stroke="midnightblue" points="2350.73,-70.75 2340.6,-73.84 2350.44,-77.74 2350.73,-70.75"/>
</g>
<!-- Node40&#45;&gt;Node4 -->
<g id="edge77" class="edge">
<title>Node40&#45;&gt;Node4</title>
<path fill="none" stroke="midnightblue" d="M1120.74,-712.48C1199.56,-709.19 1361.49,-699.06 1495.01,-669 1568.51,-652.45 1596.16,-660.05 1655.01,-613 1761.21,-528.09 1680.17,-419 1595.01,-313 1582.69,-297.67 1564.57,-284.88 1549.72,-276.01"/>
<polygon fill="midnightblue" stroke="midnightblue" points="1551.39,-272.94 1540.98,-271.01 1547.92,-279.02 1551.39,-272.94"/>
</g>
<!-- Node40&#45;&gt;Node6 -->
<g id="edge75" class="edge">
<title>Node40&#45;&gt;Node6</title>
<path fill="none" stroke="midnightblue" d="M1025.31,-710.1C958.84,-704.13 834.84,-691.03 731.01,-669 559.19,-632.54 495.66,-658.06 352.01,-557 326.78,-539.25 324.1,-528.93 311.01,-501 239.68,-348.89 204.77,-250.65 314.01,-123 337.47,-95.59 376.06,-82.97 408.75,-77.2"/>
<polygon fill="midnightblue" stroke="midnightblue" points="409.35,-80.64 418.68,-75.62 408.25,-73.73 409.35,-80.64"/>
</g>
<!-- Node40&#45;&gt;Node7 -->
<g id="edge76" class="edge">
<title>Node40&#45;&gt;Node7</title>
<path fill="none" stroke="midnightblue" d="M1025.23,-711.45C938.14,-703.93 755.1,-674.24 674.01,-557 583.76,-426.52 645.83,-215.03 667.41,-152.17"/>
<polygon fill="midnightblue" stroke="midnightblue" points="670.79,-153.1 670.81,-142.51 664.19,-150.78 670.79,-153.1"/>
</g>
<!-- Node40&#45;&gt;Node18 -->
<g id="edge74" class="edge">
<title>Node40&#45;&gt;Node18</title>
<path fill="none" stroke="midnightblue" d="M1025.21,-712.27C940.2,-708.56 757.46,-697.71 606.01,-669 509.95,-650.79 183.01,-645.77 183.01,-548 183.01,-548 183.01,-548 183.01,-378 183.01,-332.24 167.47,-322.54 163.01,-277 161.66,-263.29 162.6,-259.77 163.01,-246 163.9,-216.18 164.53,-208.73 167.01,-179 169.09,-154.06 169.24,-147.75 173.01,-123 174.63,-112.33 176.95,-100.49 178.94,-90.96"/>
<polygon fill="midnightblue" stroke="midnightblue" points="182.4,-91.55 181.08,-81.04 175.55,-90.08 182.4,-91.55"/>
</g>
<!-- Node40&#45;&gt;Node23 -->
<g id="edge163" class="edge">
<title>Node40&#45;&gt;Node23</title>
<path fill="none" stroke="midnightblue" d="M1025.25,-713.24C965.95,-710.83 862.64,-701.78 781.01,-669 542.3,-573.16 385.02,-420.71 473.01,-179 484.12,-148.47 491.26,-138.15 520.01,-123 604.78,-78.33 905.06,-73.02 1004.65,-72.51"/>
<polygon fill="midnightblue" stroke="midnightblue" points="1004.73,-76.01 1014.72,-72.47 1004.7,-69.01 1004.73,-76.01"/>
</g>
<!-- Node41 -->
<g id="node41" class="node">
<title>Node41</title>
<g id="a_node41"><a xlink:href="layout_8h.html" target="_top" xlink:title="Definition of layout.">
<polygon fill="white" stroke="black" points="1388.01,-649.5 1388.01,-668.5 1486.01,-668.5 1486.01,-649.5 1388.01,-649.5"/>
<text text-anchor="middle" x="1437.01" y="-656.5" font-family="Helvetica,sans-Serif" font-size="10.00">tvm/tirx/layout.h</text>
</a>
</g>
</g>
<!-- Node40&#45;&gt;Node41 -->
<g id="edge78" class="edge">
<title>Node40&#45;&gt;Node41</title>
<path fill="none" stroke="midnightblue" d="M1120.59,-706.94C1186.63,-697.14 1305.99,-679.44 1377.73,-668.79"/>
<polygon fill="midnightblue" stroke="midnightblue" points="1378.58,-672.21 1387.96,-667.28 1377.55,-665.28 1378.58,-672.21"/>
</g>
<!-- Node40&#45;&gt;Node58 -->
<g id="edge162" class="edge">
<title>Node40&#45;&gt;Node58</title>
<path fill="none" stroke="midnightblue" d="M1120.62,-712.92C1294.39,-708.81 1885.97,-693.09 1918.01,-669 1987.6,-616.68 1997.74,-500.51 1998.97,-454.9"/>
<polygon fill="midnightblue" stroke="midnightblue" points="2002.47,-454.74 1999.12,-444.69 1995.47,-454.63 2002.47,-454.74"/>
</g>
<!-- Node41&#45;&gt;Node13 -->
<g id="edge82" class="edge">
<title>Node41&#45;&gt;Node13</title>
<path fill="none" stroke="midnightblue" d="M1486.04,-658.08C1693.06,-656.8 2512.94,-635.63 3123.01,-389 3209.66,-353.97 3230.35,-338.19 3301.01,-277 3339.1,-244.01 3390.97,-217.11 3358.01,-179 3323.5,-139.09 3180.76,-150.2 3111.65,-142.82"/>
<polygon fill="midnightblue" stroke="midnightblue" points="3111.98,-139.33 3101.62,-141.53 3111.09,-146.28 3111.98,-139.33"/>
</g>
<!-- Node41&#45;&gt;Node18 -->
<g id="edge79" class="edge">
<title>Node41&#45;&gt;Node18</title>
<path fill="none" stroke="midnightblue" d="M1387.87,-658.69C1185.94,-660.49 422.7,-656.73 254.01,-501 189.85,-441.77 237.15,-390.54 197.01,-313 187.69,-295 175.59,-296.17 169.01,-277 164.54,-263.97 168.45,-259.77 169.01,-246 171.28,-189.53 177.71,-122.96 181,-91.2"/>
<polygon fill="midnightblue" stroke="midnightblue" points="184.49,-91.46 182.06,-81.15 177.53,-90.73 184.49,-91.46"/>
</g>
<!-- Node41&#45;&gt;Node19 -->
<g id="edge81" class="edge">
<title>Node41&#45;&gt;Node19</title>
<path fill="none" stroke="midnightblue" d="M1387.79,-656.07C1219.6,-648.85 678.01,-619.98 678.01,-548 678.01,-548 678.01,-548 678.01,-434 678.01,-201.02 916.34,-256.63 1136.01,-179 1224.46,-147.74 1263.11,-190.52 1344.01,-143 1365.36,-130.46 1382,-106.7 1391.65,-90.25"/>
<polygon fill="midnightblue" stroke="midnightblue" points="1394.93,-91.56 1396.74,-81.12 1388.81,-88.15 1394.93,-91.56"/>
</g>
<!-- Node42 -->
<g id="node42" class="node">
<title>Node42</title>
<g id="a_node42"><a xlink:title=" ">
<polygon fill="white" stroke="#bfbfbf" points="1370.01,-593.5 1370.01,-612.5 1504.01,-612.5 1504.01,-593.5 1370.01,-593.5"/>
<text text-anchor="middle" x="1437.01" y="-600.5" font-family="Helvetica,sans-Serif" font-size="10.00">tvm/ffi/container/tuple.h</text>
</a>
</g>
</g>
<!-- Node41&#45;&gt;Node42 -->
<g id="edge80" class="edge">
<title>Node41&#45;&gt;Node42</title>
<path fill="none" stroke="midnightblue" d="M1437.01,-649.08C1437.01,-642.01 1437.01,-631.86 1437.01,-622.99"/>
<polygon fill="midnightblue" stroke="midnightblue" points="1440.51,-622.75 1437.01,-612.75 1433.51,-622.75 1440.51,-622.75"/>
</g>
<!-- Node43 -->
<g id="node43" class="node">
<title>Node43</title>
<g id="a_node43"><a xlink:href="attr__registry__map_8h.html" target="_top" xlink:title="Attribute map used in registry.">
<polygon fill="white" stroke="black" points="2633.51,-179.5 2633.51,-209.5 2742.51,-209.5 2742.51,-179.5 2633.51,-179.5"/>
<text text-anchor="start" x="2641.51" y="-197.5" font-family="Helvetica,sans-Serif" font-size="10.00">tvm/ir/attr_registry</text>
<text text-anchor="middle" x="2688.01" y="-186.5" font-family="Helvetica,sans-Serif" font-size="10.00">_map.h</text>
</a>
</g>
</g>
<!-- Node41&#45;&gt;Node43 -->
<g id="edge83" class="edge">
<title>Node41&#45;&gt;Node43</title>
<path fill="none" stroke="midnightblue" d="M1486.21,-651.43C1538.25,-644 1622.54,-630.62 1694.01,-613 1931.67,-554.42 2598.72,-474.73 2743.01,-277 2757.93,-256.55 2737.1,-232.44 2716.94,-215.78"/>
<polygon fill="midnightblue" stroke="midnightblue" points="2719.05,-212.99 2709.03,-209.56 2714.73,-218.49 2719.05,-212.99"/>
</g>
<!-- Node44 -->
<g id="node44" class="node">
<title>Node44</title>
<g id="a_node44"><a xlink:href="module_8h.html" target="_top" xlink:title="IRModule that holds the functions and type definitions.">
<polygon fill="white" stroke="black" points="1310.51,-537.5 1310.51,-556.5 1405.51,-556.5 1405.51,-537.5 1310.51,-537.5"/>
<text text-anchor="middle" x="1358.01" y="-544.5" font-family="Helvetica,sans-Serif" font-size="10.00">tvm/ir/module.h</text>
</a>
</g>
</g>
<!-- Node41&#45;&gt;Node44 -->
<g id="edge87" class="edge">
<title>Node41&#45;&gt;Node44</title>
<path fill="none" stroke="midnightblue" d="M1409.65,-649.39C1392.53,-642.46 1371.75,-630.87 1361.01,-613 1352.73,-599.23 1352.72,-580.71 1354.35,-566.96"/>
<polygon fill="midnightblue" stroke="midnightblue" points="1357.86,-567.16 1355.96,-556.74 1350.95,-566.07 1357.86,-567.16"/>
</g>
<!-- Node56 -->
<g id="node56" class="node">
<title>Node56</title>
<g id="a_node56"><a xlink:href="exec__scope_8h.html" target="_top" xlink:title=" ">
<polygon fill="white" stroke="black" points="1522.01,-593.5 1522.01,-612.5 1646.01,-612.5 1646.01,-593.5 1522.01,-593.5"/>
<text text-anchor="middle" x="1584.01" y="-600.5" font-family="Helvetica,sans-Serif" font-size="10.00">tvm/tirx/exec_scope.h</text>
</a>
</g>
</g>
<!-- Node41&#45;&gt;Node56 -->
<g id="edge150" class="edge">
<title>Node41&#45;&gt;Node56</title>
<path fill="none" stroke="midnightblue" d="M1460.3,-649.44C1484.81,-640.44 1523.6,-626.19 1551.21,-616.05"/>
<polygon fill="midnightblue" stroke="midnightblue" points="1552.64,-619.25 1560.82,-612.52 1550.23,-612.68 1552.64,-619.25"/>
</g>
<!-- Node41&#45;&gt;Node58 -->
<g id="edge161" class="edge">
<title>Node41&#45;&gt;Node58</title>
<path fill="none" stroke="midnightblue" d="M1486.04,-651.61C1530.87,-644.89 1598.59,-632.55 1655.01,-613 1760.18,-576.55 1780.28,-552.4 1879.01,-501 1912.4,-483.61 1950.58,-462.77 1974.73,-449.45"/>
<polygon fill="midnightblue" stroke="midnightblue" points="1976.5,-452.48 1983.56,-444.58 1973.11,-446.35 1976.5,-452.48"/>
</g>
<!-- Node43&#45;&gt;Node7 -->
<g id="edge84" class="edge">
<title>Node43&#45;&gt;Node7</title>
<path fill="none" stroke="midnightblue" d="M2633.18,-191.34C2555.18,-188.32 2407.67,-182.78 2282.01,-179 1625.66,-159.28 1460.94,-173.51 805.01,-143 779.91,-141.83 752.15,-140 728.67,-138.3"/>
<polygon fill="midnightblue" stroke="midnightblue" points="728.77,-134.8 718.54,-137.55 728.26,-141.78 728.77,-134.8"/>
</g>
<!-- Node43&#45;&gt;Node15 -->
<g id="edge85" class="edge">
<title>Node43&#45;&gt;Node15</title>
<path fill="none" stroke="midnightblue" d="M2742.67,-181.32C2781.54,-171.66 2829.35,-157.43 2844.01,-143 2857.94,-129.27 2863.79,-107.15 2866.24,-91.35"/>
<polygon fill="midnightblue" stroke="midnightblue" points="2869.75,-91.52 2867.49,-81.17 2862.8,-90.67 2869.75,-91.52"/>
</g>
<!-- Node43&#45;&gt;Node24 -->
<g id="edge86" class="edge">
<title>Node43&#45;&gt;Node24</title>
<path fill="none" stroke="midnightblue" d="M2742.87,-181.25C2747.64,-180.41 2752.4,-179.64 2757.01,-179 2873.06,-162.91 3182.86,-203.81 3283.01,-143 3302.11,-131.4 3313.89,-107.79 3320.18,-91.1"/>
<polygon fill="midnightblue" stroke="midnightblue" points="3323.6,-91.92 3323.55,-81.32 3316.98,-89.64 3323.6,-91.92"/>
</g>
<!-- Node44&#45;&gt;Node4 -->
<g id="edge93" class="edge">
<title>Node44&#45;&gt;Node4</title>
<path fill="none" stroke="midnightblue" d="M1405.53,-544.89C1476.01,-540.43 1600.01,-520.57 1600.01,-436 1600.01,-436 1600.01,-436 1600.01,-378 1600.01,-336.31 1565.03,-298.03 1542.53,-277.72"/>
<polygon fill="midnightblue" stroke="midnightblue" points="1544.74,-275 1534.9,-271.08 1540.14,-280.28 1544.74,-275"/>
</g>
<!-- Node44&#45;&gt;Node6 -->
<g id="edge90" class="edge">
<title>Node44&#45;&gt;Node6</title>
<path fill="none" stroke="midnightblue" d="M1310.2,-545.53C1192.75,-543.82 892.86,-536.07 800.01,-501 551.37,-407.09 440.07,-380.62 321.01,-143 301.26,-103.58 359.97,-86.03 408.97,-78.33"/>
<polygon fill="midnightblue" stroke="midnightblue" points="409.54,-81.79 418.93,-76.88 408.53,-74.86 409.54,-81.79"/>
</g>
<!-- Node44&#45;&gt;Node7 -->
<g id="edge91" class="edge">
<title>Node44&#45;&gt;Node7</title>
<path fill="none" stroke="midnightblue" d="M1310.48,-544.19C1194.6,-539.43 904.3,-525.2 868.01,-501 739.02,-415 689.83,-214.4 677.4,-152.51"/>
<polygon fill="midnightblue" stroke="midnightblue" points="680.83,-151.79 675.5,-142.63 673.95,-153.11 680.83,-151.79"/>
</g>
<!-- Node44&#45;&gt;Node15 -->
<g id="edge148" class="edge">
<title>Node44&#45;&gt;Node15</title>
<path fill="none" stroke="midnightblue" d="M1405.76,-541.22C1468.26,-534.5 1581.04,-520.85 1676.01,-501 1799.29,-475.23 1826.45,-454.01 1949.01,-425 2156.14,-375.98 2211.61,-380.89 2419.01,-333 2466.07,-322.13 2599.58,-315.3 2629.01,-277 2655.57,-242.43 2597.27,-212.63 2625.01,-179 2678.59,-114.05 2738.83,-186.37 2811.01,-143 2832.24,-130.25 2848.9,-106.54 2858.59,-90.16"/>
<polygon fill="midnightblue" stroke="midnightblue" points="2861.85,-91.5 2863.71,-81.07 2855.75,-88.07 2861.85,-91.5"/>
</g>
<!-- Node44&#45;&gt;Node16 -->
<g id="edge92" class="edge">
<title>Node44&#45;&gt;Node16</title>
<path fill="none" stroke="midnightblue" d="M1405.6,-541.82C1487.23,-534.51 1659.14,-518.51 1804.01,-501 2335.16,-436.8 2470.61,-434 2996.01,-333 3021.73,-328.05 3202.05,-289.61 3225.01,-277 3255.02,-260.52 3282.14,-230.72 3297.31,-212.08"/>
<polygon fill="midnightblue" stroke="midnightblue" points="3300.12,-214.18 3303.58,-204.17 3294.63,-209.83 3300.12,-214.18"/>
</g>
<!-- Node44&#45;&gt;Node17 -->
<g id="edge143" class="edge">
<title>Node44&#45;&gt;Node17</title>
<path fill="none" stroke="midnightblue" d="M1338.6,-537.36C1287.91,-513.56 1152.09,-441.53 1103.01,-333 1082.29,-287.19 1039.18,-282.81 1136.01,-179 1154.53,-159.14 1181.84,-148.01 1207.42,-141.79"/>
<polygon fill="midnightblue" stroke="midnightblue" points="1208.49,-145.14 1217.5,-139.57 1206.98,-138.31 1208.49,-145.14"/>
</g>
<!-- Node44&#45;&gt;Node18 -->
<g id="edge88" class="edge">
<title>Node44&#45;&gt;Node18</title>
<path fill="none" stroke="midnightblue" d="M1310.17,-544.34C1185.42,-539.71 852.45,-525.4 745.01,-501 678.45,-485.89 663.77,-474.06 602.01,-445 555.56,-423.15 543.44,-417.88 501.01,-389 364.63,-296.18 236.26,-140.33 195.98,-89.26"/>
<polygon fill="midnightblue" stroke="midnightblue" points="198.62,-86.95 189.7,-81.23 193.11,-91.26 198.62,-86.95"/>
</g>
<!-- Node44&#45;&gt;Node23 -->
<g id="edge145" class="edge">
<title>Node44&#45;&gt;Node23</title>
<path fill="none" stroke="midnightblue" d="M1310.38,-546.13C1198.52,-545.77 922.31,-540.74 840.01,-501 672.04,-419.91 665.61,-324.11 621.01,-143 618.88,-134.37 615.11,-129.65 621.01,-123 646.39,-94.35 911.09,-78.68 1004.55,-74.01"/>
<polygon fill="midnightblue" stroke="midnightblue" points="1005.01,-77.49 1014.82,-73.5 1004.66,-70.5 1005.01,-77.49"/>
</g>
<!-- Node44&#45;&gt;Node24 -->
<g id="edge149" class="edge">
<title>Node44&#45;&gt;Node24</title>
<path fill="none" stroke="midnightblue" d="M1405.64,-542.54C1499.67,-535.59 1715.73,-519.05 1897.01,-501 2507.45,-440.22 2701.92,-533.89 3259.01,-277 3307.25,-254.75 3327.48,-253.48 3358.01,-210 3380.65,-177.76 3389.81,-159.51 3375.01,-123 3369.29,-108.89 3357.52,-96.54 3346.95,-87.59"/>
<polygon fill="midnightblue" stroke="midnightblue" points="3348.87,-84.65 3338.86,-81.17 3344.52,-90.13 3348.87,-84.65"/>
</g>
<!-- Node44&#45;&gt;Node25 -->
<g id="edge144" class="edge">
<title>Node44&#45;&gt;Node25</title>
<path fill="none" stroke="midnightblue" d="M1310.35,-544.51C1197.87,-540.55 923.03,-528.18 892.01,-501 827.82,-444.77 837.8,-396.97 853.01,-313 859.71,-276.01 877.37,-235.5 888.17,-213.02"/>
<polygon fill="midnightblue" stroke="midnightblue" points="891.31,-214.56 892.58,-204.04 885.03,-211.47 891.31,-214.56"/>
</g>
<!-- Node44&#45;&gt;Node34 -->
<g id="edge89" class="edge">
<title>Node44&#45;&gt;Node34</title>
<path fill="none" stroke="midnightblue" d="M1405.66,-540.69C1453.28,-534.47 1528.11,-522.23 1590.01,-501 1827.09,-419.69 1854.64,-323.48 2093.01,-246 2188.9,-214.83 2225.57,-252.5 2317.01,-210 2336.15,-201.1 2334,-188.2 2353.01,-179 2380.6,-165.64 2454.85,-152.61 2512.18,-144.04"/>
<polygon fill="midnightblue" stroke="midnightblue" points="2512.93,-147.46 2522.32,-142.54 2511.91,-140.54 2512.93,-147.46"/>
</g>
<!-- Node44&#45;&gt;Node38 -->
<g id="edge146" class="edge">
<title>Node44&#45;&gt;Node38</title>
<path fill="none" stroke="midnightblue" d="M1405.66,-540.51C1460.35,-533.66 1552.47,-520.43 1630.01,-501 1731.98,-475.45 1752.41,-452.02 1854.01,-425 1874.74,-419.49 2598.37,-293.56 2612.01,-277 2640.33,-242.62 2564,-214.42 2591.01,-179 2598.06,-169.75 2658.57,-154.84 2704.05,-144.74"/>
<polygon fill="midnightblue" stroke="midnightblue" points="2705.07,-148.1 2714.09,-142.53 2703.57,-141.26 2705.07,-148.1"/>
</g>
<!-- Node45 -->
<g id="node45" class="node">
<title>Node45</title>
<g id="a_node45"><a xlink:href="ir_2function_8h.html" target="_top" xlink:title="Function nodes.">
<polygon fill="white" stroke="black" points="1246.01,-369.5 1246.01,-388.5 1344.01,-388.5 1344.01,-369.5 1246.01,-369.5"/>
<text text-anchor="middle" x="1295.01" y="-376.5" font-family="Helvetica,sans-Serif" font-size="10.00">tvm/ir/function.h</text>
</a>
</g>
</g>
<!-- Node44&#45;&gt;Node45 -->
<g id="edge94" class="edge">
<title>Node44&#45;&gt;Node45</title>
<path fill="none" stroke="midnightblue" d="M1342.85,-537.44C1330.63,-529.64 1314.18,-516.93 1306.01,-501 1289.13,-468.11 1290.21,-423.55 1292.56,-398.71"/>
<polygon fill="midnightblue" stroke="midnightblue" points="1296.07,-398.84 1293.71,-388.51 1289.11,-398.06 1296.07,-398.84"/>
</g>
<!-- Node46 -->
<g id="node46" class="node">
<title>Node46</title>
<g id="a_node46"><a xlink:href="ir_2global__info_8h.html" target="_top" xlink:title="GlobalInfo are globally static object that are referred by the IR itself.">
<polygon fill="white" stroke="black" points="1419.01,-481.5 1419.01,-500.5 1531.01,-500.5 1531.01,-481.5 1419.01,-481.5"/>
<text text-anchor="middle" x="1475.01" y="-488.5" font-family="Helvetica,sans-Serif" font-size="10.00">tvm/ir/global_info.h</text>
</a>
</g>
</g>
<!-- Node44&#45;&gt;Node46 -->
<g id="edge102" class="edge">
<title>Node44&#45;&gt;Node46</title>
<path fill="none" stroke="midnightblue" d="M1376.55,-537.44C1395.63,-528.64 1425.58,-514.81 1447.44,-504.72"/>
<polygon fill="midnightblue" stroke="midnightblue" points="1448.94,-507.88 1456.56,-500.52 1446.01,-501.53 1448.94,-507.88"/>
</g>
<!-- Node55 -->
<g id="node55" class="node">
<title>Node55</title>
<g id="a_node55"><a xlink:title=" ">
<polygon fill="white" stroke="#bfbfbf" points="1315.01,-481.5 1315.01,-500.5 1401.01,-500.5 1401.01,-481.5 1315.01,-481.5"/>
<text text-anchor="middle" x="1358.01" y="-488.5" font-family="Helvetica,sans-Serif" font-size="10.00">unordered_set</text>
</a>
</g>
</g>
<!-- Node44&#45;&gt;Node55 -->
<g id="edge147" class="edge">
<title>Node44&#45;&gt;Node55</title>
<path fill="none" stroke="midnightblue" d="M1358.01,-537.08C1358.01,-530.01 1358.01,-519.86 1358.01,-510.99"/>
<polygon fill="midnightblue" stroke="midnightblue" points="1361.51,-510.75 1358.01,-500.75 1354.51,-510.75 1361.51,-510.75"/>
</g>
<!-- Node45&#45;&gt;Node4 -->
<g id="edge99" class="edge">
<title>Node45&#45;&gt;Node4</title>
<path fill="none" stroke="midnightblue" d="M1327.3,-369.46C1354.03,-361.75 1392.58,-349.16 1424.01,-333 1454.64,-317.25 1486.59,-293.17 1505.9,-277.62"/>
<polygon fill="midnightblue" stroke="midnightblue" points="1508.3,-280.18 1513.83,-271.15 1503.87,-274.76 1508.3,-280.18"/>
</g>
<!-- Node45&#45;&gt;Node7 -->
<g id="edge97" class="edge">
<title>Node45&#45;&gt;Node7</title>
<path fill="none" stroke="midnightblue" d="M1245.65,-371.96C1198.45,-365.35 1125.69,-352.95 1065.01,-333 943.56,-293.09 918.17,-269.46 805.01,-210 766.24,-189.63 722.47,-163.6 696.61,-147.89"/>
<polygon fill="midnightblue" stroke="midnightblue" points="698.3,-144.82 687.94,-142.6 694.66,-150.8 698.3,-144.82"/>
</g>
<!-- Node45&#45;&gt;Node18 -->
<g id="edge95" class="edge">
<title>Node45&#45;&gt;Node18</title>
<path fill="none" stroke="midnightblue" d="M1245.91,-372.6C1188.24,-365.74 1089.91,-352.4 1007.01,-333 692.51,-259.4 324.25,-125.37 215.05,-84.59"/>
<polygon fill="midnightblue" stroke="midnightblue" points="216.18,-81.28 205.59,-81.05 213.73,-87.83 216.18,-81.28"/>
</g>
<!-- Node45&#45;&gt;Node23 -->
<g id="edge100" class="edge">
<title>Node45&#45;&gt;Node23</title>
<path fill="none" stroke="midnightblue" d="M1282.1,-369.4C1248.41,-346.52 1156.29,-281 1096.01,-210 1073.56,-183.56 1069.54,-174.93 1056.01,-143 1048.91,-126.24 1043.79,-106.1 1040.67,-91.64"/>
<polygon fill="midnightblue" stroke="midnightblue" points="1044.02,-90.54 1038.6,-81.44 1037.16,-91.94 1044.02,-90.54"/>
</g>
<!-- Node45&#45;&gt;Node29 -->
<g id="edge101" class="edge">
<title>Node45&#45;&gt;Node29</title>
<path fill="none" stroke="midnightblue" d="M1304.01,-369.49C1329.13,-346.18 1402.97,-280.78 1476.01,-246 1532.46,-219.12 1557.33,-240.33 1612.01,-210 1629.6,-200.24 1626.59,-187.1 1645.01,-179 1842.06,-92.35 1921.1,-202.37 2128.01,-143 2146.35,-137.74 2148.54,-130.7 2166.01,-123 2185.21,-114.53 2236.43,-96.47 2271.29,-84.41"/>
<polygon fill="midnightblue" stroke="midnightblue" points="2272.77,-87.6 2281.09,-81.02 2270.49,-80.98 2272.77,-87.6"/>
</g>
<!-- Node45&#45;&gt;Node34 -->
<g id="edge96" class="edge">
<title>Node45&#45;&gt;Node34</title>
<path fill="none" stroke="midnightblue" d="M1340.84,-369.47C1457.61,-347.84 1775.88,-289.46 2042.01,-246 2148.46,-228.61 2182.11,-250.68 2282.01,-210 2303.83,-201.11 2303.29,-188.12 2325.01,-179 2357.65,-165.29 2445.48,-151.79 2510.28,-143.21"/>
<polygon fill="midnightblue" stroke="midnightblue" points="2511.01,-146.64 2520.47,-141.87 2510.1,-139.7 2511.01,-146.64"/>
</g>
<!-- Node45&#45;&gt;Node35 -->
<g id="edge98" class="edge">
<title>Node45&#45;&gt;Node35</title>
<path fill="none" stroke="midnightblue" d="M1344.09,-374.68C1486.52,-365.06 1898.98,-337.18 2043.37,-327.42"/>
<polygon fill="midnightblue" stroke="midnightblue" points="2043.96,-330.89 2053.7,-326.72 2043.48,-323.91 2043.96,-330.89"/>
</g>
<!-- Node46&#45;&gt;Node4 -->
<g id="edge104" class="edge">
<title>Node46&#45;&gt;Node4</title>
<path fill="none" stroke="midnightblue" d="M1482.62,-481.4C1489.73,-472.83 1499.98,-458.96 1505.01,-445 1525.49,-388.17 1526.05,-315.39 1524.97,-281.47"/>
<polygon fill="midnightblue" stroke="midnightblue" points="1528.45,-281.04 1524.55,-271.19 1521.46,-281.33 1528.45,-281.04"/>
</g>
<!-- Node46&#45;&gt;Node6 -->
<g id="edge103" class="edge">
<title>Node46&#45;&gt;Node6</title>
<path fill="none" stroke="midnightblue" d="M1424.11,-481.49C1277.13,-456.59 854.19,-382.49 723.01,-333 619.28,-293.87 586.92,-285.78 506.01,-210 480.01,-185.65 472.21,-177.13 462.01,-143 457.54,-128.05 458.98,-110.58 461.57,-96.76"/>
<polygon fill="midnightblue" stroke="midnightblue" points="465.08,-97.11 463.8,-86.59 458.24,-95.61 465.08,-97.11"/>
</g>
<!-- Node47 -->
<g id="node47" class="node">
<title>Node47</title>
<g id="a_node47"><a xlink:href="target_8h.html" target="_top" xlink:title="Compilation target object.">
<polygon fill="white" stroke="black" points="1386.01,-425.5 1386.01,-444.5 1496.01,-444.5 1496.01,-425.5 1386.01,-425.5"/>
<text text-anchor="middle" x="1441.01" y="-432.5" font-family="Helvetica,sans-Serif" font-size="10.00">tvm/target/target.h</text>
</a>
</g>
</g>
<!-- Node46&#45;&gt;Node47 -->
<g id="edge105" class="edge">
<title>Node46&#45;&gt;Node47</title>
<path fill="none" stroke="midnightblue" d="M1469.39,-481.08C1464.64,-473.53 1457.69,-462.49 1451.86,-453.23"/>
<polygon fill="midnightblue" stroke="midnightblue" points="1454.81,-451.35 1446.52,-444.75 1448.88,-455.08 1454.81,-451.35"/>
</g>
<!-- Node47&#45;&gt;Node4 -->
<g id="edge108" class="edge">
<title>Node47&#45;&gt;Node4</title>
<path fill="none" stroke="midnightblue" d="M1445.24,-425.26C1458.23,-398.42 1497.72,-316.82 1515.35,-280.39"/>
<polygon fill="midnightblue" stroke="midnightblue" points="1518.68,-281.55 1519.88,-271.02 1512.38,-278.5 1518.68,-281.55"/>
</g>
<!-- Node47&#45;&gt;Node6 -->
<g id="edge106" class="edge">
<title>Node47&#45;&gt;Node6</title>
<path fill="none" stroke="midnightblue" d="M1385.84,-425.58C1336.54,-417.62 1262.5,-404.6 1199.01,-389 935.78,-324.34 868.91,-307.52 616.01,-210 550.52,-184.75 512.74,-200.86 473.01,-143 463.87,-129.7 462.8,-111.46 463.92,-96.87"/>
<polygon fill="midnightblue" stroke="midnightblue" points="467.44,-96.9 465.11,-86.56 460.49,-96.1 467.44,-96.9"/>
</g>
<!-- Node47&#45;&gt;Node8 -->
<g id="edge107" class="edge">
<title>Node47&#45;&gt;Node8</title>
<path fill="none" stroke="midnightblue" d="M1451.86,-425.23C1495.86,-389.65 1661.37,-255.84 1717.36,-210.58"/>
<polygon fill="midnightblue" stroke="midnightblue" points="1719.79,-213.11 1725.37,-204.1 1715.39,-207.66 1719.79,-213.11"/>
</g>
<!-- Node47&#45;&gt;Node23 -->
<g id="edge142" class="edge">
<title>Node47&#45;&gt;Node23</title>
<path fill="none" stroke="midnightblue" d="M1385.6,-430.38C1342.76,-425.61 1283.17,-414.57 1237.01,-389 1141.29,-335.99 1123.6,-304.24 1068.01,-210 1051.94,-182.76 1050.96,-173.86 1044.01,-143 1040.13,-125.77 1038.4,-105.68 1037.63,-91.37"/>
<polygon fill="midnightblue" stroke="midnightblue" points="1041.12,-91.13 1037.19,-81.29 1034.13,-91.43 1041.12,-91.13"/>
</g>
<!-- Node47&#45;&gt;Node45 -->
<g id="edge109" class="edge">
<title>Node47&#45;&gt;Node45</title>
<path fill="none" stroke="midnightblue" d="M1417.87,-425.44C1393.53,-416.44 1355,-402.19 1327.58,-392.05"/>
<polygon fill="midnightblue" stroke="midnightblue" points="1328.63,-388.7 1318.03,-388.52 1326.2,-395.27 1328.63,-388.7"/>
</g>
<!-- Node47&#45;&gt;Node48 -->
<g id="edge110" class="edge">
<title>Node47&#45;&gt;Node48</title>
<path fill="none" stroke="midnightblue" d="M1496.14,-428.24C1741.88,-402.59 2737.25,-298.7 3012.93,-269.92"/>
<polygon fill="midnightblue" stroke="midnightblue" points="3013.62,-273.37 3023.2,-268.85 3012.89,-266.4 3013.62,-273.37"/>
</g>
<!-- Node51 -->
<g id="node51" class="node">
<title>Node51</title>
<g id="a_node51"><a xlink:href="device__api_8h.html" target="_top" xlink:title="Abstract device memory management API.">
<polygon fill="white" stroke="black" points="1489.51,-179.5 1489.51,-209.5 1602.51,-209.5 1602.51,-179.5 1489.51,-179.5"/>
<text text-anchor="start" x="1497.51" y="-197.5" font-family="Helvetica,sans-Serif" font-size="10.00">tvm/runtime/device</text>
<text text-anchor="middle" x="1546.01" y="-186.5" font-family="Helvetica,sans-Serif" font-size="10.00">_api.h</text>
</a>
</g>
</g>
<!-- Node47&#45;&gt;Node51 -->
<g id="edge116" class="edge">
<title>Node47&#45;&gt;Node51</title>
<path fill="none" stroke="midnightblue" d="M1440.45,-425.33C1439.07,-397.06 1437.97,-306.01 1476.01,-246 1483.95,-233.47 1496.21,-223.08 1508.27,-215.05"/>
<polygon fill="midnightblue" stroke="midnightblue" points="1510.33,-217.89 1516.95,-209.62 1506.61,-211.96 1510.33,-217.89"/>
</g>
<!-- Node52 -->
<g id="node52" class="node">
<title>Node52</title>
<g id="a_node52"><a xlink:href="target__kind_8h.html" target="_top" xlink:title="Target kind registry.">
<polygon fill="white" stroke="black" points="2451.01,-252 2451.01,-271 2587.01,-271 2587.01,-252 2451.01,-252"/>
<text text-anchor="middle" x="2519.01" y="-259" font-family="Helvetica,sans-Serif" font-size="10.00">tvm/target/target_kind.h</text>
</a>
</g>
</g>
<!-- Node47&#45;&gt;Node52 -->
<g id="edge123" class="edge">
<title>Node47&#45;&gt;Node52</title>
<path fill="none" stroke="midnightblue" d="M1496.19,-426.87C1614.81,-411.37 1902.79,-372.78 2143.01,-333 2258.85,-313.81 2394.03,-287.5 2466.58,-273.06"/>
<polygon fill="midnightblue" stroke="midnightblue" points="2467.7,-276.4 2476.82,-271.02 2466.33,-269.54 2467.7,-276.4"/>
</g>
<!-- Node48&#45;&gt;Node15 -->
<g id="edge114" class="edge">
<title>Node48&#45;&gt;Node15</title>
<path fill="none" stroke="midnightblue" d="M3111.05,-251.98C3149.6,-238.48 3212.88,-210.45 3186.01,-179 3119.36,-101.01 3052.07,-183.94 2958.01,-143 2928.29,-130.07 2899.87,-104.95 2883.18,-88.45"/>
<polygon fill="midnightblue" stroke="midnightblue" points="2885.49,-85.81 2875.97,-81.14 2880.5,-90.72 2885.49,-85.81"/>
</g>
<!-- Node48&#45;&gt;Node24 -->
<g id="edge115" class="edge">
<title>Node48&#45;&gt;Node24</title>
<path fill="none" stroke="midnightblue" d="M3105.72,-251.86C3129.74,-242.17 3169.49,-225.74 3203.01,-210 3230.18,-197.24 3235.57,-191.18 3263.01,-179 3304.66,-160.51 3333.05,-180.45 3359.01,-143 3370.96,-125.76 3356.28,-103.5 3342.87,-88.65"/>
<polygon fill="midnightblue" stroke="midnightblue" points="3345.19,-86.01 3335.73,-81.24 3340.15,-90.87 3345.19,-86.01"/>
</g>
<!-- Node48&#45;&gt;Node31 -->
<g id="edge112" class="edge">
<title>Node48&#45;&gt;Node31</title>
<path fill="none" stroke="midnightblue" d="M3055.59,-251.87C3017.59,-240.33 2950.13,-219.84 2907.85,-207"/>
<polygon fill="midnightblue" stroke="midnightblue" points="2908.79,-203.62 2898.2,-204.06 2906.75,-210.32 2908.79,-203.62"/>
</g>
<!-- Node49 -->
<g id="node49" class="node">
<title>Node49</title>
<g id="a_node49"><a xlink:title=" ">
<polygon fill="white" stroke="#bfbfbf" points="3111.51,-185 3111.51,-204 3176.51,-204 3176.51,-185 3111.51,-185"/>
<text text-anchor="middle" x="3144.01" y="-192" font-family="Helvetica,sans-Serif" font-size="10.00">exception</text>
</a>
</g>
</g>
<!-- Node48&#45;&gt;Node49 -->
<g id="edge111" class="edge">
<title>Node48&#45;&gt;Node49</title>
<path fill="none" stroke="midnightblue" d="M3092.1,-251.73C3101.55,-241.5 3117.36,-224.36 3129.06,-211.69"/>
<polygon fill="midnightblue" stroke="midnightblue" points="3131.83,-213.85 3136.04,-204.13 3126.69,-209.1 3131.83,-213.85"/>
</g>
<!-- Node48&#45;&gt;Node50 -->
<g id="edge113" class="edge">
<title>Node48&#45;&gt;Node50</title>
<path fill="none" stroke="midnightblue" d="M3081.31,-251.73C3078.34,-242.09 3073.48,-226.3 3069.67,-213.91"/>
<polygon fill="midnightblue" stroke="midnightblue" points="3072.95,-212.66 3066.66,-204.13 3066.26,-214.71 3072.95,-212.66"/>
</g>
<!-- Node51&#45;&gt;Node7 -->
<g id="edge120" class="edge">
<title>Node51&#45;&gt;Node7</title>
<path fill="none" stroke="midnightblue" d="M1489.3,-189.65C1365.23,-181.21 1060.36,-160.47 805.01,-143 779.95,-141.29 752.19,-139.38 728.7,-137.76"/>
<polygon fill="midnightblue" stroke="midnightblue" points="728.79,-134.26 718.57,-137.07 728.31,-141.25 728.79,-134.26"/>
</g>
<!-- Node51&#45;&gt;Node9 -->
<g id="edge117" class="edge">
<title>Node51&#45;&gt;Node9</title>
<path fill="none" stroke="midnightblue" d="M1573.73,-179.4C1592.84,-169.68 1618.07,-156.86 1636.83,-147.31"/>
<polygon fill="midnightblue" stroke="midnightblue" points="1638.66,-150.31 1645.98,-142.66 1635.48,-144.07 1638.66,-150.31"/>
</g>
<!-- Node51&#45;&gt;Node12 -->
<g id="edge118" class="edge">
<title>Node51&#45;&gt;Node12</title>
<path fill="none" stroke="midnightblue" d="M1602.86,-181.23C1607.64,-180.4 1612.4,-179.64 1617.01,-179 1828.02,-149.63 1892.03,-207.74 2095.01,-143 2114.9,-136.66 2162.79,-105.68 2190.74,-86.96"/>
<polygon fill="midnightblue" stroke="midnightblue" points="2193.05,-89.63 2199.39,-81.14 2189.14,-83.82 2193.05,-89.63"/>
</g>
<!-- Node51&#45;&gt;Node14 -->
<g id="edge119" class="edge">
<title>Node51&#45;&gt;Node14</title>
<path fill="none" stroke="midnightblue" d="M1548.38,-179.4C1549.73,-171.38 1551.43,-161.23 1552.89,-152.57"/>
<polygon fill="midnightblue" stroke="midnightblue" points="1556.35,-153.1 1554.55,-142.66 1549.44,-151.94 1556.35,-153.1"/>
</g>
<!-- Node51&#45;&gt;Node20 -->
<g id="edge121" class="edge">
<title>Node51&#45;&gt;Node20</title>
<path fill="none" stroke="midnightblue" d="M1524.81,-179.49C1505.32,-164.89 1481.61,-141.6 1497.01,-123 1521.83,-93.02 1625.85,-80.7 1696.22,-75.73"/>
<polygon fill="midnightblue" stroke="midnightblue" points="1696.6,-79.21 1706.34,-75.05 1696.13,-72.23 1696.6,-79.21"/>
</g>
<!-- Node51&#45;&gt;Node23 -->
<g id="edge122" class="edge">
<title>Node51&#45;&gt;Node23</title>
<path fill="none" stroke="midnightblue" d="M1511.54,-179.41C1471.76,-163.65 1404.12,-138.31 1344.01,-123 1245.41,-97.89 1125.7,-82.39 1069.33,-75.95"/>
<polygon fill="midnightblue" stroke="midnightblue" points="1069.57,-72.46 1059.24,-74.82 1068.79,-79.42 1069.57,-72.46"/>
</g>
<!-- Node52&#45;&gt;Node6 -->
<g id="edge125" class="edge">
<title>Node52&#45;&gt;Node6</title>
<path fill="none" stroke="midnightblue" d="M2459.42,-251.97C2441.63,-249.7 2422.06,-247.47 2404.01,-246 1978.01,-211.23 1867.41,-260.6 1443.01,-210 1374.11,-201.79 1358.37,-190.87 1290.01,-179 1204.61,-164.17 989.96,-134.21 904.01,-123 769.45,-105.45 611.13,-87.88 527.21,-78.81"/>
<polygon fill="midnightblue" stroke="midnightblue" points="527.42,-75.31 517.1,-77.72 526.67,-82.27 527.42,-75.31"/>
</g>
<!-- Node52&#45;&gt;Node15 -->
<g id="edge140" class="edge">
<title>Node52&#45;&gt;Node15</title>
<path fill="none" stroke="midnightblue" d="M2512.94,-251.84C2502.44,-235.71 2483.63,-200.72 2501.01,-179 2546.54,-122.08 2592.48,-167.83 2661.01,-143 2679.32,-136.36 2681.94,-130.28 2700.01,-123 2745.83,-104.54 2801.04,-89.2 2835.34,-80.43"/>
<polygon fill="midnightblue" stroke="midnightblue" points="2836.44,-83.77 2845.28,-77.93 2834.73,-76.98 2836.44,-83.77"/>
</g>
<!-- Node52&#45;&gt;Node19 -->
<g id="edge124" class="edge">
<title>Node52&#45;&gt;Node19</title>
<path fill="none" stroke="midnightblue" d="M2459.42,-251.99C2441.63,-249.72 2422.06,-247.49 2404.01,-246 2301.72,-237.57 1568.96,-262.89 1481.01,-210 1436.74,-183.38 1414.45,-122.26 1405.66,-91.27"/>
<polygon fill="midnightblue" stroke="midnightblue" points="1408.97,-90.09 1403.01,-81.33 1402.2,-91.89 1408.97,-90.09"/>
</g>
<!-- Node52&#45;&gt;Node20 -->
<g id="edge137" class="edge">
<title>Node52&#45;&gt;Node20</title>
<path fill="none" stroke="midnightblue" d="M2473.54,-251.98C2461.67,-249.89 2448.88,-247.75 2437.01,-246 2302.41,-226.15 2265.63,-240.38 2133.01,-210 2044.09,-189.63 2024.48,-174.86 1939.01,-143 1887.35,-123.75 1827.96,-99.51 1793.06,-85.06"/>
<polygon fill="midnightblue" stroke="midnightblue" points="1794.05,-81.68 1783.47,-81.07 1791.37,-88.14 1794.05,-81.68"/>
</g>
<!-- Node52&#45;&gt;Node24 -->
<g id="edge141" class="edge">
<title>Node52&#45;&gt;Node24</title>
<path fill="none" stroke="midnightblue" d="M2570.56,-251.92C2618.2,-243.38 2690.68,-228.84 2752.01,-210 2787.27,-199.17 2793.08,-187.37 2829.01,-179 2932.75,-154.82 3224.94,-210.92 3307.01,-143 3322.08,-130.52 3325.89,-107.46 3326.53,-91.11"/>
<polygon fill="midnightblue" stroke="midnightblue" points="3330.03,-91.09 3326.57,-81.08 3323.03,-91.07 3330.03,-91.09"/>
</g>
<!-- Node52&#45;&gt;Node38 -->
<g id="edge139" class="edge">
<title>Node52&#45;&gt;Node38</title>
<path fill="none" stroke="midnightblue" d="M2515.13,-251.69C2508.57,-235.31 2497.64,-199.93 2515.01,-179 2520.89,-171.92 2629.29,-153.73 2698.37,-142.76"/>
<polygon fill="midnightblue" stroke="midnightblue" points="2698.93,-146.22 2708.26,-141.2 2697.84,-139.31 2698.93,-146.22"/>
</g>
<!-- Node52&#45;&gt;Node43 -->
<g id="edge126" class="edge">
<title>Node52&#45;&gt;Node43</title>
<path fill="none" stroke="midnightblue" d="M2541.45,-251.87C2567.03,-242.03 2609.51,-225.69 2642.18,-213.13"/>
<polygon fill="midnightblue" stroke="midnightblue" points="2643.46,-216.38 2651.53,-209.53 2640.94,-209.85 2643.46,-216.38"/>
</g>
<!-- Node52&#45;&gt;Node50 -->
<g id="edge138" class="edge">
<title>Node52&#45;&gt;Node50</title>
<path fill="none" stroke="midnightblue" d="M2587.2,-252.37C2702.71,-238.59 2933.22,-211.1 3025,-200.15"/>
<polygon fill="midnightblue" stroke="midnightblue" points="3025.46,-203.62 3034.98,-198.96 3024.63,-196.67 3025.46,-203.62"/>
</g>
<!-- Node53 -->
<g id="node53" class="node">
<title>Node53</title>
<g id="a_node53"><a xlink:href="config__schema_8h.html" target="_top" xlink:title="Minimal schema for dynamic config canonicalization and validation.">
<polygon fill="white" stroke="black" points="2141.51,-185 2141.51,-204 2272.51,-204 2272.51,-185 2141.51,-185"/>
<text text-anchor="middle" x="2207.01" y="-192" font-family="Helvetica,sans-Serif" font-size="10.00">tvm/ir/config_schema.h</text>
</a>
</g>
</g>
<!-- Node52&#45;&gt;Node53 -->
<g id="edge127" class="edge">
<title>Node52&#45;&gt;Node53</title>
<path fill="none" stroke="midnightblue" d="M2477.9,-251.94C2421.31,-240.15 2319.47,-218.93 2258.07,-206.14"/>
<polygon fill="midnightblue" stroke="midnightblue" points="2258.71,-202.7 2248.21,-204.08 2257.28,-209.55 2258.71,-202.7"/>
</g>
<!-- Node53&#45;&gt;Node6 -->
<g id="edge130" class="edge">
<title>Node53&#45;&gt;Node6</title>
<path fill="none" stroke="midnightblue" d="M2141.21,-190.82C1949.09,-182.89 1391,-159.1 1209.01,-143 1138.5,-136.76 1121.39,-130.5 1051.01,-123 859.87,-102.63 632.82,-84.79 527.34,-76.86"/>
<polygon fill="midnightblue" stroke="midnightblue" points="527.44,-73.36 517.21,-76.1 526.92,-80.34 527.44,-73.36"/>
</g>
<!-- Node53&#45;&gt;Node15 -->
<g id="edge135" class="edge">
<title>Node53&#45;&gt;Node15</title>
<path fill="none" stroke="midnightblue" d="M2251.49,-184.99C2311.4,-173.41 2414.78,-153 2452.01,-143 2479.15,-135.71 2484.65,-129.44 2512.01,-123 2629.18,-95.4 2771.84,-80.73 2835.09,-75.16"/>
<polygon fill="midnightblue" stroke="midnightblue" points="2835.59,-78.63 2845.25,-74.29 2834.99,-71.66 2835.59,-78.63"/>
</g>
<!-- Node53&#45;&gt;Node19 -->
<g id="edge129" class="edge">
<title>Node53&#45;&gt;Node19</title>
<path fill="none" stroke="midnightblue" d="M2162.1,-184.97C2074.95,-168.47 1885.68,-132.93 1820.01,-123 1693.04,-103.8 1543.55,-87.22 1461.87,-78.67"/>
<polygon fill="midnightblue" stroke="midnightblue" points="1462.08,-75.18 1451.77,-77.62 1461.35,-82.14 1462.08,-75.18"/>
</g>
<!-- Node53&#45;&gt;Node23 -->
<g id="edge132" class="edge">
<title>Node53&#45;&gt;Node23</title>
<path fill="none" stroke="midnightblue" d="M2141.46,-186.25C2063.65,-177.36 1930.06,-161.21 1816.01,-143 1769.1,-135.51 1758.1,-129.23 1711.01,-123 1678.87,-118.75 1199.76,-84.19 1069.49,-74.83"/>
<polygon fill="midnightblue" stroke="midnightblue" points="1069.57,-71.33 1059.35,-74.1 1069.07,-78.31 1069.57,-71.33"/>
</g>
<!-- Node53&#45;&gt;Node24 -->
<g id="edge136" class="edge">
<title>Node53&#45;&gt;Node24</title>
<path fill="none" stroke="midnightblue" d="M2272.61,-190.93C2497.9,-182.02 3227.41,-152.5 3250.01,-143 3277.13,-131.59 3300.61,-106 3314.03,-88.99"/>
<polygon fill="midnightblue" stroke="midnightblue" points="3316.84,-91.08 3320.1,-81 3311.27,-86.85 3316.84,-91.08"/>
</g>
<!-- Node53&#45;&gt;Node29 -->
<g id="edge133" class="edge">
<title>Node53&#45;&gt;Node29</title>
<path fill="none" stroke="midnightblue" d="M2252.23,-184.98C2317.05,-172.56 2429.25,-150.17 2435.01,-143 2461.87,-109.53 2397.78,-89.61 2350.64,-79.88"/>
<polygon fill="midnightblue" stroke="midnightblue" points="2351.06,-76.4 2340.57,-77.91 2349.71,-83.27 2351.06,-76.4"/>
</g>
<!-- Node53&#45;&gt;Node34 -->
<g id="edge128" class="edge">
<title>Node53&#45;&gt;Node34</title>
<path fill="none" stroke="midnightblue" d="M2252.66,-184.98C2263.88,-182.96 2275.87,-180.85 2287.01,-179 2365.09,-166.05 2454.92,-152.75 2515.57,-143.99"/>
<polygon fill="midnightblue" stroke="midnightblue" points="2516.39,-147.41 2525.79,-142.52 2515.39,-140.48 2516.39,-147.41"/>
</g>
<!-- Node53&#45;&gt;Node38 -->
<g id="edge134" class="edge">
<title>Node53&#45;&gt;Node38</title>
<path fill="none" stroke="midnightblue" d="M2272.56,-186.38C2380.92,-174.62 2595.56,-151.31 2698,-140.19"/>
<polygon fill="midnightblue" stroke="midnightblue" points="2698.59,-143.65 2708.15,-139.09 2697.83,-136.69 2698.59,-143.65"/>
</g>
<!-- Node54 -->
<g id="node54" class="node">
<title>Node54</title>
<g id="a_node54"><a xlink:title=" ">
<polygon fill="white" stroke="#bfbfbf" points="2370.01,-123.5 2370.01,-142.5 2426.01,-142.5 2426.01,-123.5 2370.01,-123.5"/>
<text text-anchor="middle" x="2398.01" y="-130.5" font-family="Helvetica,sans-Serif" font-size="10.00">sstream</text>
</a>
</g>
</g>
<!-- Node53&#45;&gt;Node54 -->
<g id="edge131" class="edge">
<title>Node53&#45;&gt;Node54</title>
<path fill="none" stroke="midnightblue" d="M2234.37,-184.98C2267.56,-174.64 2323.66,-157.16 2360.76,-145.6"/>
<polygon fill="midnightblue" stroke="midnightblue" points="2362.19,-148.82 2370.69,-142.51 2360.1,-142.14 2362.19,-148.82"/>
</g>
<!-- Node56&#45;&gt;Node15 -->
<g id="edge160" class="edge">
<title>Node56&#45;&gt;Node15</title>
<path fill="none" stroke="midnightblue" d="M1606.24,-593.49C1622.54,-586.16 1644.01,-574.05 1657.01,-557 1675.26,-533.06 1676.01,-522.1 1676.01,-492 1676.01,-492 1676.01,-492 1676.01,-434 1676.01,-266.82 2196.24,-151.29 2361.01,-123 2538.51,-92.52 2754.38,-78.58 2835.3,-74.15"/>
<polygon fill="midnightblue" stroke="midnightblue" points="2835.57,-77.64 2845.37,-73.61 2835.19,-70.65 2835.57,-77.64"/>
</g>
<!-- Node56&#45;&gt;Node23 -->
<g id="edge159" class="edge">
<title>Node56&#45;&gt;Node23</title>
<path fill="none" stroke="midnightblue" d="M1521.67,-594.07C1518.74,-593.71 1515.84,-593.35 1513.01,-593 1171.82,-550.94 1066.71,-622.19 745.01,-501 614.88,-451.98 487.01,-463.06 487.01,-324 487.01,-324 487.01,-324 487.01,-193.5 487.01,-86.84 886.53,-74.1 1004.56,-72.66"/>
<polygon fill="midnightblue" stroke="midnightblue" points="1004.8,-76.16 1014.77,-72.55 1004.73,-69.16 1004.8,-76.16"/>
</g>
<!-- Node56&#45;&gt;Node44 -->
<g id="edge152" class="edge">
<title>Node56&#45;&gt;Node44</title>
<path fill="none" stroke="midnightblue" d="M1548.2,-593.44C1509.02,-584.08 1446.13,-569.06 1403.49,-558.87"/>
<polygon fill="midnightblue" stroke="midnightblue" points="1404.19,-555.44 1393.65,-556.52 1402.56,-562.24 1404.19,-555.44"/>
</g>
<!-- Node57 -->
<g id="node57" class="node">
<title>Node57</title>
<g id="a_node57"><a xlink:title=" ">
<polygon fill="white" stroke="#bfbfbf" points="1504.01,-537.5 1504.01,-556.5 1648.01,-556.5 1648.01,-537.5 1504.01,-537.5"/>
<text text-anchor="middle" x="1576.01" y="-544.5" font-family="Helvetica,sans-Serif" font-size="10.00">tvm/ffi/container/variant.h</text>
</a>
</g>
</g>
<!-- Node56&#45;&gt;Node57 -->
<g id="edge151" class="edge">
<title>Node56&#45;&gt;Node57</title>
<path fill="none" stroke="midnightblue" d="M1582.69,-593.08C1581.63,-585.93 1580.1,-575.64 1578.78,-566.69"/>
<polygon fill="midnightblue" stroke="midnightblue" points="1582.23,-566.13 1577.3,-556.75 1575.31,-567.16 1582.23,-566.13"/>
</g>
<!-- Node56&#45;&gt;Node58 -->
<g id="edge153" class="edge">
<title>Node56&#45;&gt;Node58</title>
<path fill="none" stroke="midnightblue" d="M1605.45,-593.42C1673.89,-566.05 1887.37,-480.65 1967.87,-448.45"/>
<polygon fill="midnightblue" stroke="midnightblue" points="1969.46,-451.59 1977.45,-444.62 1966.86,-445.09 1969.46,-451.59"/>
</g>
<!-- Node58&#45;&gt;Node4 -->
<g id="edge155" class="edge">
<title>Node58&#45;&gt;Node4</title>
<path fill="none" stroke="midnightblue" d="M1966.44,-425.46C1936.36,-417.24 1890.61,-403.88 1852.01,-389 1777.8,-360.4 1764.24,-341.54 1690.01,-313 1648.98,-297.23 1600.8,-283.03 1566.94,-273.74"/>
<polygon fill="midnightblue" stroke="midnightblue" points="1567.49,-270.26 1556.92,-271.01 1565.65,-277.01 1567.49,-270.26"/>
</g>
<!-- Node58&#45;&gt;Node16 -->
<g id="edge154" class="edge">
<title>Node58&#45;&gt;Node16</title>
<path fill="none" stroke="midnightblue" d="M2040.53,-428.68C2105.78,-420.31 2236.32,-403.52 2347.01,-389 2534.16,-364.45 3012.52,-343.96 3189.01,-277 3189.01,-277 3253.75,-233.39 3288.52,-209.97"/>
<polygon fill="midnightblue" stroke="midnightblue" points="3290.72,-212.71 3297.06,-204.22 3286.81,-206.91 3290.72,-212.71"/>
</g>
<!-- Node58&#45;&gt;Node23 -->
<g id="edge158" class="edge">
<title>Node58&#45;&gt;Node23</title>
<path fill="none" stroke="midnightblue" d="M1979.82,-425.46C1935.28,-405.64 1821.37,-355.01 1726.01,-313 1658.07,-283.07 1643.74,-268.53 1573.01,-246 1497.76,-222.03 1475.7,-228.81 1399.01,-210 1350.09,-198 1338.65,-192.08 1290.01,-179 1227.13,-162.09 1207.79,-168.78 1148.01,-143 1113.52,-128.13 1077.52,-103.26 1056.2,-87.38"/>
<polygon fill="midnightblue" stroke="midnightblue" points="1058.09,-84.42 1048,-81.18 1053.86,-90.01 1058.09,-84.42"/>
</g>
<!-- Node58&#45;&gt;Node26 -->
<g id="edge156" class="edge">
<title>Node58&#45;&gt;Node26</title>
<path fill="none" stroke="midnightblue" d="M1992.62,-425.3C1980.52,-408.39 1954.18,-369.54 1940.01,-333 1925.9,-296.61 1922.63,-284.66 1928.01,-246 1932.27,-215.34 1928.58,-203.87 1947.01,-179 1957.14,-165.33 1972.78,-154.71 1986.7,-147.23"/>
<polygon fill="midnightblue" stroke="midnightblue" points="1988.62,-150.18 1995.98,-142.55 1985.47,-143.93 1988.62,-150.18"/>
</g>
<!-- Node58&#45;&gt;Node31 -->
<g id="edge157" class="edge">
<title>Node58&#45;&gt;Node31</title>
<path fill="none" stroke="midnightblue" d="M2040.52,-427.65C2151.69,-410.45 2454.27,-362.29 2551.01,-333 2664.57,-298.62 2792.01,-235.86 2844.91,-208.66"/>
<polygon fill="midnightblue" stroke="midnightblue" points="2846.62,-211.71 2853.9,-204.01 2843.41,-205.5 2846.62,-211.71"/>
</g>
</g>
</svg>
