<?xml version="1.0" encoding="UTF-8" standalone="no"?>
<!DOCTYPE svg PUBLIC "-//W3C//DTD SVG 1.1//EN"
 "http://www.w3.org/Graphics/SVG/1.1/DTD/svg11.dtd">
<!-- Generated by graphviz version 2.43.0 (0)
 -->
<!-- Title: include/tvm/arith/iter_affine_map.h Pages: 1 -->
<svg width="3981pt" height="901pt"
 viewBox="0.00 0.00 3980.79 901.00" xmlns="http://www.w3.org/2000/svg" xmlns:xlink="http://www.w3.org/1999/xlink">
<g id="graph0" class="graph" transform="scale(1 1) rotate(0) translate(4 897)">
<title>include/tvm/arith/iter_affine_map.h</title>
<polygon fill="white" stroke="transparent" points="-4,4 -4,-897 3976.79,-897 3976.79,4 -4,4"/>
<!-- Node1 -->
<g id="node1" class="node">
<title>Node1</title>
<g id="a_node1"><a xlink:title="Iterator quasi&#45;affine mapping patterns.">
<polygon fill="#bfbfbf" stroke="black" points="3345.64,-862.5 3345.64,-892.5 3464.64,-892.5 3464.64,-862.5 3345.64,-862.5"/>
<text text-anchor="start" x="3353.64" y="-880.5" font-family="Helvetica,sans-Serif" font-size="10.00">include/tvm/arith/iter</text>
<text text-anchor="middle" x="3405.14" y="-869.5" font-family="Helvetica,sans-Serif" font-size="10.00">_affine_map.h</text>
</a>
</g>
</g>
<!-- Node2 -->
<g id="node2" class="node">
<title>Node2</title>
<g id="a_node2"><a xlink:href="analyzer_8h.html" target="_top" xlink:title="Algebra expression simplifications.">
<polygon fill="white" stroke="black" points="712.64,-806.5 712.64,-825.5 827.64,-825.5 827.64,-806.5 712.64,-806.5"/>
<text text-anchor="middle" x="770.14" y="-813.5" font-family="Helvetica,sans-Serif" font-size="10.00">tvm/arith/analyzer.h</text>
</a>
</g>
</g>
<!-- Node1&#45;&gt;Node2 -->
<g id="edge1" class="edge">
<title>Node1&#45;&gt;Node2</title>
<path fill="none" stroke="midnightblue" d="M3345.47,-875.15C2995.22,-867.24 1209.25,-826.92 837.85,-818.53"/>
<polygon fill="midnightblue" stroke="midnightblue" points="837.87,-815.03 827.79,-818.3 837.71,-822.03 837.87,-815.03"/>
</g>
<!-- Node4 -->
<g id="node4" class="node">
<title>Node4</title>
<g id="a_node4"><a xlink:href="ir_2expr_8h.html" target="_top" xlink:title="Base expr nodes in TVM.">
<polygon fill="white" stroke="black" points="2741.64,-185 2741.64,-204 2820.64,-204 2820.64,-185 2741.64,-185"/>
<text text-anchor="middle" x="2781.14" y="-192" font-family="Helvetica,sans-Serif" font-size="10.00">tvm/ir/expr.h</text>
</a>
</g>
</g>
<!-- Node1&#45;&gt;Node4 -->
<g id="edge176" class="edge">
<title>Node1&#45;&gt;Node4</title>
<path fill="none" stroke="midnightblue" d="M3398.96,-862.31C3381.73,-823.71 3330.28,-714.6 3267.14,-638 3107.06,-443.77 3016.34,-445.73 2840.14,-266 2823.12,-248.63 2805.46,-226.96 2793.95,-212.27"/>
<polygon fill="midnightblue" stroke="midnightblue" points="2796.53,-209.88 2787.64,-204.12 2790.99,-214.17 2796.53,-209.88"/>
</g>
<!-- Node6 -->
<g id="node6" class="node">
<title>Node6</title>
<g id="a_node6"><a xlink:title=" ">
<polygon fill="white" stroke="#bfbfbf" points="3365.14,-56.5 3365.14,-86.5 3463.14,-86.5 3463.14,-56.5 3365.14,-56.5"/>
<text text-anchor="start" x="3373.14" y="-74.5" font-family="Helvetica,sans-Serif" font-size="10.00">tvm/ffi/reflection</text>
<text text-anchor="middle" x="3414.14" y="-63.5" font-family="Helvetica,sans-Serif" font-size="10.00">/registry.h</text>
</a>
</g>
</g>
<!-- Node1&#45;&gt;Node6 -->
<g id="edge174" class="edge">
<title>Node1&#45;&gt;Node6</title>
<path fill="none" stroke="midnightblue" d="M3464.88,-876.02C3603.86,-873.29 3937.14,-856.75 3937.14,-761 3937.14,-761 3937.14,-761 3937.14,-193.5 3937.14,-128.55 3870.89,-143.14 3809.14,-123 3748.1,-103.09 3567.72,-85.49 3473.29,-77.33"/>
<polygon fill="midnightblue" stroke="midnightblue" points="3473.58,-73.84 3463.32,-76.47 3472.98,-80.81 3473.58,-73.84"/>
</g>
<!-- Node8 -->
<g id="node8" class="node">
<title>Node8</title>
<g id="a_node8"><a xlink:href="cow_8h.html" target="_top" xlink:title="Copy&#45;on&#45;write helper macro for IR ffi::ObjectRef types.">
<polygon fill="white" stroke="black" points="3337.64,-123.5 3337.64,-142.5 3414.64,-142.5 3414.64,-123.5 3337.64,-123.5"/>
<text text-anchor="middle" x="3376.14" y="-130.5" font-family="Helvetica,sans-Serif" font-size="10.00">tvm/ir/cow.h</text>
</a>
</g>
</g>
<!-- Node1&#45;&gt;Node8 -->
<g id="edge175" class="edge">
<title>Node1&#45;&gt;Node8</title>
<path fill="none" stroke="midnightblue" d="M3464.84,-866.35C3553.37,-849.58 3709.14,-812.73 3709.14,-761 3709.14,-761 3709.14,-761 3709.14,-591 3709.14,-379.18 3472.58,-199.77 3398.23,-148.62"/>
<polygon fill="midnightblue" stroke="midnightblue" points="3399.85,-145.49 3389.61,-142.76 3395.92,-151.28 3399.85,-145.49"/>
</g>
<!-- Node57 -->
<g id="node57" class="node">
<title>Node57</title>
<g id="a_node57"><a xlink:href="var_8h.html" target="_top" xlink:title="Variables in the TIR.">
<polygon fill="white" stroke="black" points="3103.64,-358.5 3103.64,-377.5 3186.64,-377.5 3186.64,-358.5 3103.64,-358.5"/>
<text text-anchor="middle" x="3145.14" y="-365.5" font-family="Helvetica,sans-Serif" font-size="10.00">tvm/tirx/var.h</text>
</a>
</g>
</g>
<!-- Node1&#45;&gt;Node57 -->
<g id="edge177" class="edge">
<title>Node1&#45;&gt;Node57</title>
<path fill="none" stroke="midnightblue" d="M3405.14,-862.28C3405.14,-840.48 3405.14,-797.49 3405.14,-761 3405.14,-761 3405.14,-761 3405.14,-535 3405.14,-481.28 3245.44,-409.8 3176.37,-381.4"/>
<polygon fill="midnightblue" stroke="midnightblue" points="3177.44,-378.06 3166.86,-377.53 3174.8,-384.54 3177.44,-378.06"/>
</g>
<!-- Node3 -->
<g id="node3" class="node">
<title>Node3</title>
<g id="a_node3"><a xlink:href="int__set_8h.html" target="_top" xlink:title="Integer set.">
<polygon fill="white" stroke="black" points="1314.64,-750.5 1314.64,-769.5 1421.64,-769.5 1421.64,-750.5 1314.64,-750.5"/>
<text text-anchor="middle" x="1368.14" y="-757.5" font-family="Helvetica,sans-Serif" font-size="10.00">tvm/arith/int_set.h</text>
</a>
</g>
</g>
<!-- Node2&#45;&gt;Node3 -->
<g id="edge2" class="edge">
<title>Node2&#45;&gt;Node3</title>
<path fill="none" stroke="midnightblue" d="M827.75,-809.8C939.99,-799.66 1187.19,-777.34 1304.26,-766.77"/>
<polygon fill="midnightblue" stroke="midnightblue" points="1304.85,-770.23 1314.5,-765.84 1304.22,-763.26 1304.85,-770.23"/>
</g>
<!-- Node2&#45;&gt;Node4 -->
<g id="edge167" class="edge">
<title>Node2&#45;&gt;Node4</title>
<path fill="none" stroke="midnightblue" d="M827.89,-814.94C1157,-814.21 2781.14,-805.55 2781.14,-705 2781.14,-705 2781.14,-705 2781.14,-311 2781.14,-276.86 2781.14,-237.05 2781.14,-214.21"/>
<polygon fill="midnightblue" stroke="midnightblue" points="2784.64,-214.19 2781.14,-204.19 2777.64,-214.19 2784.64,-214.19"/>
</g>
<!-- Node2&#45;&gt;Node6 -->
<g id="edge165" class="edge">
<title>Node2&#45;&gt;Node6</title>
<path fill="none" stroke="midnightblue" d="M827.79,-814.74C1139.16,-813.21 2622.77,-804.2 3080.14,-770 3271.89,-755.66 3325.26,-770.22 3509.14,-714 3735.92,-644.66 3861.14,-550.15 3861.14,-313 3861.14,-313 3861.14,-313 3861.14,-193.5 3861.14,-114.11 3595.11,-85.2 3473.51,-76.13"/>
<polygon fill="midnightblue" stroke="midnightblue" points="3473.48,-72.62 3463.26,-75.39 3472.98,-79.6 3473.48,-72.62"/>
</g>
<!-- Node7 -->
<g id="node7" class="node">
<title>Node7</title>
<g id="a_node7"><a xlink:title=" ">
<polygon fill="white" stroke="#bfbfbf" points="3191.64,-123.5 3191.64,-142.5 3280.64,-142.5 3280.64,-123.5 3191.64,-123.5"/>
<text text-anchor="middle" x="3236.14" y="-130.5" font-family="Helvetica,sans-Serif" font-size="10.00">tvm/ffi/string.h</text>
</a>
</g>
</g>
<!-- Node2&#45;&gt;Node7 -->
<g id="edge166" class="edge">
<title>Node2&#45;&gt;Node7</title>
<path fill="none" stroke="midnightblue" d="M827.82,-814.87C1125.86,-814.01 2493.73,-808.04 2916.14,-770 3079.6,-755.28 3633.14,-757.12 3633.14,-593 3633.14,-593 3633.14,-593 3633.14,-367 3633.14,-210.22 3400.02,-156.9 3291.06,-140.54"/>
<polygon fill="midnightblue" stroke="midnightblue" points="3291.31,-137.04 3280.91,-139.07 3290.31,-143.97 3291.31,-137.04"/>
</g>
<!-- Node10 -->
<g id="node10" class="node">
<title>Node10</title>
<g id="a_node10"><a xlink:title=" ">
<polygon fill="white" stroke="#bfbfbf" points="866.64,-62 866.64,-81 911.64,-81 911.64,-62 866.64,-62"/>
<text text-anchor="middle" x="889.14" y="-69" font-family="Helvetica,sans-Serif" font-size="10.00">utility</text>
</a>
</g>
</g>
<!-- Node2&#45;&gt;Node10 -->
<g id="edge172" class="edge">
<title>Node2&#45;&gt;Node10</title>
<path fill="none" stroke="midnightblue" d="M712.61,-813.15C577.61,-808.43 248.57,-794.53 205.14,-770 94.21,-707.34 38.14,-664.41 38.14,-537 38.14,-537 38.14,-537 38.14,-193.5 38.14,-158.9 42.4,-142.25 71.14,-123 141.47,-75.89 748.42,-99.5 832.14,-87 840.24,-85.79 848.85,-83.92 856.87,-81.92"/>
<polygon fill="midnightblue" stroke="midnightblue" points="857.83,-85.28 866.61,-79.35 856.05,-78.51 857.83,-85.28"/>
</g>
<!-- Node18 -->
<g id="node18" class="node">
<title>Node18</title>
<g id="a_node18"><a xlink:title=" ">
<polygon fill="white" stroke="#bfbfbf" points="776.64,-62 776.64,-81 823.64,-81 823.64,-62 776.64,-62"/>
<text text-anchor="middle" x="800.14" y="-69" font-family="Helvetica,sans-Serif" font-size="10.00">vector</text>
</a>
</g>
</g>
<!-- Node2&#45;&gt;Node18 -->
<g id="edge173" class="edge">
<title>Node2&#45;&gt;Node18</title>
<path fill="none" stroke="midnightblue" d="M712.41,-813.3C556.77,-808.41 136.28,-793.21 78.14,-770 36.23,-753.27 0.14,-750.13 0.14,-705 0.14,-705 0.14,-705 0.14,-193.5 0.14,-160.4 -2.13,-143.13 24.14,-123 83.67,-77.38 624.53,-72.91 766.27,-72.52"/>
<polygon fill="midnightblue" stroke="midnightblue" points="766.52,-76.02 776.52,-72.5 766.51,-69.02 766.52,-76.02"/>
</g>
<!-- Node27 -->
<g id="node27" class="node">
<title>Node27</title>
<g id="a_node27"><a xlink:title=" ">
<polygon fill="white" stroke="#bfbfbf" points="80.14,-123.5 80.14,-142.5 124.14,-142.5 124.14,-123.5 80.14,-123.5"/>
<text text-anchor="middle" x="102.14" y="-130.5" font-family="Helvetica,sans-Serif" font-size="10.00">limits</text>
</a>
</g>
</g>
<!-- Node2&#45;&gt;Node27 -->
<g id="edge169" class="edge">
<title>Node2&#45;&gt;Node27</title>
<path fill="none" stroke="midnightblue" d="M712.6,-814.67C559.17,-813.3 148.6,-806.24 100.14,-770 75.48,-751.56 76.14,-735.8 76.14,-705 76.14,-705 76.14,-705 76.14,-255 76.14,-217.9 87.97,-175.81 95.67,-152.33"/>
<polygon fill="midnightblue" stroke="midnightblue" points="99.05,-153.26 98.95,-142.67 92.42,-151.01 99.05,-153.26"/>
</g>
<!-- Node33 -->
<g id="node33" class="node">
<title>Node33</title>
<g id="a_node33"><a xlink:title=" ">
<polygon fill="white" stroke="#bfbfbf" points="296.64,-123.5 296.64,-142.5 389.64,-142.5 389.64,-123.5 296.64,-123.5"/>
<text text-anchor="middle" x="343.14" y="-130.5" font-family="Helvetica,sans-Serif" font-size="10.00">unordered_map</text>
</a>
</g>
</g>
<!-- Node2&#45;&gt;Node33 -->
<g id="edge171" class="edge">
<title>Node2&#45;&gt;Node33</title>
<path fill="none" stroke="midnightblue" d="M712.55,-812.49C635.03,-808.19 493.2,-797.1 375.14,-770 290.2,-750.5 190.14,-792.15 190.14,-705 190.14,-705 190.14,-705 190.14,-311 190.14,-233.61 274.88,-173.38 318.23,-147.63"/>
<polygon fill="midnightblue" stroke="midnightblue" points="320.15,-150.56 327.06,-142.52 316.65,-144.5 320.15,-150.56"/>
</g>
<!-- Node43 -->
<g id="node43" class="node">
<title>Node43</title>
<g id="a_node43"><a xlink:href="with__context_8h.html" target="_top" xlink:title="RAII wrapper function to enter and exit a context object similar to python&#39;s with syntax.">
<polygon fill="white" stroke="black" points="446.64,-246.5 446.64,-265.5 567.64,-265.5 567.64,-246.5 446.64,-246.5"/>
<text text-anchor="middle" x="507.14" y="-253.5" font-family="Helvetica,sans-Serif" font-size="10.00">tvm/ir/with_context.h</text>
</a>
</g>
</g>
<!-- Node2&#45;&gt;Node43 -->
<g id="edge168" class="edge">
<title>Node2&#45;&gt;Node43</title>
<path fill="none" stroke="midnightblue" d="M712.42,-812.21C595.59,-804.97 342.14,-780.57 342.14,-705 342.14,-705 342.14,-705 342.14,-591 342.14,-455.83 452.11,-318.76 492.49,-272.98"/>
<polygon fill="midnightblue" stroke="midnightblue" points="495.12,-275.29 499.18,-265.51 489.9,-270.62 495.12,-275.29"/>
</g>
<!-- Node45 -->
<g id="node45" class="node">
<title>Node45</title>
<g id="a_node45"><a xlink:title=" ">
<polygon fill="white" stroke="#bfbfbf" points="568.14,-185 568.14,-204 626.14,-204 626.14,-185 568.14,-185"/>
<text text-anchor="middle" x="597.14" y="-192" font-family="Helvetica,sans-Serif" font-size="10.00">memory</text>
</a>
</g>
</g>
<!-- Node2&#45;&gt;Node45 -->
<g id="edge170" class="edge">
<title>Node2&#45;&gt;Node45</title>
<path fill="none" stroke="midnightblue" d="M723.51,-806.45C671.97,-793.99 596.14,-765.4 596.14,-705 596.14,-705 596.14,-705 596.14,-311 596.14,-276.86 596.58,-237.05 596.88,-214.21"/>
<polygon fill="midnightblue" stroke="midnightblue" points="600.38,-214.24 597.02,-204.19 593.38,-214.15 600.38,-214.24"/>
</g>
<!-- Node53 -->
<g id="node53" class="node">
<title>Node53</title>
<g id="a_node53"><a xlink:title=" ">
<polygon fill="white" stroke="#bfbfbf" points="2991.64,-185 2991.64,-204 3072.64,-204 3072.64,-185 2991.64,-185"/>
<text text-anchor="middle" x="3032.14" y="-192" font-family="Helvetica,sans-Serif" font-size="10.00">tvm/ffi/cast.h</text>
</a>
</g>
</g>
<!-- Node2&#45;&gt;Node53 -->
<g id="edge164" class="edge">
<title>Node2&#45;&gt;Node53</title>
<path fill="none" stroke="midnightblue" d="M827.68,-815.07C1052.3,-815.02 1891.68,-811.86 2581.14,-770 2730.9,-760.91 3253.14,-855.03 3253.14,-705 3253.14,-705 3253.14,-705 3253.14,-423 3253.14,-313.98 3120.97,-237.52 3061.05,-208.46"/>
<polygon fill="midnightblue" stroke="midnightblue" points="3062.29,-205.17 3051.75,-204.05 3059.29,-211.5 3062.29,-205.17"/>
</g>
<!-- Node3&#45;&gt;Node4 -->
<g id="edge3" class="edge">
<title>Node3&#45;&gt;Node4</title>
<path fill="none" stroke="midnightblue" d="M1422.04,-757.56C1676.26,-750.44 2743.14,-716.5 2743.14,-649 2743.14,-649 2743.14,-649 2743.14,-479 2743.14,-374.9 2747.84,-348.3 2767.14,-246 2769.18,-235.22 2772.4,-223.39 2775.24,-213.89"/>
<polygon fill="midnightblue" stroke="midnightblue" points="2778.59,-214.92 2778.21,-204.33 2771.9,-212.85 2778.59,-214.92"/>
</g>
<!-- Node28 -->
<g id="node28" class="node">
<title>Node28</title>
<g id="a_node28"><a xlink:href="tirx_2expr_8h.html" target="_top" xlink:title="TIR expressions.">
<polygon fill="white" stroke="black" points="1518.64,-694.5 1518.64,-713.5 1607.64,-713.5 1607.64,-694.5 1518.64,-694.5"/>
<text text-anchor="middle" x="1563.14" y="-701.5" font-family="Helvetica,sans-Serif" font-size="10.00">tvm/tirx/expr.h</text>
</a>
</g>
</g>
<!-- Node3&#45;&gt;Node28 -->
<g id="edge33" class="edge">
<title>Node3&#45;&gt;Node28</title>
<path fill="none" stroke="midnightblue" d="M1399.04,-750.44C1432.42,-741.2 1485.74,-726.44 1522.49,-716.26"/>
<polygon fill="midnightblue" stroke="midnightblue" points="1523.69,-719.56 1532.39,-713.52 1521.82,-712.81 1523.69,-719.56"/>
</g>
<!-- Node3&#45;&gt;Node33 -->
<g id="edge163" class="edge">
<title>Node3&#45;&gt;Node33</title>
<path fill="none" stroke="midnightblue" d="M1314.57,-758.17C1132.78,-754.64 541.29,-737.19 371.14,-658 333.53,-640.49 304.14,-634.49 304.14,-593 304.14,-593 304.14,-593 304.14,-255 304.14,-216.55 322.2,-174.39 333.74,-151.38"/>
<polygon fill="midnightblue" stroke="midnightblue" points="336.86,-152.99 338.36,-142.5 330.64,-149.76 336.86,-152.99"/>
</g>
<!-- Node5 -->
<g id="node5" class="node">
<title>Node5</title>
<g id="a_node5"><a xlink:title=" ">
<polygon fill="white" stroke="#bfbfbf" points="2877.14,-123.5 2877.14,-142.5 3013.14,-142.5 3013.14,-123.5 2877.14,-123.5"/>
<text text-anchor="middle" x="2945.14" y="-130.5" font-family="Helvetica,sans-Serif" font-size="10.00">tvm/ffi/extra/dataclass.h</text>
</a>
</g>
</g>
<!-- Node4&#45;&gt;Node5 -->
<g id="edge4" class="edge">
<title>Node4&#45;&gt;Node5</title>
<path fill="none" stroke="midnightblue" d="M2804.64,-184.98C2832.77,-174.77 2880.07,-157.61 2911.93,-146.05"/>
<polygon fill="midnightblue" stroke="midnightblue" points="2913.48,-149.21 2921.69,-142.51 2911.09,-142.63 2913.48,-149.21"/>
</g>
<!-- Node4&#45;&gt;Node6 -->
<g id="edge5" class="edge">
<title>Node4&#45;&gt;Node6</title>
<path fill="none" stroke="midnightblue" d="M2810.12,-184.97C2818.18,-182.81 2826.96,-180.64 2835.14,-179 2954.29,-155.19 2986.9,-166.32 3106.14,-143 3140.84,-136.21 3148.75,-131.22 3183.14,-123 3241.35,-109.08 3308.19,-94.64 3354.94,-84.78"/>
<polygon fill="midnightblue" stroke="midnightblue" points="3355.83,-88.17 3364.9,-82.69 3354.39,-81.32 3355.83,-88.17"/>
</g>
<!-- Node4&#45;&gt;Node7 -->
<g id="edge6" class="edge">
<title>Node4&#45;&gt;Node7</title>
<path fill="none" stroke="midnightblue" d="M2809.82,-184.94C2817.95,-182.75 2826.84,-180.57 2835.14,-179 2900.16,-166.69 3087.6,-148.04 3181.36,-139.12"/>
<polygon fill="midnightblue" stroke="midnightblue" points="3181.88,-142.58 3191.5,-138.15 3181.22,-135.61 3181.88,-142.58"/>
</g>
<!-- Node4&#45;&gt;Node8 -->
<g id="edge7" class="edge">
<title>Node4&#45;&gt;Node8</title>
<path fill="none" stroke="midnightblue" d="M2820.75,-189.64C2906.39,-181.29 3115.22,-160.83 3290.14,-143 3302.28,-141.76 3315.37,-140.4 3327.59,-139.13"/>
<polygon fill="midnightblue" stroke="midnightblue" points="3328.04,-142.6 3337.62,-138.08 3327.31,-135.64 3328.04,-142.6"/>
</g>
<!-- Node11 -->
<g id="node11" class="node">
<title>Node11</title>
<g id="a_node11"><a xlink:href="source__map_8h.html" target="_top" xlink:title="A map from source names to source code.">
<polygon fill="white" stroke="black" points="2146.64,-123.5 2146.64,-142.5 2263.64,-142.5 2263.64,-123.5 2146.64,-123.5"/>
<text text-anchor="middle" x="2205.14" y="-130.5" font-family="Helvetica,sans-Serif" font-size="10.00">tvm/ir/source_map.h</text>
</a>
</g>
</g>
<!-- Node4&#45;&gt;Node11 -->
<g id="edge10" class="edge">
<title>Node4&#45;&gt;Node11</title>
<path fill="none" stroke="midnightblue" d="M2741.55,-189.41C2644.86,-179.42 2395.73,-153.69 2274.06,-141.12"/>
<polygon fill="midnightblue" stroke="midnightblue" points="2274.06,-137.6 2263.76,-140.05 2273.34,-144.56 2274.06,-137.6"/>
</g>
<!-- Node17 -->
<g id="node17" class="node">
<title>Node17</title>
<g id="a_node17"><a xlink:title=" ">
<polygon fill="white" stroke="#bfbfbf" points="2548.14,-62 2548.14,-81 2592.14,-81 2592.14,-62 2548.14,-62"/>
<text text-anchor="middle" x="2570.14" y="-69" font-family="Helvetica,sans-Serif" font-size="10.00">string</text>
</a>
</g>
</g>
<!-- Node4&#45;&gt;Node17 -->
<g id="edge31" class="edge">
<title>Node4&#45;&gt;Node17</title>
<path fill="none" stroke="midnightblue" d="M2779.63,-184.71C2776.58,-169.77 2768.31,-139.47 2749.14,-123 2707.28,-87.03 2641.52,-76.58 2602.44,-73.61"/>
<polygon fill="midnightblue" stroke="midnightblue" points="2602.37,-70.1 2592.16,-72.95 2601.92,-77.08 2602.37,-70.1"/>
</g>
<!-- Node19 -->
<g id="node19" class="node">
<title>Node19</title>
<g id="a_node19"><a xlink:href="data__type_8h.html" target="_top" xlink:title=" ">
<polygon fill="white" stroke="black" points="1914.14,-123.5 1914.14,-142.5 2052.14,-142.5 2052.14,-123.5 1914.14,-123.5"/>
<text text-anchor="middle" x="1983.14" y="-130.5" font-family="Helvetica,sans-Serif" font-size="10.00">tvm/runtime/data_type.h</text>
</a>
</g>
</g>
<!-- Node4&#45;&gt;Node19 -->
<g id="edge20" class="edge">
<title>Node4&#45;&gt;Node19</title>
<path fill="none" stroke="midnightblue" d="M2741.57,-190.55C2616.83,-181.25 2230.18,-152.42 2062.29,-139.9"/>
<polygon fill="midnightblue" stroke="midnightblue" points="2062.51,-136.41 2052.28,-139.16 2061.99,-143.39 2062.51,-136.41"/>
</g>
<!-- Node24 -->
<g id="node24" class="node">
<title>Node24</title>
<g id="a_node24"><a xlink:title=" ">
<polygon fill="white" stroke="#bfbfbf" points="1528.64,-62 1528.64,-81 1597.64,-81 1597.64,-62 1528.64,-62"/>
<text text-anchor="middle" x="1563.14" y="-69" font-family="Helvetica,sans-Serif" font-size="10.00">type_traits</text>
</a>
</g>
</g>
<!-- Node4&#45;&gt;Node24 -->
<g id="edge32" class="edge">
<title>Node4&#45;&gt;Node24</title>
<path fill="none" stroke="midnightblue" d="M2741.23,-191.04C2693.6,-188.12 2611.57,-183.12 2541.14,-179 2399.82,-170.73 2041.55,-180.83 1905.14,-143 1886.75,-137.9 1885.31,-128.84 1867.14,-123 1755.65,-87.19 1720.13,-113.83 1606.14,-87 1602.74,-86.2 1599.23,-85.24 1595.74,-84.2"/>
<polygon fill="midnightblue" stroke="midnightblue" points="1596.71,-80.84 1586.12,-81.14 1594.58,-87.51 1596.71,-80.84"/>
</g>
<!-- Node25 -->
<g id="node25" class="node">
<title>Node25</title>
<g id="a_node25"><a xlink:title=" ">
<polygon fill="white" stroke="#bfbfbf" points="1794.14,-123.5 1794.14,-142.5 1858.14,-142.5 1858.14,-123.5 1794.14,-123.5"/>
<text text-anchor="middle" x="1826.14" y="-130.5" font-family="Helvetica,sans-Serif" font-size="10.00">algorithm</text>
</a>
</g>
</g>
<!-- Node4&#45;&gt;Node25 -->
<g id="edge28" class="edge">
<title>Node4&#45;&gt;Node25</title>
<path fill="none" stroke="midnightblue" d="M2741.23,-191.01C2693.61,-188.05 2611.57,-183.02 2541.14,-179 2243.86,-162.02 2167.64,-179.68 1872.14,-143 1870.87,-142.84 1869.58,-142.67 1868.28,-142.48"/>
<polygon fill="midnightblue" stroke="midnightblue" points="1868.65,-139 1858.22,-140.87 1867.54,-145.91 1868.65,-139"/>
</g>
<!-- Node26 -->
<g id="node26" class="node">
<title>Node26</title>
<g id="a_node26"><a xlink:title=" ">
<polygon fill="white" stroke="#bfbfbf" points="3031.64,-123.5 3031.64,-142.5 3096.64,-142.5 3096.64,-123.5 3031.64,-123.5"/>
<text text-anchor="middle" x="3064.14" y="-130.5" font-family="Helvetica,sans-Serif" font-size="10.00">functional</text>
</a>
</g>
</g>
<!-- Node4&#45;&gt;Node26 -->
<g id="edge29" class="edge">
<title>Node4&#45;&gt;Node26</title>
<path fill="none" stroke="midnightblue" d="M2811.32,-184.98C2819.06,-182.92 2827.39,-180.79 2835.14,-179 2914.56,-160.72 2937.52,-159.9 3021.6,-143.06"/>
<polygon fill="midnightblue" stroke="midnightblue" points="3022.49,-146.46 3031.6,-141.04 3021.1,-139.59 3022.49,-146.46"/>
</g>
<!-- Node4&#45;&gt;Node27 -->
<g id="edge30" class="edge">
<title>Node4&#45;&gt;Node27</title>
<path fill="none" stroke="midnightblue" d="M2741.25,-190.55C2693.65,-187.15 2611.64,-181.69 2541.14,-179 1539.97,-140.78 1288.53,-175.35 287.14,-143 233.61,-141.27 171.43,-137.98 134.51,-135.89"/>
<polygon fill="midnightblue" stroke="midnightblue" points="134.53,-132.39 124.34,-135.31 134.13,-139.38 134.53,-132.39"/>
</g>
<!-- Node9 -->
<g id="node9" class="node">
<title>Node9</title>
<g id="a_node9"><a xlink:title=" ">
<polygon fill="white" stroke="#bfbfbf" points="3616.64,-62 3616.64,-81 3707.64,-81 3707.64,-62 3616.64,-62"/>
<text text-anchor="middle" x="3662.14" y="-69" font-family="Helvetica,sans-Serif" font-size="10.00">tvm/ffi/object.h</text>
</a>
</g>
</g>
<!-- Node8&#45;&gt;Node9 -->
<g id="edge8" class="edge">
<title>Node8&#45;&gt;Node9</title>
<path fill="none" stroke="midnightblue" d="M3414.71,-123.98C3465.38,-113.43 3554.51,-94.89 3610.83,-83.17"/>
<polygon fill="midnightblue" stroke="midnightblue" points="3611.87,-86.53 3620.95,-81.07 3610.45,-79.68 3611.87,-86.53"/>
</g>
<!-- Node8&#45;&gt;Node10 -->
<g id="edge9" class="edge">
<title>Node8&#45;&gt;Node10</title>
<path fill="none" stroke="midnightblue" d="M3337.24,-127.21C3322.51,-125.58 3305.58,-123.94 3290.14,-123 2374.37,-67.2 2143.2,-114.72 1226.14,-87 1114.6,-83.63 982.39,-77.24 922.08,-74.2"/>
<polygon fill="midnightblue" stroke="midnightblue" points="922.18,-70.7 912.02,-73.69 921.83,-77.69 922.18,-70.7"/>
</g>
<!-- Node11&#45;&gt;Node6 -->
<g id="edge13" class="edge">
<title>Node11&#45;&gt;Node6</title>
<path fill="none" stroke="midnightblue" d="M2263.86,-129.11C2468.59,-119.03 3149.56,-85.52 3354.98,-75.41"/>
<polygon fill="midnightblue" stroke="midnightblue" points="3355.15,-78.91 3364.97,-74.92 3354.81,-71.92 3355.15,-78.91"/>
</g>
<!-- Node11&#45;&gt;Node10 -->
<g id="edge18" class="edge">
<title>Node11&#45;&gt;Node10</title>
<path fill="none" stroke="midnightblue" d="M2146.31,-128.06C2120.22,-126.39 2089.16,-124.48 2061.14,-123 2053.82,-122.61 1111.34,-82.06 922.03,-73.92"/>
<polygon fill="midnightblue" stroke="midnightblue" points="922.01,-70.41 911.87,-73.48 921.71,-77.4 922.01,-70.41"/>
</g>
<!-- Node12 -->
<g id="node12" class="node">
<title>Node12</title>
<g id="a_node12"><a xlink:title=" ">
<polygon fill="white" stroke="#bfbfbf" points="3756.14,-62 3756.14,-81 3890.14,-81 3890.14,-62 3756.14,-62"/>
<text text-anchor="middle" x="3823.14" y="-69" font-family="Helvetica,sans-Serif" font-size="10.00">tvm/ffi/container/array.h</text>
</a>
</g>
</g>
<!-- Node11&#45;&gt;Node12 -->
<g id="edge11" class="edge">
<title>Node11&#45;&gt;Node12</title>
<path fill="none" stroke="midnightblue" d="M2263.8,-129.85C2316.09,-127.96 2394.72,-125.18 2463.14,-123 3020.42,-105.28 3161.47,-132.85 3717.14,-87 3730.77,-85.88 3745.33,-84.2 3759.15,-82.38"/>
<polygon fill="midnightblue" stroke="midnightblue" points="3759.63,-85.85 3769.07,-81.04 3758.69,-78.91 3759.63,-85.85"/>
</g>
<!-- Node13 -->
<g id="node13" class="node">
<title>Node13</title>
<g id="a_node13"><a xlink:title=" ">
<polygon fill="white" stroke="#bfbfbf" points="1235.64,-62 1235.64,-81 1336.64,-81 1336.64,-62 1235.64,-62"/>
<text text-anchor="middle" x="1286.14" y="-69" font-family="Helvetica,sans-Serif" font-size="10.00">tvm/ffi/function.h</text>
</a>
</g>
</g>
<!-- Node11&#45;&gt;Node13 -->
<g id="edge12" class="edge">
<title>Node11&#45;&gt;Node13</title>
<path fill="none" stroke="midnightblue" d="M2146.61,-128.21C1981.73,-117.54 1514.61,-87.29 1346.97,-76.44"/>
<polygon fill="midnightblue" stroke="midnightblue" points="1347.04,-72.94 1336.84,-75.78 1346.59,-79.92 1347.04,-72.94"/>
</g>
<!-- Node14 -->
<g id="node14" class="node">
<title>Node14</title>
<g id="a_node14"><a xlink:href="runtime_2base_8h.html" target="_top" xlink:title=" ">
<polygon fill="white" stroke="black" points="2049.64,-62 2049.64,-81 2162.64,-81 2162.64,-62 2049.64,-62"/>
<text text-anchor="middle" x="2106.14" y="-69" font-family="Helvetica,sans-Serif" font-size="10.00">tvm/runtime/base.h</text>
</a>
</g>
</g>
<!-- Node11&#45;&gt;Node14 -->
<g id="edge14" class="edge">
<title>Node11&#45;&gt;Node14</title>
<path fill="none" stroke="midnightblue" d="M2190.96,-123.48C2174.78,-113.75 2148.12,-97.73 2129,-86.24"/>
<polygon fill="midnightblue" stroke="midnightblue" points="2130.67,-83.16 2120.3,-81.01 2127.07,-89.16 2130.67,-83.16"/>
</g>
<!-- Node16 -->
<g id="node16" class="node">
<title>Node16</title>
<g id="a_node16"><a xlink:title=" ">
<polygon fill="white" stroke="#bfbfbf" points="2180.64,-62 2180.64,-81 2235.64,-81 2235.64,-62 2180.64,-62"/>
<text text-anchor="middle" x="2208.14" y="-69" font-family="Helvetica,sans-Serif" font-size="10.00">fstream</text>
</a>
</g>
</g>
<!-- Node11&#45;&gt;Node16 -->
<g id="edge16" class="edge">
<title>Node11&#45;&gt;Node16</title>
<path fill="none" stroke="midnightblue" d="M2205.57,-123.48C2206,-115.08 2206.66,-101.98 2207.2,-91.16"/>
<polygon fill="midnightblue" stroke="midnightblue" points="2210.7,-91.17 2207.71,-81.01 2203.71,-90.82 2210.7,-91.17"/>
</g>
<!-- Node11&#45;&gt;Node17 -->
<g id="edge17" class="edge">
<title>Node11&#45;&gt;Node17</title>
<path fill="none" stroke="midnightblue" d="M2257.44,-123.48C2334.02,-110.99 2474.44,-88.1 2537.72,-77.79"/>
<polygon fill="midnightblue" stroke="midnightblue" points="2538.59,-81.19 2547.9,-76.13 2537.46,-74.28 2538.59,-81.19"/>
</g>
<!-- Node11&#45;&gt;Node18 -->
<g id="edge19" class="edge">
<title>Node11&#45;&gt;Node18</title>
<path fill="none" stroke="midnightblue" d="M2146.31,-127.89C2120.23,-126.18 2089.17,-124.29 2061.14,-123 1793.75,-110.65 1122.22,-124.22 857.14,-87 849.41,-85.91 841.21,-84.18 833.51,-82.29"/>
<polygon fill="midnightblue" stroke="midnightblue" points="834.32,-78.88 823.76,-79.75 832.55,-85.66 834.32,-78.88"/>
</g>
<!-- Node15 -->
<g id="node15" class="node">
<title>Node15</title>
<g id="a_node15"><a xlink:title=" ">
<polygon fill="white" stroke="#bfbfbf" points="2063.14,-0.5 2063.14,-19.5 2149.14,-19.5 2149.14,-0.5 2063.14,-0.5"/>
<text text-anchor="middle" x="2106.14" y="-7.5" font-family="Helvetica,sans-Serif" font-size="10.00">tvm/ffi/c_api.h</text>
</a>
</g>
</g>
<!-- Node14&#45;&gt;Node15 -->
<g id="edge15" class="edge">
<title>Node14&#45;&gt;Node15</title>
<path fill="none" stroke="midnightblue" d="M2106.14,-61.98C2106.14,-53.58 2106.14,-40.48 2106.14,-29.66"/>
<polygon fill="midnightblue" stroke="midnightblue" points="2109.64,-29.51 2106.14,-19.51 2102.64,-29.51 2109.64,-29.51"/>
</g>
<!-- Node19&#45;&gt;Node14 -->
<g id="edge24" class="edge">
<title>Node19&#45;&gt;Node14</title>
<path fill="none" stroke="midnightblue" d="M2000.76,-123.48C2021.32,-113.53 2055.51,-96.99 2079.35,-85.46"/>
<polygon fill="midnightblue" stroke="midnightblue" points="2081.07,-88.51 2088.55,-81.01 2078.03,-82.21 2081.07,-88.51"/>
</g>
<!-- Node19&#45;&gt;Node17 -->
<g id="edge26" class="edge">
<title>Node19&#45;&gt;Node17</title>
<path fill="none" stroke="midnightblue" d="M2052.2,-125C2179.31,-112.12 2445.71,-85.11 2537.91,-75.77"/>
<polygon fill="midnightblue" stroke="midnightblue" points="2538.43,-79.23 2548.03,-74.74 2537.73,-72.27 2538.43,-79.23"/>
</g>
<!-- Node20 -->
<g id="node20" class="node">
<title>Node20</title>
<g id="a_node20"><a xlink:title=" ">
<polygon fill="white" stroke="#bfbfbf" points="1892.64,-62 1892.64,-81 2031.64,-81 2031.64,-62 1892.64,-62"/>
<text text-anchor="middle" x="1962.14" y="-69" font-family="Helvetica,sans-Serif" font-size="10.00">tvm/ffi/container/shape.h</text>
</a>
</g>
</g>
<!-- Node19&#45;&gt;Node20 -->
<g id="edge21" class="edge">
<title>Node19&#45;&gt;Node20</title>
<path fill="none" stroke="midnightblue" d="M1980.13,-123.48C1977.11,-114.9 1972.35,-101.43 1968.49,-90.48"/>
<polygon fill="midnightblue" stroke="midnightblue" points="1971.77,-89.27 1965.15,-81.01 1965.17,-91.6 1971.77,-89.27"/>
</g>
<!-- Node21 -->
<g id="node21" class="node">
<title>Node21</title>
<g id="a_node21"><a xlink:title=" ">
<polygon fill="white" stroke="#bfbfbf" points="1785.64,-62 1785.64,-81 1874.64,-81 1874.64,-62 1785.64,-62"/>
<text text-anchor="middle" x="1830.14" y="-69" font-family="Helvetica,sans-Serif" font-size="10.00">tvm/ffi/dtype.h</text>
</a>
</g>
</g>
<!-- Node19&#45;&gt;Node21 -->
<g id="edge22" class="edge">
<title>Node19&#45;&gt;Node21</title>
<path fill="none" stroke="midnightblue" d="M1961.22,-123.48C1935.09,-113.31 1891.23,-96.26 1861.51,-84.7"/>
<polygon fill="midnightblue" stroke="midnightblue" points="1862.61,-81.37 1852.02,-81.01 1860.07,-87.9 1862.61,-81.37"/>
</g>
<!-- Node22 -->
<g id="node22" class="node">
<title>Node22</title>
<g id="a_node22"><a xlink:title=" ">
<polygon fill="white" stroke="#bfbfbf" points="1615.64,-62 1615.64,-81 1698.64,-81 1698.64,-62 1615.64,-62"/>
<text text-anchor="middle" x="1657.14" y="-69" font-family="Helvetica,sans-Serif" font-size="10.00">tvm/ffi/error.h</text>
</a>
</g>
</g>
<!-- Node19&#45;&gt;Node22 -->
<g id="edge23" class="edge">
<title>Node19&#45;&gt;Node22</title>
<path fill="none" stroke="midnightblue" d="M1918.01,-123.49C1862.03,-115.67 1779.32,-102.89 1708.14,-87 1703.78,-86.03 1699.24,-84.9 1694.74,-83.71"/>
<polygon fill="midnightblue" stroke="midnightblue" points="1695.62,-80.33 1685.05,-81.06 1693.77,-87.08 1695.62,-80.33"/>
</g>
<!-- Node23 -->
<g id="node23" class="node">
<title>Node23</title>
<g id="a_node23"><a xlink:title=" ">
<polygon fill="white" stroke="#bfbfbf" points="1717.14,-62 1717.14,-81 1767.14,-81 1767.14,-62 1717.14,-62"/>
<text text-anchor="middle" x="1742.14" y="-69" font-family="Helvetica,sans-Serif" font-size="10.00">cstring</text>
</a>
</g>
</g>
<!-- Node19&#45;&gt;Node23 -->
<g id="edge25" class="edge">
<title>Node19&#45;&gt;Node23</title>
<path fill="none" stroke="midnightblue" d="M1930.96,-123.48C1888.67,-115.9 1827.83,-103.48 1776.14,-87 1774.22,-86.39 1772.25,-85.7 1770.28,-84.98"/>
<polygon fill="midnightblue" stroke="midnightblue" points="1771.19,-81.57 1760.61,-81.12 1768.6,-88.08 1771.19,-81.57"/>
</g>
<!-- Node19&#45;&gt;Node24 -->
<g id="edge27" class="edge">
<title>Node19&#45;&gt;Node24</title>
<path fill="none" stroke="midnightblue" d="M1913.96,-124.12C1809.22,-112.12 1620.93,-90.34 1606.14,-87 1602.66,-86.21 1599.05,-85.25 1595.49,-84.2"/>
<polygon fill="midnightblue" stroke="midnightblue" points="1596.25,-80.76 1585.65,-81.07 1594.12,-87.43 1596.25,-80.76"/>
</g>
<!-- Node28&#45;&gt;Node4 -->
<g id="edge50" class="edge">
<title>Node28&#45;&gt;Node4</title>
<path fill="none" stroke="midnightblue" d="M1607.87,-703.84C1742.24,-705.16 2133.14,-699.83 2133.14,-593 2133.14,-593 2133.14,-593 2133.14,-479 2133.14,-311.54 2362.97,-479.54 2496.14,-378 2550.51,-336.54 2520.14,-286.61 2575.14,-246 2620.9,-212.22 2686.44,-200.82 2731.23,-197.09"/>
<polygon fill="midnightblue" stroke="midnightblue" points="2731.58,-200.57 2741.3,-196.35 2731.07,-193.59 2731.58,-200.57"/>
</g>
<!-- Node28&#45;&gt;Node7 -->
<g id="edge36" class="edge">
<title>Node28&#45;&gt;Node7</title>
<path fill="none" stroke="midnightblue" d="M1607.72,-702.84C1897.53,-701.69 3503.25,-693.7 3538.14,-658 3651.36,-542.17 3566.5,-424.17 3460.14,-302 3404.21,-237.75 3382.83,-228 3313.14,-179 3296.57,-167.35 3276.82,-155.85 3261.48,-147.39"/>
<polygon fill="midnightblue" stroke="midnightblue" points="3263.01,-144.25 3252.56,-142.55 3259.67,-150.4 3263.01,-144.25"/>
</g>
<!-- Node28&#45;&gt;Node8 -->
<g id="edge49" class="edge">
<title>Node28&#45;&gt;Node8</title>
<path fill="none" stroke="midnightblue" d="M1607.85,-702.62C1813.18,-700.7 2667.09,-690.85 2932.14,-658 3048.59,-643.57 3080.24,-643.11 3190.14,-602 3238.58,-583.88 3261.47,-587.64 3292.14,-546 3385.08,-419.83 3381.22,-215.56 3377.55,-152.89"/>
<polygon fill="midnightblue" stroke="midnightblue" points="3381.02,-152.34 3376.87,-142.59 3374.04,-152.8 3381.02,-152.34"/>
</g>
<!-- Node28&#45;&gt;Node10 -->
<g id="edge162" class="edge">
<title>Node28&#45;&gt;Node10</title>
<path fill="none" stroke="midnightblue" d="M1518.41,-703.39C1365.94,-704.29 867.6,-703.59 715.14,-658 559.27,-611.39 266.14,-498.39 266.14,-369 266.14,-369 266.14,-369 266.14,-311 266.14,-227.21 220.62,-181.97 280.14,-123 323.8,-79.74 771.44,-96.62 832.14,-87 840.23,-85.72 848.84,-83.82 856.85,-81.81"/>
<polygon fill="midnightblue" stroke="midnightblue" points="857.81,-85.18 866.6,-79.25 856.04,-78.41 857.81,-85.18"/>
</g>
<!-- Node28&#45;&gt;Node12 -->
<g id="edge34" class="edge">
<title>Node28&#45;&gt;Node12</title>
<path fill="none" stroke="midnightblue" d="M1607.94,-702.76C1887.62,-701.19 3388.71,-691.23 3590.14,-658 3790.48,-624.95 3909.57,-576.75 3951.14,-378 3969.25,-291.43 3988.69,-259.08 3951.14,-179 3930.46,-134.88 3881.52,-102.69 3850.5,-85.84"/>
<polygon fill="midnightblue" stroke="midnightblue" points="3851.98,-82.67 3841.5,-81.11 3848.72,-88.86 3851.98,-82.67"/>
</g>
<!-- Node28&#45;&gt;Node14 -->
<g id="edge57" class="edge">
<title>Node28&#45;&gt;Node14</title>
<path fill="none" stroke="midnightblue" d="M1558.29,-694.47C1548.46,-676.39 1527.14,-632.59 1527.14,-593 1527.14,-593 1527.14,-593 1527.14,-479 1527.14,-454.57 1764.22,-135.6 1785.14,-123 1883.2,-63.96 1927.5,-107.29 2040.14,-87 2046.43,-85.87 2053.03,-84.56 2059.53,-83.2"/>
<polygon fill="midnightblue" stroke="midnightblue" points="2060.54,-86.57 2069.59,-81.05 2059.07,-79.72 2060.54,-86.57"/>
</g>
<!-- Node28&#45;&gt;Node17 -->
<g id="edge160" class="edge">
<title>Node28&#45;&gt;Node17</title>
<path fill="none" stroke="midnightblue" d="M1607.85,-703.18C1895.13,-704.18 3472.24,-707.42 3560.14,-658 3667.29,-597.76 3709.14,-547.92 3709.14,-425 3709.14,-425 3709.14,-425 3709.14,-367 3709.14,-290.32 3536.59,-150.84 3465.14,-123 3383.54,-91.2 2753.47,-76.28 2602.55,-73.14"/>
<polygon fill="midnightblue" stroke="midnightblue" points="2602.6,-69.64 2592.53,-72.93 2602.45,-76.64 2602.6,-69.64"/>
</g>
<!-- Node28&#45;&gt;Node19 -->
<g id="edge58" class="edge">
<title>Node28&#45;&gt;Node19</title>
<path fill="none" stroke="midnightblue" d="M1607.72,-701.67C1676.37,-696.99 1800.14,-676.92 1800.14,-593 1800.14,-593 1800.14,-593 1800.14,-535 1800.14,-451.11 1934.37,-216.79 1972.91,-151.24"/>
<polygon fill="midnightblue" stroke="midnightblue" points="1975.99,-152.91 1978.06,-142.52 1969.96,-149.35 1975.99,-152.91"/>
</g>
<!-- Node28&#45;&gt;Node25 -->
<g id="edge157" class="edge">
<title>Node28&#45;&gt;Node25</title>
<path fill="none" stroke="midnightblue" d="M1572.44,-694.28C1589.96,-676.85 1626.14,-635.69 1626.14,-593 1626.14,-593 1626.14,-593 1626.14,-535 1626.14,-339.92 1850.87,-391.98 1921.14,-210 1926.11,-197.15 1928.51,-190.64 1921.14,-179 1914.15,-167.95 1885.23,-155.18 1861.12,-146.07"/>
<polygon fill="midnightblue" stroke="midnightblue" points="1862.09,-142.7 1851.5,-142.53 1859.67,-149.26 1862.09,-142.7"/>
</g>
<!-- Node28&#45;&gt;Node27 -->
<g id="edge159" class="edge">
<title>Node28&#45;&gt;Node27</title>
<path fill="none" stroke="midnightblue" d="M1518.45,-702.39C1311.43,-699.42 453.66,-685.48 404.14,-658 199.82,-544.6 122.51,-232.34 105.8,-152.69"/>
<polygon fill="midnightblue" stroke="midnightblue" points="109.18,-151.78 103.76,-142.67 102.32,-153.17 109.18,-151.78"/>
</g>
<!-- Node29 -->
<g id="node29" class="node">
<title>Node29</title>
<g id="a_node29"><a xlink:title=" ">
<polygon fill="white" stroke="#bfbfbf" points="1050.64,-123.5 1050.64,-142.5 1181.64,-142.5 1181.64,-123.5 1050.64,-123.5"/>
<text text-anchor="middle" x="1116.14" y="-130.5" font-family="Helvetica,sans-Serif" font-size="10.00">tvm/ffi/container/map.h</text>
</a>
</g>
</g>
<!-- Node28&#45;&gt;Node29 -->
<g id="edge35" class="edge">
<title>Node28&#45;&gt;Node29</title>
<path fill="none" stroke="midnightblue" d="M1518.45,-702.11C1340.52,-697.98 692.14,-677.16 692.14,-593 692.14,-593 692.14,-593 692.14,-255 692.14,-183.43 918.37,-151.86 1040.33,-140.03"/>
<polygon fill="midnightblue" stroke="midnightblue" points="1040.73,-143.51 1050.36,-139.08 1040.07,-136.54 1040.73,-143.51"/>
</g>
<!-- Node30 -->
<g id="node30" class="node">
<title>Node30</title>
<g id="a_node30"><a xlink:href="attrs_8h.html" target="_top" xlink:title="Helpers for attribute objects.">
<polygon fill="white" stroke="black" points="1381.14,-246.5 1381.14,-265.5 1461.14,-265.5 1461.14,-246.5 1381.14,-246.5"/>
<text text-anchor="middle" x="1421.14" y="-253.5" font-family="Helvetica,sans-Serif" font-size="10.00">tvm/ir/attrs.h</text>
</a>
</g>
</g>
<!-- Node28&#45;&gt;Node30 -->
<g id="edge37" class="edge">
<title>Node28&#45;&gt;Node30</title>
<path fill="none" stroke="midnightblue" d="M1518.49,-701.61C1482.13,-698.18 1431.66,-687.84 1399.14,-658 1376.45,-637.18 1375.14,-623.8 1375.14,-593 1375.14,-593 1375.14,-593 1375.14,-367 1375.14,-331.82 1395.42,-294.86 1409.05,-274"/>
<polygon fill="midnightblue" stroke="midnightblue" points="1412.02,-275.85 1414.75,-265.61 1406.23,-271.92 1412.02,-275.85"/>
</g>
<!-- Node28&#45;&gt;Node33 -->
<g id="edge161" class="edge">
<title>Node28&#45;&gt;Node33</title>
<path fill="none" stroke="midnightblue" d="M1518.56,-703.1C1373.96,-703.01 919.21,-699.36 779.14,-658 682.55,-629.48 655.7,-614.8 582.14,-546 451.42,-423.74 430.17,-374.72 360.14,-210 352.22,-191.38 347.75,-168.55 345.41,-152.8"/>
<polygon fill="midnightblue" stroke="midnightblue" points="348.86,-152.19 344.05,-142.75 341.92,-153.13 348.86,-152.19"/>
</g>
<!-- Node34 -->
<g id="node34" class="node">
<title>Node34</title>
<g id="a_node34"><a xlink:href="node__functor_8h.html" target="_top" xlink:title="Defines the Functor data structures.">
<polygon fill="white" stroke="black" points="1502.64,-123.5 1502.64,-142.5 1623.64,-142.5 1623.64,-123.5 1502.64,-123.5"/>
<text text-anchor="middle" x="1563.14" y="-130.5" font-family="Helvetica,sans-Serif" font-size="10.00">tvm/ir/node_functor.h</text>
</a>
</g>
</g>
<!-- Node28&#45;&gt;Node34 -->
<g id="edge51" class="edge">
<title>Node28&#45;&gt;Node34</title>
<path fill="none" stroke="midnightblue" d="M1529.48,-694.48C1485.25,-681.04 1413.14,-650.32 1413.14,-593 1413.14,-593 1413.14,-593 1413.14,-479 1413.14,-358.64 1454.64,-317.93 1551.14,-246 1604.04,-206.58 1654.54,-262 1695.14,-210 1720.51,-177.5 1666.02,-156.4 1619.53,-144.87"/>
<polygon fill="midnightblue" stroke="midnightblue" points="1620.3,-141.45 1609.77,-142.55 1618.69,-148.26 1620.3,-141.45"/>
</g>
<!-- Node35 -->
<g id="node35" class="node">
<title>Node35</title>
<g id="a_node35"><a xlink:href="buffer_8h.html" target="_top" xlink:title="Symbolic n&#45;dimensional array, to represent a memory buffer.">
<polygon fill="white" stroke="black" points="3433.64,-638.5 3433.64,-657.5 3528.64,-657.5 3528.64,-638.5 3433.64,-638.5"/>
<text text-anchor="middle" x="3481.14" y="-645.5" font-family="Helvetica,sans-Serif" font-size="10.00">tvm/tirx/buffer.h</text>
</a>
</g>
</g>
<!-- Node28&#45;&gt;Node35 -->
<g id="edge59" class="edge">
<title>Node28&#45;&gt;Node35</title>
<path fill="none" stroke="midnightblue" d="M1607.88,-701.93C1801.35,-697.3 2585.31,-678.19 3229.14,-658 3295.66,-655.91 3372.05,-653.13 3423.12,-651.22"/>
<polygon fill="midnightblue" stroke="midnightblue" points="3423.44,-654.71 3433.3,-650.83 3423.18,-647.71 3423.44,-654.71"/>
</g>
<!-- Node28&#45;&gt;Node57 -->
<g id="edge156" class="edge">
<title>Node28&#45;&gt;Node57</title>
<path fill="none" stroke="midnightblue" d="M1607.99,-702.35C1868.67,-698.3 3177.14,-673.92 3177.14,-593 3177.14,-593 3177.14,-593 3177.14,-479 3177.14,-445.33 3163.15,-408.08 3153.67,-386.72"/>
<polygon fill="midnightblue" stroke="midnightblue" points="3156.82,-385.21 3149.46,-377.59 3150.47,-388.14 3156.82,-385.21"/>
</g>
<!-- Node58 -->
<g id="node58" class="node">
<title>Node58</title>
<g id="a_node58"><a xlink:title=" ">
<polygon fill="white" stroke="#bfbfbf" points="1287.14,-638.5 1287.14,-657.5 1347.14,-657.5 1347.14,-638.5 1287.14,-638.5"/>
<text text-anchor="middle" x="1317.14" y="-645.5" font-family="Helvetica,sans-Serif" font-size="10.00">iostream</text>
</a>
</g>
</g>
<!-- Node28&#45;&gt;Node58 -->
<g id="edge158" class="edge">
<title>Node28&#45;&gt;Node58</title>
<path fill="none" stroke="midnightblue" d="M1524.16,-694.44C1478.57,-684.43 1403.47,-667.95 1357.35,-657.83"/>
<polygon fill="midnightblue" stroke="midnightblue" points="1357.93,-654.37 1347.41,-655.64 1356.43,-661.21 1357.93,-654.37"/>
</g>
<!-- Node30&#45;&gt;Node4 -->
<g id="edge44" class="edge">
<title>Node30&#45;&gt;Node4</title>
<path fill="none" stroke="midnightblue" d="M1461.25,-254.85C1652.61,-253.93 2474.02,-247.84 2727.14,-210 2732.72,-209.17 2738.55,-207.96 2744.23,-206.6"/>
<polygon fill="midnightblue" stroke="midnightblue" points="2745.4,-209.92 2754.2,-204.03 2743.65,-203.14 2745.4,-209.92"/>
</g>
<!-- Node30&#45;&gt;Node6 -->
<g id="edge42" class="edge">
<title>Node30&#45;&gt;Node6</title>
<path fill="none" stroke="midnightblue" d="M1461.44,-254.3C1649.31,-250.92 2434.6,-235.39 2541.14,-210 2573.45,-202.3 2577.62,-189.46 2609.14,-179 2720.92,-141.92 2751.74,-140.9 2868.14,-123 3043.98,-95.96 3254.07,-81.49 3354.69,-75.64"/>
<polygon fill="midnightblue" stroke="midnightblue" points="3355.17,-79.12 3364.96,-75.05 3354.77,-72.13 3355.17,-79.12"/>
</g>
<!-- Node30&#45;&gt;Node8 -->
<g id="edge43" class="edge">
<title>Node30&#45;&gt;Node8</title>
<path fill="none" stroke="midnightblue" d="M1461.3,-254.65C1642.32,-252.92 2383.55,-243.83 2613.14,-210 2667.21,-202.03 2678.18,-187.69 2732.14,-179 2977.5,-139.5 3042.51,-163.94 3290.14,-143 3302.18,-141.98 3315.15,-140.72 3327.27,-139.46"/>
<polygon fill="midnightblue" stroke="midnightblue" points="3327.64,-142.94 3337.21,-138.41 3326.9,-135.98 3327.64,-142.94"/>
</g>
<!-- Node30&#45;&gt;Node10 -->
<g id="edge48" class="edge">
<title>Node30&#45;&gt;Node10</title>
<path fill="none" stroke="midnightblue" d="M1381.07,-247.42C1378.05,-246.92 1375.05,-246.44 1372.14,-246 1235.85,-225.54 1191.07,-263.71 1064.14,-210 1044.07,-201.51 1043.19,-192.58 1026.14,-179 984.64,-145.95 935.41,-107.98 908.72,-87.49"/>
<polygon fill="midnightblue" stroke="midnightblue" points="910.64,-84.55 900.58,-81.25 906.39,-90.11 910.64,-84.55"/>
</g>
<!-- Node30&#45;&gt;Node13 -->
<g id="edge41" class="edge">
<title>Node30&#45;&gt;Node13</title>
<path fill="none" stroke="midnightblue" d="M1381.06,-247.48C1378.04,-246.96 1375.05,-246.46 1372.14,-246 1253.89,-227.18 1211.84,-264.35 1105.14,-210 1086.8,-200.65 1048.8,-162.11 1041.14,-143 1037.83,-134.75 1035.53,-129.89 1041.14,-123 1063.96,-95 1160.58,-82.06 1225.44,-76.44"/>
<polygon fill="midnightblue" stroke="midnightblue" points="1225.89,-79.91 1235.57,-75.6 1225.31,-72.94 1225.89,-79.91"/>
</g>
<!-- Node30&#45;&gt;Node17 -->
<g id="edge45" class="edge">
<title>Node30&#45;&gt;Node17</title>
<path fill="none" stroke="midnightblue" d="M1461.44,-253.9C1585.04,-249.64 1968.78,-229.82 2272.14,-143 2292.79,-137.09 2295.69,-129.58 2316.14,-123 2393.89,-97.97 2489.21,-83.03 2538,-76.47"/>
<polygon fill="midnightblue" stroke="midnightblue" points="2538.51,-79.93 2547.97,-75.16 2537.59,-72.99 2538.51,-79.93"/>
</g>
<!-- Node30&#45;&gt;Node24 -->
<g id="edge46" class="edge">
<title>Node30&#45;&gt;Node24</title>
<path fill="none" stroke="midnightblue" d="M1461.38,-248.26C1533.02,-236.22 1675.41,-212.07 1677.14,-210 1686,-199.45 1685.9,-189.64 1677.14,-179 1624.18,-114.67 1546.11,-207.33 1493.14,-143 1475.49,-121.56 1507.74,-99.2 1534.09,-85.56"/>
<polygon fill="midnightblue" stroke="midnightblue" points="1535.67,-88.69 1543.08,-81.11 1532.56,-82.41 1535.67,-88.69"/>
</g>
<!-- Node30&#45;&gt;Node29 -->
<g id="edge38" class="edge">
<title>Node30&#45;&gt;Node29</title>
<path fill="none" stroke="midnightblue" d="M1420.92,-246.36C1420,-230.38 1415.61,-196.26 1395.14,-179 1387.26,-172.36 1269.48,-155.04 1189.5,-143.93"/>
<polygon fill="midnightblue" stroke="midnightblue" points="1189.84,-140.44 1179.46,-142.54 1188.88,-147.38 1189.84,-140.44"/>
</g>
<!-- Node31 -->
<g id="node31" class="node">
<title>Node31</title>
<g id="a_node31"><a xlink:title=" ">
<polygon fill="white" stroke="#bfbfbf" points="1114.64,-179.5 1114.64,-209.5 1241.64,-209.5 1241.64,-179.5 1114.64,-179.5"/>
<text text-anchor="start" x="1122.64" y="-197.5" font-family="Helvetica,sans-Serif" font-size="10.00">tvm/ffi/extra/structural</text>
<text text-anchor="middle" x="1178.14" y="-186.5" font-family="Helvetica,sans-Serif" font-size="10.00">_equal.h</text>
</a>
</g>
</g>
<!-- Node30&#45;&gt;Node31 -->
<g id="edge39" class="edge">
<title>Node30&#45;&gt;Node31</title>
<path fill="none" stroke="midnightblue" d="M1386.33,-246.48C1349.65,-237.49 1290.98,-223.13 1245.25,-211.93"/>
<polygon fill="midnightblue" stroke="midnightblue" points="1245.96,-208.5 1235.41,-209.52 1244.29,-215.3 1245.96,-208.5"/>
</g>
<!-- Node32 -->
<g id="node32" class="node">
<title>Node32</title>
<g id="a_node32"><a xlink:title=" ">
<polygon fill="white" stroke="#bfbfbf" points="1259.64,-179.5 1259.64,-209.5 1386.64,-209.5 1386.64,-179.5 1259.64,-179.5"/>
<text text-anchor="start" x="1267.64" y="-197.5" font-family="Helvetica,sans-Serif" font-size="10.00">tvm/ffi/extra/structural</text>
<text text-anchor="middle" x="1323.14" y="-186.5" font-family="Helvetica,sans-Serif" font-size="10.00">_hash.h</text>
</a>
</g>
</g>
<!-- Node30&#45;&gt;Node32 -->
<g id="edge40" class="edge">
<title>Node30&#45;&gt;Node32</title>
<path fill="none" stroke="midnightblue" d="M1407.1,-246.48C1393.58,-238.27 1372.65,-225.56 1355.07,-214.88"/>
<polygon fill="midnightblue" stroke="midnightblue" points="1356.6,-211.72 1346.24,-209.52 1352.97,-217.7 1356.6,-211.72"/>
</g>
<!-- Node30&#45;&gt;Node33 -->
<g id="edge47" class="edge">
<title>Node30&#45;&gt;Node33</title>
<path fill="none" stroke="midnightblue" d="M1381.09,-247.25C1378.07,-246.79 1375.06,-246.36 1372.14,-246 1130.37,-215.94 1065.53,-249.64 825.14,-210 772.49,-201.32 761.53,-189.17 709.14,-179 600.72,-157.95 472.22,-144.84 399.93,-138.52"/>
<polygon fill="midnightblue" stroke="midnightblue" points="399.95,-135.01 389.69,-137.64 399.35,-141.98 399.95,-135.01"/>
</g>
<!-- Node34&#45;&gt;Node10 -->
<g id="edge55" class="edge">
<title>Node34&#45;&gt;Node10</title>
<path fill="none" stroke="midnightblue" d="M1502.44,-126.64C1363.85,-114.41 1027.97,-84.76 921.85,-75.39"/>
<polygon fill="midnightblue" stroke="midnightblue" points="922.01,-71.89 911.75,-74.5 921.4,-78.86 922.01,-71.89"/>
</g>
<!-- Node34&#45;&gt;Node18 -->
<g id="edge56" class="edge">
<title>Node34&#45;&gt;Node18</title>
<path fill="none" stroke="midnightblue" d="M1502.51,-128.21C1332.84,-117.59 865.08,-88.25 857.14,-87 849.43,-85.78 841.23,-84 833.54,-82.1"/>
<polygon fill="midnightblue" stroke="midnightblue" points="834.35,-78.69 823.79,-79.56 832.59,-85.47 834.35,-78.69"/>
</g>
<!-- Node34&#45;&gt;Node22 -->
<g id="edge52" class="edge">
<title>Node34&#45;&gt;Node22</title>
<path fill="none" stroke="midnightblue" d="M1576.61,-123.48C1591.83,-113.84 1616.83,-98.02 1634.94,-86.55"/>
<polygon fill="midnightblue" stroke="midnightblue" points="1637.12,-89.31 1643.7,-81.01 1633.38,-83.4 1637.12,-89.31"/>
</g>
<!-- Node34&#45;&gt;Node23 -->
<g id="edge53" class="edge">
<title>Node34&#45;&gt;Node23</title>
<path fill="none" stroke="midnightblue" d="M1593.19,-123.47C1622.5,-114.94 1668.24,-101.11 1707.14,-87 1709,-86.33 1710.9,-85.61 1712.81,-84.88"/>
<polygon fill="midnightblue" stroke="midnightblue" points="1714.29,-88.06 1722.27,-81.09 1711.69,-81.56 1714.29,-88.06"/>
</g>
<!-- Node34&#45;&gt;Node24 -->
<g id="edge54" class="edge">
<title>Node34&#45;&gt;Node24</title>
<path fill="none" stroke="midnightblue" d="M1563.14,-123.48C1563.14,-115.08 1563.14,-101.98 1563.14,-91.16"/>
<polygon fill="midnightblue" stroke="midnightblue" points="1566.64,-91.01 1563.14,-81.01 1559.64,-91.01 1566.64,-91.01"/>
</g>
<!-- Node35&#45;&gt;Node4 -->
<g id="edge63" class="edge">
<title>Node35&#45;&gt;Node4</title>
<path fill="none" stroke="midnightblue" d="M3433.51,-644.78C3261.94,-636.39 2676.37,-604.03 2499.14,-546 2449.99,-529.91 2423.48,-534.51 2397.14,-490 2384.93,-469.36 2403.65,-424.58 2414.14,-414 2451.85,-375.97 2488.15,-412.47 2529.14,-378 2579.65,-335.52 2545.89,-287.57 2597.14,-246 2635.36,-215 2691.19,-202.97 2731.32,-198.34"/>
<polygon fill="midnightblue" stroke="midnightblue" points="2731.83,-201.8 2741.42,-197.29 2731.11,-194.84 2731.83,-201.8"/>
</g>
<!-- Node35&#45;&gt;Node6 -->
<g id="edge61" class="edge">
<title>Node35&#45;&gt;Node6</title>
<path fill="none" stroke="midnightblue" d="M3494.83,-638.38C3549.39,-602.83 3747.28,-461.88 3723.14,-302 3710.24,-216.54 3718.77,-171.37 3647.14,-123 3595.32,-88 3523.5,-76.72 3473.35,-73.36"/>
<polygon fill="midnightblue" stroke="midnightblue" points="3473.49,-69.86 3463.31,-72.77 3473.08,-76.85 3473.49,-69.86"/>
</g>
<!-- Node35&#45;&gt;Node7 -->
<g id="edge62" class="edge">
<title>Node35&#45;&gt;Node7</title>
<path fill="none" stroke="midnightblue" d="M3481.14,-638.44C3481.14,-619.94 3481.14,-574.81 3481.14,-537 3481.14,-537 3481.14,-537 3481.14,-367 3481.14,-316.23 3351.88,-245.05 3315.14,-210 3293.56,-189.42 3268.81,-165.56 3252.84,-150.15"/>
<polygon fill="midnightblue" stroke="midnightblue" points="3254.98,-147.35 3245.36,-142.92 3250.12,-152.38 3254.98,-147.35"/>
</g>
<!-- Node35&#45;&gt;Node12 -->
<g id="edge60" class="edge">
<title>Node35&#45;&gt;Node12</title>
<path fill="none" stroke="midnightblue" d="M3528.69,-643.73C3638.24,-633.35 3899.14,-591.19 3899.14,-425 3899.14,-425 3899.14,-425 3899.14,-255 3899.14,-189.68 3857.14,-120.62 3835.59,-89.48"/>
<polygon fill="midnightblue" stroke="midnightblue" points="3838.26,-87.21 3829.62,-81.08 3832.56,-91.26 3838.26,-87.21"/>
</g>
<!-- Node35&#45;&gt;Node17 -->
<g id="edge155" class="edge">
<title>Node35&#45;&gt;Node17</title>
<path fill="none" stroke="midnightblue" d="M3484.38,-638.24C3505.57,-579.24 3618.25,-238.47 3439.14,-123 3367.81,-77.01 2752.59,-72.85 2602.88,-72.52"/>
<polygon fill="midnightblue" stroke="midnightblue" points="2602.54,-69.02 2592.53,-72.5 2602.52,-76.02 2602.54,-69.02"/>
</g>
<!-- Node36 -->
<g id="node36" class="node">
<title>Node36</title>
<g id="a_node36"><a xlink:href="layout_8h.html" target="_top" xlink:title="Definition of layout.">
<polygon fill="white" stroke="black" points="2934.14,-582.5 2934.14,-601.5 3032.14,-601.5 3032.14,-582.5 2934.14,-582.5"/>
<text text-anchor="middle" x="2983.14" y="-589.5" font-family="Helvetica,sans-Serif" font-size="10.00">tvm/tirx/layout.h</text>
</a>
</g>
</g>
<!-- Node35&#45;&gt;Node36 -->
<g id="edge64" class="edge">
<title>Node35&#45;&gt;Node36</title>
<path fill="none" stroke="midnightblue" d="M3433.39,-641.82C3341.93,-631.9 3142.25,-610.25 3042.43,-599.43"/>
<polygon fill="midnightblue" stroke="midnightblue" points="3042.53,-595.92 3032.22,-598.32 3041.78,-602.88 3042.53,-595.92"/>
</g>
<!-- Node35&#45;&gt;Node57 -->
<g id="edge154" class="edge">
<title>Node35&#45;&gt;Node57</title>
<path fill="none" stroke="midnightblue" d="M3478.32,-638.36C3466.98,-603.75 3425.11,-476.73 3419.14,-470 3361.62,-405.15 3258.71,-381.87 3196.7,-373.56"/>
<polygon fill="midnightblue" stroke="midnightblue" points="3197.1,-370.08 3186.74,-372.31 3196.22,-377.03 3197.1,-370.08"/>
</g>
<!-- Node36&#45;&gt;Node9 -->
<g id="edge68" class="edge">
<title>Node36&#45;&gt;Node9</title>
<path fill="none" stroke="midnightblue" d="M3032.47,-586.44C3167.59,-570.93 3543.04,-506.89 3685.14,-266 3718.62,-209.25 3687.84,-126.84 3671.2,-90.67"/>
<polygon fill="midnightblue" stroke="midnightblue" points="3674.24,-88.9 3666.77,-81.38 3667.92,-91.91 3674.24,-88.9"/>
</g>
<!-- Node36&#45;&gt;Node12 -->
<g id="edge65" class="edge">
<title>Node36&#45;&gt;Node12</title>
<path fill="none" stroke="midnightblue" d="M3003.11,-582.43C3022.92,-573.77 3054.01,-559.73 3080.14,-546 3340.11,-409.37 3401.72,-368.22 3649.14,-210 3693.28,-181.77 3705.17,-175.66 3746.14,-143 3768.15,-125.46 3791.78,-103.27 3806.98,-88.51"/>
<polygon fill="midnightblue" stroke="midnightblue" points="3809.79,-90.66 3814.48,-81.16 3804.89,-85.66 3809.79,-90.66"/>
</g>
<!-- Node36&#45;&gt;Node13 -->
<g id="edge67" class="edge">
<title>Node36&#45;&gt;Node13</title>
<path fill="none" stroke="midnightblue" d="M2934,-588.08C2662.63,-570.96 1349.21,-475.19 1064.14,-210 1034.2,-182.14 1008.22,-154.64 1034.14,-123 1057.88,-94.03 1158.86,-81.34 1225.56,-76.03"/>
<polygon fill="midnightblue" stroke="midnightblue" points="1225.84,-79.52 1235.55,-75.27 1225.31,-72.54 1225.84,-79.52"/>
</g>
<!-- Node37 -->
<g id="node37" class="node">
<title>Node37</title>
<g id="a_node37"><a xlink:title=" ">
<polygon fill="white" stroke="#bfbfbf" points="2916.14,-526.5 2916.14,-545.5 3050.14,-545.5 3050.14,-526.5 2916.14,-526.5"/>
<text text-anchor="middle" x="2983.14" y="-533.5" font-family="Helvetica,sans-Serif" font-size="10.00">tvm/ffi/container/tuple.h</text>
</a>
</g>
</g>
<!-- Node36&#45;&gt;Node37 -->
<g id="edge66" class="edge">
<title>Node36&#45;&gt;Node37</title>
<path fill="none" stroke="midnightblue" d="M2983.14,-582.08C2983.14,-575.01 2983.14,-564.86 2983.14,-555.99"/>
<polygon fill="midnightblue" stroke="midnightblue" points="2986.64,-555.75 2983.14,-545.75 2979.64,-555.75 2986.64,-555.75"/>
</g>
<!-- Node38 -->
<g id="node38" class="node">
<title>Node38</title>
<g id="a_node38"><a xlink:href="attr__registry__map_8h.html" target="_top" xlink:title="Attribute map used in registry.">
<polygon fill="white" stroke="black" points="834.64,-179.5 834.64,-209.5 943.64,-209.5 943.64,-179.5 834.64,-179.5"/>
<text text-anchor="start" x="842.64" y="-197.5" font-family="Helvetica,sans-Serif" font-size="10.00">tvm/ir/attr_registry</text>
<text text-anchor="middle" x="889.14" y="-186.5" font-family="Helvetica,sans-Serif" font-size="10.00">_map.h</text>
</a>
</g>
</g>
<!-- Node36&#45;&gt;Node38 -->
<g id="edge69" class="edge">
<title>Node36&#45;&gt;Node38</title>
<path fill="none" stroke="midnightblue" d="M2934.06,-590.49C2708.47,-588.01 1776.74,-576 1650.14,-546 1347.5,-474.28 1019.51,-277.84 919.66,-215.07"/>
<polygon fill="midnightblue" stroke="midnightblue" points="921.3,-211.97 910.98,-209.58 917.57,-217.88 921.3,-211.97"/>
</g>
<!-- Node39 -->
<g id="node39" class="node">
<title>Node39</title>
<g id="a_node39"><a xlink:href="module_8h.html" target="_top" xlink:title="IRModule that holds the functions and type definitions.">
<polygon fill="white" stroke="black" points="2568.64,-470.5 2568.64,-489.5 2663.64,-489.5 2663.64,-470.5 2568.64,-470.5"/>
<text text-anchor="middle" x="2616.14" y="-477.5" font-family="Helvetica,sans-Serif" font-size="10.00">tvm/ir/module.h</text>
</a>
</g>
</g>
<!-- Node36&#45;&gt;Node39 -->
<g id="edge73" class="edge">
<title>Node36&#45;&gt;Node39</title>
<path fill="none" stroke="midnightblue" d="M2954.65,-582.46C2889.26,-562.86 2728.4,-514.65 2654.45,-492.48"/>
<polygon fill="midnightblue" stroke="midnightblue" points="2655.2,-489.05 2644.62,-489.53 2653.19,-495.76 2655.2,-489.05"/>
</g>
<!-- Node55 -->
<g id="node55" class="node">
<title>Node55</title>
<g id="a_node55"><a xlink:href="exec__scope_8h.html" target="_top" xlink:title=" ">
<polygon fill="white" stroke="black" points="2508.14,-526.5 2508.14,-545.5 2632.14,-545.5 2632.14,-526.5 2508.14,-526.5"/>
<text text-anchor="middle" x="2570.14" y="-533.5" font-family="Helvetica,sans-Serif" font-size="10.00">tvm/tirx/exec_scope.h</text>
</a>
</g>
</g>
<!-- Node36&#45;&gt;Node55 -->
<g id="edge142" class="edge">
<title>Node36&#45;&gt;Node55</title>
<path fill="none" stroke="midnightblue" d="M2933.73,-584.54C2861.31,-575.07 2725.89,-557.36 2642.32,-546.44"/>
<polygon fill="midnightblue" stroke="midnightblue" points="2642.76,-542.97 2632.39,-545.14 2641.85,-549.91 2642.76,-542.97"/>
</g>
<!-- Node36&#45;&gt;Node57 -->
<g id="edge153" class="edge">
<title>Node36&#45;&gt;Node57</title>
<path fill="none" stroke="midnightblue" d="M3004.44,-582.49C3021.08,-574.96 3043.87,-562.58 3059.14,-546 3103.62,-497.7 3129.79,-422.15 3140.07,-387.5"/>
<polygon fill="midnightblue" stroke="midnightblue" points="3143.47,-388.35 3142.85,-377.77 3136.74,-386.43 3143.47,-388.35"/>
</g>
<!-- Node38&#45;&gt;Node7 -->
<g id="edge70" class="edge">
<title>Node38&#45;&gt;Node7</title>
<path fill="none" stroke="midnightblue" d="M943.7,-189.1C987.34,-185.75 1050.13,-181.34 1105.14,-179 1993.82,-141.2 2217.51,-181.73 3106.14,-143 3130.85,-141.92 3158.16,-140.12 3181.35,-138.42"/>
<polygon fill="midnightblue" stroke="midnightblue" points="3181.64,-141.91 3191.35,-137.67 3181.12,-134.93 3181.64,-141.91"/>
</g>
<!-- Node38&#45;&gt;Node10 -->
<g id="edge71" class="edge">
<title>Node38&#45;&gt;Node10</title>
<path fill="none" stroke="midnightblue" d="M889.14,-179.14C889.14,-157.2 889.14,-115.33 889.14,-91.09"/>
<polygon fill="midnightblue" stroke="midnightblue" points="892.64,-91.05 889.14,-81.05 885.64,-91.05 892.64,-91.05"/>
</g>
<!-- Node38&#45;&gt;Node18 -->
<g id="edge72" class="edge">
<title>Node38&#45;&gt;Node18</title>
<path fill="none" stroke="midnightblue" d="M878.58,-179.14C862.01,-156.61 829.96,-113.04 812.39,-89.16"/>
<polygon fill="midnightblue" stroke="midnightblue" points="815.18,-87.03 806.43,-81.05 809.54,-91.18 815.18,-87.03"/>
</g>
<!-- Node39&#45;&gt;Node4 -->
<g id="edge79" class="edge">
<title>Node39&#45;&gt;Node4</title>
<path fill="none" stroke="midnightblue" d="M2606.38,-470.48C2593.72,-458.36 2574.17,-435.22 2582.14,-414 2617.68,-319.41 2716.31,-241.05 2759.92,-209.92"/>
<polygon fill="midnightblue" stroke="midnightblue" points="2761.94,-212.78 2768.12,-204.17 2757.92,-207.05 2761.94,-212.78"/>
</g>
<!-- Node39&#45;&gt;Node6 -->
<g id="edge76" class="edge">
<title>Node39&#45;&gt;Node6</title>
<path fill="none" stroke="midnightblue" d="M2663.92,-478.55C2766.14,-475.93 3011.75,-460.77 3196.14,-378 3338.54,-314.08 3401.4,-288.8 3457.14,-143 3463.92,-125.26 3452.17,-107 3439.25,-93.51"/>
<polygon fill="midnightblue" stroke="midnightblue" points="3441.68,-90.99 3432.07,-86.54 3436.81,-96.02 3441.68,-90.99"/>
</g>
<!-- Node39&#45;&gt;Node7 -->
<g id="edge77" class="edge">
<title>Node39&#45;&gt;Node7</title>
<path fill="none" stroke="midnightblue" d="M2663.77,-477.25C2746.58,-473.48 2913.05,-462.5 2963.14,-434 3088.33,-362.77 3055.72,-274.95 3163.14,-179 3177.08,-166.55 3194.9,-155.49 3209.44,-147.45"/>
<polygon fill="midnightblue" stroke="midnightblue" points="3211.29,-150.43 3218.45,-142.62 3207.98,-144.26 3211.29,-150.43"/>
</g>
<!-- Node39&#45;&gt;Node8 -->
<g id="edge78" class="edge">
<title>Node39&#45;&gt;Node8</title>
<path fill="none" stroke="midnightblue" d="M2636.61,-470.48C2656.52,-461.97 2687.45,-448.14 2713.14,-434 2834,-367.48 2901.92,-383.54 2974.14,-266 2994.49,-232.88 2955.69,-206.52 2983.14,-179 3036.8,-125.21 3247.87,-153.37 3323.14,-143 3324.44,-142.82 3325.76,-142.63 3327.09,-142.44"/>
<polygon fill="midnightblue" stroke="midnightblue" points="3328.04,-145.84 3337.4,-140.87 3326.98,-138.92 3328.04,-145.84"/>
</g>
<!-- Node39&#45;&gt;Node10 -->
<g id="edge140" class="edge">
<title>Node39&#45;&gt;Node10</title>
<path fill="none" stroke="midnightblue" d="M2568.59,-471.23C2565.4,-470.79 2562.23,-470.37 2559.14,-470 2371.84,-447.27 2323.3,-457.91 2136.14,-434 1989.56,-415.27 920.43,-322.95 825.14,-210 793.02,-171.92 843.34,-115.02 871.79,-87.92"/>
<polygon fill="midnightblue" stroke="midnightblue" points="874.18,-90.47 879.14,-81.11 869.43,-85.33 874.18,-90.47"/>
</g>
<!-- Node39&#45;&gt;Node11 -->
<g id="edge128" class="edge">
<title>Node39&#45;&gt;Node11</title>
<path fill="none" stroke="midnightblue" d="M2568.59,-471.19C2505.79,-460.65 2401.25,-442.26 2385.14,-434 2320.51,-400.86 2305.01,-383.35 2266.14,-322 2230.83,-266.27 2214.15,-188.21 2208.04,-152.79"/>
<polygon fill="midnightblue" stroke="midnightblue" points="2211.42,-151.82 2206.36,-142.51 2204.52,-152.95 2211.42,-151.82"/>
</g>
<!-- Node39&#45;&gt;Node12 -->
<g id="edge74" class="edge">
<title>Node39&#45;&gt;Node12</title>
<path fill="none" stroke="midnightblue" d="M2663.78,-478.23C2747.98,-476.01 2928.21,-467.41 3076.14,-434 3386.66,-363.88 3717.62,-145.51 3802.43,-87.03"/>
<polygon fill="midnightblue" stroke="midnightblue" points="3804.48,-89.87 3810.71,-81.29 3800.49,-84.11 3804.48,-89.87"/>
</g>
<!-- Node39&#45;&gt;Node17 -->
<g id="edge137" class="edge">
<title>Node39&#45;&gt;Node17</title>
<path fill="none" stroke="midnightblue" d="M2568.38,-471.28C2491.48,-458.8 2348.5,-435.47 2346.14,-434 2294.24,-401.62 2284.81,-380.25 2266.14,-322 2248.3,-266.34 2388.56,-153.96 2438.14,-123 2469.7,-103.3 2510.18,-89.22 2537.95,-81.01"/>
<polygon fill="midnightblue" stroke="midnightblue" points="2539.27,-84.27 2547.92,-78.16 2537.34,-77.54 2539.27,-84.27"/>
</g>
<!-- Node39&#45;&gt;Node18 -->
<g id="edge141" class="edge">
<title>Node39&#45;&gt;Node18</title>
<path fill="none" stroke="midnightblue" d="M2568.61,-471.06C2565.41,-470.66 2562.23,-470.3 2559.14,-470 2125.33,-427.94 2013.76,-466.77 1579.14,-434 966.1,-387.78 696.8,-590.78 214.14,-210 181.02,-183.87 147.53,-154.02 176.14,-123 216.37,-79.38 642.06,-73.43 766.29,-72.63"/>
<polygon fill="midnightblue" stroke="midnightblue" points="766.39,-76.12 776.37,-72.57 766.35,-69.13 766.39,-76.12"/>
</g>
<!-- Node39&#45;&gt;Node29 -->
<g id="edge75" class="edge">
<title>Node39&#45;&gt;Node29</title>
<path fill="none" stroke="midnightblue" d="M2568.58,-471.32C2565.39,-470.86 2562.22,-470.41 2559.14,-470 2414.67,-450.63 2376.1,-462.48 2233.14,-434 1971.2,-381.81 1912.41,-341.27 1656.14,-266 1572.08,-241.31 1546.75,-246.58 1467.14,-210 1444.07,-199.4 1442.91,-187.96 1419.14,-179 1408.4,-174.95 1274.31,-155.89 1188.15,-143.91"/>
<polygon fill="midnightblue" stroke="midnightblue" points="1188.54,-140.43 1178.15,-142.53 1187.58,-147.37 1188.54,-140.43"/>
</g>
<!-- Node39&#45;&gt;Node33 -->
<g id="edge138" class="edge">
<title>Node39&#45;&gt;Node33</title>
<path fill="none" stroke="midnightblue" d="M2568.61,-471.07C2565.41,-470.67 2562.23,-470.31 2559.14,-470 2163.41,-430.92 2059.21,-487.27 1665.14,-434 1626.25,-428.74 1617.76,-420.97 1579.14,-414 1516.19,-402.63 492,-298.92 437.14,-266 392.24,-239.06 362.94,-181.51 350.29,-152.11"/>
<polygon fill="midnightblue" stroke="midnightblue" points="353.44,-150.56 346.39,-142.65 346.97,-153.23 353.44,-150.56"/>
</g>
<!-- Node40 -->
<g id="node40" class="node">
<title>Node40</title>
<g id="a_node40"><a xlink:href="ir_2function_8h.html" target="_top" xlink:title="Function nodes.">
<polygon fill="white" stroke="black" points="2275.14,-302.5 2275.14,-321.5 2373.14,-321.5 2373.14,-302.5 2275.14,-302.5"/>
<text text-anchor="middle" x="2324.14" y="-309.5" font-family="Helvetica,sans-Serif" font-size="10.00">tvm/ir/function.h</text>
</a>
</g>
</g>
<!-- Node39&#45;&gt;Node40 -->
<g id="edge80" class="edge">
<title>Node39&#45;&gt;Node40</title>
<path fill="none" stroke="midnightblue" d="M2570.38,-470.44C2514.98,-459.83 2427.38,-442.14 2414.14,-434 2373.4,-408.96 2344.98,-358.05 2332.04,-330.93"/>
<polygon fill="midnightblue" stroke="midnightblue" points="2335.2,-329.44 2327.84,-321.81 2328.84,-332.36 2335.2,-329.44"/>
</g>
<!-- Node41 -->
<g id="node41" class="node">
<title>Node41</title>
<g id="a_node41"><a xlink:href="ir_2global__info_8h.html" target="_top" xlink:title="GlobalInfo are globally static object that are referred by the IR itself.">
<polygon fill="white" stroke="black" points="2423.14,-414.5 2423.14,-433.5 2535.14,-433.5 2535.14,-414.5 2423.14,-414.5"/>
<text text-anchor="middle" x="2479.14" y="-421.5" font-family="Helvetica,sans-Serif" font-size="10.00">tvm/ir/global_info.h</text>
</a>
</g>
</g>
<!-- Node39&#45;&gt;Node41 -->
<g id="edge88" class="edge">
<title>Node39&#45;&gt;Node41</title>
<path fill="none" stroke="midnightblue" d="M2594.43,-470.44C2571.79,-461.52 2536.07,-447.44 2510.39,-437.32"/>
<polygon fill="midnightblue" stroke="midnightblue" points="2511.34,-433.93 2500.75,-433.52 2508.77,-440.44 2511.34,-433.93"/>
</g>
<!-- Node52 -->
<g id="node52" class="node">
<title>Node52</title>
<g id="a_node52"><a xlink:href="ir_2type_8h.html" target="_top" xlink:title="IR/AST nodes for the unified type system in TVM.">
<polygon fill="white" stroke="black" points="2885.14,-246.5 2885.14,-265.5 2965.14,-265.5 2965.14,-246.5 2885.14,-246.5"/>
<text text-anchor="middle" x="2925.14" y="-253.5" font-family="Helvetica,sans-Serif" font-size="10.00">tvm/ir/type.h</text>
</a>
</g>
</g>
<!-- Node39&#45;&gt;Node52 -->
<g id="edge129" class="edge">
<title>Node39&#45;&gt;Node52</title>
<path fill="none" stroke="midnightblue" d="M2630,-470.47C2644.25,-461.61 2667,-447.22 2686.14,-434 2769.48,-376.44 2865.43,-303.17 2905.73,-272.06"/>
<polygon fill="midnightblue" stroke="midnightblue" points="2908.12,-274.63 2913.89,-265.75 2903.84,-269.09 2908.12,-274.63"/>
</g>
<!-- Node54 -->
<g id="node54" class="node">
<title>Node54</title>
<g id="a_node54"><a xlink:title=" ">
<polygon fill="white" stroke="#bfbfbf" points="2591.14,-414.5 2591.14,-433.5 2677.14,-433.5 2677.14,-414.5 2591.14,-414.5"/>
<text text-anchor="middle" x="2634.14" y="-421.5" font-family="Helvetica,sans-Serif" font-size="10.00">unordered_set</text>
</a>
</g>
</g>
<!-- Node39&#45;&gt;Node54 -->
<g id="edge139" class="edge">
<title>Node39&#45;&gt;Node54</title>
<path fill="none" stroke="midnightblue" d="M2619.11,-470.08C2621.53,-462.85 2625.01,-452.41 2628.01,-443.4"/>
<polygon fill="midnightblue" stroke="midnightblue" points="2631.38,-444.34 2631.23,-433.75 2624.74,-442.13 2631.38,-444.34"/>
</g>
<!-- Node40&#45;&gt;Node4 -->
<g id="edge85" class="edge">
<title>Node40&#45;&gt;Node4</title>
<path fill="none" stroke="midnightblue" d="M2338.58,-302.45C2363.21,-288.27 2415.36,-260.08 2463.14,-246 2576.74,-212.54 2611.06,-233.4 2727.14,-210 2732.13,-208.99 2737.34,-207.79 2742.47,-206.52"/>
<polygon fill="midnightblue" stroke="midnightblue" points="2743.35,-209.9 2752.16,-204.01 2741.6,-203.13 2743.35,-209.9"/>
</g>
<!-- Node40&#45;&gt;Node7 -->
<g id="edge83" class="edge">
<title>Node40&#45;&gt;Node7</title>
<path fill="none" stroke="midnightblue" d="M2373.31,-303.05C2464.08,-287.96 2663.82,-252.81 2829.14,-210 2872.96,-198.66 2882.04,-189.17 2926.14,-179 2973.46,-168.08 3105.64,-150.5 3181.24,-140.86"/>
<polygon fill="midnightblue" stroke="midnightblue" points="3182.04,-144.29 3191.52,-139.55 3181.16,-137.34 3182.04,-144.29"/>
</g>
<!-- Node40&#45;&gt;Node12 -->
<g id="edge81" class="edge">
<title>Node40&#45;&gt;Node12</title>
<path fill="none" stroke="midnightblue" d="M2373.31,-309.94C2482.1,-307.09 2751.21,-297.2 2974.14,-266 3092.93,-249.37 3120.94,-235.52 3238.14,-210 3371.63,-180.94 3405.16,-174.29 3538.14,-143 3623.85,-122.83 3723.66,-97.78 3779.52,-83.62"/>
<polygon fill="midnightblue" stroke="midnightblue" points="3780.59,-86.96 3789.42,-81.11 3778.87,-80.17 3780.59,-86.96"/>
</g>
<!-- Node40&#45;&gt;Node17 -->
<g id="edge86" class="edge">
<title>Node40&#45;&gt;Node17</title>
<path fill="none" stroke="midnightblue" d="M2328.06,-302.43C2342,-272.91 2392.14,-174.44 2463.14,-123 2486.37,-106.17 2516.09,-92.68 2538.31,-83.89"/>
<polygon fill="midnightblue" stroke="midnightblue" points="2539.86,-87.04 2547.94,-80.19 2537.35,-80.51 2539.86,-87.04"/>
</g>
<!-- Node40&#45;&gt;Node24 -->
<g id="edge87" class="edge">
<title>Node40&#45;&gt;Node24</title>
<path fill="none" stroke="midnightblue" d="M2288.73,-302.46C2196.27,-279.85 1940.41,-215.16 1733.14,-143 1682.06,-125.21 1624.2,-100.12 1590.86,-85.16"/>
<polygon fill="midnightblue" stroke="midnightblue" points="1592.29,-81.97 1581.73,-81.05 1589.41,-88.35 1592.29,-81.97"/>
</g>
<!-- Node40&#45;&gt;Node29 -->
<g id="edge82" class="edge">
<title>Node40&#45;&gt;Node29</title>
<path fill="none" stroke="midnightblue" d="M2275.04,-308.45C2121.08,-299.91 1649.76,-269.45 1510.14,-210 1488.47,-200.77 1489.06,-187.65 1467.14,-179 1353.12,-133.98 1313.14,-157.69 1191.76,-143.66"/>
<polygon fill="midnightblue" stroke="midnightblue" points="1192.07,-140.17 1181.72,-142.43 1191.22,-147.12 1192.07,-140.17"/>
</g>
<!-- Node40&#45;&gt;Node30 -->
<g id="edge84" class="edge">
<title>Node40&#45;&gt;Node30</title>
<path fill="none" stroke="midnightblue" d="M2274.95,-308.06C2118.09,-298.68 1630.74,-269.53 1471.81,-260.03"/>
<polygon fill="midnightblue" stroke="midnightblue" points="1471.58,-256.51 1461.39,-259.41 1471.16,-263.5 1471.58,-256.51"/>
</g>
<!-- Node41&#45;&gt;Node4 -->
<g id="edge90" class="edge">
<title>Node41&#45;&gt;Node4</title>
<path fill="none" stroke="midnightblue" d="M2508.01,-414.44C2527.12,-407.44 2551.47,-395.75 2567.14,-378 2608.47,-331.21 2569.84,-288.95 2615.14,-246 2646.62,-216.17 2695.19,-203.92 2731.67,-198.91"/>
<polygon fill="midnightblue" stroke="midnightblue" points="2732.12,-202.38 2741.62,-197.68 2731.27,-195.43 2732.12,-202.38"/>
</g>
<!-- Node41&#45;&gt;Node6 -->
<g id="edge89" class="edge">
<title>Node41&#45;&gt;Node6</title>
<path fill="none" stroke="midnightblue" d="M2535.17,-415.64C2723.96,-389.56 3331.15,-294.89 3441.14,-143 3451.68,-128.45 3443.19,-109.26 3433.03,-94.58"/>
<polygon fill="midnightblue" stroke="midnightblue" points="3435.78,-92.42 3426.98,-86.53 3430.18,-96.62 3435.78,-92.42"/>
</g>
<!-- Node42 -->
<g id="node42" class="node">
<title>Node42</title>
<g id="a_node42"><a xlink:href="target_8h.html" target="_top" xlink:title="Compilation target object.">
<polygon fill="white" stroke="black" points="2377.14,-358.5 2377.14,-377.5 2487.14,-377.5 2487.14,-358.5 2377.14,-358.5"/>
<text text-anchor="middle" x="2432.14" y="-365.5" font-family="Helvetica,sans-Serif" font-size="10.00">tvm/target/target.h</text>
</a>
</g>
</g>
<!-- Node41&#45;&gt;Node42 -->
<g id="edge91" class="edge">
<title>Node41&#45;&gt;Node42</title>
<path fill="none" stroke="midnightblue" d="M2471.38,-414.08C2464.61,-406.3 2454.6,-394.8 2446.39,-385.37"/>
<polygon fill="midnightblue" stroke="midnightblue" points="2448.96,-383 2439.76,-377.75 2443.68,-387.59 2448.96,-383"/>
</g>
<!-- Node42&#45;&gt;Node4 -->
<g id="edge93" class="edge">
<title>Node42&#45;&gt;Node4</title>
<path fill="none" stroke="midnightblue" d="M2436.62,-358.15C2450.2,-331.49 2490.6,-253.29 2501.14,-246 2584.78,-188.13 2627.67,-231.22 2727.14,-210 2731.88,-208.99 2736.82,-207.82 2741.7,-206.6"/>
<polygon fill="midnightblue" stroke="midnightblue" points="2742.77,-209.94 2751.57,-204.04 2741.01,-203.16 2742.77,-209.94"/>
</g>
<!-- Node42&#45;&gt;Node6 -->
<g id="edge92" class="edge">
<title>Node42&#45;&gt;Node6</title>
<path fill="none" stroke="midnightblue" d="M2487.52,-358.47C2586,-342.91 2797.85,-307.64 2974.14,-266 3110.5,-233.8 3141.74,-215 3277.14,-179 3342.15,-161.71 3382.62,-195.92 3424.14,-143 3434.43,-129.88 3431.11,-111.02 3425.65,-96.1"/>
<polygon fill="midnightblue" stroke="midnightblue" points="3428.74,-94.42 3421.68,-86.53 3422.28,-97.11 3428.74,-94.42"/>
</g>
<!-- Node42&#45;&gt;Node17 -->
<g id="edge127" class="edge">
<title>Node42&#45;&gt;Node17</title>
<path fill="none" stroke="midnightblue" d="M2433.4,-358.37C2437.03,-336.51 2449.48,-278.42 2483.14,-246 2558.31,-173.61 2638.86,-231.51 2694.14,-143 2717.83,-105.08 2646.44,-85.58 2602.3,-77.38"/>
<polygon fill="midnightblue" stroke="midnightblue" points="2602.72,-73.9 2592.27,-75.62 2601.51,-80.8 2602.72,-73.9"/>
</g>
<!-- Node42&#45;&gt;Node40 -->
<g id="edge94" class="edge">
<title>Node42&#45;&gt;Node40</title>
<path fill="none" stroke="midnightblue" d="M2414.79,-358.32C2397.47,-349.66 2370.63,-336.24 2350.64,-326.25"/>
<polygon fill="midnightblue" stroke="midnightblue" points="2351.96,-323 2341.45,-321.65 2348.83,-329.26 2351.96,-323"/>
</g>
<!-- Node42&#45;&gt;Node43 -->
<g id="edge95" class="edge">
<title>Node42&#45;&gt;Node43</title>
<path fill="none" stroke="midnightblue" d="M2377.12,-363.86C2102.94,-348.19 885.21,-278.6 577.81,-261.04"/>
<polygon fill="midnightblue" stroke="midnightblue" points="577.87,-257.54 567.69,-260.46 577.47,-264.52 577.87,-257.54"/>
</g>
<!-- Node46 -->
<g id="node46" class="node">
<title>Node46</title>
<g id="a_node46"><a xlink:href="device__api_8h.html" target="_top" xlink:title="Abstract device memory management API.">
<polygon fill="white" stroke="black" points="2419.64,-179.5 2419.64,-209.5 2532.64,-209.5 2532.64,-179.5 2419.64,-179.5"/>
<text text-anchor="start" x="2427.64" y="-197.5" font-family="Helvetica,sans-Serif" font-size="10.00">tvm/runtime/device</text>
<text text-anchor="middle" x="2476.14" y="-186.5" font-family="Helvetica,sans-Serif" font-size="10.00">_api.h</text>
</a>
</g>
</g>
<!-- Node42&#45;&gt;Node46 -->
<g id="edge101" class="edge">
<title>Node42&#45;&gt;Node46</title>
<path fill="none" stroke="midnightblue" d="M2429.15,-358.36C2422.6,-337.89 2408.78,-285.23 2425.14,-246 2429.93,-234.53 2438.73,-224.32 2447.69,-216.15"/>
<polygon fill="midnightblue" stroke="midnightblue" points="2450.16,-218.64 2455.51,-209.5 2445.62,-213.31 2450.16,-218.64"/>
</g>
<!-- Node49 -->
<g id="node49" class="node">
<title>Node49</title>
<g id="a_node49"><a xlink:href="target__kind_8h.html" target="_top" xlink:title="Target kind registry.">
<polygon fill="white" stroke="black" points="1227.14,-246.5 1227.14,-265.5 1363.14,-265.5 1363.14,-246.5 1227.14,-246.5"/>
<text text-anchor="middle" x="1295.14" y="-253.5" font-family="Helvetica,sans-Serif" font-size="10.00">tvm/target/target_kind.h</text>
</a>
</g>
</g>
<!-- Node42&#45;&gt;Node49 -->
<g id="edge108" class="edge">
<title>Node42&#45;&gt;Node49</title>
<path fill="none" stroke="midnightblue" d="M2376.92,-362.16C2221.07,-348.4 1764.24,-307.46 1373.25,-266.1"/>
<polygon fill="midnightblue" stroke="midnightblue" points="1373.47,-262.6 1363.15,-265.03 1372.73,-269.56 1373.47,-262.6"/>
</g>
<!-- Node43&#45;&gt;Node10 -->
<g id="edge99" class="edge">
<title>Node43&#45;&gt;Node10</title>
<path fill="none" stroke="midnightblue" d="M498.08,-246.26C483.64,-231.29 458.65,-200.27 475.14,-179 475.9,-178.03 759.38,-105.61 856.76,-80.76"/>
<polygon fill="midnightblue" stroke="midnightblue" points="857.81,-84.1 866.64,-78.24 856.08,-77.32 857.81,-84.1"/>
</g>
<!-- Node43&#45;&gt;Node18 -->
<g id="edge100" class="edge">
<title>Node43&#45;&gt;Node18</title>
<path fill="none" stroke="midnightblue" d="M485.33,-246.45C470.2,-239.22 451.19,-227.26 442.14,-210 424.2,-175.75 416.78,-152.19 442.14,-123 484,-74.82 685.28,-71.32 766.28,-71.92"/>
<polygon fill="midnightblue" stroke="midnightblue" points="766.4,-75.42 776.43,-72.02 766.47,-68.42 766.4,-75.42"/>
</g>
<!-- Node43&#45;&gt;Node26 -->
<g id="edge97" class="edge">
<title>Node43&#45;&gt;Node26</title>
<path fill="none" stroke="midnightblue" d="M567.75,-254.31C895.26,-250.51 2442.43,-231.49 2541.14,-210 2575.18,-202.59 2579.36,-187.52 2613.14,-179 2786.88,-135.16 2839.79,-168.9 3021.06,-142.95"/>
<polygon fill="midnightblue" stroke="midnightblue" points="3021.81,-146.38 3031.2,-141.46 3020.79,-139.46 3021.81,-146.38"/>
</g>
<!-- Node44 -->
<g id="node44" class="node">
<title>Node44</title>
<g id="a_node44"><a xlink:title=" ">
<polygon fill="white" stroke="#bfbfbf" points="484.64,-185 484.64,-204 549.64,-204 549.64,-185 484.64,-185"/>
<text text-anchor="middle" x="517.14" y="-192" font-family="Helvetica,sans-Serif" font-size="10.00">exception</text>
</a>
</g>
</g>
<!-- Node43&#45;&gt;Node44 -->
<g id="edge96" class="edge">
<title>Node43&#45;&gt;Node44</title>
<path fill="none" stroke="midnightblue" d="M508.57,-246.48C509.99,-238.08 512.19,-224.98 514.01,-214.16"/>
<polygon fill="midnightblue" stroke="midnightblue" points="517.51,-214.45 515.71,-204.01 510.6,-213.29 517.51,-214.45"/>
</g>
<!-- Node43&#45;&gt;Node45 -->
<g id="edge98" class="edge">
<title>Node43&#45;&gt;Node45</title>
<path fill="none" stroke="midnightblue" d="M520.04,-246.48C534.61,-236.84 558.54,-221.02 575.89,-209.55"/>
<polygon fill="midnightblue" stroke="midnightblue" points="577.86,-212.44 584.27,-204.01 574,-206.6 577.86,-212.44"/>
</g>
<!-- Node46&#45;&gt;Node7 -->
<g id="edge105" class="edge">
<title>Node46&#45;&gt;Node7</title>
<path fill="none" stroke="midnightblue" d="M2532.65,-187.59C2559.97,-184.82 2593.25,-181.57 2623.14,-179 2730.8,-169.74 3051.74,-146.97 3181.15,-137.86"/>
<polygon fill="midnightblue" stroke="midnightblue" points="3181.5,-141.34 3191.23,-137.15 3181.01,-134.36 3181.5,-141.34"/>
</g>
<!-- Node46&#45;&gt;Node14 -->
<g id="edge106" class="edge">
<title>Node46&#45;&gt;Node14</title>
<path fill="none" stroke="midnightblue" d="M2419.37,-191.57C2334.63,-187.62 2180.35,-176 2137.14,-143 2120.74,-130.47 2112.85,-107.42 2109.16,-91.09"/>
<polygon fill="midnightblue" stroke="midnightblue" points="2112.56,-90.23 2107.24,-81.07 2105.69,-91.55 2112.56,-90.23"/>
</g>
<!-- Node46&#45;&gt;Node17 -->
<g id="edge107" class="edge">
<title>Node46&#45;&gt;Node17</title>
<path fill="none" stroke="midnightblue" d="M2532.81,-181.05C2590.65,-168.08 2672.59,-148.84 2677.14,-143 2701.18,-112.18 2641.82,-90.45 2602.21,-79.86"/>
<polygon fill="midnightblue" stroke="midnightblue" points="2602.94,-76.43 2592.39,-77.35 2601.21,-83.22 2602.94,-76.43"/>
</g>
<!-- Node46&#45;&gt;Node22 -->
<g id="edge103" class="edge">
<title>Node46&#45;&gt;Node22</title>
<path fill="none" stroke="midnightblue" d="M2419.39,-192.47C2276.25,-189.37 1903.49,-178.09 1785.14,-143 1743.95,-130.79 1701.24,-103.88 1677.04,-87.06"/>
<polygon fill="midnightblue" stroke="midnightblue" points="1678.9,-84.09 1668.72,-81.16 1674.86,-89.8 1678.9,-84.09"/>
</g>
<!-- Node47 -->
<g id="node47" class="node">
<title>Node47</title>
<g id="a_node47"><a xlink:title=" ">
<polygon fill="white" stroke="#bfbfbf" points="2472.64,-123.5 2472.64,-142.5 2549.64,-142.5 2549.64,-123.5 2472.64,-123.5"/>
<text text-anchor="middle" x="2511.14" y="-130.5" font-family="Helvetica,sans-Serif" font-size="10.00">tvm/ffi/any.h</text>
</a>
</g>
</g>
<!-- Node46&#45;&gt;Node47 -->
<g id="edge102" class="edge">
<title>Node46&#45;&gt;Node47</title>
<path fill="none" stroke="midnightblue" d="M2484.44,-179.4C2489.37,-171.02 2495.66,-160.33 2500.89,-151.42"/>
<polygon fill="midnightblue" stroke="midnightblue" points="2504,-153.05 2506.05,-142.66 2497.96,-149.5 2504,-153.05"/>
</g>
<!-- Node48 -->
<g id="node48" class="node">
<title>Node48</title>
<g id="a_node48"><a xlink:title=" ">
<polygon fill="white" stroke="#bfbfbf" points="2567.64,-123.5 2567.64,-142.5 2668.64,-142.5 2668.64,-123.5 2567.64,-123.5"/>
<text text-anchor="middle" x="2618.14" y="-130.5" font-family="Helvetica,sans-Serif" font-size="10.00">tvm/ffi/optional.h</text>
</a>
</g>
</g>
<!-- Node46&#45;&gt;Node48 -->
<g id="edge104" class="edge">
<title>Node46&#45;&gt;Node48</title>
<path fill="none" stroke="midnightblue" d="M2509.79,-179.4C2533.62,-169.42 2565.29,-156.15 2588.23,-146.53"/>
<polygon fill="midnightblue" stroke="midnightblue" points="2589.61,-149.75 2597.48,-142.66 2586.9,-143.29 2589.61,-149.75"/>
</g>
<!-- Node49&#45;&gt;Node6 -->
<g id="edge110" class="edge">
<title>Node49&#45;&gt;Node6</title>
<path fill="none" stroke="midnightblue" d="M1363.55,-246.7C1366.45,-246.44 1369.32,-246.21 1372.14,-246 1890.54,-207.79 2026.83,-285.32 2541.14,-210 2689.94,-188.21 2720.08,-149.35 2868.14,-123 3043.3,-91.83 3253.7,-79.25 3354.54,-74.74"/>
<polygon fill="midnightblue" stroke="midnightblue" points="3354.99,-78.22 3364.83,-74.29 3354.69,-71.23 3354.99,-78.22"/>
</g>
<!-- Node49&#45;&gt;Node10 -->
<g id="edge125" class="edge">
<title>Node49&#45;&gt;Node10</title>
<path fill="none" stroke="midnightblue" d="M1227.05,-247.79C1161.34,-240.03 1067.13,-226.54 1034.14,-210 975.12,-180.41 923.72,-118.82 901.23,-89.17"/>
<polygon fill="midnightblue" stroke="midnightblue" points="903.97,-87 895.2,-81.06 898.36,-91.17 903.97,-87"/>
</g>
<!-- Node49&#45;&gt;Node13 -->
<g id="edge109" class="edge">
<title>Node49&#45;&gt;Node13</title>
<path fill="none" stroke="midnightblue" d="M1363.33,-246.85C1468.37,-234.27 1657.92,-211.38 1659.14,-210 1668.27,-199.68 1667.97,-189.57 1659.14,-179 1601.52,-110.02 1545.82,-170.18 1460.14,-143 1440.05,-136.63 1436.54,-131.24 1417.14,-123 1384.32,-109.06 1346.22,-94.56 1319.61,-84.69"/>
<polygon fill="midnightblue" stroke="midnightblue" points="1320.59,-81.32 1310,-81.15 1318.17,-87.89 1320.59,-81.32"/>
</g>
<!-- Node49&#45;&gt;Node14 -->
<g id="edge122" class="edge">
<title>Node49&#45;&gt;Node14</title>
<path fill="none" stroke="midnightblue" d="M1363.35,-247.02C1473.1,-234.17 1676.75,-210.29 1677.14,-210 1710.77,-184.81 1680.42,-148.07 1714.14,-123 1772.63,-79.51 1968.22,-98.84 2040.14,-87 2046.83,-85.9 2053.86,-84.56 2060.74,-83.14"/>
<polygon fill="midnightblue" stroke="midnightblue" points="2061.6,-86.53 2070.65,-81.02 2060.14,-79.69 2061.6,-86.53"/>
</g>
<!-- Node49&#45;&gt;Node18 -->
<g id="edge126" class="edge">
<title>Node49&#45;&gt;Node18</title>
<path fill="none" stroke="midnightblue" d="M1227.14,-252.96C1104,-248.62 854.11,-236.62 825.14,-210 792.03,-179.57 793.76,-121.14 797.24,-91.2"/>
<polygon fill="midnightblue" stroke="midnightblue" points="800.71,-91.61 798.59,-81.23 793.77,-90.67 800.71,-91.61"/>
</g>
<!-- Node49&#45;&gt;Node33 -->
<g id="edge124" class="edge">
<title>Node49&#45;&gt;Node33</title>
<path fill="none" stroke="midnightblue" d="M1226.77,-253.08C1123.67,-249.33 922.54,-238.72 754.14,-210 700.27,-200.81 688.66,-190.07 635.14,-179 553.99,-162.22 458.98,-148.7 399.92,-141.01"/>
<polygon fill="midnightblue" stroke="midnightblue" points="400.04,-137.49 389.68,-139.68 399.15,-144.44 400.04,-137.49"/>
</g>
<!-- Node49&#45;&gt;Node38 -->
<g id="edge111" class="edge">
<title>Node49&#45;&gt;Node38</title>
<path fill="none" stroke="midnightblue" d="M1236.97,-246.48C1162.06,-235.5 1032.24,-216.47 954.15,-205.03"/>
<polygon fill="midnightblue" stroke="midnightblue" points="954.35,-201.52 943.95,-203.53 953.34,-208.45 954.35,-201.52"/>
</g>
<!-- Node49&#45;&gt;Node45 -->
<g id="edge123" class="edge">
<title>Node49&#45;&gt;Node45</title>
<path fill="none" stroke="midnightblue" d="M1226.87,-250.66C1118.5,-243.56 900.49,-228.39 716.14,-210 689.56,-207.35 659.72,-203.71 636.57,-200.74"/>
<polygon fill="midnightblue" stroke="midnightblue" points="636.81,-197.24 626.44,-199.43 635.91,-204.19 636.81,-197.24"/>
</g>
<!-- Node50 -->
<g id="node50" class="node">
<title>Node50</title>
<g id="a_node50"><a xlink:href="config__schema_8h.html" target="_top" xlink:title="Minimal schema for dynamic config canonicalization and validation.">
<polygon fill="white" stroke="black" points="1519.64,-185 1519.64,-204 1650.64,-204 1650.64,-185 1519.64,-185"/>
<text text-anchor="middle" x="1585.14" y="-192" font-family="Helvetica,sans-Serif" font-size="10.00">tvm/ir/config_schema.h</text>
</a>
</g>
</g>
<!-- Node49&#45;&gt;Node50 -->
<g id="edge112" class="edge">
<title>Node49&#45;&gt;Node50</title>
<path fill="none" stroke="midnightblue" d="M1336.69,-246.48C1388.59,-235.83 1477.38,-217.61 1533.57,-206.08"/>
<polygon fill="midnightblue" stroke="midnightblue" points="1534.58,-209.45 1543.67,-204.01 1533.17,-202.59 1534.58,-209.45"/>
</g>
<!-- Node50&#45;&gt;Node6 -->
<g id="edge115" class="edge">
<title>Node50&#45;&gt;Node6</title>
<path fill="none" stroke="midnightblue" d="M1651.04,-189.34C1773.47,-181.45 2044.32,-163.3 2272.14,-143 2357.16,-135.43 2378.05,-129.71 2463.14,-123 2799.96,-96.44 3205.01,-80.11 3354.75,-74.59"/>
<polygon fill="midnightblue" stroke="midnightblue" points="3355.22,-78.08 3365.09,-74.22 3354.97,-71.08 3355.22,-78.08"/>
</g>
<!-- Node50&#45;&gt;Node10 -->
<g id="edge120" class="edge">
<title>Node50&#45;&gt;Node10</title>
<path fill="none" stroke="midnightblue" d="M1538.25,-185C1459.76,-170.77 1309.97,-143.6 1307.14,-143 1270.02,-135.16 1261.38,-130.28 1224.14,-123 1114.14,-101.5 982.29,-84.03 922.06,-76.5"/>
<polygon fill="midnightblue" stroke="midnightblue" points="922.36,-73.01 912.01,-75.25 921.5,-79.96 922.36,-73.01"/>
</g>
<!-- Node50&#45;&gt;Node13 -->
<g id="edge114" class="edge">
<title>Node50&#45;&gt;Node13</title>
<path fill="none" stroke="midnightblue" d="M1539.63,-184.96C1467.47,-171.36 1334.47,-145.98 1330.14,-143 1311.64,-130.23 1299.35,-106.87 1292.58,-90.56"/>
<polygon fill="midnightblue" stroke="midnightblue" points="1295.77,-89.11 1288.91,-81.04 1289.24,-91.63 1295.77,-89.11"/>
</g>
<!-- Node50&#45;&gt;Node17 -->
<g id="edge117" class="edge">
<title>Node50&#45;&gt;Node17</title>
<path fill="none" stroke="midnightblue" d="M1650.65,-189.7C1742.84,-183.65 1915.85,-169.66 2061.14,-143 2095.5,-136.69 2102.82,-129.48 2137.14,-123 2285.34,-95 2465.18,-79.99 2537.61,-74.72"/>
<polygon fill="midnightblue" stroke="midnightblue" points="2538.17,-78.19 2547.89,-73.98 2537.67,-71.2 2538.17,-78.19"/>
</g>
<!-- Node50&#45;&gt;Node18 -->
<g id="edge121" class="edge">
<title>Node50&#45;&gt;Node18</title>
<path fill="none" stroke="midnightblue" d="M1540.36,-184.96C1528.9,-182.89 1516.58,-180.77 1505.14,-179 1380.71,-159.77 1343.28,-183.75 1224.14,-143 1207.55,-137.33 1206.79,-128.51 1190.14,-123 1048.82,-76.21 1003.64,-113.42 857.14,-87 849.46,-85.61 841.27,-83.76 833.58,-81.85"/>
<polygon fill="midnightblue" stroke="midnightblue" points="834.39,-78.44 823.83,-79.32 832.63,-85.22 834.39,-78.44"/>
</g>
<!-- Node50&#45;&gt;Node24 -->
<g id="edge118" class="edge">
<title>Node50&#45;&gt;Node24</title>
<path fill="none" stroke="midnightblue" d="M1540.9,-185C1471.93,-171.64 1346.28,-146.86 1343.14,-143 1294.88,-83.63 1440.73,-73.59 1518.18,-72.33"/>
<polygon fill="midnightblue" stroke="midnightblue" points="1518.67,-75.83 1528.63,-72.21 1518.59,-68.83 1518.67,-75.83"/>
</g>
<!-- Node50&#45;&gt;Node29 -->
<g id="edge113" class="edge">
<title>Node50&#45;&gt;Node29</title>
<path fill="none" stroke="midnightblue" d="M1540.79,-184.94C1529.21,-182.85 1516.73,-180.72 1505.14,-179 1489.88,-176.74 1300.56,-155.04 1191.78,-142.62"/>
<polygon fill="midnightblue" stroke="midnightblue" points="1192.17,-139.15 1181.83,-141.49 1191.37,-146.1 1192.17,-139.15"/>
</g>
<!-- Node50&#45;&gt;Node33 -->
<g id="edge119" class="edge">
<title>Node50&#45;&gt;Node33</title>
<path fill="none" stroke="midnightblue" d="M1519.23,-187.93C1482.69,-184.97 1436.42,-181.46 1395.14,-179 1015.63,-156.41 558.45,-140.82 400.26,-135.77"/>
<polygon fill="midnightblue" stroke="midnightblue" points="399.94,-132.26 389.83,-135.44 399.72,-139.26 399.94,-132.26"/>
</g>
<!-- Node51 -->
<g id="node51" class="node">
<title>Node51</title>
<g id="a_node51"><a xlink:title=" ">
<polygon fill="white" stroke="#bfbfbf" points="1352.14,-123.5 1352.14,-142.5 1408.14,-142.5 1408.14,-123.5 1352.14,-123.5"/>
<text text-anchor="middle" x="1380.14" y="-130.5" font-family="Helvetica,sans-Serif" font-size="10.00">sstream</text>
</a>
</g>
</g>
<!-- Node50&#45;&gt;Node51 -->
<g id="edge116" class="edge">
<title>Node50&#45;&gt;Node51</title>
<path fill="none" stroke="midnightblue" d="M1555.77,-184.98C1519.44,-174.43 1457.52,-156.46 1417.75,-144.92"/>
<polygon fill="midnightblue" stroke="midnightblue" points="1418.72,-141.55 1408.14,-142.13 1416.77,-148.28 1418.72,-141.55"/>
</g>
<!-- Node52&#45;&gt;Node4 -->
<g id="edge133" class="edge">
<title>Node52&#45;&gt;Node4</title>
<path fill="none" stroke="midnightblue" d="M2904.51,-246.48C2880.02,-236.36 2839,-219.4 2811.03,-207.85"/>
<polygon fill="midnightblue" stroke="midnightblue" points="2812.31,-204.59 2801.74,-204.01 2809.64,-211.06 2812.31,-204.59"/>
</g>
<!-- Node52&#45;&gt;Node6 -->
<g id="edge132" class="edge">
<title>Node52&#45;&gt;Node6</title>
<path fill="none" stroke="midnightblue" d="M2925.03,-246.28C2925.36,-230.15 2928.57,-195.81 2949.14,-179 3008.15,-130.79 3217.6,-166.32 3290.14,-143 3299.84,-139.88 3348.29,-111.65 3381.68,-91.88"/>
<polygon fill="midnightblue" stroke="midnightblue" points="3383.84,-94.66 3390.65,-86.55 3380.26,-88.64 3383.84,-94.66"/>
</g>
<!-- Node52&#45;&gt;Node11 -->
<g id="edge134" class="edge">
<title>Node52&#45;&gt;Node11</title>
<path fill="none" stroke="midnightblue" d="M2884.96,-252.88C2780.2,-247.14 2500.55,-230.32 2410.14,-210 2344.53,-195.25 2271.55,-164.52 2232.82,-146.99"/>
<polygon fill="midnightblue" stroke="midnightblue" points="2233.84,-143.6 2223.29,-142.62 2230.93,-149.97 2233.84,-143.6"/>
</g>
<!-- Node52&#45;&gt;Node12 -->
<g id="edge131" class="edge">
<title>Node52&#45;&gt;Node12</title>
<path fill="none" stroke="midnightblue" d="M2965.18,-246.86C3110.14,-217.4 3607.6,-116.3 3770.81,-83.14"/>
<polygon fill="midnightblue" stroke="midnightblue" points="3771.97,-86.47 3781.07,-81.05 3770.57,-79.61 3771.97,-86.47"/>
</g>
<!-- Node52&#45;&gt;Node17 -->
<g id="edge136" class="edge">
<title>Node52&#45;&gt;Node17</title>
<path fill="none" stroke="midnightblue" d="M2919.58,-246.36C2910.45,-230.97 2894.84,-198.59 2911.14,-179 2968.82,-109.69 3166.84,-189.68 3106.14,-123 3072.12,-85.62 2712.95,-75.36 2602.36,-73.07"/>
<polygon fill="midnightblue" stroke="midnightblue" points="2602.23,-69.57 2592.17,-72.87 2602.09,-76.57 2602.23,-69.57"/>
</g>
<!-- Node52&#45;&gt;Node19 -->
<g id="edge135" class="edge">
<title>Node52&#45;&gt;Node19</title>
<path fill="none" stroke="midnightblue" d="M2885.02,-253.36C2766.63,-248.31 2420.11,-232 2309.14,-210 2265.99,-201.44 2257.71,-190.1 2215.14,-179 2159.11,-164.39 2094.34,-152.21 2047.5,-144.22"/>
<polygon fill="midnightblue" stroke="midnightblue" points="2047.93,-140.75 2037.49,-142.53 2046.77,-147.65 2047.93,-140.75"/>
</g>
<!-- Node52&#45;&gt;Node53 -->
<g id="edge130" class="edge">
<title>Node52&#45;&gt;Node53</title>
<path fill="none" stroke="midnightblue" d="M2940.47,-246.48C2958.11,-236.67 2987.3,-220.43 3008,-208.92"/>
<polygon fill="midnightblue" stroke="midnightblue" points="3009.8,-211.93 3016.84,-204.01 3006.4,-205.81 3009.8,-211.93"/>
</g>
<!-- Node55&#45;&gt;Node10 -->
<g id="edge152" class="edge">
<title>Node55&#45;&gt;Node10</title>
<path fill="none" stroke="midnightblue" d="M2508.11,-531.56C2266.07,-517.41 1362.38,-457.97 631.14,-322 461.7,-290.49 352.44,-302.5 287.14,-143 283.77,-134.77 281.07,-129.49 287.14,-123 328.62,-78.7 772.21,-96.52 832.14,-87 840.23,-85.72 848.84,-83.81 856.85,-81.81"/>
<polygon fill="midnightblue" stroke="midnightblue" points="857.81,-85.17 866.6,-79.25 856.04,-78.4 857.81,-85.17"/>
</g>
<!-- Node55&#45;&gt;Node17 -->
<g id="edge151" class="edge">
<title>Node55&#45;&gt;Node17</title>
<path fill="none" stroke="midnightblue" d="M2518.61,-526.43C2483.35,-519.42 2436.13,-507.73 2397.14,-490 2309.69,-450.23 2272.88,-417.35 2261.14,-322 2247.77,-213.39 2308.27,-171.95 2406.14,-123 2449.61,-101.26 2504.27,-86.72 2538.21,-79.03"/>
<polygon fill="midnightblue" stroke="midnightblue" points="2539.03,-82.44 2548.04,-76.87 2537.52,-75.6 2539.03,-82.44"/>
</g>
<!-- Node55&#45;&gt;Node39 -->
<g id="edge144" class="edge">
<title>Node55&#45;&gt;Node39</title>
<path fill="none" stroke="midnightblue" d="M2577.74,-526.08C2584.37,-518.3 2594.16,-506.8 2602.2,-497.37"/>
<polygon fill="midnightblue" stroke="midnightblue" points="2604.87,-499.63 2608.69,-489.75 2599.54,-495.09 2604.87,-499.63"/>
</g>
<!-- Node56 -->
<g id="node56" class="node">
<title>Node56</title>
<g id="a_node56"><a xlink:title=" ">
<polygon fill="white" stroke="#bfbfbf" points="2406.14,-470.5 2406.14,-489.5 2550.14,-489.5 2550.14,-470.5 2406.14,-470.5"/>
<text text-anchor="middle" x="2478.14" y="-477.5" font-family="Helvetica,sans-Serif" font-size="10.00">tvm/ffi/container/variant.h</text>
</a>
</g>
</g>
<!-- Node55&#45;&gt;Node56 -->
<g id="edge143" class="edge">
<title>Node55&#45;&gt;Node56</title>
<path fill="none" stroke="midnightblue" d="M2555.36,-526.32C2540.87,-517.82 2518.57,-504.73 2501.65,-494.8"/>
<polygon fill="midnightblue" stroke="midnightblue" points="2503.28,-491.7 2492.89,-489.65 2499.74,-497.74 2503.28,-491.7"/>
</g>
<!-- Node55&#45;&gt;Node57 -->
<g id="edge145" class="edge">
<title>Node55&#45;&gt;Node57</title>
<path fill="none" stroke="midnightblue" d="M2620.47,-526.49C2701.82,-512 2866.68,-479.62 3001.14,-434 3043.89,-419.49 3091.2,-396.77 3119.53,-382.39"/>
<polygon fill="midnightblue" stroke="midnightblue" points="3121.42,-385.36 3128.72,-377.68 3118.22,-379.13 3121.42,-385.36"/>
</g>
<!-- Node57&#45;&gt;Node4 -->
<g id="edge147" class="edge">
<title>Node57&#45;&gt;Node4</title>
<path fill="none" stroke="midnightblue" d="M3114.08,-358.43C3062.7,-343.59 2957.62,-310.39 2876.14,-266 2847.16,-250.21 2817.13,-226.46 2798.78,-210.97"/>
<polygon fill="midnightblue" stroke="midnightblue" points="2800.64,-207.95 2790.78,-204.1 2796.09,-213.27 2800.64,-207.95"/>
</g>
<!-- Node57&#45;&gt;Node8 -->
<g id="edge146" class="edge">
<title>Node57&#45;&gt;Node8</title>
<path fill="none" stroke="midnightblue" d="M3171.04,-358.39C3190.35,-351.01 3216.49,-338.88 3235.14,-322 3264.76,-295.19 3259.67,-278.32 3283.14,-246 3308.97,-210.44 3342.63,-171.5 3361.56,-150.19"/>
<polygon fill="midnightblue" stroke="midnightblue" points="3364.21,-152.47 3368.26,-142.69 3358.99,-147.81 3364.21,-152.47"/>
</g>
<!-- Node57&#45;&gt;Node17 -->
<g id="edge150" class="edge">
<title>Node57&#45;&gt;Node17</title>
<path fill="none" stroke="midnightblue" d="M3178.15,-358.4C3201.66,-351.21 3233.21,-339.32 3257.14,-322 3292.92,-296.11 3291.28,-278.53 3321.14,-246 3364.92,-198.31 3399.37,-202.81 3424.14,-143 3427.54,-134.79 3430.24,-129.47 3424.14,-123 3395.42,-92.52 2754.18,-76.55 2602.22,-73.18"/>
<polygon fill="midnightblue" stroke="midnightblue" points="2602.22,-69.68 2592.14,-72.96 2602.06,-76.68 2602.22,-69.68"/>
</g>
<!-- Node57&#45;&gt;Node19 -->
<g id="edge148" class="edge">
<title>Node57&#45;&gt;Node19</title>
<path fill="none" stroke="midnightblue" d="M3103.44,-362.22C2971.73,-346.63 2553.36,-293.45 2215.14,-210 2142.42,-192.06 2059.53,-162.67 2015.18,-146.19"/>
<polygon fill="midnightblue" stroke="midnightblue" points="2016.13,-142.81 2005.54,-142.58 2013.68,-149.36 2016.13,-142.81"/>
</g>
<!-- Node57&#45;&gt;Node26 -->
<g id="edge149" class="edge">
<title>Node57&#45;&gt;Node26</title>
<path fill="none" stroke="midnightblue" d="M3142.43,-358.32C3133.99,-331.48 3107.3,-247.5 3082.14,-179 3078.84,-170 3074.91,-160.1 3071.57,-151.89"/>
<polygon fill="midnightblue" stroke="midnightblue" points="3074.78,-150.49 3067.74,-142.57 3068.3,-153.15 3074.78,-150.49"/>
</g>
</g>
</svg>
