<?xml version="1.0" encoding="UTF-8" standalone="no"?>
<!DOCTYPE svg PUBLIC "-//W3C//DTD SVG 1.1//EN"
 "http://www.w3.org/Graphics/SVG/1.1/DTD/svg11.dtd">
<!-- Generated by graphviz version 2.43.0 (0)
 -->
<!-- Title: include/tvm/arith/iter_affine_map.h Pages: 1 -->
<svg width="3753pt" height="957pt"
 viewBox="0.00 0.00 3753.00 957.00" xmlns="http://www.w3.org/2000/svg" xmlns:xlink="http://www.w3.org/1999/xlink">
<g id="graph0" class="graph" transform="scale(1 1) rotate(0) translate(4 953)">
<title>include/tvm/arith/iter_affine_map.h</title>
<polygon fill="white" stroke="transparent" points="-4,4 -4,-953 3749,-953 3749,4 -4,4"/>
<!-- Node1 -->
<g id="node1" class="node">
<title>Node1</title>
<g id="a_node1"><a xlink:title="Iterator quasi&#45;affine mapping patterns.">
<polygon fill="#bfbfbf" stroke="black" points="3418.5,-918.5 3418.5,-948.5 3537.5,-948.5 3537.5,-918.5 3418.5,-918.5"/>
<text text-anchor="start" x="3426.5" y="-936.5" font-family="Helvetica,sans-Serif" font-size="10.00">include/tvm/arith/iter</text>
<text text-anchor="middle" x="3478" y="-925.5" font-family="Helvetica,sans-Serif" font-size="10.00">_affine_map.h</text>
</a>
</g>
</g>
<!-- Node2 -->
<g id="node2" class="node">
<title>Node2</title>
<g id="a_node2"><a xlink:href="analyzer_8h.html" target="_top" xlink:title="Algebra expression simplifications.">
<polygon fill="white" stroke="black" points="909.5,-862.5 909.5,-881.5 1024.5,-881.5 1024.5,-862.5 909.5,-862.5"/>
<text text-anchor="middle" x="967" y="-869.5" font-family="Helvetica,sans-Serif" font-size="10.00">tvm/arith/analyzer.h</text>
</a>
</g>
</g>
<!-- Node1&#45;&gt;Node2 -->
<g id="edge1" class="edge">
<title>Node1&#45;&gt;Node2</title>
<path fill="none" stroke="midnightblue" d="M3418.41,-931.09C3079.2,-923.05 1394.42,-883.13 1034.66,-874.6"/>
<polygon fill="midnightblue" stroke="midnightblue" points="1034.74,-871.1 1024.66,-874.37 1034.57,-878.1 1034.74,-871.1"/>
</g>
<!-- Node4 -->
<g id="node4" class="node">
<title>Node4</title>
<g id="a_node4"><a xlink:href="ir_2expr_8h.html" target="_top" xlink:title="Base expr nodes in TVM.">
<polygon fill="white" stroke="black" points="2817.5,-241 2817.5,-260 2896.5,-260 2896.5,-241 2817.5,-241"/>
<text text-anchor="middle" x="2857" y="-248" font-family="Helvetica,sans-Serif" font-size="10.00">tvm/ir/expr.h</text>
</a>
</g>
</g>
<!-- Node1&#45;&gt;Node4 -->
<g id="edge184" class="edge">
<title>Node1&#45;&gt;Node4</title>
<path fill="none" stroke="midnightblue" d="M3495.25,-918.43C3517.67,-898.44 3554,-859.49 3554,-817 3554,-817 3554,-817 3554,-703 3554,-514.16 3477.5,-437.04 3306,-358 3169.45,-295.07 2991.8,-267.17 2906.7,-256.76"/>
<polygon fill="midnightblue" stroke="midnightblue" points="2906.89,-253.26 2896.55,-255.55 2906.06,-260.21 2906.89,-253.26"/>
</g>
<!-- Node6 -->
<g id="node6" class="node">
<title>Node6</title>
<g id="a_node6"><a xlink:title=" ">
<polygon fill="white" stroke="#bfbfbf" points="3319,-56.5 3319,-86.5 3417,-86.5 3417,-56.5 3319,-56.5"/>
<text text-anchor="start" x="3327" y="-74.5" font-family="Helvetica,sans-Serif" font-size="10.00">tvm/ffi/reflection</text>
<text text-anchor="middle" x="3368" y="-63.5" font-family="Helvetica,sans-Serif" font-size="10.00">/registry.h</text>
</a>
</g>
</g>
<!-- Node1&#45;&gt;Node6 -->
<g id="edge182" class="edge">
<title>Node1&#45;&gt;Node6</title>
<path fill="none" stroke="midnightblue" d="M3537.59,-931.89C3616.28,-927.56 3745,-906.77 3745,-817 3745,-817 3745,-817 3745,-188 3745,-122.41 3533.78,-90.3 3427.54,-78.3"/>
<polygon fill="midnightblue" stroke="midnightblue" points="3427.61,-74.78 3417.29,-77.16 3426.84,-81.74 3427.61,-74.78"/>
</g>
<!-- Node16 -->
<g id="node16" class="node">
<title>Node16</title>
<g id="a_node16"><a xlink:href="cow_8h.html" target="_top" xlink:title="Copy&#45;on&#45;write helper macro for IR ffi::ObjectRef types.">
<polygon fill="white" stroke="black" points="1999.5,-179.5 1999.5,-198.5 2076.5,-198.5 2076.5,-179.5 1999.5,-179.5"/>
<text text-anchor="middle" x="2038" y="-186.5" font-family="Helvetica,sans-Serif" font-size="10.00">tvm/ir/cow.h</text>
</a>
</g>
</g>
<!-- Node1&#45;&gt;Node16 -->
<g id="edge183" class="edge">
<title>Node1&#45;&gt;Node16</title>
<path fill="none" stroke="midnightblue" d="M3438.01,-918.4C3397.57,-901.27 3341,-868.18 3341,-817 3341,-817 3341,-817 3341,-759 3341,-556.42 2645.27,-591.58 2470,-490 2339.74,-414.51 2378.67,-308.01 2247,-235 2196.82,-207.17 2131.02,-196.54 2086.77,-192.49"/>
<polygon fill="midnightblue" stroke="midnightblue" points="2086.82,-188.98 2076.56,-191.64 2086.24,-195.96 2086.82,-188.98"/>
</g>
<!-- Node58 -->
<g id="node58" class="node">
<title>Node58</title>
<g id="a_node58"><a xlink:href="var_8h.html" target="_top" xlink:title="Variables in the TIR.">
<polygon fill="white" stroke="black" points="3001.5,-414.5 3001.5,-433.5 3084.5,-433.5 3084.5,-414.5 3001.5,-414.5"/>
<text text-anchor="middle" x="3043" y="-421.5" font-family="Helvetica,sans-Serif" font-size="10.00">tvm/tirx/var.h</text>
</a>
</g>
</g>
<!-- Node1&#45;&gt;Node58 -->
<g id="edge185" class="edge">
<title>Node1&#45;&gt;Node58</title>
<path fill="none" stroke="midnightblue" d="M3472.87,-918.24C3458.49,-879.45 3414.86,-769.91 3355,-694 3264.37,-579.06 3119.24,-475.97 3064.68,-439.25"/>
<polygon fill="midnightblue" stroke="midnightblue" points="3066.4,-436.19 3056.14,-433.55 3062.52,-442.02 3066.4,-436.19"/>
</g>
<!-- Node3 -->
<g id="node3" class="node">
<title>Node3</title>
<g id="a_node3"><a xlink:href="int__set_8h.html" target="_top" xlink:title="Integer set.">
<polygon fill="white" stroke="black" points="1733.5,-806.5 1733.5,-825.5 1840.5,-825.5 1840.5,-806.5 1733.5,-806.5"/>
<text text-anchor="middle" x="1787" y="-813.5" font-family="Helvetica,sans-Serif" font-size="10.00">tvm/arith/int_set.h</text>
</a>
</g>
</g>
<!-- Node2&#45;&gt;Node3 -->
<g id="edge2" class="edge">
<title>Node2&#45;&gt;Node3</title>
<path fill="none" stroke="midnightblue" d="M1024.66,-867.2C1173.17,-857.42 1567.99,-831.42 1723.13,-821.21"/>
<polygon fill="midnightblue" stroke="midnightblue" points="1723.69,-824.68 1733.44,-820.53 1723.23,-817.69 1723.69,-824.68"/>
</g>
<!-- Node2&#45;&gt;Node4 -->
<g id="edge175" class="edge">
<title>Node2&#45;&gt;Node4</title>
<path fill="none" stroke="midnightblue" d="M1024.54,-870.56C1380.03,-867.75 3263.76,-851.7 3317,-826 3379.83,-795.68 3417,-774.77 3417,-705 3417,-705 3417,-705 3417,-479 3417,-369.33 3043.68,-287.09 2906.66,-260.59"/>
<polygon fill="midnightblue" stroke="midnightblue" points="2907.3,-257.15 2896.82,-258.71 2905.99,-264.03 2907.3,-257.15"/>
</g>
<!-- Node2&#45;&gt;Node6 -->
<g id="edge173" class="edge">
<title>Node2&#45;&gt;Node6</title>
<path fill="none" stroke="midnightblue" d="M1024.75,-870.63C1380.66,-868.28 3264.86,-854.49 3383,-826 3446.96,-810.58 3516,-826.79 3516,-761 3516,-761 3516,-761 3516,-703 3516,-572.84 3707,-611.16 3707,-481 3707,-481 3707,-481 3707,-188 3707,-129.6 3524.46,-94.72 3427.28,-80.28"/>
<polygon fill="midnightblue" stroke="midnightblue" points="3427.69,-76.81 3417.29,-78.83 3426.68,-83.73 3427.69,-76.81"/>
</g>
<!-- Node7 -->
<g id="node7" class="node">
<title>Node7</title>
<g id="a_node7"><a xlink:title=" ">
<polygon fill="white" stroke="#bfbfbf" points="1132.5,-179.5 1132.5,-198.5 1221.5,-198.5 1221.5,-179.5 1132.5,-179.5"/>
<text text-anchor="middle" x="1177" y="-186.5" font-family="Helvetica,sans-Serif" font-size="10.00">tvm/ffi/string.h</text>
</a>
</g>
</g>
<!-- Node2&#45;&gt;Node7 -->
<g id="edge174" class="edge">
<title>Node2&#45;&gt;Node7</title>
<path fill="none" stroke="midnightblue" d="M909.36,-862.94C852.48,-851.35 774,-823.96 774,-761 774,-761 774,-761 774,-535 774,-377.22 945.73,-432.85 1058,-322 1092.73,-287.71 1091.49,-270.48 1125,-235 1135.12,-224.29 1147.57,-213.44 1157.75,-205.08"/>
<polygon fill="midnightblue" stroke="midnightblue" points="1160.08,-207.7 1165.67,-198.71 1155.68,-202.25 1160.08,-207.7"/>
</g>
<!-- Node10 -->
<g id="node10" class="node">
<title>Node10</title>
<g id="a_node10"><a xlink:title=" ">
<polygon fill="white" stroke="#bfbfbf" points="2265.5,-123.5 2265.5,-142.5 2346.5,-142.5 2346.5,-123.5 2265.5,-123.5"/>
<text text-anchor="middle" x="2306" y="-130.5" font-family="Helvetica,sans-Serif" font-size="10.00">tvm/ffi/cast.h</text>
</a>
</g>
</g>
<!-- Node2&#45;&gt;Node10 -->
<g id="edge172" class="edge">
<title>Node2&#45;&gt;Node10</title>
<path fill="none" stroke="midnightblue" d="M1024.52,-870.58C1356.63,-867.68 3020.6,-846.56 3201,-714 3402.67,-565.82 3139.85,-321.44 2905,-235 2730.43,-170.75 2669.76,-238.61 2488,-199 2431.82,-186.76 2369.29,-161.77 2334.09,-146.6"/>
<polygon fill="midnightblue" stroke="midnightblue" points="2335.48,-143.38 2324.92,-142.59 2332.68,-149.8 2335.48,-143.38"/>
</g>
<!-- Node15 -->
<g id="node15" class="node">
<title>Node15</title>
<g id="a_node15"><a xlink:title=" ">
<polygon fill="white" stroke="#bfbfbf" points="978.5,-62 978.5,-81 1023.5,-81 1023.5,-62 978.5,-62"/>
<text text-anchor="middle" x="1001" y="-69" font-family="Helvetica,sans-Serif" font-size="10.00">utility</text>
</a>
</g>
</g>
<!-- Node2&#45;&gt;Node15 -->
<g id="edge180" class="edge">
<title>Node2&#45;&gt;Node15</title>
<path fill="none" stroke="midnightblue" d="M909.44,-869.72C716.54,-864.69 105,-842.33 105,-761 105,-761 105,-761 105,-367 105,-246.93 192.21,-233.89 299,-179 341.96,-156.92 461.5,-131.72 509,-123 680,-91.63 888.28,-78.29 967.9,-74.09"/>
<polygon fill="midnightblue" stroke="midnightblue" points="968.45,-77.56 978.26,-73.55 968.09,-70.57 968.45,-77.56"/>
</g>
<!-- Node24 -->
<g id="node24" class="node">
<title>Node24</title>
<g id="a_node24"><a xlink:title=" ">
<polygon fill="white" stroke="#bfbfbf" points="620.5,-62 620.5,-81 667.5,-81 667.5,-62 620.5,-62"/>
<text text-anchor="middle" x="644" y="-69" font-family="Helvetica,sans-Serif" font-size="10.00">vector</text>
</a>
</g>
</g>
<!-- Node2&#45;&gt;Node24 -->
<g id="edge181" class="edge">
<title>Node2&#45;&gt;Node24</title>
<path fill="none" stroke="midnightblue" d="M909.27,-870.06C753.62,-867.15 327.81,-856.56 191,-826 115.29,-809.09 29,-838.58 29,-761 29,-761 29,-761 29,-311 29,-141.82 200.86,-180.42 360,-123 447,-91.61 556.28,-79.23 610.42,-74.77"/>
<polygon fill="midnightblue" stroke="midnightblue" points="610.79,-78.25 620.49,-73.98 610.24,-71.27 610.79,-78.25"/>
</g>
<!-- Node32 -->
<g id="node32" class="node">
<title>Node32</title>
<g id="a_node32"><a xlink:title=" ">
<polygon fill="white" stroke="#bfbfbf" points="3635,-179.5 3635,-198.5 3679,-198.5 3679,-179.5 3635,-179.5"/>
<text text-anchor="middle" x="3657" y="-186.5" font-family="Helvetica,sans-Serif" font-size="10.00">limits</text>
</a>
</g>
</g>
<!-- Node2&#45;&gt;Node32 -->
<g id="edge177" class="edge">
<title>Node2&#45;&gt;Node32</title>
<path fill="none" stroke="midnightblue" d="M1024.64,-870.97C1377.76,-870.67 3237.47,-867.12 3350,-826 3387.1,-812.44 3394.96,-801.34 3419,-770 3535.14,-618.63 3524.39,-555.64 3594,-378 3617.92,-316.96 3641.12,-242.68 3651.43,-208.65"/>
<polygon fill="midnightblue" stroke="midnightblue" points="3654.89,-209.31 3654.42,-198.73 3648.18,-207.3 3654.89,-209.31"/>
</g>
<!-- Node38 -->
<g id="node38" class="node">
<title>Node38</title>
<g id="a_node38"><a xlink:title=" ">
<polygon fill="white" stroke="#bfbfbf" points="325.5,-179.5 325.5,-198.5 418.5,-198.5 418.5,-179.5 325.5,-179.5"/>
<text text-anchor="middle" x="372" y="-186.5" font-family="Helvetica,sans-Serif" font-size="10.00">unordered_map</text>
</a>
</g>
</g>
<!-- Node2&#45;&gt;Node38 -->
<g id="edge179" class="edge">
<title>Node2&#45;&gt;Node38</title>
<path fill="none" stroke="midnightblue" d="M909.24,-868.58C733.79,-860.46 219,-830.69 219,-761 219,-761 219,-761 219,-311 219,-252.95 287.6,-218.39 332.93,-201.89"/>
<polygon fill="midnightblue" stroke="midnightblue" points="334.21,-205.15 342.5,-198.54 331.91,-198.54 334.21,-205.15"/>
</g>
<!-- Node48 -->
<g id="node48" class="node">
<title>Node48</title>
<g id="a_node48"><a xlink:href="with__context_8h.html" target="_top" xlink:title="RAII wrapper function to enter and exit a context object similar to python&#39;s with syntax.">
<polygon fill="white" stroke="black" points="513.5,-302.5 513.5,-321.5 634.5,-321.5 634.5,-302.5 513.5,-302.5"/>
<text text-anchor="middle" x="574" y="-309.5" font-family="Helvetica,sans-Serif" font-size="10.00">tvm/ir/with_context.h</text>
</a>
</g>
</g>
<!-- Node2&#45;&gt;Node48 -->
<g id="edge176" class="edge">
<title>Node2&#45;&gt;Node48</title>
<path fill="none" stroke="midnightblue" d="M909.33,-869.22C786.05,-863.83 508,-842.64 508,-761 508,-761 508,-761 508,-479 508,-421.04 543.17,-359.24 562.16,-330.1"/>
<polygon fill="midnightblue" stroke="midnightblue" points="565.25,-331.77 567.91,-321.52 559.44,-327.88 565.25,-331.77"/>
</g>
<!-- Node50 -->
<g id="node50" class="node">
<title>Node50</title>
<g id="a_node50"><a xlink:title=" ">
<polygon fill="white" stroke="#bfbfbf" points="597,-241 597,-260 655,-260 655,-241 597,-241"/>
<text text-anchor="middle" x="626" y="-248" font-family="Helvetica,sans-Serif" font-size="10.00">memory</text>
</a>
</g>
</g>
<!-- Node2&#45;&gt;Node50 -->
<g id="edge178" class="edge">
<title>Node2&#45;&gt;Node50</title>
<path fill="none" stroke="midnightblue" d="M909.25,-864.65C811.04,-852.22 622,-820.57 622,-761 622,-761 622,-761 622,-647 622,-502.25 638.33,-466.67 643,-322 643.29,-313.12 644.44,-310.77 643,-302 641.2,-290.99 637.32,-279.14 633.72,-269.7"/>
<polygon fill="midnightblue" stroke="midnightblue" points="636.89,-268.19 629.91,-260.22 630.39,-270.8 636.89,-268.19"/>
</g>
<!-- Node3&#45;&gt;Node4 -->
<g id="edge3" class="edge">
<title>Node3&#45;&gt;Node4</title>
<path fill="none" stroke="midnightblue" d="M1840.81,-815.15C2079.92,-815.27 3038.21,-809.74 3127,-714 3150.87,-688.26 3406.49,-931.89 3093,-414 3045.33,-335.24 2943.24,-285.43 2890.33,-263.87"/>
<polygon fill="midnightblue" stroke="midnightblue" points="2891.33,-260.5 2880.74,-260.06 2888.74,-267.01 2891.33,-260.5"/>
</g>
<!-- Node33 -->
<g id="node33" class="node">
<title>Node33</title>
<g id="a_node33"><a xlink:href="tirx_2expr_8h.html" target="_top" xlink:title="TIR expressions.">
<polygon fill="white" stroke="black" points="2152.5,-750.5 2152.5,-769.5 2241.5,-769.5 2241.5,-750.5 2152.5,-750.5"/>
<text text-anchor="middle" x="2197" y="-757.5" font-family="Helvetica,sans-Serif" font-size="10.00">tvm/tirx/expr.h</text>
</a>
</g>
</g>
<!-- Node3&#45;&gt;Node33 -->
<g id="edge47" class="edge">
<title>Node3&#45;&gt;Node33</title>
<path fill="none" stroke="midnightblue" d="M1840.6,-807.94C1918.81,-797.64 2063.45,-778.59 2142.29,-768.21"/>
<polygon fill="midnightblue" stroke="midnightblue" points="2143.04,-771.64 2152.5,-766.86 2142.13,-764.7 2143.04,-771.64"/>
</g>
<!-- Node3&#45;&gt;Node38 -->
<g id="edge171" class="edge">
<title>Node3&#45;&gt;Node38</title>
<path fill="none" stroke="midnightblue" d="M1733.28,-812.13C1563.54,-802.59 1040.53,-769.32 881,-714 769.63,-675.38 587.81,-512.65 511,-434 445.41,-366.84 419.33,-352.55 383,-266 375.28,-247.6 372.82,-224.74 372.12,-208.92"/>
<polygon fill="midnightblue" stroke="midnightblue" points="375.62,-208.72 371.86,-198.81 368.62,-208.9 375.62,-208.72"/>
</g>
<!-- Node5 -->
<g id="node5" class="node">
<title>Node5</title>
<g id="a_node5"><a xlink:title=" ">
<polygon fill="white" stroke="#bfbfbf" points="2905,-179.5 2905,-198.5 3041,-198.5 3041,-179.5 2905,-179.5"/>
<text text-anchor="middle" x="2973" y="-186.5" font-family="Helvetica,sans-Serif" font-size="10.00">tvm/ffi/extra/dataclass.h</text>
</a>
</g>
</g>
<!-- Node4&#45;&gt;Node5 -->
<g id="edge4" class="edge">
<title>Node4&#45;&gt;Node5</title>
<path fill="none" stroke="midnightblue" d="M2873.62,-240.98C2892.92,-231.08 2924.96,-214.64 2947.43,-203.12"/>
<polygon fill="midnightblue" stroke="midnightblue" points="2949.11,-206.19 2956.41,-198.51 2945.92,-199.96 2949.11,-206.19"/>
</g>
<!-- Node4&#45;&gt;Node6 -->
<g id="edge5" class="edge">
<title>Node4&#45;&gt;Node6</title>
<path fill="none" stroke="midnightblue" d="M2895.78,-240.99C2994.84,-219.1 3251.86,-161.27 3287,-143 3310.88,-130.58 3333.59,-109.75 3348.85,-93.94"/>
<polygon fill="midnightblue" stroke="midnightblue" points="3351.41,-96.32 3355.72,-86.64 3346.32,-91.53 3351.41,-96.32"/>
</g>
<!-- Node4&#45;&gt;Node7 -->
<g id="edge6" class="edge">
<title>Node4&#45;&gt;Node7</title>
<path fill="none" stroke="midnightblue" d="M2817.1,-246.67C2769.5,-243.39 2687.48,-238.04 2617,-235 2004.23,-208.54 1845.45,-258.23 1231.74,-199.03"/>
<polygon fill="midnightblue" stroke="midnightblue" points="1232.05,-195.54 1221.76,-198.06 1231.37,-202.51 1232.05,-195.54"/>
</g>
<!-- Node8 -->
<g id="node8" class="node">
<title>Node8</title>
<g id="a_node8"><a xlink:href="cast_8h.html" target="_top" xlink:title="Value casting helpers.">
<polygon fill="white" stroke="black" points="2497,-179.5 2497,-198.5 2575,-198.5 2575,-179.5 2497,-179.5"/>
<text text-anchor="middle" x="2536" y="-186.5" font-family="Helvetica,sans-Serif" font-size="10.00">tvm/ir/cast.h</text>
</a>
</g>
</g>
<!-- Node4&#45;&gt;Node8 -->
<g id="edge7" class="edge">
<title>Node4&#45;&gt;Node8</title>
<path fill="none" stroke="midnightblue" d="M2817.32,-242.14C2758.68,-231.28 2648.99,-210.94 2585.29,-199.14"/>
<polygon fill="midnightblue" stroke="midnightblue" points="2585.56,-195.63 2575.09,-197.25 2584.29,-202.51 2585.56,-195.63"/>
</g>
<!-- Node4&#45;&gt;Node16 -->
<g id="edge15" class="edge">
<title>Node4&#45;&gt;Node16</title>
<path fill="none" stroke="midnightblue" d="M2817.5,-246.63C2681.92,-236.78 2235.69,-204.36 2086.83,-193.55"/>
<polygon fill="midnightblue" stroke="midnightblue" points="2086.86,-190.04 2076.63,-192.81 2086.35,-197.02 2086.86,-190.04"/>
</g>
<!-- Node17 -->
<g id="node17" class="node">
<title>Node17</title>
<g id="a_node17"><a xlink:href="source__map_8h.html" target="_top" xlink:title="A map from source names to source code.">
<polygon fill="white" stroke="black" points="1787.5,-123.5 1787.5,-142.5 1904.5,-142.5 1904.5,-123.5 1787.5,-123.5"/>
<text text-anchor="middle" x="1846" y="-130.5" font-family="Helvetica,sans-Serif" font-size="10.00">tvm/ir/source_map.h</text>
</a>
</g>
</g>
<!-- Node4&#45;&gt;Node17 -->
<g id="edge18" class="edge">
<title>Node4&#45;&gt;Node17</title>
<path fill="none" stroke="midnightblue" d="M2817.38,-247.35C2719.6,-241.79 2459.04,-225.53 2243,-199 2120.1,-183.91 1977.02,-158.55 1900.66,-144.38"/>
<polygon fill="midnightblue" stroke="midnightblue" points="1901.25,-140.93 1890.78,-142.54 1899.97,-147.81 1901.25,-140.93"/>
</g>
<!-- Node23 -->
<g id="node23" class="node">
<title>Node23</title>
<g id="a_node23"><a xlink:title=" ">
<polygon fill="white" stroke="#bfbfbf" points="2252,-62 2252,-81 2296,-81 2296,-62 2252,-62"/>
<text text-anchor="middle" x="2274" y="-69" font-family="Helvetica,sans-Serif" font-size="10.00">string</text>
</a>
</g>
</g>
<!-- Node4&#45;&gt;Node23 -->
<g id="edge45" class="edge">
<title>Node4&#45;&gt;Node23</title>
<path fill="none" stroke="midnightblue" d="M2859.91,-240.77C2864.09,-226.45 2869.97,-197.71 2857,-179 2831.04,-141.55 2803.1,-160.44 2761,-143 2741.15,-134.78 2737.7,-128.73 2717,-123 2567.32,-81.57 2380.16,-74.06 2306.2,-72.75"/>
<polygon fill="midnightblue" stroke="midnightblue" points="2306.18,-69.25 2296.13,-72.6 2306.07,-76.25 2306.18,-69.25"/>
</g>
<!-- Node25 -->
<g id="node25" class="node">
<title>Node25</title>
<g id="a_node25"><a xlink:href="ir_2type_8h.html" target="_top" xlink:title="IR/AST nodes for the unified type system in TVM.">
<polygon fill="white" stroke="black" points="2285,-179.5 2285,-198.5 2365,-198.5 2365,-179.5 2285,-179.5"/>
<text text-anchor="middle" x="2325" y="-186.5" font-family="Helvetica,sans-Serif" font-size="10.00">tvm/ir/type.h</text>
</a>
</g>
</g>
<!-- Node4&#45;&gt;Node25 -->
<g id="edge28" class="edge">
<title>Node4&#45;&gt;Node25</title>
<path fill="none" stroke="midnightblue" d="M2817.45,-245.08C2722.25,-234.43 2480.47,-207.39 2375.22,-195.62"/>
<polygon fill="midnightblue" stroke="midnightblue" points="2375.5,-192.13 2365.18,-194.49 2374.72,-199.08 2375.5,-192.13"/>
</g>
<!-- Node29 -->
<g id="node29" class="node">
<title>Node29</title>
<g id="a_node29"><a xlink:title=" ">
<polygon fill="white" stroke="#bfbfbf" points="1679.5,-62 1679.5,-81 1748.5,-81 1748.5,-62 1679.5,-62"/>
<text text-anchor="middle" x="1714" y="-69" font-family="Helvetica,sans-Serif" font-size="10.00">type_traits</text>
</a>
</g>
</g>
<!-- Node4&#45;&gt;Node29 -->
<g id="edge46" class="edge">
<title>Node4&#45;&gt;Node29</title>
<path fill="none" stroke="midnightblue" d="M2817.23,-246.81C2703.91,-239.02 2380.82,-215.94 2276,-199 2238.11,-192.88 2229.4,-187.62 2192,-179 2032.74,-142.3 1843.13,-100.67 1758.55,-82.2"/>
<polygon fill="midnightblue" stroke="midnightblue" points="1759.05,-78.73 1748.53,-80.01 1757.55,-85.56 1759.05,-78.73"/>
</g>
<!-- Node30 -->
<g id="node30" class="node">
<title>Node30</title>
<g id="a_node30"><a xlink:title=" ">
<polygon fill="white" stroke="#bfbfbf" points="3173,-179.5 3173,-198.5 3237,-198.5 3237,-179.5 3173,-179.5"/>
<text text-anchor="middle" x="3205" y="-186.5" font-family="Helvetica,sans-Serif" font-size="10.00">algorithm</text>
</a>
</g>
</g>
<!-- Node4&#45;&gt;Node30 -->
<g id="edge42" class="edge">
<title>Node4&#45;&gt;Node30</title>
<path fill="none" stroke="midnightblue" d="M2896.63,-243.23C2954.41,-234.01 3065.11,-216.03 3159,-199 3160.26,-198.77 3161.54,-198.54 3162.83,-198.3"/>
<polygon fill="midnightblue" stroke="midnightblue" points="3163.67,-201.7 3172.85,-196.41 3162.38,-194.82 3163.67,-201.7"/>
</g>
<!-- Node31 -->
<g id="node31" class="node">
<title>Node31</title>
<g id="a_node31"><a xlink:title=" ">
<polygon fill="white" stroke="#bfbfbf" points="2783.5,-179.5 2783.5,-198.5 2848.5,-198.5 2848.5,-179.5 2783.5,-179.5"/>
<text text-anchor="middle" x="2816" y="-186.5" font-family="Helvetica,sans-Serif" font-size="10.00">functional</text>
</a>
</g>
</g>
<!-- Node4&#45;&gt;Node31 -->
<g id="edge43" class="edge">
<title>Node4&#45;&gt;Node31</title>
<path fill="none" stroke="midnightblue" d="M2851.13,-240.98C2845.04,-232.14 2835.36,-218.09 2827.7,-206.98"/>
<polygon fill="midnightblue" stroke="midnightblue" points="2830.42,-204.76 2821.86,-198.51 2824.66,-208.73 2830.42,-204.76"/>
</g>
<!-- Node4&#45;&gt;Node32 -->
<g id="edge44" class="edge">
<title>Node4&#45;&gt;Node32</title>
<path fill="none" stroke="midnightblue" d="M2896.67,-246.55C3035.45,-236.23 3497.57,-201.86 3624.5,-192.42"/>
<polygon fill="midnightblue" stroke="midnightblue" points="3625.01,-195.89 3634.73,-191.66 3624.5,-188.91 3625.01,-195.89"/>
</g>
<!-- Node9 -->
<g id="node9" class="node">
<title>Node9</title>
<g id="a_node9"><a xlink:title=" ">
<polygon fill="white" stroke="#bfbfbf" points="2364.5,-123.5 2364.5,-142.5 2441.5,-142.5 2441.5,-123.5 2364.5,-123.5"/>
<text text-anchor="middle" x="2403" y="-130.5" font-family="Helvetica,sans-Serif" font-size="10.00">tvm/ffi/any.h</text>
</a>
</g>
</g>
<!-- Node8&#45;&gt;Node9 -->
<g id="edge8" class="edge">
<title>Node8&#45;&gt;Node9</title>
<path fill="none" stroke="midnightblue" d="M2514.93,-179.44C2492.94,-170.52 2458.27,-156.44 2433.34,-146.32"/>
<polygon fill="midnightblue" stroke="midnightblue" points="2434.56,-143.04 2423.98,-142.52 2431.92,-149.52 2434.56,-143.04"/>
</g>
<!-- Node8&#45;&gt;Node10 -->
<g id="edge9" class="edge">
<title>Node8&#45;&gt;Node10</title>
<path fill="none" stroke="midnightblue" d="M2499.56,-179.44C2459.6,-170.06 2395.41,-154.99 2352.02,-144.8"/>
<polygon fill="midnightblue" stroke="midnightblue" points="2352.81,-141.39 2342.27,-142.52 2351.21,-148.21 2352.81,-141.39"/>
</g>
<!-- Node11 -->
<g id="node11" class="node">
<title>Node11</title>
<g id="a_node11"><a xlink:title=" ">
<polygon fill="white" stroke="#bfbfbf" points="2996.5,-62 2996.5,-81 3085.5,-81 3085.5,-62 2996.5,-62"/>
<text text-anchor="middle" x="3041" y="-69" font-family="Helvetica,sans-Serif" font-size="10.00">tvm/ffi/dtype.h</text>
</a>
</g>
</g>
<!-- Node8&#45;&gt;Node11 -->
<g id="edge10" class="edge">
<title>Node8&#45;&gt;Node11</title>
<path fill="none" stroke="midnightblue" d="M2575.02,-181.02C2579.72,-180.28 2584.46,-179.59 2589,-179 2677.29,-167.54 2910.22,-186.31 2988,-143 3009.05,-131.28 3024.25,-107.33 3032.83,-90.62"/>
<polygon fill="midnightblue" stroke="midnightblue" points="3036.12,-91.85 3037.32,-81.32 3029.82,-88.81 3036.12,-91.85"/>
</g>
<!-- Node12 -->
<g id="node12" class="node">
<title>Node12</title>
<g id="a_node12"><a xlink:title=" ">
<polygon fill="white" stroke="#bfbfbf" points="2082.5,-62 2082.5,-81 2165.5,-81 2165.5,-62 2082.5,-62"/>
<text text-anchor="middle" x="2124" y="-69" font-family="Helvetica,sans-Serif" font-size="10.00">tvm/ffi/error.h</text>
</a>
</g>
</g>
<!-- Node8&#45;&gt;Node12 -->
<g id="edge11" class="edge">
<title>Node8&#45;&gt;Node12</title>
<path fill="none" stroke="midnightblue" d="M2546.57,-179.11C2561.3,-165.69 2584.53,-140.01 2569,-123 2539.36,-90.53 2218.22,-95.05 2175,-87 2170.22,-86.11 2165.24,-84.97 2160.34,-83.72"/>
<polygon fill="midnightblue" stroke="midnightblue" points="2161.08,-80.29 2150.51,-81.05 2159.24,-87.05 2161.08,-80.29"/>
</g>
<!-- Node13 -->
<g id="node13" class="node">
<title>Node13</title>
<g id="a_node13"><a xlink:title=" ">
<polygon fill="white" stroke="#bfbfbf" points="2617.5,-123.5 2617.5,-142.5 2708.5,-142.5 2708.5,-123.5 2617.5,-123.5"/>
<text text-anchor="middle" x="2663" y="-130.5" font-family="Helvetica,sans-Serif" font-size="10.00">tvm/ffi/object.h</text>
</a>
</g>
</g>
<!-- Node8&#45;&gt;Node13 -->
<g id="edge12" class="edge">
<title>Node8&#45;&gt;Node13</title>
<path fill="none" stroke="midnightblue" d="M2556.12,-179.44C2577.02,-170.56 2609.93,-156.56 2633.72,-146.45"/>
<polygon fill="midnightblue" stroke="midnightblue" points="2635.14,-149.65 2642.97,-142.52 2632.4,-143.21 2635.14,-149.65"/>
</g>
<!-- Node14 -->
<g id="node14" class="node">
<title>Node14</title>
<g id="a_node14"><a xlink:title=" ">
<polygon fill="white" stroke="#bfbfbf" points="2459.5,-123.5 2459.5,-142.5 2560.5,-142.5 2560.5,-123.5 2459.5,-123.5"/>
<text text-anchor="middle" x="2510" y="-130.5" font-family="Helvetica,sans-Serif" font-size="10.00">tvm/ffi/optional.h</text>
</a>
</g>
</g>
<!-- Node8&#45;&gt;Node14 -->
<g id="edge13" class="edge">
<title>Node8&#45;&gt;Node14</title>
<path fill="none" stroke="midnightblue" d="M2531.71,-179.08C2528.15,-171.69 2522.98,-160.95 2518.58,-151.81"/>
<polygon fill="midnightblue" stroke="midnightblue" points="2521.71,-150.24 2514.21,-142.75 2515.4,-153.28 2521.71,-150.24"/>
</g>
<!-- Node8&#45;&gt;Node15 -->
<g id="edge14" class="edge">
<title>Node8&#45;&gt;Node15</title>
<path fill="none" stroke="midnightblue" d="M2496.72,-185.72C2463.92,-183.84 2415.92,-181.14 2374,-179 2030.08,-161.45 1941.97,-183.62 1600,-143 1553.26,-137.45 1542.57,-129.84 1496,-123 1322.95,-97.58 1113.99,-80.78 1034.17,-74.87"/>
<polygon fill="midnightblue" stroke="midnightblue" points="1034.01,-71.35 1023.78,-74.1 1033.5,-78.33 1034.01,-71.35"/>
</g>
<!-- Node16&#45;&gt;Node13 -->
<g id="edge16" class="edge">
<title>Node16&#45;&gt;Node13</title>
<path fill="none" stroke="midnightblue" d="M2076.66,-184.87C2164.28,-177.74 2384.71,-159.63 2569,-143 2581.25,-141.89 2594.38,-140.66 2606.84,-139.48"/>
<polygon fill="midnightblue" stroke="midnightblue" points="2607.49,-142.93 2617.11,-138.49 2606.82,-135.96 2607.49,-142.93"/>
</g>
<!-- Node16&#45;&gt;Node15 -->
<g id="edge17" class="edge">
<title>Node16&#45;&gt;Node15</title>
<path fill="none" stroke="midnightblue" d="M1999.5,-184.7C1919.08,-177.72 1727.44,-160.65 1567,-143 1363.85,-120.65 1120.37,-88.51 1033.64,-76.9"/>
<polygon fill="midnightblue" stroke="midnightblue" points="1034,-73.41 1023.62,-75.55 1033.06,-80.35 1034,-73.41"/>
</g>
<!-- Node17&#45;&gt;Node6 -->
<g id="edge21" class="edge">
<title>Node17&#45;&gt;Node6</title>
<path fill="none" stroke="midnightblue" d="M1904.54,-130.62C2132.63,-125.18 2962.1,-104.6 3225,-87 3252.59,-85.15 3283.08,-82.19 3308.79,-79.42"/>
<polygon fill="midnightblue" stroke="midnightblue" points="3309.2,-82.9 3318.77,-78.33 3308.44,-75.94 3309.2,-82.9"/>
</g>
<!-- Node17&#45;&gt;Node15 -->
<g id="edge26" class="edge">
<title>Node17&#45;&gt;Node15</title>
<path fill="none" stroke="midnightblue" d="M1787.42,-126.91C1771.7,-125.59 1754.71,-124.2 1739,-123 1466.6,-102.23 1137.33,-81.11 1033.79,-74.56"/>
<polygon fill="midnightblue" stroke="midnightblue" points="1033.86,-71.06 1023.66,-73.92 1033.42,-78.04 1033.86,-71.06"/>
</g>
<!-- Node18 -->
<g id="node18" class="node">
<title>Node18</title>
<g id="a_node18"><a xlink:title=" ">
<polygon fill="white" stroke="#bfbfbf" points="0,-62 0,-81 134,-81 134,-62 0,-62"/>
<text text-anchor="middle" x="67" y="-69" font-family="Helvetica,sans-Serif" font-size="10.00">tvm/ffi/container/array.h</text>
</a>
</g>
</g>
<!-- Node17&#45;&gt;Node18 -->
<g id="edge19" class="edge">
<title>Node17&#45;&gt;Node18</title>
<path fill="none" stroke="midnightblue" d="M1787.45,-126.5C1771.73,-125.18 1754.73,-123.9 1739,-123 1579,-113.86 451.76,-82.93 144.3,-74.59"/>
<polygon fill="midnightblue" stroke="midnightblue" points="144.24,-71.09 134.15,-74.31 144.05,-78.08 144.24,-71.09"/>
</g>
<!-- Node19 -->
<g id="node19" class="node">
<title>Node19</title>
<g id="a_node19"><a xlink:title=" ">
<polygon fill="white" stroke="#bfbfbf" points="1340.5,-62 1340.5,-81 1441.5,-81 1441.5,-62 1340.5,-62"/>
<text text-anchor="middle" x="1391" y="-69" font-family="Helvetica,sans-Serif" font-size="10.00">tvm/ffi/function.h</text>
</a>
</g>
</g>
<!-- Node17&#45;&gt;Node19 -->
<g id="edge20" class="edge">
<title>Node17&#45;&gt;Node19</title>
<path fill="none" stroke="midnightblue" d="M1787.45,-124.34C1700.87,-113.02 1539.5,-91.92 1451.71,-80.44"/>
<polygon fill="midnightblue" stroke="midnightblue" points="1452,-76.95 1441.63,-79.12 1451.09,-83.89 1452,-76.95"/>
</g>
<!-- Node20 -->
<g id="node20" class="node">
<title>Node20</title>
<g id="a_node20"><a xlink:href="runtime_2base_8h.html" target="_top" xlink:title=" ">
<polygon fill="white" stroke="black" points="3103.5,-62 3103.5,-81 3216.5,-81 3216.5,-62 3103.5,-62"/>
<text text-anchor="middle" x="3160" y="-69" font-family="Helvetica,sans-Serif" font-size="10.00">tvm/runtime/base.h</text>
</a>
</g>
</g>
<!-- Node17&#45;&gt;Node20 -->
<g id="edge22" class="edge">
<title>Node17&#45;&gt;Node20</title>
<path fill="none" stroke="midnightblue" d="M1904.5,-130.51C2135.24,-124.56 2975.43,-102.04 3094,-87 3101.36,-86.07 3109.11,-84.71 3116.62,-83.19"/>
<polygon fill="midnightblue" stroke="midnightblue" points="3117.58,-86.57 3126.63,-81.06 3116.12,-79.72 3117.58,-86.57"/>
</g>
<!-- Node22 -->
<g id="node22" class="node">
<title>Node22</title>
<g id="a_node22"><a xlink:title=" ">
<polygon fill="white" stroke="#bfbfbf" points="1818.5,-62 1818.5,-81 1873.5,-81 1873.5,-62 1818.5,-62"/>
<text text-anchor="middle" x="1846" y="-69" font-family="Helvetica,sans-Serif" font-size="10.00">fstream</text>
</a>
</g>
</g>
<!-- Node17&#45;&gt;Node22 -->
<g id="edge24" class="edge">
<title>Node17&#45;&gt;Node22</title>
<path fill="none" stroke="midnightblue" d="M1846,-123.48C1846,-115.08 1846,-101.98 1846,-91.16"/>
<polygon fill="midnightblue" stroke="midnightblue" points="1849.5,-91.01 1846,-81.01 1842.5,-91.01 1849.5,-91.01"/>
</g>
<!-- Node17&#45;&gt;Node23 -->
<g id="edge25" class="edge">
<title>Node17&#45;&gt;Node23</title>
<path fill="none" stroke="midnightblue" d="M1904.56,-124.72C1909.45,-124.13 1914.31,-123.55 1919,-123 2062.9,-106.14 2103.52,-126.22 2243,-87 2244.93,-86.46 2246.89,-85.81 2248.84,-85.08"/>
<polygon fill="midnightblue" stroke="midnightblue" points="2250.46,-88.2 2258.29,-81.06 2247.72,-81.75 2250.46,-88.2"/>
</g>
<!-- Node17&#45;&gt;Node24 -->
<g id="edge27" class="edge">
<title>Node17&#45;&gt;Node24</title>
<path fill="none" stroke="midnightblue" d="M1787.44,-126.67C1771.72,-125.35 1754.72,-124.02 1739,-123 1684.8,-119.47 856.16,-82.06 677.7,-74.02"/>
<polygon fill="midnightblue" stroke="midnightblue" points="677.74,-70.52 667.59,-73.56 677.42,-77.51 677.74,-70.52"/>
</g>
<!-- Node21 -->
<g id="node21" class="node">
<title>Node21</title>
<g id="a_node21"><a xlink:title=" ">
<polygon fill="white" stroke="#bfbfbf" points="3117,-0.5 3117,-19.5 3203,-19.5 3203,-0.5 3117,-0.5"/>
<text text-anchor="middle" x="3160" y="-7.5" font-family="Helvetica,sans-Serif" font-size="10.00">tvm/ffi/c_api.h</text>
</a>
</g>
</g>
<!-- Node20&#45;&gt;Node21 -->
<g id="edge23" class="edge">
<title>Node20&#45;&gt;Node21</title>
<path fill="none" stroke="midnightblue" d="M3160,-61.98C3160,-53.58 3160,-40.48 3160,-29.66"/>
<polygon fill="midnightblue" stroke="midnightblue" points="3163.5,-29.51 3160,-19.51 3156.5,-29.51 3163.5,-29.51"/>
</g>
<!-- Node25&#45;&gt;Node6 -->
<g id="edge31" class="edge">
<title>Node25&#45;&gt;Node6</title>
<path fill="none" stroke="midnightblue" d="M2365.37,-185.53C2499.66,-177.29 2926.41,-150.78 2988,-143 3019.33,-139.04 3210.13,-102.77 3308.88,-83.86"/>
<polygon fill="midnightblue" stroke="midnightblue" points="3309.55,-87.29 3318.72,-81.97 3308.24,-80.42 3309.55,-87.29"/>
</g>
<!-- Node25&#45;&gt;Node10 -->
<g id="edge29" class="edge">
<title>Node25&#45;&gt;Node10</title>
<path fill="none" stroke="midnightblue" d="M2321.86,-179.08C2319.32,-171.85 2315.64,-161.41 2312.47,-152.4"/>
<polygon fill="midnightblue" stroke="midnightblue" points="2315.7,-151.02 2309.08,-142.75 2309.1,-153.35 2315.7,-151.02"/>
</g>
<!-- Node25&#45;&gt;Node17 -->
<g id="edge32" class="edge">
<title>Node25&#45;&gt;Node17</title>
<path fill="none" stroke="midnightblue" d="M2284.98,-183.49C2203.25,-174.27 2016.29,-153.2 1914.72,-141.75"/>
<polygon fill="midnightblue" stroke="midnightblue" points="1914.9,-138.25 1904.57,-140.6 1914.11,-145.2 1914.9,-138.25"/>
</g>
<!-- Node25&#45;&gt;Node18 -->
<g id="edge30" class="edge">
<title>Node25&#45;&gt;Node18</title>
<path fill="none" stroke="midnightblue" d="M2284.85,-185.95C2018.42,-172.32 505.14,-94.91 144.26,-76.45"/>
<polygon fill="midnightblue" stroke="midnightblue" points="144.34,-72.95 134.18,-75.94 143.98,-79.94 144.34,-72.95"/>
</g>
<!-- Node25&#45;&gt;Node23 -->
<g id="edge41" class="edge">
<title>Node25&#45;&gt;Node23</title>
<path fill="none" stroke="midnightblue" d="M2301.21,-179.5C2285.28,-172.41 2265.54,-160.61 2256,-143 2246.92,-126.23 2254.8,-104.73 2262.8,-89.91"/>
<polygon fill="midnightblue" stroke="midnightblue" points="2265.85,-91.64 2267.9,-81.24 2259.81,-88.09 2265.85,-91.64"/>
</g>
<!-- Node26 -->
<g id="node26" class="node">
<title>Node26</title>
<g id="a_node26"><a xlink:href="data__type_8h.html" target="_top" xlink:title=" ">
<polygon fill="white" stroke="black" points="2841,-123.5 2841,-142.5 2979,-142.5 2979,-123.5 2841,-123.5"/>
<text text-anchor="middle" x="2910" y="-130.5" font-family="Helvetica,sans-Serif" font-size="10.00">tvm/runtime/data_type.h</text>
</a>
</g>
</g>
<!-- Node25&#45;&gt;Node26 -->
<g id="edge33" class="edge">
<title>Node25&#45;&gt;Node26</title>
<path fill="none" stroke="midnightblue" d="M2365.21,-184.29C2460.97,-175.45 2703.94,-153.02 2830.55,-141.33"/>
<polygon fill="midnightblue" stroke="midnightblue" points="2830.94,-144.81 2840.57,-140.41 2830.29,-137.84 2830.94,-144.81"/>
</g>
<!-- Node26&#45;&gt;Node11 -->
<g id="edge35" class="edge">
<title>Node26&#45;&gt;Node11</title>
<path fill="none" stroke="midnightblue" d="M2928.77,-123.48C2950.85,-113.45 2987.72,-96.7 3013.14,-85.15"/>
<polygon fill="midnightblue" stroke="midnightblue" points="3014.61,-88.33 3022.27,-81.01 3011.71,-81.96 3014.61,-88.33"/>
</g>
<!-- Node26&#45;&gt;Node12 -->
<g id="edge36" class="edge">
<title>Node26&#45;&gt;Node12</title>
<path fill="none" stroke="midnightblue" d="M2840.87,-128.62C2670.47,-120.17 2239.47,-98 2175,-87 2170.1,-86.16 2164.99,-85.03 2159.99,-83.77"/>
<polygon fill="midnightblue" stroke="midnightblue" points="2160.53,-80.29 2149.96,-81.05 2158.69,-87.05 2160.53,-80.29"/>
</g>
<!-- Node26&#45;&gt;Node20 -->
<g id="edge37" class="edge">
<title>Node26&#45;&gt;Node20</title>
<path fill="none" stroke="midnightblue" d="M2945.82,-123.48C2990.19,-112.92 3065.84,-94.91 3114.33,-83.37"/>
<polygon fill="midnightblue" stroke="midnightblue" points="3115.33,-86.73 3124.25,-81.01 3113.71,-79.92 3115.33,-86.73"/>
</g>
<!-- Node26&#45;&gt;Node23 -->
<g id="edge39" class="edge">
<title>Node26&#45;&gt;Node23</title>
<path fill="none" stroke="midnightblue" d="M2840.72,-124.4C2836.08,-123.92 2831.47,-123.45 2827,-123 2629.21,-103.25 2391.31,-82.55 2306.21,-75.25"/>
<polygon fill="midnightblue" stroke="midnightblue" points="2306.4,-71.75 2296.14,-74.39 2305.8,-78.73 2306.4,-71.75"/>
</g>
<!-- Node27 -->
<g id="node27" class="node">
<title>Node27</title>
<g id="a_node27"><a xlink:title=" ">
<polygon fill="white" stroke="#bfbfbf" points="2839.5,-62 2839.5,-81 2978.5,-81 2978.5,-62 2839.5,-62"/>
<text text-anchor="middle" x="2909" y="-69" font-family="Helvetica,sans-Serif" font-size="10.00">tvm/ffi/container/shape.h</text>
</a>
</g>
</g>
<!-- Node26&#45;&gt;Node27 -->
<g id="edge34" class="edge">
<title>Node26&#45;&gt;Node27</title>
<path fill="none" stroke="midnightblue" d="M2909.86,-123.48C2909.72,-115.08 2909.5,-101.98 2909.31,-91.16"/>
<polygon fill="midnightblue" stroke="midnightblue" points="2912.81,-90.95 2909.14,-81.01 2905.81,-91.07 2912.81,-90.95"/>
</g>
<!-- Node28 -->
<g id="node28" class="node">
<title>Node28</title>
<g id="a_node28"><a xlink:title=" ">
<polygon fill="white" stroke="#bfbfbf" points="2184,-62 2184,-81 2234,-81 2234,-62 2184,-62"/>
<text text-anchor="middle" x="2209" y="-69" font-family="Helvetica,sans-Serif" font-size="10.00">cstring</text>
</a>
</g>
</g>
<!-- Node26&#45;&gt;Node28 -->
<g id="edge38" class="edge">
<title>Node26&#45;&gt;Node28</title>
<path fill="none" stroke="midnightblue" d="M2840.8,-128.65C2681.86,-120.76 2299.96,-100.65 2243,-87 2240.49,-86.4 2237.93,-85.63 2235.39,-84.75"/>
<polygon fill="midnightblue" stroke="midnightblue" points="2236.5,-81.43 2225.91,-81.03 2233.94,-87.95 2236.5,-81.43"/>
</g>
<!-- Node26&#45;&gt;Node29 -->
<g id="edge40" class="edge">
<title>Node26&#45;&gt;Node29</title>
<path fill="none" stroke="midnightblue" d="M2840.78,-128.65C2804.01,-126.91 2758.05,-124.77 2717,-123 2313.5,-105.59 2211.03,-125.53 1809,-87 1792.52,-85.42 1774.53,-82.89 1758.69,-80.37"/>
<polygon fill="midnightblue" stroke="midnightblue" points="1759.06,-76.89 1748.63,-78.74 1757.94,-83.8 1759.06,-76.89"/>
</g>
<!-- Node33&#45;&gt;Node4 -->
<g id="edge64" class="edge">
<title>Node33&#45;&gt;Node4</title>
<path fill="none" stroke="midnightblue" d="M2241.78,-759.29C2370.6,-758.91 2733,-748.98 2733,-649 2733,-649 2733,-649 2733,-367 2733,-316.36 2789.05,-281.61 2825.79,-264.27"/>
<polygon fill="midnightblue" stroke="midnightblue" points="2827.45,-267.35 2835.12,-260.03 2824.56,-260.98 2827.45,-267.35"/>
</g>
<!-- Node33&#45;&gt;Node7 -->
<g id="edge50" class="edge">
<title>Node33&#45;&gt;Node7</title>
<path fill="none" stroke="midnightblue" d="M2152.47,-758.33C1942.18,-755.01 1056.53,-739.58 1004,-714 969.98,-697.43 949,-686.84 949,-649 949,-649 949,-649 949,-535 949,-421.22 1028.39,-417 1091,-322 1118.09,-280.89 1149.6,-232.33 1165.93,-207.12"/>
<polygon fill="midnightblue" stroke="midnightblue" points="1168.9,-208.97 1171.4,-198.67 1163.03,-205.16 1168.9,-208.97"/>
</g>
<!-- Node33&#45;&gt;Node15 -->
<g id="edge170" class="edge">
<title>Node33&#45;&gt;Node15</title>
<path fill="none" stroke="midnightblue" d="M2152.47,-758.84C1936.63,-757.89 1004.64,-751.62 881,-714 643.23,-641.65 590.61,-570.99 434,-378 369.21,-298.16 249.11,-257.09 316,-179 326.85,-166.33 832.85,-95.7 968.07,-77.03"/>
<polygon fill="midnightblue" stroke="midnightblue" points="968.8,-80.46 978.22,-75.63 967.84,-73.53 968.8,-80.46"/>
</g>
<!-- Node33&#45;&gt;Node16 -->
<g id="edge63" class="edge">
<title>Node33&#45;&gt;Node16</title>
<path fill="none" stroke="midnightblue" d="M2241.51,-753.53C2298.78,-743.73 2391,-717.34 2391,-649 2391,-649 2391,-649 2391,-591 2391,-455.08 2370.4,-412.32 2291,-302 2242.96,-235.25 2146,-207.68 2087.06,-196.75"/>
<polygon fill="midnightblue" stroke="midnightblue" points="2087.32,-193.24 2076.87,-194.96 2086.11,-200.14 2087.32,-193.24"/>
</g>
<!-- Node33&#45;&gt;Node18 -->
<g id="edge48" class="edge">
<title>Node33&#45;&gt;Node18</title>
<path fill="none" stroke="midnightblue" d="M2152.32,-758.56C1930.32,-756.24 951.26,-744.33 819,-714 628.78,-670.38 342.91,-515.23 205,-378 120.69,-294.11 110.76,-257.04 77,-143 71.96,-125.98 69.43,-105.87 68.18,-91.49"/>
<polygon fill="midnightblue" stroke="midnightblue" points="71.65,-91.07 67.42,-81.36 64.67,-91.59 71.65,-91.07"/>
</g>
<!-- Node33&#45;&gt;Node20 -->
<g id="edge71" class="edge">
<title>Node33&#45;&gt;Node20</title>
<path fill="none" stroke="midnightblue" d="M2241.71,-758.71C2392.4,-757.4 2880.67,-750.4 3033,-714 3163.94,-682.71 3531,-503.63 3531,-369 3531,-369 3531,-369 3531,-311 3531,-165.8 3327.43,-104.84 3221.88,-83"/>
<polygon fill="midnightblue" stroke="midnightblue" points="3222.47,-79.55 3211.98,-81.01 3221.09,-86.41 3222.47,-79.55"/>
</g>
<!-- Node33&#45;&gt;Node23 -->
<g id="edge168" class="edge">
<title>Node33&#45;&gt;Node23</title>
<path fill="none" stroke="midnightblue" d="M2241.69,-758.06C2399.34,-754.54 2923.74,-740.89 2994,-714 3219.17,-627.81 3331.66,-560.19 3369,-322 3379.36,-255.91 3373.03,-222.26 3322,-179 3262.92,-128.93 3233.02,-137.79 3157,-123 2989.16,-90.34 2445.02,-76.29 2306.38,-73.18"/>
<polygon fill="midnightblue" stroke="midnightblue" points="2306.1,-69.68 2296.02,-72.95 2305.95,-76.67 2306.1,-69.68"/>
</g>
<!-- Node33&#45;&gt;Node26 -->
<g id="edge72" class="edge">
<title>Node33&#45;&gt;Node26</title>
<path fill="none" stroke="midnightblue" d="M2241.55,-759.57C2383.9,-760.89 2826.2,-761 2960,-714 3000.61,-699.74 3007.2,-687 3039,-658 3218.13,-494.63 3469.2,-352.63 3300,-179 3278.74,-157.19 3097.06,-143.9 2989.33,-137.86"/>
<polygon fill="midnightblue" stroke="midnightblue" points="2989.32,-134.36 2979.14,-137.3 2988.93,-141.35 2989.32,-134.36"/>
</g>
<!-- Node33&#45;&gt;Node30 -->
<g id="edge165" class="edge">
<title>Node33&#45;&gt;Node30</title>
<path fill="none" stroke="midnightblue" d="M2241.63,-757.79C2390.05,-753.55 2861.34,-738.31 2925,-714 3140.81,-631.59 3193.32,-292.31 3203.08,-208.69"/>
<polygon fill="midnightblue" stroke="midnightblue" points="3206.57,-208.96 3204.19,-198.64 3199.61,-208.2 3206.57,-208.96"/>
</g>
<!-- Node33&#45;&gt;Node32 -->
<g id="edge167" class="edge">
<title>Node33&#45;&gt;Node32</title>
<path fill="none" stroke="midnightblue" d="M2241.76,-759.42C2411.79,-760.66 3017.33,-761.54 3203,-714 3257.69,-700 3270.94,-690.64 3317,-658 3432.9,-575.86 3464.66,-551.16 3545,-434 3599.49,-354.54 3587.72,-321.08 3631,-235 3635.66,-225.73 3641.38,-215.71 3646.27,-207.48"/>
<polygon fill="midnightblue" stroke="midnightblue" points="3649.34,-209.17 3651.51,-198.8 3643.35,-205.55 3649.34,-209.17"/>
</g>
<!-- Node34 -->
<g id="node34" class="node">
<title>Node34</title>
<g id="a_node34"><a xlink:title=" ">
<polygon fill="white" stroke="#bfbfbf" points="1239.5,-179.5 1239.5,-198.5 1370.5,-198.5 1370.5,-179.5 1239.5,-179.5"/>
<text text-anchor="middle" x="1305" y="-186.5" font-family="Helvetica,sans-Serif" font-size="10.00">tvm/ffi/container/map.h</text>
</a>
</g>
</g>
<!-- Node33&#45;&gt;Node34 -->
<g id="edge49" class="edge">
<title>Node33&#45;&gt;Node34</title>
<path fill="none" stroke="midnightblue" d="M2152.31,-759.12C1932.84,-759.52 978.1,-758.67 935,-714 928.83,-707.6 932.23,-702.45 935,-694 954.08,-635.77 1227.35,-288.17 1291.56,-206.96"/>
<polygon fill="midnightblue" stroke="midnightblue" points="1294.57,-208.8 1298.03,-198.79 1289.08,-204.46 1294.57,-208.8"/>
</g>
<!-- Node35 -->
<g id="node35" class="node">
<title>Node35</title>
<g id="a_node35"><a xlink:href="attrs_8h.html" target="_top" xlink:title="Helpers for attribute objects.">
<polygon fill="white" stroke="black" points="1895,-302.5 1895,-321.5 1975,-321.5 1975,-302.5 1895,-302.5"/>
<text text-anchor="middle" x="1935" y="-309.5" font-family="Helvetica,sans-Serif" font-size="10.00">tvm/ir/attrs.h</text>
</a>
</g>
</g>
<!-- Node33&#45;&gt;Node35 -->
<g id="edge51" class="edge">
<title>Node33&#45;&gt;Node35</title>
<path fill="none" stroke="midnightblue" d="M2152.3,-758.09C1962.55,-753.77 1230.45,-732.35 1163,-658 944.51,-417.13 1682.22,-334.79 1884.88,-316.98"/>
<polygon fill="midnightblue" stroke="midnightblue" points="1885.29,-320.46 1894.96,-316.11 1884.69,-313.48 1885.29,-320.46"/>
</g>
<!-- Node33&#45;&gt;Node38 -->
<g id="edge169" class="edge">
<title>Node33&#45;&gt;Node38</title>
<path fill="none" stroke="midnightblue" d="M2152.29,-758.86C1940.82,-758 1046.29,-752.12 928,-714 747.49,-655.83 406.49,-272.61 402,-266 389.83,-248.07 381.5,-224.48 376.76,-208.37"/>
<polygon fill="midnightblue" stroke="midnightblue" points="380.09,-207.27 374.05,-198.57 373.35,-209.14 380.09,-207.27"/>
</g>
<!-- Node39 -->
<g id="node39" class="node">
<title>Node39</title>
<g id="a_node39"><a xlink:href="node__functor_8h.html" target="_top" xlink:title="Defines the Functor data structures.">
<polygon fill="white" stroke="black" points="1609.5,-123.5 1609.5,-142.5 1730.5,-142.5 1730.5,-123.5 1609.5,-123.5"/>
<text text-anchor="middle" x="1670" y="-130.5" font-family="Helvetica,sans-Serif" font-size="10.00">tvm/ir/node_functor.h</text>
</a>
</g>
</g>
<!-- Node33&#45;&gt;Node39 -->
<g id="edge65" class="edge">
<title>Node33&#45;&gt;Node39</title>
<path fill="none" stroke="midnightblue" d="M2152.4,-755.65C2089.68,-748.23 1983,-724.51 1983,-649 1983,-649 1983,-649 1983,-423 1983,-339.14 2027.1,-293.49 1967,-235 1914.76,-184.16 1875.9,-222.77 1807,-199 1765.99,-184.86 1721.02,-161.99 1694.17,-147.49"/>
<polygon fill="midnightblue" stroke="midnightblue" points="1695.6,-144.28 1685.14,-142.56 1692.24,-150.43 1695.6,-144.28"/>
</g>
<!-- Node40 -->
<g id="node40" class="node">
<title>Node40</title>
<g id="a_node40"><a xlink:href="buffer_8h.html" target="_top" xlink:title="Symbolic n&#45;dimensional array, to represent a memory buffer.">
<polygon fill="white" stroke="black" points="2780.5,-694.5 2780.5,-713.5 2875.5,-713.5 2875.5,-694.5 2780.5,-694.5"/>
<text text-anchor="middle" x="2828" y="-701.5" font-family="Helvetica,sans-Serif" font-size="10.00">tvm/tirx/buffer.h</text>
</a>
</g>
</g>
<!-- Node33&#45;&gt;Node40 -->
<g id="edge73" class="edge">
<title>Node33&#45;&gt;Node40</title>
<path fill="none" stroke="midnightblue" d="M2241.6,-755.79C2335.28,-748.96 2559.37,-732.1 2747,-714 2754.54,-713.27 2762.47,-712.46 2770.3,-711.62"/>
<polygon fill="midnightblue" stroke="midnightblue" points="2770.92,-715.07 2780.48,-710.51 2770.16,-708.11 2770.92,-715.07"/>
</g>
<!-- Node33&#45;&gt;Node58 -->
<g id="edge164" class="edge">
<title>Node33&#45;&gt;Node58</title>
<path fill="none" stroke="midnightblue" d="M2241.61,-758.87C2374.14,-758.05 2763.71,-752.34 2884,-714 2929.25,-699.58 2946.2,-695.76 2975,-658 3026.15,-590.93 3038.89,-486.28 3042.01,-443.84"/>
<polygon fill="midnightblue" stroke="midnightblue" points="3045.52,-443.8 3042.66,-433.6 3038.53,-443.35 3045.52,-443.8"/>
</g>
<!-- Node59 -->
<g id="node59" class="node">
<title>Node59</title>
<g id="a_node59"><a xlink:title=" ">
<polygon fill="white" stroke="#bfbfbf" points="1013,-694.5 1013,-713.5 1073,-713.5 1073,-694.5 1013,-694.5"/>
<text text-anchor="middle" x="1043" y="-701.5" font-family="Helvetica,sans-Serif" font-size="10.00">iostream</text>
</a>
</g>
</g>
<!-- Node33&#45;&gt;Node59 -->
<g id="edge166" class="edge">
<title>Node33&#45;&gt;Node59</title>
<path fill="none" stroke="midnightblue" d="M2152.29,-758.15C1972.08,-754.58 1298.56,-739.75 1087,-714 1085.74,-713.85 1084.46,-713.68 1083.17,-713.49"/>
<polygon fill="midnightblue" stroke="midnightblue" points="1083.63,-710.02 1073.19,-711.84 1082.49,-716.93 1083.63,-710.02"/>
</g>
<!-- Node35&#45;&gt;Node4 -->
<g id="edge58" class="edge">
<title>Node35&#45;&gt;Node4</title>
<path fill="none" stroke="midnightblue" d="M1975.19,-310.04C2123.56,-306.32 2640.27,-291.77 2803,-266 2808.51,-265.13 2814.27,-263.91 2819.89,-262.56"/>
<polygon fill="midnightblue" stroke="midnightblue" points="2820.96,-265.9 2829.77,-260.01 2819.21,-259.12 2820.96,-265.9"/>
</g>
<!-- Node35&#45;&gt;Node6 -->
<g id="edge56" class="edge">
<title>Node35&#45;&gt;Node6</title>
<path fill="none" stroke="midnightblue" d="M1975.11,-310.29C2121.78,-307.47 2623.91,-295.72 2689,-266 2738.17,-243.55 2725.01,-201.85 2774,-179 2965.88,-89.52 3047.07,-206.63 3249,-143 3258.42,-140.03 3304.89,-111.76 3336.89,-91.93"/>
<polygon fill="midnightblue" stroke="midnightblue" points="3338.84,-94.84 3345.49,-86.59 3335.15,-88.89 3338.84,-94.84"/>
</g>
<!-- Node35&#45;&gt;Node15 -->
<g id="edge62" class="edge">
<title>Node35&#45;&gt;Node15</title>
<path fill="none" stroke="midnightblue" d="M1894.77,-310.25C1797.23,-307.91 1550.67,-298.84 1476,-266 1422.99,-242.68 1429.74,-206.91 1379,-179 1317.97,-145.43 1113.56,-97.6 1033.53,-79.66"/>
<polygon fill="midnightblue" stroke="midnightblue" points="1034.04,-76.19 1023.52,-77.43 1032.52,-83.02 1034.04,-76.19"/>
</g>
<!-- Node35&#45;&gt;Node16 -->
<g id="edge57" class="edge">
<title>Node35&#45;&gt;Node16</title>
<path fill="none" stroke="midnightblue" d="M1968.67,-302.44C1988.12,-295.73 2011.36,-284.38 2025,-266 2037.18,-249.58 2039.46,-225.7 2039.31,-209.1"/>
<polygon fill="midnightblue" stroke="midnightblue" points="2042.8,-208.82 2038.91,-198.96 2035.8,-209.09 2042.8,-208.82"/>
</g>
<!-- Node35&#45;&gt;Node19 -->
<g id="edge55" class="edge">
<title>Node35&#45;&gt;Node19</title>
<path fill="none" stroke="midnightblue" d="M1935.51,-302.43C1935.95,-286.55 1934.4,-252.6 1915,-235 1840.64,-167.55 1788.51,-226.64 1692,-199 1690.25,-198.5 1496.86,-117.08 1421.02,-85.15"/>
<polygon fill="midnightblue" stroke="midnightblue" points="1422.12,-81.81 1411.55,-81.15 1419.41,-88.26 1422.12,-81.81"/>
</g>
<!-- Node35&#45;&gt;Node23 -->
<g id="edge59" class="edge">
<title>Node35&#45;&gt;Node23</title>
<path fill="none" stroke="midnightblue" d="M1943.54,-302.4C1956.62,-288.14 1978.91,-258.82 1967,-235 1955.07,-211.15 1930.93,-222.85 1919,-199 1915.02,-191.05 1914.99,-186.93 1919,-179 1937.92,-141.55 1956.19,-138.94 1995,-123 2098.03,-80.7 2136.3,-118.94 2243,-87 2244.88,-86.44 2246.79,-85.78 2248.69,-85.06"/>
<polygon fill="midnightblue" stroke="midnightblue" points="2250.13,-88.25 2257.94,-81.1 2247.37,-81.82 2250.13,-88.25"/>
</g>
<!-- Node35&#45;&gt;Node29 -->
<g id="edge60" class="edge">
<title>Node35&#45;&gt;Node29</title>
<path fill="none" stroke="midnightblue" d="M1940.54,-302.38C1949.63,-287.02 1965.18,-254.7 1949,-235 1896.66,-171.29 1846.7,-220.15 1767,-199 1748.08,-193.98 1611.43,-158.89 1600,-143 1578.09,-112.55 1628.98,-92.49 1669.67,-81.81"/>
<polygon fill="midnightblue" stroke="midnightblue" points="1670.63,-85.18 1679.48,-79.36 1668.93,-78.39 1670.63,-85.18"/>
</g>
<!-- Node35&#45;&gt;Node34 -->
<g id="edge52" class="edge">
<title>Node35&#45;&gt;Node34</title>
<path fill="none" stroke="midnightblue" d="M1894.84,-309.79C1792.9,-306.34 1526.31,-294.75 1443,-266 1418.99,-257.71 1417.06,-247.59 1395,-235 1374.64,-223.38 1350.91,-211.59 1332.92,-202.98"/>
<polygon fill="midnightblue" stroke="midnightblue" points="1334.12,-199.68 1323.58,-198.56 1331.12,-206 1334.12,-199.68"/>
</g>
<!-- Node36 -->
<g id="node36" class="node">
<title>Node36</title>
<g id="a_node36"><a xlink:title=" ">
<polygon fill="white" stroke="#bfbfbf" points="1634.5,-235.5 1634.5,-265.5 1761.5,-265.5 1761.5,-235.5 1634.5,-235.5"/>
<text text-anchor="start" x="1642.5" y="-253.5" font-family="Helvetica,sans-Serif" font-size="10.00">tvm/ffi/extra/structural</text>
<text text-anchor="middle" x="1698" y="-242.5" font-family="Helvetica,sans-Serif" font-size="10.00">_equal.h</text>
</a>
</g>
</g>
<!-- Node35&#45;&gt;Node36 -->
<g id="edge53" class="edge">
<title>Node35&#45;&gt;Node36</title>
<path fill="none" stroke="midnightblue" d="M1901.04,-302.48C1865.35,-293.51 1808.29,-279.19 1763.74,-268"/>
<polygon fill="midnightblue" stroke="midnightblue" points="1764.41,-264.56 1753.86,-265.52 1762.7,-271.35 1764.41,-264.56"/>
</g>
<!-- Node37 -->
<g id="node37" class="node">
<title>Node37</title>
<g id="a_node37"><a xlink:title=" ">
<polygon fill="white" stroke="#bfbfbf" points="1779.5,-235.5 1779.5,-265.5 1906.5,-265.5 1906.5,-235.5 1779.5,-235.5"/>
<text text-anchor="start" x="1787.5" y="-253.5" font-family="Helvetica,sans-Serif" font-size="10.00">tvm/ffi/extra/structural</text>
<text text-anchor="middle" x="1843" y="-242.5" font-family="Helvetica,sans-Serif" font-size="10.00">_hash.h</text>
</a>
</g>
</g>
<!-- Node35&#45;&gt;Node37 -->
<g id="edge54" class="edge">
<title>Node35&#45;&gt;Node37</title>
<path fill="none" stroke="midnightblue" d="M1921.82,-302.48C1909.24,-294.34 1889.84,-281.79 1873.43,-271.18"/>
<polygon fill="midnightblue" stroke="midnightblue" points="1874.98,-268.01 1864.68,-265.52 1871.18,-273.89 1874.98,-268.01"/>
</g>
<!-- Node35&#45;&gt;Node38 -->
<g id="edge61" class="edge">
<title>Node35&#45;&gt;Node38</title>
<path fill="none" stroke="midnightblue" d="M1894.97,-310.18C1724.89,-306.55 1061.46,-291.04 854,-266 784.69,-257.63 768.84,-246.64 700,-235 605.19,-218.97 494.21,-204.67 428.7,-196.69"/>
<polygon fill="midnightblue" stroke="midnightblue" points="428.93,-193.19 418.58,-195.46 428.09,-200.14 428.93,-193.19"/>
</g>
<!-- Node39&#45;&gt;Node12 -->
<g id="edge66" class="edge">
<title>Node39&#45;&gt;Node12</title>
<path fill="none" stroke="midnightblue" d="M1730.76,-124.04C1820.75,-112.24 1987.92,-90.33 2072.35,-79.27"/>
<polygon fill="midnightblue" stroke="midnightblue" points="2073.01,-82.71 2082.47,-77.94 2072.1,-75.77 2073.01,-82.71"/>
</g>
<!-- Node39&#45;&gt;Node15 -->
<g id="edge69" class="edge">
<title>Node39&#45;&gt;Node15</title>
<path fill="none" stroke="midnightblue" d="M1609.44,-124.55C1604.56,-124.01 1599.7,-123.48 1595,-123 1381.3,-101.1 1123.65,-81.52 1033.8,-74.89"/>
<polygon fill="midnightblue" stroke="midnightblue" points="1033.92,-71.39 1023.69,-74.14 1033.4,-78.37 1033.92,-71.39"/>
</g>
<!-- Node39&#45;&gt;Node24 -->
<g id="edge70" class="edge">
<title>Node39&#45;&gt;Node24</title>
<path fill="none" stroke="midnightblue" d="M1609.27,-128.48C1417.14,-117.34 826.45,-83.08 678.08,-74.48"/>
<polygon fill="midnightblue" stroke="midnightblue" points="677.97,-70.96 667.79,-73.88 677.57,-77.95 677.97,-70.96"/>
</g>
<!-- Node39&#45;&gt;Node28 -->
<g id="edge67" class="edge">
<title>Node39&#45;&gt;Node28</title>
<path fill="none" stroke="midnightblue" d="M1730.76,-126.82C1862.47,-115.55 2163.35,-89.62 2174,-87 2176.51,-86.38 2179.08,-85.61 2181.63,-84.75"/>
<polygon fill="midnightblue" stroke="midnightblue" points="2183.09,-87.94 2191.19,-81.1 2180.6,-81.4 2183.09,-87.94"/>
</g>
<!-- Node39&#45;&gt;Node29 -->
<g id="edge68" class="edge">
<title>Node39&#45;&gt;Node29</title>
<path fill="none" stroke="midnightblue" d="M1676.3,-123.48C1682.9,-114.55 1693.44,-100.31 1701.69,-89.14"/>
<polygon fill="midnightblue" stroke="midnightblue" points="1704.58,-91.13 1707.71,-81.01 1698.95,-86.97 1704.58,-91.13"/>
</g>
<!-- Node40&#45;&gt;Node4 -->
<g id="edge77" class="edge">
<title>Node40&#45;&gt;Node4</title>
<path fill="none" stroke="midnightblue" d="M2830.56,-694.25C2835.75,-675.74 2847,-631.18 2847,-593 2847,-593 2847,-593 2847,-535 2847,-440.13 2836.11,-416.82 2833,-322 2832.71,-313.12 2831.04,-310.67 2833,-302 2835.63,-290.33 2841.29,-278.2 2846.45,-268.75"/>
<polygon fill="midnightblue" stroke="midnightblue" points="2849.53,-270.42 2851.5,-260.01 2843.47,-266.92 2849.53,-270.42"/>
</g>
<!-- Node40&#45;&gt;Node6 -->
<g id="edge75" class="edge">
<title>Node40&#45;&gt;Node6</title>
<path fill="none" stroke="midnightblue" d="M2866.95,-694.47C2897.29,-687.03 2939.98,-674.79 2975,-658 3034.85,-629.3 3422.09,-368.96 3469,-322 3498.82,-292.15 3519.99,-275.14 3507,-235 3487.13,-173.62 3430.19,-120.7 3395.66,-93.03"/>
<polygon fill="midnightblue" stroke="midnightblue" points="3397.43,-89.97 3387.4,-86.55 3393.11,-95.47 3397.43,-89.97"/>
</g>
<!-- Node40&#45;&gt;Node7 -->
<g id="edge76" class="edge">
<title>Node40&#45;&gt;Node7</title>
<path fill="none" stroke="midnightblue" d="M2780.37,-702.38C2509.67,-698.57 1177,-675.59 1177,-593 1177,-593 1177,-593 1177,-479 1177,-377 1177,-254.74 1177,-208.73"/>
<polygon fill="midnightblue" stroke="midnightblue" points="1180.5,-208.51 1177,-198.51 1173.5,-208.51 1180.5,-208.51"/>
</g>
<!-- Node40&#45;&gt;Node18 -->
<g id="edge74" class="edge">
<title>Node40&#45;&gt;Node18</title>
<path fill="none" stroke="midnightblue" d="M2780.36,-702.31C2559.45,-699 1633.47,-683.82 1345,-658 1177.16,-642.97 1135.05,-636.01 970,-602 874.55,-582.33 850.78,-575.83 758,-546 483.21,-457.64 371.83,-474.29 172,-266 126.34,-218.41 117.57,-202.44 89,-143 80.86,-126.06 74.82,-105.39 71.16,-90.83"/>
<polygon fill="midnightblue" stroke="midnightblue" points="74.55,-89.96 68.82,-81.05 67.74,-91.59 74.55,-89.96"/>
</g>
<!-- Node40&#45;&gt;Node23 -->
<g id="edge163" class="edge">
<title>Node40&#45;&gt;Node23</title>
<path fill="none" stroke="midnightblue" d="M2847.14,-694.47C2956.47,-644.72 3490.32,-386.97 3300,-179 3231.16,-103.78 2472.76,-78.11 2306.21,-73.36"/>
<polygon fill="midnightblue" stroke="midnightblue" points="2306.2,-69.86 2296.11,-73.07 2306.01,-76.85 2306.2,-69.86"/>
</g>
<!-- Node41 -->
<g id="node41" class="node">
<title>Node41</title>
<g id="a_node41"><a xlink:href="layout_8h.html" target="_top" xlink:title="Definition of layout.">
<polygon fill="white" stroke="black" points="2086,-638.5 2086,-657.5 2184,-657.5 2184,-638.5 2086,-638.5"/>
<text text-anchor="middle" x="2135" y="-645.5" font-family="Helvetica,sans-Serif" font-size="10.00">tvm/tirx/layout.h</text>
</a>
</g>
</g>
<!-- Node40&#45;&gt;Node41 -->
<g id="edge78" class="edge">
<title>Node40&#45;&gt;Node41</title>
<path fill="none" stroke="midnightblue" d="M2780.37,-699.29C2657.43,-689.71 2329.65,-664.17 2194.52,-653.64"/>
<polygon fill="midnightblue" stroke="midnightblue" points="2194.6,-650.13 2184.35,-652.85 2194.05,-657.11 2194.6,-650.13"/>
</g>
<!-- Node40&#45;&gt;Node58 -->
<g id="edge162" class="edge">
<title>Node40&#45;&gt;Node58</title>
<path fill="none" stroke="midnightblue" d="M2839.54,-694.43C2860.8,-677.57 2904,-637.8 2904,-593 2904,-593 2904,-593 2904,-535 2904,-483.58 2963.23,-452.42 3004.36,-436.98"/>
<polygon fill="midnightblue" stroke="midnightblue" points="3005.63,-440.24 3013.86,-433.57 3003.27,-433.65 3005.63,-440.24"/>
</g>
<!-- Node41&#45;&gt;Node13 -->
<g id="edge82" class="edge">
<title>Node41&#45;&gt;Node13</title>
<path fill="none" stroke="midnightblue" d="M2184.19,-641.88C2347,-621.88 2868.33,-532.82 3050,-199 3054.25,-191.19 3055.91,-185.64 3050,-179 3047.27,-175.93 2825.24,-151.54 2718.76,-140.01"/>
<polygon fill="midnightblue" stroke="midnightblue" points="2718.84,-136.5 2708.52,-138.9 2718.09,-143.46 2718.84,-136.5"/>
</g>
<!-- Node41&#45;&gt;Node18 -->
<g id="edge79" class="edge">
<title>Node41&#45;&gt;Node18</title>
<path fill="none" stroke="midnightblue" d="M2085.86,-646.72C1904.46,-645.4 1272.82,-638.24 1075,-602 763.67,-544.96 689.91,-502.7 399,-378 245.25,-312.09 200.48,-280.35 105,-143 93.25,-126.1 82.38,-105.16 75.3,-90.52"/>
<polygon fill="midnightblue" stroke="midnightblue" points="78.3,-88.66 70.86,-81.11 71.97,-91.65 78.3,-88.66"/>
</g>
<!-- Node41&#45;&gt;Node19 -->
<g id="edge81" class="edge">
<title>Node41&#45;&gt;Node19</title>
<path fill="none" stroke="midnightblue" d="M2085.86,-646.34C1895.22,-643.14 1215,-625.52 1215,-537 1215,-537 1215,-537 1215,-479 1215,-339.54 1044.68,-294.4 1123,-179 1136.7,-158.81 1284.9,-107.63 1354.84,-84.35"/>
<polygon fill="midnightblue" stroke="midnightblue" points="1356.18,-87.59 1364.57,-81.12 1353.98,-80.95 1356.18,-87.59"/>
</g>
<!-- Node42 -->
<g id="node42" class="node">
<title>Node42</title>
<g id="a_node42"><a xlink:title=" ">
<polygon fill="white" stroke="#bfbfbf" points="2068,-582.5 2068,-601.5 2202,-601.5 2202,-582.5 2068,-582.5"/>
<text text-anchor="middle" x="2135" y="-589.5" font-family="Helvetica,sans-Serif" font-size="10.00">tvm/ffi/container/tuple.h</text>
</a>
</g>
</g>
<!-- Node41&#45;&gt;Node42 -->
<g id="edge80" class="edge">
<title>Node41&#45;&gt;Node42</title>
<path fill="none" stroke="midnightblue" d="M2135,-638.08C2135,-631.01 2135,-620.86 2135,-611.99"/>
<polygon fill="midnightblue" stroke="midnightblue" points="2138.5,-611.75 2135,-601.75 2131.5,-611.75 2138.5,-611.75"/>
</g>
<!-- Node43 -->
<g id="node43" class="node">
<title>Node43</title>
<g id="a_node43"><a xlink:href="attr__registry__map_8h.html" target="_top" xlink:title="Attribute map used in registry.">
<polygon fill="white" stroke="black" points="863.5,-235.5 863.5,-265.5 972.5,-265.5 972.5,-235.5 863.5,-235.5"/>
<text text-anchor="start" x="871.5" y="-253.5" font-family="Helvetica,sans-Serif" font-size="10.00">tvm/ir/attr_registry</text>
<text text-anchor="middle" x="918" y="-242.5" font-family="Helvetica,sans-Serif" font-size="10.00">_map.h</text>
</a>
</g>
</g>
<!-- Node41&#45;&gt;Node43 -->
<g id="edge83" class="edge">
<title>Node41&#45;&gt;Node43</title>
<path fill="none" stroke="midnightblue" d="M2085.8,-646.18C1918.69,-643.14 1373.68,-631.18 1201,-602 1114.19,-587.33 1082.1,-597.91 1011,-546 954.86,-505.01 907.52,-339.81 904,-322 900.92,-306.39 904.38,-288.84 908.63,-275.16"/>
<polygon fill="midnightblue" stroke="midnightblue" points="911.99,-276.14 911.94,-265.54 905.38,-273.86 911.99,-276.14"/>
</g>
<!-- Node44 -->
<g id="node44" class="node">
<title>Node44</title>
<g id="a_node44"><a xlink:href="module_8h.html" target="_top" xlink:title="IRModule that holds the functions and type definitions.">
<polygon fill="white" stroke="black" points="2029.5,-526.5 2029.5,-545.5 2124.5,-545.5 2124.5,-526.5 2029.5,-526.5"/>
<text text-anchor="middle" x="2077" y="-533.5" font-family="Helvetica,sans-Serif" font-size="10.00">tvm/ir/module.h</text>
</a>
</g>
</g>
<!-- Node41&#45;&gt;Node44 -->
<g id="edge87" class="edge">
<title>Node41&#45;&gt;Node44</title>
<path fill="none" stroke="midnightblue" d="M2106.98,-638.4C2089.83,-631.51 2069.25,-619.98 2059,-602 2050.51,-587.1 2057.62,-567.98 2065.27,-554.34"/>
<polygon fill="midnightblue" stroke="midnightblue" points="2068.44,-555.86 2070.71,-545.51 2062.48,-552.19 2068.44,-555.86"/>
</g>
<!-- Node56 -->
<g id="node56" class="node">
<title>Node56</title>
<g id="a_node56"><a xlink:href="exec__scope_8h.html" target="_top" xlink:title=" ">
<polygon fill="white" stroke="black" points="2220,-582.5 2220,-601.5 2344,-601.5 2344,-582.5 2220,-582.5"/>
<text text-anchor="middle" x="2282" y="-589.5" font-family="Helvetica,sans-Serif" font-size="10.00">tvm/tirx/exec_scope.h</text>
</a>
</g>
</g>
<!-- Node41&#45;&gt;Node56 -->
<g id="edge150" class="edge">
<title>Node41&#45;&gt;Node56</title>
<path fill="none" stroke="midnightblue" d="M2158.29,-638.44C2182.81,-629.44 2221.6,-615.19 2249.2,-605.05"/>
<polygon fill="midnightblue" stroke="midnightblue" points="2250.64,-608.25 2258.82,-601.52 2248.22,-601.68 2250.64,-608.25"/>
</g>
<!-- Node41&#45;&gt;Node58 -->
<g id="edge161" class="edge">
<title>Node41&#45;&gt;Node58</title>
<path fill="none" stroke="midnightblue" d="M2184.08,-645.73C2298.72,-642.3 2581.16,-631.09 2671,-602 2779.12,-567 2785.97,-515.74 2890,-470 2923.59,-455.23 2963.4,-443.69 2993.99,-436"/>
<polygon fill="midnightblue" stroke="midnightblue" points="2995.12,-439.33 3003.99,-433.54 2993.45,-432.53 2995.12,-439.33"/>
</g>
<!-- Node43&#45;&gt;Node7 -->
<g id="edge84" class="edge">
<title>Node43&#45;&gt;Node7</title>
<path fill="none" stroke="midnightblue" d="M972.61,-236.95C1019.29,-226.23 1085.74,-210.97 1130.06,-200.78"/>
<polygon fill="midnightblue" stroke="midnightblue" points="1131.03,-204.15 1140,-198.5 1129.47,-197.33 1131.03,-204.15"/>
</g>
<!-- Node43&#45;&gt;Node15 -->
<g id="edge85" class="edge">
<title>Node43&#45;&gt;Node15</title>
<path fill="none" stroke="midnightblue" d="M924.65,-235.31C939.64,-203.36 976.02,-125.78 992.56,-90.5"/>
<polygon fill="midnightblue" stroke="midnightblue" points="995.76,-91.91 996.84,-81.37 989.42,-88.94 995.76,-91.91"/>
</g>
<!-- Node43&#45;&gt;Node24 -->
<g id="edge86" class="edge">
<title>Node43&#45;&gt;Node24</title>
<path fill="none" stroke="midnightblue" d="M896.74,-235.36C875.2,-221.06 840.87,-198.36 811,-179 759.53,-145.63 698.7,-107.05 666.55,-86.73"/>
<polygon fill="midnightblue" stroke="midnightblue" points="668.22,-83.65 657.9,-81.27 664.49,-89.57 668.22,-83.65"/>
</g>
<!-- Node44&#45;&gt;Node4 -->
<g id="edge93" class="edge">
<title>Node44&#45;&gt;Node4</title>
<path fill="none" stroke="midnightblue" d="M2118.47,-526.48C2161.61,-517.57 2231.1,-503.09 2291,-490 2400.97,-465.97 2437.03,-483.76 2538,-434 2620.38,-393.4 2616.37,-345.98 2697,-302 2731.88,-282.98 2775.01,-269.89 2807.7,-261.81"/>
<polygon fill="midnightblue" stroke="midnightblue" points="2808.58,-265.2 2817.49,-259.47 2806.94,-258.39 2808.58,-265.2"/>
</g>
<!-- Node44&#45;&gt;Node6 -->
<g id="edge90" class="edge">
<title>Node44&#45;&gt;Node6</title>
<path fill="none" stroke="midnightblue" d="M2124.54,-527.17C2127.74,-526.75 2130.91,-526.35 2134,-526 2559.45,-477.78 2679.82,-546.32 3093,-434 3254.88,-389.99 3355.34,-415.73 3431,-266 3460.65,-207.32 3413.91,-131.71 3386.17,-94.79"/>
<polygon fill="midnightblue" stroke="midnightblue" points="3388.79,-92.46 3379.91,-86.68 3383.25,-96.74 3388.79,-92.46"/>
</g>
<!-- Node44&#45;&gt;Node7 -->
<g id="edge91" class="edge">
<title>Node44&#45;&gt;Node7</title>
<path fill="none" stroke="midnightblue" d="M2029.25,-530.33C1971.32,-524.03 1871,-511.12 1787,-490 1547.3,-429.74 1488.26,-395.92 1278,-266 1247.43,-247.11 1214.64,-221.29 1194.98,-205.13"/>
<polygon fill="midnightblue" stroke="midnightblue" points="1197.1,-202.34 1187.16,-198.65 1192.63,-207.73 1197.1,-202.34"/>
</g>
<!-- Node44&#45;&gt;Node15 -->
<g id="edge148" class="edge">
<title>Node44&#45;&gt;Node15</title>
<path fill="none" stroke="midnightblue" d="M2029.31,-530.66C1834.81,-512.29 1102.35,-436.65 904,-322 865.39,-299.68 837.97,-276.62 854,-235 879.48,-168.85 945.76,-112.9 979.93,-87.35"/>
<polygon fill="midnightblue" stroke="midnightblue" points="982.27,-89.98 988.28,-81.24 978.14,-84.33 982.27,-89.98"/>
</g>
<!-- Node44&#45;&gt;Node16 -->
<g id="edge92" class="edge">
<title>Node44&#45;&gt;Node16</title>
<path fill="none" stroke="midnightblue" d="M2118.56,-526.48C2155.48,-518.13 2205.75,-504.55 2220,-490 2241.06,-468.5 2239,-455.1 2239,-425 2239,-425 2239,-425 2239,-311 2239,-272.29 2128.18,-224.35 2071.11,-202.23"/>
<polygon fill="midnightblue" stroke="midnightblue" points="2072.04,-198.84 2061.45,-198.54 2069.54,-205.38 2072.04,-198.84"/>
</g>
<!-- Node44&#45;&gt;Node17 -->
<g id="edge143" class="edge">
<title>Node44&#45;&gt;Node17</title>
<path fill="none" stroke="midnightblue" d="M2081.07,-526.27C2099.08,-486.19 2167.21,-318.21 2085,-235 2043.47,-192.96 2011.39,-222.12 1957,-199 1923.91,-184.93 1888.54,-162.85 1866.84,-148.4"/>
<polygon fill="midnightblue" stroke="midnightblue" points="1868.67,-145.41 1858.43,-142.72 1864.76,-151.21 1868.67,-145.41"/>
</g>
<!-- Node44&#45;&gt;Node18 -->
<g id="edge88" class="edge">
<title>Node44&#45;&gt;Node18</title>
<path fill="none" stroke="midnightblue" d="M2029.29,-535.26C1880.15,-535.58 1409.6,-532.86 1023,-490 883.41,-474.52 849.54,-462.41 712,-434 604.73,-411.84 576.71,-410.13 472,-378 405.56,-357.61 384.64,-359.3 326,-322 217.08,-252.72 115.15,-132.6 79.97,-88.95"/>
<polygon fill="midnightblue" stroke="midnightblue" points="82.65,-86.69 73.67,-81.06 77.18,-91.06 82.65,-86.69"/>
</g>
<!-- Node44&#45;&gt;Node23 -->
<g id="edge145" class="edge">
<title>Node44&#45;&gt;Node23</title>
<path fill="none" stroke="midnightblue" d="M2124.55,-527.2C2127.74,-526.77 2130.92,-526.36 2134,-526 2340.31,-501.78 2399.89,-545.75 2600,-490 2841.42,-422.74 3019.06,-441.32 3083,-199 3085.27,-190.41 3088.89,-185.66 3083,-179 3039.38,-129.71 2851.59,-163.36 2789,-143 2771.59,-137.34 2770.45,-128.52 2753,-123 2669.12,-96.49 2399.58,-79.45 2306.21,-74.21"/>
<polygon fill="midnightblue" stroke="midnightblue" points="2306.39,-70.72 2296.22,-73.66 2306.01,-77.71 2306.39,-70.72"/>
</g>
<!-- Node44&#45;&gt;Node24 -->
<g id="edge149" class="edge">
<title>Node44&#45;&gt;Node24</title>
<path fill="none" stroke="midnightblue" d="M2029.07,-534.73C1896.25,-533.52 1512.42,-526.83 1196,-490 920.9,-457.98 849.26,-454.21 583,-378 452.95,-340.78 376.04,-377.87 300,-266 218.15,-145.59 509.16,-91.76 610.46,-76.94"/>
<polygon fill="midnightblue" stroke="midnightblue" points="611.07,-80.38 620.48,-75.51 610.08,-73.45 611.07,-80.38"/>
</g>
<!-- Node44&#45;&gt;Node25 -->
<g id="edge144" class="edge">
<title>Node44&#45;&gt;Node25</title>
<path fill="none" stroke="midnightblue" d="M2124.58,-527.21C2166.88,-519.38 2224.49,-506.16 2241,-490 2321.68,-411.04 2326.64,-261.42 2325.72,-208.84"/>
<polygon fill="midnightblue" stroke="midnightblue" points="2329.21,-208.55 2325.44,-198.65 2322.21,-208.74 2329.21,-208.55"/>
</g>
<!-- Node44&#45;&gt;Node34 -->
<g id="edge89" class="edge">
<title>Node44&#45;&gt;Node34</title>
<path fill="none" stroke="midnightblue" d="M2029.21,-527.46C1906.15,-506.02 1572.93,-435.02 1357,-266 1337.09,-250.41 1321.93,-225.07 1313.25,-207.98"/>
<polygon fill="midnightblue" stroke="midnightblue" points="1316.21,-206.05 1308.7,-198.57 1309.9,-209.1 1316.21,-206.05"/>
</g>
<!-- Node44&#45;&gt;Node38 -->
<g id="edge146" class="edge">
<title>Node44&#45;&gt;Node38</title>
<path fill="none" stroke="midnightblue" d="M2029.46,-533.9C1880.3,-530.21 1422.77,-516.92 1277,-490 1167.81,-469.83 1146.87,-440.36 1039,-414 804.63,-356.72 718.24,-432.95 504,-322 449.73,-293.89 403.78,-235.56 383.35,-206.79"/>
<polygon fill="midnightblue" stroke="midnightblue" points="386.21,-204.78 377.63,-198.56 380.46,-208.77 386.21,-204.78"/>
</g>
<!-- Node45 -->
<g id="node45" class="node">
<title>Node45</title>
<g id="a_node45"><a xlink:href="ir_2function_8h.html" target="_top" xlink:title="Function nodes.">
<polygon fill="white" stroke="black" points="2011,-358.5 2011,-377.5 2109,-377.5 2109,-358.5 2011,-358.5"/>
<text text-anchor="middle" x="2060" y="-365.5" font-family="Helvetica,sans-Serif" font-size="10.00">tvm/ir/function.h</text>
</a>
</g>
</g>
<!-- Node44&#45;&gt;Node45 -->
<g id="edge94" class="edge">
<title>Node44&#45;&gt;Node45</title>
<path fill="none" stroke="midnightblue" d="M2076.09,-526.08C2073.41,-499.95 2065.55,-423.21 2061.9,-387.58"/>
<polygon fill="midnightblue" stroke="midnightblue" points="2065.38,-387.16 2060.88,-377.57 2058.41,-387.87 2065.38,-387.16"/>
</g>
<!-- Node46 -->
<g id="node46" class="node">
<title>Node46</title>
<g id="a_node46"><a xlink:href="ir_2global__info_8h.html" target="_top" xlink:title="GlobalInfo are globally static object that are referred by the IR itself.">
<polygon fill="white" stroke="black" points="2479,-470.5 2479,-489.5 2591,-489.5 2591,-470.5 2479,-470.5"/>
<text text-anchor="middle" x="2535" y="-477.5" font-family="Helvetica,sans-Serif" font-size="10.00">tvm/ir/global_info.h</text>
</a>
</g>
</g>
<!-- Node44&#45;&gt;Node46 -->
<g id="edge102" class="edge">
<title>Node44&#45;&gt;Node46</title>
<path fill="none" stroke="midnightblue" d="M2124.56,-527.33C2127.75,-526.86 2130.92,-526.42 2134,-526 2251.44,-510.15 2388.76,-495.6 2468.41,-487.55"/>
<polygon fill="midnightblue" stroke="midnightblue" points="2469.19,-490.99 2478.78,-486.51 2468.48,-484.02 2469.19,-490.99"/>
</g>
<!-- Node55 -->
<g id="node55" class="node">
<title>Node55</title>
<g id="a_node55"><a xlink:title=" ">
<polygon fill="white" stroke="#bfbfbf" points="2125,-470.5 2125,-489.5 2211,-489.5 2211,-470.5 2125,-470.5"/>
<text text-anchor="middle" x="2168" y="-477.5" font-family="Helvetica,sans-Serif" font-size="10.00">unordered_set</text>
</a>
</g>
</g>
<!-- Node44&#45;&gt;Node55 -->
<g id="edge147" class="edge">
<title>Node44&#45;&gt;Node55</title>
<path fill="none" stroke="midnightblue" d="M2091.62,-526.32C2105.95,-517.82 2128.01,-504.73 2144.75,-494.8"/>
<polygon fill="midnightblue" stroke="midnightblue" points="2146.6,-497.77 2153.42,-489.65 2143.03,-491.75 2146.6,-497.77"/>
</g>
<!-- Node45&#45;&gt;Node4 -->
<g id="edge99" class="edge">
<title>Node45&#45;&gt;Node4</title>
<path fill="none" stroke="midnightblue" d="M2109.04,-362.51C2228.53,-351.11 2543.94,-318.17 2803,-266 2807.99,-265 2813.2,-263.79 2818.33,-262.52"/>
<polygon fill="midnightblue" stroke="midnightblue" points="2819.21,-265.91 2828.01,-260.01 2817.46,-259.13 2819.21,-265.91"/>
</g>
<!-- Node45&#45;&gt;Node7 -->
<g id="edge97" class="edge">
<title>Node45&#45;&gt;Node7</title>
<path fill="none" stroke="midnightblue" d="M2010.67,-366.73C1915.55,-365.36 1700.57,-358.14 1524,-322 1446.48,-306.14 1429.01,-294 1355,-266 1301.23,-245.65 1239.81,-218.55 1205,-202.82"/>
<polygon fill="midnightblue" stroke="midnightblue" points="1206.05,-199.45 1195.5,-198.51 1203.16,-205.82 1206.05,-199.45"/>
</g>
<!-- Node45&#45;&gt;Node18 -->
<g id="edge95" class="edge">
<title>Node45&#45;&gt;Node18</title>
<path fill="none" stroke="midnightblue" d="M2010.72,-367C1762.11,-366.78 651.73,-363.5 504,-322 325.6,-271.89 142.82,-133.53 85.4,-87.57"/>
<polygon fill="midnightblue" stroke="midnightblue" points="87.54,-84.8 77.56,-81.24 83.15,-90.25 87.54,-84.8"/>
</g>
<!-- Node45&#45;&gt;Node23 -->
<g id="edge100" class="edge">
<title>Node45&#45;&gt;Node23</title>
<path fill="none" stroke="midnightblue" d="M2071.54,-358.49C2081.48,-350.38 2095.12,-337.18 2101,-322 2114.96,-285.94 2124.8,-265.48 2101,-235 2058.74,-180.87 1920.69,-237.29 1957,-179 1986.85,-131.09 2017.62,-141.37 2071,-123 2144.85,-97.58 2168.91,-111.71 2243,-87 2244.67,-86.44 2246.36,-85.82 2248.06,-85.16"/>
<polygon fill="midnightblue" stroke="midnightblue" points="2249.77,-88.23 2257.56,-81.05 2246.99,-81.81 2249.77,-88.23"/>
</g>
<!-- Node45&#45;&gt;Node29 -->
<g id="edge101" class="edge">
<title>Node45&#45;&gt;Node29</title>
<path fill="none" stroke="midnightblue" d="M2063.66,-358.32C2072.8,-335.15 2093.72,-271.16 2063,-235 1998.85,-159.5 1932.78,-240.9 1843,-199 1789.88,-174.21 1745.57,-118.2 1725.52,-89.77"/>
<polygon fill="midnightblue" stroke="midnightblue" points="1728.22,-87.52 1719.67,-81.26 1722.45,-91.49 1728.22,-87.52"/>
</g>
<!-- Node45&#45;&gt;Node34 -->
<g id="edge96" class="edge">
<title>Node45&#45;&gt;Node34</title>
<path fill="none" stroke="midnightblue" d="M2010.78,-363.01C1876.37,-351.58 1505.73,-316.25 1395,-266 1390.8,-264.09 1347.74,-227.06 1322.73,-205.4"/>
<polygon fill="midnightblue" stroke="midnightblue" points="1324.88,-202.63 1315.03,-198.72 1320.29,-207.92 1324.88,-202.63"/>
</g>
<!-- Node45&#45;&gt;Node35 -->
<g id="edge98" class="edge">
<title>Node45&#45;&gt;Node35</title>
<path fill="none" stroke="midnightblue" d="M2040.19,-358.44C2019.71,-349.6 1987.52,-335.69 1964.14,-325.59"/>
<polygon fill="midnightblue" stroke="midnightblue" points="1965.28,-322.27 1954.71,-321.52 1962.51,-328.7 1965.28,-322.27"/>
</g>
<!-- Node46&#45;&gt;Node4 -->
<g id="edge104" class="edge">
<title>Node46&#45;&gt;Node4</title>
<path fill="none" stroke="midnightblue" d="M2556.41,-470.39C2574.62,-462.49 2600.93,-449.64 2621,-434 2647.32,-413.49 2650.91,-404.64 2671,-378 2695.05,-346.1 2687.91,-327.09 2719,-302 2744.46,-281.45 2779.04,-268.81 2807.22,-261.32"/>
<polygon fill="midnightblue" stroke="midnightblue" points="2808.44,-264.62 2817.28,-258.79 2806.73,-257.84 2808.44,-264.62"/>
</g>
<!-- Node46&#45;&gt;Node6 -->
<g id="edge103" class="edge">
<title>Node46&#45;&gt;Node6</title>
<path fill="none" stroke="midnightblue" d="M2578.72,-470.46C2699.14,-445.37 3042.27,-363.07 3277,-199 3307.43,-177.73 3317.63,-173.37 3339,-143 3348.99,-128.8 3356.36,-110.65 3361.16,-96.32"/>
<polygon fill="midnightblue" stroke="midnightblue" points="3364.54,-97.26 3364.21,-86.67 3357.86,-95.15 3364.54,-97.26"/>
</g>
<!-- Node47 -->
<g id="node47" class="node">
<title>Node47</title>
<g id="a_node47"><a xlink:href="target_8h.html" target="_top" xlink:title="Compilation target object.">
<polygon fill="white" stroke="black" points="2419,-414.5 2419,-433.5 2529,-433.5 2529,-414.5 2419,-414.5"/>
<text text-anchor="middle" x="2474" y="-421.5" font-family="Helvetica,sans-Serif" font-size="10.00">tvm/target/target.h</text>
</a>
</g>
</g>
<!-- Node46&#45;&gt;Node47 -->
<g id="edge105" class="edge">
<title>Node46&#45;&gt;Node47</title>
<path fill="none" stroke="midnightblue" d="M2525.2,-470.32C2516.18,-462.34 2502.59,-450.31 2491.68,-440.65"/>
<polygon fill="midnightblue" stroke="midnightblue" points="2493.79,-437.84 2483.98,-433.83 2489.15,-443.08 2493.79,-437.84"/>
</g>
<!-- Node47&#45;&gt;Node4 -->
<g id="edge108" class="edge">
<title>Node47&#45;&gt;Node4</title>
<path fill="none" stroke="midnightblue" d="M2486.3,-414.42C2499.22,-405.41 2520.09,-390.78 2538,-378 2584.9,-344.54 2590.62,-325.97 2643,-302 2696.3,-277.61 2762.64,-264.31 2807.21,-257.57"/>
<polygon fill="midnightblue" stroke="midnightblue" points="2807.82,-261.02 2817.21,-256.12 2806.81,-254.09 2807.82,-261.02"/>
</g>
<!-- Node47&#45;&gt;Node6 -->
<g id="edge106" class="edge">
<title>Node47&#45;&gt;Node6</title>
<path fill="none" stroke="midnightblue" d="M2529.16,-414.63C2659.77,-393.23 2995.77,-328.82 3246,-199 3281.37,-180.65 3288.39,-171.72 3316,-143 3330.23,-128.2 3343.91,-109.41 3353.66,-94.95"/>
<polygon fill="midnightblue" stroke="midnightblue" points="3356.6,-96.85 3359.2,-86.58 3350.76,-92.99 3356.6,-96.85"/>
</g>
<!-- Node47&#45;&gt;Node8 -->
<g id="edge107" class="edge">
<title>Node47&#45;&gt;Node8</title>
<path fill="none" stroke="midnightblue" d="M2482.44,-414.48C2512.05,-384.49 2609.78,-284.65 2617,-266 2621.97,-253.15 2623.99,-246.87 2617,-235 2608.08,-219.84 2592.01,-209.43 2576.52,-202.46"/>
<polygon fill="midnightblue" stroke="midnightblue" points="2577.6,-199.12 2567.02,-198.56 2574.94,-205.6 2577.6,-199.12"/>
</g>
<!-- Node47&#45;&gt;Node23 -->
<g id="edge142" class="edge">
<title>Node47&#45;&gt;Node23</title>
<path fill="none" stroke="midnightblue" d="M2471.61,-414.39C2462.91,-384.75 2430.16,-285.9 2367,-235 2325.3,-201.39 2287.74,-238.88 2252,-199 2229.22,-173.58 2231.26,-155.71 2241,-123 2244.71,-110.52 2252.6,-98.26 2259.73,-88.94"/>
<polygon fill="midnightblue" stroke="midnightblue" points="2262.59,-90.97 2266.18,-81 2257.16,-86.56 2262.59,-90.97"/>
</g>
<!-- Node47&#45;&gt;Node45 -->
<g id="edge109" class="edge">
<title>Node47&#45;&gt;Node45</title>
<path fill="none" stroke="midnightblue" d="M2418.6,-415.77C2340.79,-405.62 2199.72,-387.22 2119.67,-376.78"/>
<polygon fill="midnightblue" stroke="midnightblue" points="2119.64,-373.25 2109.27,-375.43 2118.73,-380.19 2119.64,-373.25"/>
</g>
<!-- Node47&#45;&gt;Node48 -->
<g id="edge110" class="edge">
<title>Node47&#45;&gt;Node48</title>
<path fill="none" stroke="midnightblue" d="M2418.9,-420.45C2279.87,-413.94 1903.55,-396.01 1590,-378 1234.81,-357.6 810.06,-329.09 644.72,-317.84"/>
<polygon fill="midnightblue" stroke="midnightblue" points="644.89,-314.35 634.68,-317.16 644.42,-321.33 644.89,-314.35"/>
</g>
<!-- Node51 -->
<g id="node51" class="node">
<title>Node51</title>
<g id="a_node51"><a xlink:href="device__api_8h.html" target="_top" xlink:title="Abstract device memory management API.">
<polygon fill="white" stroke="black" points="2495.5,-235.5 2495.5,-265.5 2608.5,-265.5 2608.5,-235.5 2495.5,-235.5"/>
<text text-anchor="start" x="2503.5" y="-253.5" font-family="Helvetica,sans-Serif" font-size="10.00">tvm/runtime/device</text>
<text text-anchor="middle" x="2552" y="-242.5" font-family="Helvetica,sans-Serif" font-size="10.00">_api.h</text>
</a>
</g>
</g>
<!-- Node47&#45;&gt;Node51 -->
<g id="edge116" class="edge">
<title>Node47&#45;&gt;Node51</title>
<path fill="none" stroke="midnightblue" d="M2477.98,-414.26C2489.57,-388.76 2523.66,-313.81 2541.24,-275.15"/>
<polygon fill="midnightblue" stroke="midnightblue" points="2544.58,-276.27 2545.53,-265.72 2538.21,-273.38 2544.58,-276.27"/>
</g>
<!-- Node52 -->
<g id="node52" class="node">
<title>Node52</title>
<g id="a_node52"><a xlink:href="target__kind_8h.html" target="_top" xlink:title="Target kind registry.">
<polygon fill="white" stroke="black" points="913,-302.5 913,-321.5 1049,-321.5 1049,-302.5 913,-302.5"/>
<text text-anchor="middle" x="981" y="-309.5" font-family="Helvetica,sans-Serif" font-size="10.00">tvm/target/target_kind.h</text>
</a>
</g>
</g>
<!-- Node47&#45;&gt;Node52 -->
<g id="edge123" class="edge">
<title>Node47&#45;&gt;Node52</title>
<path fill="none" stroke="midnightblue" d="M2418.65,-418.92C2190.94,-402.14 1325.99,-338.42 1059.58,-318.79"/>
<polygon fill="midnightblue" stroke="midnightblue" points="1059.46,-315.27 1049.23,-318.03 1058.94,-322.25 1059.46,-315.27"/>
</g>
<!-- Node48&#45;&gt;Node15 -->
<g id="edge114" class="edge">
<title>Node48&#45;&gt;Node15</title>
<path fill="none" stroke="midnightblue" d="M549.53,-302.44C533.43,-295.38 513.62,-283.63 504,-266 497.4,-253.91 496.23,-246.38 504,-235 558.48,-155.15 866.26,-95.7 968.2,-77.96"/>
<polygon fill="midnightblue" stroke="midnightblue" points="968.97,-81.38 978.23,-76.24 967.78,-74.48 968.97,-81.38"/>
</g>
<!-- Node48&#45;&gt;Node24 -->
<g id="edge115" class="edge">
<title>Node48&#45;&gt;Node24</title>
<path fill="none" stroke="midnightblue" d="M526.67,-302.42C505.9,-296.05 483.45,-285.02 471,-266 463.46,-254.47 468.76,-248.59 471,-235 479.56,-183.14 472.41,-160.74 509,-123 536.03,-95.12 579.91,-82.48 610.27,-76.85"/>
<polygon fill="midnightblue" stroke="midnightblue" points="611.11,-80.26 620.39,-75.14 609.95,-73.36 611.11,-80.26"/>
</g>
<!-- Node48&#45;&gt;Node31 -->
<g id="edge112" class="edge">
<title>Node48&#45;&gt;Node31</title>
<path fill="none" stroke="midnightblue" d="M634.52,-309.24C700.7,-307.33 809.89,-304.27 904,-302 1094.32,-297.4 2430.16,-302.5 2617,-266 2681.97,-253.31 2753.38,-221.21 2790.46,-203.05"/>
<polygon fill="midnightblue" stroke="midnightblue" points="2792.14,-206.12 2799.54,-198.53 2789.03,-199.85 2792.14,-206.12"/>
</g>
<!-- Node49 -->
<g id="node49" class="node">
<title>Node49</title>
<g id="a_node49"><a xlink:title=" ">
<polygon fill="white" stroke="#bfbfbf" points="513.5,-241 513.5,-260 578.5,-260 578.5,-241 513.5,-241"/>
<text text-anchor="middle" x="546" y="-248" font-family="Helvetica,sans-Serif" font-size="10.00">exception</text>
</a>
</g>
</g>
<!-- Node48&#45;&gt;Node49 -->
<g id="edge111" class="edge">
<title>Node48&#45;&gt;Node49</title>
<path fill="none" stroke="midnightblue" d="M569.99,-302.48C565.91,-293.82 559.48,-280.15 554.3,-269.15"/>
<polygon fill="midnightblue" stroke="midnightblue" points="557.43,-267.57 550,-260.01 551.1,-270.55 557.43,-267.57"/>
</g>
<!-- Node48&#45;&gt;Node50 -->
<g id="edge113" class="edge">
<title>Node48&#45;&gt;Node50</title>
<path fill="none" stroke="midnightblue" d="M581.45,-302.48C589.33,-293.46 601.94,-279.02 611.74,-267.81"/>
<polygon fill="midnightblue" stroke="midnightblue" points="614.62,-269.84 618.56,-260.01 609.35,-265.24 614.62,-269.84"/>
</g>
<!-- Node51&#45;&gt;Node7 -->
<g id="edge120" class="edge">
<title>Node51&#45;&gt;Node7</title>
<path fill="none" stroke="midnightblue" d="M2495.46,-248.32C2278.89,-243.65 1501.25,-225.48 1231.9,-199.05"/>
<polygon fill="midnightblue" stroke="midnightblue" points="1232.06,-195.54 1221.76,-198.02 1231.36,-202.51 1232.06,-195.54"/>
</g>
<!-- Node51&#45;&gt;Node9 -->
<g id="edge117" class="edge">
<title>Node51&#45;&gt;Node9</title>
<path fill="none" stroke="midnightblue" d="M2531.84,-235.47C2517.72,-225.51 2498.5,-211.72 2482,-199 2460.64,-182.53 2436.82,-162.73 2420.97,-149.34"/>
<polygon fill="midnightblue" stroke="midnightblue" points="2422.95,-146.42 2413.06,-142.62 2418.42,-151.76 2422.95,-146.42"/>
</g>
<!-- Node51&#45;&gt;Node12 -->
<g id="edge118" class="edge">
<title>Node51&#45;&gt;Node12</title>
<path fill="none" stroke="midnightblue" d="M2495.46,-237.71C2490.58,-236.77 2485.7,-235.85 2481,-235 2379.61,-216.69 2343.96,-245.45 2252,-199 2199.88,-172.68 2155.65,-117.38 2135.56,-89.43"/>
<polygon fill="midnightblue" stroke="midnightblue" points="2138.31,-87.25 2129.69,-81.08 2132.58,-91.28 2138.31,-87.25"/>
</g>
<!-- Node51&#45;&gt;Node14 -->
<g id="edge119" class="edge">
<title>Node51&#45;&gt;Node14</title>
<path fill="none" stroke="midnightblue" d="M2524.28,-235.46C2510.66,-226.94 2495.59,-214.67 2488,-199 2480.4,-183.32 2488.66,-164.34 2497.15,-150.95"/>
<polygon fill="midnightblue" stroke="midnightblue" points="2500.05,-152.9 2502.86,-142.68 2494.3,-148.92 2500.05,-152.9"/>
</g>
<!-- Node51&#45;&gt;Node20 -->
<g id="edge121" class="edge">
<title>Node51&#45;&gt;Node20</title>
<path fill="none" stroke="midnightblue" d="M2569.1,-235.29C2590.19,-218.65 2627.82,-191.75 2665,-179 2812.51,-128.43 2863.98,-185.54 3014,-143 3060.23,-129.89 3109.72,-102.92 3137.57,-86.4"/>
<polygon fill="midnightblue" stroke="midnightblue" points="3139.39,-89.39 3146.15,-81.23 3135.78,-83.39 3139.39,-89.39"/>
</g>
<!-- Node51&#45;&gt;Node23 -->
<g id="edge122" class="edge">
<title>Node51&#45;&gt;Node23</title>
<path fill="none" stroke="midnightblue" d="M2495.45,-237.8C2490.56,-236.84 2485.7,-235.89 2481,-235 2390.12,-217.74 2350.17,-254.28 2276,-199 2247.14,-177.49 2239.52,-157.98 2248,-123 2250.83,-111.33 2256.84,-99.35 2262.38,-89.98"/>
<polygon fill="midnightblue" stroke="midnightblue" points="2265.48,-91.62 2267.82,-81.29 2259.54,-87.91 2265.48,-91.62"/>
</g>
<!-- Node52&#45;&gt;Node6 -->
<g id="edge125" class="edge">
<title>Node52&#45;&gt;Node6</title>
<path fill="none" stroke="midnightblue" d="M1049.15,-310.49C1353.14,-308.05 2573.8,-296.4 2649,-266 2702.08,-244.54 2691.79,-202.49 2744,-179 2884.6,-115.75 2937.21,-169.95 3089,-143 3166.96,-129.16 3255.32,-105.43 3311.33,-89.37"/>
<polygon fill="midnightblue" stroke="midnightblue" points="3312.42,-92.7 3321.06,-86.56 3310.48,-85.97 3312.42,-92.7"/>
</g>
<!-- Node52&#45;&gt;Node15 -->
<g id="edge140" class="edge">
<title>Node52&#45;&gt;Node15</title>
<path fill="none" stroke="midnightblue" d="M981.74,-302.23C984.65,-267.53 995.39,-139.39 999.44,-91.09"/>
<polygon fill="midnightblue" stroke="midnightblue" points="1002.93,-91.36 1000.28,-81.1 995.96,-90.77 1002.93,-91.36"/>
</g>
<!-- Node52&#45;&gt;Node19 -->
<g id="edge124" class="edge">
<title>Node52&#45;&gt;Node19</title>
<path fill="none" stroke="midnightblue" d="M985.91,-302.22C999.43,-278.8 1039.59,-214.26 1090,-179 1165.46,-126.23 1269.72,-97.1 1333.64,-83.15"/>
<polygon fill="midnightblue" stroke="midnightblue" points="1334.49,-86.55 1343.54,-81.04 1333.03,-79.7 1334.49,-86.55"/>
</g>
<!-- Node52&#45;&gt;Node20 -->
<g id="edge137" class="edge">
<title>Node52&#45;&gt;Node20</title>
<path fill="none" stroke="midnightblue" d="M1049.13,-310.54C1349.53,-308.34 2544.12,-297.62 2617,-266 2666.88,-244.36 2653.96,-202.48 2703,-179 2844.84,-111.09 2907.09,-196.42 3055,-143 3089.36,-130.59 3123.41,-104.53 3143.04,-87.81"/>
<polygon fill="midnightblue" stroke="midnightblue" points="3145.52,-90.28 3150.76,-81.07 3140.92,-85.01 3145.52,-90.28"/>
</g>
<!-- Node52&#45;&gt;Node24 -->
<g id="edge141" class="edge">
<title>Node52&#45;&gt;Node24</title>
<path fill="none" stroke="midnightblue" d="M945.08,-302.46C918.66,-295.2 882.55,-283.21 854,-266 769.1,-214.82 688.7,-125.53 657.57,-88.9"/>
<polygon fill="midnightblue" stroke="midnightblue" points="660.18,-86.55 651.06,-81.15 654.82,-91.05 660.18,-86.55"/>
</g>
<!-- Node52&#45;&gt;Node38 -->
<g id="edge139" class="edge">
<title>Node52&#45;&gt;Node38</title>
<path fill="none" stroke="midnightblue" d="M912.75,-308.47C855.82,-304.35 773.56,-293.65 707,-266 685.24,-256.96 685.8,-243.93 664,-235 586.49,-203.25 489.05,-193.7 428.64,-190.94"/>
<polygon fill="midnightblue" stroke="midnightblue" points="428.68,-187.44 418.54,-190.53 428.39,-194.43 428.68,-187.44"/>
</g>
<!-- Node52&#45;&gt;Node43 -->
<g id="edge126" class="edge">
<title>Node52&#45;&gt;Node43</title>
<path fill="none" stroke="midnightblue" d="M971.97,-302.48C963.76,-294.72 951.29,-282.94 940.41,-272.66"/>
<polygon fill="midnightblue" stroke="midnightblue" points="942.52,-269.84 932.85,-265.52 937.71,-274.93 942.52,-269.84"/>
</g>
<!-- Node52&#45;&gt;Node50 -->
<g id="edge138" class="edge">
<title>Node52&#45;&gt;Node50</title>
<path fill="none" stroke="midnightblue" d="M912.77,-304.77C849.11,-298.11 751.78,-285.75 669,-266 665.6,-265.19 662.09,-264.22 658.61,-263.18"/>
<polygon fill="midnightblue" stroke="midnightblue" points="659.57,-259.82 648.98,-260.11 657.45,-266.49 659.57,-259.82"/>
</g>
<!-- Node53 -->
<g id="node53" class="node">
<title>Node53</title>
<g id="a_node53"><a xlink:href="config__schema_8h.html" target="_top" xlink:title="Minimal schema for dynamic config canonicalization and validation.">
<polygon fill="white" stroke="black" points="1485.5,-241 1485.5,-260 1616.5,-260 1616.5,-241 1485.5,-241"/>
<text text-anchor="middle" x="1551" y="-248" font-family="Helvetica,sans-Serif" font-size="10.00">tvm/ir/config_schema.h</text>
</a>
</g>
</g>
<!-- Node52&#45;&gt;Node53 -->
<g id="edge127" class="edge">
<title>Node52&#45;&gt;Node53</title>
<path fill="none" stroke="midnightblue" d="M1049.19,-303.88C1156.36,-292.69 1363.49,-271.07 1475.2,-259.41"/>
<polygon fill="midnightblue" stroke="midnightblue" points="1475.79,-262.87 1485.37,-258.35 1475.06,-255.91 1475.79,-262.87"/>
</g>
<!-- Node53&#45;&gt;Node6 -->
<g id="edge130" class="edge">
<title>Node53&#45;&gt;Node6</title>
<path fill="none" stroke="midnightblue" d="M1588.47,-240.98C1600.11,-238.65 1613.04,-236.39 1625,-235 2048.68,-185.84 2159.7,-242.44 2584,-199 2637.35,-193.54 2649.85,-186.15 2703,-179 2860.17,-157.85 2901.5,-168.63 3058,-143 3146.23,-128.55 3246.92,-104.16 3308.98,-88.2"/>
<polygon fill="midnightblue" stroke="midnightblue" points="3310.17,-91.5 3318.97,-85.61 3308.41,-84.73 3310.17,-91.5"/>
</g>
<!-- Node53&#45;&gt;Node15 -->
<g id="edge135" class="edge">
<title>Node53&#45;&gt;Node15</title>
<path fill="none" stroke="midnightblue" d="M1541.56,-240.93C1524.67,-226.06 1487.6,-195.49 1451,-179 1303.79,-112.69 1110.16,-84.84 1033.89,-75.94"/>
<polygon fill="midnightblue" stroke="midnightblue" points="1033.84,-72.42 1023.51,-74.77 1033.05,-79.37 1033.84,-72.42"/>
</g>
<!-- Node53&#45;&gt;Node19 -->
<g id="edge129" class="edge">
<title>Node53&#45;&gt;Node19</title>
<path fill="none" stroke="midnightblue" d="M1545.04,-240.69C1534.92,-226.26 1513.11,-197.37 1489,-179 1459.91,-156.83 1439.2,-170.42 1415,-143 1402.2,-128.49 1396.16,-106.85 1393.35,-91.37"/>
<polygon fill="midnightblue" stroke="midnightblue" points="1396.8,-90.74 1391.83,-81.39 1389.88,-91.8 1396.8,-90.74"/>
</g>
<!-- Node53&#45;&gt;Node23 -->
<g id="edge132" class="edge">
<title>Node53&#45;&gt;Node23</title>
<path fill="none" stroke="midnightblue" d="M1585.97,-240.96C1651.19,-224.65 1795.43,-186.77 1913,-143 1933.13,-135.51 1936.33,-128.85 1957,-123 2080.27,-88.1 2119.92,-122.57 2243,-87 2244.93,-86.44 2246.88,-85.78 2248.83,-85.05"/>
<polygon fill="midnightblue" stroke="midnightblue" points="2250.46,-88.16 2258.28,-81.01 2247.71,-81.72 2250.46,-88.16"/>
</g>
<!-- Node53&#45;&gt;Node24 -->
<g id="edge136" class="edge">
<title>Node53&#45;&gt;Node24</title>
<path fill="none" stroke="midnightblue" d="M1533.91,-240.84C1503.55,-225.83 1437.84,-195.06 1379,-179 1114.74,-106.87 782.88,-81.11 677.63,-74.44"/>
<polygon fill="midnightblue" stroke="midnightblue" points="677.79,-70.94 667.6,-73.81 677.36,-77.93 677.79,-70.94"/>
</g>
<!-- Node53&#45;&gt;Node29 -->
<g id="edge133" class="edge">
<title>Node53&#45;&gt;Node29</title>
<path fill="none" stroke="midnightblue" d="M1546.68,-240.69C1540,-227.21 1526.63,-200.76 1514,-179 1504.47,-162.58 1496.32,-161.22 1491,-143 1488.51,-134.47 1485.45,-129.94 1491,-123 1512.85,-95.64 1610.48,-82.01 1669.07,-76.18"/>
<polygon fill="midnightblue" stroke="midnightblue" points="1669.56,-79.65 1679.18,-75.21 1668.89,-72.68 1669.56,-79.65"/>
</g>
<!-- Node53&#45;&gt;Node34 -->
<g id="edge128" class="edge">
<title>Node53&#45;&gt;Node34</title>
<path fill="none" stroke="midnightblue" d="M1515.75,-240.98C1472.1,-230.42 1397.66,-212.41 1349.94,-200.87"/>
<polygon fill="midnightblue" stroke="midnightblue" points="1350.72,-197.46 1340.18,-198.51 1349.08,-204.26 1350.72,-197.46"/>
</g>
<!-- Node53&#45;&gt;Node38 -->
<g id="edge134" class="edge">
<title>Node53&#45;&gt;Node38</title>
<path fill="none" stroke="midnightblue" d="M1485.09,-246.17C1275.22,-235.58 624.92,-202.76 428.65,-192.86"/>
<polygon fill="midnightblue" stroke="midnightblue" points="428.72,-189.36 418.56,-192.35 428.37,-196.35 428.72,-189.36"/>
</g>
<!-- Node54 -->
<g id="node54" class="node">
<title>Node54</title>
<g id="a_node54"><a xlink:title=" ">
<polygon fill="white" stroke="#bfbfbf" points="1579,-179.5 1579,-198.5 1635,-198.5 1635,-179.5 1579,-179.5"/>
<text text-anchor="middle" x="1607" y="-186.5" font-family="Helvetica,sans-Serif" font-size="10.00">sstream</text>
</a>
</g>
</g>
<!-- Node53&#45;&gt;Node54 -->
<g id="edge131" class="edge">
<title>Node53&#45;&gt;Node54</title>
<path fill="none" stroke="midnightblue" d="M1559.02,-240.98C1567.59,-231.87 1581.36,-217.24 1591.96,-205.98"/>
<polygon fill="midnightblue" stroke="midnightblue" points="1594.69,-208.19 1598.99,-198.51 1589.59,-203.39 1594.69,-208.19"/>
</g>
<!-- Node56&#45;&gt;Node15 -->
<g id="edge160" class="edge">
<title>Node56&#45;&gt;Node15</title>
<path fill="none" stroke="midnightblue" d="M2219.77,-582.99C2062.7,-562.75 1653.06,-509.74 1517,-490 1359.36,-467.13 1318.12,-470.2 1163,-434 1027.64,-402.41 967.11,-422.41 871,-322 827.05,-276.08 836.69,-233.73 869,-179 885.23,-151.51 889.78,-143.81 914,-123 931.66,-107.83 954.52,-94.76 972.37,-85.72"/>
<polygon fill="midnightblue" stroke="midnightblue" points="974.29,-88.68 981.71,-81.13 971.2,-82.4 974.29,-88.68"/>
</g>
<!-- Node56&#45;&gt;Node23 -->
<g id="edge159" class="edge">
<title>Node56&#45;&gt;Node23</title>
<path fill="none" stroke="midnightblue" d="M2285.6,-582.22C2289.06,-573.28 2294.03,-558.94 2296,-546 2297.34,-537.21 2296.53,-534.87 2296,-526 2291.77,-455.84 2277,-439.29 2277,-369 2277,-369 2277,-369 2277,-311 2277,-234.67 2194.4,-261.99 2123,-235 2065.72,-213.35 2027.22,-247.63 1990,-199 1984.6,-191.94 1984.9,-186.28 1990,-179 2007.16,-154.5 2215.37,-98.46 2243,-87 2244.37,-86.43 2245.77,-85.83 2247.18,-85.22"/>
<polygon fill="midnightblue" stroke="midnightblue" points="2248.74,-88.36 2256.42,-81.05 2245.86,-81.98 2248.74,-88.36"/>
</g>
<!-- Node56&#45;&gt;Node44 -->
<g id="edge152" class="edge">
<title>Node56&#45;&gt;Node44</title>
<path fill="none" stroke="midnightblue" d="M2249.52,-582.44C2214.28,-573.16 2157.9,-558.31 2119.24,-548.13"/>
<polygon fill="midnightblue" stroke="midnightblue" points="2119.89,-544.68 2109.33,-545.52 2118.11,-551.45 2119.89,-544.68"/>
</g>
<!-- Node57 -->
<g id="node57" class="node">
<title>Node57</title>
<g id="a_node57"><a xlink:title=" ">
<polygon fill="white" stroke="#bfbfbf" points="2143,-526.5 2143,-545.5 2287,-545.5 2287,-526.5 2143,-526.5"/>
<text text-anchor="middle" x="2215" y="-533.5" font-family="Helvetica,sans-Serif" font-size="10.00">tvm/ffi/container/variant.h</text>
</a>
</g>
</g>
<!-- Node56&#45;&gt;Node57 -->
<g id="edge151" class="edge">
<title>Node56&#45;&gt;Node57</title>
<path fill="none" stroke="midnightblue" d="M2271.24,-582.32C2261.23,-574.26 2246.11,-562.08 2234.07,-552.37"/>
<polygon fill="midnightblue" stroke="midnightblue" points="2235.94,-549.38 2225.96,-545.83 2231.55,-554.83 2235.94,-549.38"/>
</g>
<!-- Node56&#45;&gt;Node58 -->
<g id="edge153" class="edge">
<title>Node56&#45;&gt;Node58</title>
<path fill="none" stroke="midnightblue" d="M2315.48,-582.46C2397.13,-561.78 2613.15,-507.92 2795,-470 2862.53,-455.92 2940.93,-442.12 2991.21,-433.59"/>
<polygon fill="midnightblue" stroke="midnightblue" points="2991.91,-437.02 3001.19,-431.9 2990.74,-430.12 2991.91,-437.02"/>
</g>
<!-- Node58&#45;&gt;Node4 -->
<g id="edge155" class="edge">
<title>Node58&#45;&gt;Node4</title>
<path fill="none" stroke="midnightblue" d="M3029.04,-414.42C3003.47,-398.31 2948.14,-361.55 2909,-322 2892.85,-305.68 2877.67,-284.1 2867.93,-269.13"/>
<polygon fill="midnightblue" stroke="midnightblue" points="2870.68,-266.93 2862.35,-260.37 2864.77,-270.69 2870.68,-266.93"/>
</g>
<!-- Node58&#45;&gt;Node16 -->
<g id="edge154" class="edge">
<title>Node58&#45;&gt;Node16</title>
<path fill="none" stroke="midnightblue" d="M3012.58,-414.42C2885.25,-378.5 2400.14,-241.84 2367,-235 2268.59,-214.68 2151.68,-201.17 2087.07,-194.62"/>
<polygon fill="midnightblue" stroke="midnightblue" points="2087.08,-191.1 2076.78,-193.59 2086.38,-198.07 2087.08,-191.1"/>
</g>
<!-- Node58&#45;&gt;Node23 -->
<g id="edge158" class="edge">
<title>Node58&#45;&gt;Node23</title>
<path fill="none" stroke="midnightblue" d="M3054,-414.4C3101.84,-376.5 3287.61,-224.39 3246,-179 3183.59,-110.93 2921.22,-166.83 2832,-143 2811.64,-137.56 2809.33,-128.55 2789,-123 2611.5,-74.54 2388.39,-71.29 2306.26,-71.94"/>
<polygon fill="midnightblue" stroke="midnightblue" points="2306.02,-68.44 2296.06,-72.04 2306.1,-75.44 2306.02,-68.44"/>
</g>
<!-- Node58&#45;&gt;Node26 -->
<g id="edge156" class="edge">
<title>Node58&#45;&gt;Node26</title>
<path fill="none" stroke="midnightblue" d="M3063.67,-414.4C3135.26,-383.49 3363.78,-274.75 3279,-179 3276.61,-176.3 3097.2,-155.38 2989.46,-143.04"/>
<polygon fill="midnightblue" stroke="midnightblue" points="2989.6,-139.53 2979.27,-141.87 2988.8,-146.48 2989.6,-139.53"/>
</g>
<!-- Node58&#45;&gt;Node31 -->
<g id="edge157" class="edge">
<title>Node58&#45;&gt;Node31</title>
<path fill="none" stroke="midnightblue" d="M3038.63,-414.41C3023.61,-385.63 2971.42,-291.27 2905,-235 2888.61,-221.12 2867.21,-210.12 2849.51,-202.48"/>
<polygon fill="midnightblue" stroke="midnightblue" points="2850.68,-199.18 2840.1,-198.58 2848,-205.64 2850.68,-199.18"/>
</g>
</g>
</svg>
