<?xml version="1.0" encoding="UTF-8" standalone="no"?>
<!DOCTYPE svg PUBLIC "-//W3C//DTD SVG 1.1//EN"
 "http://www.w3.org/Graphics/SVG/1.1/DTD/svg11.dtd">
<!-- Generated by graphviz version 2.43.0 (0)
 -->
<!-- Title: include/tvm/script/printer/printer.h Pages: 1 -->
<svg width="1061pt" height="285pt"
 viewBox="0.00 0.00 1061.00 285.00" xmlns="http://www.w3.org/2000/svg" xmlns:xlink="http://www.w3.org/1999/xlink">
<g id="graph0" class="graph" transform="scale(1 1) rotate(0) translate(4 281)">
<title>include/tvm/script/printer/printer.h</title>
<polygon fill="white" stroke="transparent" points="-4,4 -4,-281 1057,-281 1057,4 -4,4"/>
<!-- Node1 -->
<g id="node1" class="node">
<title>Node1</title>
<g id="a_node1"><a xlink:title="Entry&#45;point header for TVMScript printing.">
<polygon fill="#bfbfbf" stroke="black" points="281.5,-246.5 281.5,-276.5 385.5,-276.5 385.5,-246.5 281.5,-246.5"/>
<text text-anchor="start" x="289.5" y="-264.5" font-family="Helvetica,sans-Serif" font-size="10.00">include/tvm/script</text>
<text text-anchor="middle" x="333.5" y="-253.5" font-family="Helvetica,sans-Serif" font-size="10.00">/printer/printer.h</text>
</a>
</g>
</g>
<!-- Node2 -->
<g id="node2" class="node">
<title>Node2</title>
<g id="a_node2"><a xlink:href="node__functor_8h.html" target="_top" xlink:title="Defines the Functor data structures.">
<polygon fill="white" stroke="black" points="0,-118 0,-137 121,-137 121,-118 0,-118"/>
<text text-anchor="middle" x="60.5" y="-125" font-family="Helvetica,sans-Serif" font-size="10.00">tvm/ir/node_functor.h</text>
</a>
</g>
</g>
<!-- Node1&#45;&gt;Node2 -->
<g id="edge1" class="edge">
<title>Node1&#45;&gt;Node2</title>
<path fill="none" stroke="midnightblue" d="M304.54,-246.5C251.43,-220.82 139.15,-166.53 87.52,-141.56"/>
<polygon fill="midnightblue" stroke="midnightblue" points="88.85,-138.32 78.32,-137.12 85.8,-144.62 88.85,-138.32"/>
</g>
<!-- Node8 -->
<g id="node8" class="node">
<title>Node8</title>
<g id="a_node8"><a xlink:href="config_8h.html" target="_top" xlink:title="Configuration object for the TVMScript printer.">
<polygon fill="white" stroke="black" points="556,-179.5 556,-209.5 657,-209.5 657,-179.5 556,-179.5"/>
<text text-anchor="start" x="564" y="-197.5" font-family="Helvetica,sans-Serif" font-size="10.00">tvm/script/printer</text>
<text text-anchor="middle" x="606.5" y="-186.5" font-family="Helvetica,sans-Serif" font-size="10.00">/config.h</text>
</a>
</g>
</g>
<!-- Node1&#45;&gt;Node8 -->
<g id="edge7" class="edge">
<title>Node1&#45;&gt;Node8</title>
<path fill="none" stroke="midnightblue" d="M385.81,-248.04C431.49,-237.17 497.8,-221.38 545.8,-209.95"/>
<polygon fill="midnightblue" stroke="midnightblue" points="546.83,-213.3 555.75,-207.58 545.21,-206.5 546.83,-213.3"/>
</g>
<!-- Node3 -->
<g id="node3" class="node">
<title>Node3</title>
<g id="a_node3"><a xlink:title=" ">
<polygon fill="white" stroke="#bfbfbf" points="152,-56.5 152,-75.5 235,-75.5 235,-56.5 152,-56.5"/>
<text text-anchor="middle" x="193.5" y="-63.5" font-family="Helvetica,sans-Serif" font-size="10.00">tvm/ffi/error.h</text>
</a>
</g>
</g>
<!-- Node2&#45;&gt;Node3 -->
<g id="edge2" class="edge">
<title>Node2&#45;&gt;Node3</title>
<path fill="none" stroke="midnightblue" d="M79.56,-117.98C101.97,-107.95 139.41,-91.2 165.21,-79.65"/>
<polygon fill="midnightblue" stroke="midnightblue" points="166.78,-82.79 174.48,-75.51 163.92,-76.4 166.78,-82.79"/>
</g>
<!-- Node4 -->
<g id="node4" class="node">
<title>Node4</title>
<g id="a_node4"><a xlink:title=" ">
<polygon fill="white" stroke="#bfbfbf" points="322.5,-56.5 322.5,-75.5 372.5,-75.5 372.5,-56.5 322.5,-56.5"/>
<text text-anchor="middle" x="347.5" y="-63.5" font-family="Helvetica,sans-Serif" font-size="10.00">cstring</text>
</a>
</g>
</g>
<!-- Node2&#45;&gt;Node4 -->
<g id="edge3" class="edge">
<title>Node2&#45;&gt;Node4</title>
<path fill="none" stroke="midnightblue" d="M101.62,-117.98C158.15,-106.26 258.89,-85.37 312.19,-74.32"/>
<polygon fill="midnightblue" stroke="midnightblue" points="313.1,-77.71 322.19,-72.25 311.68,-70.85 313.1,-77.71"/>
</g>
<!-- Node5 -->
<g id="node5" class="node">
<title>Node5</title>
<g id="a_node5"><a xlink:title=" ">
<polygon fill="white" stroke="#bfbfbf" points="426,-56.5 426,-75.5 495,-75.5 495,-56.5 426,-56.5"/>
<text text-anchor="middle" x="460.5" y="-63.5" font-family="Helvetica,sans-Serif" font-size="10.00">type_traits</text>
</a>
</g>
</g>
<!-- Node2&#45;&gt;Node5 -->
<g id="edge4" class="edge">
<title>Node2&#45;&gt;Node5</title>
<path fill="none" stroke="midnightblue" d="M99.29,-117.97C109.42,-115.88 120.35,-113.74 130.5,-112 231.99,-94.59 351.97,-79.63 415.61,-72.13"/>
<polygon fill="midnightblue" stroke="midnightblue" points="416.17,-75.59 425.7,-70.95 415.36,-68.63 416.17,-75.59"/>
</g>
<!-- Node6 -->
<g id="node6" class="node">
<title>Node6</title>
<g id="a_node6"><a xlink:title=" ">
<polygon fill="white" stroke="#bfbfbf" points="6,-56.5 6,-75.5 51,-75.5 51,-56.5 6,-56.5"/>
<text text-anchor="middle" x="28.5" y="-63.5" font-family="Helvetica,sans-Serif" font-size="10.00">utility</text>
</a>
</g>
</g>
<!-- Node2&#45;&gt;Node6 -->
<g id="edge5" class="edge">
<title>Node2&#45;&gt;Node6</title>
<path fill="none" stroke="midnightblue" d="M55.92,-117.98C51.26,-109.32 43.91,-95.65 37.99,-84.65"/>
<polygon fill="midnightblue" stroke="midnightblue" points="40.9,-82.66 33.08,-75.51 34.73,-85.97 40.9,-82.66"/>
</g>
<!-- Node7 -->
<g id="node7" class="node">
<title>Node7</title>
<g id="a_node7"><a xlink:title=" ">
<polygon fill="white" stroke="#bfbfbf" points="69,-56.5 69,-75.5 116,-75.5 116,-56.5 69,-56.5"/>
<text text-anchor="middle" x="92.5" y="-63.5" font-family="Helvetica,sans-Serif" font-size="10.00">vector</text>
</a>
</g>
</g>
<!-- Node2&#45;&gt;Node7 -->
<g id="edge6" class="edge">
<title>Node2&#45;&gt;Node7</title>
<path fill="none" stroke="midnightblue" d="M65.08,-117.98C69.74,-109.32 77.09,-95.65 83.01,-84.65"/>
<polygon fill="midnightblue" stroke="midnightblue" points="86.27,-85.97 87.92,-75.51 80.1,-82.66 86.27,-85.97"/>
</g>
<!-- Node9 -->
<g id="node9" class="node">
<title>Node9</title>
<g id="a_node9"><a xlink:title=" ">
<polygon fill="white" stroke="#bfbfbf" points="976,-118 976,-137 1053,-137 1053,-118 976,-118"/>
<text text-anchor="middle" x="1014.5" y="-125" font-family="Helvetica,sans-Serif" font-size="10.00">tvm/ffi/any.h</text>
</a>
</g>
</g>
<!-- Node8&#45;&gt;Node9 -->
<g id="edge8" class="edge">
<title>Node8&#45;&gt;Node9</title>
<path fill="none" stroke="midnightblue" d="M657.11,-188.33C726.29,-180.8 854.06,-165.25 961.5,-143 966.21,-142.02 971.13,-140.87 975.98,-139.64"/>
<polygon fill="midnightblue" stroke="midnightblue" points="977,-143 985.78,-137.07 975.22,-136.23 977,-143"/>
</g>
<!-- Node10 -->
<g id="node10" class="node">
<title>Node10</title>
<g id="a_node10"><a xlink:title=" ">
<polygon fill="white" stroke="#bfbfbf" points="139.5,-118 139.5,-137 273.5,-137 273.5,-118 139.5,-118"/>
<text text-anchor="middle" x="206.5" y="-125" font-family="Helvetica,sans-Serif" font-size="10.00">tvm/ffi/container/array.h</text>
</a>
</g>
</g>
<!-- Node8&#45;&gt;Node10 -->
<g id="edge9" class="edge">
<title>Node8&#45;&gt;Node10</title>
<path fill="none" stroke="midnightblue" d="M555.9,-186.16C492.07,-176.77 378.98,-159.72 282.5,-143 275.14,-141.72 267.39,-140.32 259.76,-138.9"/>
<polygon fill="midnightblue" stroke="midnightblue" points="260.33,-135.45 249.86,-137.04 259.04,-142.32 260.33,-135.45"/>
</g>
<!-- Node11 -->
<g id="node11" class="node">
<title>Node11</title>
<g id="a_node11"><a xlink:title=" ">
<polygon fill="white" stroke="#bfbfbf" points="292,-118 292,-137 423,-137 423,-118 292,-118"/>
<text text-anchor="middle" x="357.5" y="-125" font-family="Helvetica,sans-Serif" font-size="10.00">tvm/ffi/container/map.h</text>
</a>
</g>
</g>
<!-- Node8&#45;&gt;Node11 -->
<g id="edge10" class="edge">
<title>Node8&#45;&gt;Node11</title>
<path fill="none" stroke="midnightblue" d="M555.81,-180.27C510,-168.31 443.32,-150.9 400.17,-139.64"/>
<polygon fill="midnightblue" stroke="midnightblue" points="400.83,-136.19 390.27,-137.06 399.07,-142.97 400.83,-136.19"/>
</g>
<!-- Node12 -->
<g id="node12" class="node">
<title>Node12</title>
<g id="a_node12"><a xlink:title=" ">
<polygon fill="white" stroke="#bfbfbf" points="441.5,-112.5 441.5,-142.5 539.5,-142.5 539.5,-112.5 441.5,-112.5"/>
<text text-anchor="start" x="449.5" y="-130.5" font-family="Helvetica,sans-Serif" font-size="10.00">tvm/ffi/reflection</text>
<text text-anchor="middle" x="490.5" y="-119.5" font-family="Helvetica,sans-Serif" font-size="10.00">/access_path.h</text>
</a>
</g>
</g>
<!-- Node8&#45;&gt;Node12 -->
<g id="edge11" class="edge">
<title>Node8&#45;&gt;Node12</title>
<path fill="none" stroke="midnightblue" d="M581.33,-179.4C564.76,-170.11 542.86,-157.84 524.72,-147.67"/>
<polygon fill="midnightblue" stroke="midnightblue" points="526.06,-144.41 515.62,-142.58 522.63,-150.52 526.06,-144.41"/>
</g>
<!-- Node13 -->
<g id="node13" class="node">
<title>Node13</title>
<g id="a_node13"><a xlink:title=" ">
<polygon fill="white" stroke="#bfbfbf" points="557.5,-112.5 557.5,-142.5 655.5,-142.5 655.5,-112.5 557.5,-112.5"/>
<text text-anchor="start" x="565.5" y="-130.5" font-family="Helvetica,sans-Serif" font-size="10.00">tvm/ffi/reflection</text>
<text text-anchor="middle" x="606.5" y="-119.5" font-family="Helvetica,sans-Serif" font-size="10.00">/registry.h</text>
</a>
</g>
</g>
<!-- Node8&#45;&gt;Node13 -->
<g id="edge12" class="edge">
<title>Node8&#45;&gt;Node13</title>
<path fill="none" stroke="midnightblue" d="M606.5,-179.4C606.5,-171.64 606.5,-161.81 606.5,-152.86"/>
<polygon fill="midnightblue" stroke="midnightblue" points="610,-152.58 606.5,-142.58 603,-152.58 610,-152.58"/>
</g>
<!-- Node14 -->
<g id="node14" class="node">
<title>Node14</title>
<g id="a_node14"><a xlink:title=" ">
<polygon fill="white" stroke="#bfbfbf" points="674,-118 674,-137 763,-137 763,-118 674,-118"/>
<text text-anchor="middle" x="718.5" y="-125" font-family="Helvetica,sans-Serif" font-size="10.00">tvm/ffi/string.h</text>
</a>
</g>
</g>
<!-- Node8&#45;&gt;Node14 -->
<g id="edge13" class="edge">
<title>Node8&#45;&gt;Node14</title>
<path fill="none" stroke="midnightblue" d="M630.8,-179.4C649.85,-168.34 676.18,-153.06 695.01,-142.13"/>
<polygon fill="midnightblue" stroke="midnightblue" points="696.95,-145.05 703.84,-137.01 693.44,-139 696.95,-145.05"/>
</g>
<!-- Node15 -->
<g id="node15" class="node">
<title>Node15</title>
<g id="a_node15"><a xlink:href="data__type_8h.html" target="_top" xlink:title=" ">
<polygon fill="white" stroke="black" points="781.5,-118 781.5,-137 919.5,-137 919.5,-118 781.5,-118"/>
<text text-anchor="middle" x="850.5" y="-125" font-family="Helvetica,sans-Serif" font-size="10.00">tvm/runtime/data_type.h</text>
</a>
</g>
</g>
<!-- Node8&#45;&gt;Node15 -->
<g id="edge14" class="edge">
<title>Node8&#45;&gt;Node15</title>
<path fill="none" stroke="midnightblue" d="M657.06,-180.03C701.8,-168.11 766.35,-150.92 808.36,-139.73"/>
<polygon fill="midnightblue" stroke="midnightblue" points="809.51,-143.04 818.27,-137.09 807.71,-136.28 809.51,-143.04"/>
</g>
<!-- Node20 -->
<g id="node20" class="node">
<title>Node20</title>
<g id="a_node20"><a xlink:title=" ">
<polygon fill="white" stroke="#bfbfbf" points="925.5,-56.5 925.5,-75.5 969.5,-75.5 969.5,-56.5 925.5,-56.5"/>
<text text-anchor="middle" x="947.5" y="-63.5" font-family="Helvetica,sans-Serif" font-size="10.00">string</text>
</a>
</g>
</g>
<!-- Node8&#45;&gt;Node20 -->
<g id="edge23" class="edge">
<title>Node8&#45;&gt;Node20</title>
<path fill="none" stroke="midnightblue" d="M657.17,-192.19C737.69,-189.05 889.71,-178.46 928.5,-143 944.31,-128.55 947.86,-103.11 948.25,-85.68"/>
<polygon fill="midnightblue" stroke="midnightblue" points="951.75,-85.54 948.14,-75.57 944.75,-85.61 951.75,-85.54"/>
</g>
<!-- Node15&#45;&gt;Node3 -->
<g id="edge17" class="edge">
<title>Node15&#45;&gt;Node3</title>
<path fill="none" stroke="midnightblue" d="M808.94,-117.93C797.2,-115.74 784.38,-113.56 772.5,-112 746.59,-108.59 382.81,-81.18 245.48,-70.89"/>
<polygon fill="midnightblue" stroke="midnightblue" points="245.45,-67.38 235.22,-70.12 244.93,-74.36 245.45,-67.38"/>
</g>
<!-- Node15&#45;&gt;Node4 -->
<g id="edge20" class="edge">
<title>Node15&#45;&gt;Node4</title>
<path fill="none" stroke="midnightblue" d="M808.1,-117.96C796.58,-115.82 784.09,-113.66 772.5,-112 615.08,-89.45 574.47,-94.29 416.5,-76 405.5,-74.73 393.52,-73.21 382.69,-71.79"/>
<polygon fill="midnightblue" stroke="midnightblue" points="383.09,-68.31 372.71,-70.47 382.17,-75.25 383.09,-68.31"/>
</g>
<!-- Node15&#45;&gt;Node5 -->
<g id="edge22" class="edge">
<title>Node15&#45;&gt;Node5</title>
<path fill="none" stroke="midnightblue" d="M806.42,-117.97C795.36,-115.92 783.51,-113.81 772.5,-112 660.86,-93.66 632.44,-92.39 520.5,-76 515.48,-75.27 510.23,-74.49 505.01,-73.71"/>
<polygon fill="midnightblue" stroke="midnightblue" points="505.48,-70.24 495.08,-72.23 504.45,-77.17 505.48,-70.24"/>
</g>
<!-- Node16 -->
<g id="node16" class="node">
<title>Node16</title>
<g id="a_node16"><a xlink:title=" ">
<polygon fill="white" stroke="#bfbfbf" points="530,-56.5 530,-75.5 669,-75.5 669,-56.5 530,-56.5"/>
<text text-anchor="middle" x="599.5" y="-63.5" font-family="Helvetica,sans-Serif" font-size="10.00">tvm/ffi/container/shape.h</text>
</a>
</g>
</g>
<!-- Node15&#45;&gt;Node16 -->
<g id="edge15" class="edge">
<title>Node15&#45;&gt;Node16</title>
<path fill="none" stroke="midnightblue" d="M814.54,-117.98C769.99,-107.42 694.04,-89.41 645.35,-77.87"/>
<polygon fill="midnightblue" stroke="midnightblue" points="645.93,-74.41 635.4,-75.51 644.32,-81.22 645.93,-74.41"/>
</g>
<!-- Node17 -->
<g id="node17" class="node">
<title>Node17</title>
<g id="a_node17"><a xlink:title=" ">
<polygon fill="white" stroke="#bfbfbf" points="687,-56.5 687,-75.5 776,-75.5 776,-56.5 687,-56.5"/>
<text text-anchor="middle" x="731.5" y="-63.5" font-family="Helvetica,sans-Serif" font-size="10.00">tvm/ffi/dtype.h</text>
</a>
</g>
</g>
<!-- Node15&#45;&gt;Node17 -->
<g id="edge16" class="edge">
<title>Node15&#45;&gt;Node17</title>
<path fill="none" stroke="midnightblue" d="M833.45,-117.98C813.66,-108.08 780.78,-91.64 757.73,-80.12"/>
<polygon fill="midnightblue" stroke="midnightblue" points="759.03,-76.85 748.52,-75.51 755.9,-83.11 759.03,-76.85"/>
</g>
<!-- Node18 -->
<g id="node18" class="node">
<title>Node18</title>
<g id="a_node18"><a xlink:href="runtime_2base_8h.html" target="_top" xlink:title=" ">
<polygon fill="white" stroke="black" points="794,-56.5 794,-75.5 907,-75.5 907,-56.5 794,-56.5"/>
<text text-anchor="middle" x="850.5" y="-63.5" font-family="Helvetica,sans-Serif" font-size="10.00">tvm/runtime/base.h</text>
</a>
</g>
</g>
<!-- Node15&#45;&gt;Node18 -->
<g id="edge18" class="edge">
<title>Node15&#45;&gt;Node18</title>
<path fill="none" stroke="midnightblue" d="M850.5,-117.98C850.5,-109.58 850.5,-96.48 850.5,-85.66"/>
<polygon fill="midnightblue" stroke="midnightblue" points="854,-85.51 850.5,-75.51 847,-85.51 854,-85.51"/>
</g>
<!-- Node15&#45;&gt;Node20 -->
<g id="edge21" class="edge">
<title>Node15&#45;&gt;Node20</title>
<path fill="none" stroke="midnightblue" d="M864.4,-117.98C880.17,-108.3 906.14,-92.37 924.85,-80.89"/>
<polygon fill="midnightblue" stroke="midnightblue" points="926.93,-83.72 933.63,-75.51 923.27,-77.75 926.93,-83.72"/>
</g>
<!-- Node19 -->
<g id="node19" class="node">
<title>Node19</title>
<g id="a_node19"><a xlink:title=" ">
<polygon fill="white" stroke="#bfbfbf" points="807.5,-0.5 807.5,-19.5 893.5,-19.5 893.5,-0.5 807.5,-0.5"/>
<text text-anchor="middle" x="850.5" y="-7.5" font-family="Helvetica,sans-Serif" font-size="10.00">tvm/ffi/c_api.h</text>
</a>
</g>
</g>
<!-- Node18&#45;&gt;Node19 -->
<g id="edge19" class="edge">
<title>Node18&#45;&gt;Node19</title>
<path fill="none" stroke="midnightblue" d="M850.5,-56.08C850.5,-49.01 850.5,-38.86 850.5,-29.99"/>
<polygon fill="midnightblue" stroke="midnightblue" points="854,-29.75 850.5,-19.75 847,-29.75 854,-29.75"/>
</g>
</g>
</svg>
