<?xml version="1.0" encoding="UTF-8" standalone="no"?>
<!DOCTYPE svg PUBLIC "-//W3C//DTD SVG 1.1//EN"
 "http://www.w3.org/Graphics/SVG/1.1/DTD/svg11.dtd">
<!-- Generated by graphviz version 2.43.0 (0)
 -->
<!-- Title: include/tvm/relax/expr.h Pages: 1 -->
<svg width="3771pt" height="363pt"
 viewBox="0.00 0.00 3770.50 363.00" xmlns="http://www.w3.org/2000/svg" xmlns:xlink="http://www.w3.org/1999/xlink">
<g id="graph0" class="graph" transform="scale(1 1) rotate(0) translate(4 359)">
<title>include/tvm/relax/expr.h</title>
<polygon fill="white" stroke="transparent" points="-4,4 -4,-359 3766.5,-359 3766.5,4 -4,4"/>
<!-- Node1 -->
<g id="node1" class="node">
<title>Node1</title>
<g id="a_node1"><a xlink:title=" ">
<polygon fill="#bfbfbf" stroke="black" points="1456,-335.5 1456,-354.5 1591,-354.5 1591,-335.5 1456,-335.5"/>
<text text-anchor="middle" x="1523.5" y="-342.5" font-family="Helvetica,sans-Serif" font-size="10.00">include/tvm/relax/expr.h</text>
</a>
</g>
</g>
<!-- Node2 -->
<g id="node2" class="node">
<title>Node2</title>
<g id="a_node2"><a xlink:href="relax_2analysis_8h.html" target="_top" xlink:title="The set of Relax specific analysis on IR.">
<polygon fill="white" stroke="black" points="46,-73 46,-92 201,-92 201,-73 46,-73"/>
<text text-anchor="middle" x="123.5" y="-80" font-family="Helvetica,sans-Serif" font-size="10.00">include/tvm/relax/analysis.h</text>
</a>
</g>
</g>
<!-- Node1&#45;&gt;Node2 -->
<g id="edge1" class="edge">
<title>Node1&#45;&gt;Node2</title>
<path fill="none" stroke="midnightblue" d="M1445.61,-343.12C1168.55,-339.76 244.25,-326.55 187.5,-299 117.42,-264.98 101.23,-238.17 74.5,-165 69.77,-152.06 69.32,-146.77 74.5,-134 81.75,-116.11 98.72,-101.07 110.64,-92.17"/>
<polygon fill="midnightblue" stroke="midnightblue" points="1445.94,-346.62 1455.98,-343.24 1446.02,-339.62 1445.94,-346.62"/>
</g>
<!-- Node3 -->
<g id="node3" class="node">
<title>Node3</title>
<g id="a_node3"><a xlink:href="binding__rewrite_8h.html" target="_top" xlink:title="An IR rewriter to easily add/remove/replace bindings (statements).">
<polygon fill="white" stroke="black" points="0,-0.5 0,-30.5 141,-30.5 141,-0.5 0,-0.5"/>
<text text-anchor="start" x="8" y="-18.5" font-family="Helvetica,sans-Serif" font-size="10.00">include/tvm/relax/binding</text>
<text text-anchor="middle" x="70.5" y="-7.5" font-family="Helvetica,sans-Serif" font-size="10.00">_rewrite.h</text>
</a>
</g>
</g>
<!-- Node1&#45;&gt;Node3 -->
<g id="edge20" class="edge">
<title>Node1&#45;&gt;Node3</title>
<path fill="none" stroke="midnightblue" d="M1445.52,-344.07C1170.8,-343.98 257.78,-340.52 133.5,-299 73.74,-279.04 17.5,-280.51 17.5,-217.5 17.5,-217.5 17.5,-217.5 17.5,-148.5 17.5,-111.31 21.65,-101.1 36.5,-67 42.24,-53.82 51.48,-40.39 58.88,-30.7"/>
<polygon fill="midnightblue" stroke="midnightblue" points="1445.79,-347.57 1455.79,-344.08 1445.8,-340.57 1445.79,-347.57"/>
</g>
<!-- Node4 -->
<g id="node4" class="node">
<title>Node4</title>
<g id="a_node4"><a xlink:href="ccl_8h.html" target="_top" xlink:title="Attributes for ccl operators.">
<polygon fill="white" stroke="black" points="510.5,-268.5 510.5,-298.5 638.5,-298.5 638.5,-268.5 510.5,-268.5"/>
<text text-anchor="start" x="518.5" y="-286.5" font-family="Helvetica,sans-Serif" font-size="10.00">include/tvm/relax/attrs</text>
<text text-anchor="middle" x="574.5" y="-275.5" font-family="Helvetica,sans-Serif" font-size="10.00">/ccl.h</text>
</a>
</g>
</g>
<!-- Node1&#45;&gt;Node4 -->
<g id="edge3" class="edge">
<title>Node1&#45;&gt;Node4</title>
<path fill="none" stroke="midnightblue" d="M1445.64,-343.77C1292.28,-342.49 940.55,-335.44 647.5,-299 644.55,-298.63 641.54,-298.22 638.51,-297.76"/>
<polygon fill="midnightblue" stroke="midnightblue" points="1445.87,-347.27 1455.89,-343.85 1445.92,-340.27 1445.87,-347.27"/>
</g>
<!-- Node5 -->
<g id="node5" class="node">
<title>Node5</title>
<g id="a_node5"><a xlink:href="create_8h.html" target="_top" xlink:title="Attributes for tensor creation operators.">
<polygon fill="white" stroke="black" points="656.5,-268.5 656.5,-298.5 784.5,-298.5 784.5,-268.5 656.5,-268.5"/>
<text text-anchor="start" x="664.5" y="-286.5" font-family="Helvetica,sans-Serif" font-size="10.00">include/tvm/relax/attrs</text>
<text text-anchor="middle" x="720.5" y="-275.5" font-family="Helvetica,sans-Serif" font-size="10.00">/create.h</text>
</a>
</g>
</g>
<!-- Node1&#45;&gt;Node5 -->
<g id="edge4" class="edge">
<title>Node1&#45;&gt;Node5</title>
<path fill="none" stroke="midnightblue" d="M1445.63,-342.63C1311.8,-339.52 1029.75,-329.6 793.5,-299 790.55,-298.62 787.55,-298.19 784.51,-297.72"/>
<polygon fill="midnightblue" stroke="midnightblue" points="1445.7,-346.14 1455.78,-342.86 1445.86,-339.14 1445.7,-346.14"/>
</g>
<!-- Node6 -->
<g id="node6" class="node">
<title>Node6</title>
<g id="a_node6"><a xlink:href="datatype_8h.html" target="_top" xlink:title="Attributes for datatype operators.">
<polygon fill="white" stroke="black" points="802.5,-268.5 802.5,-298.5 930.5,-298.5 930.5,-268.5 802.5,-268.5"/>
<text text-anchor="start" x="810.5" y="-286.5" font-family="Helvetica,sans-Serif" font-size="10.00">include/tvm/relax/attrs</text>
<text text-anchor="middle" x="866.5" y="-275.5" font-family="Helvetica,sans-Serif" font-size="10.00">/datatype.h</text>
</a>
</g>
</g>
<!-- Node1&#45;&gt;Node6 -->
<g id="edge5" class="edge">
<title>Node1&#45;&gt;Node6</title>
<path fill="none" stroke="midnightblue" d="M1445.56,-340.95C1333.3,-335.89 1119.75,-323.76 939.5,-299 936.56,-298.6 933.55,-298.15 930.52,-297.66"/>
<polygon fill="midnightblue" stroke="midnightblue" points="1445.63,-344.46 1455.78,-341.4 1445.94,-337.46 1445.63,-344.46"/>
</g>
<!-- Node7 -->
<g id="node7" class="node">
<title>Node7</title>
<g id="a_node7"><a xlink:href="distributed_8h.html" target="_top" xlink:title="Attributes for redistribute and annotate_sharding operators.">
<polygon fill="white" stroke="black" points="948.5,-268.5 948.5,-298.5 1076.5,-298.5 1076.5,-268.5 948.5,-268.5"/>
<text text-anchor="start" x="956.5" y="-286.5" font-family="Helvetica,sans-Serif" font-size="10.00">include/tvm/relax/attrs</text>
<text text-anchor="middle" x="1012.5" y="-275.5" font-family="Helvetica,sans-Serif" font-size="10.00">/distributed.h</text>
</a>
</g>
</g>
<!-- Node1&#45;&gt;Node7 -->
<g id="edge6" class="edge">
<title>Node1&#45;&gt;Node7</title>
<path fill="none" stroke="midnightblue" d="M1445.58,-338.21C1357.77,-331.18 1210.93,-317.86 1085.5,-299 1082.56,-298.56 1079.56,-298.08 1076.53,-297.57"/>
<polygon fill="midnightblue" stroke="midnightblue" points="1445.48,-341.71 1455.72,-339.02 1446.03,-334.74 1445.48,-341.71"/>
</g>
<!-- Node8 -->
<g id="node8" class="node">
<title>Node8</title>
<g id="a_node8"><a xlink:href="image_8h.html" target="_top" xlink:title="Attributes for image operators.">
<polygon fill="white" stroke="black" points="1094.5,-268.5 1094.5,-298.5 1222.5,-298.5 1222.5,-268.5 1094.5,-268.5"/>
<text text-anchor="start" x="1102.5" y="-286.5" font-family="Helvetica,sans-Serif" font-size="10.00">include/tvm/relax/attrs</text>
<text text-anchor="middle" x="1158.5" y="-275.5" font-family="Helvetica,sans-Serif" font-size="10.00">/image.h</text>
</a>
</g>
</g>
<!-- Node1&#45;&gt;Node8 -->
<g id="edge7" class="edge">
<title>Node1&#45;&gt;Node8</title>
<path fill="none" stroke="midnightblue" d="M1453.26,-334.04C1394.03,-325.44 1307.07,-312.32 1231.5,-299 1228.57,-298.48 1225.58,-297.94 1222.56,-297.39"/>
<polygon fill="midnightblue" stroke="midnightblue" points="1452.86,-337.52 1463.26,-335.49 1453.86,-330.59 1452.86,-337.52"/>
</g>
<!-- Node9 -->
<g id="node9" class="node">
<title>Node9</title>
<g id="a_node9"><a xlink:href="index_8h.html" target="_top" xlink:title="Attributes for indexing operators.">
<polygon fill="white" stroke="black" points="1240.5,-268.5 1240.5,-298.5 1368.5,-298.5 1368.5,-268.5 1240.5,-268.5"/>
<text text-anchor="start" x="1248.5" y="-286.5" font-family="Helvetica,sans-Serif" font-size="10.00">include/tvm/relax/attrs</text>
<text text-anchor="middle" x="1304.5" y="-275.5" font-family="Helvetica,sans-Serif" font-size="10.00">/index.h</text>
</a>
</g>
</g>
<!-- Node1&#45;&gt;Node9 -->
<g id="edge8" class="edge">
<title>Node1&#45;&gt;Node9</title>
<path fill="none" stroke="midnightblue" d="M1482.03,-332.73C1446.29,-323.02 1394.53,-308.96 1356.11,-298.52"/>
<polygon fill="midnightblue" stroke="midnightblue" points="1481.55,-336.23 1492.12,-335.48 1483.39,-329.48 1481.55,-336.23"/>
</g>
<!-- Node10 -->
<g id="node10" class="node">
<title>Node10</title>
<g id="a_node10"><a xlink:href="linear__algebra_8h.html" target="_top" xlink:title="Attributes for linear algebra operators.">
<polygon fill="white" stroke="black" points="1386.5,-268.5 1386.5,-298.5 1514.5,-298.5 1514.5,-268.5 1386.5,-268.5"/>
<text text-anchor="start" x="1394.5" y="-286.5" font-family="Helvetica,sans-Serif" font-size="10.00">include/tvm/relax/attrs</text>
<text text-anchor="middle" x="1450.5" y="-275.5" font-family="Helvetica,sans-Serif" font-size="10.00">/linear_algebra.h</text>
</a>
</g>
</g>
<!-- Node1&#45;&gt;Node10 -->
<g id="edge9" class="edge">
<title>Node1&#45;&gt;Node10</title>
<path fill="none" stroke="midnightblue" d="M1505,-328.92C1493.54,-319.58 1478.92,-307.66 1467.7,-298.52"/>
<polygon fill="midnightblue" stroke="midnightblue" points="1503.08,-331.87 1513.04,-335.48 1507.5,-326.44 1503.08,-331.87"/>
</g>
<!-- Node11 -->
<g id="node11" class="node">
<title>Node11</title>
<g id="a_node11"><a xlink:href="manipulate_8h.html" target="_top" xlink:title="Attributes for tensor manipulation operators.">
<polygon fill="white" stroke="black" points="1532.5,-268.5 1532.5,-298.5 1660.5,-298.5 1660.5,-268.5 1532.5,-268.5"/>
<text text-anchor="start" x="1540.5" y="-286.5" font-family="Helvetica,sans-Serif" font-size="10.00">include/tvm/relax/attrs</text>
<text text-anchor="middle" x="1596.5" y="-275.5" font-family="Helvetica,sans-Serif" font-size="10.00">/manipulate.h</text>
</a>
</g>
</g>
<!-- Node1&#45;&gt;Node11 -->
<g id="edge10" class="edge">
<title>Node1&#45;&gt;Node11</title>
<path fill="none" stroke="midnightblue" d="M1542,-328.92C1553.46,-319.58 1568.08,-307.66 1579.3,-298.52"/>
<polygon fill="midnightblue" stroke="midnightblue" points="1539.5,-326.44 1533.96,-335.48 1543.92,-331.87 1539.5,-326.44"/>
</g>
<!-- Node12 -->
<g id="node12" class="node">
<title>Node12</title>
<g id="a_node12"><a xlink:href="relax_2attrs_2nn_8h.html" target="_top" xlink:title="Attributes for neural network operators.">
<polygon fill="white" stroke="black" points="1678.5,-274 1678.5,-293 1830.5,-293 1830.5,-274 1678.5,-274"/>
<text text-anchor="middle" x="1754.5" y="-281" font-family="Helvetica,sans-Serif" font-size="10.00">include/tvm/relax/attrs/nn.h</text>
</a>
</g>
</g>
<!-- Node1&#45;&gt;Node12 -->
<g id="edge11" class="edge">
<title>Node1&#45;&gt;Node12</title>
<path fill="none" stroke="midnightblue" d="M1566.33,-332.97C1611.18,-321.41 1680.67,-303.52 1721.46,-293.01"/>
<polygon fill="midnightblue" stroke="midnightblue" points="1565.41,-329.59 1556.6,-335.48 1567.15,-336.37 1565.41,-329.59"/>
</g>
<!-- Node13 -->
<g id="node13" class="node">
<title>Node13</title>
<g id="a_node13"><a xlink:href="relax_2attrs_2op_8h.html" target="_top" xlink:title="Attributes for relax specific operators.">
<polygon fill="white" stroke="black" points="1848.5,-274 1848.5,-293 2000.5,-293 2000.5,-274 1848.5,-274"/>
<text text-anchor="middle" x="1924.5" y="-281" font-family="Helvetica,sans-Serif" font-size="10.00">include/tvm/relax/attrs/op.h</text>
</a>
</g>
</g>
<!-- Node1&#45;&gt;Node13 -->
<g id="edge12" class="edge">
<title>Node1&#45;&gt;Node13</title>
<path fill="none" stroke="midnightblue" d="M1597.14,-334.1C1661.24,-325.34 1756.61,-311.97 1839.5,-299 1851.33,-297.15 1864.07,-295.04 1875.99,-293.01"/>
<polygon fill="midnightblue" stroke="midnightblue" points="1596.56,-330.64 1587.13,-335.46 1597.51,-337.58 1596.56,-330.64"/>
</g>
<!-- Node14 -->
<g id="node14" class="node">
<title>Node14</title>
<g id="a_node14"><a xlink:href="qdq_8h.html" target="_top" xlink:title="Attributes for quantize/dequantize operators.">
<polygon fill="white" stroke="black" points="2018.5,-268.5 2018.5,-298.5 2146.5,-298.5 2146.5,-268.5 2018.5,-268.5"/>
<text text-anchor="start" x="2026.5" y="-286.5" font-family="Helvetica,sans-Serif" font-size="10.00">include/tvm/relax/attrs</text>
<text text-anchor="middle" x="2082.5" y="-275.5" font-family="Helvetica,sans-Serif" font-size="10.00">/qdq.h</text>
</a>
</g>
</g>
<!-- Node1&#45;&gt;Node14 -->
<g id="edge13" class="edge">
<title>Node1&#45;&gt;Node14</title>
<path fill="none" stroke="midnightblue" d="M1601.61,-339.27C1697.87,-332.87 1866.29,-319.8 2009.5,-299 2012.44,-298.57 2015.44,-298.11 2018.47,-297.61"/>
<polygon fill="midnightblue" stroke="midnightblue" points="1601.13,-335.8 1591.38,-339.95 1601.59,-342.78 1601.13,-335.8"/>
</g>
<!-- Node15 -->
<g id="node15" class="node">
<title>Node15</title>
<g id="a_node15"><a xlink:href="sampling_8h.html" target="_top" xlink:title="Attributes for sampling operators.">
<polygon fill="white" stroke="black" points="2164.5,-268.5 2164.5,-298.5 2292.5,-298.5 2292.5,-268.5 2164.5,-268.5"/>
<text text-anchor="start" x="2172.5" y="-286.5" font-family="Helvetica,sans-Serif" font-size="10.00">include/tvm/relax/attrs</text>
<text text-anchor="middle" x="2228.5" y="-275.5" font-family="Helvetica,sans-Serif" font-size="10.00">/sampling.h</text>
</a>
</g>
</g>
<!-- Node1&#45;&gt;Node15 -->
<g id="edge14" class="edge">
<title>Node1&#45;&gt;Node15</title>
<path fill="none" stroke="midnightblue" d="M1601.28,-341.59C1720.87,-337.18 1956.88,-325.69 2155.5,-299 2158.45,-298.6 2161.45,-298.16 2164.48,-297.69"/>
<polygon fill="midnightblue" stroke="midnightblue" points="1600.99,-338.1 1591.13,-341.96 1601.25,-345.09 1600.99,-338.1"/>
</g>
<!-- Node16 -->
<g id="node16" class="node">
<title>Node16</title>
<g id="a_node16"><a xlink:href="search_8h.html" target="_top" xlink:title="Attributes for search operators.">
<polygon fill="white" stroke="black" points="2310.5,-268.5 2310.5,-298.5 2438.5,-298.5 2438.5,-268.5 2310.5,-268.5"/>
<text text-anchor="start" x="2318.5" y="-286.5" font-family="Helvetica,sans-Serif" font-size="10.00">include/tvm/relax/attrs</text>
<text text-anchor="middle" x="2374.5" y="-275.5" font-family="Helvetica,sans-Serif" font-size="10.00">/search.h</text>
</a>
</g>
</g>
<!-- Node1&#45;&gt;Node16 -->
<g id="edge15" class="edge">
<title>Node1&#45;&gt;Node16</title>
<path fill="none" stroke="midnightblue" d="M1601.41,-343.05C1741.87,-340.55 2046.68,-331.52 2301.5,-299 2304.45,-298.62 2307.46,-298.2 2310.49,-297.73"/>
<polygon fill="midnightblue" stroke="midnightblue" points="1601.11,-339.56 1591.17,-343.23 1601.23,-346.56 1601.11,-339.56"/>
</g>
<!-- Node17 -->
<g id="node17" class="node">
<title>Node17</title>
<g id="a_node17"><a xlink:href="sorting_8h.html" target="_top" xlink:title="Attributes for sorting operators.">
<polygon fill="white" stroke="black" points="2456.5,-268.5 2456.5,-298.5 2584.5,-298.5 2584.5,-268.5 2456.5,-268.5"/>
<text text-anchor="start" x="2464.5" y="-286.5" font-family="Helvetica,sans-Serif" font-size="10.00">include/tvm/relax/attrs</text>
<text text-anchor="middle" x="2520.5" y="-275.5" font-family="Helvetica,sans-Serif" font-size="10.00">/sorting.h</text>
</a>
</g>
</g>
<!-- Node1&#45;&gt;Node17 -->
<g id="edge16" class="edge">
<title>Node1&#45;&gt;Node17</title>
<path fill="none" stroke="midnightblue" d="M1601.21,-344.07C1760.55,-343.37 2135.54,-337.37 2447.5,-299 2450.45,-298.64 2453.46,-298.22 2456.49,-297.77"/>
<polygon fill="midnightblue" stroke="midnightblue" points="1601.02,-340.57 1591.03,-344.11 1601.05,-347.57 1601.02,-340.57"/>
</g>
<!-- Node18 -->
<g id="node18" class="node">
<title>Node18</title>
<g id="a_node18"><a xlink:href="statistical_8h.html" target="_top" xlink:title="Attributes for statistical operators.">
<polygon fill="white" stroke="black" points="2602.5,-268.5 2602.5,-298.5 2730.5,-298.5 2730.5,-268.5 2602.5,-268.5"/>
<text text-anchor="start" x="2610.5" y="-286.5" font-family="Helvetica,sans-Serif" font-size="10.00">include/tvm/relax/attrs</text>
<text text-anchor="middle" x="2666.5" y="-275.5" font-family="Helvetica,sans-Serif" font-size="10.00">/statistical.h</text>
</a>
</g>
</g>
<!-- Node1&#45;&gt;Node18 -->
<g id="edge17" class="edge">
<title>Node1&#45;&gt;Node18</title>
<path fill="none" stroke="midnightblue" d="M1601.33,-344.82C1778.27,-345.79 2224.02,-343.2 2593.5,-299 2596.45,-298.65 2599.46,-298.24 2602.5,-297.79"/>
<polygon fill="midnightblue" stroke="midnightblue" points="1601.1,-341.32 1591.08,-344.76 1601.06,-348.32 1601.1,-341.32"/>
</g>
<!-- Node19 -->
<g id="node19" class="node">
<title>Node19</title>
<g id="a_node19"><a xlink:href="vision_8h.html" target="_top" xlink:title="Auxiliary attributes for vision operators.">
<polygon fill="white" stroke="black" points="2748.5,-268.5 2748.5,-298.5 2876.5,-298.5 2876.5,-268.5 2748.5,-268.5"/>
<text text-anchor="start" x="2756.5" y="-286.5" font-family="Helvetica,sans-Serif" font-size="10.00">include/tvm/relax/attrs</text>
<text text-anchor="middle" x="2812.5" y="-275.5" font-family="Helvetica,sans-Serif" font-size="10.00">/vision.h</text>
</a>
</g>
</g>
<!-- Node1&#45;&gt;Node19 -->
<g id="edge18" class="edge">
<title>Node1&#45;&gt;Node19</title>
<path fill="none" stroke="midnightblue" d="M1601.31,-342.74C1833.29,-338.73 2517.76,-324.96 2739.5,-299 2742.45,-298.65 2745.46,-298.25 2748.5,-297.81"/>
<polygon fill="midnightblue" stroke="midnightblue" points="1601.2,-339.24 1591.27,-342.91 1601.32,-346.24 1601.2,-339.24"/>
</g>
<!-- Node20 -->
<g id="node20" class="node">
<title>Node20</title>
<g id="a_node20"><a xlink:href="relax_2backend_2adreno_2transform_8h.html" target="_top" xlink:title="Adreno GPU specific transformation passes.">
<polygon fill="white" stroke="black" points="2760.5,-134.5 2760.5,-164.5 2906.5,-164.5 2906.5,-134.5 2760.5,-134.5"/>
<text text-anchor="start" x="2768.5" y="-152.5" font-family="Helvetica,sans-Serif" font-size="10.00">include/tvm/relax/backend</text>
<text text-anchor="middle" x="2833.5" y="-141.5" font-family="Helvetica,sans-Serif" font-size="10.00">/adreno/transform.h</text>
</a>
</g>
</g>
<!-- Node1&#45;&gt;Node20 -->
<g id="edge19" class="edge">
<title>Node1&#45;&gt;Node20</title>
<path fill="none" stroke="midnightblue" d="M1601.44,-344.38C1884.04,-345.39 2840.66,-345.35 2885.5,-299 2895.08,-289.1 2890.49,-280.84 2885.5,-268 2877.63,-247.77 2862.63,-251.2 2852.5,-232 2840.97,-210.16 2836.38,-181.38 2834.59,-164.52"/>
<polygon fill="midnightblue" stroke="midnightblue" points="1601.29,-340.88 1591.28,-344.34 1601.26,-347.88 1601.29,-340.88"/>
</g>
<!-- Node21 -->
<g id="node21" class="node">
<title>Node21</title>
<g id="a_node21"><a xlink:href="block__builder_8h.html" target="_top" xlink:title="The utility for constructing Relax binding blocks.">
<polygon fill="white" stroke="black" points="245,-201.5 245,-231.5 376,-231.5 376,-201.5 245,-201.5"/>
<text text-anchor="start" x="253" y="-219.5" font-family="Helvetica,sans-Serif" font-size="10.00">include/tvm/relax/block</text>
<text text-anchor="middle" x="310.5" y="-208.5" font-family="Helvetica,sans-Serif" font-size="10.00">_builder.h</text>
</a>
</g>
</g>
<!-- Node1&#45;&gt;Node21 -->
<g id="edge21" class="edge">
<title>Node1&#45;&gt;Node21</title>
<path fill="none" stroke="midnightblue" d="M1445.69,-343.33C1211.86,-340.98 525.74,-331.35 430.5,-299 407.85,-291.31 406.24,-281.51 386.5,-268 368.33,-255.56 347.48,-241.74 332.23,-231.71"/>
<polygon fill="midnightblue" stroke="midnightblue" points="1445.78,-346.83 1455.81,-343.43 1445.85,-339.83 1445.78,-346.83"/>
</g>
<!-- Node22 -->
<g id="node22" class="node">
<title>Node22</title>
<g id="a_node22"><a xlink:href="relax_2expr__functor_8h.html" target="_top" xlink:title="A more powerful visitor which enables defining arbitrary function signatures with type based dispatch...">
<polygon fill="white" stroke="black" points="219,-134.5 219,-164.5 346,-164.5 346,-134.5 219,-134.5"/>
<text text-anchor="start" x="227" y="-152.5" font-family="Helvetica,sans-Serif" font-size="10.00">include/tvm/relax/expr</text>
<text text-anchor="middle" x="282.5" y="-141.5" font-family="Helvetica,sans-Serif" font-size="10.00">_functor.h</text>
</a>
</g>
</g>
<!-- Node1&#45;&gt;Node22 -->
<g id="edge37" class="edge">
<title>Node1&#45;&gt;Node22</title>
<path fill="none" stroke="midnightblue" d="M1445.59,-344.23C1172.93,-344.66 275.72,-342.72 233.5,-299 225.75,-290.97 221.81,-234.33 235.5,-201 241.41,-186.6 253.44,-173.8 263.85,-164.69"/>
<polygon fill="midnightblue" stroke="midnightblue" points="1445.81,-347.73 1455.8,-344.21 1445.79,-340.73 1445.81,-347.73"/>
</g>
<!-- Node23 -->
<g id="node23" class="node">
<title>Node23</title>
<g id="a_node23"><a xlink:href="relax_2op__attr__types_8h.html" target="_top" xlink:title="Data structures that can appear in operator attributes.">
<polygon fill="white" stroke="black" points="84,-134.5 84,-164.5 201,-164.5 201,-134.5 84,-134.5"/>
<text text-anchor="start" x="92" y="-152.5" font-family="Helvetica,sans-Serif" font-size="10.00">include/tvm/relax/op</text>
<text text-anchor="middle" x="142.5" y="-141.5" font-family="Helvetica,sans-Serif" font-size="10.00">_attr_types.h</text>
</a>
</g>
</g>
<!-- Node1&#45;&gt;Node23 -->
<g id="edge39" class="edge">
<title>Node1&#45;&gt;Node23</title>
<path fill="none" stroke="midnightblue" d="M1445.66,-343.42C1173.13,-341.13 275.62,-331.17 223.5,-299 173.77,-268.3 152.41,-195.6 145.36,-164.74"/>
<polygon fill="midnightblue" stroke="midnightblue" points="1445.83,-346.93 1455.86,-343.51 1445.89,-339.93 1445.83,-346.93"/>
</g>
<!-- Node24 -->
<g id="node24" class="node">
<title>Node24</title>
<g id="a_node24"><a xlink:href="relax_2script_2builder_2frame_8h.html" target="_top" xlink:title=" ">
<polygon fill="white" stroke="black" points="364.5,-134.5 364.5,-164.5 496.5,-164.5 496.5,-134.5 364.5,-134.5"/>
<text text-anchor="start" x="372.5" y="-152.5" font-family="Helvetica,sans-Serif" font-size="10.00">include/tvm/relax/script</text>
<text text-anchor="middle" x="430.5" y="-141.5" font-family="Helvetica,sans-Serif" font-size="10.00">/builder/frame.h</text>
</a>
</g>
</g>
<!-- Node1&#45;&gt;Node24 -->
<g id="edge40" class="edge">
<title>Node1&#45;&gt;Node24</title>
<path fill="none" stroke="midnightblue" d="M1445.63,-343.2C1208.06,-340.43 506.31,-329.67 468.5,-299 427.58,-265.81 427.22,-195.13 429.17,-164.8"/>
<polygon fill="midnightblue" stroke="midnightblue" points="1445.88,-346.7 1455.92,-343.32 1445.96,-339.7 1445.88,-346.7"/>
</g>
<!-- Node25 -->
<g id="node25" class="node">
<title>Node25</title>
<g id="a_node25"><a xlink:href="relax_2script_2builder_2ir_8h.html" target="_top" xlink:title=" ">
<polygon fill="white" stroke="black" points="411.5,-67.5 411.5,-97.5 543.5,-97.5 543.5,-67.5 411.5,-67.5"/>
<text text-anchor="start" x="419.5" y="-85.5" font-family="Helvetica,sans-Serif" font-size="10.00">include/tvm/relax/script</text>
<text text-anchor="middle" x="477.5" y="-74.5" font-family="Helvetica,sans-Serif" font-size="10.00">/builder/ir.h</text>
</a>
</g>
</g>
<!-- Node1&#45;&gt;Node25 -->
<g id="edge41" class="edge">
<title>Node1&#45;&gt;Node25</title>
<path fill="none" stroke="midnightblue" d="M1445.7,-343.48C1212.61,-341.54 534.02,-332.98 501.5,-299 450.78,-246 523.87,-205.02 505.5,-134 502.09,-120.8 494.4,-107.37 487.94,-97.69"/>
<polygon fill="midnightblue" stroke="midnightblue" points="1445.76,-346.98 1455.79,-343.56 1445.82,-339.98 1445.76,-346.98"/>
</g>
<!-- Node26 -->
<g id="node26" class="node">
<title>Node26</title>
<g id="a_node26"><a xlink:href="dataflow__pattern_8h.html" target="_top" xlink:title="A pattern language for matching dataflow properties.">
<polygon fill="white" stroke="black" points="3042,-268.5 3042,-298.5 3189,-298.5 3189,-268.5 3042,-268.5"/>
<text text-anchor="start" x="3050" y="-286.5" font-family="Helvetica,sans-Serif" font-size="10.00">include/tvm/relax/dataflow</text>
<text text-anchor="middle" x="3115.5" y="-275.5" font-family="Helvetica,sans-Serif" font-size="10.00">_pattern.h</text>
</a>
</g>
</g>
<!-- Node1&#45;&gt;Node26 -->
<g id="edge27" class="edge">
<title>Node1&#45;&gt;Node26</title>
<path fill="none" stroke="midnightblue" d="M1601.34,-343.18C1816.9,-340.57 2439.82,-330.64 2956.5,-299 2984.44,-297.29 3015.09,-294.67 3041.95,-292.13"/>
<polygon fill="midnightblue" stroke="midnightblue" points="1601.04,-339.69 1591.08,-343.31 1601.12,-346.69 1601.04,-339.69"/>
</g>
<!-- Node29 -->
<g id="node29" class="node">
<title>Node29</title>
<g id="a_node29"><a xlink:href="relax_2distributed_2transform_8h.html" target="_top" xlink:title="Relax distributed specific transformation passes.">
<polygon fill="white" stroke="black" points="3303.5,-134.5 3303.5,-164.5 3461.5,-164.5 3461.5,-134.5 3303.5,-134.5"/>
<text text-anchor="start" x="3311.5" y="-152.5" font-family="Helvetica,sans-Serif" font-size="10.00">include/tvm/relax/distributed</text>
<text text-anchor="middle" x="3382.5" y="-141.5" font-family="Helvetica,sans-Serif" font-size="10.00">/transform.h</text>
</a>
</g>
</g>
<!-- Node1&#45;&gt;Node29 -->
<g id="edge36" class="edge">
<title>Node1&#45;&gt;Node29</title>
<path fill="none" stroke="midnightblue" d="M1601.6,-343.36C1910.91,-340.64 3040.83,-328.72 3198.5,-299 3284.85,-282.72 3333.98,-303.89 3384.5,-232 3398.5,-212.08 3392.78,-182.14 3387.53,-164.63"/>
<polygon fill="midnightblue" stroke="midnightblue" points="1601.35,-339.86 1591.38,-343.45 1601.41,-346.86 1601.35,-339.86"/>
</g>
<!-- Node30 -->
<g id="node30" class="node">
<title>Node30</title>
<g id="a_node30"><a xlink:href="relax_2transform_8h.html" target="_top" xlink:title="Relax specific transformation passes.">
<polygon fill="white" stroke="black" points="2861.5,-207 2861.5,-226 3023.5,-226 3023.5,-207 2861.5,-207"/>
<text text-anchor="middle" x="2942.5" y="-214" font-family="Helvetica,sans-Serif" font-size="10.00">include/tvm/relax/transform.h</text>
</a>
</g>
</g>
<!-- Node1&#45;&gt;Node30 -->
<g id="edge42" class="edge">
<title>Node1&#45;&gt;Node30</title>
<path fill="none" stroke="midnightblue" d="M1601.45,-343.99C1887.59,-343.64 2866.17,-339.48 2918.5,-299 2941.25,-281.4 2943.27,-243.33 2942.94,-226.18"/>
<polygon fill="midnightblue" stroke="midnightblue" points="1601.16,-340.49 1591.16,-344 1601.17,-347.49 1601.16,-340.49"/>
</g>
<!-- Node32 -->
<g id="node32" class="node">
<title>Node32</title>
<g id="a_node32"><a xlink:href="axis__group__graph_8h.html" target="_top" xlink:title=" ">
<polygon fill="white" stroke="black" points="3448.5,-268.5 3448.5,-298.5 3606.5,-298.5 3606.5,-268.5 3448.5,-268.5"/>
<text text-anchor="start" x="3456.5" y="-286.5" font-family="Helvetica,sans-Serif" font-size="10.00">include/tvm/relax/distributed</text>
<text text-anchor="middle" x="3527.5" y="-275.5" font-family="Helvetica,sans-Serif" font-size="10.00">/axis_group_graph.h</text>
</a>
</g>
</g>
<!-- Node1&#45;&gt;Node32 -->
<g id="edge35" class="edge">
<title>Node1&#45;&gt;Node32</title>
<path fill="none" stroke="midnightblue" d="M1601.5,-343.53C1913.14,-341.44 3069.67,-331.59 3434.5,-299 3439.06,-298.59 3443.73,-298.1 3448.44,-297.55"/>
<polygon fill="midnightblue" stroke="midnightblue" points="1601.18,-340.03 1591.21,-343.6 1601.23,-347.03 1601.18,-340.03"/>
</g>
<!-- Node33 -->
<g id="node33" class="node">
<title>Node33</title>
<g id="a_node33"><a xlink:href="nested__msg_8h.html" target="_top" xlink:title="Helper container to store nested message for robust tuple&#45;aware analysis.">
<polygon fill="white" stroke="black" points="3624.5,-268.5 3624.5,-298.5 3762.5,-298.5 3762.5,-268.5 3624.5,-268.5"/>
<text text-anchor="start" x="3632.5" y="-286.5" font-family="Helvetica,sans-Serif" font-size="10.00">include/tvm/relax/nested</text>
<text text-anchor="middle" x="3693.5" y="-275.5" font-family="Helvetica,sans-Serif" font-size="10.00">_msg.h</text>
</a>
</g>
</g>
<!-- Node1&#45;&gt;Node33 -->
<g id="edge38" class="edge">
<title>Node1&#45;&gt;Node33</title>
<path fill="none" stroke="midnightblue" d="M1601.67,-344.02C1931.87,-343.83 3213.78,-340.38 3615.5,-299 3618.38,-298.7 3621.31,-298.36 3624.26,-297.97"/>
<polygon fill="midnightblue" stroke="midnightblue" points="1601.25,-340.52 1591.26,-344.02 1601.26,-347.52 1601.25,-340.52"/>
</g>
<!-- Node34 -->
<g id="node34" class="node">
<title>Node34</title>
<g id="a_node34"><a xlink:href="relax_2utils_8h.html" target="_top" xlink:title="Utility classes and functions for working with the Relax IR.">
<polygon fill="white" stroke="black" points="243,-274 243,-293 378,-293 378,-274 243,-274"/>
<text text-anchor="middle" x="310.5" y="-281" font-family="Helvetica,sans-Serif" font-size="10.00">include/tvm/relax/utils.h</text>
</a>
</g>
</g>
<!-- Node1&#45;&gt;Node34 -->
<g id="edge43" class="edge">
<title>Node1&#45;&gt;Node34</title>
<path fill="none" stroke="midnightblue" d="M1445.59,-344.52C1261.71,-344.96 786.55,-341.48 392.5,-299 379.42,-297.59 365.28,-295.35 352.48,-293.05"/>
<polygon fill="midnightblue" stroke="midnightblue" points="1445.71,-348.02 1455.7,-344.49 1445.69,-341.02 1445.71,-348.02"/>
</g>
<!-- Node2&#45;&gt;Node3 -->
<g id="edge2" class="edge">
<title>Node2&#45;&gt;Node3</title>
<path fill="none" stroke="midnightblue" d="M109.78,-64.67C101.15,-54.09 90.15,-40.6 81.99,-30.59"/>
<polygon fill="midnightblue" stroke="midnightblue" points="107.32,-67.2 116.35,-72.73 112.75,-62.77 107.32,-67.2"/>
</g>
<!-- Node21&#45;&gt;Node22 -->
<g id="edge22" class="edge">
<title>Node21&#45;&gt;Node22</title>
<path fill="none" stroke="midnightblue" d="M300.37,-191.99C296.42,-182.8 292.01,-172.58 288.56,-164.58"/>
<polygon fill="midnightblue" stroke="midnightblue" points="297.25,-193.6 304.42,-201.4 303.68,-190.83 297.25,-193.6"/>
</g>
<!-- Node21&#45;&gt;Node23 -->
<g id="edge23" class="edge">
<title>Node21&#45;&gt;Node23</title>
<path fill="none" stroke="midnightblue" d="M264.45,-197.68C237.5,-187.26 203.96,-174.28 178.88,-164.58"/>
<polygon fill="midnightblue" stroke="midnightblue" points="263.46,-201.05 274.05,-201.4 265.98,-194.52 263.46,-201.05"/>
</g>
<!-- Node21&#45;&gt;Node24 -->
<g id="edge25" class="edge">
<title>Node21&#45;&gt;Node24</title>
<path fill="none" stroke="midnightblue" d="M345.44,-196.57C364.32,-186.35 387.23,-173.94 404.51,-164.58"/>
<polygon fill="midnightblue" stroke="midnightblue" points="343.66,-193.56 336.54,-201.4 347,-199.71 343.66,-193.56"/>
</g>
<!-- Node23&#45;&gt;Node2 -->
<g id="edge24" class="edge">
<title>Node23&#45;&gt;Node2</title>
<path fill="none" stroke="midnightblue" d="M135.51,-124.6C132.2,-113.28 128.46,-100.46 126.04,-92.19"/>
<polygon fill="midnightblue" stroke="midnightblue" points="132.21,-125.78 138.38,-134.4 138.93,-123.82 132.21,-125.78"/>
</g>
<!-- Node24&#45;&gt;Node25 -->
<g id="edge26" class="edge">
<title>Node24&#45;&gt;Node25</title>
<path fill="none" stroke="midnightblue" d="M446.66,-126.16C453.51,-116.68 461.29,-105.92 467.32,-97.58"/>
<polygon fill="midnightblue" stroke="midnightblue" points="443.72,-124.24 440.7,-134.4 449.39,-128.34 443.72,-124.24"/>
</g>
<!-- Node27 -->
<g id="node27" class="node">
<title>Node27</title>
<g id="a_node27"><a xlink:href="dataflow__matcher_8h.html" target="_top" xlink:title="A pattern matcher for matching dataflow properties.">
<polygon fill="white" stroke="black" points="3207,-201.5 3207,-231.5 3354,-231.5 3354,-201.5 3207,-201.5"/>
<text text-anchor="start" x="3215" y="-219.5" font-family="Helvetica,sans-Serif" font-size="10.00">include/tvm/relax/dataflow</text>
<text text-anchor="middle" x="3280.5" y="-208.5" font-family="Helvetica,sans-Serif" font-size="10.00">_matcher.h</text>
</a>
</g>
</g>
<!-- Node26&#45;&gt;Node27 -->
<g id="edge28" class="edge">
<title>Node26&#45;&gt;Node27</title>
<path fill="none" stroke="midnightblue" d="M3160.73,-264.68C3187.19,-254.26 3220.13,-241.28 3244.77,-231.58"/>
<polygon fill="midnightblue" stroke="midnightblue" points="3159.32,-261.47 3151.3,-268.4 3161.89,-267.99 3159.32,-261.47"/>
</g>
<!-- Node28 -->
<g id="node28" class="node">
<title>Node28</title>
<g id="a_node28"><a xlink:href="dataflow__pattern__functor_8h.html" target="_top" xlink:title="Functors and visitors for dataflow patterns.">
<polygon fill="white" stroke="black" points="3042,-201.5 3042,-231.5 3189,-231.5 3189,-201.5 3042,-201.5"/>
<text text-anchor="start" x="3050" y="-219.5" font-family="Helvetica,sans-Serif" font-size="10.00">include/tvm/relax/dataflow</text>
<text text-anchor="middle" x="3115.5" y="-208.5" font-family="Helvetica,sans-Serif" font-size="10.00">_pattern_functor.h</text>
</a>
</g>
</g>
<!-- Node26&#45;&gt;Node28 -->
<g id="edge29" class="edge">
<title>Node26&#45;&gt;Node28</title>
<path fill="none" stroke="midnightblue" d="M3115.5,-258.11C3115.5,-249.15 3115.5,-239.32 3115.5,-231.58"/>
<polygon fill="midnightblue" stroke="midnightblue" points="3112,-258.4 3115.5,-268.4 3119,-258.4 3112,-258.4"/>
</g>
<!-- Node26&#45;&gt;Node29 -->
<g id="edge30" class="edge">
<title>Node26&#45;&gt;Node29</title>
<path fill="none" stroke="midnightblue" d="M3199.42,-275.08C3261.94,-267.83 3340.33,-254.52 3363.5,-232 3381.63,-214.38 3383.89,-183.06 3383.48,-164.8"/>
<polygon fill="midnightblue" stroke="midnightblue" points="3198.68,-271.64 3189.14,-276.24 3199.47,-278.6 3198.68,-271.64"/>
</g>
<!-- Node26&#45;&gt;Node30 -->
<g id="edge31" class="edge">
<title>Node26&#45;&gt;Node30</title>
<path fill="none" stroke="midnightblue" d="M3068.35,-264.78C3034.8,-252.18 2991.23,-235.81 2965.14,-226.01"/>
<polygon fill="midnightblue" stroke="midnightblue" points="3067.37,-268.16 3077.96,-268.4 3069.83,-261.6 3067.37,-268.16"/>
</g>
<!-- Node30&#45;&gt;Node20 -->
<g id="edge32" class="edge">
<title>Node30&#45;&gt;Node20</title>
<path fill="none" stroke="midnightblue" d="M2919.2,-201.6C2900.89,-190.69 2875.51,-175.55 2857.13,-164.59"/>
<polygon fill="midnightblue" stroke="midnightblue" points="2917.42,-204.62 2927.8,-206.73 2921,-198.61 2917.42,-204.62"/>
</g>
<!-- Node30&#45;&gt;Node29 -->
<g id="edge34" class="edge">
<title>Node30&#45;&gt;Node29</title>
<path fill="none" stroke="midnightblue" d="M3005.49,-205.34C3014.88,-203.86 3024.44,-202.38 3033.5,-201 3126.1,-186.92 3232.68,-171.63 3303.45,-161.61"/>
<polygon fill="midnightblue" stroke="midnightblue" points="3004.74,-201.92 2995.41,-206.94 3005.84,-208.83 3004.74,-201.92"/>
</g>
<!-- Node31 -->
<g id="node31" class="node">
<title>Node31</title>
<g id="a_node31"><a xlink:href="backend_8h.html" target="_top" xlink:title="Relax backend specific transformation passes.">
<polygon fill="white" stroke="black" points="2925,-140 2925,-159 3080,-159 3080,-140 2925,-140"/>
<text text-anchor="middle" x="3002.5" y="-147" font-family="Helvetica,sans-Serif" font-size="10.00">include/tvm/relax/backend.h</text>
</a>
</g>
</g>
<!-- Node30&#45;&gt;Node31 -->
<g id="edge33" class="edge">
<title>Node30&#45;&gt;Node31</title>
<path fill="none" stroke="midnightblue" d="M2957.61,-199.13C2969.34,-186.42 2985.15,-169.3 2994.54,-159.13"/>
<polygon fill="midnightblue" stroke="midnightblue" points="2954.8,-197.01 2950.59,-206.73 2959.95,-201.76 2954.8,-197.01"/>
</g>
<!-- Node34&#45;&gt;Node21 -->
<g id="edge44" class="edge">
<title>Node34&#45;&gt;Node21</title>
<path fill="none" stroke="midnightblue" d="M310.5,-263.41C310.5,-253.22 310.5,-240.9 310.5,-231.59"/>
<polygon fill="midnightblue" stroke="midnightblue" points="307,-263.73 310.5,-273.73 314,-263.73 307,-263.73"/>
</g>
</g>
</svg>
