<?xml version="1.0" encoding="UTF-8" standalone="no"?>
<!DOCTYPE svg PUBLIC "-//W3C//DTD SVG 1.1//EN"
 "http://www.w3.org/Graphics/SVG/1.1/DTD/svg11.dtd">
<!-- Generated by graphviz version 2.43.0 (0)
 -->
<!-- Title: include/tvm/relax/type.h Pages: 1 -->
<svg width="3694pt" height="430pt"
 viewBox="0.00 0.00 3693.50 430.00" xmlns="http://www.w3.org/2000/svg" xmlns:xlink="http://www.w3.org/1999/xlink">
<g id="graph0" class="graph" transform="scale(1 1) rotate(0) translate(4 426)">
<title>include/tvm/relax/type.h</title>
<polygon fill="white" stroke="transparent" points="-4,4 -4,-426 3689.5,-426 3689.5,4 -4,4"/>
<!-- Node1 -->
<g id="node1" class="node">
<title>Node1</title>
<g id="a_node1"><a xlink:title="Relax types, including the richer dependent Relax type nodes.">
<polygon fill="#bfbfbf" stroke="black" points="549.5,-402.5 549.5,-421.5 685.5,-421.5 685.5,-402.5 549.5,-402.5"/>
<text text-anchor="middle" x="617.5" y="-409.5" font-family="Helvetica,sans-Serif" font-size="10.00">include/tvm/relax/type.h</text>
</a>
</g>
</g>
<!-- Node2 -->
<g id="node2" class="node">
<title>Node2</title>
<g id="a_node2"><a xlink:href="relax_2analysis_8h.html" target="_top" xlink:title="The set of Relax specific analysis on IR.">
<polygon fill="white" stroke="black" points="3375,-73 3375,-92 3530,-92 3530,-73 3375,-73"/>
<text text-anchor="middle" x="3452.5" y="-80" font-family="Helvetica,sans-Serif" font-size="10.00">include/tvm/relax/analysis.h</text>
</a>
</g>
</g>
<!-- Node1&#45;&gt;Node2 -->
<g id="edge1" class="edge">
<title>Node1&#45;&gt;Node2</title>
<path fill="none" stroke="midnightblue" d="M695.71,-410.64C1113.77,-408.62 3075.82,-397.5 3344.5,-366 3499.26,-347.85 3685.5,-440.32 3685.5,-284.5 3685.5,-284.5 3685.5,-284.5 3685.5,-215.5 3685.5,-137.74 3586.05,-105.24 3517.09,-92.06"/>
<polygon fill="midnightblue" stroke="midnightblue" points="695.52,-407.15 685.54,-410.69 695.55,-414.15 695.52,-407.15"/>
</g>
<!-- Node4 -->
<g id="node4" class="node">
<title>Node4</title>
<g id="a_node4"><a xlink:href="dataflow__pattern_8h.html" target="_top" xlink:title="A pattern language for matching dataflow properties.">
<polygon fill="white" stroke="black" points="544,-268.5 544,-298.5 691,-298.5 691,-268.5 544,-268.5"/>
<text text-anchor="start" x="552" y="-286.5" font-family="Helvetica,sans-Serif" font-size="10.00">include/tvm/relax/dataflow</text>
<text text-anchor="middle" x="617.5" y="-275.5" font-family="Helvetica,sans-Serif" font-size="10.00">_pattern.h</text>
</a>
</g>
</g>
<!-- Node1&#45;&gt;Node4 -->
<g id="edge3" class="edge">
<title>Node1&#45;&gt;Node4</title>
<path fill="none" stroke="midnightblue" d="M617.5,-392.11C617.5,-366.63 617.5,-321.81 617.5,-298.89"/>
<polygon fill="midnightblue" stroke="midnightblue" points="614,-392.31 617.5,-402.31 621,-392.31 614,-392.31"/>
</g>
<!-- Node11 -->
<g id="node11" class="node">
<title>Node11</title>
<g id="a_node11"><a xlink:href="relax_2distributed_2type_8h.html" target="_top" xlink:title="Type definitions for DTensor (Distributed Tensor)">
<polygon fill="white" stroke="black" points="301.5,-335.5 301.5,-365.5 459.5,-365.5 459.5,-335.5 301.5,-335.5"/>
<text text-anchor="start" x="309.5" y="-353.5" font-family="Helvetica,sans-Serif" font-size="10.00">include/tvm/relax/distributed</text>
<text text-anchor="middle" x="380.5" y="-342.5" font-family="Helvetica,sans-Serif" font-size="10.00">/type.h</text>
</a>
</g>
</g>
<!-- Node1&#45;&gt;Node11 -->
<g id="edge11" class="edge">
<title>Node1&#45;&gt;Node11</title>
<path fill="none" stroke="midnightblue" d="M573.62,-399.98C534.91,-390.27 478.29,-376.05 436.36,-365.52"/>
<polygon fill="midnightblue" stroke="midnightblue" points="572.99,-403.43 583.54,-402.48 574.7,-396.65 572.99,-403.43"/>
</g>
<!-- Node14 -->
<g id="node14" class="node">
<title>Node14</title>
<g id="a_node14"><a xlink:href="type__functor_8h.html" target="_top" xlink:title="Functors and visitors for Relax type nodes.">
<polygon fill="white" stroke="black" points="0,-268.5 0,-298.5 127,-298.5 127,-268.5 0,-268.5"/>
<text text-anchor="start" x="8" y="-286.5" font-family="Helvetica,sans-Serif" font-size="10.00">include/tvm/relax/type</text>
<text text-anchor="middle" x="63.5" y="-275.5" font-family="Helvetica,sans-Serif" font-size="10.00">_functor.h</text>
</a>
</g>
</g>
<!-- Node1&#45;&gt;Node14 -->
<g id="edge57" class="edge">
<title>Node1&#45;&gt;Node14</title>
<path fill="none" stroke="midnightblue" d="M539.16,-410.16C422.54,-407.82 209.67,-399 141.5,-366 110.3,-350.9 84.95,-317.72 72.29,-298.68"/>
<polygon fill="midnightblue" stroke="midnightblue" points="539.39,-413.67 549.45,-410.36 539.52,-406.67 539.39,-413.67"/>
</g>
<!-- Node15 -->
<g id="node15" class="node">
<title>Node15</title>
<g id="a_node15"><a xlink:href="relax_2expr__functor_8h.html" target="_top" xlink:title="A more powerful visitor which enables defining arbitrary function signatures with type based dispatch...">
<polygon fill="white" stroke="black" points="439,-134.5 439,-164.5 566,-164.5 566,-134.5 439,-134.5"/>
<text text-anchor="start" x="447" y="-152.5" font-family="Helvetica,sans-Serif" font-size="10.00">include/tvm/relax/expr</text>
<text text-anchor="middle" x="502.5" y="-141.5" font-family="Helvetica,sans-Serif" font-size="10.00">_functor.h</text>
</a>
</g>
</g>
<!-- Node1&#45;&gt;Node15 -->
<g id="edge53" class="edge">
<title>Node1&#45;&gt;Node15</title>
<path fill="none" stroke="midnightblue" d="M538.99,-405.14C457.26,-398.15 335.32,-384.99 292.5,-366 250.1,-347.2 232.12,-341.02 212.5,-299 168.05,-203.8 340.78,-168.57 438.93,-156.4"/>
<polygon fill="midnightblue" stroke="midnightblue" points="538.98,-408.65 549.24,-406 539.57,-401.67 538.98,-408.65"/>
</g>
<!-- Node16 -->
<g id="node16" class="node">
<title>Node16</title>
<g id="a_node16"><a xlink:href="relax_2expr_8h.html" target="_top" xlink:title=" ">
<polygon fill="white" stroke="black" points="1982,-341 1982,-360 2117,-360 2117,-341 1982,-341"/>
<text text-anchor="middle" x="2049.5" y="-348" font-family="Helvetica,sans-Serif" font-size="10.00">include/tvm/relax/expr.h</text>
</a>
</g>
</g>
<!-- Node1&#45;&gt;Node16 -->
<g id="edge16" class="edge">
<title>Node1&#45;&gt;Node16</title>
<path fill="none" stroke="midnightblue" d="M695.83,-407.75C949.26,-397.22 1744.26,-364.18 1981.81,-354.31"/>
<polygon fill="midnightblue" stroke="midnightblue" points="695.45,-404.26 685.6,-408.17 695.74,-411.25 695.45,-404.26"/>
</g>
<!-- Node33 -->
<g id="node33" class="node">
<title>Node33</title>
<g id="a_node33"><a xlink:href="relax_2op__attr__types_8h.html" target="_top" xlink:title="Data structures that can appear in operator attributes.">
<polygon fill="white" stroke="black" points="3351,-134.5 3351,-164.5 3468,-164.5 3468,-134.5 3351,-134.5"/>
<text text-anchor="start" x="3359" y="-152.5" font-family="Helvetica,sans-Serif" font-size="10.00">include/tvm/relax/op</text>
<text text-anchor="middle" x="3409.5" y="-141.5" font-family="Helvetica,sans-Serif" font-size="10.00">_attr_types.h</text>
</a>
</g>
</g>
<!-- Node1&#45;&gt;Node33 -->
<g id="edge55" class="edge">
<title>Node1&#45;&gt;Node33</title>
<path fill="none" stroke="midnightblue" d="M695.9,-411.16C1159.52,-411.75 3525.47,-409.33 3628.5,-299 3686.11,-237.3 3548.19,-187.67 3465.75,-164.57"/>
<polygon fill="midnightblue" stroke="midnightblue" points="695.63,-407.66 685.63,-411.15 695.62,-414.66 695.63,-407.66"/>
</g>
<!-- Node35 -->
<g id="node35" class="node">
<title>Node35</title>
<g id="a_node35"><a xlink:href="relax_2script_2builder_2ir_8h.html" target="_top" xlink:title=" ">
<polygon fill="white" stroke="black" points="2021.5,-67.5 2021.5,-97.5 2153.5,-97.5 2153.5,-67.5 2021.5,-67.5"/>
<text text-anchor="start" x="2029.5" y="-85.5" font-family="Helvetica,sans-Serif" font-size="10.00">include/tvm/relax/script</text>
<text text-anchor="middle" x="2087.5" y="-74.5" font-family="Helvetica,sans-Serif" font-size="10.00">/builder/ir.h</text>
</a>
</g>
</g>
<!-- Node1&#45;&gt;Node35 -->
<g id="edge56" class="edge">
<title>Node1&#45;&gt;Node35</title>
<path fill="none" stroke="midnightblue" d="M539.02,-405.07C457.32,-398.02 335.4,-384.81 292.5,-366 240.3,-343.12 193.5,-341.49 193.5,-284.5 193.5,-284.5 193.5,-284.5 193.5,-215.5 193.5,-104.53 320.36,-154.03 429.5,-134 587.68,-104.97 1732.15,-88.15 2021.29,-84.34"/>
<polygon fill="midnightblue" stroke="midnightblue" points="539.01,-408.58 549.27,-405.94 539.6,-401.61 539.01,-408.58"/>
</g>
<!-- Node36 -->
<g id="node36" class="node">
<title>Node36</title>
<g id="a_node36"><a xlink:href="nested__msg_8h.html" target="_top" xlink:title="Helper container to store nested message for robust tuple&#45;aware analysis.">
<polygon fill="white" stroke="black" points="3481.5,-268.5 3481.5,-298.5 3619.5,-298.5 3619.5,-268.5 3481.5,-268.5"/>
<text text-anchor="start" x="3489.5" y="-286.5" font-family="Helvetica,sans-Serif" font-size="10.00">include/tvm/relax/nested</text>
<text text-anchor="middle" x="3550.5" y="-275.5" font-family="Helvetica,sans-Serif" font-size="10.00">_msg.h</text>
</a>
</g>
</g>
<!-- Node1&#45;&gt;Node36 -->
<g id="edge54" class="edge">
<title>Node1&#45;&gt;Node36</title>
<path fill="none" stroke="midnightblue" d="M695.86,-409.45C1095.35,-401.32 2908.23,-361.57 3467.5,-299 3472.01,-298.5 3476.64,-297.9 3481.3,-297.25"/>
<polygon fill="midnightblue" stroke="midnightblue" points="695.49,-405.96 685.57,-409.66 695.63,-412.96 695.49,-405.96"/>
</g>
<!-- Node3 -->
<g id="node3" class="node">
<title>Node3</title>
<g id="a_node3"><a xlink:href="binding__rewrite_8h.html" target="_top" xlink:title="An IR rewriter to easily add/remove/replace bindings (statements).">
<polygon fill="white" stroke="black" points="2812,-0.5 2812,-30.5 2953,-30.5 2953,-0.5 2812,-0.5"/>
<text text-anchor="start" x="2820" y="-18.5" font-family="Helvetica,sans-Serif" font-size="10.00">include/tvm/relax/binding</text>
<text text-anchor="middle" x="2882.5" y="-7.5" font-family="Helvetica,sans-Serif" font-size="10.00">_rewrite.h</text>
</a>
</g>
</g>
<!-- Node2&#45;&gt;Node3 -->
<g id="edge2" class="edge">
<title>Node2&#45;&gt;Node3</title>
<path fill="none" stroke="midnightblue" d="M3367.73,-71.83C3255.18,-59 3058.43,-36.56 2953.37,-24.58"/>
<polygon fill="midnightblue" stroke="midnightblue" points="3367.36,-75.31 3377.69,-72.97 3368.15,-68.36 3367.36,-75.31"/>
</g>
<!-- Node5 -->
<g id="node5" class="node">
<title>Node5</title>
<g id="a_node5"><a xlink:href="dataflow__matcher_8h.html" target="_top" xlink:title="A pattern matcher for matching dataflow properties.">
<polygon fill="white" stroke="black" points="506,-201.5 506,-231.5 653,-231.5 653,-201.5 506,-201.5"/>
<text text-anchor="start" x="514" y="-219.5" font-family="Helvetica,sans-Serif" font-size="10.00">include/tvm/relax/dataflow</text>
<text text-anchor="middle" x="579.5" y="-208.5" font-family="Helvetica,sans-Serif" font-size="10.00">_matcher.h</text>
</a>
</g>
</g>
<!-- Node4&#45;&gt;Node5 -->
<g id="edge4" class="edge">
<title>Node4&#45;&gt;Node5</title>
<path fill="none" stroke="midnightblue" d="M604.1,-259.58C598.64,-250.24 592.51,-239.75 587.73,-231.58"/>
<polygon fill="midnightblue" stroke="midnightblue" points="601.19,-261.53 609.25,-268.4 607.23,-258 601.19,-261.53"/>
</g>
<!-- Node6 -->
<g id="node6" class="node">
<title>Node6</title>
<g id="a_node6"><a xlink:href="dataflow__pattern__functor_8h.html" target="_top" xlink:title="Functors and visitors for dataflow patterns.">
<polygon fill="white" stroke="black" points="341,-201.5 341,-231.5 488,-231.5 488,-201.5 341,-201.5"/>
<text text-anchor="start" x="349" y="-219.5" font-family="Helvetica,sans-Serif" font-size="10.00">include/tvm/relax/dataflow</text>
<text text-anchor="middle" x="414.5" y="-208.5" font-family="Helvetica,sans-Serif" font-size="10.00">_pattern_functor.h</text>
</a>
</g>
</g>
<!-- Node4&#45;&gt;Node6 -->
<g id="edge5" class="edge">
<title>Node4&#45;&gt;Node6</title>
<path fill="none" stroke="midnightblue" d="M563.56,-265.23C530.72,-254.71 489.3,-241.45 458.46,-231.58"/>
<polygon fill="midnightblue" stroke="midnightblue" points="562.86,-268.68 573.45,-268.4 565,-262.01 562.86,-268.68"/>
</g>
<!-- Node7 -->
<g id="node7" class="node">
<title>Node7</title>
<g id="a_node7"><a xlink:href="relax_2distributed_2transform_8h.html" target="_top" xlink:title="Relax distributed specific transformation passes.">
<polygon fill="white" stroke="black" points="1423.5,-134.5 1423.5,-164.5 1581.5,-164.5 1581.5,-134.5 1423.5,-134.5"/>
<text text-anchor="start" x="1431.5" y="-152.5" font-family="Helvetica,sans-Serif" font-size="10.00">include/tvm/relax/distributed</text>
<text text-anchor="middle" x="1502.5" y="-141.5" font-family="Helvetica,sans-Serif" font-size="10.00">/transform.h</text>
</a>
</g>
</g>
<!-- Node4&#45;&gt;Node7 -->
<g id="edge6" class="edge">
<title>Node4&#45;&gt;Node7</title>
<path fill="none" stroke="midnightblue" d="M700.97,-270.05C871.27,-244.65 1256.71,-187.16 1423.32,-162.31"/>
<polygon fill="midnightblue" stroke="midnightblue" points="700.43,-266.59 691.05,-271.53 701.46,-273.52 700.43,-266.59"/>
</g>
<!-- Node8 -->
<g id="node8" class="node">
<title>Node8</title>
<g id="a_node8"><a xlink:href="relax_2transform_8h.html" target="_top" xlink:title="Relax specific transformation passes.">
<polygon fill="white" stroke="black" points="1563.5,-207 1563.5,-226 1725.5,-226 1725.5,-207 1563.5,-207"/>
<text text-anchor="middle" x="1644.5" y="-214" font-family="Helvetica,sans-Serif" font-size="10.00">include/tvm/relax/transform.h</text>
</a>
</g>
</g>
<!-- Node4&#45;&gt;Node8 -->
<g id="edge7" class="edge">
<title>Node4&#45;&gt;Node8</title>
<path fill="none" stroke="midnightblue" d="M701,-271.79C713.56,-270.38 726.36,-269.06 738.5,-268 1042.36,-241.35 1404.86,-226.13 1563.47,-220.29"/>
<polygon fill="midnightblue" stroke="midnightblue" points="700.55,-268.32 691.01,-272.93 701.34,-275.27 700.55,-268.32"/>
</g>
<!-- Node8&#45;&gt;Node7 -->
<g id="edge10" class="edge">
<title>Node8&#45;&gt;Node7</title>
<path fill="none" stroke="midnightblue" d="M1616.36,-202.62C1592.34,-191.63 1557.86,-175.84 1533.15,-164.53"/>
<polygon fill="midnightblue" stroke="midnightblue" points="1615.09,-205.89 1625.64,-206.87 1618.01,-199.52 1615.09,-205.89"/>
</g>
<!-- Node9 -->
<g id="node9" class="node">
<title>Node9</title>
<g id="a_node9"><a xlink:href="relax_2backend_2adreno_2transform_8h.html" target="_top" xlink:title="Adreno GPU specific transformation passes.">
<polygon fill="white" stroke="black" points="1860.5,-134.5 1860.5,-164.5 2006.5,-164.5 2006.5,-134.5 1860.5,-134.5"/>
<text text-anchor="start" x="1868.5" y="-152.5" font-family="Helvetica,sans-Serif" font-size="10.00">include/tvm/relax/backend</text>
<text text-anchor="middle" x="1933.5" y="-141.5" font-family="Helvetica,sans-Serif" font-size="10.00">/adreno/transform.h</text>
</a>
</g>
</g>
<!-- Node8&#45;&gt;Node9 -->
<g id="edge8" class="edge">
<title>Node8&#45;&gt;Node9</title>
<path fill="none" stroke="midnightblue" d="M1692.58,-204.69C1741.48,-193.69 1817.45,-176.6 1870.99,-164.56"/>
<polygon fill="midnightblue" stroke="midnightblue" points="1691.57,-201.33 1682.58,-206.94 1693.1,-208.16 1691.57,-201.33"/>
</g>
<!-- Node10 -->
<g id="node10" class="node">
<title>Node10</title>
<g id="a_node10"><a xlink:href="backend_8h.html" target="_top" xlink:title="Relax backend specific transformation passes.">
<polygon fill="white" stroke="black" points="1600,-140 1600,-159 1755,-159 1755,-140 1600,-140"/>
<text text-anchor="middle" x="1677.5" y="-147" font-family="Helvetica,sans-Serif" font-size="10.00">include/tvm/relax/backend.h</text>
</a>
</g>
</g>
<!-- Node8&#45;&gt;Node10 -->
<g id="edge9" class="edge">
<title>Node8&#45;&gt;Node10</title>
<path fill="none" stroke="midnightblue" d="M1653.56,-197.66C1659.92,-185.13 1668.15,-168.91 1673.12,-159.13"/>
<polygon fill="midnightblue" stroke="midnightblue" points="1650.36,-196.23 1648.95,-206.73 1656.6,-199.4 1650.36,-196.23"/>
</g>
<!-- Node12 -->
<g id="node12" class="node">
<title>Node12</title>
<g id="a_node12"><a xlink:href="distributed_8h.html" target="_top" xlink:title="Attributes for redistribute and annotate_sharding operators.">
<polygon fill="white" stroke="black" points="397.5,-268.5 397.5,-298.5 525.5,-298.5 525.5,-268.5 397.5,-268.5"/>
<text text-anchor="start" x="405.5" y="-286.5" font-family="Helvetica,sans-Serif" font-size="10.00">include/tvm/relax/attrs</text>
<text text-anchor="middle" x="461.5" y="-275.5" font-family="Helvetica,sans-Serif" font-size="10.00">/distributed.h</text>
</a>
</g>
</g>
<!-- Node11&#45;&gt;Node12 -->
<g id="edge12" class="edge">
<title>Node11&#45;&gt;Node12</title>
<path fill="none" stroke="midnightblue" d="M406.19,-328.88C418.5,-319.01 432.93,-307.43 443.96,-298.58"/>
<polygon fill="midnightblue" stroke="midnightblue" points="403.68,-326.41 398.08,-335.4 408.07,-331.87 403.68,-326.41"/>
</g>
<!-- Node13 -->
<g id="node13" class="node">
<title>Node13</title>
<g id="a_node13"><a xlink:href="axis__group__graph_8h.html" target="_top" xlink:title=" ">
<polygon fill="white" stroke="black" points="221.5,-268.5 221.5,-298.5 379.5,-298.5 379.5,-268.5 221.5,-268.5"/>
<text text-anchor="start" x="229.5" y="-286.5" font-family="Helvetica,sans-Serif" font-size="10.00">include/tvm/relax/distributed</text>
<text text-anchor="middle" x="300.5" y="-275.5" font-family="Helvetica,sans-Serif" font-size="10.00">/axis_group_graph.h</text>
</a>
</g>
</g>
<!-- Node11&#45;&gt;Node13 -->
<g id="edge13" class="edge">
<title>Node11&#45;&gt;Node13</title>
<path fill="none" stroke="midnightblue" d="M355.13,-328.88C342.97,-319.01 328.72,-307.43 317.82,-298.58"/>
<polygon fill="midnightblue" stroke="midnightblue" points="353.17,-331.81 363.14,-335.4 357.59,-326.37 353.17,-331.81"/>
</g>
<!-- Node11&#45;&gt;Node14 -->
<g id="edge14" class="edge">
<title>Node11&#45;&gt;Node14</title>
<path fill="none" stroke="midnightblue" d="M302.25,-333.45C248.35,-322.4 177.64,-307.9 127.19,-297.56"/>
<polygon fill="midnightblue" stroke="midnightblue" points="301.61,-336.9 312.11,-335.48 303.01,-330.04 301.61,-336.9"/>
</g>
<!-- Node14&#45;&gt;Node15 -->
<g id="edge15" class="edge">
<title>Node14&#45;&gt;Node15</title>
<path fill="none" stroke="midnightblue" d="M93.71,-262.85C123.87,-244.15 172.13,-216.59 217.5,-201 291.16,-175.68 380.1,-162.51 438.81,-156.06"/>
<polygon fill="midnightblue" stroke="midnightblue" points="91.57,-260.07 84.96,-268.35 95.29,-266 91.57,-260.07"/>
</g>
<!-- Node16&#45;&gt;Node2 -->
<g id="edge17" class="edge">
<title>Node16&#45;&gt;Node2</title>
<path fill="none" stroke="midnightblue" d="M2127.25,-345.33C2186.5,-342.23 2270.13,-338.04 2343.5,-335 2403.26,-332.53 3370.06,-332.67 3419.5,-299 3473.14,-262.47 3464.34,-228.55 3477.5,-165 3480.29,-151.51 3480.64,-147.42 3477.5,-134 3473.84,-118.38 3464.61,-102.05 3458.45,-92.33"/>
<polygon fill="midnightblue" stroke="midnightblue" points="2127.02,-341.84 2117.21,-345.86 2127.38,-348.83 2127.02,-341.84"/>
</g>
<!-- Node16&#45;&gt;Node3 -->
<g id="edge35" class="edge">
<title>Node16&#45;&gt;Node3</title>
<path fill="none" stroke="midnightblue" d="M2127.43,-342.3C2194.72,-334.73 2285.56,-320.84 2314.5,-299 2346.86,-274.57 2355.5,-258.05 2355.5,-217.5 2355.5,-217.5 2355.5,-217.5 2355.5,-148.5 2355.5,-55.48 2668.37,-27.44 2811.97,-19.47"/>
<polygon fill="midnightblue" stroke="midnightblue" points="2126.82,-338.85 2117.26,-343.42 2127.58,-345.81 2126.82,-338.85"/>
</g>
<!-- Node16&#45;&gt;Node4 -->
<g id="edge42" class="edge">
<title>Node16&#45;&gt;Node4</title>
<path fill="none" stroke="midnightblue" d="M1971.67,-349.99C1764.91,-350.55 1184.99,-347.32 705.5,-299 700.88,-298.53 696.13,-297.98 691.35,-297.36"/>
<polygon fill="midnightblue" stroke="midnightblue" points="1971.83,-353.49 1981.82,-349.96 1971.81,-346.49 1971.83,-353.49"/>
</g>
<!-- Node16&#45;&gt;Node7 -->
<g id="edge44" class="edge">
<title>Node16&#45;&gt;Node7</title>
<path fill="none" stroke="midnightblue" d="M1971.37,-349.67C1855.27,-348.51 1644.24,-340.53 1582.5,-299 1534.39,-266.64 1512.84,-195.5 1505.55,-164.93"/>
<polygon fill="midnightblue" stroke="midnightblue" points="1971.59,-353.18 1981.62,-349.76 1971.65,-346.18 1971.59,-353.18"/>
</g>
<!-- Node16&#45;&gt;Node8 -->
<g id="edge50" class="edge">
<title>Node16&#45;&gt;Node8</title>
<path fill="none" stroke="midnightblue" d="M1971.76,-346.46C1847.94,-340.82 1617.3,-326.69 1592.5,-299 1571.22,-275.24 1610.17,-241.86 1631.67,-226.22"/>
<polygon fill="midnightblue" stroke="midnightblue" points="1971.8,-349.97 1981.94,-346.92 1972.11,-342.98 1971.8,-349.97"/>
</g>
<!-- Node16&#45;&gt;Node9 -->
<g id="edge34" class="edge">
<title>Node16&#45;&gt;Node9</title>
<path fill="none" stroke="midnightblue" d="M2047.6,-330.67C2045.31,-313.6 2040.45,-288.1 2030.5,-268 2009.61,-225.8 1970.88,-185.48 1949.21,-164.82"/>
<polygon fill="midnightblue" stroke="midnightblue" points="2044.17,-331.45 2048.8,-340.98 2051.12,-330.64 2044.17,-331.45"/>
</g>
<!-- Node16&#45;&gt;Node12 -->
<g id="edge21" class="edge">
<title>Node16&#45;&gt;Node12</title>
<path fill="none" stroke="midnightblue" d="M1971.6,-348.58C1703.09,-345.14 817.14,-331.56 534.5,-299 531.55,-298.66 528.54,-298.26 525.5,-297.82"/>
<polygon fill="midnightblue" stroke="midnightblue" points="1971.6,-352.08 1981.65,-348.71 1971.69,-345.08 1971.6,-352.08"/>
</g>
<!-- Node16&#45;&gt;Node13 -->
<g id="edge43" class="edge">
<title>Node16&#45;&gt;Node13</title>
<path fill="none" stroke="midnightblue" d="M1971.48,-348.51C1686.41,-344.66 701.57,-329.42 388.5,-299 385.57,-298.72 382.59,-298.39 379.59,-298.04"/>
<polygon fill="midnightblue" stroke="midnightblue" points="1971.68,-352.01 1981.72,-348.64 1971.77,-345.01 1971.68,-352.01"/>
</g>
<!-- Node16&#45;&gt;Node15 -->
<g id="edge45" class="edge">
<title>Node16&#45;&gt;Node15</title>
<path fill="none" stroke="midnightblue" d="M1971.64,-348.3C1697.95,-343.85 793.56,-327.08 738.5,-299 689.16,-273.83 707.02,-232.56 661.5,-201 633.17,-181.36 596.83,-169.07 566.03,-161.54"/>
<polygon fill="midnightblue" stroke="midnightblue" points="1971.83,-351.8 1981.88,-348.47 1971.94,-344.81 1971.83,-351.8"/>
</g>
<!-- Node17 -->
<g id="node17" class="node">
<title>Node17</title>
<g id="a_node17"><a xlink:href="ccl_8h.html" target="_top" xlink:title="Attributes for ccl operators.">
<polygon fill="white" stroke="black" points="2383.5,-268.5 2383.5,-298.5 2511.5,-298.5 2511.5,-268.5 2383.5,-268.5"/>
<text text-anchor="start" x="2391.5" y="-286.5" font-family="Helvetica,sans-Serif" font-size="10.00">include/tvm/relax/attrs</text>
<text text-anchor="middle" x="2447.5" y="-275.5" font-family="Helvetica,sans-Serif" font-size="10.00">/ccl.h</text>
</a>
</g>
</g>
<!-- Node16&#45;&gt;Node17 -->
<g id="edge18" class="edge">
<title>Node16&#45;&gt;Node17</title>
<path fill="none" stroke="midnightblue" d="M2116.6,-339.46C2181.41,-329.63 2282.29,-313.98 2369.5,-299 2373.98,-298.23 2378.6,-297.42 2383.25,-296.59"/>
<polygon fill="midnightblue" stroke="midnightblue" points="2115.88,-336.02 2106.51,-340.98 2116.93,-342.95 2115.88,-336.02"/>
</g>
<!-- Node18 -->
<g id="node18" class="node">
<title>Node18</title>
<g id="a_node18"><a xlink:href="create_8h.html" target="_top" xlink:title="Attributes for tensor creation operators.">
<polygon fill="white" stroke="black" points="2529.5,-268.5 2529.5,-298.5 2657.5,-298.5 2657.5,-268.5 2529.5,-268.5"/>
<text text-anchor="start" x="2537.5" y="-286.5" font-family="Helvetica,sans-Serif" font-size="10.00">include/tvm/relax/attrs</text>
<text text-anchor="middle" x="2593.5" y="-275.5" font-family="Helvetica,sans-Serif" font-size="10.00">/create.h</text>
</a>
</g>
</g>
<!-- Node16&#45;&gt;Node18 -->
<g id="edge19" class="edge">
<title>Node16&#45;&gt;Node18</title>
<path fill="none" stroke="midnightblue" d="M2127.45,-343.29C2221.09,-335.33 2382.78,-320.02 2520.5,-299 2523.44,-298.55 2526.44,-298.07 2529.46,-297.56"/>
<polygon fill="midnightblue" stroke="midnightblue" points="2126.88,-339.82 2117.21,-344.15 2127.47,-346.8 2126.88,-339.82"/>
</g>
<!-- Node19 -->
<g id="node19" class="node">
<title>Node19</title>
<g id="a_node19"><a xlink:href="datatype_8h.html" target="_top" xlink:title="Attributes for datatype operators.">
<polygon fill="white" stroke="black" points="2675.5,-268.5 2675.5,-298.5 2803.5,-298.5 2803.5,-268.5 2675.5,-268.5"/>
<text text-anchor="start" x="2683.5" y="-286.5" font-family="Helvetica,sans-Serif" font-size="10.00">include/tvm/relax/attrs</text>
<text text-anchor="middle" x="2739.5" y="-275.5" font-family="Helvetica,sans-Serif" font-size="10.00">/datatype.h</text>
</a>
</g>
</g>
<!-- Node16&#45;&gt;Node19 -->
<g id="edge20" class="edge">
<title>Node16&#45;&gt;Node19</title>
<path fill="none" stroke="midnightblue" d="M2127.66,-345.97C2245.09,-340.03 2473.8,-325.93 2666.5,-299 2669.44,-298.59 2672.45,-298.13 2675.48,-297.65"/>
<polygon fill="midnightblue" stroke="midnightblue" points="2127.15,-342.49 2117.34,-346.49 2127.5,-349.49 2127.15,-342.49"/>
</g>
<!-- Node20 -->
<g id="node20" class="node">
<title>Node20</title>
<g id="a_node20"><a xlink:href="image_8h.html" target="_top" xlink:title="Attributes for image operators.">
<polygon fill="white" stroke="black" points="2821.5,-268.5 2821.5,-298.5 2949.5,-298.5 2949.5,-268.5 2821.5,-268.5"/>
<text text-anchor="start" x="2829.5" y="-286.5" font-family="Helvetica,sans-Serif" font-size="10.00">include/tvm/relax/attrs</text>
<text text-anchor="middle" x="2885.5" y="-275.5" font-family="Helvetica,sans-Serif" font-size="10.00">/image.h</text>
</a>
</g>
</g>
<!-- Node16&#45;&gt;Node20 -->
<g id="edge22" class="edge">
<title>Node16&#45;&gt;Node20</title>
<path fill="none" stroke="midnightblue" d="M2127.24,-347.69C2265.58,-343.73 2563.4,-331.84 2812.5,-299 2815.45,-298.61 2818.45,-298.18 2821.48,-297.7"/>
<polygon fill="midnightblue" stroke="midnightblue" points="2127.05,-344.19 2117.15,-347.97 2127.25,-351.19 2127.05,-344.19"/>
</g>
<!-- Node21 -->
<g id="node21" class="node">
<title>Node21</title>
<g id="a_node21"><a xlink:href="index_8h.html" target="_top" xlink:title="Attributes for indexing operators.">
<polygon fill="white" stroke="black" points="2967.5,-268.5 2967.5,-298.5 3095.5,-298.5 3095.5,-268.5 2967.5,-268.5"/>
<text text-anchor="start" x="2975.5" y="-286.5" font-family="Helvetica,sans-Serif" font-size="10.00">include/tvm/relax/attrs</text>
<text text-anchor="middle" x="3031.5" y="-275.5" font-family="Helvetica,sans-Serif" font-size="10.00">/index.h</text>
</a>
</g>
</g>
<!-- Node16&#45;&gt;Node21 -->
<g id="edge23" class="edge">
<title>Node16&#45;&gt;Node21</title>
<path fill="none" stroke="midnightblue" d="M2127.14,-348.86C2284.56,-346.75 2652.39,-337.71 2958.5,-299 2961.45,-298.63 2964.46,-298.2 2967.49,-297.74"/>
<polygon fill="midnightblue" stroke="midnightblue" points="2127.03,-345.36 2117.07,-348.99 2127.12,-352.36 2127.03,-345.36"/>
</g>
<!-- Node22 -->
<g id="node22" class="node">
<title>Node22</title>
<g id="a_node22"><a xlink:href="linear__algebra_8h.html" target="_top" xlink:title="Attributes for linear algebra operators.">
<polygon fill="white" stroke="black" points="3113.5,-268.5 3113.5,-298.5 3241.5,-298.5 3241.5,-268.5 3113.5,-268.5"/>
<text text-anchor="start" x="3121.5" y="-286.5" font-family="Helvetica,sans-Serif" font-size="10.00">include/tvm/relax/attrs</text>
<text text-anchor="middle" x="3177.5" y="-275.5" font-family="Helvetica,sans-Serif" font-size="10.00">/linear_algebra.h</text>
</a>
</g>
</g>
<!-- Node16&#45;&gt;Node22 -->
<g id="edge24" class="edge">
<title>Node16&#45;&gt;Node22</title>
<path fill="none" stroke="midnightblue" d="M2127.21,-349.71C2302.33,-349.33 2740.9,-343.56 3104.5,-299 3107.45,-298.64 3110.46,-298.22 3113.49,-297.77"/>
<polygon fill="midnightblue" stroke="midnightblue" points="2127.06,-346.21 2117.06,-349.73 2127.07,-353.21 2127.06,-346.21"/>
</g>
<!-- Node23 -->
<g id="node23" class="node">
<title>Node23</title>
<g id="a_node23"><a xlink:href="manipulate_8h.html" target="_top" xlink:title="Attributes for tensor manipulation operators.">
<polygon fill="white" stroke="black" points="3259.5,-268.5 3259.5,-298.5 3387.5,-298.5 3387.5,-268.5 3259.5,-268.5"/>
<text text-anchor="start" x="3267.5" y="-286.5" font-family="Helvetica,sans-Serif" font-size="10.00">include/tvm/relax/attrs</text>
<text text-anchor="middle" x="3323.5" y="-275.5" font-family="Helvetica,sans-Serif" font-size="10.00">/manipulate.h</text>
</a>
</g>
</g>
<!-- Node16&#45;&gt;Node23 -->
<g id="edge25" class="edge">
<title>Node16&#45;&gt;Node23</title>
<path fill="none" stroke="midnightblue" d="M2127.5,-347.79C2357.72,-342.5 3031.88,-325.15 3250.5,-299 3253.45,-298.65 3256.46,-298.24 3259.5,-297.79"/>
<polygon fill="midnightblue" stroke="midnightblue" points="2127.12,-344.3 2117.2,-348.03 2127.28,-351.3 2127.12,-344.3"/>
</g>
<!-- Node24 -->
<g id="node24" class="node">
<title>Node24</title>
<g id="a_node24"><a xlink:href="relax_2attrs_2nn_8h.html" target="_top" xlink:title="Attributes for neural network operators.">
<polygon fill="white" stroke="black" points="747.5,-274 747.5,-293 899.5,-293 899.5,-274 747.5,-274"/>
<text text-anchor="middle" x="823.5" y="-281" font-family="Helvetica,sans-Serif" font-size="10.00">include/tvm/relax/attrs/nn.h</text>
</a>
</g>
</g>
<!-- Node16&#45;&gt;Node24 -->
<g id="edge26" class="edge">
<title>Node16&#45;&gt;Node24</title>
<path fill="none" stroke="midnightblue" d="M1971.59,-349.39C1786.6,-348.42 1306.63,-341.6 908.5,-299 895.1,-297.57 880.62,-295.35 867.47,-293.08"/>
<polygon fill="midnightblue" stroke="midnightblue" points="1971.74,-352.9 1981.76,-349.44 1971.78,-345.9 1971.74,-352.9"/>
</g>
<!-- Node25 -->
<g id="node25" class="node">
<title>Node25</title>
<g id="a_node25"><a xlink:href="relax_2attrs_2op_8h.html" target="_top" xlink:title="Attributes for relax specific operators.">
<polygon fill="white" stroke="black" points="917.5,-274 917.5,-293 1069.5,-293 1069.5,-274 917.5,-274"/>
<text text-anchor="middle" x="993.5" y="-281" font-family="Helvetica,sans-Serif" font-size="10.00">include/tvm/relax/attrs/op.h</text>
</a>
</g>
</g>
<!-- Node16&#45;&gt;Node25 -->
<g id="edge27" class="edge">
<title>Node16&#45;&gt;Node25</title>
<path fill="none" stroke="midnightblue" d="M1971.83,-348.54C1806.84,-345.83 1409.43,-335.7 1078.5,-299 1065.11,-297.51 1050.63,-295.28 1037.48,-293.01"/>
<polygon fill="midnightblue" stroke="midnightblue" points="1971.83,-352.04 1981.89,-348.7 1971.94,-345.04 1971.83,-352.04"/>
</g>
<!-- Node26 -->
<g id="node26" class="node">
<title>Node26</title>
<g id="a_node26"><a xlink:href="qdq_8h.html" target="_top" xlink:title="Attributes for quantize/dequantize operators.">
<polygon fill="white" stroke="black" points="1087.5,-268.5 1087.5,-298.5 1215.5,-298.5 1215.5,-268.5 1087.5,-268.5"/>
<text text-anchor="start" x="1095.5" y="-286.5" font-family="Helvetica,sans-Serif" font-size="10.00">include/tvm/relax/attrs</text>
<text text-anchor="middle" x="1151.5" y="-275.5" font-family="Helvetica,sans-Serif" font-size="10.00">/qdq.h</text>
</a>
</g>
</g>
<!-- Node16&#45;&gt;Node26 -->
<g id="edge28" class="edge">
<title>Node16&#45;&gt;Node26</title>
<path fill="none" stroke="midnightblue" d="M1971.58,-348.23C1824.82,-345.06 1497.59,-334.32 1224.5,-299 1221.55,-298.62 1218.55,-298.19 1215.51,-297.72"/>
<polygon fill="midnightblue" stroke="midnightblue" points="1971.76,-351.73 1981.84,-348.44 1971.91,-344.74 1971.76,-351.73"/>
</g>
<!-- Node27 -->
<g id="node27" class="node">
<title>Node27</title>
<g id="a_node27"><a xlink:href="sampling_8h.html" target="_top" xlink:title="Attributes for sampling operators.">
<polygon fill="white" stroke="black" points="1233.5,-268.5 1233.5,-298.5 1361.5,-298.5 1361.5,-268.5 1233.5,-268.5"/>
<text text-anchor="start" x="1241.5" y="-286.5" font-family="Helvetica,sans-Serif" font-size="10.00">include/tvm/relax/attrs</text>
<text text-anchor="middle" x="1297.5" y="-275.5" font-family="Helvetica,sans-Serif" font-size="10.00">/sampling.h</text>
</a>
</g>
</g>
<!-- Node16&#45;&gt;Node27 -->
<g id="edge29" class="edge">
<title>Node16&#45;&gt;Node27</title>
<path fill="none" stroke="midnightblue" d="M1971.39,-346.78C1844.75,-341.69 1586.96,-328.44 1370.5,-299 1367.56,-298.6 1364.55,-298.15 1361.52,-297.67"/>
<polygon fill="midnightblue" stroke="midnightblue" points="1971.62,-350.3 1981.75,-347.2 1971.9,-343.3 1971.62,-350.3"/>
</g>
<!-- Node28 -->
<g id="node28" class="node">
<title>Node28</title>
<g id="a_node28"><a xlink:href="search_8h.html" target="_top" xlink:title="Attributes for search operators.">
<polygon fill="white" stroke="black" points="1379.5,-268.5 1379.5,-298.5 1507.5,-298.5 1507.5,-268.5 1379.5,-268.5"/>
<text text-anchor="start" x="1387.5" y="-286.5" font-family="Helvetica,sans-Serif" font-size="10.00">include/tvm/relax/attrs</text>
<text text-anchor="middle" x="1443.5" y="-275.5" font-family="Helvetica,sans-Serif" font-size="10.00">/search.h</text>
</a>
</g>
</g>
<!-- Node16&#45;&gt;Node28 -->
<g id="edge30" class="edge">
<title>Node16&#45;&gt;Node28</title>
<path fill="none" stroke="midnightblue" d="M1971.74,-344.22C1868.54,-336.73 1680.79,-321.38 1521.5,-299 1517,-298.37 1512.36,-297.66 1507.7,-296.9"/>
<polygon fill="midnightblue" stroke="midnightblue" points="1971.54,-347.72 1981.76,-344.95 1972.04,-340.74 1971.54,-347.72"/>
</g>
<!-- Node29 -->
<g id="node29" class="node">
<title>Node29</title>
<g id="a_node29"><a xlink:href="sorting_8h.html" target="_top" xlink:title="Attributes for sorting operators.">
<polygon fill="white" stroke="black" points="1601.5,-268.5 1601.5,-298.5 1729.5,-298.5 1729.5,-268.5 1601.5,-268.5"/>
<text text-anchor="start" x="1609.5" y="-286.5" font-family="Helvetica,sans-Serif" font-size="10.00">include/tvm/relax/attrs</text>
<text text-anchor="middle" x="1665.5" y="-275.5" font-family="Helvetica,sans-Serif" font-size="10.00">/sorting.h</text>
</a>
</g>
</g>
<!-- Node16&#45;&gt;Node29 -->
<g id="edge31" class="edge">
<title>Node16&#45;&gt;Node29</title>
<path fill="none" stroke="midnightblue" d="M1983.01,-339.4C1919.96,-329.65 1822.64,-314.18 1738.5,-299 1735.58,-298.47 1732.59,-297.92 1729.57,-297.36"/>
<polygon fill="midnightblue" stroke="midnightblue" points="1982.8,-342.9 1993.22,-340.97 1983.87,-335.99 1982.8,-342.9"/>
</g>
<!-- Node30 -->
<g id="node30" class="node">
<title>Node30</title>
<g id="a_node30"><a xlink:href="statistical_8h.html" target="_top" xlink:title="Attributes for statistical operators.">
<polygon fill="white" stroke="black" points="1747.5,-268.5 1747.5,-298.5 1875.5,-298.5 1875.5,-268.5 1747.5,-268.5"/>
<text text-anchor="start" x="1755.5" y="-286.5" font-family="Helvetica,sans-Serif" font-size="10.00">include/tvm/relax/attrs</text>
<text text-anchor="middle" x="1811.5" y="-275.5" font-family="Helvetica,sans-Serif" font-size="10.00">/statistical.h</text>
</a>
</g>
</g>
<!-- Node16&#45;&gt;Node30 -->
<g id="edge32" class="edge">
<title>Node16&#45;&gt;Node30</title>
<path fill="none" stroke="midnightblue" d="M2008.12,-338.2C1967.77,-327.18 1906.31,-310.39 1862.86,-298.53"/>
<polygon fill="midnightblue" stroke="midnightblue" points="2007.33,-341.61 2017.9,-340.87 2009.17,-334.86 2007.33,-341.61"/>
</g>
<!-- Node31 -->
<g id="node31" class="node">
<title>Node31</title>
<g id="a_node31"><a xlink:href="vision_8h.html" target="_top" xlink:title="Auxiliary attributes for vision operators.">
<polygon fill="white" stroke="black" points="1893.5,-268.5 1893.5,-298.5 2021.5,-298.5 2021.5,-268.5 1893.5,-268.5"/>
<text text-anchor="start" x="1901.5" y="-286.5" font-family="Helvetica,sans-Serif" font-size="10.00">include/tvm/relax/attrs</text>
<text text-anchor="middle" x="1957.5" y="-275.5" font-family="Helvetica,sans-Serif" font-size="10.00">/vision.h</text>
</a>
</g>
</g>
<!-- Node16&#45;&gt;Node31 -->
<g id="edge33" class="edge">
<title>Node16&#45;&gt;Node31</title>
<path fill="none" stroke="midnightblue" d="M2028.76,-334.85C2013.41,-324 1992.61,-309.3 1977.44,-298.59"/>
<polygon fill="midnightblue" stroke="midnightblue" points="2026.91,-337.82 2037.09,-340.73 2030.94,-332.1 2026.91,-337.82"/>
</g>
<!-- Node32 -->
<g id="node32" class="node">
<title>Node32</title>
<g id="a_node32"><a xlink:href="block__builder_8h.html" target="_top" xlink:title="The utility for constructing Relax binding blocks.">
<polygon fill="white" stroke="black" points="2156,-201.5 2156,-231.5 2287,-231.5 2287,-201.5 2156,-201.5"/>
<text text-anchor="start" x="2164" y="-219.5" font-family="Helvetica,sans-Serif" font-size="10.00">include/tvm/relax/block</text>
<text text-anchor="middle" x="2221.5" y="-208.5" font-family="Helvetica,sans-Serif" font-size="10.00">_builder.h</text>
</a>
</g>
</g>
<!-- Node16&#45;&gt;Node32 -->
<g id="edge36" class="edge">
<title>Node16&#45;&gt;Node32</title>
<path fill="none" stroke="midnightblue" d="M2127.23,-344.2C2191.74,-338 2276.23,-325.04 2297.5,-299 2317.76,-274.2 2280.06,-247.41 2250.87,-231.56"/>
<polygon fill="midnightblue" stroke="midnightblue" points="2126.7,-340.74 2117.06,-345.14 2127.34,-347.71 2126.7,-340.74"/>
</g>
<!-- Node16&#45;&gt;Node33 -->
<g id="edge47" class="edge">
<title>Node16&#45;&gt;Node33</title>
<path fill="none" stroke="midnightblue" d="M2127.25,-345.34C2186.51,-342.26 2270.13,-338.06 2343.5,-335 2401.98,-332.56 3354.02,-339.28 3396.5,-299 3433.5,-263.92 3421.25,-194.89 3413.64,-164.94"/>
<polygon fill="midnightblue" stroke="midnightblue" points="2127.02,-341.85 2117.21,-345.87 2127.38,-348.84 2127.02,-341.85"/>
</g>
<!-- Node34 -->
<g id="node34" class="node">
<title>Node34</title>
<g id="a_node34"><a xlink:href="relax_2script_2builder_2frame_8h.html" target="_top" xlink:title=" ">
<polygon fill="white" stroke="black" points="2115.5,-134.5 2115.5,-164.5 2247.5,-164.5 2247.5,-134.5 2115.5,-134.5"/>
<text text-anchor="start" x="2123.5" y="-152.5" font-family="Helvetica,sans-Serif" font-size="10.00">include/tvm/relax/script</text>
<text text-anchor="middle" x="2181.5" y="-141.5" font-family="Helvetica,sans-Serif" font-size="10.00">/builder/frame.h</text>
</a>
</g>
</g>
<!-- Node16&#45;&gt;Node34 -->
<g id="edge48" class="edge">
<title>Node16&#45;&gt;Node34</title>
<path fill="none" stroke="midnightblue" d="M2068.57,-334.08C2079.24,-324.75 2092.22,-312.14 2101.5,-299 2129.16,-259.86 2122.76,-242.63 2146.5,-201 2153.79,-188.21 2163.39,-174.54 2170.69,-164.65"/>
<polygon fill="midnightblue" stroke="midnightblue" points="2065.99,-331.67 2060.62,-340.81 2070.52,-337.02 2065.99,-331.67"/>
</g>
<!-- Node16&#45;&gt;Node35 -->
<g id="edge49" class="edge">
<title>Node16&#45;&gt;Node35</title>
<path fill="none" stroke="midnightblue" d="M2052.16,-330.85C2059.37,-280.43 2079.12,-142.19 2085.49,-97.58"/>
<polygon fill="midnightblue" stroke="midnightblue" points="2048.67,-330.56 2050.72,-340.95 2055.6,-331.55 2048.67,-330.56"/>
</g>
<!-- Node16&#45;&gt;Node36 -->
<g id="edge46" class="edge">
<title>Node16&#45;&gt;Node36</title>
<path fill="none" stroke="midnightblue" d="M2127.51,-348.14C2384.7,-343.41 3204.4,-326.53 3467.5,-299 3472.01,-298.53 3476.64,-297.96 3481.31,-297.32"/>
<polygon fill="midnightblue" stroke="midnightblue" points="2127.08,-344.64 2117.14,-348.32 2127.21,-351.64 2127.08,-344.64"/>
</g>
<!-- Node37 -->
<g id="node37" class="node">
<title>Node37</title>
<g id="a_node37"><a xlink:href="relax_2utils_8h.html" target="_top" xlink:title="Utility classes and functions for working with the Relax IR.">
<polygon fill="white" stroke="black" points="2154,-274 2154,-293 2289,-293 2289,-274 2154,-274"/>
<text text-anchor="middle" x="2221.5" y="-281" font-family="Helvetica,sans-Serif" font-size="10.00">include/tvm/relax/utils.h</text>
</a>
</g>
</g>
<!-- Node16&#45;&gt;Node37 -->
<g id="edge51" class="edge">
<title>Node16&#45;&gt;Node37</title>
<path fill="none" stroke="midnightblue" d="M2081.86,-337.27C2116,-324.37 2168.91,-304.38 2198.84,-293.06"/>
<polygon fill="midnightblue" stroke="midnightblue" points="2080.46,-334.06 2072.34,-340.87 2082.93,-340.61 2080.46,-334.06"/>
</g>
<!-- Node32&#45;&gt;Node15 -->
<g id="edge37" class="edge">
<title>Node32&#45;&gt;Node15</title>
<path fill="none" stroke="midnightblue" d="M2145.6,-212.63C1857.35,-201.73 833.27,-163.01 566.45,-152.92"/>
<polygon fill="midnightblue" stroke="midnightblue" points="2145.83,-216.14 2155.95,-213.02 2146.09,-209.15 2145.83,-216.14"/>
</g>
<!-- Node32&#45;&gt;Node33 -->
<g id="edge38" class="edge">
<title>Node32&#45;&gt;Node33</title>
<path fill="none" stroke="midnightblue" d="M2297.23,-211.36C2517.41,-199.31 3154.17,-164.47 3350.9,-153.71"/>
<polygon fill="midnightblue" stroke="midnightblue" points="2296.86,-207.87 2287.06,-211.91 2297.24,-214.86 2296.86,-207.87"/>
</g>
<!-- Node32&#45;&gt;Node34 -->
<g id="edge40" class="edge">
<title>Node32&#45;&gt;Node34</title>
<path fill="none" stroke="midnightblue" d="M2207.57,-192.87C2201.78,-183.46 2195.24,-172.83 2190.16,-164.58"/>
<polygon fill="midnightblue" stroke="midnightblue" points="2204.6,-194.71 2212.82,-201.4 2210.56,-191.05 2204.6,-194.71"/>
</g>
<!-- Node33&#45;&gt;Node2 -->
<g id="edge39" class="edge">
<title>Node33&#45;&gt;Node2</title>
<path fill="none" stroke="midnightblue" d="M3424.4,-125.97C3432.1,-114.33 3441.06,-100.8 3446.75,-92.19"/>
<polygon fill="midnightblue" stroke="midnightblue" points="3421.43,-124.12 3418.83,-134.4 3427.27,-127.99 3421.43,-124.12"/>
</g>
<!-- Node34&#45;&gt;Node35 -->
<g id="edge41" class="edge">
<title>Node34&#45;&gt;Node35</title>
<path fill="none" stroke="midnightblue" d="M2152.51,-128.45C2138.05,-118.45 2120.91,-106.6 2107.86,-97.58"/>
<polygon fill="midnightblue" stroke="midnightblue" points="2150.89,-131.59 2161.1,-134.4 2154.87,-125.83 2150.89,-131.59"/>
</g>
<!-- Node37&#45;&gt;Node32 -->
<g id="edge52" class="edge">
<title>Node37&#45;&gt;Node32</title>
<path fill="none" stroke="midnightblue" d="M2221.5,-263.41C2221.5,-253.22 2221.5,-240.9 2221.5,-231.59"/>
<polygon fill="midnightblue" stroke="midnightblue" points="2218,-263.73 2221.5,-273.73 2225,-263.73 2218,-263.73"/>
</g>
</g>
</svg>
