<?xml version="1.0" encoding="UTF-8" standalone="no"?>
<!DOCTYPE svg PUBLIC "-//W3C//DTD SVG 1.1//EN"
 "http://www.w3.org/Graphics/SVG/1.1/DTD/svg11.dtd">
<!-- Generated by graphviz version 2.43.0 (0)
 -->
<!-- Title: include/tvm/relax/distributed/type.h Pages: 1 -->
<svg width="458pt" height="173pt"
 viewBox="0.00 0.00 457.50 173.00" xmlns="http://www.w3.org/2000/svg" xmlns:xlink="http://www.w3.org/1999/xlink">
<g id="graph0" class="graph" transform="scale(1 1) rotate(0) translate(4 169)">
<title>include/tvm/relax/distributed/type.h</title>
<polygon fill="white" stroke="transparent" points="-4,4 -4,-169 453.5,-169 453.5,4 -4,4"/>
<!-- Node1 -->
<g id="node1" class="node">
<title>Node1</title>
<g id="a_node1"><a xlink:title="Type definitions for DTensor (Distributed Tensor)">
<polygon fill="#bfbfbf" stroke="black" points="146,-134.5 146,-164.5 304,-164.5 304,-134.5 146,-134.5"/>
<text text-anchor="start" x="154" y="-152.5" font-family="Helvetica,sans-Serif" font-size="10.00">include/tvm/relax/distributed</text>
<text text-anchor="middle" x="225" y="-141.5" font-family="Helvetica,sans-Serif" font-size="10.00">/type.h</text>
</a>
</g>
</g>
<!-- Node2 -->
<g id="node2" class="node">
<title>Node2</title>
<g id="a_node2"><a xlink:href="distributed_8h.html" target="_top" xlink:title="Attributes for redistribute and annotate_sharding operators.">
<polygon fill="white" stroke="black" points="0,-67.5 0,-97.5 128,-97.5 128,-67.5 0,-67.5"/>
<text text-anchor="start" x="8" y="-85.5" font-family="Helvetica,sans-Serif" font-size="10.00">include/tvm/relax/attrs</text>
<text text-anchor="middle" x="64" y="-74.5" font-family="Helvetica,sans-Serif" font-size="10.00">/distributed.h</text>
</a>
</g>
</g>
<!-- Node1&#45;&gt;Node2 -->
<g id="edge1" class="edge">
<title>Node1&#45;&gt;Node2</title>
<path fill="none" stroke="midnightblue" d="M180.52,-130.54C154.76,-120.14 122.8,-107.24 98.87,-97.58"/>
<polygon fill="midnightblue" stroke="midnightblue" points="179.48,-133.9 190.07,-134.4 182.1,-127.41 179.48,-133.9"/>
</g>
<!-- Node3 -->
<g id="node3" class="node">
<title>Node3</title>
<g id="a_node3"><a xlink:href="axis__group__graph_8h.html" target="_top" xlink:title=" ">
<polygon fill="white" stroke="black" points="146,-67.5 146,-97.5 304,-97.5 304,-67.5 146,-67.5"/>
<text text-anchor="start" x="154" y="-85.5" font-family="Helvetica,sans-Serif" font-size="10.00">include/tvm/relax/distributed</text>
<text text-anchor="middle" x="225" y="-74.5" font-family="Helvetica,sans-Serif" font-size="10.00">/axis_group_graph.h</text>
</a>
</g>
</g>
<!-- Node1&#45;&gt;Node3 -->
<g id="edge2" class="edge">
<title>Node1&#45;&gt;Node3</title>
<path fill="none" stroke="midnightblue" d="M225,-124.11C225,-115.15 225,-105.32 225,-97.58"/>
<polygon fill="midnightblue" stroke="midnightblue" points="221.5,-124.4 225,-134.4 228.5,-124.4 221.5,-124.4"/>
</g>
<!-- Node4 -->
<g id="node4" class="node">
<title>Node4</title>
<g id="a_node4"><a xlink:href="type__functor_8h.html" target="_top" xlink:title="Functors and visitors for Relax type nodes.">
<polygon fill="white" stroke="black" points="322.5,-67.5 322.5,-97.5 449.5,-97.5 449.5,-67.5 322.5,-67.5"/>
<text text-anchor="start" x="330.5" y="-85.5" font-family="Helvetica,sans-Serif" font-size="10.00">include/tvm/relax/type</text>
<text text-anchor="middle" x="386" y="-74.5" font-family="Helvetica,sans-Serif" font-size="10.00">_functor.h</text>
</a>
</g>
</g>
<!-- Node1&#45;&gt;Node4 -->
<g id="edge3" class="edge">
<title>Node1&#45;&gt;Node4</title>
<path fill="none" stroke="midnightblue" d="M269.48,-130.54C295.24,-120.14 327.2,-107.24 351.13,-97.58"/>
<polygon fill="midnightblue" stroke="midnightblue" points="267.9,-127.41 259.93,-134.4 270.52,-133.9 267.9,-127.41"/>
</g>
<!-- Node5 -->
<g id="node5" class="node">
<title>Node5</title>
<g id="a_node5"><a xlink:href="relax_2expr__functor_8h.html" target="_top" xlink:title="A more powerful visitor which enables defining arbitrary function signatures with type based dispatch...">
<polygon fill="white" stroke="black" points="322.5,-0.5 322.5,-30.5 449.5,-30.5 449.5,-0.5 322.5,-0.5"/>
<text text-anchor="start" x="330.5" y="-18.5" font-family="Helvetica,sans-Serif" font-size="10.00">include/tvm/relax/expr</text>
<text text-anchor="middle" x="386" y="-7.5" font-family="Helvetica,sans-Serif" font-size="10.00">_functor.h</text>
</a>
</g>
</g>
<!-- Node4&#45;&gt;Node5 -->
<g id="edge4" class="edge">
<title>Node4&#45;&gt;Node5</title>
<path fill="none" stroke="midnightblue" d="M386,-57.11C386,-48.15 386,-38.32 386,-30.58"/>
<polygon fill="midnightblue" stroke="midnightblue" points="382.5,-57.4 386,-67.4 389.5,-57.4 382.5,-57.4"/>
</g>
</g>
</svg>
