<?xml version="1.0" encoding="UTF-8" standalone="no"?>
<!DOCTYPE svg PUBLIC "-//W3C//DTD SVG 1.1//EN"
 "http://www.w3.org/Graphics/SVG/1.1/DTD/svg11.dtd">
<!-- Generated by graphviz version 2.43.0 (0)
 -->
<!-- Title: include/tvm/script/ir_builder/base.h Pages: 1 -->
<svg width="1555pt" height="397pt"
 viewBox="0.00 0.00 1554.50 397.00" xmlns="http://www.w3.org/2000/svg" xmlns:xlink="http://www.w3.org/1999/xlink">
<g id="graph0" class="graph" transform="scale(1 1) rotate(0) translate(4 393)">
<title>include/tvm/script/ir_builder/base.h</title>
<polygon fill="white" stroke="transparent" points="-4,4 -4,-393 1550.5,-393 1550.5,4 -4,4"/>
<!-- Node1 -->
<g id="node1" class="node">
<title>Node1</title>
<g id="a_node1"><a xlink:title=" ">
<polygon fill="#bfbfbf" stroke="black" points="789.5,-358.5 789.5,-388.5 893.5,-388.5 893.5,-358.5 789.5,-358.5"/>
<text text-anchor="start" x="797.5" y="-376.5" font-family="Helvetica,sans-Serif" font-size="10.00">include/tvm/script</text>
<text text-anchor="middle" x="841.5" y="-365.5" font-family="Helvetica,sans-Serif" font-size="10.00">/ir_builder/base.h</text>
</a>
</g>
</g>
<!-- Node2 -->
<g id="node2" class="node">
<title>Node2</title>
<g id="a_node2"><a xlink:title=" ">
<polygon fill="white" stroke="#bfbfbf" points="1448.5,-56.5 1448.5,-86.5 1546.5,-86.5 1546.5,-56.5 1448.5,-56.5"/>
<text text-anchor="start" x="1456.5" y="-74.5" font-family="Helvetica,sans-Serif" font-size="10.00">tvm/ffi/reflection</text>
<text text-anchor="middle" x="1497.5" y="-63.5" font-family="Helvetica,sans-Serif" font-size="10.00">/registry.h</text>
</a>
</g>
</g>
<!-- Node1&#45;&gt;Node2 -->
<g id="edge1" class="edge">
<title>Node1&#45;&gt;Node2</title>
<path fill="none" stroke="midnightblue" d="M893.66,-369.32C1055.06,-358.81 1535.5,-322.04 1535.5,-257 1535.5,-257 1535.5,-257 1535.5,-193.5 1535.5,-158.24 1520.63,-119.75 1509.5,-95.87"/>
<polygon fill="midnightblue" stroke="midnightblue" points="1512.51,-94.06 1505.01,-86.58 1506.21,-97.1 1512.51,-94.06"/>
</g>
<!-- Node3 -->
<g id="node3" class="node">
<title>Node3</title>
<g id="a_node3"><a xlink:href="ir_2expr_8h.html" target="_top" xlink:title="Base expr nodes in TVM.">
<polygon fill="white" stroke="black" points="802,-185 802,-204 881,-204 881,-185 802,-185"/>
<text text-anchor="middle" x="841.5" y="-192" font-family="Helvetica,sans-Serif" font-size="10.00">tvm/ir/expr.h</text>
</a>
</g>
</g>
<!-- Node1&#45;&gt;Node3 -->
<g id="edge2" class="edge">
<title>Node1&#45;&gt;Node3</title>
<path fill="none" stroke="midnightblue" d="M841.5,-358.31C841.5,-326.63 841.5,-250.11 841.5,-214.42"/>
<polygon fill="midnightblue" stroke="midnightblue" points="845,-214.37 841.5,-204.37 838,-214.37 845,-214.37"/>
</g>
<!-- Node16 -->
<g id="node16" class="node">
<title>Node16</title>
<g id="a_node16"><a xlink:title=" ">
<polygon fill="white" stroke="#bfbfbf" points="1092,-62 1092,-81 1139,-81 1139,-62 1092,-62"/>
<text text-anchor="middle" x="1115.5" y="-69" font-family="Helvetica,sans-Serif" font-size="10.00">vector</text>
</a>
</g>
</g>
<!-- Node1&#45;&gt;Node16 -->
<g id="edge57" class="edge">
<title>Node1&#45;&gt;Node16</title>
<path fill="none" stroke="midnightblue" d="M893.66,-368.25C1042.65,-355.41 1459.5,-314.37 1459.5,-257 1459.5,-257 1459.5,-257 1459.5,-193.5 1459.5,-140.92 1412.89,-143.56 1364.5,-123 1274.93,-84.94 1241.77,-114.79 1148.5,-87 1146.36,-86.36 1144.17,-85.62 1141.99,-84.81"/>
<polygon fill="midnightblue" stroke="midnightblue" points="1143.25,-81.54 1132.66,-81.01 1140.6,-88.03 1143.25,-81.54"/>
</g>
<!-- Node26 -->
<g id="node26" class="node">
<title>Node26</title>
<g id="a_node26"><a xlink:href="ir_2function_8h.html" target="_top" xlink:title="Function nodes.">
<polygon fill="white" stroke="black" points="522.5,-302.5 522.5,-321.5 620.5,-321.5 620.5,-302.5 522.5,-302.5"/>
<text text-anchor="middle" x="571.5" y="-309.5" font-family="Helvetica,sans-Serif" font-size="10.00">tvm/ir/function.h</text>
</a>
</g>
</g>
<!-- Node1&#45;&gt;Node26 -->
<g id="edge32" class="edge">
<title>Node1&#45;&gt;Node26</title>
<path fill="none" stroke="midnightblue" d="M789.44,-361.03C740.51,-350.25 667.85,-334.23 620.09,-323.71"/>
<polygon fill="midnightblue" stroke="midnightblue" points="620.81,-320.28 610.29,-321.55 619.3,-327.12 620.81,-320.28"/>
</g>
<!-- Node32 -->
<g id="node32" class="node">
<title>Node32</title>
<g id="a_node32"><a xlink:href="node__functor_8h.html" target="_top" xlink:title="Defines the Functor data structures.">
<polygon fill="white" stroke="black" points="322,-123.5 322,-142.5 443,-142.5 443,-123.5 322,-123.5"/>
<text text-anchor="middle" x="382.5" y="-130.5" font-family="Helvetica,sans-Serif" font-size="10.00">tvm/ir/node_functor.h</text>
</a>
</g>
</g>
<!-- Node1&#45;&gt;Node32 -->
<g id="edge51" class="edge">
<title>Node1&#45;&gt;Node32</title>
<path fill="none" stroke="midnightblue" d="M789.26,-369.44C708.65,-363.9 558.54,-350.08 513.5,-322 446.54,-280.25 404.7,-190.34 389.25,-151.96"/>
<polygon fill="midnightblue" stroke="midnightblue" points="392.49,-150.63 385.59,-142.58 385.97,-153.17 392.49,-150.63"/>
</g>
<!-- Node3&#45;&gt;Node2 -->
<g id="edge4" class="edge">
<title>Node3&#45;&gt;Node2</title>
<path fill="none" stroke="midnightblue" d="M866.16,-184.93C873.58,-182.66 881.8,-180.44 889.5,-179 1097.62,-140.16 1161.12,-201.82 1364.5,-143 1402.9,-131.89 1442.9,-108.89 1468.87,-92.17"/>
<polygon fill="midnightblue" stroke="midnightblue" points="1471,-94.96 1477.45,-86.55 1467.17,-89.1 1471,-94.96"/>
</g>
<!-- Node4 -->
<g id="node4" class="node">
<title>Node4</title>
<g id="a_node4"><a xlink:title=" ">
<polygon fill="white" stroke="#bfbfbf" points="683.5,-123.5 683.5,-142.5 819.5,-142.5 819.5,-123.5 683.5,-123.5"/>
<text text-anchor="middle" x="751.5" y="-130.5" font-family="Helvetica,sans-Serif" font-size="10.00">tvm/ffi/extra/dataclass.h</text>
</a>
</g>
</g>
<!-- Node3&#45;&gt;Node4 -->
<g id="edge3" class="edge">
<title>Node3&#45;&gt;Node4</title>
<path fill="none" stroke="midnightblue" d="M828.61,-184.98C814.04,-175.34 790.1,-159.52 772.75,-148.05"/>
<polygon fill="midnightblue" stroke="midnightblue" points="774.64,-145.1 764.37,-142.51 770.78,-150.94 774.64,-145.1"/>
</g>
<!-- Node5 -->
<g id="node5" class="node">
<title>Node5</title>
<g id="a_node5"><a xlink:title=" ">
<polygon fill="white" stroke="#bfbfbf" points="576,-123.5 576,-142.5 665,-142.5 665,-123.5 576,-123.5"/>
<text text-anchor="middle" x="620.5" y="-130.5" font-family="Helvetica,sans-Serif" font-size="10.00">tvm/ffi/string.h</text>
</a>
</g>
</g>
<!-- Node3&#45;&gt;Node5 -->
<g id="edge5" class="edge">
<title>Node3&#45;&gt;Node5</title>
<path fill="none" stroke="midnightblue" d="M809.84,-184.98C770.94,-174.5 704.86,-156.71 661.95,-145.16"/>
<polygon fill="midnightblue" stroke="midnightblue" points="662.67,-141.73 652.11,-142.51 660.85,-148.49 662.67,-141.73"/>
</g>
<!-- Node6 -->
<g id="node6" class="node">
<title>Node6</title>
<g id="a_node6"><a xlink:href="cow_8h.html" target="_top" xlink:title="Copy&#45;on&#45;write helper macro for IR ffi::ObjectRef types.">
<polygon fill="white" stroke="black" points="1278,-123.5 1278,-142.5 1355,-142.5 1355,-123.5 1278,-123.5"/>
<text text-anchor="middle" x="1316.5" y="-130.5" font-family="Helvetica,sans-Serif" font-size="10.00">tvm/ir/cow.h</text>
</a>
</g>
</g>
<!-- Node3&#45;&gt;Node6 -->
<g id="edge6" class="edge">
<title>Node3&#45;&gt;Node6</title>
<path fill="none" stroke="midnightblue" d="M866.68,-184.92C873.97,-182.7 881.99,-180.52 889.5,-179 891.81,-178.53 1156.19,-150.8 1267.74,-139.11"/>
<polygon fill="midnightblue" stroke="midnightblue" points="1268.14,-142.59 1277.72,-138.06 1267.41,-135.62 1268.14,-142.59"/>
</g>
<!-- Node9 -->
<g id="node9" class="node">
<title>Node9</title>
<g id="a_node9"><a xlink:href="source__map_8h.html" target="_top" xlink:title="A map from source names to source code.">
<polygon fill="white" stroke="black" points="1104,-123.5 1104,-142.5 1221,-142.5 1221,-123.5 1104,-123.5"/>
<text text-anchor="middle" x="1162.5" y="-130.5" font-family="Helvetica,sans-Serif" font-size="10.00">tvm/ir/source_map.h</text>
</a>
</g>
</g>
<!-- Node3&#45;&gt;Node9 -->
<g id="edge9" class="edge">
<title>Node3&#45;&gt;Node9</title>
<path fill="none" stroke="midnightblue" d="M867.49,-184.98C874.58,-182.84 882.29,-180.68 889.5,-179 927.55,-170.16 1027.45,-154.38 1095.25,-144.06"/>
<polygon fill="midnightblue" stroke="midnightblue" points="1096.07,-147.48 1105.43,-142.51 1095.01,-140.56 1096.07,-147.48"/>
</g>
<!-- Node15 -->
<g id="node15" class="node">
<title>Node15</title>
<g id="a_node15"><a xlink:title=" ">
<polygon fill="white" stroke="#bfbfbf" points="520.5,-62 520.5,-81 564.5,-81 564.5,-62 520.5,-62"/>
<text text-anchor="middle" x="542.5" y="-69" font-family="Helvetica,sans-Serif" font-size="10.00">string</text>
</a>
</g>
</g>
<!-- Node3&#45;&gt;Node15 -->
<g id="edge30" class="edge">
<title>Node3&#45;&gt;Node15</title>
<path fill="none" stroke="midnightblue" d="M861.09,-184.86C888.06,-171.83 931.07,-146.19 910.5,-123 866.1,-72.93 677.53,-97.89 611.5,-87 599.48,-85.02 586.38,-82.38 574.85,-79.91"/>
<polygon fill="midnightblue" stroke="midnightblue" points="575.3,-76.42 564.78,-77.7 573.8,-83.26 575.3,-76.42"/>
</g>
<!-- Node17 -->
<g id="node17" class="node">
<title>Node17</title>
<g id="a_node17"><a xlink:href="data__type_8h.html" target="_top" xlink:title=" ">
<polygon fill="white" stroke="black" points="165.5,-123.5 165.5,-142.5 303.5,-142.5 303.5,-123.5 165.5,-123.5"/>
<text text-anchor="middle" x="234.5" y="-130.5" font-family="Helvetica,sans-Serif" font-size="10.00">tvm/runtime/data_type.h</text>
</a>
</g>
</g>
<!-- Node3&#45;&gt;Node17 -->
<g id="edge19" class="edge">
<title>Node3&#45;&gt;Node17</title>
<path fill="none" stroke="midnightblue" d="M801.74,-186.57C785.57,-183.93 766.68,-181.06 749.5,-179 559.22,-156.2 508.12,-161.97 313.78,-143.09"/>
<polygon fill="midnightblue" stroke="midnightblue" points="314.1,-139.61 303.81,-142.12 313.42,-146.58 314.1,-139.61"/>
</g>
<!-- Node22 -->
<g id="node22" class="node">
<title>Node22</title>
<g id="a_node22"><a xlink:title=" ">
<polygon fill="white" stroke="#bfbfbf" points="0,-62 0,-81 69,-81 69,-62 0,-62"/>
<text text-anchor="middle" x="34.5" y="-69" font-family="Helvetica,sans-Serif" font-size="10.00">type_traits</text>
</a>
</g>
</g>
<!-- Node3&#45;&gt;Node22 -->
<g id="edge31" class="edge">
<title>Node3&#45;&gt;Node22</title>
<path fill="none" stroke="midnightblue" d="M801.76,-186.39C785.59,-183.71 766.7,-180.87 749.5,-179 618.26,-164.71 282.92,-181.04 156.5,-143 135.79,-136.77 85.46,-105.5 56.33,-86.76"/>
<polygon fill="midnightblue" stroke="midnightblue" points="57.98,-83.66 47.68,-81.16 54.18,-89.53 57.98,-83.66"/>
</g>
<!-- Node23 -->
<g id="node23" class="node">
<title>Node23</title>
<g id="a_node23"><a xlink:title=" ">
<polygon fill="white" stroke="#bfbfbf" points="837.5,-123.5 837.5,-142.5 901.5,-142.5 901.5,-123.5 837.5,-123.5"/>
<text text-anchor="middle" x="869.5" y="-130.5" font-family="Helvetica,sans-Serif" font-size="10.00">algorithm</text>
</a>
</g>
</g>
<!-- Node3&#45;&gt;Node23 -->
<g id="edge27" class="edge">
<title>Node3&#45;&gt;Node23</title>
<path fill="none" stroke="midnightblue" d="M845.51,-184.98C849.59,-176.32 856.02,-162.65 861.2,-151.65"/>
<polygon fill="midnightblue" stroke="midnightblue" points="864.4,-153.05 865.5,-142.51 858.07,-150.07 864.4,-153.05"/>
</g>
<!-- Node24 -->
<g id="node24" class="node">
<title>Node24</title>
<g id="a_node24"><a xlink:title=" ">
<polygon fill="white" stroke="#bfbfbf" points="958,-123.5 958,-142.5 1023,-142.5 1023,-123.5 958,-123.5"/>
<text text-anchor="middle" x="990.5" y="-130.5" font-family="Helvetica,sans-Serif" font-size="10.00">functional</text>
</a>
</g>
</g>
<!-- Node3&#45;&gt;Node24 -->
<g id="edge28" class="edge">
<title>Node3&#45;&gt;Node24</title>
<path fill="none" stroke="midnightblue" d="M862.85,-184.98C888.19,-174.86 930.64,-157.9 959.57,-146.35"/>
<polygon fill="midnightblue" stroke="midnightblue" points="961.2,-149.47 969.19,-142.51 958.61,-142.97 961.2,-149.47"/>
</g>
<!-- Node25 -->
<g id="node25" class="node">
<title>Node25</title>
<g id="a_node25"><a xlink:title=" ">
<polygon fill="white" stroke="#bfbfbf" points="1041.5,-123.5 1041.5,-142.5 1085.5,-142.5 1085.5,-123.5 1041.5,-123.5"/>
<text text-anchor="middle" x="1063.5" y="-130.5" font-family="Helvetica,sans-Serif" font-size="10.00">limits</text>
</a>
</g>
</g>
<!-- Node3&#45;&gt;Node25 -->
<g id="edge29" class="edge">
<title>Node3&#45;&gt;Node25</title>
<path fill="none" stroke="midnightblue" d="M868.85,-185C875.58,-182.97 882.79,-180.86 889.5,-179 949.7,-162.34 967.59,-160.3 1031.41,-143.22"/>
<polygon fill="midnightblue" stroke="midnightblue" points="1032.43,-146.57 1041.18,-140.59 1030.61,-139.81 1032.43,-146.57"/>
</g>
<!-- Node7 -->
<g id="node7" class="node">
<title>Node7</title>
<g id="a_node7"><a xlink:title=" ">
<polygon fill="white" stroke="#bfbfbf" points="1339,-62 1339,-81 1430,-81 1430,-62 1339,-62"/>
<text text-anchor="middle" x="1384.5" y="-69" font-family="Helvetica,sans-Serif" font-size="10.00">tvm/ffi/object.h</text>
</a>
</g>
</g>
<!-- Node6&#45;&gt;Node7 -->
<g id="edge7" class="edge">
<title>Node6&#45;&gt;Node7</title>
<path fill="none" stroke="midnightblue" d="M1326.24,-123.48C1336.85,-114.2 1354.02,-99.17 1366.98,-87.83"/>
<polygon fill="midnightblue" stroke="midnightblue" points="1369.55,-90.23 1374.78,-81.01 1364.94,-84.96 1369.55,-90.23"/>
</g>
<!-- Node8 -->
<g id="node8" class="node">
<title>Node8</title>
<g id="a_node8"><a xlink:title=" ">
<polygon fill="white" stroke="#bfbfbf" points="1157,-62 1157,-81 1202,-81 1202,-62 1157,-62"/>
<text text-anchor="middle" x="1179.5" y="-69" font-family="Helvetica,sans-Serif" font-size="10.00">utility</text>
</a>
</g>
</g>
<!-- Node6&#45;&gt;Node8 -->
<g id="edge8" class="edge">
<title>Node6&#45;&gt;Node8</title>
<path fill="none" stroke="midnightblue" d="M1296.32,-123.5C1275.14,-114.54 1240.9,-99.96 1211.5,-87 1210.31,-86.47 1209.09,-85.94 1207.86,-85.39"/>
<polygon fill="midnightblue" stroke="midnightblue" points="1208.98,-82.05 1198.42,-81.15 1206.11,-88.44 1208.98,-82.05"/>
</g>
<!-- Node9&#45;&gt;Node2 -->
<g id="edge12" class="edge">
<title>Node9&#45;&gt;Node2</title>
<path fill="none" stroke="midnightblue" d="M1221.12,-123.93C1275.17,-116.17 1357.81,-103.46 1438.39,-87.13"/>
<polygon fill="midnightblue" stroke="midnightblue" points="1439.11,-90.56 1448.2,-85.12 1437.7,-83.7 1439.11,-90.56"/>
</g>
<!-- Node9&#45;&gt;Node8 -->
<g id="edge17" class="edge">
<title>Node9&#45;&gt;Node8</title>
<path fill="none" stroke="midnightblue" d="M1164.94,-123.48C1167.36,-114.99 1171.16,-101.7 1174.27,-90.82"/>
<polygon fill="midnightblue" stroke="midnightblue" points="1177.69,-91.59 1177.07,-81.01 1170.96,-89.66 1177.69,-91.59"/>
</g>
<!-- Node10 -->
<g id="node10" class="node">
<title>Node10</title>
<g id="a_node10"><a xlink:title=" ">
<polygon fill="white" stroke="#bfbfbf" points="828.5,-62 828.5,-81 962.5,-81 962.5,-62 828.5,-62"/>
<text text-anchor="middle" x="895.5" y="-69" font-family="Helvetica,sans-Serif" font-size="10.00">tvm/ffi/container/array.h</text>
</a>
</g>
</g>
<!-- Node9&#45;&gt;Node10 -->
<g id="edge10" class="edge">
<title>Node9&#45;&gt;Node10</title>
<path fill="none" stroke="midnightblue" d="M1124.25,-123.48C1076.66,-112.87 995.39,-94.76 943.62,-83.22"/>
<polygon fill="midnightblue" stroke="midnightblue" points="944.21,-79.77 933.68,-81.01 942.68,-86.6 944.21,-79.77"/>
</g>
<!-- Node11 -->
<g id="node11" class="node">
<title>Node11</title>
<g id="a_node11"><a xlink:title=" ">
<polygon fill="white" stroke="#bfbfbf" points="1220,-62 1220,-81 1321,-81 1321,-62 1220,-62"/>
<text text-anchor="middle" x="1270.5" y="-69" font-family="Helvetica,sans-Serif" font-size="10.00">tvm/ffi/function.h</text>
</a>
</g>
</g>
<!-- Node9&#45;&gt;Node11 -->
<g id="edge11" class="edge">
<title>Node9&#45;&gt;Node11</title>
<path fill="none" stroke="midnightblue" d="M1177.97,-123.48C1195.78,-113.67 1225.24,-97.43 1246.13,-85.92"/>
<polygon fill="midnightblue" stroke="midnightblue" points="1247.99,-88.9 1255.05,-81.01 1244.61,-82.77 1247.99,-88.9"/>
</g>
<!-- Node12 -->
<g id="node12" class="node">
<title>Node12</title>
<g id="a_node12"><a xlink:href="runtime_2base_8h.html" target="_top" xlink:title=" ">
<polygon fill="white" stroke="black" points="621,-62 621,-81 734,-81 734,-62 621,-62"/>
<text text-anchor="middle" x="677.5" y="-69" font-family="Helvetica,sans-Serif" font-size="10.00">tvm/runtime/base.h</text>
</a>
</g>
</g>
<!-- Node9&#45;&gt;Node12 -->
<g id="edge13" class="edge">
<title>Node9&#45;&gt;Node12</title>
<path fill="none" stroke="midnightblue" d="M1103.9,-124.2C1100.72,-123.79 1097.57,-123.39 1094.5,-123 970.88,-107.33 826.5,-90.08 744.16,-80.34"/>
<polygon fill="midnightblue" stroke="midnightblue" points="744.52,-76.86 734.18,-79.16 743.7,-83.81 744.52,-76.86"/>
</g>
<!-- Node14 -->
<g id="node14" class="node">
<title>Node14</title>
<g id="a_node14"><a xlink:title=" ">
<polygon fill="white" stroke="#bfbfbf" points="1019,-62 1019,-81 1074,-81 1074,-62 1019,-62"/>
<text text-anchor="middle" x="1046.5" y="-69" font-family="Helvetica,sans-Serif" font-size="10.00">fstream</text>
</a>
</g>
</g>
<!-- Node9&#45;&gt;Node14 -->
<g id="edge15" class="edge">
<title>Node9&#45;&gt;Node14</title>
<path fill="none" stroke="midnightblue" d="M1145.88,-123.48C1126.58,-113.58 1094.54,-97.14 1072.07,-85.62"/>
<polygon fill="midnightblue" stroke="midnightblue" points="1073.58,-82.46 1063.09,-81.01 1070.39,-88.69 1073.58,-82.46"/>
</g>
<!-- Node9&#45;&gt;Node15 -->
<g id="edge16" class="edge">
<title>Node9&#45;&gt;Node15</title>
<path fill="none" stroke="midnightblue" d="M1103.92,-124.03C1100.74,-123.66 1097.58,-123.32 1094.5,-123 880.38,-100.87 824.63,-117.2 611.5,-87 599.44,-85.29 586.32,-82.72 574.8,-80.21"/>
<polygon fill="midnightblue" stroke="midnightblue" points="575.26,-76.73 564.74,-77.96 573.73,-83.56 575.26,-76.73"/>
</g>
<!-- Node9&#45;&gt;Node16 -->
<g id="edge18" class="edge">
<title>Node9&#45;&gt;Node16</title>
<path fill="none" stroke="midnightblue" d="M1155.77,-123.48C1148.72,-114.55 1137.47,-100.31 1128.65,-89.14"/>
<polygon fill="midnightblue" stroke="midnightblue" points="1131.17,-86.69 1122.22,-81.01 1125.67,-91.03 1131.17,-86.69"/>
</g>
<!-- Node13 -->
<g id="node13" class="node">
<title>Node13</title>
<g id="a_node13"><a xlink:title=" ">
<polygon fill="white" stroke="#bfbfbf" points="634.5,-0.5 634.5,-19.5 720.5,-19.5 720.5,-0.5 634.5,-0.5"/>
<text text-anchor="middle" x="677.5" y="-7.5" font-family="Helvetica,sans-Serif" font-size="10.00">tvm/ffi/c_api.h</text>
</a>
</g>
</g>
<!-- Node12&#45;&gt;Node13 -->
<g id="edge14" class="edge">
<title>Node12&#45;&gt;Node13</title>
<path fill="none" stroke="midnightblue" d="M677.5,-61.98C677.5,-53.58 677.5,-40.48 677.5,-29.66"/>
<polygon fill="midnightblue" stroke="midnightblue" points="681,-29.51 677.5,-19.51 674,-29.51 681,-29.51"/>
</g>
<!-- Node17&#45;&gt;Node12 -->
<g id="edge23" class="edge">
<title>Node17&#45;&gt;Node12</title>
<path fill="none" stroke="midnightblue" d="M299.51,-123.5C367.76,-114.54 478.2,-99.97 573.5,-87 585.5,-85.37 598.27,-83.61 610.6,-81.89"/>
<polygon fill="midnightblue" stroke="midnightblue" points="611.41,-85.31 620.83,-80.47 610.45,-78.38 611.41,-85.31"/>
</g>
<!-- Node17&#45;&gt;Node15 -->
<g id="edge25" class="edge">
<title>Node17&#45;&gt;Node15</title>
<path fill="none" stroke="midnightblue" d="M300.06,-123.48C369.12,-114.12 473.09,-98.85 511.5,-87 513.37,-86.42 515.28,-85.75 517.18,-85.02"/>
<polygon fill="midnightblue" stroke="midnightblue" points="518.62,-88.21 526.43,-81.05 515.86,-81.78 518.62,-88.21"/>
</g>
<!-- Node18 -->
<g id="node18" class="node">
<title>Node18</title>
<g id="a_node18"><a xlink:title=" ">
<polygon fill="white" stroke="#bfbfbf" points="194,-62 194,-81 333,-81 333,-62 194,-62"/>
<text text-anchor="middle" x="263.5" y="-69" font-family="Helvetica,sans-Serif" font-size="10.00">tvm/ffi/container/shape.h</text>
</a>
</g>
</g>
<!-- Node17&#45;&gt;Node18 -->
<g id="edge20" class="edge">
<title>Node17&#45;&gt;Node18</title>
<path fill="none" stroke="midnightblue" d="M238.65,-123.48C242.88,-114.82 249.54,-101.15 254.9,-90.15"/>
<polygon fill="midnightblue" stroke="midnightblue" points="258.12,-91.53 259.35,-81.01 251.83,-88.46 258.12,-91.53"/>
</g>
<!-- Node19 -->
<g id="node19" class="node">
<title>Node19</title>
<g id="a_node19"><a xlink:title=" ">
<polygon fill="white" stroke="#bfbfbf" points="87,-62 87,-81 176,-81 176,-62 87,-62"/>
<text text-anchor="middle" x="131.5" y="-69" font-family="Helvetica,sans-Serif" font-size="10.00">tvm/ffi/dtype.h</text>
</a>
</g>
</g>
<!-- Node17&#45;&gt;Node19 -->
<g id="edge21" class="edge">
<title>Node17&#45;&gt;Node19</title>
<path fill="none" stroke="midnightblue" d="M219.74,-123.48C202.84,-113.71 174.92,-97.58 155.01,-86.08"/>
<polygon fill="midnightblue" stroke="midnightblue" points="156.64,-82.98 146.23,-81.01 153.14,-89.04 156.64,-82.98"/>
</g>
<!-- Node20 -->
<g id="node20" class="node">
<title>Node20</title>
<g id="a_node20"><a xlink:title=" ">
<polygon fill="white" stroke="#bfbfbf" points="351,-62 351,-81 434,-81 434,-62 351,-62"/>
<text text-anchor="middle" x="392.5" y="-69" font-family="Helvetica,sans-Serif" font-size="10.00">tvm/ffi/error.h</text>
</a>
</g>
</g>
<!-- Node17&#45;&gt;Node20 -->
<g id="edge22" class="edge">
<title>Node17&#45;&gt;Node20</title>
<path fill="none" stroke="midnightblue" d="M257.14,-123.48C284.24,-113.27 329.81,-96.11 360.5,-84.55"/>
<polygon fill="midnightblue" stroke="midnightblue" points="361.78,-87.81 369.9,-81.01 359.31,-81.26 361.78,-87.81"/>
</g>
<!-- Node21 -->
<g id="node21" class="node">
<title>Node21</title>
<g id="a_node21"><a xlink:title=" ">
<polygon fill="white" stroke="#bfbfbf" points="452.5,-62 452.5,-81 502.5,-81 502.5,-62 452.5,-62"/>
<text text-anchor="middle" x="477.5" y="-69" font-family="Helvetica,sans-Serif" font-size="10.00">cstring</text>
</a>
</g>
</g>
<!-- Node17&#45;&gt;Node21 -->
<g id="edge24" class="edge">
<title>Node17&#45;&gt;Node21</title>
<path fill="none" stroke="midnightblue" d="M286.46,-123.44C328.94,-115.8 390.31,-103.31 442.5,-87 444.64,-86.33 446.84,-85.58 449.03,-84.79"/>
<polygon fill="midnightblue" stroke="midnightblue" points="450.42,-88 458.47,-81.11 447.88,-81.48 450.42,-88"/>
</g>
<!-- Node17&#45;&gt;Node22 -->
<g id="edge26" class="edge">
<title>Node17&#45;&gt;Node22</title>
<path fill="none" stroke="midnightblue" d="M203.1,-123.46C171.31,-114.7 120.81,-100.5 77.5,-87 74.75,-86.14 71.91,-85.23 69.06,-84.31"/>
<polygon fill="midnightblue" stroke="midnightblue" points="70.04,-80.95 59.45,-81.13 67.84,-87.59 70.04,-80.95"/>
</g>
<!-- Node26&#45;&gt;Node3 -->
<g id="edge48" class="edge">
<title>Node26&#45;&gt;Node3</title>
<path fill="none" stroke="midnightblue" d="M591.79,-302.32C639.11,-282.08 756.92,-231.68 812.1,-208.07"/>
<polygon fill="midnightblue" stroke="midnightblue" points="813.52,-211.28 821.34,-204.12 810.77,-204.84 813.52,-211.28"/>
</g>
<!-- Node26&#45;&gt;Node5 -->
<g id="edge35" class="edge">
<title>Node26&#45;&gt;Node5</title>
<path fill="none" stroke="midnightblue" d="M568.61,-302.44C561.76,-280.61 546.56,-221.57 566.5,-179 572.54,-166.09 584.31,-155.6 595.32,-148"/>
<polygon fill="midnightblue" stroke="midnightblue" points="597.33,-150.87 603.87,-142.54 593.56,-144.97 597.33,-150.87"/>
</g>
<!-- Node26&#45;&gt;Node10 -->
<g id="edge33" class="edge">
<title>Node26&#45;&gt;Node10</title>
<path fill="none" stroke="midnightblue" d="M567.41,-302.21C554.02,-271.96 515.19,-171.38 566.5,-123 584.58,-105.95 726.96,-89.01 818.4,-79.73"/>
<polygon fill="midnightblue" stroke="midnightblue" points="818.86,-83.2 828.46,-78.72 818.16,-76.24 818.86,-83.2"/>
</g>
<!-- Node26&#45;&gt;Node15 -->
<g id="edge49" class="edge">
<title>Node26&#45;&gt;Node15</title>
<path fill="none" stroke="midnightblue" d="M543.48,-302.4C526.33,-295.51 505.75,-283.98 495.5,-266 462.01,-207.25 507.14,-125.31 530.3,-89.92"/>
<polygon fill="midnightblue" stroke="midnightblue" points="533.47,-91.47 536.16,-81.23 527.67,-87.56 533.47,-91.47"/>
</g>
<!-- Node26&#45;&gt;Node22 -->
<g id="edge50" class="edge">
<title>Node26&#45;&gt;Node22</title>
<path fill="none" stroke="midnightblue" d="M522.2,-305.29C427.09,-292.08 215.58,-251.74 78.5,-143 61.07,-129.17 48.67,-106.42 41.57,-90.51"/>
<polygon fill="midnightblue" stroke="midnightblue" points="44.76,-89.08 37.67,-81.21 38.31,-91.79 44.76,-89.08"/>
</g>
<!-- Node27 -->
<g id="node27" class="node">
<title>Node27</title>
<g id="a_node27"><a xlink:title=" ">
<polygon fill="white" stroke="#bfbfbf" points="576,-185 576,-204 707,-204 707,-185 576,-185"/>
<text text-anchor="middle" x="641.5" y="-192" font-family="Helvetica,sans-Serif" font-size="10.00">tvm/ffi/container/map.h</text>
</a>
</g>
</g>
<!-- Node26&#45;&gt;Node27 -->
<g id="edge34" class="edge">
<title>Node26&#45;&gt;Node27</title>
<path fill="none" stroke="midnightblue" d="M576.76,-302.32C588.21,-283.42 615.59,-238.25 630.82,-213.12"/>
<polygon fill="midnightblue" stroke="midnightblue" points="633.99,-214.65 636.18,-204.28 628,-211.02 633.99,-214.65"/>
</g>
<!-- Node28 -->
<g id="node28" class="node">
<title>Node28</title>
<g id="a_node28"><a xlink:href="attrs_8h.html" target="_top" xlink:title="Helpers for attribute objects.">
<polygon fill="white" stroke="black" points="995.5,-246.5 995.5,-265.5 1075.5,-265.5 1075.5,-246.5 995.5,-246.5"/>
<text text-anchor="middle" x="1035.5" y="-253.5" font-family="Helvetica,sans-Serif" font-size="10.00">tvm/ir/attrs.h</text>
</a>
</g>
</g>
<!-- Node26&#45;&gt;Node28 -->
<g id="edge36" class="edge">
<title>Node26&#45;&gt;Node28</title>
<path fill="none" stroke="midnightblue" d="M620.72,-305.27C709.56,-294.93 895.79,-273.26 985.33,-262.84"/>
<polygon fill="midnightblue" stroke="midnightblue" points="985.97,-266.29 995.5,-261.66 985.16,-259.34 985.97,-266.29"/>
</g>
<!-- Node28&#45;&gt;Node2 -->
<g id="edge41" class="edge">
<title>Node28&#45;&gt;Node2</title>
<path fill="none" stroke="midnightblue" d="M1075.61,-252.97C1152.85,-248.51 1319.03,-236.12 1369.5,-210 1421.17,-183.26 1462.98,-127.02 1483.59,-95.38"/>
<polygon fill="midnightblue" stroke="midnightblue" points="1486.64,-97.09 1489.06,-86.78 1480.74,-93.34 1486.64,-97.09"/>
</g>
<!-- Node28&#45;&gt;Node3 -->
<g id="edge43" class="edge">
<title>Node28&#45;&gt;Node3</title>
<path fill="none" stroke="midnightblue" d="M1007.7,-246.48C973.85,-236.09 916.53,-218.51 878.85,-206.95"/>
<polygon fill="midnightblue" stroke="midnightblue" points="879.83,-203.6 869.24,-204.01 877.78,-210.29 879.83,-203.6"/>
</g>
<!-- Node28&#45;&gt;Node6 -->
<g id="edge42" class="edge">
<title>Node28&#45;&gt;Node6</title>
<path fill="none" stroke="midnightblue" d="M1075.55,-254.9C1147.23,-253.77 1292.92,-246.88 1324.5,-210 1338.08,-194.14 1331.94,-169.07 1325.2,-152.1"/>
<polygon fill="midnightblue" stroke="midnightblue" points="1328.31,-150.48 1321.09,-142.73 1321.9,-153.3 1328.31,-150.48"/>
</g>
<!-- Node28&#45;&gt;Node8 -->
<g id="edge47" class="edge">
<title>Node28&#45;&gt;Node8</title>
<path fill="none" stroke="midnightblue" d="M1075.62,-253.99C1140.61,-251.41 1264.41,-242.27 1291.5,-210 1300.36,-199.45 1296.93,-191.66 1291.5,-179 1273.63,-137.35 1230.59,-104.3 1203.36,-86.63"/>
<polygon fill="midnightblue" stroke="midnightblue" points="1205.13,-83.6 1194.8,-81.24 1201.4,-89.53 1205.13,-83.6"/>
</g>
<!-- Node28&#45;&gt;Node11 -->
<g id="edge40" class="edge">
<title>Node28&#45;&gt;Node11</title>
<path fill="none" stroke="midnightblue" d="M1075.76,-254.22C1149.63,-251.98 1302.88,-243.34 1342.5,-210 1373.02,-184.32 1384.97,-157.23 1364.5,-123 1353.44,-104.5 1333.02,-92.39 1314.03,-84.67"/>
<polygon fill="midnightblue" stroke="midnightblue" points="1315.17,-81.36 1304.58,-81.13 1312.71,-87.92 1315.17,-81.36"/>
</g>
<!-- Node28&#45;&gt;Node15 -->
<g id="edge44" class="edge">
<title>Node28&#45;&gt;Node15</title>
<path fill="none" stroke="midnightblue" d="M995.23,-252.95C945.72,-249.22 859.96,-238.83 792.5,-210 770.84,-200.74 771.11,-188.38 749.5,-179 673.46,-146 628.9,-197.56 566.5,-143 551.78,-130.13 546.07,-107.85 543.87,-91.78"/>
<polygon fill="midnightblue" stroke="midnightblue" points="547.31,-90.98 542.81,-81.39 540.34,-91.7 547.31,-90.98"/>
</g>
<!-- Node28&#45;&gt;Node22 -->
<g id="edge45" class="edge">
<title>Node28&#45;&gt;Node22</title>
<path fill="none" stroke="midnightblue" d="M995.46,-255.81C938.12,-255.43 830.61,-248.95 749.5,-210 731.07,-201.15 734.34,-186.95 715.5,-179 468.57,-74.75 360.98,-245.94 113.5,-143 85.89,-131.52 61.48,-106.17 47.34,-89.21"/>
<polygon fill="midnightblue" stroke="midnightblue" points="49.91,-86.82 40.92,-81.22 44.46,-91.21 49.91,-86.82"/>
</g>
<!-- Node28&#45;&gt;Node27 -->
<g id="edge37" class="edge">
<title>Node28&#45;&gt;Node27</title>
<path fill="none" stroke="midnightblue" d="M995.28,-249.72C935.48,-241.76 819.62,-225.92 721.5,-210 713.58,-208.71 705.22,-207.28 697.03,-205.84"/>
<polygon fill="midnightblue" stroke="midnightblue" points="697.6,-202.38 687.14,-204.07 696.37,-209.28 697.6,-202.38"/>
</g>
<!-- Node29 -->
<g id="node29" class="node">
<title>Node29</title>
<g id="a_node29"><a xlink:title=" ">
<polygon fill="white" stroke="#bfbfbf" points="899,-179.5 899,-209.5 1026,-209.5 1026,-179.5 899,-179.5"/>
<text text-anchor="start" x="907" y="-197.5" font-family="Helvetica,sans-Serif" font-size="10.00">tvm/ffi/extra/structural</text>
<text text-anchor="middle" x="962.5" y="-186.5" font-family="Helvetica,sans-Serif" font-size="10.00">_equal.h</text>
</a>
</g>
</g>
<!-- Node28&#45;&gt;Node29 -->
<g id="edge38" class="edge">
<title>Node28&#45;&gt;Node29</title>
<path fill="none" stroke="midnightblue" d="M1025.04,-246.48C1015.34,-238.57 1000.51,-226.48 987.73,-216.07"/>
<polygon fill="midnightblue" stroke="midnightblue" points="989.67,-213.13 979.7,-209.52 985.24,-218.55 989.67,-213.13"/>
</g>
<!-- Node30 -->
<g id="node30" class="node">
<title>Node30</title>
<g id="a_node30"><a xlink:title=" ">
<polygon fill="white" stroke="#bfbfbf" points="1044,-179.5 1044,-209.5 1171,-209.5 1171,-179.5 1044,-179.5"/>
<text text-anchor="start" x="1052" y="-197.5" font-family="Helvetica,sans-Serif" font-size="10.00">tvm/ffi/extra/structural</text>
<text text-anchor="middle" x="1107.5" y="-186.5" font-family="Helvetica,sans-Serif" font-size="10.00">_hash.h</text>
</a>
</g>
</g>
<!-- Node28&#45;&gt;Node30 -->
<g id="edge39" class="edge">
<title>Node28&#45;&gt;Node30</title>
<path fill="none" stroke="midnightblue" d="M1045.82,-246.48C1055.38,-238.57 1070.01,-226.48 1082.61,-216.07"/>
<polygon fill="midnightblue" stroke="midnightblue" points="1085.05,-218.59 1090.53,-209.52 1080.59,-213.2 1085.05,-218.59"/>
</g>
<!-- Node31 -->
<g id="node31" class="node">
<title>Node31</title>
<g id="a_node31"><a xlink:title=" ">
<polygon fill="white" stroke="#bfbfbf" points="1189,-185 1189,-204 1282,-204 1282,-185 1189,-185"/>
<text text-anchor="middle" x="1235.5" y="-192" font-family="Helvetica,sans-Serif" font-size="10.00">unordered_map</text>
</a>
</g>
</g>
<!-- Node28&#45;&gt;Node31 -->
<g id="edge46" class="edge">
<title>Node28&#45;&gt;Node31</title>
<path fill="none" stroke="midnightblue" d="M1064.16,-246.48C1099.06,-236.09 1158.15,-218.51 1197,-206.95"/>
<polygon fill="midnightblue" stroke="midnightblue" points="1198.31,-210.22 1206.9,-204.01 1196.32,-203.51 1198.31,-210.22"/>
</g>
<!-- Node32&#45;&gt;Node8 -->
<g id="edge55" class="edge">
<title>Node32&#45;&gt;Node8</title>
<path fill="none" stroke="midnightblue" d="M443.27,-129.06C618.51,-120.49 1114.52,-95.61 1148.5,-87 1150.49,-86.5 1152.5,-85.87 1154.5,-85.15"/>
<polygon fill="midnightblue" stroke="midnightblue" points="1156.3,-88.19 1164.16,-81.08 1153.58,-81.74 1156.3,-88.19"/>
</g>
<!-- Node32&#45;&gt;Node16 -->
<g id="edge56" class="edge">
<title>Node32&#45;&gt;Node16</title>
<path fill="none" stroke="midnightblue" d="M443.06,-128.71C607.59,-119.68 1052.68,-94.7 1083.5,-87 1085.71,-86.45 1087.96,-85.75 1090.19,-84.95"/>
<polygon fill="midnightblue" stroke="midnightblue" points="1091.72,-88.11 1099.63,-81.05 1089.05,-81.64 1091.72,-88.11"/>
</g>
<!-- Node32&#45;&gt;Node20 -->
<g id="edge52" class="edge">
<title>Node32&#45;&gt;Node20</title>
<path fill="none" stroke="midnightblue" d="M383.93,-123.48C385.34,-115.08 387.55,-101.98 389.36,-91.16"/>
<polygon fill="midnightblue" stroke="midnightblue" points="392.86,-91.45 391.07,-81.01 385.96,-90.29 392.86,-91.45"/>
</g>
<!-- Node32&#45;&gt;Node21 -->
<g id="edge53" class="edge">
<title>Node32&#45;&gt;Node21</title>
<path fill="none" stroke="midnightblue" d="M396.11,-123.48C411.56,-113.8 436.99,-97.87 455.32,-86.39"/>
<polygon fill="midnightblue" stroke="midnightblue" points="457.3,-89.28 463.91,-81.01 453.58,-83.35 457.3,-89.28"/>
</g>
<!-- Node32&#45;&gt;Node22 -->
<g id="edge54" class="edge">
<title>Node32&#45;&gt;Node22</title>
<path fill="none" stroke="midnightblue" d="M321.95,-123.66C239.85,-112.26 100.72,-92.58 77.5,-87 74.1,-86.18 70.59,-85.22 67.11,-84.17"/>
<polygon fill="midnightblue" stroke="midnightblue" points="68.08,-80.81 57.49,-81.1 65.95,-87.47 68.08,-80.81"/>
</g>
</g>
</svg>
