<?xml version="1.0" encoding="UTF-8" standalone="no"?>
<!DOCTYPE svg PUBLIC "-//W3C//DTD SVG 1.1//EN"
 "http://www.w3.org/Graphics/SVG/1.1/DTD/svg11.dtd">
<!-- Generated by graphviz version 2.43.0 (0)
 -->
<!-- Title: include/tvm/script/ir_builder/base.h Pages: 1 -->
<svg width="2133pt" height="397pt"
 viewBox="0.00 0.00 2132.50 397.00" xmlns="http://www.w3.org/2000/svg" xmlns:xlink="http://www.w3.org/1999/xlink">
<g id="graph0" class="graph" transform="scale(1 1) rotate(0) translate(4 393)">
<title>include/tvm/script/ir_builder/base.h</title>
<polygon fill="white" stroke="transparent" points="-4,4 -4,-393 2128.5,-393 2128.5,4 -4,4"/>
<!-- Node1 -->
<g id="node1" class="node">
<title>Node1</title>
<g id="a_node1"><a xlink:title=" ">
<polygon fill="#bfbfbf" stroke="black" points="815.5,-358.5 815.5,-388.5 919.5,-388.5 919.5,-358.5 815.5,-358.5"/>
<text text-anchor="start" x="823.5" y="-376.5" font-family="Helvetica,sans-Serif" font-size="10.00">include/tvm/script</text>
<text text-anchor="middle" x="867.5" y="-365.5" font-family="Helvetica,sans-Serif" font-size="10.00">/ir_builder/base.h</text>
</a>
</g>
</g>
<!-- Node2 -->
<g id="node2" class="node">
<title>Node2</title>
<g id="a_node2"><a xlink:title=" ">
<polygon fill="white" stroke="#bfbfbf" points="2001.5,-56.5 2001.5,-86.5 2099.5,-86.5 2099.5,-56.5 2001.5,-56.5"/>
<text text-anchor="start" x="2009.5" y="-74.5" font-family="Helvetica,sans-Serif" font-size="10.00">tvm/ffi/reflection</text>
<text text-anchor="middle" x="2050.5" y="-63.5" font-family="Helvetica,sans-Serif" font-size="10.00">/registry.h</text>
</a>
</g>
</g>
<!-- Node1&#45;&gt;Node2 -->
<g id="edge1" class="edge">
<title>Node1&#45;&gt;Node2</title>
<path fill="none" stroke="midnightblue" d="M919.71,-371.89C1059.23,-369.76 1452.2,-360.53 1776.5,-322 1932.74,-303.44 2124.5,-414.34 2124.5,-257 2124.5,-257 2124.5,-257 2124.5,-193.5 2124.5,-154.07 2095.55,-116.63 2073.86,-94.11"/>
<polygon fill="midnightblue" stroke="midnightblue" points="2076.1,-91.4 2066.56,-86.79 2071.14,-96.34 2076.1,-91.4"/>
</g>
<!-- Node3 -->
<g id="node3" class="node">
<title>Node3</title>
<g id="a_node3"><a xlink:href="cast_8h.html" target="_top" xlink:title="Value casting helpers.">
<polygon fill="white" stroke="black" points="319.5,-123.5 319.5,-142.5 397.5,-142.5 397.5,-123.5 319.5,-123.5"/>
<text text-anchor="middle" x="358.5" y="-130.5" font-family="Helvetica,sans-Serif" font-size="10.00">tvm/ir/cast.h</text>
</a>
</g>
</g>
<!-- Node1&#45;&gt;Node3 -->
<g id="edge2" class="edge">
<title>Node1&#45;&gt;Node3</title>
<path fill="none" stroke="midnightblue" d="M815.34,-369.92C728.55,-364.86 558.92,-351.44 507.5,-322 435.81,-280.95 385.76,-190.65 366.86,-152.06"/>
<polygon fill="midnightblue" stroke="midnightblue" points="369.82,-150.15 362.36,-142.63 363.51,-153.17 369.82,-150.15"/>
</g>
<!-- Node11 -->
<g id="node11" class="node">
<title>Node11</title>
<g id="a_node11"><a xlink:href="ir_2expr_8h.html" target="_top" xlink:title="Base expr nodes in TVM.">
<polygon fill="white" stroke="black" points="1116,-185 1116,-204 1195,-204 1195,-185 1116,-185"/>
<text text-anchor="middle" x="1155.5" y="-192" font-family="Helvetica,sans-Serif" font-size="10.00">tvm/ir/expr.h</text>
</a>
</g>
</g>
<!-- Node1&#45;&gt;Node11 -->
<g id="edge10" class="edge">
<title>Node1&#45;&gt;Node11</title>
<path fill="none" stroke="midnightblue" d="M890.58,-358.31C944.6,-325.12 1078.74,-242.68 1132.59,-209.58"/>
<polygon fill="midnightblue" stroke="midnightblue" points="1134.7,-212.39 1141.39,-204.17 1131.03,-206.43 1134.7,-212.39"/>
</g>
<!-- Node22 -->
<g id="node22" class="node">
<title>Node22</title>
<g id="a_node22"><a xlink:title=" ">
<polygon fill="white" stroke="#bfbfbf" points="693,-62 693,-81 740,-81 740,-62 693,-62"/>
<text text-anchor="middle" x="716.5" y="-69" font-family="Helvetica,sans-Serif" font-size="10.00">vector</text>
</a>
</g>
</g>
<!-- Node1&#45;&gt;Node22 -->
<g id="edge66" class="edge">
<title>Node1&#45;&gt;Node22</title>
<path fill="none" stroke="midnightblue" d="M815.33,-366.11C718.67,-352.82 521.5,-318.19 521.5,-257 521.5,-257 521.5,-257 521.5,-193.5 521.5,-161.05 517.36,-145.75 540.5,-123 587.23,-77.04 621.5,-108.26 683.5,-87 685.36,-86.36 687.27,-85.66 689.18,-84.92"/>
<polygon fill="midnightblue" stroke="midnightblue" points="690.66,-88.09 698.56,-81.03 687.98,-81.63 690.66,-88.09"/>
</g>
<!-- Node30 -->
<g id="node30" class="node">
<title>Node30</title>
<g id="a_node30"><a xlink:href="ir_2function_8h.html" target="_top" xlink:title="Function nodes.">
<polygon fill="white" stroke="black" points="1669.5,-302.5 1669.5,-321.5 1767.5,-321.5 1767.5,-302.5 1669.5,-302.5"/>
<text text-anchor="middle" x="1718.5" y="-309.5" font-family="Helvetica,sans-Serif" font-size="10.00">tvm/ir/function.h</text>
</a>
</g>
</g>
<!-- Node1&#45;&gt;Node30 -->
<g id="edge41" class="edge">
<title>Node1&#45;&gt;Node30</title>
<path fill="none" stroke="midnightblue" d="M919.77,-368.85C1069.81,-358.36 1501.16,-328.2 1659.39,-317.13"/>
<polygon fill="midnightblue" stroke="midnightblue" points="1659.68,-320.62 1669.41,-316.43 1659.19,-313.64 1659.68,-320.62"/>
</g>
<!-- Node36 -->
<g id="node36" class="node">
<title>Node36</title>
<g id="a_node36"><a xlink:href="node__functor_8h.html" target="_top" xlink:title="Defines the Functor data structures.">
<polygon fill="white" stroke="black" points="550,-123.5 550,-142.5 671,-142.5 671,-123.5 550,-123.5"/>
<text text-anchor="middle" x="610.5" y="-130.5" font-family="Helvetica,sans-Serif" font-size="10.00">tvm/ir/node_functor.h</text>
</a>
</g>
</g>
<!-- Node1&#45;&gt;Node36 -->
<g id="edge60" class="edge">
<title>Node1&#45;&gt;Node36</title>
<path fill="none" stroke="midnightblue" d="M852.19,-358.29C807.03,-316.39 674.57,-193.46 627.41,-149.69"/>
<polygon fill="midnightblue" stroke="midnightblue" points="629.59,-146.94 619.88,-142.7 624.83,-152.07 629.59,-146.94"/>
</g>
<!-- Node4 -->
<g id="node4" class="node">
<title>Node4</title>
<g id="a_node4"><a xlink:title=" ">
<polygon fill="white" stroke="#bfbfbf" points="218,-62 218,-81 295,-81 295,-62 218,-62"/>
<text text-anchor="middle" x="256.5" y="-69" font-family="Helvetica,sans-Serif" font-size="10.00">tvm/ffi/any.h</text>
</a>
</g>
</g>
<!-- Node3&#45;&gt;Node4 -->
<g id="edge3" class="edge">
<title>Node3&#45;&gt;Node4</title>
<path fill="none" stroke="midnightblue" d="M343.89,-123.48C327.15,-113.71 299.5,-97.58 279.78,-86.08"/>
<polygon fill="midnightblue" stroke="midnightblue" points="281.49,-83.02 271.09,-81.01 277.96,-89.07 281.49,-83.02"/>
</g>
<!-- Node5 -->
<g id="node5" class="node">
<title>Node5</title>
<g id="a_node5"><a xlink:title=" ">
<polygon fill="white" stroke="#bfbfbf" points="0,-62 0,-81 81,-81 81,-62 0,-62"/>
<text text-anchor="middle" x="40.5" y="-69" font-family="Helvetica,sans-Serif" font-size="10.00">tvm/ffi/cast.h</text>
</a>
</g>
</g>
<!-- Node3&#45;&gt;Node5 -->
<g id="edge4" class="edge">
<title>Node3&#45;&gt;Node5</title>
<path fill="none" stroke="midnightblue" d="M319.45,-126.99C266.85,-119.9 170.47,-105.68 89.5,-87 85.42,-86.06 81.17,-84.97 76.96,-83.82"/>
<polygon fill="midnightblue" stroke="midnightblue" points="77.88,-80.44 67.3,-81.07 75.96,-87.18 77.88,-80.44"/>
</g>
<!-- Node6 -->
<g id="node6" class="node">
<title>Node6</title>
<g id="a_node6"><a xlink:title=" ">
<polygon fill="white" stroke="#bfbfbf" points="523,-62 523,-81 612,-81 612,-62 523,-62"/>
<text text-anchor="middle" x="567.5" y="-69" font-family="Helvetica,sans-Serif" font-size="10.00">tvm/ffi/dtype.h</text>
</a>
</g>
</g>
<!-- Node3&#45;&gt;Node6 -->
<g id="edge5" class="edge">
<title>Node3&#45;&gt;Node6</title>
<path fill="none" stroke="midnightblue" d="M388.44,-123.48C425.07,-113.05 487.2,-95.36 527.78,-83.81"/>
<polygon fill="midnightblue" stroke="midnightblue" points="528.95,-87.11 537.61,-81.01 527.03,-80.38 528.95,-87.11"/>
</g>
<!-- Node7 -->
<g id="node7" class="node">
<title>Node7</title>
<g id="a_node7"><a xlink:title=" ">
<polygon fill="white" stroke="#bfbfbf" points="422,-62 422,-81 505,-81 505,-62 422,-62"/>
<text text-anchor="middle" x="463.5" y="-69" font-family="Helvetica,sans-Serif" font-size="10.00">tvm/ffi/error.h</text>
</a>
</g>
</g>
<!-- Node3&#45;&gt;Node7 -->
<g id="edge6" class="edge">
<title>Node3&#45;&gt;Node7</title>
<path fill="none" stroke="midnightblue" d="M373.54,-123.48C390.78,-113.71 419.24,-97.58 439.53,-86.08"/>
<polygon fill="midnightblue" stroke="midnightblue" points="441.51,-88.98 448.48,-81.01 438.06,-82.89 441.51,-88.98"/>
</g>
<!-- Node8 -->
<g id="node8" class="node">
<title>Node8</title>
<g id="a_node8"><a xlink:title=" ">
<polygon fill="white" stroke="#bfbfbf" points="313,-62 313,-81 404,-81 404,-62 313,-62"/>
<text text-anchor="middle" x="358.5" y="-69" font-family="Helvetica,sans-Serif" font-size="10.00">tvm/ffi/object.h</text>
</a>
</g>
</g>
<!-- Node3&#45;&gt;Node8 -->
<g id="edge7" class="edge">
<title>Node3&#45;&gt;Node8</title>
<path fill="none" stroke="midnightblue" d="M358.5,-123.48C358.5,-115.08 358.5,-101.98 358.5,-91.16"/>
<polygon fill="midnightblue" stroke="midnightblue" points="362,-91.01 358.5,-81.01 355,-91.01 362,-91.01"/>
</g>
<!-- Node9 -->
<g id="node9" class="node">
<title>Node9</title>
<g id="a_node9"><a xlink:title=" ">
<polygon fill="white" stroke="#bfbfbf" points="99,-62 99,-81 200,-81 200,-62 99,-62"/>
<text text-anchor="middle" x="149.5" y="-69" font-family="Helvetica,sans-Serif" font-size="10.00">tvm/ffi/optional.h</text>
</a>
</g>
</g>
<!-- Node3&#45;&gt;Node9 -->
<g id="edge8" class="edge">
<title>Node3&#45;&gt;Node9</title>
<path fill="none" stroke="midnightblue" d="M328.56,-123.48C291.93,-113.05 229.8,-95.36 189.22,-83.81"/>
<polygon fill="midnightblue" stroke="midnightblue" points="189.97,-80.38 179.39,-81.01 188.05,-87.11 189.97,-80.38"/>
</g>
<!-- Node10 -->
<g id="node10" class="node">
<title>Node10</title>
<g id="a_node10"><a xlink:title=" ">
<polygon fill="white" stroke="#bfbfbf" points="630,-62 630,-81 675,-81 675,-62 630,-62"/>
<text text-anchor="middle" x="652.5" y="-69" font-family="Helvetica,sans-Serif" font-size="10.00">utility</text>
</a>
</g>
</g>
<!-- Node3&#45;&gt;Node10 -->
<g id="edge9" class="edge">
<title>Node3&#45;&gt;Node10</title>
<path fill="none" stroke="midnightblue" d="M397.52,-124.62C400.56,-124.07 403.58,-123.52 406.5,-123 501.46,-106.11 528.25,-115.14 620.5,-87 622.43,-86.41 624.39,-85.74 626.34,-85"/>
<polygon fill="midnightblue" stroke="midnightblue" points="628,-88.1 635.88,-81.01 625.3,-81.64 628,-88.1"/>
</g>
<!-- Node11&#45;&gt;Node2 -->
<g id="edge12" class="edge">
<title>Node11&#45;&gt;Node2</title>
<path fill="none" stroke="midnightblue" d="M1195.14,-188.8C1312.69,-174.74 1669.6,-131.26 1964.5,-87 1973.2,-85.69 1982.39,-84.23 1991.39,-82.76"/>
<polygon fill="midnightblue" stroke="midnightblue" points="1992.14,-86.18 2001.43,-81.09 1990.99,-79.27 1992.14,-86.18"/>
</g>
<!-- Node11&#45;&gt;Node3 -->
<g id="edge14" class="edge">
<title>Node11&#45;&gt;Node3</title>
<path fill="none" stroke="midnightblue" d="M1115.96,-192.48C1005.52,-189.27 684.37,-177.57 407.96,-143.04"/>
<polygon fill="midnightblue" stroke="midnightblue" points="408.09,-139.53 397.73,-141.75 407.22,-146.47 408.09,-139.53"/>
</g>
<!-- Node12 -->
<g id="node12" class="node">
<title>Node12</title>
<g id="a_node12"><a xlink:title=" ">
<polygon fill="white" stroke="#bfbfbf" points="991.5,-123.5 991.5,-142.5 1127.5,-142.5 1127.5,-123.5 991.5,-123.5"/>
<text text-anchor="middle" x="1059.5" y="-130.5" font-family="Helvetica,sans-Serif" font-size="10.00">tvm/ffi/extra/dataclass.h</text>
</a>
</g>
</g>
<!-- Node11&#45;&gt;Node12 -->
<g id="edge11" class="edge">
<title>Node11&#45;&gt;Node12</title>
<path fill="none" stroke="midnightblue" d="M1141.75,-184.98C1126.13,-175.3 1100.44,-159.37 1081.92,-147.89"/>
<polygon fill="midnightblue" stroke="midnightblue" points="1083.57,-144.8 1073.23,-142.51 1079.88,-150.75 1083.57,-144.8"/>
</g>
<!-- Node13 -->
<g id="node13" class="node">
<title>Node13</title>
<g id="a_node13"><a xlink:title=" ">
<polygon fill="white" stroke="#bfbfbf" points="1883,-123.5 1883,-142.5 1972,-142.5 1972,-123.5 1883,-123.5"/>
<text text-anchor="middle" x="1927.5" y="-130.5" font-family="Helvetica,sans-Serif" font-size="10.00">tvm/ffi/string.h</text>
</a>
</g>
</g>
<!-- Node11&#45;&gt;Node13 -->
<g id="edge13" class="edge">
<title>Node11&#45;&gt;Node13</title>
<path fill="none" stroke="midnightblue" d="M1195.22,-189.94C1229.87,-186.88 1281.49,-182.43 1326.5,-179 1562.36,-161.01 1622.09,-166.09 1857.5,-143 1862.35,-142.52 1867.38,-141.98 1872.43,-141.4"/>
<polygon fill="midnightblue" stroke="midnightblue" points="1873.22,-144.83 1882.73,-140.16 1872.39,-137.88 1873.22,-144.83"/>
</g>
<!-- Node14 -->
<g id="node14" class="node">
<title>Node14</title>
<g id="a_node14"><a xlink:href="cow_8h.html" target="_top" xlink:title="Copy&#45;on&#45;write helper macro for IR ffi::ObjectRef types.">
<polygon fill="white" stroke="black" points="416,-123.5 416,-142.5 493,-142.5 493,-123.5 416,-123.5"/>
<text text-anchor="middle" x="454.5" y="-130.5" font-family="Helvetica,sans-Serif" font-size="10.00">tvm/ir/cow.h</text>
</a>
</g>
</g>
<!-- Node11&#45;&gt;Node14 -->
<g id="edge15" class="edge">
<title>Node11&#45;&gt;Node14</title>
<path fill="none" stroke="midnightblue" d="M1115.9,-190.56C1018.15,-183.22 757.57,-163.27 540.5,-143 528.36,-141.87 515.26,-140.55 503.03,-139.27"/>
<polygon fill="midnightblue" stroke="midnightblue" points="503.32,-135.78 493.01,-138.22 502.59,-142.74 503.32,-135.78"/>
</g>
<!-- Node15 -->
<g id="node15" class="node">
<title>Node15</title>
<g id="a_node15"><a xlink:href="source__map_8h.html" target="_top" xlink:title="A map from source names to source code.">
<polygon fill="white" stroke="black" points="1380,-123.5 1380,-142.5 1497,-142.5 1497,-123.5 1380,-123.5"/>
<text text-anchor="middle" x="1438.5" y="-130.5" font-family="Helvetica,sans-Serif" font-size="10.00">tvm/ir/source_map.h</text>
</a>
</g>
</g>
<!-- Node11&#45;&gt;Node15 -->
<g id="edge18" class="edge">
<title>Node11&#45;&gt;Node15</title>
<path fill="none" stroke="midnightblue" d="M1195.15,-185.16C1245.56,-174.57 1332.65,-156.25 1387.83,-144.65"/>
<polygon fill="midnightblue" stroke="midnightblue" points="1388.68,-148.05 1397.75,-142.57 1387.24,-141.2 1388.68,-148.05"/>
</g>
<!-- Node21 -->
<g id="node21" class="node">
<title>Node21</title>
<g id="a_node21"><a xlink:title=" ">
<polygon fill="white" stroke="#bfbfbf" points="1503.5,-62 1503.5,-81 1547.5,-81 1547.5,-62 1503.5,-62"/>
<text text-anchor="middle" x="1525.5" y="-69" font-family="Helvetica,sans-Serif" font-size="10.00">string</text>
</a>
</g>
</g>
<!-- Node11&#45;&gt;Node21 -->
<g id="edge39" class="edge">
<title>Node11&#45;&gt;Node21</title>
<path fill="none" stroke="midnightblue" d="M1195.23,-190.24C1282.19,-182.76 1483.46,-163.42 1506.5,-143 1520.85,-130.28 1524.88,-107.97 1525.77,-91.85"/>
<polygon fill="midnightblue" stroke="midnightblue" points="1529.27,-91.5 1525.97,-81.43 1522.28,-91.37 1529.27,-91.5"/>
</g>
<!-- Node23 -->
<g id="node23" class="node">
<title>Node23</title>
<g id="a_node23"><a xlink:href="data__type_8h.html" target="_top" xlink:title=" ">
<polygon fill="white" stroke="black" points="689.5,-123.5 689.5,-142.5 827.5,-142.5 827.5,-123.5 689.5,-123.5"/>
<text text-anchor="middle" x="758.5" y="-130.5" font-family="Helvetica,sans-Serif" font-size="10.00">tvm/runtime/data_type.h</text>
</a>
</g>
</g>
<!-- Node11&#45;&gt;Node23 -->
<g id="edge28" class="edge">
<title>Node11&#45;&gt;Node23</title>
<path fill="none" stroke="midnightblue" d="M1115.98,-187.58C1048.11,-177.41 908.67,-156.51 825.42,-144.03"/>
<polygon fill="midnightblue" stroke="midnightblue" points="825.71,-140.53 815.3,-142.51 824.68,-147.46 825.71,-140.53"/>
</g>
<!-- Node26 -->
<g id="node26" class="node">
<title>Node26</title>
<g id="a_node26"><a xlink:title=" ">
<polygon fill="white" stroke="#bfbfbf" points="1121,-62 1121,-81 1190,-81 1190,-62 1121,-62"/>
<text text-anchor="middle" x="1155.5" y="-69" font-family="Helvetica,sans-Serif" font-size="10.00">type_traits</text>
</a>
</g>
</g>
<!-- Node11&#45;&gt;Node26 -->
<g id="edge40" class="edge">
<title>Node11&#45;&gt;Node26</title>
<path fill="none" stroke="midnightblue" d="M1155.5,-184.8C1155.5,-165.35 1155.5,-117.99 1155.5,-91.4"/>
<polygon fill="midnightblue" stroke="midnightblue" points="1159,-91.12 1155.5,-81.12 1152,-91.12 1159,-91.12"/>
</g>
<!-- Node27 -->
<g id="node27" class="node">
<title>Node27</title>
<g id="a_node27"><a xlink:title=" ">
<polygon fill="white" stroke="#bfbfbf" points="1183.5,-123.5 1183.5,-142.5 1247.5,-142.5 1247.5,-123.5 1183.5,-123.5"/>
<text text-anchor="middle" x="1215.5" y="-130.5" font-family="Helvetica,sans-Serif" font-size="10.00">algorithm</text>
</a>
</g>
</g>
<!-- Node11&#45;&gt;Node27 -->
<g id="edge36" class="edge">
<title>Node11&#45;&gt;Node27</title>
<path fill="none" stroke="midnightblue" d="M1164.1,-184.98C1173.36,-175.78 1188.32,-160.96 1199.71,-149.66"/>
<polygon fill="midnightblue" stroke="midnightblue" points="1202.28,-152.04 1206.92,-142.51 1197.35,-147.07 1202.28,-152.04"/>
</g>
<!-- Node28 -->
<g id="node28" class="node">
<title>Node28</title>
<g id="a_node28"><a xlink:title=" ">
<polygon fill="white" stroke="#bfbfbf" points="846,-123.5 846,-142.5 911,-142.5 911,-123.5 846,-123.5"/>
<text text-anchor="middle" x="878.5" y="-130.5" font-family="Helvetica,sans-Serif" font-size="10.00">functional</text>
</a>
</g>
</g>
<!-- Node11&#45;&gt;Node28 -->
<g id="edge37" class="edge">
<title>Node11&#45;&gt;Node28</title>
<path fill="none" stroke="midnightblue" d="M1115.81,-184.98C1064.2,-173.89 974.39,-154.6 921.3,-143.19"/>
<polygon fill="midnightblue" stroke="midnightblue" points="921.7,-139.7 911.19,-141.02 920.23,-146.54 921.7,-139.7"/>
</g>
<!-- Node29 -->
<g id="node29" class="node">
<title>Node29</title>
<g id="a_node29"><a xlink:title=" ">
<polygon fill="white" stroke="#bfbfbf" points="929.5,-123.5 929.5,-142.5 973.5,-142.5 973.5,-123.5 929.5,-123.5"/>
<text text-anchor="middle" x="951.5" y="-130.5" font-family="Helvetica,sans-Serif" font-size="10.00">limits</text>
</a>
</g>
</g>
<!-- Node11&#45;&gt;Node29 -->
<g id="edge38" class="edge">
<title>Node11&#45;&gt;Node29</title>
<path fill="none" stroke="midnightblue" d="M1126.27,-184.98C1088.45,-173.94 1022.77,-154.79 983.59,-143.36"/>
<polygon fill="midnightblue" stroke="midnightblue" points="984.35,-139.93 973.77,-140.49 982.39,-146.65 984.35,-139.93"/>
</g>
<!-- Node14&#45;&gt;Node8 -->
<g id="edge16" class="edge">
<title>Node14&#45;&gt;Node8</title>
<path fill="none" stroke="midnightblue" d="M440.75,-123.48C425.13,-113.8 399.44,-97.87 380.92,-86.39"/>
<polygon fill="midnightblue" stroke="midnightblue" points="382.57,-83.3 372.23,-81.01 378.88,-89.25 382.57,-83.3"/>
</g>
<!-- Node14&#45;&gt;Node10 -->
<g id="edge17" class="edge">
<title>Node14&#45;&gt;Node10</title>
<path fill="none" stroke="midnightblue" d="M492.95,-123.43C526.94,-115.42 577.65,-102.4 620.5,-87 622.12,-86.42 623.77,-85.79 625.42,-85.13"/>
<polygon fill="midnightblue" stroke="midnightblue" points="626.94,-88.29 634.77,-81.15 624.2,-81.85 626.94,-88.29"/>
</g>
<!-- Node15&#45;&gt;Node2 -->
<g id="edge21" class="edge">
<title>Node15&#45;&gt;Node2</title>
<path fill="none" stroke="midnightblue" d="M1497.04,-128.56C1594.34,-122.49 1795.38,-108.45 1964.5,-87 1973.23,-85.89 1982.43,-84.54 1991.44,-83.11"/>
<polygon fill="midnightblue" stroke="midnightblue" points="1992.18,-86.54 2001.49,-81.48 1991.05,-79.63 1992.18,-86.54"/>
</g>
<!-- Node15&#45;&gt;Node10 -->
<g id="edge26" class="edge">
<title>Node15&#45;&gt;Node10</title>
<path fill="none" stroke="midnightblue" d="M1379.76,-128.44C1352.34,-126.78 1319.25,-124.78 1289.5,-123 1154.84,-114.93 814.26,-120.17 683.5,-87 681.51,-86.5 679.5,-85.86 677.5,-85.15"/>
<polygon fill="midnightblue" stroke="midnightblue" points="678.42,-81.74 667.84,-81.07 675.7,-88.19 678.42,-81.74"/>
</g>
<!-- Node16 -->
<g id="node16" class="node">
<title>Node16</title>
<g id="a_node16"><a xlink:title=" ">
<polygon fill="white" stroke="#bfbfbf" points="1821.5,-62 1821.5,-81 1955.5,-81 1955.5,-62 1821.5,-62"/>
<text text-anchor="middle" x="1888.5" y="-69" font-family="Helvetica,sans-Serif" font-size="10.00">tvm/ffi/container/array.h</text>
</a>
</g>
</g>
<!-- Node15&#45;&gt;Node16 -->
<g id="edge19" class="edge">
<title>Node15&#45;&gt;Node16</title>
<path fill="none" stroke="midnightblue" d="M1497.33,-124.22C1578.65,-113.47 1725.41,-94.06 1814.2,-82.32"/>
<polygon fill="midnightblue" stroke="midnightblue" points="1814.75,-85.78 1824.2,-81 1813.83,-78.84 1814.75,-85.78"/>
</g>
<!-- Node17 -->
<g id="node17" class="node">
<title>Node17</title>
<g id="a_node17"><a xlink:title=" ">
<polygon fill="white" stroke="#bfbfbf" points="1646,-62 1646,-81 1747,-81 1747,-62 1646,-62"/>
<text text-anchor="middle" x="1696.5" y="-69" font-family="Helvetica,sans-Serif" font-size="10.00">tvm/ffi/function.h</text>
</a>
</g>
</g>
<!-- Node15&#45;&gt;Node17 -->
<g id="edge20" class="edge">
<title>Node15&#45;&gt;Node17</title>
<path fill="none" stroke="midnightblue" d="M1475.47,-123.48C1521.35,-112.89 1599.65,-94.84 1649.68,-83.3"/>
<polygon fill="midnightblue" stroke="midnightblue" points="1650.65,-86.67 1659.6,-81.01 1649.07,-79.85 1650.65,-86.67"/>
</g>
<!-- Node18 -->
<g id="node18" class="node">
<title>Node18</title>
<g id="a_node18"><a xlink:href="runtime_2base_8h.html" target="_top" xlink:title=" ">
<polygon fill="white" stroke="black" points="1244,-62 1244,-81 1357,-81 1357,-62 1244,-62"/>
<text text-anchor="middle" x="1300.5" y="-69" font-family="Helvetica,sans-Serif" font-size="10.00">tvm/runtime/base.h</text>
</a>
</g>
</g>
<!-- Node15&#45;&gt;Node18 -->
<g id="edge22" class="edge">
<title>Node15&#45;&gt;Node18</title>
<path fill="none" stroke="midnightblue" d="M1418.73,-123.48C1395.36,-113.4 1356.29,-96.55 1329.5,-85"/>
<polygon fill="midnightblue" stroke="midnightblue" points="1330.8,-81.75 1320.24,-81.01 1328.03,-88.18 1330.8,-81.75"/>
</g>
<!-- Node20 -->
<g id="node20" class="node">
<title>Node20</title>
<g id="a_node20"><a xlink:title=" ">
<polygon fill="white" stroke="#bfbfbf" points="1411,-62 1411,-81 1466,-81 1466,-62 1411,-62"/>
<text text-anchor="middle" x="1438.5" y="-69" font-family="Helvetica,sans-Serif" font-size="10.00">fstream</text>
</a>
</g>
</g>
<!-- Node15&#45;&gt;Node20 -->
<g id="edge24" class="edge">
<title>Node15&#45;&gt;Node20</title>
<path fill="none" stroke="midnightblue" d="M1438.5,-123.48C1438.5,-115.08 1438.5,-101.98 1438.5,-91.16"/>
<polygon fill="midnightblue" stroke="midnightblue" points="1442,-91.01 1438.5,-81.01 1435,-91.01 1442,-91.01"/>
</g>
<!-- Node15&#45;&gt;Node21 -->
<g id="edge25" class="edge">
<title>Node15&#45;&gt;Node21</title>
<path fill="none" stroke="midnightblue" d="M1450.96,-123.48C1464.92,-113.93 1487.76,-98.31 1504.49,-86.87"/>
<polygon fill="midnightblue" stroke="midnightblue" points="1506.78,-89.54 1513.06,-81.01 1502.83,-83.77 1506.78,-89.54"/>
</g>
<!-- Node15&#45;&gt;Node22 -->
<g id="edge27" class="edge">
<title>Node15&#45;&gt;Node22</title>
<path fill="none" stroke="midnightblue" d="M1379.78,-128.44C1215.93,-118.46 764.74,-90.72 749.5,-87 747.14,-86.42 744.74,-85.69 742.36,-84.86"/>
<polygon fill="midnightblue" stroke="midnightblue" points="743.48,-81.53 732.89,-81.05 740.86,-88.03 743.48,-81.53"/>
</g>
<!-- Node19 -->
<g id="node19" class="node">
<title>Node19</title>
<g id="a_node19"><a xlink:title=" ">
<polygon fill="white" stroke="#bfbfbf" points="1257.5,-0.5 1257.5,-19.5 1343.5,-19.5 1343.5,-0.5 1257.5,-0.5"/>
<text text-anchor="middle" x="1300.5" y="-7.5" font-family="Helvetica,sans-Serif" font-size="10.00">tvm/ffi/c_api.h</text>
</a>
</g>
</g>
<!-- Node18&#45;&gt;Node19 -->
<g id="edge23" class="edge">
<title>Node18&#45;&gt;Node19</title>
<path fill="none" stroke="midnightblue" d="M1300.5,-61.98C1300.5,-53.58 1300.5,-40.48 1300.5,-29.66"/>
<polygon fill="midnightblue" stroke="midnightblue" points="1304,-29.51 1300.5,-19.51 1297,-29.51 1304,-29.51"/>
</g>
<!-- Node23&#45;&gt;Node6 -->
<g id="edge30" class="edge">
<title>Node23&#45;&gt;Node6</title>
<path fill="none" stroke="midnightblue" d="M731.13,-123.48C697.95,-113.14 641.85,-95.66 604.74,-84.1"/>
<polygon fill="midnightblue" stroke="midnightblue" points="605.4,-80.64 594.81,-81.01 603.32,-87.32 605.4,-80.64"/>
</g>
<!-- Node23&#45;&gt;Node7 -->
<g id="edge31" class="edge">
<title>Node23&#45;&gt;Node7</title>
<path fill="none" stroke="midnightblue" d="M703.19,-123.47C653.32,-115.4 578.11,-102.26 513.5,-87 509.39,-86.03 505.12,-84.93 500.88,-83.78"/>
<polygon fill="midnightblue" stroke="midnightblue" points="501.71,-80.38 491.14,-81.05 499.82,-87.12 501.71,-80.38"/>
</g>
<!-- Node23&#45;&gt;Node18 -->
<g id="edge32" class="edge">
<title>Node23&#45;&gt;Node18</title>
<path fill="none" stroke="midnightblue" d="M827.82,-123.94C830.75,-123.62 833.65,-123.31 836.5,-123 997.7,-105.71 1038.56,-106.52 1199.5,-87 1210.72,-85.64 1222.62,-84.06 1234.17,-82.44"/>
<polygon fill="midnightblue" stroke="midnightblue" points="1234.79,-85.89 1244.2,-81.03 1233.81,-78.96 1234.79,-85.89"/>
</g>
<!-- Node23&#45;&gt;Node21 -->
<g id="edge34" class="edge">
<title>Node23&#45;&gt;Node21</title>
<path fill="none" stroke="midnightblue" d="M827.8,-123.79C830.74,-123.51 833.65,-123.24 836.5,-123 1119.91,-98.69 1195.11,-134.92 1475.5,-87 1481.44,-85.99 1487.67,-84.52 1493.64,-82.9"/>
<polygon fill="midnightblue" stroke="midnightblue" points="1494.72,-86.23 1503.35,-80.09 1492.77,-79.51 1494.72,-86.23"/>
</g>
<!-- Node24 -->
<g id="node24" class="node">
<title>Node24</title>
<g id="a_node24"><a xlink:title=" ">
<polygon fill="white" stroke="#bfbfbf" points="827,-62 827,-81 966,-81 966,-62 827,-62"/>
<text text-anchor="middle" x="896.5" y="-69" font-family="Helvetica,sans-Serif" font-size="10.00">tvm/ffi/container/shape.h</text>
</a>
</g>
</g>
<!-- Node23&#45;&gt;Node24 -->
<g id="edge29" class="edge">
<title>Node23&#45;&gt;Node24</title>
<path fill="none" stroke="midnightblue" d="M778.27,-123.48C801.64,-113.4 840.71,-96.55 867.5,-85"/>
<polygon fill="midnightblue" stroke="midnightblue" points="868.97,-88.18 876.76,-81.01 866.2,-81.75 868.97,-88.18"/>
</g>
<!-- Node25 -->
<g id="node25" class="node">
<title>Node25</title>
<g id="a_node25"><a xlink:title=" ">
<polygon fill="white" stroke="#bfbfbf" points="758.5,-62 758.5,-81 808.5,-81 808.5,-62 758.5,-62"/>
<text text-anchor="middle" x="783.5" y="-69" font-family="Helvetica,sans-Serif" font-size="10.00">cstring</text>
</a>
</g>
</g>
<!-- Node23&#45;&gt;Node25 -->
<g id="edge33" class="edge">
<title>Node23&#45;&gt;Node25</title>
<path fill="none" stroke="midnightblue" d="M762.08,-123.48C765.68,-114.9 771.35,-101.43 775.94,-90.48"/>
<polygon fill="midnightblue" stroke="midnightblue" points="779.28,-91.58 779.92,-81.01 772.82,-88.87 779.28,-91.58"/>
</g>
<!-- Node23&#45;&gt;Node26 -->
<g id="edge35" class="edge">
<title>Node23&#45;&gt;Node26</title>
<path fill="none" stroke="midnightblue" d="M815.38,-123.48C894.98,-111.55 1037.96,-90.12 1110.56,-79.23"/>
<polygon fill="midnightblue" stroke="midnightblue" points="1111.38,-82.65 1120.75,-77.71 1110.34,-75.73 1111.38,-82.65"/>
</g>
<!-- Node30&#45;&gt;Node11 -->
<g id="edge57" class="edge">
<title>Node30&#45;&gt;Node11</title>
<path fill="none" stroke="midnightblue" d="M1669.37,-311.21C1558.94,-310.96 1294.67,-306.05 1216.5,-266 1193.62,-254.28 1175.65,-229.96 1165.31,-213.2"/>
<polygon fill="midnightblue" stroke="midnightblue" points="1168.19,-211.2 1160.12,-204.35 1162.16,-214.74 1168.19,-211.2"/>
</g>
<!-- Node30&#45;&gt;Node13 -->
<g id="edge44" class="edge">
<title>Node30&#45;&gt;Node13</title>
<path fill="none" stroke="midnightblue" d="M1767.75,-308.89C1831.64,-303.18 1940.89,-282.68 1991.5,-210 1999.37,-198.69 1997.85,-191.23 1991.5,-179 1984.35,-165.23 1970.83,-154.78 1958.05,-147.44"/>
<polygon fill="midnightblue" stroke="midnightblue" points="1959.46,-144.23 1948.98,-142.64 1956.18,-150.41 1959.46,-144.23"/>
</g>
<!-- Node30&#45;&gt;Node16 -->
<g id="edge42" class="edge">
<title>Node30&#45;&gt;Node16</title>
<path fill="none" stroke="midnightblue" d="M1767.61,-308.11C1858.02,-302.29 2043.35,-287.81 2062.5,-266 2105.88,-216.58 2076.25,-163.58 2024.5,-123 2000.05,-103.83 1967.59,-91.41 1940.51,-83.68"/>
<polygon fill="midnightblue" stroke="midnightblue" points="1941.37,-80.29 1930.8,-81.05 1939.54,-87.04 1941.37,-80.29"/>
</g>
<!-- Node30&#45;&gt;Node21 -->
<g id="edge58" class="edge">
<title>Node30&#45;&gt;Node21</title>
<path fill="none" stroke="midnightblue" d="M1767.59,-309.78C1855.9,-305.02 2030.37,-282.55 2007.5,-179 2001.58,-152.2 2003.83,-138.95 1981.5,-123 1918.95,-78.33 1713.84,-95.93 1637.5,-87 1610.6,-83.85 1580.12,-79.88 1557.76,-76.89"/>
<polygon fill="midnightblue" stroke="midnightblue" points="1558.17,-73.41 1547.79,-75.55 1557.24,-80.35 1558.17,-73.41"/>
</g>
<!-- Node30&#45;&gt;Node26 -->
<g id="edge59" class="edge">
<title>Node30&#45;&gt;Node26</title>
<path fill="none" stroke="midnightblue" d="M1669.38,-309.87C1588.32,-305.73 1424.57,-287.57 1314.5,-210 1276.51,-183.23 1291.34,-153.75 1256.5,-123 1237.34,-106.09 1211.51,-93.3 1190.76,-84.83"/>
<polygon fill="midnightblue" stroke="midnightblue" points="1191.92,-81.53 1181.33,-81.13 1189.36,-88.04 1191.92,-81.53"/>
</g>
<!-- Node31 -->
<g id="node31" class="node">
<title>Node31</title>
<g id="a_node31"><a xlink:title=" ">
<polygon fill="white" stroke="#bfbfbf" points="1851,-185 1851,-204 1982,-204 1982,-185 1851,-185"/>
<text text-anchor="middle" x="1916.5" y="-192" font-family="Helvetica,sans-Serif" font-size="10.00">tvm/ffi/container/map.h</text>
</a>
</g>
</g>
<!-- Node30&#45;&gt;Node31 -->
<g id="edge43" class="edge">
<title>Node30&#45;&gt;Node31</title>
<path fill="none" stroke="midnightblue" d="M1733.38,-302.32C1767.51,-282.41 1851.63,-233.34 1892.9,-209.27"/>
<polygon fill="midnightblue" stroke="midnightblue" points="1894.84,-212.19 1901.72,-204.12 1891.31,-206.14 1894.84,-212.19"/>
</g>
<!-- Node32 -->
<g id="node32" class="node">
<title>Node32</title>
<g id="a_node32"><a xlink:href="attrs_8h.html" target="_top" xlink:title="Helpers for attribute objects.">
<polygon fill="white" stroke="black" points="1567.5,-246.5 1567.5,-265.5 1647.5,-265.5 1647.5,-246.5 1567.5,-246.5"/>
<text text-anchor="middle" x="1607.5" y="-253.5" font-family="Helvetica,sans-Serif" font-size="10.00">tvm/ir/attrs.h</text>
</a>
</g>
</g>
<!-- Node30&#45;&gt;Node32 -->
<g id="edge45" class="edge">
<title>Node30&#45;&gt;Node32</title>
<path fill="none" stroke="midnightblue" d="M1700.67,-302.32C1682.78,-293.62 1655.02,-280.12 1634.45,-270.11"/>
<polygon fill="midnightblue" stroke="midnightblue" points="1635.81,-266.88 1625.29,-265.65 1632.75,-273.18 1635.81,-266.88"/>
</g>
<!-- Node32&#45;&gt;Node2 -->
<g id="edge50" class="edge">
<title>Node32&#45;&gt;Node2</title>
<path fill="none" stroke="midnightblue" d="M1639.59,-246.44C1670.91,-237.9 1719.79,-224.05 1761.5,-210 1798.03,-197.7 1805.78,-190.74 1842.5,-179 1903.28,-159.56 1926.27,-174.97 1981.5,-143 2002.51,-130.84 2021.41,-110.53 2034.09,-94.82"/>
<polygon fill="midnightblue" stroke="midnightblue" points="2037.08,-96.69 2040.47,-86.65 2031.56,-92.38 2037.08,-96.69"/>
</g>
<!-- Node32&#45;&gt;Node10 -->
<g id="edge56" class="edge">
<title>Node32&#45;&gt;Node10</title>
<path fill="none" stroke="midnightblue" d="M1567.34,-252.81C1497.15,-248.34 1355.72,-236.28 1314.5,-210 1275.32,-185.02 1296.76,-146.2 1256.5,-123 1145.96,-59.3 807.11,-118.58 683.5,-87 681.51,-86.49 679.5,-85.86 677.5,-85.14"/>
<polygon fill="midnightblue" stroke="midnightblue" points="678.42,-81.73 667.85,-81.06 675.7,-88.18 678.42,-81.73"/>
</g>
<!-- Node32&#45;&gt;Node11 -->
<g id="edge52" class="edge">
<title>Node32&#45;&gt;Node11</title>
<path fill="none" stroke="midnightblue" d="M1567.5,-250.15C1502.02,-242.15 1367.89,-225.53 1254.5,-210 1238.55,-207.82 1221.17,-205.31 1205.48,-203.01"/>
<polygon fill="midnightblue" stroke="midnightblue" points="1205.86,-199.52 1195.46,-201.53 1204.84,-206.45 1205.86,-199.52"/>
</g>
<!-- Node32&#45;&gt;Node14 -->
<g id="edge51" class="edge">
<title>Node32&#45;&gt;Node14</title>
<path fill="none" stroke="midnightblue" d="M1567.28,-251.74C1482.31,-244.77 1278.29,-227.62 1107.5,-210 881.21,-186.65 611.44,-153.59 503.08,-140.09"/>
<polygon fill="midnightblue" stroke="midnightblue" points="503.46,-136.61 493.1,-138.85 502.59,-143.56 503.46,-136.61"/>
</g>
<!-- Node32&#45;&gt;Node17 -->
<g id="edge49" class="edge">
<title>Node32&#45;&gt;Node17</title>
<path fill="none" stroke="midnightblue" d="M1647.54,-253.73C1679.29,-250.35 1721.8,-240.04 1743.5,-210 1771.09,-171.8 1733.4,-116.15 1711,-88.84"/>
<polygon fill="midnightblue" stroke="midnightblue" points="1713.51,-86.39 1704.37,-81.03 1708.17,-90.92 1713.51,-86.39"/>
</g>
<!-- Node32&#45;&gt;Node21 -->
<g id="edge53" class="edge">
<title>Node32&#45;&gt;Node21</title>
<path fill="none" stroke="midnightblue" d="M1647.57,-251.53C1675.04,-246.82 1709.63,-235.79 1727.5,-210 1735.35,-198.68 1734.62,-190.8 1727.5,-179 1690.38,-117.46 1604.53,-89.67 1557.59,-78.69"/>
<polygon fill="midnightblue" stroke="midnightblue" points="1558.16,-75.24 1547.64,-76.48 1556.64,-82.07 1558.16,-75.24"/>
</g>
<!-- Node32&#45;&gt;Node26 -->
<g id="edge54" class="edge">
<title>Node32&#45;&gt;Node26</title>
<path fill="none" stroke="midnightblue" d="M1567.45,-254.7C1497.36,-253.22 1356.99,-245.76 1326.5,-210 1301.41,-180.57 1350.67,-153.96 1327.5,-123 1319.69,-112.56 1248.4,-94.15 1200.09,-82.68"/>
<polygon fill="midnightblue" stroke="midnightblue" points="1200.69,-79.22 1190.16,-80.34 1199.09,-86.04 1200.69,-79.22"/>
</g>
<!-- Node32&#45;&gt;Node31 -->
<g id="edge46" class="edge">
<title>Node32&#45;&gt;Node31</title>
<path fill="none" stroke="midnightblue" d="M1647.58,-247.28C1702.42,-236.72 1801,-217.74 1862.36,-205.93"/>
<polygon fill="midnightblue" stroke="midnightblue" points="1863.09,-209.35 1872.25,-204.02 1861.77,-202.48 1863.09,-209.35"/>
</g>
<!-- Node33 -->
<g id="node33" class="node">
<title>Node33</title>
<g id="a_node33"><a xlink:title=" ">
<polygon fill="white" stroke="#bfbfbf" points="1335,-179.5 1335,-209.5 1462,-209.5 1462,-179.5 1335,-179.5"/>
<text text-anchor="start" x="1343" y="-197.5" font-family="Helvetica,sans-Serif" font-size="10.00">tvm/ffi/extra/structural</text>
<text text-anchor="middle" x="1398.5" y="-186.5" font-family="Helvetica,sans-Serif" font-size="10.00">_equal.h</text>
</a>
</g>
</g>
<!-- Node32&#45;&gt;Node33 -->
<g id="edge47" class="edge">
<title>Node32&#45;&gt;Node33</title>
<path fill="none" stroke="midnightblue" d="M1577.56,-246.48C1546.34,-237.59 1496.6,-223.43 1457.46,-212.29"/>
<polygon fill="midnightblue" stroke="midnightblue" points="1458.33,-208.89 1447.76,-209.52 1456.42,-215.63 1458.33,-208.89"/>
</g>
<!-- Node34 -->
<g id="node34" class="node">
<title>Node34</title>
<g id="a_node34"><a xlink:title=" ">
<polygon fill="white" stroke="#bfbfbf" points="1480,-179.5 1480,-209.5 1607,-209.5 1607,-179.5 1480,-179.5"/>
<text text-anchor="start" x="1488" y="-197.5" font-family="Helvetica,sans-Serif" font-size="10.00">tvm/ffi/extra/structural</text>
<text text-anchor="middle" x="1543.5" y="-186.5" font-family="Helvetica,sans-Serif" font-size="10.00">_hash.h</text>
</a>
</g>
</g>
<!-- Node32&#45;&gt;Node34 -->
<g id="edge48" class="edge">
<title>Node32&#45;&gt;Node34</title>
<path fill="none" stroke="midnightblue" d="M1598.33,-246.48C1589.91,-238.64 1577.08,-226.71 1565.94,-216.37"/>
<polygon fill="midnightblue" stroke="midnightblue" points="1568.29,-213.77 1558.58,-209.52 1563.52,-218.9 1568.29,-213.77"/>
</g>
<!-- Node35 -->
<g id="node35" class="node">
<title>Node35</title>
<g id="a_node35"><a xlink:title=" ">
<polygon fill="white" stroke="#bfbfbf" points="1625,-185 1625,-204 1718,-204 1718,-185 1625,-185"/>
<text text-anchor="middle" x="1671.5" y="-192" font-family="Helvetica,sans-Serif" font-size="10.00">unordered_map</text>
</a>
</g>
</g>
<!-- Node32&#45;&gt;Node35 -->
<g id="edge55" class="edge">
<title>Node32&#45;&gt;Node35</title>
<path fill="none" stroke="midnightblue" d="M1616.67,-246.48C1626.65,-237.2 1642.81,-222.17 1655.01,-210.83"/>
<polygon fill="midnightblue" stroke="midnightblue" points="1657.41,-213.38 1662.35,-204.01 1652.64,-208.25 1657.41,-213.38"/>
</g>
<!-- Node36&#45;&gt;Node7 -->
<g id="edge61" class="edge">
<title>Node36&#45;&gt;Node7</title>
<path fill="none" stroke="midnightblue" d="M589.44,-123.48C564.44,-113.36 522.56,-96.4 494.01,-84.85"/>
<polygon fill="midnightblue" stroke="midnightblue" points="495.11,-81.52 484.52,-81.01 492.48,-88.01 495.11,-81.52"/>
</g>
<!-- Node36&#45;&gt;Node10 -->
<g id="edge64" class="edge">
<title>Node36&#45;&gt;Node10</title>
<path fill="none" stroke="midnightblue" d="M616.52,-123.48C622.76,-114.64 632.67,-100.59 640.52,-89.48"/>
<polygon fill="midnightblue" stroke="midnightblue" points="643.59,-91.2 646.49,-81.01 637.87,-87.16 643.59,-91.2"/>
</g>
<!-- Node36&#45;&gt;Node22 -->
<g id="edge65" class="edge">
<title>Node36&#45;&gt;Node22</title>
<path fill="none" stroke="midnightblue" d="M625.69,-123.48C643.16,-113.67 672.08,-97.43 692.58,-85.92"/>
<polygon fill="midnightblue" stroke="midnightblue" points="694.33,-88.96 701.34,-81.01 690.91,-82.85 694.33,-88.96"/>
</g>
<!-- Node36&#45;&gt;Node25 -->
<g id="edge62" class="edge">
<title>Node36&#45;&gt;Node25</title>
<path fill="none" stroke="midnightblue" d="M638.74,-123.5C666.78,-114.88 710.92,-100.89 748.5,-87 750.35,-86.32 752.25,-85.59 754.16,-84.85"/>
<polygon fill="midnightblue" stroke="midnightblue" points="755.64,-88.03 763.62,-81.05 753.03,-81.53 755.64,-88.03"/>
</g>
<!-- Node36&#45;&gt;Node26 -->
<g id="edge63" class="edge">
<title>Node36&#45;&gt;Node26</title>
<path fill="none" stroke="midnightblue" d="M671.2,-124.11C674.34,-123.73 677.46,-123.36 680.5,-123 838.63,-104.43 1026.74,-85.31 1110.92,-76.91"/>
<polygon fill="midnightblue" stroke="midnightblue" points="1111.3,-80.39 1120.9,-75.92 1110.61,-73.42 1111.3,-80.39"/>
</g>
</g>
</svg>
