<?xml version="1.0" encoding="UTF-8" standalone="no"?>
<!DOCTYPE svg PUBLIC "-//W3C//DTD SVG 1.1//EN"
 "http://www.w3.org/Graphics/SVG/1.1/DTD/svg11.dtd">
<!-- Generated by graphviz version 2.43.0 (0)
 -->
<!-- Title: tvm::tirx::ExecContext Pages: 1 -->
<svg width="270pt" height="620pt"
 viewBox="0.00 0.00 270.00 620.00" xmlns="http://www.w3.org/2000/svg" xmlns:xlink="http://www.w3.org/1999/xlink">
<g id="graph0" class="graph" transform="scale(1 1) rotate(0) translate(4 616)">
<title>tvm::tirx::ExecContext</title>
<polygon fill="white" stroke="transparent" points="-4,4 -4,-616 266,-616 266,4 -4,4"/>
<!-- Node1 -->
<g id="node1" class="node">
<title>Node1</title>
<g id="a_node1"><a xlink:title="Per&#45;program&#45;point ExecContext: active set + scope kind + split.">
<polygon fill="#bfbfbf" stroke="black" points="110,-0.5 110,-112.5 241,-112.5 241,-0.5 110,-0.5"/>
<text text-anchor="middle" x="175.5" y="-100.5" font-family="Helvetica,sans-Serif" font-size="10.00">tvm::tirx::ExecContext</text>
<polyline fill="none" stroke="black" points="110,-93.5 241,-93.5 "/>
<text text-anchor="start" x="118" y="-81.5" font-family="Helvetica,sans-Serif" font-size="10.00">+ scope_kind</text>
<polyline fill="none" stroke="black" points="110,-74.5 241,-74.5 "/>
<text text-anchor="start" x="118" y="-62.5" font-family="Helvetica,sans-Serif" font-size="10.00">+ WithFilter()</text>
<text text-anchor="start" x="118" y="-51.5" font-family="Helvetica,sans-Serif" font-size="10.00">+ WithSelector()</text>
<text text-anchor="start" x="118" y="-40.5" font-family="Helvetica,sans-Serif" font-size="10.00">+ WithCtaAxisFilter()</text>
<text text-anchor="start" x="118" y="-29.5" font-family="Helvetica,sans-Serif" font-size="10.00">+ WithCtaAxisModulo()</text>
<text text-anchor="start" x="118" y="-18.5" font-family="Helvetica,sans-Serif" font-size="10.00">+ AtKernelEntry()</text>
<text text-anchor="start" x="118" y="-7.5" font-family="Helvetica,sans-Serif" font-size="10.00">+ AtKernelEntry()</text>
</a>
</g>
</g>
<!-- Node2 -->
<g id="node2" class="node">
<title>Node2</title>
<g id="a_node2"><a xlink:href="structtvm_1_1tirx_1_1ActiveSet.html" target="_top" xlink:title="Active thread set A. The source of truth is layout: shard = active axes with extents offset = per&#45;axi...">
<polygon fill="white" stroke="black" points="24,-160.5 24,-261.5 135,-261.5 135,-160.5 24,-160.5"/>
<text text-anchor="middle" x="79.5" y="-249.5" font-family="Helvetica,sans-Serif" font-size="10.00">tvm::tirx::ActiveSet</text>
<polyline fill="none" stroke="black" points="24,-242.5 135,-242.5 "/>
<text text-anchor="middle" x="79.5" y="-230.5" font-family="Helvetica,sans-Serif" font-size="10.00"> </text>
<polyline fill="none" stroke="black" points="24,-223.5 135,-223.5 "/>
<text text-anchor="start" x="32" y="-211.5" font-family="Helvetica,sans-Serif" font-size="10.00">+ size()</text>
<text text-anchor="start" x="32" y="-200.5" font-family="Helvetica,sans-Serif" font-size="10.00">+ GetAxis()</text>
<text text-anchor="start" x="32" y="-189.5" font-family="Helvetica,sans-Serif" font-size="10.00">+ HasAxis()</text>
<text text-anchor="start" x="32" y="-178.5" font-family="Helvetica,sans-Serif" font-size="10.00">+ WithAxis()</text>
<text text-anchor="start" x="32" y="-167.5" font-family="Helvetica,sans-Serif" font-size="10.00">+ AxisNames()</text>
</a>
</g>
</g>
<!-- Node2&#45;&gt;Node1 -->
<g id="edge1" class="edge">
<title>Node2&#45;&gt;Node1</title>
<path fill="none" stroke="#404040" d="M110.67,-160.49C118.2,-148.53 126.36,-135.57 134.27,-123"/>
<polygon fill="none" stroke="#404040" points="134.44,-122.72 134.25,-115.52 140.83,-112.57 141.02,-119.78 134.44,-122.72"/>
<text text-anchor="middle" x="137" y="-134" font-family="Helvetica,sans-Serif" font-size="10.00"> +A</text>
</g>
<!-- Node3 -->
<g id="node3" class="node">
<title>Node3</title>
<g id="a_node3"><a xlink:href="classtvm_1_1tirx_1_1TileLayout.html" target="_top" xlink:title=" ">
<polygon fill="white" stroke="black" points="0,-309.5 0,-410.5 159,-410.5 159,-309.5 0,-309.5"/>
<text text-anchor="middle" x="79.5" y="-398.5" font-family="Helvetica,sans-Serif" font-size="10.00">tvm::tirx::TileLayout</text>
<polyline fill="none" stroke="black" points="0,-391.5 159,-391.5 "/>
<text text-anchor="middle" x="79.5" y="-379.5" font-family="Helvetica,sans-Serif" font-size="10.00"> </text>
<polyline fill="none" stroke="black" points="0,-372.5 159,-372.5 "/>
<text text-anchor="start" x="8" y="-360.5" font-family="Helvetica,sans-Serif" font-size="10.00">+ TileLayout()</text>
<text text-anchor="start" x="8" y="-349.5" font-family="Helvetica,sans-Serif" font-size="10.00">+ TVM_FFI_DEFINE_OBJECT</text>
<text text-anchor="start" x="8" y="-338.5" font-family="Helvetica,sans-Serif" font-size="10.00">_REF_METHODS_NULLABLE()</text>
<text text-anchor="start" x="8" y="-327.5" font-family="Helvetica,sans-Serif" font-size="10.00">+ TVM_DEFINE_OBJECT_REF</text>
<text text-anchor="start" x="8" y="-316.5" font-family="Helvetica,sans-Serif" font-size="10.00">_COW_METHOD()</text>
</a>
</g>
</g>
<!-- Node3&#45;&gt;Node2 -->
<g id="edge2" class="edge">
<title>Node3&#45;&gt;Node2</title>
<path fill="none" stroke="#404040" d="M79.5,-309.23C79.5,-297.86 79.5,-285.63 79.5,-273.82"/>
<polygon fill="none" stroke="#404040" points="79.5,-273.72 75.5,-267.72 79.5,-261.72 83.5,-267.72 79.5,-273.72"/>
<text text-anchor="middle" x="101" y="-283" font-family="Helvetica,sans-Serif" font-size="10.00"> +layout</text>
</g>
<!-- Node4 -->
<g id="node4" class="node">
<title>Node4</title>
<g id="a_node4"><a xlink:href="classtvm_1_1tirx_1_1Layout.html" target="_top" xlink:title=" ">
<polygon fill="white" stroke="black" points="0,-448.5 0,-516.5 159,-516.5 159,-448.5 0,-448.5"/>
<text text-anchor="middle" x="79.5" y="-504.5" font-family="Helvetica,sans-Serif" font-size="10.00">tvm::tirx::Layout</text>
<polyline fill="none" stroke="black" points="0,-497.5 159,-497.5 "/>
<text text-anchor="middle" x="79.5" y="-485.5" font-family="Helvetica,sans-Serif" font-size="10.00"> </text>
<polyline fill="none" stroke="black" points="0,-478.5 159,-478.5 "/>
<text text-anchor="start" x="8" y="-466.5" font-family="Helvetica,sans-Serif" font-size="10.00">+ TVM_FFI_DEFINE_OBJECT</text>
<text text-anchor="start" x="8" y="-455.5" font-family="Helvetica,sans-Serif" font-size="10.00">_REF_METHODS_NULLABLE()</text>
</a>
</g>
</g>
<!-- Node4&#45;&gt;Node3 -->
<g id="edge3" class="edge">
<title>Node4&#45;&gt;Node3</title>
<path fill="none" stroke="midnightblue" d="M79.5,-438.15C79.5,-429.29 79.5,-419.91 79.5,-410.84"/>
<polygon fill="none" stroke="midnightblue" points="76,-438.25 79.5,-448.25 83,-438.25 76,-438.25"/>
</g>
<!-- Node5 -->
<g id="node5" class="node">
<title>Node5</title>
<g id="a_node5"><a xlink:title=" ">
<polygon fill="white" stroke="#bfbfbf" points="39.5,-554.5 39.5,-611.5 119.5,-611.5 119.5,-554.5 39.5,-554.5"/>
<text text-anchor="middle" x="79.5" y="-599.5" font-family="Helvetica,sans-Serif" font-size="10.00">ffi::ObjectRef</text>
<polyline fill="none" stroke="#bfbfbf" points="39.5,-592.5 119.5,-592.5 "/>
<text text-anchor="middle" x="79.5" y="-580.5" font-family="Helvetica,sans-Serif" font-size="10.00"> </text>
<polyline fill="none" stroke="#bfbfbf" points="39.5,-573.5 119.5,-573.5 "/>
<text text-anchor="middle" x="79.5" y="-561.5" font-family="Helvetica,sans-Serif" font-size="10.00"> </text>
</a>
</g>
</g>
<!-- Node5&#45;&gt;Node4 -->
<g id="edge4" class="edge">
<title>Node5&#45;&gt;Node4</title>
<path fill="none" stroke="midnightblue" d="M79.5,-544.01C79.5,-534.96 79.5,-525.38 79.5,-516.58"/>
<polygon fill="none" stroke="midnightblue" points="76,-544.3 79.5,-554.3 83,-544.3 76,-544.3"/>
</g>
<!-- Node6 -->
<g id="node6" class="node">
<title>Node6</title>
<g id="a_node6"><a xlink:href="structtvm_1_1tirx_1_1ExecSplit.html" target="_top" xlink:title="One scope_switch split. Fields are sparse dicts keyed by active&#45;set axis name, e.g....">
<polygon fill="white" stroke="black" points="153,-177 153,-245 262,-245 262,-177 153,-177"/>
<text text-anchor="middle" x="207.5" y="-233" font-family="Helvetica,sans-Serif" font-size="10.00">tvm::tirx::ExecSplit</text>
<polyline fill="none" stroke="black" points="153,-226 262,-226 "/>
<text text-anchor="start" x="161" y="-214" font-family="Helvetica,sans-Serif" font-size="10.00">+ inter</text>
<text text-anchor="start" x="161" y="-203" font-family="Helvetica,sans-Serif" font-size="10.00">+ intra</text>
<polyline fill="none" stroke="black" points="153,-196 262,-196 "/>
<text text-anchor="middle" x="207.5" y="-184" font-family="Helvetica,sans-Serif" font-size="10.00"> </text>
</a>
</g>
</g>
<!-- Node6&#45;&gt;Node1 -->
<g id="edge5" class="edge">
<title>Node6&#45;&gt;Node1</title>
<path fill="none" stroke="#404040" d="M200.56,-176.91C197.33,-161.53 193.37,-142.66 189.56,-124.5"/>
<polygon fill="none" stroke="#404040" points="189.55,-124.46 184.4,-119.41 187.09,-112.71 192.23,-117.76 189.55,-124.46"/>
<text text-anchor="middle" x="208" y="-134" font-family="Helvetica,sans-Serif" font-size="10.00"> +split</text>
</g>
</g>
</svg>
