<?xml version="1.0" encoding="UTF-8" standalone="no"?>
<!DOCTYPE svg PUBLIC "-//W3C//DTD SVG 1.1//EN"
 "http://www.w3.org/Graphics/SVG/1.1/DTD/svg11.dtd">
<!-- Generated by graphviz version 2.43.0 (0)
 -->
<!-- Title: tvm::relax::distributed::Axis Pages: 1 -->
<svg width="427pt" height="587pt"
 viewBox="0.00 0.00 426.50 587.00" xmlns="http://www.w3.org/2000/svg" xmlns:xlink="http://www.w3.org/1999/xlink">
<g id="graph0" class="graph" transform="scale(1 1) rotate(0) translate(4 583)">
<title>tvm::relax::distributed::Axis</title>
<polygon fill="white" stroke="transparent" points="-4,4 -4,-583 422.5,-583 422.5,4 -4,4"/>
<!-- Node1 -->
<g id="node1" class="node">
<title>Node1</title>
<g id="a_node1"><a xlink:title="tensor axis">
<polygon fill="#bfbfbf" stroke="black" points="99.5,-0.5 99.5,-90.5 224.5,-90.5 224.5,-0.5 99.5,-0.5"/>
<text text-anchor="start" x="107.5" y="-78.5" font-family="Helvetica,sans-Serif" font-size="10.00">tvm::relax::distributed</text>
<text text-anchor="middle" x="162" y="-67.5" font-family="Helvetica,sans-Serif" font-size="10.00">::Axis</text>
<polyline fill="none" stroke="black" points="99.5,-60.5 224.5,-60.5 "/>
<text text-anchor="start" x="107.5" y="-48.5" font-family="Helvetica,sans-Serif" font-size="10.00">+ dim</text>
<text text-anchor="start" x="107.5" y="-37.5" font-family="Helvetica,sans-Serif" font-size="10.00">+ tuple_index</text>
<polyline fill="none" stroke="black" points="99.5,-30.5 224.5,-30.5 "/>
<text text-anchor="start" x="107.5" y="-18.5" font-family="Helvetica,sans-Serif" font-size="10.00">+ Axis()</text>
<text text-anchor="start" x="107.5" y="-7.5" font-family="Helvetica,sans-Serif" font-size="10.00">+ operator==()</text>
</a>
</g>
</g>
<!-- Node2 -->
<g id="node2" class="node">
<title>Node2</title>
<g id="a_node2"><a xlink:href="classtvm_1_1RelaxExprNode.html" target="_top" xlink:title="Base node of all non&#45;primitive expressions.">
<polygon fill="white" stroke="black" points="81,-138.5 81,-217.5 243,-217.5 243,-138.5 81,-138.5"/>
<text text-anchor="middle" x="162" y="-205.5" font-family="Helvetica,sans-Serif" font-size="10.00">tvm::RelaxExprNode</text>
<polyline fill="none" stroke="black" points="81,-198.5 243,-198.5 "/>
<text text-anchor="start" x="89" y="-186.5" font-family="Helvetica,sans-Serif" font-size="10.00">+ _type_child_slots</text>
<polyline fill="none" stroke="black" points="81,-179.5 243,-179.5 "/>
<text text-anchor="start" x="89" y="-167.5" font-family="Helvetica,sans-Serif" font-size="10.00">+ TVM_FFI_DECLARE_OBJECT</text>
<text text-anchor="start" x="89" y="-156.5" font-family="Helvetica,sans-Serif" font-size="10.00">_INFO()</text>
<text text-anchor="start" x="89" y="-145.5" font-family="Helvetica,sans-Serif" font-size="10.00">+ RegisterReflection()</text>
</a>
</g>
</g>
<!-- Node2&#45;&gt;Node1 -->
<g id="edge1" class="edge">
<title>Node2&#45;&gt;Node1</title>
<path fill="none" stroke="#404040" d="M162,-138.2C162,-127.16 162,-114.9 162,-103.04"/>
<polygon fill="none" stroke="#404040" points="162,-102.88 158,-96.88 162,-90.88 166,-96.88 162,-102.88"/>
<text text-anchor="middle" x="183.5" y="-112" font-family="Helvetica,sans-Serif" font-size="10.00"> +tensor</text>
</g>
<!-- Node3 -->
<g id="node3" class="node">
<title>Node3</title>
<g id="a_node3"><a xlink:href="classtvm_1_1BaseExprNode.html" target="_top" xlink:title="Base type of all the expressions.">
<polygon fill="white" stroke="black" points="81,-255.5 81,-345.5 243,-345.5 243,-255.5 81,-255.5"/>
<text text-anchor="middle" x="162" y="-333.5" font-family="Helvetica,sans-Serif" font-size="10.00">tvm::BaseExprNode</text>
<polyline fill="none" stroke="black" points="81,-326.5 243,-326.5 "/>
<text text-anchor="start" x="89" y="-314.5" font-family="Helvetica,sans-Serif" font-size="10.00">+ _type_s_eq_hash_kind</text>
<text text-anchor="start" x="89" y="-303.5" font-family="Helvetica,sans-Serif" font-size="10.00">+ _type_child_slots</text>
<polyline fill="none" stroke="black" points="81,-296.5 243,-296.5 "/>
<text text-anchor="start" x="89" y="-284.5" font-family="Helvetica,sans-Serif" font-size="10.00">+ TVM_FFI_DECLARE_OBJECT</text>
<text text-anchor="start" x="89" y="-273.5" font-family="Helvetica,sans-Serif" font-size="10.00">_INFO()</text>
<text text-anchor="start" x="89" y="-262.5" font-family="Helvetica,sans-Serif" font-size="10.00">+ RegisterReflection()</text>
</a>
</g>
</g>
<!-- Node3&#45;&gt;Node2 -->
<g id="edge2" class="edge">
<title>Node3&#45;&gt;Node2</title>
<path fill="none" stroke="midnightblue" d="M162,-245.3C162,-235.97 162,-226.43 162,-217.61"/>
<polygon fill="none" stroke="midnightblue" points="158.5,-245.31 162,-255.31 165.5,-245.31 158.5,-245.31"/>
</g>
<!-- Node4 -->
<g id="node4" class="node">
<title>Node4</title>
<g id="a_node4"><a xlink:title=" ">
<polygon fill="white" stroke="#bfbfbf" points="0,-410 0,-467 64,-467 64,-410 0,-410"/>
<text text-anchor="middle" x="32" y="-455" font-family="Helvetica,sans-Serif" font-size="10.00">ffi::Object</text>
<polyline fill="none" stroke="#bfbfbf" points="0,-448 64,-448 "/>
<text text-anchor="middle" x="32" y="-436" font-family="Helvetica,sans-Serif" font-size="10.00"> </text>
<polyline fill="none" stroke="#bfbfbf" points="0,-429 64,-429 "/>
<text text-anchor="middle" x="32" y="-417" font-family="Helvetica,sans-Serif" font-size="10.00"> </text>
</a>
</g>
</g>
<!-- Node4&#45;&gt;Node3 -->
<g id="edge3" class="edge">
<title>Node4&#45;&gt;Node3</title>
<path fill="none" stroke="midnightblue" d="M64.28,-402.29C67.22,-399.14 70.16,-396 73,-393 87.63,-377.55 103.8,-360.82 118.3,-345.94"/>
<polygon fill="none" stroke="midnightblue" points="61.71,-399.91 57.47,-409.62 66.84,-404.67 61.71,-399.91"/>
</g>
<!-- Node5 -->
<g id="node5" class="node">
<title>Node5</title>
<g id="a_node5"><a xlink:href="classtvm_1_1Span.html" target="_top" xlink:title=" ">
<polygon fill="white" stroke="black" points="82.5,-393.5 82.5,-483.5 241.5,-483.5 241.5,-393.5 82.5,-393.5"/>
<text text-anchor="middle" x="162" y="-471.5" font-family="Helvetica,sans-Serif" font-size="10.00">tvm::Span</text>
<polyline fill="none" stroke="black" points="82.5,-464.5 241.5,-464.5 "/>
<text text-anchor="middle" x="162" y="-452.5" font-family="Helvetica,sans-Serif" font-size="10.00"> </text>
<polyline fill="none" stroke="black" points="82.5,-445.5 241.5,-445.5 "/>
<text text-anchor="start" x="90.5" y="-433.5" font-family="Helvetica,sans-Serif" font-size="10.00">+ Span()</text>
<text text-anchor="start" x="90.5" y="-422.5" font-family="Helvetica,sans-Serif" font-size="10.00">+ Merge()</text>
<text text-anchor="start" x="90.5" y="-411.5" font-family="Helvetica,sans-Serif" font-size="10.00">+ TVM_FFI_DEFINE_OBJECT</text>
<text text-anchor="start" x="90.5" y="-400.5" font-family="Helvetica,sans-Serif" font-size="10.00">_REF_METHODS_NULLABLE()</text>
</a>
</g>
</g>
<!-- Node5&#45;&gt;Node3 -->
<g id="edge4" class="edge">
<title>Node5&#45;&gt;Node3</title>
<path fill="none" stroke="#404040" d="M162,-393.34C162,-382.06 162,-369.78 162,-357.97"/>
<polygon fill="none" stroke="#404040" points="162,-357.9 158,-351.9 162,-345.9 166,-351.9 162,-357.9"/>
<text text-anchor="middle" x="179.5" y="-367" font-family="Helvetica,sans-Serif" font-size="10.00"> +span</text>
</g>
<!-- Node6 -->
<g id="node6" class="node">
<title>Node6</title>
<g id="a_node6"><a xlink:title=" ">
<polygon fill="white" stroke="#bfbfbf" points="210,-521.5 210,-578.5 290,-578.5 290,-521.5 210,-521.5"/>
<text text-anchor="middle" x="250" y="-566.5" font-family="Helvetica,sans-Serif" font-size="10.00">ffi::ObjectRef</text>
<polyline fill="none" stroke="#bfbfbf" points="210,-559.5 290,-559.5 "/>
<text text-anchor="middle" x="250" y="-547.5" font-family="Helvetica,sans-Serif" font-size="10.00"> </text>
<polyline fill="none" stroke="#bfbfbf" points="210,-540.5 290,-540.5 "/>
<text text-anchor="middle" x="250" y="-528.5" font-family="Helvetica,sans-Serif" font-size="10.00"> </text>
</a>
</g>
</g>
<!-- Node6&#45;&gt;Node5 -->
<g id="edge5" class="edge">
<title>Node6&#45;&gt;Node5</title>
<path fill="none" stroke="midnightblue" d="M221.33,-513.33C213.74,-503.89 205.46,-493.58 197.56,-483.74"/>
<polygon fill="none" stroke="midnightblue" points="218.8,-515.77 227.79,-521.37 224.26,-511.38 218.8,-515.77"/>
</g>
<!-- Node7 -->
<g id="node7" class="node">
<title>Node7</title>
<g id="a_node7"><a xlink:href="classtvm_1_1Type.html" target="_top" xlink:title="Managed reference to TypeNode.">
<polygon fill="white" stroke="black" points="259.5,-404.5 259.5,-472.5 418.5,-472.5 418.5,-404.5 259.5,-404.5"/>
<text text-anchor="middle" x="339" y="-460.5" font-family="Helvetica,sans-Serif" font-size="10.00">tvm::Type</text>
<polyline fill="none" stroke="black" points="259.5,-453.5 418.5,-453.5 "/>
<text text-anchor="middle" x="339" y="-441.5" font-family="Helvetica,sans-Serif" font-size="10.00"> </text>
<polyline fill="none" stroke="black" points="259.5,-434.5 418.5,-434.5 "/>
<text text-anchor="start" x="267.5" y="-422.5" font-family="Helvetica,sans-Serif" font-size="10.00">+ TVM_FFI_DEFINE_OBJECT</text>
<text text-anchor="start" x="267.5" y="-411.5" font-family="Helvetica,sans-Serif" font-size="10.00">_REF_METHODS_NULLABLE()</text>
</a>
</g>
</g>
<!-- Node6&#45;&gt;Node7 -->
<g id="edge7" class="edge">
<title>Node6&#45;&gt;Node7</title>
<path fill="none" stroke="midnightblue" d="M278.9,-513.44C289.58,-500.31 301.62,-485.49 312.11,-472.59"/>
<polygon fill="none" stroke="midnightblue" points="276.05,-511.4 272.46,-521.37 281.48,-515.82 276.05,-511.4"/>
</g>
<!-- Node7&#45;&gt;Node3 -->
<g id="edge6" class="edge">
<title>Node7&#45;&gt;Node3</title>
<path fill="none" stroke="#404040" d="M295.7,-404.23C275.73,-388.89 251.56,-370.32 229.3,-353.21"/>
<polygon fill="none" stroke="#404040" points="229.07,-353.04 221.88,-352.55 219.56,-345.73 226.75,-346.21 229.07,-353.04"/>
<text text-anchor="middle" x="266" y="-367" font-family="Helvetica,sans-Serif" font-size="10.00"> +ty</text>
</g>
</g>
</svg>
