<?xml version="1.0" encoding="UTF-8" standalone="no"?>
<!DOCTYPE svg PUBLIC "-//W3C//DTD SVG 1.1//EN"
 "http://www.w3.org/Graphics/SVG/1.1/DTD/svg11.dtd">
<!-- Generated by graphviz version 2.43.0 (0)
 -->
<!-- Title: tvm::relax::LayoutTransformAttrs Pages: 1 -->
<svg width="348pt" height="409pt"
 viewBox="0.00 0.00 347.50 409.00" xmlns="http://www.w3.org/2000/svg" xmlns:xlink="http://www.w3.org/1999/xlink">
<g id="graph0" class="graph" transform="scale(1 1) rotate(0) translate(4 405)">
<title>tvm::relax::LayoutTransformAttrs</title>
<polygon fill="white" stroke="transparent" points="-4,4 -4,-405 343.5,-405 343.5,4 -4,4"/>
<!-- Node1 -->
<g id="node1" class="node">
<title>Node1</title>
<g id="a_node1"><a xlink:title="Attributes used in layout_transform operator.">
<polygon fill="#bfbfbf" stroke="black" points="89,-0.5 89,-112.5 251,-112.5 251,-0.5 89,-0.5"/>
<text text-anchor="start" x="97" y="-100.5" font-family="Helvetica,sans-Serif" font-size="10.00">tvm::relax::LayoutTransform</text>
<text text-anchor="middle" x="170" y="-89.5" font-family="Helvetica,sans-Serif" font-size="10.00">Attrs</text>
<polyline fill="none" stroke="black" points="89,-82.5 251,-82.5 "/>
<text text-anchor="start" x="97" y="-70.5" font-family="Helvetica,sans-Serif" font-size="10.00">+ pad_value</text>
<text text-anchor="start" x="97" y="-59.5" font-family="Helvetica,sans-Serif" font-size="10.00">+ axis_separators</text>
<text text-anchor="start" x="97" y="-48.5" font-family="Helvetica,sans-Serif" font-size="10.00">+ input_axis_separators</text>
<polyline fill="none" stroke="black" points="89,-41.5 251,-41.5 "/>
<text text-anchor="start" x="97" y="-29.5" font-family="Helvetica,sans-Serif" font-size="10.00">+ TVM_FFI_DECLARE_OBJECT</text>
<text text-anchor="start" x="97" y="-18.5" font-family="Helvetica,sans-Serif" font-size="10.00">_INFO_FINAL()</text>
<text text-anchor="start" x="97" y="-7.5" font-family="Helvetica,sans-Serif" font-size="10.00">+ RegisterReflection()</text>
</a>
</g>
</g>
<!-- Node2 -->
<g id="node2" class="node">
<title>Node2</title>
<g id="a_node2"><a xlink:href="classtvm_1_1AttrsNode.html" target="_top" xlink:title="Base class of all attribute class.">
<polygon fill="white" stroke="black" points="0,-199 0,-267 162,-267 162,-199 0,-199"/>
<text text-anchor="middle" x="81" y="-255" font-family="Helvetica,sans-Serif" font-size="10.00">tvm::AttrsNode</text>
<polyline fill="none" stroke="black" points="0,-248 162,-248 "/>
<text text-anchor="start" x="8" y="-236" font-family="Helvetica,sans-Serif" font-size="10.00">+ _type_s_eq_hash_kind</text>
<polyline fill="none" stroke="black" points="0,-229 162,-229 "/>
<text text-anchor="start" x="8" y="-217" font-family="Helvetica,sans-Serif" font-size="10.00">+ TVM_FFI_DECLARE_OBJECT</text>
<text text-anchor="start" x="8" y="-206" font-family="Helvetica,sans-Serif" font-size="10.00">_INFO()</text>
</a>
</g>
</g>
<!-- Node2&#45;&gt;Node1 -->
<g id="edge1" class="edge">
<title>Node2&#45;&gt;Node1</title>
<path fill="none" stroke="midnightblue" d="M102.49,-189.86C114.33,-166.65 129.17,-137.56 141.91,-112.57"/>
<polygon fill="none" stroke="midnightblue" points="99.38,-188.27 97.95,-198.77 105.61,-191.45 99.38,-188.27"/>
</g>
<!-- Node3 -->
<g id="node3" class="node">
<title>Node3</title>
<g id="a_node3"><a xlink:title=" ">
<polygon fill="white" stroke="#bfbfbf" points="49,-343.5 49,-400.5 113,-400.5 113,-343.5 49,-343.5"/>
<text text-anchor="middle" x="81" y="-388.5" font-family="Helvetica,sans-Serif" font-size="10.00">ffi::Object</text>
<polyline fill="none" stroke="#bfbfbf" points="49,-381.5 113,-381.5 "/>
<text text-anchor="middle" x="81" y="-369.5" font-family="Helvetica,sans-Serif" font-size="10.00"> </text>
<polyline fill="none" stroke="#bfbfbf" points="49,-362.5 113,-362.5 "/>
<text text-anchor="middle" x="81" y="-350.5" font-family="Helvetica,sans-Serif" font-size="10.00"> </text>
</a>
</g>
</g>
<!-- Node3&#45;&gt;Node2 -->
<g id="edge2" class="edge">
<title>Node3&#45;&gt;Node2</title>
<path fill="none" stroke="midnightblue" d="M81,-333C81,-312.45 81,-287.3 81,-267.49"/>
<polygon fill="none" stroke="midnightblue" points="77.5,-333.28 81,-343.28 84.5,-333.28 77.5,-333.28"/>
</g>
<!-- Node4 -->
<g id="node4" class="node">
<title>Node4</title>
<g id="a_node4"><a xlink:href="classtvm_1_1tirx_1_1IndexMap.html" target="_top" xlink:title=" ">
<polygon fill="white" stroke="black" points="180.5,-160.5 180.5,-305.5 339.5,-305.5 339.5,-160.5 180.5,-160.5"/>
<text text-anchor="middle" x="260" y="-293.5" font-family="Helvetica,sans-Serif" font-size="10.00">tvm::tirx::IndexMap</text>
<polyline fill="none" stroke="black" points="180.5,-286.5 339.5,-286.5 "/>
<text text-anchor="middle" x="260" y="-274.5" font-family="Helvetica,sans-Serif" font-size="10.00"> </text>
<polyline fill="none" stroke="black" points="180.5,-267.5 339.5,-267.5 "/>
<text text-anchor="start" x="188.5" y="-255.5" font-family="Helvetica,sans-Serif" font-size="10.00">+ IndexMap()</text>
<text text-anchor="start" x="188.5" y="-244.5" font-family="Helvetica,sans-Serif" font-size="10.00">+ Inverse()</text>
<text text-anchor="start" x="188.5" y="-233.5" font-family="Helvetica,sans-Serif" font-size="10.00">+ Inverse()</text>
<text text-anchor="start" x="188.5" y="-222.5" font-family="Helvetica,sans-Serif" font-size="10.00">+ RenameVariables()</text>
<text text-anchor="start" x="188.5" y="-211.5" font-family="Helvetica,sans-Serif" font-size="10.00">+ NonSurjectiveInverse()</text>
<text text-anchor="start" x="188.5" y="-200.5" font-family="Helvetica,sans-Serif" font-size="10.00">+ NonSurjectiveInverse()</text>
<text text-anchor="start" x="188.5" y="-189.5" font-family="Helvetica,sans-Serif" font-size="10.00">+ TVM_FFI_DEFINE_OBJECT</text>
<text text-anchor="start" x="188.5" y="-178.5" font-family="Helvetica,sans-Serif" font-size="10.00">_REF_METHODS_NULLABLE()</text>
<text text-anchor="start" x="188.5" y="-167.5" font-family="Helvetica,sans-Serif" font-size="10.00">+ FromFunc()</text>
</a>
</g>
</g>
<!-- Node4&#45;&gt;Node1 -->
<g id="edge3" class="edge">
<title>Node4&#45;&gt;Node1</title>
<path fill="none" stroke="#404040" d="M223,-160.27C216.73,-148.11 210.24,-135.53 204.05,-123.52"/>
<polygon fill="none" stroke="#404040" points="203.96,-123.35 197.66,-119.85 198.46,-112.68 204.77,-116.18 203.96,-123.35"/>
<text text-anchor="middle" x="246" y="-134" font-family="Helvetica,sans-Serif" font-size="10.00"> +index_map</text>
</g>
<!-- Node5 -->
<g id="node5" class="node">
<title>Node5</title>
<g id="a_node5"><a xlink:title=" ">
<polygon fill="white" stroke="#bfbfbf" points="220,-343.5 220,-400.5 300,-400.5 300,-343.5 220,-343.5"/>
<text text-anchor="middle" x="260" y="-388.5" font-family="Helvetica,sans-Serif" font-size="10.00">ffi::ObjectRef</text>
<polyline fill="none" stroke="#bfbfbf" points="220,-381.5 300,-381.5 "/>
<text text-anchor="middle" x="260" y="-369.5" font-family="Helvetica,sans-Serif" font-size="10.00"> </text>
<polyline fill="none" stroke="#bfbfbf" points="220,-362.5 300,-362.5 "/>
<text text-anchor="middle" x="260" y="-350.5" font-family="Helvetica,sans-Serif" font-size="10.00"> </text>
</a>
</g>
</g>
<!-- Node5&#45;&gt;Node4 -->
<g id="edge4" class="edge">
<title>Node5&#45;&gt;Node4</title>
<path fill="none" stroke="midnightblue" d="M260,-333.21C260,-324.58 260,-315.14 260,-305.61"/>
<polygon fill="none" stroke="midnightblue" points="256.5,-333.28 260,-343.28 263.5,-333.28 256.5,-333.28"/>
</g>
</g>
</svg>
