<?xml version="1.0" encoding="UTF-8" standalone="no"?>
<!DOCTYPE svg PUBLIC "-//W3C//DTD SVG 1.1//EN"
 "http://www.w3.org/Graphics/SVG/1.1/DTD/svg11.dtd">
<!-- Generated by graphviz version 2.43.0 (0)
 -->
<!-- Title: include/tvm/target/target.h Pages: 1 -->
<svg width="2440pt" height="408pt"
 viewBox="0.00 0.00 2440.00 408.00" xmlns="http://www.w3.org/2000/svg" xmlns:xlink="http://www.w3.org/1999/xlink">
<g id="graph0" class="graph" transform="scale(1 1) rotate(0) translate(4 404)">
<title>include/tvm/target/target.h</title>
<polygon fill="white" stroke="transparent" points="-4,4 -4,-404 2436,-404 2436,4 -4,4"/>
<!-- Node1 -->
<g id="node1" class="node">
<title>Node1</title>
<g id="a_node1"><a xlink:title="Compilation target object.">
<polygon fill="#bfbfbf" stroke="black" points="1451,-369.5 1451,-399.5 1558,-399.5 1558,-369.5 1451,-369.5"/>
<text text-anchor="start" x="1459" y="-387.5" font-family="Helvetica,sans-Serif" font-size="10.00">include/tvm/target</text>
<text text-anchor="middle" x="1504.5" y="-376.5" font-family="Helvetica,sans-Serif" font-size="10.00">/target.h</text>
</a>
</g>
</g>
<!-- Node2 -->
<g id="node2" class="node">
<title>Node2</title>
<g id="a_node2"><a xlink:title=" ">
<polygon fill="white" stroke="#bfbfbf" points="955.5,-56.5 955.5,-86.5 1053.5,-86.5 1053.5,-56.5 955.5,-56.5"/>
<text text-anchor="start" x="963.5" y="-74.5" font-family="Helvetica,sans-Serif" font-size="10.00">tvm/ffi/reflection</text>
<text text-anchor="middle" x="1004.5" y="-63.5" font-family="Helvetica,sans-Serif" font-size="10.00">/registry.h</text>
</a>
</g>
</g>
<!-- Node1&#45;&gt;Node2 -->
<g id="edge1" class="edge">
<title>Node1&#45;&gt;Node2</title>
<path fill="none" stroke="midnightblue" d="M1450.81,-376.95C1347.14,-363.28 1124.74,-328.63 1069.5,-277 1017.8,-228.68 1007.03,-139.47 1004.92,-96.66"/>
<polygon fill="midnightblue" stroke="midnightblue" points="1008.42,-96.45 1004.55,-86.59 1001.42,-96.71 1008.42,-96.45"/>
</g>
<!-- Node3 -->
<g id="node3" class="node">
<title>Node3</title>
<g id="a_node3"><a xlink:href="ir_2expr_8h.html" target="_top" xlink:title="Base expr nodes in TVM.">
<polygon fill="white" stroke="black" points="1533,-196 1533,-215 1612,-215 1612,-196 1533,-196"/>
<text text-anchor="middle" x="1572.5" y="-203" font-family="Helvetica,sans-Serif" font-size="10.00">tvm/ir/expr.h</text>
</a>
</g>
</g>
<!-- Node1&#45;&gt;Node3 -->
<g id="edge2" class="edge">
<title>Node1&#45;&gt;Node3</title>
<path fill="none" stroke="midnightblue" d="M1528.03,-369.49C1540.54,-360.69 1554.87,-348.14 1562.5,-333 1580.03,-298.19 1578.11,-251.08 1575.25,-225.3"/>
<polygon fill="midnightblue" stroke="midnightblue" points="1578.68,-224.54 1573.93,-215.07 1571.74,-225.43 1578.68,-224.54"/>
</g>
<!-- Node15 -->
<g id="node15" class="node">
<title>Node15</title>
<g id="a_node15"><a xlink:title=" ">
<polygon fill="white" stroke="#bfbfbf" points="2066.5,-62 2066.5,-81 2110.5,-81 2110.5,-62 2066.5,-62"/>
<text text-anchor="middle" x="2088.5" y="-69" font-family="Helvetica,sans-Serif" font-size="10.00">string</text>
</a>
</g>
</g>
<!-- Node1&#45;&gt;Node15 -->
<g id="edge86" class="edge">
<title>Node1&#45;&gt;Node15</title>
<path fill="none" stroke="midnightblue" d="M1558.19,-380.29C1721.87,-369.79 2203.5,-333.34 2203.5,-268 2203.5,-268 2203.5,-268 2203.5,-204.5 2203.5,-150.05 2147.18,-107.16 2113.36,-86.32"/>
<polygon fill="midnightblue" stroke="midnightblue" points="2114.87,-83.15 2104.49,-81.04 2111.29,-89.16 2114.87,-83.15"/>
</g>
<!-- Node26 -->
<g id="node26" class="node">
<title>Node26</title>
<g id="a_node26"><a xlink:href="ir_2function_8h.html" target="_top" xlink:title="Function nodes.">
<polygon fill="white" stroke="black" points="1455.5,-313.5 1455.5,-332.5 1553.5,-332.5 1553.5,-313.5 1455.5,-313.5"/>
<text text-anchor="middle" x="1504.5" y="-320.5" font-family="Helvetica,sans-Serif" font-size="10.00">tvm/ir/function.h</text>
</a>
</g>
</g>
<!-- Node1&#45;&gt;Node26 -->
<g id="edge32" class="edge">
<title>Node1&#45;&gt;Node26</title>
<path fill="none" stroke="midnightblue" d="M1504.5,-369.4C1504.5,-361.47 1504.5,-351.46 1504.5,-342.86"/>
<polygon fill="midnightblue" stroke="midnightblue" points="1508,-342.66 1504.5,-332.66 1501,-342.66 1508,-342.66"/>
</g>
<!-- Node32 -->
<g id="node32" class="node">
<title>Node32</title>
<g id="a_node32"><a xlink:href="with__context_8h.html" target="_top" xlink:title="RAII wrapper function to enter and exit a context object similar to python&#39;s with syntax.">
<polygon fill="white" stroke="black" points="679,-196 679,-215 800,-215 800,-196 679,-196"/>
<text text-anchor="middle" x="739.5" y="-203" font-family="Helvetica,sans-Serif" font-size="10.00">tvm/ir/with_context.h</text>
</a>
</g>
</g>
<!-- Node1&#45;&gt;Node32 -->
<g id="edge51" class="edge">
<title>Node1&#45;&gt;Node32</title>
<path fill="none" stroke="midnightblue" d="M1450.59,-381.15C1333.64,-375.6 1060.05,-360.08 971.5,-333 887.02,-307.16 798.37,-248.62 759.62,-221.19"/>
<polygon fill="midnightblue" stroke="midnightblue" points="761.45,-218.21 751.29,-215.23 757.38,-223.9 761.45,-218.21"/>
</g>
<!-- Node35 -->
<g id="node35" class="node">
<title>Node35</title>
<g id="a_node35"><a xlink:href="device__api_8h.html" target="_top" xlink:title="Abstract device memory management API.">
<polygon fill="white" stroke="black" points="2232,-123.5 2232,-153.5 2345,-153.5 2345,-123.5 2232,-123.5"/>
<text text-anchor="start" x="2240" y="-141.5" font-family="Helvetica,sans-Serif" font-size="10.00">tvm/runtime/device</text>
<text text-anchor="middle" x="2288.5" y="-130.5" font-family="Helvetica,sans-Serif" font-size="10.00">_api.h</text>
</a>
</g>
</g>
<!-- Node1&#45;&gt;Node35 -->
<g id="edge57" class="edge">
<title>Node1&#45;&gt;Node35</title>
<path fill="none" stroke="midnightblue" d="M1558.28,-383.01C1715.28,-381.13 2165.22,-372.33 2217.5,-333 2271.58,-292.32 2284.5,-206.16 2287.57,-163.9"/>
<polygon fill="midnightblue" stroke="midnightblue" points="2291.07,-163.88 2288.17,-153.69 2284.09,-163.46 2291.07,-163.88"/>
</g>
<!-- Node38 -->
<g id="node38" class="node">
<title>Node38</title>
<g id="a_node38"><a xlink:href="target__kind_8h.html" target="_top" xlink:title="Target kind registry.">
<polygon fill="white" stroke="black" points="479.5,-196 479.5,-215 615.5,-215 615.5,-196 479.5,-196"/>
<text text-anchor="middle" x="547.5" y="-203" font-family="Helvetica,sans-Serif" font-size="10.00">tvm/target/target_kind.h</text>
</a>
</g>
</g>
<!-- Node1&#45;&gt;Node38 -->
<g id="edge64" class="edge">
<title>Node1&#45;&gt;Node38</title>
<path fill="none" stroke="midnightblue" d="M1450.66,-383.28C1346.27,-381.89 1109.55,-374.02 915.5,-333 785.27,-305.47 637.51,-245.38 576.35,-219.16"/>
<polygon fill="midnightblue" stroke="midnightblue" points="577.53,-215.86 566.96,-215.11 574.76,-222.29 577.53,-215.86"/>
</g>
<!-- Node3&#45;&gt;Node2 -->
<g id="edge4" class="edge">
<title>Node3&#45;&gt;Node2</title>
<path fill="none" stroke="midnightblue" d="M1532.55,-198.64C1477.67,-190.3 1376.03,-173.79 1290.5,-154 1246.99,-143.93 1131.69,-110.25 1061.49,-89.47"/>
<polygon fill="midnightblue" stroke="midnightblue" points="1062.05,-85.99 1051.47,-86.51 1060.06,-92.7 1062.05,-85.99"/>
</g>
<!-- Node4 -->
<g id="node4" class="node">
<title>Node4</title>
<g id="a_node4"><a xlink:title=" ">
<polygon fill="white" stroke="#bfbfbf" points="1743.5,-129 1743.5,-148 1879.5,-148 1879.5,-129 1743.5,-129"/>
<text text-anchor="middle" x="1811.5" y="-136" font-family="Helvetica,sans-Serif" font-size="10.00">tvm/ffi/extra/dataclass.h</text>
</a>
</g>
</g>
<!-- Node3&#45;&gt;Node4 -->
<g id="edge3" class="edge">
<title>Node3&#45;&gt;Node4</title>
<path fill="none" stroke="midnightblue" d="M1604.24,-195.87C1646.94,-184.25 1722.98,-163.58 1770.12,-150.75"/>
<polygon fill="midnightblue" stroke="midnightblue" points="1771.28,-154.07 1780.01,-148.06 1769.44,-147.31 1771.28,-154.07"/>
</g>
<!-- Node5 -->
<g id="node5" class="node">
<title>Node5</title>
<g id="a_node5"><a xlink:title=" ">
<polygon fill="white" stroke="#bfbfbf" points="1494,-62 1494,-81 1583,-81 1583,-62 1494,-62"/>
<text text-anchor="middle" x="1538.5" y="-69" font-family="Helvetica,sans-Serif" font-size="10.00">tvm/ffi/string.h</text>
</a>
</g>
</g>
<!-- Node3&#45;&gt;Node5 -->
<g id="edge5" class="edge">
<title>Node3&#45;&gt;Node5</title>
<path fill="none" stroke="midnightblue" d="M1570.27,-195.84C1564.82,-174.67 1550.72,-119.95 1543.27,-91.03"/>
<polygon fill="midnightblue" stroke="midnightblue" points="1546.58,-89.83 1540.69,-81.02 1539.8,-91.58 1546.58,-89.83"/>
</g>
<!-- Node6 -->
<g id="node6" class="node">
<title>Node6</title>
<g id="a_node6"><a xlink:href="cow_8h.html" target="_top" xlink:title="Copy&#45;on&#45;write helper macro for IR ffi::ObjectRef types.">
<polygon fill="white" stroke="black" points="1090,-129 1090,-148 1167,-148 1167,-129 1090,-129"/>
<text text-anchor="middle" x="1128.5" y="-136" font-family="Helvetica,sans-Serif" font-size="10.00">tvm/ir/cow.h</text>
</a>
</g>
</g>
<!-- Node3&#45;&gt;Node6 -->
<g id="edge6" class="edge">
<title>Node3&#45;&gt;Node6</title>
<path fill="none" stroke="midnightblue" d="M1532.86,-199.7C1440.35,-188.44 1215.48,-160.81 1181.5,-154 1176.72,-153.04 1171.74,-151.89 1166.83,-150.66"/>
<polygon fill="midnightblue" stroke="midnightblue" points="1167.49,-147.21 1156.93,-148.06 1165.72,-153.98 1167.49,-147.21"/>
</g>
<!-- Node9 -->
<g id="node9" class="node">
<title>Node9</title>
<g id="a_node9"><a xlink:href="source__map_8h.html" target="_top" xlink:title="A map from source names to source code.">
<polygon fill="white" stroke="black" points="1300,-129 1300,-148 1417,-148 1417,-129 1300,-129"/>
<text text-anchor="middle" x="1358.5" y="-136" font-family="Helvetica,sans-Serif" font-size="10.00">tvm/ir/source_map.h</text>
</a>
</g>
</g>
<!-- Node3&#45;&gt;Node9 -->
<g id="edge9" class="edge">
<title>Node3&#45;&gt;Node9</title>
<path fill="none" stroke="midnightblue" d="M1544.08,-195.87C1506.08,-184.33 1438.62,-163.84 1396.35,-151"/>
<polygon fill="midnightblue" stroke="midnightblue" points="1397.28,-147.62 1386.69,-148.06 1395.25,-154.32 1397.28,-147.62"/>
</g>
<!-- Node3&#45;&gt;Node15 -->
<g id="edge30" class="edge">
<title>Node3&#45;&gt;Node15</title>
<path fill="none" stroke="midnightblue" d="M1612.3,-204.31C1710.6,-203.19 1962,-196.17 2032.5,-154 2056.74,-139.5 2072.95,-109.97 2081.45,-90.73"/>
<polygon fill="midnightblue" stroke="midnightblue" points="2084.78,-91.83 2085.37,-81.25 2078.31,-89.15 2084.78,-91.83"/>
</g>
<!-- Node17 -->
<g id="node17" class="node">
<title>Node17</title>
<g id="a_node17"><a xlink:href="data__type_8h.html" target="_top" xlink:title=" ">
<polygon fill="white" stroke="black" points="1587.5,-129 1587.5,-148 1725.5,-148 1725.5,-129 1587.5,-129"/>
<text text-anchor="middle" x="1656.5" y="-136" font-family="Helvetica,sans-Serif" font-size="10.00">tvm/runtime/data_type.h</text>
</a>
</g>
</g>
<!-- Node3&#45;&gt;Node17 -->
<g id="edge19" class="edge">
<title>Node3&#45;&gt;Node17</title>
<path fill="none" stroke="midnightblue" d="M1583.83,-195.73C1597.56,-185.11 1620.9,-167.05 1637.42,-154.26"/>
<polygon fill="midnightblue" stroke="midnightblue" points="1639.58,-157.02 1645.35,-148.13 1635.3,-151.48 1639.58,-157.02"/>
</g>
<!-- Node22 -->
<g id="node22" class="node">
<title>Node22</title>
<g id="a_node22"><a xlink:title=" ">
<polygon fill="white" stroke="#bfbfbf" points="1181,-62 1181,-81 1250,-81 1250,-62 1181,-62"/>
<text text-anchor="middle" x="1215.5" y="-69" font-family="Helvetica,sans-Serif" font-size="10.00">type_traits</text>
</a>
</g>
</g>
<!-- Node3&#45;&gt;Node22 -->
<g id="edge31" class="edge">
<title>Node3&#45;&gt;Node22</title>
<path fill="none" stroke="midnightblue" d="M1560.14,-195.98C1535.59,-179.44 1478.5,-142.9 1425.5,-123 1354.42,-96.3 1331.7,-107.16 1258.5,-87 1255.48,-86.17 1252.37,-85.25 1249.26,-84.28"/>
<polygon fill="midnightblue" stroke="midnightblue" points="1250.05,-80.86 1239.46,-81.11 1247.9,-87.52 1250.05,-80.86"/>
</g>
<!-- Node23 -->
<g id="node23" class="node">
<title>Node23</title>
<g id="a_node23"><a xlink:title=" ">
<polygon fill="white" stroke="#bfbfbf" points="1897.5,-129 1897.5,-148 1961.5,-148 1961.5,-129 1897.5,-129"/>
<text text-anchor="middle" x="1929.5" y="-136" font-family="Helvetica,sans-Serif" font-size="10.00">algorithm</text>
</a>
</g>
</g>
<!-- Node3&#45;&gt;Node23 -->
<g id="edge27" class="edge">
<title>Node3&#45;&gt;Node23</title>
<path fill="none" stroke="midnightblue" d="M1612.13,-200.5C1672.46,-193.9 1790.64,-178.9 1888.5,-154 1891.55,-153.22 1894.69,-152.32 1897.81,-151.34"/>
<polygon fill="midnightblue" stroke="midnightblue" points="1899.22,-154.56 1907.6,-148.07 1897,-147.92 1899.22,-154.56"/>
</g>
<!-- Node24 -->
<g id="node24" class="node">
<title>Node24</title>
<g id="a_node24"><a xlink:title=" ">
<polygon fill="white" stroke="#bfbfbf" points="930,-129 930,-148 995,-148 995,-129 930,-129"/>
<text text-anchor="middle" x="962.5" y="-136" font-family="Helvetica,sans-Serif" font-size="10.00">functional</text>
</a>
</g>
</g>
<!-- Node3&#45;&gt;Node24 -->
<g id="edge28" class="edge">
<title>Node3&#45;&gt;Node24</title>
<path fill="none" stroke="midnightblue" d="M1532.79,-199.76C1508,-196.84 1475.4,-193.08 1446.5,-190 1283.97,-172.66 1242.96,-171.97 1080.5,-154 1055.53,-151.24 1027.63,-147.82 1005.23,-145"/>
<polygon fill="midnightblue" stroke="midnightblue" points="1005.39,-141.5 995.03,-143.71 1004.51,-148.44 1005.39,-141.5"/>
</g>
<!-- Node25 -->
<g id="node25" class="node">
<title>Node25</title>
<g id="a_node25"><a xlink:title=" ">
<polygon fill="white" stroke="#bfbfbf" points="1979.5,-129 1979.5,-148 2023.5,-148 2023.5,-129 1979.5,-129"/>
<text text-anchor="middle" x="2001.5" y="-136" font-family="Helvetica,sans-Serif" font-size="10.00">limits</text>
</a>
</g>
</g>
<!-- Node3&#45;&gt;Node25 -->
<g id="edge29" class="edge">
<title>Node3&#45;&gt;Node25</title>
<path fill="none" stroke="midnightblue" d="M1612.02,-203.53C1684.48,-200.88 1842.88,-190.95 1970.5,-154 1972.43,-153.44 1974.38,-152.78 1976.33,-152.05"/>
<polygon fill="midnightblue" stroke="midnightblue" points="1977.96,-155.16 1985.78,-148.01 1975.21,-148.72 1977.96,-155.16"/>
</g>
<!-- Node7 -->
<g id="node7" class="node">
<title>Node7</title>
<g id="a_node7"><a xlink:title=" ">
<polygon fill="white" stroke="#bfbfbf" points="1072,-62 1072,-81 1163,-81 1163,-62 1072,-62"/>
<text text-anchor="middle" x="1117.5" y="-69" font-family="Helvetica,sans-Serif" font-size="10.00">tvm/ffi/object.h</text>
</a>
</g>
</g>
<!-- Node6&#45;&gt;Node7 -->
<g id="edge7" class="edge">
<title>Node6&#45;&gt;Node7</title>
<path fill="none" stroke="midnightblue" d="M1127.02,-128.73C1125.4,-119.18 1122.77,-103.62 1120.68,-91.28"/>
<polygon fill="midnightblue" stroke="midnightblue" points="1124.08,-90.4 1118.96,-81.13 1117.18,-91.57 1124.08,-90.4"/>
</g>
<!-- Node8 -->
<g id="node8" class="node">
<title>Node8</title>
<g id="a_node8"><a xlink:title=" ">
<polygon fill="white" stroke="#bfbfbf" points="681,-62 681,-81 726,-81 726,-62 681,-62"/>
<text text-anchor="middle" x="703.5" y="-69" font-family="Helvetica,sans-Serif" font-size="10.00">utility</text>
</a>
</g>
</g>
<!-- Node6&#45;&gt;Node8 -->
<g id="edge8" class="edge">
<title>Node6&#45;&gt;Node8</title>
<path fill="none" stroke="midnightblue" d="M1089.91,-132.39C1025.77,-123.78 893.21,-105.5 781.5,-87 766.67,-84.54 750.3,-81.54 736.4,-78.91"/>
<polygon fill="midnightblue" stroke="midnightblue" points="736.8,-75.43 726.33,-76.99 735.49,-82.3 736.8,-75.43"/>
</g>
<!-- Node9&#45;&gt;Node2 -->
<g id="edge12" class="edge">
<title>Node9&#45;&gt;Node2</title>
<path fill="none" stroke="midnightblue" d="M1300.68,-128.97C1243,-120.15 1151.66,-105.39 1063.68,-87.16"/>
<polygon fill="midnightblue" stroke="midnightblue" points="1064.31,-83.72 1053.8,-85.1 1062.87,-90.57 1064.31,-83.72"/>
</g>
<!-- Node9&#45;&gt;Node8 -->
<g id="edge17" class="edge">
<title>Node9&#45;&gt;Node8</title>
<path fill="none" stroke="midnightblue" d="M1299.79,-132.69C1163.21,-121.44 831.91,-93.88 781.5,-87 766.6,-84.97 750.22,-82.03 736.34,-79.33"/>
<polygon fill="midnightblue" stroke="midnightblue" points="736.76,-75.85 726.27,-77.33 735.4,-82.71 736.76,-75.85"/>
</g>
<!-- Node10 -->
<g id="node10" class="node">
<title>Node10</title>
<g id="a_node10"><a xlink:title=" ">
<polygon fill="white" stroke="#bfbfbf" points="1341.5,-62 1341.5,-81 1475.5,-81 1475.5,-62 1341.5,-62"/>
<text text-anchor="middle" x="1408.5" y="-69" font-family="Helvetica,sans-Serif" font-size="10.00">tvm/ffi/container/array.h</text>
</a>
</g>
</g>
<!-- Node9&#45;&gt;Node10 -->
<g id="edge10" class="edge">
<title>Node9&#45;&gt;Node10</title>
<path fill="none" stroke="midnightblue" d="M1365.24,-128.73C1373.04,-118.6 1386.05,-101.69 1395.76,-89.06"/>
<polygon fill="midnightblue" stroke="midnightblue" points="1398.54,-91.19 1401.86,-81.13 1392.99,-86.92 1398.54,-91.19"/>
</g>
<!-- Node11 -->
<g id="node11" class="node">
<title>Node11</title>
<g id="a_node11"><a xlink:title=" ">
<polygon fill="white" stroke="#bfbfbf" points="791,-62 791,-81 892,-81 892,-62 791,-62"/>
<text text-anchor="middle" x="841.5" y="-69" font-family="Helvetica,sans-Serif" font-size="10.00">tvm/ffi/function.h</text>
</a>
</g>
</g>
<!-- Node9&#45;&gt;Node11 -->
<g id="edge11" class="edge">
<title>Node9&#45;&gt;Node11</title>
<path fill="none" stroke="midnightblue" d="M1299.79,-130.59C1219.84,-121.11 1072.27,-103.39 946.5,-87 932.26,-85.14 916.94,-83.07 902.52,-81.09"/>
<polygon fill="midnightblue" stroke="midnightblue" points="902.6,-77.56 892.22,-79.66 901.64,-84.5 902.6,-77.56"/>
</g>
<!-- Node12 -->
<g id="node12" class="node">
<title>Node12</title>
<g id="a_node12"><a xlink:href="runtime_2base_8h.html" target="_top" xlink:title=" ">
<polygon fill="white" stroke="black" points="1601,-62 1601,-81 1714,-81 1714,-62 1601,-62"/>
<text text-anchor="middle" x="1657.5" y="-69" font-family="Helvetica,sans-Serif" font-size="10.00">tvm/runtime/base.h</text>
</a>
</g>
</g>
<!-- Node9&#45;&gt;Node12 -->
<g id="edge13" class="edge">
<title>Node9&#45;&gt;Node12</title>
<path fill="none" stroke="midnightblue" d="M1398.08,-128.96C1444.45,-118.94 1523.56,-101.83 1591.5,-87 1597.15,-85.77 1603.08,-84.47 1608.96,-83.18"/>
<polygon fill="midnightblue" stroke="midnightblue" points="1609.75,-86.59 1618.77,-81.03 1608.25,-79.75 1609.75,-86.59"/>
</g>
<!-- Node14 -->
<g id="node14" class="node">
<title>Node14</title>
<g id="a_node14"><a xlink:title=" ">
<polygon fill="white" stroke="#bfbfbf" points="1268,-62 1268,-81 1323,-81 1323,-62 1268,-62"/>
<text text-anchor="middle" x="1295.5" y="-69" font-family="Helvetica,sans-Serif" font-size="10.00">fstream</text>
</a>
</g>
</g>
<!-- Node9&#45;&gt;Node14 -->
<g id="edge15" class="edge">
<title>Node9&#45;&gt;Node14</title>
<path fill="none" stroke="midnightblue" d="M1350,-128.73C1339.99,-118.4 1323.16,-101.04 1310.84,-88.33"/>
<polygon fill="midnightblue" stroke="midnightblue" points="1313.33,-85.87 1303.86,-81.13 1308.31,-90.74 1313.33,-85.87"/>
</g>
<!-- Node9&#45;&gt;Node15 -->
<g id="edge16" class="edge">
<title>Node9&#45;&gt;Node15</title>
<path fill="none" stroke="midnightblue" d="M1417.02,-133.53C1582.02,-122.28 2040.06,-90.83 2055.5,-87 2057.86,-86.42 2060.26,-85.67 2062.64,-84.84"/>
<polygon fill="midnightblue" stroke="midnightblue" points="2064.14,-88.01 2072.1,-81.02 2061.52,-81.51 2064.14,-88.01"/>
</g>
<!-- Node16 -->
<g id="node16" class="node">
<title>Node16</title>
<g id="a_node16"><a xlink:title=" ">
<polygon fill="white" stroke="#bfbfbf" points="380,-62 380,-81 427,-81 427,-62 380,-62"/>
<text text-anchor="middle" x="403.5" y="-69" font-family="Helvetica,sans-Serif" font-size="10.00">vector</text>
</a>
</g>
</g>
<!-- Node9&#45;&gt;Node16 -->
<g id="edge18" class="edge">
<title>Node9&#45;&gt;Node16</title>
<path fill="none" stroke="midnightblue" d="M1299.59,-132.63C1263.73,-129.71 1216.98,-126 1175.5,-123 890.24,-102.37 545.41,-81.12 437.47,-74.55"/>
<polygon fill="midnightblue" stroke="midnightblue" points="437.39,-71.04 427.2,-73.93 436.97,-78.03 437.39,-71.04"/>
</g>
<!-- Node13 -->
<g id="node13" class="node">
<title>Node13</title>
<g id="a_node13"><a xlink:title=" ">
<polygon fill="white" stroke="#bfbfbf" points="1614.5,-0.5 1614.5,-19.5 1700.5,-19.5 1700.5,-0.5 1614.5,-0.5"/>
<text text-anchor="middle" x="1657.5" y="-7.5" font-family="Helvetica,sans-Serif" font-size="10.00">tvm/ffi/c_api.h</text>
</a>
</g>
</g>
<!-- Node12&#45;&gt;Node13 -->
<g id="edge14" class="edge">
<title>Node12&#45;&gt;Node13</title>
<path fill="none" stroke="midnightblue" d="M1657.5,-61.98C1657.5,-53.58 1657.5,-40.48 1657.5,-29.66"/>
<polygon fill="midnightblue" stroke="midnightblue" points="1661,-29.51 1657.5,-19.51 1654,-29.51 1661,-29.51"/>
</g>
<!-- Node17&#45;&gt;Node12 -->
<g id="edge23" class="edge">
<title>Node17&#45;&gt;Node12</title>
<path fill="none" stroke="midnightblue" d="M1656.63,-128.73C1656.78,-119.18 1657.02,-103.62 1657.21,-91.28"/>
<polygon fill="midnightblue" stroke="midnightblue" points="1660.71,-91.18 1657.37,-81.13 1653.71,-91.07 1660.71,-91.18"/>
</g>
<!-- Node17&#45;&gt;Node15 -->
<g id="edge25" class="edge">
<title>Node17&#45;&gt;Node15</title>
<path fill="none" stroke="midnightblue" d="M1699.32,-128.97C1710.72,-126.85 1723.06,-124.7 1734.5,-123 1876.5,-101.87 1916.87,-124.3 2055.5,-87 2057.79,-86.38 2060.13,-85.63 2062.46,-84.79"/>
<polygon fill="midnightblue" stroke="midnightblue" points="2063.77,-88.04 2071.73,-81.04 2061.15,-81.55 2063.77,-88.04"/>
</g>
<!-- Node18 -->
<g id="node18" class="node">
<title>Node18</title>
<g id="a_node18"><a xlink:title=" ">
<polygon fill="white" stroke="#bfbfbf" points="1801,-62 1801,-81 1940,-81 1940,-62 1801,-62"/>
<text text-anchor="middle" x="1870.5" y="-69" font-family="Helvetica,sans-Serif" font-size="10.00">tvm/ffi/container/shape.h</text>
</a>
</g>
</g>
<!-- Node17&#45;&gt;Node18 -->
<g id="edge20" class="edge">
<title>Node17&#45;&gt;Node18</title>
<path fill="none" stroke="midnightblue" d="M1684.92,-128.87C1722.92,-117.33 1790.38,-96.84 1832.65,-84"/>
<polygon fill="midnightblue" stroke="midnightblue" points="1833.75,-87.32 1842.31,-81.06 1831.72,-80.62 1833.75,-87.32"/>
</g>
<!-- Node19 -->
<g id="node19" class="node">
<title>Node19</title>
<g id="a_node19"><a xlink:title=" ">
<polygon fill="white" stroke="#bfbfbf" points="1958,-62 1958,-81 2047,-81 2047,-62 1958,-62"/>
<text text-anchor="middle" x="2002.5" y="-69" font-family="Helvetica,sans-Serif" font-size="10.00">tvm/ffi/dtype.h</text>
</a>
</g>
</g>
<!-- Node17&#45;&gt;Node19 -->
<g id="edge21" class="edge">
<title>Node17&#45;&gt;Node19</title>
<path fill="none" stroke="midnightblue" d="M1701.85,-128.93C1712.55,-126.95 1723.92,-124.87 1734.5,-123 1829.47,-106.19 1854.26,-107.53 1948.5,-87 1953.17,-85.98 1958.05,-84.82 1962.88,-83.6"/>
<polygon fill="midnightblue" stroke="midnightblue" points="1963.84,-86.97 1972.63,-81.07 1962.07,-80.2 1963.84,-86.97"/>
</g>
<!-- Node20 -->
<g id="node20" class="node">
<title>Node20</title>
<g id="a_node20"><a xlink:title=" ">
<polygon fill="white" stroke="#bfbfbf" points="2133,-62 2133,-81 2216,-81 2216,-62 2133,-62"/>
<text text-anchor="middle" x="2174.5" y="-69" font-family="Helvetica,sans-Serif" font-size="10.00">tvm/ffi/error.h</text>
</a>
</g>
</g>
<!-- Node17&#45;&gt;Node20 -->
<g id="edge22" class="edge">
<title>Node17&#45;&gt;Node20</title>
<path fill="none" stroke="midnightblue" d="M1698.49,-128.97C1710.12,-126.81 1722.77,-124.64 1734.5,-123 1904.71,-99.27 1950.28,-117.01 2119.5,-87 2124.91,-86.04 2130.56,-84.81 2136.1,-83.48"/>
<polygon fill="midnightblue" stroke="midnightblue" points="2137.04,-86.85 2145.87,-81 2135.31,-80.07 2137.04,-86.85"/>
</g>
<!-- Node21 -->
<g id="node21" class="node">
<title>Node21</title>
<g id="a_node21"><a xlink:title=" ">
<polygon fill="white" stroke="#bfbfbf" points="1732.5,-62 1732.5,-81 1782.5,-81 1782.5,-62 1732.5,-62"/>
<text text-anchor="middle" x="1757.5" y="-69" font-family="Helvetica,sans-Serif" font-size="10.00">cstring</text>
</a>
</g>
</g>
<!-- Node17&#45;&gt;Node21 -->
<g id="edge24" class="edge">
<title>Node17&#45;&gt;Node21</title>
<path fill="none" stroke="midnightblue" d="M1670.12,-128.73C1686.93,-117.92 1715.73,-99.38 1735.64,-86.57"/>
<polygon fill="midnightblue" stroke="midnightblue" points="1737.58,-89.48 1744.09,-81.13 1733.79,-83.6 1737.58,-89.48"/>
</g>
<!-- Node17&#45;&gt;Node22 -->
<g id="edge26" class="edge">
<title>Node17&#45;&gt;Node22</title>
<path fill="none" stroke="midnightblue" d="M1587.46,-132.93C1507.5,-126.67 1372.21,-113.11 1258.5,-87 1255.02,-86.2 1251.42,-85.23 1247.85,-84.17"/>
<polygon fill="midnightblue" stroke="midnightblue" points="1248.61,-80.74 1238.02,-81.03 1246.48,-87.41 1248.61,-80.74"/>
</g>
<!-- Node26&#45;&gt;Node3 -->
<g id="edge48" class="edge">
<title>Node26&#45;&gt;Node3</title>
<path fill="none" stroke="midnightblue" d="M1509.61,-313.32C1520.74,-294.42 1547.33,-249.25 1562.13,-224.12"/>
<polygon fill="midnightblue" stroke="midnightblue" points="1565.27,-225.68 1567.33,-215.28 1559.24,-222.12 1565.27,-225.68"/>
</g>
<!-- Node26&#45;&gt;Node5 -->
<g id="edge35" class="edge">
<title>Node26&#45;&gt;Node5</title>
<path fill="none" stroke="midnightblue" d="M1505.67,-313.41C1510.52,-277.8 1529.13,-141.25 1535.96,-91.11"/>
<polygon fill="midnightblue" stroke="midnightblue" points="1539.45,-91.43 1537.33,-81.05 1532.52,-90.49 1539.45,-91.43"/>
</g>
<!-- Node26&#45;&gt;Node10 -->
<g id="edge33" class="edge">
<title>Node26&#45;&gt;Node10</title>
<path fill="none" stroke="midnightblue" d="M1553.77,-320.06C1710.01,-312.31 2175.88,-276.11 2032.5,-123 1990.79,-78.46 1545.03,-94.73 1484.5,-87 1475.98,-85.91 1466.97,-84.46 1458.25,-82.9"/>
<polygon fill="midnightblue" stroke="midnightblue" points="1458.66,-79.42 1448.19,-81.03 1457.38,-86.3 1458.66,-79.42"/>
</g>
<!-- Node26&#45;&gt;Node15 -->
<g id="edge49" class="edge">
<title>Node26&#45;&gt;Node15</title>
<path fill="none" stroke="midnightblue" d="M1553.73,-322.58C1636.63,-322.32 1808.64,-316.51 1947.5,-277 2002.18,-261.44 2028.3,-266.41 2062.5,-221 2091.68,-182.25 2092.24,-121.78 2090.32,-91.35"/>
<polygon fill="midnightblue" stroke="midnightblue" points="2093.8,-90.95 2089.52,-81.26 2086.82,-91.51 2093.8,-90.95"/>
</g>
<!-- Node26&#45;&gt;Node22 -->
<g id="edge50" class="edge">
<title>Node26&#45;&gt;Node22</title>
<path fill="none" stroke="midnightblue" d="M1503.38,-313.32C1499.82,-289.6 1486.6,-223.21 1446.5,-190 1391.7,-144.61 1352.01,-189.78 1290.5,-154 1262.92,-137.95 1239.58,-108.46 1226.57,-89.7"/>
<polygon fill="midnightblue" stroke="midnightblue" points="1229.37,-87.58 1220.89,-81.23 1223.55,-91.48 1229.37,-87.58"/>
</g>
<!-- Node27 -->
<g id="node27" class="node">
<title>Node27</title>
<g id="a_node27"><a xlink:title=" ">
<polygon fill="white" stroke="#bfbfbf" points="0,-62 0,-81 131,-81 131,-62 0,-62"/>
<text text-anchor="middle" x="65.5" y="-69" font-family="Helvetica,sans-Serif" font-size="10.00">tvm/ffi/container/map.h</text>
</a>
</g>
</g>
<!-- Node26&#45;&gt;Node27 -->
<g id="edge34" class="edge">
<title>Node26&#45;&gt;Node27</title>
<path fill="none" stroke="midnightblue" d="M1455.46,-320.24C1229.04,-311.86 290.66,-274.15 171.5,-221 132.17,-203.46 126.23,-189.26 101.5,-154 87.66,-134.26 77.33,-108.35 71.36,-91.1"/>
<polygon fill="midnightblue" stroke="midnightblue" points="74.54,-89.56 68.08,-81.16 67.89,-91.75 74.54,-89.56"/>
</g>
<!-- Node28 -->
<g id="node28" class="node">
<title>Node28</title>
<g id="a_node28"><a xlink:href="attrs_8h.html" target="_top" xlink:title="Helpers for attribute objects.">
<polygon fill="white" stroke="black" points="1078.5,-257.5 1078.5,-276.5 1158.5,-276.5 1158.5,-257.5 1078.5,-257.5"/>
<text text-anchor="middle" x="1118.5" y="-264.5" font-family="Helvetica,sans-Serif" font-size="10.00">tvm/ir/attrs.h</text>
</a>
</g>
</g>
<!-- Node26&#45;&gt;Node28 -->
<g id="edge36" class="edge">
<title>Node26&#45;&gt;Node28</title>
<path fill="none" stroke="midnightblue" d="M1455.22,-315.11C1381.46,-304.79 1243.08,-285.43 1168.75,-275.03"/>
<polygon fill="midnightblue" stroke="midnightblue" points="1169.09,-271.54 1158.7,-273.62 1168.12,-278.48 1169.09,-271.54"/>
</g>
<!-- Node28&#45;&gt;Node2 -->
<g id="edge41" class="edge">
<title>Node28&#45;&gt;Node2</title>
<path fill="none" stroke="midnightblue" d="M1113.76,-257.18C1101.56,-234.6 1067.93,-172.95 1037.5,-123 1031.92,-113.84 1025.52,-103.92 1019.86,-95.33"/>
<polygon fill="midnightblue" stroke="midnightblue" points="1022.73,-93.32 1014.28,-86.93 1016.9,-97.2 1022.73,-93.32"/>
</g>
<!-- Node28&#45;&gt;Node3 -->
<g id="edge43" class="edge">
<title>Node28&#45;&gt;Node3</title>
<path fill="none" stroke="midnightblue" d="M1158.79,-260.72C1241.96,-249.82 1432.4,-224.86 1522.94,-213"/>
<polygon fill="midnightblue" stroke="midnightblue" points="1523.49,-216.45 1532.95,-211.68 1522.58,-209.51 1523.49,-216.45"/>
</g>
<!-- Node28&#45;&gt;Node6 -->
<g id="edge42" class="edge">
<title>Node28&#45;&gt;Node6</title>
<path fill="none" stroke="midnightblue" d="M1118.99,-257.1C1119.79,-242.9 1121.5,-214.25 1123.5,-190 1124.36,-179.51 1125.51,-167.82 1126.49,-158.33"/>
<polygon fill="midnightblue" stroke="midnightblue" points="1130,-158.38 1127.56,-148.07 1123.04,-157.65 1130,-158.38"/>
</g>
<!-- Node28&#45;&gt;Node8 -->
<g id="edge47" class="edge">
<title>Node28&#45;&gt;Node8</title>
<path fill="none" stroke="midnightblue" d="M1078.33,-257.6C1048.17,-250.35 1006.4,-238.31 972.5,-221 928.41,-198.48 922.85,-184.05 883.5,-154 865.63,-140.35 863.21,-133.84 843.5,-123 808.66,-103.84 765.13,-89.47 735.94,-81.05"/>
<polygon fill="midnightblue" stroke="midnightblue" points="736.82,-77.67 726.25,-78.33 734.93,-84.41 736.82,-77.67"/>
</g>
<!-- Node28&#45;&gt;Node11 -->
<g id="edge40" class="edge">
<title>Node28&#45;&gt;Node11</title>
<path fill="none" stroke="midnightblue" d="M1099.39,-257.46C1062.72,-240.6 980.81,-200.61 920.5,-154 895.14,-134.4 870.11,-106.81 855.24,-89.29"/>
<polygon fill="midnightblue" stroke="midnightblue" points="857.53,-86.58 848.43,-81.14 852.16,-91.06 857.53,-86.58"/>
</g>
<!-- Node28&#45;&gt;Node15 -->
<g id="edge44" class="edge">
<title>Node28&#45;&gt;Node15</title>
<path fill="none" stroke="midnightblue" d="M1158.6,-263.84C1329.63,-254.29 1992.58,-213.64 2062.5,-154 2080.74,-138.44 2086.31,-110.1 2087.94,-91.28"/>
<polygon fill="midnightblue" stroke="midnightblue" points="2091.44,-91.42 2088.52,-81.24 2084.45,-91.02 2091.44,-91.42"/>
</g>
<!-- Node28&#45;&gt;Node22 -->
<g id="edge45" class="edge">
<title>Node28&#45;&gt;Node22</title>
<path fill="none" stroke="midnightblue" d="M1122.88,-257.08C1129.89,-242.84 1144.1,-214.14 1156.5,-190 1164.77,-173.91 1167.29,-170.12 1175.5,-154 1186.63,-132.13 1199.02,-106.72 1207.02,-90.16"/>
<polygon fill="midnightblue" stroke="midnightblue" points="1210.19,-91.64 1211.38,-81.11 1203.89,-88.6 1210.19,-91.64"/>
</g>
<!-- Node28&#45;&gt;Node27 -->
<g id="edge37" class="edge">
<title>Node28&#45;&gt;Node27</title>
<path fill="none" stroke="midnightblue" d="M1078.25,-265.59C914.68,-263.68 304.65,-254.4 225.5,-221 157.81,-192.44 100.88,-121.98 77.24,-89.45"/>
<polygon fill="midnightblue" stroke="midnightblue" points="79.88,-87.13 71.23,-81.01 74.18,-91.18 79.88,-87.13"/>
</g>
<!-- Node29 -->
<g id="node29" class="node">
<title>Node29</title>
<g id="a_node29"><a xlink:title=" ">
<polygon fill="white" stroke="#bfbfbf" points="1166,-190.5 1166,-220.5 1293,-220.5 1293,-190.5 1166,-190.5"/>
<text text-anchor="start" x="1174" y="-208.5" font-family="Helvetica,sans-Serif" font-size="10.00">tvm/ffi/extra/structural</text>
<text text-anchor="middle" x="1229.5" y="-197.5" font-family="Helvetica,sans-Serif" font-size="10.00">_equal.h</text>
</a>
</g>
</g>
<!-- Node28&#45;&gt;Node29 -->
<g id="edge38" class="edge">
<title>Node28&#45;&gt;Node29</title>
<path fill="none" stroke="midnightblue" d="M1134.4,-257.48C1150,-249.12 1174.3,-236.09 1194.43,-225.3"/>
<polygon fill="midnightblue" stroke="midnightblue" points="1196.18,-228.33 1203.34,-220.52 1192.87,-222.16 1196.18,-228.33"/>
</g>
<!-- Node30 -->
<g id="node30" class="node">
<title>Node30</title>
<g id="a_node30"><a xlink:title=" ">
<polygon fill="white" stroke="#bfbfbf" points="1311,-190.5 1311,-220.5 1438,-220.5 1438,-190.5 1311,-190.5"/>
<text text-anchor="start" x="1319" y="-208.5" font-family="Helvetica,sans-Serif" font-size="10.00">tvm/ffi/extra/structural</text>
<text text-anchor="middle" x="1374.5" y="-197.5" font-family="Helvetica,sans-Serif" font-size="10.00">_hash.h</text>
</a>
</g>
</g>
<!-- Node28&#45;&gt;Node30 -->
<g id="edge39" class="edge">
<title>Node28&#45;&gt;Node30</title>
<path fill="none" stroke="midnightblue" d="M1155.18,-257.48C1193.98,-248.46 1256.15,-234.01 1304.4,-222.79"/>
<polygon fill="midnightblue" stroke="midnightblue" points="1305.22,-226.2 1314.17,-220.52 1303.63,-219.38 1305.22,-226.2"/>
</g>
<!-- Node31 -->
<g id="node31" class="node">
<title>Node31</title>
<g id="a_node31"><a xlink:title=" ">
<polygon fill="white" stroke="#bfbfbf" points="149,-62 149,-81 242,-81 242,-62 149,-62"/>
<text text-anchor="middle" x="195.5" y="-69" font-family="Helvetica,sans-Serif" font-size="10.00">unordered_map</text>
</a>
</g>
</g>
<!-- Node28&#45;&gt;Node31 -->
<g id="edge46" class="edge">
<title>Node28&#45;&gt;Node31</title>
<path fill="none" stroke="midnightblue" d="M1078.42,-265.54C976.39,-263.87 698.7,-256.17 470.5,-221 344.89,-201.64 271.14,-253.84 192.5,-154 178.5,-136.23 183.14,-108.9 188.61,-90.86"/>
<polygon fill="midnightblue" stroke="midnightblue" points="191.98,-91.82 191.88,-81.23 185.35,-89.58 191.98,-91.82"/>
</g>
<!-- Node32&#45;&gt;Node8 -->
<g id="edge55" class="edge">
<title>Node32&#45;&gt;Node8</title>
<path fill="none" stroke="midnightblue" d="M737.14,-195.84C731.37,-174.67 716.44,-119.95 708.55,-91.03"/>
<polygon fill="midnightblue" stroke="midnightblue" points="711.83,-89.75 705.82,-81.02 705.08,-91.59 711.83,-89.75"/>
</g>
<!-- Node32&#45;&gt;Node16 -->
<g id="edge56" class="edge">
<title>Node32&#45;&gt;Node16</title>
<path fill="none" stroke="midnightblue" d="M678.95,-196.67C661.39,-194.45 642.19,-192.08 624.5,-190 551.02,-181.37 342.91,-209.07 293.5,-154 284.3,-143.74 286.06,-134.6 293.5,-123 294.7,-121.13 342.52,-99.6 374.7,-85.27"/>
<polygon fill="midnightblue" stroke="midnightblue" points="376.41,-88.34 384.12,-81.08 373.56,-81.94 376.41,-88.34"/>
</g>
<!-- Node32&#45;&gt;Node24 -->
<g id="edge53" class="edge">
<title>Node32&#45;&gt;Node24</title>
<path fill="none" stroke="midnightblue" d="M769.11,-195.87C808.79,-184.3 879.31,-163.75 923.34,-150.91"/>
<polygon fill="midnightblue" stroke="midnightblue" points="924.5,-154.22 933.12,-148.06 922.54,-147.5 924.5,-154.22"/>
</g>
<!-- Node33 -->
<g id="node33" class="node">
<title>Node33</title>
<g id="a_node33"><a xlink:title=" ">
<polygon fill="white" stroke="#bfbfbf" points="770,-129 770,-148 835,-148 835,-129 770,-129"/>
<text text-anchor="middle" x="802.5" y="-136" font-family="Helvetica,sans-Serif" font-size="10.00">exception</text>
</a>
</g>
</g>
<!-- Node32&#45;&gt;Node33 -->
<g id="edge52" class="edge">
<title>Node32&#45;&gt;Node33</title>
<path fill="none" stroke="midnightblue" d="M748,-195.73C758.01,-185.4 774.84,-168.04 787.16,-155.33"/>
<polygon fill="midnightblue" stroke="midnightblue" points="789.69,-157.74 794.14,-148.13 784.67,-152.87 789.69,-157.74"/>
</g>
<!-- Node34 -->
<g id="node34" class="node">
<title>Node34</title>
<g id="a_node34"><a xlink:title=" ">
<polygon fill="white" stroke="#bfbfbf" points="617.5,-129 617.5,-148 675.5,-148 675.5,-129 617.5,-129"/>
<text text-anchor="middle" x="646.5" y="-136" font-family="Helvetica,sans-Serif" font-size="10.00">memory</text>
</a>
</g>
</g>
<!-- Node32&#45;&gt;Node34 -->
<g id="edge54" class="edge">
<title>Node32&#45;&gt;Node34</title>
<path fill="none" stroke="midnightblue" d="M726.96,-195.73C711.62,-185.01 685.44,-166.72 667.12,-153.91"/>
<polygon fill="midnightblue" stroke="midnightblue" points="669.05,-150.99 658.84,-148.13 665.04,-156.72 669.05,-150.99"/>
</g>
<!-- Node35&#45;&gt;Node5 -->
<g id="edge61" class="edge">
<title>Node35&#45;&gt;Node5</title>
<path fill="none" stroke="midnightblue" d="M2232,-131.49C2204.68,-128.69 2171.4,-125.45 2141.5,-123 1897.35,-102.97 1833.09,-127.53 1591.5,-87 1586.28,-86.12 1580.84,-84.95 1575.51,-83.64"/>
<polygon fill="midnightblue" stroke="midnightblue" points="1576.06,-80.17 1565.5,-81.02 1574.29,-86.94 1576.06,-80.17"/>
</g>
<!-- Node35&#45;&gt;Node12 -->
<g id="edge62" class="edge">
<title>Node35&#45;&gt;Node12</title>
<path fill="none" stroke="midnightblue" d="M2231.97,-131.76C2204.65,-129.03 2171.38,-125.76 2141.5,-123 1955.83,-105.85 1907.84,-115.07 1723.5,-87 1716.64,-85.96 1709.43,-84.62 1702.4,-83.18"/>
<polygon fill="midnightblue" stroke="midnightblue" points="1702.79,-79.69 1692.28,-81.03 1701.33,-86.54 1702.79,-79.69"/>
</g>
<!-- Node35&#45;&gt;Node15 -->
<g id="edge63" class="edge">
<title>Node35&#45;&gt;Node15</title>
<path fill="none" stroke="midnightblue" d="M2238.27,-123.48C2205.36,-113.97 2161.56,-100.67 2123.5,-87 2121.64,-86.33 2119.74,-85.62 2117.83,-84.89"/>
<polygon fill="midnightblue" stroke="midnightblue" points="2118.95,-81.57 2108.36,-81.11 2116.35,-88.07 2118.95,-81.57"/>
</g>
<!-- Node35&#45;&gt;Node20 -->
<g id="edge59" class="edge">
<title>Node35&#45;&gt;Node20</title>
<path fill="none" stroke="midnightblue" d="M2263.76,-123.4C2244.29,-112.29 2217.33,-96.92 2198.15,-85.98"/>
<polygon fill="midnightblue" stroke="midnightblue" points="2199.84,-82.92 2189.42,-81.01 2196.37,-89 2199.84,-82.92"/>
</g>
<!-- Node36 -->
<g id="node36" class="node">
<title>Node36</title>
<g id="a_node36"><a xlink:title=" ">
<polygon fill="white" stroke="#bfbfbf" points="2355,-62 2355,-81 2432,-81 2432,-62 2355,-62"/>
<text text-anchor="middle" x="2393.5" y="-69" font-family="Helvetica,sans-Serif" font-size="10.00">tvm/ffi/any.h</text>
</a>
</g>
</g>
<!-- Node35&#45;&gt;Node36 -->
<g id="edge58" class="edge">
<title>Node35&#45;&gt;Node36</title>
<path fill="none" stroke="midnightblue" d="M2311.28,-123.4C2329.05,-112.39 2353.6,-97.2 2371.24,-86.28"/>
<polygon fill="midnightblue" stroke="midnightblue" points="2373.1,-89.25 2379.76,-81.01 2369.41,-83.29 2373.1,-89.25"/>
</g>
<!-- Node37 -->
<g id="node37" class="node">
<title>Node37</title>
<g id="a_node37"><a xlink:title=" ">
<polygon fill="white" stroke="#bfbfbf" points="2236,-62 2236,-81 2337,-81 2337,-62 2236,-62"/>
<text text-anchor="middle" x="2286.5" y="-69" font-family="Helvetica,sans-Serif" font-size="10.00">tvm/ffi/optional.h</text>
</a>
</g>
</g>
<!-- Node35&#45;&gt;Node37 -->
<g id="edge60" class="edge">
<title>Node35&#45;&gt;Node37</title>
<path fill="none" stroke="midnightblue" d="M2288.07,-123.4C2287.78,-114.06 2287.4,-101.71 2287.09,-91.52"/>
<polygon fill="midnightblue" stroke="midnightblue" points="2290.57,-91.08 2286.77,-81.19 2283.58,-91.3 2290.57,-91.08"/>
</g>
<!-- Node38&#45;&gt;Node2 -->
<g id="edge66" class="edge">
<title>Node38&#45;&gt;Node2</title>
<path fill="none" stroke="midnightblue" d="M571.35,-195.99C598.76,-186.14 645.04,-169.32 684.5,-154 718.51,-140.8 725.6,-133.63 760.5,-123 822.44,-104.13 895.37,-90.06 945.26,-81.63"/>
<polygon fill="midnightblue" stroke="midnightblue" points="945.94,-85.07 955.23,-79.97 944.79,-78.16 945.94,-85.07"/>
</g>
<!-- Node38&#45;&gt;Node8 -->
<g id="edge84" class="edge">
<title>Node38&#45;&gt;Node8</title>
<path fill="none" stroke="midnightblue" d="M479.42,-203.74C386.7,-200.41 238.2,-185.53 293.5,-123 318.41,-94.84 577.61,-78.93 670.56,-74.09"/>
<polygon fill="midnightblue" stroke="midnightblue" points="670.98,-77.58 680.79,-73.57 670.63,-70.59 670.98,-77.58"/>
</g>
<!-- Node38&#45;&gt;Node11 -->
<g id="edge65" class="edge">
<title>Node38&#45;&gt;Node11</title>
<path fill="none" stroke="midnightblue" d="M551.3,-196C559.29,-179.16 579.5,-141.62 608.5,-123 636.57,-104.98 721.65,-89.63 780.83,-80.73"/>
<polygon fill="midnightblue" stroke="midnightblue" points="781.45,-84.18 790.83,-79.26 780.42,-77.26 781.45,-84.18"/>
</g>
<!-- Node38&#45;&gt;Node12 -->
<g id="edge81" class="edge">
<title>Node38&#45;&gt;Node12</title>
<path fill="none" stroke="midnightblue" d="M612,-195.97C630.53,-193.75 650.79,-191.56 669.5,-190 1004.72,-162.13 1095.35,-218.42 1425.5,-154 1501.88,-139.1 1587.13,-104.09 1629.88,-85.17"/>
<polygon fill="midnightblue" stroke="midnightblue" points="1631.37,-88.34 1639.07,-81.06 1628.51,-81.95 1631.37,-88.34"/>
</g>
<!-- Node38&#45;&gt;Node16 -->
<g id="edge85" class="edge">
<title>Node38&#45;&gt;Node16</title>
<path fill="none" stroke="midnightblue" d="M479.14,-203.9C393.74,-201.53 254.86,-191.78 222.5,-154 213.54,-143.54 213.99,-133.83 222.5,-123 264.33,-69.77 306.38,-108.7 370.5,-87 372.37,-86.37 374.27,-85.67 376.18,-84.94"/>
<polygon fill="midnightblue" stroke="midnightblue" points="377.66,-88.11 385.57,-81.06 374.99,-81.64 377.66,-88.11"/>
</g>
<!-- Node38&#45;&gt;Node31 -->
<g id="edge83" class="edge">
<title>Node38&#45;&gt;Node31</title>
<path fill="none" stroke="midnightblue" d="M479.34,-203.15C392.71,-199.97 249.9,-189.36 212.5,-154 195.63,-138.05 193.24,-110.02 193.8,-91.36"/>
<polygon fill="midnightblue" stroke="midnightblue" points="197.3,-91.33 194.42,-81.14 190.32,-90.9 197.3,-91.33"/>
</g>
<!-- Node38&#45;&gt;Node34 -->
<g id="edge82" class="edge">
<title>Node38&#45;&gt;Node34</title>
<path fill="none" stroke="midnightblue" d="M560.85,-195.73C577.25,-184.96 605.3,-166.55 624.81,-153.74"/>
<polygon fill="midnightblue" stroke="midnightblue" points="626.92,-156.54 633.36,-148.13 623.08,-150.69 626.92,-156.54"/>
</g>
<!-- Node39 -->
<g id="node39" class="node">
<title>Node39</title>
<g id="a_node39"><a xlink:href="attr__registry__map_8h.html" target="_top" xlink:title="Attribute map used in registry.">
<polygon fill="white" stroke="black" points="452,-123.5 452,-153.5 561,-153.5 561,-123.5 452,-123.5"/>
<text text-anchor="start" x="460" y="-141.5" font-family="Helvetica,sans-Serif" font-size="10.00">tvm/ir/attr_registry</text>
<text text-anchor="middle" x="506.5" y="-130.5" font-family="Helvetica,sans-Serif" font-size="10.00">_map.h</text>
</a>
</g>
</g>
<!-- Node38&#45;&gt;Node39 -->
<g id="edge67" class="edge">
<title>Node38&#45;&gt;Node39</title>
<path fill="none" stroke="midnightblue" d="M541.97,-195.73C536.59,-187.2 528.18,-173.87 520.9,-162.33"/>
<polygon fill="midnightblue" stroke="midnightblue" points="523.68,-160.18 515.39,-153.59 517.76,-163.91 523.68,-160.18"/>
</g>
<!-- Node40 -->
<g id="node40" class="node">
<title>Node40</title>
<g id="a_node40"><a xlink:href="config__schema_8h.html" target="_top" xlink:title="Minimal schema for dynamic config canonicalization and validation.">
<polygon fill="white" stroke="black" points="303,-129 303,-148 434,-148 434,-129 303,-129"/>
<text text-anchor="middle" x="368.5" y="-136" font-family="Helvetica,sans-Serif" font-size="10.00">tvm/ir/config_schema.h</text>
</a>
</g>
</g>
<!-- Node38&#45;&gt;Node40 -->
<g id="edge71" class="edge">
<title>Node38&#45;&gt;Node40</title>
<path fill="none" stroke="midnightblue" d="M523.73,-195.87C492.35,-184.47 436.94,-164.35 401.51,-151.49"/>
<polygon fill="midnightblue" stroke="midnightblue" points="402.68,-148.19 392.08,-148.06 400.29,-154.77 402.68,-148.19"/>
</g>
<!-- Node39&#45;&gt;Node5 -->
<g id="edge68" class="edge">
<title>Node39&#45;&gt;Node5</title>
<path fill="none" stroke="midnightblue" d="M561.17,-128.7C576.45,-126.52 593.09,-124.41 608.5,-123 996.54,-87.53 1099.31,-145.89 1484.5,-87 1490.02,-86.16 1495.78,-84.96 1501.4,-83.61"/>
<polygon fill="midnightblue" stroke="midnightblue" points="1502.47,-86.95 1511.28,-81.07 1500.72,-80.17 1502.47,-86.95"/>
</g>
<!-- Node39&#45;&gt;Node8 -->
<g id="edge69" class="edge">
<title>Node39&#45;&gt;Node8</title>
<path fill="none" stroke="midnightblue" d="M549.25,-123.4C585.86,-111.32 637.79,-94.18 671.07,-83.2"/>
<polygon fill="midnightblue" stroke="midnightblue" points="672.36,-86.46 680.76,-80 670.16,-79.81 672.36,-86.46"/>
</g>
<!-- Node39&#45;&gt;Node16 -->
<g id="edge70" class="edge">
<title>Node39&#45;&gt;Node16</title>
<path fill="none" stroke="midnightblue" d="M484.15,-123.4C466.88,-112.5 443.08,-97.48 425.82,-86.58"/>
<polygon fill="midnightblue" stroke="midnightblue" points="427.31,-83.38 416.98,-81.01 423.57,-89.3 427.31,-83.38"/>
</g>
<!-- Node40&#45;&gt;Node2 -->
<g id="edge74" class="edge">
<title>Node40&#45;&gt;Node2</title>
<path fill="none" stroke="midnightblue" d="M407.53,-128.98C418.77,-126.76 431.09,-124.56 442.5,-123 644.8,-95.32 697.52,-109.11 900.5,-87 915.08,-85.41 930.76,-83.39 945.42,-81.36"/>
<polygon fill="midnightblue" stroke="midnightblue" points="945.96,-84.82 955.37,-79.97 944.99,-77.89 945.96,-84.82"/>
</g>
<!-- Node40&#45;&gt;Node8 -->
<g id="edge79" class="edge">
<title>Node40&#45;&gt;Node8</title>
<path fill="none" stroke="midnightblue" d="M411.93,-128.97C421.97,-127.01 432.61,-124.93 442.5,-123 524.59,-107.02 621.23,-88.36 670.7,-78.82"/>
<polygon fill="midnightblue" stroke="midnightblue" points="671.65,-82.2 680.8,-76.87 670.32,-75.33 671.65,-82.2"/>
</g>
<!-- Node40&#45;&gt;Node11 -->
<g id="edge73" class="edge">
<title>Node40&#45;&gt;Node11</title>
<path fill="none" stroke="midnightblue" d="M409.51,-128.93C420.22,-126.84 431.77,-124.71 442.5,-123 571.63,-102.42 604.82,-103.78 734.5,-87 749.45,-85.06 765.57,-82.91 780.65,-80.87"/>
<polygon fill="midnightblue" stroke="midnightblue" points="781.46,-84.3 790.9,-79.48 780.52,-77.36 781.46,-84.3"/>
</g>
<!-- Node40&#45;&gt;Node15 -->
<g id="edge76" class="edge">
<title>Node40&#45;&gt;Node15</title>
<path fill="none" stroke="midnightblue" d="M405.58,-128.95C417.32,-126.58 430.4,-124.31 442.5,-123 798.95,-84.39 1705.46,-164.6 2055.5,-87 2058.01,-86.44 2060.57,-85.69 2063.09,-84.82"/>
<polygon fill="midnightblue" stroke="midnightblue" points="2064.51,-88.02 2072.48,-81.04 2061.9,-81.53 2064.51,-88.02"/>
</g>
<!-- Node40&#45;&gt;Node16 -->
<g id="edge80" class="edge">
<title>Node40&#45;&gt;Node16</title>
<path fill="none" stroke="midnightblue" d="M373.22,-128.73C378.52,-118.89 387.26,-102.66 393.99,-90.16"/>
<polygon fill="midnightblue" stroke="midnightblue" points="397.2,-91.59 398.85,-81.13 391.03,-88.27 397.2,-91.59"/>
</g>
<!-- Node40&#45;&gt;Node22 -->
<g id="edge77" class="edge">
<title>Node40&#45;&gt;Node22</title>
<path fill="none" stroke="midnightblue" d="M406.36,-128.99C417.91,-126.69 430.67,-124.44 442.5,-123 764.51,-83.71 852.57,-146.3 1171.5,-87 1175.48,-86.26 1179.59,-85.25 1183.64,-84.11"/>
<polygon fill="midnightblue" stroke="midnightblue" points="1184.91,-87.38 1193.42,-81.06 1182.83,-80.69 1184.91,-87.38"/>
</g>
<!-- Node40&#45;&gt;Node27 -->
<g id="edge72" class="edge">
<title>Node40&#45;&gt;Node27</title>
<path fill="none" stroke="midnightblue" d="M328.58,-128.94C273.74,-117.17 175.13,-96.02 115.46,-83.22"/>
<polygon fill="midnightblue" stroke="midnightblue" points="116.02,-79.76 105.51,-81.08 114.56,-86.6 116.02,-79.76"/>
</g>
<!-- Node40&#45;&gt;Node31 -->
<g id="edge78" class="edge">
<title>Node40&#45;&gt;Node31</title>
<path fill="none" stroke="midnightblue" d="M345.53,-128.87C315.33,-117.52 262.1,-97.52 227.84,-84.65"/>
<polygon fill="midnightblue" stroke="midnightblue" points="228.88,-81.3 218.29,-81.06 226.42,-87.86 228.88,-81.3"/>
</g>
<!-- Node41 -->
<g id="node41" class="node">
<title>Node41</title>
<g id="a_node41"><a xlink:title=" ">
<polygon fill="white" stroke="#bfbfbf" points="305.5,-62 305.5,-81 361.5,-81 361.5,-62 305.5,-62"/>
<text text-anchor="middle" x="333.5" y="-69" font-family="Helvetica,sans-Serif" font-size="10.00">sstream</text>
</a>
</g>
</g>
<!-- Node40&#45;&gt;Node41 -->
<g id="edge75" class="edge">
<title>Node40&#45;&gt;Node41</title>
<path fill="none" stroke="midnightblue" d="M363.78,-128.73C358.48,-118.89 349.74,-102.66 343.01,-90.16"/>
<polygon fill="midnightblue" stroke="midnightblue" points="345.97,-88.27 338.15,-81.13 339.8,-91.59 345.97,-88.27"/>
</g>
</g>
</svg>
