<?xml version="1.0" encoding="UTF-8" standalone="no"?>
<!DOCTYPE svg PUBLIC "-//W3C//DTD SVG 1.1//EN"
 "http://www.w3.org/Graphics/SVG/1.1/DTD/svg11.dtd">
<!-- Generated by graphviz version 2.43.0 (0)
 -->
<!-- Title: include/tvm/tirx/script/builder/frame.h Pages: 1 -->
<svg width="3813pt" height="878pt"
 viewBox="0.00 0.00 3813.26 878.00" xmlns="http://www.w3.org/2000/svg" xmlns:xlink="http://www.w3.org/1999/xlink">
<g id="graph0" class="graph" transform="scale(1 1) rotate(0) translate(4 874)">
<title>include/tvm/tirx/script/builder/frame.h</title>
<polygon fill="white" stroke="transparent" points="-4,4 -4,-874 3809.26,-874 3809.26,4 -4,4"/>
<!-- Node1 -->
<g id="node1" class="node">
<title>Node1</title>
<g id="a_node1"><a xlink:title=" ">
<polygon fill="#bfbfbf" stroke="black" points="1405.26,-839.5 1405.26,-869.5 1529.26,-869.5 1529.26,-839.5 1405.26,-839.5"/>
<text text-anchor="start" x="1413.26" y="-857.5" font-family="Helvetica,sans-Serif" font-size="10.00">include/tvm/tirx/script</text>
<text text-anchor="middle" x="1467.26" y="-846.5" font-family="Helvetica,sans-Serif" font-size="10.00">/builder/frame.h</text>
</a>
</g>
</g>
<!-- Node2 -->
<g id="node2" class="node">
<title>Node2</title>
<g id="a_node2"><a xlink:href="script_2ir__builder_2base_8h.html" target="_top" xlink:title=" ">
<polygon fill="white" stroke="black" points="1914.76,-369.5 1914.76,-399.5 2029.76,-399.5 2029.76,-369.5 1914.76,-369.5"/>
<text text-anchor="start" x="1922.76" y="-387.5" font-family="Helvetica,sans-Serif" font-size="10.00">tvm/script/ir_builder</text>
<text text-anchor="middle" x="1972.26" y="-376.5" font-family="Helvetica,sans-Serif" font-size="10.00">/base.h</text>
</a>
</g>
</g>
<!-- Node1&#45;&gt;Node2 -->
<g id="edge1" class="edge">
<title>Node1&#45;&gt;Node2</title>
<path fill="none" stroke="midnightblue" d="M1467.82,-839.32C1469.97,-805.22 1480.22,-718 1529.26,-671 1634.25,-570.38 1714.61,-646.8 1843.26,-579 1911.37,-543.1 1938.16,-528.07 1965.26,-456 1970.76,-441.37 1972.52,-423.9 1972.9,-410.01"/>
<polygon fill="midnightblue" stroke="midnightblue" points="1976.41,-409.78 1972.96,-399.76 1969.41,-409.74 1976.41,-409.78"/>
</g>
<!-- Node9 -->
<g id="node9" class="node">
<title>Node9</title>
<g id="a_node9"><a xlink:title=" ">
<polygon fill="white" stroke="#bfbfbf" points="3025.76,-62 3025.76,-81 3070.76,-81 3070.76,-62 3025.76,-62"/>
<text text-anchor="middle" x="3048.26" y="-69" font-family="Helvetica,sans-Serif" font-size="10.00">utility</text>
</a>
</g>
</g>
<!-- Node1&#45;&gt;Node9 -->
<g id="edge182" class="edge">
<title>Node1&#45;&gt;Node9</title>
<path fill="none" stroke="midnightblue" d="M1529.53,-853.44C1879.54,-852.73 3586.26,-843.81 3586.26,-738 3586.26,-738 3586.26,-738 3586.26,-501 3586.26,-313.76 3568.31,-205.55 3400.26,-123 3344.29,-95.51 3157.49,-79.96 3081.17,-74.62"/>
<polygon fill="midnightblue" stroke="midnightblue" points="3081.37,-71.13 3071.16,-73.94 3080.89,-78.11 3081.37,-71.13"/>
</g>
<!-- Node34 -->
<g id="node34" class="node">
<title>Node34</title>
<g id="a_node34"><a xlink:href="script_2ir__builder_2ir_2frame_8h.html" target="_top" xlink:title=" ">
<polygon fill="white" stroke="black" points="1576.76,-548.5 1576.76,-578.5 1691.76,-578.5 1691.76,-548.5 1576.76,-548.5"/>
<text text-anchor="start" x="1584.76" y="-566.5" font-family="Helvetica,sans-Serif" font-size="10.00">tvm/script/ir_builder</text>
<text text-anchor="middle" x="1634.26" y="-555.5" font-family="Helvetica,sans-Serif" font-size="10.00">/ir/frame.h</text>
</a>
</g>
</g>
<!-- Node1&#45;&gt;Node34 -->
<g id="edge59" class="edge">
<title>Node1&#45;&gt;Node34</title>
<path fill="none" stroke="midnightblue" d="M1428.96,-839.32C1411.18,-831.07 1390.98,-819.08 1377.26,-803 1357.26,-779.58 1353.26,-768.8 1353.26,-738 1353.26,-738 1353.26,-738 1353.26,-680 1353.26,-649.2 1353.81,-634.97 1377.26,-615 1405.24,-591.16 1500.41,-577.29 1566.72,-570.3"/>
<polygon fill="midnightblue" stroke="midnightblue" points="1567.1,-573.78 1576.7,-569.28 1566.39,-566.82 1567.1,-573.78"/>
</g>
<!-- Node51 -->
<g id="node51" class="node">
<title>Node51</title>
<g id="a_node51"><a xlink:href="exec__scope_8h.html" target="_top" xlink:title=" ">
<polygon fill="white" stroke="black" points="1710.26,-554 1710.26,-573 1834.26,-573 1834.26,-554 1710.26,-554"/>
<text text-anchor="middle" x="1772.26" y="-561" font-family="Helvetica,sans-Serif" font-size="10.00">tvm/tirx/exec_scope.h</text>
</a>
</g>
</g>
<!-- Node1&#45;&gt;Node51 -->
<g id="edge130" class="edge">
<title>Node1&#45;&gt;Node51</title>
<path fill="none" stroke="midnightblue" d="M1450.01,-839.43C1427.59,-819.44 1391.26,-780.49 1391.26,-738 1391.26,-738 1391.26,-738 1391.26,-680 1391.26,-593.27 1492.28,-640.24 1575.26,-615 1626.02,-599.56 1685.06,-584.85 1725.18,-575.33"/>
<polygon fill="midnightblue" stroke="midnightblue" points="1726.02,-578.72 1734.95,-573.02 1724.41,-571.91 1726.02,-578.72"/>
</g>
<!-- Node54 -->
<g id="node54" class="node">
<title>Node54</title>
<g id="a_node54"><a xlink:href="tirx_2stmt_8h.html" target="_top" xlink:title="TIR statements.">
<polygon fill="white" stroke="black" points="1574.26,-783.5 1574.26,-802.5 1664.26,-802.5 1664.26,-783.5 1574.26,-783.5"/>
<text text-anchor="middle" x="1619.26" y="-790.5" font-family="Helvetica,sans-Serif" font-size="10.00">tvm/tirx/stmt.h</text>
</a>
</g>
</g>
<!-- Node1&#45;&gt;Node54 -->
<g id="edge141" class="edge">
<title>Node1&#45;&gt;Node54</title>
<path fill="none" stroke="midnightblue" d="M1503.28,-839.4C1528.9,-829.37 1562.98,-816.03 1587.57,-806.4"/>
<polygon fill="midnightblue" stroke="midnightblue" points="1589.1,-809.56 1597.14,-802.66 1586.55,-803.04 1589.1,-809.56"/>
</g>
<!-- Node3 -->
<g id="node3" class="node">
<title>Node3</title>
<g id="a_node3"><a xlink:title=" ">
<polygon fill="white" stroke="#bfbfbf" points="186.26,-56.5 186.26,-86.5 284.26,-86.5 284.26,-56.5 186.26,-56.5"/>
<text text-anchor="start" x="194.26" y="-74.5" font-family="Helvetica,sans-Serif" font-size="10.00">tvm/ffi/reflection</text>
<text text-anchor="middle" x="235.26" y="-63.5" font-family="Helvetica,sans-Serif" font-size="10.00">/registry.h</text>
</a>
</g>
</g>
<!-- Node2&#45;&gt;Node3 -->
<g id="edge2" class="edge">
<title>Node2&#45;&gt;Node3</title>
<path fill="none" stroke="midnightblue" d="M1914.64,-380.04C1679.44,-365.43 791.94,-305.71 525.26,-221 424.56,-189.01 316.42,-124.65 265.31,-92.18"/>
<polygon fill="midnightblue" stroke="midnightblue" points="267.04,-89.14 256.73,-86.69 263.27,-95.03 267.04,-89.14"/>
</g>
<!-- Node4 -->
<g id="node4" class="node">
<title>Node4</title>
<g id="a_node4"><a xlink:href="ir_2expr_8h.html" target="_top" xlink:title="Base expr nodes in TVM.">
<polygon fill="white" stroke="black" points="2248.76,-196 2248.76,-215 2327.76,-215 2327.76,-196 2248.76,-196"/>
<text text-anchor="middle" x="2288.26" y="-203" font-family="Helvetica,sans-Serif" font-size="10.00">tvm/ir/expr.h</text>
</a>
</g>
</g>
<!-- Node2&#45;&gt;Node4 -->
<g id="edge3" class="edge">
<title>Node2&#45;&gt;Node4</title>
<path fill="none" stroke="midnightblue" d="M1996.18,-369.35C2036.41,-345.65 2120.27,-296.61 2192.26,-257 2215.83,-244.03 2242.99,-229.81 2262.39,-219.77"/>
<polygon fill="midnightblue" stroke="midnightblue" points="2264.22,-222.76 2271.51,-215.07 2261.02,-216.54 2264.22,-222.76"/>
</g>
<!-- Node17 -->
<g id="node17" class="node">
<title>Node17</title>
<g id="a_node17"><a xlink:title=" ">
<polygon fill="white" stroke="#bfbfbf" points="951.76,-62 951.76,-81 998.76,-81 998.76,-62 951.76,-62"/>
<text text-anchor="middle" x="975.26" y="-69" font-family="Helvetica,sans-Serif" font-size="10.00">vector</text>
</a>
</g>
</g>
<!-- Node2&#45;&gt;Node17 -->
<g id="edge58" class="edge">
<title>Node2&#45;&gt;Node17</title>
<path fill="none" stroke="midnightblue" d="M1914.6,-378C1689.19,-356.2 874.97,-274.39 772.26,-221 726.53,-197.23 677.4,-162.71 710.26,-123 739.25,-87.96 876.74,-77.02 941.44,-73.78"/>
<polygon fill="midnightblue" stroke="midnightblue" points="941.71,-77.27 951.54,-73.31 941.39,-70.28 941.71,-77.27"/>
</g>
<!-- Node27 -->
<g id="node27" class="node">
<title>Node27</title>
<g id="a_node27"><a xlink:href="ir_2function_8h.html" target="_top" xlink:title="Function nodes.">
<polygon fill="white" stroke="black" points="1838.26,-313.5 1838.26,-332.5 1936.26,-332.5 1936.26,-313.5 1838.26,-313.5"/>
<text text-anchor="middle" x="1887.26" y="-320.5" font-family="Helvetica,sans-Serif" font-size="10.00">tvm/ir/function.h</text>
</a>
</g>
</g>
<!-- Node2&#45;&gt;Node27 -->
<g id="edge33" class="edge">
<title>Node2&#45;&gt;Node27</title>
<path fill="none" stroke="midnightblue" d="M1952.11,-369.4C1938.87,-360.13 1921.58,-348.03 1908.18,-338.65"/>
<polygon fill="midnightblue" stroke="midnightblue" points="1909.83,-335.53 1899.63,-332.66 1905.81,-341.26 1909.83,-335.53"/>
</g>
<!-- Node33 -->
<g id="node33" class="node">
<title>Node33</title>
<g id="a_node33"><a xlink:href="node__functor_8h.html" target="_top" xlink:title="Defines the Functor data structures.">
<polygon fill="white" stroke="black" points="2694.76,-129 2694.76,-148 2815.76,-148 2815.76,-129 2694.76,-129"/>
<text text-anchor="middle" x="2755.26" y="-136" font-family="Helvetica,sans-Serif" font-size="10.00">tvm/ir/node_functor.h</text>
</a>
</g>
</g>
<!-- Node2&#45;&gt;Node33 -->
<g id="edge52" class="edge">
<title>Node2&#45;&gt;Node33</title>
<path fill="none" stroke="midnightblue" d="M2017.45,-369.42C2158.4,-325.49 2588.22,-191.55 2717.86,-151.16"/>
<polygon fill="midnightblue" stroke="midnightblue" points="2719.21,-154.4 2727.72,-148.08 2717.13,-147.72 2719.21,-154.4"/>
</g>
<!-- Node4&#45;&gt;Node3 -->
<g id="edge5" class="edge">
<title>Node4&#45;&gt;Node3</title>
<path fill="none" stroke="midnightblue" d="M2248.65,-201.88C2200.05,-198.73 2115.12,-193.45 2042.26,-190 1593.59,-168.78 1476.83,-218.11 1032.26,-154 977.31,-146.08 966.11,-131.54 911.26,-123 642.72,-81.18 567.08,-127.39 294.68,-87.01"/>
<polygon fill="midnightblue" stroke="midnightblue" points="294.9,-83.5 284.49,-85.47 293.86,-90.43 294.9,-83.5"/>
</g>
<!-- Node5 -->
<g id="node5" class="node">
<title>Node5</title>
<g id="a_node5"><a xlink:title=" ">
<polygon fill="white" stroke="#bfbfbf" points="2150.26,-129 2150.26,-148 2286.26,-148 2286.26,-129 2150.26,-129"/>
<text text-anchor="middle" x="2218.26" y="-136" font-family="Helvetica,sans-Serif" font-size="10.00">tvm/ffi/extra/dataclass.h</text>
</a>
</g>
</g>
<!-- Node4&#45;&gt;Node5 -->
<g id="edge4" class="edge">
<title>Node4&#45;&gt;Node5</title>
<path fill="none" stroke="midnightblue" d="M2278.82,-195.73C2267.59,-185.31 2248.64,-167.71 2234.92,-154.97"/>
<polygon fill="midnightblue" stroke="midnightblue" points="2237.26,-152.37 2227.55,-148.13 2232.5,-157.5 2237.26,-152.37"/>
</g>
<!-- Node6 -->
<g id="node6" class="node">
<title>Node6</title>
<g id="a_node6"><a xlink:title=" ">
<polygon fill="white" stroke="#bfbfbf" points="3389.76,-62 3389.76,-81 3478.76,-81 3478.76,-62 3389.76,-62"/>
<text text-anchor="middle" x="3434.26" y="-69" font-family="Helvetica,sans-Serif" font-size="10.00">tvm/ffi/string.h</text>
</a>
</g>
</g>
<!-- Node4&#45;&gt;Node6 -->
<g id="edge6" class="edge">
<title>Node4&#45;&gt;Node6</title>
<path fill="none" stroke="midnightblue" d="M2327.8,-202.53C2480.84,-194.82 3027.41,-166.52 3062.26,-154 3084.43,-146.03 3083.45,-131.92 3105.26,-123 3196.51,-85.65 3312.27,-75.66 3379.33,-73.14"/>
<polygon fill="midnightblue" stroke="midnightblue" points="3379.79,-76.63 3389.67,-72.8 3379.56,-69.63 3379.79,-76.63"/>
</g>
<!-- Node7 -->
<g id="node7" class="node">
<title>Node7</title>
<g id="a_node7"><a xlink:href="cow_8h.html" target="_top" xlink:title="Copy&#45;on&#45;write helper macro for IR ffi::ObjectRef types.">
<polygon fill="white" stroke="black" points="3214.76,-129 3214.76,-148 3291.76,-148 3291.76,-129 3214.76,-129"/>
<text text-anchor="middle" x="3253.26" y="-136" font-family="Helvetica,sans-Serif" font-size="10.00">tvm/ir/cow.h</text>
</a>
</g>
</g>
<!-- Node4&#45;&gt;Node7 -->
<g id="edge7" class="edge">
<title>Node4&#45;&gt;Node7</title>
<path fill="none" stroke="midnightblue" d="M2327.81,-202.48C2487.89,-194.29 3083.24,-163.47 3167.26,-154 3179.37,-152.64 3192.36,-150.7 3204.48,-148.68"/>
<polygon fill="midnightblue" stroke="midnightblue" points="3205.16,-152.11 3214.43,-146.98 3203.98,-145.21 3205.16,-152.11"/>
</g>
<!-- Node10 -->
<g id="node10" class="node">
<title>Node10</title>
<g id="a_node10"><a xlink:href="source__map_8h.html" target="_top" xlink:title="A map from source names to source code.">
<polygon fill="white" stroke="black" points="1381.76,-129 1381.76,-148 1498.76,-148 1498.76,-129 1381.76,-129"/>
<text text-anchor="middle" x="1440.26" y="-136" font-family="Helvetica,sans-Serif" font-size="10.00">tvm/ir/source_map.h</text>
</a>
</g>
</g>
<!-- Node4&#45;&gt;Node10 -->
<g id="edge10" class="edge">
<title>Node4&#45;&gt;Node10</title>
<path fill="none" stroke="midnightblue" d="M2248.73,-202.11C2095.08,-192.79 1544.28,-159.17 1507.26,-154 1499.96,-152.98 1492.28,-151.61 1484.83,-150.11"/>
<polygon fill="midnightblue" stroke="midnightblue" points="1485.36,-146.65 1474.86,-148.01 1483.92,-153.5 1485.36,-146.65"/>
</g>
<!-- Node16 -->
<g id="node16" class="node">
<title>Node16</title>
<g id="a_node16"><a xlink:title=" ">
<polygon fill="white" stroke="#bfbfbf" points="1788.26,-62 1788.26,-81 1832.26,-81 1832.26,-62 1788.26,-62"/>
<text text-anchor="middle" x="1810.26" y="-69" font-family="Helvetica,sans-Serif" font-size="10.00">string</text>
</a>
</g>
</g>
<!-- Node4&#45;&gt;Node16 -->
<g id="edge31" class="edge">
<title>Node4&#45;&gt;Node16</title>
<path fill="none" stroke="midnightblue" d="M2292.77,-195.56C2300.45,-178.97 2313.51,-143.25 2295.26,-123 2264.91,-89.33 1945.89,-76.65 1842.44,-73.41"/>
<polygon fill="midnightblue" stroke="midnightblue" points="1842.39,-69.9 1832.29,-73.1 1842.18,-76.9 1842.39,-69.9"/>
</g>
<!-- Node18 -->
<g id="node18" class="node">
<title>Node18</title>
<g id="a_node18"><a xlink:href="data__type_8h.html" target="_top" xlink:title=" ">
<polygon fill="white" stroke="black" points="2418.26,-129 2418.26,-148 2556.26,-148 2556.26,-129 2418.26,-129"/>
<text text-anchor="middle" x="2487.26" y="-136" font-family="Helvetica,sans-Serif" font-size="10.00">tvm/runtime/data_type.h</text>
</a>
</g>
</g>
<!-- Node4&#45;&gt;Node18 -->
<g id="edge20" class="edge">
<title>Node4&#45;&gt;Node18</title>
<path fill="none" stroke="midnightblue" d="M2314.68,-195.87C2349.79,-184.4 2411.96,-164.09 2451.31,-151.24"/>
<polygon fill="midnightblue" stroke="midnightblue" points="2452.62,-154.5 2461.04,-148.06 2450.45,-147.84 2452.62,-154.5"/>
</g>
<!-- Node23 -->
<g id="node23" class="node">
<title>Node23</title>
<g id="a_node23"><a xlink:title=" ">
<polygon fill="white" stroke="#bfbfbf" points="2236.76,-62 2236.76,-81 2305.76,-81 2305.76,-62 2236.76,-62"/>
<text text-anchor="middle" x="2271.26" y="-69" font-family="Helvetica,sans-Serif" font-size="10.00">type_traits</text>
</a>
</g>
</g>
<!-- Node4&#45;&gt;Node23 -->
<g id="edge32" class="edge">
<title>Node4&#45;&gt;Node23</title>
<path fill="none" stroke="midnightblue" d="M2298.07,-196C2307.87,-186.79 2322.3,-171.11 2328.26,-154 2332.79,-140.99 2333.91,-135.56 2328.26,-123 2321.49,-107.96 2307.79,-95.59 2295.51,-86.86"/>
<polygon fill="midnightblue" stroke="midnightblue" points="2297.21,-83.78 2286.95,-81.15 2293.33,-89.61 2297.21,-83.78"/>
</g>
<!-- Node24 -->
<g id="node24" class="node">
<title>Node24</title>
<g id="a_node24"><a xlink:title=" ">
<polygon fill="white" stroke="#bfbfbf" points="2574.26,-129 2574.26,-148 2638.26,-148 2638.26,-129 2574.26,-129"/>
<text text-anchor="middle" x="2606.26" y="-136" font-family="Helvetica,sans-Serif" font-size="10.00">algorithm</text>
</a>
</g>
</g>
<!-- Node4&#45;&gt;Node24 -->
<g id="edge28" class="edge">
<title>Node4&#45;&gt;Node24</title>
<path fill="none" stroke="midnightblue" d="M2327.89,-198.08C2393.3,-187.34 2521.03,-165.77 2565.26,-154 2568.23,-153.21 2571.29,-152.3 2574.34,-151.34"/>
<polygon fill="midnightblue" stroke="midnightblue" points="2575.54,-154.63 2583.9,-148.13 2573.31,-147.99 2575.54,-154.63"/>
</g>
<!-- Node25 -->
<g id="node25" class="node">
<title>Node25</title>
<g id="a_node25"><a xlink:title=" ">
<polygon fill="white" stroke="#bfbfbf" points="2066.76,-129 2066.76,-148 2131.76,-148 2131.76,-129 2066.76,-129"/>
<text text-anchor="middle" x="2099.26" y="-136" font-family="Helvetica,sans-Serif" font-size="10.00">functional</text>
</a>
</g>
</g>
<!-- Node4&#45;&gt;Node25 -->
<g id="edge29" class="edge">
<title>Node4&#45;&gt;Node25</title>
<path fill="none" stroke="midnightblue" d="M2263.28,-195.93C2234.03,-185.9 2184.12,-168.76 2141.26,-154 2138.83,-153.16 2136.33,-152.3 2133.81,-151.43"/>
<polygon fill="midnightblue" stroke="midnightblue" points="2134.72,-148.05 2124.13,-148.09 2132.44,-154.66 2134.72,-148.05"/>
</g>
<!-- Node26 -->
<g id="node26" class="node">
<title>Node26</title>
<g id="a_node26"><a xlink:title=" ">
<polygon fill="white" stroke="#bfbfbf" points="3114.26,-129 3114.26,-148 3158.26,-148 3158.26,-129 3114.26,-129"/>
<text text-anchor="middle" x="3136.26" y="-136" font-family="Helvetica,sans-Serif" font-size="10.00">limits</text>
</a>
</g>
</g>
<!-- Node4&#45;&gt;Node26 -->
<g id="edge30" class="edge">
<title>Node4&#45;&gt;Node26</title>
<path fill="none" stroke="midnightblue" d="M2327.77,-202.39C2485.36,-193.95 3062.22,-162.61 3100.26,-154 3103.09,-153.36 3105.99,-152.52 3108.86,-151.57"/>
<polygon fill="midnightblue" stroke="midnightblue" points="3110.17,-154.82 3118.31,-148.04 3107.72,-148.26 3110.17,-154.82"/>
</g>
<!-- Node8 -->
<g id="node8" class="node">
<title>Node8</title>
<g id="a_node8"><a xlink:title=" ">
<polygon fill="white" stroke="#bfbfbf" points="3529.76,-62 3529.76,-81 3620.76,-81 3620.76,-62 3529.76,-62"/>
<text text-anchor="middle" x="3575.26" y="-69" font-family="Helvetica,sans-Serif" font-size="10.00">tvm/ffi/object.h</text>
</a>
</g>
</g>
<!-- Node7&#45;&gt;Node8 -->
<g id="edge8" class="edge">
<title>Node7&#45;&gt;Node8</title>
<path fill="none" stroke="midnightblue" d="M3291.78,-129.72C3349.46,-118.08 3458.39,-96.09 3523.13,-83.02"/>
<polygon fill="midnightblue" stroke="midnightblue" points="3524.01,-86.42 3533.12,-81.01 3522.63,-79.55 3524.01,-86.42"/>
</g>
<!-- Node7&#45;&gt;Node9 -->
<g id="edge9" class="edge">
<title>Node7&#45;&gt;Node9</title>
<path fill="none" stroke="midnightblue" d="M3226.04,-128.87C3188.38,-116.93 3120.53,-95.42 3080.42,-82.7"/>
<polygon fill="midnightblue" stroke="midnightblue" points="3081.45,-79.35 3070.86,-79.67 3079.33,-86.03 3081.45,-79.35"/>
</g>
<!-- Node10&#45;&gt;Node3 -->
<g id="edge13" class="edge">
<title>Node10&#45;&gt;Node3</title>
<path fill="none" stroke="midnightblue" d="M1381.64,-133.96C1329.15,-130.85 1250.08,-126.32 1181.26,-123 790.1,-104.12 686,-142.53 294.67,-86.99"/>
<polygon fill="midnightblue" stroke="midnightblue" points="294.88,-83.49 284.48,-85.53 293.89,-90.41 294.88,-83.49"/>
</g>
<!-- Node10&#45;&gt;Node9 -->
<g id="edge18" class="edge">
<title>Node10&#45;&gt;Node9</title>
<path fill="none" stroke="midnightblue" d="M1473.79,-128.97C1484.42,-126.61 1496.27,-124.33 1507.26,-123 2061.19,-55.7 2204.69,-109.13 2762.26,-87 2854.05,-83.36 2962.32,-77.42 3015.47,-74.4"/>
<polygon fill="midnightblue" stroke="midnightblue" points="3015.87,-77.88 3025.65,-73.82 3015.47,-70.89 3015.87,-77.88"/>
</g>
<!-- Node11 -->
<g id="node11" class="node">
<title>Node11</title>
<g id="a_node11"><a xlink:title=" ">
<polygon fill="white" stroke="#bfbfbf" points="3671.26,-62 3671.26,-81 3805.26,-81 3805.26,-62 3671.26,-62"/>
<text text-anchor="middle" x="3738.26" y="-69" font-family="Helvetica,sans-Serif" font-size="10.00">tvm/ffi/container/array.h</text>
</a>
</g>
</g>
<!-- Node10&#45;&gt;Node11 -->
<g id="edge11" class="edge">
<title>Node10&#45;&gt;Node11</title>
<path fill="none" stroke="midnightblue" d="M1473.44,-128.97C1484.16,-126.58 1496.14,-124.28 1507.26,-123 1975.98,-68.84 3159.75,-122.45 3630.26,-87 3644.45,-85.93 3659.63,-84.24 3673.99,-82.38"/>
<polygon fill="midnightblue" stroke="midnightblue" points="3674.83,-85.8 3684.28,-81 3673.9,-78.86 3674.83,-85.8"/>
</g>
<!-- Node12 -->
<g id="node12" class="node">
<title>Node12</title>
<g id="a_node12"><a xlink:title=" ">
<polygon fill="white" stroke="#bfbfbf" points="1199.76,-62 1199.76,-81 1300.76,-81 1300.76,-62 1199.76,-62"/>
<text text-anchor="middle" x="1250.26" y="-69" font-family="Helvetica,sans-Serif" font-size="10.00">tvm/ffi/function.h</text>
</a>
</g>
</g>
<!-- Node10&#45;&gt;Node12 -->
<g id="edge12" class="edge">
<title>Node10&#45;&gt;Node12</title>
<path fill="none" stroke="midnightblue" d="M1415.03,-128.87C1381.58,-117.42 1322.4,-97.18 1284.82,-84.32"/>
<polygon fill="midnightblue" stroke="midnightblue" points="1285.88,-80.99 1275.29,-81.06 1283.62,-87.61 1285.88,-80.99"/>
</g>
<!-- Node13 -->
<g id="node13" class="node">
<title>Node13</title>
<g id="a_node13"><a xlink:href="runtime_2base_8h.html" target="_top" xlink:title=" ">
<polygon fill="white" stroke="black" points="1318.76,-62 1318.76,-81 1431.76,-81 1431.76,-62 1318.76,-62"/>
<text text-anchor="middle" x="1375.26" y="-69" font-family="Helvetica,sans-Serif" font-size="10.00">tvm/runtime/base.h</text>
</a>
</g>
</g>
<!-- Node10&#45;&gt;Node13 -->
<g id="edge14" class="edge">
<title>Node10&#45;&gt;Node13</title>
<path fill="none" stroke="midnightblue" d="M1431.49,-128.73C1421.16,-118.4 1403.79,-101.04 1391.09,-88.33"/>
<polygon fill="midnightblue" stroke="midnightblue" points="1393.43,-85.72 1383.89,-81.13 1388.48,-90.67 1393.43,-85.72"/>
</g>
<!-- Node15 -->
<g id="node15" class="node">
<title>Node15</title>
<g id="a_node15"><a xlink:title=" ">
<polygon fill="white" stroke="#bfbfbf" points="1449.76,-62 1449.76,-81 1504.76,-81 1504.76,-62 1449.76,-62"/>
<text text-anchor="middle" x="1477.26" y="-69" font-family="Helvetica,sans-Serif" font-size="10.00">fstream</text>
</a>
</g>
</g>
<!-- Node10&#45;&gt;Node15 -->
<g id="edge16" class="edge">
<title>Node10&#45;&gt;Node15</title>
<path fill="none" stroke="midnightblue" d="M1445.25,-128.73C1450.85,-118.89 1460.09,-102.66 1467.21,-90.16"/>
<polygon fill="midnightblue" stroke="midnightblue" points="1470.44,-91.55 1472.35,-81.13 1464.36,-88.09 1470.44,-91.55"/>
</g>
<!-- Node10&#45;&gt;Node16 -->
<g id="edge17" class="edge">
<title>Node10&#45;&gt;Node16</title>
<path fill="none" stroke="midnightblue" d="M1478.1,-128.96C1487.6,-126.91 1497.79,-124.8 1507.26,-123 1604.6,-104.52 1629.57,-103.53 1727.26,-87 1744.02,-84.17 1762.66,-80.92 1778.02,-78.21"/>
<polygon fill="midnightblue" stroke="midnightblue" points="1778.83,-81.63 1788.07,-76.44 1777.62,-74.73 1778.83,-81.63"/>
</g>
<!-- Node10&#45;&gt;Node17 -->
<g id="edge19" class="edge">
<title>Node10&#45;&gt;Node17</title>
<path fill="none" stroke="midnightblue" d="M1381.58,-129.78C1308.58,-120.11 1180.14,-102.88 1070.26,-87 1049.97,-84.07 1027.27,-80.61 1009.15,-77.81"/>
<polygon fill="midnightblue" stroke="midnightblue" points="1009.48,-74.31 999.06,-76.24 1008.4,-81.23 1009.48,-74.31"/>
</g>
<!-- Node14 -->
<g id="node14" class="node">
<title>Node14</title>
<g id="a_node14"><a xlink:title=" ">
<polygon fill="white" stroke="#bfbfbf" points="1332.26,-0.5 1332.26,-19.5 1418.26,-19.5 1418.26,-0.5 1332.26,-0.5"/>
<text text-anchor="middle" x="1375.26" y="-7.5" font-family="Helvetica,sans-Serif" font-size="10.00">tvm/ffi/c_api.h</text>
</a>
</g>
</g>
<!-- Node13&#45;&gt;Node14 -->
<g id="edge15" class="edge">
<title>Node13&#45;&gt;Node14</title>
<path fill="none" stroke="midnightblue" d="M1375.26,-61.98C1375.26,-53.58 1375.26,-40.48 1375.26,-29.66"/>
<polygon fill="midnightblue" stroke="midnightblue" points="1378.76,-29.51 1375.26,-19.51 1371.76,-29.51 1378.76,-29.51"/>
</g>
<!-- Node18&#45;&gt;Node13 -->
<g id="edge24" class="edge">
<title>Node18&#45;&gt;Node13</title>
<path fill="none" stroke="midnightblue" d="M2417.98,-131.71C2381.48,-128.8 2335.97,-125.39 2295.26,-123 1915.58,-100.68 1817.35,-136.6 1440.26,-87 1433.01,-86.05 1425.37,-84.68 1417.98,-83.16"/>
<polygon fill="midnightblue" stroke="midnightblue" points="1418.64,-79.72 1408.12,-81.02 1417.15,-86.56 1418.64,-79.72"/>
</g>
<!-- Node18&#45;&gt;Node16 -->
<g id="edge26" class="edge">
<title>Node18&#45;&gt;Node16</title>
<path fill="none" stroke="midnightblue" d="M2442.57,-128.95C2430.19,-126.78 2416.73,-124.62 2404.26,-123 2190.73,-95.33 1931.96,-79.28 1842.5,-74.24"/>
<polygon fill="midnightblue" stroke="midnightblue" points="1842.63,-70.74 1832.45,-73.68 1842.24,-77.73 1842.63,-70.74"/>
</g>
<!-- Node19 -->
<g id="node19" class="node">
<title>Node19</title>
<g id="a_node19"><a xlink:title=" ">
<polygon fill="white" stroke="#bfbfbf" points="2430.76,-62 2430.76,-81 2569.76,-81 2569.76,-62 2430.76,-62"/>
<text text-anchor="middle" x="2500.26" y="-69" font-family="Helvetica,sans-Serif" font-size="10.00">tvm/ffi/container/shape.h</text>
</a>
</g>
</g>
<!-- Node18&#45;&gt;Node19 -->
<g id="edge21" class="edge">
<title>Node18&#45;&gt;Node19</title>
<path fill="none" stroke="midnightblue" d="M2489.01,-128.73C2490.92,-119.18 2494.03,-103.62 2496.5,-91.28"/>
<polygon fill="midnightblue" stroke="midnightblue" points="2500,-91.62 2498.53,-81.13 2493.14,-90.25 2500,-91.62"/>
</g>
<!-- Node20 -->
<g id="node20" class="node">
<title>Node20</title>
<g id="a_node20"><a xlink:title=" ">
<polygon fill="white" stroke="#bfbfbf" points="2323.76,-62 2323.76,-81 2412.76,-81 2412.76,-62 2323.76,-62"/>
<text text-anchor="middle" x="2368.26" y="-69" font-family="Helvetica,sans-Serif" font-size="10.00">tvm/ffi/dtype.h</text>
</a>
</g>
</g>
<!-- Node18&#45;&gt;Node20 -->
<g id="edge22" class="edge">
<title>Node18&#45;&gt;Node20</title>
<path fill="none" stroke="midnightblue" d="M2471.21,-128.73C2451.14,-117.77 2416.56,-98.88 2393.06,-86.05"/>
<polygon fill="midnightblue" stroke="midnightblue" points="2394.51,-82.85 2384.05,-81.13 2391.15,-88.99 2394.51,-82.85"/>
</g>
<!-- Node21 -->
<g id="node21" class="node">
<title>Node21</title>
<g id="a_node21"><a xlink:title=" ">
<polygon fill="white" stroke="#bfbfbf" points="2587.76,-62 2587.76,-81 2670.76,-81 2670.76,-62 2587.76,-62"/>
<text text-anchor="middle" x="2629.26" y="-69" font-family="Helvetica,sans-Serif" font-size="10.00">tvm/ffi/error.h</text>
</a>
</g>
</g>
<!-- Node18&#45;&gt;Node21 -->
<g id="edge23" class="edge">
<title>Node18&#45;&gt;Node21</title>
<path fill="none" stroke="midnightblue" d="M2506.11,-128.87C2530.41,-117.75 2572.86,-98.32 2601.01,-85.43"/>
<polygon fill="midnightblue" stroke="midnightblue" points="2602.69,-88.51 2610.32,-81.17 2599.77,-82.15 2602.69,-88.51"/>
</g>
<!-- Node22 -->
<g id="node22" class="node">
<title>Node22</title>
<g id="a_node22"><a xlink:title=" ">
<polygon fill="white" stroke="#bfbfbf" points="2703.26,-62 2703.26,-81 2753.26,-81 2753.26,-62 2703.26,-62"/>
<text text-anchor="middle" x="2728.26" y="-69" font-family="Helvetica,sans-Serif" font-size="10.00">cstring</text>
</a>
</g>
</g>
<!-- Node18&#45;&gt;Node22 -->
<g id="edge25" class="edge">
<title>Node18&#45;&gt;Node22</title>
<path fill="none" stroke="midnightblue" d="M2521.53,-128.95C2560.2,-119.2 2624.92,-102.59 2680.26,-87 2684.41,-85.83 2688.74,-84.57 2693.04,-83.3"/>
<polygon fill="midnightblue" stroke="midnightblue" points="2694.32,-86.57 2702.9,-80.35 2692.32,-79.87 2694.32,-86.57"/>
</g>
<!-- Node18&#45;&gt;Node23 -->
<g id="edge27" class="edge">
<title>Node18&#45;&gt;Node23</title>
<path fill="none" stroke="midnightblue" d="M2457.03,-128.95C2422.61,-119.14 2364.73,-102.41 2315.26,-87 2312.36,-86.1 2309.35,-85.14 2306.34,-84.18"/>
<polygon fill="midnightblue" stroke="midnightblue" points="2307.4,-80.84 2296.81,-81.08 2305.23,-87.5 2307.4,-80.84"/>
</g>
<!-- Node27&#45;&gt;Node4 -->
<g id="edge49" class="edge">
<title>Node27&#45;&gt;Node4</title>
<path fill="none" stroke="midnightblue" d="M1936.65,-314.64C1981.48,-307.3 2049.13,-294.59 2106.26,-277 2128.35,-270.2 2132.77,-265.52 2154.26,-257 2188.63,-243.37 2228.29,-228.53 2255.5,-218.49"/>
<polygon fill="midnightblue" stroke="midnightblue" points="2256.75,-221.76 2264.92,-215.02 2254.33,-215.19 2256.75,-221.76"/>
</g>
<!-- Node27&#45;&gt;Node6 -->
<g id="edge36" class="edge">
<title>Node27&#45;&gt;Node6</title>
<path fill="none" stroke="midnightblue" d="M1936.42,-320.2C2047.17,-315.81 2324.53,-302.97 2555.26,-277 2801.19,-249.32 2860.79,-228.55 3105.26,-190 3207.03,-173.95 3240.18,-196 3334.26,-154 3369,-138.49 3401.66,-107.68 3419.71,-88.7"/>
<polygon fill="midnightblue" stroke="midnightblue" points="3422.49,-90.86 3426.72,-81.14 3417.36,-86.1 3422.49,-90.86"/>
</g>
<!-- Node27&#45;&gt;Node11 -->
<g id="edge34" class="edge">
<title>Node27&#45;&gt;Node11</title>
<path fill="none" stroke="midnightblue" d="M1936.59,-320.54C2057.61,-316.64 2378.71,-304.35 2645.26,-277 2816.39,-259.44 2858.68,-249.94 3028.26,-221 3181.37,-194.87 3219.21,-185.73 3371.26,-154 3486.66,-129.92 3621.9,-99.25 3691.55,-83.27"/>
<polygon fill="midnightblue" stroke="midnightblue" points="3692.38,-86.68 3701.34,-81.03 3690.81,-79.85 3692.38,-86.68"/>
</g>
<!-- Node27&#45;&gt;Node16 -->
<g id="edge50" class="edge">
<title>Node27&#45;&gt;Node16</title>
<path fill="none" stroke="midnightblue" d="M1876.34,-313.22C1866.81,-304.93 1853.43,-291.61 1846.26,-277 1815.42,-214.23 1810.65,-129.15 1810.14,-91.63"/>
<polygon fill="midnightblue" stroke="midnightblue" points="1813.64,-91.19 1810.1,-81.2 1806.64,-91.22 1813.64,-91.19"/>
</g>
<!-- Node27&#45;&gt;Node23 -->
<g id="edge51" class="edge">
<title>Node27&#45;&gt;Node23</title>
<path fill="none" stroke="midnightblue" d="M1911.85,-313.43C1947.03,-299.78 2010.93,-269.59 2042.26,-221 2066.13,-183.97 2027.37,-155.38 2057.26,-123 2079.81,-98.58 2170.72,-84.01 2226.54,-77.19"/>
<polygon fill="midnightblue" stroke="midnightblue" points="2227.01,-80.66 2236.53,-76.01 2226.19,-73.71 2227.01,-80.66"/>
</g>
<!-- Node28 -->
<g id="node28" class="node">
<title>Node28</title>
<g id="a_node28"><a xlink:title=" ">
<polygon fill="white" stroke="#bfbfbf" points="302.76,-62 302.76,-81 433.76,-81 433.76,-62 302.76,-62"/>
<text text-anchor="middle" x="368.26" y="-69" font-family="Helvetica,sans-Serif" font-size="10.00">tvm/ffi/container/map.h</text>
</a>
</g>
</g>
<!-- Node27&#45;&gt;Node28 -->
<g id="edge35" class="edge">
<title>Node27&#45;&gt;Node28</title>
<path fill="none" stroke="midnightblue" d="M1838.19,-319.01C1619.97,-305.57 742.96,-250.2 623.26,-221 548.76,-202.83 529.58,-194.17 464.26,-154 433.25,-134.93 401.97,-106.19 383.88,-88.43"/>
<polygon fill="midnightblue" stroke="midnightblue" points="386.1,-85.7 376.55,-81.11 381.16,-90.65 386.1,-85.7"/>
</g>
<!-- Node29 -->
<g id="node29" class="node">
<title>Node29</title>
<g id="a_node29"><a xlink:href="attrs_8h.html" target="_top" xlink:title="Helpers for attribute objects.">
<polygon fill="white" stroke="black" points="1488.26,-257.5 1488.26,-276.5 1568.26,-276.5 1568.26,-257.5 1488.26,-257.5"/>
<text text-anchor="middle" x="1528.26" y="-264.5" font-family="Helvetica,sans-Serif" font-size="10.00">tvm/ir/attrs.h</text>
</a>
</g>
</g>
<!-- Node27&#45;&gt;Node29 -->
<g id="edge37" class="edge">
<title>Node27&#45;&gt;Node29</title>
<path fill="none" stroke="midnightblue" d="M1838.09,-314.6C1769.87,-304.34 1647.15,-285.88 1578.41,-275.54"/>
<polygon fill="midnightblue" stroke="midnightblue" points="1578.67,-272.04 1568.26,-274.02 1577.63,-278.97 1578.67,-272.04"/>
</g>
<!-- Node29&#45;&gt;Node3 -->
<g id="edge42" class="edge">
<title>Node29&#45;&gt;Node3</title>
<path fill="none" stroke="midnightblue" d="M1488.09,-265.68C1335.52,-264.21 792.01,-256.55 623.26,-221 488.78,-192.67 339.54,-124.25 272.01,-91.11"/>
<polygon fill="midnightblue" stroke="midnightblue" points="273.55,-87.96 263.04,-86.67 270.45,-94.24 273.55,-87.96"/>
</g>
<!-- Node29&#45;&gt;Node4 -->
<g id="edge44" class="edge">
<title>Node29&#45;&gt;Node4</title>
<path fill="none" stroke="midnightblue" d="M1568.31,-262.86C1696.6,-252.82 2097.1,-221.47 2238.34,-210.41"/>
<polygon fill="midnightblue" stroke="midnightblue" points="2238.75,-213.89 2248.45,-209.62 2238.2,-206.91 2238.75,-213.89"/>
</g>
<!-- Node29&#45;&gt;Node7 -->
<g id="edge43" class="edge">
<title>Node29&#45;&gt;Node7</title>
<path fill="none" stroke="midnightblue" d="M1568.64,-264.11C1686.76,-258.49 2041.9,-241.06 2336.26,-221 2521.09,-208.4 2983.41,-176.87 3167.26,-154 3179.35,-152.5 3192.34,-150.51 3204.46,-148.48"/>
<polygon fill="midnightblue" stroke="midnightblue" points="3205.14,-151.92 3214.4,-146.78 3203.96,-145.02 3205.14,-151.92"/>
</g>
<!-- Node29&#45;&gt;Node9 -->
<g id="edge48" class="edge">
<title>Node29&#45;&gt;Node9</title>
<path fill="none" stroke="midnightblue" d="M1564.63,-257.46C1636.5,-241 1801.97,-205.19 1943.26,-190 2003.28,-183.55 2982.6,-192.31 3029.26,-154 3047.48,-139.04 3050.23,-110.31 3049.81,-91.27"/>
<polygon fill="midnightblue" stroke="midnightblue" points="3053.3,-90.91 3049.27,-81.11 3046.31,-91.29 3053.3,-90.91"/>
</g>
<!-- Node29&#45;&gt;Node12 -->
<g id="edge41" class="edge">
<title>Node29&#45;&gt;Node12</title>
<path fill="none" stroke="midnightblue" d="M1488.02,-262.96C1432,-257.87 1334.63,-245.67 1310.26,-221 1279.08,-189.44 1310.02,-163.2 1291.26,-123 1285.27,-110.18 1275.32,-97.81 1266.73,-88.52"/>
<polygon fill="midnightblue" stroke="midnightblue" points="1269.12,-85.97 1259.65,-81.22 1264.1,-90.84 1269.12,-85.97"/>
</g>
<!-- Node29&#45;&gt;Node16 -->
<g id="edge45" class="edge">
<title>Node29&#45;&gt;Node16</title>
<path fill="none" stroke="midnightblue" d="M1545.29,-257.36C1560.56,-249.16 1583.14,-235.91 1600.26,-221 1643.09,-183.71 1636.2,-156.22 1682.26,-123 1711.63,-101.81 1751.12,-88 1778.43,-80.27"/>
<polygon fill="midnightblue" stroke="midnightblue" points="1779.52,-83.6 1788.25,-77.6 1777.68,-76.85 1779.52,-83.6"/>
</g>
<!-- Node29&#45;&gt;Node23 -->
<g id="edge46" class="edge">
<title>Node29&#45;&gt;Node23</title>
<path fill="none" stroke="midnightblue" d="M1551.8,-257.48C1618.88,-233.45 1817.11,-164.21 1986.26,-123 2070.37,-102.51 2170.34,-86.73 2226.74,-78.6"/>
<polygon fill="midnightblue" stroke="midnightblue" points="2227.34,-82.04 2236.75,-77.17 2226.35,-75.11 2227.34,-82.04"/>
</g>
<!-- Node29&#45;&gt;Node28 -->
<g id="edge38" class="edge">
<title>Node29&#45;&gt;Node28</title>
<path fill="none" stroke="midnightblue" d="M1488.03,-265.5C1347.06,-263.48 876.09,-254.34 729.26,-221 596.5,-190.86 449.81,-116.58 392.8,-86"/>
<polygon fill="midnightblue" stroke="midnightblue" points="394.28,-82.82 383.82,-81.14 390.95,-88.98 394.28,-82.82"/>
</g>
<!-- Node30 -->
<g id="node30" class="node">
<title>Node30</title>
<g id="a_node30"><a xlink:title=" ">
<polygon fill="white" stroke="#bfbfbf" points="1319.76,-190.5 1319.76,-220.5 1446.76,-220.5 1446.76,-190.5 1319.76,-190.5"/>
<text text-anchor="start" x="1327.76" y="-208.5" font-family="Helvetica,sans-Serif" font-size="10.00">tvm/ffi/extra/structural</text>
<text text-anchor="middle" x="1383.26" y="-197.5" font-family="Helvetica,sans-Serif" font-size="10.00">_equal.h</text>
</a>
</g>
</g>
<!-- Node29&#45;&gt;Node30 -->
<g id="edge39" class="edge">
<title>Node29&#45;&gt;Node30</title>
<path fill="none" stroke="midnightblue" d="M1507.48,-257.48C1486.56,-248.89 1453.64,-235.38 1426.95,-224.43"/>
<polygon fill="midnightblue" stroke="midnightblue" points="1428.01,-221.08 1417.43,-220.52 1425.35,-227.56 1428.01,-221.08"/>
</g>
<!-- Node31 -->
<g id="node31" class="node">
<title>Node31</title>
<g id="a_node31"><a xlink:title=" ">
<polygon fill="white" stroke="#bfbfbf" points="1464.76,-190.5 1464.76,-220.5 1591.76,-220.5 1591.76,-190.5 1464.76,-190.5"/>
<text text-anchor="start" x="1472.76" y="-208.5" font-family="Helvetica,sans-Serif" font-size="10.00">tvm/ffi/extra/structural</text>
<text text-anchor="middle" x="1528.26" y="-197.5" font-family="Helvetica,sans-Serif" font-size="10.00">_hash.h</text>
</a>
</g>
</g>
<!-- Node29&#45;&gt;Node31 -->
<g id="edge40" class="edge">
<title>Node29&#45;&gt;Node31</title>
<path fill="none" stroke="midnightblue" d="M1528.26,-257.48C1528.26,-250.47 1528.26,-240.19 1528.26,-230.7"/>
<polygon fill="midnightblue" stroke="midnightblue" points="1531.76,-230.52 1528.26,-220.52 1524.76,-230.52 1531.76,-230.52"/>
</g>
<!-- Node32 -->
<g id="node32" class="node">
<title>Node32</title>
<g id="a_node32"><a xlink:title=" ">
<polygon fill="white" stroke="#bfbfbf" points="616.76,-62 616.76,-81 709.76,-81 709.76,-62 616.76,-62"/>
<text text-anchor="middle" x="663.26" y="-69" font-family="Helvetica,sans-Serif" font-size="10.00">unordered_map</text>
</a>
</g>
</g>
<!-- Node29&#45;&gt;Node32 -->
<g id="edge47" class="edge">
<title>Node29&#45;&gt;Node32</title>
<path fill="none" stroke="midnightblue" d="M1488.02,-265.35C1340.86,-262.75 837.11,-251.67 772.26,-221 716.69,-194.72 683.12,-124.2 669.84,-90.68"/>
<polygon fill="midnightblue" stroke="midnightblue" points="673.06,-89.3 666.24,-81.2 666.52,-91.79 673.06,-89.3"/>
</g>
<!-- Node33&#45;&gt;Node9 -->
<g id="edge56" class="edge">
<title>Node33&#45;&gt;Node9</title>
<path fill="none" stroke="midnightblue" d="M2793.86,-128.94C2852.11,-116.01 2961.42,-91.76 3015.81,-79.7"/>
<polygon fill="midnightblue" stroke="midnightblue" points="3016.61,-83.11 3025.61,-77.52 3015.09,-76.27 3016.61,-83.11"/>
</g>
<!-- Node33&#45;&gt;Node17 -->
<g id="edge57" class="edge">
<title>Node33&#45;&gt;Node17</title>
<path fill="none" stroke="midnightblue" d="M2700.72,-128.98C2683.64,-126.64 2664.7,-124.37 2647.26,-123 1948.33,-68.27 1768.67,-148.02 1070.26,-87 1049.83,-85.22 1027.13,-81.8 1009.04,-78.74"/>
<polygon fill="midnightblue" stroke="midnightblue" points="1009.42,-75.25 998.97,-76.99 1008.22,-82.15 1009.42,-75.25"/>
</g>
<!-- Node33&#45;&gt;Node21 -->
<g id="edge53" class="edge">
<title>Node33&#45;&gt;Node21</title>
<path fill="none" stroke="midnightblue" d="M2738.53,-128.87C2717.16,-117.84 2679.96,-98.66 2654.98,-85.77"/>
<polygon fill="midnightblue" stroke="midnightblue" points="2656.55,-82.64 2646.06,-81.17 2653.34,-88.86 2656.55,-82.64"/>
</g>
<!-- Node33&#45;&gt;Node22 -->
<g id="edge54" class="edge">
<title>Node33&#45;&gt;Node22</title>
<path fill="none" stroke="midnightblue" d="M2751.62,-128.73C2747.57,-118.99 2740.92,-102.98 2735.75,-90.53"/>
<polygon fill="midnightblue" stroke="midnightblue" points="2738.91,-89.02 2731.84,-81.13 2732.45,-91.7 2738.91,-89.02"/>
</g>
<!-- Node33&#45;&gt;Node23 -->
<g id="edge55" class="edge">
<title>Node33&#45;&gt;Node23</title>
<path fill="none" stroke="midnightblue" d="M2714.89,-128.98C2703.71,-126.82 2691.54,-124.64 2680.26,-123 2518.95,-99.5 2474.74,-120.71 2315.26,-87 2311.58,-86.22 2307.78,-85.25 2304.02,-84.17"/>
<polygon fill="midnightblue" stroke="midnightblue" points="2304.88,-80.77 2294.29,-81.15 2302.8,-87.45 2304.88,-80.77"/>
</g>
<!-- Node34&#45;&gt;Node2 -->
<g id="edge128" class="edge">
<title>Node34&#45;&gt;Node2</title>
<path fill="none" stroke="midnightblue" d="M1691.98,-549.88C1695.11,-549.23 1698.22,-548.6 1701.26,-548 1789.42,-530.49 1826.91,-563.94 1900.26,-512 1935.71,-486.9 1956.01,-438.47 1965.53,-409.36"/>
<polygon fill="midnightblue" stroke="midnightblue" points="1968.94,-410.18 1968.55,-399.59 1962.25,-408.11 1968.94,-410.18"/>
</g>
<!-- Node34&#45;&gt;Node3 -->
<g id="edge60" class="edge">
<title>Node34&#45;&gt;Node3</title>
<path fill="none" stroke="midnightblue" d="M1576.63,-558.37C1326.59,-539.47 337.19,-454.52 90.26,-277 31.94,-235.08 -2.67,-179.83 41.26,-123 57.72,-101.7 125.12,-87.71 175.89,-79.96"/>
<polygon fill="midnightblue" stroke="midnightblue" points="176.42,-83.42 185.8,-78.5 175.4,-76.5 176.42,-83.42"/>
</g>
<!-- Node34&#45;&gt;Node4 -->
<g id="edge61" class="edge">
<title>Node34&#45;&gt;Node4</title>
<path fill="none" stroke="midnightblue" d="M1691.96,-549.81C1695.1,-549.18 1698.22,-548.57 1701.26,-548 1800.35,-529.33 1830.14,-545.45 1925.26,-512 2020.27,-478.59 2038.69,-456.22 2122.26,-400 2162.17,-373.15 2170.89,-364.48 2207.26,-333 2234.59,-309.34 2247.15,-307.69 2266.26,-277 2276.2,-261.04 2281.97,-240.24 2285.08,-225.37"/>
<polygon fill="midnightblue" stroke="midnightblue" points="2288.56,-225.82 2286.98,-215.34 2281.68,-224.52 2288.56,-225.82"/>
</g>
<!-- Node34&#45;&gt;Node17 -->
<g id="edge129" class="edge">
<title>Node34&#45;&gt;Node17</title>
<path fill="none" stroke="midnightblue" d="M1576.62,-560.12C1337.91,-549.53 439.26,-501.9 439.26,-385.5 439.26,-385.5 439.26,-385.5 439.26,-322 439.26,-99.54 823.44,-74.92 941.3,-72.61"/>
<polygon fill="midnightblue" stroke="midnightblue" points="941.59,-76.1 951.53,-72.45 941.48,-69.1 941.59,-76.1"/>
</g>
<!-- Node34&#45;&gt;Node27 -->
<g id="edge62" class="edge">
<title>Node34&#45;&gt;Node27</title>
<path fill="none" stroke="midnightblue" d="M1691.9,-548.84C1747.17,-535.54 1823,-516.66 1828.26,-512 1878.35,-467.57 1886.34,-381.16 1887.32,-342.95"/>
<polygon fill="midnightblue" stroke="midnightblue" points="1890.82,-342.78 1887.44,-332.74 1883.82,-342.7 1890.82,-342.78"/>
</g>
<!-- Node35 -->
<g id="node35" class="node">
<title>Node35</title>
<g id="a_node35"><a xlink:href="module_8h.html" target="_top" xlink:title="IRModule that holds the functions and type definitions.">
<polygon fill="white" stroke="black" points="1724.76,-492.5 1724.76,-511.5 1819.76,-511.5 1819.76,-492.5 1724.76,-492.5"/>
<text text-anchor="middle" x="1772.26" y="-499.5" font-family="Helvetica,sans-Serif" font-size="10.00">tvm/ir/module.h</text>
</a>
</g>
</g>
<!-- Node34&#45;&gt;Node35 -->
<g id="edge63" class="edge">
<title>Node34&#45;&gt;Node35</title>
<path fill="none" stroke="midnightblue" d="M1666.96,-548.4C1690.01,-538.46 1720.62,-525.26 1742.89,-515.66"/>
<polygon fill="midnightblue" stroke="midnightblue" points="1744.38,-518.83 1752.18,-511.66 1741.61,-512.4 1744.38,-518.83"/>
</g>
<!-- Node35&#45;&gt;Node3 -->
<g id="edge66" class="edge">
<title>Node35&#45;&gt;Node3</title>
<path fill="none" stroke="midnightblue" d="M1724.72,-497.91C1635.45,-491.86 1436.71,-477.14 1270.26,-456 1042.51,-427.08 438.93,-369.98 264.26,-221 228.7,-190.68 228.56,-130.79 231.78,-97.07"/>
<polygon fill="midnightblue" stroke="midnightblue" points="235.3,-97.05 232.96,-86.72 228.35,-96.26 235.3,-97.05"/>
</g>
<!-- Node35&#45;&gt;Node4 -->
<g id="edge69" class="edge">
<title>Node35&#45;&gt;Node4</title>
<path fill="none" stroke="midnightblue" d="M1809.88,-492.49C1869.61,-478.17 1988.92,-446.21 2082.26,-400 2129.21,-376.75 2137.8,-365.03 2179.26,-333 2209.43,-309.69 2219.44,-305.95 2244.26,-277 2258.3,-260.63 2270.95,-239.33 2279.04,-224.45"/>
<polygon fill="midnightblue" stroke="midnightblue" points="2282.29,-225.79 2283.87,-215.31 2276.1,-222.51 2282.29,-225.79"/>
</g>
<!-- Node35&#45;&gt;Node6 -->
<g id="edge67" class="edge">
<title>Node35&#45;&gt;Node6</title>
<path fill="none" stroke="midnightblue" d="M1820.09,-493.64C1873.09,-485.3 1961.01,-470.91 2036.26,-456 2054.91,-452.3 3355.23,-164.22 3371.26,-154 3396.06,-138.19 3414.99,-109.06 3425.36,-90.25"/>
<polygon fill="midnightblue" stroke="midnightblue" points="3428.54,-91.72 3430.11,-81.24 3422.35,-88.46 3428.54,-91.72"/>
</g>
<!-- Node35&#45;&gt;Node7 -->
<g id="edge68" class="edge">
<title>Node35&#45;&gt;Node7</title>
<path fill="none" stroke="midnightblue" d="M1819.86,-499.11C1937.64,-494.14 2240.23,-479.43 2338.26,-456 2500.89,-417.13 2528.81,-369.3 2686.26,-313 2787.89,-276.66 3103.48,-183.43 3214.31,-150.9"/>
<polygon fill="midnightblue" stroke="midnightblue" points="3215.46,-154.21 3224.07,-148.04 3213.49,-147.5 3215.46,-154.21"/>
</g>
<!-- Node35&#45;&gt;Node9 -->
<g id="edge126" class="edge">
<title>Node35&#45;&gt;Node9</title>
<path fill="none" stroke="midnightblue" d="M1816.28,-492.44C1859.28,-483.9 1926.49,-470.05 1984.26,-456 2418.21,-350.48 2517.16,-286.28 2953.26,-190 3000.35,-179.6 3136.12,-190.82 3167.26,-154 3196.44,-119.5 3125.36,-93.14 3080.86,-80.59"/>
<polygon fill="midnightblue" stroke="midnightblue" points="3081.58,-77.16 3071.01,-77.91 3079.74,-83.91 3081.58,-77.16"/>
</g>
<!-- Node35&#45;&gt;Node10 -->
<g id="edge114" class="edge">
<title>Node35&#45;&gt;Node10</title>
<path fill="none" stroke="midnightblue" d="M1724.44,-497.62C1617.36,-489.01 1363.45,-462.31 1309.26,-400 1247.81,-329.34 1237.78,-266.16 1292.26,-190 1303.86,-173.78 1350.86,-159.55 1388.83,-150.37"/>
<polygon fill="midnightblue" stroke="midnightblue" points="1389.83,-153.73 1398.76,-148.03 1388.22,-146.91 1389.83,-153.73"/>
</g>
<!-- Node35&#45;&gt;Node11 -->
<g id="edge64" class="edge">
<title>Node35&#45;&gt;Node11</title>
<path fill="none" stroke="midnightblue" d="M1820.04,-500.77C1923.88,-499.56 2177.57,-492.74 2386.26,-456 2924.74,-361.21 3556.51,-138.5 3705.6,-84.46"/>
<polygon fill="midnightblue" stroke="midnightblue" points="3706.9,-87.72 3715.1,-81.01 3704.51,-81.14 3706.9,-87.72"/>
</g>
<!-- Node35&#45;&gt;Node16 -->
<g id="edge123" class="edge">
<title>Node35&#45;&gt;Node16</title>
<path fill="none" stroke="midnightblue" d="M1772.26,-492.31C1772.26,-473.06 1772.26,-425.4 1772.26,-385.5 1772.26,-385.5 1772.26,-385.5 1772.26,-204.5 1772.26,-162.35 1790.37,-115.48 1801.59,-90.5"/>
<polygon fill="midnightblue" stroke="midnightblue" points="1804.86,-91.76 1805.9,-81.21 1798.51,-88.81 1804.86,-91.76"/>
</g>
<!-- Node35&#45;&gt;Node17 -->
<g id="edge127" class="edge">
<title>Node35&#45;&gt;Node17</title>
<path fill="none" stroke="midnightblue" d="M1724.49,-499.31C1648.41,-495.81 1495.4,-485.44 1369.26,-456 1070.52,-386.27 936.8,-438.29 720.26,-221 688.6,-189.24 667.51,-157.42 696.26,-123 727.18,-85.97 874.32,-76.04 941.57,-73.42"/>
<polygon fill="midnightblue" stroke="midnightblue" points="941.78,-76.91 951.65,-73.06 941.53,-69.92 941.78,-76.91"/>
</g>
<!-- Node35&#45;&gt;Node27 -->
<g id="edge70" class="edge">
<title>Node35&#45;&gt;Node27</title>
<path fill="none" stroke="midnightblue" d="M1785.14,-492.22C1796.56,-483.94 1813.11,-470.62 1824.26,-456 1852,-419.62 1871.9,-369.06 1881.25,-342.3"/>
<polygon fill="midnightblue" stroke="midnightblue" points="1884.61,-343.29 1884.51,-332.7 1877.98,-341.05 1884.61,-343.29"/>
</g>
<!-- Node35&#45;&gt;Node28 -->
<g id="edge65" class="edge">
<title>Node35&#45;&gt;Node28</title>
<path fill="none" stroke="midnightblue" d="M1724.58,-499.44C1600.16,-494.39 1256.25,-474.26 981.26,-400 892.38,-376 870.33,-368.18 785.26,-333 617.92,-263.8 553.8,-275.19 419.26,-154 399.35,-136.07 384.36,-108.59 375.94,-90.58"/>
<polygon fill="midnightblue" stroke="midnightblue" points="379.04,-88.92 371.76,-81.21 372.64,-91.77 379.04,-88.92"/>
</g>
<!-- Node35&#45;&gt;Node32 -->
<g id="edge124" class="edge">
<title>Node35&#45;&gt;Node32</title>
<path fill="none" stroke="midnightblue" d="M1724.54,-499.1C1648.52,-495.32 1495.6,-484.58 1369.26,-456 1058.19,-385.65 899.57,-462.49 691.26,-221 659.35,-184.01 659.05,-122.26 661.25,-91.34"/>
<polygon fill="midnightblue" stroke="midnightblue" points="664.76,-91.39 662.16,-81.12 657.79,-90.77 664.76,-91.39"/>
</g>
<!-- Node36 -->
<g id="node36" class="node">
<title>Node36</title>
<g id="a_node36"><a xlink:href="ir_2global__info_8h.html" target="_top" xlink:title="GlobalInfo are globally static object that are referred by the IR itself.">
<polygon fill="white" stroke="black" points="1632.26,-436.5 1632.26,-455.5 1744.26,-455.5 1744.26,-436.5 1632.26,-436.5"/>
<text text-anchor="middle" x="1688.26" y="-443.5" font-family="Helvetica,sans-Serif" font-size="10.00">tvm/ir/global_info.h</text>
</a>
</g>
</g>
<!-- Node35&#45;&gt;Node36 -->
<g id="edge71" class="edge">
<title>Node35&#45;&gt;Node36</title>
<path fill="none" stroke="midnightblue" d="M1758.76,-492.32C1745.66,-483.9 1725.55,-470.97 1710.15,-461.07"/>
<polygon fill="midnightblue" stroke="midnightblue" points="1712.02,-458.12 1701.72,-455.65 1708.24,-464.01 1712.02,-458.12"/>
</g>
<!-- Node48 -->
<g id="node48" class="node">
<title>Node48</title>
<g id="a_node48"><a xlink:href="ir_2type_8h.html" target="_top" xlink:title="IR/AST nodes for the unified type system in TVM.">
<polygon fill="white" stroke="black" points="1855.26,-257.5 1855.26,-276.5 1935.26,-276.5 1935.26,-257.5 1855.26,-257.5"/>
<text text-anchor="middle" x="1895.26" y="-264.5" font-family="Helvetica,sans-Serif" font-size="10.00">tvm/ir/type.h</text>
</a>
</g>
</g>
<!-- Node35&#45;&gt;Node48 -->
<g id="edge115" class="edge">
<title>Node35&#45;&gt;Node48</title>
<path fill="none" stroke="midnightblue" d="M1774.97,-492.38C1777.8,-483.33 1782.38,-468.67 1786.26,-456 1805.67,-392.54 1790.04,-366.54 1829.26,-313 1839.05,-299.64 1854.07,-288.95 1867.31,-281.35"/>
<polygon fill="midnightblue" stroke="midnightblue" points="1868.98,-284.42 1876.1,-276.58 1865.64,-278.27 1868.98,-284.42"/>
</g>
<!-- Node50 -->
<g id="node50" class="node">
<title>Node50</title>
<g id="a_node50"><a xlink:title=" ">
<polygon fill="white" stroke="#bfbfbf" points="1528.26,-436.5 1528.26,-455.5 1614.26,-455.5 1614.26,-436.5 1528.26,-436.5"/>
<text text-anchor="middle" x="1571.26" y="-443.5" font-family="Helvetica,sans-Serif" font-size="10.00">unordered_set</text>
</a>
</g>
</g>
<!-- Node35&#45;&gt;Node50 -->
<g id="edge125" class="edge">
<title>Node35&#45;&gt;Node50</title>
<path fill="none" stroke="midnightblue" d="M1740.41,-492.44C1705.86,-483.16 1650.58,-468.31 1612.67,-458.13"/>
<polygon fill="midnightblue" stroke="midnightblue" points="1613.52,-454.73 1602.96,-455.52 1611.71,-461.49 1613.52,-454.73"/>
</g>
<!-- Node36&#45;&gt;Node3 -->
<g id="edge72" class="edge">
<title>Node36&#45;&gt;Node3</title>
<path fill="none" stroke="midnightblue" d="M1632.25,-437.16C1629.21,-436.76 1626.2,-436.37 1623.26,-436 1483.9,-418.37 1448.81,-416.06 1309.26,-400 1051.47,-370.33 984.74,-378.42 729.26,-333 624.82,-314.43 599.74,-304.37 497.26,-277 411.79,-254.17 380.88,-268.51 306.26,-221 272.79,-199.69 263.95,-190 247.26,-154 238.92,-136.01 236.09,-113.61 235.25,-96.84"/>
<polygon fill="midnightblue" stroke="midnightblue" points="238.75,-96.63 234.95,-86.74 231.75,-96.84 238.75,-96.63"/>
</g>
<!-- Node36&#45;&gt;Node4 -->
<g id="edge73" class="edge">
<title>Node36&#45;&gt;Node4</title>
<path fill="none" stroke="midnightblue" d="M1744.43,-441.37C1829.45,-435.28 1986.41,-421.51 2038.26,-400 2140.53,-357.57 2236.87,-261.84 2273.11,-223.17"/>
<polygon fill="midnightblue" stroke="midnightblue" points="2276.06,-225.14 2280.28,-215.43 2270.92,-220.39 2276.06,-225.14"/>
</g>
<!-- Node37 -->
<g id="node37" class="node">
<title>Node37</title>
<g id="a_node37"><a xlink:href="target_8h.html" target="_top" xlink:title="Compilation target object.">
<polygon fill="white" stroke="black" points="1318.26,-375 1318.26,-394 1428.26,-394 1428.26,-375 1318.26,-375"/>
<text text-anchor="middle" x="1373.26" y="-382" font-family="Helvetica,sans-Serif" font-size="10.00">tvm/target/target.h</text>
</a>
</g>
</g>
<!-- Node36&#45;&gt;Node37 -->
<g id="edge74" class="edge">
<title>Node36&#45;&gt;Node37</title>
<path fill="none" stroke="midnightblue" d="M1643.13,-436.48C1586.4,-425.76 1489.1,-407.38 1428.14,-395.87"/>
<polygon fill="midnightblue" stroke="midnightblue" points="1428.78,-392.43 1418.31,-394.01 1427.48,-399.3 1428.78,-392.43"/>
</g>
<!-- Node37&#45;&gt;Node3 -->
<g id="edge75" class="edge">
<title>Node37&#45;&gt;Node3</title>
<path fill="none" stroke="midnightblue" d="M1318.1,-381.51C1165.1,-374.52 724.15,-344.28 383.26,-221 327.99,-201.01 307.89,-198.29 269.26,-154 254.9,-137.54 246,-114.17 240.92,-96.67"/>
<polygon fill="midnightblue" stroke="midnightblue" points="244.2,-95.4 238.24,-86.65 237.44,-97.21 244.2,-95.4"/>
</g>
<!-- Node37&#45;&gt;Node4 -->
<g id="edge76" class="edge">
<title>Node37&#45;&gt;Node4</title>
<path fill="none" stroke="midnightblue" d="M1420.69,-374.95C1518.62,-357.22 1750.29,-314.96 1944.26,-277 2049.25,-256.45 2171.95,-230.95 2238.74,-216.94"/>
<polygon fill="midnightblue" stroke="midnightblue" points="2239.51,-220.35 2248.58,-214.87 2238.07,-213.5 2239.51,-220.35"/>
</g>
<!-- Node37&#45;&gt;Node16 -->
<g id="edge113" class="edge">
<title>Node37&#45;&gt;Node16</title>
<path fill="none" stroke="midnightblue" d="M1395.22,-374.97C1434.21,-359.22 1517.07,-322.93 1577.26,-277 1651.51,-220.34 1646.87,-180.77 1720.26,-123 1739.32,-108 1763.39,-94.74 1781.85,-85.57"/>
<polygon fill="midnightblue" stroke="midnightblue" points="1783.46,-88.68 1790.93,-81.17 1780.4,-82.38 1783.46,-88.68"/>
</g>
<!-- Node37&#45;&gt;Node27 -->
<g id="edge77" class="edge">
<title>Node37&#45;&gt;Node27</title>
<path fill="none" stroke="midnightblue" d="M1428.26,-377.13C1525.66,-365.86 1727.62,-342.48 1827.99,-330.86"/>
<polygon fill="midnightblue" stroke="midnightblue" points="1828.43,-334.33 1837.96,-329.71 1827.62,-327.38 1828.43,-334.33"/>
</g>
<!-- Node38 -->
<g id="node38" class="node">
<title>Node38</title>
<g id="a_node38"><a xlink:href="with__context_8h.html" target="_top" xlink:title="RAII wrapper function to enter and exit a context object similar to python&#39;s with syntax.">
<polygon fill="white" stroke="black" points="781.76,-196 781.76,-215 902.76,-215 902.76,-196 781.76,-196"/>
<text text-anchor="middle" x="842.26" y="-203" font-family="Helvetica,sans-Serif" font-size="10.00">tvm/ir/with_context.h</text>
</a>
</g>
</g>
<!-- Node37&#45;&gt;Node38 -->
<g id="edge78" class="edge">
<title>Node37&#45;&gt;Node38</title>
<path fill="none" stroke="midnightblue" d="M1347.65,-374.96C1260.82,-346.02 977.5,-251.58 877.56,-218.27"/>
<polygon fill="midnightblue" stroke="midnightblue" points="878.52,-214.9 867.92,-215.05 876.3,-221.54 878.52,-214.9"/>
</g>
<!-- Node41 -->
<g id="node41" class="node">
<title>Node41</title>
<g id="a_node41"><a xlink:href="device__api_8h.html" target="_top" xlink:title="Abstract device memory management API.">
<polygon fill="white" stroke="black" points="1516.76,-123.5 1516.76,-153.5 1629.76,-153.5 1629.76,-123.5 1516.76,-123.5"/>
<text text-anchor="start" x="1524.76" y="-141.5" font-family="Helvetica,sans-Serif" font-size="10.00">tvm/runtime/device</text>
<text text-anchor="middle" x="1573.26" y="-130.5" font-family="Helvetica,sans-Serif" font-size="10.00">_api.h</text>
</a>
</g>
</g>
<!-- Node37&#45;&gt;Node41 -->
<g id="edge84" class="edge">
<title>Node37&#45;&gt;Node41</title>
<path fill="none" stroke="midnightblue" d="M1365.18,-374.69C1339.11,-345.17 1261.61,-248.34 1310.26,-190 1337.09,-157.82 1449.33,-162.1 1506.42,-153.83"/>
<polygon fill="midnightblue" stroke="midnightblue" points="1507.13,-157.26 1516.4,-152.13 1505.96,-150.36 1507.13,-157.26"/>
</g>
<!-- Node44 -->
<g id="node44" class="node">
<title>Node44</title>
<g id="a_node44"><a xlink:href="target__kind_8h.html" target="_top" xlink:title="Target kind registry.">
<polygon fill="white" stroke="black" points="975.26,-196 975.26,-215 1111.26,-215 1111.26,-196 975.26,-196"/>
<text text-anchor="middle" x="1043.26" y="-203" font-family="Helvetica,sans-Serif" font-size="10.00">tvm/target/target_kind.h</text>
</a>
</g>
</g>
<!-- Node37&#45;&gt;Node44 -->
<g id="edge91" class="edge">
<title>Node37&#45;&gt;Node44</title>
<path fill="none" stroke="midnightblue" d="M1356.92,-374.98C1337.79,-364.98 1305.17,-347.89 1277.26,-333 1200.73,-292.19 1110.56,-243.18 1067.94,-219.96"/>
<polygon fill="midnightblue" stroke="midnightblue" points="1069.57,-216.86 1059.11,-215.15 1066.22,-223.01 1069.57,-216.86"/>
</g>
<!-- Node38&#45;&gt;Node9 -->
<g id="edge82" class="edge">
<title>Node38&#45;&gt;Node9</title>
<path fill="none" stroke="midnightblue" d="M903.01,-196.2C923.11,-193.78 945.61,-191.4 966.26,-190 1069.32,-182.99 2729.59,-192.96 2825.26,-154 2843.89,-146.41 2840.67,-132.77 2858.26,-123 2908.96,-94.84 2976.06,-81.81 3015.46,-76.24"/>
<polygon fill="midnightblue" stroke="midnightblue" points="3016.11,-79.68 3025.56,-74.89 3015.18,-72.74 3016.11,-79.68"/>
</g>
<!-- Node38&#45;&gt;Node17 -->
<g id="edge83" class="edge">
<title>Node38&#45;&gt;Node17</title>
<path fill="none" stroke="midnightblue" d="M806.4,-195.96C760.92,-183.46 691.64,-157.84 720.26,-123 747.88,-89.37 878.59,-77.75 941.4,-74.06"/>
<polygon fill="midnightblue" stroke="midnightblue" points="941.79,-77.55 951.58,-73.5 941.41,-70.56 941.79,-77.55"/>
</g>
<!-- Node38&#45;&gt;Node25 -->
<g id="edge80" class="edge">
<title>Node38&#45;&gt;Node25</title>
<path fill="none" stroke="midnightblue" d="M903.03,-196.51C923.13,-194.1 945.63,-191.66 966.26,-190 1184.3,-172.42 1877.4,-147.31 2056.62,-140.99"/>
<polygon fill="midnightblue" stroke="midnightblue" points="2056.84,-144.48 2066.71,-140.63 2056.6,-137.49 2056.84,-144.48"/>
</g>
<!-- Node39 -->
<g id="node39" class="node">
<title>Node39</title>
<g id="a_node39"><a xlink:title=" ">
<polygon fill="white" stroke="#bfbfbf" points="729.76,-129 729.76,-148 794.76,-148 794.76,-129 729.76,-129"/>
<text text-anchor="middle" x="762.26" y="-136" font-family="Helvetica,sans-Serif" font-size="10.00">exception</text>
</a>
</g>
</g>
<!-- Node38&#45;&gt;Node39 -->
<g id="edge79" class="edge">
<title>Node38&#45;&gt;Node39</title>
<path fill="none" stroke="midnightblue" d="M831.47,-195.73C818.51,-185.21 796.57,-167.38 780.86,-154.62"/>
<polygon fill="midnightblue" stroke="midnightblue" points="782.84,-151.72 772.88,-148.13 778.43,-157.15 782.84,-151.72"/>
</g>
<!-- Node40 -->
<g id="node40" class="node">
<title>Node40</title>
<g id="a_node40"><a xlink:title=" ">
<polygon fill="white" stroke="#bfbfbf" points="813.26,-129 813.26,-148 871.26,-148 871.26,-129 813.26,-129"/>
<text text-anchor="middle" x="842.26" y="-136" font-family="Helvetica,sans-Serif" font-size="10.00">memory</text>
</a>
</g>
</g>
<!-- Node38&#45;&gt;Node40 -->
<g id="edge81" class="edge">
<title>Node38&#45;&gt;Node40</title>
<path fill="none" stroke="midnightblue" d="M842.26,-195.73C842.26,-186.18 842.26,-170.62 842.26,-158.28"/>
<polygon fill="midnightblue" stroke="midnightblue" points="845.76,-158.13 842.26,-148.13 838.76,-158.13 845.76,-158.13"/>
</g>
<!-- Node41&#45;&gt;Node6 -->
<g id="edge88" class="edge">
<title>Node41&#45;&gt;Node6</title>
<path fill="none" stroke="midnightblue" d="M1630.06,-135.75C1829.24,-129.58 2514.55,-108.06 3080.26,-87 3186.08,-83.06 3309.67,-77.86 3379.27,-74.88"/>
<polygon fill="midnightblue" stroke="midnightblue" points="3379.72,-78.36 3389.56,-74.44 3379.42,-71.37 3379.72,-78.36"/>
</g>
<!-- Node41&#45;&gt;Node13 -->
<g id="edge89" class="edge">
<title>Node41&#45;&gt;Node13</title>
<path fill="none" stroke="midnightblue" d="M1530.29,-123.4C1494.63,-111.69 1444.5,-95.23 1411,-84.23"/>
<polygon fill="midnightblue" stroke="midnightblue" points="1411.76,-80.8 1401.17,-81.01 1409.58,-87.45 1411.76,-80.8"/>
</g>
<!-- Node41&#45;&gt;Node16 -->
<g id="edge90" class="edge">
<title>Node41&#45;&gt;Node16</title>
<path fill="none" stroke="midnightblue" d="M1624.39,-123.48C1671.11,-110.66 1738.75,-92.11 1778.24,-81.28"/>
<polygon fill="midnightblue" stroke="midnightblue" points="1779.4,-84.59 1788.12,-78.57 1777.55,-77.84 1779.4,-84.59"/>
</g>
<!-- Node41&#45;&gt;Node21 -->
<g id="edge86" class="edge">
<title>Node41&#45;&gt;Node21</title>
<path fill="none" stroke="midnightblue" d="M1630.02,-135.42C1828.68,-128.04 2485.75,-102.69 2579.26,-87 2584.13,-86.18 2589.19,-85.05 2594.15,-83.78"/>
<polygon fill="midnightblue" stroke="midnightblue" points="2595.38,-87.08 2604.09,-81.03 2593.51,-80.33 2595.38,-87.08"/>
</g>
<!-- Node42 -->
<g id="node42" class="node">
<title>Node42</title>
<g id="a_node42"><a xlink:title=" ">
<polygon fill="white" stroke="#bfbfbf" points="1641.76,-62 1641.76,-81 1718.76,-81 1718.76,-62 1641.76,-62"/>
<text text-anchor="middle" x="1680.26" y="-69" font-family="Helvetica,sans-Serif" font-size="10.00">tvm/ffi/any.h</text>
</a>
</g>
</g>
<!-- Node41&#45;&gt;Node42 -->
<g id="edge85" class="edge">
<title>Node41&#45;&gt;Node42</title>
<path fill="none" stroke="midnightblue" d="M1596.48,-123.4C1614.58,-112.39 1639.6,-97.2 1657.57,-86.28"/>
<polygon fill="midnightblue" stroke="midnightblue" points="1659.52,-89.19 1666.25,-81.01 1655.89,-83.21 1659.52,-89.19"/>
</g>
<!-- Node43 -->
<g id="node43" class="node">
<title>Node43</title>
<g id="a_node43"><a xlink:title=" ">
<polygon fill="white" stroke="#bfbfbf" points="1522.76,-62 1522.76,-81 1623.76,-81 1623.76,-62 1522.76,-62"/>
<text text-anchor="middle" x="1573.26" y="-69" font-family="Helvetica,sans-Serif" font-size="10.00">tvm/ffi/optional.h</text>
</a>
</g>
</g>
<!-- Node41&#45;&gt;Node43 -->
<g id="edge87" class="edge">
<title>Node41&#45;&gt;Node43</title>
<path fill="none" stroke="midnightblue" d="M1573.26,-123.4C1573.26,-114.06 1573.26,-101.71 1573.26,-91.52"/>
<polygon fill="midnightblue" stroke="midnightblue" points="1576.76,-91.19 1573.26,-81.19 1569.76,-91.19 1576.76,-91.19"/>
</g>
<!-- Node44&#45;&gt;Node3 -->
<g id="edge93" class="edge">
<title>Node44&#45;&gt;Node3</title>
<path fill="none" stroke="midnightblue" d="M1011.74,-195.98C984.39,-187.75 944.39,-173.62 913.26,-154 896.23,-143.27 898.73,-130.98 880.26,-123 763.09,-72.4 438.14,-105.3 294.52,-86.88"/>
<polygon fill="midnightblue" stroke="midnightblue" points="294.88,-83.4 284.49,-85.46 293.9,-90.33 294.88,-83.4"/>
</g>
<!-- Node44&#45;&gt;Node9 -->
<g id="edge111" class="edge">
<title>Node44&#45;&gt;Node9</title>
<path fill="none" stroke="midnightblue" d="M1111.27,-200.22C1165.21,-196.97 1242.53,-192.63 1310.26,-190 1482.18,-183.33 2694.86,-207.88 2858.26,-154 2880.98,-146.51 2880.97,-133.91 2902.26,-123 2939.41,-103.97 2985.36,-89.41 3015.67,-80.92"/>
<polygon fill="midnightblue" stroke="midnightblue" points="3016.98,-84.19 3025.7,-78.18 3015.13,-77.44 3016.98,-84.19"/>
</g>
<!-- Node44&#45;&gt;Node12 -->
<g id="edge92" class="edge">
<title>Node44&#45;&gt;Node12</title>
<path fill="none" stroke="midnightblue" d="M1082.4,-195.96C1111.51,-188.29 1151.24,-174.96 1181.26,-154 1206.11,-136.65 1227.36,-108.22 1239.48,-89.94"/>
<polygon fill="midnightblue" stroke="midnightblue" points="1242.49,-91.72 1244.95,-81.41 1236.6,-87.94 1242.49,-91.72"/>
</g>
<!-- Node44&#45;&gt;Node13 -->
<g id="edge108" class="edge">
<title>Node44&#45;&gt;Node13</title>
<path fill="none" stroke="midnightblue" d="M1078.16,-195.96C1112.76,-187.06 1166.99,-171.92 1212.26,-154 1263.44,-133.73 1320.35,-103.37 1351.55,-85.99"/>
<polygon fill="midnightblue" stroke="midnightblue" points="1353.37,-88.99 1360.38,-81.04 1349.95,-82.88 1353.37,-88.99"/>
</g>
<!-- Node44&#45;&gt;Node17 -->
<g id="edge112" class="edge">
<title>Node44&#45;&gt;Node17</title>
<path fill="none" stroke="midnightblue" d="M1038.8,-195.84C1027.8,-174.49 999.2,-118.98 984.41,-90.27"/>
<polygon fill="midnightblue" stroke="midnightblue" points="987.34,-88.31 979.65,-81.02 981.12,-91.51 987.34,-88.31"/>
</g>
<!-- Node44&#45;&gt;Node32 -->
<g id="edge110" class="edge">
<title>Node44&#45;&gt;Node32</title>
<path fill="none" stroke="midnightblue" d="M1032.52,-195.84C1011.16,-179.08 961.26,-142.15 913.26,-123 849.64,-97.62 771.63,-84.47 719.84,-78.04"/>
<polygon fill="midnightblue" stroke="midnightblue" points="720.19,-74.56 709.84,-76.84 719.36,-81.51 720.19,-74.56"/>
</g>
<!-- Node44&#45;&gt;Node40 -->
<g id="edge109" class="edge">
<title>Node44&#45;&gt;Node40</title>
<path fill="none" stroke="midnightblue" d="M1016.1,-195.96C984.58,-186.02 931.09,-169.05 885.26,-154 882.52,-153.1 879.69,-152.16 876.84,-151.22"/>
<polygon fill="midnightblue" stroke="midnightblue" points="877.84,-147.86 867.25,-148 875.62,-154.5 877.84,-147.86"/>
</g>
<!-- Node45 -->
<g id="node45" class="node">
<title>Node45</title>
<g id="a_node45"><a xlink:href="attr__registry__map_8h.html" target="_top" xlink:title="Attribute map used in registry.">
<polygon fill="white" stroke="black" points="2910.76,-123.5 2910.76,-153.5 3019.76,-153.5 3019.76,-123.5 2910.76,-123.5"/>
<text text-anchor="start" x="2918.76" y="-141.5" font-family="Helvetica,sans-Serif" font-size="10.00">tvm/ir/attr_registry</text>
<text text-anchor="middle" x="2965.26" y="-130.5" font-family="Helvetica,sans-Serif" font-size="10.00">_map.h</text>
</a>
</g>
</g>
<!-- Node44&#45;&gt;Node45 -->
<g id="edge94" class="edge">
<title>Node44&#45;&gt;Node45</title>
<path fill="none" stroke="midnightblue" d="M1111.27,-200.21C1165.21,-196.96 1242.53,-192.61 1310.26,-190 1662.53,-176.44 2546.05,-194.42 2896.26,-154 2897.56,-153.85 2898.87,-153.69 2900.19,-153.51"/>
<polygon fill="midnightblue" stroke="midnightblue" points="2901.05,-156.92 2910.42,-151.98 2900.01,-150 2901.05,-156.92"/>
</g>
<!-- Node46 -->
<g id="node46" class="node">
<title>Node46</title>
<g id="a_node46"><a xlink:href="config__schema_8h.html" target="_top" xlink:title="Minimal schema for dynamic config canonicalization and validation.">
<polygon fill="white" stroke="black" points="1041.76,-129 1041.76,-148 1172.76,-148 1172.76,-129 1041.76,-129"/>
<text text-anchor="middle" x="1107.26" y="-136" font-family="Helvetica,sans-Serif" font-size="10.00">tvm/ir/config_schema.h</text>
</a>
</g>
</g>
<!-- Node44&#45;&gt;Node46 -->
<g id="edge98" class="edge">
<title>Node44&#45;&gt;Node46</title>
<path fill="none" stroke="midnightblue" d="M1051.89,-195.73C1062.06,-185.4 1079.16,-168.04 1091.67,-155.33"/>
<polygon fill="midnightblue" stroke="midnightblue" points="1094.24,-157.71 1098.76,-148.13 1089.25,-152.8 1094.24,-157.71"/>
</g>
<!-- Node45&#45;&gt;Node6 -->
<g id="edge95" class="edge">
<title>Node45&#45;&gt;Node6</title>
<path fill="none" stroke="midnightblue" d="M3019.98,-129.92C3110.25,-117.4 3289.36,-92.58 3379.6,-80.08"/>
<polygon fill="midnightblue" stroke="midnightblue" points="3380.2,-83.53 3389.63,-78.69 3379.24,-76.59 3380.2,-83.53"/>
</g>
<!-- Node45&#45;&gt;Node9 -->
<g id="edge96" class="edge">
<title>Node45&#45;&gt;Node9</title>
<path fill="none" stroke="midnightblue" d="M2983.27,-123.4C2996.85,-112.76 3015.44,-98.2 3029.26,-87.38"/>
<polygon fill="midnightblue" stroke="midnightblue" points="3031.44,-90.12 3037.16,-81.19 3027.12,-84.6 3031.44,-90.12"/>
</g>
<!-- Node45&#45;&gt;Node17 -->
<g id="edge97" class="edge">
<title>Node45&#45;&gt;Node17</title>
<path fill="none" stroke="midnightblue" d="M2910.49,-130.77C2884.68,-127.87 2853.43,-124.74 2825.26,-123 2046.59,-74.77 1847.54,-154 1070.26,-87 1049.83,-85.24 1027.13,-81.83 1009.04,-78.76"/>
<polygon fill="midnightblue" stroke="midnightblue" points="1009.42,-75.27 998.97,-77 1008.22,-82.17 1009.42,-75.27"/>
</g>
<!-- Node46&#45;&gt;Node3 -->
<g id="edge101" class="edge">
<title>Node46&#45;&gt;Node3</title>
<path fill="none" stroke="midnightblue" d="M1065.89,-128.94C1053.51,-126.67 1039.88,-124.45 1027.26,-123 706.1,-86.18 618.15,-133.84 294.62,-86.99"/>
<polygon fill="midnightblue" stroke="midnightblue" points="294.89,-83.49 284.49,-85.5 293.87,-90.42 294.89,-83.49"/>
</g>
<!-- Node46&#45;&gt;Node9 -->
<g id="edge106" class="edge">
<title>Node46&#45;&gt;Node9</title>
<path fill="none" stroke="midnightblue" d="M1172.85,-133.39C1226.46,-130.15 1304.24,-125.74 1372.26,-123 1989.74,-98.12 2144.73,-110.65 2762.26,-87 2854.05,-83.48 2962.33,-77.49 3015.47,-74.43"/>
<polygon fill="midnightblue" stroke="midnightblue" points="3015.87,-77.91 3025.65,-73.84 3015.46,-70.92 3015.87,-77.91"/>
</g>
<!-- Node46&#45;&gt;Node12 -->
<g id="edge100" class="edge">
<title>Node46&#45;&gt;Node12</title>
<path fill="none" stroke="midnightblue" d="M1126.25,-128.87C1150.71,-117.75 1193.46,-98.32 1221.81,-85.43"/>
<polygon fill="midnightblue" stroke="midnightblue" points="1223.53,-88.49 1231.19,-81.17 1220.64,-82.12 1223.53,-88.49"/>
</g>
<!-- Node46&#45;&gt;Node16 -->
<g id="edge103" class="edge">
<title>Node46&#45;&gt;Node16</title>
<path fill="none" stroke="midnightblue" d="M1173.08,-134.13C1286.54,-127.87 1526.13,-112.7 1727.26,-87 1744.12,-84.85 1762.77,-81.66 1778.11,-78.82"/>
<polygon fill="midnightblue" stroke="midnightblue" points="1778.97,-82.22 1788.15,-76.93 1777.67,-75.34 1778.97,-82.22"/>
</g>
<!-- Node46&#45;&gt;Node17 -->
<g id="edge107" class="edge">
<title>Node46&#45;&gt;Node17</title>
<path fill="none" stroke="midnightblue" d="M1089.73,-128.87C1067.24,-117.8 1028.03,-98.49 1001.86,-85.6"/>
<polygon fill="midnightblue" stroke="midnightblue" points="1003.38,-82.44 992.86,-81.17 1000.28,-88.72 1003.38,-82.44"/>
</g>
<!-- Node46&#45;&gt;Node23 -->
<g id="edge104" class="edge">
<title>Node46&#45;&gt;Node23</title>
<path fill="none" stroke="midnightblue" d="M1173.17,-133.82C1385.48,-121.96 2048.02,-84.97 2226.56,-75"/>
<polygon fill="midnightblue" stroke="midnightblue" points="2226.85,-78.49 2236.64,-74.43 2226.46,-71.5 2226.85,-78.49"/>
</g>
<!-- Node46&#45;&gt;Node28 -->
<g id="edge99" class="edge">
<title>Node46&#45;&gt;Node28</title>
<path fill="none" stroke="midnightblue" d="M1064.62,-128.93C1052.58,-126.74 1039.44,-124.57 1027.26,-123 916.39,-108.74 592.6,-86.94 444.18,-77.33"/>
<polygon fill="midnightblue" stroke="midnightblue" points="444,-73.81 433.8,-76.66 443.55,-80.8 444,-73.81"/>
</g>
<!-- Node46&#45;&gt;Node32 -->
<g id="edge105" class="edge">
<title>Node46&#45;&gt;Node32</title>
<path fill="none" stroke="midnightblue" d="M1062.04,-128.97C1050.7,-126.92 1038.55,-124.81 1027.26,-123 918.87,-105.67 791.77,-88.82 720.06,-79.64"/>
<polygon fill="midnightblue" stroke="midnightblue" points="720.25,-76.14 709.89,-78.34 719.37,-83.08 720.25,-76.14"/>
</g>
<!-- Node47 -->
<g id="node47" class="node">
<title>Node47</title>
<g id="a_node47"><a xlink:title=" ">
<polygon fill="white" stroke="#bfbfbf" points="1079.26,-62 1079.26,-81 1135.26,-81 1135.26,-62 1079.26,-62"/>
<text text-anchor="middle" x="1107.26" y="-69" font-family="Helvetica,sans-Serif" font-size="10.00">sstream</text>
</a>
</g>
</g>
<!-- Node46&#45;&gt;Node47 -->
<g id="edge102" class="edge">
<title>Node46&#45;&gt;Node47</title>
<path fill="none" stroke="midnightblue" d="M1107.26,-128.73C1107.26,-119.18 1107.26,-103.62 1107.26,-91.28"/>
<polygon fill="midnightblue" stroke="midnightblue" points="1110.76,-91.13 1107.26,-81.13 1103.76,-91.13 1110.76,-91.13"/>
</g>
<!-- Node48&#45;&gt;Node3 -->
<g id="edge118" class="edge">
<title>Node48&#45;&gt;Node3</title>
<path fill="none" stroke="midnightblue" d="M1855.24,-264.94C1667.76,-259.91 880.82,-237.95 772.26,-221 677.54,-206.21 407.54,-125.29 290.5,-89.52"/>
<polygon fill="midnightblue" stroke="midnightblue" points="291.25,-86.09 280.66,-86.51 289.2,-92.78 291.25,-86.09"/>
</g>
<!-- Node48&#45;&gt;Node4 -->
<g id="edge119" class="edge">
<title>Node48&#45;&gt;Node4</title>
<path fill="none" stroke="midnightblue" d="M1935.47,-259.91C2007.83,-248.96 2159.77,-225.95 2238.54,-214.03"/>
<polygon fill="midnightblue" stroke="midnightblue" points="2239.33,-217.45 2248.69,-212.49 2238.28,-210.53 2239.33,-217.45"/>
</g>
<!-- Node48&#45;&gt;Node10 -->
<g id="edge120" class="edge">
<title>Node48&#45;&gt;Node10</title>
<path fill="none" stroke="midnightblue" d="M1864.34,-257.4C1784.32,-235.16 1570.41,-175.69 1480.72,-150.75"/>
<polygon fill="midnightblue" stroke="midnightblue" points="1481.49,-147.33 1470.92,-148.02 1479.61,-154.07 1481.49,-147.33"/>
</g>
<!-- Node48&#45;&gt;Node11 -->
<g id="edge117" class="edge">
<title>Node48&#45;&gt;Node11</title>
<path fill="none" stroke="midnightblue" d="M1935.42,-264.5C2103.12,-257.86 2763.66,-228.17 3301.26,-154 3443.12,-134.43 3608.93,-100.41 3689.43,-83.17"/>
<polygon fill="midnightblue" stroke="midnightblue" points="3690.25,-86.57 3699.29,-81.05 3688.78,-79.73 3690.25,-86.57"/>
</g>
<!-- Node48&#45;&gt;Node16 -->
<g id="edge122" class="edge">
<title>Node48&#45;&gt;Node16</title>
<path fill="none" stroke="midnightblue" d="M1891.5,-257.44C1878.61,-228.1 1836.06,-131.24 1818.23,-90.65"/>
<polygon fill="midnightblue" stroke="midnightblue" points="1821.4,-89.15 1814.17,-81.41 1814.99,-91.97 1821.4,-89.15"/>
</g>
<!-- Node48&#45;&gt;Node18 -->
<g id="edge121" class="edge">
<title>Node48&#45;&gt;Node18</title>
<path fill="none" stroke="midnightblue" d="M1932.99,-257.49C1996.4,-243.24 2128.37,-213.76 2240.26,-190 2307.15,-175.79 2384.39,-160.12 2434.44,-150.06"/>
<polygon fill="midnightblue" stroke="midnightblue" points="2435.26,-153.46 2444.38,-148.06 2433.89,-146.6 2435.26,-153.46"/>
</g>
<!-- Node49 -->
<g id="node49" class="node">
<title>Node49</title>
<g id="a_node49"><a xlink:title=" ">
<polygon fill="white" stroke="#bfbfbf" points="1952.76,-196 1952.76,-215 2033.76,-215 2033.76,-196 1952.76,-196"/>
<text text-anchor="middle" x="1993.26" y="-203" font-family="Helvetica,sans-Serif" font-size="10.00">tvm/ffi/cast.h</text>
</a>
</g>
</g>
<!-- Node48&#45;&gt;Node49 -->
<g id="edge116" class="edge">
<title>Node48&#45;&gt;Node49</title>
<path fill="none" stroke="midnightblue" d="M1909.3,-257.48C1925.31,-247.75 1951.71,-231.73 1970.63,-220.24"/>
<polygon fill="midnightblue" stroke="midnightblue" points="1972.51,-223.19 1979.24,-215.01 1968.88,-217.21 1972.51,-223.19"/>
</g>
<!-- Node51&#45;&gt;Node9 -->
<g id="edge140" class="edge">
<title>Node51&#45;&gt;Node9</title>
<path fill="none" stroke="midnightblue" d="M1834.7,-556.81C1955.07,-544.92 2226.99,-513.68 2449.26,-456 2557.87,-427.81 2580.63,-406.85 2686.26,-369 2822.55,-320.16 3217.46,-272.06 3301.26,-154 3355.96,-76.93 3161.21,-71.01 3081.13,-71.73"/>
<polygon fill="midnightblue" stroke="midnightblue" points="3081.02,-68.23 3071.07,-71.86 3081.11,-75.23 3081.02,-68.23"/>
</g>
<!-- Node51&#45;&gt;Node16 -->
<g id="edge139" class="edge">
<title>Node51&#45;&gt;Node16</title>
<path fill="none" stroke="midnightblue" d="M1740.86,-553.97C1678.99,-536.45 1545.03,-494.81 1519.26,-456 1514.34,-448.6 1516.31,-444.39 1519.26,-436 1548.47,-352.77 1739.35,-147.28 1795.04,-88.46"/>
<polygon fill="midnightblue" stroke="midnightblue" points="1797.62,-90.83 1801.96,-81.17 1792.54,-86.01 1797.62,-90.83"/>
</g>
<!-- Node51&#45;&gt;Node35 -->
<g id="edge132" class="edge">
<title>Node51&#45;&gt;Node35</title>
<path fill="none" stroke="midnightblue" d="M1772.26,-553.98C1772.26,-545.58 1772.26,-532.48 1772.26,-521.66"/>
<polygon fill="midnightblue" stroke="midnightblue" points="1775.76,-521.51 1772.26,-511.51 1768.76,-521.51 1775.76,-521.51"/>
</g>
<!-- Node52 -->
<g id="node52" class="node">
<title>Node52</title>
<g id="a_node52"><a xlink:title=" ">
<polygon fill="white" stroke="#bfbfbf" points="1290.26,-492.5 1290.26,-511.5 1434.26,-511.5 1434.26,-492.5 1290.26,-492.5"/>
<text text-anchor="middle" x="1362.26" y="-499.5" font-family="Helvetica,sans-Serif" font-size="10.00">tvm/ffi/container/variant.h</text>
</a>
</g>
</g>
<!-- Node51&#45;&gt;Node52 -->
<g id="edge131" class="edge">
<title>Node51&#45;&gt;Node52</title>
<path fill="none" stroke="midnightblue" d="M1732.36,-553.97C1721.93,-551.88 1710.7,-549.74 1700.26,-548 1613.34,-533.48 1513.22,-520.63 1444.64,-512.42"/>
<polygon fill="midnightblue" stroke="midnightblue" points="1444.68,-508.9 1434.33,-511.19 1443.85,-515.85 1444.68,-508.9"/>
</g>
<!-- Node53 -->
<g id="node53" class="node">
<title>Node53</title>
<g id="a_node53"><a xlink:href="var_8h.html" target="_top" xlink:title="Variables in the TIR.">
<polygon fill="white" stroke="black" points="2462.76,-257.5 2462.76,-276.5 2545.76,-276.5 2545.76,-257.5 2462.76,-257.5"/>
<text text-anchor="middle" x="2504.26" y="-264.5" font-family="Helvetica,sans-Serif" font-size="10.00">tvm/tirx/var.h</text>
</a>
</g>
</g>
<!-- Node51&#45;&gt;Node53 -->
<g id="edge133" class="edge">
<title>Node51&#45;&gt;Node53</title>
<path fill="none" stroke="midnightblue" d="M1814.99,-553.92C1856.64,-545.09 1921.52,-530.09 1976.26,-512 2179.04,-444.96 2407.16,-322.15 2480.33,-281.48"/>
<polygon fill="midnightblue" stroke="midnightblue" points="2482.2,-284.44 2489.23,-276.51 2478.79,-278.33 2482.2,-284.44"/>
</g>
<!-- Node53&#45;&gt;Node4 -->
<g id="edge135" class="edge">
<title>Node53&#45;&gt;Node4</title>
<path fill="none" stroke="midnightblue" d="M2473.31,-257.48C2435.38,-247.03 2370.98,-229.29 2329.04,-217.73"/>
<polygon fill="midnightblue" stroke="midnightblue" points="2329.72,-214.29 2319.15,-215.01 2327.86,-221.04 2329.72,-214.29"/>
</g>
<!-- Node53&#45;&gt;Node7 -->
<g id="edge134" class="edge">
<title>Node53&#45;&gt;Node7</title>
<path fill="none" stroke="midnightblue" d="M2546.04,-258.91C2625.39,-245.46 2803.38,-215.29 2953.26,-190 3048.36,-173.95 3072.15,-170.02 3167.26,-154 3179.39,-151.96 3192.48,-149.75 3204.71,-147.69"/>
<polygon fill="midnightblue" stroke="midnightblue" points="3205.45,-151.11 3214.73,-146 3204.29,-144.21 3205.45,-151.11"/>
</g>
<!-- Node53&#45;&gt;Node16 -->
<g id="edge138" class="edge">
<title>Node53&#45;&gt;Node16</title>
<path fill="none" stroke="midnightblue" d="M2496.18,-257.24C2471.64,-231.3 2394.7,-154.72 2313.26,-123 2226.74,-89.31 1939.68,-76.81 1842.64,-73.49"/>
<polygon fill="midnightblue" stroke="midnightblue" points="1842.65,-69.99 1832.54,-73.16 1842.42,-76.99 1842.65,-69.99"/>
</g>
<!-- Node53&#45;&gt;Node18 -->
<g id="edge136" class="edge">
<title>Node53&#45;&gt;Node18</title>
<path fill="none" stroke="midnightblue" d="M2503.09,-257.31C2500.36,-236.99 2493.51,-186.05 2489.78,-158.28"/>
<polygon fill="midnightblue" stroke="midnightblue" points="2493.24,-157.7 2488.43,-148.26 2486.3,-158.63 2493.24,-157.7"/>
</g>
<!-- Node53&#45;&gt;Node25 -->
<g id="edge137" class="edge">
<title>Node53&#45;&gt;Node25</title>
<path fill="none" stroke="midnightblue" d="M2488.55,-257.33C2459.4,-241.59 2394.6,-208.28 2336.26,-190 2252.16,-163.64 2226.48,-176.44 2141.26,-154 2138.22,-153.2 2135.09,-152.29 2131.97,-151.32"/>
<polygon fill="midnightblue" stroke="midnightblue" points="2132.77,-147.9 2122.17,-148.11 2130.58,-154.55 2132.77,-147.9"/>
</g>
<!-- Node54&#45;&gt;Node3 -->
<g id="edge142" class="edge">
<title>Node54&#45;&gt;Node3</title>
<path fill="none" stroke="midnightblue" d="M1574.22,-789.87C1371.81,-777.99 535.61,-703.87 62.26,-277 9.66,-229.57 -23.52,-177.88 21.26,-123 40.57,-99.33 119.37,-85.52 175.73,-78.49"/>
<polygon fill="midnightblue" stroke="midnightblue" points="176.47,-81.93 185.98,-77.26 175.63,-74.98 176.47,-81.93"/>
</g>
<!-- Node54&#45;&gt;Node9 -->
<g id="edge181" class="edge">
<title>Node54&#45;&gt;Node9</title>
<path fill="none" stroke="midnightblue" d="M1664.38,-791.08C1925.78,-785.52 3239.85,-754.57 3407.26,-691 3447.15,-675.85 3465.78,-672.97 3485.26,-635 3489.32,-627.09 3485.51,-623.89 3485.26,-615 3482.37,-512.88 3472.26,-487.66 3472.26,-385.5 3472.26,-385.5 3472.26,-385.5 3472.26,-266 3472.26,-94.25 3180.75,-74.28 3081.15,-72.47"/>
<polygon fill="midnightblue" stroke="midnightblue" points="3081.1,-68.97 3071.05,-72.34 3081.01,-75.97 3081.1,-68.97"/>
</g>
<!-- Node54&#45;&gt;Node16 -->
<g id="edge179" class="edge">
<title>Node54&#45;&gt;Node16</title>
<path fill="none" stroke="midnightblue" d="M1614.63,-783.38C1603.87,-762.03 1579.96,-705.94 1605.26,-671 1682.08,-564.9 1772.47,-645.61 1885.26,-579 1975.37,-525.78 2004.92,-499.2 2038.26,-400 2068,-311.51 2099.2,-263.97 2042.26,-190 2004.12,-140.45 1961.68,-182.95 1906.26,-154 1873.51,-136.9 1842.16,-106.86 1824.64,-88.42"/>
<polygon fill="midnightblue" stroke="midnightblue" points="1827.18,-86.01 1817.81,-81.07 1822.05,-90.78 1827.18,-86.01"/>
</g>
<!-- Node54&#45;&gt;Node23 -->
<g id="edge180" class="edge">
<title>Node54&#45;&gt;Node23</title>
<path fill="none" stroke="midnightblue" d="M1619.33,-783.14C1619.93,-769.28 1623.13,-742.46 1638.26,-727 1778.11,-584.1 2306.3,-518.42 2496.26,-456 2569.43,-431.96 2615.45,-462.65 2660.26,-400 2705.15,-337.23 2985.95,-480.93 2647.26,-123 2596.25,-69.1 2387.79,-102.7 2315.26,-87 2311.58,-86.2 2307.78,-85.22 2304.03,-84.13"/>
<polygon fill="midnightblue" stroke="midnightblue" points="2304.89,-80.73 2294.3,-81.1 2302.8,-87.42 2304.89,-80.73"/>
</g>
<!-- Node54&#45;&gt;Node51 -->
<g id="edge143" class="edge">
<title>Node54&#45;&gt;Node51</title>
<path fill="none" stroke="midnightblue" d="M1582.16,-783.46C1562.81,-776.92 1540.83,-765.72 1529.26,-747 1511.5,-718.27 1510.78,-699.27 1529.26,-671 1552.65,-635.21 1669.93,-595.31 1732.6,-576.09"/>
<polygon fill="midnightblue" stroke="midnightblue" points="1733.99,-579.33 1742.54,-573.08 1731.95,-572.63 1733.99,-579.33"/>
</g>
<!-- Node55 -->
<g id="node55" class="node">
<title>Node55</title>
<g id="a_node55"><a xlink:href="tirx_2expr_8h.html" target="_top" xlink:title="TIR expressions.">
<polygon fill="white" stroke="black" points="2741.76,-727.5 2741.76,-746.5 2830.76,-746.5 2830.76,-727.5 2741.76,-727.5"/>
<text text-anchor="middle" x="2786.26" y="-734.5" font-family="Helvetica,sans-Serif" font-size="10.00">tvm/tirx/expr.h</text>
</a>
</g>
</g>
<!-- Node54&#45;&gt;Node55 -->
<g id="edge144" class="edge">
<title>Node54&#45;&gt;Node55</title>
<path fill="none" stroke="midnightblue" d="M1664.29,-789.92C1846.9,-781.47 2531.96,-749.77 2731.44,-740.54"/>
<polygon fill="midnightblue" stroke="midnightblue" points="2731.84,-744.02 2741.67,-740.06 2731.52,-737.03 2731.84,-744.02"/>
</g>
<!-- Node57 -->
<g id="node57" class="node">
<title>Node57</title>
<g id="a_node57"><a xlink:href="layout_8h.html" target="_top" xlink:title="Definition of layout.">
<polygon fill="white" stroke="black" points="2766.26,-615.5 2766.26,-634.5 2864.26,-634.5 2864.26,-615.5 2766.26,-615.5"/>
<text text-anchor="middle" x="2815.26" y="-622.5" font-family="Helvetica,sans-Serif" font-size="10.00">tvm/tirx/layout.h</text>
</a>
</g>
</g>
<!-- Node54&#45;&gt;Node57 -->
<g id="edge177" class="edge">
<title>Node54&#45;&gt;Node57</title>
<path fill="none" stroke="midnightblue" d="M1664.58,-791.54C1879.62,-789.22 2788.87,-777.63 2840.26,-747 2871.89,-728.14 2889.46,-704.07 2873.26,-671 2866.74,-657.68 2854.16,-647.18 2842.38,-639.68"/>
<polygon fill="midnightblue" stroke="midnightblue" points="2844.04,-636.59 2833.65,-634.53 2840.49,-642.62 2844.04,-636.59"/>
</g>
<!-- Node60 -->
<g id="node60" class="node">
<title>Node60</title>
<g id="a_node60"><a xlink:title=" ">
<polygon fill="white" stroke="#bfbfbf" points="1647.26,-727.5 1647.26,-746.5 1703.26,-746.5 1703.26,-727.5 1647.26,-727.5"/>
<text text-anchor="middle" x="1675.26" y="-734.5" font-family="Helvetica,sans-Serif" font-size="10.00">optional</text>
</a>
</g>
</g>
<!-- Node54&#45;&gt;Node60 -->
<g id="edge178" class="edge">
<title>Node54&#45;&gt;Node60</title>
<path fill="none" stroke="midnightblue" d="M1628.26,-783.32C1636.45,-775.42 1648.76,-763.55 1658.73,-753.94"/>
<polygon fill="midnightblue" stroke="midnightblue" points="1661.33,-756.29 1666.1,-746.83 1656.47,-751.26 1661.33,-756.29"/>
</g>
<!-- Node55&#45;&gt;Node4 -->
<g id="edge150" class="edge">
<title>Node55&#45;&gt;Node4</title>
<path fill="none" stroke="midnightblue" d="M2741.71,-736.24C2692.15,-734.6 2611.28,-726.1 2552.26,-691 2370.19,-582.71 2305.67,-299.96 2291.48,-224.97"/>
<polygon fill="midnightblue" stroke="midnightblue" points="2294.92,-224.33 2289.68,-215.12 2288.04,-225.59 2294.92,-224.33"/>
</g>
<!-- Node55&#45;&gt;Node6 -->
<g id="edge147" class="edge">
<title>Node55&#45;&gt;Node6</title>
<path fill="none" stroke="midnightblue" d="M2831.11,-734.6C2945.74,-730.66 3247.17,-717.98 3343.26,-691 3405.07,-673.65 3472.26,-690.2 3472.26,-626 3472.26,-626 3472.26,-626 3472.26,-562.5 3472.26,-359.05 3721.39,-286.46 3600.26,-123 3586.81,-104.85 3532.14,-90.63 3489.17,-81.97"/>
<polygon fill="midnightblue" stroke="midnightblue" points="3489.58,-78.48 3479.09,-80 3488.23,-85.35 3489.58,-78.48"/>
</g>
<!-- Node55&#45;&gt;Node7 -->
<g id="edge149" class="edge">
<title>Node55&#45;&gt;Node7</title>
<path fill="none" stroke="midnightblue" d="M2831.01,-735.64C2953.99,-734.19 3290.21,-726.94 3323.26,-691 3396.88,-610.95 3286.63,-244.45 3259.19,-157.87"/>
<polygon fill="midnightblue" stroke="midnightblue" points="3262.52,-156.8 3256.14,-148.34 3255.85,-158.93 3262.52,-156.8"/>
</g>
<!-- Node55&#45;&gt;Node9 -->
<g id="edge176" class="edge">
<title>Node55&#45;&gt;Node9</title>
<path fill="none" stroke="midnightblue" d="M2831.02,-736.33C2927.93,-736.26 3153.46,-731.61 3216.26,-691 3321.62,-622.87 3358.26,-572.47 3358.26,-447 3358.26,-447 3358.26,-447 3358.26,-204.5 3358.26,-164.34 3351.12,-147.44 3319.26,-123 3282.37,-94.71 3145.42,-80.27 3081.5,-74.96"/>
<polygon fill="midnightblue" stroke="midnightblue" points="3081.43,-71.44 3071.18,-74.13 3080.87,-78.42 3081.43,-71.44"/>
</g>
<!-- Node55&#45;&gt;Node11 -->
<g id="edge145" class="edge">
<title>Node55&#45;&gt;Node11</title>
<path fill="none" stroke="midnightblue" d="M2831.07,-735.89C2955.18,-735.1 3301.18,-729.42 3407.26,-691 3666.96,-596.93 3726.3,-184.09 3736.46,-91.13"/>
<polygon fill="midnightblue" stroke="midnightblue" points="3739.96,-91.32 3737.5,-81.01 3732.99,-90.6 3739.96,-91.32"/>
</g>
<!-- Node55&#45;&gt;Node13 -->
<g id="edge152" class="edge">
<title>Node55&#45;&gt;Node13</title>
<path fill="none" stroke="midnightblue" d="M2741.57,-734.11C2626.28,-729.07 2309.43,-714.05 2046.26,-691 1828.34,-671.91 1766.29,-699.49 1557.26,-635 1539.02,-629.37 1537.64,-620.13 1519.26,-615 1454.61,-596.96 966.1,-623.95 916.26,-579 846.42,-516.01 886.47,-444.72 942.26,-369 1043.67,-231.35 1120.81,-251.5 1261.26,-154 1294.43,-130.97 1332.5,-103.55 1355.18,-87.11"/>
<polygon fill="midnightblue" stroke="midnightblue" points="1357.32,-89.88 1363.35,-81.17 1353.2,-84.22 1357.32,-89.88"/>
</g>
<!-- Node55&#45;&gt;Node16 -->
<g id="edge174" class="edge">
<title>Node55&#45;&gt;Node16</title>
<path fill="none" stroke="midnightblue" d="M2741.31,-736.32C2612.01,-736.04 2248.26,-726.34 2248.26,-626 2248.26,-626 2248.26,-626 2248.26,-501 2248.26,-400.48 2178.75,-274.14 2076.26,-190 2039.75,-160.03 2019.75,-172.44 1976.26,-154 1925.36,-132.42 1867.83,-103 1835.62,-86.05"/>
<polygon fill="midnightblue" stroke="midnightblue" points="1836.95,-82.79 1826.47,-81.21 1833.67,-88.98 1836.95,-82.79"/>
</g>
<!-- Node55&#45;&gt;Node18 -->
<g id="edge153" class="edge">
<title>Node55&#45;&gt;Node18</title>
<path fill="none" stroke="midnightblue" d="M2830.79,-733.88C2930.71,-728.74 3166.16,-714.27 3193.26,-691 3241.77,-649.33 3235.21,-606.45 3209.26,-548 3145.64,-404.73 3081.01,-393.09 2946.26,-313 2804.99,-229.03 2615.99,-173.09 2531.41,-150.62"/>
<polygon fill="midnightblue" stroke="midnightblue" points="2532.19,-147.2 2521.63,-148.05 2530.41,-153.97 2532.19,-147.2"/>
</g>
<!-- Node55&#45;&gt;Node24 -->
<g id="edge171" class="edge">
<title>Node55&#45;&gt;Node24</title>
<path fill="none" stroke="midnightblue" d="M2830.8,-736.49C2900.61,-734.55 3034.13,-719.3 3095.26,-635 3117.96,-603.7 3106.61,-584.96 3095.26,-548 3026.39,-323.86 2736.31,-190.83 2638.57,-151.7"/>
<polygon fill="midnightblue" stroke="midnightblue" points="2639.78,-148.42 2629.19,-148 2637.21,-154.93 2639.78,-148.42"/>
</g>
<!-- Node55&#45;&gt;Node26 -->
<g id="edge173" class="edge">
<title>Node55&#45;&gt;Node26</title>
<path fill="none" stroke="midnightblue" d="M2830.79,-733.88C2930.71,-728.74 3166.16,-714.27 3193.26,-691 3239.82,-651.01 3244.26,-796.83 3244.26,-324 3244.26,-324 3244.26,-324 3244.26,-266 3244.26,-214.75 3192.35,-173.76 3160.51,-153.44"/>
<polygon fill="midnightblue" stroke="midnightblue" points="3162.08,-150.3 3151.73,-148.03 3158.41,-156.26 3162.08,-150.3"/>
</g>
<!-- Node55&#45;&gt;Node28 -->
<g id="edge146" class="edge">
<title>Node55&#45;&gt;Node28</title>
<path fill="none" stroke="midnightblue" d="M2741.59,-735.31C2584.37,-732.68 2041.92,-721.78 1595.26,-691 1346.16,-673.83 1281.19,-683.48 1036.26,-635 951.15,-618.15 928.43,-614.47 849.26,-579 658.79,-493.67 578.68,-496.73 449.26,-333 389.42,-257.3 373.52,-137.1 369.53,-91.18"/>
<polygon fill="midnightblue" stroke="midnightblue" points="373.01,-90.87 368.75,-81.17 366.03,-91.41 373.01,-90.87"/>
</g>
<!-- Node55&#45;&gt;Node29 -->
<g id="edge148" class="edge">
<title>Node55&#45;&gt;Node29</title>
<path fill="none" stroke="midnightblue" d="M2741.5,-732.82C2647.47,-726.02 2422.55,-709.24 2234.26,-691 1932.89,-661.81 1858.94,-640.74 1557.26,-615 1489.06,-609.18 989.22,-628.8 942.26,-579 771.3,-397.74 1307.74,-300.74 1478.09,-275.03"/>
<polygon fill="midnightblue" stroke="midnightblue" points="1478.69,-278.48 1488.06,-273.55 1477.66,-271.56 1478.69,-278.48"/>
</g>
<!-- Node55&#45;&gt;Node32 -->
<g id="edge175" class="edge">
<title>Node55&#45;&gt;Node32</title>
<path fill="none" stroke="midnightblue" d="M2741.51,-736.38C2593.26,-737.14 2104.8,-735.85 1704.26,-691 1655.31,-685.52 1643.92,-678.62 1595.26,-671 1516.88,-658.73 951.27,-625.85 887.26,-579 716.02,-453.68 673.55,-168.01 665.09,-91.59"/>
<polygon fill="midnightblue" stroke="midnightblue" points="668.53,-90.77 664.01,-81.18 661.56,-91.49 668.53,-90.77"/>
</g>
<!-- Node55&#45;&gt;Node33 -->
<g id="edge151" class="edge">
<title>Node55&#45;&gt;Node33</title>
<path fill="none" stroke="midnightblue" d="M2830.91,-736.46C2920.78,-736.51 3119.37,-731.84 3171.26,-691 3195.46,-671.96 3195.26,-656.8 3195.26,-626 3195.26,-626 3195.26,-626 3195.26,-562.5 3195.26,-482.04 3157.26,-465.96 3157.26,-385.5 3157.26,-385.5 3157.26,-385.5 3157.26,-266 3157.26,-222.41 3133.15,-211.55 3095.26,-190 3072.32,-176.96 2918.78,-157.83 2826.06,-147.25"/>
<polygon fill="midnightblue" stroke="midnightblue" points="2826.22,-143.75 2815.89,-146.1 2825.44,-150.71 2826.22,-143.75"/>
</g>
<!-- Node55&#45;&gt;Node53 -->
<g id="edge170" class="edge">
<title>Node55&#45;&gt;Node53</title>
<path fill="none" stroke="midnightblue" d="M2741.61,-727.79C2663.49,-712.15 2510.26,-675.2 2510.26,-626 2510.26,-626 2510.26,-626 2510.26,-383.5 2510.26,-349.32 2507.6,-309.52 2505.83,-286.69"/>
<polygon fill="midnightblue" stroke="midnightblue" points="2509.31,-286.37 2505.02,-276.69 2502.33,-286.93 2509.31,-286.37"/>
</g>
<!-- Node56 -->
<g id="node56" class="node">
<title>Node56</title>
<g id="a_node56"><a xlink:href="buffer_8h.html" target="_top" xlink:title="Symbolic n&#45;dimensional array, to represent a memory buffer.">
<polygon fill="white" stroke="black" points="2690.76,-671.5 2690.76,-690.5 2785.76,-690.5 2785.76,-671.5 2690.76,-671.5"/>
<text text-anchor="middle" x="2738.26" y="-678.5" font-family="Helvetica,sans-Serif" font-size="10.00">tvm/tirx/buffer.h</text>
</a>
</g>
</g>
<!-- Node55&#45;&gt;Node56 -->
<g id="edge154" class="edge">
<title>Node55&#45;&gt;Node56</title>
<path fill="none" stroke="midnightblue" d="M2778.33,-727.08C2771.41,-719.3 2761.19,-707.8 2752.81,-698.37"/>
<polygon fill="midnightblue" stroke="midnightblue" points="2755.3,-695.9 2746.04,-690.75 2750.06,-700.55 2755.3,-695.9"/>
</g>
<!-- Node59 -->
<g id="node59" class="node">
<title>Node59</title>
<g id="a_node59"><a xlink:title=" ">
<polygon fill="white" stroke="#bfbfbf" points="2804.26,-671.5 2804.26,-690.5 2864.26,-690.5 2864.26,-671.5 2804.26,-671.5"/>
<text text-anchor="middle" x="2834.26" y="-678.5" font-family="Helvetica,sans-Serif" font-size="10.00">iostream</text>
</a>
</g>
</g>
<!-- Node55&#45;&gt;Node59 -->
<g id="edge172" class="edge">
<title>Node55&#45;&gt;Node59</title>
<path fill="none" stroke="midnightblue" d="M2794.18,-727.08C2801.1,-719.3 2811.32,-707.8 2819.71,-698.37"/>
<polygon fill="midnightblue" stroke="midnightblue" points="2822.45,-700.55 2826.48,-690.75 2817.22,-695.9 2822.45,-700.55"/>
</g>
<!-- Node56&#45;&gt;Node3 -->
<g id="edge156" class="edge">
<title>Node56&#45;&gt;Node3</title>
<path fill="none" stroke="midnightblue" d="M2690.66,-678.38C2456.78,-670.22 1427.99,-631.9 1112.26,-579 707.93,-511.26 550.23,-580.3 223.26,-333 167.13,-290.55 134.54,-257.26 155.26,-190 166.84,-152.4 195.02,-116.06 214.64,-94"/>
<polygon fill="midnightblue" stroke="midnightblue" points="217.28,-96.29 221.43,-86.54 212.11,-91.58 217.28,-96.29"/>
</g>
<!-- Node56&#45;&gt;Node4 -->
<g id="edge158" class="edge">
<title>Node56&#45;&gt;Node4</title>
<path fill="none" stroke="midnightblue" d="M2706.39,-671.4C2661.82,-657.21 2586.26,-624.32 2586.26,-564.5 2586.26,-564.5 2586.26,-564.5 2586.26,-501 2586.26,-352.03 2395.53,-252.93 2319.24,-219.25"/>
<polygon fill="midnightblue" stroke="midnightblue" points="2320.26,-215.87 2309.69,-215.11 2317.47,-222.3 2320.26,-215.87"/>
</g>
<!-- Node56&#45;&gt;Node6 -->
<g id="edge157" class="edge">
<title>Node56&#45;&gt;Node6</title>
<path fill="none" stroke="midnightblue" d="M2774.35,-671.42C2825.31,-658.01 2919.58,-628.39 2986.26,-579 3028.95,-547.37 3030.17,-529.05 3068.26,-492 3198.01,-365.8 3266.26,-367.72 3372.26,-221 3402.43,-179.23 3421.31,-120.57 3429.51,-91.03"/>
<polygon fill="midnightblue" stroke="midnightblue" points="3432.92,-91.8 3432.13,-81.24 3426.16,-89.99 3432.92,-91.8"/>
</g>
<!-- Node56&#45;&gt;Node11 -->
<g id="edge155" class="edge">
<title>Node56&#45;&gt;Node11</title>
<path fill="none" stroke="midnightblue" d="M2781.68,-671.5C2818.75,-663.7 2873.21,-650.95 2919.26,-635 3219.51,-531.03 3313.57,-524.32 3567.26,-333 3656.22,-265.91 3712.72,-138.16 3731.41,-90.78"/>
<polygon fill="midnightblue" stroke="midnightblue" points="3734.75,-91.83 3735.08,-81.24 3728.22,-89.31 3734.75,-91.83"/>
</g>
<!-- Node56&#45;&gt;Node16 -->
<g id="edge169" class="edge">
<title>Node56&#45;&gt;Node16</title>
<path fill="none" stroke="midnightblue" d="M2700.86,-671.49C2673.08,-664.22 2634.85,-652.19 2604.26,-635 2462.92,-555.57 2432.29,-521.77 2325.26,-400 2252.01,-316.66 2279.79,-255.54 2190.26,-190 2140.84,-153.83 2115.48,-172.97 2057.26,-154 2020.61,-142.06 2012.72,-135.51 1976.26,-123 1930.04,-107.15 1875.74,-91.11 1842.16,-81.48"/>
<polygon fill="midnightblue" stroke="midnightblue" points="1843.01,-78.09 1832.43,-78.71 1841.09,-84.82 1843.01,-78.09"/>
</g>
<!-- Node56&#45;&gt;Node53 -->
<g id="edge168" class="edge">
<title>Node56&#45;&gt;Node53</title>
<path fill="none" stroke="midnightblue" d="M2738.26,-671.31C2738.26,-652.06 2738.26,-604.4 2738.26,-564.5 2738.26,-564.5 2738.26,-564.5 2738.26,-445 2738.26,-350.76 2616.05,-300.29 2548.27,-279.55"/>
<polygon fill="midnightblue" stroke="midnightblue" points="2548.87,-276.07 2538.28,-276.58 2546.88,-282.78 2548.87,-276.07"/>
</g>
<!-- Node56&#45;&gt;Node57 -->
<g id="edge159" class="edge">
<title>Node56&#45;&gt;Node57</title>
<path fill="none" stroke="midnightblue" d="M2750.63,-671.32C2762.42,-663.06 2780.39,-650.45 2794.39,-640.63"/>
<polygon fill="midnightblue" stroke="midnightblue" points="2796.74,-643.26 2802.92,-634.65 2792.72,-637.53 2796.74,-643.26"/>
</g>
<!-- Node57&#45;&gt;Node8 -->
<g id="edge163" class="edge">
<title>Node57&#45;&gt;Node8</title>
<path fill="none" stroke="midnightblue" d="M2864.34,-618.69C2906.75,-612.82 2968.96,-601.13 3019.26,-579 3080.88,-551.89 3086.09,-527.55 3143.26,-492 3356.24,-359.55 3510.39,-436.77 3638.26,-221 3660.46,-183.53 3657.11,-162.27 3638.26,-123 3630.72,-107.29 3615.64,-94.93 3602.13,-86.37"/>
<polygon fill="midnightblue" stroke="midnightblue" points="3603.53,-83.13 3593.14,-81.06 3599.97,-89.16 3603.53,-83.13"/>
</g>
<!-- Node57&#45;&gt;Node11 -->
<g id="edge160" class="edge">
<title>Node57&#45;&gt;Node11</title>
<path fill="none" stroke="midnightblue" d="M2864.48,-617.68C2900.02,-611.57 2948.26,-600.04 2986.26,-579 3003.86,-569.25 3003.27,-560.22 3019.26,-548 3056.98,-519.15 3069.47,-516.32 3110.26,-492 3153.02,-466.51 3163.27,-459.3 3207.26,-436 3300.19,-386.79 3331.64,-389.6 3420.26,-333 3545.39,-253.08 3677.17,-131.01 3722.14,-88.08"/>
<polygon fill="midnightblue" stroke="midnightblue" points="3724.71,-90.46 3729.5,-81.02 3719.87,-85.41 3724.71,-90.46"/>
</g>
<!-- Node57&#45;&gt;Node12 -->
<g id="edge162" class="edge">
<title>Node57&#45;&gt;Node12</title>
<path fill="none" stroke="midnightblue" d="M2766.01,-623.44C2471.54,-619.79 956.26,-596.44 956.26,-503 956.26,-503 956.26,-503 956.26,-322 956.26,-236.4 1049.16,-268.68 1120.26,-221 1162.27,-192.83 1180.11,-193.05 1212.26,-154 1227.95,-134.94 1238.76,-108.32 1244.73,-90.76"/>
<polygon fill="midnightblue" stroke="midnightblue" points="1248.09,-91.73 1247.82,-81.14 1241.43,-89.59 1248.09,-91.73"/>
</g>
<!-- Node57&#45;&gt;Node35 -->
<g id="edge165" class="edge">
<title>Node57&#45;&gt;Node35</title>
<path fill="none" stroke="midnightblue" d="M2766,-618.29C2593.22,-598.24 2015.12,-531.17 1829.89,-509.69"/>
<polygon fill="midnightblue" stroke="midnightblue" points="1830.14,-506.19 1819.81,-508.52 1829.34,-513.15 1830.14,-506.19"/>
</g>
<!-- Node57&#45;&gt;Node45 -->
<g id="edge164" class="edge">
<title>Node57&#45;&gt;Node45</title>
<path fill="none" stroke="midnightblue" d="M2817,-615.46C2819.98,-601.29 2826.49,-572.07 2834.26,-548 2874.07,-424.61 2907.36,-401.87 2942.26,-277 2953.13,-238.11 2959.6,-191.5 2962.79,-163.76"/>
<polygon fill="midnightblue" stroke="midnightblue" points="2966.27,-164.09 2963.89,-153.77 2959.31,-163.33 2966.27,-164.09"/>
</g>
<!-- Node57&#45;&gt;Node51 -->
<g id="edge166" class="edge">
<title>Node57&#45;&gt;Node51</title>
<path fill="none" stroke="midnightblue" d="M2766,-621.19C2597.52,-611.58 2043.68,-579.98 1844.46,-568.62"/>
<polygon fill="midnightblue" stroke="midnightblue" points="1844.57,-565.12 1834.39,-568.04 1844.17,-572.11 1844.57,-565.12"/>
</g>
<!-- Node57&#45;&gt;Node53 -->
<g id="edge167" class="edge">
<title>Node57&#45;&gt;Node53</title>
<path fill="none" stroke="midnightblue" d="M2812.39,-615.43C2809.42,-606.41 2804.73,-591.79 2801.26,-579 2776.12,-486.52 2814.49,-441.89 2752.26,-369 2702.25,-310.42 2613.09,-285.36 2556.4,-274.97"/>
<polygon fill="midnightblue" stroke="midnightblue" points="2556.67,-271.46 2546.21,-273.19 2555.46,-278.36 2556.67,-271.46"/>
</g>
<!-- Node58 -->
<g id="node58" class="node">
<title>Node58</title>
<g id="a_node58"><a xlink:title=" ">
<polygon fill="white" stroke="#bfbfbf" points="2843.26,-554 2843.26,-573 2977.26,-573 2977.26,-554 2843.26,-554"/>
<text text-anchor="middle" x="2910.26" y="-561" font-family="Helvetica,sans-Serif" font-size="10.00">tvm/ffi/container/tuple.h</text>
</a>
</g>
</g>
<!-- Node57&#45;&gt;Node58 -->
<g id="edge161" class="edge">
<title>Node57&#45;&gt;Node58</title>
<path fill="none" stroke="midnightblue" d="M2828.87,-615.48C2844.32,-605.8 2869.75,-589.87 2888.07,-578.39"/>
<polygon fill="midnightblue" stroke="midnightblue" points="2890.05,-581.28 2896.67,-573.01 2886.34,-575.35 2890.05,-581.28"/>
</g>
</g>
</svg>
