<?xml version="1.0" encoding="UTF-8" standalone="no"?>
<!DOCTYPE svg PUBLIC "-//W3C//DTD SVG 1.1//EN"
 "http://www.w3.org/Graphics/SVG/1.1/DTD/svg11.dtd">
<!-- Generated by graphviz version 2.43.0 (0)
 -->
<!-- Title: include/tvm/tirx/op_attr_types.h Pages: 1 -->
<svg width="1717pt" height="274pt"
 viewBox="0.00 0.00 1716.50 274.00" xmlns="http://www.w3.org/2000/svg" xmlns:xlink="http://www.w3.org/1999/xlink">
<g id="graph0" class="graph" transform="scale(1 1) rotate(0) translate(4 270)">
<title>include/tvm/tirx/op_attr_types.h</title>
<polygon fill="white" stroke="transparent" points="-4,4 -4,-270 1712.5,-270 1712.5,4 -4,4"/>
<!-- Node1 -->
<g id="node1" class="node">
<title>Node1</title>
<g id="a_node1"><a xlink:title="Attribute types in the Op registry for TIR ops.">
<polygon fill="#bfbfbf" stroke="black" points="1060,-235.5 1060,-265.5 1169,-265.5 1169,-235.5 1060,-235.5"/>
<text text-anchor="start" x="1068" y="-253.5" font-family="Helvetica,sans-Serif" font-size="10.00">include/tvm/tirx/op</text>
<text text-anchor="middle" x="1114.5" y="-242.5" font-family="Helvetica,sans-Serif" font-size="10.00">_attr_types.h</text>
</a>
</g>
</g>
<!-- Node2 -->
<g id="node2" class="node">
<title>Node2</title>
<g id="a_node2"><a xlink:title=" ">
<polygon fill="white" stroke="#bfbfbf" points="1200,-62 1200,-81 1301,-81 1301,-62 1200,-62"/>
<text text-anchor="middle" x="1250.5" y="-69" font-family="Helvetica,sans-Serif" font-size="10.00">tvm/ffi/function.h</text>
</a>
</g>
</g>
<!-- Node1&#45;&gt;Node2 -->
<g id="edge1" class="edge">
<title>Node1&#45;&gt;Node2</title>
<path fill="none" stroke="midnightblue" d="M1135.26,-235.37C1160.77,-216.96 1203.72,-182.45 1228.5,-143 1238.5,-127.08 1244.26,-106.27 1247.36,-91.39"/>
<polygon fill="midnightblue" stroke="midnightblue" points="1250.84,-91.83 1249.24,-81.35 1243.96,-90.54 1250.84,-91.83"/>
</g>
<!-- Node3 -->
<g id="node3" class="node">
<title>Node3</title>
<g id="a_node3"><a xlink:title=" ">
<polygon fill="white" stroke="#bfbfbf" points="318,-123.5 318,-142.5 407,-142.5 407,-123.5 318,-123.5"/>
<text text-anchor="middle" x="362.5" y="-130.5" font-family="Helvetica,sans-Serif" font-size="10.00">tvm/ffi/string.h</text>
</a>
</g>
</g>
<!-- Node1&#45;&gt;Node3 -->
<g id="edge2" class="edge">
<title>Node1&#45;&gt;Node3</title>
<path fill="none" stroke="midnightblue" d="M1059.71,-241.4C943.54,-224.17 663.67,-182.37 417.5,-143.14"/>
<polygon fill="midnightblue" stroke="midnightblue" points="417.71,-139.63 407.28,-141.51 416.61,-146.54 417.71,-139.63"/>
</g>
<!-- Node4 -->
<g id="node4" class="node">
<title>Node4</title>
<g id="a_node4"><a xlink:href="ir_2expr_8h.html" target="_top" xlink:title="Base expr nodes in TVM.">
<polygon fill="white" stroke="black" points="942,-179.5 942,-198.5 1021,-198.5 1021,-179.5 942,-179.5"/>
<text text-anchor="middle" x="981.5" y="-186.5" font-family="Helvetica,sans-Serif" font-size="10.00">tvm/ir/expr.h</text>
</a>
</g>
</g>
<!-- Node1&#45;&gt;Node4 -->
<g id="edge3" class="edge">
<title>Node1&#45;&gt;Node4</title>
<path fill="none" stroke="midnightblue" d="M1082.98,-235.4C1060.86,-225.51 1031.53,-212.38 1010.09,-202.79"/>
<polygon fill="midnightblue" stroke="midnightblue" points="1011.41,-199.55 1000.85,-198.66 1008.55,-205.94 1011.41,-199.55"/>
</g>
<!-- Node30 -->
<g id="node30" class="node">
<title>Node30</title>
<g id="a_node30"><a xlink:title=" ">
<polygon fill="white" stroke="#bfbfbf" points="1276,-179.5 1276,-198.5 1333,-198.5 1333,-179.5 1276,-179.5"/>
<text text-anchor="middle" x="1304.5" y="-186.5" font-family="Helvetica,sans-Serif" font-size="10.00">ostream</text>
</a>
</g>
</g>
<!-- Node1&#45;&gt;Node30 -->
<g id="edge41" class="edge">
<title>Node1&#45;&gt;Node30</title>
<path fill="none" stroke="midnightblue" d="M1159.53,-235.4C1192.36,-225.12 1236.32,-211.35 1267.2,-201.68"/>
<polygon fill="midnightblue" stroke="midnightblue" points="1268.63,-204.9 1277.13,-198.57 1266.54,-198.22 1268.63,-204.9"/>
</g>
<!-- Node4&#45;&gt;Node3 -->
<g id="edge6" class="edge">
<title>Node4&#45;&gt;Node3</title>
<path fill="none" stroke="midnightblue" d="M942,-186.02C851.23,-181.22 620.64,-167.61 417.22,-142.98"/>
<polygon fill="midnightblue" stroke="midnightblue" points="417.6,-139.5 407.25,-141.76 416.75,-146.45 417.6,-139.5"/>
</g>
<!-- Node5 -->
<g id="node5" class="node">
<title>Node5</title>
<g id="a_node5"><a xlink:title=" ">
<polygon fill="white" stroke="#bfbfbf" points="683.5,-123.5 683.5,-142.5 819.5,-142.5 819.5,-123.5 683.5,-123.5"/>
<text text-anchor="middle" x="751.5" y="-130.5" font-family="Helvetica,sans-Serif" font-size="10.00">tvm/ffi/extra/dataclass.h</text>
</a>
</g>
</g>
<!-- Node4&#45;&gt;Node5 -->
<g id="edge4" class="edge">
<title>Node4&#45;&gt;Node5</title>
<path fill="none" stroke="midnightblue" d="M945.06,-179.44C905.1,-170.06 840.91,-154.99 797.52,-144.8"/>
<polygon fill="midnightblue" stroke="midnightblue" points="798.31,-141.39 787.77,-142.52 796.71,-148.21 798.31,-141.39"/>
</g>
<!-- Node6 -->
<g id="node6" class="node">
<title>Node6</title>
<g id="a_node6"><a xlink:title=" ">
<polygon fill="white" stroke="#bfbfbf" points="1610.5,-56.5 1610.5,-86.5 1708.5,-86.5 1708.5,-56.5 1610.5,-56.5"/>
<text text-anchor="start" x="1618.5" y="-74.5" font-family="Helvetica,sans-Serif" font-size="10.00">tvm/ffi/reflection</text>
<text text-anchor="middle" x="1659.5" y="-63.5" font-family="Helvetica,sans-Serif" font-size="10.00">/registry.h</text>
</a>
</g>
</g>
<!-- Node4&#45;&gt;Node6 -->
<g id="edge5" class="edge">
<title>Node4&#45;&gt;Node6</title>
<path fill="none" stroke="midnightblue" d="M1021.28,-185.89C1096.35,-181.44 1263.83,-169.25 1402.5,-143 1474.25,-129.42 1555.21,-105.79 1606.76,-89.66"/>
<polygon fill="midnightblue" stroke="midnightblue" points="1607.86,-92.98 1616.35,-86.64 1605.76,-86.3 1607.86,-92.98"/>
</g>
<!-- Node7 -->
<g id="node7" class="node">
<title>Node7</title>
<g id="a_node7"><a xlink:href="cast_8h.html" target="_top" xlink:title="Value casting helpers.">
<polygon fill="white" stroke="black" points="425.5,-123.5 425.5,-142.5 503.5,-142.5 503.5,-123.5 425.5,-123.5"/>
<text text-anchor="middle" x="464.5" y="-130.5" font-family="Helvetica,sans-Serif" font-size="10.00">tvm/ir/cast.h</text>
</a>
</g>
</g>
<!-- Node4&#45;&gt;Node7 -->
<g id="edge7" class="edge">
<title>Node4&#45;&gt;Node7</title>
<path fill="none" stroke="midnightblue" d="M941.76,-185.06C861.55,-178.91 674.63,-163.57 518.5,-143 517,-142.8 515.47,-142.59 513.94,-142.38"/>
<polygon fill="midnightblue" stroke="midnightblue" points="514.09,-138.86 503.68,-140.85 513.06,-145.79 514.09,-138.86"/>
</g>
<!-- Node15 -->
<g id="node15" class="node">
<title>Node15</title>
<g id="a_node15"><a xlink:href="cow_8h.html" target="_top" xlink:title="Copy&#45;on&#45;write helper macro for IR ffi::ObjectRef types.">
<polygon fill="white" stroke="black" points="838,-123.5 838,-142.5 915,-142.5 915,-123.5 838,-123.5"/>
<text text-anchor="middle" x="876.5" y="-130.5" font-family="Helvetica,sans-Serif" font-size="10.00">tvm/ir/cow.h</text>
</a>
</g>
</g>
<!-- Node4&#45;&gt;Node15 -->
<g id="edge15" class="edge">
<title>Node4&#45;&gt;Node15</title>
<path fill="none" stroke="midnightblue" d="M964.63,-179.32C947.79,-170.66 921.69,-157.24 902.26,-147.25"/>
<polygon fill="midnightblue" stroke="midnightblue" points="903.82,-144.12 893.33,-142.65 900.62,-150.34 903.82,-144.12"/>
</g>
<!-- Node16 -->
<g id="node16" class="node">
<title>Node16</title>
<g id="a_node16"><a xlink:href="source__map_8h.html" target="_top" xlink:title="A map from source names to source code.">
<polygon fill="white" stroke="black" points="1276,-123.5 1276,-142.5 1393,-142.5 1393,-123.5 1276,-123.5"/>
<text text-anchor="middle" x="1334.5" y="-130.5" font-family="Helvetica,sans-Serif" font-size="10.00">tvm/ir/source_map.h</text>
</a>
</g>
</g>
<!-- Node4&#45;&gt;Node16 -->
<g id="edge18" class="edge">
<title>Node4&#45;&gt;Node16</title>
<path fill="none" stroke="midnightblue" d="M1021.31,-181.91C1081.49,-172.7 1196.32,-155.14 1268.96,-144.03"/>
<polygon fill="midnightblue" stroke="midnightblue" points="1269.57,-147.47 1278.92,-142.5 1268.51,-140.55 1269.57,-147.47"/>
</g>
<!-- Node21 -->
<g id="node21" class="node">
<title>Node21</title>
<g id="a_node21"><a xlink:title=" ">
<polygon fill="white" stroke="#bfbfbf" points="1006.5,-62 1006.5,-81 1050.5,-81 1050.5,-62 1006.5,-62"/>
<text text-anchor="middle" x="1028.5" y="-69" font-family="Helvetica,sans-Serif" font-size="10.00">string</text>
</a>
</g>
</g>
<!-- Node4&#45;&gt;Node21 -->
<g id="edge39" class="edge">
<title>Node4&#45;&gt;Node21</title>
<path fill="none" stroke="midnightblue" d="M983.37,-179.38C986.27,-166.73 992.35,-142.53 1000.5,-123 1005.26,-111.6 1011.92,-99.48 1017.55,-89.97"/>
<polygon fill="midnightblue" stroke="midnightblue" points="1020.72,-91.5 1022.93,-81.14 1014.74,-87.86 1020.72,-91.5"/>
</g>
<!-- Node23 -->
<g id="node23" class="node">
<title>Node23</title>
<g id="a_node23"><a xlink:href="data__type_8h.html" target="_top" xlink:title=" ">
<polygon fill="white" stroke="black" points="527.5,-123.5 527.5,-142.5 665.5,-142.5 665.5,-123.5 527.5,-123.5"/>
<text text-anchor="middle" x="596.5" y="-130.5" font-family="Helvetica,sans-Serif" font-size="10.00">tvm/runtime/data_type.h</text>
</a>
</g>
</g>
<!-- Node4&#45;&gt;Node23 -->
<g id="edge28" class="edge">
<title>Node4&#45;&gt;Node23</title>
<path fill="none" stroke="midnightblue" d="M941.75,-182.42C877.08,-173.35 748.22,-155.28 667.52,-143.96"/>
<polygon fill="midnightblue" stroke="midnightblue" points="667.83,-140.47 657.44,-142.55 666.86,-147.4 667.83,-140.47"/>
</g>
<!-- Node26 -->
<g id="node26" class="node">
<title>Node26</title>
<g id="a_node26"><a xlink:title=" ">
<polygon fill="white" stroke="#bfbfbf" points="856,-62 856,-81 925,-81 925,-62 856,-62"/>
<text text-anchor="middle" x="890.5" y="-69" font-family="Helvetica,sans-Serif" font-size="10.00">type_traits</text>
</a>
</g>
</g>
<!-- Node4&#45;&gt;Node26 -->
<g id="edge40" class="edge">
<title>Node4&#45;&gt;Node26</title>
<path fill="none" stroke="midnightblue" d="M974.66,-179.32C959.64,-160.26 923.55,-114.45 903.86,-89.46"/>
<polygon fill="midnightblue" stroke="midnightblue" points="906.36,-86.97 897.42,-81.28 900.86,-91.3 906.36,-86.97"/>
</g>
<!-- Node27 -->
<g id="node27" class="node">
<title>Node27</title>
<g id="a_node27"><a xlink:title=" ">
<polygon fill="white" stroke="#bfbfbf" points="1009.5,-123.5 1009.5,-142.5 1073.5,-142.5 1073.5,-123.5 1009.5,-123.5"/>
<text text-anchor="middle" x="1041.5" y="-130.5" font-family="Helvetica,sans-Serif" font-size="10.00">algorithm</text>
</a>
</g>
</g>
<!-- Node4&#45;&gt;Node27 -->
<g id="edge36" class="edge">
<title>Node4&#45;&gt;Node27</title>
<path fill="none" stroke="midnightblue" d="M991.14,-179.32C1000.01,-171.34 1013.37,-159.31 1024.11,-149.65"/>
<polygon fill="midnightblue" stroke="midnightblue" points="1026.59,-152.13 1031.68,-142.83 1021.91,-146.92 1026.59,-152.13"/>
</g>
<!-- Node28 -->
<g id="node28" class="node">
<title>Node28</title>
<g id="a_node28"><a xlink:title=" ">
<polygon fill="white" stroke="#bfbfbf" points="1092,-123.5 1092,-142.5 1157,-142.5 1157,-123.5 1092,-123.5"/>
<text text-anchor="middle" x="1124.5" y="-130.5" font-family="Helvetica,sans-Serif" font-size="10.00">functional</text>
</a>
</g>
</g>
<!-- Node4&#45;&gt;Node28 -->
<g id="edge37" class="edge">
<title>Node4&#45;&gt;Node28</title>
<path fill="none" stroke="midnightblue" d="M1004.16,-179.44C1027.9,-170.48 1065.41,-156.31 1092.24,-146.18"/>
<polygon fill="midnightblue" stroke="midnightblue" points="1093.83,-149.32 1101.95,-142.52 1091.36,-142.77 1093.83,-149.32"/>
</g>
<!-- Node29 -->
<g id="node29" class="node">
<title>Node29</title>
<g id="a_node29"><a xlink:title=" ">
<polygon fill="white" stroke="#bfbfbf" points="1175.5,-123.5 1175.5,-142.5 1219.5,-142.5 1219.5,-123.5 1175.5,-123.5"/>
<text text-anchor="middle" x="1197.5" y="-130.5" font-family="Helvetica,sans-Serif" font-size="10.00">limits</text>
</a>
</g>
</g>
<!-- Node4&#45;&gt;Node29 -->
<g id="edge38" class="edge">
<title>Node4&#45;&gt;Node29</title>
<path fill="none" stroke="midnightblue" d="M1018.83,-179.43C1054.23,-171.19 1109.14,-158.11 1165.41,-143.21"/>
<polygon fill="midnightblue" stroke="midnightblue" points="1166.42,-146.56 1175.18,-140.61 1164.62,-139.8 1166.42,-146.56"/>
</g>
<!-- Node8 -->
<g id="node8" class="node">
<title>Node8</title>
<g id="a_node8"><a xlink:title=" ">
<polygon fill="white" stroke="#bfbfbf" points="0,-62 0,-81 77,-81 77,-62 0,-62"/>
<text text-anchor="middle" x="38.5" y="-69" font-family="Helvetica,sans-Serif" font-size="10.00">tvm/ffi/any.h</text>
</a>
</g>
</g>
<!-- Node7&#45;&gt;Node8 -->
<g id="edge8" class="edge">
<title>Node7&#45;&gt;Node8</title>
<path fill="none" stroke="midnightblue" d="M425.49,-124.57C422.12,-124.01 418.75,-123.48 415.5,-123 269.51,-101.66 229.98,-116.88 85.5,-87 81.36,-86.14 77.06,-85.08 72.83,-83.91"/>
<polygon fill="midnightblue" stroke="midnightblue" points="73.73,-80.53 63.15,-81.07 71.76,-87.25 73.73,-80.53"/>
</g>
<!-- Node9 -->
<g id="node9" class="node">
<title>Node9</title>
<g id="a_node9"><a xlink:title=" ">
<polygon fill="white" stroke="#bfbfbf" points="214,-62 214,-81 295,-81 295,-62 214,-62"/>
<text text-anchor="middle" x="254.5" y="-69" font-family="Helvetica,sans-Serif" font-size="10.00">tvm/ffi/cast.h</text>
</a>
</g>
</g>
<!-- Node7&#45;&gt;Node9 -->
<g id="edge9" class="edge">
<title>Node7&#45;&gt;Node9</title>
<path fill="none" stroke="midnightblue" d="M433.29,-123.43C400.83,-114.48 348.54,-99.96 303.5,-87 299.97,-85.98 296.29,-84.92 292.62,-83.84"/>
<polygon fill="midnightblue" stroke="midnightblue" points="293.56,-80.47 282.98,-81.01 291.59,-87.19 293.56,-80.47"/>
</g>
<!-- Node10 -->
<g id="node10" class="node">
<title>Node10</title>
<g id="a_node10"><a xlink:title=" ">
<polygon fill="white" stroke="#bfbfbf" points="313,-62 313,-81 402,-81 402,-62 313,-62"/>
<text text-anchor="middle" x="357.5" y="-69" font-family="Helvetica,sans-Serif" font-size="10.00">tvm/ffi/dtype.h</text>
</a>
</g>
</g>
<!-- Node7&#45;&gt;Node10 -->
<g id="edge10" class="edge">
<title>Node7&#45;&gt;Node10</title>
<path fill="none" stroke="midnightblue" d="M449.17,-123.48C431.53,-113.67 402.34,-97.43 381.64,-85.92"/>
<polygon fill="midnightblue" stroke="midnightblue" points="383.24,-82.81 372.8,-81.01 379.84,-88.93 383.24,-82.81"/>
</g>
<!-- Node11 -->
<g id="node11" class="node">
<title>Node11</title>
<g id="a_node11"><a xlink:title=" ">
<polygon fill="white" stroke="#bfbfbf" points="420,-62 420,-81 503,-81 503,-62 420,-62"/>
<text text-anchor="middle" x="461.5" y="-69" font-family="Helvetica,sans-Serif" font-size="10.00">tvm/ffi/error.h</text>
</a>
</g>
</g>
<!-- Node7&#45;&gt;Node11 -->
<g id="edge11" class="edge">
<title>Node7&#45;&gt;Node11</title>
<path fill="none" stroke="midnightblue" d="M464.07,-123.48C463.65,-115.08 462.99,-101.98 462.44,-91.16"/>
<polygon fill="midnightblue" stroke="midnightblue" points="465.93,-90.82 461.93,-81.01 458.94,-91.17 465.93,-90.82"/>
</g>
<!-- Node12 -->
<g id="node12" class="node">
<title>Node12</title>
<g id="a_node12"><a xlink:title=" ">
<polygon fill="white" stroke="#bfbfbf" points="747,-62 747,-81 838,-81 838,-62 747,-62"/>
<text text-anchor="middle" x="792.5" y="-69" font-family="Helvetica,sans-Serif" font-size="10.00">tvm/ffi/object.h</text>
</a>
</g>
</g>
<!-- Node7&#45;&gt;Node12 -->
<g id="edge12" class="edge">
<title>Node7&#45;&gt;Node12</title>
<path fill="none" stroke="midnightblue" d="M503.72,-125.45C508.7,-124.62 513.72,-123.79 518.5,-123 615.82,-106.89 641.03,-107.6 737.5,-87 742.26,-85.98 747.22,-84.82 752.14,-83.61"/>
<polygon fill="midnightblue" stroke="midnightblue" points="753.25,-86.94 762.08,-81.07 751.52,-80.15 753.25,-86.94"/>
</g>
<!-- Node13 -->
<g id="node13" class="node">
<title>Node13</title>
<g id="a_node13"><a xlink:title=" ">
<polygon fill="white" stroke="#bfbfbf" points="95,-62 95,-81 196,-81 196,-62 95,-62"/>
<text text-anchor="middle" x="145.5" y="-69" font-family="Helvetica,sans-Serif" font-size="10.00">tvm/ffi/optional.h</text>
</a>
</g>
</g>
<!-- Node7&#45;&gt;Node13 -->
<g id="edge13" class="edge">
<title>Node7&#45;&gt;Node13</title>
<path fill="none" stroke="midnightblue" d="M425.46,-124.78C422.09,-124.17 418.74,-123.57 415.5,-123 321.83,-106.41 297.64,-106.36 204.5,-87 199.34,-85.93 193.95,-84.72 188.61,-83.47"/>
<polygon fill="midnightblue" stroke="midnightblue" points="189.02,-79.97 178.48,-81.05 187.39,-86.78 189.02,-79.97"/>
</g>
<!-- Node14 -->
<g id="node14" class="node">
<title>Node14</title>
<g id="a_node14"><a xlink:title=" ">
<polygon fill="white" stroke="#bfbfbf" points="943,-62 943,-81 988,-81 988,-62 943,-62"/>
<text text-anchor="middle" x="965.5" y="-69" font-family="Helvetica,sans-Serif" font-size="10.00">utility</text>
</a>
</g>
</g>
<!-- Node7&#45;&gt;Node14 -->
<g id="edge14" class="edge">
<title>Node7&#45;&gt;Node14</title>
<path fill="none" stroke="midnightblue" d="M503.67,-125.1C508.66,-124.33 513.69,-123.61 518.5,-123 702.61,-99.73 755.25,-135.05 934.5,-87 936.44,-86.48 938.4,-85.85 940.35,-85.14"/>
<polygon fill="midnightblue" stroke="midnightblue" points="941.97,-88.25 949.82,-81.14 939.24,-81.81 941.97,-88.25"/>
</g>
<!-- Node15&#45;&gt;Node12 -->
<g id="edge16" class="edge">
<title>Node15&#45;&gt;Node12</title>
<path fill="none" stroke="midnightblue" d="M864.46,-123.48C850.99,-113.93 828.93,-98.31 812.78,-86.87"/>
<polygon fill="midnightblue" stroke="midnightblue" points="814.7,-83.93 804.51,-81.01 810.65,-89.65 814.7,-83.93"/>
</g>
<!-- Node15&#45;&gt;Node14 -->
<g id="edge17" class="edge">
<title>Node15&#45;&gt;Node14</title>
<path fill="none" stroke="midnightblue" d="M889.25,-123.48C903.53,-113.93 926.9,-98.31 944.01,-86.87"/>
<polygon fill="midnightblue" stroke="midnightblue" points="946.4,-89.48 952.77,-81.01 942.51,-83.66 946.4,-89.48"/>
</g>
<!-- Node16&#45;&gt;Node2 -->
<g id="edge20" class="edge">
<title>Node16&#45;&gt;Node2</title>
<path fill="none" stroke="midnightblue" d="M1322.46,-123.48C1308.99,-113.93 1286.93,-98.31 1270.78,-86.87"/>
<polygon fill="midnightblue" stroke="midnightblue" points="1272.7,-83.93 1262.51,-81.01 1268.65,-89.65 1272.7,-83.93"/>
</g>
<!-- Node16&#45;&gt;Node6 -->
<g id="edge21" class="edge">
<title>Node16&#45;&gt;Node6</title>
<path fill="none" stroke="midnightblue" d="M1393.08,-123.47C1445.12,-115.59 1523.43,-102.99 1600.34,-87.15"/>
<polygon fill="midnightblue" stroke="midnightblue" points="1601.12,-90.57 1610.2,-85.1 1599.7,-83.71 1601.12,-90.57"/>
</g>
<!-- Node16&#45;&gt;Node14 -->
<g id="edge26" class="edge">
<title>Node16&#45;&gt;Node14</title>
<path fill="none" stroke="midnightblue" d="M1275.85,-126.26C1193.62,-117.85 1048.43,-101.59 997.5,-87 995.57,-86.45 993.6,-85.79 991.64,-85.08"/>
<polygon fill="midnightblue" stroke="midnightblue" points="992.67,-81.72 982.09,-81.13 989.99,-88.18 992.67,-81.72"/>
</g>
<!-- Node17 -->
<g id="node17" class="node">
<title>Node17</title>
<g id="a_node17"><a xlink:title=" ">
<polygon fill="white" stroke="#bfbfbf" points="1384.5,-62 1384.5,-81 1518.5,-81 1518.5,-62 1384.5,-62"/>
<text text-anchor="middle" x="1451.5" y="-69" font-family="Helvetica,sans-Serif" font-size="10.00">tvm/ffi/container/array.h</text>
</a>
</g>
</g>
<!-- Node16&#45;&gt;Node17 -->
<g id="edge19" class="edge">
<title>Node16&#45;&gt;Node17</title>
<path fill="none" stroke="midnightblue" d="M1351.26,-123.48C1370.72,-113.58 1403.05,-97.14 1425.71,-85.62"/>
<polygon fill="midnightblue" stroke="midnightblue" points="1427.44,-88.66 1434.77,-81.01 1424.27,-82.42 1427.44,-88.66"/>
</g>
<!-- Node18 -->
<g id="node18" class="node">
<title>Node18</title>
<g id="a_node18"><a xlink:href="runtime_2base_8h.html" target="_top" xlink:title=" ">
<polygon fill="white" stroke="black" points="1069,-62 1069,-81 1182,-81 1182,-62 1069,-62"/>
<text text-anchor="middle" x="1125.5" y="-69" font-family="Helvetica,sans-Serif" font-size="10.00">tvm/runtime/base.h</text>
</a>
</g>
</g>
<!-- Node16&#45;&gt;Node18 -->
<g id="edge22" class="edge">
<title>Node16&#45;&gt;Node18</title>
<path fill="none" stroke="midnightblue" d="M1304.56,-123.48C1267.93,-113.05 1205.8,-95.36 1165.22,-83.81"/>
<polygon fill="midnightblue" stroke="midnightblue" points="1165.97,-80.38 1155.39,-81.01 1164.05,-87.11 1165.97,-80.38"/>
</g>
<!-- Node20 -->
<g id="node20" class="node">
<title>Node20</title>
<g id="a_node20"><a xlink:title=" ">
<polygon fill="white" stroke="#bfbfbf" points="1537,-62 1537,-81 1592,-81 1592,-62 1537,-62"/>
<text text-anchor="middle" x="1564.5" y="-69" font-family="Helvetica,sans-Serif" font-size="10.00">fstream</text>
</a>
</g>
</g>
<!-- Node16&#45;&gt;Node20 -->
<g id="edge24" class="edge">
<title>Node16&#45;&gt;Node20</title>
<path fill="none" stroke="midnightblue" d="M1379.45,-123.44C1418.88,-115.47 1477.56,-102.52 1527.5,-87 1529.92,-86.25 1532.41,-85.41 1534.9,-84.53"/>
<polygon fill="midnightblue" stroke="midnightblue" points="1536.19,-87.79 1544.33,-81.01 1533.74,-81.23 1536.19,-87.79"/>
</g>
<!-- Node16&#45;&gt;Node21 -->
<g id="edge25" class="edge">
<title>Node16&#45;&gt;Node21</title>
<path fill="none" stroke="midnightblue" d="M1275.76,-126.86C1219.58,-120.89 1132.93,-108.94 1060.5,-87 1058.57,-86.42 1056.61,-85.74 1054.66,-85.01"/>
<polygon fill="midnightblue" stroke="midnightblue" points="1055.7,-81.65 1045.12,-81.03 1053,-88.11 1055.7,-81.65"/>
</g>
<!-- Node22 -->
<g id="node22" class="node">
<title>Node22</title>
<g id="a_node22"><a xlink:title=" ">
<polygon fill="white" stroke="#bfbfbf" points="1319,-62 1319,-81 1366,-81 1366,-62 1319,-62"/>
<text text-anchor="middle" x="1342.5" y="-69" font-family="Helvetica,sans-Serif" font-size="10.00">vector</text>
</a>
</g>
</g>
<!-- Node16&#45;&gt;Node22 -->
<g id="edge27" class="edge">
<title>Node16&#45;&gt;Node22</title>
<path fill="none" stroke="midnightblue" d="M1335.65,-123.48C1336.77,-115.08 1338.54,-101.98 1339.99,-91.16"/>
<polygon fill="midnightblue" stroke="midnightblue" points="1343.49,-91.39 1341.36,-81.01 1336.55,-90.45 1343.49,-91.39"/>
</g>
<!-- Node19 -->
<g id="node19" class="node">
<title>Node19</title>
<g id="a_node19"><a xlink:title=" ">
<polygon fill="white" stroke="#bfbfbf" points="1082.5,-0.5 1082.5,-19.5 1168.5,-19.5 1168.5,-0.5 1082.5,-0.5"/>
<text text-anchor="middle" x="1125.5" y="-7.5" font-family="Helvetica,sans-Serif" font-size="10.00">tvm/ffi/c_api.h</text>
</a>
</g>
</g>
<!-- Node18&#45;&gt;Node19 -->
<g id="edge23" class="edge">
<title>Node18&#45;&gt;Node19</title>
<path fill="none" stroke="midnightblue" d="M1125.5,-61.98C1125.5,-53.58 1125.5,-40.48 1125.5,-29.66"/>
<polygon fill="midnightblue" stroke="midnightblue" points="1129,-29.51 1125.5,-19.51 1122,-29.51 1129,-29.51"/>
</g>
<!-- Node23&#45;&gt;Node10 -->
<g id="edge30" class="edge">
<title>Node23&#45;&gt;Node10</title>
<path fill="none" stroke="midnightblue" d="M559.72,-123.44C522.14,-114.62 462.14,-100.31 410.5,-87 406.39,-85.94 402.12,-84.81 397.85,-83.67"/>
<polygon fill="midnightblue" stroke="midnightblue" points="398.57,-80.24 388.01,-81.01 396.75,-87 398.57,-80.24"/>
</g>
<!-- Node23&#45;&gt;Node11 -->
<g id="edge31" class="edge">
<title>Node23&#45;&gt;Node11</title>
<path fill="none" stroke="midnightblue" d="M577.16,-123.48C554.4,-113.45 516.41,-96.7 490.21,-85.15"/>
<polygon fill="midnightblue" stroke="midnightblue" points="491.37,-81.84 480.81,-81.01 488.55,-88.24 491.37,-81.84"/>
</g>
<!-- Node23&#45;&gt;Node18 -->
<g id="edge32" class="edge">
<title>Node23&#45;&gt;Node18</title>
<path fill="none" stroke="midnightblue" d="M665.81,-123.92C668.75,-123.61 671.65,-123.3 674.5,-123 845.43,-105.15 889.7,-113.49 1059.5,-87 1066.28,-85.94 1073.4,-84.61 1080.36,-83.19"/>
<polygon fill="midnightblue" stroke="midnightblue" points="1081.32,-86.56 1090.37,-81.06 1079.86,-79.72 1081.32,-86.56"/>
</g>
<!-- Node23&#45;&gt;Node21 -->
<g id="edge34" class="edge">
<title>Node23&#45;&gt;Node21</title>
<path fill="none" stroke="midnightblue" d="M665.82,-123.99C668.75,-123.65 671.66,-123.32 674.5,-123 818.02,-106.72 858.45,-126.12 997.5,-87 999.43,-86.46 1001.39,-85.81 1003.34,-85.08"/>
<polygon fill="midnightblue" stroke="midnightblue" points="1004.96,-88.19 1012.79,-81.06 1002.22,-81.75 1004.96,-88.19"/>
</g>
<!-- Node24 -->
<g id="node24" class="node">
<title>Node24</title>
<g id="a_node24"><a xlink:title=" ">
<polygon fill="white" stroke="#bfbfbf" points="590,-62 590,-81 729,-81 729,-62 590,-62"/>
<text text-anchor="middle" x="659.5" y="-69" font-family="Helvetica,sans-Serif" font-size="10.00">tvm/ffi/container/shape.h</text>
</a>
</g>
</g>
<!-- Node23&#45;&gt;Node24 -->
<g id="edge29" class="edge">
<title>Node23&#45;&gt;Node24</title>
<path fill="none" stroke="midnightblue" d="M605.53,-123.48C615.26,-114.28 630.96,-99.46 642.92,-88.16"/>
<polygon fill="midnightblue" stroke="midnightblue" points="645.62,-90.42 650.49,-81.01 640.82,-85.33 645.62,-90.42"/>
</g>
<!-- Node25 -->
<g id="node25" class="node">
<title>Node25</title>
<g id="a_node25"><a xlink:title=" ">
<polygon fill="white" stroke="#bfbfbf" points="521.5,-62 521.5,-81 571.5,-81 571.5,-62 521.5,-62"/>
<text text-anchor="middle" x="546.5" y="-69" font-family="Helvetica,sans-Serif" font-size="10.00">cstring</text>
</a>
</g>
</g>
<!-- Node23&#45;&gt;Node25 -->
<g id="edge33" class="edge">
<title>Node23&#45;&gt;Node25</title>
<path fill="none" stroke="midnightblue" d="M589.34,-123.48C581.76,-114.46 569.63,-100.02 560.21,-88.81"/>
<polygon fill="midnightblue" stroke="midnightblue" points="562.76,-86.41 553.65,-81.01 557.4,-90.92 562.76,-86.41"/>
</g>
<!-- Node23&#45;&gt;Node26 -->
<g id="edge35" class="edge">
<title>Node23&#45;&gt;Node26</title>
<path fill="none" stroke="midnightblue" d="M657.38,-123.49C708.32,-115.78 782.7,-103.17 846.5,-87 849.88,-86.14 853.37,-85.16 856.84,-84.12"/>
<polygon fill="midnightblue" stroke="midnightblue" points="857.98,-87.43 866.47,-81.09 855.88,-80.76 857.98,-87.43"/>
</g>
</g>
</svg>
