<?xml version="1.0" encoding="UTF-8" standalone="no"?>
<!DOCTYPE svg PUBLIC "-//W3C//DTD SVG 1.1//EN"
 "http://www.w3.org/Graphics/SVG/1.1/DTD/svg11.dtd">
<!-- Generated by graphviz version 2.43.0 (0)
 -->
<!-- Title: include/tvm/tirx/stmt.h Pages: 1 -->
<svg width="3871pt" height="789pt"
 viewBox="0.00 0.00 3871.07 789.00" xmlns="http://www.w3.org/2000/svg" xmlns:xlink="http://www.w3.org/1999/xlink">
<g id="graph0" class="graph" transform="scale(1 1) rotate(0) translate(4 785)">
<title>include/tvm/tirx/stmt.h</title>
<polygon fill="white" stroke="transparent" points="-4,4 -4,-785 3867.07,-785 3867.07,4 -4,4"/>
<!-- Node1 -->
<g id="node1" class="node">
<title>Node1</title>
<g id="a_node1"><a xlink:title="TIR statements.">
<polygon fill="#bfbfbf" stroke="black" points="3055.07,-761.5 3055.07,-780.5 3183.07,-780.5 3183.07,-761.5 3055.07,-761.5"/>
<text text-anchor="middle" x="3119.07" y="-768.5" font-family="Helvetica,sans-Serif" font-size="10.00">include/tvm/tirx/stmt.h</text>
</a>
</g>
</g>
<!-- Node2 -->
<g id="node2" class="node">
<title>Node2</title>
<g id="a_node2"><a xlink:title=" ">
<polygon fill="white" stroke="#bfbfbf" points="3426.07,-56.5 3426.07,-86.5 3524.07,-86.5 3524.07,-56.5 3426.07,-56.5"/>
<text text-anchor="start" x="3434.07" y="-74.5" font-family="Helvetica,sans-Serif" font-size="10.00">tvm/ffi/reflection</text>
<text text-anchor="middle" x="3475.07" y="-63.5" font-family="Helvetica,sans-Serif" font-size="10.00">/registry.h</text>
</a>
</g>
</g>
<!-- Node1&#45;&gt;Node2 -->
<g id="edge1" class="edge">
<title>Node1&#45;&gt;Node2</title>
<path fill="none" stroke="midnightblue" d="M3183.26,-766C3349.11,-754.81 3779.07,-720.01 3779.07,-660 3779.07,-660 3779.07,-660 3779.07,-204.5 3779.07,-151.66 3622.58,-106.69 3534.16,-85.5"/>
<polygon fill="midnightblue" stroke="midnightblue" points="3534.79,-82.06 3524.25,-83.16 3533.18,-88.87 3534.79,-82.06"/>
</g>
<!-- Node3 -->
<g id="node3" class="node">
<title>Node3</title>
<g id="a_node3"><a xlink:href="exec__scope_8h.html" target="_top" xlink:title=" ">
<polygon fill="white" stroke="black" points="2291.07,-537.5 2291.07,-556.5 2415.07,-556.5 2415.07,-537.5 2291.07,-537.5"/>
<text text-anchor="middle" x="2353.07" y="-544.5" font-family="Helvetica,sans-Serif" font-size="10.00">tvm/tirx/exec_scope.h</text>
</a>
</g>
</g>
<!-- Node1&#45;&gt;Node3 -->
<g id="edge2" class="edge">
<title>Node1&#45;&gt;Node3</title>
<path fill="none" stroke="midnightblue" d="M3079.93,-761.49C2983.42,-740.13 2726.7,-681.07 2518.07,-613 2469.53,-597.16 2414.63,-574.56 2381.99,-560.61"/>
<polygon fill="midnightblue" stroke="midnightblue" points="2383.17,-557.31 2372.6,-556.58 2380.41,-563.74 2383.17,-557.31"/>
</g>
<!-- Node11 -->
<g id="node11" class="node">
<title>Node11</title>
<g id="a_node11"><a xlink:title=" ">
<polygon fill="white" stroke="#bfbfbf" points="2520.57,-62 2520.57,-81 2565.57,-81 2565.57,-62 2520.57,-62"/>
<text text-anchor="middle" x="2543.07" y="-69" font-family="Helvetica,sans-Serif" font-size="10.00">utility</text>
</a>
</g>
</g>
<!-- Node1&#45;&gt;Node11 -->
<g id="edge175" class="edge">
<title>Node1&#45;&gt;Node11</title>
<path fill="none" stroke="midnightblue" d="M3183.25,-765.37C3294.9,-755.53 3513.07,-727.65 3513.07,-660 3513.07,-660 3513.07,-660 3513.07,-266 3513.07,-66.79 3270.55,-208.95 3079.07,-154 3035.16,-141.4 3025.74,-132.55 2981.07,-123 2831.6,-91.05 2648.83,-78.22 2575.64,-74.12"/>
<polygon fill="midnightblue" stroke="midnightblue" points="2575.83,-70.62 2565.65,-73.58 2575.45,-77.61 2575.83,-70.62"/>
</g>
<!-- Node25 -->
<g id="node25" class="node">
<title>Node25</title>
<g id="a_node25"><a xlink:title=" ">
<polygon fill="white" stroke="#bfbfbf" points="320.07,-62 320.07,-81 364.07,-81 364.07,-62 320.07,-62"/>
<text text-anchor="middle" x="342.07" y="-69" font-family="Helvetica,sans-Serif" font-size="10.00">string</text>
</a>
</g>
</g>
<!-- Node1&#45;&gt;Node25 -->
<g id="edge173" class="edge">
<title>Node1&#45;&gt;Node25</title>
<path fill="none" stroke="midnightblue" d="M3054.72,-769.44C2612.28,-765.36 38.07,-738.28 38.07,-660 38.07,-660 38.07,-660 38.07,-204.5 38.07,-163.34 48.9,-147.38 82.07,-123 117.9,-96.67 247.97,-81.3 309.45,-75.36"/>
<polygon fill="midnightblue" stroke="midnightblue" points="310.12,-78.81 319.75,-74.39 309.46,-71.84 310.12,-78.81"/>
</g>
<!-- Node30 -->
<g id="node30" class="node">
<title>Node30</title>
<g id="a_node30"><a xlink:title=" ">
<polygon fill="white" stroke="#bfbfbf" points="481.57,-62 481.57,-81 550.57,-81 550.57,-62 481.57,-62"/>
<text text-anchor="middle" x="516.07" y="-69" font-family="Helvetica,sans-Serif" font-size="10.00">type_traits</text>
</a>
</g>
</g>
<!-- Node1&#45;&gt;Node30 -->
<g id="edge174" class="edge">
<title>Node1&#45;&gt;Node30</title>
<path fill="none" stroke="midnightblue" d="M3054.8,-770.07C2616.94,-770.4 88.17,-770.36 24.07,-725 -1.07,-707.21 0.07,-690.8 0.07,-660 0.07,-660 0.07,-660 0.07,-490 0.07,-370.42 152.07,-387.58 152.07,-268 152.07,-268 152.07,-268 152.07,-204.5 152.07,-137.29 374.16,-94.54 471.38,-79.04"/>
<polygon fill="midnightblue" stroke="midnightblue" points="472.16,-82.47 481.5,-77.46 471.08,-75.55 472.16,-82.47"/>
</g>
<!-- Node52 -->
<g id="node52" class="node">
<title>Node52</title>
<g id="a_node52"><a xlink:href="tirx_2expr_8h.html" target="_top" xlink:title="TIR expressions.">
<polygon fill="white" stroke="black" points="1116.57,-705.5 1116.57,-724.5 1205.57,-724.5 1205.57,-705.5 1116.57,-705.5"/>
<text text-anchor="middle" x="1161.07" y="-712.5" font-family="Helvetica,sans-Serif" font-size="10.00">tvm/tirx/expr.h</text>
</a>
</g>
</g>
<!-- Node1&#45;&gt;Node52 -->
<g id="edge133" class="edge">
<title>Node1&#45;&gt;Node52</title>
<path fill="none" stroke="midnightblue" d="M3055.04,-768.23C2755.55,-759.97 1495.82,-725.23 1216.21,-717.52"/>
<polygon fill="midnightblue" stroke="midnightblue" points="1216,-714.01 1205.91,-717.24 1215.81,-721.01 1216,-714.01"/>
</g>
<!-- Node55 -->
<g id="node55" class="node">
<title>Node55</title>
<g id="a_node55"><a xlink:href="layout_8h.html" target="_top" xlink:title="Definition of layout.">
<polygon fill="white" stroke="black" points="2527.07,-593.5 2527.07,-612.5 2625.07,-612.5 2625.07,-593.5 2527.07,-593.5"/>
<text text-anchor="middle" x="2576.07" y="-600.5" font-family="Helvetica,sans-Serif" font-size="10.00">tvm/tirx/layout.h</text>
</a>
</g>
</g>
<!-- Node1&#45;&gt;Node55 -->
<g id="edge171" class="edge">
<title>Node1&#45;&gt;Node55</title>
<path fill="none" stroke="midnightblue" d="M3102.92,-761.34C3060.88,-739.17 2944.07,-679.92 2840.07,-649 2771.41,-628.58 2689.77,-616.44 2635.65,-610.01"/>
<polygon fill="midnightblue" stroke="midnightblue" points="2635.87,-606.51 2625.53,-608.84 2635.06,-613.47 2635.87,-606.51"/>
</g>
<!-- Node58 -->
<g id="node58" class="node">
<title>Node58</title>
<g id="a_node58"><a xlink:title=" ">
<polygon fill="white" stroke="#bfbfbf" points="3807.07,-705.5 3807.07,-724.5 3863.07,-724.5 3863.07,-705.5 3807.07,-705.5"/>
<text text-anchor="middle" x="3835.07" y="-712.5" font-family="Helvetica,sans-Serif" font-size="10.00">optional</text>
</a>
</g>
</g>
<!-- Node1&#45;&gt;Node58 -->
<g id="edge172" class="edge">
<title>Node1&#45;&gt;Node58</title>
<path fill="none" stroke="midnightblue" d="M3183.51,-768.79C3303.84,-765.85 3570.65,-756.09 3793.07,-725 3794.32,-724.83 3795.58,-724.64 3796.86,-724.43"/>
<polygon fill="midnightblue" stroke="midnightblue" points="3797.48,-727.88 3806.7,-722.66 3796.24,-720.99 3797.48,-727.88"/>
</g>
<!-- Node4 -->
<g id="node4" class="node">
<title>Node4</title>
<g id="a_node4"><a xlink:title=" ">
<polygon fill="white" stroke="#bfbfbf" points="2461.07,-481.5 2461.07,-500.5 2605.07,-500.5 2605.07,-481.5 2461.07,-481.5"/>
<text text-anchor="middle" x="2533.07" y="-488.5" font-family="Helvetica,sans-Serif" font-size="10.00">tvm/ffi/container/variant.h</text>
</a>
</g>
</g>
<!-- Node3&#45;&gt;Node4 -->
<g id="edge3" class="edge">
<title>Node3&#45;&gt;Node4</title>
<path fill="none" stroke="midnightblue" d="M2381.59,-537.44C2412.14,-528.28 2460.78,-513.69 2494.67,-503.52"/>
<polygon fill="midnightblue" stroke="midnightblue" points="2496.11,-506.74 2504.68,-500.52 2494.1,-500.04 2496.11,-506.74"/>
</g>
<!-- Node5 -->
<g id="node5" class="node">
<title>Node5</title>
<g id="a_node5"><a xlink:href="module_8h.html" target="_top" xlink:title="IRModule that holds the functions and type definitions.">
<polygon fill="white" stroke="black" points="2243.57,-481.5 2243.57,-500.5 2338.57,-500.5 2338.57,-481.5 2243.57,-481.5"/>
<text text-anchor="middle" x="2291.07" y="-488.5" font-family="Helvetica,sans-Serif" font-size="10.00">tvm/ir/module.h</text>
</a>
</g>
</g>
<!-- Node3&#45;&gt;Node5 -->
<g id="edge4" class="edge">
<title>Node3&#45;&gt;Node5</title>
<path fill="none" stroke="midnightblue" d="M2343.11,-537.32C2333.94,-529.34 2320.13,-517.31 2309.04,-507.65"/>
<polygon fill="midnightblue" stroke="midnightblue" points="2311.05,-504.76 2301.21,-500.83 2306.46,-510.04 2311.05,-504.76"/>
</g>
<!-- Node3&#45;&gt;Node11 -->
<g id="edge132" class="edge">
<title>Node3&#45;&gt;Node11</title>
<path fill="none" stroke="midnightblue" d="M2366.32,-537.42C2389.96,-521.57 2439.82,-485.6 2471.07,-445 2504.78,-401.21 2510.91,-386.42 2525.07,-333 2548.37,-245.09 2546.21,-134.99 2544.18,-91.46"/>
<polygon fill="midnightblue" stroke="midnightblue" points="2547.66,-91.04 2543.65,-81.24 2540.67,-91.41 2547.66,-91.04"/>
</g>
<!-- Node3&#45;&gt;Node25 -->
<g id="edge131" class="edge">
<title>Node3&#45;&gt;Node25</title>
<path fill="none" stroke="midnightblue" d="M2290.99,-544.87C2175.06,-542.07 1918.05,-532.52 1704.07,-501 1148.12,-419.1 1002.07,-404.93 471.07,-221 405.51,-198.29 367.14,-212.65 330.07,-154 317.87,-134.7 325.56,-107.77 333.07,-90.24"/>
<polygon fill="midnightblue" stroke="midnightblue" points="336.26,-91.67 337.32,-81.13 329.92,-88.71 336.26,-91.67"/>
</g>
<!-- Node51 -->
<g id="node51" class="node">
<title>Node51</title>
<g id="a_node51"><a xlink:href="var_8h.html" target="_top" xlink:title="Variables in the TIR.">
<polygon fill="white" stroke="black" points="1220.57,-257.5 1220.57,-276.5 1303.57,-276.5 1303.57,-257.5 1220.57,-257.5"/>
<text text-anchor="middle" x="1262.07" y="-264.5" font-family="Helvetica,sans-Serif" font-size="10.00">tvm/tirx/var.h</text>
</a>
</g>
</g>
<!-- Node3&#45;&gt;Node51 -->
<g id="edge125" class="edge">
<title>Node3&#45;&gt;Node51</title>
<path fill="none" stroke="midnightblue" d="M2290.94,-543.2C2130.74,-535.14 1707.57,-508.3 1584.07,-445 1512.44,-408.29 1529.92,-353 1460.07,-313 1447.36,-305.72 1367.74,-288.94 1313.42,-278.05"/>
<polygon fill="midnightblue" stroke="midnightblue" points="1314.08,-274.61 1303.59,-276.09 1312.71,-281.48 1314.08,-274.61"/>
</g>
<!-- Node5&#45;&gt;Node2 -->
<g id="edge7" class="edge">
<title>Node5&#45;&gt;Node2</title>
<path fill="none" stroke="midnightblue" d="M2338.62,-483.36C2392.74,-475.51 2483.67,-461.41 2561.07,-445 2982.68,-355.64 3234.27,-503.77 3486.07,-154 3498.07,-137.34 3493.12,-113.68 3486.47,-96.15"/>
<polygon fill="midnightblue" stroke="midnightblue" points="3489.58,-94.5 3482.48,-86.63 3483.12,-97.2 3489.58,-94.5"/>
</g>
<!-- Node6 -->
<g id="node6" class="node">
<title>Node6</title>
<g id="a_node6"><a xlink:title=" ">
<polygon fill="white" stroke="#bfbfbf" points="1573.07,-62 1573.07,-81 1707.07,-81 1707.07,-62 1573.07,-62"/>
<text text-anchor="middle" x="1640.07" y="-69" font-family="Helvetica,sans-Serif" font-size="10.00">tvm/ffi/container/array.h</text>
</a>
</g>
</g>
<!-- Node5&#45;&gt;Node6 -->
<g id="edge5" class="edge">
<title>Node5&#45;&gt;Node6</title>
<path fill="none" stroke="midnightblue" d="M2282.47,-481.23C2230.01,-427.79 1953.61,-147.42 1906.07,-123 1847.13,-92.72 1772.44,-80.48 1717.22,-75.59"/>
<polygon fill="midnightblue" stroke="midnightblue" points="1717.4,-72.09 1707.14,-74.75 1716.82,-79.06 1717.4,-72.09"/>
</g>
<!-- Node7 -->
<g id="node7" class="node">
<title>Node7</title>
<g id="a_node7"><a xlink:title=" ">
<polygon fill="white" stroke="#bfbfbf" points="3561.57,-62 3561.57,-81 3692.57,-81 3692.57,-62 3561.57,-62"/>
<text text-anchor="middle" x="3627.07" y="-69" font-family="Helvetica,sans-Serif" font-size="10.00">tvm/ffi/container/map.h</text>
</a>
</g>
</g>
<!-- Node5&#45;&gt;Node7 -->
<g id="edge6" class="edge">
<title>Node5&#45;&gt;Node7</title>
<path fill="none" stroke="midnightblue" d="M2338.88,-487.44C2570.5,-474.65 3569.26,-415.08 3679.07,-333 3758.57,-273.57 3810.91,-205.06 3755.07,-123 3741.61,-103.21 3719.08,-91.18 3696.64,-83.86"/>
<polygon fill="midnightblue" stroke="midnightblue" points="3697.64,-80.51 3687.05,-81 3695.64,-87.21 3697.64,-80.51"/>
</g>
<!-- Node8 -->
<g id="node8" class="node">
<title>Node8</title>
<g id="a_node8"><a xlink:title=" ">
<polygon fill="white" stroke="#bfbfbf" points="2077.57,-62 2077.57,-81 2166.57,-81 2166.57,-62 2077.57,-62"/>
<text text-anchor="middle" x="2122.07" y="-69" font-family="Helvetica,sans-Serif" font-size="10.00">tvm/ffi/string.h</text>
</a>
</g>
</g>
<!-- Node5&#45;&gt;Node8 -->
<g id="edge8" class="edge">
<title>Node5&#45;&gt;Node8</title>
<path fill="none" stroke="midnightblue" d="M2289.9,-481.36C2283.9,-439.14 2253.62,-251.51 2174.07,-123 2165.63,-109.36 2152.69,-96.78 2141.84,-87.59"/>
<polygon fill="midnightblue" stroke="midnightblue" points="2144.02,-84.85 2134.05,-81.26 2139.6,-90.28 2144.02,-84.85"/>
</g>
<!-- Node9 -->
<g id="node9" class="node">
<title>Node9</title>
<g id="a_node9"><a xlink:href="cow_8h.html" target="_top" xlink:title="Copy&#45;on&#45;write helper macro for IR ffi::ObjectRef types.">
<polygon fill="white" stroke="black" points="2361.57,-129 2361.57,-148 2438.57,-148 2438.57,-129 2361.57,-129"/>
<text text-anchor="middle" x="2400.07" y="-136" font-family="Helvetica,sans-Serif" font-size="10.00">tvm/ir/cow.h</text>
</a>
</g>
</g>
<!-- Node5&#45;&gt;Node9 -->
<g id="edge9" class="edge">
<title>Node5&#45;&gt;Node9</title>
<path fill="none" stroke="midnightblue" d="M2338.91,-483.09C2381.23,-475.88 2438.34,-463.09 2452.07,-445 2520.37,-355 2441.62,-207.08 2411.12,-156.83"/>
<polygon fill="midnightblue" stroke="midnightblue" points="2413.97,-154.78 2405.72,-148.13 2408.02,-158.47 2413.97,-154.78"/>
</g>
<!-- Node5&#45;&gt;Node11 -->
<g id="edge123" class="edge">
<title>Node5&#45;&gt;Node11</title>
<path fill="none" stroke="midnightblue" d="M2296.33,-481.28C2327.66,-429.39 2489.6,-161.08 2532.59,-89.87"/>
<polygon fill="midnightblue" stroke="midnightblue" points="2535.67,-91.54 2537.84,-81.17 2529.67,-87.92 2535.67,-91.54"/>
</g>
<!-- Node12 -->
<g id="node12" class="node">
<title>Node12</title>
<g id="a_node12"><a xlink:href="ir_2expr_8h.html" target="_top" xlink:title="Base expr nodes in TVM.">
<polygon fill="white" stroke="black" points="1765.57,-196 1765.57,-215 1844.57,-215 1844.57,-196 1765.57,-196"/>
<text text-anchor="middle" x="1805.07" y="-203" font-family="Helvetica,sans-Serif" font-size="10.00">tvm/ir/expr.h</text>
</a>
</g>
</g>
<!-- Node5&#45;&gt;Node12 -->
<g id="edge12" class="edge">
<title>Node5&#45;&gt;Node12</title>
<path fill="none" stroke="midnightblue" d="M2243.26,-487.69C2139.88,-482.29 1902.53,-467.56 1874.07,-445 1805.25,-390.45 1802.27,-271.67 1803.92,-225.44"/>
<polygon fill="midnightblue" stroke="midnightblue" points="1807.42,-225.49 1804.4,-215.34 1800.43,-225.16 1807.42,-225.49"/>
</g>
<!-- Node20 -->
<g id="node20" class="node">
<title>Node20</title>
<g id="a_node20"><a xlink:href="source__map_8h.html" target="_top" xlink:title="A map from source names to source code.">
<polygon fill="white" stroke="black" points="2226.57,-129 2226.57,-148 2343.57,-148 2343.57,-129 2226.57,-129"/>
<text text-anchor="middle" x="2285.07" y="-136" font-family="Helvetica,sans-Serif" font-size="10.00">tvm/ir/source_map.h</text>
</a>
</g>
</g>
<!-- Node5&#45;&gt;Node20 -->
<g id="edge111" class="edge">
<title>Node5&#45;&gt;Node20</title>
<path fill="none" stroke="midnightblue" d="M2291.07,-481.44C2291.07,-462.94 2291.07,-417.81 2291.07,-380 2291.07,-380 2291.07,-380 2291.07,-266 2291.07,-227.66 2288.29,-182.86 2286.51,-158.18"/>
<polygon fill="midnightblue" stroke="midnightblue" points="2289.99,-157.8 2285.76,-148.08 2283.01,-158.32 2289.99,-157.8"/>
</g>
<!-- Node5&#45;&gt;Node25 -->
<g id="edge120" class="edge">
<title>Node5&#45;&gt;Node25</title>
<path fill="none" stroke="midnightblue" d="M2243.47,-487.98C2141.16,-483.3 1892.83,-470.16 1686.07,-445 1390.51,-409.03 618.34,-377.56 365.07,-221 333.69,-201.6 327.53,-189.07 316.07,-154 308.82,-131.81 320.27,-106.15 330.19,-89.64"/>
<polygon fill="midnightblue" stroke="midnightblue" points="333.24,-91.38 335.71,-81.08 327.35,-87.59 333.24,-91.38"/>
</g>
<!-- Node26 -->
<g id="node26" class="node">
<title>Node26</title>
<g id="a_node26"><a xlink:title=" ">
<polygon fill="white" stroke="#bfbfbf" points="2876.57,-62 2876.57,-81 2923.57,-81 2923.57,-62 2876.57,-62"/>
<text text-anchor="middle" x="2900.07" y="-69" font-family="Helvetica,sans-Serif" font-size="10.00">vector</text>
</a>
</g>
</g>
<!-- Node5&#45;&gt;Node26 -->
<g id="edge124" class="edge">
<title>Node5&#45;&gt;Node26</title>
<path fill="none" stroke="midnightblue" d="M2335.79,-481.46C2508.57,-447.41 3127.83,-315.39 3228.07,-154 3235.34,-142.3 3237.04,-133.46 3228.07,-123 3209.02,-100.79 3013.69,-82.03 2933.82,-75.23"/>
<polygon fill="midnightblue" stroke="midnightblue" points="2934.05,-71.74 2923.79,-74.39 2933.46,-78.71 2934.05,-71.74"/>
</g>
<!-- Node34 -->
<g id="node34" class="node">
<title>Node34</title>
<g id="a_node34"><a xlink:href="ir_2function_8h.html" target="_top" xlink:title="Function nodes.">
<polygon fill="white" stroke="black" points="1626.07,-313.5 1626.07,-332.5 1724.07,-332.5 1724.07,-313.5 1626.07,-313.5"/>
<text text-anchor="middle" x="1675.07" y="-320.5" font-family="Helvetica,sans-Serif" font-size="10.00">tvm/ir/function.h</text>
</a>
</g>
</g>
<!-- Node5&#45;&gt;Node34 -->
<g id="edge48" class="edge">
<title>Node5&#45;&gt;Node34</title>
<path fill="none" stroke="midnightblue" d="M2243.55,-490.44C2131.98,-490.74 1856.62,-487.06 1776.07,-445 1731.35,-421.65 1698.66,-369.18 1683.87,-341.64"/>
<polygon fill="midnightblue" stroke="midnightblue" points="1686.95,-339.98 1679.24,-332.72 1680.74,-343.21 1686.95,-339.98"/>
</g>
<!-- Node38 -->
<g id="node38" class="node">
<title>Node38</title>
<g id="a_node38"><a xlink:title=" ">
<polygon fill="white" stroke="#bfbfbf" points="1247.57,-62 1247.57,-81 1340.57,-81 1340.57,-62 1247.57,-62"/>
<text text-anchor="middle" x="1294.07" y="-69" font-family="Helvetica,sans-Serif" font-size="10.00">unordered_map</text>
</a>
</g>
</g>
<!-- Node5&#45;&gt;Node38 -->
<g id="edge121" class="edge">
<title>Node5&#45;&gt;Node38</title>
<path fill="none" stroke="midnightblue" d="M2243.34,-488.45C2128.25,-484.34 1838.12,-471.59 1745.07,-445 1621.61,-409.72 1605.9,-364.05 1488.07,-313 1463.98,-302.56 1058.19,-175.46 1043.07,-154 963.2,-40.65 1000.73,-139.57 1238.07,-87 1242.85,-85.94 1247.83,-84.76 1252.77,-83.55"/>
<polygon fill="midnightblue" stroke="midnightblue" points="1253.93,-86.86 1262.77,-81.02 1252.22,-80.08 1253.93,-86.86"/>
</g>
<!-- Node39 -->
<g id="node39" class="node">
<title>Node39</title>
<g id="a_node39"><a xlink:href="ir_2global__info_8h.html" target="_top" xlink:title="GlobalInfo are globally static object that are referred by the IR itself.">
<polygon fill="white" stroke="black" points="1900.07,-425.5 1900.07,-444.5 2012.07,-444.5 2012.07,-425.5 1900.07,-425.5"/>
<text text-anchor="middle" x="1956.07" y="-432.5" font-family="Helvetica,sans-Serif" font-size="10.00">tvm/ir/global_info.h</text>
</a>
</g>
</g>
<!-- Node5&#45;&gt;Node39 -->
<g id="edge67" class="edge">
<title>Node5&#45;&gt;Node39</title>
<path fill="none" stroke="midnightblue" d="M2243.43,-482.32C2184.62,-472.84 2084.4,-456.69 2019.22,-446.18"/>
<polygon fill="midnightblue" stroke="midnightblue" points="2019.51,-442.68 2009.08,-444.54 2018.39,-449.59 2019.51,-442.68"/>
</g>
<!-- Node49 -->
<g id="node49" class="node">
<title>Node49</title>
<g id="a_node49"><a xlink:href="ir_2type_8h.html" target="_top" xlink:title="IR/AST nodes for the unified type system in TVM.">
<polygon fill="white" stroke="black" points="1939.07,-257.5 1939.07,-276.5 2019.07,-276.5 2019.07,-257.5 1939.07,-257.5"/>
<text text-anchor="middle" x="1979.07" y="-264.5" font-family="Helvetica,sans-Serif" font-size="10.00">tvm/ir/type.h</text>
</a>
</g>
</g>
<!-- Node5&#45;&gt;Node49 -->
<g id="edge112" class="edge">
<title>Node5&#45;&gt;Node49</title>
<path fill="none" stroke="midnightblue" d="M2243.3,-487.93C2142.55,-483.1 1915.53,-469.59 1891.07,-445 1867.18,-420.98 1872.67,-400.53 1885.07,-369 1899.69,-331.84 1935.13,-300.25 1958.07,-282.73"/>
<polygon fill="midnightblue" stroke="midnightblue" points="1960.23,-285.49 1966.19,-276.72 1956.07,-279.86 1960.23,-285.49"/>
</g>
<!-- Node50 -->
<g id="node50" class="node">
<title>Node50</title>
<g id="a_node50"><a xlink:title=" ">
<polygon fill="white" stroke="#bfbfbf" points="2357.07,-425.5 2357.07,-444.5 2443.07,-444.5 2443.07,-425.5 2357.07,-425.5"/>
<text text-anchor="middle" x="2400.07" y="-432.5" font-family="Helvetica,sans-Serif" font-size="10.00">unordered_set</text>
</a>
</g>
</g>
<!-- Node5&#45;&gt;Node50 -->
<g id="edge122" class="edge">
<title>Node5&#45;&gt;Node50</title>
<path fill="none" stroke="midnightblue" d="M2308.58,-481.32C2326.14,-472.62 2353.4,-459.12 2373.6,-449.11"/>
<polygon fill="midnightblue" stroke="midnightblue" points="2375.19,-452.23 2382.6,-444.65 2372.09,-445.96 2375.19,-452.23"/>
</g>
<!-- Node10 -->
<g id="node10" class="node">
<title>Node10</title>
<g id="a_node10"><a xlink:title=" ">
<polygon fill="white" stroke="#bfbfbf" points="2354.57,-62 2354.57,-81 2445.57,-81 2445.57,-62 2354.57,-62"/>
<text text-anchor="middle" x="2400.07" y="-69" font-family="Helvetica,sans-Serif" font-size="10.00">tvm/ffi/object.h</text>
</a>
</g>
</g>
<!-- Node9&#45;&gt;Node10 -->
<g id="edge10" class="edge">
<title>Node9&#45;&gt;Node10</title>
<path fill="none" stroke="midnightblue" d="M2400.07,-128.73C2400.07,-119.18 2400.07,-103.62 2400.07,-91.28"/>
<polygon fill="midnightblue" stroke="midnightblue" points="2403.57,-91.13 2400.07,-81.13 2396.57,-91.13 2403.57,-91.13"/>
</g>
<!-- Node9&#45;&gt;Node11 -->
<g id="edge11" class="edge">
<title>Node9&#45;&gt;Node11</title>
<path fill="none" stroke="midnightblue" d="M2419.06,-128.87C2443.53,-117.75 2486.27,-98.32 2514.63,-85.43"/>
<polygon fill="midnightblue" stroke="midnightblue" points="2516.35,-88.49 2524,-81.17 2513.45,-82.12 2516.35,-88.49"/>
</g>
<!-- Node12&#45;&gt;Node2 -->
<g id="edge14" class="edge">
<title>Node12&#45;&gt;Node2</title>
<path fill="none" stroke="midnightblue" d="M1844.82,-203.88C2068.5,-200.27 3162.54,-181.31 3228.07,-154 3246.65,-146.26 3243.34,-132.52 3261.07,-123 3309.43,-97.02 3370.98,-84.3 3415.65,-78.13"/>
<polygon fill="midnightblue" stroke="midnightblue" points="3416.3,-81.57 3425.76,-76.8 3415.39,-74.63 3416.3,-81.57"/>
</g>
<!-- Node12&#45;&gt;Node8 -->
<g id="edge15" class="edge">
<title>Node12&#45;&gt;Node8</title>
<path fill="none" stroke="midnightblue" d="M1818.77,-195.89C1844.74,-179.85 1903.28,-145.02 1956.07,-123 1995.75,-106.45 2042.79,-92.66 2076.64,-83.69"/>
<polygon fill="midnightblue" stroke="midnightblue" points="2077.91,-86.98 2086.7,-81.06 2076.14,-80.2 2077.91,-86.98"/>
</g>
<!-- Node12&#45;&gt;Node9 -->
<g id="edge24" class="edge">
<title>Node12&#45;&gt;Node9</title>
<path fill="none" stroke="midnightblue" d="M1844.59,-203.57C1935.16,-200.86 2164.4,-190.62 2352.07,-154 2356.3,-153.17 2360.69,-152.13 2365.02,-150.97"/>
<polygon fill="midnightblue" stroke="midnightblue" points="2366.25,-154.26 2374.9,-148.14 2364.32,-147.53 2366.25,-154.26"/>
</g>
<!-- Node13 -->
<g id="node13" class="node">
<title>Node13</title>
<g id="a_node13"><a xlink:title=" ">
<polygon fill="white" stroke="#bfbfbf" points="1474.07,-129 1474.07,-148 1610.07,-148 1610.07,-129 1474.07,-129"/>
<text text-anchor="middle" x="1542.07" y="-136" font-family="Helvetica,sans-Serif" font-size="10.00">tvm/ffi/extra/dataclass.h</text>
</a>
</g>
</g>
<!-- Node12&#45;&gt;Node13 -->
<g id="edge13" class="edge">
<title>Node12&#45;&gt;Node13</title>
<path fill="none" stroke="midnightblue" d="M1773.7,-195.93C1766.29,-193.95 1758.41,-191.87 1751.07,-190 1695.32,-175.78 1630.93,-160.38 1588.52,-150.37"/>
<polygon fill="midnightblue" stroke="midnightblue" points="1589.3,-146.96 1578.76,-148.07 1587.69,-153.77 1589.3,-146.96"/>
</g>
<!-- Node14 -->
<g id="node14" class="node">
<title>Node14</title>
<g id="a_node14"><a xlink:href="cast_8h.html" target="_top" xlink:title="Value casting helpers.">
<polygon fill="white" stroke="black" points="1788.07,-129 1788.07,-148 1866.07,-148 1866.07,-129 1788.07,-129"/>
<text text-anchor="middle" x="1827.07" y="-136" font-family="Helvetica,sans-Serif" font-size="10.00">tvm/ir/cast.h</text>
</a>
</g>
</g>
<!-- Node12&#45;&gt;Node14 -->
<g id="edge16" class="edge">
<title>Node12&#45;&gt;Node14</title>
<path fill="none" stroke="midnightblue" d="M1808.04,-195.73C1811.3,-186.09 1816.65,-170.3 1820.84,-157.91"/>
<polygon fill="midnightblue" stroke="midnightblue" points="1824.26,-158.72 1824.15,-148.13 1817.63,-156.48 1824.26,-158.72"/>
</g>
<!-- Node12&#45;&gt;Node20 -->
<g id="edge25" class="edge">
<title>Node12&#45;&gt;Node20</title>
<path fill="none" stroke="midnightblue" d="M1844.76,-199.13C1926.41,-188.07 2114.07,-162.66 2216.06,-148.85"/>
<polygon fill="midnightblue" stroke="midnightblue" points="2216.81,-152.28 2226.25,-147.47 2215.87,-145.34 2216.81,-152.28"/>
</g>
<!-- Node12&#45;&gt;Node25 -->
<g id="edge46" class="edge">
<title>Node12&#45;&gt;Node25</title>
<path fill="none" stroke="midnightblue" d="M1776.52,-195.97C1767.78,-193.67 1758.1,-191.42 1749.07,-190 1615.81,-168.99 1268.76,-203.01 1143.07,-154 1122.76,-146.08 1125.39,-130.89 1105.07,-123 973.74,-71.98 612.47,-98.81 472.07,-87 438.66,-84.19 400.54,-79.8 374.26,-76.58"/>
<polygon fill="midnightblue" stroke="midnightblue" points="374.47,-73.08 364.12,-75.33 373.61,-80.03 374.47,-73.08"/>
</g>
<!-- Node27 -->
<g id="node27" class="node">
<title>Node27</title>
<g id="a_node27"><a xlink:href="data__type_8h.html" target="_top" xlink:title=" ">
<polygon fill="white" stroke="black" points="560.07,-129 560.07,-148 698.07,-148 698.07,-129 560.07,-129"/>
<text text-anchor="middle" x="629.07" y="-136" font-family="Helvetica,sans-Serif" font-size="10.00">tvm/runtime/data_type.h</text>
</a>
</g>
</g>
<!-- Node12&#45;&gt;Node27 -->
<g id="edge35" class="edge">
<title>Node12&#45;&gt;Node27</title>
<path fill="none" stroke="midnightblue" d="M1778.13,-195.97C1769.57,-193.61 1760,-191.33 1751.07,-190 1291.9,-121.35 1168.58,-204.57 707.07,-154 697.82,-152.99 688.02,-151.5 678.6,-149.86"/>
<polygon fill="midnightblue" stroke="midnightblue" points="679.05,-146.38 668.58,-148.03 677.79,-153.27 679.05,-146.38"/>
</g>
<!-- Node12&#45;&gt;Node30 -->
<g id="edge47" class="edge">
<title>Node12&#45;&gt;Node30</title>
<path fill="none" stroke="midnightblue" d="M1765.36,-197.13C1749.19,-194.42 1730.3,-191.62 1713.07,-190 1648.77,-183.96 604.45,-190.37 551.07,-154 530.22,-139.79 521.72,-110.39 518.31,-91.06"/>
<polygon fill="midnightblue" stroke="midnightblue" points="521.75,-90.41 516.83,-81.03 514.82,-91.44 521.75,-90.41"/>
</g>
<!-- Node31 -->
<g id="node31" class="node">
<title>Node31</title>
<g id="a_node31"><a xlink:title=" ">
<polygon fill="white" stroke="#bfbfbf" points="932.07,-129 932.07,-148 996.07,-148 996.07,-129 932.07,-129"/>
<text text-anchor="middle" x="964.07" y="-136" font-family="Helvetica,sans-Serif" font-size="10.00">algorithm</text>
</a>
</g>
</g>
<!-- Node12&#45;&gt;Node31 -->
<g id="edge43" class="edge">
<title>Node12&#45;&gt;Node31</title>
<path fill="none" stroke="midnightblue" d="M1777.84,-195.99C1769.35,-193.66 1759.89,-191.39 1751.07,-190 1439.85,-140.87 1356.02,-190.52 1043.07,-154 1031.07,-152.6 1018.15,-150.49 1006.3,-148.3"/>
<polygon fill="midnightblue" stroke="midnightblue" points="1006.69,-144.82 996.21,-146.38 1005.38,-151.69 1006.69,-144.82"/>
</g>
<!-- Node32 -->
<g id="node32" class="node">
<title>Node32</title>
<g id="a_node32"><a xlink:title=" ">
<polygon fill="white" stroke="#bfbfbf" points="1628.57,-129 1628.57,-148 1693.57,-148 1693.57,-129 1628.57,-129"/>
<text text-anchor="middle" x="1661.07" y="-136" font-family="Helvetica,sans-Serif" font-size="10.00">functional</text>
</a>
</g>
</g>
<!-- Node12&#45;&gt;Node32 -->
<g id="edge44" class="edge">
<title>Node12&#45;&gt;Node32</title>
<path fill="none" stroke="midnightblue" d="M1785.95,-195.87C1761.31,-184.75 1718.26,-165.32 1689.71,-152.43"/>
<polygon fill="midnightblue" stroke="midnightblue" points="1690.83,-149.09 1680.27,-148.17 1687.95,-155.47 1690.83,-149.09"/>
</g>
<!-- Node33 -->
<g id="node33" class="node">
<title>Node33</title>
<g id="a_node33"><a xlink:title=" ">
<polygon fill="white" stroke="#bfbfbf" points="1052.07,-129 1052.07,-148 1096.07,-148 1096.07,-129 1052.07,-129"/>
<text text-anchor="middle" x="1074.07" y="-136" font-family="Helvetica,sans-Serif" font-size="10.00">limits</text>
</a>
</g>
</g>
<!-- Node12&#45;&gt;Node33 -->
<g id="edge45" class="edge">
<title>Node12&#45;&gt;Node33</title>
<path fill="none" stroke="midnightblue" d="M1777.56,-195.94C1769.14,-193.64 1759.79,-191.4 1751.07,-190 1469.34,-144.76 1388.56,-216.13 1110.07,-154 1107.24,-153.37 1104.33,-152.54 1101.47,-151.59"/>
<polygon fill="midnightblue" stroke="midnightblue" points="1102.61,-148.28 1092.02,-148.07 1100.16,-154.84 1102.61,-148.28"/>
</g>
<!-- Node14&#45;&gt;Node10 -->
<g id="edge21" class="edge">
<title>Node14&#45;&gt;Node10</title>
<path fill="none" stroke="midnightblue" d="M1866.26,-134.56C1950.01,-128.05 2152.51,-111.05 2321.07,-87 2329.5,-85.8 2338.41,-84.34 2347.09,-82.82"/>
<polygon fill="midnightblue" stroke="midnightblue" points="2347.9,-86.24 2357.12,-81.03 2346.66,-79.35 2347.9,-86.24"/>
</g>
<!-- Node14&#45;&gt;Node11 -->
<g id="edge23" class="edge">
<title>Node14&#45;&gt;Node11</title>
<path fill="none" stroke="midnightblue" d="M1866.14,-135.49C1965,-130.16 2233.05,-114.17 2455.07,-87 2473.35,-84.76 2493.64,-81.47 2510.13,-78.59"/>
<polygon fill="midnightblue" stroke="midnightblue" points="2511.12,-81.97 2520.35,-76.78 2509.9,-75.08 2511.12,-81.97"/>
</g>
<!-- Node15 -->
<g id="node15" class="node">
<title>Node15</title>
<g id="a_node15"><a xlink:title=" ">
<polygon fill="white" stroke="#bfbfbf" points="1477.57,-62 1477.57,-81 1554.57,-81 1554.57,-62 1477.57,-62"/>
<text text-anchor="middle" x="1516.07" y="-69" font-family="Helvetica,sans-Serif" font-size="10.00">tvm/ffi/any.h</text>
</a>
</g>
</g>
<!-- Node14&#45;&gt;Node15 -->
<g id="edge17" class="edge">
<title>Node14&#45;&gt;Node15</title>
<path fill="none" stroke="midnightblue" d="M1797.76,-128.93C1790.09,-126.84 1781.8,-124.72 1774.07,-123 1681.63,-102.48 1656.24,-108.73 1564.07,-87 1560.18,-86.08 1556.14,-85.03 1552.13,-83.91"/>
<polygon fill="midnightblue" stroke="midnightblue" points="1552.9,-80.49 1542.32,-81.07 1550.95,-87.22 1552.9,-80.49"/>
</g>
<!-- Node16 -->
<g id="node16" class="node">
<title>Node16</title>
<g id="a_node16"><a xlink:title=" ">
<polygon fill="white" stroke="#bfbfbf" points="1882.57,-62 1882.57,-81 1963.57,-81 1963.57,-62 1882.57,-62"/>
<text text-anchor="middle" x="1923.07" y="-69" font-family="Helvetica,sans-Serif" font-size="10.00">tvm/ffi/cast.h</text>
</a>
</g>
</g>
<!-- Node14&#45;&gt;Node16 -->
<g id="edge18" class="edge">
<title>Node14&#45;&gt;Node16</title>
<path fill="none" stroke="midnightblue" d="M1840.02,-128.73C1855.92,-117.96 1883.12,-99.55 1902.04,-86.74"/>
<polygon fill="midnightblue" stroke="midnightblue" points="1904.01,-89.63 1910.33,-81.13 1900.09,-83.84 1904.01,-89.63"/>
</g>
<!-- Node17 -->
<g id="node17" class="node">
<title>Node17</title>
<g id="a_node17"><a xlink:title=" ">
<polygon fill="white" stroke="#bfbfbf" points="983.57,-62 983.57,-81 1072.57,-81 1072.57,-62 983.57,-62"/>
<text text-anchor="middle" x="1028.07" y="-69" font-family="Helvetica,sans-Serif" font-size="10.00">tvm/ffi/dtype.h</text>
</a>
</g>
</g>
<!-- Node14&#45;&gt;Node17 -->
<g id="edge19" class="edge">
<title>Node14&#45;&gt;Node17</title>
<path fill="none" stroke="midnightblue" d="M1788,-132.41C1763.38,-129.34 1730.91,-125.54 1702.07,-123 1438.17,-99.73 1370.06,-118.97 1107.07,-87 1098.02,-85.9 1088.45,-84.42 1079.2,-82.82"/>
<polygon fill="midnightblue" stroke="midnightblue" points="1079.8,-79.37 1069.34,-81.05 1078.56,-86.26 1079.8,-79.37"/>
</g>
<!-- Node18 -->
<g id="node18" class="node">
<title>Node18</title>
<g id="a_node18"><a xlink:title=" ">
<polygon fill="white" stroke="#bfbfbf" points="864.57,-62 864.57,-81 947.57,-81 947.57,-62 864.57,-62"/>
<text text-anchor="middle" x="906.07" y="-69" font-family="Helvetica,sans-Serif" font-size="10.00">tvm/ffi/error.h</text>
</a>
</g>
</g>
<!-- Node14&#45;&gt;Node18 -->
<g id="edge20" class="edge">
<title>Node14&#45;&gt;Node18</title>
<path fill="none" stroke="midnightblue" d="M1788.01,-132.3C1763.39,-129.18 1730.92,-125.38 1702.07,-123 1379.22,-96.32 1295.3,-128.91 974.07,-87 966.5,-86.01 958.51,-84.63 950.79,-83.1"/>
<polygon fill="midnightblue" stroke="midnightblue" points="951.33,-79.64 940.83,-81.03 949.91,-86.49 951.33,-79.64"/>
</g>
<!-- Node19 -->
<g id="node19" class="node">
<title>Node19</title>
<g id="a_node19"><a xlink:title=" ">
<polygon fill="white" stroke="#bfbfbf" points="1358.57,-62 1358.57,-81 1459.57,-81 1459.57,-62 1358.57,-62"/>
<text text-anchor="middle" x="1409.07" y="-69" font-family="Helvetica,sans-Serif" font-size="10.00">tvm/ffi/optional.h</text>
</a>
</g>
</g>
<!-- Node14&#45;&gt;Node19 -->
<g id="edge22" class="edge">
<title>Node14&#45;&gt;Node19</title>
<path fill="none" stroke="midnightblue" d="M1798.93,-128.96C1790.95,-126.77 1782.22,-124.58 1774.07,-123 1639.65,-96.86 1602.82,-111.39 1468.07,-87 1462.49,-85.99 1456.66,-84.77 1450.91,-83.46"/>
<polygon fill="midnightblue" stroke="midnightblue" points="1451.3,-79.95 1440.76,-81.05 1449.68,-86.77 1451.3,-79.95"/>
</g>
<!-- Node20&#45;&gt;Node2 -->
<g id="edge28" class="edge">
<title>Node20&#45;&gt;Node2</title>
<path fill="none" stroke="midnightblue" d="M2318.96,-128.95C2329.5,-126.62 2341.21,-124.36 2352.07,-123 2790.27,-68.08 2904.65,-119.5 3345.07,-87 3368.25,-85.29 3393.67,-82.63 3415.83,-80.05"/>
<polygon fill="midnightblue" stroke="midnightblue" points="3416.25,-83.53 3425.77,-78.88 3415.43,-76.58 3416.25,-83.53"/>
</g>
<!-- Node20&#45;&gt;Node6 -->
<g id="edge26" class="edge">
<title>Node20&#45;&gt;Node6</title>
<path fill="none" stroke="midnightblue" d="M2226.41,-131.59C2109.7,-119.83 1848.41,-93.5 1717.67,-80.32"/>
<polygon fill="midnightblue" stroke="midnightblue" points="1717.64,-76.8 1707.34,-79.28 1716.94,-83.76 1717.64,-76.8"/>
</g>
<!-- Node20&#45;&gt;Node11 -->
<g id="edge33" class="edge">
<title>Node20&#45;&gt;Node11</title>
<path fill="none" stroke="midnightblue" d="M2319.07,-128.94C2369.01,-116.35 2461.6,-93.02 2510.64,-80.67"/>
<polygon fill="midnightblue" stroke="midnightblue" points="2511.57,-84.04 2520.42,-78.21 2509.86,-77.26 2511.57,-84.04"/>
</g>
<!-- Node21 -->
<g id="node21" class="node">
<title>Node21</title>
<g id="a_node21"><a xlink:title=" ">
<polygon fill="white" stroke="#bfbfbf" points="3234.57,-62 3234.57,-81 3335.57,-81 3335.57,-62 3234.57,-62"/>
<text text-anchor="middle" x="3285.07" y="-69" font-family="Helvetica,sans-Serif" font-size="10.00">tvm/ffi/function.h</text>
</a>
</g>
</g>
<!-- Node20&#45;&gt;Node21 -->
<g id="edge27" class="edge">
<title>Node20&#45;&gt;Node21</title>
<path fill="none" stroke="midnightblue" d="M2318.96,-128.99C2329.5,-126.66 2341.21,-124.4 2352.07,-123 2721.81,-75.4 2819.04,-123.18 3190.07,-87 3201.63,-85.87 3213.93,-84.29 3225.71,-82.57"/>
<polygon fill="midnightblue" stroke="midnightblue" points="3226.52,-85.99 3235.89,-81.05 3225.48,-79.07 3226.52,-85.99"/>
</g>
<!-- Node22 -->
<g id="node22" class="node">
<title>Node22</title>
<g id="a_node22"><a xlink:href="runtime_2base_8h.html" target="_top" xlink:title=" ">
<polygon fill="white" stroke="black" points="1116.57,-62 1116.57,-81 1229.57,-81 1229.57,-62 1116.57,-62"/>
<text text-anchor="middle" x="1173.07" y="-69" font-family="Helvetica,sans-Serif" font-size="10.00">tvm/runtime/base.h</text>
</a>
</g>
</g>
<!-- Node20&#45;&gt;Node22 -->
<g id="edge29" class="edge">
<title>Node20&#45;&gt;Node22</title>
<path fill="none" stroke="midnightblue" d="M2226.39,-135.26C2020.17,-127.3 1335.91,-100.17 1238.07,-87 1231.07,-86.06 1223.7,-84.74 1216.54,-83.27"/>
<polygon fill="midnightblue" stroke="midnightblue" points="1216.79,-79.75 1206.28,-81.06 1215.31,-86.59 1216.79,-79.75"/>
</g>
<!-- Node24 -->
<g id="node24" class="node">
<title>Node24</title>
<g id="a_node24"><a xlink:title=" ">
<polygon fill="white" stroke="#bfbfbf" points="2257.57,-62 2257.57,-81 2312.57,-81 2312.57,-62 2257.57,-62"/>
<text text-anchor="middle" x="2285.07" y="-69" font-family="Helvetica,sans-Serif" font-size="10.00">fstream</text>
</a>
</g>
</g>
<!-- Node20&#45;&gt;Node24 -->
<g id="edge31" class="edge">
<title>Node20&#45;&gt;Node24</title>
<path fill="none" stroke="midnightblue" d="M2285.07,-128.73C2285.07,-119.18 2285.07,-103.62 2285.07,-91.28"/>
<polygon fill="midnightblue" stroke="midnightblue" points="2288.57,-91.13 2285.07,-81.13 2281.57,-91.13 2288.57,-91.13"/>
</g>
<!-- Node20&#45;&gt;Node25 -->
<g id="edge32" class="edge">
<title>Node20&#45;&gt;Node25</title>
<path fill="none" stroke="midnightblue" d="M2226.35,-135.24C2146.75,-132.23 2000.19,-126.82 1875.07,-123 1251.6,-103.98 1094.37,-129.61 472.07,-87 438.62,-84.71 400.51,-80.24 374.24,-76.86"/>
<polygon fill="midnightblue" stroke="midnightblue" points="374.47,-73.36 364.1,-75.54 373.56,-80.3 374.47,-73.36"/>
</g>
<!-- Node20&#45;&gt;Node26 -->
<g id="edge34" class="edge">
<title>Node20&#45;&gt;Node26</title>
<path fill="none" stroke="midnightblue" d="M2320.74,-128.94C2330.82,-126.75 2341.84,-124.57 2352.07,-123 2545.42,-93.28 2780.02,-78.8 2866.22,-74.19"/>
<polygon fill="midnightblue" stroke="midnightblue" points="2866.64,-77.67 2876.45,-73.65 2866.28,-70.68 2866.64,-77.67"/>
</g>
<!-- Node23 -->
<g id="node23" class="node">
<title>Node23</title>
<g id="a_node23"><a xlink:title=" ">
<polygon fill="white" stroke="#bfbfbf" points="1130.07,-0.5 1130.07,-19.5 1216.07,-19.5 1216.07,-0.5 1130.07,-0.5"/>
<text text-anchor="middle" x="1173.07" y="-7.5" font-family="Helvetica,sans-Serif" font-size="10.00">tvm/ffi/c_api.h</text>
</a>
</g>
</g>
<!-- Node22&#45;&gt;Node23 -->
<g id="edge30" class="edge">
<title>Node22&#45;&gt;Node23</title>
<path fill="none" stroke="midnightblue" d="M1173.07,-61.98C1173.07,-53.58 1173.07,-40.48 1173.07,-29.66"/>
<polygon fill="midnightblue" stroke="midnightblue" points="1176.57,-29.51 1173.07,-19.51 1169.57,-29.51 1176.57,-29.51"/>
</g>
<!-- Node27&#45;&gt;Node17 -->
<g id="edge37" class="edge">
<title>Node27&#45;&gt;Node17</title>
<path fill="none" stroke="midnightblue" d="M673.15,-128.99C684.21,-126.94 696.06,-124.82 707.07,-123 817.39,-104.78 845.89,-106.05 956.07,-87 963.15,-85.78 970.61,-84.39 977.93,-82.97"/>
<polygon fill="midnightblue" stroke="midnightblue" points="978.65,-86.39 987.78,-81.02 977.29,-79.53 978.65,-86.39"/>
</g>
<!-- Node27&#45;&gt;Node18 -->
<g id="edge38" class="edge">
<title>Node27&#45;&gt;Node18</title>
<path fill="none" stroke="midnightblue" d="M665.57,-128.94C715.5,-117.22 805.1,-96.19 859.72,-83.38"/>
<polygon fill="midnightblue" stroke="midnightblue" points="860.56,-86.78 869.49,-81.08 858.96,-79.96 860.56,-86.78"/>
</g>
<!-- Node27&#45;&gt;Node22 -->
<g id="edge39" class="edge">
<title>Node27&#45;&gt;Node22</title>
<path fill="none" stroke="midnightblue" d="M671.06,-128.99C682.69,-126.83 695.34,-124.65 707.07,-123 872.43,-99.72 915.41,-108.01 1081.07,-87 1091.28,-85.71 1102.1,-84.16 1112.6,-82.56"/>
<polygon fill="midnightblue" stroke="midnightblue" points="1113.19,-86.01 1122.53,-81.03 1112.12,-79.1 1113.19,-86.01"/>
</g>
<!-- Node27&#45;&gt;Node25 -->
<g id="edge41" class="edge">
<title>Node27&#45;&gt;Node25</title>
<path fill="none" stroke="midnightblue" d="M591.26,-128.94C534.32,-116.04 427.57,-91.86 374.19,-79.77"/>
<polygon fill="midnightblue" stroke="midnightblue" points="374.78,-76.32 364.25,-77.52 373.23,-83.15 374.78,-76.32"/>
</g>
<!-- Node28 -->
<g id="node28" class="node">
<title>Node28</title>
<g id="a_node28"><a xlink:title=" ">
<polygon fill="white" stroke="#bfbfbf" points="568.57,-62 568.57,-81 707.57,-81 707.57,-62 568.57,-62"/>
<text text-anchor="middle" x="638.07" y="-69" font-family="Helvetica,sans-Serif" font-size="10.00">tvm/ffi/container/shape.h</text>
</a>
</g>
</g>
<!-- Node27&#45;&gt;Node28 -->
<g id="edge36" class="edge">
<title>Node27&#45;&gt;Node28</title>
<path fill="none" stroke="midnightblue" d="M630.28,-128.73C631.61,-119.18 633.76,-103.62 635.47,-91.28"/>
<polygon fill="midnightblue" stroke="midnightblue" points="638.97,-91.51 636.88,-81.13 632.04,-90.55 638.97,-91.51"/>
</g>
<!-- Node29 -->
<g id="node29" class="node">
<title>Node29</title>
<g id="a_node29"><a xlink:title=" ">
<polygon fill="white" stroke="#bfbfbf" points="743.07,-62 743.07,-81 793.07,-81 793.07,-62 743.07,-62"/>
<text text-anchor="middle" x="768.07" y="-69" font-family="Helvetica,sans-Serif" font-size="10.00">cstring</text>
</a>
</g>
</g>
<!-- Node27&#45;&gt;Node29 -->
<g id="edge40" class="edge">
<title>Node27&#45;&gt;Node29</title>
<path fill="none" stroke="midnightblue" d="M647.53,-128.87C671.31,-117.75 712.86,-98.32 740.42,-85.43"/>
<polygon fill="midnightblue" stroke="midnightblue" points="741.96,-88.57 749.54,-81.17 739,-82.23 741.96,-88.57"/>
</g>
<!-- Node27&#45;&gt;Node30 -->
<g id="edge42" class="edge">
<title>Node27&#45;&gt;Node30</title>
<path fill="none" stroke="midnightblue" d="M613.83,-128.73C594.86,-117.82 562.22,-99.05 539.92,-86.22"/>
<polygon fill="midnightblue" stroke="midnightblue" points="541.48,-83.08 531.07,-81.13 537.99,-89.15 541.48,-83.08"/>
</g>
<!-- Node34&#45;&gt;Node6 -->
<g id="edge49" class="edge">
<title>Node34&#45;&gt;Node6</title>
<path fill="none" stroke="midnightblue" d="M1652.52,-313.45C1618.97,-300.79 1553.87,-276.45 1498.07,-257 1449.9,-240.2 1418.96,-262.35 1389.07,-221 1381,-209.83 1383.4,-202.56 1389.07,-190 1393.7,-179.74 1455.2,-128.41 1465.07,-123 1487.19,-110.87 1549.73,-94.24 1593.7,-83.43"/>
<polygon fill="midnightblue" stroke="midnightblue" points="1594.72,-86.79 1603.61,-81.02 1593.07,-79.98 1594.72,-86.79"/>
</g>
<!-- Node34&#45;&gt;Node7 -->
<g id="edge50" class="edge">
<title>Node34&#45;&gt;Node7</title>
<path fill="none" stroke="midnightblue" d="M1724.43,-322.17C1969.28,-322.57 3054.61,-318.7 3375.07,-221 3470.81,-191.81 3568.5,-119.55 3608.39,-87.83"/>
<polygon fill="midnightblue" stroke="midnightblue" points="3610.83,-90.37 3616.42,-81.37 3606.44,-84.91 3610.83,-90.37"/>
</g>
<!-- Node34&#45;&gt;Node8 -->
<g id="edge51" class="edge">
<title>Node34&#45;&gt;Node8</title>
<path fill="none" stroke="midnightblue" d="M1682.34,-313.16C1694.14,-299.33 1718.82,-272.56 1745.07,-257 1788.6,-231.2 1806.73,-241.31 1853.07,-221 1948.4,-179.22 2054.68,-114.86 2099.84,-86.61"/>
<polygon fill="midnightblue" stroke="midnightblue" points="2101.92,-89.44 2108.52,-81.15 2098.2,-83.51 2101.92,-89.44"/>
</g>
<!-- Node34&#45;&gt;Node12 -->
<g id="edge64" class="edge">
<title>Node34&#45;&gt;Node12</title>
<path fill="none" stroke="midnightblue" d="M1677.39,-313.39C1681.42,-299.87 1690.86,-273.51 1707.07,-257 1724.13,-239.63 1748.42,-227.05 1768.56,-218.8"/>
<polygon fill="midnightblue" stroke="midnightblue" points="1770.02,-221.98 1778.06,-215.09 1767.47,-215.46 1770.02,-221.98"/>
</g>
<!-- Node34&#45;&gt;Node25 -->
<g id="edge65" class="edge">
<title>Node34&#45;&gt;Node25</title>
<path fill="none" stroke="midnightblue" d="M1634.43,-313.46C1567.52,-299.68 1429.81,-272.53 1312.07,-257 1125.45,-232.38 1076.98,-243.29 890.07,-221 799.88,-210.24 778.11,-201.95 688.07,-190 616.91,-180.55 422.32,-199.82 367.07,-154 348.59,-138.67 343.49,-110.04 342.24,-91.12"/>
<polygon fill="midnightblue" stroke="midnightblue" points="345.73,-90.9 341.87,-81.04 338.74,-91.16 345.73,-90.9"/>
</g>
<!-- Node34&#45;&gt;Node30 -->
<g id="edge66" class="edge">
<title>Node34&#45;&gt;Node30</title>
<path fill="none" stroke="midnightblue" d="M1625.84,-318.36C1540.97,-311.84 1361.71,-296.94 1211.07,-277 1157.9,-269.96 1145.01,-265.59 1092.07,-257 989.94,-240.43 964.03,-238.62 862.07,-221 857.14,-220.15 511.26,-157.85 508.07,-154 493.45,-136.35 500.42,-108.6 507.58,-90.47"/>
<polygon fill="midnightblue" stroke="midnightblue" points="510.8,-91.86 511.56,-81.29 504.37,-89.08 510.8,-91.86"/>
</g>
<!-- Node35 -->
<g id="node35" class="node">
<title>Node35</title>
<g id="a_node35"><a xlink:href="attrs_8h.html" target="_top" xlink:title="Helpers for attribute objects.">
<polygon fill="white" stroke="black" points="1575.07,-257.5 1575.07,-276.5 1655.07,-276.5 1655.07,-257.5 1575.07,-257.5"/>
<text text-anchor="middle" x="1615.07" y="-264.5" font-family="Helvetica,sans-Serif" font-size="10.00">tvm/ir/attrs.h</text>
</a>
</g>
</g>
<!-- Node34&#45;&gt;Node35 -->
<g id="edge52" class="edge">
<title>Node34&#45;&gt;Node35</title>
<path fill="none" stroke="midnightblue" d="M1665.43,-313.32C1656.56,-305.34 1643.2,-293.31 1632.46,-283.65"/>
<polygon fill="midnightblue" stroke="midnightblue" points="1634.66,-280.92 1624.89,-276.83 1629.98,-286.13 1634.66,-280.92"/>
</g>
<!-- Node35&#45;&gt;Node2 -->
<g id="edge57" class="edge">
<title>Node35&#45;&gt;Node2</title>
<path fill="none" stroke="midnightblue" d="M1655.25,-264.85C1894.16,-258.04 3117.81,-223.04 3127.07,-221 3248.86,-194.21 3381.4,-125.49 3441.76,-91.76"/>
<polygon fill="midnightblue" stroke="midnightblue" points="3443.82,-94.61 3450.82,-86.66 3440.39,-88.52 3443.82,-94.61"/>
</g>
<!-- Node35&#45;&gt;Node7 -->
<g id="edge53" class="edge">
<title>Node35&#45;&gt;Node7</title>
<path fill="none" stroke="midnightblue" d="M1655.19,-264.85C1900.72,-257.84 3190.07,-221 3190.07,-221 3350.17,-192.19 3531.17,-115.68 3599.24,-85.25"/>
<polygon fill="midnightblue" stroke="midnightblue" points="3600.76,-88.4 3608.44,-81.1 3597.89,-82.02 3600.76,-88.4"/>
</g>
<!-- Node35&#45;&gt;Node9 -->
<g id="edge58" class="edge">
<title>Node35&#45;&gt;Node9</title>
<path fill="none" stroke="midnightblue" d="M1655.35,-265.85C1745.47,-264.81 1969.85,-258.35 2153.07,-221 2233.66,-204.57 2324.6,-170.27 2370.38,-151.84"/>
<polygon fill="midnightblue" stroke="midnightblue" points="2371.75,-155.06 2379.7,-148.05 2369.12,-148.57 2371.75,-155.06"/>
</g>
<!-- Node35&#45;&gt;Node11 -->
<g id="edge63" class="edge">
<title>Node35&#45;&gt;Node11</title>
<path fill="none" stroke="midnightblue" d="M1655.27,-259.36C1702.74,-251.3 1784,-236.8 1853.07,-221 2016.39,-183.63 2053.09,-157.36 2217.07,-123 2321.78,-101.06 2349.4,-103.7 2455.07,-87 2473.26,-84.13 2493.55,-80.79 2510.05,-78.05"/>
<polygon fill="midnightblue" stroke="midnightblue" points="2511.01,-81.44 2520.29,-76.34 2509.85,-74.53 2511.01,-81.44"/>
</g>
<!-- Node35&#45;&gt;Node12 -->
<g id="edge59" class="edge">
<title>Node35&#45;&gt;Node12</title>
<path fill="none" stroke="midnightblue" d="M1642.29,-257.48C1675.31,-247.14 1731.11,-229.66 1768.02,-218.1"/>
<polygon fill="midnightblue" stroke="midnightblue" points="1769.4,-221.34 1777.9,-215.01 1767.31,-214.66 1769.4,-221.34"/>
</g>
<!-- Node35&#45;&gt;Node21 -->
<g id="edge56" class="edge">
<title>Node35&#45;&gt;Node21</title>
<path fill="none" stroke="midnightblue" d="M1655.24,-264.85C1881.14,-258.34 2984.46,-226.34 3019.07,-221 3127.67,-204.23 3177.2,-229.48 3257.07,-154 3274.54,-137.49 3281.11,-109.61 3283.58,-91.12"/>
<polygon fill="midnightblue" stroke="midnightblue" points="3287.08,-91.33 3284.65,-81.02 3280.12,-90.59 3287.08,-91.33"/>
</g>
<!-- Node35&#45;&gt;Node25 -->
<g id="edge60" class="edge">
<title>Node35&#45;&gt;Node25</title>
<path fill="none" stroke="midnightblue" d="M1575.03,-261.37C1465.49,-248.79 1151.63,-213.39 890.07,-190 782.21,-180.35 499.25,-205.65 404.07,-154 378.11,-139.91 359.73,-109.78 350.03,-90.37"/>
<polygon fill="midnightblue" stroke="midnightblue" points="353.08,-88.64 345.64,-81.09 346.75,-91.63 353.08,-88.64"/>
</g>
<!-- Node35&#45;&gt;Node30 -->
<g id="edge61" class="edge">
<title>Node35&#45;&gt;Node30</title>
<path fill="none" stroke="midnightblue" d="M1575,-261.71C1465.38,-250 1151.33,-216.58 890.07,-190 849.53,-185.88 554.06,-182.65 525.07,-154 508.73,-137.85 509.42,-109.66 512.16,-91.04"/>
<polygon fill="midnightblue" stroke="midnightblue" points="515.62,-91.57 513.94,-81.11 508.73,-90.33 515.62,-91.57"/>
</g>
<!-- Node36 -->
<g id="node36" class="node">
<title>Node36</title>
<g id="a_node36"><a xlink:title=" ">
<polygon fill="white" stroke="#bfbfbf" points="1398.57,-190.5 1398.57,-220.5 1525.57,-220.5 1525.57,-190.5 1398.57,-190.5"/>
<text text-anchor="start" x="1406.57" y="-208.5" font-family="Helvetica,sans-Serif" font-size="10.00">tvm/ffi/extra/structural</text>
<text text-anchor="middle" x="1462.07" y="-197.5" font-family="Helvetica,sans-Serif" font-size="10.00">_equal.h</text>
</a>
</g>
</g>
<!-- Node35&#45;&gt;Node36 -->
<g id="edge54" class="edge">
<title>Node35&#45;&gt;Node36</title>
<path fill="none" stroke="midnightblue" d="M1593.15,-257.48C1570.98,-248.85 1536.04,-235.26 1507.8,-224.29"/>
<polygon fill="midnightblue" stroke="midnightblue" points="1508.72,-220.89 1498.13,-220.52 1506.18,-227.41 1508.72,-220.89"/>
</g>
<!-- Node37 -->
<g id="node37" class="node">
<title>Node37</title>
<g id="a_node37"><a xlink:title=" ">
<polygon fill="white" stroke="#bfbfbf" points="1543.57,-190.5 1543.57,-220.5 1670.57,-220.5 1670.57,-190.5 1543.57,-190.5"/>
<text text-anchor="start" x="1551.57" y="-208.5" font-family="Helvetica,sans-Serif" font-size="10.00">tvm/ffi/extra/structural</text>
<text text-anchor="middle" x="1607.07" y="-197.5" font-family="Helvetica,sans-Serif" font-size="10.00">_hash.h</text>
</a>
</g>
</g>
<!-- Node35&#45;&gt;Node37 -->
<g id="edge55" class="edge">
<title>Node35&#45;&gt;Node37</title>
<path fill="none" stroke="midnightblue" d="M1613.92,-257.48C1612.98,-250.47 1611.6,-240.19 1610.32,-230.7"/>
<polygon fill="midnightblue" stroke="midnightblue" points="1613.76,-229.97 1608.96,-220.52 1606.82,-230.9 1613.76,-229.97"/>
</g>
<!-- Node35&#45;&gt;Node38 -->
<g id="edge62" class="edge">
<title>Node35&#45;&gt;Node38</title>
<path fill="none" stroke="midnightblue" d="M1575,-261.83C1518.46,-255.3 1418.81,-241.3 1389.07,-221 1341.16,-188.28 1312.11,-122.59 1300.26,-90.7"/>
<polygon fill="midnightblue" stroke="midnightblue" points="1303.56,-89.52 1296.9,-81.28 1296.97,-91.87 1303.56,-89.52"/>
</g>
<!-- Node39&#45;&gt;Node2 -->
<g id="edge68" class="edge">
<title>Node39&#45;&gt;Node2</title>
<path fill="none" stroke="midnightblue" d="M2012.36,-428.12C2183.42,-409.92 2711.89,-351.23 3146.07,-277 3265.16,-256.64 3308.24,-282.77 3412.07,-221 3445.67,-201.01 3454.24,-190.17 3469.07,-154 3476.53,-135.8 3477.67,-113.41 3477.15,-96.71"/>
<polygon fill="midnightblue" stroke="midnightblue" points="3480.64,-96.45 3476.62,-86.65 3473.65,-96.83 3480.64,-96.45"/>
</g>
<!-- Node39&#45;&gt;Node12 -->
<g id="edge69" class="edge">
<title>Node39&#45;&gt;Node12</title>
<path fill="none" stroke="midnightblue" d="M1936.34,-425.48C1920.67,-417.87 1899.14,-405.39 1885.07,-389 1841.55,-338.32 1818.17,-260.26 1809.3,-224.96"/>
<polygon fill="midnightblue" stroke="midnightblue" points="1812.67,-223.99 1806.93,-215.09 1805.87,-225.63 1812.67,-223.99"/>
</g>
<!-- Node40 -->
<g id="node40" class="node">
<title>Node40</title>
<g id="a_node40"><a xlink:href="target_8h.html" target="_top" xlink:title="Compilation target object.">
<polygon fill="white" stroke="black" points="1894.07,-369.5 1894.07,-388.5 2004.07,-388.5 2004.07,-369.5 1894.07,-369.5"/>
<text text-anchor="middle" x="1949.07" y="-376.5" font-family="Helvetica,sans-Serif" font-size="10.00">tvm/target/target.h</text>
</a>
</g>
</g>
<!-- Node39&#45;&gt;Node40 -->
<g id="edge70" class="edge">
<title>Node39&#45;&gt;Node40</title>
<path fill="none" stroke="midnightblue" d="M1954.92,-425.08C1953.99,-417.93 1952.65,-407.64 1951.49,-398.69"/>
<polygon fill="midnightblue" stroke="midnightblue" points="1954.96,-398.22 1950.21,-388.75 1948.02,-399.12 1954.96,-398.22"/>
</g>
<!-- Node40&#45;&gt;Node2 -->
<g id="edge71" class="edge">
<title>Node40&#45;&gt;Node2</title>
<path fill="none" stroke="midnightblue" d="M2004.39,-373.96C2251.54,-355.62 3248.07,-278.65 3375.07,-221 3415.17,-202.8 3424.16,-190.98 3448.07,-154 3459.36,-136.55 3466.36,-113.92 3470.4,-96.94"/>
<polygon fill="midnightblue" stroke="midnightblue" points="3473.92,-97.23 3472.64,-86.71 3467.08,-95.73 3473.92,-97.23"/>
</g>
<!-- Node40&#45;&gt;Node12 -->
<g id="edge73" class="edge">
<title>Node40&#45;&gt;Node12</title>
<path fill="none" stroke="midnightblue" d="M1942.12,-369.43C1925.95,-349.54 1884.51,-298.77 1849.07,-257 1839.29,-245.48 1828.11,-232.64 1819.46,-222.8"/>
<polygon fill="midnightblue" stroke="midnightblue" points="1821.85,-220.21 1812.61,-215.02 1816.59,-224.84 1821.85,-220.21"/>
</g>
<!-- Node40&#45;&gt;Node14 -->
<g id="edge72" class="edge">
<title>Node40&#45;&gt;Node14</title>
<path fill="none" stroke="midnightblue" d="M1944.97,-369.12C1939.13,-356.55 1928.03,-332.9 1918.07,-313 1889.35,-255.61 1853.54,-188.57 1836.68,-157.28"/>
<polygon fill="midnightblue" stroke="midnightblue" points="1839.56,-155.24 1831.73,-148.11 1833.4,-158.57 1839.56,-155.24"/>
</g>
<!-- Node40&#45;&gt;Node25 -->
<g id="edge110" class="edge">
<title>Node40&#45;&gt;Node25</title>
<path fill="none" stroke="midnightblue" d="M1894.06,-372.72C1718.35,-355.51 1155.09,-297.72 693.07,-221 654.12,-214.53 369.59,-184.13 344.07,-154 329.46,-136.75 332.3,-109.29 336.51,-91.08"/>
<polygon fill="midnightblue" stroke="midnightblue" points="339.91,-91.91 339.09,-81.35 333.14,-90.12 339.91,-91.91"/>
</g>
<!-- Node40&#45;&gt;Node34 -->
<g id="edge74" class="edge">
<title>Node40&#45;&gt;Node34</title>
<path fill="none" stroke="midnightblue" d="M1905.66,-369.44C1857.56,-359.96 1779.98,-344.67 1728.27,-334.48"/>
<polygon fill="midnightblue" stroke="midnightblue" points="1728.77,-331.02 1718.28,-332.52 1727.42,-337.88 1728.77,-331.02"/>
</g>
<!-- Node41 -->
<g id="node41" class="node">
<title>Node41</title>
<g id="a_node41"><a xlink:href="with__context_8h.html" target="_top" xlink:title="RAII wrapper function to enter and exit a context object similar to python&#39;s with syntax.">
<polygon fill="white" stroke="black" points="2623.57,-196 2623.57,-215 2744.57,-215 2744.57,-196 2623.57,-196"/>
<text text-anchor="middle" x="2684.07" y="-203" font-family="Helvetica,sans-Serif" font-size="10.00">tvm/ir/with_context.h</text>
</a>
</g>
</g>
<!-- Node40&#45;&gt;Node41 -->
<g id="edge75" class="edge">
<title>Node40&#45;&gt;Node41</title>
<path fill="none" stroke="midnightblue" d="M1960.33,-369.32C1990.9,-346.29 2078.82,-283.58 2163.07,-257 2245.15,-231.1 2491.02,-215.88 2613.34,-209.72"/>
<polygon fill="midnightblue" stroke="midnightblue" points="2613.55,-213.21 2623.36,-209.22 2613.2,-206.22 2613.55,-213.21"/>
</g>
<!-- Node44 -->
<g id="node44" class="node">
<title>Node44</title>
<g id="a_node44"><a xlink:href="device__api_8h.html" target="_top" xlink:title="Abstract device memory management API.">
<polygon fill="white" stroke="black" points="1152.57,-123.5 1152.57,-153.5 1265.57,-153.5 1265.57,-123.5 1152.57,-123.5"/>
<text text-anchor="start" x="1160.57" y="-141.5" font-family="Helvetica,sans-Serif" font-size="10.00">tvm/runtime/device</text>
<text text-anchor="middle" x="1209.07" y="-130.5" font-family="Helvetica,sans-Serif" font-size="10.00">_api.h</text>
</a>
</g>
</g>
<!-- Node40&#45;&gt;Node44 -->
<g id="edge81" class="edge">
<title>Node40&#45;&gt;Node44</title>
<path fill="none" stroke="midnightblue" d="M1893.97,-375.59C1827.23,-371.53 1711.96,-360.8 1617.07,-333 1596.84,-327.07 1593.36,-321.5 1574.07,-313 1476.71,-270.11 1448.65,-267.73 1353.07,-221 1313.48,-201.64 1269.63,-176.22 1240.85,-158.95"/>
<polygon fill="midnightblue" stroke="midnightblue" points="1242.42,-155.82 1232.05,-153.65 1238.81,-161.81 1242.42,-155.82"/>
</g>
<!-- Node45 -->
<g id="node45" class="node">
<title>Node45</title>
<g id="a_node45"><a xlink:href="target__kind_8h.html" target="_top" xlink:title="Target kind registry.">
<polygon fill="white" stroke="black" points="2874.07,-196 2874.07,-215 3010.07,-215 3010.07,-196 2874.07,-196"/>
<text text-anchor="middle" x="2942.07" y="-203" font-family="Helvetica,sans-Serif" font-size="10.00">tvm/target/target_kind.h</text>
</a>
</g>
</g>
<!-- Node40&#45;&gt;Node45 -->
<g id="edge88" class="edge">
<title>Node40&#45;&gt;Node45</title>
<path fill="none" stroke="midnightblue" d="M1977.94,-369.45C2024.52,-355.9 2119.33,-329.36 2201.07,-313 2440.63,-265.04 2727.91,-230.09 2863.66,-214.9"/>
<polygon fill="midnightblue" stroke="midnightblue" points="2864.41,-218.34 2873.96,-213.76 2863.64,-211.38 2864.41,-218.34"/>
</g>
<!-- Node41&#45;&gt;Node11 -->
<g id="edge79" class="edge">
<title>Node41&#45;&gt;Node11</title>
<path fill="none" stroke="midnightblue" d="M2674.82,-195.84C2651.41,-173.92 2589.57,-116.03 2559.69,-88.06"/>
<polygon fill="midnightblue" stroke="midnightblue" points="2561.87,-85.3 2552.17,-81.02 2557.08,-90.41 2561.87,-85.3"/>
</g>
<!-- Node41&#45;&gt;Node26 -->
<g id="edge80" class="edge">
<title>Node41&#45;&gt;Node26</title>
<path fill="none" stroke="midnightblue" d="M2690.13,-195.6C2701.82,-179.07 2729.07,-143.46 2760.07,-123 2793.16,-101.17 2836.87,-87.37 2866.58,-79.81"/>
<polygon fill="midnightblue" stroke="midnightblue" points="2867.59,-83.17 2876.47,-77.4 2865.93,-76.37 2867.59,-83.17"/>
</g>
<!-- Node41&#45;&gt;Node32 -->
<g id="edge77" class="edge">
<title>Node41&#45;&gt;Node32</title>
<path fill="none" stroke="midnightblue" d="M2623.51,-203.33C2438.93,-199.44 1885.27,-185.42 1708.07,-154 1703.6,-153.21 1698.96,-152.12 1694.41,-150.89"/>
<polygon fill="midnightblue" stroke="midnightblue" points="1695.28,-147.5 1684.7,-148.04 1693.31,-154.21 1695.28,-147.5"/>
</g>
<!-- Node42 -->
<g id="node42" class="node">
<title>Node42</title>
<g id="a_node42"><a xlink:title=" ">
<polygon fill="white" stroke="#bfbfbf" points="2647.57,-129 2647.57,-148 2712.57,-148 2712.57,-129 2647.57,-129"/>
<text text-anchor="middle" x="2680.07" y="-136" font-family="Helvetica,sans-Serif" font-size="10.00">exception</text>
</a>
</g>
</g>
<!-- Node41&#45;&gt;Node42 -->
<g id="edge76" class="edge">
<title>Node41&#45;&gt;Node42</title>
<path fill="none" stroke="midnightblue" d="M2683.53,-195.73C2682.94,-186.18 2681.99,-170.62 2681.23,-158.28"/>
<polygon fill="midnightblue" stroke="midnightblue" points="2684.71,-157.89 2680.6,-148.13 2677.72,-158.32 2684.71,-157.89"/>
</g>
<!-- Node43 -->
<g id="node43" class="node">
<title>Node43</title>
<g id="a_node43"><a xlink:title=" ">
<polygon fill="white" stroke="#bfbfbf" points="2769.07,-129 2769.07,-148 2827.07,-148 2827.07,-129 2769.07,-129"/>
<text text-anchor="middle" x="2798.07" y="-136" font-family="Helvetica,sans-Serif" font-size="10.00">memory</text>
</a>
</g>
</g>
<!-- Node41&#45;&gt;Node43 -->
<g id="edge78" class="edge">
<title>Node41&#45;&gt;Node43</title>
<path fill="none" stroke="midnightblue" d="M2699.45,-195.73C2718.59,-184.82 2751.51,-166.05 2774.01,-153.22"/>
<polygon fill="midnightblue" stroke="midnightblue" points="2775.99,-156.12 2782.94,-148.13 2772.52,-150.04 2775.99,-156.12"/>
</g>
<!-- Node44&#45;&gt;Node8 -->
<g id="edge85" class="edge">
<title>Node44&#45;&gt;Node8</title>
<path fill="none" stroke="midnightblue" d="M1265.59,-134.35C1392.18,-127.15 1708.1,-108.49 1972.07,-87 2003.66,-84.43 2038.93,-81.04 2067.34,-78.19"/>
<polygon fill="midnightblue" stroke="midnightblue" points="2067.87,-81.66 2077.47,-77.17 2067.17,-74.69 2067.87,-81.66"/>
</g>
<!-- Node44&#45;&gt;Node15 -->
<g id="edge82" class="edge">
<title>Node44&#45;&gt;Node15</title>
<path fill="none" stroke="midnightblue" d="M1265.76,-128.14C1318.48,-119.04 1399.04,-104.11 1468.07,-87 1471.91,-86.05 1475.89,-84.98 1479.85,-83.86"/>
<polygon fill="midnightblue" stroke="midnightblue" points="1480.93,-87.2 1489.54,-81.03 1478.96,-80.48 1480.93,-87.2"/>
</g>
<!-- Node44&#45;&gt;Node18 -->
<g id="edge83" class="edge">
<title>Node44&#45;&gt;Node18</title>
<path fill="none" stroke="midnightblue" d="M1152.43,-125.35C1095.95,-113.23 1010.04,-94.8 956.03,-83.22"/>
<polygon fill="midnightblue" stroke="midnightblue" points="956.51,-79.74 946,-81.07 955.04,-86.58 956.51,-79.74"/>
</g>
<!-- Node44&#45;&gt;Node19 -->
<g id="edge84" class="edge">
<title>Node44&#45;&gt;Node19</title>
<path fill="none" stroke="midnightblue" d="M1252.47,-123.4C1288.49,-111.69 1339.13,-95.23 1372.97,-84.23"/>
<polygon fill="midnightblue" stroke="midnightblue" points="1374.47,-87.43 1382.9,-81.01 1372.3,-80.77 1374.47,-87.43"/>
</g>
<!-- Node44&#45;&gt;Node22 -->
<g id="edge86" class="edge">
<title>Node44&#45;&gt;Node22</title>
<path fill="none" stroke="midnightblue" d="M1201.26,-123.4C1195.87,-113.66 1188.66,-100.65 1182.88,-90.21"/>
<polygon fill="midnightblue" stroke="midnightblue" points="1185.79,-88.25 1177.89,-81.19 1179.67,-91.64 1185.79,-88.25"/>
</g>
<!-- Node44&#45;&gt;Node25 -->
<g id="edge87" class="edge">
<title>Node44&#45;&gt;Node25</title>
<path fill="none" stroke="midnightblue" d="M1152.23,-125.12C1147.45,-124.32 1142.69,-123.59 1138.07,-123 844.05,-85.24 767.49,-111.44 472.07,-87 438.65,-84.24 400.54,-79.84 374.26,-76.61"/>
<polygon fill="midnightblue" stroke="midnightblue" points="374.47,-73.11 364.12,-75.35 373.61,-80.05 374.47,-73.11"/>
</g>
<!-- Node45&#45;&gt;Node2 -->
<g id="edge90" class="edge">
<title>Node45&#45;&gt;Node2</title>
<path fill="none" stroke="midnightblue" d="M3010.17,-197.54C3074.52,-190.04 3173.4,-176.11 3257.07,-154 3320.45,-137.25 3391.04,-109 3434.26,-90.55"/>
<polygon fill="midnightblue" stroke="midnightblue" points="3435.78,-93.71 3443.58,-86.54 3433.01,-87.28 3435.78,-93.71"/>
</g>
<!-- Node45&#45;&gt;Node11 -->
<g id="edge108" class="edge">
<title>Node45&#45;&gt;Node11</title>
<path fill="none" stroke="midnightblue" d="M2949.01,-195.71C2961.03,-179.37 2982.75,-144.05 2964.07,-123 2938.37,-94.04 2670.56,-78.57 2575.95,-73.98"/>
<polygon fill="midnightblue" stroke="midnightblue" points="2575.96,-70.48 2565.81,-73.5 2575.63,-77.47 2575.96,-70.48"/>
</g>
<!-- Node45&#45;&gt;Node21 -->
<g id="edge89" class="edge">
<title>Node45&#45;&gt;Node21</title>
<path fill="none" stroke="midnightblue" d="M3010.18,-198.51C3083.01,-191.05 3192.78,-176.5 3228.07,-154 3252.02,-138.73 3268.73,-109.42 3277.61,-90.43"/>
<polygon fill="midnightblue" stroke="midnightblue" points="3280.9,-91.66 3281.74,-81.09 3274.5,-88.83 3280.9,-91.66"/>
</g>
<!-- Node45&#45;&gt;Node22 -->
<g id="edge105" class="edge">
<title>Node45&#45;&gt;Node22</title>
<path fill="none" stroke="midnightblue" d="M2873.8,-198.55C2838.15,-195.61 2793.78,-192.23 2754.07,-190 2641.07,-183.65 1840.87,-196.75 1736.07,-154 1717.14,-146.28 1720.84,-131.12 1702.07,-123 1607.15,-81.93 1340.35,-102.3 1238.07,-87 1231.23,-85.98 1224.04,-84.64 1217.04,-83.19"/>
<polygon fill="midnightblue" stroke="midnightblue" points="1217.49,-79.71 1206.97,-81.02 1216.01,-86.55 1217.49,-79.71"/>
</g>
<!-- Node45&#45;&gt;Node26 -->
<g id="edge109" class="edge">
<title>Node45&#45;&gt;Node26</title>
<path fill="none" stroke="midnightblue" d="M2956.97,-195.88C2970.29,-187.22 2988.94,-172.51 2997.07,-154 3002.61,-141.39 3004.22,-134.78 2997.07,-123 2983.32,-100.34 2955.72,-87.37 2933.46,-80.27"/>
<polygon fill="midnightblue" stroke="midnightblue" points="2934.26,-76.86 2923.68,-77.41 2932.29,-83.58 2934.26,-76.86"/>
</g>
<!-- Node45&#45;&gt;Node38 -->
<g id="edge107" class="edge">
<title>Node45&#45;&gt;Node38</title>
<path fill="none" stroke="midnightblue" d="M2873.8,-198.57C2838.14,-195.64 2793.78,-192.26 2754.07,-190 2645.84,-183.83 1881.6,-189.21 1779.07,-154 1756.79,-146.35 1758.13,-131.27 1736.07,-123 1574.32,-62.36 1519.17,-117.12 1349.07,-87 1343.66,-86.04 1338.01,-84.82 1332.47,-83.48"/>
<polygon fill="midnightblue" stroke="midnightblue" points="1333.26,-80.07 1322.7,-81 1331.53,-86.86 1333.26,-80.07"/>
</g>
<!-- Node45&#45;&gt;Node43 -->
<g id="edge106" class="edge">
<title>Node45&#45;&gt;Node43</title>
<path fill="none" stroke="midnightblue" d="M2922.95,-195.87C2898.31,-184.75 2855.26,-165.32 2826.71,-152.43"/>
<polygon fill="midnightblue" stroke="midnightblue" points="2827.83,-149.09 2817.27,-148.17 2824.95,-155.47 2827.83,-149.09"/>
</g>
<!-- Node46 -->
<g id="node46" class="node">
<title>Node46</title>
<g id="a_node46"><a xlink:href="attr__registry__map_8h.html" target="_top" xlink:title="Attribute map used in registry.">
<polygon fill="white" stroke="black" points="2845.57,-123.5 2845.57,-153.5 2954.57,-153.5 2954.57,-123.5 2845.57,-123.5"/>
<text text-anchor="start" x="2853.57" y="-141.5" font-family="Helvetica,sans-Serif" font-size="10.00">tvm/ir/attr_registry</text>
<text text-anchor="middle" x="2900.07" y="-130.5" font-family="Helvetica,sans-Serif" font-size="10.00">_map.h</text>
</a>
</g>
</g>
<!-- Node45&#45;&gt;Node46 -->
<g id="edge91" class="edge">
<title>Node45&#45;&gt;Node46</title>
<path fill="none" stroke="midnightblue" d="M2936.41,-195.73C2930.84,-187.12 2922.11,-173.61 2914.6,-161.99"/>
<polygon fill="midnightblue" stroke="midnightblue" points="2917.54,-160.09 2909.17,-153.59 2911.66,-163.89 2917.54,-160.09"/>
</g>
<!-- Node47 -->
<g id="node47" class="node">
<title>Node47</title>
<g id="a_node47"><a xlink:href="config__schema_8h.html" target="_top" xlink:title="Minimal schema for dynamic config canonicalization and validation.">
<polygon fill="white" stroke="black" points="3087.57,-129 3087.57,-148 3218.57,-148 3218.57,-129 3087.57,-129"/>
<text text-anchor="middle" x="3153.07" y="-136" font-family="Helvetica,sans-Serif" font-size="10.00">tvm/ir/config_schema.h</text>
</a>
</g>
</g>
<!-- Node45&#45;&gt;Node47 -->
<g id="edge95" class="edge">
<title>Node45&#45;&gt;Node47</title>
<path fill="none" stroke="midnightblue" d="M2970.09,-195.87C3007.48,-184.35 3073.79,-163.92 3115.49,-151.08"/>
<polygon fill="midnightblue" stroke="midnightblue" points="3116.75,-154.35 3125.27,-148.06 3114.68,-147.66 3116.75,-154.35"/>
</g>
<!-- Node46&#45;&gt;Node8 -->
<g id="edge92" class="edge">
<title>Node46&#45;&gt;Node8</title>
<path fill="none" stroke="midnightblue" d="M2845.37,-124.49C2842.23,-123.94 2839.12,-123.44 2836.07,-123 2576.88,-85.95 2508.88,-109.97 2248.07,-87 2224.69,-84.94 2198.92,-82.08 2176.82,-79.45"/>
<polygon fill="midnightblue" stroke="midnightblue" points="2176.97,-75.94 2166.62,-78.21 2176.13,-82.89 2176.97,-75.94"/>
</g>
<!-- Node46&#45;&gt;Node11 -->
<g id="edge93" class="edge">
<title>Node46&#45;&gt;Node11</title>
<path fill="none" stroke="midnightblue" d="M2845.3,-124.89C2842.18,-124.24 2839.09,-123.6 2836.07,-123 2742.1,-104.27 2630.36,-86.15 2576.02,-77.6"/>
<polygon fill="midnightblue" stroke="midnightblue" points="2576.36,-74.12 2565.94,-76.03 2575.28,-81.03 2576.36,-74.12"/>
</g>
<!-- Node46&#45;&gt;Node26 -->
<g id="edge94" class="edge">
<title>Node46&#45;&gt;Node26</title>
<path fill="none" stroke="midnightblue" d="M2900.07,-123.4C2900.07,-114.06 2900.07,-101.71 2900.07,-91.52"/>
<polygon fill="midnightblue" stroke="midnightblue" points="2903.57,-91.19 2900.07,-81.19 2896.57,-91.19 2903.57,-91.19"/>
</g>
<!-- Node47&#45;&gt;Node2 -->
<g id="edge98" class="edge">
<title>Node47&#45;&gt;Node2</title>
<path fill="none" stroke="midnightblue" d="M3195.5,-128.94C3251.99,-117.53 3352.19,-97.31 3416.04,-84.42"/>
<polygon fill="midnightblue" stroke="midnightblue" points="3416.85,-87.82 3425.96,-82.41 3415.46,-80.96 3416.85,-87.82"/>
</g>
<!-- Node47&#45;&gt;Node7 -->
<g id="edge96" class="edge">
<title>Node47&#45;&gt;Node7</title>
<path fill="none" stroke="midnightblue" d="M3218.69,-129.2C3294.48,-119.52 3422.89,-102.82 3533.07,-87 3542.76,-85.61 3552.99,-84.09 3563.01,-82.57"/>
<polygon fill="midnightblue" stroke="midnightblue" points="3563.56,-86.02 3572.92,-81.05 3562.51,-79.1 3563.56,-86.02"/>
</g>
<!-- Node47&#45;&gt;Node11 -->
<g id="edge103" class="edge">
<title>Node47&#45;&gt;Node11</title>
<path fill="none" stroke="midnightblue" d="M3087.56,-129.21C3070.48,-127.12 3052.09,-124.92 3035.07,-123 2862.31,-103.52 2655.05,-83.26 2575.94,-75.64"/>
<polygon fill="midnightblue" stroke="midnightblue" points="2575.94,-72.13 2565.65,-74.66 2575.27,-79.1 2575.94,-72.13"/>
</g>
<!-- Node47&#45;&gt;Node21 -->
<g id="edge97" class="edge">
<title>Node47&#45;&gt;Node21</title>
<path fill="none" stroke="midnightblue" d="M3170.6,-128.87C3193.09,-117.8 3232.3,-98.49 3258.47,-85.6"/>
<polygon fill="midnightblue" stroke="midnightblue" points="3260.04,-88.72 3267.47,-81.17 3256.95,-82.44 3260.04,-88.72"/>
</g>
<!-- Node47&#45;&gt;Node25 -->
<g id="edge100" class="edge">
<title>Node47&#45;&gt;Node25</title>
<path fill="none" stroke="midnightblue" d="M3087.53,-131.47C3051.19,-128.37 3005.16,-124.87 2964.07,-123 1857.55,-72.61 1577.56,-156.47 472.07,-87 438.61,-84.9 400.5,-80.4 374.23,-76.96"/>
<polygon fill="midnightblue" stroke="midnightblue" points="374.47,-73.46 364.1,-75.61 373.55,-80.4 374.47,-73.46"/>
</g>
<!-- Node47&#45;&gt;Node26 -->
<g id="edge104" class="edge">
<title>Node47&#45;&gt;Node26</title>
<path fill="none" stroke="midnightblue" d="M3119.74,-128.94C3071.26,-116.48 2981.81,-93.5 2933.36,-81.05"/>
<polygon fill="midnightblue" stroke="midnightblue" points="2934.23,-77.66 2923.67,-78.56 2932.49,-84.44 2934.23,-77.66"/>
</g>
<!-- Node47&#45;&gt;Node30 -->
<g id="edge101" class="edge">
<title>Node47&#45;&gt;Node30</title>
<path fill="none" stroke="midnightblue" d="M3087.53,-131.47C3051.19,-128.38 3005.16,-124.88 2964.07,-123 2697.1,-110.77 822.47,-132.24 559.07,-87 555.08,-86.31 550.96,-85.32 546.92,-84.17"/>
<polygon fill="midnightblue" stroke="midnightblue" points="547.76,-80.76 537.17,-81.06 545.64,-87.43 547.76,-80.76"/>
</g>
<!-- Node47&#45;&gt;Node38 -->
<g id="edge102" class="edge">
<title>Node47&#45;&gt;Node38</title>
<path fill="none" stroke="midnightblue" d="M3087.53,-131.59C3051.18,-128.54 3005.16,-125.03 2964.07,-123 2605.53,-105.26 1704.54,-137.1 1349.07,-87 1343.18,-86.17 1337.02,-84.93 1331.04,-83.51"/>
<polygon fill="midnightblue" stroke="midnightblue" points="1331.78,-80.09 1321.23,-81.01 1330.05,-86.87 1331.78,-80.09"/>
</g>
<!-- Node48 -->
<g id="node48" class="node">
<title>Node48</title>
<g id="a_node48"><a xlink:title=" ">
<polygon fill="white" stroke="#bfbfbf" points="3125.07,-62 3125.07,-81 3181.07,-81 3181.07,-62 3125.07,-62"/>
<text text-anchor="middle" x="3153.07" y="-69" font-family="Helvetica,sans-Serif" font-size="10.00">sstream</text>
</a>
</g>
</g>
<!-- Node47&#45;&gt;Node48 -->
<g id="edge99" class="edge">
<title>Node47&#45;&gt;Node48</title>
<path fill="none" stroke="midnightblue" d="M3153.07,-128.73C3153.07,-119.18 3153.07,-103.62 3153.07,-91.28"/>
<polygon fill="midnightblue" stroke="midnightblue" points="3156.57,-91.13 3153.07,-81.13 3149.57,-91.13 3156.57,-91.13"/>
</g>
<!-- Node49&#45;&gt;Node2 -->
<g id="edge115" class="edge">
<title>Node49&#45;&gt;Node2</title>
<path fill="none" stroke="midnightblue" d="M2019.16,-264.59C2070.22,-262.8 2161.2,-259.62 2239.07,-257 2361.07,-252.89 3223.61,-266.01 3337.07,-221 3397.18,-197.16 3442.09,-131.05 3462.66,-95.62"/>
<polygon fill="midnightblue" stroke="midnightblue" points="3465.94,-96.93 3467.8,-86.51 3459.84,-93.49 3465.94,-96.93"/>
</g>
<!-- Node49&#45;&gt;Node6 -->
<g id="edge114" class="edge">
<title>Node49&#45;&gt;Node6</title>
<path fill="none" stroke="midnightblue" d="M1975.46,-257.18C1964.55,-231.74 1929.32,-157.82 1875.07,-123 1828.02,-92.8 1765.86,-80.38 1717.29,-75.4"/>
<polygon fill="midnightblue" stroke="midnightblue" points="1717.42,-71.9 1707.14,-74.44 1716.77,-78.86 1717.42,-71.9"/>
</g>
<!-- Node49&#45;&gt;Node12 -->
<g id="edge116" class="edge">
<title>Node49&#45;&gt;Node12</title>
<path fill="none" stroke="midnightblue" d="M1954.14,-257.48C1924.04,-247.18 1873.24,-229.81 1839.43,-218.25"/>
<polygon fill="midnightblue" stroke="midnightblue" points="1840.55,-214.93 1829.95,-215.01 1838.28,-221.56 1840.55,-214.93"/>
</g>
<!-- Node49&#45;&gt;Node16 -->
<g id="edge113" class="edge">
<title>Node49&#45;&gt;Node16</title>
<path fill="none" stroke="midnightblue" d="M1977.63,-257.49C1975.15,-243.35 1969.71,-214.19 1963.07,-190 1953.28,-154.3 1938.61,-113.6 1930.03,-90.69"/>
<polygon fill="midnightblue" stroke="midnightblue" points="1933.26,-89.35 1926.45,-81.23 1926.72,-91.82 1933.26,-89.35"/>
</g>
<!-- Node49&#45;&gt;Node20 -->
<g id="edge117" class="edge">
<title>Node49&#45;&gt;Node20</title>
<path fill="none" stroke="midnightblue" d="M2019.32,-263.47C2063.49,-259.36 2135.49,-248.66 2191.07,-221 2223.6,-204.81 2253.97,-174.7 2270.97,-155.96"/>
<polygon fill="midnightblue" stroke="midnightblue" points="2273.8,-158.05 2277.8,-148.24 2268.56,-153.41 2273.8,-158.05"/>
</g>
<!-- Node49&#45;&gt;Node25 -->
<g id="edge119" class="edge">
<title>Node49&#45;&gt;Node25</title>
<path fill="none" stroke="midnightblue" d="M1938.63,-266.13C1884.56,-264.79 1786.96,-257.01 1713.07,-221 1694.69,-212.04 1698.02,-197.68 1679.07,-190 1560.19,-141.79 650.12,-182.63 525.07,-154 464.28,-140.08 398.88,-105.68 365.14,-86.32"/>
<polygon fill="midnightblue" stroke="midnightblue" points="366.51,-83.06 356.11,-81.05 362.99,-89.11 366.51,-83.06"/>
</g>
<!-- Node49&#45;&gt;Node27 -->
<g id="edge118" class="edge">
<title>Node49&#45;&gt;Node27</title>
<path fill="none" stroke="midnightblue" d="M1938.87,-263.04C1893,-258.51 1816.51,-247.4 1756.07,-221 1734.48,-211.57 1735.36,-197.64 1713.07,-190 1607.26,-153.73 818.25,-166.25 707.07,-154 697.82,-152.98 688.02,-151.49 678.61,-149.85"/>
<polygon fill="midnightblue" stroke="midnightblue" points="679.05,-146.37 668.58,-148.02 677.79,-153.26 679.05,-146.37"/>
</g>
<!-- Node51&#45;&gt;Node9 -->
<g id="edge126" class="edge">
<title>Node51&#45;&gt;Node9</title>
<path fill="none" stroke="midnightblue" d="M1303.7,-263.66C1400.35,-258.03 1647.37,-242.62 1853.07,-221 1964.34,-209.3 2242.73,-177.7 2352.07,-154 2356.23,-153.1 2360.56,-152.01 2364.83,-150.84"/>
<polygon fill="midnightblue" stroke="midnightblue" points="2365.98,-154.16 2374.61,-148.02 2364.03,-147.43 2365.98,-154.16"/>
</g>
<!-- Node51&#45;&gt;Node12 -->
<g id="edge127" class="edge">
<title>Node51&#45;&gt;Node12</title>
<path fill="none" stroke="midnightblue" d="M1303.81,-261.59C1378.9,-253.65 1541.75,-236.31 1679.07,-221 1704.23,-218.19 1732.21,-214.98 1755.4,-212.3"/>
<polygon fill="midnightblue" stroke="midnightblue" points="1755.83,-215.77 1765.36,-211.14 1755.02,-208.82 1755.83,-215.77"/>
</g>
<!-- Node51&#45;&gt;Node25 -->
<g id="edge130" class="edge">
<title>Node51&#45;&gt;Node25</title>
<path fill="none" stroke="midnightblue" d="M1220.3,-261.48C1147.51,-253.56 992.7,-236.54 862.07,-221 624.55,-192.74 486.33,-333.36 328.07,-154 312.68,-136.56 322.38,-108.56 331.57,-90.34"/>
<polygon fill="midnightblue" stroke="midnightblue" points="334.75,-91.81 336.46,-81.36 328.61,-88.47 334.75,-91.81"/>
</g>
<!-- Node51&#45;&gt;Node27 -->
<g id="edge128" class="edge">
<title>Node51&#45;&gt;Node27</title>
<path fill="none" stroke="midnightblue" d="M1220.32,-258.81C1170.97,-250.22 1086.42,-235.22 1014.07,-221 892.58,-197.12 750.16,-166.21 677.33,-150.19"/>
<polygon fill="midnightblue" stroke="midnightblue" points="678.04,-146.76 667.52,-148.03 676.53,-153.6 678.04,-146.76"/>
</g>
<!-- Node51&#45;&gt;Node32 -->
<g id="edge129" class="edge">
<title>Node51&#45;&gt;Node32</title>
<path fill="none" stroke="midnightblue" d="M1273.22,-257.27C1294.44,-241.14 1342.68,-206.79 1389.07,-190 1486.36,-154.79 1518.67,-178.98 1619.07,-154 1622.29,-153.2 1625.61,-152.26 1628.91,-151.25"/>
<polygon fill="midnightblue" stroke="midnightblue" points="1630.21,-154.51 1638.62,-148.07 1628.03,-147.85 1630.21,-154.51"/>
</g>
<!-- Node52&#45;&gt;Node6 -->
<g id="edge134" class="edge">
<title>Node52&#45;&gt;Node6</title>
<path fill="none" stroke="midnightblue" d="M1145.38,-705.4C1118.4,-689.31 1066.07,-651.94 1066.07,-604 1066.07,-604 1066.07,-604 1066.07,-434 1066.07,-308.75 1115.26,-275.19 1207.07,-190 1219.64,-178.34 1329.73,-128.18 1346.07,-123 1439.27,-93.48 1466.81,-104.05 1563.07,-87 1570.43,-85.7 1578.17,-84.29 1585.8,-82.87"/>
<polygon fill="midnightblue" stroke="midnightblue" points="1586.53,-86.3 1595.72,-81.02 1585.25,-79.42 1586.53,-86.3"/>
</g>
<!-- Node52&#45;&gt;Node7 -->
<g id="edge135" class="edge">
<title>Node52&#45;&gt;Node7</title>
<path fill="none" stroke="midnightblue" d="M1205.8,-713.91C1433.41,-713.27 2464.59,-708.21 2782.07,-669 3238.83,-612.58 3504.98,-803.91 3793.07,-445 3882.77,-333.26 3873.71,-228.79 3777.07,-123 3757.84,-101.95 3729.56,-89.67 3702.72,-82.5"/>
<polygon fill="midnightblue" stroke="midnightblue" points="3703.46,-79.08 3692.92,-80.09 3701.79,-85.88 3703.46,-79.08"/>
</g>
<!-- Node52&#45;&gt;Node8 -->
<g id="edge136" class="edge">
<title>Node52&#45;&gt;Node8</title>
<path fill="none" stroke="midnightblue" d="M1205.78,-710.54C1306.23,-701.54 1541.07,-673.11 1541.07,-604 1541.07,-604 1541.07,-604 1541.07,-546 1541.07,-407.25 1920.4,-242.74 2027.07,-154 2054.43,-131.24 2085.66,-104.25 2104.62,-87.75"/>
<polygon fill="midnightblue" stroke="midnightblue" points="2106.93,-90.38 2112.17,-81.17 2102.33,-85.1 2106.93,-90.38"/>
</g>
<!-- Node52&#45;&gt;Node9 -->
<g id="edge138" class="edge">
<title>Node52&#45;&gt;Node9</title>
<path fill="none" stroke="midnightblue" d="M1205.95,-713.59C1462.53,-711.16 2733.21,-697.66 2761.07,-669 2935.18,-489.92 2526.32,-217.74 2423.04,-153.45"/>
<polygon fill="midnightblue" stroke="midnightblue" points="2424.64,-150.32 2414.29,-148.05 2420.96,-156.28 2424.64,-150.32"/>
</g>
<!-- Node52&#45;&gt;Node11 -->
<g id="edge170" class="edge">
<title>Node52&#45;&gt;Node11</title>
<path fill="none" stroke="midnightblue" d="M1205.62,-713.4C1438.48,-709.91 2509.77,-689.79 2634.07,-613 2723.28,-557.89 2671.07,-484.85 2671.07,-380 2671.07,-380 2671.07,-380 2671.07,-322 2671.07,-270.67 2638.72,-266.55 2615.07,-221 2590.96,-174.55 2564.6,-118.78 2551.47,-90.64"/>
<polygon fill="midnightblue" stroke="midnightblue" points="2554.52,-88.88 2547.13,-81.29 2548.17,-91.83 2554.52,-88.88"/>
</g>
<!-- Node52&#45;&gt;Node12 -->
<g id="edge139" class="edge">
<title>Node52&#45;&gt;Node12</title>
<path fill="none" stroke="midnightblue" d="M1170.75,-705.35C1180.03,-696.73 1194.06,-682.83 1204.07,-669 1309.22,-523.71 1269.68,-442.19 1394.07,-313 1428.33,-277.42 1443.56,-273.64 1490.07,-257 1537.95,-239.87 1679.19,-221.34 1755.24,-212.22"/>
<polygon fill="midnightblue" stroke="midnightblue" points="1756.01,-215.66 1765.52,-211 1755.18,-208.7 1756.01,-215.66"/>
</g>
<!-- Node52&#45;&gt;Node22 -->
<g id="edge146" class="edge">
<title>Node52&#45;&gt;Node22</title>
<path fill="none" stroke="midnightblue" d="M1116.5,-708.32C1027.89,-695.78 838.07,-662.13 838.07,-604 838.07,-604 838.07,-604 838.07,-322 838.07,-263 801.7,-244.59 824.07,-190 832,-170.66 871.58,-132.74 890.07,-123 899.8,-117.88 1030.22,-95.88 1110.57,-82.67"/>
<polygon fill="midnightblue" stroke="midnightblue" points="1111.29,-86.09 1120.59,-81.02 1110.16,-79.19 1111.29,-86.09"/>
</g>
<!-- Node52&#45;&gt;Node25 -->
<g id="edge168" class="edge">
<title>Node52&#45;&gt;Node25</title>
<path fill="none" stroke="midnightblue" d="M1116.52,-714.24C912.35,-714.76 76.07,-710.38 76.07,-604 76.07,-604 76.07,-604 76.07,-204.5 76.07,-164.53 82.9,-148.01 114.07,-123 144,-98.98 254.33,-82.87 309.8,-76.11"/>
<polygon fill="midnightblue" stroke="midnightblue" points="310.29,-79.57 319.8,-74.92 309.46,-72.62 310.29,-79.57"/>
</g>
<!-- Node52&#45;&gt;Node27 -->
<g id="edge147" class="edge">
<title>Node52&#45;&gt;Node27</title>
<path fill="none" stroke="midnightblue" d="M1116.34,-714.18C988.56,-713.51 631.07,-702.79 631.07,-604 631.07,-604 631.07,-604 631.07,-266 631.07,-227.7 630.14,-182.88 629.55,-158.2"/>
<polygon fill="midnightblue" stroke="midnightblue" points="633.05,-158 629.3,-148.09 626.05,-158.17 633.05,-158"/>
</g>
<!-- Node52&#45;&gt;Node31 -->
<g id="edge165" class="edge">
<title>Node52&#45;&gt;Node31</title>
<path fill="none" stroke="midnightblue" d="M1116.57,-714.3C1028.55,-714.02 836.38,-708.72 786.07,-669 761.9,-649.92 762.07,-634.8 762.07,-604 762.07,-604 762.07,-604 762.07,-490 762.07,-342.61 897.82,-201.33 946.75,-155.19"/>
<polygon fill="midnightblue" stroke="midnightblue" points="949.38,-157.52 954.33,-148.15 944.62,-152.39 949.38,-157.52"/>
</g>
<!-- Node52&#45;&gt;Node33 -->
<g id="edge167" class="edge">
<title>Node52&#45;&gt;Node33</title>
<path fill="none" stroke="midnightblue" d="M1116.31,-710.71C1084.13,-706.11 1041.72,-695.12 1014.07,-669 991.69,-647.85 990.07,-634.8 990.07,-604 990.07,-604 990.07,-604 990.07,-434 990.07,-325.48 1043.47,-202.8 1065.11,-157.52"/>
<polygon fill="midnightblue" stroke="midnightblue" points="1068.33,-158.92 1069.55,-148.39 1062.03,-155.86 1068.33,-158.92"/>
</g>
<!-- Node52&#45;&gt;Node35 -->
<g id="edge137" class="edge">
<title>Node52&#45;&gt;Node35</title>
<path fill="none" stroke="midnightblue" d="M1166.02,-705.12C1173.45,-692.16 1188.31,-667.57 1204.07,-649 1338.5,-490.64 1534.57,-331.42 1595.96,-282.92"/>
<polygon fill="midnightblue" stroke="midnightblue" points="1598.33,-285.52 1604.02,-276.58 1594,-280.02 1598.33,-285.52"/>
</g>
<!-- Node52&#45;&gt;Node38 -->
<g id="edge169" class="edge">
<title>Node52&#45;&gt;Node38</title>
<path fill="none" stroke="midnightblue" d="M1121.09,-705.46C1098.41,-698.83 1070.87,-687.54 1052.07,-669 971.84,-589.87 952.07,-548.69 952.07,-436 952.07,-436 952.07,-436 952.07,-322 952.07,-232.62 863.57,-189.69 923.07,-123 969.98,-70.43 1168.8,-99.86 1238.07,-87 1243.44,-86 1249.05,-84.78 1254.57,-83.46"/>
<polygon fill="midnightblue" stroke="midnightblue" points="1255.45,-86.85 1264.31,-81.03 1253.76,-80.05 1255.45,-86.85"/>
</g>
<!-- Node52&#45;&gt;Node51 -->
<g id="edge164" class="edge">
<title>Node52&#45;&gt;Node51</title>
<path fill="none" stroke="midnightblue" d="M1158.51,-705.25C1153.32,-686.74 1142.07,-642.18 1142.07,-604 1142.07,-604 1142.07,-604 1142.07,-546 1142.07,-438.97 1217.97,-326.34 1249.05,-284.72"/>
<polygon fill="midnightblue" stroke="midnightblue" points="1252.01,-286.61 1255.28,-276.53 1246.44,-282.37 1252.01,-286.61"/>
</g>
<!-- Node53 -->
<g id="node53" class="node">
<title>Node53</title>
<g id="a_node53"><a xlink:href="node__functor_8h.html" target="_top" xlink:title="Defines the Functor data structures.">
<polygon fill="white" stroke="black" points="716.57,-129 716.57,-148 837.57,-148 837.57,-129 716.57,-129"/>
<text text-anchor="middle" x="777.07" y="-136" font-family="Helvetica,sans-Serif" font-size="10.00">tvm/ir/node_functor.h</text>
</a>
</g>
</g>
<!-- Node52&#45;&gt;Node53 -->
<g id="edge140" class="edge">
<title>Node52&#45;&gt;Node53</title>
<path fill="none" stroke="midnightblue" d="M1116.39,-713.6C1035.32,-712 868.26,-704.36 824.07,-669 800.03,-649.76 800.07,-634.8 800.07,-604 800.07,-604 800.07,-604 800.07,-490 800.07,-414.31 762.07,-399.69 762.07,-324 762.07,-324 762.07,-324 762.07,-266 762.07,-227.43 769.03,-182.71 773.47,-158.12"/>
<polygon fill="midnightblue" stroke="midnightblue" points="776.95,-158.52 775.35,-148.05 770.07,-157.23 776.95,-158.52"/>
</g>
<!-- Node54 -->
<g id="node54" class="node">
<title>Node54</title>
<g id="a_node54"><a xlink:href="buffer_8h.html" target="_top" xlink:title="Symbolic n&#45;dimensional array, to represent a memory buffer.">
<polygon fill="white" stroke="black" points="1342.57,-649.5 1342.57,-668.5 1437.57,-668.5 1437.57,-649.5 1342.57,-649.5"/>
<text text-anchor="middle" x="1390.07" y="-656.5" font-family="Helvetica,sans-Serif" font-size="10.00">tvm/tirx/buffer.h</text>
</a>
</g>
</g>
<!-- Node52&#45;&gt;Node54 -->
<g id="edge148" class="edge">
<title>Node52&#45;&gt;Node54</title>
<path fill="none" stroke="midnightblue" d="M1197.36,-705.44C1237.05,-696.08 1300.78,-681.06 1343.98,-670.87"/>
<polygon fill="midnightblue" stroke="midnightblue" points="1345.03,-674.22 1353.96,-668.52 1343.42,-667.41 1345.03,-674.22"/>
</g>
<!-- Node57 -->
<g id="node57" class="node">
<title>Node57</title>
<g id="a_node57"><a xlink:title=" ">
<polygon fill="white" stroke="#bfbfbf" points="1246.07,-649.5 1246.07,-668.5 1306.07,-668.5 1306.07,-649.5 1246.07,-649.5"/>
<text text-anchor="middle" x="1276.07" y="-656.5" font-family="Helvetica,sans-Serif" font-size="10.00">iostream</text>
</a>
</g>
</g>
<!-- Node52&#45;&gt;Node57 -->
<g id="edge166" class="edge">
<title>Node52&#45;&gt;Node57</title>
<path fill="none" stroke="midnightblue" d="M1179.29,-705.44C1197.97,-696.68 1227.23,-682.94 1248.69,-672.86"/>
<polygon fill="midnightblue" stroke="midnightblue" points="1250.37,-675.93 1257.93,-668.52 1247.39,-669.6 1250.37,-675.93"/>
</g>
<!-- Node53&#45;&gt;Node11 -->
<g id="edge144" class="edge">
<title>Node53&#45;&gt;Node11</title>
<path fill="none" stroke="midnightblue" d="M837.72,-130.44C863.93,-127.66 894.98,-124.72 923.07,-123 1602.87,-81.32 1776.96,-150.52 2455.07,-87 2473.41,-85.28 2493.7,-82.03 2510.18,-79.04"/>
<polygon fill="midnightblue" stroke="midnightblue" points="2511.21,-82.41 2520.39,-77.13 2509.92,-75.53 2511.21,-82.41"/>
</g>
<!-- Node53&#45;&gt;Node18 -->
<g id="edge141" class="edge">
<title>Node53&#45;&gt;Node18</title>
<path fill="none" stroke="midnightblue" d="M794.2,-128.87C816.08,-117.84 854.16,-98.66 879.74,-85.77"/>
<polygon fill="midnightblue" stroke="midnightblue" points="881.51,-88.79 888.87,-81.17 878.36,-82.54 881.51,-88.79"/>
</g>
<!-- Node53&#45;&gt;Node26 -->
<g id="edge145" class="edge">
<title>Node53&#45;&gt;Node26</title>
<path fill="none" stroke="midnightblue" d="M837.72,-130.42C863.93,-127.63 894.98,-124.7 923.07,-123 1656.13,-78.68 1841.08,-111.37 2575.07,-87 2681.35,-83.47 2807.1,-77.29 2866.19,-74.27"/>
<polygon fill="midnightblue" stroke="midnightblue" points="2866.62,-77.75 2876.43,-73.74 2866.26,-70.76 2866.62,-77.75"/>
</g>
<!-- Node53&#45;&gt;Node29 -->
<g id="edge142" class="edge">
<title>Node53&#45;&gt;Node29</title>
<path fill="none" stroke="midnightblue" d="M775.86,-128.73C774.53,-119.18 772.38,-103.62 770.67,-91.28"/>
<polygon fill="midnightblue" stroke="midnightblue" points="774.1,-90.55 769.27,-81.13 767.17,-91.51 774.1,-90.55"/>
</g>
<!-- Node53&#45;&gt;Node30 -->
<g id="edge143" class="edge">
<title>Node53&#45;&gt;Node30</title>
<path fill="none" stroke="midnightblue" d="M737.95,-128.92C684.74,-117.17 592.33,-96.44 559.07,-87 556.06,-86.15 552.95,-85.21 549.84,-84.23"/>
<polygon fill="midnightblue" stroke="midnightblue" points="550.64,-80.81 540.05,-81.05 548.47,-87.47 550.64,-80.81"/>
</g>
<!-- Node54&#45;&gt;Node2 -->
<g id="edge150" class="edge">
<title>Node54&#45;&gt;Node2</title>
<path fill="none" stroke="midnightblue" d="M1437.62,-658.29C1636.06,-659.21 2398.75,-659.57 2634.07,-613 2981.88,-544.17 3105.66,-556.3 3381.07,-333 3455.34,-272.79 3470.94,-148.94 3474.21,-96.64"/>
<polygon fill="midnightblue" stroke="midnightblue" points="3477.71,-96.79 3474.74,-86.62 3470.72,-96.42 3477.71,-96.79"/>
</g>
<!-- Node54&#45;&gt;Node6 -->
<g id="edge149" class="edge">
<title>Node54&#45;&gt;Node6</title>
<path fill="none" stroke="midnightblue" d="M1378.13,-649.45C1367.15,-641.12 1350.96,-627.61 1340.07,-613 1238.44,-476.7 1158.58,-421.88 1200.07,-257 1208.32,-224.22 1210.15,-211.7 1236.07,-190 1275.51,-156.98 1300.94,-178.67 1346.07,-154 1365.2,-143.54 1364.35,-132.27 1384.07,-123 1388.65,-120.85 1511.44,-97.12 1585.27,-82.97"/>
<polygon fill="midnightblue" stroke="midnightblue" points="1586.18,-86.36 1595.35,-81.04 1584.87,-79.48 1586.18,-86.36"/>
</g>
<!-- Node54&#45;&gt;Node8 -->
<g id="edge151" class="edge">
<title>Node54&#45;&gt;Node8</title>
<path fill="none" stroke="midnightblue" d="M1406.13,-649.46C1467.62,-616.97 1694.54,-499.23 1891.07,-425 1943.96,-405.03 1968.16,-423.34 2013.07,-389 2106.72,-317.4 2111.86,-269.37 2136.07,-154 2140.62,-132.33 2134.61,-107.19 2129.11,-90.63"/>
<polygon fill="midnightblue" stroke="midnightblue" points="2132.36,-89.33 2125.68,-81.1 2125.77,-91.7 2132.36,-89.33"/>
</g>
<!-- Node54&#45;&gt;Node12 -->
<g id="edge152" class="edge">
<title>Node54&#45;&gt;Node12</title>
<path fill="none" stroke="midnightblue" d="M1392.5,-649.24C1397.41,-630.71 1408.07,-586.12 1408.07,-548 1408.07,-548 1408.07,-548 1408.07,-322 1408.07,-286.19 1649.32,-236.02 1755.69,-215.64"/>
<polygon fill="midnightblue" stroke="midnightblue" points="1756.39,-219.08 1765.55,-213.77 1755.08,-212.2 1756.39,-219.08"/>
</g>
<!-- Node54&#45;&gt;Node25 -->
<g id="edge163" class="edge">
<title>Node54&#45;&gt;Node25</title>
<path fill="none" stroke="midnightblue" d="M1370.02,-649.36C1321.07,-628.45 1191.33,-574.1 1080.07,-537 657.29,-396.02 114.07,-713.67 114.07,-268 114.07,-268 114.07,-268 114.07,-204.5 114.07,-166.74 110.79,-149.11 138.07,-123 162.49,-99.62 258.46,-83.63 309.59,-76.58"/>
<polygon fill="midnightblue" stroke="midnightblue" points="310.33,-80.01 319.78,-75.21 309.4,-73.07 310.33,-80.01"/>
</g>
<!-- Node54&#45;&gt;Node51 -->
<g id="edge162" class="edge">
<title>Node54&#45;&gt;Node51</title>
<path fill="none" stroke="midnightblue" d="M1381.76,-649.41C1365.72,-631.89 1332.07,-590.1 1332.07,-548 1332.07,-548 1332.07,-548 1332.07,-490 1332.07,-410.58 1290.82,-322.27 1271.65,-285.52"/>
<polygon fill="midnightblue" stroke="midnightblue" points="1274.67,-283.75 1266.88,-276.57 1268.5,-287.04 1274.67,-283.75"/>
</g>
<!-- Node54&#45;&gt;Node55 -->
<g id="edge153" class="edge">
<title>Node54&#45;&gt;Node55</title>
<path fill="none" stroke="midnightblue" d="M1437.66,-655.83C1624.84,-647.31 2310.2,-616.11 2516.76,-606.7"/>
<polygon fill="midnightblue" stroke="midnightblue" points="2516.97,-610.19 2526.8,-606.24 2516.66,-603.2 2516.97,-610.19"/>
</g>
<!-- Node55&#45;&gt;Node3 -->
<g id="edge160" class="edge">
<title>Node55&#45;&gt;Node3</title>
<path fill="none" stroke="midnightblue" d="M2540.74,-593.44C2502.16,-584.1 2440.29,-569.12 2398.22,-558.93"/>
<polygon fill="midnightblue" stroke="midnightblue" points="2398.78,-555.47 2388.24,-556.52 2397.14,-562.27 2398.78,-555.47"/>
</g>
<!-- Node55&#45;&gt;Node5 -->
<g id="edge159" class="edge">
<title>Node55&#45;&gt;Node5</title>
<path fill="none" stroke="midnightblue" d="M2554.65,-593.48C2532.59,-584.63 2497.26,-570.24 2467.07,-557 2447.77,-548.53 2443.64,-544.83 2424.07,-537 2392.47,-524.35 2355.76,-512.11 2328.93,-503.59"/>
<polygon fill="midnightblue" stroke="midnightblue" points="2329.75,-500.18 2319.16,-500.52 2327.65,-506.86 2329.75,-500.18"/>
</g>
<!-- Node55&#45;&gt;Node6 -->
<g id="edge154" class="edge">
<title>Node55&#45;&gt;Node6</title>
<path fill="none" stroke="midnightblue" d="M2526.93,-601.41C2412.9,-599.49 2121.67,-591.31 1881.07,-557 1767.49,-540.8 1740.88,-526.74 1629.07,-501 1480.6,-466.81 1419.91,-489.13 1305.07,-389 1250.79,-341.67 1175.48,-319.61 1211.07,-257 1255.29,-179.21 1310.43,-204.84 1384.07,-154 1402.29,-141.42 1403.13,-132.63 1423.07,-123 1437.97,-115.8 1529.89,-95.67 1589.22,-83.1"/>
<polygon fill="midnightblue" stroke="midnightblue" points="1590.11,-86.49 1599.17,-81 1588.66,-79.64 1590.11,-86.49"/>
</g>
<!-- Node55&#45;&gt;Node10 -->
<g id="edge157" class="edge">
<title>Node55&#45;&gt;Node10</title>
<path fill="none" stroke="midnightblue" d="M2604.09,-593.4C2621.25,-586.51 2641.82,-574.98 2652.07,-557 2656.47,-549.28 2654.51,-545.55 2652.07,-537 2622.72,-434.31 2571.92,-428.98 2525.07,-333 2481.46,-243.67 2500.52,-207.45 2448.07,-123 2439.91,-109.86 2427.94,-97.26 2417.99,-87.92"/>
<polygon fill="midnightblue" stroke="midnightblue" points="2420.31,-85.31 2410.55,-81.19 2415.62,-90.5 2420.31,-85.31"/>
</g>
<!-- Node55&#45;&gt;Node21 -->
<g id="edge156" class="edge">
<title>Node55&#45;&gt;Node21</title>
<path fill="none" stroke="midnightblue" d="M2602.7,-593.46C2688.68,-565.73 2966.34,-475.1 3192.07,-389 3290.54,-351.44 3353.84,-371.21 3401.07,-277 3437.53,-204.27 3346.89,-120.82 3304.97,-87.44"/>
<polygon fill="midnightblue" stroke="midnightblue" points="3306.87,-84.48 3296.83,-81.1 3302.57,-90 3306.87,-84.48"/>
</g>
<!-- Node55&#45;&gt;Node46 -->
<g id="edge158" class="edge">
<title>Node55&#45;&gt;Node46</title>
<path fill="none" stroke="midnightblue" d="M2551.19,-593.38C2522.79,-582.15 2482.42,-561.09 2500.07,-537 2531.48,-494.14 2570.33,-531.16 2614.07,-501 2649.52,-476.55 2827.55,-237.64 2883.33,-162.2"/>
<polygon fill="midnightblue" stroke="midnightblue" points="2886.39,-163.96 2889.51,-153.84 2880.75,-159.8 2886.39,-163.96"/>
</g>
<!-- Node55&#45;&gt;Node51 -->
<g id="edge161" class="edge">
<title>Node55&#45;&gt;Node51</title>
<path fill="none" stroke="midnightblue" d="M2526.67,-600.38C2392.6,-595.11 2011.3,-574.28 1704.07,-501 1634.04,-484.3 1616.88,-476.35 1552.07,-445 1446.04,-393.72 1328.97,-314.74 1282.6,-282.48"/>
<polygon fill="midnightblue" stroke="midnightblue" points="1284.5,-279.53 1274.3,-276.67 1280.49,-285.27 1284.5,-279.53"/>
</g>
<!-- Node56 -->
<g id="node56" class="node">
<title>Node56</title>
<g id="a_node56"><a xlink:title=" ">
<polygon fill="white" stroke="#bfbfbf" points="2509.07,-537.5 2509.07,-556.5 2643.07,-556.5 2643.07,-537.5 2509.07,-537.5"/>
<text text-anchor="middle" x="2576.07" y="-544.5" font-family="Helvetica,sans-Serif" font-size="10.00">tvm/ffi/container/tuple.h</text>
</a>
</g>
</g>
<!-- Node55&#45;&gt;Node56 -->
<g id="edge155" class="edge">
<title>Node55&#45;&gt;Node56</title>
<path fill="none" stroke="midnightblue" d="M2576.07,-593.08C2576.07,-586.01 2576.07,-575.86 2576.07,-566.99"/>
<polygon fill="midnightblue" stroke="midnightblue" points="2579.57,-566.75 2576.07,-556.75 2572.57,-566.75 2579.57,-566.75"/>
</g>
</g>
</svg>
