<?xml version="1.0" encoding="UTF-8" standalone="no"?>
<!DOCTYPE svg PUBLIC "-//W3C//DTD SVG 1.1//EN"
 "http://www.w3.org/Graphics/SVG/1.1/DTD/svg11.dtd">
<!-- Generated by graphviz version 2.43.0 (0)
 -->
<!-- Title: include/tvm/tirx/tirx_stmt.h Pages: 1 -->
<svg width="3938pt" height="856pt"
 viewBox="0.00 0.00 3937.79 856.00" xmlns="http://www.w3.org/2000/svg" xmlns:xlink="http://www.w3.org/1999/xlink">
<g id="graph0" class="graph" transform="scale(1 1) rotate(0) translate(4 852)">
<title>include/tvm/tirx/tirx_stmt.h</title>
<polygon fill="white" stroke="transparent" points="-4,4 -4,-852 3933.79,-852 3933.79,4 -4,4"/>
<!-- Node1 -->
<g id="node1" class="node">
<title>Node1</title>
<g id="a_node1"><a xlink:title=" ">
<polygon fill="#bfbfbf" stroke="black" points="3621.92,-817.5 3621.92,-847.5 3734.92,-847.5 3734.92,-817.5 3621.92,-817.5"/>
<text text-anchor="start" x="3629.92" y="-835.5" font-family="Helvetica,sans-Serif" font-size="10.00">include/tvm/tirx/tirx</text>
<text text-anchor="middle" x="3678.42" y="-824.5" font-family="Helvetica,sans-Serif" font-size="10.00">_stmt.h</text>
</a>
</g>
</g>
<!-- Node2 -->
<g id="node2" class="node">
<title>Node2</title>
<g id="a_node2"><a xlink:href="ir_2op_8h.html" target="_top" xlink:title="Primitive operators(builtin intrinsics) and registry for them.">
<polygon fill="white" stroke="black" points="2478.42,-313.5 2478.42,-332.5 2548.42,-332.5 2548.42,-313.5 2478.42,-313.5"/>
<text text-anchor="middle" x="2513.42" y="-320.5" font-family="Helvetica,sans-Serif" font-size="10.00">tvm/ir/op.h</text>
</a>
</g>
</g>
<!-- Node1&#45;&gt;Node2 -->
<g id="edge1" class="edge">
<title>Node1&#45;&gt;Node2</title>
<path fill="none" stroke="midnightblue" d="M3685.27,-817.17C3695.79,-792.98 3713.06,-743 3696.42,-705 3652.27,-604.16 3612.19,-587.59 3514.42,-537 3177.28,-362.53 2705.66,-330.92 2558.86,-325.23"/>
<polygon fill="midnightblue" stroke="midnightblue" points="2558.57,-321.72 2548.45,-324.86 2558.32,-328.72 2558.57,-321.72"/>
</g>
<!-- Node36 -->
<g id="node36" class="node">
<title>Node36</title>
<g id="a_node36"><a xlink:href="tirx_2stmt_8h.html" target="_top" xlink:title="TIR statements.">
<polygon fill="white" stroke="black" points="3558.42,-761.5 3558.42,-780.5 3648.42,-780.5 3648.42,-761.5 3558.42,-761.5"/>
<text text-anchor="middle" x="3603.42" y="-768.5" font-family="Helvetica,sans-Serif" font-size="10.00">tvm/tirx/stmt.h</text>
</a>
</g>
</g>
<!-- Node1&#45;&gt;Node36 -->
<g id="edge68" class="edge">
<title>Node1&#45;&gt;Node36</title>
<path fill="none" stroke="midnightblue" d="M3660.65,-817.4C3649.08,-808.22 3634,-796.26 3622.23,-786.92"/>
<polygon fill="midnightblue" stroke="midnightblue" points="3624.35,-784.13 3614.34,-780.66 3620,-789.61 3624.35,-784.13"/>
</g>
<!-- Node3 -->
<g id="node3" class="node">
<title>Node3</title>
<g id="a_node3"><a xlink:title=" ">
<polygon fill="white" stroke="#bfbfbf" points="1173.92,-62 1173.92,-81 1256.92,-81 1256.92,-62 1173.92,-62"/>
<text text-anchor="middle" x="1215.42" y="-69" font-family="Helvetica,sans-Serif" font-size="10.00">tvm/ffi/error.h</text>
</a>
</g>
</g>
<!-- Node2&#45;&gt;Node3 -->
<g id="edge2" class="edge">
<title>Node2&#45;&gt;Node3</title>
<path fill="none" stroke="midnightblue" d="M2478.17,-316.92C2350.63,-298.62 1901.2,-234.78 1529.42,-190 1454.65,-180.99 1242.77,-210.01 1192.42,-154 1176.35,-136.12 1190.19,-107.84 1202.29,-89.73"/>
<polygon fill="midnightblue" stroke="midnightblue" points="1205.35,-91.48 1208.29,-81.3 1199.64,-87.42 1205.35,-91.48"/>
</g>
<!-- Node4 -->
<g id="node4" class="node">
<title>Node4</title>
<g id="a_node4"><a xlink:title=" ">
<polygon fill="white" stroke="#bfbfbf" points="2984.92,-62 2984.92,-81 3085.92,-81 3085.92,-62 2984.92,-62"/>
<text text-anchor="middle" x="3035.42" y="-69" font-family="Helvetica,sans-Serif" font-size="10.00">tvm/ffi/function.h</text>
</a>
</g>
</g>
<!-- Node2&#45;&gt;Node4 -->
<g id="edge3" class="edge">
<title>Node2&#45;&gt;Node4</title>
<path fill="none" stroke="midnightblue" d="M2548.55,-320.88C2668.79,-316.85 3063.26,-302.01 3187.42,-277 3298.38,-254.65 3370,-259.72 3410.42,-154 3415.34,-141.13 3419.49,-133.37 3410.42,-123 3390.07,-99.72 3196.81,-83.37 3095.99,-76.34"/>
<polygon fill="midnightblue" stroke="midnightblue" points="3096.15,-72.85 3085.94,-75.65 3095.67,-79.83 3096.15,-72.85"/>
</g>
<!-- Node5 -->
<g id="node5" class="node">
<title>Node5</title>
<g id="a_node5"><a xlink:title=" ">
<polygon fill="white" stroke="#bfbfbf" points="2805.42,-56.5 2805.42,-86.5 2903.42,-86.5 2903.42,-56.5 2805.42,-56.5"/>
<text text-anchor="start" x="2813.42" y="-74.5" font-family="Helvetica,sans-Serif" font-size="10.00">tvm/ffi/reflection</text>
<text text-anchor="middle" x="2854.42" y="-63.5" font-family="Helvetica,sans-Serif" font-size="10.00">/registry.h</text>
</a>
</g>
</g>
<!-- Node2&#45;&gt;Node5 -->
<g id="edge4" class="edge">
<title>Node2&#45;&gt;Node5</title>
<path fill="none" stroke="midnightblue" d="M2529.95,-313.37C2546.65,-304.55 2573.1,-290.29 2595.42,-277 2634.94,-253.48 2644.02,-246.3 2682.42,-221 2703.01,-207.44 2706.22,-200.71 2728.42,-190 2776.28,-166.92 2807.97,-194.45 2842.42,-154 2855.71,-138.4 2857.88,-114.74 2857.22,-96.92"/>
<polygon fill="midnightblue" stroke="midnightblue" points="2860.7,-96.44 2856.52,-86.71 2853.71,-96.92 2860.7,-96.44"/>
</g>
<!-- Node6 -->
<g id="node6" class="node">
<title>Node6</title>
<g id="a_node6"><a xlink:href="attr__registry__map_8h.html" target="_top" xlink:title="Attribute map used in registry.">
<polygon fill="white" stroke="black" points="2301.92,-123.5 2301.92,-153.5 2410.92,-153.5 2410.92,-123.5 2301.92,-123.5"/>
<text text-anchor="start" x="2309.92" y="-141.5" font-family="Helvetica,sans-Serif" font-size="10.00">tvm/ir/attr_registry</text>
<text text-anchor="middle" x="2356.42" y="-130.5" font-family="Helvetica,sans-Serif" font-size="10.00">_map.h</text>
</a>
</g>
</g>
<!-- Node2&#45;&gt;Node6 -->
<g id="edge5" class="edge">
<title>Node2&#45;&gt;Node6</title>
<path fill="none" stroke="midnightblue" d="M2478.19,-313.87C2444.47,-305.38 2396.95,-291.34 2384.42,-277 2356.73,-245.3 2353.67,-193.76 2354.6,-163.59"/>
<polygon fill="midnightblue" stroke="midnightblue" points="2358.1,-163.68 2355.08,-153.53 2351.11,-163.34 2358.1,-163.68"/>
</g>
<!-- Node8 -->
<g id="node8" class="node">
<title>Node8</title>
<g id="a_node8"><a xlink:title=" ">
<polygon fill="white" stroke="#bfbfbf" points="2921.92,-62 2921.92,-81 2966.92,-81 2966.92,-62 2921.92,-62"/>
<text text-anchor="middle" x="2944.42" y="-69" font-family="Helvetica,sans-Serif" font-size="10.00">utility</text>
</a>
</g>
</g>
<!-- Node2&#45;&gt;Node8 -->
<g id="edge66" class="edge">
<title>Node2&#45;&gt;Node8</title>
<path fill="none" stroke="midnightblue" d="M2548.47,-322.26C2643,-322.35 2910.76,-318.62 3128.42,-277 3209.88,-261.43 3232.78,-259.13 3306.42,-221 3350.08,-198.4 3372.6,-198.05 3394.42,-154 3400.54,-141.65 3403.74,-133.15 3394.42,-123 3331.39,-54.3 3066.63,-110.58 2976.42,-87 2974.27,-86.44 2972.07,-85.74 2969.9,-84.95"/>
<polygon fill="midnightblue" stroke="midnightblue" points="2971.22,-81.71 2960.64,-81.13 2968.55,-88.18 2971.22,-81.71"/>
</g>
<!-- Node9 -->
<g id="node9" class="node">
<title>Node9</title>
<g id="a_node9"><a xlink:title=" ">
<polygon fill="white" stroke="#bfbfbf" points="2234.92,-62 2234.92,-81 2281.92,-81 2281.92,-62 2234.92,-62"/>
<text text-anchor="middle" x="2258.42" y="-69" font-family="Helvetica,sans-Serif" font-size="10.00">vector</text>
</a>
</g>
</g>
<!-- Node2&#45;&gt;Node9 -->
<g id="edge67" class="edge">
<title>Node2&#45;&gt;Node9</title>
<path fill="none" stroke="midnightblue" d="M2500.27,-313.35C2478.16,-297.91 2434.29,-263.24 2417.42,-221 2401.26,-180.53 2446.25,-158.1 2420.42,-123 2391.06,-83.09 2330.36,-73.82 2292.17,-72.16"/>
<polygon fill="midnightblue" stroke="midnightblue" points="2292.13,-68.66 2282.04,-71.88 2291.93,-75.66 2292.13,-68.66"/>
</g>
<!-- Node10 -->
<g id="node10" class="node">
<title>Node10</title>
<g id="a_node10"><a xlink:href="attrs_8h.html" target="_top" xlink:title="Helpers for attribute objects.">
<polygon fill="white" stroke="black" points="3039.42,-257.5 3039.42,-276.5 3119.42,-276.5 3119.42,-257.5 3039.42,-257.5"/>
<text text-anchor="middle" x="3079.42" y="-264.5" font-family="Helvetica,sans-Serif" font-size="10.00">tvm/ir/attrs.h</text>
</a>
</g>
</g>
<!-- Node2&#45;&gt;Node10 -->
<g id="edge9" class="edge">
<title>Node2&#45;&gt;Node10</title>
<path fill="none" stroke="midnightblue" d="M2548.83,-318.62C2645.87,-309.36 2916.35,-283.56 3029.09,-272.8"/>
<polygon fill="midnightblue" stroke="midnightblue" points="3029.56,-276.27 3039.18,-271.84 3028.89,-269.31 3029.56,-276.27"/>
</g>
<!-- Node16 -->
<g id="node16" class="node">
<title>Node16</title>
<g id="a_node16"><a xlink:href="ir_2expr_8h.html" target="_top" xlink:title="Base expr nodes in TVM.">
<polygon fill="white" stroke="black" points="1129.92,-196 1129.92,-215 1208.92,-215 1208.92,-196 1129.92,-196"/>
<text text-anchor="middle" x="1169.42" y="-203" font-family="Helvetica,sans-Serif" font-size="10.00">tvm/ir/expr.h</text>
</a>
</g>
</g>
<!-- Node2&#45;&gt;Node16 -->
<g id="edge56" class="edge">
<title>Node2&#45;&gt;Node16</title>
<path fill="none" stroke="midnightblue" d="M2478.33,-321.36C2303.96,-318.06 1534.99,-302.17 1431.42,-277 1410.94,-272.02 1408.4,-263.73 1388.42,-257 1317.3,-233.03 1296.36,-238.74 1223.42,-221 1219.06,-219.94 1214.51,-218.79 1209.99,-217.61"/>
<polygon fill="midnightblue" stroke="midnightblue" points="1210.76,-214.2 1200.2,-215.03 1208.98,-220.97 1210.76,-214.2"/>
</g>
<!-- Node23 -->
<g id="node23" class="node">
<title>Node23</title>
<g id="a_node23"><a xlink:title=" ">
<polygon fill="white" stroke="#bfbfbf" points="423.42,-62 423.42,-81 467.42,-81 467.42,-62 423.42,-62"/>
<text text-anchor="middle" x="445.42" y="-69" font-family="Helvetica,sans-Serif" font-size="10.00">string</text>
</a>
</g>
</g>
<!-- Node2&#45;&gt;Node23 -->
<g id="edge65" class="edge">
<title>Node2&#45;&gt;Node23</title>
<path fill="none" stroke="midnightblue" d="M2478.25,-321.61C2339.21,-319.84 1814.63,-311.15 1384.42,-277 1174.72,-260.35 1122.93,-248.94 914.42,-221 814.22,-207.57 538.76,-222.53 464.42,-154 447.26,-138.18 444.16,-110.12 444.23,-91.41"/>
<polygon fill="midnightblue" stroke="midnightblue" points="447.73,-91.28 444.58,-81.16 440.74,-91.04 447.73,-91.28"/>
</g>
<!-- Node33 -->
<g id="node33" class="node">
<title>Node33</title>
<g id="a_node33"><a xlink:href="env__func_8h.html" target="_top" xlink:title="Serializable global function used in IR.">
<polygon fill="white" stroke="black" points="2731.42,-129 2731.42,-148 2833.42,-148 2833.42,-129 2731.42,-129"/>
<text text-anchor="middle" x="2782.42" y="-136" font-family="Helvetica,sans-Serif" font-size="10.00">tvm/ir/env_func.h</text>
</a>
</g>
</g>
<!-- Node2&#45;&gt;Node33 -->
<g id="edge50" class="edge">
<title>Node2&#45;&gt;Node33</title>
<path fill="none" stroke="midnightblue" d="M2523.83,-313.43C2550.59,-291.58 2624.32,-232.5 2690.42,-190 2711.83,-176.24 2737.26,-162.46 2755.95,-152.78"/>
<polygon fill="midnightblue" stroke="midnightblue" points="2757.75,-155.79 2765.06,-148.12 2754.56,-149.56 2757.75,-155.79"/>
</g>
<!-- Node34 -->
<g id="node34" class="node">
<title>Node34</title>
<g id="a_node34"><a xlink:href="ir_2type_8h.html" target="_top" xlink:title="IR/AST nodes for the unified type system in TVM.">
<polygon fill="white" stroke="black" points="1440.42,-257.5 1440.42,-276.5 1520.42,-276.5 1520.42,-257.5 1440.42,-257.5"/>
<text text-anchor="middle" x="1480.42" y="-264.5" font-family="Helvetica,sans-Serif" font-size="10.00">tvm/ir/type.h</text>
</a>
</g>
</g>
<!-- Node2&#45;&gt;Node34 -->
<g id="edge57" class="edge">
<title>Node2&#45;&gt;Node34</title>
<path fill="none" stroke="midnightblue" d="M2478.16,-320.16C2324.24,-312.11 1710.85,-280.05 1530.53,-270.62"/>
<polygon fill="midnightblue" stroke="midnightblue" points="1530.69,-267.12 1520.52,-270.1 1530.32,-274.11 1530.69,-267.12"/>
</g>
<!-- Node7 -->
<g id="node7" class="node">
<title>Node7</title>
<g id="a_node7"><a xlink:title=" ">
<polygon fill="white" stroke="#bfbfbf" points="1878.92,-62 1878.92,-81 1967.92,-81 1967.92,-62 1878.92,-62"/>
<text text-anchor="middle" x="1923.42" y="-69" font-family="Helvetica,sans-Serif" font-size="10.00">tvm/ffi/string.h</text>
</a>
</g>
</g>
<!-- Node6&#45;&gt;Node7 -->
<g id="edge6" class="edge">
<title>Node6&#45;&gt;Node7</title>
<path fill="none" stroke="midnightblue" d="M2301.88,-125.67C2297,-124.73 2292.13,-123.82 2287.42,-123 2178.24,-103.98 2049.64,-87.52 1978.24,-78.9"/>
<polygon fill="midnightblue" stroke="midnightblue" points="1978.47,-75.41 1968.13,-77.69 1977.64,-82.36 1978.47,-75.41"/>
</g>
<!-- Node6&#45;&gt;Node8 -->
<g id="edge7" class="edge">
<title>Node6&#45;&gt;Node8</title>
<path fill="none" stroke="midnightblue" d="M2410.97,-133.04C2546.32,-121.91 2888.41,-93.34 2912.42,-87 2914.58,-86.43 2916.77,-85.73 2918.95,-84.94"/>
<polygon fill="midnightblue" stroke="midnightblue" points="2920.3,-88.17 2928.2,-81.12 2917.62,-81.7 2920.3,-88.17"/>
</g>
<!-- Node6&#45;&gt;Node9 -->
<g id="edge8" class="edge">
<title>Node6&#45;&gt;Node9</title>
<path fill="none" stroke="midnightblue" d="M2335.16,-123.4C2318.73,-112.5 2296.08,-97.48 2279.66,-86.58"/>
<polygon fill="midnightblue" stroke="midnightblue" points="2281.52,-83.62 2271.25,-81.01 2277.65,-89.45 2281.52,-83.62"/>
</g>
<!-- Node10&#45;&gt;Node4 -->
<g id="edge13" class="edge">
<title>Node10&#45;&gt;Node4</title>
<path fill="none" stroke="midnightblue" d="M3119.7,-262.49C3221.54,-252.16 3475.69,-216.49 3394.42,-123 3375.16,-100.83 3193.16,-84.15 3095.95,-76.73"/>
<polygon fill="midnightblue" stroke="midnightblue" points="3096.2,-73.24 3085.96,-75.98 3095.67,-80.22 3096.2,-73.24"/>
</g>
<!-- Node10&#45;&gt;Node5 -->
<g id="edge14" class="edge">
<title>Node10&#45;&gt;Node5</title>
<path fill="none" stroke="midnightblue" d="M3039.04,-261.78C2978.75,-253.96 2876.15,-233.83 2914.42,-190 2992.61,-100.48 3101.24,-243.52 3179.42,-154 3188.49,-143.62 3188.49,-133.38 3179.42,-123 3140.18,-78.08 2972.03,-98.13 2913.42,-87 2913.32,-86.98 2913.22,-86.96 2913.12,-86.94"/>
<polygon fill="midnightblue" stroke="midnightblue" points="2914.09,-83.57 2903.59,-85 2912.69,-90.43 2914.09,-83.57"/>
</g>
<!-- Node10&#45;&gt;Node8 -->
<g id="edge49" class="edge">
<title>Node10&#45;&gt;Node8</title>
<path fill="none" stroke="midnightblue" d="M3119.63,-261.87C3147.49,-256.84 3183.26,-245.7 3204.42,-221 3233.01,-187.64 3246.11,-156.28 3217.42,-123 3182.08,-81.98 3028.36,-102.32 2976.42,-87 2974.49,-86.43 2972.53,-85.77 2970.57,-85.04"/>
<polygon fill="midnightblue" stroke="midnightblue" points="2971.61,-81.68 2961.03,-81.08 2968.92,-88.15 2971.61,-81.68"/>
</g>
<!-- Node11 -->
<g id="node11" class="node">
<title>Node11</title>
<g id="a_node11"><a xlink:title=" ">
<polygon fill="white" stroke="#bfbfbf" points="3727.92,-62 3727.92,-81 3858.92,-81 3858.92,-62 3727.92,-62"/>
<text text-anchor="middle" x="3793.42" y="-69" font-family="Helvetica,sans-Serif" font-size="10.00">tvm/ffi/container/map.h</text>
</a>
</g>
</g>
<!-- Node10&#45;&gt;Node11 -->
<g id="edge10" class="edge">
<title>Node10&#45;&gt;Node11</title>
<path fill="none" stroke="midnightblue" d="M3119.57,-262.46C3177.42,-256.79 3287.3,-243.93 3378.42,-221 3527.36,-183.52 3697.84,-113.54 3764.54,-85.05"/>
<polygon fill="midnightblue" stroke="midnightblue" points="3766.17,-88.16 3773.98,-81 3763.41,-81.73 3766.17,-88.16"/>
</g>
<!-- Node12 -->
<g id="node12" class="node">
<title>Node12</title>
<g id="a_node12"><a xlink:title=" ">
<polygon fill="white" stroke="#bfbfbf" points="2922.92,-190.5 2922.92,-220.5 3049.92,-220.5 3049.92,-190.5 2922.92,-190.5"/>
<text text-anchor="start" x="2930.92" y="-208.5" font-family="Helvetica,sans-Serif" font-size="10.00">tvm/ffi/extra/structural</text>
<text text-anchor="middle" x="2986.42" y="-197.5" font-family="Helvetica,sans-Serif" font-size="10.00">_equal.h</text>
</a>
</g>
</g>
<!-- Node10&#45;&gt;Node12 -->
<g id="edge11" class="edge">
<title>Node10&#45;&gt;Node12</title>
<path fill="none" stroke="midnightblue" d="M3066.1,-257.48C3053.39,-249.34 3033.77,-236.79 3017.18,-226.18"/>
<polygon fill="midnightblue" stroke="midnightblue" points="3018.65,-222.96 3008.34,-220.52 3014.88,-228.86 3018.65,-222.96"/>
</g>
<!-- Node13 -->
<g id="node13" class="node">
<title>Node13</title>
<g id="a_node13"><a xlink:title=" ">
<polygon fill="white" stroke="#bfbfbf" points="3067.92,-190.5 3067.92,-220.5 3194.92,-220.5 3194.92,-190.5 3067.92,-190.5"/>
<text text-anchor="start" x="3075.92" y="-208.5" font-family="Helvetica,sans-Serif" font-size="10.00">tvm/ffi/extra/structural</text>
<text text-anchor="middle" x="3131.42" y="-197.5" font-family="Helvetica,sans-Serif" font-size="10.00">_hash.h</text>
</a>
</g>
</g>
<!-- Node10&#45;&gt;Node13 -->
<g id="edge12" class="edge">
<title>Node10&#45;&gt;Node13</title>
<path fill="none" stroke="midnightblue" d="M3086.87,-257.48C3093.52,-249.87 3103.55,-238.4 3112.4,-228.26"/>
<polygon fill="midnightblue" stroke="midnightblue" points="3115.22,-230.36 3119.17,-220.52 3109.95,-225.75 3115.22,-230.36"/>
</g>
<!-- Node14 -->
<g id="node14" class="node">
<title>Node14</title>
<g id="a_node14"><a xlink:href="cow_8h.html" target="_top" xlink:title="Copy&#45;on&#45;write helper macro for IR ffi::ObjectRef types.">
<polygon fill="white" stroke="black" points="3307.92,-129 3307.92,-148 3384.92,-148 3384.92,-129 3307.92,-129"/>
<text text-anchor="middle" x="3346.42" y="-136" font-family="Helvetica,sans-Serif" font-size="10.00">tvm/ir/cow.h</text>
</a>
</g>
</g>
<!-- Node10&#45;&gt;Node14 -->
<g id="edge15" class="edge">
<title>Node10&#45;&gt;Node14</title>
<path fill="none" stroke="midnightblue" d="M3119.67,-264.01C3161.31,-260.37 3226.91,-250.07 3275.42,-221 3302.02,-205.06 3323.85,-175.76 3336,-156.97"/>
<polygon fill="midnightblue" stroke="midnightblue" points="3339.13,-158.57 3341.44,-148.23 3333.18,-154.87 3339.13,-158.57"/>
</g>
<!-- Node10&#45;&gt;Node16 -->
<g id="edge18" class="edge">
<title>Node10&#45;&gt;Node16</title>
<path fill="none" stroke="midnightblue" d="M3039.23,-265.32C2854.93,-262.12 2072.11,-247.57 1430.42,-221 1356.88,-217.95 1271.76,-212.95 1219.26,-209.69"/>
<polygon fill="midnightblue" stroke="midnightblue" points="1219.4,-206.19 1209.2,-209.06 1218.97,-213.18 1219.4,-206.19"/>
</g>
<!-- Node10&#45;&gt;Node23 -->
<g id="edge46" class="edge">
<title>Node10&#45;&gt;Node23</title>
<path fill="none" stroke="midnightblue" d="M3039.4,-265.29C2889.37,-262.46 2346.13,-250.66 1899.42,-221 1860.06,-218.39 1230.84,-162.99 1192.42,-154 1154.89,-145.21 1149.1,-131.14 1111.42,-123 849.86,-66.52 775.41,-124.25 510.42,-87 499.6,-85.48 487.92,-83.11 477.47,-80.72"/>
<polygon fill="midnightblue" stroke="midnightblue" points="478.06,-77.26 467.53,-78.35 476.44,-84.07 478.06,-77.26"/>
</g>
<!-- Node28 -->
<g id="node28" class="node">
<title>Node28</title>
<g id="a_node28"><a xlink:title=" ">
<polygon fill="white" stroke="#bfbfbf" points="1335.92,-62 1335.92,-81 1404.92,-81 1404.92,-62 1335.92,-62"/>
<text text-anchor="middle" x="1370.42" y="-69" font-family="Helvetica,sans-Serif" font-size="10.00">type_traits</text>
</a>
</g>
</g>
<!-- Node10&#45;&gt;Node28 -->
<g id="edge47" class="edge">
<title>Node10&#45;&gt;Node28</title>
<path fill="none" stroke="midnightblue" d="M3039.28,-265.43C2871.01,-262.84 2221.77,-251.09 2019.42,-221 1964.94,-212.9 1953.72,-199.3 1899.42,-190 1716.95,-158.74 1657.98,-218.45 1484.42,-154 1462.34,-145.8 1460.58,-136.72 1441.42,-123 1424.48,-110.86 1405.2,-97.16 1391.01,-87.09"/>
<polygon fill="midnightblue" stroke="midnightblue" points="1392.68,-83.99 1382.5,-81.05 1388.63,-89.69 1392.68,-83.99"/>
</g>
<!-- Node32 -->
<g id="node32" class="node">
<title>Node32</title>
<g id="a_node32"><a xlink:title=" ">
<polygon fill="white" stroke="#bfbfbf" points="3232.92,-62 3232.92,-81 3325.92,-81 3325.92,-62 3232.92,-62"/>
<text text-anchor="middle" x="3279.42" y="-69" font-family="Helvetica,sans-Serif" font-size="10.00">unordered_map</text>
</a>
</g>
</g>
<!-- Node10&#45;&gt;Node32 -->
<g id="edge48" class="edge">
<title>Node10&#45;&gt;Node32</title>
<path fill="none" stroke="midnightblue" d="M3119.56,-263.75C3152.79,-259.81 3199.13,-249.21 3228.42,-221 3265.14,-185.63 3275.43,-122.68 3278.31,-91.33"/>
<polygon fill="midnightblue" stroke="midnightblue" points="3281.8,-91.55 3279.07,-81.31 3274.82,-91.02 3281.8,-91.55"/>
</g>
<!-- Node14&#45;&gt;Node8 -->
<g id="edge17" class="edge">
<title>Node14&#45;&gt;Node8</title>
<path fill="none" stroke="midnightblue" d="M3307.49,-131.04C3291.39,-128.43 3272.52,-125.47 3255.42,-123 3131.68,-105.16 3096.69,-121.18 2976.42,-87 2974.49,-86.45 2972.52,-85.8 2970.56,-85.09"/>
<polygon fill="midnightblue" stroke="midnightblue" points="2971.59,-81.73 2961.01,-81.14 2968.92,-88.2 2971.59,-81.73"/>
</g>
<!-- Node15 -->
<g id="node15" class="node">
<title>Node15</title>
<g id="a_node15"><a xlink:title=" ">
<polygon fill="white" stroke="#bfbfbf" points="3481.92,-62 3481.92,-81 3572.92,-81 3572.92,-62 3481.92,-62"/>
<text text-anchor="middle" x="3527.42" y="-69" font-family="Helvetica,sans-Serif" font-size="10.00">tvm/ffi/object.h</text>
</a>
</g>
</g>
<!-- Node14&#45;&gt;Node15 -->
<g id="edge16" class="edge">
<title>Node14&#45;&gt;Node15</title>
<path fill="none" stroke="midnightblue" d="M3370.46,-128.87C3402.19,-117.47 3458.22,-97.35 3494.05,-84.49"/>
<polygon fill="midnightblue" stroke="midnightblue" points="3495.35,-87.74 3503.58,-81.06 3492.98,-81.15 3495.35,-87.74"/>
</g>
<!-- Node16&#45;&gt;Node5 -->
<g id="edge20" class="edge">
<title>Node16&#45;&gt;Node5</title>
<path fill="none" stroke="midnightblue" d="M1209.22,-202.61C1311.87,-197.47 1593.91,-181.76 1827.42,-154 1913.26,-143.79 1933.5,-132.38 2019.42,-123 2296.9,-92.71 2367.86,-104.71 2646.42,-87 2696.55,-83.81 2753.43,-79.82 2795.03,-76.83"/>
<polygon fill="midnightblue" stroke="midnightblue" points="2795.54,-80.31 2805.26,-76.1 2795.04,-73.32 2795.54,-80.31"/>
</g>
<!-- Node16&#45;&gt;Node7 -->
<g id="edge21" class="edge">
<title>Node16&#45;&gt;Node7</title>
<path fill="none" stroke="midnightblue" d="M1209.06,-202.95C1309.02,-198.62 1569.09,-184.67 1649.42,-154 1671.43,-145.6 1670.91,-132.61 1692.42,-123 1723.37,-109.18 1810.46,-92.19 1868.42,-81.86"/>
<polygon fill="midnightblue" stroke="midnightblue" points="1869.29,-85.26 1878.53,-80.07 1868.07,-78.36 1869.29,-85.26"/>
</g>
<!-- Node16&#45;&gt;Node14 -->
<g id="edge22" class="edge">
<title>Node16&#45;&gt;Node14</title>
<path fill="none" stroke="midnightblue" d="M1209.2,-201.92C1260.36,-198.68 1351.98,-193.18 1430.42,-190 2057.67,-164.59 2214.9,-171.03 2842.42,-154 3009.5,-149.47 3207.73,-143.63 3297.69,-140.96"/>
<polygon fill="midnightblue" stroke="midnightblue" points="3297.96,-144.45 3307.86,-140.65 3297.76,-137.45 3297.96,-144.45"/>
</g>
<!-- Node17 -->
<g id="node17" class="node">
<title>Node17</title>
<g id="a_node17"><a xlink:title=" ">
<polygon fill="white" stroke="#bfbfbf" points="895.42,-129 895.42,-148 1031.42,-148 1031.42,-129 895.42,-129"/>
<text text-anchor="middle" x="963.42" y="-136" font-family="Helvetica,sans-Serif" font-size="10.00">tvm/ffi/extra/dataclass.h</text>
</a>
</g>
</g>
<!-- Node16&#45;&gt;Node17 -->
<g id="edge19" class="edge">
<title>Node16&#45;&gt;Node17</title>
<path fill="none" stroke="midnightblue" d="M1142.07,-195.87C1105.57,-184.35 1040.82,-163.92 1000.11,-151.08"/>
<polygon fill="midnightblue" stroke="midnightblue" points="1001.15,-147.74 990.56,-148.06 999.05,-154.41 1001.15,-147.74"/>
</g>
<!-- Node18 -->
<g id="node18" class="node">
<title>Node18</title>
<g id="a_node18"><a xlink:href="source__map_8h.html" target="_top" xlink:title="A map from source names to source code.">
<polygon fill="white" stroke="black" points="1701.92,-129 1701.92,-148 1818.92,-148 1818.92,-129 1701.92,-129"/>
<text text-anchor="middle" x="1760.42" y="-136" font-family="Helvetica,sans-Serif" font-size="10.00">tvm/ir/source_map.h</text>
</a>
</g>
</g>
<!-- Node16&#45;&gt;Node18 -->
<g id="edge23" class="edge">
<title>Node16&#45;&gt;Node18</title>
<path fill="none" stroke="midnightblue" d="M1209.23,-201.97C1296.28,-196.13 1509.99,-180.21 1687.42,-154 1695.15,-152.86 1703.3,-151.45 1711.25,-149.96"/>
<polygon fill="midnightblue" stroke="midnightblue" points="1711.99,-153.38 1721.15,-148.04 1710.66,-146.51 1711.99,-153.38"/>
</g>
<!-- Node16&#45;&gt;Node23 -->
<g id="edge44" class="edge">
<title>Node16&#45;&gt;Node23</title>
<path fill="none" stroke="midnightblue" d="M1129.9,-197.97C1054.69,-185.48 897.47,-158.99 886.42,-154 866.24,-144.89 867.91,-131.4 847.42,-123 708.05,-65.87 659.06,-111.44 510.42,-87 499.64,-85.23 487.96,-82.79 477.52,-80.41"/>
<polygon fill="midnightblue" stroke="midnightblue" points="478.1,-76.96 467.56,-78.09 476.51,-83.77 478.1,-76.96"/>
</g>
<!-- Node24 -->
<g id="node24" class="node">
<title>Node24</title>
<g id="a_node24"><a xlink:href="data__type_8h.html" target="_top" xlink:title=" ">
<polygon fill="white" stroke="black" points="555.42,-129 555.42,-148 693.42,-148 693.42,-129 555.42,-129"/>
<text text-anchor="middle" x="624.42" y="-136" font-family="Helvetica,sans-Serif" font-size="10.00">tvm/runtime/data_type.h</text>
</a>
</g>
</g>
<!-- Node16&#45;&gt;Node24 -->
<g id="edge33" class="edge">
<title>Node16&#45;&gt;Node24</title>
<path fill="none" stroke="midnightblue" d="M1129.65,-197.69C1113.48,-195.06 1094.59,-192.17 1077.42,-190 911.32,-168.96 868.22,-177.32 702.42,-154 693.99,-152.81 685.09,-151.36 676.42,-149.82"/>
<polygon fill="midnightblue" stroke="midnightblue" points="676.88,-146.35 666.41,-148.01 675.63,-153.24 676.88,-146.35"/>
</g>
<!-- Node16&#45;&gt;Node28 -->
<g id="edge45" class="edge">
<title>Node16&#45;&gt;Node28</title>
<path fill="none" stroke="midnightblue" d="M1209.12,-199.77C1260.48,-192.78 1345.74,-177.85 1365.42,-154 1379.77,-136.62 1378.22,-109.39 1374.99,-91.25"/>
<polygon fill="midnightblue" stroke="midnightblue" points="1378.38,-90.36 1372.89,-81.3 1371.53,-91.81 1378.38,-90.36"/>
</g>
<!-- Node29 -->
<g id="node29" class="node">
<title>Node29</title>
<g id="a_node29"><a xlink:title=" ">
<polygon fill="white" stroke="#bfbfbf" points="473.42,-129 473.42,-148 537.42,-148 537.42,-129 473.42,-129"/>
<text text-anchor="middle" x="505.42" y="-136" font-family="Helvetica,sans-Serif" font-size="10.00">algorithm</text>
</a>
</g>
</g>
<!-- Node16&#45;&gt;Node29 -->
<g id="edge41" class="edge">
<title>Node16&#45;&gt;Node29</title>
<path fill="none" stroke="midnightblue" d="M1129.91,-204.82C1030.64,-204.86 763.18,-200.29 546.42,-154 543,-153.27 539.47,-152.33 535.98,-151.27"/>
<polygon fill="midnightblue" stroke="midnightblue" points="537,-147.92 526.4,-148.09 534.79,-154.56 537,-147.92"/>
</g>
<!-- Node30 -->
<g id="node30" class="node">
<title>Node30</title>
<g id="a_node30"><a xlink:title=" ">
<polygon fill="white" stroke="#bfbfbf" points="773.92,-129 773.92,-148 838.92,-148 838.92,-129 773.92,-129"/>
<text text-anchor="middle" x="806.42" y="-136" font-family="Helvetica,sans-Serif" font-size="10.00">functional</text>
</a>
</g>
</g>
<!-- Node16&#45;&gt;Node30 -->
<g id="edge42" class="edge">
<title>Node16&#45;&gt;Node30</title>
<path fill="none" stroke="midnightblue" d="M1129.78,-198.24C1046.43,-185.06 860.14,-155.56 853.42,-154 849.6,-153.11 845.64,-152.07 841.71,-150.97"/>
<polygon fill="midnightblue" stroke="midnightblue" points="842.68,-147.61 832.1,-148.14 840.71,-154.32 842.68,-147.61"/>
</g>
<!-- Node31 -->
<g id="node31" class="node">
<title>Node31</title>
<g id="a_node31"><a xlink:title=" ">
<polygon fill="white" stroke="#bfbfbf" points="711.42,-129 711.42,-148 755.42,-148 755.42,-129 711.42,-129"/>
<text text-anchor="middle" x="733.42" y="-136" font-family="Helvetica,sans-Serif" font-size="10.00">limits</text>
</a>
</g>
</g>
<!-- Node16&#45;&gt;Node31 -->
<g id="edge43" class="edge">
<title>Node16&#45;&gt;Node31</title>
<path fill="none" stroke="midnightblue" d="M1129.63,-197.86C1113.45,-195.25 1094.57,-192.34 1077.42,-190 938.68,-171.1 899.15,-192.16 764.42,-154 762.49,-153.45 760.54,-152.8 758.59,-152.07"/>
<polygon fill="midnightblue" stroke="midnightblue" points="759.71,-148.75 749.13,-148.05 756.96,-155.19 759.71,-148.75"/>
</g>
<!-- Node18&#45;&gt;Node4 -->
<g id="edge25" class="edge">
<title>Node18&#45;&gt;Node4</title>
<path fill="none" stroke="midnightblue" d="M1819.04,-133.91C1871.52,-130.77 1950.59,-126.22 2019.42,-123 2444.59,-103.1 2554.91,-146.1 2976.42,-87 2982.73,-86.12 2989.34,-84.84 2995.77,-83.41"/>
<polygon fill="midnightblue" stroke="midnightblue" points="2996.72,-86.78 3005.64,-81.07 2995.1,-79.97 2996.72,-86.78"/>
</g>
<!-- Node18&#45;&gt;Node5 -->
<g id="edge26" class="edge">
<title>Node18&#45;&gt;Node5</title>
<path fill="none" stroke="midnightblue" d="M1818.51,-128.98C1835.53,-126.74 1854.19,-124.52 1871.42,-123 2214.9,-92.64 2302.19,-106.99 2646.42,-87 2696.56,-84.09 2753.45,-80.07 2795.04,-77.01"/>
<polygon fill="midnightblue" stroke="midnightblue" points="2795.56,-80.48 2805.27,-76.25 2795.04,-73.5 2795.56,-80.48"/>
</g>
<!-- Node18&#45;&gt;Node8 -->
<g id="edge31" class="edge">
<title>Node18&#45;&gt;Node8</title>
<path fill="none" stroke="midnightblue" d="M1819.04,-133.96C1871.53,-130.85 1950.6,-126.31 2019.42,-123 2217.8,-113.45 2719.18,-132.83 2912.42,-87 2914.64,-86.47 2916.89,-85.79 2919.12,-85.01"/>
<polygon fill="midnightblue" stroke="midnightblue" points="2920.65,-88.17 2928.57,-81.13 2917.99,-81.69 2920.65,-88.17"/>
</g>
<!-- Node18&#45;&gt;Node9 -->
<g id="edge32" class="edge">
<title>Node18&#45;&gt;Node9</title>
<path fill="none" stroke="midnightblue" d="M1819.18,-129.82C1836.05,-127.62 1854.47,-125.21 1871.42,-123 2002.16,-105.93 2157.75,-85.63 2224.87,-76.88"/>
<polygon fill="midnightblue" stroke="midnightblue" points="2225.4,-80.34 2234.86,-75.57 2224.5,-73.4 2225.4,-80.34"/>
</g>
<!-- Node19 -->
<g id="node19" class="node">
<title>Node19</title>
<g id="a_node19"><a xlink:title=" ">
<polygon fill="white" stroke="#bfbfbf" points="74.42,-62 74.42,-81 208.42,-81 208.42,-62 74.42,-62"/>
<text text-anchor="middle" x="141.42" y="-69" font-family="Helvetica,sans-Serif" font-size="10.00">tvm/ffi/container/array.h</text>
</a>
</g>
</g>
<!-- Node18&#45;&gt;Node19 -->
<g id="edge24" class="edge">
<title>Node18&#45;&gt;Node19</title>
<path fill="none" stroke="midnightblue" d="M1701.59,-130.68C1675.27,-127.87 1643.83,-124.84 1615.42,-123 1082.53,-88.41 947.98,-109.16 414.42,-87 348.38,-84.26 273.39,-80.21 218.74,-77.08"/>
<polygon fill="midnightblue" stroke="midnightblue" points="218.62,-73.57 208.44,-76.49 218.22,-80.56 218.62,-73.57"/>
</g>
<!-- Node20 -->
<g id="node20" class="node">
<title>Node20</title>
<g id="a_node20"><a xlink:href="runtime_2base_8h.html" target="_top" xlink:title=" ">
<polygon fill="white" stroke="black" points="1636.92,-62 1636.92,-81 1749.92,-81 1749.92,-62 1636.92,-62"/>
<text text-anchor="middle" x="1693.42" y="-69" font-family="Helvetica,sans-Serif" font-size="10.00">tvm/runtime/base.h</text>
</a>
</g>
</g>
<!-- Node18&#45;&gt;Node20 -->
<g id="edge27" class="edge">
<title>Node18&#45;&gt;Node20</title>
<path fill="none" stroke="midnightblue" d="M1751.39,-128.73C1740.74,-118.4 1722.84,-101.04 1709.74,-88.33"/>
<polygon fill="midnightblue" stroke="midnightblue" points="1711.93,-85.58 1702.32,-81.13 1707.06,-90.6 1711.93,-85.58"/>
</g>
<!-- Node22 -->
<g id="node22" class="node">
<title>Node22</title>
<g id="a_node22"><a xlink:title=" ">
<polygon fill="white" stroke="#bfbfbf" points="1767.92,-62 1767.92,-81 1822.92,-81 1822.92,-62 1767.92,-62"/>
<text text-anchor="middle" x="1795.42" y="-69" font-family="Helvetica,sans-Serif" font-size="10.00">fstream</text>
</a>
</g>
</g>
<!-- Node18&#45;&gt;Node22 -->
<g id="edge29" class="edge">
<title>Node18&#45;&gt;Node22</title>
<path fill="none" stroke="midnightblue" d="M1765.14,-128.73C1770.44,-118.89 1779.18,-102.66 1785.92,-90.16"/>
<polygon fill="midnightblue" stroke="midnightblue" points="1789.12,-91.59 1790.78,-81.13 1782.96,-88.27 1789.12,-91.59"/>
</g>
<!-- Node18&#45;&gt;Node23 -->
<g id="edge30" class="edge">
<title>Node18&#45;&gt;Node23</title>
<path fill="none" stroke="midnightblue" d="M1701.59,-130.71C1675.26,-127.91 1643.82,-124.88 1615.42,-123 1125.13,-90.54 997.9,-148.76 510.42,-87 499.58,-85.63 487.89,-83.29 477.45,-80.89"/>
<polygon fill="midnightblue" stroke="midnightblue" points="478.05,-77.44 467.5,-78.5 476.41,-84.24 478.05,-77.44"/>
</g>
<!-- Node21 -->
<g id="node21" class="node">
<title>Node21</title>
<g id="a_node21"><a xlink:title=" ">
<polygon fill="white" stroke="#bfbfbf" points="1650.42,-0.5 1650.42,-19.5 1736.42,-19.5 1736.42,-0.5 1650.42,-0.5"/>
<text text-anchor="middle" x="1693.42" y="-7.5" font-family="Helvetica,sans-Serif" font-size="10.00">tvm/ffi/c_api.h</text>
</a>
</g>
</g>
<!-- Node20&#45;&gt;Node21 -->
<g id="edge28" class="edge">
<title>Node20&#45;&gt;Node21</title>
<path fill="none" stroke="midnightblue" d="M1693.42,-61.98C1693.42,-53.58 1693.42,-40.48 1693.42,-29.66"/>
<polygon fill="midnightblue" stroke="midnightblue" points="1696.92,-29.51 1693.42,-19.51 1689.92,-29.51 1696.92,-29.51"/>
</g>
<!-- Node24&#45;&gt;Node3 -->
<g id="edge36" class="edge">
<title>Node24&#45;&gt;Node3</title>
<path fill="none" stroke="midnightblue" d="M666.82,-128.94C678.34,-126.8 690.83,-124.64 702.42,-123 870.29,-99.18 1070.65,-82.96 1163.47,-76.13"/>
<polygon fill="midnightblue" stroke="midnightblue" points="1164,-79.61 1173.72,-75.39 1163.49,-72.62 1164,-79.61"/>
</g>
<!-- Node24&#45;&gt;Node20 -->
<g id="edge37" class="edge">
<title>Node24&#45;&gt;Node20</title>
<path fill="none" stroke="midnightblue" d="M664.34,-128.93C676.51,-126.63 689.97,-124.39 702.42,-123 1111.3,-77.28 1219.35,-139.35 1627.42,-87 1634.78,-86.06 1642.54,-84.69 1650.04,-83.18"/>
<polygon fill="midnightblue" stroke="midnightblue" points="1651,-86.55 1660.05,-81.04 1649.54,-79.7 1651,-86.55"/>
</g>
<!-- Node24&#45;&gt;Node23 -->
<g id="edge39" class="edge">
<title>Node24&#45;&gt;Node23</title>
<path fill="none" stroke="midnightblue" d="M600.65,-128.87C568.97,-117.36 512.81,-96.97 477.43,-84.12"/>
<polygon fill="midnightblue" stroke="midnightblue" points="478.2,-80.68 467.6,-80.55 475.81,-87.26 478.2,-80.68"/>
</g>
<!-- Node25 -->
<g id="node25" class="node">
<title>Node25</title>
<g id="a_node25"><a xlink:title=" ">
<polygon fill="white" stroke="#bfbfbf" points="519.92,-62 519.92,-81 658.92,-81 658.92,-62 519.92,-62"/>
<text text-anchor="middle" x="589.42" y="-69" font-family="Helvetica,sans-Serif" font-size="10.00">tvm/ffi/container/shape.h</text>
</a>
</g>
</g>
<!-- Node24&#45;&gt;Node25 -->
<g id="edge34" class="edge">
<title>Node24&#45;&gt;Node25</title>
<path fill="none" stroke="midnightblue" d="M619.7,-128.73C614.4,-118.89 605.66,-102.66 598.93,-90.16"/>
<polygon fill="midnightblue" stroke="midnightblue" points="601.89,-88.27 594.07,-81.13 595.73,-91.59 601.89,-88.27"/>
</g>
<!-- Node26 -->
<g id="node26" class="node">
<title>Node26</title>
<g id="a_node26"><a xlink:title=" ">
<polygon fill="white" stroke="#bfbfbf" points="676.92,-62 676.92,-81 765.92,-81 765.92,-62 676.92,-62"/>
<text text-anchor="middle" x="721.42" y="-69" font-family="Helvetica,sans-Serif" font-size="10.00">tvm/ffi/dtype.h</text>
</a>
</g>
</g>
<!-- Node24&#45;&gt;Node26 -->
<g id="edge35" class="edge">
<title>Node24&#45;&gt;Node26</title>
<path fill="none" stroke="midnightblue" d="M637.51,-128.73C653.58,-117.96 681.06,-99.55 700.17,-86.74"/>
<polygon fill="midnightblue" stroke="midnightblue" points="702.19,-89.6 708.55,-81.13 698.29,-83.79 702.19,-89.6"/>
</g>
<!-- Node27 -->
<g id="node27" class="node">
<title>Node27</title>
<g id="a_node27"><a xlink:title=" ">
<polygon fill="white" stroke="#bfbfbf" points="949.42,-62 949.42,-81 999.42,-81 999.42,-62 949.42,-62"/>
<text text-anchor="middle" x="974.42" y="-69" font-family="Helvetica,sans-Serif" font-size="10.00">cstring</text>
</a>
</g>
</g>
<!-- Node24&#45;&gt;Node27 -->
<g id="edge38" class="edge">
<title>Node24&#45;&gt;Node27</title>
<path fill="none" stroke="midnightblue" d="M670.21,-128.99C680.79,-127.02 692,-124.94 702.42,-123 787.47,-107.2 887.47,-88.64 939.29,-79.02"/>
<polygon fill="midnightblue" stroke="midnightblue" points="940.11,-82.43 949.3,-77.16 938.83,-75.55 940.11,-82.43"/>
</g>
<!-- Node24&#45;&gt;Node28 -->
<g id="edge40" class="edge">
<title>Node24&#45;&gt;Node28</title>
<path fill="none" stroke="midnightblue" d="M665.17,-128.97C677.13,-126.73 690.26,-124.51 702.42,-123 951.24,-92.03 1015.96,-112.17 1265.42,-87 1285.2,-85.01 1306.98,-82.11 1325.55,-79.44"/>
<polygon fill="midnightblue" stroke="midnightblue" points="1326.11,-82.89 1335.5,-77.98 1325.1,-75.96 1326.11,-82.89"/>
</g>
<!-- Node33&#45;&gt;Node4 -->
<g id="edge51" class="edge">
<title>Node33&#45;&gt;Node4</title>
<path fill="none" stroke="midnightblue" d="M2815.76,-128.94C2861.08,-117.29 2942.19,-96.45 2992.15,-83.62"/>
<polygon fill="midnightblue" stroke="midnightblue" points="2993.2,-86.96 3002.01,-81.08 2991.46,-80.18 2993.2,-86.96"/>
</g>
<!-- Node33&#45;&gt;Node5 -->
<g id="edge52" class="edge">
<title>Node33&#45;&gt;Node5</title>
<path fill="none" stroke="midnightblue" d="M2792.13,-128.73C2802.15,-119.7 2818.12,-105.27 2831.39,-93.3"/>
<polygon fill="midnightblue" stroke="midnightblue" points="2833.74,-95.89 2838.82,-86.59 2829.05,-90.69 2833.74,-95.89"/>
</g>
<!-- Node33&#45;&gt;Node8 -->
<g id="edge55" class="edge">
<title>Node33&#45;&gt;Node8</title>
<path fill="none" stroke="midnightblue" d="M2805.59,-128.94C2831.71,-119.19 2875.37,-102.58 2912.42,-87 2913.79,-86.42 2915.19,-85.83 2916.6,-85.22"/>
<polygon fill="midnightblue" stroke="midnightblue" points="2918.16,-88.36 2925.89,-81.11 2915.33,-81.95 2918.16,-88.36"/>
</g>
<!-- Node33&#45;&gt;Node20 -->
<g id="edge53" class="edge">
<title>Node33&#45;&gt;Node20</title>
<path fill="none" stroke="midnightblue" d="M2731.94,-128.97C2716.71,-126.68 2699.92,-124.44 2684.42,-123 2274.33,-84.8 2166.86,-140.05 1758.42,-87 1751.17,-86.06 1743.54,-84.7 1736.15,-83.18"/>
<polygon fill="midnightblue" stroke="midnightblue" points="1736.8,-79.74 1726.29,-81.04 1735.32,-86.58 1736.8,-79.74"/>
</g>
<!-- Node33&#45;&gt;Node23 -->
<g id="edge54" class="edge">
<title>Node33&#45;&gt;Node23</title>
<path fill="none" stroke="midnightblue" d="M2733.47,-128.98C2717.84,-126.6 2700.45,-124.31 2684.42,-123 2202.86,-83.56 990.24,-143.89 510.42,-87 499.57,-85.71 487.88,-83.4 477.44,-81"/>
<polygon fill="midnightblue" stroke="midnightblue" points="478.04,-77.54 467.49,-78.59 476.39,-84.34 478.04,-77.54"/>
</g>
<!-- Node34&#45;&gt;Node5 -->
<g id="edge60" class="edge">
<title>Node34&#45;&gt;Node5</title>
<path fill="none" stroke="midnightblue" d="M1520.66,-265.51C1705.59,-263.08 2469.3,-251.28 2571.42,-221 2627.4,-204.4 2636.56,-187.44 2684.42,-154 2702.29,-141.52 2703.56,-133.92 2722.42,-123 2745.75,-109.49 2773.37,-98.28 2797.3,-89.88"/>
<polygon fill="midnightblue" stroke="midnightblue" points="2798.63,-93.12 2806.95,-86.56 2796.36,-86.5 2798.63,-93.12"/>
</g>
<!-- Node34&#45;&gt;Node16 -->
<g id="edge61" class="edge">
<title>Node34&#45;&gt;Node16</title>
<path fill="none" stroke="midnightblue" d="M1440.32,-259.18C1373.41,-247.77 1244.24,-225.61 1223.42,-221 1218.75,-219.97 1213.88,-218.79 1209.05,-217.57"/>
<polygon fill="midnightblue" stroke="midnightblue" points="1209.86,-214.16 1199.3,-215.03 1208.09,-220.94 1209.86,-214.16"/>
</g>
<!-- Node34&#45;&gt;Node18 -->
<g id="edge62" class="edge">
<title>Node34&#45;&gt;Node18</title>
<path fill="none" stroke="midnightblue" d="M1467.26,-257.27C1446.66,-242.57 1411.04,-212.29 1430.42,-190 1468.27,-146.49 1630.56,-163.62 1687.42,-154 1694.61,-152.78 1702.17,-151.4 1709.59,-149.98"/>
<polygon fill="midnightblue" stroke="midnightblue" points="1710.43,-153.39 1719.57,-148.04 1709.09,-146.51 1710.43,-153.39"/>
</g>
<!-- Node34&#45;&gt;Node19 -->
<g id="edge59" class="edge">
<title>Node34&#45;&gt;Node19</title>
<path fill="none" stroke="midnightblue" d="M1440.22,-259.31C1379.09,-248.96 1268.07,-229.39 1251.42,-221 1233.16,-211.8 1235.45,-199.66 1217.42,-190 1159.28,-158.83 1131.33,-185.6 1073.42,-154 1055.76,-144.36 1058.92,-130.93 1040.42,-123 1035.72,-120.98 435.66,-88.39 218.63,-76.66"/>
<polygon fill="midnightblue" stroke="midnightblue" points="218.76,-73.17 208.59,-76.12 218.39,-80.16 218.76,-73.17"/>
</g>
<!-- Node34&#45;&gt;Node23 -->
<g id="edge64" class="edge">
<title>Node34&#45;&gt;Node23</title>
<path fill="none" stroke="midnightblue" d="M1456.15,-257.5C1414.48,-243 1326.57,-212.86 1251.42,-190 1194.07,-172.55 1176.12,-178.54 1121.42,-154 1098.25,-143.6 1097.54,-130.96 1073.42,-123 954.37,-83.72 634.53,-104.7 510.42,-87 499.61,-85.46 487.92,-83.08 477.48,-80.69"/>
<polygon fill="midnightblue" stroke="midnightblue" points="478.07,-77.23 467.53,-78.33 476.45,-84.04 478.07,-77.23"/>
</g>
<!-- Node34&#45;&gt;Node24 -->
<g id="edge63" class="edge">
<title>Node34&#45;&gt;Node24</title>
<path fill="none" stroke="midnightblue" d="M1440.41,-261.46C1373.89,-253.8 1236.41,-237.54 1120.42,-221 934.16,-194.44 887.82,-186.09 702.42,-154 694.97,-152.71 687.12,-151.31 679.39,-149.9"/>
<polygon fill="midnightblue" stroke="midnightblue" points="679.82,-146.41 669.35,-148.05 678.55,-153.3 679.82,-146.41"/>
</g>
<!-- Node35 -->
<g id="node35" class="node">
<title>Node35</title>
<g id="a_node35"><a xlink:title=" ">
<polygon fill="white" stroke="#bfbfbf" points="1439.92,-196 1439.92,-215 1520.92,-215 1520.92,-196 1439.92,-196"/>
<text text-anchor="middle" x="1480.42" y="-203" font-family="Helvetica,sans-Serif" font-size="10.00">tvm/ffi/cast.h</text>
</a>
</g>
</g>
<!-- Node34&#45;&gt;Node35 -->
<g id="edge58" class="edge">
<title>Node34&#45;&gt;Node35</title>
<path fill="none" stroke="midnightblue" d="M1480.42,-257.48C1480.42,-249.08 1480.42,-235.98 1480.42,-225.16"/>
<polygon fill="midnightblue" stroke="midnightblue" points="1483.92,-225.01 1480.42,-215.01 1476.92,-225.01 1483.92,-225.01"/>
</g>
<!-- Node36&#45;&gt;Node5 -->
<g id="edge69" class="edge">
<title>Node36&#45;&gt;Node5</title>
<path fill="none" stroke="midnightblue" d="M3639.09,-761.41C3658.99,-754.76 3682.49,-743.48 3696.42,-725 3729.28,-681.42 3717.42,-658.58 3717.42,-604 3717.42,-604 3717.42,-604 3717.42,-434 3717.42,-334.36 3485.38,-163.68 3394.42,-123 3296.58,-79.24 3019.28,-103.85 2913.42,-87 2913.32,-86.98 2913.22,-86.97 2913.12,-86.95"/>
<polygon fill="midnightblue" stroke="midnightblue" points="2914.02,-83.56 2903.55,-85.22 2912.77,-90.45 2914.02,-83.56"/>
</g>
<!-- Node36&#45;&gt;Node8 -->
<g id="edge184" class="edge">
<title>Node36&#45;&gt;Node8</title>
<path fill="none" stroke="midnightblue" d="M3648.61,-763.3C3733.29,-749.45 3907.42,-714.37 3907.42,-660 3907.42,-660 3907.42,-660 3907.42,-266 3907.42,-164.46 3573.04,-142.71 3473.42,-123 3256.17,-80.02 3191.07,-141.55 2976.42,-87 2974.21,-86.44 2971.97,-85.73 2969.74,-84.93"/>
<polygon fill="midnightblue" stroke="midnightblue" points="2970.88,-81.62 2960.3,-81.03 2968.2,-88.08 2970.88,-81.62"/>
</g>
<!-- Node36&#45;&gt;Node23 -->
<g id="edge182" class="edge">
<title>Node36&#45;&gt;Node23</title>
<path fill="none" stroke="midnightblue" d="M3558.21,-769.84C3144.26,-768.2 27.42,-752.78 27.42,-660 27.42,-660 27.42,-660 27.42,-204.5 27.42,-123.72 314.87,-86.14 413.03,-75.67"/>
<polygon fill="midnightblue" stroke="midnightblue" points="413.66,-79.12 423.25,-74.6 412.94,-72.16 413.66,-79.12"/>
</g>
<!-- Node36&#45;&gt;Node28 -->
<g id="edge183" class="edge">
<title>Node36&#45;&gt;Node28</title>
<path fill="none" stroke="midnightblue" d="M3558.24,-767.91C3236.85,-752.65 1303.7,-654.89 1098.42,-501 1030.34,-449.96 1025.42,-409.09 1025.42,-324 1025.42,-324 1025.42,-324 1025.42,-266 1025.42,-129.06 1307.02,-172.2 1331.42,-154 1351.92,-138.71 1362.13,-109.85 1366.84,-90.9"/>
<polygon fill="midnightblue" stroke="midnightblue" points="1370.27,-91.58 1369.01,-81.06 1363.44,-90.07 1370.27,-91.58"/>
</g>
<!-- Node37 -->
<g id="node37" class="node">
<title>Node37</title>
<g id="a_node37"><a xlink:href="exec__scope_8h.html" target="_top" xlink:title=" ">
<polygon fill="white" stroke="black" points="759.42,-537.5 759.42,-556.5 883.42,-556.5 883.42,-537.5 759.42,-537.5"/>
<text text-anchor="middle" x="821.42" y="-544.5" font-family="Helvetica,sans-Serif" font-size="10.00">tvm/tirx/exec_scope.h</text>
</a>
</g>
</g>
<!-- Node36&#45;&gt;Node37 -->
<g id="edge70" class="edge">
<title>Node36&#45;&gt;Node37</title>
<path fill="none" stroke="midnightblue" d="M3558.22,-770.07C3237.61,-770.43 1312.61,-770.69 1057.42,-725 983.26,-711.72 956.32,-715.98 897.42,-669 862.48,-641.13 839.08,-592.55 828.28,-566.22"/>
<polygon fill="midnightblue" stroke="midnightblue" points="831.46,-564.74 824.54,-556.72 824.95,-567.3 831.46,-564.74"/>
</g>
<!-- Node54 -->
<g id="node54" class="node">
<title>Node54</title>
<g id="a_node54"><a xlink:href="tirx_2expr_8h.html" target="_top" xlink:title="TIR expressions.">
<polygon fill="white" stroke="black" points="1066.92,-705.5 1066.92,-724.5 1155.92,-724.5 1155.92,-705.5 1066.92,-705.5"/>
<text text-anchor="middle" x="1111.42" y="-712.5" font-family="Helvetica,sans-Serif" font-size="10.00">tvm/tirx/expr.h</text>
</a>
</g>
</g>
<!-- Node36&#45;&gt;Node54 -->
<g id="edge142" class="edge">
<title>Node36&#45;&gt;Node54</title>
<path fill="none" stroke="midnightblue" d="M3558.31,-769.02C3253.84,-762.42 1501.13,-724.44 1166.59,-717.2"/>
<polygon fill="midnightblue" stroke="midnightblue" points="1166.27,-713.69 1156.2,-716.97 1166.12,-720.69 1166.27,-713.69"/>
</g>
<!-- Node57 -->
<g id="node57" class="node">
<title>Node57</title>
<g id="a_node57"><a xlink:href="layout_8h.html" target="_top" xlink:title="Definition of layout.">
<polygon fill="white" stroke="black" points="2339.42,-593.5 2339.42,-612.5 2437.42,-612.5 2437.42,-593.5 2339.42,-593.5"/>
<text text-anchor="middle" x="2388.42" y="-600.5" font-family="Helvetica,sans-Serif" font-size="10.00">tvm/tirx/layout.h</text>
</a>
</g>
</g>
<!-- Node36&#45;&gt;Node57 -->
<g id="edge180" class="edge">
<title>Node36&#45;&gt;Node57</title>
<path fill="none" stroke="midnightblue" d="M3604.88,-761.23C3608.07,-738.54 3612.98,-677.64 3579.42,-649 3536,-611.94 2682.11,-605.34 2447.58,-604.22"/>
<polygon fill="midnightblue" stroke="midnightblue" points="2447.55,-600.72 2437.53,-604.17 2447.52,-607.72 2447.55,-600.72"/>
</g>
<!-- Node60 -->
<g id="node60" class="node">
<title>Node60</title>
<g id="a_node60"><a xlink:title=" ">
<polygon fill="white" stroke="#bfbfbf" points="3631.42,-705.5 3631.42,-724.5 3687.42,-724.5 3687.42,-705.5 3631.42,-705.5"/>
<text text-anchor="middle" x="3659.42" y="-712.5" font-family="Helvetica,sans-Serif" font-size="10.00">optional</text>
</a>
</g>
</g>
<!-- Node36&#45;&gt;Node60 -->
<g id="edge181" class="edge">
<title>Node36&#45;&gt;Node60</title>
<path fill="none" stroke="midnightblue" d="M3612.42,-761.32C3620.62,-753.42 3632.93,-741.55 3642.9,-731.94"/>
<polygon fill="midnightblue" stroke="midnightblue" points="3645.49,-734.29 3650.26,-724.83 3640.63,-729.26 3645.49,-734.29"/>
</g>
<!-- Node37&#45;&gt;Node8 -->
<g id="edge141" class="edge">
<title>Node37&#45;&gt;Node8</title>
<path fill="none" stroke="midnightblue" d="M883.5,-546.48C1119.92,-547.5 1986.09,-543.86 2690.42,-445 2814.38,-427.6 2844.25,-416.19 2966.42,-389 3167.11,-344.33 3277.21,-387.78 3397.42,-221 3424.06,-184.05 3458.33,-156.47 3427.42,-123 3393.32,-86.07 3025.1,-99.56 2976.42,-87 2974.22,-86.43 2971.97,-85.72 2969.75,-84.92"/>
<polygon fill="midnightblue" stroke="midnightblue" points="2970.88,-81.6 2960.31,-81 2968.2,-88.07 2970.88,-81.6"/>
</g>
<!-- Node37&#45;&gt;Node23 -->
<g id="edge140" class="edge">
<title>Node37&#45;&gt;Node23</title>
<path fill="none" stroke="midnightblue" d="M805.6,-537.4C730.71,-496.35 413.33,-318.27 361.42,-221 340.91,-182.57 337.78,-160.81 359.42,-123 371.05,-102.69 394.37,-89.75 413.8,-82.06"/>
<polygon fill="midnightblue" stroke="midnightblue" points="415.05,-85.33 423.24,-78.6 412.65,-78.75 415.05,-85.33"/>
</g>
<!-- Node38 -->
<g id="node38" class="node">
<title>Node38</title>
<g id="a_node38"><a xlink:title=" ">
<polygon fill="white" stroke="#bfbfbf" points="777.42,-481.5 777.42,-500.5 921.42,-500.5 921.42,-481.5 777.42,-481.5"/>
<text text-anchor="middle" x="849.42" y="-488.5" font-family="Helvetica,sans-Serif" font-size="10.00">tvm/ffi/container/variant.h</text>
</a>
</g>
</g>
<!-- Node37&#45;&gt;Node38 -->
<g id="edge71" class="edge">
<title>Node37&#45;&gt;Node38</title>
<path fill="none" stroke="midnightblue" d="M826.05,-537.08C829.88,-529.69 835.45,-518.95 840.19,-509.81"/>
<polygon fill="midnightblue" stroke="midnightblue" points="843.39,-511.24 844.89,-500.75 837.18,-508.02 843.39,-511.24"/>
</g>
<!-- Node39 -->
<g id="node39" class="node">
<title>Node39</title>
<g id="a_node39"><a xlink:href="module_8h.html" target="_top" xlink:title="IRModule that holds the functions and type definitions.">
<polygon fill="white" stroke="black" points="1875.92,-481.5 1875.92,-500.5 1970.92,-500.5 1970.92,-481.5 1875.92,-481.5"/>
<text text-anchor="middle" x="1923.42" y="-488.5" font-family="Helvetica,sans-Serif" font-size="10.00">tvm/ir/module.h</text>
</a>
</g>
</g>
<!-- Node37&#45;&gt;Node39 -->
<g id="edge72" class="edge">
<title>Node37&#45;&gt;Node39</title>
<path fill="none" stroke="midnightblue" d="M883.43,-542.96C1078.37,-533.41 1677.05,-504.07 1865.8,-494.82"/>
<polygon fill="midnightblue" stroke="midnightblue" points="1865.98,-498.32 1875.79,-494.33 1865.63,-491.33 1865.98,-498.32"/>
</g>
<!-- Node53 -->
<g id="node53" class="node">
<title>Node53</title>
<g id="a_node53"><a xlink:href="var_8h.html" target="_top" xlink:title="Variables in the TIR.">
<polygon fill="white" stroke="black" points="704.92,-257.5 704.92,-276.5 787.92,-276.5 787.92,-257.5 704.92,-257.5"/>
<text text-anchor="middle" x="746.42" y="-264.5" font-family="Helvetica,sans-Serif" font-size="10.00">tvm/tirx/var.h</text>
</a>
</g>
</g>
<!-- Node37&#45;&gt;Node53 -->
<g id="edge134" class="edge">
<title>Node37&#45;&gt;Node53</title>
<path fill="none" stroke="midnightblue" d="M807.23,-537.37C795.22,-529.37 778.41,-516.39 768.42,-501 752.04,-475.75 749.42,-466.1 749.42,-436 749.42,-436 749.42,-436 749.42,-378 749.42,-345.94 748.13,-308.63 747.25,-286.74"/>
<polygon fill="midnightblue" stroke="midnightblue" points="750.73,-286.4 746.82,-276.56 743.74,-286.69 750.73,-286.4"/>
</g>
<!-- Node39&#45;&gt;Node5 -->
<g id="edge75" class="edge">
<title>Node39&#45;&gt;Node5</title>
<path fill="none" stroke="midnightblue" d="M1971.23,-486.26C2156.69,-471.11 2818.42,-410.97 2818.42,-324 2818.42,-324 2818.42,-324 2818.42,-266 2818.42,-230.58 2821.27,-218.41 2842.42,-190 2859.43,-167.16 2882.1,-179.16 2895.42,-154 2906.06,-133.91 2891.89,-110.73 2877.38,-94.24"/>
<polygon fill="midnightblue" stroke="midnightblue" points="2879.73,-91.63 2870.33,-86.73 2874.62,-96.42 2879.73,-91.63"/>
</g>
<!-- Node39&#45;&gt;Node7 -->
<g id="edge76" class="edge">
<title>Node39&#45;&gt;Node7</title>
<path fill="none" stroke="midnightblue" d="M1923.42,-481.44C1923.42,-462.94 1923.42,-417.81 1923.42,-380 1923.42,-380 1923.42,-380 1923.42,-266 1923.42,-202.14 1946.03,-186.28 1937.42,-123 1935.94,-112.13 1932.75,-100.29 1929.79,-90.81"/>
<polygon fill="midnightblue" stroke="midnightblue" points="1933.1,-89.69 1926.64,-81.29 1926.46,-91.88 1933.1,-89.69"/>
</g>
<!-- Node39&#45;&gt;Node8 -->
<g id="edge132" class="edge">
<title>Node39&#45;&gt;Node8</title>
<path fill="none" stroke="midnightblue" d="M1971.33,-489.21C2084.55,-486.84 2377.34,-477.77 2619.42,-445 2740.87,-428.56 2769.45,-414.02 2889.42,-389 3008.12,-364.24 3043.17,-376.3 3156.42,-333 3285.42,-283.68 3361.11,-283 3410.42,-154 3452.56,-43.78 3272.22,-163.82 2976.42,-87 2974.27,-86.44 2972.07,-85.74 2969.89,-84.96"/>
<polygon fill="midnightblue" stroke="midnightblue" points="2971.22,-81.72 2960.64,-81.14 2968.55,-88.19 2971.22,-81.72"/>
</g>
<!-- Node39&#45;&gt;Node9 -->
<g id="edge133" class="edge">
<title>Node39&#45;&gt;Node9</title>
<path fill="none" stroke="midnightblue" d="M1971.38,-483.93C2028.83,-473.67 2117.42,-446.98 2117.42,-380 2117.42,-380 2117.42,-380 2117.42,-322 2117.42,-273.55 2144.41,-267.38 2158.42,-221 2171.28,-178.45 2153.16,-159.58 2178.42,-123 2190.05,-106.17 2209.3,-93.76 2226.01,-85.46"/>
<polygon fill="midnightblue" stroke="midnightblue" points="2227.89,-88.44 2235.47,-81.04 2224.93,-82.1 2227.89,-88.44"/>
</g>
<!-- Node39&#45;&gt;Node11 -->
<g id="edge74" class="edge">
<title>Node39&#45;&gt;Node11</title>
<path fill="none" stroke="midnightblue" d="M1971.39,-488.54C2108.87,-484.18 2516.1,-469.95 2853.42,-445 3103.75,-426.48 3168.78,-435.62 3415.42,-389 3644.12,-345.77 3776.14,-360.55 3883.42,-154 3889.77,-141.77 3890.39,-134.89 3883.42,-123 3872.71,-104.7 3852.66,-92.53 3834.2,-84.73"/>
<polygon fill="midnightblue" stroke="midnightblue" points="3835.34,-81.41 3824.75,-81.04 3832.79,-87.93 3835.34,-81.41"/>
</g>
<!-- Node39&#45;&gt;Node14 -->
<g id="edge77" class="edge">
<title>Node39&#45;&gt;Node14</title>
<path fill="none" stroke="midnightblue" d="M1971.11,-489.42C2107.59,-486.76 2510.68,-471.9 2832.42,-389 3048.86,-333.23 3139.51,-369.65 3306.42,-221 3325.33,-204.17 3336.25,-176.38 3341.77,-158.01"/>
<polygon fill="midnightblue" stroke="midnightblue" points="3345.19,-158.77 3344.48,-148.2 3338.45,-156.91 3345.19,-158.77"/>
</g>
<!-- Node39&#45;&gt;Node16 -->
<g id="edge78" class="edge">
<title>Node39&#45;&gt;Node16</title>
<path fill="none" stroke="midnightblue" d="M1875.82,-488.27C1812.18,-484.85 1696.45,-474.74 1602.42,-445 1430.03,-390.48 1248.12,-264.16 1189.12,-221.15"/>
<polygon fill="midnightblue" stroke="midnightblue" points="1191.15,-218.3 1181.02,-215.2 1187.01,-223.94 1191.15,-218.3"/>
</g>
<!-- Node39&#45;&gt;Node18 -->
<g id="edge127" class="edge">
<title>Node39&#45;&gt;Node18</title>
<path fill="none" stroke="midnightblue" d="M1905.31,-481.3C1875.51,-465.57 1819.42,-429.41 1819.42,-380 1819.42,-380 1819.42,-380 1819.42,-322 1819.42,-258.9 1787.1,-189.22 1770.3,-157.28"/>
<polygon fill="midnightblue" stroke="midnightblue" points="1773.28,-155.43 1765.45,-148.29 1767.12,-158.75 1773.28,-155.43"/>
</g>
<!-- Node39&#45;&gt;Node19 -->
<g id="edge73" class="edge">
<title>Node39&#45;&gt;Node19</title>
<path fill="none" stroke="midnightblue" d="M1875.82,-485.2C1804.34,-477.8 1665.11,-462.59 1547.42,-445 1031.56,-367.9 888.93,-389.85 395.42,-221 324.03,-196.57 303.77,-193.42 239.42,-154 207.87,-134.66 175.71,-105.81 157.21,-88.12"/>
<polygon fill="midnightblue" stroke="midnightblue" points="159.56,-85.52 149.94,-81.07 154.69,-90.55 159.56,-85.52"/>
</g>
<!-- Node39&#45;&gt;Node23 -->
<g id="edge129" class="edge">
<title>Node39&#45;&gt;Node23</title>
<path fill="none" stroke="midnightblue" d="M1875.74,-490.4C1759.55,-490.64 1452.91,-486.9 1201.42,-445 1178.24,-441.14 401.15,-238.47 385.42,-221 356.1,-188.42 354.33,-161.95 374.42,-123 382.98,-106.41 399.78,-94.08 414.9,-85.76"/>
<polygon fill="midnightblue" stroke="midnightblue" points="416.7,-88.77 424,-81.09 413.5,-82.54 416.7,-88.77"/>
</g>
<!-- Node39&#45;&gt;Node32 -->
<g id="edge130" class="edge">
<title>Node39&#45;&gt;Node32</title>
<path fill="none" stroke="midnightblue" d="M1971.16,-489.09C2091.96,-486.36 2419.46,-476.43 2690.42,-445 2925.48,-417.73 3624.7,-432.2 3731.42,-221 3751.07,-182.13 3760.46,-155.46 3731.42,-123 3718.38,-108.42 3454.54,-86.14 3336.11,-76.83"/>
<polygon fill="midnightblue" stroke="midnightblue" points="3336.38,-73.34 3326.13,-76.05 3335.83,-80.32 3336.38,-73.34"/>
</g>
<!-- Node39&#45;&gt;Node34 -->
<g id="edge128" class="edge">
<title>Node39&#45;&gt;Node34</title>
<path fill="none" stroke="midnightblue" d="M1875.84,-486.51C1805.02,-480.66 1675.88,-467.27 1635.42,-445 1565.1,-406.28 1511.41,-322.7 1490.25,-285.95"/>
<polygon fill="midnightblue" stroke="midnightblue" points="1493.11,-283.9 1485.16,-276.91 1487.01,-287.34 1493.11,-283.9"/>
</g>
<!-- Node40 -->
<g id="node40" class="node">
<title>Node40</title>
<g id="a_node40"><a xlink:href="ir_2function_8h.html" target="_top" xlink:title="Function nodes.">
<polygon fill="white" stroke="black" points="1569.42,-313.5 1569.42,-332.5 1667.42,-332.5 1667.42,-313.5 1569.42,-313.5"/>
<text text-anchor="middle" x="1618.42" y="-320.5" font-family="Helvetica,sans-Serif" font-size="10.00">tvm/ir/function.h</text>
</a>
</g>
</g>
<!-- Node39&#45;&gt;Node40 -->
<g id="edge79" class="edge">
<title>Node39&#45;&gt;Node40</title>
<path fill="none" stroke="midnightblue" d="M1875.67,-487.97C1807.38,-484.09 1686.49,-473.34 1654.42,-445 1624.82,-418.84 1619.06,-369.53 1618.24,-342.64"/>
<polygon fill="midnightblue" stroke="midnightblue" points="1621.74,-342.59 1618.14,-332.62 1614.74,-342.66 1621.74,-342.59"/>
</g>
<!-- Node41 -->
<g id="node41" class="node">
<title>Node41</title>
<g id="a_node41"><a xlink:href="ir_2global__info_8h.html" target="_top" xlink:title="GlobalInfo are globally static object that are referred by the IR itself.">
<polygon fill="white" stroke="black" points="1663.42,-425.5 1663.42,-444.5 1775.42,-444.5 1775.42,-425.5 1663.42,-425.5"/>
<text text-anchor="middle" x="1719.42" y="-432.5" font-family="Helvetica,sans-Serif" font-size="10.00">tvm/ir/global_info.h</text>
</a>
</g>
</g>
<!-- Node39&#45;&gt;Node41 -->
<g id="edge87" class="edge">
<title>Node39&#45;&gt;Node41</title>
<path fill="none" stroke="midnightblue" d="M1891.1,-481.44C1856.03,-472.16 1799.93,-457.31 1761.46,-447.13"/>
<polygon fill="midnightblue" stroke="midnightblue" points="1762.16,-443.69 1751.6,-444.52 1760.37,-450.46 1762.16,-443.69"/>
</g>
<!-- Node52 -->
<g id="node52" class="node">
<title>Node52</title>
<g id="a_node52"><a xlink:title=" ">
<polygon fill="white" stroke="#bfbfbf" points="1951.42,-425.5 1951.42,-444.5 2037.42,-444.5 2037.42,-425.5 1951.42,-425.5"/>
<text text-anchor="middle" x="1994.42" y="-432.5" font-family="Helvetica,sans-Serif" font-size="10.00">unordered_set</text>
</a>
</g>
</g>
<!-- Node39&#45;&gt;Node52 -->
<g id="edge131" class="edge">
<title>Node39&#45;&gt;Node52</title>
<path fill="none" stroke="midnightblue" d="M1934.83,-481.32C1945.53,-473.18 1961.76,-460.84 1974.59,-451.09"/>
<polygon fill="midnightblue" stroke="midnightblue" points="1976.97,-453.67 1982.81,-444.83 1972.73,-448.1 1976.97,-453.67"/>
</g>
<!-- Node40&#45;&gt;Node7 -->
<g id="edge82" class="edge">
<title>Node40&#45;&gt;Node7</title>
<path fill="none" stroke="midnightblue" d="M1629.39,-313.36C1660.58,-288.73 1752.41,-215.97 1827.42,-154 1855.03,-131.2 1886.6,-104.22 1905.77,-87.73"/>
<polygon fill="midnightblue" stroke="midnightblue" points="1908.11,-90.33 1913.41,-81.16 1903.55,-85.03 1908.11,-90.33"/>
</g>
<!-- Node40&#45;&gt;Node10 -->
<g id="edge83" class="edge">
<title>Node40&#45;&gt;Node10</title>
<path fill="none" stroke="midnightblue" d="M1667.45,-320.19C1889.96,-311.96 2803.69,-278.19 3029.02,-269.86"/>
<polygon fill="midnightblue" stroke="midnightblue" points="3029.36,-273.35 3039.23,-269.49 3029.1,-266.36 3029.36,-273.35"/>
</g>
<!-- Node40&#45;&gt;Node11 -->
<g id="edge81" class="edge">
<title>Node40&#45;&gt;Node11</title>
<path fill="none" stroke="midnightblue" d="M1667.71,-321.51C1894.05,-319.1 2835.44,-307.41 3128.42,-277 3268.99,-262.41 3304.42,-255.68 3441.42,-221 3533.53,-197.69 3557.28,-191.84 3644.42,-154 3691.08,-133.74 3742.51,-103.78 3771.1,-86.39"/>
<polygon fill="midnightblue" stroke="midnightblue" points="3773.18,-89.22 3779.88,-81.01 3769.52,-83.25 3773.18,-89.22"/>
</g>
<!-- Node40&#45;&gt;Node16 -->
<g id="edge84" class="edge">
<title>Node40&#45;&gt;Node16</title>
<path fill="none" stroke="midnightblue" d="M1569.25,-314.74C1524.21,-307.43 1456,-294.7 1398.42,-277 1376.33,-270.21 1372.26,-264.56 1350.42,-257 1337.16,-252.4 1259.89,-231.16 1210.7,-217.73"/>
<polygon fill="midnightblue" stroke="midnightblue" points="1211.53,-214.33 1200.96,-215.07 1209.68,-221.08 1211.53,-214.33"/>
</g>
<!-- Node40&#45;&gt;Node19 -->
<g id="edge80" class="edge">
<title>Node40&#45;&gt;Node19</title>
<path fill="none" stroke="midnightblue" d="M1569.18,-320.8C1453.5,-317.57 1155.51,-306.79 908.42,-277 858.22,-270.95 846.44,-264.43 796.42,-257 662.28,-237.07 624.52,-255.7 493.42,-221 365.23,-187.07 222.57,-115.56 166.23,-85.87"/>
<polygon fill="midnightblue" stroke="midnightblue" points="167.82,-82.74 157.34,-81.15 164.53,-88.93 167.82,-82.74"/>
</g>
<!-- Node40&#45;&gt;Node23 -->
<g id="edge85" class="edge">
<title>Node40&#45;&gt;Node23</title>
<path fill="none" stroke="midnightblue" d="M1569.09,-317.51C1360.09,-298.49 557.72,-225.26 545.42,-221 521.43,-212.68 519.25,-202.98 497.42,-190 468.7,-172.92 448.48,-182.73 431.42,-154 419.72,-134.29 428.06,-107.46 436,-90.06"/>
<polygon fill="midnightblue" stroke="midnightblue" points="439.17,-91.55 440.47,-81.03 432.89,-88.44 439.17,-91.55"/>
</g>
<!-- Node40&#45;&gt;Node28 -->
<g id="edge86" class="edge">
<title>Node40&#45;&gt;Node28</title>
<path fill="none" stroke="midnightblue" d="M1614.77,-313.31C1604.6,-290.13 1573.81,-226.11 1529.42,-190 1496.64,-163.33 1475.79,-178.6 1441.42,-154 1416.47,-136.14 1394.43,-107.85 1381.76,-89.74"/>
<polygon fill="midnightblue" stroke="midnightblue" points="1384.54,-87.6 1376.02,-81.3 1378.75,-91.54 1384.54,-87.6"/>
</g>
<!-- Node41&#45;&gt;Node5 -->
<g id="edge88" class="edge">
<title>Node41&#45;&gt;Node5</title>
<path fill="none" stroke="midnightblue" d="M1775.72,-431.15C1995.07,-419.66 2780.42,-374.98 2780.42,-324 2780.42,-324 2780.42,-324 2780.42,-266 2780.42,-230.58 2781.21,-216.76 2804.42,-190 2828.65,-162.07 2859.73,-185.29 2879.42,-154 2890.73,-136.03 2881.52,-112.61 2871.23,-95.49"/>
<polygon fill="midnightblue" stroke="midnightblue" points="2873.91,-93.19 2865.53,-86.7 2868.04,-97 2873.91,-93.19"/>
</g>
<!-- Node41&#45;&gt;Node16 -->
<g id="edge89" class="edge">
<title>Node41&#45;&gt;Node16</title>
<path fill="none" stroke="midnightblue" d="M1693.69,-425.42C1628.65,-403.44 1452.88,-342.26 1312.42,-277 1295.12,-268.96 1291.47,-265.58 1274.42,-257 1248.26,-243.83 1218.09,-229.4 1196.83,-219.35"/>
<polygon fill="midnightblue" stroke="midnightblue" points="1198.27,-216.16 1187.73,-215.06 1195.28,-222.49 1198.27,-216.16"/>
</g>
<!-- Node42 -->
<g id="node42" class="node">
<title>Node42</title>
<g id="a_node42"><a xlink:href="target_8h.html" target="_top" xlink:title="Compilation target object.">
<polygon fill="white" stroke="black" points="1655.42,-369.5 1655.42,-388.5 1765.42,-388.5 1765.42,-369.5 1655.42,-369.5"/>
<text text-anchor="middle" x="1710.42" y="-376.5" font-family="Helvetica,sans-Serif" font-size="10.00">tvm/target/target.h</text>
</a>
</g>
</g>
<!-- Node41&#45;&gt;Node42 -->
<g id="edge90" class="edge">
<title>Node41&#45;&gt;Node42</title>
<path fill="none" stroke="midnightblue" d="M1717.94,-425.08C1716.75,-417.93 1715.03,-407.64 1713.54,-398.69"/>
<polygon fill="midnightblue" stroke="midnightblue" points="1716.98,-398.04 1711.88,-388.75 1710.07,-399.19 1716.98,-398.04"/>
</g>
<!-- Node42&#45;&gt;Node5 -->
<g id="edge91" class="edge">
<title>Node42&#45;&gt;Node5</title>
<path fill="none" stroke="midnightblue" d="M1765.62,-376.8C1941.7,-372.72 2482.85,-358.26 2557.42,-333 2610.73,-314.95 2716.49,-215.96 2766.42,-190 2806.85,-168.98 2836.47,-191.45 2862.42,-154 2874.07,-137.2 2870.11,-113.56 2864.4,-96.07"/>
<polygon fill="midnightblue" stroke="midnightblue" points="2867.65,-94.77 2860.94,-86.57 2861.08,-97.17 2867.65,-94.77"/>
</g>
<!-- Node42&#45;&gt;Node16 -->
<g id="edge92" class="edge">
<title>Node42&#45;&gt;Node16</title>
<path fill="none" stroke="midnightblue" d="M1669.55,-369.5C1601.81,-354.75 1462.59,-321.67 1350.42,-277 1332.69,-269.94 1329.91,-264.64 1312.42,-257 1277.46,-241.72 1236.26,-227.56 1207.08,-218.14"/>
<polygon fill="midnightblue" stroke="midnightblue" points="1207.89,-214.73 1197.3,-215.02 1205.76,-221.39 1207.89,-214.73"/>
</g>
<!-- Node42&#45;&gt;Node23 -->
<g id="edge126" class="edge">
<title>Node42&#45;&gt;Node23</title>
<path fill="none" stroke="midnightblue" d="M1655.11,-373.49C1471.48,-358.34 883.16,-308.54 695.42,-277 657.58,-270.64 648.95,-265.02 611.42,-257 527.37,-239.04 490.74,-271.81 421.42,-221 384,-193.57 365.85,-165.07 385.42,-123 392.61,-107.55 407.11,-95.14 420.05,-86.49"/>
<polygon fill="midnightblue" stroke="midnightblue" points="422.03,-89.38 428.65,-81.11 418.32,-83.44 422.03,-89.38"/>
</g>
<!-- Node42&#45;&gt;Node40 -->
<g id="edge93" class="edge">
<title>Node42&#45;&gt;Node40</title>
<path fill="none" stroke="midnightblue" d="M1695.64,-369.32C1681.16,-360.82 1658.85,-347.73 1641.93,-337.8"/>
<polygon fill="midnightblue" stroke="midnightblue" points="1643.56,-334.7 1633.17,-332.65 1640.02,-340.74 1643.56,-334.7"/>
</g>
<!-- Node43 -->
<g id="node43" class="node">
<title>Node43</title>
<g id="a_node43"><a xlink:href="with__context_8h.html" target="_top" xlink:title="RAII wrapper function to enter and exit a context object similar to python&#39;s with syntax.">
<polygon fill="white" stroke="black" points="2027.92,-196 2027.92,-215 2148.92,-215 2148.92,-196 2027.92,-196"/>
<text text-anchor="middle" x="2088.42" y="-203" font-family="Helvetica,sans-Serif" font-size="10.00">tvm/ir/with_context.h</text>
</a>
</g>
</g>
<!-- Node42&#45;&gt;Node43 -->
<g id="edge94" class="edge">
<title>Node42&#45;&gt;Node43</title>
<path fill="none" stroke="midnightblue" d="M1729.17,-369.5C1790.76,-341.55 1987.13,-252.46 2060.46,-219.19"/>
<polygon fill="midnightblue" stroke="midnightblue" points="2061.91,-222.38 2069.57,-215.06 2059.01,-216 2061.91,-222.38"/>
</g>
<!-- Node46 -->
<g id="node46" class="node">
<title>Node46</title>
<g id="a_node46"><a xlink:href="device__api_8h.html" target="_top" xlink:title="Abstract device memory management API.">
<polygon fill="white" stroke="black" points="1493.92,-123.5 1493.92,-153.5 1606.92,-153.5 1606.92,-123.5 1493.92,-123.5"/>
<text text-anchor="start" x="1501.92" y="-141.5" font-family="Helvetica,sans-Serif" font-size="10.00">tvm/runtime/device</text>
<text text-anchor="middle" x="1550.42" y="-130.5" font-family="Helvetica,sans-Serif" font-size="10.00">_api.h</text>
</a>
</g>
</g>
<!-- Node42&#45;&gt;Node46 -->
<g id="edge100" class="edge">
<title>Node42&#45;&gt;Node46</title>
<path fill="none" stroke="midnightblue" d="M1706.41,-369.37C1700.41,-356.7 1688.5,-332.48 1676.42,-313 1641.31,-256.37 1593.7,-194.1 1568.23,-161.77"/>
<polygon fill="midnightblue" stroke="midnightblue" points="1570.91,-159.52 1561.96,-153.85 1565.42,-163.86 1570.91,-159.52"/>
</g>
<!-- Node49 -->
<g id="node49" class="node">
<title>Node49</title>
<g id="a_node49"><a xlink:href="target__kind_8h.html" target="_top" xlink:title="Target kind registry.">
<polygon fill="white" stroke="black" points="2426.42,-196 2426.42,-215 2562.42,-215 2562.42,-196 2426.42,-196"/>
<text text-anchor="middle" x="2494.42" y="-203" font-family="Helvetica,sans-Serif" font-size="10.00">tvm/target/target_kind.h</text>
</a>
</g>
</g>
<!-- Node42&#45;&gt;Node49 -->
<g id="edge107" class="edge">
<title>Node42&#45;&gt;Node49</title>
<path fill="none" stroke="midnightblue" d="M1749.3,-369.5C1879.65,-340.98 2301.08,-248.79 2445.41,-217.22"/>
<polygon fill="midnightblue" stroke="midnightblue" points="2446.29,-220.61 2455.31,-215.06 2444.79,-213.77 2446.29,-220.61"/>
</g>
<!-- Node43&#45;&gt;Node8 -->
<g id="edge98" class="edge">
<title>Node43&#45;&gt;Node8</title>
<path fill="none" stroke="midnightblue" d="M2148.98,-201.43C2322.35,-192.53 2810.28,-166.48 2842.42,-154 2878.66,-139.92 2912.12,-108.13 2930.26,-88.68"/>
<polygon fill="midnightblue" stroke="midnightblue" points="2932.94,-90.94 2937.07,-81.18 2927.75,-86.23 2932.94,-90.94"/>
</g>
<!-- Node43&#45;&gt;Node9 -->
<g id="edge99" class="edge">
<title>Node43&#45;&gt;Node9</title>
<path fill="none" stroke="midnightblue" d="M2092.54,-195.72C2100.58,-179.4 2119.86,-144.11 2145.42,-123 2168.91,-103.6 2201.03,-90.2 2225.03,-82.11"/>
<polygon fill="midnightblue" stroke="midnightblue" points="2226.32,-85.37 2234.76,-78.96 2224.17,-78.7 2226.32,-85.37"/>
</g>
<!-- Node43&#45;&gt;Node30 -->
<g id="edge96" class="edge">
<title>Node43&#45;&gt;Node30</title>
<path fill="none" stroke="midnightblue" d="M2027.82,-203.06C1816.27,-197.84 1111.27,-178.98 886.42,-154 874.15,-152.64 860.92,-150.51 848.82,-148.3"/>
<polygon fill="midnightblue" stroke="midnightblue" points="849.45,-144.86 838.97,-146.45 848.15,-151.74 849.45,-144.86"/>
</g>
<!-- Node44 -->
<g id="node44" class="node">
<title>Node44</title>
<g id="a_node44"><a xlink:title=" ">
<polygon fill="white" stroke="#bfbfbf" points="2027.92,-129 2027.92,-148 2092.92,-148 2092.92,-129 2027.92,-129"/>
<text text-anchor="middle" x="2060.42" y="-136" font-family="Helvetica,sans-Serif" font-size="10.00">exception</text>
</a>
</g>
</g>
<!-- Node43&#45;&gt;Node44 -->
<g id="edge95" class="edge">
<title>Node43&#45;&gt;Node44</title>
<path fill="none" stroke="midnightblue" d="M2084.65,-195.73C2080.45,-185.99 2073.55,-169.98 2068.19,-157.53"/>
<polygon fill="midnightblue" stroke="midnightblue" points="2071.31,-155.93 2064.14,-148.13 2064.88,-158.7 2071.31,-155.93"/>
</g>
<!-- Node45 -->
<g id="node45" class="node">
<title>Node45</title>
<g id="a_node45"><a xlink:title=" ">
<polygon fill="white" stroke="#bfbfbf" points="2187.42,-129 2187.42,-148 2245.42,-148 2245.42,-129 2187.42,-129"/>
<text text-anchor="middle" x="2216.42" y="-136" font-family="Helvetica,sans-Serif" font-size="10.00">memory</text>
</a>
</g>
</g>
<!-- Node43&#45;&gt;Node45 -->
<g id="edge97" class="edge">
<title>Node43&#45;&gt;Node45</title>
<path fill="none" stroke="midnightblue" d="M2105.42,-195.87C2127.13,-184.84 2164.92,-165.66 2190.3,-152.77"/>
<polygon fill="midnightblue" stroke="midnightblue" points="2192.02,-155.82 2199.36,-148.17 2188.86,-149.57 2192.02,-155.82"/>
</g>
<!-- Node46&#45;&gt;Node3 -->
<g id="edge102" class="edge">
<title>Node46&#45;&gt;Node3</title>
<path fill="none" stroke="midnightblue" d="M1493.6,-126.47C1430.11,-114.16 1328.24,-94.39 1266.99,-82.5"/>
<polygon fill="midnightblue" stroke="midnightblue" points="1267.63,-79.06 1257.15,-80.6 1266.3,-85.94 1267.63,-79.06"/>
</g>
<!-- Node46&#45;&gt;Node7 -->
<g id="edge104" class="edge">
<title>Node46&#45;&gt;Node7</title>
<path fill="none" stroke="midnightblue" d="M1607.07,-127.63C1678.07,-115.26 1798.91,-94.2 1868.9,-82"/>
<polygon fill="midnightblue" stroke="midnightblue" points="1869.59,-85.43 1878.84,-80.27 1868.39,-78.54 1869.59,-85.43"/>
</g>
<!-- Node46&#45;&gt;Node20 -->
<g id="edge105" class="edge">
<title>Node46&#45;&gt;Node20</title>
<path fill="none" stroke="midnightblue" d="M1581.45,-123.4C1606.43,-112.04 1641.24,-96.22 1665.39,-85.24"/>
<polygon fill="midnightblue" stroke="midnightblue" points="1667.05,-88.33 1674.71,-81.01 1664.16,-81.96 1667.05,-88.33"/>
</g>
<!-- Node46&#45;&gt;Node23 -->
<g id="edge106" class="edge">
<title>Node46&#45;&gt;Node23</title>
<path fill="none" stroke="midnightblue" d="M1493.73,-133.4C1449.52,-130.28 1386.59,-126.04 1331.42,-123 966.74,-102.93 872.5,-134.95 510.42,-87 499.59,-85.57 487.9,-83.21 477.46,-80.82"/>
<polygon fill="midnightblue" stroke="midnightblue" points="478.05,-77.36 467.51,-78.44 476.42,-84.17 478.05,-77.36"/>
</g>
<!-- Node47 -->
<g id="node47" class="node">
<title>Node47</title>
<g id="a_node47"><a xlink:title=" ">
<polygon fill="white" stroke="#bfbfbf" points="1541.92,-62 1541.92,-81 1618.92,-81 1618.92,-62 1541.92,-62"/>
<text text-anchor="middle" x="1580.42" y="-69" font-family="Helvetica,sans-Serif" font-size="10.00">tvm/ffi/any.h</text>
</a>
</g>
</g>
<!-- Node46&#45;&gt;Node47 -->
<g id="edge101" class="edge">
<title>Node46&#45;&gt;Node47</title>
<path fill="none" stroke="midnightblue" d="M1556.93,-123.4C1561.38,-113.76 1567.31,-100.91 1572.1,-90.54"/>
<polygon fill="midnightblue" stroke="midnightblue" points="1575.4,-91.74 1576.41,-81.19 1569.04,-88.81 1575.4,-91.74"/>
</g>
<!-- Node48 -->
<g id="node48" class="node">
<title>Node48</title>
<g id="a_node48"><a xlink:title=" ">
<polygon fill="white" stroke="#bfbfbf" points="1422.92,-62 1422.92,-81 1523.92,-81 1523.92,-62 1422.92,-62"/>
<text text-anchor="middle" x="1473.42" y="-69" font-family="Helvetica,sans-Serif" font-size="10.00">tvm/ffi/optional.h</text>
</a>
</g>
</g>
<!-- Node46&#45;&gt;Node48 -->
<g id="edge103" class="edge">
<title>Node46&#45;&gt;Node48</title>
<path fill="none" stroke="midnightblue" d="M1533.72,-123.4C1521.23,-112.86 1504.2,-98.48 1491.42,-87.69"/>
<polygon fill="midnightblue" stroke="midnightblue" points="1493.62,-84.97 1483.72,-81.19 1489.11,-90.32 1493.62,-84.97"/>
</g>
<!-- Node49&#45;&gt;Node4 -->
<g id="edge108" class="edge">
<title>Node49&#45;&gt;Node4</title>
<path fill="none" stroke="midnightblue" d="M2562.78,-197.74C2682.82,-185.73 2920.45,-161.25 2937.42,-154 2972.17,-139.16 3004.16,-107.86 3021.61,-88.66"/>
<polygon fill="midnightblue" stroke="midnightblue" points="3024.37,-90.83 3028.37,-81.03 3019.12,-86.2 3024.37,-90.83"/>
</g>
<!-- Node49&#45;&gt;Node5 -->
<g id="edge109" class="edge">
<title>Node49&#45;&gt;Node5</title>
<path fill="none" stroke="midnightblue" d="M2496.05,-195.93C2499.75,-178.97 2510.48,-141.22 2535.42,-123 2575.81,-93.5 2714.78,-80.59 2795.35,-75.48"/>
<polygon fill="midnightblue" stroke="midnightblue" points="2795.59,-78.97 2805.36,-74.86 2795.16,-71.98 2795.59,-78.97"/>
</g>
<!-- Node49&#45;&gt;Node6 -->
<g id="edge110" class="edge">
<title>Node49&#45;&gt;Node6</title>
<path fill="none" stroke="midnightblue" d="M2476.1,-195.87C2455.66,-186.24 2422,-170.39 2395.58,-157.94"/>
<polygon fill="midnightblue" stroke="midnightblue" points="2396.74,-154.62 2386.21,-153.53 2393.76,-160.96 2396.74,-154.62"/>
</g>
<!-- Node49&#45;&gt;Node8 -->
<g id="edge124" class="edge">
<title>Node49&#45;&gt;Node8</title>
<path fill="none" stroke="midnightblue" d="M2562.7,-198.12C2677.91,-187.11 2899.79,-164.66 2913.42,-154 2932.77,-138.87 2940.05,-110.18 2942.78,-91.2"/>
<polygon fill="midnightblue" stroke="midnightblue" points="2946.28,-91.41 2943.94,-81.08 2939.33,-90.61 2946.28,-91.41"/>
</g>
<!-- Node49&#45;&gt;Node9 -->
<g id="edge125" class="edge">
<title>Node49&#45;&gt;Node9</title>
<path fill="none" stroke="midnightblue" d="M2492.58,-195.87C2488.55,-179.15 2477.34,-142.3 2453.42,-123 2406.51,-85.14 2334.35,-75.37 2292.23,-73.03"/>
<polygon fill="midnightblue" stroke="midnightblue" points="2292.34,-69.53 2282.2,-72.58 2292.03,-76.52 2292.34,-69.53"/>
</g>
<!-- Node49&#45;&gt;Node20 -->
<g id="edge121" class="edge">
<title>Node49&#45;&gt;Node20</title>
<path fill="none" stroke="midnightblue" d="M2432.7,-195.98C2391.68,-188.67 2337.46,-175.75 2293.42,-154 2273.57,-144.19 2275.05,-131.05 2254.42,-123 2151.47,-82.83 1867.76,-103.07 1758.42,-87 1751.58,-85.99 1744.39,-84.67 1737.39,-83.22"/>
<polygon fill="midnightblue" stroke="midnightblue" points="1737.83,-79.74 1727.32,-81.05 1736.36,-86.58 1737.83,-79.74"/>
</g>
<!-- Node49&#45;&gt;Node32 -->
<g id="edge123" class="edge">
<title>Node49&#45;&gt;Node32</title>
<path fill="none" stroke="midnightblue" d="M2562.49,-197.93C2685.3,-186 2934.93,-161.31 2974.42,-154 3073.06,-135.75 3186.54,-101.94 3243.24,-84.15"/>
<polygon fill="midnightblue" stroke="midnightblue" points="3244.34,-87.47 3252.82,-81.12 3242.23,-80.79 3244.34,-87.47"/>
</g>
<!-- Node49&#45;&gt;Node45 -->
<g id="edge122" class="edge">
<title>Node49&#45;&gt;Node45</title>
<path fill="none" stroke="midnightblue" d="M2447.23,-195.99C2399.5,-187.01 2323.8,-171.71 2259.42,-154 2256.41,-153.17 2253.29,-152.25 2250.18,-151.28"/>
<polygon fill="midnightblue" stroke="midnightblue" points="2250.97,-147.86 2240.38,-148.12 2248.82,-154.52 2250.97,-147.86"/>
</g>
<!-- Node50 -->
<g id="node50" class="node">
<title>Node50</title>
<g id="a_node50"><a xlink:href="config__schema_8h.html" target="_top" xlink:title="Minimal schema for dynamic config canonicalization and validation.">
<polygon fill="white" stroke="black" points="2543.92,-129 2543.92,-148 2674.92,-148 2674.92,-129 2543.92,-129"/>
<text text-anchor="middle" x="2609.42" y="-136" font-family="Helvetica,sans-Serif" font-size="10.00">tvm/ir/config_schema.h</text>
</a>
</g>
</g>
<!-- Node49&#45;&gt;Node50 -->
<g id="edge111" class="edge">
<title>Node49&#45;&gt;Node50</title>
<path fill="none" stroke="midnightblue" d="M2509.93,-195.73C2529.33,-184.77 2562.75,-165.88 2585.45,-153.05"/>
<polygon fill="midnightblue" stroke="midnightblue" points="2587.18,-156.09 2594.16,-148.13 2583.73,-150 2587.18,-156.09"/>
</g>
<!-- Node50&#45;&gt;Node4 -->
<g id="edge113" class="edge">
<title>Node50&#45;&gt;Node4</title>
<path fill="none" stroke="midnightblue" d="M2674.08,-128.98C2771.45,-116.08 2947.44,-92.54 2976.42,-87 2981.93,-85.95 2987.69,-84.71 2993.36,-83.4"/>
<polygon fill="midnightblue" stroke="midnightblue" points="2994.49,-86.73 3003.41,-81.01 2992.87,-79.92 2994.49,-86.73"/>
</g>
<!-- Node50&#45;&gt;Node5 -->
<g id="edge114" class="edge">
<title>Node50&#45;&gt;Node5</title>
<path fill="none" stroke="midnightblue" d="M2641.71,-128.94C2680.73,-118.58 2747.16,-100.96 2795.41,-88.16"/>
<polygon fill="midnightblue" stroke="midnightblue" points="2796.35,-91.53 2805.12,-85.58 2794.55,-84.76 2796.35,-91.53"/>
</g>
<!-- Node50&#45;&gt;Node8 -->
<g id="edge119" class="edge">
<title>Node50&#45;&gt;Node8</title>
<path fill="none" stroke="midnightblue" d="M2672.37,-128.98C2747.56,-118.45 2868.67,-100.31 2912.42,-87 2914.35,-86.41 2916.31,-85.74 2918.27,-85.01"/>
<polygon fill="midnightblue" stroke="midnightblue" points="2919.93,-88.11 2927.8,-81.02 2917.23,-81.65 2919.93,-88.11"/>
</g>
<!-- Node50&#45;&gt;Node9 -->
<g id="edge120" class="edge">
<title>Node50&#45;&gt;Node9</title>
<path fill="none" stroke="midnightblue" d="M2563.18,-128.94C2491.55,-115.67 2355.49,-90.47 2292.27,-78.77"/>
<polygon fill="midnightblue" stroke="midnightblue" points="2292.53,-75.26 2282.06,-76.88 2291.25,-82.14 2292.53,-75.26"/>
</g>
<!-- Node50&#45;&gt;Node11 -->
<g id="edge112" class="edge">
<title>Node50&#45;&gt;Node11</title>
<path fill="none" stroke="midnightblue" d="M2668.26,-128.98C2685.67,-126.72 2704.79,-124.5 2722.42,-123 3103.61,-90.63 3200.45,-108.12 3582.42,-87 3627.38,-84.52 3677.67,-81.08 3717.88,-78.18"/>
<polygon fill="midnightblue" stroke="midnightblue" points="3718.15,-81.67 3727.87,-77.46 3717.64,-74.69 3718.15,-81.67"/>
</g>
<!-- Node50&#45;&gt;Node23 -->
<g id="edge116" class="edge">
<title>Node50&#45;&gt;Node23</title>
<path fill="none" stroke="midnightblue" d="M2543.88,-131.54C2507.54,-128.46 2461.51,-124.96 2420.42,-123 1996.39,-102.75 931.93,-137.47 510.42,-87 499.58,-85.7 487.88,-83.39 477.44,-80.98"/>
<polygon fill="midnightblue" stroke="midnightblue" points="478.04,-77.52 467.5,-78.58 476.39,-84.33 478.04,-77.52"/>
</g>
<!-- Node50&#45;&gt;Node28 -->
<g id="edge117" class="edge">
<title>Node50&#45;&gt;Node28</title>
<path fill="none" stroke="midnightblue" d="M2543.87,-131.81C2507.52,-128.82 2461.5,-125.31 2420.42,-123 2196.86,-110.43 1633.71,-127.2 1413.42,-87 1409.52,-86.29 1405.5,-85.3 1401.54,-84.16"/>
<polygon fill="midnightblue" stroke="midnightblue" points="1402.57,-80.82 1391.98,-81.13 1400.45,-87.49 1402.57,-80.82"/>
</g>
<!-- Node50&#45;&gt;Node32 -->
<g id="edge118" class="edge">
<title>Node50&#45;&gt;Node32</title>
<path fill="none" stroke="midnightblue" d="M2672.43,-128.99C2688.7,-126.91 2706.2,-124.78 2722.42,-123 2904.91,-103.03 3121.65,-85.01 3222.52,-76.96"/>
<polygon fill="midnightblue" stroke="midnightblue" points="3223.09,-80.42 3232.79,-76.14 3222.54,-73.44 3223.09,-80.42"/>
</g>
<!-- Node51 -->
<g id="node51" class="node">
<title>Node51</title>
<g id="a_node51"><a xlink:title=" ">
<polygon fill="white" stroke="#bfbfbf" points="2581.42,-62 2581.42,-81 2637.42,-81 2637.42,-62 2581.42,-62"/>
<text text-anchor="middle" x="2609.42" y="-69" font-family="Helvetica,sans-Serif" font-size="10.00">sstream</text>
</a>
</g>
</g>
<!-- Node50&#45;&gt;Node51 -->
<g id="edge115" class="edge">
<title>Node50&#45;&gt;Node51</title>
<path fill="none" stroke="midnightblue" d="M2609.42,-128.73C2609.42,-119.18 2609.42,-103.62 2609.42,-91.28"/>
<polygon fill="midnightblue" stroke="midnightblue" points="2612.92,-91.13 2609.42,-81.13 2605.92,-91.13 2612.92,-91.13"/>
</g>
<!-- Node53&#45;&gt;Node14 -->
<g id="edge135" class="edge">
<title>Node53&#45;&gt;Node14</title>
<path fill="none" stroke="midnightblue" d="M788.21,-265.43C1025.71,-262.09 2207.91,-244.56 2571.42,-221 2714.31,-211.74 3150.74,-162.08 3297.61,-145.15"/>
<polygon fill="midnightblue" stroke="midnightblue" points="3298.14,-148.61 3307.67,-143.99 3297.34,-141.66 3298.14,-148.61"/>
</g>
<!-- Node53&#45;&gt;Node16 -->
<g id="edge136" class="edge">
<title>Node53&#45;&gt;Node16</title>
<path fill="none" stroke="midnightblue" d="M788.14,-260.13C866.57,-249.1 1035.68,-225.31 1119.8,-213.48"/>
<polygon fill="midnightblue" stroke="midnightblue" points="1120.46,-216.92 1129.87,-212.06 1119.48,-209.99 1120.46,-216.92"/>
</g>
<!-- Node53&#45;&gt;Node23 -->
<g id="edge139" class="edge">
<title>Node53&#45;&gt;Node23</title>
<path fill="none" stroke="midnightblue" d="M704.66,-262.53C656.02,-257.5 573.84,-245.9 507.42,-221 452.4,-200.37 422.61,-205.01 393.42,-154 386.58,-142.04 388.06,-135.69 393.42,-123 399.52,-108.59 411.95,-96.27 423.14,-87.4"/>
<polygon fill="midnightblue" stroke="midnightblue" points="425.38,-90.09 431.32,-81.32 421.21,-84.48 425.38,-90.09"/>
</g>
<!-- Node53&#45;&gt;Node24 -->
<g id="edge137" class="edge">
<title>Node53&#45;&gt;Node24</title>
<path fill="none" stroke="midnightblue" d="M738.04,-257.31C717.84,-236.36 666.24,-182.85 640.1,-155.75"/>
<polygon fill="midnightblue" stroke="midnightblue" points="642.33,-153.02 632.87,-148.26 637.29,-157.88 642.33,-153.02"/>
</g>
<!-- Node53&#45;&gt;Node30 -->
<g id="edge138" class="edge">
<title>Node53&#45;&gt;Node30</title>
<path fill="none" stroke="midnightblue" d="M750.55,-257.31C760.27,-236.81 784.77,-185.15 797.87,-157.54"/>
<polygon fill="midnightblue" stroke="midnightblue" points="801.15,-158.79 802.27,-148.26 794.82,-155.79 801.15,-158.79"/>
</g>
<!-- Node54&#45;&gt;Node7 -->
<g id="edge145" class="edge">
<title>Node54&#45;&gt;Node7</title>
<path fill="none" stroke="midnightblue" d="M1156.23,-713.39C1409.85,-709.49 2657.92,-683.9 2764.42,-557 2997.93,-278.78 2297.46,-454.73 2019.42,-221 1996.43,-201.67 1952.5,-125.13 1933.07,-90.13"/>
<polygon fill="midnightblue" stroke="midnightblue" points="1935.97,-88.14 1928.08,-81.07 1929.84,-91.52 1935.97,-88.14"/>
</g>
<!-- Node54&#45;&gt;Node8 -->
<g id="edge179" class="edge">
<title>Node54&#45;&gt;Node8</title>
<path fill="none" stroke="midnightblue" d="M1156.03,-713.83C1473.96,-712.57 3385.41,-703.54 3433.42,-669 3567.93,-572.25 3676.16,-365.73 3447.42,-123 3411.43,-84.8 3027.27,-100.03 2976.42,-87 2974.22,-86.43 2971.97,-85.72 2969.75,-84.92"/>
<polygon fill="midnightblue" stroke="midnightblue" points="2970.88,-81.61 2960.3,-81.01 2968.2,-88.07 2970.88,-81.61"/>
</g>
<!-- Node54&#45;&gt;Node10 -->
<g id="edge146" class="edge">
<title>Node54&#45;&gt;Node10</title>
<path fill="none" stroke="midnightblue" d="M1155.93,-713.81C1470.05,-712.4 3342.19,-702.61 3389.42,-669 3414.52,-651.15 3413.42,-634.8 3413.42,-604 3413.42,-604 3413.42,-604 3413.42,-546 3413.42,-455.65 3380.63,-429.39 3313.42,-369 3259.58,-320.62 3178.99,-292.83 3127.83,-279.07"/>
<polygon fill="midnightblue" stroke="midnightblue" points="3128.57,-275.64 3118.01,-276.5 3126.8,-282.42 3128.57,-275.64"/>
</g>
<!-- Node54&#45;&gt;Node11 -->
<g id="edge144" class="edge">
<title>Node54&#45;&gt;Node11</title>
<path fill="none" stroke="midnightblue" d="M1156.03,-713.74C1473.12,-711.83 3376.87,-699.14 3494.42,-669 3702.01,-615.77 3810.54,-628.39 3921.42,-445 3947.89,-401.23 3901.69,-126.17 3899.42,-123 3885.86,-104.03 3863.26,-91.93 3842.4,-84.35"/>
<polygon fill="midnightblue" stroke="midnightblue" points="3843.26,-80.95 3832.66,-81.08 3841.03,-87.58 3843.26,-80.95"/>
</g>
<!-- Node54&#45;&gt;Node14 -->
<g id="edge147" class="edge">
<title>Node54&#45;&gt;Node14</title>
<path fill="none" stroke="midnightblue" d="M1156.16,-713.87C1472.94,-712.83 3366.31,-705.11 3412.42,-669 3494.53,-604.71 3381.18,-243.99 3352.65,-157.93"/>
<polygon fill="midnightblue" stroke="midnightblue" points="3355.9,-156.62 3349.41,-148.25 3349.27,-158.84 3355.9,-156.62"/>
</g>
<!-- Node54&#45;&gt;Node16 -->
<g id="edge148" class="edge">
<title>Node54&#45;&gt;Node16</title>
<path fill="none" stroke="midnightblue" d="M1066.57,-708.77C1019.88,-702.3 951.38,-689.55 935.42,-669 929.97,-661.98 933.47,-657.67 935.42,-649 964.58,-519.85 1063.42,-512.4 1063.42,-380 1063.42,-380 1063.42,-380 1063.42,-322 1063.42,-274.69 1112.3,-238.37 1143.68,-219.93"/>
<polygon fill="midnightblue" stroke="midnightblue" points="1145.41,-222.97 1152.39,-215 1141.97,-216.88 1145.41,-222.97"/>
</g>
<!-- Node54&#45;&gt;Node19 -->
<g id="edge143" class="edge">
<title>Node54&#45;&gt;Node19</title>
<path fill="none" stroke="midnightblue" d="M1066.76,-713.08C923.24,-709.86 479.84,-697.66 422.42,-669 158.67,-537.32 71.29,-441.11 4.42,-154 1.3,-140.58 -3.46,-134.3 4.42,-123 18.38,-102.99 41.2,-90.88 64.26,-83.57"/>
<polygon fill="midnightblue" stroke="midnightblue" points="65.49,-86.86 74.13,-80.72 63.55,-80.13 65.49,-86.86"/>
</g>
<!-- Node54&#45;&gt;Node20 -->
<g id="edge155" class="edge">
<title>Node54&#45;&gt;Node20</title>
<path fill="none" stroke="midnightblue" d="M1110.89,-705.36C1108.81,-671.19 1101.42,-542.25 1101.42,-436 1101.42,-436 1101.42,-436 1101.42,-266 1101.42,-32.2 1403.89,-253.58 1615.42,-154 1623.39,-150.25 1658.68,-111.52 1678.96,-88.83"/>
<polygon fill="midnightblue" stroke="midnightblue" points="1681.64,-91.08 1685.67,-81.29 1676.41,-86.43 1681.64,-91.08"/>
</g>
<!-- Node54&#45;&gt;Node23 -->
<g id="edge177" class="edge">
<title>Node54&#45;&gt;Node23</title>
<path fill="none" stroke="midnightblue" d="M1066.81,-713.89C871.73,-712.82 103.42,-702.36 103.42,-604 103.42,-604 103.42,-604 103.42,-204.5 103.42,-138.44 328.31,-92.72 413.36,-77.79"/>
<polygon fill="midnightblue" stroke="midnightblue" points="413.99,-81.23 423.25,-76.08 412.8,-74.33 413.99,-81.23"/>
</g>
<!-- Node54&#45;&gt;Node24 -->
<g id="edge156" class="edge">
<title>Node54&#45;&gt;Node24</title>
<path fill="none" stroke="midnightblue" d="M1066.66,-713.9C962.21,-713.01 705.48,-706.93 629.42,-669 546.96,-627.87 521.42,-584.15 521.42,-492 521.42,-492 521.42,-492 521.42,-322 521.42,-261.88 585.65,-275.32 611.42,-221 620.91,-201.02 623.68,-175.5 624.39,-158.39"/>
<polygon fill="midnightblue" stroke="midnightblue" points="627.89,-158.13 624.6,-148.05 620.89,-157.98 627.89,-158.13"/>
</g>
<!-- Node54&#45;&gt;Node29 -->
<g id="edge174" class="edge">
<title>Node54&#45;&gt;Node29</title>
<path fill="none" stroke="midnightblue" d="M1066.69,-713.92C975.98,-712.92 764.35,-706.39 591.42,-669 506.65,-650.67 407.42,-690.73 407.42,-604 407.42,-604 407.42,-604 407.42,-434 407.42,-323.79 469.98,-201.7 495.13,-157.06"/>
<polygon fill="midnightblue" stroke="midnightblue" points="498.22,-158.72 500.16,-148.3 492.15,-155.24 498.22,-158.72"/>
</g>
<!-- Node54&#45;&gt;Node31 -->
<g id="edge176" class="edge">
<title>Node54&#45;&gt;Node31</title>
<path fill="none" stroke="midnightblue" d="M1066.9,-709.46C960.82,-698.6 701.28,-671.85 692.42,-669 644.3,-653.54 622.65,-654.25 593.42,-613 484.57,-459.34 665.61,-220.75 719.19,-156.12"/>
<polygon fill="midnightblue" stroke="midnightblue" points="722.1,-158.09 725.86,-148.18 716.74,-153.59 722.1,-158.09"/>
</g>
<!-- Node54&#45;&gt;Node32 -->
<g id="edge178" class="edge">
<title>Node54&#45;&gt;Node32</title>
<path fill="none" stroke="midnightblue" d="M1155.99,-714.07C1470.71,-714.46 3349.05,-714.82 3459.42,-669 3713.97,-563.32 3943.73,-322.36 3753.42,-123 3739.18,-108.08 3459.45,-85.76 3336.53,-76.62"/>
<polygon fill="midnightblue" stroke="midnightblue" points="3336.43,-73.1 3326.19,-75.86 3335.91,-80.08 3336.43,-73.1"/>
</g>
<!-- Node54&#45;&gt;Node53 -->
<g id="edge173" class="edge">
<title>Node54&#45;&gt;Node53</title>
<path fill="none" stroke="midnightblue" d="M1066.71,-709.16C941.66,-695.03 597.42,-651.8 597.42,-604 597.42,-604 597.42,-604 597.42,-546 597.42,-435.62 614.21,-398.99 683.42,-313 693.66,-300.28 708.38,-289.49 721.01,-281.68"/>
<polygon fill="midnightblue" stroke="midnightblue" points="722.91,-284.62 729.75,-276.52 719.35,-278.59 722.91,-284.62"/>
</g>
<!-- Node55 -->
<g id="node55" class="node">
<title>Node55</title>
<g id="a_node55"><a xlink:href="node__functor_8h.html" target="_top" xlink:title="Defines the Functor data structures.">
<polygon fill="white" stroke="black" points="1201.92,-129 1201.92,-148 1322.92,-148 1322.92,-129 1201.92,-129"/>
<text text-anchor="middle" x="1262.42" y="-136" font-family="Helvetica,sans-Serif" font-size="10.00">tvm/ir/node_functor.h</text>
</a>
</g>
</g>
<!-- Node54&#45;&gt;Node55 -->
<g id="edge149" class="edge">
<title>Node54&#45;&gt;Node55</title>
<path fill="none" stroke="midnightblue" d="M1066.9,-705.73C1041.42,-699.2 1010.12,-687.92 987.42,-669 961.72,-647.57 949.42,-637.46 949.42,-604 949.42,-604 949.42,-604 949.42,-546 949.42,-385.4 899.35,-305.04 1011.42,-190 1036.01,-164.76 1126.39,-151.42 1191.65,-144.91"/>
<polygon fill="midnightblue" stroke="midnightblue" points="1192.28,-148.37 1201.9,-143.93 1191.61,-141.4 1192.28,-148.37"/>
</g>
<!-- Node56 -->
<g id="node56" class="node">
<title>Node56</title>
<g id="a_node56"><a xlink:href="buffer_8h.html" target="_top" xlink:title="Symbolic n&#45;dimensional array, to represent a memory buffer.">
<polygon fill="white" stroke="black" points="996.92,-649.5 996.92,-668.5 1091.92,-668.5 1091.92,-649.5 996.92,-649.5"/>
<text text-anchor="middle" x="1044.42" y="-656.5" font-family="Helvetica,sans-Serif" font-size="10.00">tvm/tirx/buffer.h</text>
</a>
</g>
</g>
<!-- Node54&#45;&gt;Node56 -->
<g id="edge157" class="edge">
<title>Node54&#45;&gt;Node56</title>
<path fill="none" stroke="midnightblue" d="M1100.66,-705.32C1090.66,-697.26 1075.54,-685.08 1063.49,-675.37"/>
<polygon fill="midnightblue" stroke="midnightblue" points="1065.37,-672.38 1055.38,-668.83 1060.97,-677.83 1065.37,-672.38"/>
</g>
<!-- Node59 -->
<g id="node59" class="node">
<title>Node59</title>
<g id="a_node59"><a xlink:title=" ">
<polygon fill="white" stroke="#bfbfbf" points="1205.42,-649.5 1205.42,-668.5 1265.42,-668.5 1265.42,-649.5 1205.42,-649.5"/>
<text text-anchor="middle" x="1235.42" y="-656.5" font-family="Helvetica,sans-Serif" font-size="10.00">iostream</text>
</a>
</g>
</g>
<!-- Node54&#45;&gt;Node59 -->
<g id="edge175" class="edge">
<title>Node54&#45;&gt;Node59</title>
<path fill="none" stroke="midnightblue" d="M1131.07,-705.44C1151.39,-696.6 1183.33,-682.69 1206.52,-672.59"/>
<polygon fill="midnightblue" stroke="midnightblue" points="1208.1,-675.72 1215.87,-668.52 1205.3,-669.3 1208.1,-675.72"/>
</g>
<!-- Node55&#45;&gt;Node3 -->
<g id="edge150" class="edge">
<title>Node55&#45;&gt;Node3</title>
<path fill="none" stroke="midnightblue" d="M1256.09,-128.73C1248.83,-118.7 1236.77,-102.01 1227.66,-89.42"/>
<polygon fill="midnightblue" stroke="midnightblue" points="1230.36,-87.18 1221.66,-81.13 1224.69,-91.28 1230.36,-87.18"/>
</g>
<!-- Node55&#45;&gt;Node8 -->
<g id="edge153" class="edge">
<title>Node55&#45;&gt;Node8</title>
<path fill="none" stroke="midnightblue" d="M1323.16,-132.88C1367.76,-129.64 1429.83,-125.47 1484.42,-123 1642.98,-115.83 2757.72,-122.46 2912.42,-87 2914.78,-86.46 2917.18,-85.74 2919.54,-84.91"/>
<polygon fill="midnightblue" stroke="midnightblue" points="2921.01,-88.09 2928.91,-81.03 2918.33,-81.62 2921.01,-88.09"/>
</g>
<!-- Node55&#45;&gt;Node9 -->
<g id="edge154" class="edge">
<title>Node55&#45;&gt;Node9</title>
<path fill="none" stroke="midnightblue" d="M1323.2,-133.53C1367.81,-130.61 1429.89,-126.56 1484.42,-123 1770.56,-104.32 2116.19,-81.78 2224.38,-74.72"/>
<polygon fill="midnightblue" stroke="midnightblue" points="2224.92,-78.19 2234.67,-74.05 2224.47,-71.21 2224.92,-78.19"/>
</g>
<!-- Node55&#45;&gt;Node27 -->
<g id="edge151" class="edge">
<title>Node55&#45;&gt;Node27</title>
<path fill="none" stroke="midnightblue" d="M1224.48,-128.94C1168.37,-116.27 1064.06,-92.73 1009.6,-80.44"/>
<polygon fill="midnightblue" stroke="midnightblue" points="1010.24,-77 999.71,-78.21 1008.7,-83.82 1010.24,-77"/>
</g>
<!-- Node55&#45;&gt;Node28 -->
<g id="edge152" class="edge">
<title>Node55&#45;&gt;Node28</title>
<path fill="none" stroke="midnightblue" d="M1276.99,-128.73C1295.05,-117.87 1326.03,-99.22 1347.34,-86.39"/>
<polygon fill="midnightblue" stroke="midnightblue" points="1349.33,-89.28 1356.09,-81.13 1345.72,-83.29 1349.33,-89.28"/>
</g>
<!-- Node56&#45;&gt;Node5 -->
<g id="edge159" class="edge">
<title>Node56&#45;&gt;Node5</title>
<path fill="none" stroke="midnightblue" d="M1091.99,-654.81C1121.94,-652.9 1161.43,-650.54 1196.42,-649 1370.78,-641.33 2630.8,-669.27 2764.42,-557 2782.66,-541.68 2906.31,-177.45 2910.42,-154 2912.81,-140.43 2916.02,-135.59 2910.42,-123 2905.19,-111.23 2895.7,-101.04 2886,-92.96"/>
<polygon fill="midnightblue" stroke="midnightblue" points="2887.94,-90.04 2877.89,-86.68 2883.66,-95.57 2887.94,-90.04"/>
</g>
<!-- Node56&#45;&gt;Node7 -->
<g id="edge160" class="edge">
<title>Node56&#45;&gt;Node7</title>
<path fill="none" stroke="midnightblue" d="M1066.46,-649.48C1150.49,-616.44 1457.03,-490.72 1676.42,-333 1769.06,-266.4 1784.46,-239.12 1860.42,-154 1879.31,-132.83 1898.98,-106.61 1911.21,-89.72"/>
<polygon fill="midnightblue" stroke="midnightblue" points="1914.2,-91.55 1917.19,-81.39 1908.52,-87.47 1914.2,-91.55"/>
</g>
<!-- Node56&#45;&gt;Node16 -->
<g id="edge161" class="edge">
<title>Node56&#45;&gt;Node16</title>
<path fill="none" stroke="midnightblue" d="M1043.68,-649.34C1042.19,-629.27 1039.77,-578.14 1049.42,-537 1065.87,-466.88 1090.49,-456.57 1115.42,-389 1137.11,-330.24 1156.29,-258.43 1164.78,-225.12"/>
<polygon fill="midnightblue" stroke="midnightblue" points="1168.19,-225.92 1167.24,-215.37 1161.4,-224.21 1168.19,-225.92"/>
</g>
<!-- Node56&#45;&gt;Node19 -->
<g id="edge158" class="edge">
<title>Node56&#45;&gt;Node19</title>
<path fill="none" stroke="midnightblue" d="M996.58,-654.43C945.26,-649.45 862.04,-638.04 794.42,-613 605.65,-543.08 113.4,-328.73 13.42,-154 6.58,-142.04 5.67,-134.39 13.42,-123 26.89,-103.21 49.42,-91.18 71.86,-83.86"/>
<polygon fill="midnightblue" stroke="midnightblue" points="72.86,-87.21 81.44,-81 70.86,-80.51 72.86,-87.21"/>
</g>
<!-- Node56&#45;&gt;Node23 -->
<g id="edge172" class="edge">
<title>Node56&#45;&gt;Node23</title>
<path fill="none" stroke="midnightblue" d="M996.9,-656.54C901,-653.02 687.8,-642.08 621.42,-613 546.71,-580.27 483.42,-573.57 483.42,-492 483.42,-492 483.42,-492 483.42,-434 483.42,-320.96 377.46,-329.11 344.42,-221 331.7,-179.34 320.45,-160.01 343.42,-123 358.65,-98.47 389.73,-85.49 413.6,-78.87"/>
<polygon fill="midnightblue" stroke="midnightblue" points="414.49,-82.25 423.32,-76.4 412.77,-75.47 414.49,-82.25"/>
</g>
<!-- Node56&#45;&gt;Node53 -->
<g id="edge171" class="edge">
<title>Node56&#45;&gt;Node53</title>
<path fill="none" stroke="midnightblue" d="M996.68,-651.98C896.48,-636.4 673.42,-585 673.42,-436 673.42,-436 673.42,-436 673.42,-378 673.42,-338.78 706.05,-302.84 727.68,-283.32"/>
<polygon fill="midnightblue" stroke="midnightblue" points="730.08,-285.87 735.34,-276.67 725.49,-280.58 730.08,-285.87"/>
</g>
<!-- Node56&#45;&gt;Node57 -->
<g id="edge162" class="edge">
<title>Node56&#45;&gt;Node57</title>
<path fill="none" stroke="midnightblue" d="M1091.99,-654.92C1121.95,-653.05 1161.44,-650.7 1196.42,-649 1630.98,-627.93 2155.06,-611.14 2329.08,-605.79"/>
<polygon fill="midnightblue" stroke="midnightblue" points="2329.41,-609.28 2339.3,-605.48 2329.2,-602.29 2329.41,-609.28"/>
</g>
<!-- Node57&#45;&gt;Node4 -->
<g id="edge165" class="edge">
<title>Node57&#45;&gt;Node4</title>
<path fill="none" stroke="midnightblue" d="M2437.44,-598.34C2657.61,-580.7 3550.63,-496.25 3693.42,-277 3714.53,-244.6 3717.21,-220.49 3693.42,-190 3656.64,-142.85 3252.45,-95.45 3096.4,-78.77"/>
<polygon fill="midnightblue" stroke="midnightblue" points="3096.36,-75.25 3086.04,-77.67 3095.62,-82.21 3096.36,-75.25"/>
</g>
<!-- Node57&#45;&gt;Node6 -->
<g id="edge167" class="edge">
<title>Node57&#45;&gt;Node6</title>
<path fill="none" stroke="midnightblue" d="M2437.53,-597.08C2498.17,-587.99 2593.42,-562.48 2593.42,-492 2593.42,-492 2593.42,-492 2593.42,-434 2593.42,-311.33 2437.9,-376.69 2366.42,-277 2342.45,-243.56 2346.16,-193.04 2351.19,-163.45"/>
<polygon fill="midnightblue" stroke="midnightblue" points="2354.64,-164.04 2353.05,-153.56 2347.76,-162.74 2354.64,-164.04"/>
</g>
<!-- Node57&#45;&gt;Node15 -->
<g id="edge166" class="edge">
<title>Node57&#45;&gt;Node15</title>
<path fill="none" stroke="midnightblue" d="M2437.58,-599.19C2529.39,-593.61 2733.06,-579.69 2903.42,-557 3208.16,-516.42 3304.53,-536.2 3574.42,-389 3699.52,-320.77 3842.52,-234.21 3753.42,-123 3732.48,-96.86 3643.07,-83.36 3583.19,-77.11"/>
<polygon fill="midnightblue" stroke="midnightblue" points="3583.41,-73.62 3573.11,-76.1 3582.71,-80.58 3583.41,-73.62"/>
</g>
<!-- Node57&#45;&gt;Node19 -->
<g id="edge163" class="edge">
<title>Node57&#45;&gt;Node19</title>
<path fill="none" stroke="midnightblue" d="M2339.19,-594.62C2283.38,-586.12 2189.7,-571.47 2109.42,-557 1635.54,-471.59 1515.18,-455.17 1049.42,-333 935.86,-303.21 911.35,-280.99 796.42,-257 665.4,-229.65 626.86,-255.09 497.42,-221 367.95,-186.9 223.57,-115.49 166.54,-85.84"/>
<polygon fill="midnightblue" stroke="midnightblue" points="168.02,-82.67 157.54,-81.13 164.78,-88.87 168.02,-82.67"/>
</g>
<!-- Node57&#45;&gt;Node37 -->
<g id="edge169" class="edge">
<title>Node57&#45;&gt;Node37</title>
<path fill="none" stroke="midnightblue" d="M2339.37,-600.31C2112.51,-592.49 1164.5,-559.82 893.85,-550.5"/>
<polygon fill="midnightblue" stroke="midnightblue" points="893.87,-546.99 883.75,-550.15 893.63,-553.99 893.87,-546.99"/>
</g>
<!-- Node57&#45;&gt;Node39 -->
<g id="edge168" class="edge">
<title>Node57&#45;&gt;Node39</title>
<path fill="none" stroke="midnightblue" d="M2352.32,-593.46C2268.72,-573.68 2061.9,-524.76 1969.41,-502.88"/>
<polygon fill="midnightblue" stroke="midnightblue" points="1970.04,-499.43 1959.5,-500.53 1968.43,-506.24 1970.04,-499.43"/>
</g>
<!-- Node57&#45;&gt;Node53 -->
<g id="edge170" class="edge">
<title>Node57&#45;&gt;Node53</title>
<path fill="none" stroke="midnightblue" d="M2339.19,-601.34C2129.03,-598.37 1312.77,-585.11 1201.42,-557 1005.94,-507.66 817.24,-336.69 762.35,-283.75"/>
<polygon fill="midnightblue" stroke="midnightblue" points="764.58,-281.03 754.97,-276.56 759.69,-286.05 764.58,-281.03"/>
</g>
<!-- Node58 -->
<g id="node58" class="node">
<title>Node58</title>
<g id="a_node58"><a xlink:title=" ">
<polygon fill="white" stroke="#bfbfbf" points="2621.42,-537.5 2621.42,-556.5 2755.42,-556.5 2755.42,-537.5 2621.42,-537.5"/>
<text text-anchor="middle" x="2688.42" y="-544.5" font-family="Helvetica,sans-Serif" font-size="10.00">tvm/ffi/container/tuple.h</text>
</a>
</g>
</g>
<!-- Node57&#45;&gt;Node58 -->
<g id="edge164" class="edge">
<title>Node57&#45;&gt;Node58</title>
<path fill="none" stroke="midnightblue" d="M2435.96,-593.44C2488.95,-583.9 2574.63,-568.48 2631.24,-558.29"/>
<polygon fill="midnightblue" stroke="midnightblue" points="2631.89,-561.73 2641.11,-556.52 2630.65,-554.84 2631.89,-561.73"/>
</g>
</g>
</svg>
