<?xml version="1.0" encoding="UTF-8" standalone="no"?>
<!DOCTYPE svg PUBLIC "-//W3C//DTD SVG 1.1//EN"
 "http://www.w3.org/Graphics/SVG/1.1/DTD/svg11.dtd">
<!-- Generated by graphviz version 2.43.0 (0)
 -->
<!-- Title: include/tvm/tirx/op_attr_types.h Pages: 1 -->
<svg width="1403pt" height="274pt"
 viewBox="0.00 0.00 1403.00 274.00" xmlns="http://www.w3.org/2000/svg" xmlns:xlink="http://www.w3.org/1999/xlink">
<g id="graph0" class="graph" transform="scale(1 1) rotate(0) translate(4 270)">
<title>include/tvm/tirx/op_attr_types.h</title>
<polygon fill="white" stroke="transparent" points="-4,4 -4,-270 1399,-270 1399,4 -4,4"/>
<!-- Node1 -->
<g id="node1" class="node">
<title>Node1</title>
<g id="a_node1"><a xlink:title="Attribute types in the Op registry for TIR ops.">
<polygon fill="#bfbfbf" stroke="black" points="523,-235.5 523,-265.5 632,-265.5 632,-235.5 523,-235.5"/>
<text text-anchor="start" x="531" y="-253.5" font-family="Helvetica,sans-Serif" font-size="10.00">include/tvm/tirx/op</text>
<text text-anchor="middle" x="577.5" y="-242.5" font-family="Helvetica,sans-Serif" font-size="10.00">_attr_types.h</text>
</a>
</g>
</g>
<!-- Node2 -->
<g id="node2" class="node">
<title>Node2</title>
<g id="a_node2"><a xlink:title=" ">
<polygon fill="white" stroke="#bfbfbf" points="0,-62 0,-81 101,-81 101,-62 0,-62"/>
<text text-anchor="middle" x="50.5" y="-69" font-family="Helvetica,sans-Serif" font-size="10.00">tvm/ffi/function.h</text>
</a>
</g>
</g>
<!-- Node1&#45;&gt;Node2 -->
<g id="edge1" class="edge">
<title>Node1&#45;&gt;Node2</title>
<path fill="none" stroke="midnightblue" d="M522.95,-237.35C448.88,-220.11 312.96,-185.83 201.5,-143 156.37,-125.66 105.82,-100.92 76.15,-85.82"/>
<polygon fill="midnightblue" stroke="midnightblue" points="77.42,-82.54 66.93,-81.1 74.23,-88.77 77.42,-82.54"/>
</g>
<!-- Node3 -->
<g id="node3" class="node">
<title>Node3</title>
<g id="a_node3"><a xlink:title=" ">
<polygon fill="white" stroke="#bfbfbf" points="211,-123.5 211,-142.5 300,-142.5 300,-123.5 211,-123.5"/>
<text text-anchor="middle" x="255.5" y="-130.5" font-family="Helvetica,sans-Serif" font-size="10.00">tvm/ffi/string.h</text>
</a>
</g>
</g>
<!-- Node1&#45;&gt;Node3 -->
<g id="edge2" class="edge">
<title>Node1&#45;&gt;Node3</title>
<path fill="none" stroke="midnightblue" d="M538.34,-235.45C474.49,-212.55 349.07,-167.56 289.05,-146.03"/>
<polygon fill="midnightblue" stroke="midnightblue" points="289.91,-142.62 279.31,-142.54 287.55,-149.21 289.91,-142.62"/>
</g>
<!-- Node4 -->
<g id="node4" class="node">
<title>Node4</title>
<g id="a_node4"><a xlink:href="ir_2expr_8h.html" target="_top" xlink:title="Base expr nodes in TVM.">
<polygon fill="white" stroke="black" points="646,-179.5 646,-198.5 725,-198.5 725,-179.5 646,-179.5"/>
<text text-anchor="middle" x="685.5" y="-186.5" font-family="Helvetica,sans-Serif" font-size="10.00">tvm/ir/expr.h</text>
</a>
</g>
</g>
<!-- Node1&#45;&gt;Node4 -->
<g id="edge3" class="edge">
<title>Node1&#45;&gt;Node4</title>
<path fill="none" stroke="midnightblue" d="M603.09,-235.4C620.57,-225.77 643.59,-213.09 660.86,-203.58"/>
<polygon fill="midnightblue" stroke="midnightblue" points="662.72,-206.55 669.79,-198.66 659.34,-200.42 662.72,-206.55"/>
</g>
<!-- Node26 -->
<g id="node26" class="node">
<title>Node26</title>
<g id="a_node26"><a xlink:title=" ">
<polygon fill="white" stroke="#bfbfbf" points="743,-179.5 743,-198.5 800,-198.5 800,-179.5 743,-179.5"/>
<text text-anchor="middle" x="771.5" y="-186.5" font-family="Helvetica,sans-Serif" font-size="10.00">ostream</text>
</a>
</g>
</g>
<!-- Node1&#45;&gt;Node26 -->
<g id="edge33" class="edge">
<title>Node1&#45;&gt;Node26</title>
<path fill="none" stroke="midnightblue" d="M623.48,-235.4C657.14,-225.07 702.28,-211.23 733.82,-201.56"/>
<polygon fill="midnightblue" stroke="midnightblue" points="735.02,-204.85 743.55,-198.57 732.97,-198.16 735.02,-204.85"/>
</g>
<!-- Node4&#45;&gt;Node3 -->
<g id="edge6" class="edge">
<title>Node4&#45;&gt;Node3</title>
<path fill="none" stroke="midnightblue" d="M645.92,-183.6C578.02,-175.97 435.03,-159.5 314.5,-143 313.2,-142.82 311.89,-142.64 310.56,-142.45"/>
<polygon fill="midnightblue" stroke="midnightblue" points="310.65,-138.93 300.26,-140.97 309.66,-145.86 310.65,-138.93"/>
</g>
<!-- Node5 -->
<g id="node5" class="node">
<title>Node5</title>
<g id="a_node5"><a xlink:title=" ">
<polygon fill="white" stroke="#bfbfbf" points="492.5,-123.5 492.5,-142.5 628.5,-142.5 628.5,-123.5 492.5,-123.5"/>
<text text-anchor="middle" x="560.5" y="-130.5" font-family="Helvetica,sans-Serif" font-size="10.00">tvm/ffi/extra/dataclass.h</text>
</a>
</g>
</g>
<!-- Node4&#45;&gt;Node5 -->
<g id="edge4" class="edge">
<title>Node4&#45;&gt;Node5</title>
<path fill="none" stroke="midnightblue" d="M665.69,-179.44C645.21,-170.6 613.02,-156.69 589.64,-146.59"/>
<polygon fill="midnightblue" stroke="midnightblue" points="590.78,-143.27 580.21,-142.52 588.01,-149.7 590.78,-143.27"/>
</g>
<!-- Node6 -->
<g id="node6" class="node">
<title>Node6</title>
<g id="a_node6"><a xlink:title=" ">
<polygon fill="white" stroke="#bfbfbf" points="119.5,-56.5 119.5,-86.5 217.5,-86.5 217.5,-56.5 119.5,-56.5"/>
<text text-anchor="start" x="127.5" y="-74.5" font-family="Helvetica,sans-Serif" font-size="10.00">tvm/ffi/reflection</text>
<text text-anchor="middle" x="168.5" y="-63.5" font-family="Helvetica,sans-Serif" font-size="10.00">/registry.h</text>
</a>
</g>
</g>
<!-- Node4&#45;&gt;Node6 -->
<g id="edge5" class="edge">
<title>Node4&#45;&gt;Node6</title>
<path fill="none" stroke="midnightblue" d="M645.78,-187.07C581.64,-184.61 451.88,-175.64 347.5,-143 328.91,-137.19 326.37,-130.77 308.5,-123 280.22,-110.71 247.88,-98.9 221.41,-89.8"/>
<polygon fill="midnightblue" stroke="midnightblue" points="222.54,-86.49 211.95,-86.57 220.28,-93.11 222.54,-86.49"/>
</g>
<!-- Node7 -->
<g id="node7" class="node">
<title>Node7</title>
<g id="a_node7"><a xlink:href="cow_8h.html" target="_top" xlink:title="Copy&#45;on&#45;write helper macro for IR ffi::ObjectRef types.">
<polygon fill="white" stroke="black" points="647,-123.5 647,-142.5 724,-142.5 724,-123.5 647,-123.5"/>
<text text-anchor="middle" x="685.5" y="-130.5" font-family="Helvetica,sans-Serif" font-size="10.00">tvm/ir/cow.h</text>
</a>
</g>
</g>
<!-- Node4&#45;&gt;Node7 -->
<g id="edge7" class="edge">
<title>Node4&#45;&gt;Node7</title>
<path fill="none" stroke="midnightblue" d="M685.5,-179.08C685.5,-172.01 685.5,-161.86 685.5,-152.99"/>
<polygon fill="midnightblue" stroke="midnightblue" points="689,-152.75 685.5,-142.75 682,-152.75 689,-152.75"/>
</g>
<!-- Node10 -->
<g id="node10" class="node">
<title>Node10</title>
<g id="a_node10"><a xlink:href="source__map_8h.html" target="_top" xlink:title="A map from source names to source code.">
<polygon fill="white" stroke="black" points="357,-123.5 357,-142.5 474,-142.5 474,-123.5 357,-123.5"/>
<text text-anchor="middle" x="415.5" y="-130.5" font-family="Helvetica,sans-Serif" font-size="10.00">tvm/ir/source_map.h</text>
</a>
</g>
</g>
<!-- Node4&#45;&gt;Node10 -->
<g id="edge10" class="edge">
<title>Node4&#45;&gt;Node10</title>
<path fill="none" stroke="midnightblue" d="M645.95,-180.09C598.99,-170.7 520.47,-154.99 468.34,-144.57"/>
<polygon fill="midnightblue" stroke="midnightblue" points="468.77,-141.08 458.28,-142.56 467.4,-147.95 468.77,-141.08"/>
</g>
<!-- Node15 -->
<g id="node15" class="node">
<title>Node15</title>
<g id="a_node15"><a xlink:title=" ">
<polygon fill="white" stroke="#bfbfbf" points="698.5,-62 698.5,-81 742.5,-81 742.5,-62 698.5,-62"/>
<text text-anchor="middle" x="720.5" y="-69" font-family="Helvetica,sans-Serif" font-size="10.00">string</text>
</a>
</g>
</g>
<!-- Node4&#45;&gt;Node15 -->
<g id="edge31" class="edge">
<title>Node4&#45;&gt;Node15</title>
<path fill="none" stroke="midnightblue" d="M699.58,-179.26C710.85,-171.35 725.85,-158.58 732.5,-143 739.72,-126.09 734.57,-105.16 728.95,-90.51"/>
<polygon fill="midnightblue" stroke="midnightblue" points="732.08,-88.93 724.94,-81.11 725.64,-91.68 732.08,-88.93"/>
</g>
<!-- Node17 -->
<g id="node17" class="node">
<title>Node17</title>
<g id="a_node17"><a xlink:href="data__type_8h.html" target="_top" xlink:title=" ">
<polygon fill="white" stroke="black" points="780.5,-123.5 780.5,-142.5 918.5,-142.5 918.5,-123.5 780.5,-123.5"/>
<text text-anchor="middle" x="849.5" y="-130.5" font-family="Helvetica,sans-Serif" font-size="10.00">tvm/runtime/data_type.h</text>
</a>
</g>
</g>
<!-- Node4&#45;&gt;Node17 -->
<g id="edge20" class="edge">
<title>Node4&#45;&gt;Node17</title>
<path fill="none" stroke="midnightblue" d="M711.49,-179.44C739.2,-170.32 783.25,-155.81 814.12,-145.65"/>
<polygon fill="midnightblue" stroke="midnightblue" points="815.23,-148.97 823.64,-142.52 813.04,-142.32 815.23,-148.97"/>
</g>
<!-- Node22 -->
<g id="node22" class="node">
<title>Node22</title>
<g id="a_node22"><a xlink:title=" ">
<polygon fill="white" stroke="#bfbfbf" points="1326,-62 1326,-81 1395,-81 1395,-62 1326,-62"/>
<text text-anchor="middle" x="1360.5" y="-69" font-family="Helvetica,sans-Serif" font-size="10.00">type_traits</text>
</a>
</g>
</g>
<!-- Node4&#45;&gt;Node22 -->
<g id="edge32" class="edge">
<title>Node4&#45;&gt;Node22</title>
<path fill="none" stroke="midnightblue" d="M725.05,-180.58C727.91,-180.04 730.75,-179.51 733.5,-179 819.71,-162.92 844.65,-171.75 927.5,-143 945.53,-136.74 947.23,-128.52 965.5,-123 1115.62,-77.66 1163.14,-119.73 1316.5,-87 1320.18,-86.22 1323.98,-85.23 1327.74,-84.15"/>
<polygon fill="midnightblue" stroke="midnightblue" points="1328.96,-87.44 1337.47,-81.13 1326.88,-80.75 1328.96,-87.44"/>
</g>
<!-- Node23 -->
<g id="node23" class="node">
<title>Node23</title>
<g id="a_node23"><a xlink:title=" ">
<polygon fill="white" stroke="#bfbfbf" points="974.5,-123.5 974.5,-142.5 1038.5,-142.5 1038.5,-123.5 974.5,-123.5"/>
<text text-anchor="middle" x="1006.5" y="-130.5" font-family="Helvetica,sans-Serif" font-size="10.00">algorithm</text>
</a>
</g>
</g>
<!-- Node4&#45;&gt;Node23 -->
<g id="edge28" class="edge">
<title>Node4&#45;&gt;Node23</title>
<path fill="none" stroke="midnightblue" d="M725.04,-180.5C727.9,-179.98 730.74,-179.48 733.5,-179 834.15,-161.59 859.91,-160.81 960.5,-143 961.76,-142.78 963.04,-142.55 964.34,-142.31"/>
<polygon fill="midnightblue" stroke="midnightblue" points="965.17,-145.72 974.36,-140.44 963.88,-138.84 965.17,-145.72"/>
</g>
<!-- Node24 -->
<g id="node24" class="node">
<title>Node24</title>
<g id="a_node24"><a xlink:title=" ">
<polygon fill="white" stroke="#bfbfbf" points="1057,-123.5 1057,-142.5 1122,-142.5 1122,-123.5 1057,-123.5"/>
<text text-anchor="middle" x="1089.5" y="-130.5" font-family="Helvetica,sans-Serif" font-size="10.00">functional</text>
</a>
</g>
</g>
<!-- Node4&#45;&gt;Node24 -->
<g id="edge29" class="edge">
<title>Node4&#45;&gt;Node24</title>
<path fill="none" stroke="midnightblue" d="M725.01,-180.36C727.88,-179.88 730.73,-179.42 733.5,-179 869.14,-158.53 907.12,-165.4 1046.77,-142.96"/>
<polygon fill="midnightblue" stroke="midnightblue" points="1047.69,-146.35 1057,-141.29 1046.57,-139.44 1047.69,-146.35"/>
</g>
<!-- Node25 -->
<g id="node25" class="node">
<title>Node25</title>
<g id="a_node25"><a xlink:title=" ">
<polygon fill="white" stroke="#bfbfbf" points="1140.5,-123.5 1140.5,-142.5 1184.5,-142.5 1184.5,-123.5 1140.5,-123.5"/>
<text text-anchor="middle" x="1162.5" y="-130.5" font-family="Helvetica,sans-Serif" font-size="10.00">limits</text>
</a>
</g>
</g>
<!-- Node4&#45;&gt;Node25 -->
<g id="edge30" class="edge">
<title>Node4&#45;&gt;Node25</title>
<path fill="none" stroke="midnightblue" d="M725,-180.28C727.87,-179.82 730.73,-179.38 733.5,-179 906.16,-155.06 955.16,-175.14 1130.21,-142.89"/>
<polygon fill="midnightblue" stroke="midnightblue" points="1131.09,-146.29 1140.27,-141.01 1129.8,-139.41 1131.09,-146.29"/>
</g>
<!-- Node8 -->
<g id="node8" class="node">
<title>Node8</title>
<g id="a_node8"><a xlink:title=" ">
<polygon fill="white" stroke="#bfbfbf" points="589,-62 589,-81 680,-81 680,-62 589,-62"/>
<text text-anchor="middle" x="634.5" y="-69" font-family="Helvetica,sans-Serif" font-size="10.00">tvm/ffi/object.h</text>
</a>
</g>
</g>
<!-- Node7&#45;&gt;Node8 -->
<g id="edge8" class="edge">
<title>Node7&#45;&gt;Node8</title>
<path fill="none" stroke="midnightblue" d="M678.19,-123.48C670.47,-114.46 658.09,-100.02 648.48,-88.81"/>
<polygon fill="midnightblue" stroke="midnightblue" points="650.96,-86.32 641.79,-81.01 645.64,-90.88 650.96,-86.32"/>
</g>
<!-- Node9 -->
<g id="node9" class="node">
<title>Node9</title>
<g id="a_node9"><a xlink:title=" ">
<polygon fill="white" stroke="#bfbfbf" points="526,-62 526,-81 571,-81 571,-62 526,-62"/>
<text text-anchor="middle" x="548.5" y="-69" font-family="Helvetica,sans-Serif" font-size="10.00">utility</text>
</a>
</g>
</g>
<!-- Node7&#45;&gt;Node9 -->
<g id="edge9" class="edge">
<title>Node7&#45;&gt;Node9</title>
<path fill="none" stroke="midnightblue" d="M664.69,-123.42C643.24,-114.53 608.9,-100.11 579.5,-87 578.31,-86.47 577.1,-85.92 575.87,-85.37"/>
<polygon fill="midnightblue" stroke="midnightblue" points="577.03,-82.05 566.48,-81.04 574.1,-88.41 577.03,-82.05"/>
</g>
<!-- Node10&#45;&gt;Node2 -->
<g id="edge12" class="edge">
<title>Node10&#45;&gt;Node2</title>
<path fill="none" stroke="midnightblue" d="M356.76,-124.94C295.15,-117.16 195.62,-103.53 110.5,-87 104.98,-85.93 99.2,-84.69 93.49,-83.39"/>
<polygon fill="midnightblue" stroke="midnightblue" points="93.93,-79.89 83.39,-81.02 92.33,-86.71 93.93,-79.89"/>
</g>
<!-- Node10&#45;&gt;Node6 -->
<g id="edge13" class="edge">
<title>Node10&#45;&gt;Node6</title>
<path fill="none" stroke="midnightblue" d="M379.24,-123.49C343.18,-115.01 286.01,-101.48 227.35,-87.19"/>
<polygon fill="midnightblue" stroke="midnightblue" points="228.08,-83.77 217.54,-84.8 226.42,-90.57 228.08,-83.77"/>
</g>
<!-- Node10&#45;&gt;Node9 -->
<g id="edge18" class="edge">
<title>Node10&#45;&gt;Node9</title>
<path fill="none" stroke="midnightblue" d="M434.88,-123.41C455.22,-114.38 488.13,-99.75 516.5,-87 517.69,-86.47 518.9,-85.92 520.13,-85.37"/>
<polygon fill="midnightblue" stroke="midnightblue" points="521.89,-88.41 529.56,-81.11 519,-82.03 521.89,-88.41"/>
</g>
<!-- Node11 -->
<g id="node11" class="node">
<title>Node11</title>
<g id="a_node11"><a xlink:title=" ">
<polygon fill="white" stroke="#bfbfbf" points="235.5,-62 235.5,-81 369.5,-81 369.5,-62 235.5,-62"/>
<text text-anchor="middle" x="302.5" y="-69" font-family="Helvetica,sans-Serif" font-size="10.00">tvm/ffi/container/array.h</text>
</a>
</g>
</g>
<!-- Node10&#45;&gt;Node11 -->
<g id="edge11" class="edge">
<title>Node10&#45;&gt;Node11</title>
<path fill="none" stroke="midnightblue" d="M399.31,-123.48C380.6,-113.62 349.58,-97.29 327.7,-85.77"/>
<polygon fill="midnightblue" stroke="midnightblue" points="329.14,-82.57 318.66,-81.01 325.88,-88.77 329.14,-82.57"/>
</g>
<!-- Node12 -->
<g id="node12" class="node">
<title>Node12</title>
<g id="a_node12"><a xlink:href="runtime_2base_8h.html" target="_top" xlink:title=" ">
<polygon fill="white" stroke="black" points="761,-62 761,-81 874,-81 874,-62 761,-62"/>
<text text-anchor="middle" x="817.5" y="-69" font-family="Helvetica,sans-Serif" font-size="10.00">tvm/runtime/base.h</text>
</a>
</g>
</g>
<!-- Node10&#45;&gt;Node12 -->
<g id="edge14" class="edge">
<title>Node10&#45;&gt;Node12</title>
<path fill="none" stroke="midnightblue" d="M474.09,-124.22C568.56,-111.66 744.73,-88.2 751.5,-87 757.87,-85.88 764.55,-84.56 771.13,-83.2"/>
<polygon fill="midnightblue" stroke="midnightblue" points="772.25,-86.54 781.3,-81.02 770.79,-79.69 772.25,-86.54"/>
</g>
<!-- Node14 -->
<g id="node14" class="node">
<title>Node14</title>
<g id="a_node14"><a xlink:title=" ">
<polygon fill="white" stroke="#bfbfbf" points="388,-62 388,-81 443,-81 443,-62 388,-62"/>
<text text-anchor="middle" x="415.5" y="-69" font-family="Helvetica,sans-Serif" font-size="10.00">fstream</text>
</a>
</g>
</g>
<!-- Node10&#45;&gt;Node14 -->
<g id="edge16" class="edge">
<title>Node10&#45;&gt;Node14</title>
<path fill="none" stroke="midnightblue" d="M415.5,-123.48C415.5,-115.08 415.5,-101.98 415.5,-91.16"/>
<polygon fill="midnightblue" stroke="midnightblue" points="419,-91.01 415.5,-81.01 412,-91.01 419,-91.01"/>
</g>
<!-- Node10&#45;&gt;Node15 -->
<g id="edge17" class="edge">
<title>Node10&#45;&gt;Node15</title>
<path fill="none" stroke="midnightblue" d="M474.3,-124.15C542.18,-114.76 649.48,-98.83 688.5,-87 690.43,-86.42 692.39,-85.74 694.34,-85.01"/>
<polygon fill="midnightblue" stroke="midnightblue" points="696,-88.11 703.88,-81.03 693.3,-81.65 696,-88.11"/>
</g>
<!-- Node16 -->
<g id="node16" class="node">
<title>Node16</title>
<g id="a_node16"><a xlink:title=" ">
<polygon fill="white" stroke="#bfbfbf" points="461,-62 461,-81 508,-81 508,-62 461,-62"/>
<text text-anchor="middle" x="484.5" y="-69" font-family="Helvetica,sans-Serif" font-size="10.00">vector</text>
</a>
</g>
</g>
<!-- Node10&#45;&gt;Node16 -->
<g id="edge19" class="edge">
<title>Node10&#45;&gt;Node16</title>
<path fill="none" stroke="midnightblue" d="M425.39,-123.48C436.15,-114.2 453.57,-99.17 466.72,-87.83"/>
<polygon fill="midnightblue" stroke="midnightblue" points="469.34,-90.19 474.63,-81.01 464.77,-84.89 469.34,-90.19"/>
</g>
<!-- Node13 -->
<g id="node13" class="node">
<title>Node13</title>
<g id="a_node13"><a xlink:title=" ">
<polygon fill="white" stroke="#bfbfbf" points="774.5,-0.5 774.5,-19.5 860.5,-19.5 860.5,-0.5 774.5,-0.5"/>
<text text-anchor="middle" x="817.5" y="-7.5" font-family="Helvetica,sans-Serif" font-size="10.00">tvm/ffi/c_api.h</text>
</a>
</g>
</g>
<!-- Node12&#45;&gt;Node13 -->
<g id="edge15" class="edge">
<title>Node12&#45;&gt;Node13</title>
<path fill="none" stroke="midnightblue" d="M817.5,-61.98C817.5,-53.58 817.5,-40.48 817.5,-29.66"/>
<polygon fill="midnightblue" stroke="midnightblue" points="821,-29.51 817.5,-19.51 814,-29.51 821,-29.51"/>
</g>
<!-- Node17&#45;&gt;Node12 -->
<g id="edge24" class="edge">
<title>Node17&#45;&gt;Node12</title>
<path fill="none" stroke="midnightblue" d="M844.92,-123.48C840.26,-114.82 832.91,-101.15 826.99,-90.15"/>
<polygon fill="midnightblue" stroke="midnightblue" points="829.9,-88.16 822.08,-81.01 823.73,-91.47 829.9,-88.16"/>
</g>
<!-- Node17&#45;&gt;Node15 -->
<g id="edge26" class="edge">
<title>Node17&#45;&gt;Node15</title>
<path fill="none" stroke="midnightblue" d="M830.69,-123.41C810.95,-114.39 779.02,-99.75 751.5,-87 750.35,-86.47 749.17,-85.92 747.98,-85.37"/>
<polygon fill="midnightblue" stroke="midnightblue" points="749.39,-82.16 738.85,-81.11 746.43,-88.51 749.39,-82.16"/>
</g>
<!-- Node18 -->
<g id="node18" class="node">
<title>Node18</title>
<g id="a_node18"><a xlink:title=" ">
<polygon fill="white" stroke="#bfbfbf" points="892,-62 892,-81 1031,-81 1031,-62 892,-62"/>
<text text-anchor="middle" x="961.5" y="-69" font-family="Helvetica,sans-Serif" font-size="10.00">tvm/ffi/container/shape.h</text>
</a>
</g>
</g>
<!-- Node17&#45;&gt;Node18 -->
<g id="edge21" class="edge">
<title>Node17&#45;&gt;Node18</title>
<path fill="none" stroke="midnightblue" d="M865.55,-123.48C884.09,-113.62 914.84,-97.29 936.52,-85.77"/>
<polygon fill="midnightblue" stroke="midnightblue" points="938.29,-88.79 945.48,-81.01 935.01,-82.61 938.29,-88.79"/>
</g>
<!-- Node19 -->
<g id="node19" class="node">
<title>Node19</title>
<g id="a_node19"><a xlink:title=" ">
<polygon fill="white" stroke="#bfbfbf" points="1049,-62 1049,-81 1138,-81 1138,-62 1049,-62"/>
<text text-anchor="middle" x="1093.5" y="-69" font-family="Helvetica,sans-Serif" font-size="10.00">tvm/ffi/dtype.h</text>
</a>
</g>
</g>
<!-- Node17&#45;&gt;Node19 -->
<g id="edge22" class="edge">
<title>Node17&#45;&gt;Node19</title>
<path fill="none" stroke="midnightblue" d="M887.65,-123.43C926.27,-114.66 987.68,-100.44 1040.5,-87 1044.61,-85.95 1048.89,-84.83 1053.15,-83.7"/>
<polygon fill="midnightblue" stroke="midnightblue" points="1054.26,-87.03 1063,-81.04 1052.43,-80.27 1054.26,-87.03"/>
</g>
<!-- Node20 -->
<g id="node20" class="node">
<title>Node20</title>
<g id="a_node20"><a xlink:title=" ">
<polygon fill="white" stroke="#bfbfbf" points="1156,-62 1156,-81 1239,-81 1239,-62 1156,-62"/>
<text text-anchor="middle" x="1197.5" y="-69" font-family="Helvetica,sans-Serif" font-size="10.00">tvm/ffi/error.h</text>
</a>
</g>
</g>
<!-- Node17&#45;&gt;Node20 -->
<g id="edge23" class="edge">
<title>Node17&#45;&gt;Node20</title>
<path fill="none" stroke="midnightblue" d="M918.62,-124.2C979.33,-116.72 1069.82,-104.05 1147.5,-87 1151.72,-86.07 1156.11,-84.99 1160.46,-83.83"/>
<polygon fill="midnightblue" stroke="midnightblue" points="1161.72,-87.11 1170.42,-81.06 1159.85,-80.37 1161.72,-87.11"/>
</g>
<!-- Node21 -->
<g id="node21" class="node">
<title>Node21</title>
<g id="a_node21"><a xlink:title=" ">
<polygon fill="white" stroke="#bfbfbf" points="1257.5,-62 1257.5,-81 1307.5,-81 1307.5,-62 1257.5,-62"/>
<text text-anchor="middle" x="1282.5" y="-69" font-family="Helvetica,sans-Serif" font-size="10.00">cstring</text>
</a>
</g>
</g>
<!-- Node17&#45;&gt;Node21 -->
<g id="edge25" class="edge">
<title>Node17&#45;&gt;Node21</title>
<path fill="none" stroke="midnightblue" d="M918.67,-124.46C1030.79,-112.19 1240.61,-89.08 1248.5,-87 1250.86,-86.38 1253.26,-85.62 1255.65,-84.79"/>
<polygon fill="midnightblue" stroke="midnightblue" points="1257.17,-87.95 1265.2,-81.03 1254.61,-81.43 1257.17,-87.95"/>
</g>
<!-- Node17&#45;&gt;Node22 -->
<g id="edge27" class="edge">
<title>Node17&#45;&gt;Node22</title>
<path fill="none" stroke="midnightblue" d="M918.78,-124.41C923.42,-123.93 928.03,-123.45 932.5,-123 1103.05,-105.76 1148.71,-122.05 1316.5,-87 1320.38,-86.19 1324.39,-85.16 1328.34,-84.01"/>
<polygon fill="midnightblue" stroke="midnightblue" points="1329.43,-87.34 1337.93,-81.02 1327.34,-80.66 1329.43,-87.34"/>
</g>
</g>
</svg>
