<?xml version="1.0" encoding="UTF-8" standalone="no"?>
<!DOCTYPE svg PUBLIC "-//W3C//DTD SVG 1.1//EN"
 "http://www.w3.org/Graphics/SVG/1.1/DTD/svg11.dtd">
<!-- Generated by graphviz version 2.43.0 (0)
 -->
<!-- Title: include/tvm/topi/utils.h Pages: 1 -->
<svg width="1403pt" height="263pt"
 viewBox="0.00 0.00 1403.00 263.00" xmlns="http://www.w3.org/2000/svg" xmlns:xlink="http://www.w3.org/1999/xlink">
<g id="graph0" class="graph" transform="scale(1 1) rotate(0) translate(4 259)">
<title>include/tvm/topi/utils.h</title>
<polygon fill="white" stroke="transparent" points="-4,4 -4,-259 1399,-259 1399,4 -4,4"/>
<!-- Node1 -->
<g id="node1" class="node">
<title>Node1</title>
<g id="a_node1"><a xlink:title="Topi utility function.">
<polygon fill="#bfbfbf" stroke="black" points="297,-235.5 297,-254.5 426,-254.5 426,-235.5 297,-235.5"/>
<text text-anchor="middle" x="361.5" y="-242.5" font-family="Helvetica,sans-Serif" font-size="10.00">include/tvm/topi/utils.h</text>
</a>
</g>
</g>
<!-- Node2 -->
<g id="node2" class="node">
<title>Node2</title>
<g id="a_node2"><a xlink:title=" ">
<polygon fill="white" stroke="#bfbfbf" points="0,-62 0,-81 101,-81 101,-62 0,-62"/>
<text text-anchor="middle" x="50.5" y="-69" font-family="Helvetica,sans-Serif" font-size="10.00">tvm/ffi/function.h</text>
</a>
</g>
</g>
<!-- Node1&#45;&gt;Node2 -->
<g id="edge1" class="edge">
<title>Node1&#45;&gt;Node2</title>
<path fill="none" stroke="midnightblue" d="M346.08,-235.5C295.82,-207.78 136.47,-119.91 75.01,-86.01"/>
<polygon fill="midnightblue" stroke="midnightblue" points="76.46,-82.82 66.02,-81.06 73.08,-88.95 76.46,-82.82"/>
</g>
<!-- Node3 -->
<g id="node3" class="node">
<title>Node3</title>
<g id="a_node3"><a xlink:href="ir_2expr_8h.html" target="_top" xlink:title="Base expr nodes in TVM.">
<polygon fill="white" stroke="black" points="786,-179.5 786,-198.5 865,-198.5 865,-179.5 786,-179.5"/>
<text text-anchor="middle" x="825.5" y="-186.5" font-family="Helvetica,sans-Serif" font-size="10.00">tvm/ir/expr.h</text>
</a>
</g>
</g>
<!-- Node1&#45;&gt;Node3 -->
<g id="edge2" class="edge">
<title>Node1&#45;&gt;Node3</title>
<path fill="none" stroke="midnightblue" d="M426.02,-236.49C519.6,-225.6 691.04,-205.65 775.62,-195.81"/>
<polygon fill="midnightblue" stroke="midnightblue" points="776.2,-199.26 785.73,-194.63 775.4,-192.31 776.2,-199.26"/>
</g>
<!-- Node4 -->
<g id="node4" class="node">
<title>Node4</title>
<g id="a_node4"><a xlink:title=" ">
<polygon fill="white" stroke="#bfbfbf" points="492.5,-123.5 492.5,-142.5 628.5,-142.5 628.5,-123.5 492.5,-123.5"/>
<text text-anchor="middle" x="560.5" y="-130.5" font-family="Helvetica,sans-Serif" font-size="10.00">tvm/ffi/extra/dataclass.h</text>
</a>
</g>
</g>
<!-- Node3&#45;&gt;Node4 -->
<g id="edge3" class="edge">
<title>Node3&#45;&gt;Node4</title>
<path fill="none" stroke="midnightblue" d="M785.83,-179.92C739.67,-170.51 663.3,-154.95 612.45,-144.59"/>
<polygon fill="midnightblue" stroke="midnightblue" points="613.14,-141.15 602.64,-142.59 611.74,-148.01 613.14,-141.15"/>
</g>
<!-- Node5 -->
<g id="node5" class="node">
<title>Node5</title>
<g id="a_node5"><a xlink:title=" ">
<polygon fill="white" stroke="#bfbfbf" points="119.5,-56.5 119.5,-86.5 217.5,-86.5 217.5,-56.5 119.5,-56.5"/>
<text text-anchor="start" x="127.5" y="-74.5" font-family="Helvetica,sans-Serif" font-size="10.00">tvm/ffi/reflection</text>
<text text-anchor="middle" x="168.5" y="-63.5" font-family="Helvetica,sans-Serif" font-size="10.00">/registry.h</text>
</a>
</g>
</g>
<!-- Node3&#45;&gt;Node5 -->
<g id="edge4" class="edge">
<title>Node3&#45;&gt;Node5</title>
<path fill="none" stroke="midnightblue" d="M785.86,-188.01C703.18,-187.21 506.8,-181.06 347.5,-143 297.02,-130.94 241.87,-107.54 206.32,-91.02"/>
<polygon fill="midnightblue" stroke="midnightblue" points="207.37,-87.65 196.83,-86.56 204.39,-93.98 207.37,-87.65"/>
</g>
<!-- Node6 -->
<g id="node6" class="node">
<title>Node6</title>
<g id="a_node6"><a xlink:title=" ">
<polygon fill="white" stroke="#bfbfbf" points="647,-123.5 647,-142.5 736,-142.5 736,-123.5 647,-123.5"/>
<text text-anchor="middle" x="691.5" y="-130.5" font-family="Helvetica,sans-Serif" font-size="10.00">tvm/ffi/string.h</text>
</a>
</g>
</g>
<!-- Node3&#45;&gt;Node6 -->
<g id="edge5" class="edge">
<title>Node3&#45;&gt;Node6</title>
<path fill="none" stroke="midnightblue" d="M804.27,-179.44C782.12,-170.52 747.18,-156.44 722.06,-146.32"/>
<polygon fill="midnightblue" stroke="midnightblue" points="723.22,-143.01 712.63,-142.52 720.6,-149.5 723.22,-143.01"/>
</g>
<!-- Node7 -->
<g id="node7" class="node">
<title>Node7</title>
<g id="a_node7"><a xlink:href="cow_8h.html" target="_top" xlink:title="Copy&#45;on&#45;write helper macro for IR ffi::ObjectRef types.">
<polygon fill="white" stroke="black" points="754,-123.5 754,-142.5 831,-142.5 831,-123.5 754,-123.5"/>
<text text-anchor="middle" x="792.5" y="-130.5" font-family="Helvetica,sans-Serif" font-size="10.00">tvm/ir/cow.h</text>
</a>
</g>
</g>
<!-- Node3&#45;&gt;Node7 -->
<g id="edge6" class="edge">
<title>Node3&#45;&gt;Node7</title>
<path fill="none" stroke="midnightblue" d="M820.05,-179.08C815.49,-171.61 808.83,-160.72 803.21,-151.52"/>
<polygon fill="midnightblue" stroke="midnightblue" points="806.05,-149.46 797.85,-142.75 800.08,-153.11 806.05,-149.46"/>
</g>
<!-- Node10 -->
<g id="node10" class="node">
<title>Node10</title>
<g id="a_node10"><a xlink:href="source__map_8h.html" target="_top" xlink:title="A map from source names to source code.">
<polygon fill="white" stroke="black" points="357,-123.5 357,-142.5 474,-142.5 474,-123.5 357,-123.5"/>
<text text-anchor="middle" x="415.5" y="-130.5" font-family="Helvetica,sans-Serif" font-size="10.00">tvm/ir/source_map.h</text>
</a>
</g>
</g>
<!-- Node3&#45;&gt;Node10 -->
<g id="edge9" class="edge">
<title>Node3&#45;&gt;Node10</title>
<path fill="none" stroke="midnightblue" d="M785.74,-182.78C723.78,-174.64 600.15,-158.39 484.22,-143.09"/>
<polygon fill="midnightblue" stroke="midnightblue" points="484.48,-139.6 474.1,-141.76 483.56,-146.54 484.48,-139.6"/>
</g>
<!-- Node15 -->
<g id="node15" class="node">
<title>Node15</title>
<g id="a_node15"><a xlink:title=" ">
<polygon fill="white" stroke="#bfbfbf" points="698.5,-62 698.5,-81 742.5,-81 742.5,-62 698.5,-62"/>
<text text-anchor="middle" x="720.5" y="-69" font-family="Helvetica,sans-Serif" font-size="10.00">string</text>
</a>
</g>
</g>
<!-- Node3&#45;&gt;Node15 -->
<g id="edge30" class="edge">
<title>Node3&#45;&gt;Node15</title>
<path fill="none" stroke="midnightblue" d="M831.27,-179.22C839.19,-165.94 851.21,-140.44 839.5,-123 815.95,-87.92 790.21,-103.96 751.5,-87 750.31,-86.48 749.09,-85.94 747.86,-85.39"/>
<polygon fill="midnightblue" stroke="midnightblue" points="749.01,-82.06 738.46,-81.08 746.1,-88.43 749.01,-82.06"/>
</g>
<!-- Node17 -->
<g id="node17" class="node">
<title>Node17</title>
<g id="a_node17"><a xlink:href="data__type_8h.html" target="_top" xlink:title=" ">
<polygon fill="white" stroke="black" points="887.5,-123.5 887.5,-142.5 1025.5,-142.5 1025.5,-123.5 887.5,-123.5"/>
<text text-anchor="middle" x="956.5" y="-130.5" font-family="Helvetica,sans-Serif" font-size="10.00">tvm/runtime/data_type.h</text>
</a>
</g>
</g>
<!-- Node3&#45;&gt;Node17 -->
<g id="edge19" class="edge">
<title>Node3&#45;&gt;Node17</title>
<path fill="none" stroke="midnightblue" d="M846.26,-179.44C867.82,-170.56 901.76,-156.56 926.29,-146.45"/>
<polygon fill="midnightblue" stroke="midnightblue" points="927.93,-149.56 935.84,-142.52 925.26,-143.09 927.93,-149.56"/>
</g>
<!-- Node22 -->
<g id="node22" class="node">
<title>Node22</title>
<g id="a_node22"><a xlink:title=" ">
<polygon fill="white" stroke="#bfbfbf" points="1326,-62 1326,-81 1395,-81 1395,-62 1326,-62"/>
<text text-anchor="middle" x="1360.5" y="-69" font-family="Helvetica,sans-Serif" font-size="10.00">type_traits</text>
</a>
</g>
</g>
<!-- Node3&#45;&gt;Node22 -->
<g id="edge31" class="edge">
<title>Node3&#45;&gt;Node22</title>
<path fill="none" stroke="midnightblue" d="M865.3,-182.73C908.03,-176.32 977.46,-163.71 1034.5,-143 1052.44,-136.49 1054.36,-128.92 1072.5,-123 1176.71,-88.99 1209.83,-112.25 1316.5,-87 1319.97,-86.18 1323.56,-85.21 1327.12,-84.16"/>
<polygon fill="midnightblue" stroke="midnightblue" points="1328.47,-87.41 1336.97,-81.08 1326.38,-80.73 1328.47,-87.41"/>
</g>
<!-- Node23 -->
<g id="node23" class="node">
<title>Node23</title>
<g id="a_node23"><a xlink:title=" ">
<polygon fill="white" stroke="#bfbfbf" points="1081.5,-123.5 1081.5,-142.5 1145.5,-142.5 1145.5,-123.5 1081.5,-123.5"/>
<text text-anchor="middle" x="1113.5" y="-130.5" font-family="Helvetica,sans-Serif" font-size="10.00">algorithm</text>
</a>
</g>
</g>
<!-- Node3&#45;&gt;Node23 -->
<g id="edge27" class="edge">
<title>Node3&#45;&gt;Node23</title>
<path fill="none" stroke="midnightblue" d="M865.35,-180.71C913.33,-171.9 996.35,-156.58 1067.5,-143 1068.76,-142.76 1070.04,-142.52 1071.33,-142.27"/>
<polygon fill="midnightblue" stroke="midnightblue" points="1072.18,-145.67 1081.34,-140.33 1070.85,-138.79 1072.18,-145.67"/>
</g>
<!-- Node24 -->
<g id="node24" class="node">
<title>Node24</title>
<g id="a_node24"><a xlink:title=" ">
<polygon fill="white" stroke="#bfbfbf" points="1164,-123.5 1164,-142.5 1229,-142.5 1229,-123.5 1164,-123.5"/>
<text text-anchor="middle" x="1196.5" y="-130.5" font-family="Helvetica,sans-Serif" font-size="10.00">functional</text>
</a>
</g>
</g>
<!-- Node3&#45;&gt;Node24 -->
<g id="edge28" class="edge">
<title>Node3&#45;&gt;Node24</title>
<path fill="none" stroke="midnightblue" d="M865.15,-183.55C925.3,-176.59 1043.4,-162.1 1154,-142.96"/>
<polygon fill="midnightblue" stroke="midnightblue" points="1154.74,-146.39 1163.99,-141.22 1153.53,-139.49 1154.74,-146.39"/>
</g>
<!-- Node25 -->
<g id="node25" class="node">
<title>Node25</title>
<g id="a_node25"><a xlink:title=" ">
<polygon fill="white" stroke="#bfbfbf" points="1247.5,-123.5 1247.5,-142.5 1291.5,-142.5 1291.5,-123.5 1247.5,-123.5"/>
<text text-anchor="middle" x="1269.5" y="-130.5" font-family="Helvetica,sans-Serif" font-size="10.00">limits</text>
</a>
</g>
</g>
<!-- Node3&#45;&gt;Node25 -->
<g id="edge29" class="edge">
<title>Node3&#45;&gt;Node25</title>
<path fill="none" stroke="midnightblue" d="M865.14,-185.98C937.39,-181.8 1095.38,-170.39 1237.09,-142.96"/>
<polygon fill="midnightblue" stroke="midnightblue" points="1238.13,-146.32 1247.26,-140.96 1236.78,-139.46 1238.13,-146.32"/>
</g>
<!-- Node8 -->
<g id="node8" class="node">
<title>Node8</title>
<g id="a_node8"><a xlink:title=" ">
<polygon fill="white" stroke="#bfbfbf" points="589,-62 589,-81 680,-81 680,-62 589,-62"/>
<text text-anchor="middle" x="634.5" y="-69" font-family="Helvetica,sans-Serif" font-size="10.00">tvm/ffi/object.h</text>
</a>
</g>
</g>
<!-- Node7&#45;&gt;Node8 -->
<g id="edge7" class="edge">
<title>Node7&#45;&gt;Node8</title>
<path fill="none" stroke="midnightblue" d="M769.86,-123.48C742.76,-113.27 697.19,-96.11 666.5,-84.55"/>
<polygon fill="midnightblue" stroke="midnightblue" points="667.69,-81.26 657.1,-81.01 665.22,-87.81 667.69,-81.26"/>
</g>
<!-- Node9 -->
<g id="node9" class="node">
<title>Node9</title>
<g id="a_node9"><a xlink:title=" ">
<polygon fill="white" stroke="#bfbfbf" points="526,-62 526,-81 571,-81 571,-62 526,-62"/>
<text text-anchor="middle" x="548.5" y="-69" font-family="Helvetica,sans-Serif" font-size="10.00">utility</text>
</a>
</g>
</g>
<!-- Node7&#45;&gt;Node9 -->
<g id="edge8" class="edge">
<title>Node7&#45;&gt;Node9</title>
<path fill="none" stroke="midnightblue" d="M753.95,-124.35C697.14,-113.01 595.85,-92.47 579.5,-87 577.83,-86.44 576.14,-85.82 574.45,-85.16"/>
<polygon fill="midnightblue" stroke="midnightblue" points="575.51,-81.8 564.94,-81.05 572.73,-88.23 575.51,-81.8"/>
</g>
<!-- Node10&#45;&gt;Node2 -->
<g id="edge11" class="edge">
<title>Node10&#45;&gt;Node2</title>
<path fill="none" stroke="midnightblue" d="M356.76,-124.94C295.15,-117.16 195.62,-103.53 110.5,-87 104.98,-85.93 99.2,-84.69 93.49,-83.39"/>
<polygon fill="midnightblue" stroke="midnightblue" points="93.93,-79.89 83.39,-81.02 92.33,-86.71 93.93,-79.89"/>
</g>
<!-- Node10&#45;&gt;Node5 -->
<g id="edge12" class="edge">
<title>Node10&#45;&gt;Node5</title>
<path fill="none" stroke="midnightblue" d="M379.24,-123.49C343.18,-115.01 286.01,-101.48 227.35,-87.19"/>
<polygon fill="midnightblue" stroke="midnightblue" points="228.08,-83.77 217.54,-84.8 226.42,-90.57 228.08,-83.77"/>
</g>
<!-- Node10&#45;&gt;Node9 -->
<g id="edge17" class="edge">
<title>Node10&#45;&gt;Node9</title>
<path fill="none" stroke="midnightblue" d="M434.88,-123.41C455.22,-114.38 488.13,-99.75 516.5,-87 517.69,-86.47 518.9,-85.92 520.13,-85.37"/>
<polygon fill="midnightblue" stroke="midnightblue" points="521.89,-88.41 529.56,-81.11 519,-82.03 521.89,-88.41"/>
</g>
<!-- Node11 -->
<g id="node11" class="node">
<title>Node11</title>
<g id="a_node11"><a xlink:title=" ">
<polygon fill="white" stroke="#bfbfbf" points="235.5,-62 235.5,-81 369.5,-81 369.5,-62 235.5,-62"/>
<text text-anchor="middle" x="302.5" y="-69" font-family="Helvetica,sans-Serif" font-size="10.00">tvm/ffi/container/array.h</text>
</a>
</g>
</g>
<!-- Node10&#45;&gt;Node11 -->
<g id="edge10" class="edge">
<title>Node10&#45;&gt;Node11</title>
<path fill="none" stroke="midnightblue" d="M399.31,-123.48C380.6,-113.62 349.58,-97.29 327.7,-85.77"/>
<polygon fill="midnightblue" stroke="midnightblue" points="329.14,-82.57 318.66,-81.01 325.88,-88.77 329.14,-82.57"/>
</g>
<!-- Node12 -->
<g id="node12" class="node">
<title>Node12</title>
<g id="a_node12"><a xlink:href="runtime_2base_8h.html" target="_top" xlink:title=" ">
<polygon fill="white" stroke="black" points="761,-62 761,-81 874,-81 874,-62 761,-62"/>
<text text-anchor="middle" x="817.5" y="-69" font-family="Helvetica,sans-Serif" font-size="10.00">tvm/runtime/base.h</text>
</a>
</g>
</g>
<!-- Node10&#45;&gt;Node12 -->
<g id="edge13" class="edge">
<title>Node10&#45;&gt;Node12</title>
<path fill="none" stroke="midnightblue" d="M474.09,-124.22C568.56,-111.66 744.73,-88.2 751.5,-87 757.87,-85.88 764.55,-84.56 771.13,-83.2"/>
<polygon fill="midnightblue" stroke="midnightblue" points="772.25,-86.54 781.3,-81.02 770.79,-79.69 772.25,-86.54"/>
</g>
<!-- Node14 -->
<g id="node14" class="node">
<title>Node14</title>
<g id="a_node14"><a xlink:title=" ">
<polygon fill="white" stroke="#bfbfbf" points="388,-62 388,-81 443,-81 443,-62 388,-62"/>
<text text-anchor="middle" x="415.5" y="-69" font-family="Helvetica,sans-Serif" font-size="10.00">fstream</text>
</a>
</g>
</g>
<!-- Node10&#45;&gt;Node14 -->
<g id="edge15" class="edge">
<title>Node10&#45;&gt;Node14</title>
<path fill="none" stroke="midnightblue" d="M415.5,-123.48C415.5,-115.08 415.5,-101.98 415.5,-91.16"/>
<polygon fill="midnightblue" stroke="midnightblue" points="419,-91.01 415.5,-81.01 412,-91.01 419,-91.01"/>
</g>
<!-- Node10&#45;&gt;Node15 -->
<g id="edge16" class="edge">
<title>Node10&#45;&gt;Node15</title>
<path fill="none" stroke="midnightblue" d="M474.3,-124.15C542.18,-114.76 649.48,-98.83 688.5,-87 690.43,-86.42 692.39,-85.74 694.34,-85.01"/>
<polygon fill="midnightblue" stroke="midnightblue" points="696,-88.11 703.88,-81.03 693.3,-81.65 696,-88.11"/>
</g>
<!-- Node16 -->
<g id="node16" class="node">
<title>Node16</title>
<g id="a_node16"><a xlink:title=" ">
<polygon fill="white" stroke="#bfbfbf" points="461,-62 461,-81 508,-81 508,-62 461,-62"/>
<text text-anchor="middle" x="484.5" y="-69" font-family="Helvetica,sans-Serif" font-size="10.00">vector</text>
</a>
</g>
</g>
<!-- Node10&#45;&gt;Node16 -->
<g id="edge18" class="edge">
<title>Node10&#45;&gt;Node16</title>
<path fill="none" stroke="midnightblue" d="M425.39,-123.48C436.15,-114.2 453.57,-99.17 466.72,-87.83"/>
<polygon fill="midnightblue" stroke="midnightblue" points="469.34,-90.19 474.63,-81.01 464.77,-84.89 469.34,-90.19"/>
</g>
<!-- Node13 -->
<g id="node13" class="node">
<title>Node13</title>
<g id="a_node13"><a xlink:title=" ">
<polygon fill="white" stroke="#bfbfbf" points="774.5,-0.5 774.5,-19.5 860.5,-19.5 860.5,-0.5 774.5,-0.5"/>
<text text-anchor="middle" x="817.5" y="-7.5" font-family="Helvetica,sans-Serif" font-size="10.00">tvm/ffi/c_api.h</text>
</a>
</g>
</g>
<!-- Node12&#45;&gt;Node13 -->
<g id="edge14" class="edge">
<title>Node12&#45;&gt;Node13</title>
<path fill="none" stroke="midnightblue" d="M817.5,-61.98C817.5,-53.58 817.5,-40.48 817.5,-29.66"/>
<polygon fill="midnightblue" stroke="midnightblue" points="821,-29.51 817.5,-19.51 814,-29.51 821,-29.51"/>
</g>
<!-- Node17&#45;&gt;Node12 -->
<g id="edge23" class="edge">
<title>Node17&#45;&gt;Node12</title>
<path fill="none" stroke="midnightblue" d="M936.58,-123.48C913.05,-113.4 873.69,-96.55 846.71,-85"/>
<polygon fill="midnightblue" stroke="midnightblue" points="847.95,-81.73 837.38,-81.01 845.19,-88.16 847.95,-81.73"/>
</g>
<!-- Node17&#45;&gt;Node15 -->
<g id="edge25" class="edge">
<title>Node17&#45;&gt;Node15</title>
<path fill="none" stroke="midnightblue" d="M902.09,-123.45C860.25,-116.06 801.37,-103.9 751.5,-87 749.84,-86.44 748.14,-85.81 746.45,-85.14"/>
<polygon fill="midnightblue" stroke="midnightblue" points="747.52,-81.79 736.95,-81.02 744.73,-88.21 747.52,-81.79"/>
</g>
<!-- Node18 -->
<g id="node18" class="node">
<title>Node18</title>
<g id="a_node18"><a xlink:title=" ">
<polygon fill="white" stroke="#bfbfbf" points="892,-62 892,-81 1031,-81 1031,-62 892,-62"/>
<text text-anchor="middle" x="961.5" y="-69" font-family="Helvetica,sans-Serif" font-size="10.00">tvm/ffi/container/shape.h</text>
</a>
</g>
</g>
<!-- Node17&#45;&gt;Node18 -->
<g id="edge20" class="edge">
<title>Node17&#45;&gt;Node18</title>
<path fill="none" stroke="midnightblue" d="M957.22,-123.48C957.92,-115.08 959.02,-101.98 959.93,-91.16"/>
<polygon fill="midnightblue" stroke="midnightblue" points="963.44,-91.27 960.78,-81.01 956.46,-90.68 963.44,-91.27"/>
</g>
<!-- Node19 -->
<g id="node19" class="node">
<title>Node19</title>
<g id="a_node19"><a xlink:title=" ">
<polygon fill="white" stroke="#bfbfbf" points="1049,-62 1049,-81 1138,-81 1138,-62 1049,-62"/>
<text text-anchor="middle" x="1093.5" y="-69" font-family="Helvetica,sans-Serif" font-size="10.00">tvm/ffi/dtype.h</text>
</a>
</g>
</g>
<!-- Node17&#45;&gt;Node19 -->
<g id="edge21" class="edge">
<title>Node17&#45;&gt;Node19</title>
<path fill="none" stroke="midnightblue" d="M976.13,-123.48C999.32,-113.4 1038.12,-96.55 1064.71,-85"/>
<polygon fill="midnightblue" stroke="midnightblue" points="1066.13,-88.2 1073.91,-81.01 1063.34,-81.78 1066.13,-88.2"/>
</g>
<!-- Node20 -->
<g id="node20" class="node">
<title>Node20</title>
<g id="a_node20"><a xlink:title=" ">
<polygon fill="white" stroke="#bfbfbf" points="1156,-62 1156,-81 1239,-81 1239,-62 1156,-62"/>
<text text-anchor="middle" x="1197.5" y="-69" font-family="Helvetica,sans-Serif" font-size="10.00">tvm/ffi/error.h</text>
</a>
</g>
</g>
<!-- Node17&#45;&gt;Node20 -->
<g id="edge22" class="edge">
<title>Node17&#45;&gt;Node20</title>
<path fill="none" stroke="midnightblue" d="M995.42,-123.44C1034.12,-114.79 1095.11,-100.76 1147.5,-87 1151.32,-86 1155.3,-84.91 1159.27,-83.8"/>
<polygon fill="midnightblue" stroke="midnightblue" points="1160.35,-87.13 1169.01,-81.03 1158.44,-80.4 1160.35,-87.13"/>
</g>
<!-- Node21 -->
<g id="node21" class="node">
<title>Node21</title>
<g id="a_node21"><a xlink:title=" ">
<polygon fill="white" stroke="#bfbfbf" points="1257.5,-62 1257.5,-81 1307.5,-81 1307.5,-62 1257.5,-62"/>
<text text-anchor="middle" x="1282.5" y="-69" font-family="Helvetica,sans-Serif" font-size="10.00">cstring</text>
</a>
</g>
</g>
<!-- Node17&#45;&gt;Node21 -->
<g id="edge24" class="edge">
<title>Node17&#45;&gt;Node21</title>
<path fill="none" stroke="midnightblue" d="M1024.87,-123.47C1097.6,-114.04 1207.68,-98.65 1248.5,-87 1250.79,-86.35 1253.13,-85.58 1255.46,-84.74"/>
<polygon fill="midnightblue" stroke="midnightblue" points="1256.8,-87.97 1264.81,-81.04 1254.22,-81.47 1256.8,-87.97"/>
</g>
<!-- Node17&#45;&gt;Node22 -->
<g id="edge26" class="edge">
<title>Node17&#45;&gt;Node22</title>
<path fill="none" stroke="midnightblue" d="M1025.54,-124.1C1122.1,-112.94 1288.85,-93.22 1316.5,-87 1320.17,-86.17 1323.96,-85.17 1327.72,-84.07"/>
<polygon fill="midnightblue" stroke="midnightblue" points="1328.94,-87.36 1337.44,-81.03 1326.86,-80.67 1328.94,-87.36"/>
</g>
</g>
</svg>
