<?xml version="1.0" encoding="UTF-8" standalone="no"?>
<!DOCTYPE svg PUBLIC "-//W3C//DTD SVG 1.1//EN"
 "http://www.w3.org/Graphics/SVG/1.1/DTD/svg11.dtd">
<!-- Generated by graphviz version 2.43.0 (0)
 -->
<!-- Title: include/tvm/topi/utils.h Pages: 1 -->
<svg width="1716pt" height="263pt"
 viewBox="0.00 0.00 1716.00 263.00" xmlns="http://www.w3.org/2000/svg" xmlns:xlink="http://www.w3.org/1999/xlink">
<g id="graph0" class="graph" transform="scale(1 1) rotate(0) translate(4 259)">
<title>include/tvm/topi/utils.h</title>
<polygon fill="white" stroke="transparent" points="-4,4 -4,-259 1712,-259 1712,4 -4,4"/>
<!-- Node1 -->
<g id="node1" class="node">
<title>Node1</title>
<g id="a_node1"><a xlink:title="Topi utility function.">
<polygon fill="#bfbfbf" stroke="black" points="1252,-235.5 1252,-254.5 1381,-254.5 1381,-235.5 1252,-235.5"/>
<text text-anchor="middle" x="1316.5" y="-242.5" font-family="Helvetica,sans-Serif" font-size="10.00">include/tvm/topi/utils.h</text>
</a>
</g>
</g>
<!-- Node2 -->
<g id="node2" class="node">
<title>Node2</title>
<g id="a_node2"><a xlink:title=" ">
<polygon fill="white" stroke="#bfbfbf" points="1607,-62 1607,-81 1708,-81 1708,-62 1607,-62"/>
<text text-anchor="middle" x="1657.5" y="-69" font-family="Helvetica,sans-Serif" font-size="10.00">tvm/ffi/function.h</text>
</a>
</g>
</g>
<!-- Node1&#45;&gt;Node2 -->
<g id="edge1" class="edge">
<title>Node1&#45;&gt;Node2</title>
<path fill="none" stroke="midnightblue" d="M1333.41,-235.5C1388.74,-207.67 1564.68,-119.18 1631.46,-85.6"/>
<polygon fill="midnightblue" stroke="midnightblue" points="1633.13,-88.68 1640.49,-81.06 1629.98,-82.42 1633.13,-88.68"/>
</g>
<!-- Node3 -->
<g id="node3" class="node">
<title>Node3</title>
<g id="a_node3"><a xlink:href="ir_2expr_8h.html" target="_top" xlink:title="Base expr nodes in TVM.">
<polygon fill="white" stroke="black" points="1057,-179.5 1057,-198.5 1136,-198.5 1136,-179.5 1057,-179.5"/>
<text text-anchor="middle" x="1096.5" y="-186.5" font-family="Helvetica,sans-Serif" font-size="10.00">tvm/ir/expr.h</text>
</a>
</g>
</g>
<!-- Node1&#45;&gt;Node3 -->
<g id="edge2" class="edge">
<title>Node1&#45;&gt;Node3</title>
<path fill="none" stroke="midnightblue" d="M1281.64,-235.44C1243.58,-226.1 1182.54,-211.12 1141.04,-200.93"/>
<polygon fill="midnightblue" stroke="midnightblue" points="1141.74,-197.5 1131.2,-198.52 1140.07,-204.3 1141.74,-197.5"/>
</g>
<!-- Node4 -->
<g id="node4" class="node">
<title>Node4</title>
<g id="a_node4"><a xlink:title=" ">
<polygon fill="white" stroke="#bfbfbf" points="729.5,-123.5 729.5,-142.5 865.5,-142.5 865.5,-123.5 729.5,-123.5"/>
<text text-anchor="middle" x="797.5" y="-130.5" font-family="Helvetica,sans-Serif" font-size="10.00">tvm/ffi/extra/dataclass.h</text>
</a>
</g>
</g>
<!-- Node3&#45;&gt;Node4 -->
<g id="edge3" class="edge">
<title>Node3&#45;&gt;Node4</title>
<path fill="none" stroke="midnightblue" d="M1056.8,-180.83C1004.99,-171.47 913.97,-155.04 854.72,-144.33"/>
<polygon fill="midnightblue" stroke="midnightblue" points="855.23,-140.87 844.77,-142.54 853.99,-147.76 855.23,-140.87"/>
</g>
<!-- Node5 -->
<g id="node5" class="node">
<title>Node5</title>
<g id="a_node5"><a xlink:title=" ">
<polygon fill="white" stroke="#bfbfbf" points="1490.5,-56.5 1490.5,-86.5 1588.5,-86.5 1588.5,-56.5 1490.5,-56.5"/>
<text text-anchor="start" x="1498.5" y="-74.5" font-family="Helvetica,sans-Serif" font-size="10.00">tvm/ffi/reflection</text>
<text text-anchor="middle" x="1539.5" y="-63.5" font-family="Helvetica,sans-Serif" font-size="10.00">/registry.h</text>
</a>
</g>
</g>
<!-- Node3&#45;&gt;Node5 -->
<g id="edge4" class="edge">
<title>Node3&#45;&gt;Node5</title>
<path fill="none" stroke="midnightblue" d="M1136.27,-186.98C1221.91,-184.19 1420.76,-174.43 1479.5,-143 1499.64,-132.22 1515.91,-111.69 1526.4,-95.55"/>
<polygon fill="midnightblue" stroke="midnightblue" points="1529.61,-97.01 1531.89,-86.66 1523.66,-93.32 1529.61,-97.01"/>
</g>
<!-- Node6 -->
<g id="node6" class="node">
<title>Node6</title>
<g id="a_node6"><a xlink:title=" ">
<polygon fill="white" stroke="#bfbfbf" points="884,-123.5 884,-142.5 973,-142.5 973,-123.5 884,-123.5"/>
<text text-anchor="middle" x="928.5" y="-130.5" font-family="Helvetica,sans-Serif" font-size="10.00">tvm/ffi/string.h</text>
</a>
</g>
</g>
<!-- Node3&#45;&gt;Node6 -->
<g id="edge5" class="edge">
<title>Node3&#45;&gt;Node6</title>
<path fill="none" stroke="midnightblue" d="M1069.88,-179.44C1041.49,-170.32 996.36,-155.81 964.75,-145.65"/>
<polygon fill="midnightblue" stroke="midnightblue" points="965.59,-142.24 955,-142.52 963.44,-148.91 965.59,-142.24"/>
</g>
<!-- Node7 -->
<g id="node7" class="node">
<title>Node7</title>
<g id="a_node7"><a xlink:href="cast_8h.html" target="_top" xlink:title="Value casting helpers.">
<polygon fill="white" stroke="black" points="370.5,-123.5 370.5,-142.5 448.5,-142.5 448.5,-123.5 370.5,-123.5"/>
<text text-anchor="middle" x="409.5" y="-130.5" font-family="Helvetica,sans-Serif" font-size="10.00">tvm/ir/cast.h</text>
</a>
</g>
</g>
<!-- Node3&#45;&gt;Node7 -->
<g id="edge6" class="edge">
<title>Node3&#45;&gt;Node7</title>
<path fill="none" stroke="midnightblue" d="M1056.85,-184.88C938.61,-175.59 588.66,-148.08 458.76,-137.87"/>
<polygon fill="midnightblue" stroke="midnightblue" points="458.95,-134.38 448.7,-137.08 458.4,-141.35 458.95,-134.38"/>
</g>
<!-- Node15 -->
<g id="node15" class="node">
<title>Node15</title>
<g id="a_node15"><a xlink:href="cow_8h.html" target="_top" xlink:title="Copy&#45;on&#45;write helper macro for IR ffi::ObjectRef types.">
<polygon fill="white" stroke="black" points="991,-123.5 991,-142.5 1068,-142.5 1068,-123.5 991,-123.5"/>
<text text-anchor="middle" x="1029.5" y="-130.5" font-family="Helvetica,sans-Serif" font-size="10.00">tvm/ir/cow.h</text>
</a>
</g>
</g>
<!-- Node3&#45;&gt;Node15 -->
<g id="edge14" class="edge">
<title>Node3&#45;&gt;Node15</title>
<path fill="none" stroke="midnightblue" d="M1085.74,-179.32C1075.73,-171.26 1060.61,-159.08 1048.57,-149.37"/>
<polygon fill="midnightblue" stroke="midnightblue" points="1050.44,-146.38 1040.46,-142.83 1046.05,-151.83 1050.44,-146.38"/>
</g>
<!-- Node16 -->
<g id="node16" class="node">
<title>Node16</title>
<g id="a_node16"><a xlink:href="source__map_8h.html" target="_top" xlink:title="A map from source names to source code.">
<polygon fill="white" stroke="black" points="1353,-123.5 1353,-142.5 1470,-142.5 1470,-123.5 1353,-123.5"/>
<text text-anchor="middle" x="1411.5" y="-130.5" font-family="Helvetica,sans-Serif" font-size="10.00">tvm/ir/source_map.h</text>
</a>
</g>
</g>
<!-- Node3&#45;&gt;Node16 -->
<g id="edge17" class="edge">
<title>Node3&#45;&gt;Node16</title>
<path fill="none" stroke="midnightblue" d="M1136.08,-181.22C1190.31,-171.92 1288.2,-155.14 1351.48,-144.29"/>
<polygon fill="midnightblue" stroke="midnightblue" points="1352.45,-147.67 1361.72,-142.53 1351.27,-140.77 1352.45,-147.67"/>
</g>
<!-- Node21 -->
<g id="node21" class="node">
<title>Node21</title>
<g id="a_node21"><a xlink:title=" ">
<polygon fill="white" stroke="#bfbfbf" points="1137.5,-62 1137.5,-81 1181.5,-81 1181.5,-62 1137.5,-62"/>
<text text-anchor="middle" x="1159.5" y="-69" font-family="Helvetica,sans-Serif" font-size="10.00">string</text>
</a>
</g>
</g>
<!-- Node3&#45;&gt;Node21 -->
<g id="edge38" class="edge">
<title>Node3&#45;&gt;Node21</title>
<path fill="none" stroke="midnightblue" d="M1097.84,-179.12C1100.08,-166.16 1105.34,-141.57 1115.5,-123 1122.56,-110.09 1133.4,-97.6 1142.55,-88.27"/>
<polygon fill="midnightblue" stroke="midnightblue" points="1145.03,-90.74 1149.72,-81.24 1140.13,-85.74 1145.03,-90.74"/>
</g>
<!-- Node23 -->
<g id="node23" class="node">
<title>Node23</title>
<g id="a_node23"><a xlink:href="data__type_8h.html" target="_top" xlink:title=" ">
<polygon fill="white" stroke="black" points="535.5,-123.5 535.5,-142.5 673.5,-142.5 673.5,-123.5 535.5,-123.5"/>
<text text-anchor="middle" x="604.5" y="-130.5" font-family="Helvetica,sans-Serif" font-size="10.00">tvm/runtime/data_type.h</text>
</a>
</g>
</g>
<!-- Node3&#45;&gt;Node23 -->
<g id="edge27" class="edge">
<title>Node3&#45;&gt;Node23</title>
<path fill="none" stroke="midnightblue" d="M1056.65,-183.63C975.65,-174.74 790.44,-154.41 683.89,-142.71"/>
<polygon fill="midnightblue" stroke="midnightblue" points="684.16,-139.22 673.83,-141.61 683.39,-146.18 684.16,-139.22"/>
</g>
<!-- Node26 -->
<g id="node26" class="node">
<title>Node26</title>
<g id="a_node26"><a xlink:title=" ">
<polygon fill="white" stroke="#bfbfbf" points="856,-62 856,-81 925,-81 925,-62 856,-62"/>
<text text-anchor="middle" x="890.5" y="-69" font-family="Helvetica,sans-Serif" font-size="10.00">type_traits</text>
</a>
</g>
</g>
<!-- Node3&#45;&gt;Node26 -->
<g id="edge39" class="edge">
<title>Node3&#45;&gt;Node26</title>
<path fill="none" stroke="midnightblue" d="M1056.99,-186.19C965,-181.56 742.59,-167.89 720.5,-143 660.89,-75.83 632.5,-152.8 846.5,-87 849.4,-86.11 852.41,-85.16 855.42,-84.2"/>
<polygon fill="midnightblue" stroke="midnightblue" points="856.53,-87.52 864.96,-81.11 854.37,-80.86 856.53,-87.52"/>
</g>
<!-- Node27 -->
<g id="node27" class="node">
<title>Node27</title>
<g id="a_node27"><a xlink:title=" ">
<polygon fill="white" stroke="#bfbfbf" points="1124.5,-123.5 1124.5,-142.5 1188.5,-142.5 1188.5,-123.5 1124.5,-123.5"/>
<text text-anchor="middle" x="1156.5" y="-130.5" font-family="Helvetica,sans-Serif" font-size="10.00">algorithm</text>
</a>
</g>
</g>
<!-- Node3&#45;&gt;Node27 -->
<g id="edge35" class="edge">
<title>Node3&#45;&gt;Node27</title>
<path fill="none" stroke="midnightblue" d="M1106.14,-179.32C1115.01,-171.34 1128.37,-159.31 1139.11,-149.65"/>
<polygon fill="midnightblue" stroke="midnightblue" points="1141.59,-152.13 1146.68,-142.83 1136.91,-146.92 1141.59,-152.13"/>
</g>
<!-- Node28 -->
<g id="node28" class="node">
<title>Node28</title>
<g id="a_node28"><a xlink:title=" ">
<polygon fill="white" stroke="#bfbfbf" points="1207,-123.5 1207,-142.5 1272,-142.5 1272,-123.5 1207,-123.5"/>
<text text-anchor="middle" x="1239.5" y="-130.5" font-family="Helvetica,sans-Serif" font-size="10.00">functional</text>
</a>
</g>
</g>
<!-- Node3&#45;&gt;Node28 -->
<g id="edge36" class="edge">
<title>Node3&#45;&gt;Node28</title>
<path fill="none" stroke="midnightblue" d="M1119.16,-179.44C1142.9,-170.48 1180.41,-156.31 1207.24,-146.18"/>
<polygon fill="midnightblue" stroke="midnightblue" points="1208.83,-149.32 1216.95,-142.52 1206.36,-142.77 1208.83,-149.32"/>
</g>
<!-- Node29 -->
<g id="node29" class="node">
<title>Node29</title>
<g id="a_node29"><a xlink:title=" ">
<polygon fill="white" stroke="#bfbfbf" points="1290.5,-123.5 1290.5,-142.5 1334.5,-142.5 1334.5,-123.5 1290.5,-123.5"/>
<text text-anchor="middle" x="1312.5" y="-130.5" font-family="Helvetica,sans-Serif" font-size="10.00">limits</text>
</a>
</g>
</g>
<!-- Node3&#45;&gt;Node29 -->
<g id="edge37" class="edge">
<title>Node3&#45;&gt;Node29</title>
<path fill="none" stroke="midnightblue" d="M1133.83,-179.43C1169.23,-171.19 1224.14,-158.11 1280.41,-143.21"/>
<polygon fill="midnightblue" stroke="midnightblue" points="1281.42,-146.56 1290.18,-140.61 1279.62,-139.8 1281.42,-146.56"/>
</g>
<!-- Node8 -->
<g id="node8" class="node">
<title>Node8</title>
<g id="a_node8"><a xlink:title=" ">
<polygon fill="white" stroke="#bfbfbf" points="99,-62 99,-81 176,-81 176,-62 99,-62"/>
<text text-anchor="middle" x="137.5" y="-69" font-family="Helvetica,sans-Serif" font-size="10.00">tvm/ffi/any.h</text>
</a>
</g>
</g>
<!-- Node7&#45;&gt;Node8 -->
<g id="edge7" class="edge">
<title>Node7&#45;&gt;Node8</title>
<path fill="none" stroke="midnightblue" d="M370.21,-125.39C325.09,-117.52 248.99,-103.35 184.5,-87 180.89,-86.09 177.15,-85.06 173.43,-83.99"/>
<polygon fill="midnightblue" stroke="midnightblue" points="174.3,-80.6 163.72,-81.1 172.3,-87.31 174.3,-80.6"/>
</g>
<!-- Node9 -->
<g id="node9" class="node">
<title>Node9</title>
<g id="a_node9"><a xlink:title=" ">
<polygon fill="white" stroke="#bfbfbf" points="0,-62 0,-81 81,-81 81,-62 0,-62"/>
<text text-anchor="middle" x="40.5" y="-69" font-family="Helvetica,sans-Serif" font-size="10.00">tvm/ffi/cast.h</text>
</a>
</g>
</g>
<!-- Node7&#45;&gt;Node9 -->
<g id="edge8" class="edge">
<title>Node7&#45;&gt;Node9</title>
<path fill="none" stroke="midnightblue" d="M370.26,-128.37C309.58,-122.34 189.56,-108.71 89.5,-87 85.31,-86.09 80.95,-85.01 76.64,-83.85"/>
<polygon fill="midnightblue" stroke="midnightblue" points="77.34,-80.41 66.76,-81.05 75.43,-87.14 77.34,-80.41"/>
</g>
<!-- Node10 -->
<g id="node10" class="node">
<title>Node10</title>
<g id="a_node10"><a xlink:title=" ">
<polygon fill="white" stroke="#bfbfbf" points="313,-62 313,-81 402,-81 402,-62 313,-62"/>
<text text-anchor="middle" x="357.5" y="-69" font-family="Helvetica,sans-Serif" font-size="10.00">tvm/ffi/dtype.h</text>
</a>
</g>
</g>
<!-- Node7&#45;&gt;Node10 -->
<g id="edge9" class="edge">
<title>Node7&#45;&gt;Node10</title>
<path fill="none" stroke="midnightblue" d="M402.05,-123.48C394.17,-114.46 381.56,-100.02 371.76,-88.81"/>
<polygon fill="midnightblue" stroke="midnightblue" points="374.15,-86.24 364.94,-81.01 368.88,-90.84 374.15,-86.24"/>
</g>
<!-- Node11 -->
<g id="node11" class="node">
<title>Node11</title>
<g id="a_node11"><a xlink:title=" ">
<polygon fill="white" stroke="#bfbfbf" points="420,-62 420,-81 503,-81 503,-62 420,-62"/>
<text text-anchor="middle" x="461.5" y="-69" font-family="Helvetica,sans-Serif" font-size="10.00">tvm/ffi/error.h</text>
</a>
</g>
</g>
<!-- Node7&#45;&gt;Node11 -->
<g id="edge10" class="edge">
<title>Node7&#45;&gt;Node11</title>
<path fill="none" stroke="midnightblue" d="M416.95,-123.48C424.83,-114.46 437.44,-100.02 447.24,-88.81"/>
<polygon fill="midnightblue" stroke="midnightblue" points="450.12,-90.84 454.06,-81.01 444.85,-86.24 450.12,-90.84"/>
</g>
<!-- Node12 -->
<g id="node12" class="node">
<title>Node12</title>
<g id="a_node12"><a xlink:title=" ">
<polygon fill="white" stroke="#bfbfbf" points="678,-62 678,-81 769,-81 769,-62 678,-62"/>
<text text-anchor="middle" x="723.5" y="-69" font-family="Helvetica,sans-Serif" font-size="10.00">tvm/ffi/object.h</text>
</a>
</g>
</g>
<!-- Node7&#45;&gt;Node12 -->
<g id="edge11" class="edge">
<title>Node7&#45;&gt;Node12</title>
<path fill="none" stroke="midnightblue" d="M448.76,-126.25C499.67,-118.55 591.14,-103.89 668.5,-87 673.25,-85.96 678.22,-84.79 683.13,-83.56"/>
<polygon fill="midnightblue" stroke="midnightblue" points="684.25,-86.89 693.07,-81.02 682.51,-80.11 684.25,-86.89"/>
</g>
<!-- Node13 -->
<g id="node13" class="node">
<title>Node13</title>
<g id="a_node13"><a xlink:title=" ">
<polygon fill="white" stroke="#bfbfbf" points="194,-62 194,-81 295,-81 295,-62 194,-62"/>
<text text-anchor="middle" x="244.5" y="-69" font-family="Helvetica,sans-Serif" font-size="10.00">tvm/ffi/optional.h</text>
</a>
</g>
</g>
<!-- Node7&#45;&gt;Node13 -->
<g id="edge12" class="edge">
<title>Node7&#45;&gt;Node13</title>
<path fill="none" stroke="midnightblue" d="M385.86,-123.48C357.56,-113.27 309.97,-96.11 277.91,-84.55"/>
<polygon fill="midnightblue" stroke="midnightblue" points="278.69,-81.11 268.1,-81.01 276.32,-87.69 278.69,-81.11"/>
</g>
<!-- Node14 -->
<g id="node14" class="node">
<title>Node14</title>
<g id="a_node14"><a xlink:title=" ">
<polygon fill="white" stroke="#bfbfbf" points="943,-62 943,-81 988,-81 988,-62 943,-62"/>
<text text-anchor="middle" x="965.5" y="-69" font-family="Helvetica,sans-Serif" font-size="10.00">utility</text>
</a>
</g>
</g>
<!-- Node7&#45;&gt;Node14 -->
<g id="edge13" class="edge">
<title>Node7&#45;&gt;Node14</title>
<path fill="none" stroke="midnightblue" d="M448.54,-129.01C566.1,-119.96 910.09,-93.12 933.5,-87 935.66,-86.44 937.85,-85.74 940.03,-84.95"/>
<polygon fill="midnightblue" stroke="midnightblue" points="941.38,-88.18 949.28,-81.13 938.7,-81.71 941.38,-88.18"/>
</g>
<!-- Node15&#45;&gt;Node12 -->
<g id="edge15" class="edge">
<title>Node15&#45;&gt;Node12</title>
<path fill="none" stroke="midnightblue" d="M990.99,-124.75C987.78,-124.15 984.59,-123.56 981.5,-123 891.36,-106.56 867.99,-106.7 778.5,-87 773.75,-85.95 768.79,-84.77 763.87,-83.55"/>
<polygon fill="midnightblue" stroke="midnightblue" points="764.49,-80.09 753.94,-81 762.76,-86.88 764.49,-80.09"/>
</g>
<!-- Node15&#45;&gt;Node14 -->
<g id="edge16" class="edge">
<title>Node15&#45;&gt;Node14</title>
<path fill="none" stroke="midnightblue" d="M1020.33,-123.48C1010.35,-114.2 994.19,-99.17 981.99,-87.83"/>
<polygon fill="midnightblue" stroke="midnightblue" points="984.36,-85.25 974.65,-81.01 979.59,-90.38 984.36,-85.25"/>
</g>
<!-- Node16&#45;&gt;Node2 -->
<g id="edge19" class="edge">
<title>Node16&#45;&gt;Node2</title>
<path fill="none" stroke="midnightblue" d="M1446.75,-123.48C1490.4,-112.92 1564.84,-94.91 1612.56,-83.37"/>
<polygon fill="midnightblue" stroke="midnightblue" points="1613.42,-86.76 1622.32,-81.01 1611.78,-79.96 1613.42,-86.76"/>
</g>
<!-- Node16&#45;&gt;Node5 -->
<g id="edge20" class="edge">
<title>Node16&#45;&gt;Node5</title>
<path fill="none" stroke="midnightblue" d="M1429.84,-123.48C1448.07,-115 1476.6,-101.74 1500,-90.86"/>
<polygon fill="midnightblue" stroke="midnightblue" points="1501.74,-93.91 1509.33,-86.52 1498.79,-87.56 1501.74,-93.91"/>
</g>
<!-- Node16&#45;&gt;Node14 -->
<g id="edge25" class="edge">
<title>Node16&#45;&gt;Node14</title>
<path fill="none" stroke="midnightblue" d="M1352.91,-124.14C1349.73,-123.75 1346.57,-123.36 1343.5,-123 1189.96,-104.86 1146.73,-127.43 997.5,-87 995.35,-86.42 993.16,-85.7 990.98,-84.91"/>
<polygon fill="midnightblue" stroke="midnightblue" points="992.31,-81.67 981.73,-81.07 989.63,-88.14 992.31,-81.67"/>
</g>
<!-- Node17 -->
<g id="node17" class="node">
<title>Node17</title>
<g id="a_node17"><a xlink:title=" ">
<polygon fill="white" stroke="#bfbfbf" points="1199.5,-62 1199.5,-81 1333.5,-81 1333.5,-62 1199.5,-62"/>
<text text-anchor="middle" x="1266.5" y="-69" font-family="Helvetica,sans-Serif" font-size="10.00">tvm/ffi/container/array.h</text>
</a>
</g>
</g>
<!-- Node16&#45;&gt;Node17 -->
<g id="edge18" class="edge">
<title>Node16&#45;&gt;Node17</title>
<path fill="none" stroke="midnightblue" d="M1390.73,-123.48C1366.07,-113.36 1324.75,-96.4 1296.6,-84.85"/>
<polygon fill="midnightblue" stroke="midnightblue" points="1297.82,-81.57 1287.24,-81.01 1295.16,-88.04 1297.82,-81.57"/>
</g>
<!-- Node18 -->
<g id="node18" class="node">
<title>Node18</title>
<g id="a_node18"><a xlink:href="runtime_2base_8h.html" target="_top" xlink:title=" ">
<polygon fill="white" stroke="black" points="1006,-62 1006,-81 1119,-81 1119,-62 1006,-62"/>
<text text-anchor="middle" x="1062.5" y="-69" font-family="Helvetica,sans-Serif" font-size="10.00">tvm/runtime/base.h</text>
</a>
</g>
</g>
<!-- Node16&#45;&gt;Node18 -->
<g id="edge21" class="edge">
<title>Node16&#45;&gt;Node18</title>
<path fill="none" stroke="midnightblue" d="M1352.79,-123.69C1295.43,-115.33 1205.73,-101.61 1128.5,-87 1122.3,-85.83 1115.79,-84.51 1109.37,-83.15"/>
<polygon fill="midnightblue" stroke="midnightblue" points="1109.94,-79.69 1099.42,-81.01 1108.46,-86.54 1109.94,-79.69"/>
</g>
<!-- Node20 -->
<g id="node20" class="node">
<title>Node20</title>
<g id="a_node20"><a xlink:title=" ">
<polygon fill="white" stroke="#bfbfbf" points="1352,-62 1352,-81 1407,-81 1407,-62 1352,-62"/>
<text text-anchor="middle" x="1379.5" y="-69" font-family="Helvetica,sans-Serif" font-size="10.00">fstream</text>
</a>
</g>
</g>
<!-- Node16&#45;&gt;Node20 -->
<g id="edge23" class="edge">
<title>Node16&#45;&gt;Node20</title>
<path fill="none" stroke="midnightblue" d="M1406.92,-123.48C1402.26,-114.82 1394.91,-101.15 1388.99,-90.15"/>
<polygon fill="midnightblue" stroke="midnightblue" points="1391.9,-88.16 1384.08,-81.01 1385.73,-91.47 1391.9,-88.16"/>
</g>
<!-- Node16&#45;&gt;Node21 -->
<g id="edge24" class="edge">
<title>Node16&#45;&gt;Node21</title>
<path fill="none" stroke="midnightblue" d="M1352.82,-123.93C1307.71,-116.8 1244.22,-104.75 1190.5,-87 1188.83,-86.45 1187.14,-85.83 1185.44,-85.17"/>
<polygon fill="midnightblue" stroke="midnightblue" points="1186.5,-81.82 1175.94,-81.07 1183.73,-88.25 1186.5,-81.82"/>
</g>
<!-- Node22 -->
<g id="node22" class="node">
<title>Node22</title>
<g id="a_node22"><a xlink:title=" ">
<polygon fill="white" stroke="#bfbfbf" points="1425,-62 1425,-81 1472,-81 1472,-62 1425,-62"/>
<text text-anchor="middle" x="1448.5" y="-69" font-family="Helvetica,sans-Serif" font-size="10.00">vector</text>
</a>
</g>
</g>
<!-- Node16&#45;&gt;Node22 -->
<g id="edge26" class="edge">
<title>Node16&#45;&gt;Node22</title>
<path fill="none" stroke="midnightblue" d="M1416.8,-123.48C1422.24,-114.73 1430.86,-100.87 1437.74,-89.81"/>
<polygon fill="midnightblue" stroke="midnightblue" points="1440.9,-91.35 1443.21,-81.01 1434.96,-87.65 1440.9,-91.35"/>
</g>
<!-- Node19 -->
<g id="node19" class="node">
<title>Node19</title>
<g id="a_node19"><a xlink:title=" ">
<polygon fill="white" stroke="#bfbfbf" points="1019.5,-0.5 1019.5,-19.5 1105.5,-19.5 1105.5,-0.5 1019.5,-0.5"/>
<text text-anchor="middle" x="1062.5" y="-7.5" font-family="Helvetica,sans-Serif" font-size="10.00">tvm/ffi/c_api.h</text>
</a>
</g>
</g>
<!-- Node18&#45;&gt;Node19 -->
<g id="edge22" class="edge">
<title>Node18&#45;&gt;Node19</title>
<path fill="none" stroke="midnightblue" d="M1062.5,-61.98C1062.5,-53.58 1062.5,-40.48 1062.5,-29.66"/>
<polygon fill="midnightblue" stroke="midnightblue" points="1066,-29.51 1062.5,-19.51 1059,-29.51 1066,-29.51"/>
</g>
<!-- Node23&#45;&gt;Node10 -->
<g id="edge29" class="edge">
<title>Node23&#45;&gt;Node10</title>
<path fill="none" stroke="midnightblue" d="M565.74,-123.48C526.51,-114.74 464.13,-100.55 410.5,-87 406.39,-85.96 402.11,-84.85 397.84,-83.71"/>
<polygon fill="midnightblue" stroke="midnightblue" points="398.56,-80.28 387.99,-81.06 396.74,-87.04 398.56,-80.28"/>
</g>
<!-- Node23&#45;&gt;Node11 -->
<g id="edge30" class="edge">
<title>Node23&#45;&gt;Node11</title>
<path fill="none" stroke="midnightblue" d="M584.01,-123.48C559.69,-113.36 518.95,-96.4 491.18,-84.85"/>
<polygon fill="midnightblue" stroke="midnightblue" points="492.53,-81.62 481.95,-81.01 489.84,-88.08 492.53,-81.62"/>
</g>
<!-- Node23&#45;&gt;Node18 -->
<g id="edge31" class="edge">
<title>Node23&#45;&gt;Node18</title>
<path fill="none" stroke="midnightblue" d="M673.67,-126.3C752.42,-119.31 884.74,-105.98 997.5,-87 1003.93,-85.92 1010.69,-84.61 1017.32,-83.22"/>
<polygon fill="midnightblue" stroke="midnightblue" points="1018.52,-86.54 1027.55,-81.01 1017.04,-79.7 1018.52,-86.54"/>
</g>
<!-- Node23&#45;&gt;Node21 -->
<g id="edge33" class="edge">
<title>Node23&#45;&gt;Node21</title>
<path fill="none" stroke="midnightblue" d="M673.7,-126.37C813.58,-114.96 1117.65,-89.91 1128.5,-87 1130.44,-86.48 1132.4,-85.85 1134.35,-85.14"/>
<polygon fill="midnightblue" stroke="midnightblue" points="1135.97,-88.26 1143.82,-81.14 1133.24,-81.81 1135.97,-88.26"/>
</g>
<!-- Node24 -->
<g id="node24" class="node">
<title>Node24</title>
<g id="a_node24"><a xlink:title=" ">
<polygon fill="white" stroke="#bfbfbf" points="521,-62 521,-81 660,-81 660,-62 521,-62"/>
<text text-anchor="middle" x="590.5" y="-69" font-family="Helvetica,sans-Serif" font-size="10.00">tvm/ffi/container/shape.h</text>
</a>
</g>
</g>
<!-- Node23&#45;&gt;Node24 -->
<g id="edge28" class="edge">
<title>Node23&#45;&gt;Node24</title>
<path fill="none" stroke="midnightblue" d="M602.49,-123.48C600.5,-114.99 597.37,-101.7 594.81,-90.82"/>
<polygon fill="midnightblue" stroke="midnightblue" points="598.2,-89.94 592.5,-81.01 591.39,-91.54 598.2,-89.94"/>
</g>
<!-- Node25 -->
<g id="node25" class="node">
<title>Node25</title>
<g id="a_node25"><a xlink:title=" ">
<polygon fill="white" stroke="#bfbfbf" points="787.5,-62 787.5,-81 837.5,-81 837.5,-62 787.5,-62"/>
<text text-anchor="middle" x="812.5" y="-69" font-family="Helvetica,sans-Serif" font-size="10.00">cstring</text>
</a>
</g>
</g>
<!-- Node23&#45;&gt;Node25 -->
<g id="edge32" class="edge">
<title>Node23&#45;&gt;Node25</title>
<path fill="none" stroke="midnightblue" d="M643.43,-123.5C678.79,-115.4 732.19,-102.2 777.5,-87 779.42,-86.36 781.38,-85.66 783.35,-84.93"/>
<polygon fill="midnightblue" stroke="midnightblue" points="785.03,-88.03 793.06,-81.11 782.47,-81.51 785.03,-88.03"/>
</g>
<!-- Node23&#45;&gt;Node26 -->
<g id="edge34" class="edge">
<title>Node23&#45;&gt;Node26</title>
<path fill="none" stroke="midnightblue" d="M662.68,-123.44C712,-115.64 784.41,-102.93 846.5,-87 849.87,-86.13 853.37,-85.15 856.84,-84.1"/>
<polygon fill="midnightblue" stroke="midnightblue" points="857.98,-87.41 866.47,-81.07 855.88,-80.74 857.98,-87.41"/>
</g>
</g>
</svg>
