<?xml version="1.0" encoding="UTF-8" standalone="no"?>
<!DOCTYPE svg PUBLIC "-//W3C//DTD SVG 1.1//EN"
 "http://www.w3.org/Graphics/SVG/1.1/DTD/svg11.dtd">
<!-- Generated by graphviz version 2.43.0 (0)
 -->
<!-- Title: include/tvm/ir/unique_name_supply.h Pages: 1 -->
<svg width="846pt" height="374pt"
 viewBox="0.00 0.00 845.69 374.00" xmlns="http://www.w3.org/2000/svg" xmlns:xlink="http://www.w3.org/1999/xlink">
<g id="graph0" class="graph" transform="scale(1 1) rotate(0) translate(4 370)">
<title>include/tvm/ir/unique_name_supply.h</title>
<polygon fill="white" stroke="transparent" points="-4,4 -4,-370 841.69,-370 841.69,4 -4,4"/>
<!-- Node1 -->
<g id="node1" class="node">
<title>Node1</title>
<g id="a_node1"><a xlink:title="UniqueNameSupply that can be used to generate unique variable names.">
<polygon fill="#bfbfbf" stroke="black" points="139.5,-335.5 139.5,-365.5 259.5,-365.5 259.5,-335.5 139.5,-335.5"/>
<text text-anchor="start" x="147.5" y="-353.5" font-family="Helvetica,sans-Serif" font-size="10.00">include/tvm/ir/unique</text>
<text text-anchor="middle" x="199.5" y="-342.5" font-family="Helvetica,sans-Serif" font-size="10.00">_name_supply.h</text>
</a>
</g>
</g>
<!-- Node2 -->
<g id="node2" class="node">
<title>Node2</title>
<g id="a_node2"><a xlink:href="binding__rewrite_8h.html" target="_top" xlink:title="An IR rewriter to easily add/remove/replace bindings (statements).">
<polygon fill="white" stroke="black" points="0,-0.5 0,-30.5 141,-30.5 141,-0.5 0,-0.5"/>
<text text-anchor="start" x="8" y="-18.5" font-family="Helvetica,sans-Serif" font-size="10.00">include/tvm/relax/binding</text>
<text text-anchor="middle" x="70.5" y="-7.5" font-family="Helvetica,sans-Serif" font-size="10.00">_rewrite.h</text>
</a>
</g>
</g>
<!-- Node1&#45;&gt;Node2 -->
<g id="edge1" class="edge">
<title>Node1&#45;&gt;Node2</title>
<path fill="none" stroke="midnightblue" d="M136.24,-332.1C83.7,-313.35 17.5,-277.76 17.5,-217.5 17.5,-217.5 17.5,-217.5 17.5,-148.5 17.5,-111.31 21.65,-101.1 36.5,-67 42.24,-53.82 51.48,-40.39 58.88,-30.7"/>
<polygon fill="midnightblue" stroke="midnightblue" points="135.28,-335.47 145.88,-335.41 137.56,-328.85 135.28,-335.47"/>
</g>
<!-- Node3 -->
<g id="node3" class="node">
<title>Node3</title>
<g id="a_node3"><a xlink:href="block__builder_8h.html" target="_top" xlink:title="The utility for constructing Relax binding blocks.">
<polygon fill="white" stroke="black" points="479,-268.5 479,-298.5 610,-298.5 610,-268.5 479,-268.5"/>
<text text-anchor="start" x="487" y="-286.5" font-family="Helvetica,sans-Serif" font-size="10.00">include/tvm/relax/block</text>
<text text-anchor="middle" x="544.5" y="-275.5" font-family="Helvetica,sans-Serif" font-size="10.00">_builder.h</text>
</a>
</g>
</g>
<!-- Node1&#45;&gt;Node3 -->
<g id="edge2" class="edge">
<title>Node1&#45;&gt;Node3</title>
<path fill="none" stroke="midnightblue" d="M269.56,-336.3C330.8,-324.76 419.06,-308.13 478.93,-296.85"/>
<polygon fill="midnightblue" stroke="midnightblue" points="268.77,-332.89 259.59,-338.18 270.07,-339.77 268.77,-332.89"/>
</g>
<!-- Node4 -->
<g id="node4" class="node">
<title>Node4</title>
<g id="a_node4"><a xlink:href="relax_2expr__functor_8h.html" target="_top" xlink:title="A more powerful visitor which enables defining arbitrary function signatures with type based dispatch...">
<polygon fill="white" stroke="black" points="639,-0.5 639,-30.5 766,-30.5 766,-0.5 639,-0.5"/>
<text text-anchor="start" x="647" y="-18.5" font-family="Helvetica,sans-Serif" font-size="10.00">include/tvm/relax/expr</text>
<text text-anchor="middle" x="702.5" y="-7.5" font-family="Helvetica,sans-Serif" font-size="10.00">_functor.h</text>
</a>
</g>
</g>
<!-- Node3&#45;&gt;Node4 -->
<g id="edge3" class="edge">
<title>Node3&#45;&gt;Node4</title>
<path fill="none" stroke="midnightblue" d="M620.36,-276.56C690.31,-266.41 789.33,-238.99 830.5,-165 861.61,-109.08 778,-55.21 731.38,-30.53"/>
<polygon fill="midnightblue" stroke="midnightblue" points="619.7,-273.12 610.26,-277.93 620.64,-280.05 619.7,-273.12"/>
</g>
<!-- Node5 -->
<g id="node5" class="node">
<title>Node5</title>
<g id="a_node5"><a xlink:href="relax_2script_2builder_2frame_8h.html" target="_top" xlink:title=" ">
<polygon fill="white" stroke="black" points="581.5,-201.5 581.5,-231.5 713.5,-231.5 713.5,-201.5 581.5,-201.5"/>
<text text-anchor="start" x="589.5" y="-219.5" font-family="Helvetica,sans-Serif" font-size="10.00">include/tvm/relax/script</text>
<text text-anchor="middle" x="647.5" y="-208.5" font-family="Helvetica,sans-Serif" font-size="10.00">/builder/frame.h</text>
</a>
</g>
</g>
<!-- Node3&#45;&gt;Node5 -->
<g id="edge4" class="edge">
<title>Node3&#45;&gt;Node5</title>
<path fill="none" stroke="midnightblue" d="M575.38,-263.02C591.4,-252.9 610.63,-240.77 625.19,-231.58"/>
<polygon fill="midnightblue" stroke="midnightblue" points="573.44,-260.1 566.85,-268.4 577.17,-266.02 573.44,-260.1"/>
</g>
<!-- Node7 -->
<g id="node7" class="node">
<title>Node7</title>
<g id="a_node7"><a xlink:href="struct__info_8h.html" target="_top" xlink:title=" ">
<polygon fill="white" stroke="black" points="376,-201.5 376,-231.5 509,-231.5 509,-201.5 376,-201.5"/>
<text text-anchor="start" x="384" y="-219.5" font-family="Helvetica,sans-Serif" font-size="10.00">include/tvm/relax/struct</text>
<text text-anchor="middle" x="442.5" y="-208.5" font-family="Helvetica,sans-Serif" font-size="10.00">_info.h</text>
</a>
</g>
</g>
<!-- Node3&#45;&gt;Node7 -->
<g id="edge6" class="edge">
<title>Node3&#45;&gt;Node7</title>
<path fill="none" stroke="midnightblue" d="M513.92,-263.02C498.05,-252.9 479.02,-240.77 464.59,-231.58"/>
<polygon fill="midnightblue" stroke="midnightblue" points="512.05,-265.97 522.37,-268.4 515.82,-260.07 512.05,-265.97"/>
</g>
<!-- Node6 -->
<g id="node6" class="node">
<title>Node6</title>
<g id="a_node6"><a xlink:href="relax_2script_2builder_2ir_8h.html" target="_top" xlink:title=" ">
<polygon fill="white" stroke="black" points="689.5,-134.5 689.5,-164.5 821.5,-164.5 821.5,-134.5 689.5,-134.5"/>
<text text-anchor="start" x="697.5" y="-152.5" font-family="Helvetica,sans-Serif" font-size="10.00">include/tvm/relax/script</text>
<text text-anchor="middle" x="755.5" y="-141.5" font-family="Helvetica,sans-Serif" font-size="10.00">/builder/ir.h</text>
</a>
</g>
</g>
<!-- Node5&#45;&gt;Node6 -->
<g id="edge5" class="edge">
<title>Node5&#45;&gt;Node6</title>
<path fill="none" stroke="midnightblue" d="M679.87,-196.02C696.68,-185.9 716.84,-173.77 732.11,-164.58"/>
<polygon fill="midnightblue" stroke="midnightblue" points="677.7,-193.24 670.93,-201.4 681.31,-199.24 677.7,-193.24"/>
</g>
<!-- Node7&#45;&gt;Node4 -->
<g id="edge14" class="edge">
<title>Node7&#45;&gt;Node4</title>
<path fill="none" stroke="midnightblue" d="M519.11,-209.99C559.06,-203.9 606.87,-191.22 642.5,-165 686.84,-132.36 698.48,-61.38 701.48,-30.89"/>
<polygon fill="midnightblue" stroke="midnightblue" points="518.55,-206.54 509.14,-211.41 519.53,-213.47 518.55,-206.54"/>
</g>
<!-- Node7&#45;&gt;Node6 -->
<g id="edge18" class="edge">
<title>Node7&#45;&gt;Node6</title>
<path fill="none" stroke="midnightblue" d="M519.14,-199.59C571.29,-188.75 639.61,-174.57 689.38,-164.23"/>
<polygon fill="midnightblue" stroke="midnightblue" points="518.34,-196.18 509.26,-201.64 519.77,-203.03 518.34,-196.18"/>
</g>
<!-- Node8 -->
<g id="node8" class="node">
<title>Node8</title>
<g id="a_node8"><a xlink:href="relax_2analysis_8h.html" target="_top" xlink:title="The set of Relax specific analysis on IR.">
<polygon fill="white" stroke="black" points="46,-73 46,-92 201,-92 201,-73 46,-73"/>
<text text-anchor="middle" x="123.5" y="-80" font-family="Helvetica,sans-Serif" font-size="10.00">include/tvm/relax/analysis.h</text>
</a>
</g>
</g>
<!-- Node7&#45;&gt;Node8 -->
<g id="edge7" class="edge">
<title>Node7&#45;&gt;Node8</title>
<path fill="none" stroke="midnightblue" d="M365.79,-212.83C285.81,-208.36 167.82,-196.48 136.5,-165 116.9,-145.29 119.54,-108.65 121.97,-92.06"/>
<polygon fill="midnightblue" stroke="midnightblue" points="365.66,-216.33 375.83,-213.36 366.03,-209.34 365.66,-216.33"/>
</g>
<!-- Node9 -->
<g id="node9" class="node">
<title>Node9</title>
<g id="a_node9"><a xlink:href="distributed_2struct__info_8h.html" target="_top" xlink:title="Struct info for DTensor (Distributed Tensor)">
<polygon fill="white" stroke="black" points="475.5,-134.5 475.5,-164.5 633.5,-164.5 633.5,-134.5 475.5,-134.5"/>
<text text-anchor="start" x="483.5" y="-152.5" font-family="Helvetica,sans-Serif" font-size="10.00">include/tvm/relax/distributed</text>
<text text-anchor="middle" x="554.5" y="-141.5" font-family="Helvetica,sans-Serif" font-size="10.00">/struct_info.h</text>
</a>
</g>
</g>
<!-- Node7&#45;&gt;Node9 -->
<g id="edge9" class="edge">
<title>Node7&#45;&gt;Node9</title>
<path fill="none" stroke="midnightblue" d="M475.59,-196.3C493.12,-186.12 514.26,-173.85 530.25,-164.58"/>
<polygon fill="midnightblue" stroke="midnightblue" points="473.69,-193.35 466.8,-201.4 477.21,-199.4 473.69,-193.35"/>
</g>
<!-- Node12 -->
<g id="node12" class="node">
<title>Node12</title>
<g id="a_node12"><a xlink:href="struct__info__functor_8h.html" target="_top" xlink:title="Functors and visitors for struct info.">
<polygon fill="white" stroke="black" points="219,-67.5 219,-97.5 352,-97.5 352,-67.5 219,-67.5"/>
<text text-anchor="start" x="227" y="-85.5" font-family="Helvetica,sans-Serif" font-size="10.00">include/tvm/relax/struct</text>
<text text-anchor="middle" x="285.5" y="-74.5" font-family="Helvetica,sans-Serif" font-size="10.00">_info_functor.h</text>
</a>
</g>
</g>
<!-- Node7&#45;&gt;Node12 -->
<g id="edge19" class="edge">
<title>Node7&#45;&gt;Node12</title>
<path fill="none" stroke="midnightblue" d="M366.25,-199.42C345.87,-191.9 325.4,-180.94 310.5,-165 293.02,-146.29 287.75,-115.65 286.17,-97.75"/>
<polygon fill="midnightblue" stroke="midnightblue" points="365.31,-202.79 375.9,-202.73 367.58,-196.17 365.31,-202.79"/>
</g>
<!-- Node13 -->
<g id="node13" class="node">
<title>Node13</title>
<g id="a_node13"><a xlink:href="nested__msg_8h.html" target="_top" xlink:title="Helper container to store nested message for robust tuple&#45;aware analysis.">
<polygon fill="white" stroke="black" points="319.5,-134.5 319.5,-164.5 457.5,-164.5 457.5,-134.5 319.5,-134.5"/>
<text text-anchor="start" x="327.5" y="-152.5" font-family="Helvetica,sans-Serif" font-size="10.00">include/tvm/relax/nested</text>
<text text-anchor="middle" x="388.5" y="-141.5" font-family="Helvetica,sans-Serif" font-size="10.00">_msg.h</text>
</a>
</g>
</g>
<!-- Node7&#45;&gt;Node13 -->
<g id="edge15" class="edge">
<title>Node7&#45;&gt;Node13</title>
<path fill="none" stroke="midnightblue" d="M424.18,-193.45C416.25,-183.9 407.2,-173 400.19,-164.58"/>
<polygon fill="midnightblue" stroke="midnightblue" points="421.7,-195.94 430.78,-201.4 427.08,-191.47 421.7,-195.94"/>
</g>
<!-- Node14 -->
<g id="node14" class="node">
<title>Node14</title>
<g id="a_node14"><a xlink:href="relax_2op__attr__types_8h.html" target="_top" xlink:title="Data structures that can appear in operator attributes.">
<polygon fill="white" stroke="black" points="146,-134.5 146,-164.5 263,-164.5 263,-134.5 146,-134.5"/>
<text text-anchor="start" x="154" y="-152.5" font-family="Helvetica,sans-Serif" font-size="10.00">include/tvm/relax/op</text>
<text text-anchor="middle" x="204.5" y="-141.5" font-family="Helvetica,sans-Serif" font-size="10.00">_attr_types.h</text>
</a>
</g>
</g>
<!-- Node7&#45;&gt;Node14 -->
<g id="edge16" class="edge">
<title>Node7&#45;&gt;Node14</title>
<path fill="none" stroke="midnightblue" d="M381.04,-198.71C342.31,-188.14 292.87,-174.63 256.17,-164.61"/>
<polygon fill="midnightblue" stroke="midnightblue" points="380.58,-202.22 391.15,-201.48 382.43,-195.46 380.58,-202.22"/>
</g>
<!-- Node8&#45;&gt;Node2 -->
<g id="edge8" class="edge">
<title>Node8&#45;&gt;Node2</title>
<path fill="none" stroke="midnightblue" d="M109.78,-64.67C101.15,-54.09 90.15,-40.6 81.99,-30.59"/>
<polygon fill="midnightblue" stroke="midnightblue" points="107.32,-67.2 116.35,-72.73 112.75,-62.77 107.32,-67.2"/>
</g>
<!-- Node10 -->
<g id="node10" class="node">
<title>Node10</title>
<g id="a_node10"><a xlink:href="distributed_8h.html" target="_top" xlink:title="Attributes for redistribute and annotate_sharding operators.">
<polygon fill="white" stroke="black" points="546.5,-67.5 546.5,-97.5 674.5,-97.5 674.5,-67.5 546.5,-67.5"/>
<text text-anchor="start" x="554.5" y="-85.5" font-family="Helvetica,sans-Serif" font-size="10.00">include/tvm/relax/attrs</text>
<text text-anchor="middle" x="610.5" y="-74.5" font-family="Helvetica,sans-Serif" font-size="10.00">/distributed.h</text>
</a>
</g>
</g>
<!-- Node9&#45;&gt;Node10 -->
<g id="edge10" class="edge">
<title>Node9&#45;&gt;Node10</title>
<path fill="none" stroke="midnightblue" d="M573.25,-126.74C581.54,-117.12 591.04,-106.09 598.37,-97.58"/>
<polygon fill="midnightblue" stroke="midnightblue" points="570.53,-124.54 566.65,-134.4 575.83,-129.1 570.53,-124.54"/>
</g>
<!-- Node11 -->
<g id="node11" class="node">
<title>Node11</title>
<g id="a_node11"><a xlink:href="axis__group__graph_8h.html" target="_top" xlink:title=" ">
<polygon fill="white" stroke="black" points="370.5,-67.5 370.5,-97.5 528.5,-97.5 528.5,-67.5 370.5,-67.5"/>
<text text-anchor="start" x="378.5" y="-85.5" font-family="Helvetica,sans-Serif" font-size="10.00">include/tvm/relax/distributed</text>
<text text-anchor="middle" x="449.5" y="-74.5" font-family="Helvetica,sans-Serif" font-size="10.00">/axis_group_graph.h</text>
</a>
</g>
</g>
<!-- Node9&#45;&gt;Node11 -->
<g id="edge11" class="edge">
<title>Node9&#45;&gt;Node11</title>
<path fill="none" stroke="midnightblue" d="M523.02,-129.02C506.68,-118.9 487.09,-106.77 472.24,-97.58"/>
<polygon fill="midnightblue" stroke="midnightblue" points="521.37,-132.11 531.72,-134.4 525.06,-126.16 521.37,-132.11"/>
</g>
<!-- Node9&#45;&gt;Node12 -->
<g id="edge12" class="edge">
<title>Node9&#45;&gt;Node12</title>
<path fill="none" stroke="midnightblue" d="M486.71,-132.12C442.69,-121.48 385.91,-107.76 343.9,-97.61"/>
<polygon fill="midnightblue" stroke="midnightblue" points="485.92,-135.53 496.46,-134.48 487.56,-128.73 485.92,-135.53"/>
</g>
<!-- Node12&#45;&gt;Node4 -->
<g id="edge13" class="edge">
<title>Node12&#45;&gt;Node4</title>
<path fill="none" stroke="midnightblue" d="M362.13,-66.93C464.95,-49.66 572.46,-34.3 638.9,-25.12"/>
<polygon fill="midnightblue" stroke="midnightblue" points="361.48,-63.5 352.2,-68.61 362.64,-70.4 361.48,-63.5"/>
</g>
<!-- Node14&#45;&gt;Node8 -->
<g id="edge17" class="edge">
<title>Node14&#45;&gt;Node8</title>
<path fill="none" stroke="midnightblue" d="M178.96,-128.01C163.93,-115.94 145.69,-101.3 134.33,-92.19"/>
<polygon fill="midnightblue" stroke="midnightblue" points="176.93,-130.87 186.92,-134.4 181.32,-125.41 176.93,-130.87"/>
</g>
</g>
</svg>
