<?xml version="1.0" encoding="UTF-8" standalone="no"?>
<!DOCTYPE svg PUBLIC "-//W3C//DTD SVG 1.1//EN"
 "http://www.w3.org/Graphics/SVG/1.1/DTD/svg11.dtd">
<!-- Generated by graphviz version 2.43.0 (0)
 -->
<!-- Title: include/tvm/ir/unique_name_supply.h Pages: 1 -->
<svg width="1455pt" height="274pt"
 viewBox="0.00 0.00 1455.00 274.00" xmlns="http://www.w3.org/2000/svg" xmlns:xlink="http://www.w3.org/1999/xlink">
<g id="graph0" class="graph" transform="scale(1 1) rotate(0) translate(4 270)">
<title>include/tvm/ir/unique_name_supply.h</title>
<polygon fill="white" stroke="transparent" points="-4,4 -4,-270 1451,-270 1451,4 -4,4"/>
<!-- Node1 -->
<g id="node1" class="node">
<title>Node1</title>
<g id="a_node1"><a xlink:title="UniqueNameSupply that can be used to generate unique variable names.">
<polygon fill="#bfbfbf" stroke="black" points="669.5,-235.5 669.5,-265.5 789.5,-265.5 789.5,-235.5 669.5,-235.5"/>
<text text-anchor="start" x="677.5" y="-253.5" font-family="Helvetica,sans-Serif" font-size="10.00">include/tvm/ir/unique</text>
<text text-anchor="middle" x="729.5" y="-242.5" font-family="Helvetica,sans-Serif" font-size="10.00">_name_supply.h</text>
</a>
</g>
</g>
<!-- Node2 -->
<g id="node2" class="node">
<title>Node2</title>
<g id="a_node2"><a xlink:title=" ">
<polygon fill="white" stroke="#bfbfbf" points="582.5,-56.5 582.5,-86.5 680.5,-86.5 680.5,-56.5 582.5,-56.5"/>
<text text-anchor="start" x="590.5" y="-74.5" font-family="Helvetica,sans-Serif" font-size="10.00">tvm/ffi/reflection</text>
<text text-anchor="middle" x="631.5" y="-63.5" font-family="Helvetica,sans-Serif" font-size="10.00">/registry.h</text>
</a>
</g>
</g>
<!-- Node1&#45;&gt;Node2 -->
<g id="edge1" class="edge">
<title>Node1&#45;&gt;Node2</title>
<path fill="none" stroke="midnightblue" d="M696.33,-235.42C662.17,-218.89 610.85,-187.9 588.5,-143 579.98,-125.89 592,-107.48 605.47,-93.77"/>
<polygon fill="midnightblue" stroke="midnightblue" points="608.12,-96.08 612.98,-86.67 603.31,-90.99 608.12,-96.08"/>
</g>
<!-- Node3 -->
<g id="node3" class="node">
<title>Node3</title>
<g id="a_node3"><a xlink:href="ir_2expr_8h.html" target="_top" xlink:title="Base expr nodes in TVM.">
<polygon fill="white" stroke="black" points="690,-179.5 690,-198.5 769,-198.5 769,-179.5 690,-179.5"/>
<text text-anchor="middle" x="729.5" y="-186.5" font-family="Helvetica,sans-Serif" font-size="10.00">tvm/ir/expr.h</text>
</a>
</g>
</g>
<!-- Node1&#45;&gt;Node3 -->
<g id="edge2" class="edge">
<title>Node1&#45;&gt;Node3</title>
<path fill="none" stroke="midnightblue" d="M729.5,-235.4C729.5,-227.47 729.5,-217.46 729.5,-208.86"/>
<polygon fill="midnightblue" stroke="midnightblue" points="733,-208.66 729.5,-198.66 726,-208.66 733,-208.66"/>
</g>
<!-- Node8 -->
<g id="node8" class="node">
<title>Node8</title>
<g id="a_node8"><a xlink:title=" ">
<polygon fill="white" stroke="#bfbfbf" points="0,-62 0,-81 45,-81 45,-62 0,-62"/>
<text text-anchor="middle" x="22.5" y="-69" font-family="Helvetica,sans-Serif" font-size="10.00">utility</text>
</a>
</g>
</g>
<!-- Node1&#45;&gt;Node8 -->
<g id="edge34" class="edge">
<title>Node1&#45;&gt;Node8</title>
<path fill="none" stroke="midnightblue" d="M669.48,-246.67C524.17,-238.77 158.21,-212.34 60.5,-143 42.99,-130.58 32.78,-107.5 27.43,-91.14"/>
<polygon fill="midnightblue" stroke="midnightblue" points="30.66,-89.7 24.48,-81.09 23.94,-91.67 30.66,-89.7"/>
</g>
<!-- Node15 -->
<g id="node15" class="node">
<title>Node15</title>
<g id="a_node15"><a xlink:title=" ">
<polygon fill="white" stroke="#bfbfbf" points="726.5,-62 726.5,-81 770.5,-81 770.5,-62 726.5,-62"/>
<text text-anchor="middle" x="748.5" y="-69" font-family="Helvetica,sans-Serif" font-size="10.00">string</text>
</a>
</g>
</g>
<!-- Node1&#45;&gt;Node15 -->
<g id="edge33" class="edge">
<title>Node1&#45;&gt;Node15</title>
<path fill="none" stroke="midnightblue" d="M789.53,-248.35C914.55,-243.96 1184.16,-222.97 1095.5,-123 1051.1,-72.93 862,-100.73 796.5,-87 791.31,-85.91 785.87,-84.52 780.59,-83.03"/>
<polygon fill="midnightblue" stroke="midnightblue" points="781.34,-79.6 770.76,-80.1 779.34,-86.31 781.34,-79.6"/>
</g>
<!-- Node26 -->
<g id="node26" class="node">
<title>Node26</title>
<g id="a_node26"><a xlink:title=" ">
<polygon fill="white" stroke="#bfbfbf" points="1142.5,-179.5 1142.5,-198.5 1192.5,-198.5 1192.5,-179.5 1142.5,-179.5"/>
<text text-anchor="middle" x="1167.5" y="-186.5" font-family="Helvetica,sans-Serif" font-size="10.00">cstdint</text>
</a>
</g>
</g>
<!-- Node1&#45;&gt;Node26 -->
<g id="edge32" class="edge">
<title>Node1&#45;&gt;Node26</title>
<path fill="none" stroke="midnightblue" d="M789.61,-243.8C867.95,-235.94 1009.06,-220.28 1128.5,-199 1129.77,-198.77 1131.06,-198.53 1132.36,-198.28"/>
<polygon fill="midnightblue" stroke="midnightblue" points="1133.33,-201.65 1142.4,-196.18 1131.9,-194.8 1133.33,-201.65"/>
</g>
<!-- Node3&#45;&gt;Node2 -->
<g id="edge4" class="edge">
<title>Node3&#45;&gt;Node2</title>
<path fill="none" stroke="midnightblue" d="M689.69,-186.38C658.7,-182.77 617.53,-172.31 596.5,-143 585.61,-127.82 596.33,-108.75 608.68,-94.28"/>
<polygon fill="midnightblue" stroke="midnightblue" points="611.4,-96.49 615.59,-86.76 606.25,-91.76 611.4,-96.49"/>
</g>
<!-- Node4 -->
<g id="node4" class="node">
<title>Node4</title>
<g id="a_node4"><a xlink:title=" ">
<polygon fill="white" stroke="#bfbfbf" points="842.5,-123.5 842.5,-142.5 978.5,-142.5 978.5,-123.5 842.5,-123.5"/>
<text text-anchor="middle" x="910.5" y="-130.5" font-family="Helvetica,sans-Serif" font-size="10.00">tvm/ffi/extra/dataclass.h</text>
</a>
</g>
</g>
<!-- Node3&#45;&gt;Node4 -->
<g id="edge3" class="edge">
<title>Node3&#45;&gt;Node4</title>
<path fill="none" stroke="midnightblue" d="M758.18,-179.44C789.03,-170.24 838.23,-155.56 872.33,-145.39"/>
<polygon fill="midnightblue" stroke="midnightblue" points="873.37,-148.73 881.95,-142.52 871.37,-142.02 873.37,-148.73"/>
</g>
<!-- Node5 -->
<g id="node5" class="node">
<title>Node5</title>
<g id="a_node5"><a xlink:title=" ">
<polygon fill="white" stroke="#bfbfbf" points="997,-123.5 997,-142.5 1086,-142.5 1086,-123.5 997,-123.5"/>
<text text-anchor="middle" x="1041.5" y="-130.5" font-family="Helvetica,sans-Serif" font-size="10.00">tvm/ffi/string.h</text>
</a>
</g>
</g>
<!-- Node3&#45;&gt;Node5 -->
<g id="edge5" class="edge">
<title>Node3&#45;&gt;Node5</title>
<path fill="none" stroke="midnightblue" d="M769.02,-181.16C824.16,-171.62 924.41,-154.27 986.73,-143.48"/>
<polygon fill="midnightblue" stroke="midnightblue" points="987.51,-146.9 996.77,-141.74 986.32,-140 987.51,-146.9"/>
</g>
<!-- Node6 -->
<g id="node6" class="node">
<title>Node6</title>
<g id="a_node6"><a xlink:href="cow_8h.html" target="_top" xlink:title="Copy&#45;on&#45;write helper macro for IR ffi::ObjectRef types.">
<polygon fill="white" stroke="black" points="70,-123.5 70,-142.5 147,-142.5 147,-123.5 70,-123.5"/>
<text text-anchor="middle" x="108.5" y="-130.5" font-family="Helvetica,sans-Serif" font-size="10.00">tvm/ir/cow.h</text>
</a>
</g>
</g>
<!-- Node3&#45;&gt;Node6 -->
<g id="edge6" class="edge">
<title>Node3&#45;&gt;Node6</title>
<path fill="none" stroke="midnightblue" d="M689.71,-184.54C580.57,-175.05 276.72,-148.63 157.45,-138.26"/>
<polygon fill="midnightblue" stroke="midnightblue" points="157.43,-134.74 147.16,-137.36 156.82,-141.72 157.43,-134.74"/>
</g>
<!-- Node9 -->
<g id="node9" class="node">
<title>Node9</title>
<g id="a_node9"><a xlink:href="source__map_8h.html" target="_top" xlink:title="A map from source names to source code.">
<polygon fill="white" stroke="black" points="365,-123.5 365,-142.5 482,-142.5 482,-123.5 365,-123.5"/>
<text text-anchor="middle" x="423.5" y="-130.5" font-family="Helvetica,sans-Serif" font-size="10.00">tvm/ir/source_map.h</text>
</a>
</g>
</g>
<!-- Node3&#45;&gt;Node9 -->
<g id="edge9" class="edge">
<title>Node3&#45;&gt;Node9</title>
<path fill="none" stroke="midnightblue" d="M689.81,-181C636.81,-171.64 542.53,-155.01 481.55,-144.24"/>
<polygon fill="midnightblue" stroke="midnightblue" points="482.14,-140.79 471.68,-142.5 480.92,-147.69 482.14,-140.79"/>
</g>
<!-- Node3&#45;&gt;Node15 -->
<g id="edge30" class="edge">
<title>Node3&#45;&gt;Node15</title>
<path fill="none" stroke="midnightblue" d="M689.63,-182.48C644.89,-174.53 581.5,-156.93 605.5,-123 612.16,-113.59 676.65,-93.41 716.72,-81.61"/>
<polygon fill="midnightblue" stroke="midnightblue" points="717.71,-84.97 726.33,-78.8 715.75,-78.25 717.71,-84.97"/>
</g>
<!-- Node17 -->
<g id="node17" class="node">
<title>Node17</title>
<g id="a_node17"><a xlink:href="data__type_8h.html" target="_top" xlink:title=" ">
<polygon fill="white" stroke="black" points="1142.5,-123.5 1142.5,-142.5 1280.5,-142.5 1280.5,-123.5 1142.5,-123.5"/>
<text text-anchor="middle" x="1211.5" y="-130.5" font-family="Helvetica,sans-Serif" font-size="10.00">tvm/runtime/data_type.h</text>
</a>
</g>
</g>
<!-- Node3&#45;&gt;Node17 -->
<g id="edge19" class="edge">
<title>Node3&#45;&gt;Node17</title>
<path fill="none" stroke="midnightblue" d="M769.35,-183.54C848.7,-174.65 1027.74,-154.59 1132.02,-142.9"/>
<polygon fill="midnightblue" stroke="midnightblue" points="1132.64,-146.36 1142.18,-141.77 1131.86,-139.4 1132.64,-146.36"/>
</g>
<!-- Node22 -->
<g id="node22" class="node">
<title>Node22</title>
<g id="a_node22"><a xlink:title=" ">
<polygon fill="white" stroke="#bfbfbf" points="1378,-62 1378,-81 1447,-81 1447,-62 1378,-62"/>
<text text-anchor="middle" x="1412.5" y="-69" font-family="Helvetica,sans-Serif" font-size="10.00">type_traits</text>
</a>
</g>
</g>
<!-- Node3&#45;&gt;Node22 -->
<g id="edge31" class="edge">
<title>Node3&#45;&gt;Node22</title>
<path fill="none" stroke="midnightblue" d="M769.35,-187.06C880.5,-184.06 1192.14,-173.15 1289.5,-143 1329.14,-130.72 1369.93,-104.03 1393.15,-87.24"/>
<polygon fill="midnightblue" stroke="midnightblue" points="1395.45,-89.89 1401.42,-81.14 1391.3,-84.26 1395.45,-89.89"/>
</g>
<!-- Node23 -->
<g id="node23" class="node">
<title>Node23</title>
<g id="a_node23"><a xlink:title=" ">
<polygon fill="white" stroke="#bfbfbf" points="614.5,-123.5 614.5,-142.5 678.5,-142.5 678.5,-123.5 614.5,-123.5"/>
<text text-anchor="middle" x="646.5" y="-130.5" font-family="Helvetica,sans-Serif" font-size="10.00">algorithm</text>
</a>
</g>
</g>
<!-- Node3&#45;&gt;Node23 -->
<g id="edge27" class="edge">
<title>Node3&#45;&gt;Node23</title>
<path fill="none" stroke="midnightblue" d="M716.16,-179.32C703.34,-170.98 683.72,-158.21 668.56,-148.35"/>
<polygon fill="midnightblue" stroke="midnightblue" points="670.09,-145.17 659.8,-142.65 666.28,-151.04 670.09,-145.17"/>
</g>
<!-- Node24 -->
<g id="node24" class="node">
<title>Node24</title>
<g id="a_node24"><a xlink:title=" ">
<polygon fill="white" stroke="#bfbfbf" points="697,-123.5 697,-142.5 762,-142.5 762,-123.5 697,-123.5"/>
<text text-anchor="middle" x="729.5" y="-130.5" font-family="Helvetica,sans-Serif" font-size="10.00">functional</text>
</a>
</g>
</g>
<!-- Node3&#45;&gt;Node24 -->
<g id="edge28" class="edge">
<title>Node3&#45;&gt;Node24</title>
<path fill="none" stroke="midnightblue" d="M729.5,-179.08C729.5,-172.01 729.5,-161.86 729.5,-152.99"/>
<polygon fill="midnightblue" stroke="midnightblue" points="733,-152.75 729.5,-142.75 726,-152.75 733,-152.75"/>
</g>
<!-- Node25 -->
<g id="node25" class="node">
<title>Node25</title>
<g id="a_node25"><a xlink:title=" ">
<polygon fill="white" stroke="#bfbfbf" points="780.5,-123.5 780.5,-142.5 824.5,-142.5 824.5,-123.5 780.5,-123.5"/>
<text text-anchor="middle" x="802.5" y="-130.5" font-family="Helvetica,sans-Serif" font-size="10.00">limits</text>
</a>
</g>
</g>
<!-- Node3&#45;&gt;Node25 -->
<g id="edge29" class="edge">
<title>Node3&#45;&gt;Node25</title>
<path fill="none" stroke="midnightblue" d="M741.23,-179.32C752.34,-171.11 769.24,-158.6 782.48,-148.81"/>
<polygon fill="midnightblue" stroke="midnightblue" points="784.6,-151.59 790.56,-142.83 780.44,-145.97 784.6,-151.59"/>
</g>
<!-- Node7 -->
<g id="node7" class="node">
<title>Node7</title>
<g id="a_node7"><a xlink:title=" ">
<polygon fill="white" stroke="#bfbfbf" points="63,-62 63,-81 154,-81 154,-62 63,-62"/>
<text text-anchor="middle" x="108.5" y="-69" font-family="Helvetica,sans-Serif" font-size="10.00">tvm/ffi/object.h</text>
</a>
</g>
</g>
<!-- Node6&#45;&gt;Node7 -->
<g id="edge7" class="edge">
<title>Node6&#45;&gt;Node7</title>
<path fill="none" stroke="midnightblue" d="M108.5,-123.48C108.5,-115.08 108.5,-101.98 108.5,-91.16"/>
<polygon fill="midnightblue" stroke="midnightblue" points="112,-91.01 108.5,-81.01 105,-91.01 112,-91.01"/>
</g>
<!-- Node6&#45;&gt;Node8 -->
<g id="edge8" class="edge">
<title>Node6&#45;&gt;Node8</title>
<path fill="none" stroke="midnightblue" d="M96.18,-123.48C82.38,-113.93 59.8,-98.31 43.27,-86.87"/>
<polygon fill="midnightblue" stroke="midnightblue" points="45.01,-83.82 34.8,-81.01 41.03,-89.58 45.01,-83.82"/>
</g>
<!-- Node9&#45;&gt;Node2 -->
<g id="edge12" class="edge">
<title>Node9&#45;&gt;Node2</title>
<path fill="none" stroke="midnightblue" d="M453.3,-123.48C484.37,-114.59 533.87,-100.43 572.82,-89.29"/>
<polygon fill="midnightblue" stroke="midnightblue" points="573.83,-92.64 582.48,-86.52 571.9,-85.91 573.83,-92.64"/>
</g>
<!-- Node9&#45;&gt;Node8 -->
<g id="edge17" class="edge">
<title>Node9&#45;&gt;Node8</title>
<path fill="none" stroke="midnightblue" d="M364.69,-130.55C290.73,-127.45 160.49,-117.68 53.5,-87 51.57,-86.45 49.61,-85.79 47.67,-85.06"/>
<polygon fill="midnightblue" stroke="midnightblue" points="48.79,-81.73 38.22,-81.02 46.04,-88.17 48.79,-81.73"/>
</g>
<!-- Node10 -->
<g id="node10" class="node">
<title>Node10</title>
<g id="a_node10"><a xlink:title=" ">
<polygon fill="white" stroke="#bfbfbf" points="172.5,-62 172.5,-81 306.5,-81 306.5,-62 172.5,-62"/>
<text text-anchor="middle" x="239.5" y="-69" font-family="Helvetica,sans-Serif" font-size="10.00">tvm/ffi/container/array.h</text>
</a>
</g>
</g>
<!-- Node9&#45;&gt;Node10 -->
<g id="edge10" class="edge">
<title>Node9&#45;&gt;Node10</title>
<path fill="none" stroke="midnightblue" d="M397.14,-123.48C365.16,-113.14 311.12,-95.66 275.38,-84.1"/>
<polygon fill="midnightblue" stroke="midnightblue" points="276.41,-80.76 265.81,-81.01 274.25,-87.42 276.41,-80.76"/>
</g>
<!-- Node11 -->
<g id="node11" class="node">
<title>Node11</title>
<g id="a_node11"><a xlink:title=" ">
<polygon fill="white" stroke="#bfbfbf" points="325,-62 325,-81 426,-81 426,-62 325,-62"/>
<text text-anchor="middle" x="375.5" y="-69" font-family="Helvetica,sans-Serif" font-size="10.00">tvm/ffi/function.h</text>
</a>
</g>
</g>
<!-- Node9&#45;&gt;Node11 -->
<g id="edge11" class="edge">
<title>Node9&#45;&gt;Node11</title>
<path fill="none" stroke="midnightblue" d="M416.62,-123.48C409.35,-114.46 397.7,-100.02 388.66,-88.81"/>
<polygon fill="midnightblue" stroke="midnightblue" points="391.37,-86.59 382.36,-81.01 385.92,-90.99 391.37,-86.59"/>
</g>
<!-- Node12 -->
<g id="node12" class="node">
<title>Node12</title>
<g id="a_node12"><a xlink:href="runtime_2base_8h.html" target="_top" xlink:title=" ">
<polygon fill="white" stroke="black" points="805,-62 805,-81 918,-81 918,-62 805,-62"/>
<text text-anchor="middle" x="861.5" y="-69" font-family="Helvetica,sans-Serif" font-size="10.00">tvm/runtime/base.h</text>
</a>
</g>
</g>
<!-- Node9&#45;&gt;Node12 -->
<g id="edge13" class="edge">
<title>Node9&#45;&gt;Node12</title>
<path fill="none" stroke="midnightblue" d="M482.21,-125.48C552.88,-117.42 675.1,-102.82 779.5,-87 787.92,-85.72 796.82,-84.27 805.51,-82.78"/>
<polygon fill="midnightblue" stroke="midnightblue" points="806.34,-86.19 815.59,-81.03 805.14,-79.29 806.34,-86.19"/>
</g>
<!-- Node14 -->
<g id="node14" class="node">
<title>Node14</title>
<g id="a_node14"><a xlink:title=" ">
<polygon fill="white" stroke="#bfbfbf" points="444,-62 444,-81 499,-81 499,-62 444,-62"/>
<text text-anchor="middle" x="471.5" y="-69" font-family="Helvetica,sans-Serif" font-size="10.00">fstream</text>
</a>
</g>
</g>
<!-- Node9&#45;&gt;Node14 -->
<g id="edge15" class="edge">
<title>Node9&#45;&gt;Node14</title>
<path fill="none" stroke="midnightblue" d="M430.38,-123.48C437.65,-114.46 449.3,-100.02 458.34,-88.81"/>
<polygon fill="midnightblue" stroke="midnightblue" points="461.08,-90.99 464.64,-81.01 455.63,-86.59 461.08,-90.99"/>
</g>
<!-- Node9&#45;&gt;Node15 -->
<g id="edge16" class="edge">
<title>Node9&#45;&gt;Node15</title>
<path fill="none" stroke="midnightblue" d="M481.32,-123.47C535.36,-115.2 618.18,-101.78 689.5,-87 698.33,-85.17 707.85,-82.94 716.61,-80.79"/>
<polygon fill="midnightblue" stroke="midnightblue" points="717.6,-84.15 726.45,-78.33 715.9,-77.36 717.6,-84.15"/>
</g>
<!-- Node16 -->
<g id="node16" class="node">
<title>Node16</title>
<g id="a_node16"><a xlink:title=" ">
<polygon fill="white" stroke="#bfbfbf" points="517,-62 517,-81 564,-81 564,-62 517,-62"/>
<text text-anchor="middle" x="540.5" y="-69" font-family="Helvetica,sans-Serif" font-size="10.00">vector</text>
</a>
</g>
</g>
<!-- Node9&#45;&gt;Node16 -->
<g id="edge18" class="edge">
<title>Node9&#45;&gt;Node16</title>
<path fill="none" stroke="midnightblue" d="M440.26,-123.48C459.72,-113.58 492.05,-97.14 514.71,-85.62"/>
<polygon fill="midnightblue" stroke="midnightblue" points="516.44,-88.66 523.77,-81.01 513.27,-82.42 516.44,-88.66"/>
</g>
<!-- Node13 -->
<g id="node13" class="node">
<title>Node13</title>
<g id="a_node13"><a xlink:title=" ">
<polygon fill="white" stroke="#bfbfbf" points="818.5,-0.5 818.5,-19.5 904.5,-19.5 904.5,-0.5 818.5,-0.5"/>
<text text-anchor="middle" x="861.5" y="-7.5" font-family="Helvetica,sans-Serif" font-size="10.00">tvm/ffi/c_api.h</text>
</a>
</g>
</g>
<!-- Node12&#45;&gt;Node13 -->
<g id="edge14" class="edge">
<title>Node12&#45;&gt;Node13</title>
<path fill="none" stroke="midnightblue" d="M861.5,-61.98C861.5,-53.58 861.5,-40.48 861.5,-29.66"/>
<polygon fill="midnightblue" stroke="midnightblue" points="865,-29.51 861.5,-19.51 858,-29.51 865,-29.51"/>
</g>
<!-- Node17&#45;&gt;Node12 -->
<g id="edge23" class="edge">
<title>Node17&#45;&gt;Node12</title>
<path fill="none" stroke="midnightblue" d="M1155.9,-123.47C1100.1,-114.78 1011.72,-100.68 935.5,-87 928.41,-85.73 920.96,-84.33 913.61,-82.93"/>
<polygon fill="midnightblue" stroke="midnightblue" points="914.2,-79.48 903.72,-81.01 912.87,-86.35 914.2,-79.48"/>
</g>
<!-- Node17&#45;&gt;Node15 -->
<g id="edge25" class="edge">
<title>Node17&#45;&gt;Node15</title>
<path fill="none" stroke="midnightblue" d="M1142.04,-124.47C1023.9,-111.66 796.5,-87 796.5,-87 791.3,-85.94 785.86,-84.57 780.58,-83.08"/>
<polygon fill="midnightblue" stroke="midnightblue" points="781.33,-79.66 770.75,-80.16 779.33,-86.36 781.33,-79.66"/>
</g>
<!-- Node18 -->
<g id="node18" class="node">
<title>Node18</title>
<g id="a_node18"><a xlink:title=" ">
<polygon fill="white" stroke="#bfbfbf" points="1114,-62 1114,-81 1253,-81 1253,-62 1114,-62"/>
<text text-anchor="middle" x="1183.5" y="-69" font-family="Helvetica,sans-Serif" font-size="10.00">tvm/ffi/container/shape.h</text>
</a>
</g>
</g>
<!-- Node17&#45;&gt;Node18 -->
<g id="edge20" class="edge">
<title>Node17&#45;&gt;Node18</title>
<path fill="none" stroke="midnightblue" d="M1207.49,-123.48C1203.41,-114.82 1196.98,-101.15 1191.8,-90.15"/>
<polygon fill="midnightblue" stroke="midnightblue" points="1194.93,-88.57 1187.5,-81.01 1188.6,-91.55 1194.93,-88.57"/>
</g>
<!-- Node19 -->
<g id="node19" class="node">
<title>Node19</title>
<g id="a_node19"><a xlink:title=" ">
<polygon fill="white" stroke="#bfbfbf" points="1271,-62 1271,-81 1360,-81 1360,-62 1271,-62"/>
<text text-anchor="middle" x="1315.5" y="-69" font-family="Helvetica,sans-Serif" font-size="10.00">tvm/ffi/dtype.h</text>
</a>
</g>
</g>
<!-- Node17&#45;&gt;Node19 -->
<g id="edge21" class="edge">
<title>Node17&#45;&gt;Node19</title>
<path fill="none" stroke="midnightblue" d="M1226.4,-123.48C1243.47,-113.71 1271.66,-97.58 1291.76,-86.08"/>
<polygon fill="midnightblue" stroke="midnightblue" points="1293.69,-89.01 1300.63,-81.01 1290.21,-82.94 1293.69,-89.01"/>
</g>
<!-- Node20 -->
<g id="node20" class="node">
<title>Node20</title>
<g id="a_node20"><a xlink:title=" ">
<polygon fill="white" stroke="#bfbfbf" points="944,-62 944,-81 1027,-81 1027,-62 944,-62"/>
<text text-anchor="middle" x="985.5" y="-69" font-family="Helvetica,sans-Serif" font-size="10.00">tvm/ffi/error.h</text>
</a>
</g>
</g>
<!-- Node17&#45;&gt;Node20 -->
<g id="edge22" class="edge">
<title>Node17&#45;&gt;Node20</title>
<path fill="none" stroke="midnightblue" d="M1177.23,-123.46C1141.9,-114.59 1085.25,-100.2 1036.5,-87 1032.71,-85.97 1028.77,-84.89 1024.83,-83.79"/>
<polygon fill="midnightblue" stroke="midnightblue" points="1025.7,-80.4 1015.13,-81.06 1023.81,-87.14 1025.7,-80.4"/>
</g>
<!-- Node21 -->
<g id="node21" class="node">
<title>Node21</title>
<g id="a_node21"><a xlink:title=" ">
<polygon fill="white" stroke="#bfbfbf" points="1045.5,-62 1045.5,-81 1095.5,-81 1095.5,-62 1045.5,-62"/>
<text text-anchor="middle" x="1070.5" y="-69" font-family="Helvetica,sans-Serif" font-size="10.00">cstring</text>
</a>
</g>
</g>
<!-- Node17&#45;&gt;Node21 -->
<g id="edge24" class="edge">
<title>Node17&#45;&gt;Node21</title>
<path fill="none" stroke="midnightblue" d="M1191.3,-123.48C1167.43,-113.4 1127.5,-96.55 1100.13,-85"/>
<polygon fill="midnightblue" stroke="midnightblue" points="1101.24,-81.67 1090.66,-81.01 1098.52,-88.12 1101.24,-81.67"/>
</g>
<!-- Node17&#45;&gt;Node22 -->
<g id="edge26" class="edge">
<title>Node17&#45;&gt;Node22</title>
<path fill="none" stroke="midnightblue" d="M1243.11,-123.48C1275.1,-114.74 1325.92,-100.54 1369.5,-87 1372.25,-86.15 1375.09,-85.24 1377.94,-84.31"/>
<polygon fill="midnightblue" stroke="midnightblue" points="1379.16,-87.6 1387.55,-81.14 1376.96,-80.95 1379.16,-87.6"/>
</g>
</g>
</svg>
