<?xml version="1.0" encoding="UTF-8" standalone="no"?>
<!DOCTYPE svg PUBLIC "-//W3C//DTD SVG 1.1//EN"
 "http://www.w3.org/Graphics/SVG/1.1/DTD/svg11.dtd">
<!-- Generated by graphviz version 2.43.0 (0)
 -->
<!-- Title: include/tvm/ir/unique_name_supply.h Pages: 1 -->
<svg width="1717pt" height="274pt"
 viewBox="0.00 0.00 1716.50 274.00" xmlns="http://www.w3.org/2000/svg" xmlns:xlink="http://www.w3.org/1999/xlink">
<g id="graph0" class="graph" transform="scale(1 1) rotate(0) translate(4 270)">
<title>include/tvm/ir/unique_name_supply.h</title>
<polygon fill="white" stroke="transparent" points="-4,4 -4,-270 1712.5,-270 1712.5,4 -4,4"/>
<!-- Node1 -->
<g id="node1" class="node">
<title>Node1</title>
<g id="a_node1"><a xlink:title="UniqueNameSupply that can be used to generate unique variable names.">
<polygon fill="#bfbfbf" stroke="black" points="1475.5,-235.5 1475.5,-265.5 1595.5,-265.5 1595.5,-235.5 1475.5,-235.5"/>
<text text-anchor="start" x="1483.5" y="-253.5" font-family="Helvetica,sans-Serif" font-size="10.00">include/tvm/ir/unique</text>
<text text-anchor="middle" x="1535.5" y="-242.5" font-family="Helvetica,sans-Serif" font-size="10.00">_name_supply.h</text>
</a>
</g>
</g>
<!-- Node2 -->
<g id="node2" class="node">
<title>Node2</title>
<g id="a_node2"><a xlink:title=" ">
<polygon fill="white" stroke="#bfbfbf" points="1610.5,-56.5 1610.5,-86.5 1708.5,-86.5 1708.5,-56.5 1610.5,-56.5"/>
<text text-anchor="start" x="1618.5" y="-74.5" font-family="Helvetica,sans-Serif" font-size="10.00">tvm/ffi/reflection</text>
<text text-anchor="middle" x="1659.5" y="-63.5" font-family="Helvetica,sans-Serif" font-size="10.00">/registry.h</text>
</a>
</g>
</g>
<!-- Node1&#45;&gt;Node2 -->
<g id="edge1" class="edge">
<title>Node1&#45;&gt;Node2</title>
<path fill="none" stroke="midnightblue" d="M1545.44,-235.31C1566.84,-204.76 1617.46,-132.51 1643.47,-95.39"/>
<polygon fill="midnightblue" stroke="midnightblue" points="1646.64,-96.95 1649.51,-86.75 1640.91,-92.93 1646.64,-96.95"/>
</g>
<!-- Node3 -->
<g id="node3" class="node">
<title>Node3</title>
<g id="a_node3"><a xlink:href="ir_2expr_8h.html" target="_top" xlink:title="Base expr nodes in TVM.">
<polygon fill="white" stroke="black" points="861,-179.5 861,-198.5 940,-198.5 940,-179.5 861,-179.5"/>
<text text-anchor="middle" x="900.5" y="-186.5" font-family="Helvetica,sans-Serif" font-size="10.00">tvm/ir/expr.h</text>
</a>
</g>
</g>
<!-- Node1&#45;&gt;Node3 -->
<g id="edge2" class="edge">
<title>Node1&#45;&gt;Node3</title>
<path fill="none" stroke="midnightblue" d="M1475.47,-243.88C1350.78,-232.19 1065.74,-205.48 950.36,-194.67"/>
<polygon fill="midnightblue" stroke="midnightblue" points="950.67,-191.19 940.39,-193.74 950.02,-198.16 950.67,-191.19"/>
</g>
<!-- Node13 -->
<g id="node13" class="node">
<title>Node13</title>
<g id="a_node13"><a xlink:title=" ">
<polygon fill="white" stroke="#bfbfbf" points="1547,-62 1547,-81 1592,-81 1592,-62 1547,-62"/>
<text text-anchor="middle" x="1569.5" y="-69" font-family="Helvetica,sans-Serif" font-size="10.00">utility</text>
</a>
</g>
</g>
<!-- Node1&#45;&gt;Node13 -->
<g id="edge42" class="edge">
<title>Node1&#45;&gt;Node13</title>
<path fill="none" stroke="midnightblue" d="M1538.13,-235.45C1542.5,-212.1 1551.59,-163.82 1559.5,-123 1561.55,-112.41 1563.9,-100.57 1565.8,-91.02"/>
<polygon fill="midnightblue" stroke="midnightblue" points="1569.26,-91.57 1567.78,-81.07 1562.39,-90.2 1569.26,-91.57"/>
</g>
<!-- Node21 -->
<g id="node21" class="node">
<title>Node21</title>
<g id="a_node21"><a xlink:title=" ">
<polygon fill="white" stroke="#bfbfbf" points="313.5,-62 313.5,-81 357.5,-81 357.5,-62 313.5,-62"/>
<text text-anchor="middle" x="335.5" y="-69" font-family="Helvetica,sans-Serif" font-size="10.00">string</text>
</a>
</g>
</g>
<!-- Node1&#45;&gt;Node21 -->
<g id="edge41" class="edge">
<title>Node1&#45;&gt;Node21</title>
<path fill="none" stroke="midnightblue" d="M1475.18,-248.66C1243.51,-244.82 419.86,-225.44 340.5,-143 327.5,-129.5 328.24,-107.01 330.94,-91.06"/>
<polygon fill="midnightblue" stroke="midnightblue" points="334.37,-91.77 332.98,-81.26 327.52,-90.34 334.37,-91.77"/>
</g>
<!-- Node30 -->
<g id="node30" class="node">
<title>Node30</title>
<g id="a_node30"><a xlink:title=" ">
<polygon fill="white" stroke="#bfbfbf" points="1601.5,-179.5 1601.5,-198.5 1651.5,-198.5 1651.5,-179.5 1601.5,-179.5"/>
<text text-anchor="middle" x="1626.5" y="-186.5" font-family="Helvetica,sans-Serif" font-size="10.00">cstdint</text>
</a>
</g>
</g>
<!-- Node1&#45;&gt;Node30 -->
<g id="edge40" class="edge">
<title>Node1&#45;&gt;Node30</title>
<path fill="none" stroke="midnightblue" d="M1557.07,-235.4C1571.38,-226.04 1590.11,-213.79 1604.51,-204.38"/>
<polygon fill="midnightblue" stroke="midnightblue" points="1606.8,-207.06 1613.26,-198.66 1602.97,-201.2 1606.8,-207.06"/>
</g>
<!-- Node3&#45;&gt;Node2 -->
<g id="edge4" class="edge">
<title>Node3&#45;&gt;Node2</title>
<path fill="none" stroke="midnightblue" d="M940.17,-186.23C1022.04,-182.15 1215.45,-170.26 1375.5,-143 1455.11,-129.44 1545.35,-105.54 1602.33,-89.37"/>
<polygon fill="midnightblue" stroke="midnightblue" points="1603.57,-92.65 1612.22,-86.54 1601.64,-85.92 1603.57,-92.65"/>
</g>
<!-- Node4 -->
<g id="node4" class="node">
<title>Node4</title>
<g id="a_node4"><a xlink:title=" ">
<polygon fill="white" stroke="#bfbfbf" points="736.5,-123.5 736.5,-142.5 872.5,-142.5 872.5,-123.5 736.5,-123.5"/>
<text text-anchor="middle" x="804.5" y="-130.5" font-family="Helvetica,sans-Serif" font-size="10.00">tvm/ffi/extra/dataclass.h</text>
</a>
</g>
</g>
<!-- Node3&#45;&gt;Node4 -->
<g id="edge3" class="edge">
<title>Node3&#45;&gt;Node4</title>
<path fill="none" stroke="midnightblue" d="M885.08,-179.32C869.96,-170.82 846.68,-157.73 829.03,-147.8"/>
<polygon fill="midnightblue" stroke="midnightblue" points="830.32,-144.51 819.89,-142.65 826.89,-150.61 830.32,-144.51"/>
</g>
<!-- Node5 -->
<g id="node5" class="node">
<title>Node5</title>
<g id="a_node5"><a xlink:title=" ">
<polygon fill="white" stroke="#bfbfbf" points="1025,-123.5 1025,-142.5 1114,-142.5 1114,-123.5 1025,-123.5"/>
<text text-anchor="middle" x="1069.5" y="-130.5" font-family="Helvetica,sans-Serif" font-size="10.00">tvm/ffi/string.h</text>
</a>
</g>
</g>
<!-- Node3&#45;&gt;Node5 -->
<g id="edge5" class="edge">
<title>Node3&#45;&gt;Node5</title>
<path fill="none" stroke="midnightblue" d="M927.28,-179.44C955.83,-170.32 1001.23,-155.81 1033.04,-145.65"/>
<polygon fill="midnightblue" stroke="midnightblue" points="1034.39,-148.89 1042.85,-142.52 1032.26,-142.23 1034.39,-148.89"/>
</g>
<!-- Node6 -->
<g id="node6" class="node">
<title>Node6</title>
<g id="a_node6"><a xlink:href="cast_8h.html" target="_top" xlink:title="Value casting helpers.">
<polygon fill="white" stroke="black" points="928.5,-123.5 928.5,-142.5 1006.5,-142.5 1006.5,-123.5 928.5,-123.5"/>
<text text-anchor="middle" x="967.5" y="-130.5" font-family="Helvetica,sans-Serif" font-size="10.00">tvm/ir/cast.h</text>
</a>
</g>
</g>
<!-- Node3&#45;&gt;Node6 -->
<g id="edge6" class="edge">
<title>Node3&#45;&gt;Node6</title>
<path fill="none" stroke="midnightblue" d="M911.26,-179.32C921.27,-171.26 936.39,-159.08 948.43,-149.37"/>
<polygon fill="midnightblue" stroke="midnightblue" points="950.95,-151.83 956.54,-142.83 946.56,-146.38 950.95,-151.83"/>
</g>
<!-- Node14 -->
<g id="node14" class="node">
<title>Node14</title>
<g id="a_node14"><a xlink:href="cow_8h.html" target="_top" xlink:title="Copy&#45;on&#45;write helper macro for IR ffi::ObjectRef types.">
<polygon fill="white" stroke="black" points="1289,-123.5 1289,-142.5 1366,-142.5 1366,-123.5 1289,-123.5"/>
<text text-anchor="middle" x="1327.5" y="-130.5" font-family="Helvetica,sans-Serif" font-size="10.00">tvm/ir/cow.h</text>
</a>
</g>
</g>
<!-- Node3&#45;&gt;Node14 -->
<g id="edge14" class="edge">
<title>Node3&#45;&gt;Node14</title>
<path fill="none" stroke="midnightblue" d="M940.01,-184.26C1007.45,-177.67 1149.31,-162.93 1278.72,-143.19"/>
<polygon fill="midnightblue" stroke="midnightblue" points="1279.46,-146.62 1288.81,-141.64 1278.39,-139.7 1279.46,-146.62"/>
</g>
<!-- Node15 -->
<g id="node15" class="node">
<title>Node15</title>
<g id="a_node15"><a xlink:href="source__map_8h.html" target="_top" xlink:title="A map from source names to source code.">
<polygon fill="white" stroke="black" points="1154,-123.5 1154,-142.5 1271,-142.5 1271,-123.5 1154,-123.5"/>
<text text-anchor="middle" x="1212.5" y="-130.5" font-family="Helvetica,sans-Serif" font-size="10.00">tvm/ir/source_map.h</text>
</a>
</g>
</g>
<!-- Node3&#45;&gt;Node15 -->
<g id="edge17" class="edge">
<title>Node3&#45;&gt;Node15</title>
<path fill="none" stroke="midnightblue" d="M940.02,-181.16C993.84,-171.85 1090.63,-155.09 1153.19,-144.27"/>
<polygon fill="midnightblue" stroke="midnightblue" points="1154.05,-147.67 1163.3,-142.51 1152.85,-140.77 1154.05,-147.67"/>
</g>
<!-- Node3&#45;&gt;Node21 -->
<g id="edge38" class="edge">
<title>Node3&#45;&gt;Node21</title>
<path fill="none" stroke="midnightblue" d="M900.83,-179.16C900.84,-164.82 898.53,-136.72 881.5,-123 792.33,-51.17 478.51,-115.07 367.5,-87 365.29,-86.44 363.04,-85.74 360.82,-84.94"/>
<polygon fill="midnightblue" stroke="midnightblue" points="361.95,-81.62 351.37,-81.03 359.28,-88.09 361.95,-81.62"/>
</g>
<!-- Node23 -->
<g id="node23" class="node">
<title>Node23</title>
<g id="a_node23"><a xlink:href="data__type_8h.html" target="_top" xlink:title=" ">
<polygon fill="white" stroke="black" points="349.5,-123.5 349.5,-142.5 487.5,-142.5 487.5,-123.5 349.5,-123.5"/>
<text text-anchor="middle" x="418.5" y="-130.5" font-family="Helvetica,sans-Serif" font-size="10.00">tvm/runtime/data_type.h</text>
</a>
</g>
</g>
<!-- Node3&#45;&gt;Node23 -->
<g id="edge27" class="edge">
<title>Node3&#45;&gt;Node23</title>
<path fill="none" stroke="midnightblue" d="M860.65,-183.54C781.3,-174.65 602.26,-154.59 497.98,-142.9"/>
<polygon fill="midnightblue" stroke="midnightblue" points="498.14,-139.4 487.82,-141.77 497.36,-146.36 498.14,-139.4"/>
</g>
<!-- Node26 -->
<g id="node26" class="node">
<title>Node26</title>
<g id="a_node26"><a xlink:title=" ">
<polygon fill="white" stroke="#bfbfbf" points="0,-62 0,-81 69,-81 69,-62 0,-62"/>
<text text-anchor="middle" x="34.5" y="-69" font-family="Helvetica,sans-Serif" font-size="10.00">type_traits</text>
</a>
</g>
</g>
<!-- Node3&#45;&gt;Node26 -->
<g id="edge39" class="edge">
<title>Node3&#45;&gt;Node26</title>
<path fill="none" stroke="midnightblue" d="M860.92,-186.59C769.07,-182.94 534.48,-171.4 340.5,-143 222.68,-125.75 193.44,-118.12 78.5,-87 75.32,-86.14 72.02,-85.18 68.74,-84.18"/>
<polygon fill="midnightblue" stroke="midnightblue" points="69.62,-80.79 59.03,-81.1 67.5,-87.46 69.62,-80.79"/>
</g>
<!-- Node27 -->
<g id="node27" class="node">
<title>Node27</title>
<g id="a_node27"><a xlink:title=" ">
<polygon fill="white" stroke="#bfbfbf" points="508.5,-123.5 508.5,-142.5 572.5,-142.5 572.5,-123.5 508.5,-123.5"/>
<text text-anchor="middle" x="540.5" y="-130.5" font-family="Helvetica,sans-Serif" font-size="10.00">algorithm</text>
</a>
</g>
</g>
<!-- Node3&#45;&gt;Node27 -->
<g id="edge35" class="edge">
<title>Node3&#45;&gt;Node27</title>
<path fill="none" stroke="midnightblue" d="M860.95,-183.31C800.67,-175.97 682.28,-160.73 582.5,-143 582.4,-142.98 582.3,-142.96 582.2,-142.95"/>
<polygon fill="midnightblue" stroke="midnightblue" points="583.04,-139.54 572.56,-141.11 581.73,-146.42 583.04,-139.54"/>
</g>
<!-- Node28 -->
<g id="node28" class="node">
<title>Node28</title>
<g id="a_node28"><a xlink:title=" ">
<polygon fill="white" stroke="#bfbfbf" points="591,-123.5 591,-142.5 656,-142.5 656,-123.5 591,-123.5"/>
<text text-anchor="middle" x="623.5" y="-130.5" font-family="Helvetica,sans-Serif" font-size="10.00">functional</text>
</a>
</g>
</g>
<!-- Node3&#45;&gt;Node28 -->
<g id="edge36" class="edge">
<title>Node3&#45;&gt;Node28</title>
<path fill="none" stroke="midnightblue" d="M860.95,-180.7C816.21,-172.38 740.92,-158.2 666.11,-143.09"/>
<polygon fill="midnightblue" stroke="midnightblue" points="666.54,-139.6 656.04,-141.05 665.15,-146.46 666.54,-139.6"/>
</g>
<!-- Node29 -->
<g id="node29" class="node">
<title>Node29</title>
<g id="a_node29"><a xlink:title=" ">
<polygon fill="white" stroke="#bfbfbf" points="674.5,-123.5 674.5,-142.5 718.5,-142.5 718.5,-123.5 674.5,-123.5"/>
<text text-anchor="middle" x="696.5" y="-130.5" font-family="Helvetica,sans-Serif" font-size="10.00">limits</text>
</a>
</g>
</g>
<!-- Node3&#45;&gt;Node29 -->
<g id="edge37" class="edge">
<title>Node3&#45;&gt;Node29</title>
<path fill="none" stroke="midnightblue" d="M866.61,-179.48C833.66,-171.14 781.95,-157.87 728.48,-143.22"/>
<polygon fill="midnightblue" stroke="midnightblue" points="729.4,-139.84 718.83,-140.56 727.54,-146.59 729.4,-139.84"/>
</g>
<!-- Node7 -->
<g id="node7" class="node">
<title>Node7</title>
<g id="a_node7"><a xlink:title=" ">
<polygon fill="white" stroke="#bfbfbf" points="584,-62 584,-81 661,-81 661,-62 584,-62"/>
<text text-anchor="middle" x="622.5" y="-69" font-family="Helvetica,sans-Serif" font-size="10.00">tvm/ffi/any.h</text>
</a>
</g>
</g>
<!-- Node6&#45;&gt;Node7 -->
<g id="edge7" class="edge">
<title>Node6&#45;&gt;Node7</title>
<path fill="none" stroke="midnightblue" d="M928.44,-125.27C923.75,-124.49 919.02,-123.72 914.5,-123 806.24,-105.82 777.48,-110.91 670.5,-87 666.39,-86.08 662.12,-84.99 657.9,-83.83"/>
<polygon fill="midnightblue" stroke="midnightblue" points="658.8,-80.45 648.22,-81.03 656.86,-87.17 658.8,-80.45"/>
</g>
<!-- Node8 -->
<g id="node8" class="node">
<title>Node8</title>
<g id="a_node8"><a xlink:title=" ">
<polygon fill="white" stroke="#bfbfbf" points="929,-62 929,-81 1010,-81 1010,-62 929,-62"/>
<text text-anchor="middle" x="969.5" y="-69" font-family="Helvetica,sans-Serif" font-size="10.00">tvm/ffi/cast.h</text>
</a>
</g>
</g>
<!-- Node6&#45;&gt;Node8 -->
<g id="edge8" class="edge">
<title>Node6&#45;&gt;Node8</title>
<path fill="none" stroke="midnightblue" d="M967.79,-123.48C968.07,-115.08 968.51,-101.98 968.87,-91.16"/>
<polygon fill="midnightblue" stroke="midnightblue" points="972.38,-91.12 969.21,-81.01 965.38,-90.89 972.38,-91.12"/>
</g>
<!-- Node9 -->
<g id="node9" class="node">
<title>Node9</title>
<g id="a_node9"><a xlink:title=" ">
<polygon fill="white" stroke="#bfbfbf" points="477,-62 477,-81 566,-81 566,-62 477,-62"/>
<text text-anchor="middle" x="521.5" y="-69" font-family="Helvetica,sans-Serif" font-size="10.00">tvm/ffi/dtype.h</text>
</a>
</g>
</g>
<!-- Node6&#45;&gt;Node9 -->
<g id="edge9" class="edge">
<title>Node6&#45;&gt;Node9</title>
<path fill="none" stroke="midnightblue" d="M928.47,-125.09C923.77,-124.34 919.03,-123.62 914.5,-123 764.41,-102.31 724.45,-114.73 575.5,-87 570.38,-86.05 565.04,-84.86 559.79,-83.57"/>
<polygon fill="midnightblue" stroke="midnightblue" points="560.45,-80.13 549.89,-81.02 558.7,-86.91 560.45,-80.13"/>
</g>
<!-- Node10 -->
<g id="node10" class="node">
<title>Node10</title>
<g id="a_node10"><a xlink:title=" ">
<polygon fill="white" stroke="#bfbfbf" points="376,-62 376,-81 459,-81 459,-62 376,-62"/>
<text text-anchor="middle" x="417.5" y="-69" font-family="Helvetica,sans-Serif" font-size="10.00">tvm/ffi/error.h</text>
</a>
</g>
</g>
<!-- Node6&#45;&gt;Node10 -->
<g id="edge10" class="edge">
<title>Node6&#45;&gt;Node10</title>
<path fill="none" stroke="midnightblue" d="M928.48,-124.98C923.78,-124.25 919.04,-123.57 914.5,-123 717.17,-98.33 664.2,-122.36 468.5,-87 463.66,-86.13 458.62,-84.98 453.67,-83.73"/>
<polygon fill="midnightblue" stroke="midnightblue" points="454.31,-80.27 443.74,-81.03 452.47,-87.03 454.31,-80.27"/>
</g>
<!-- Node11 -->
<g id="node11" class="node">
<title>Node11</title>
<g id="a_node11"><a xlink:title=" ">
<polygon fill="white" stroke="#bfbfbf" points="1101,-62 1101,-81 1192,-81 1192,-62 1101,-62"/>
<text text-anchor="middle" x="1146.5" y="-69" font-family="Helvetica,sans-Serif" font-size="10.00">tvm/ffi/object.h</text>
</a>
</g>
</g>
<!-- Node6&#45;&gt;Node11 -->
<g id="edge11" class="edge">
<title>Node6&#45;&gt;Node11</title>
<path fill="none" stroke="midnightblue" d="M993.15,-123.48C1024.12,-113.18 1076.37,-95.81 1111.15,-84.25"/>
<polygon fill="midnightblue" stroke="midnightblue" points="1112.52,-87.48 1120.9,-81.01 1110.31,-80.84 1112.52,-87.48"/>
</g>
<!-- Node12 -->
<g id="node12" class="node">
<title>Node12</title>
<g id="a_node12"><a xlink:title=" ">
<polygon fill="white" stroke="#bfbfbf" points="810,-62 810,-81 911,-81 911,-62 810,-62"/>
<text text-anchor="middle" x="860.5" y="-69" font-family="Helvetica,sans-Serif" font-size="10.00">tvm/ffi/optional.h</text>
</a>
</g>
</g>
<!-- Node6&#45;&gt;Node12 -->
<g id="edge12" class="edge">
<title>Node6&#45;&gt;Node12</title>
<path fill="none" stroke="midnightblue" d="M952.17,-123.48C934.53,-113.67 905.34,-97.43 884.64,-85.92"/>
<polygon fill="midnightblue" stroke="midnightblue" points="886.24,-82.81 875.8,-81.01 882.84,-88.93 886.24,-82.81"/>
</g>
<!-- Node6&#45;&gt;Node13 -->
<g id="edge13" class="edge">
<title>Node6&#45;&gt;Node13</title>
<path fill="none" stroke="midnightblue" d="M1006.75,-124.39C1010.04,-123.87 1013.32,-123.4 1016.5,-123 1247.23,-93.95 1313.36,-145.25 1538.5,-87 1540.48,-86.49 1542.5,-85.85 1544.49,-85.13"/>
<polygon fill="midnightblue" stroke="midnightblue" points="1546.3,-88.16 1554.15,-81.04 1543.58,-81.72 1546.3,-88.16"/>
</g>
<!-- Node14&#45;&gt;Node11 -->
<g id="edge15" class="edge">
<title>Node14&#45;&gt;Node11</title>
<path fill="none" stroke="midnightblue" d="M1301.57,-123.48C1270.25,-113.18 1217.41,-95.81 1182.24,-84.25"/>
<polygon fill="midnightblue" stroke="midnightblue" points="1182.98,-80.81 1172.38,-81.01 1180.79,-87.46 1182.98,-80.81"/>
</g>
<!-- Node14&#45;&gt;Node13 -->
<g id="edge16" class="edge">
<title>Node14&#45;&gt;Node13</title>
<path fill="none" stroke="midnightblue" d="M1366.32,-126.44C1409.19,-119.67 1479.91,-106.66 1538.5,-87 1540.17,-86.44 1541.86,-85.82 1543.55,-85.15"/>
<polygon fill="midnightblue" stroke="midnightblue" points="1545.27,-88.22 1553.05,-81.04 1542.49,-81.8 1545.27,-88.22"/>
</g>
<!-- Node15&#45;&gt;Node2 -->
<g id="edge20" class="edge">
<title>Node15&#45;&gt;Node2</title>
<path fill="none" stroke="midnightblue" d="M1271.1,-124.17C1274.28,-123.77 1277.43,-123.38 1280.5,-123 1419.8,-105.97 1458.49,-112.17 1600.3,-87.07"/>
<polygon fill="midnightblue" stroke="midnightblue" points="1601.01,-90.5 1610.24,-85.29 1599.78,-83.61 1601.01,-90.5"/>
</g>
<!-- Node15&#45;&gt;Node13 -->
<g id="edge25" class="edge">
<title>Node15&#45;&gt;Node13</title>
<path fill="none" stroke="midnightblue" d="M1271.24,-124.12C1363.38,-111.72 1532.14,-88.88 1538.5,-87 1540.38,-86.44 1542.29,-85.79 1544.19,-85.07"/>
<polygon fill="midnightblue" stroke="midnightblue" points="1545.63,-88.27 1553.45,-81.12 1542.88,-81.83 1545.63,-88.27"/>
</g>
<!-- Node16 -->
<g id="node16" class="node">
<title>Node16</title>
<g id="a_node16"><a xlink:title=" ">
<polygon fill="white" stroke="#bfbfbf" points="1275.5,-62 1275.5,-81 1409.5,-81 1409.5,-62 1275.5,-62"/>
<text text-anchor="middle" x="1342.5" y="-69" font-family="Helvetica,sans-Serif" font-size="10.00">tvm/ffi/container/array.h</text>
</a>
</g>
</g>
<!-- Node15&#45;&gt;Node16 -->
<g id="edge18" class="edge">
<title>Node15&#45;&gt;Node16</title>
<path fill="none" stroke="midnightblue" d="M1231.13,-123.48C1252.94,-113.49 1289.3,-96.85 1314.52,-85.31"/>
<polygon fill="midnightblue" stroke="midnightblue" points="1316.27,-88.35 1323.91,-81.01 1313.36,-81.99 1316.27,-88.35"/>
</g>
<!-- Node17 -->
<g id="node17" class="node">
<title>Node17</title>
<g id="a_node17"><a xlink:title=" ">
<polygon fill="white" stroke="#bfbfbf" points="1428,-62 1428,-81 1529,-81 1529,-62 1428,-62"/>
<text text-anchor="middle" x="1478.5" y="-69" font-family="Helvetica,sans-Serif" font-size="10.00">tvm/ffi/function.h</text>
</a>
</g>
</g>
<!-- Node15&#45;&gt;Node17 -->
<g id="edge19" class="edge">
<title>Node15&#45;&gt;Node17</title>
<path fill="none" stroke="midnightblue" d="M1252.82,-123.47C1294.39,-114.6 1361.06,-100.21 1418.5,-87 1423.46,-85.86 1428.65,-84.64 1433.81,-83.41"/>
<polygon fill="midnightblue" stroke="midnightblue" points="1434.72,-86.8 1443.63,-81.06 1433.09,-79.99 1434.72,-86.8"/>
</g>
<!-- Node18 -->
<g id="node18" class="node">
<title>Node18</title>
<g id="a_node18"><a xlink:href="runtime_2base_8h.html" target="_top" xlink:title=" ">
<polygon fill="white" stroke="black" points="679,-62 679,-81 792,-81 792,-62 679,-62"/>
<text text-anchor="middle" x="735.5" y="-69" font-family="Helvetica,sans-Serif" font-size="10.00">tvm/runtime/base.h</text>
</a>
</g>
</g>
<!-- Node15&#45;&gt;Node18 -->
<g id="edge21" class="edge">
<title>Node15&#45;&gt;Node18</title>
<path fill="none" stroke="midnightblue" d="M1153.83,-125.93C1048.57,-114.99 835.41,-92.57 801.5,-87 794.81,-85.9 787.78,-84.56 780.9,-83.14"/>
<polygon fill="midnightblue" stroke="midnightblue" points="781.5,-79.69 770.99,-81.03 780.04,-86.54 781.5,-79.69"/>
</g>
<!-- Node20 -->
<g id="node20" class="node">
<title>Node20</title>
<g id="a_node20"><a xlink:title=" ">
<polygon fill="white" stroke="#bfbfbf" points="1028,-62 1028,-81 1083,-81 1083,-62 1028,-62"/>
<text text-anchor="middle" x="1055.5" y="-69" font-family="Helvetica,sans-Serif" font-size="10.00">fstream</text>
</a>
</g>
</g>
<!-- Node15&#45;&gt;Node20 -->
<g id="edge23" class="edge">
<title>Node15&#45;&gt;Node20</title>
<path fill="none" stroke="midnightblue" d="M1189.46,-123.47C1165.27,-114.5 1126.16,-99.9 1092.5,-87 1090.66,-86.3 1088.78,-85.57 1086.88,-84.83"/>
<polygon fill="midnightblue" stroke="midnightblue" points="1087.98,-81.51 1077.39,-81.14 1085.44,-88.03 1087.98,-81.51"/>
</g>
<!-- Node15&#45;&gt;Node21 -->
<g id="edge24" class="edge">
<title>Node15&#45;&gt;Node21</title>
<path fill="none" stroke="midnightblue" d="M1153.65,-125.6C1143.6,-124.64 1133.26,-123.73 1123.5,-123 955.77,-110.53 531.01,-126.41 367.5,-87 365.28,-86.47 363.03,-85.78 360.8,-84.99"/>
<polygon fill="midnightblue" stroke="midnightblue" points="361.94,-81.68 351.36,-81.11 359.27,-88.15 361.94,-81.68"/>
</g>
<!-- Node22 -->
<g id="node22" class="node">
<title>Node22</title>
<g id="a_node22"><a xlink:title=" ">
<polygon fill="white" stroke="#bfbfbf" points="1210,-62 1210,-81 1257,-81 1257,-62 1210,-62"/>
<text text-anchor="middle" x="1233.5" y="-69" font-family="Helvetica,sans-Serif" font-size="10.00">vector</text>
</a>
</g>
</g>
<!-- Node15&#45;&gt;Node22 -->
<g id="edge26" class="edge">
<title>Node15&#45;&gt;Node22</title>
<path fill="none" stroke="midnightblue" d="M1215.51,-123.48C1218.53,-114.9 1223.29,-101.43 1227.15,-90.48"/>
<polygon fill="midnightblue" stroke="midnightblue" points="1230.47,-91.6 1230.5,-81.01 1223.87,-89.27 1230.47,-91.6"/>
</g>
<!-- Node19 -->
<g id="node19" class="node">
<title>Node19</title>
<g id="a_node19"><a xlink:title=" ">
<polygon fill="white" stroke="#bfbfbf" points="692.5,-0.5 692.5,-19.5 778.5,-19.5 778.5,-0.5 692.5,-0.5"/>
<text text-anchor="middle" x="735.5" y="-7.5" font-family="Helvetica,sans-Serif" font-size="10.00">tvm/ffi/c_api.h</text>
</a>
</g>
</g>
<!-- Node18&#45;&gt;Node19 -->
<g id="edge22" class="edge">
<title>Node18&#45;&gt;Node19</title>
<path fill="none" stroke="midnightblue" d="M735.5,-61.98C735.5,-53.58 735.5,-40.48 735.5,-29.66"/>
<polygon fill="midnightblue" stroke="midnightblue" points="739,-29.51 735.5,-19.51 732,-29.51 739,-29.51"/>
</g>
<!-- Node23&#45;&gt;Node9 -->
<g id="edge29" class="edge">
<title>Node23&#45;&gt;Node9</title>
<path fill="none" stroke="midnightblue" d="M433.26,-123.48C450.16,-113.71 478.08,-97.58 497.99,-86.08"/>
<polygon fill="midnightblue" stroke="midnightblue" points="499.86,-89.04 506.77,-81.01 496.36,-82.98 499.86,-89.04"/>
</g>
<!-- Node23&#45;&gt;Node10 -->
<g id="edge30" class="edge">
<title>Node23&#45;&gt;Node10</title>
<path fill="none" stroke="midnightblue" d="M418.36,-123.48C418.22,-115.08 418,-101.98 417.81,-91.16"/>
<polygon fill="midnightblue" stroke="midnightblue" points="421.31,-90.95 417.64,-81.01 414.31,-91.07 421.31,-90.95"/>
</g>
<!-- Node23&#45;&gt;Node18 -->
<g id="edge31" class="edge">
<title>Node23&#45;&gt;Node18</title>
<path fill="none" stroke="midnightblue" d="M470.26,-123.42C521.29,-114.81 601.44,-100.86 670.5,-87 676.31,-85.83 682.4,-84.55 688.42,-83.25"/>
<polygon fill="midnightblue" stroke="midnightblue" points="689.42,-86.62 698.43,-81.06 687.92,-79.78 689.42,-86.62"/>
</g>
<!-- Node23&#45;&gt;Node21 -->
<g id="edge33" class="edge">
<title>Node23&#45;&gt;Node21</title>
<path fill="none" stroke="midnightblue" d="M406.61,-123.48C393.3,-113.93 371.5,-98.31 355.54,-86.87"/>
<polygon fill="midnightblue" stroke="midnightblue" points="357.54,-83.99 347.37,-81.01 353.46,-89.68 357.54,-83.99"/>
</g>
<!-- Node24 -->
<g id="node24" class="node">
<title>Node24</title>
<g id="a_node24"><a xlink:title=" ">
<polygon fill="white" stroke="#bfbfbf" points="156,-62 156,-81 295,-81 295,-62 156,-62"/>
<text text-anchor="middle" x="225.5" y="-69" font-family="Helvetica,sans-Serif" font-size="10.00">tvm/ffi/container/shape.h</text>
</a>
</g>
</g>
<!-- Node23&#45;&gt;Node24 -->
<g id="edge28" class="edge">
<title>Node23&#45;&gt;Node24</title>
<path fill="none" stroke="midnightblue" d="M390.85,-123.48C357.31,-113.14 300.63,-95.66 263.13,-84.1"/>
<polygon fill="midnightblue" stroke="midnightblue" points="263.69,-80.61 253.1,-81.01 261.63,-87.3 263.69,-80.61"/>
</g>
<!-- Node25 -->
<g id="node25" class="node">
<title>Node25</title>
<g id="a_node25"><a xlink:title=" ">
<polygon fill="white" stroke="#bfbfbf" points="87.5,-62 87.5,-81 137.5,-81 137.5,-62 87.5,-62"/>
<text text-anchor="middle" x="112.5" y="-69" font-family="Helvetica,sans-Serif" font-size="10.00">cstring</text>
</a>
</g>
</g>
<!-- Node23&#45;&gt;Node25 -->
<g id="edge32" class="edge">
<title>Node23&#45;&gt;Node25</title>
<path fill="none" stroke="midnightblue" d="M356.34,-123.48C288.62,-113.88 184.81,-98.16 146.5,-87 144.35,-86.37 142.15,-85.65 139.96,-84.86"/>
<polygon fill="midnightblue" stroke="midnightblue" points="141.14,-81.57 130.56,-81.15 138.57,-88.08 141.14,-81.57"/>
</g>
<!-- Node23&#45;&gt;Node26 -->
<g id="edge34" class="edge">
<title>Node23&#45;&gt;Node26</title>
<path fill="none" stroke="midnightblue" d="M349.19,-124.38C265.14,-114.86 128.49,-98.44 78.5,-87 75.02,-86.2 71.43,-85.25 67.87,-84.21"/>
<polygon fill="midnightblue" stroke="midnightblue" points="68.61,-80.78 58.02,-81.15 66.53,-87.46 68.61,-80.78"/>
</g>
</g>
</svg>
