<?xml version="1.0" encoding="UTF-8" standalone="no"?>
<!DOCTYPE svg PUBLIC "-//W3C//DTD SVG 1.1//EN"
 "http://www.w3.org/Graphics/SVG/1.1/DTD/svg11.dtd">
<!-- Generated by graphviz version 2.43.0 (0)
 -->
<!-- Title: include/tvm/ir/unique_name_supply.h Pages: 1 -->
<svg width="1717pt" height="330pt"
 viewBox="0.00 0.00 1716.50 330.00" xmlns="http://www.w3.org/2000/svg" xmlns:xlink="http://www.w3.org/1999/xlink">
<g id="graph0" class="graph" transform="scale(1 1) rotate(0) translate(4 326)">
<title>include/tvm/ir/unique_name_supply.h</title>
<polygon fill="white" stroke="transparent" points="-4,4 -4,-326 1712.5,-326 1712.5,4 -4,4"/>
<!-- Node1 -->
<g id="node1" class="node">
<title>Node1</title>
<g id="a_node1"><a xlink:title="UniqueNameSupply that can be used to generate unique variable names.">
<polygon fill="#bfbfbf" stroke="black" points="996,-291.5 996,-321.5 1116,-321.5 1116,-291.5 996,-291.5"/>
<text text-anchor="start" x="1004" y="-309.5" font-family="Helvetica,sans-Serif" font-size="10.00">include/tvm/ir/unique</text>
<text text-anchor="middle" x="1056" y="-298.5" font-family="Helvetica,sans-Serif" font-size="10.00">_name_supply.h</text>
</a>
</g>
</g>
<!-- Node2 -->
<g id="node2" class="node">
<title>Node2</title>
<g id="a_node2"><a xlink:title=" ">
<polygon fill="white" stroke="#bfbfbf" points="0,-56.5 0,-86.5 98,-86.5 98,-56.5 0,-56.5"/>
<text text-anchor="start" x="8" y="-74.5" font-family="Helvetica,sans-Serif" font-size="10.00">tvm/ffi/reflection</text>
<text text-anchor="middle" x="49" y="-63.5" font-family="Helvetica,sans-Serif" font-size="10.00">/registry.h</text>
</a>
</g>
</g>
<!-- Node1&#45;&gt;Node2 -->
<g id="edge1" class="edge">
<title>Node1&#45;&gt;Node2</title>
<path fill="none" stroke="midnightblue" d="M995.66,-302.8C864.66,-295.71 545.39,-271.79 289,-199 206.55,-175.59 120.06,-121.55 76.92,-92.25"/>
<polygon fill="midnightblue" stroke="midnightblue" points="78.87,-89.34 68.64,-86.56 74.9,-95.11 78.87,-89.34"/>
</g>
<!-- Node3 -->
<g id="node3" class="node">
<title>Node3</title>
<g id="a_node3"><a xlink:href="ir_2expr_8h.html" target="_top" xlink:title="Base expr nodes in TVM.">
<polygon fill="white" stroke="black" points="736.5,-235.5 736.5,-254.5 815.5,-254.5 815.5,-235.5 736.5,-235.5"/>
<text text-anchor="middle" x="776" y="-242.5" font-family="Helvetica,sans-Serif" font-size="10.00">tvm/ir/expr.h</text>
</a>
</g>
</g>
<!-- Node1&#45;&gt;Node3 -->
<g id="edge2" class="edge">
<title>Node1&#45;&gt;Node3</title>
<path fill="none" stroke="midnightblue" d="M995.93,-292.74C945.18,-281.95 873.36,-266.69 825.77,-256.58"/>
<polygon fill="midnightblue" stroke="midnightblue" points="826.21,-253.09 815.7,-254.44 824.76,-259.94 826.21,-253.09"/>
</g>
<!-- Node13 -->
<g id="node13" class="node">
<title>Node13</title>
<g id="a_node13"><a xlink:title=" ">
<polygon fill="white" stroke="#bfbfbf" points="1554.5,-62 1554.5,-81 1599.5,-81 1599.5,-62 1554.5,-62"/>
<text text-anchor="middle" x="1577" y="-69" font-family="Helvetica,sans-Serif" font-size="10.00">utility</text>
</a>
</g>
</g>
<!-- Node1&#45;&gt;Node13 -->
<g id="edge48" class="edge">
<title>Node1&#45;&gt;Node13</title>
<path fill="none" stroke="midnightblue" d="M1116.12,-296.47C1210.88,-279.81 1397.29,-236.98 1525,-143 1544.07,-128.97 1559.18,-105.93 1568.09,-90.03"/>
<polygon fill="midnightblue" stroke="midnightblue" points="1571.18,-91.66 1572.82,-81.19 1565.01,-88.36 1571.18,-91.66"/>
</g>
<!-- Node21 -->
<g id="node21" class="node">
<title>Node21</title>
<g id="a_node21"><a xlink:title=" ">
<polygon fill="white" stroke="#bfbfbf" points="658,-62 658,-81 702,-81 702,-62 658,-62"/>
<text text-anchor="middle" x="680" y="-69" font-family="Helvetica,sans-Serif" font-size="10.00">string</text>
</a>
</g>
</g>
<!-- Node1&#45;&gt;Node21 -->
<g id="edge47" class="edge">
<title>Node1&#45;&gt;Node21</title>
<path fill="none" stroke="midnightblue" d="M1058.63,-291.44C1062.62,-265.38 1066.86,-209.44 1037,-179 970.07,-110.78 914.78,-175.77 825,-143 808.53,-136.99 806.57,-131.05 791,-123 756.37,-105.09 746.44,-103.26 711,-87 709.85,-86.47 708.67,-85.93 707.48,-85.38"/>
<polygon fill="midnightblue" stroke="midnightblue" points="708.88,-82.17 698.34,-81.13 705.93,-88.52 708.88,-82.17"/>
</g>
<!-- Node31 -->
<g id="node31" class="node">
<title>Node31</title>
<g id="a_node31"><a xlink:title=" ">
<polygon fill="white" stroke="#bfbfbf" points="1572,-235.5 1572,-254.5 1622,-254.5 1622,-235.5 1572,-235.5"/>
<text text-anchor="middle" x="1597" y="-242.5" font-family="Helvetica,sans-Serif" font-size="10.00">cstdint</text>
</a>
</g>
</g>
<!-- Node1&#45;&gt;Node31 -->
<g id="edge46" class="edge">
<title>Node1&#45;&gt;Node31</title>
<path fill="none" stroke="midnightblue" d="M1116.21,-301.91C1210.76,-295.73 1399.63,-281.13 1558,-255 1559.27,-254.79 1560.57,-254.56 1561.87,-254.32"/>
<polygon fill="midnightblue" stroke="midnightblue" points="1562.82,-257.7 1571.92,-252.28 1561.42,-250.84 1562.82,-257.7"/>
</g>
<!-- Node3&#45;&gt;Node2 -->
<g id="edge4" class="edge">
<title>Node3&#45;&gt;Node2</title>
<path fill="none" stroke="midnightblue" d="M736.33,-243.16C661.13,-240.83 493.06,-232.03 356,-199 288.44,-182.72 274.29,-169.39 210,-143 168.51,-125.97 121.58,-105.25 89.15,-90.7"/>
<polygon fill="midnightblue" stroke="midnightblue" points="90.54,-87.49 79.98,-86.58 87.67,-93.87 90.54,-87.49"/>
</g>
<!-- Node4 -->
<g id="node4" class="node">
<title>Node4</title>
<g id="a_node4"><a xlink:title=" ">
<polygon fill="white" stroke="#bfbfbf" points="708,-179.5 708,-198.5 844,-198.5 844,-179.5 708,-179.5"/>
<text text-anchor="middle" x="776" y="-186.5" font-family="Helvetica,sans-Serif" font-size="10.00">tvm/ffi/extra/dataclass.h</text>
</a>
</g>
</g>
<!-- Node3&#45;&gt;Node4 -->
<g id="edge3" class="edge">
<title>Node3&#45;&gt;Node4</title>
<path fill="none" stroke="midnightblue" d="M776,-235.08C776,-228.01 776,-217.86 776,-208.99"/>
<polygon fill="midnightblue" stroke="midnightblue" points="779.5,-208.75 776,-198.75 772.5,-208.75 779.5,-208.75"/>
</g>
<!-- Node5 -->
<g id="node5" class="node">
<title>Node5</title>
<g id="a_node5"><a xlink:title=" ">
<polygon fill="white" stroke="#bfbfbf" points="938.5,-179.5 938.5,-198.5 1027.5,-198.5 1027.5,-179.5 938.5,-179.5"/>
<text text-anchor="middle" x="983" y="-186.5" font-family="Helvetica,sans-Serif" font-size="10.00">tvm/ffi/string.h</text>
</a>
</g>
</g>
<!-- Node3&#45;&gt;Node5 -->
<g id="edge5" class="edge">
<title>Node3&#45;&gt;Node5</title>
<path fill="none" stroke="midnightblue" d="M808.8,-235.44C844.38,-226.16 901.31,-211.31 940.35,-201.13"/>
<polygon fill="midnightblue" stroke="midnightblue" points="941.56,-204.43 950.35,-198.52 939.79,-197.65 941.56,-204.43"/>
</g>
<!-- Node6 -->
<g id="node6" class="node">
<title>Node6</title>
<g id="a_node6"><a xlink:href="cast_8h.html" target="_top" xlink:title="Value casting helpers.">
<polygon fill="white" stroke="black" points="1276,-123.5 1276,-142.5 1354,-142.5 1354,-123.5 1276,-123.5"/>
<text text-anchor="middle" x="1315" y="-130.5" font-family="Helvetica,sans-Serif" font-size="10.00">tvm/ir/cast.h</text>
</a>
</g>
</g>
<!-- Node3&#45;&gt;Node6 -->
<g id="edge6" class="edge">
<title>Node3&#45;&gt;Node6</title>
<path fill="none" stroke="midnightblue" d="M815.93,-237.87C867.26,-229.81 959.04,-214.82 1037,-199 1120.28,-182.1 1216.7,-158.68 1271.31,-145.06"/>
<polygon fill="midnightblue" stroke="midnightblue" points="1272.48,-148.37 1281.33,-142.55 1270.78,-141.58 1272.48,-148.37"/>
</g>
<!-- Node14 -->
<g id="node14" class="node">
<title>Node14</title>
<g id="a_node14"><a xlink:href="cow_8h.html" target="_top" xlink:title="Copy&#45;on&#45;write helper macro for IR ffi::ObjectRef types.">
<polygon fill="white" stroke="black" points="1438.5,-123.5 1438.5,-142.5 1515.5,-142.5 1515.5,-123.5 1438.5,-123.5"/>
<text text-anchor="middle" x="1477" y="-130.5" font-family="Helvetica,sans-Serif" font-size="10.00">tvm/ir/cow.h</text>
</a>
</g>
</g>
<!-- Node3&#45;&gt;Node14 -->
<g id="edge14" class="edge">
<title>Node3&#45;&gt;Node14</title>
<path fill="none" stroke="midnightblue" d="M815.59,-238.84C876.25,-230.85 995.8,-214.75 1097,-199 1216.29,-180.44 1356.14,-155.76 1428.34,-142.81"/>
<polygon fill="midnightblue" stroke="midnightblue" points="1429.27,-146.2 1438.5,-140.98 1428.03,-139.31 1429.27,-146.2"/>
</g>
<!-- Node15 -->
<g id="node15" class="node">
<title>Node15</title>
<g id="a_node15"><a xlink:href="source__map_8h.html" target="_top" xlink:title="A map from source names to source code.">
<polygon fill="white" stroke="black" points="295.5,-123.5 295.5,-142.5 412.5,-142.5 412.5,-123.5 295.5,-123.5"/>
<text text-anchor="middle" x="354" y="-130.5" font-family="Helvetica,sans-Serif" font-size="10.00">tvm/ir/source_map.h</text>
</a>
</g>
</g>
<!-- Node3&#45;&gt;Node15 -->
<g id="edge17" class="edge">
<title>Node3&#45;&gt;Node15</title>
<path fill="none" stroke="midnightblue" d="M736.27,-242.04C640.08,-236.96 400.49,-222.1 373,-199 359.66,-187.79 355.4,-167.77 354.17,-152.9"/>
<polygon fill="midnightblue" stroke="midnightblue" points="357.66,-152.6 353.73,-142.77 350.67,-152.91 357.66,-152.6"/>
</g>
<!-- Node3&#45;&gt;Node21 -->
<g id="edge44" class="edge">
<title>Node3&#45;&gt;Node21</title>
<path fill="none" stroke="midnightblue" d="M801.71,-235.48C829.41,-224.78 867.66,-204.67 853,-179 837.39,-151.66 818.88,-159.39 792,-143 760.45,-123.76 724.33,-100.87 701.84,-86.51"/>
<polygon fill="midnightblue" stroke="midnightblue" points="703.68,-83.53 693.37,-81.09 699.91,-89.43 703.68,-83.53"/>
</g>
<!-- Node23 -->
<g id="node23" class="node">
<title>Node23</title>
<g id="a_node23"><a xlink:href="ir_2type_8h.html" target="_top" xlink:title="IR/AST nodes for the unified type system in TVM.">
<polygon fill="white" stroke="black" points="382,-179.5 382,-198.5 462,-198.5 462,-179.5 382,-179.5"/>
<text text-anchor="middle" x="422" y="-186.5" font-family="Helvetica,sans-Serif" font-size="10.00">tvm/ir/type.h</text>
</a>
</g>
</g>
<!-- Node3&#45;&gt;Node23 -->
<g id="edge27" class="edge">
<title>Node3&#45;&gt;Node23</title>
<path fill="none" stroke="midnightblue" d="M736.45,-238.62C680.1,-230.85 573.22,-215.75 472.17,-199.15"/>
<polygon fill="midnightblue" stroke="midnightblue" points="472.53,-195.66 462.09,-197.48 471.39,-202.56 472.53,-195.66"/>
</g>
<!-- Node27 -->
<g id="node27" class="node">
<title>Node27</title>
<g id="a_node27"><a xlink:title=" ">
<polygon fill="white" stroke="#bfbfbf" points="946.5,-62 946.5,-81 1015.5,-81 1015.5,-62 946.5,-62"/>
<text text-anchor="middle" x="981" y="-69" font-family="Helvetica,sans-Serif" font-size="10.00">type_traits</text>
</a>
</g>
</g>
<!-- Node3&#45;&gt;Node27 -->
<g id="edge45" class="edge">
<title>Node3&#45;&gt;Node27</title>
<path fill="none" stroke="midnightblue" d="M796.25,-235.47C845.88,-214.39 970.31,-160.24 981,-143 990.66,-127.43 989.02,-105.97 986,-90.83"/>
<polygon fill="midnightblue" stroke="midnightblue" points="989.4,-90.02 983.69,-81.09 982.59,-91.63 989.4,-90.02"/>
</g>
<!-- Node28 -->
<g id="node28" class="node">
<title>Node28</title>
<g id="a_node28"><a xlink:title=" ">
<polygon fill="white" stroke="#bfbfbf" points="480,-179.5 480,-198.5 544,-198.5 544,-179.5 480,-179.5"/>
<text text-anchor="middle" x="512" y="-186.5" font-family="Helvetica,sans-Serif" font-size="10.00">algorithm</text>
</a>
</g>
</g>
<!-- Node3&#45;&gt;Node28 -->
<g id="edge41" class="edge">
<title>Node3&#45;&gt;Node28</title>
<path fill="none" stroke="midnightblue" d="M736.48,-236.24C693.88,-227.82 623.81,-213.84 554.06,-199.2"/>
<polygon fill="midnightblue" stroke="midnightblue" points="554.72,-195.76 544.22,-197.13 553.28,-202.61 554.72,-195.76"/>
</g>
<!-- Node29 -->
<g id="node29" class="node">
<title>Node29</title>
<g id="a_node29"><a xlink:title=" ">
<polygon fill="white" stroke="#bfbfbf" points="562.5,-179.5 562.5,-198.5 627.5,-198.5 627.5,-179.5 562.5,-179.5"/>
<text text-anchor="middle" x="595" y="-186.5" font-family="Helvetica,sans-Serif" font-size="10.00">functional</text>
</a>
</g>
</g>
<!-- Node3&#45;&gt;Node29 -->
<g id="edge42" class="edge">
<title>Node3&#45;&gt;Node29</title>
<path fill="none" stroke="midnightblue" d="M747.32,-235.44C716.47,-226.24 667.27,-211.56 633.17,-201.39"/>
<polygon fill="midnightblue" stroke="midnightblue" points="634.13,-198.02 623.55,-198.52 632.13,-204.73 634.13,-198.02"/>
</g>
<!-- Node30 -->
<g id="node30" class="node">
<title>Node30</title>
<g id="a_node30"><a xlink:title=" ">
<polygon fill="white" stroke="#bfbfbf" points="646,-179.5 646,-198.5 690,-198.5 690,-179.5 646,-179.5"/>
<text text-anchor="middle" x="668" y="-186.5" font-family="Helvetica,sans-Serif" font-size="10.00">limits</text>
</a>
</g>
</g>
<!-- Node3&#45;&gt;Node30 -->
<g id="edge43" class="edge">
<title>Node3&#45;&gt;Node30</title>
<path fill="none" stroke="midnightblue" d="M758.65,-235.32C741.33,-226.66 714.48,-213.24 694.5,-203.25"/>
<polygon fill="midnightblue" stroke="midnightblue" points="695.82,-200 685.31,-198.65 692.69,-206.26 695.82,-200"/>
</g>
<!-- Node7 -->
<g id="node7" class="node">
<title>Node7</title>
<g id="a_node7"><a xlink:title=" ">
<polygon fill="white" stroke="#bfbfbf" points="1459.5,-62 1459.5,-81 1536.5,-81 1536.5,-62 1459.5,-62"/>
<text text-anchor="middle" x="1498" y="-69" font-family="Helvetica,sans-Serif" font-size="10.00">tvm/ffi/any.h</text>
</a>
</g>
</g>
<!-- Node6&#45;&gt;Node7 -->
<g id="edge7" class="edge">
<title>Node6&#45;&gt;Node7</title>
<path fill="none" stroke="midnightblue" d="M1341.22,-123.48C1373.02,-113.14 1426.77,-95.66 1462.32,-84.1"/>
<polygon fill="midnightblue" stroke="midnightblue" points="1463.4,-87.43 1471.83,-81.01 1461.24,-80.77 1463.4,-87.43"/>
</g>
<!-- Node8 -->
<g id="node8" class="node">
<title>Node8</title>
<g id="a_node8"><a xlink:title=" ">
<polygon fill="white" stroke="#bfbfbf" points="1241.5,-62 1241.5,-81 1322.5,-81 1322.5,-62 1241.5,-62"/>
<text text-anchor="middle" x="1282" y="-69" font-family="Helvetica,sans-Serif" font-size="10.00">tvm/ffi/cast.h</text>
</a>
</g>
</g>
<!-- Node6&#45;&gt;Node8 -->
<g id="edge8" class="edge">
<title>Node6&#45;&gt;Node8</title>
<path fill="none" stroke="midnightblue" d="M1310.27,-123.48C1305.42,-114.73 1297.73,-100.87 1291.6,-89.81"/>
<polygon fill="midnightblue" stroke="midnightblue" points="1294.63,-88.06 1286.72,-81.01 1288.51,-91.45 1294.63,-88.06"/>
</g>
<!-- Node9 -->
<g id="node9" class="node">
<title>Node9</title>
<g id="a_node9"><a xlink:title=" ">
<polygon fill="white" stroke="#bfbfbf" points="1134.5,-62 1134.5,-81 1223.5,-81 1223.5,-62 1134.5,-62"/>
<text text-anchor="middle" x="1179" y="-69" font-family="Helvetica,sans-Serif" font-size="10.00">tvm/ffi/dtype.h</text>
</a>
</g>
</g>
<!-- Node6&#45;&gt;Node9 -->
<g id="edge9" class="edge">
<title>Node6&#45;&gt;Node9</title>
<path fill="none" stroke="midnightblue" d="M1295.51,-123.48C1272.59,-113.45 1234.31,-96.7 1207.92,-85.15"/>
<polygon fill="midnightblue" stroke="midnightblue" points="1209.01,-81.81 1198.45,-81.01 1206.21,-88.22 1209.01,-81.81"/>
</g>
<!-- Node10 -->
<g id="node10" class="node">
<title>Node10</title>
<g id="a_node10"><a xlink:title=" ">
<polygon fill="white" stroke="#bfbfbf" points="1033.5,-62 1033.5,-81 1116.5,-81 1116.5,-62 1033.5,-62"/>
<text text-anchor="middle" x="1075" y="-69" font-family="Helvetica,sans-Serif" font-size="10.00">tvm/ffi/error.h</text>
</a>
</g>
</g>
<!-- Node6&#45;&gt;Node10 -->
<g id="edge10" class="edge">
<title>Node6&#45;&gt;Node10</title>
<path fill="none" stroke="midnightblue" d="M1276.87,-123.43C1238.61,-114.71 1178.05,-100.59 1126,-87 1122.15,-86 1118.15,-84.92 1114.16,-83.82"/>
<polygon fill="midnightblue" stroke="midnightblue" points="1114.91,-80.39 1104.34,-81.08 1113.03,-87.14 1114.91,-80.39"/>
</g>
<!-- Node11 -->
<g id="node11" class="node">
<title>Node11</title>
<g id="a_node11"><a xlink:title=" ">
<polygon fill="white" stroke="#bfbfbf" points="1617.5,-62 1617.5,-81 1708.5,-81 1708.5,-62 1617.5,-62"/>
<text text-anchor="middle" x="1663" y="-69" font-family="Helvetica,sans-Serif" font-size="10.00">tvm/ffi/object.h</text>
</a>
</g>
</g>
<!-- Node6&#45;&gt;Node11 -->
<g id="edge11" class="edge">
<title>Node6&#45;&gt;Node11</title>
<path fill="none" stroke="midnightblue" d="M1354.24,-127.39C1410.85,-120.43 1518.55,-106.01 1609,-87 1613.74,-86 1618.68,-84.85 1623.57,-83.63"/>
<polygon fill="midnightblue" stroke="midnightblue" points="1624.63,-86.97 1633.43,-81.07 1622.87,-80.19 1624.63,-86.97"/>
</g>
<!-- Node12 -->
<g id="node12" class="node">
<title>Node12</title>
<g id="a_node12"><a xlink:title=" ">
<polygon fill="white" stroke="#bfbfbf" points="1340.5,-62 1340.5,-81 1441.5,-81 1441.5,-62 1340.5,-62"/>
<text text-anchor="middle" x="1391" y="-69" font-family="Helvetica,sans-Serif" font-size="10.00">tvm/ffi/optional.h</text>
</a>
</g>
</g>
<!-- Node6&#45;&gt;Node12 -->
<g id="edge12" class="edge">
<title>Node6&#45;&gt;Node12</title>
<path fill="none" stroke="midnightblue" d="M1325.89,-123.48C1337.97,-114.02 1357.67,-98.6 1372.24,-87.19"/>
<polygon fill="midnightblue" stroke="midnightblue" points="1374.41,-89.93 1380.13,-81.01 1370.1,-84.42 1374.41,-89.93"/>
</g>
<!-- Node6&#45;&gt;Node13 -->
<g id="edge13" class="edge">
<title>Node6&#45;&gt;Node13</title>
<path fill="none" stroke="midnightblue" d="M1354.16,-127.35C1400.7,-121.15 1480.35,-108.39 1546,-87 1547.67,-86.46 1549.37,-85.84 1551.06,-85.19"/>
<polygon fill="midnightblue" stroke="midnightblue" points="1552.77,-88.26 1560.57,-81.1 1550,-81.83 1552.77,-88.26"/>
</g>
<!-- Node14&#45;&gt;Node11 -->
<g id="edge15" class="edge">
<title>Node14&#45;&gt;Node11</title>
<path fill="none" stroke="midnightblue" d="M1503.65,-123.48C1535.97,-113.14 1590.6,-95.66 1626.73,-84.1"/>
<polygon fill="midnightblue" stroke="midnightblue" points="1627.94,-87.39 1636.4,-81.01 1625.81,-80.72 1627.94,-87.39"/>
</g>
<!-- Node14&#45;&gt;Node13 -->
<g id="edge16" class="edge">
<title>Node14&#45;&gt;Node13</title>
<path fill="none" stroke="midnightblue" d="M1491.33,-123.48C1507.66,-113.75 1534.6,-97.73 1553.91,-86.24"/>
<polygon fill="midnightblue" stroke="midnightblue" points="1555.89,-89.13 1562.7,-81.01 1552.32,-83.11 1555.89,-89.13"/>
</g>
<!-- Node15&#45;&gt;Node2 -->
<g id="edge20" class="edge">
<title>Node15&#45;&gt;Node2</title>
<path fill="none" stroke="midnightblue" d="M301.76,-123.49C253.89,-115.47 180.82,-102.66 108.51,-87.25"/>
<polygon fill="midnightblue" stroke="midnightblue" points="108.82,-83.74 98.31,-85.06 107.35,-90.58 108.82,-83.74"/>
</g>
<!-- Node15&#45;&gt;Node13 -->
<g id="edge25" class="edge">
<title>Node15&#45;&gt;Node13</title>
<path fill="none" stroke="midnightblue" d="M412.81,-130.43C645.33,-124.14 1490.49,-100.44 1546,-87 1547.99,-86.52 1550.01,-85.9 1552.01,-85.2"/>
<polygon fill="midnightblue" stroke="midnightblue" points="1553.81,-88.24 1561.67,-81.14 1551.1,-81.78 1553.81,-88.24"/>
</g>
<!-- Node16 -->
<g id="node16" class="node">
<title>Node16</title>
<g id="a_node16"><a xlink:title=" ">
<polygon fill="white" stroke="#bfbfbf" points="374,-62 374,-81 508,-81 508,-62 374,-62"/>
<text text-anchor="middle" x="441" y="-69" font-family="Helvetica,sans-Serif" font-size="10.00">tvm/ffi/container/array.h</text>
</a>
</g>
</g>
<!-- Node15&#45;&gt;Node16 -->
<g id="edge18" class="edge">
<title>Node15&#45;&gt;Node16</title>
<path fill="none" stroke="midnightblue" d="M366.46,-123.48C380.42,-113.93 403.26,-98.31 419.99,-86.87"/>
<polygon fill="midnightblue" stroke="midnightblue" points="422.28,-89.54 428.56,-81.01 418.33,-83.77 422.28,-89.54"/>
</g>
<!-- Node17 -->
<g id="node17" class="node">
<title>Node17</title>
<g id="a_node17"><a xlink:title=" ">
<polygon fill="white" stroke="#bfbfbf" points="254.5,-62 254.5,-81 355.5,-81 355.5,-62 254.5,-62"/>
<text text-anchor="middle" x="305" y="-69" font-family="Helvetica,sans-Serif" font-size="10.00">tvm/ffi/function.h</text>
</a>
</g>
</g>
<!-- Node15&#45;&gt;Node17 -->
<g id="edge19" class="edge">
<title>Node15&#45;&gt;Node17</title>
<path fill="none" stroke="midnightblue" d="M346.98,-123.48C339.56,-114.46 327.67,-100.02 318.43,-88.81"/>
<polygon fill="midnightblue" stroke="midnightblue" points="321.07,-86.5 312.01,-81.01 315.66,-90.95 321.07,-86.5"/>
</g>
<!-- Node18 -->
<g id="node18" class="node">
<title>Node18</title>
<g id="a_node18"><a xlink:href="runtime_2base_8h.html" target="_top" xlink:title=" ">
<polygon fill="white" stroke="black" points="526.5,-62 526.5,-81 639.5,-81 639.5,-62 526.5,-62"/>
<text text-anchor="middle" x="583" y="-69" font-family="Helvetica,sans-Serif" font-size="10.00">tvm/runtime/base.h</text>
</a>
</g>
</g>
<!-- Node15&#45;&gt;Node18 -->
<g id="edge21" class="edge">
<title>Node15&#45;&gt;Node18</title>
<path fill="none" stroke="midnightblue" d="M386.81,-123.48C427.2,-112.98 495.88,-95.14 540.33,-83.59"/>
<polygon fill="midnightblue" stroke="midnightblue" points="541.45,-86.91 550.25,-81.01 539.69,-80.14 541.45,-86.91"/>
</g>
<!-- Node20 -->
<g id="node20" class="node">
<title>Node20</title>
<g id="a_node20"><a xlink:title=" ">
<polygon fill="white" stroke="#bfbfbf" points="116.5,-62 116.5,-81 171.5,-81 171.5,-62 116.5,-62"/>
<text text-anchor="middle" x="144" y="-69" font-family="Helvetica,sans-Serif" font-size="10.00">fstream</text>
</a>
</g>
</g>
<!-- Node15&#45;&gt;Node20 -->
<g id="edge23" class="edge">
<title>Node15&#45;&gt;Node20</title>
<path fill="none" stroke="midnightblue" d="M315.23,-123.5C279.69,-115.34 225.79,-102.07 180,-87 177.87,-86.3 175.68,-85.53 173.49,-84.73"/>
<polygon fill="midnightblue" stroke="midnightblue" points="174.6,-81.41 164.01,-81.1 172.09,-87.95 174.6,-81.41"/>
</g>
<!-- Node15&#45;&gt;Node21 -->
<g id="edge24" class="edge">
<title>Node15&#45;&gt;Node21</title>
<path fill="none" stroke="midnightblue" d="M412.77,-127.76C472.87,-122.33 568.43,-110.63 648,-87 649.93,-86.43 651.89,-85.76 653.85,-85.03"/>
<polygon fill="midnightblue" stroke="midnightblue" points="655.5,-88.14 663.39,-81.06 652.81,-81.68 655.5,-88.14"/>
</g>
<!-- Node22 -->
<g id="node22" class="node">
<title>Node22</title>
<g id="a_node22"><a xlink:title=" ">
<polygon fill="white" stroke="#bfbfbf" points="189.5,-62 189.5,-81 236.5,-81 236.5,-62 189.5,-62"/>
<text text-anchor="middle" x="213" y="-69" font-family="Helvetica,sans-Serif" font-size="10.00">vector</text>
</a>
</g>
</g>
<!-- Node15&#45;&gt;Node22 -->
<g id="edge26" class="edge">
<title>Node15&#45;&gt;Node22</title>
<path fill="none" stroke="midnightblue" d="M332.61,-123.42C310.56,-114.52 275.25,-100.09 245,-87 243.64,-86.41 242.24,-85.8 240.83,-85.18"/>
<polygon fill="midnightblue" stroke="midnightblue" points="242.12,-81.92 231.57,-81.04 239.27,-88.31 242.12,-81.92"/>
</g>
<!-- Node19 -->
<g id="node19" class="node">
<title>Node19</title>
<g id="a_node19"><a xlink:title=" ">
<polygon fill="white" stroke="#bfbfbf" points="540,-0.5 540,-19.5 626,-19.5 626,-0.5 540,-0.5"/>
<text text-anchor="middle" x="583" y="-7.5" font-family="Helvetica,sans-Serif" font-size="10.00">tvm/ffi/c_api.h</text>
</a>
</g>
</g>
<!-- Node18&#45;&gt;Node19 -->
<g id="edge22" class="edge">
<title>Node18&#45;&gt;Node19</title>
<path fill="none" stroke="midnightblue" d="M583,-61.98C583,-53.58 583,-40.48 583,-29.66"/>
<polygon fill="midnightblue" stroke="midnightblue" points="586.5,-29.51 583,-19.51 579.5,-29.51 586.5,-29.51"/>
</g>
<!-- Node23&#45;&gt;Node2 -->
<g id="edge30" class="edge">
<title>Node23&#45;&gt;Node2</title>
<path fill="none" stroke="midnightblue" d="M394.27,-179.41C333.07,-160.46 185.46,-114.75 104.47,-89.68"/>
<polygon fill="midnightblue" stroke="midnightblue" points="105.04,-86.19 94.46,-86.58 102.97,-92.88 105.04,-86.19"/>
</g>
<!-- Node23&#45;&gt;Node8 -->
<g id="edge28" class="edge">
<title>Node23&#45;&gt;Node8</title>
<path fill="none" stroke="midnightblue" d="M462.05,-180.27C465.08,-179.8 468.08,-179.37 471,-179 696.43,-150.43 756.14,-175.74 981,-143 1094.54,-126.47 1121.93,-115.74 1233,-87 1236.8,-86.02 1240.76,-84.94 1244.7,-83.83"/>
<polygon fill="midnightblue" stroke="midnightblue" points="1245.73,-87.17 1254.37,-81.04 1243.79,-80.45 1245.73,-87.17"/>
</g>
<!-- Node23&#45;&gt;Node15 -->
<g id="edge31" class="edge">
<title>Node23&#45;&gt;Node15</title>
<path fill="none" stroke="midnightblue" d="M411.07,-179.32C400.83,-171.18 385.28,-158.84 373,-149.09"/>
<polygon fill="midnightblue" stroke="midnightblue" points="375.13,-146.31 365.12,-142.83 370.78,-151.79 375.13,-146.31"/>
</g>
<!-- Node23&#45;&gt;Node16 -->
<g id="edge29" class="edge">
<title>Node23&#45;&gt;Node16</title>
<path fill="none" stroke="midnightblue" d="M423.43,-179.32C426.48,-160.76 433.71,-116.84 437.88,-91.47"/>
<polygon fill="midnightblue" stroke="midnightblue" points="441.39,-91.72 439.56,-81.28 434.48,-90.58 441.39,-91.72"/>
</g>
<!-- Node23&#45;&gt;Node21 -->
<g id="edge40" class="edge">
<title>Node23&#45;&gt;Node21</title>
<path fill="none" stroke="midnightblue" d="M441.36,-179.39C480.45,-161.99 571.58,-121.39 648,-87 649.19,-86.46 650.4,-85.92 651.63,-85.37"/>
<polygon fill="midnightblue" stroke="midnightblue" points="653.39,-88.41 661.06,-81.1 650.5,-82.03 653.39,-88.41"/>
</g>
<!-- Node24 -->
<g id="node24" class="node">
<title>Node24</title>
<g id="a_node24"><a xlink:href="data__type_8h.html" target="_top" xlink:title=" ">
<polygon fill="white" stroke="black" points="834,-123.5 834,-142.5 972,-142.5 972,-123.5 834,-123.5"/>
<text text-anchor="middle" x="903" y="-130.5" font-family="Helvetica,sans-Serif" font-size="10.00">tvm/runtime/data_type.h</text>
</a>
</g>
</g>
<!-- Node23&#45;&gt;Node24 -->
<g id="edge32" class="edge">
<title>Node23&#45;&gt;Node24</title>
<path fill="none" stroke="midnightblue" d="M462.07,-180.38C465.09,-179.88 468.09,-179.42 471,-179 593.77,-161.36 737.12,-147.81 823.92,-140.38"/>
<polygon fill="midnightblue" stroke="midnightblue" points="824.29,-143.86 833.96,-139.52 823.7,-136.88 824.29,-143.86"/>
</g>
<!-- Node24&#45;&gt;Node9 -->
<g id="edge34" class="edge">
<title>Node24&#45;&gt;Node9</title>
<path fill="none" stroke="midnightblue" d="M950.19,-123.44C995.46,-115 1065.67,-101.32 1126,-87 1130.35,-85.97 1134.88,-84.83 1139.38,-83.66"/>
<polygon fill="midnightblue" stroke="midnightblue" points="1140.34,-87.02 1149.1,-81.06 1138.54,-80.26 1140.34,-87.02"/>
</g>
<!-- Node24&#45;&gt;Node10 -->
<g id="edge35" class="edge">
<title>Node24&#45;&gt;Node10</title>
<path fill="none" stroke="midnightblue" d="M927.64,-123.48C957.28,-113.22 1007.18,-95.96 1040.6,-84.4"/>
<polygon fill="midnightblue" stroke="midnightblue" points="1042.1,-87.59 1050.4,-81.01 1039.81,-80.97 1042.1,-87.59"/>
</g>
<!-- Node24&#45;&gt;Node18 -->
<g id="edge36" class="edge">
<title>Node24&#45;&gt;Node18</title>
<path fill="none" stroke="midnightblue" d="M851.32,-123.48C799.91,-114.86 718.85,-100.85 649,-87 643.1,-85.83 636.92,-84.55 630.81,-83.24"/>
<polygon fill="midnightblue" stroke="midnightblue" points="631.15,-79.74 620.64,-81.05 629.67,-86.58 631.15,-79.74"/>
</g>
<!-- Node24&#45;&gt;Node21 -->
<g id="edge38" class="edge">
<title>Node24&#45;&gt;Node21</title>
<path fill="none" stroke="midnightblue" d="M854.08,-123.44C814.8,-115.88 758.55,-103.49 711,-87 709.38,-86.44 707.73,-85.82 706.08,-85.16"/>
<polygon fill="midnightblue" stroke="midnightblue" points="707.36,-81.9 696.79,-81.13 704.57,-88.32 707.36,-81.9"/>
</g>
<!-- Node25 -->
<g id="node25" class="node">
<title>Node25</title>
<g id="a_node25"><a xlink:title=" ">
<polygon fill="white" stroke="#bfbfbf" points="720.5,-62 720.5,-81 859.5,-81 859.5,-62 720.5,-62"/>
<text text-anchor="middle" x="790" y="-69" font-family="Helvetica,sans-Serif" font-size="10.00">tvm/ffi/container/shape.h</text>
</a>
</g>
</g>
<!-- Node24&#45;&gt;Node25 -->
<g id="edge33" class="edge">
<title>Node24&#45;&gt;Node25</title>
<path fill="none" stroke="midnightblue" d="M886.81,-123.48C868.1,-113.62 837.08,-97.29 815.2,-85.77"/>
<polygon fill="midnightblue" stroke="midnightblue" points="816.64,-82.57 806.16,-81.01 813.38,-88.77 816.64,-82.57"/>
</g>
<!-- Node26 -->
<g id="node26" class="node">
<title>Node26</title>
<g id="a_node26"><a xlink:title=" ">
<polygon fill="white" stroke="#bfbfbf" points="878,-62 878,-81 928,-81 928,-62 878,-62"/>
<text text-anchor="middle" x="903" y="-69" font-family="Helvetica,sans-Serif" font-size="10.00">cstring</text>
</a>
</g>
</g>
<!-- Node24&#45;&gt;Node26 -->
<g id="edge37" class="edge">
<title>Node24&#45;&gt;Node26</title>
<path fill="none" stroke="midnightblue" d="M903,-123.48C903,-115.08 903,-101.98 903,-91.16"/>
<polygon fill="midnightblue" stroke="midnightblue" points="906.5,-91.01 903,-81.01 899.5,-91.01 906.5,-91.01"/>
</g>
<!-- Node24&#45;&gt;Node27 -->
<g id="edge39" class="edge">
<title>Node24&#45;&gt;Node27</title>
<path fill="none" stroke="midnightblue" d="M914.18,-123.48C926.57,-114.02 946.79,-98.6 961.75,-87.19"/>
<polygon fill="midnightblue" stroke="midnightblue" points="964.02,-89.86 969.85,-81.01 959.77,-84.29 964.02,-89.86"/>
</g>
</g>
</svg>
