<?xml version="1.0" encoding="UTF-8" standalone="no"?>
<!DOCTYPE svg PUBLIC "-//W3C//DTD SVG 1.1//EN"
 "http://www.w3.org/Graphics/SVG/1.1/DTD/svg11.dtd">
<!-- Generated by graphviz version 2.43.0 (0)
 -->
<!-- Title: include/tvm/ir/unique_name_supply.h Pages: 1 -->
<svg width="462pt" height="307pt"
 viewBox="0.00 0.00 462.00 307.00" xmlns="http://www.w3.org/2000/svg" xmlns:xlink="http://www.w3.org/1999/xlink">
<g id="graph0" class="graph" transform="scale(1 1) rotate(0) translate(4 303)">
<title>include/tvm/ir/unique_name_supply.h</title>
<polygon fill="white" stroke="transparent" points="-4,4 -4,-303 458,-303 458,4 -4,4"/>
<!-- Node1 -->
<g id="node1" class="node">
<title>Node1</title>
<g id="a_node1"><a xlink:title="UniqueNameSupply that can be used to generate unique variable names.">
<polygon fill="#bfbfbf" stroke="black" points="0,-268.5 0,-298.5 120,-298.5 120,-268.5 0,-268.5"/>
<text text-anchor="start" x="8" y="-286.5" font-family="Helvetica,sans-Serif" font-size="10.00">include/tvm/ir/unique</text>
<text text-anchor="middle" x="60" y="-275.5" font-family="Helvetica,sans-Serif" font-size="10.00">_name_supply.h</text>
</a>
</g>
</g>
<!-- Node2 -->
<g id="node2" class="node">
<title>Node2</title>
<g id="a_node2"><a xlink:href="binding__rewrite_8h.html" target="_top" xlink:title="An IR rewriter to easily add/remove/replace bindings (statements).">
<polygon fill="white" stroke="black" points="48.5,-0.5 48.5,-30.5 189.5,-30.5 189.5,-0.5 48.5,-0.5"/>
<text text-anchor="start" x="56.5" y="-18.5" font-family="Helvetica,sans-Serif" font-size="10.00">include/tvm/relax/binding</text>
<text text-anchor="middle" x="119" y="-7.5" font-family="Helvetica,sans-Serif" font-size="10.00">_rewrite.h</text>
</a>
</g>
</g>
<!-- Node1&#45;&gt;Node2 -->
<g id="edge1" class="edge">
<title>Node1&#45;&gt;Node2</title>
<path fill="none" stroke="midnightblue" d="M48.48,-259.13C35.46,-229.46 17.82,-176.98 32,-134 46.16,-91.09 82.69,-51.05 103.63,-30.63"/>
<polygon fill="midnightblue" stroke="midnightblue" points="45.32,-260.63 52.67,-268.27 51.68,-257.72 45.32,-260.63"/>
</g>
<!-- Node3 -->
<g id="node3" class="node">
<title>Node3</title>
<g id="a_node3"><a xlink:href="block__builder_8h.html" target="_top" xlink:title="The utility for constructing Relax binding blocks.">
<polygon fill="white" stroke="black" points="110.5,-201.5 110.5,-231.5 241.5,-231.5 241.5,-201.5 110.5,-201.5"/>
<text text-anchor="start" x="118.5" y="-219.5" font-family="Helvetica,sans-Serif" font-size="10.00">include/tvm/relax/block</text>
<text text-anchor="middle" x="176" y="-208.5" font-family="Helvetica,sans-Serif" font-size="10.00">_builder.h</text>
</a>
</g>
</g>
<!-- Node1&#45;&gt;Node3 -->
<g id="edge2" class="edge">
<title>Node1&#45;&gt;Node3</title>
<path fill="none" stroke="midnightblue" d="M94.27,-263.3C112.42,-253.12 134.32,-240.85 150.88,-231.58"/>
<polygon fill="midnightblue" stroke="midnightblue" points="92.18,-260.45 85.17,-268.4 95.6,-266.56 92.18,-260.45"/>
</g>
<!-- Node4 -->
<g id="node4" class="node">
<title>Node4</title>
<g id="a_node4"><a xlink:href="relax_2expr__functor_8h.html" target="_top" xlink:title="A more powerful visitor which enables defining arbitrary function signatures with type based dispatch...">
<polygon fill="white" stroke="black" points="41.5,-134.5 41.5,-164.5 168.5,-164.5 168.5,-134.5 41.5,-134.5"/>
<text text-anchor="start" x="49.5" y="-152.5" font-family="Helvetica,sans-Serif" font-size="10.00">include/tvm/relax/expr</text>
<text text-anchor="middle" x="105" y="-141.5" font-family="Helvetica,sans-Serif" font-size="10.00">_functor.h</text>
</a>
</g>
</g>
<!-- Node3&#45;&gt;Node4 -->
<g id="edge3" class="edge">
<title>Node3&#45;&gt;Node4</title>
<path fill="none" stroke="midnightblue" d="M153.17,-194.6C142.45,-184.78 129.95,-173.34 120.38,-164.58"/>
<polygon fill="midnightblue" stroke="midnightblue" points="150.85,-197.22 160.59,-201.4 155.58,-192.06 150.85,-197.22"/>
</g>
<!-- Node5 -->
<g id="node5" class="node">
<title>Node5</title>
<g id="a_node5"><a xlink:href="relax_2op__attr__types_8h.html" target="_top" xlink:title="Data structures that can appear in operator attributes.">
<polygon fill="white" stroke="black" points="186.5,-134.5 186.5,-164.5 303.5,-164.5 303.5,-134.5 186.5,-134.5"/>
<text text-anchor="start" x="194.5" y="-152.5" font-family="Helvetica,sans-Serif" font-size="10.00">include/tvm/relax/op</text>
<text text-anchor="middle" x="245" y="-141.5" font-family="Helvetica,sans-Serif" font-size="10.00">_attr_types.h</text>
</a>
</g>
</g>
<!-- Node3&#45;&gt;Node5 -->
<g id="edge4" class="edge">
<title>Node3&#45;&gt;Node5</title>
<path fill="none" stroke="midnightblue" d="M198.49,-194.31C208.84,-184.56 220.84,-173.26 230.06,-164.58"/>
<polygon fill="midnightblue" stroke="midnightblue" points="195.85,-191.99 190.97,-201.4 200.65,-197.09 195.85,-191.99"/>
</g>
<!-- Node7 -->
<g id="node7" class="node">
<title>Node7</title>
<g id="a_node7"><a xlink:href="relax_2script_2builder_2frame_8h.html" target="_top" xlink:title=" ">
<polygon fill="white" stroke="black" points="322,-134.5 322,-164.5 454,-164.5 454,-134.5 322,-134.5"/>
<text text-anchor="start" x="330" y="-152.5" font-family="Helvetica,sans-Serif" font-size="10.00">include/tvm/relax/script</text>
<text text-anchor="middle" x="388" y="-141.5" font-family="Helvetica,sans-Serif" font-size="10.00">/builder/frame.h</text>
</a>
</g>
</g>
<!-- Node3&#45;&gt;Node7 -->
<g id="edge7" class="edge">
<title>Node3&#45;&gt;Node7</title>
<path fill="none" stroke="midnightblue" d="M231.63,-198.44C265.99,-187.91 309.56,-174.55 341.98,-164.61"/>
<polygon fill="midnightblue" stroke="midnightblue" points="230.27,-195.2 221.74,-201.48 232.33,-201.89 230.27,-195.2"/>
</g>
<!-- Node6 -->
<g id="node6" class="node">
<title>Node6</title>
<g id="a_node6"><a xlink:href="relax_2analysis_8h.html" target="_top" xlink:title="The set of Relax specific analysis on IR.">
<polygon fill="white" stroke="black" points="95.5,-73 95.5,-92 250.5,-92 250.5,-73 95.5,-73"/>
<text text-anchor="middle" x="173" y="-80" font-family="Helvetica,sans-Serif" font-size="10.00">include/tvm/relax/analysis.h</text>
</a>
</g>
</g>
<!-- Node5&#45;&gt;Node6 -->
<g id="edge5" class="edge">
<title>Node5&#45;&gt;Node6</title>
<path fill="none" stroke="midnightblue" d="M221.93,-127.67C208.64,-115.67 192.63,-101.22 182.63,-92.19"/>
<polygon fill="midnightblue" stroke="midnightblue" points="219.61,-130.29 229.38,-134.4 224.3,-125.1 219.61,-130.29"/>
</g>
<!-- Node6&#45;&gt;Node2 -->
<g id="edge6" class="edge">
<title>Node6&#45;&gt;Node2</title>
<path fill="none" stroke="midnightblue" d="M159.28,-64.99C150.46,-54.36 139.11,-40.7 130.7,-30.59"/>
<polygon fill="midnightblue" stroke="midnightblue" points="156.63,-67.28 165.72,-72.73 162.02,-62.81 156.63,-67.28"/>
</g>
<!-- Node8 -->
<g id="node8" class="node">
<title>Node8</title>
<g id="a_node8"><a xlink:href="relax_2script_2builder_2ir_8h.html" target="_top" xlink:title=" ">
<polygon fill="white" stroke="black" points="322,-67.5 322,-97.5 454,-97.5 454,-67.5 322,-67.5"/>
<text text-anchor="start" x="330" y="-85.5" font-family="Helvetica,sans-Serif" font-size="10.00">include/tvm/relax/script</text>
<text text-anchor="middle" x="388" y="-74.5" font-family="Helvetica,sans-Serif" font-size="10.00">/builder/ir.h</text>
</a>
</g>
</g>
<!-- Node7&#45;&gt;Node8 -->
<g id="edge8" class="edge">
<title>Node7&#45;&gt;Node8</title>
<path fill="none" stroke="midnightblue" d="M388,-124.11C388,-115.15 388,-105.32 388,-97.58"/>
<polygon fill="midnightblue" stroke="midnightblue" points="384.5,-124.4 388,-134.4 391.5,-124.4 384.5,-124.4"/>
</g>
</g>
</svg>
