<?xml version="1.0" encoding="UTF-8" standalone="no"?>
<!DOCTYPE svg PUBLIC "-//W3C//DTD SVG 1.1//EN"
 "http://www.w3.org/Graphics/SVG/1.1/DTD/svg11.dtd">
<!-- Generated by graphviz version 2.43.0 (0)
 -->
<!-- Title: include/tvm/tirx/var.h Pages: 1 -->
<svg width="1404pt" height="263pt"
 viewBox="0.00 0.00 1403.50 263.00" xmlns="http://www.w3.org/2000/svg" xmlns:xlink="http://www.w3.org/1999/xlink">
<g id="graph0" class="graph" transform="scale(1 1) rotate(0) translate(4 259)">
<title>include/tvm/tirx/var.h</title>
<polygon fill="white" stroke="transparent" points="-4,4 -4,-259 1399.5,-259 1399.5,4 -4,4"/>
<!-- Node1 -->
<g id="node1" class="node">
<title>Node1</title>
<g id="a_node1"><a xlink:title="Variables in the TIR.">
<polygon fill="#bfbfbf" stroke="black" points="950,-235.5 950,-254.5 1071,-254.5 1071,-235.5 950,-235.5"/>
<text text-anchor="middle" x="1010.5" y="-242.5" font-family="Helvetica,sans-Serif" font-size="10.00">include/tvm/tirx/var.h</text>
</a>
</g>
</g>
<!-- Node2 -->
<g id="node2" class="node">
<title>Node2</title>
<g id="a_node2"><a xlink:href="cow_8h.html" target="_top" xlink:title="Copy&#45;on&#45;write helper macro for IR ffi::ObjectRef types.">
<polygon fill="white" stroke="black" points="172,-123.5 172,-142.5 249,-142.5 249,-123.5 172,-123.5"/>
<text text-anchor="middle" x="210.5" y="-130.5" font-family="Helvetica,sans-Serif" font-size="10.00">tvm/ir/cow.h</text>
</a>
</g>
</g>
<!-- Node1&#45;&gt;Node2 -->
<g id="edge1" class="edge">
<title>Node1&#45;&gt;Node2</title>
<path fill="none" stroke="midnightblue" d="M949.71,-235.64C796.75,-214.61 398.2,-159.81 259.18,-140.69"/>
<polygon fill="midnightblue" stroke="midnightblue" points="259.63,-137.22 249.24,-139.33 258.67,-144.16 259.63,-137.22"/>
</g>
<!-- Node5 -->
<g id="node5" class="node">
<title>Node5</title>
<g id="a_node5"><a xlink:href="ir_2expr_8h.html" target="_top" xlink:title="Base expr nodes in TVM.">
<polygon fill="white" stroke="black" points="777,-179.5 777,-198.5 856,-198.5 856,-179.5 777,-179.5"/>
<text text-anchor="middle" x="816.5" y="-186.5" font-family="Helvetica,sans-Serif" font-size="10.00">tvm/ir/expr.h</text>
</a>
</g>
</g>
<!-- Node1&#45;&gt;Node5 -->
<g id="edge4" class="edge">
<title>Node1&#45;&gt;Node5</title>
<path fill="none" stroke="midnightblue" d="M979.76,-235.44C946.56,-226.2 893.51,-211.44 856.94,-201.26"/>
<polygon fill="midnightblue" stroke="midnightblue" points="857.67,-197.83 847.1,-198.52 855.79,-204.57 857.67,-197.83"/>
</g>
<!-- Node15 -->
<g id="node15" class="node">
<title>Node15</title>
<g id="a_node15"><a xlink:title=" ">
<polygon fill="white" stroke="#bfbfbf" points="830.5,-62 830.5,-81 874.5,-81 874.5,-62 830.5,-62"/>
<text text-anchor="middle" x="852.5" y="-69" font-family="Helvetica,sans-Serif" font-size="10.00">string</text>
</a>
</g>
</g>
<!-- Node1&#45;&gt;Node15 -->
<g id="edge34" class="edge">
<title>Node1&#45;&gt;Node15</title>
<path fill="none" stroke="midnightblue" d="M1011.89,-235.47C1014.9,-213.85 1019.66,-156.27 991.5,-123 958.81,-84.38 930.49,-105.75 883.5,-87 882.12,-86.45 880.71,-85.87 879.3,-85.27"/>
<polygon fill="midnightblue" stroke="midnightblue" points="880.61,-82.02 870.05,-81.14 877.76,-88.41 880.61,-82.02"/>
</g>
<!-- Node17 -->
<g id="node17" class="node">
<title>Node17</title>
<g id="a_node17"><a xlink:href="data__type_8h.html" target="_top" xlink:title=" ">
<polygon fill="white" stroke="black" points="1038.5,-123.5 1038.5,-142.5 1176.5,-142.5 1176.5,-123.5 1038.5,-123.5"/>
<text text-anchor="middle" x="1107.5" y="-130.5" font-family="Helvetica,sans-Serif" font-size="10.00">tvm/runtime/data_type.h</text>
</a>
</g>
</g>
<!-- Node1&#45;&gt;Node17 -->
<g id="edge32" class="edge">
<title>Node1&#45;&gt;Node17</title>
<path fill="none" stroke="midnightblue" d="M1018.11,-235.37C1034.26,-217.05 1072.18,-174.05 1093.07,-150.36"/>
<polygon fill="midnightblue" stroke="midnightblue" points="1095.94,-152.41 1099.92,-142.59 1090.68,-147.78 1095.94,-152.41"/>
</g>
<!-- Node24 -->
<g id="node24" class="node">
<title>Node24</title>
<g id="a_node24"><a xlink:title=" ">
<polygon fill="white" stroke="#bfbfbf" points="1195,-123.5 1195,-142.5 1260,-142.5 1260,-123.5 1195,-123.5"/>
<text text-anchor="middle" x="1227.5" y="-130.5" font-family="Helvetica,sans-Serif" font-size="10.00">functional</text>
</a>
</g>
</g>
<!-- Node1&#45;&gt;Node24 -->
<g id="edge33" class="edge">
<title>Node1&#45;&gt;Node24</title>
<path fill="none" stroke="midnightblue" d="M1027.53,-235.37C1065.32,-216.21 1156.41,-170.04 1201.43,-147.22"/>
<polygon fill="midnightblue" stroke="midnightblue" points="1203.21,-150.23 1210.55,-142.59 1200.05,-143.99 1203.21,-150.23"/>
</g>
<!-- Node3 -->
<g id="node3" class="node">
<title>Node3</title>
<g id="a_node3"><a xlink:title=" ">
<polygon fill="white" stroke="#bfbfbf" points="0,-62 0,-81 91,-81 91,-62 0,-62"/>
<text text-anchor="middle" x="45.5" y="-69" font-family="Helvetica,sans-Serif" font-size="10.00">tvm/ffi/object.h</text>
</a>
</g>
</g>
<!-- Node2&#45;&gt;Node3 -->
<g id="edge2" class="edge">
<title>Node2&#45;&gt;Node3</title>
<path fill="none" stroke="midnightblue" d="M186.86,-123.48C158.56,-113.27 110.97,-96.11 78.91,-84.55"/>
<polygon fill="midnightblue" stroke="midnightblue" points="79.69,-81.11 69.1,-81.01 77.32,-87.69 79.69,-81.11"/>
</g>
<!-- Node4 -->
<g id="node4" class="node">
<title>Node4</title>
<g id="a_node4"><a xlink:title=" ">
<polygon fill="white" stroke="#bfbfbf" points="109,-62 109,-81 154,-81 154,-62 109,-62"/>
<text text-anchor="middle" x="131.5" y="-69" font-family="Helvetica,sans-Serif" font-size="10.00">utility</text>
</a>
</g>
</g>
<!-- Node2&#45;&gt;Node4 -->
<g id="edge3" class="edge">
<title>Node2&#45;&gt;Node4</title>
<path fill="none" stroke="midnightblue" d="M199.18,-123.48C186.63,-114.02 166.15,-98.6 151,-87.19"/>
<polygon fill="midnightblue" stroke="midnightblue" points="152.89,-84.23 142.8,-81.01 148.68,-89.82 152.89,-84.23"/>
</g>
<!-- Node5&#45;&gt;Node2 -->
<g id="edge8" class="edge">
<title>Node5&#45;&gt;Node2</title>
<path fill="none" stroke="midnightblue" d="M776.74,-184.46C669.77,-174.92 376.08,-148.75 259.31,-138.35"/>
<polygon fill="midnightblue" stroke="midnightblue" points="259.5,-134.85 249.23,-137.45 258.88,-141.82 259.5,-134.85"/>
</g>
<!-- Node6 -->
<g id="node6" class="node">
<title>Node6</title>
<g id="a_node6"><a xlink:title=" ">
<polygon fill="white" stroke="#bfbfbf" points="580.5,-123.5 580.5,-142.5 716.5,-142.5 716.5,-123.5 580.5,-123.5"/>
<text text-anchor="middle" x="648.5" y="-130.5" font-family="Helvetica,sans-Serif" font-size="10.00">tvm/ffi/extra/dataclass.h</text>
</a>
</g>
</g>
<!-- Node5&#45;&gt;Node6 -->
<g id="edge5" class="edge">
<title>Node5&#45;&gt;Node6</title>
<path fill="none" stroke="midnightblue" d="M789.88,-179.44C761.49,-170.32 716.36,-155.81 684.75,-145.65"/>
<polygon fill="midnightblue" stroke="midnightblue" points="685.59,-142.24 675,-142.52 683.44,-148.91 685.59,-142.24"/>
</g>
<!-- Node7 -->
<g id="node7" class="node">
<title>Node7</title>
<g id="a_node7"><a xlink:title=" ">
<polygon fill="white" stroke="#bfbfbf" points="582.5,-56.5 582.5,-86.5 680.5,-86.5 680.5,-56.5 582.5,-56.5"/>
<text text-anchor="start" x="590.5" y="-74.5" font-family="Helvetica,sans-Serif" font-size="10.00">tvm/ffi/reflection</text>
<text text-anchor="middle" x="631.5" y="-63.5" font-family="Helvetica,sans-Serif" font-size="10.00">/registry.h</text>
</a>
</g>
</g>
<!-- Node5&#45;&gt;Node7 -->
<g id="edge6" class="edge">
<title>Node5&#45;&gt;Node7</title>
<path fill="none" stroke="midnightblue" d="M776.92,-188.32C701.94,-187.98 543.62,-182.49 509.5,-143 503.69,-136.27 504.56,-130.39 509.5,-123 517.33,-111.28 545.8,-99.16 573.27,-89.74"/>
<polygon fill="midnightblue" stroke="midnightblue" points="574.53,-93.01 582.91,-86.52 572.31,-86.37 574.53,-93.01"/>
</g>
<!-- Node8 -->
<g id="node8" class="node">
<title>Node8</title>
<g id="a_node8"><a xlink:title=" ">
<polygon fill="white" stroke="#bfbfbf" points="735,-123.5 735,-142.5 824,-142.5 824,-123.5 735,-123.5"/>
<text text-anchor="middle" x="779.5" y="-130.5" font-family="Helvetica,sans-Serif" font-size="10.00">tvm/ffi/string.h</text>
</a>
</g>
</g>
<!-- Node5&#45;&gt;Node8 -->
<g id="edge7" class="edge">
<title>Node5&#45;&gt;Node8</title>
<path fill="none" stroke="midnightblue" d="M810.39,-179.08C805.22,-171.53 797.65,-160.49 791.31,-151.23"/>
<polygon fill="midnightblue" stroke="midnightblue" points="794.04,-149.02 785.5,-142.75 788.26,-152.98 794.04,-149.02"/>
</g>
<!-- Node9 -->
<g id="node9" class="node">
<title>Node9</title>
<g id="a_node9"><a xlink:href="source__map_8h.html" target="_top" xlink:title="A map from source names to source code.">
<polygon fill="white" stroke="black" points="345,-123.5 345,-142.5 462,-142.5 462,-123.5 345,-123.5"/>
<text text-anchor="middle" x="403.5" y="-130.5" font-family="Helvetica,sans-Serif" font-size="10.00">tvm/ir/source_map.h</text>
</a>
</g>
</g>
<!-- Node5&#45;&gt;Node9 -->
<g id="edge9" class="edge">
<title>Node5&#45;&gt;Node9</title>
<path fill="none" stroke="midnightblue" d="M776.9,-182.82C706.6,-173.63 559.21,-154.36 472.1,-142.97"/>
<polygon fill="midnightblue" stroke="midnightblue" points="472.42,-139.48 462.05,-141.66 471.51,-146.42 472.42,-139.48"/>
</g>
<!-- Node5&#45;&gt;Node15 -->
<g id="edge30" class="edge">
<title>Node5&#45;&gt;Node15</title>
<path fill="none" stroke="midnightblue" d="M819.74,-179.43C823.09,-170.42 828.41,-155.8 832.5,-143 838.06,-125.59 843.67,-105.53 847.53,-91.27"/>
<polygon fill="midnightblue" stroke="midnightblue" points="851.01,-91.8 850.22,-81.24 844.25,-89.99 851.01,-91.8"/>
</g>
<!-- Node5&#45;&gt;Node17 -->
<g id="edge19" class="edge">
<title>Node5&#45;&gt;Node17</title>
<path fill="none" stroke="midnightblue" d="M856.05,-180.66C906.48,-171.3 994,-155.06 1051.33,-144.42"/>
<polygon fill="midnightblue" stroke="midnightblue" points="1052.12,-147.84 1061.31,-142.57 1050.84,-140.95 1052.12,-147.84"/>
</g>
<!-- Node22 -->
<g id="node22" class="node">
<title>Node22</title>
<g id="a_node22"><a xlink:title=" ">
<polygon fill="white" stroke="#bfbfbf" points="893,-62 893,-81 962,-81 962,-62 893,-62"/>
<text text-anchor="middle" x="927.5" y="-69" font-family="Helvetica,sans-Serif" font-size="10.00">type_traits</text>
</a>
</g>
</g>
<!-- Node5&#45;&gt;Node22 -->
<g id="edge31" class="edge">
<title>Node5&#45;&gt;Node22</title>
<path fill="none" stroke="midnightblue" d="M824.84,-179.32C843.32,-160.09 887.96,-113.64 911.83,-88.81"/>
<polygon fill="midnightblue" stroke="midnightblue" points="914.65,-90.92 919.06,-81.28 909.61,-86.07 914.65,-90.92"/>
</g>
<!-- Node23 -->
<g id="node23" class="node">
<title>Node23</title>
<g id="a_node23"><a xlink:title=" ">
<polygon fill="white" stroke="#bfbfbf" points="918.5,-123.5 918.5,-142.5 982.5,-142.5 982.5,-123.5 918.5,-123.5"/>
<text text-anchor="middle" x="950.5" y="-130.5" font-family="Helvetica,sans-Serif" font-size="10.00">algorithm</text>
</a>
</g>
</g>
<!-- Node5&#45;&gt;Node23 -->
<g id="edge27" class="edge">
<title>Node5&#45;&gt;Node23</title>
<path fill="none" stroke="midnightblue" d="M837.73,-179.44C859.88,-170.52 894.82,-156.44 919.94,-146.32"/>
<polygon fill="midnightblue" stroke="midnightblue" points="921.4,-149.5 929.37,-142.52 918.78,-143.01 921.4,-149.5"/>
</g>
<!-- Node5&#45;&gt;Node24 -->
<g id="edge28" class="edge">
<title>Node5&#45;&gt;Node24</title>
<path fill="none" stroke="midnightblue" d="M856.26,-184.33C922.28,-177.99 1058.87,-163.77 1184.79,-142.97"/>
<polygon fill="midnightblue" stroke="midnightblue" points="1185.71,-146.37 1195,-141.27 1184.56,-139.46 1185.71,-146.37"/>
</g>
<!-- Node25 -->
<g id="node25" class="node">
<title>Node25</title>
<g id="a_node25"><a xlink:title=" ">
<polygon fill="white" stroke="#bfbfbf" points="518.5,-123.5 518.5,-142.5 562.5,-142.5 562.5,-123.5 518.5,-123.5"/>
<text text-anchor="middle" x="540.5" y="-130.5" font-family="Helvetica,sans-Serif" font-size="10.00">limits</text>
</a>
</g>
</g>
<!-- Node5&#45;&gt;Node25 -->
<g id="edge29" class="edge">
<title>Node5&#45;&gt;Node25</title>
<path fill="none" stroke="midnightblue" d="M776.78,-181.97C730.1,-174.61 650.16,-161.13 572.7,-143.1"/>
<polygon fill="midnightblue" stroke="midnightblue" points="573.32,-139.65 562.78,-140.76 571.71,-146.46 573.32,-139.65"/>
</g>
<!-- Node9&#45;&gt;Node4 -->
<g id="edge17" class="edge">
<title>Node9&#45;&gt;Node4</title>
<path fill="none" stroke="midnightblue" d="M344.83,-125.01C295.64,-118.2 223.94,-106.06 163.5,-87 161.62,-86.41 159.71,-85.74 157.81,-85.01"/>
<polygon fill="midnightblue" stroke="midnightblue" points="159.05,-81.74 148.47,-81.1 156.35,-88.2 159.05,-81.74"/>
</g>
<!-- Node9&#45;&gt;Node7 -->
<g id="edge12" class="edge">
<title>Node9&#45;&gt;Node7</title>
<path fill="none" stroke="midnightblue" d="M436.17,-123.48C471.58,-114.23 528.84,-99.29 572.23,-87.97"/>
<polygon fill="midnightblue" stroke="midnightblue" points="573.31,-91.3 582.1,-85.39 571.54,-84.53 573.31,-91.3"/>
</g>
<!-- Node10 -->
<g id="node10" class="node">
<title>Node10</title>
<g id="a_node10"><a xlink:title=" ">
<polygon fill="white" stroke="#bfbfbf" points="172.5,-62 172.5,-81 306.5,-81 306.5,-62 172.5,-62"/>
<text text-anchor="middle" x="239.5" y="-69" font-family="Helvetica,sans-Serif" font-size="10.00">tvm/ffi/container/array.h</text>
</a>
</g>
</g>
<!-- Node9&#45;&gt;Node10 -->
<g id="edge10" class="edge">
<title>Node9&#45;&gt;Node10</title>
<path fill="none" stroke="midnightblue" d="M380,-123.48C351.87,-113.27 304.57,-96.11 272.71,-84.55"/>
<polygon fill="midnightblue" stroke="midnightblue" points="273.55,-81.13 262.95,-81.01 271.16,-87.71 273.55,-81.13"/>
</g>
<!-- Node11 -->
<g id="node11" class="node">
<title>Node11</title>
<g id="a_node11"><a xlink:title=" ">
<polygon fill="white" stroke="#bfbfbf" points="325,-62 325,-81 426,-81 426,-62 325,-62"/>
<text text-anchor="middle" x="375.5" y="-69" font-family="Helvetica,sans-Serif" font-size="10.00">tvm/ffi/function.h</text>
</a>
</g>
</g>
<!-- Node9&#45;&gt;Node11 -->
<g id="edge11" class="edge">
<title>Node9&#45;&gt;Node11</title>
<path fill="none" stroke="midnightblue" d="M399.49,-123.48C395.41,-114.82 388.98,-101.15 383.8,-90.15"/>
<polygon fill="midnightblue" stroke="midnightblue" points="386.93,-88.57 379.5,-81.01 380.6,-91.55 386.93,-88.57"/>
</g>
<!-- Node12 -->
<g id="node12" class="node">
<title>Node12</title>
<g id="a_node12"><a xlink:href="runtime_2base_8h.html" target="_top" xlink:title=" ">
<polygon fill="white" stroke="black" points="699,-62 699,-81 812,-81 812,-62 699,-62"/>
<text text-anchor="middle" x="755.5" y="-69" font-family="Helvetica,sans-Serif" font-size="10.00">tvm/runtime/base.h</text>
</a>
</g>
</g>
<!-- Node9&#45;&gt;Node12 -->
<g id="edge13" class="edge">
<title>Node9&#45;&gt;Node12</title>
<path fill="none" stroke="midnightblue" d="M462.01,-123.85C519.94,-115.53 611.09,-101.77 689.5,-87 695.7,-85.83 702.22,-84.51 708.63,-83.16"/>
<polygon fill="midnightblue" stroke="midnightblue" points="709.54,-86.55 718.58,-81.02 708.07,-79.7 709.54,-86.55"/>
</g>
<!-- Node14 -->
<g id="node14" class="node">
<title>Node14</title>
<g id="a_node14"><a xlink:title=" ">
<polygon fill="white" stroke="#bfbfbf" points="444,-62 444,-81 499,-81 499,-62 444,-62"/>
<text text-anchor="middle" x="471.5" y="-69" font-family="Helvetica,sans-Serif" font-size="10.00">fstream</text>
</a>
</g>
</g>
<!-- Node9&#45;&gt;Node14 -->
<g id="edge15" class="edge">
<title>Node9&#45;&gt;Node14</title>
<path fill="none" stroke="midnightblue" d="M413.24,-123.48C423.85,-114.2 441.02,-99.17 453.98,-87.83"/>
<polygon fill="midnightblue" stroke="midnightblue" points="456.55,-90.23 461.78,-81.01 451.94,-84.96 456.55,-90.23"/>
</g>
<!-- Node9&#45;&gt;Node15 -->
<g id="edge16" class="edge">
<title>Node9&#45;&gt;Node15</title>
<path fill="none" stroke="midnightblue" d="M462.33,-126.69C569.08,-116.91 786.78,-96.2 820.5,-87 822.65,-86.41 824.84,-85.7 827.01,-84.9"/>
<polygon fill="midnightblue" stroke="midnightblue" points="828.37,-88.13 836.26,-81.06 825.69,-81.66 828.37,-88.13"/>
</g>
<!-- Node16 -->
<g id="node16" class="node">
<title>Node16</title>
<g id="a_node16"><a xlink:title=" ">
<polygon fill="white" stroke="#bfbfbf" points="517,-62 517,-81 564,-81 564,-62 517,-62"/>
<text text-anchor="middle" x="540.5" y="-69" font-family="Helvetica,sans-Serif" font-size="10.00">vector</text>
</a>
</g>
</g>
<!-- Node9&#45;&gt;Node16 -->
<g id="edge18" class="edge">
<title>Node9&#45;&gt;Node16</title>
<path fill="none" stroke="midnightblue" d="M423.45,-123.41C444.4,-114.38 478.29,-99.74 507.5,-87 508.86,-86.41 510.26,-85.8 511.66,-85.18"/>
<polygon fill="midnightblue" stroke="midnightblue" points="513.21,-88.33 520.96,-81.11 510.4,-81.91 513.21,-88.33"/>
</g>
<!-- Node13 -->
<g id="node13" class="node">
<title>Node13</title>
<g id="a_node13"><a xlink:title=" ">
<polygon fill="white" stroke="#bfbfbf" points="712.5,-0.5 712.5,-19.5 798.5,-19.5 798.5,-0.5 712.5,-0.5"/>
<text text-anchor="middle" x="755.5" y="-7.5" font-family="Helvetica,sans-Serif" font-size="10.00">tvm/ffi/c_api.h</text>
</a>
</g>
</g>
<!-- Node12&#45;&gt;Node13 -->
<g id="edge14" class="edge">
<title>Node12&#45;&gt;Node13</title>
<path fill="none" stroke="midnightblue" d="M755.5,-61.98C755.5,-53.58 755.5,-40.48 755.5,-29.66"/>
<polygon fill="midnightblue" stroke="midnightblue" points="759,-29.51 755.5,-19.51 752,-29.51 759,-29.51"/>
</g>
<!-- Node17&#45;&gt;Node12 -->
<g id="edge23" class="edge">
<title>Node17&#45;&gt;Node12</title>
<path fill="none" stroke="midnightblue" d="M1046.5,-123.49C988.48,-115.14 898.8,-101.56 821.5,-87 815.3,-85.83 808.78,-84.51 802.37,-83.16"/>
<polygon fill="midnightblue" stroke="midnightblue" points="802.93,-79.7 792.42,-81.02 801.46,-86.55 802.93,-79.7"/>
</g>
<!-- Node17&#45;&gt;Node15 -->
<g id="edge25" class="edge">
<title>Node17&#45;&gt;Node15</title>
<path fill="none" stroke="midnightblue" d="M1044.67,-123.5C999.18,-116.36 936.63,-104.48 883.5,-87 881.83,-86.45 880.13,-85.84 878.44,-85.18"/>
<polygon fill="midnightblue" stroke="midnightblue" points="879.5,-81.82 868.93,-81.08 876.73,-88.25 879.5,-81.82"/>
</g>
<!-- Node18 -->
<g id="node18" class="node">
<title>Node18</title>
<g id="a_node18"><a xlink:title=" ">
<polygon fill="white" stroke="#bfbfbf" points="980,-62 980,-81 1119,-81 1119,-62 980,-62"/>
<text text-anchor="middle" x="1049.5" y="-69" font-family="Helvetica,sans-Serif" font-size="10.00">tvm/ffi/container/shape.h</text>
</a>
</g>
</g>
<!-- Node17&#45;&gt;Node18 -->
<g id="edge20" class="edge">
<title>Node17&#45;&gt;Node18</title>
<path fill="none" stroke="midnightblue" d="M1099.19,-123.48C1090.32,-114.37 1076.05,-99.74 1065.08,-88.48"/>
<polygon fill="midnightblue" stroke="midnightblue" points="1067.28,-85.73 1057.79,-81.01 1062.27,-90.61 1067.28,-85.73"/>
</g>
<!-- Node19 -->
<g id="node19" class="node">
<title>Node19</title>
<g id="a_node19"><a xlink:title=" ">
<polygon fill="white" stroke="#bfbfbf" points="1137,-62 1137,-81 1226,-81 1226,-62 1137,-62"/>
<text text-anchor="middle" x="1181.5" y="-69" font-family="Helvetica,sans-Serif" font-size="10.00">tvm/ffi/dtype.h</text>
</a>
</g>
</g>
<!-- Node17&#45;&gt;Node19 -->
<g id="edge21" class="edge">
<title>Node17&#45;&gt;Node19</title>
<path fill="none" stroke="midnightblue" d="M1118.1,-123.48C1129.75,-114.11 1148.69,-98.88 1162.83,-87.51"/>
<polygon fill="midnightblue" stroke="midnightblue" points="1165.32,-90 1170.92,-81.01 1160.93,-84.55 1165.32,-90"/>
</g>
<!-- Node20 -->
<g id="node20" class="node">
<title>Node20</title>
<g id="a_node20"><a xlink:title=" ">
<polygon fill="white" stroke="#bfbfbf" points="1244,-62 1244,-81 1327,-81 1327,-62 1244,-62"/>
<text text-anchor="middle" x="1285.5" y="-69" font-family="Helvetica,sans-Serif" font-size="10.00">tvm/ffi/error.h</text>
</a>
</g>
</g>
<!-- Node17&#45;&gt;Node20 -->
<g id="edge22" class="edge">
<title>Node17&#45;&gt;Node20</title>
<path fill="none" stroke="midnightblue" d="M1133,-123.48C1163.8,-113.18 1215.77,-95.81 1250.35,-84.25"/>
<polygon fill="midnightblue" stroke="midnightblue" points="1251.67,-87.5 1260.04,-81.01 1249.45,-80.86 1251.67,-87.5"/>
</g>
<!-- Node21 -->
<g id="node21" class="node">
<title>Node21</title>
<g id="a_node21"><a xlink:title=" ">
<polygon fill="white" stroke="#bfbfbf" points="1345.5,-62 1345.5,-81 1395.5,-81 1395.5,-62 1345.5,-62"/>
<text text-anchor="middle" x="1370.5" y="-69" font-family="Helvetica,sans-Serif" font-size="10.00">cstring</text>
</a>
</g>
</g>
<!-- Node17&#45;&gt;Node21 -->
<g id="edge24" class="edge">
<title>Node17&#45;&gt;Node21</title>
<path fill="none" stroke="midnightblue" d="M1167.82,-123.44C1214.25,-116.05 1279.7,-103.88 1335.5,-87 1337.78,-86.31 1340.12,-85.52 1342.46,-84.68"/>
<polygon fill="midnightblue" stroke="midnightblue" points="1343.81,-87.91 1351.86,-81.02 1341.27,-81.39 1343.81,-87.91"/>
</g>
<!-- Node17&#45;&gt;Node22 -->
<g id="edge26" class="edge">
<title>Node17&#45;&gt;Node22</title>
<path fill="none" stroke="midnightblue" d="M1081.22,-123.43C1053.62,-114.43 1008.98,-99.81 970.5,-87 967.93,-86.14 965.27,-85.25 962.59,-84.36"/>
<polygon fill="midnightblue" stroke="midnightblue" points="963.55,-80.99 952.95,-81.12 961.32,-87.62 963.55,-80.99"/>
</g>
</g>
</svg>
