<?xml version="1.0" encoding="UTF-8" standalone="no"?>
<!DOCTYPE svg PUBLIC "-//W3C//DTD SVG 1.1//EN"
 "http://www.w3.org/Graphics/SVG/1.1/DTD/svg11.dtd">
<!-- Generated by graphviz version 2.43.0 (0)
 -->
<!-- Title: include/tvm/tirx/var.h Pages: 1 -->
<svg width="1717pt" height="263pt"
 viewBox="0.00 0.00 1716.50 263.00" xmlns="http://www.w3.org/2000/svg" xmlns:xlink="http://www.w3.org/1999/xlink">
<g id="graph0" class="graph" transform="scale(1 1) rotate(0) translate(4 259)">
<title>include/tvm/tirx/var.h</title>
<polygon fill="white" stroke="transparent" points="-4,4 -4,-259 1712.5,-259 1712.5,4 -4,4"/>
<!-- Node1 -->
<g id="node1" class="node">
<title>Node1</title>
<g id="a_node1"><a xlink:title="Variables in the TIR.">
<polygon fill="#bfbfbf" stroke="black" points="1216,-235.5 1216,-254.5 1337,-254.5 1337,-235.5 1216,-235.5"/>
<text text-anchor="middle" x="1276.5" y="-242.5" font-family="Helvetica,sans-Serif" font-size="10.00">include/tvm/tirx/var.h</text>
</a>
</g>
</g>
<!-- Node2 -->
<g id="node2" class="node">
<title>Node2</title>
<g id="a_node2"><a xlink:href="cow_8h.html" target="_top" xlink:title="Copy&#45;on&#45;write helper macro for IR ffi::ObjectRef types.">
<polygon fill="white" stroke="black" points="307,-123.5 307,-142.5 384,-142.5 384,-123.5 307,-123.5"/>
<text text-anchor="middle" x="345.5" y="-130.5" font-family="Helvetica,sans-Serif" font-size="10.00">tvm/ir/cow.h</text>
</a>
</g>
</g>
<!-- Node1&#45;&gt;Node2 -->
<g id="edge1" class="edge">
<title>Node1&#45;&gt;Node2</title>
<path fill="none" stroke="midnightblue" d="M1215.82,-238.57C1073.92,-225.54 709.26,-190.17 394.47,-143.05"/>
<polygon fill="midnightblue" stroke="midnightblue" points="394.64,-139.53 384.23,-141.51 393.6,-146.46 394.64,-139.53"/>
</g>
<!-- Node5 -->
<g id="node5" class="node">
<title>Node5</title>
<g id="a_node5"><a xlink:href="ir_2expr_8h.html" target="_top" xlink:title="Base expr nodes in TVM.">
<polygon fill="white" stroke="black" points="996,-179.5 996,-198.5 1075,-198.5 1075,-179.5 996,-179.5"/>
<text text-anchor="middle" x="1035.5" y="-186.5" font-family="Helvetica,sans-Serif" font-size="10.00">tvm/ir/expr.h</text>
</a>
</g>
</g>
<!-- Node1&#45;&gt;Node5 -->
<g id="edge4" class="edge">
<title>Node1&#45;&gt;Node5</title>
<path fill="none" stroke="midnightblue" d="M1238.31,-235.44C1196.36,-226.04 1128.91,-210.93 1083.43,-200.74"/>
<polygon fill="midnightblue" stroke="midnightblue" points="1084.03,-197.29 1073.51,-198.52 1082.5,-204.12 1084.03,-197.29"/>
</g>
<!-- Node21 -->
<g id="node21" class="node">
<title>Node21</title>
<g id="a_node21"><a xlink:title=" ">
<polygon fill="white" stroke="#bfbfbf" points="1664.5,-62 1664.5,-81 1708.5,-81 1708.5,-62 1664.5,-62"/>
<text text-anchor="middle" x="1686.5" y="-69" font-family="Helvetica,sans-Serif" font-size="10.00">string</text>
</a>
</g>
</g>
<!-- Node1&#45;&gt;Node21 -->
<g id="edge42" class="edge">
<title>Node1&#45;&gt;Node21</title>
<path fill="none" stroke="midnightblue" d="M1297.91,-235.38C1355.7,-212.07 1519.57,-145.57 1654.5,-87 1655.86,-86.41 1657.26,-85.8 1658.66,-85.18"/>
<polygon fill="midnightblue" stroke="midnightblue" points="1660.23,-88.31 1667.93,-81.03 1657.37,-81.92 1660.23,-88.31"/>
</g>
<!-- Node23 -->
<g id="node23" class="node">
<title>Node23</title>
<g id="a_node23"><a xlink:href="data__type_8h.html" target="_top" xlink:title=" ">
<polygon fill="white" stroke="black" points="1207.5,-123.5 1207.5,-142.5 1345.5,-142.5 1345.5,-123.5 1207.5,-123.5"/>
<text text-anchor="middle" x="1276.5" y="-130.5" font-family="Helvetica,sans-Serif" font-size="10.00">tvm/runtime/data_type.h</text>
</a>
</g>
</g>
<!-- Node1&#45;&gt;Node23 -->
<g id="edge40" class="edge">
<title>Node1&#45;&gt;Node23</title>
<path fill="none" stroke="midnightblue" d="M1276.5,-235.37C1276.5,-217.62 1276.5,-176.67 1276.5,-152.6"/>
<polygon fill="midnightblue" stroke="midnightblue" points="1280,-152.59 1276.5,-142.59 1273,-152.59 1280,-152.59"/>
</g>
<!-- Node28 -->
<g id="node28" class="node">
<title>Node28</title>
<g id="a_node28"><a xlink:title=" ">
<polygon fill="white" stroke="#bfbfbf" points="1402,-123.5 1402,-142.5 1467,-142.5 1467,-123.5 1402,-123.5"/>
<text text-anchor="middle" x="1434.5" y="-130.5" font-family="Helvetica,sans-Serif" font-size="10.00">functional</text>
</a>
</g>
</g>
<!-- Node1&#45;&gt;Node28 -->
<g id="edge41" class="edge">
<title>Node1&#45;&gt;Node28</title>
<path fill="none" stroke="midnightblue" d="M1288.9,-235.37C1315.9,-216.57 1380.25,-171.77 1413.62,-148.53"/>
<polygon fill="midnightblue" stroke="midnightblue" points="1415.95,-151.18 1422.16,-142.59 1411.95,-145.43 1415.95,-151.18"/>
</g>
<!-- Node3 -->
<g id="node3" class="node">
<title>Node3</title>
<g id="a_node3"><a xlink:title=" ">
<polygon fill="white" stroke="#bfbfbf" points="0,-62 0,-81 91,-81 91,-62 0,-62"/>
<text text-anchor="middle" x="45.5" y="-69" font-family="Helvetica,sans-Serif" font-size="10.00">tvm/ffi/object.h</text>
</a>
</g>
</g>
<!-- Node2&#45;&gt;Node3 -->
<g id="edge2" class="edge">
<title>Node2&#45;&gt;Node3</title>
<path fill="none" stroke="midnightblue" d="M306.95,-125.95C258.36,-118.09 172.35,-103.42 99.5,-87 95.01,-85.99 90.33,-84.85 85.69,-83.68"/>
<polygon fill="midnightblue" stroke="midnightblue" points="86.23,-80.2 75.67,-81.06 84.46,-86.97 86.23,-80.2"/>
</g>
<!-- Node4 -->
<g id="node4" class="node">
<title>Node4</title>
<g id="a_node4"><a xlink:title=" ">
<polygon fill="white" stroke="#bfbfbf" points="323,-62 323,-81 368,-81 368,-62 323,-62"/>
<text text-anchor="middle" x="345.5" y="-69" font-family="Helvetica,sans-Serif" font-size="10.00">utility</text>
</a>
</g>
</g>
<!-- Node2&#45;&gt;Node4 -->
<g id="edge3" class="edge">
<title>Node2&#45;&gt;Node4</title>
<path fill="none" stroke="midnightblue" d="M345.5,-123.48C345.5,-115.08 345.5,-101.98 345.5,-91.16"/>
<polygon fill="midnightblue" stroke="midnightblue" points="349,-91.01 345.5,-81.01 342,-91.01 349,-91.01"/>
</g>
<!-- Node5&#45;&gt;Node2 -->
<g id="edge16" class="edge">
<title>Node5&#45;&gt;Node2</title>
<path fill="none" stroke="midnightblue" d="M995.89,-186.81C896.46,-183.5 628.15,-172.45 394.27,-142.94"/>
<polygon fill="midnightblue" stroke="midnightblue" points="394.57,-139.45 384.21,-141.66 393.69,-146.39 394.57,-139.45"/>
</g>
<!-- Node6 -->
<g id="node6" class="node">
<title>Node6</title>
<g id="a_node6"><a xlink:title=" ">
<polygon fill="white" stroke="#bfbfbf" points="402.5,-123.5 402.5,-142.5 538.5,-142.5 538.5,-123.5 402.5,-123.5"/>
<text text-anchor="middle" x="470.5" y="-130.5" font-family="Helvetica,sans-Serif" font-size="10.00">tvm/ffi/extra/dataclass.h</text>
</a>
</g>
</g>
<!-- Node5&#45;&gt;Node6 -->
<g id="edge5" class="edge">
<title>Node5&#45;&gt;Node6</title>
<path fill="none" stroke="midnightblue" d="M995.93,-184.68C914.4,-177.77 721.52,-161.06 548.56,-143.09"/>
<polygon fill="midnightblue" stroke="midnightblue" points="548.82,-139.6 538.51,-142.04 548.09,-146.56 548.82,-139.6"/>
</g>
<!-- Node7 -->
<g id="node7" class="node">
<title>Node7</title>
<g id="a_node7"><a xlink:title=" ">
<polygon fill="white" stroke="#bfbfbf" points="485.5,-56.5 485.5,-86.5 583.5,-86.5 583.5,-56.5 485.5,-56.5"/>
<text text-anchor="start" x="493.5" y="-74.5" font-family="Helvetica,sans-Serif" font-size="10.00">tvm/ffi/reflection</text>
<text text-anchor="middle" x="534.5" y="-63.5" font-family="Helvetica,sans-Serif" font-size="10.00">/registry.h</text>
</a>
</g>
</g>
<!-- Node5&#45;&gt;Node7 -->
<g id="edge6" class="edge">
<title>Node5&#45;&gt;Node7</title>
<path fill="none" stroke="midnightblue" d="M998.82,-179.46C966.99,-171.56 919.95,-158.68 880.5,-143 862.4,-135.81 860.06,-128.92 841.5,-123 737.99,-89.99 704.13,-107.52 593.64,-87.07"/>
<polygon fill="midnightblue" stroke="midnightblue" points="594.26,-83.63 583.78,-85.18 592.95,-90.5 594.26,-83.63"/>
</g>
<!-- Node8 -->
<g id="node8" class="node">
<title>Node8</title>
<g id="a_node8"><a xlink:title=" ">
<polygon fill="white" stroke="#bfbfbf" points="744,-123.5 744,-142.5 833,-142.5 833,-123.5 744,-123.5"/>
<text text-anchor="middle" x="788.5" y="-130.5" font-family="Helvetica,sans-Serif" font-size="10.00">tvm/ffi/string.h</text>
</a>
</g>
</g>
<!-- Node5&#45;&gt;Node8 -->
<g id="edge7" class="edge">
<title>Node5&#45;&gt;Node8</title>
<path fill="none" stroke="midnightblue" d="M996.36,-179.44C953.27,-170.02 883.94,-154.87 837.33,-144.68"/>
<polygon fill="midnightblue" stroke="midnightblue" points="837.97,-141.23 827.45,-142.52 836.48,-148.07 837.97,-141.23"/>
</g>
<!-- Node9 -->
<g id="node9" class="node">
<title>Node9</title>
<g id="a_node9"><a xlink:href="cast_8h.html" target="_top" xlink:title="Value casting helpers.">
<polygon fill="white" stroke="black" points="556.5,-123.5 556.5,-142.5 634.5,-142.5 634.5,-123.5 556.5,-123.5"/>
<text text-anchor="middle" x="595.5" y="-130.5" font-family="Helvetica,sans-Serif" font-size="10.00">tvm/ir/cast.h</text>
</a>
</g>
</g>
<!-- Node5&#45;&gt;Node9 -->
<g id="edge8" class="edge">
<title>Node5&#45;&gt;Node9</title>
<path fill="none" stroke="midnightblue" d="M995.68,-183.11C914.99,-173.21 732.46,-150.81 644.58,-140.02"/>
<polygon fill="midnightblue" stroke="midnightblue" points="644.95,-136.54 634.6,-138.8 644.1,-143.49 644.95,-136.54"/>
</g>
<!-- Node15 -->
<g id="node15" class="node">
<title>Node15</title>
<g id="a_node15"><a xlink:href="source__map_8h.html" target="_top" xlink:title="A map from source names to source code.">
<polygon fill="white" stroke="black" points="890,-123.5 890,-142.5 1007,-142.5 1007,-123.5 890,-123.5"/>
<text text-anchor="middle" x="948.5" y="-130.5" font-family="Helvetica,sans-Serif" font-size="10.00">tvm/ir/source_map.h</text>
</a>
</g>
</g>
<!-- Node5&#45;&gt;Node15 -->
<g id="edge17" class="edge">
<title>Node5&#45;&gt;Node15</title>
<path fill="none" stroke="midnightblue" d="M1021.52,-179.32C1007.95,-170.9 987.12,-157.97 971.18,-148.07"/>
<polygon fill="midnightblue" stroke="midnightblue" points="972.79,-144.95 962.44,-142.65 969.09,-150.9 972.79,-144.95"/>
</g>
<!-- Node5&#45;&gt;Node21 -->
<g id="edge38" class="edge">
<title>Node5&#45;&gt;Node21</title>
<path fill="none" stroke="midnightblue" d="M1075.01,-186.77C1136.27,-183.9 1257.23,-174.41 1354.5,-143 1372.66,-137.14 1374.33,-128.83 1392.5,-123 1504.42,-87.09 1541.57,-119.6 1654.5,-87 1656.43,-86.44 1658.4,-85.79 1660.36,-85.07"/>
<polygon fill="midnightblue" stroke="midnightblue" points="1662.01,-88.17 1669.91,-81.11 1659.33,-81.71 1662.01,-88.17"/>
</g>
<!-- Node5&#45;&gt;Node23 -->
<g id="edge27" class="edge">
<title>Node5&#45;&gt;Node23</title>
<path fill="none" stroke="midnightblue" d="M1073.69,-179.44C1115.64,-170.04 1183.09,-154.93 1228.57,-144.74"/>
<polygon fill="midnightblue" stroke="midnightblue" points="1229.5,-148.12 1238.49,-142.52 1227.97,-141.29 1229.5,-148.12"/>
</g>
<!-- Node26 -->
<g id="node26" class="node">
<title>Node26</title>
<g id="a_node26"><a xlink:title=" ">
<polygon fill="white" stroke="#bfbfbf" points="1351,-62 1351,-81 1420,-81 1420,-62 1351,-62"/>
<text text-anchor="middle" x="1385.5" y="-69" font-family="Helvetica,sans-Serif" font-size="10.00">type_traits</text>
</a>
</g>
</g>
<!-- Node5&#45;&gt;Node26 -->
<g id="edge39" class="edge">
<title>Node5&#45;&gt;Node26</title>
<path fill="none" stroke="midnightblue" d="M1035.25,-179.26C1035.37,-165.07 1037.85,-137.18 1054.5,-123 1103.43,-81.32 1278.79,-101.13 1341.5,-87 1345.17,-86.17 1348.96,-85.17 1352.72,-84.07"/>
<polygon fill="midnightblue" stroke="midnightblue" points="1353.94,-87.35 1362.44,-81.03 1351.86,-80.67 1353.94,-87.35"/>
</g>
<!-- Node27 -->
<g id="node27" class="node">
<title>Node27</title>
<g id="a_node27"><a xlink:title=" ">
<polygon fill="white" stroke="#bfbfbf" points="1063.5,-123.5 1063.5,-142.5 1127.5,-142.5 1127.5,-123.5 1063.5,-123.5"/>
<text text-anchor="middle" x="1095.5" y="-130.5" font-family="Helvetica,sans-Serif" font-size="10.00">algorithm</text>
</a>
</g>
</g>
<!-- Node5&#45;&gt;Node27 -->
<g id="edge35" class="edge">
<title>Node5&#45;&gt;Node27</title>
<path fill="none" stroke="midnightblue" d="M1045.14,-179.32C1054.01,-171.34 1067.37,-159.31 1078.11,-149.65"/>
<polygon fill="midnightblue" stroke="midnightblue" points="1080.59,-152.13 1085.68,-142.83 1075.91,-146.92 1080.59,-152.13"/>
</g>
<!-- Node5&#45;&gt;Node28 -->
<g id="edge36" class="edge">
<title>Node5&#45;&gt;Node28</title>
<path fill="none" stroke="midnightblue" d="M1075.21,-183.74C1140.52,-176.54 1274.64,-161 1387.5,-143 1388.96,-142.77 1390.45,-142.52 1391.95,-142.27"/>
<polygon fill="midnightblue" stroke="midnightblue" points="1392.69,-145.69 1401.93,-140.51 1391.47,-138.8 1392.69,-145.69"/>
</g>
<!-- Node29 -->
<g id="node29" class="node">
<title>Node29</title>
<g id="a_node29"><a xlink:title=" ">
<polygon fill="white" stroke="#bfbfbf" points="1145.5,-123.5 1145.5,-142.5 1189.5,-142.5 1189.5,-123.5 1145.5,-123.5"/>
<text text-anchor="middle" x="1167.5" y="-130.5" font-family="Helvetica,sans-Serif" font-size="10.00">limits</text>
</a>
</g>
</g>
<!-- Node5&#45;&gt;Node29 -->
<g id="edge37" class="edge">
<title>Node5&#45;&gt;Node29</title>
<path fill="none" stroke="midnightblue" d="M1056.42,-179.44C1078.24,-170.52 1112.65,-156.44 1137.39,-146.32"/>
<polygon fill="midnightblue" stroke="midnightblue" points="1138.75,-149.54 1146.68,-142.52 1136.1,-143.06 1138.75,-149.54"/>
</g>
<!-- Node9&#45;&gt;Node3 -->
<g id="edge13" class="edge">
<title>Node9&#45;&gt;Node3</title>
<path fill="none" stroke="midnightblue" d="M556.26,-124.3C553.3,-123.82 550.36,-123.38 547.5,-123 349.5,-96.56 296.33,-121.04 99.5,-87 94.12,-86.07 88.5,-84.85 83,-83.51"/>
<polygon fill="midnightblue" stroke="midnightblue" points="83.87,-80.12 73.31,-81.01 82.12,-86.9 83.87,-80.12"/>
</g>
<!-- Node9&#45;&gt;Node4 -->
<g id="edge15" class="edge">
<title>Node9&#45;&gt;Node4</title>
<path fill="none" stroke="midnightblue" d="M556.34,-124.47C498.02,-113.18 393.36,-92.59 376.5,-87 374.83,-86.45 373.14,-85.83 371.44,-85.17"/>
<polygon fill="midnightblue" stroke="midnightblue" points="372.51,-81.81 361.94,-81.06 369.73,-88.24 372.51,-81.81"/>
</g>
<!-- Node10 -->
<g id="node10" class="node">
<title>Node10</title>
<g id="a_node10"><a xlink:title=" ">
<polygon fill="white" stroke="#bfbfbf" points="228,-62 228,-81 305,-81 305,-62 228,-62"/>
<text text-anchor="middle" x="266.5" y="-69" font-family="Helvetica,sans-Serif" font-size="10.00">tvm/ffi/any.h</text>
</a>
</g>
</g>
<!-- Node9&#45;&gt;Node10 -->
<g id="edge9" class="edge">
<title>Node9&#45;&gt;Node10</title>
<path fill="none" stroke="midnightblue" d="M556.49,-124.57C553.45,-124.03 550.43,-123.5 547.5,-123 443.78,-105.3 416.05,-110.57 313.5,-87 309.59,-86.1 305.52,-85.04 301.5,-83.91"/>
<polygon fill="midnightblue" stroke="midnightblue" points="302.26,-80.49 291.68,-81.01 300.28,-87.2 302.26,-80.49"/>
</g>
<!-- Node11 -->
<g id="node11" class="node">
<title>Node11</title>
<g id="a_node11"><a xlink:title=" ">
<polygon fill="white" stroke="#bfbfbf" points="386,-62 386,-81 467,-81 467,-62 386,-62"/>
<text text-anchor="middle" x="426.5" y="-69" font-family="Helvetica,sans-Serif" font-size="10.00">tvm/ffi/cast.h</text>
</a>
</g>
</g>
<!-- Node9&#45;&gt;Node11 -->
<g id="edge10" class="edge">
<title>Node9&#45;&gt;Node11</title>
<path fill="none" stroke="midnightblue" d="M571.29,-123.48C542.17,-113.22 493.13,-95.96 460.3,-84.4"/>
<polygon fill="midnightblue" stroke="midnightblue" points="461.26,-81.03 450.67,-81.01 458.94,-87.63 461.26,-81.03"/>
</g>
<!-- Node12 -->
<g id="node12" class="node">
<title>Node12</title>
<g id="a_node12"><a xlink:title=" ">
<polygon fill="white" stroke="#bfbfbf" points="768,-62 768,-81 857,-81 857,-62 768,-62"/>
<text text-anchor="middle" x="812.5" y="-69" font-family="Helvetica,sans-Serif" font-size="10.00">tvm/ffi/dtype.h</text>
</a>
</g>
</g>
<!-- Node9&#45;&gt;Node12 -->
<g id="edge11" class="edge">
<title>Node9&#45;&gt;Node12</title>
<path fill="none" stroke="midnightblue" d="M626.59,-123.48C664.78,-113 729.67,-95.21 771.8,-83.66"/>
<polygon fill="midnightblue" stroke="midnightblue" points="772.75,-87.03 781.47,-81.01 770.9,-80.28 772.75,-87.03"/>
</g>
<!-- Node13 -->
<g id="node13" class="node">
<title>Node13</title>
<g id="a_node13"><a xlink:title=" ">
<polygon fill="white" stroke="#bfbfbf" points="667,-62 667,-81 750,-81 750,-62 667,-62"/>
<text text-anchor="middle" x="708.5" y="-69" font-family="Helvetica,sans-Serif" font-size="10.00">tvm/ffi/error.h</text>
</a>
</g>
</g>
<!-- Node9&#45;&gt;Node13 -->
<g id="edge12" class="edge">
<title>Node9&#45;&gt;Node13</title>
<path fill="none" stroke="midnightblue" d="M611.69,-123.48C630.4,-113.62 661.42,-97.29 683.3,-85.77"/>
<polygon fill="midnightblue" stroke="midnightblue" points="685.12,-88.77 692.34,-81.01 681.86,-82.57 685.12,-88.77"/>
</g>
<!-- Node14 -->
<g id="node14" class="node">
<title>Node14</title>
<g id="a_node14"><a xlink:title=" ">
<polygon fill="white" stroke="#bfbfbf" points="109,-62 109,-81 210,-81 210,-62 109,-62"/>
<text text-anchor="middle" x="159.5" y="-69" font-family="Helvetica,sans-Serif" font-size="10.00">tvm/ffi/optional.h</text>
</a>
</g>
</g>
<!-- Node9&#45;&gt;Node14 -->
<g id="edge14" class="edge">
<title>Node9&#45;&gt;Node14</title>
<path fill="none" stroke="midnightblue" d="M556.25,-124.39C553.29,-123.89 550.35,-123.42 547.5,-123 402,-101.43 363.35,-112.61 218.5,-87 212.71,-85.98 206.65,-84.71 200.7,-83.36"/>
<polygon fill="midnightblue" stroke="midnightblue" points="201.41,-79.93 190.87,-81.03 199.8,-86.74 201.41,-79.93"/>
</g>
<!-- Node15&#45;&gt;Node4 -->
<g id="edge25" class="edge">
<title>Node15&#45;&gt;Node4</title>
<path fill="none" stroke="midnightblue" d="M889.92,-127C874.2,-125.68 857.2,-124.27 841.5,-123 634.89,-106.31 576.96,-139.77 376.5,-87 374.52,-86.48 372.51,-85.83 370.51,-85.11"/>
<polygon fill="midnightblue" stroke="midnightblue" points="371.43,-81.7 360.86,-81.01 368.7,-88.14 371.43,-81.7"/>
</g>
<!-- Node15&#45;&gt;Node7 -->
<g id="edge20" class="edge">
<title>Node15&#45;&gt;Node7</title>
<path fill="none" stroke="midnightblue" d="M889.92,-124.78C801.37,-113.84 639.57,-93.76 593.76,-86.87"/>
<polygon fill="midnightblue" stroke="midnightblue" points="594.21,-83.4 583.77,-85.24 593.08,-90.31 594.21,-83.4"/>
</g>
<!-- Node16 -->
<g id="node16" class="node">
<title>Node16</title>
<g id="a_node16"><a xlink:title=" ">
<polygon fill="white" stroke="#bfbfbf" points="875.5,-62 875.5,-81 1009.5,-81 1009.5,-62 875.5,-62"/>
<text text-anchor="middle" x="942.5" y="-69" font-family="Helvetica,sans-Serif" font-size="10.00">tvm/ffi/container/array.h</text>
</a>
</g>
</g>
<!-- Node15&#45;&gt;Node16 -->
<g id="edge18" class="edge">
<title>Node15&#45;&gt;Node16</title>
<path fill="none" stroke="midnightblue" d="M947.64,-123.48C946.79,-115.08 945.47,-101.98 944.38,-91.16"/>
<polygon fill="midnightblue" stroke="midnightblue" points="947.84,-90.61 943.36,-81.01 940.88,-91.31 947.84,-90.61"/>
</g>
<!-- Node17 -->
<g id="node17" class="node">
<title>Node17</title>
<g id="a_node17"><a xlink:title=" ">
<polygon fill="white" stroke="#bfbfbf" points="1028,-62 1028,-81 1129,-81 1129,-62 1028,-62"/>
<text text-anchor="middle" x="1078.5" y="-69" font-family="Helvetica,sans-Serif" font-size="10.00">tvm/ffi/function.h</text>
</a>
</g>
</g>
<!-- Node15&#45;&gt;Node17 -->
<g id="edge19" class="edge">
<title>Node15&#45;&gt;Node17</title>
<path fill="none" stroke="midnightblue" d="M967.13,-123.48C988.94,-113.49 1025.3,-96.85 1050.52,-85.31"/>
<polygon fill="midnightblue" stroke="midnightblue" points="1052.27,-88.35 1059.91,-81.01 1049.36,-81.99 1052.27,-88.35"/>
</g>
<!-- Node18 -->
<g id="node18" class="node">
<title>Node18</title>
<g id="a_node18"><a xlink:href="runtime_2base_8h.html" target="_top" xlink:title=" ">
<polygon fill="white" stroke="black" points="1220,-62 1220,-81 1333,-81 1333,-62 1220,-62"/>
<text text-anchor="middle" x="1276.5" y="-69" font-family="Helvetica,sans-Serif" font-size="10.00">tvm/runtime/base.h</text>
</a>
</g>
</g>
<!-- Node15&#45;&gt;Node18 -->
<g id="edge21" class="edge">
<title>Node15&#45;&gt;Node18</title>
<path fill="none" stroke="midnightblue" d="M1002.57,-123.46C1055.64,-114.9 1138.82,-101.02 1210.5,-87 1216.62,-85.8 1223.04,-84.48 1229.38,-83.13"/>
<polygon fill="midnightblue" stroke="midnightblue" points="1230.18,-86.54 1239.21,-81.01 1228.7,-79.7 1230.18,-86.54"/>
</g>
<!-- Node20 -->
<g id="node20" class="node">
<title>Node20</title>
<g id="a_node20"><a xlink:title=" ">
<polygon fill="white" stroke="#bfbfbf" points="1147,-62 1147,-81 1202,-81 1202,-62 1147,-62"/>
<text text-anchor="middle" x="1174.5" y="-69" font-family="Helvetica,sans-Serif" font-size="10.00">fstream</text>
</a>
</g>
</g>
<!-- Node15&#45;&gt;Node20 -->
<g id="edge23" class="edge">
<title>Node15&#45;&gt;Node20</title>
<path fill="none" stroke="midnightblue" d="M992.13,-123.42C1030.74,-115.4 1088.41,-102.38 1137.5,-87 1139.78,-86.29 1142.12,-85.5 1144.46,-84.68"/>
<polygon fill="midnightblue" stroke="midnightblue" points="1145.79,-87.91 1153.94,-81.15 1143.35,-81.35 1145.79,-87.91"/>
</g>
<!-- Node15&#45;&gt;Node21 -->
<g id="edge24" class="edge">
<title>Node15&#45;&gt;Node21</title>
<path fill="none" stroke="midnightblue" d="M1007.07,-126.77C1022.49,-125.46 1039.12,-124.11 1054.5,-123 1320.95,-103.7 1395.18,-151.2 1654.5,-87 1656.71,-86.45 1658.96,-85.76 1661.19,-84.96"/>
<polygon fill="midnightblue" stroke="midnightblue" points="1662.72,-88.12 1670.63,-81.07 1660.06,-81.65 1662.72,-88.12"/>
</g>
<!-- Node22 -->
<g id="node22" class="node">
<title>Node22</title>
<g id="a_node22"><a xlink:title=" ">
<polygon fill="white" stroke="#bfbfbf" points="602,-62 602,-81 649,-81 649,-62 602,-62"/>
<text text-anchor="middle" x="625.5" y="-69" font-family="Helvetica,sans-Serif" font-size="10.00">vector</text>
</a>
</g>
</g>
<!-- Node15&#45;&gt;Node22 -->
<g id="edge26" class="edge">
<title>Node15&#45;&gt;Node22</title>
<path fill="none" stroke="midnightblue" d="M889.99,-123.82C811.47,-112.71 679.3,-93.49 657.5,-87 655.57,-86.43 653.61,-85.76 651.65,-85.03"/>
<polygon fill="midnightblue" stroke="midnightblue" points="652.69,-81.67 642.11,-81.06 650,-88.13 652.69,-81.67"/>
</g>
<!-- Node19 -->
<g id="node19" class="node">
<title>Node19</title>
<g id="a_node19"><a xlink:title=" ">
<polygon fill="white" stroke="#bfbfbf" points="1233.5,-0.5 1233.5,-19.5 1319.5,-19.5 1319.5,-0.5 1233.5,-0.5"/>
<text text-anchor="middle" x="1276.5" y="-7.5" font-family="Helvetica,sans-Serif" font-size="10.00">tvm/ffi/c_api.h</text>
</a>
</g>
</g>
<!-- Node18&#45;&gt;Node19 -->
<g id="edge22" class="edge">
<title>Node18&#45;&gt;Node19</title>
<path fill="none" stroke="midnightblue" d="M1276.5,-61.98C1276.5,-53.58 1276.5,-40.48 1276.5,-29.66"/>
<polygon fill="midnightblue" stroke="midnightblue" points="1280,-29.51 1276.5,-19.51 1273,-29.51 1280,-29.51"/>
</g>
<!-- Node23&#45;&gt;Node12 -->
<g id="edge29" class="edge">
<title>Node23&#45;&gt;Node12</title>
<path fill="none" stroke="midnightblue" d="M1207.18,-123.98C1204.25,-123.65 1201.34,-123.32 1198.5,-123 1051,-106.49 1012.38,-114.33 866.5,-87 861.38,-86.04 856.04,-84.85 850.79,-83.56"/>
<polygon fill="midnightblue" stroke="midnightblue" points="851.45,-80.12 840.9,-81.01 849.7,-86.89 851.45,-80.12"/>
</g>
<!-- Node23&#45;&gt;Node13 -->
<g id="edge30" class="edge">
<title>Node23&#45;&gt;Node13</title>
<path fill="none" stroke="midnightblue" d="M1207.19,-123.88C1204.26,-123.58 1201.35,-123.28 1198.5,-123 1003.24,-103.75 951.47,-122.5 758.5,-87 753.75,-86.13 748.8,-84.99 743.95,-83.73"/>
<polygon fill="midnightblue" stroke="midnightblue" points="744.79,-80.33 734.21,-81.03 742.92,-87.07 744.79,-80.33"/>
</g>
<!-- Node23&#45;&gt;Node18 -->
<g id="edge31" class="edge">
<title>Node23&#45;&gt;Node18</title>
<path fill="none" stroke="midnightblue" d="M1276.5,-123.48C1276.5,-115.08 1276.5,-101.98 1276.5,-91.16"/>
<polygon fill="midnightblue" stroke="midnightblue" points="1280,-91.01 1276.5,-81.01 1273,-91.01 1280,-91.01"/>
</g>
<!-- Node23&#45;&gt;Node21 -->
<g id="edge33" class="edge">
<title>Node23&#45;&gt;Node21</title>
<path fill="none" stroke="midnightblue" d="M1345.91,-124.29C1450.99,-112.54 1639.86,-91.08 1654.5,-87 1656.65,-86.4 1658.84,-85.68 1661.01,-84.88"/>
<polygon fill="midnightblue" stroke="midnightblue" points="1662.37,-88.1 1670.25,-81.02 1659.68,-81.64 1662.37,-88.1"/>
</g>
<!-- Node24 -->
<g id="node24" class="node">
<title>Node24</title>
<g id="a_node24"><a xlink:title=" ">
<polygon fill="white" stroke="#bfbfbf" points="1507,-62 1507,-81 1646,-81 1646,-62 1507,-62"/>
<text text-anchor="middle" x="1576.5" y="-69" font-family="Helvetica,sans-Serif" font-size="10.00">tvm/ffi/container/shape.h</text>
</a>
</g>
</g>
<!-- Node23&#45;&gt;Node24 -->
<g id="edge28" class="edge">
<title>Node23&#45;&gt;Node24</title>
<path fill="none" stroke="midnightblue" d="M1319.48,-123.48C1373.28,-112.8 1465.41,-94.53 1523.51,-83.01"/>
<polygon fill="midnightblue" stroke="midnightblue" points="1524.47,-86.39 1533.6,-81.01 1523.11,-79.52 1524.47,-86.39"/>
</g>
<!-- Node25 -->
<g id="node25" class="node">
<title>Node25</title>
<g id="a_node25"><a xlink:title=" ">
<polygon fill="white" stroke="#bfbfbf" points="1438.5,-62 1438.5,-81 1488.5,-81 1488.5,-62 1438.5,-62"/>
<text text-anchor="middle" x="1463.5" y="-69" font-family="Helvetica,sans-Serif" font-size="10.00">cstring</text>
</a>
</g>
</g>
<!-- Node23&#45;&gt;Node25 -->
<g id="edge32" class="edge">
<title>Node23&#45;&gt;Node25</title>
<path fill="none" stroke="midnightblue" d="M1308.84,-123.49C1339.83,-115.08 1387.77,-101.42 1428.5,-87 1430.36,-86.34 1432.26,-85.64 1434.18,-84.91"/>
<polygon fill="midnightblue" stroke="midnightblue" points="1435.65,-88.09 1443.65,-81.15 1433.07,-81.59 1435.65,-88.09"/>
</g>
<!-- Node23&#45;&gt;Node26 -->
<g id="edge34" class="edge">
<title>Node23&#45;&gt;Node26</title>
<path fill="none" stroke="midnightblue" d="M1292.12,-123.48C1310.09,-113.67 1339.82,-97.43 1360.91,-85.92"/>
<polygon fill="midnightblue" stroke="midnightblue" points="1362.81,-88.87 1369.91,-81.01 1359.46,-82.73 1362.81,-88.87"/>
</g>
</g>
</svg>
